<?xml version="1.0" encoding="UTF-8" standalone="no"?>
<!DOCTYPE svg PUBLIC "-//W3C//DTD SVG 1.1//EN"
 "http://www.w3.org/Graphics/SVG/1.1/DTD/svg11.dtd">
<!-- Generated by graphviz version 2.40.1 (20161225.0304)
 -->
<!-- Title: NoteButtons&lt; NumButtons &gt; Pages: 1 -->
<svg width="177pt" height="750pt"
 viewBox="0.00 0.00 177.00 750.00" xmlns="http://www.w3.org/2000/svg" xmlns:xlink="http://www.w3.org/1999/xlink">
<g id="graph0" class="graph" transform="scale(1 1) rotate(0) translate(4 746)">
<title>NoteButtons&lt; NumButtons &gt;</title>
<polygon fill="#ffffff" stroke="transparent" points="-4,4 -4,-746 173,-746 173,4 -4,4"/>
<!-- Node1 -->
<g id="node1" class="node">
<title>Node1</title>
<g id="a_node1"><a xlink:title="A class of MIDIOutputElements that read the input of a collection of momentary push buttons or switch...">
<polygon fill="#bfbfbf" stroke="#000000" points="12.5,-.5 12.5,-79.5 156.5,-79.5 156.5,-.5 12.5,-.5"/>
<text text-anchor="middle" x="84.5" y="-67.5" font-family="Helvetica,sans-Serif" font-size="10.00" fill="#000000">NoteButtons&lt; NumButtons &gt;</text>
<polyline fill="none" stroke="#000000" points="12.5,-60.5 156.5,-60.5 "/>
<text text-anchor="middle" x="84.5" y="-48.5" font-family="Helvetica,sans-Serif" font-size="10.00" fill="#000000"> </text>
<polyline fill="none" stroke="#000000" points="12.5,-41.5 156.5,-41.5 "/>
<text text-anchor="start" x="20.5" y="-29.5" font-family="Helvetica,sans-Serif" font-size="10.00" fill="#000000">+ NoteButtons()</text>
<text text-anchor="start" x="20.5" y="-18.5" font-family="Helvetica,sans-Serif" font-size="10.00" fill="#000000">+ setVelocity()</text>
<text text-anchor="start" x="20.5" y="-7.5" font-family="Helvetica,sans-Serif" font-size="10.00" fill="#000000">+ getVelocity()</text>
</a>
</g>
</g>
<!-- Node2 -->
<g id="node2" class="node">
<title>Node2</title>
<g id="a_node2"><a xlink:href="../../dc/d22/classBankable_1_1MIDIButtons.html" target="_top" xlink:title=" ">
<polygon fill="#ffffff" stroke="#000000" points="0,-116.5 0,-272.5 169,-272.5 169,-116.5 0,-116.5"/>
<text text-anchor="start" x="8" y="-260.5" font-family="Helvetica,sans-Serif" font-size="10.00" fill="#000000">MIDIButtons&lt; SingleAddress,</text>
<text text-anchor="middle" x="84.5" y="-249.5" font-family="Helvetica,sans-Serif" font-size="10.00" fill="#000000"> DigitalNoteSender, NumButtons &gt;</text>
<polyline fill="none" stroke="#000000" points="0,-242.5 169,-242.5 "/>
<text text-anchor="start" x="8" y="-230.5" font-family="Helvetica,sans-Serif" font-size="10.00" fill="#000000">+ sender</text>
<text text-anchor="start" x="8" y="-219.5" font-family="Helvetica,sans-Serif" font-size="10.00" fill="#000000">&#45; address</text>
<text text-anchor="start" x="8" y="-208.5" font-family="Helvetica,sans-Serif" font-size="10.00" fill="#000000">&#45; buttons</text>
<text text-anchor="start" x="8" y="-197.5" font-family="Helvetica,sans-Serif" font-size="10.00" fill="#000000">&#45; incrementAddress</text>
<text text-anchor="start" x="8" y="-186.5" font-family="Helvetica,sans-Serif" font-size="10.00" fill="#000000">&#45; activeButtons</text>
<polyline fill="none" stroke="#000000" points="0,-179.5 169,-179.5 "/>
<text text-anchor="start" x="8" y="-167.5" font-family="Helvetica,sans-Serif" font-size="10.00" fill="#000000">+ begin()</text>
<text text-anchor="start" x="8" y="-156.5" font-family="Helvetica,sans-Serif" font-size="10.00" fill="#000000">+ update()</text>
<text text-anchor="start" x="8" y="-145.5" font-family="Helvetica,sans-Serif" font-size="10.00" fill="#000000">+ invert()</text>
<text text-anchor="start" x="8" y="-134.5" font-family="Helvetica,sans-Serif" font-size="10.00" fill="#000000">+ getButtonState()</text>
<text text-anchor="start" x="8" y="-123.5" font-family="Helvetica,sans-Serif" font-size="10.00" fill="#000000"># MIDIButtons()</text>
</a>
</g>
</g>
<!-- Node2&#45;&gt;Node1 -->
<g id="edge1" class="edge">
<title>Node2&#45;&gt;Node1</title>
<path fill="none" stroke="#191970" d="M84.5,-106.2383C84.5,-96.9787 84.5,-87.9345 84.5,-79.6528"/>
<polygon fill="none" stroke="#191970" points="81.0001,-106.3447 84.5,-116.3447 88.0001,-106.3448 81.0001,-106.3447"/>
</g>
<!-- Node3 -->
<g id="node3" class="node">
<title>Node3</title>
<g id="a_node3"><a xlink:href="../../d1/d55/classAH_1_1Updatable.html" target="_top" xlink:title=" ">
<polygon fill="#ffffff" stroke="#000000" points="32.5,-309.5 32.5,-399.5 136.5,-399.5 136.5,-309.5 32.5,-309.5"/>
<text text-anchor="middle" x="84.5" y="-387.5" font-family="Helvetica,sans-Serif" font-size="10.00" fill="#000000">MIDIOutputElement</text>
<polyline fill="none" stroke="#000000" points="32.5,-380.5 136.5,-380.5 "/>
<text text-anchor="middle" x="84.5" y="-368.5" font-family="Helvetica,sans-Serif" font-size="10.00" fill="#000000"> </text>
<polyline fill="none" stroke="#000000" points="32.5,-361.5 136.5,-361.5 "/>
<text text-anchor="start" x="40.5" y="-349.5" font-family="Helvetica,sans-Serif" font-size="10.00" fill="#000000">* begin()</text>
<text text-anchor="start" x="40.5" y="-338.5" font-family="Helvetica,sans-Serif" font-size="10.00" fill="#000000">* update()</text>
<text text-anchor="start" x="40.5" y="-327.5" font-family="Helvetica,sans-Serif" font-size="10.00" fill="#000000">* beginAll()</text>
<text text-anchor="start" x="40.5" y="-316.5" font-family="Helvetica,sans-Serif" font-size="10.00" fill="#000000">* updateAll()</text>
</a>
</g>
</g>
<!-- Node3&#45;&gt;Node2 -->
<g id="edge2" class="edge">
<title>Node3&#45;&gt;Node2</title>
<path fill="none" stroke="#191970" d="M84.5,-298.9641C84.5,-290.4833 84.5,-281.5966 84.5,-272.7387"/>
<polygon fill="none" stroke="#191970" points="81.0001,-299.0784 84.5,-309.0784 88.0001,-299.0784 81.0001,-299.0784"/>
</g>
<!-- Node4 -->
<g id="node4" class="node">
<title>Node4</title>
<g id="a_node4"><a xlink:href="../../d8/d1a/classAH_1_1UpdatableCRTP.html" target="_top" xlink:title=" ">
<polygon fill="#ffffff" stroke="#000000" points="13.5,-436.5 13.5,-625.5 155.5,-625.5 155.5,-436.5 13.5,-436.5"/>
<text text-anchor="start" x="21.5" y="-613.5" font-family="Helvetica,sans-Serif" font-size="10.00" fill="#000000">UpdatableCRTP&lt; Updatable</text>
<text text-anchor="middle" x="84.5" y="-602.5" font-family="Helvetica,sans-Serif" font-size="10.00" fill="#000000">&lt; NormalUpdatable &gt; &gt;</text>
<polyline fill="none" stroke="#000000" points="13.5,-595.5 155.5,-595.5 "/>
<text text-anchor="start" x="21.5" y="-583.5" font-family="Helvetica,sans-Serif" font-size="10.00" fill="#000000"># updatables</text>
<polyline fill="none" stroke="#000000" points="13.5,-576.5 155.5,-576.5 "/>
<text text-anchor="start" x="21.5" y="-564.5" font-family="Helvetica,sans-Serif" font-size="10.00" fill="#000000">+ ~UpdatableCRTP()</text>
<text text-anchor="start" x="21.5" y="-553.5" font-family="Helvetica,sans-Serif" font-size="10.00" fill="#000000"># UpdatableCRTP()</text>
<text text-anchor="start" x="21.5" y="-542.5" font-family="Helvetica,sans-Serif" font-size="10.00" fill="#000000">* enable()</text>
<text text-anchor="start" x="21.5" y="-531.5" font-family="Helvetica,sans-Serif" font-size="10.00" fill="#000000">* disable()</text>
<text text-anchor="start" x="21.5" y="-520.5" font-family="Helvetica,sans-Serif" font-size="10.00" fill="#000000">* isEnabled()</text>
<text text-anchor="start" x="21.5" y="-509.5" font-family="Helvetica,sans-Serif" font-size="10.00" fill="#000000">* enable()</text>
<text text-anchor="start" x="21.5" y="-498.5" font-family="Helvetica,sans-Serif" font-size="10.00" fill="#000000">* enable()</text>
<text text-anchor="start" x="21.5" y="-487.5" font-family="Helvetica,sans-Serif" font-size="10.00" fill="#000000">* enable()</text>
<text text-anchor="start" x="21.5" y="-476.5" font-family="Helvetica,sans-Serif" font-size="10.00" fill="#000000">* disable()</text>
<text text-anchor="start" x="21.5" y="-465.5" font-family="Helvetica,sans-Serif" font-size="10.00" fill="#000000">* disable()</text>
<text text-anchor="start" x="21.5" y="-454.5" font-family="Helvetica,sans-Serif" font-size="10.00" fill="#000000">* disable()</text>
<text text-anchor="start" x="21.5" y="-443.5" font-family="Helvetica,sans-Serif" font-size="10.00" fill="#000000">* applyToAll()</text>
</a>
</g>
</g>
<!-- Node4&#45;&gt;Node3 -->
<g id="edge3" class="edge">
<title>Node4&#45;&gt;Node3</title>
<path fill="none" stroke="#191970" d="M84.5,-426.1839C84.5,-416.9415 84.5,-407.9505 84.5,-399.6363"/>
<polygon fill="none" stroke="#191970" points="81.0001,-426.2915 84.5,-436.2915 88.0001,-426.2915 81.0001,-426.2915"/>
</g>
<!-- Node5 -->
<g id="node5" class="node">
<title>Node5</title>
<g id="a_node5"><a xlink:href="../../d4/d23/classDoublyLinkable.html" target="_top" xlink:title=" ">
<polygon fill="#ffffff" stroke="#000000" points="16,-662.5 16,-741.5 153,-741.5 153,-662.5 16,-662.5"/>
<text text-anchor="start" x="24" y="-729.5" font-family="Helvetica,sans-Serif" font-size="10.00" fill="#000000">DoublyLinkable&lt; Updatable</text>
<text text-anchor="middle" x="84.5" y="-718.5" font-family="Helvetica,sans-Serif" font-size="10.00" fill="#000000">&lt; NormalUpdatable &gt; &gt;</text>
<polyline fill="none" stroke="#000000" points="16,-711.5 153,-711.5 "/>
<text text-anchor="start" x="24" y="-699.5" font-family="Helvetica,sans-Serif" font-size="10.00" fill="#000000"># next</text>
<text text-anchor="start" x="24" y="-688.5" font-family="Helvetica,sans-Serif" font-size="10.00" fill="#000000"># previous</text>
<polyline fill="none" stroke="#000000" points="16,-681.5 153,-681.5 "/>
<text text-anchor="start" x="24" y="-669.5" font-family="Helvetica,sans-Serif" font-size="10.00" fill="#000000"># ~DoublyLinkable()</text>
</a>
</g>
</g>
<!-- Node5&#45;&gt;Node4 -->
<g id="edge4" class="edge">
<title>Node5&#45;&gt;Node4</title>
<path fill="none" stroke="#191970" d="M84.5,-652.33C84.5,-643.868 84.5,-634.8344 84.5,-625.6585"/>
<polygon fill="none" stroke="#191970" points="81.0001,-652.3393 84.5,-662.3394 88.0001,-652.3394 81.0001,-652.3393"/>
</g>
</g>
</svg>
