<?xml version="1.0" encoding="UTF-8" standalone="no"?>
<!DOCTYPE svg PUBLIC "-//W3C//DTD SVG 1.1//EN"
 "http://www.w3.org/Graphics/SVG/1.1/DTD/svg11.dtd">
<!-- Generated by graphviz version 2.40.1 (20161225.0304)
 -->
<!-- Title: SettingsWrapper.hpp Pages: 1 -->
<svg width="899pt" height="364pt"
 viewBox="0.00 0.00 898.91 364.00" xmlns="http://www.w3.org/2000/svg" xmlns:xlink="http://www.w3.org/1999/xlink">
<g id="graph0" class="graph" transform="scale(1 1) rotate(0) translate(4 360)">
<title>SettingsWrapper.hpp</title>
<polygon fill="#ffffff" stroke="transparent" points="-4,4 -4,-360 894.9083,-360 894.9083,4 -4,4"/>
<!-- Node1 -->
<g id="node1" class="node">
<title>Node1</title>
<g id="a_node1"><a xlink:title=" ">
<polygon fill="#bfbfbf" stroke="#000000" points="565,-336.5 565,-355.5 673,-355.5 673,-336.5 565,-336.5"/>
<text text-anchor="middle" x="619" y="-343.5" font-family="Helvetica,sans-Serif" font-size="10.00" fill="#000000">SettingsWrapper.hpp</text>
</a>
</g>
</g>
<!-- Node2 -->
<g id="node2" class="node">
<title>Node2</title>
<g id="a_node2"><a xlink:href="../../d1/d65/Warnings_8hpp.html" target="_top" xlink:title=" ">
<polygon fill="#ffffff" stroke="#000000" points="375.5,-.5 375.5,-19.5 508.5,-19.5 508.5,-.5 375.5,-.5"/>
<text text-anchor="middle" x="442" y="-7.5" font-family="Helvetica,sans-Serif" font-size="10.00" fill="#000000">AH/Settings/Warnings.hpp</text>
</a>
</g>
</g>
<!-- Node1&#45;&gt;Node2 -->
<g id="edge1" class="edge">
<title>Node1&#45;&gt;Node2</title>
<path fill="none" stroke="#191970" d="M673.1462,-342.7033C738.33,-337.6409 842.5996,-325.6999 871,-300 893.6334,-279.5187 890,-264.5246 890,-234 890,-234 890,-234 890,-122 890,-46.3817 646.7393,-21.3915 518.726,-13.4759"/>
<polygon fill="#191970" stroke="#191970" points="518.7775,-9.9728 508.5864,-12.8697 518.3596,-16.9603 518.7775,-9.9728"/>
</g>
<!-- Node3 -->
<g id="node3" class="node">
<title>Node3</title>
<g id="a_node3"><a xlink:href="../../d6/db0/AH_2Settings_2NamespaceSettings_8hpp.html" target="_top" xlink:title=" ">
<polygon fill="#ffffff" stroke="#000000" points="290,-56.5 290,-75.5 414,-75.5 414,-56.5 290,-56.5"/>
<text text-anchor="middle" x="352" y="-63.5" font-family="Helvetica,sans-Serif" font-size="10.00" fill="#000000">NamespaceSettings.hpp</text>
</a>
</g>
</g>
<!-- Node1&#45;&gt;Node3 -->
<g id="edge2" class="edge">
<title>Node1&#45;&gt;Node3</title>
<path fill="none" stroke="#191970" d="M564.8808,-341.8965C414.0572,-329.741 0,-291.1647 0,-234 0,-234 0,-234 0,-178 0,-139.2415 23.1089,-130.8046 57,-112 94.1741,-91.3738 204.8281,-78.2941 279.5333,-71.5585"/>
<polygon fill="#191970" stroke="#191970" points="280.1711,-75.0159 289.8246,-70.65 279.5555,-68.043 280.1711,-75.0159"/>
</g>
<!-- Node4 -->
<g id="node4" class="node">
<title>Node4</title>
<g id="a_node4"><a xlink:href="../../d5/d4f/AH_2Settings_2Settings_8hpp.html" target="_top" xlink:title="All user settings and debugging options can be changed here.">
<polygon fill="#ffffff" stroke="#000000" points="372.5,-280.5 372.5,-299.5 443.5,-299.5 443.5,-280.5 372.5,-280.5"/>
<text text-anchor="middle" x="408" y="-287.5" font-family="Helvetica,sans-Serif" font-size="10.00" fill="#000000">Settings.hpp</text>
</a>
</g>
</g>
<!-- Node1&#45;&gt;Node4 -->
<g id="edge3" class="edge">
<title>Node1&#45;&gt;Node4</title>
<path fill="none" stroke="#191970" d="M582.7278,-336.3733C547.0342,-326.9001 492.4121,-312.4032 453.7549,-302.1435"/>
<polygon fill="#191970" stroke="#191970" points="454.3621,-298.6835 443.7989,-299.5011 452.5664,-305.4493 454.3621,-298.6835"/>
</g>
<!-- Node15 -->
<g id="node15" class="node">
<title>Node15</title>
<g id="a_node15"><a xlink:href="../../d9/d98/TeensyUSBTypes_8hpp.html" target="_top" xlink:title=" ">
<polygon fill="#ffffff" stroke="#000000" points="694,-280.5 694,-299.5 862,-299.5 862,-280.5 694,-280.5"/>
<text text-anchor="middle" x="778" y="-287.5" font-family="Helvetica,sans-Serif" font-size="10.00" fill="#000000">AH/Teensy/TeensyUSBTypes.hpp</text>
</a>
</g>
</g>
<!-- Node1&#45;&gt;Node15 -->
<g id="edge21" class="edge">
<title>Node1&#45;&gt;Node15</title>
<path fill="none" stroke="#191970" d="M646.3331,-336.3733C672.5434,-327.1419 712.2984,-313.1402 741.2668,-302.9375"/>
<polygon fill="#191970" stroke="#191970" points="742.7542,-306.1244 751.0236,-299.5011 740.4288,-299.5219 742.7542,-306.1244"/>
</g>
<!-- Node16 -->
<g id="node16" class="node">
<title>Node16</title>
<g id="a_node16"><a xlink:href="../../df/dee/Debug_8hpp.html" target="_top" xlink:title=" ">
<polygon fill="#ffffff" stroke="#000000" points="562.5,-280.5 562.5,-299.5 675.5,-299.5 675.5,-280.5 562.5,-280.5"/>
<text text-anchor="middle" x="619" y="-287.5" font-family="Helvetica,sans-Serif" font-size="10.00" fill="#000000">AH/Debug/Debug.hpp</text>
</a>
</g>
</g>
<!-- Node1&#45;&gt;Node16 -->
<g id="edge22" class="edge">
<title>Node1&#45;&gt;Node16</title>
<path fill="none" stroke="#191970" d="M613.7332,-336.2455C612.3221,-328.9382 611.9179,-318.6944 612.5205,-309.7046"/>
<polygon fill="#191970" stroke="#191970" points="616.0111,-309.9945 613.7549,-299.6427 609.0632,-309.1421 616.0111,-309.9945"/>
</g>
<!-- Node5 -->
<g id="node5" class="node">
<title>Node5</title>
<g id="a_node5"><a xlink:href="../../dc/d50/Frequency_8hpp.html" target="_top" xlink:title=" ">
<polygon fill="#ffffff" stroke="#000000" points="367,-112.5 367,-131.5 495,-131.5 495,-112.5 367,-112.5"/>
<text text-anchor="middle" x="431" y="-119.5" font-family="Helvetica,sans-Serif" font-size="10.00" fill="#000000">AH/Types/Frequency.hpp</text>
</a>
</g>
</g>
<!-- Node4&#45;&gt;Node5 -->
<g id="edge4" class="edge">
<title>Node4&#45;&gt;Node5</title>
<path fill="none" stroke="#191970" d="M383.5288,-280.3462C368.2893,-272.9011 349.9388,-260.9799 341,-244 336.8593,-236.1344 337.8563,-232.3144 341,-224 354.7014,-187.763 387.7986,-156.0841 409.8083,-138.0011"/>
<polygon fill="#191970" stroke="#191970" points="412.003,-140.7276 417.6373,-131.7552 407.6374,-135.2556 412.003,-140.7276"/>
</g>
<!-- Node6 -->
<g id="node6" class="node">
<title>Node6</title>
<g id="a_node6"><a xlink:href="../../d7/d7c/ADCConfig_8hpp.html" target="_top" xlink:title="This file contains the platform&#45;specific ADC resolutions. By default, the library automatically selec...">
<polygon fill="#ffffff" stroke="#000000" points="100,-224.5 100,-243.5 248,-243.5 248,-224.5 100,-224.5"/>
<text text-anchor="middle" x="174" y="-231.5" font-family="Helvetica,sans-Serif" font-size="10.00" fill="#000000">AH/Hardware/ADCConfig.hpp</text>
</a>
</g>
</g>
<!-- Node4&#45;&gt;Node6 -->
<g id="edge7" class="edge">
<title>Node4&#45;&gt;Node6</title>
<path fill="none" stroke="#191970" d="M372.4604,-281.4948C332.7601,-271.9939 268.218,-256.5479 223.5683,-245.8625"/>
<polygon fill="#191970" stroke="#191970" points="224.3385,-242.448 213.7984,-243.5244 222.7092,-249.2558 224.3385,-242.448"/>
</g>
<!-- Node12 -->
<g id="node12" class="node">
<title>Node12</title>
<g id="a_node12"><a xlink:title=" ">
<polygon fill="#ffffff" stroke="#bfbfbf" points="350,-224.5 350,-243.5 398,-243.5 398,-224.5 350,-224.5"/>
<text text-anchor="middle" x="374" y="-231.5" font-family="Helvetica,sans-Serif" font-size="10.00" fill="#000000">limits.h</text>
</a>
</g>
</g>
<!-- Node4&#45;&gt;Node12 -->
<g id="edge18" class="edge">
<title>Node4&#45;&gt;Node12</title>
<path fill="none" stroke="#191970" d="M402.0777,-280.2455C397.3973,-272.5367 390.7327,-261.5598 385.0711,-252.2348"/>
<polygon fill="#191970" stroke="#191970" points="388.0361,-250.3741 379.8545,-243.6427 382.0525,-254.007 388.0361,-250.3741"/>
</g>
<!-- Node13 -->
<g id="node13" class="node">
<title>Node13</title>
<g id="a_node13"><a xlink:title=" ">
<polygon fill="#ffffff" stroke="#bfbfbf" points="416,-224.5 416,-243.5 468,-243.5 468,-224.5 416,-224.5"/>
<text text-anchor="middle" x="442" y="-231.5" font-family="Helvetica,sans-Serif" font-size="10.00" fill="#000000">stddef.h</text>
</a>
</g>
</g>
<!-- Node4&#45;&gt;Node13 -->
<g id="edge19" class="edge">
<title>Node4&#45;&gt;Node13</title>
<path fill="none" stroke="#191970" d="M413.9223,-280.2455C418.6027,-272.5367 425.2673,-261.5598 430.9289,-252.2348"/>
<polygon fill="#191970" stroke="#191970" points="433.9475,-254.007 436.1455,-243.6427 427.9639,-250.3741 433.9475,-254.007"/>
</g>
<!-- Node14 -->
<g id="node14" class="node">
<title>Node14</title>
<g id="a_node14"><a xlink:title=" ">
<polygon fill="#ffffff" stroke="#bfbfbf" points="486.5,-224.5 486.5,-243.5 535.5,-243.5 535.5,-224.5 486.5,-224.5"/>
<text text-anchor="middle" x="511" y="-231.5" font-family="Helvetica,sans-Serif" font-size="10.00" fill="#000000">stdint.h</text>
</a>
</g>
</g>
<!-- Node4&#45;&gt;Node14 -->
<g id="edge20" class="edge">
<title>Node4&#45;&gt;Node14</title>
<path fill="none" stroke="#191970" d="M425.9412,-280.2455C442.04,-271.4928 465.8879,-258.527 484.2391,-248.5496"/>
<polygon fill="#191970" stroke="#191970" points="486.1507,-251.4942 493.2644,-243.6427 482.8071,-245.3444 486.1507,-251.4942"/>
</g>
<!-- Node5&#45;&gt;Node2 -->
<g id="edge5" class="edge">
<title>Node5&#45;&gt;Node2</title>
<path fill="none" stroke="#191970" d="M431.9379,-112.4509C433.7319,-94.184 437.683,-53.9553 440.0654,-29.6976"/>
<polygon fill="#191970" stroke="#191970" points="443.5702,-29.8191 441.0645,-19.5249 436.6038,-29.1349 443.5702,-29.8191"/>
</g>
<!-- Node5&#45;&gt;Node3 -->
<g id="edge6" class="edge">
<title>Node5&#45;&gt;Node3</title>
<path fill="none" stroke="#191970" d="M417.2393,-112.2455C405.3448,-103.814 387.935,-91.4729 374.0915,-81.6598"/>
<polygon fill="#191970" stroke="#191970" points="375.7854,-78.5704 365.6031,-75.6427 371.7372,-84.2811 375.7854,-78.5704"/>
</g>
<!-- Node6&#45;&gt;Node2 -->
<g id="edge8" class="edge">
<title>Node6&#45;&gt;Node2</title>
<path fill="none" stroke="#191970" d="M151.8745,-224.4891C108.9229,-204.7128 21.4579,-157.2238 57,-112 98.8305,-58.7748 142.4324,-101.8458 205,-76 220.8509,-69.4522 222.0946,-62.4142 238,-56 278.4908,-39.6713 325.9552,-28.5329 364.9071,-21.3116"/>
<polygon fill="#191970" stroke="#191970" points="365.9138,-24.6867 375.1346,-19.4687 364.6724,-17.7976 365.9138,-24.6867"/>
</g>
<!-- Node7 -->
<g id="node7" class="node">
<title>Node7</title>
<g id="a_node7"><a xlink:href="../../d6/ddf/Arduino-Wrapper_8h.html" target="_top" xlink:title=" ">
<polygon fill="#ffffff" stroke="#000000" points="116.5,-168.5 116.5,-187.5 231.5,-187.5 231.5,-168.5 116.5,-168.5"/>
<text text-anchor="middle" x="174" y="-175.5" font-family="Helvetica,sans-Serif" font-size="10.00" fill="#000000">AH/Arduino&#45;Wrapper.h</text>
</a>
</g>
</g>
<!-- Node6&#45;&gt;Node7 -->
<g id="edge9" class="edge">
<title>Node6&#45;&gt;Node7</title>
<path fill="none" stroke="#191970" d="M174,-224.2455C174,-216.9382 174,-206.6944 174,-197.7046"/>
<polygon fill="#191970" stroke="#191970" points="177.5001,-197.6426 174,-187.6427 170.5001,-197.6427 177.5001,-197.6426"/>
</g>
<!-- Node8 -->
<g id="node8" class="node">
<title>Node8</title>
<g id="a_node8"><a xlink:href="../../d7/d79/MinMaxFix_8hpp.html" target="_top" xlink:title=" ">
<polygon fill="#ffffff" stroke="#000000" points="66.5,-112.5 66.5,-131.5 191.5,-131.5 191.5,-112.5 66.5,-112.5"/>
<text text-anchor="middle" x="129" y="-119.5" font-family="Helvetica,sans-Serif" font-size="10.00" fill="#000000">AH/Math/MinMaxFix.hpp</text>
</a>
</g>
</g>
<!-- Node7&#45;&gt;Node8 -->
<g id="edge10" class="edge">
<title>Node7&#45;&gt;Node8</title>
<path fill="none" stroke="#191970" d="M166.1616,-168.2455C159.838,-160.3761 150.7776,-149.101 143.1864,-139.6542"/>
<polygon fill="#191970" stroke="#191970" points="145.7408,-137.2454 136.7486,-131.6427 140.2842,-141.6302 145.7408,-137.2454"/>
</g>
<!-- Node10 -->
<g id="node10" class="node">
<title>Node10</title>
<g id="a_node10"><a xlink:title=" ">
<polygon fill="#ffffff" stroke="#bfbfbf" points="36,-.5 36,-19.5 94,-19.5 94,-.5 36,-.5"/>
<text text-anchor="middle" x="65" y="-7.5" font-family="Helvetica,sans-Serif" font-size="10.00" fill="#000000">Arduino.h</text>
</a>
</g>
</g>
<!-- Node7&#45;&gt;Node10 -->
<g id="edge17" class="edge">
<title>Node7&#45;&gt;Node10</title>
<path fill="none" stroke="#191970" d="M127.6122,-168.4724C104.0918,-161.6501 76.4651,-150.3295 57,-132 31.0098,-107.526 19.8292,-89.907 31,-56 34.5056,-45.3594 41.5241,-35.164 48.2787,-27.0877"/>
<polygon fill="#191970" stroke="#191970" points="51.0014,-29.2937 55.0638,-19.5087 45.786,-24.6247 51.0014,-29.2937"/>
</g>
<!-- Node11 -->
<g id="node11" class="node">
<title>Node11</title>
<g id="a_node11"><a xlink:title=" ">
<polygon fill="#ffffff" stroke="#bfbfbf" points="209.5,-112.5 209.5,-131.5 310.5,-131.5 310.5,-112.5 209.5,-112.5"/>
<text text-anchor="middle" x="260" y="-119.5" font-family="Helvetica,sans-Serif" font-size="10.00" fill="#000000">AH/STL/type_traits</text>
</a>
</g>
</g>
<!-- Node7&#45;&gt;Node11 -->
<g id="edge16" class="edge">
<title>Node7&#45;&gt;Node11</title>
<path fill="none" stroke="#191970" d="M188.9801,-168.2455C202.1751,-159.6534 221.6051,-147.0014 236.8079,-137.1018"/>
<polygon fill="#191970" stroke="#191970" points="238.7215,-140.0325 245.1916,-131.6427 234.9017,-134.1665 238.7215,-140.0325"/>
</g>
<!-- Node8&#45;&gt;Node2 -->
<g id="edge11" class="edge">
<title>Node8&#45;&gt;Node2</title>
<path fill="none" stroke="#191970" d="M152.4937,-112.3719C174.64,-103.2283 208.7083,-88.9878 238,-76 257.2681,-67.4566 261.2505,-63.3623 281,-56 317.4994,-42.3936 359.8997,-30.4282 392.0233,-22.1137"/>
<polygon fill="#191970" stroke="#191970" points="393.2499,-25.4128 402.0715,-19.545 391.5162,-18.6309 393.2499,-25.4128"/>
</g>
<!-- Node8&#45;&gt;Node3 -->
<g id="edge15" class="edge">
<title>Node8&#45;&gt;Node3</title>
<path fill="none" stroke="#191970" d="M167.0817,-112.4369C205.0059,-102.9133 263.3289,-88.2672 304.3126,-77.9753"/>
<polygon fill="#191970" stroke="#191970" points="305.229,-81.3539 314.0754,-75.5237 303.524,-74.5647 305.229,-81.3539"/>
</g>
<!-- Node9 -->
<g id="node9" class="node">
<title>Node9</title>
<g id="a_node9"><a xlink:href="../../d6/d3b/FixArduinoMacros_8hpp.html" target="_top" xlink:title=" ">
<polygon fill="#ffffff" stroke="#000000" points="40,-56.5 40,-75.5 196,-75.5 196,-56.5 40,-56.5"/>
<text text-anchor="middle" x="118" y="-63.5" font-family="Helvetica,sans-Serif" font-size="10.00" fill="#000000">AH/Math/FixArduinoMacros.hpp</text>
</a>
</g>
</g>
<!-- Node8&#45;&gt;Node9 -->
<g id="edge12" class="edge">
<title>Node8&#45;&gt;Node9</title>
<path fill="none" stroke="#191970" d="M127.0839,-112.2455C125.6486,-104.9382 123.6364,-94.6944 121.8705,-85.7046"/>
<polygon fill="#191970" stroke="#191970" points="125.256,-84.7805 119.8941,-75.6427 118.3873,-86.1298 125.256,-84.7805"/>
</g>
<!-- Node9&#45;&gt;Node2 -->
<g id="edge13" class="edge">
<title>Node9&#45;&gt;Node2</title>
<path fill="none" stroke="#191970" d="M173.3294,-56.4369C229.7115,-46.6918 317.1258,-31.5832 376.827,-21.2645"/>
<polygon fill="#191970" stroke="#191970" points="377.641,-24.6758 386.8988,-19.5237 376.4487,-17.778 377.641,-24.6758"/>
</g>
<!-- Node9&#45;&gt;Node10 -->
<g id="edge14" class="edge">
<title>Node9&#45;&gt;Node10</title>
<path fill="none" stroke="#191970" d="M108.7681,-56.2455C101.1683,-48.2155 90.2123,-36.6394 81.1632,-27.0781"/>
<polygon fill="#191970" stroke="#191970" points="83.542,-24.4998 74.1261,-19.6427 78.4579,-29.3115 83.542,-24.4998"/>
</g>
<!-- Node16&#45;&gt;Node1 -->
<g id="edge29" class="edge">
<title>Node16&#45;&gt;Node1</title>
<path fill="none" stroke="#191970" d="M624.2451,-299.6427C625.6665,-306.9199 626.081,-317.155 625.4887,-326.1575"/>
<polygon fill="#191970" stroke="#191970" points="621.9947,-325.8972 624.2668,-336.2455 628.9439,-326.739 621.9947,-325.8972"/>
</g>
<!-- Node16&#45;&gt;Node2 -->
<g id="edge23" class="edge">
<title>Node16&#45;&gt;Node2</title>
<path fill="none" stroke="#191970" d="M658.7568,-280.4325C679.8289,-273.5032 704.6616,-262.0946 721,-244 741.7217,-221.0509 743,-208.92 743,-178 743,-178 743,-178 743,-122 743,-72.7411 599.6121,-38.1252 510.768,-21.4048"/>
<polygon fill="#191970" stroke="#191970" points="511.2202,-17.9292 500.7504,-19.5515 509.9468,-24.8124 511.2202,-17.9292"/>
</g>
<!-- Node17 -->
<g id="node17" class="node">
<title>Node17</title>
<g id="a_node17"><a xlink:href="../../dd/d80/PrintStream_8hpp.html" target="_top" xlink:title=" ">
<polygon fill="#ffffff" stroke="#000000" points="553.5,-224.5 553.5,-243.5 712.5,-243.5 712.5,-224.5 553.5,-224.5"/>
<text text-anchor="middle" x="633" y="-231.5" font-family="Helvetica,sans-Serif" font-size="10.00" fill="#000000">AH/PrintStream/PrintStream.hpp</text>
</a>
</g>
</g>
<!-- Node16&#45;&gt;Node17 -->
<g id="edge24" class="edge">
<title>Node16&#45;&gt;Node17</title>
<path fill="none" stroke="#191970" d="M621.4386,-280.2455C623.2855,-272.8579 625.8828,-262.4689 628.1478,-253.4087"/>
<polygon fill="#191970" stroke="#191970" points="631.5594,-254.193 630.5893,-243.6427 624.7684,-252.4952 631.5594,-254.193"/>
</g>
<!-- Node19 -->
<g id="node19" class="node">
<title>Node19</title>
<g id="a_node19"><a xlink:href="../../d7/d52/DebugVal_8hpp.html" target="_top" xlink:title=" ">
<polygon fill="#ffffff" stroke="#000000" points="771,-224.5 771,-243.5 849,-243.5 849,-224.5 771,-224.5"/>
<text text-anchor="middle" x="810" y="-231.5" font-family="Helvetica,sans-Serif" font-size="10.00" fill="#000000">DebugVal.hpp</text>
</a>
</g>
</g>
<!-- Node16&#45;&gt;Node19 -->
<g id="edge30" class="edge">
<title>Node16&#45;&gt;Node19</title>
<path fill="none" stroke="#191970" d="M651.8341,-280.3733C683.8695,-270.9807 732.7487,-256.6496 767.6855,-246.4064"/>
<polygon fill="#191970" stroke="#191970" points="768.9831,-249.6733 777.5944,-243.5011 767.0136,-242.9561 768.9831,-249.6733"/>
</g>
<!-- Node17&#45;&gt;Node2 -->
<g id="edge26" class="edge">
<title>Node17&#45;&gt;Node2</title>
<path fill="none" stroke="#191970" d="M602.9572,-224.3997C583.6074,-216.9772 558.9864,-205.0611 542,-188 515.3549,-161.2378 522.2678,-145.0524 504,-112 487.4713,-82.0941 466.5138,-48.3976 453.6895,-28.1999"/>
<polygon fill="#191970" stroke="#191970" points="456.5879,-26.2355 448.2584,-19.6881 450.6868,-30.0009 456.5879,-26.2355"/>
</g>
<!-- Node17&#45;&gt;Node3 -->
<g id="edge25" class="edge">
<title>Node17&#45;&gt;Node3</title>
<path fill="none" stroke="#191970" d="M592.0842,-224.4828C522.8382,-207.5011 387.2034,-170.166 358,-132 348.0696,-119.0219 347.3112,-100.1288 348.6042,-85.879"/>
<polygon fill="#191970" stroke="#191970" points="352.1158,-86.0181 349.9449,-75.6481 345.1752,-85.1086 352.1158,-86.0181"/>
</g>
<!-- Node17&#45;&gt;Node7 -->
<g id="edge27" class="edge">
<title>Node17&#45;&gt;Node7</title>
<path fill="none" stroke="#191970" d="M554.8769,-224.4686C466.9296,-213.7387 325.4465,-196.4771 241.9203,-186.2866"/>
<polygon fill="#191970" stroke="#191970" points="242.1297,-182.7863 231.7794,-185.0493 241.2819,-189.7347 242.1297,-182.7863"/>
</g>
<!-- Node18 -->
<g id="node18" class="node">
<title>Node18</title>
<g id="a_node18"><a xlink:title=" ">
<polygon fill="#ffffff" stroke="#bfbfbf" points="551.5,-168.5 551.5,-187.5 714.5,-187.5 714.5,-168.5 551.5,-168.5"/>
<text text-anchor="middle" x="633" y="-175.5" font-family="Helvetica,sans-Serif" font-size="10.00" fill="#000000">Settings/NamespaceSettings.hpp</text>
</a>
</g>
</g>
<!-- Node17&#45;&gt;Node18 -->
<g id="edge28" class="edge">
<title>Node17&#45;&gt;Node18</title>
<path fill="none" stroke="#191970" d="M633,-224.2455C633,-216.9382 633,-206.6944 633,-197.7046"/>
<polygon fill="#191970" stroke="#191970" points="636.5001,-197.6426 633,-187.6427 629.5001,-197.6427 636.5001,-197.6426"/>
</g>
</g>
</svg>
