<?xml version="1.0" encoding="UTF-8" standalone="no"?>
<!DOCTYPE svg PUBLIC "-//W3C//DTD SVG 1.1//EN"
 "http://www.w3.org/Graphics/SVG/1.1/DTD/svg11.dtd">
<!-- Generated by graphviz version 2.43.0 (0)
 -->
<!-- Title: VPotDisplay&lt; VPot_t &gt; Pages: 1 -->
<svg width="378pt" height="844pt"
 viewBox="0.00 0.00 378.00 844.00" xmlns="http://www.w3.org/2000/svg" xmlns:xlink="http://www.w3.org/1999/xlink">
<g id="graph0" class="graph" transform="scale(1 1) rotate(0) translate(4 840)">
<title>VPotDisplay&lt; VPot_t &gt;</title>
<polygon fill="white" stroke="transparent" points="-4,4 -4,-840 374,-840 374,4 -4,4"/>
<!-- Node1 -->
<g id="node1" class="node">
<title>Node1</title>
<g id="a_node1"><a xlink:title=" ">
<polygon fill="#bfbfbf" stroke="black" points="142.5,-0.5 142.5,-167.5 272.5,-167.5 272.5,-0.5 142.5,-0.5"/>
<text text-anchor="middle" x="207.5" y="-155.5" font-family="Helvetica,sans-Serif" font-size="10.00">VPotDisplay&lt; VPot_t &gt;</text>
<polyline fill="none" stroke="black" points="142.5,-148.5 272.5,-148.5 "/>
<text text-anchor="start" x="150.5" y="-136.5" font-family="Helvetica,sans-Serif" font-size="10.00">&#45; x</text>
<text text-anchor="start" x="150.5" y="-125.5" font-family="Helvetica,sans-Serif" font-size="10.00">&#45; y</text>
<text text-anchor="start" x="150.5" y="-114.5" font-family="Helvetica,sans-Serif" font-size="10.00">&#45; radius</text>
<text text-anchor="start" x="150.5" y="-103.5" font-family="Helvetica,sans-Serif" font-size="10.00">&#45; innerRadius</text>
<text text-anchor="start" x="150.5" y="-92.5" font-family="Helvetica,sans-Serif" font-size="10.00">&#45; color</text>
<text text-anchor="start" x="150.5" y="-81.5" font-family="Helvetica,sans-Serif" font-size="10.00">&#45; angleSpacing</text>
<polyline fill="none" stroke="black" points="142.5,-74.5 272.5,-74.5 "/>
<text text-anchor="start" x="150.5" y="-62.5" font-family="Helvetica,sans-Serif" font-size="10.00">+ VPotDisplay()</text>
<text text-anchor="start" x="150.5" y="-51.5" font-family="Helvetica,sans-Serif" font-size="10.00">+ draw()</text>
<text text-anchor="start" x="150.5" y="-40.5" font-family="Helvetica,sans-Serif" font-size="10.00">+ getDirty()</text>
<text text-anchor="start" x="150.5" y="-29.5" font-family="Helvetica,sans-Serif" font-size="10.00">+ setAngleSpacing()</text>
<text text-anchor="start" x="150.5" y="-18.5" font-family="Helvetica,sans-Serif" font-size="10.00">+ getAngleSpacing()</text>
<text text-anchor="start" x="150.5" y="-7.5" font-family="Helvetica,sans-Serif" font-size="10.00"># drawVPotSegment()</text>
</a>
</g>
</g>
<!-- Node2 -->
<g id="node2" class="node">
<title>Node2</title>
<g id="a_node2"><a xlink:href="../../d8/d43/classDisplayElement.html" target="_top" xlink:title="An interface for elements that draw to a display.">
<polygon fill="white" stroke="black" points="51,-215.5 51,-437.5 172,-437.5 172,-215.5 51,-215.5"/>
<text text-anchor="middle" x="111.5" y="-425.5" font-family="Helvetica,sans-Serif" font-size="10.00">DisplayElement</text>
<polyline fill="none" stroke="black" points="51,-418.5 172,-418.5 "/>
<text text-anchor="start" x="59" y="-406.5" font-family="Helvetica,sans-Serif" font-size="10.00"># elements</text>
<polyline fill="none" stroke="black" points="51,-399.5 172,-399.5 "/>
<text text-anchor="start" x="59" y="-387.5" font-family="Helvetica,sans-Serif" font-size="10.00">+ ~DisplayElement()</text>
<text text-anchor="start" x="59" y="-376.5" font-family="Helvetica,sans-Serif" font-size="10.00">+ draw()</text>
<text text-anchor="start" x="59" y="-365.5" font-family="Helvetica,sans-Serif" font-size="10.00">+ getDirty()</text>
<text text-anchor="start" x="59" y="-354.5" font-family="Helvetica,sans-Serif" font-size="10.00">+ getDisplay()</text>
<text text-anchor="start" x="59" y="-343.5" font-family="Helvetica,sans-Serif" font-size="10.00">+ getDisplay()</text>
<text text-anchor="start" x="59" y="-332.5" font-family="Helvetica,sans-Serif" font-size="10.00">+ getAll()</text>
<text text-anchor="start" x="59" y="-321.5" font-family="Helvetica,sans-Serif" font-size="10.00"># DisplayElement()</text>
<text text-anchor="start" x="59" y="-310.5" font-family="Helvetica,sans-Serif" font-size="10.00">* enable()</text>
<text text-anchor="start" x="59" y="-299.5" font-family="Helvetica,sans-Serif" font-size="10.00">* disable()</text>
<text text-anchor="start" x="59" y="-288.5" font-family="Helvetica,sans-Serif" font-size="10.00">* isEnabled()</text>
<text text-anchor="start" x="59" y="-277.5" font-family="Helvetica,sans-Serif" font-size="10.00">* enable()</text>
<text text-anchor="start" x="59" y="-266.5" font-family="Helvetica,sans-Serif" font-size="10.00">* enable()</text>
<text text-anchor="start" x="59" y="-255.5" font-family="Helvetica,sans-Serif" font-size="10.00">* enable()</text>
<text text-anchor="start" x="59" y="-244.5" font-family="Helvetica,sans-Serif" font-size="10.00">* disable()</text>
<text text-anchor="start" x="59" y="-233.5" font-family="Helvetica,sans-Serif" font-size="10.00">* disable()</text>
<text text-anchor="start" x="59" y="-222.5" font-family="Helvetica,sans-Serif" font-size="10.00">* disable()</text>
</a>
</g>
</g>
<!-- Node2&#45;&gt;Node1 -->
<g id="edge1" class="edge">
<title>Node2&#45;&gt;Node1</title>
<path fill="none" stroke="midnightblue" d="M159.19,-206.01C164.38,-193.03 169.56,-180.04 174.51,-167.64"/>
<polygon fill="none" stroke="midnightblue" points="155.88,-204.87 155.43,-215.46 162.38,-207.47 155.88,-204.87"/>
</g>
<!-- Node3 -->
<g id="node3" class="node">
<title>Node3</title>
<g id="a_node3"><a xlink:href="../../d4/d23/classDoublyLinkable.html" target="_top" xlink:title=" ">
<polygon fill="white" stroke="black" points="0,-551.5 0,-674.5 191,-674.5 191,-551.5 0,-551.5"/>
<text text-anchor="middle" x="95.5" y="-662.5" font-family="Helvetica,sans-Serif" font-size="10.00">DoublyLinkable&lt; DisplayElement &gt;</text>
<polyline fill="none" stroke="black" points="0,-655.5 191,-655.5 "/>
<text text-anchor="start" x="8" y="-643.5" font-family="Helvetica,sans-Serif" font-size="10.00"># next</text>
<text text-anchor="start" x="8" y="-632.5" font-family="Helvetica,sans-Serif" font-size="10.00"># previous</text>
<polyline fill="none" stroke="black" points="0,-625.5 191,-625.5 "/>
<text text-anchor="start" x="8" y="-613.5" font-family="Helvetica,sans-Serif" font-size="10.00"># ~DoublyLinkable()</text>
<text text-anchor="start" x="8" y="-602.5" font-family="Helvetica,sans-Serif" font-size="10.00"># DoublyLinkable()</text>
<text text-anchor="start" x="8" y="-591.5" font-family="Helvetica,sans-Serif" font-size="10.00"># DoublyLinkable()</text>
<text text-anchor="start" x="8" y="-580.5" font-family="Helvetica,sans-Serif" font-size="10.00"># DoublyLinkable()</text>
<text text-anchor="start" x="8" y="-569.5" font-family="Helvetica,sans-Serif" font-size="10.00"># operator=()</text>
<text text-anchor="start" x="8" y="-558.5" font-family="Helvetica,sans-Serif" font-size="10.00"># operator=()</text>
</a>
</g>
</g>
<!-- Node3&#45;&gt;Node2 -->
<g id="edge2" class="edge">
<title>Node3&#45;&gt;Node2</title>
<path fill="none" stroke="midnightblue" d="M99.49,-540.99C101.25,-509.79 103.35,-472.43 105.3,-437.75"/>
<polygon fill="none" stroke="midnightblue" points="95.98,-541.14 98.91,-551.32 102.97,-541.53 95.98,-541.14"/>
</g>
<!-- Node4 -->
<g id="node4" class="node">
<title>Node4</title>
<g id="a_node4"><a xlink:href="../../df/d42/classDisplayInterface.html" target="_top" xlink:title="An interface for displays.">
<polygon fill="white" stroke="black" points="209,-485.5 209,-740.5 370,-740.5 370,-485.5 209,-485.5"/>
<text text-anchor="middle" x="289.5" y="-728.5" font-family="Helvetica,sans-Serif" font-size="10.00">DisplayInterface</text>
<polyline fill="none" stroke="black" points="209,-721.5 370,-721.5 "/>
<text text-anchor="middle" x="289.5" y="-709.5" font-family="Helvetica,sans-Serif" font-size="10.00"> </text>
<polyline fill="none" stroke="black" points="209,-702.5 370,-702.5 "/>
<text text-anchor="start" x="217" y="-690.5" font-family="Helvetica,sans-Serif" font-size="10.00">+ ~DisplayInterface()</text>
<text text-anchor="start" x="217" y="-679.5" font-family="Helvetica,sans-Serif" font-size="10.00">+ begin()</text>
<text text-anchor="start" x="217" y="-668.5" font-family="Helvetica,sans-Serif" font-size="10.00">+ clear()</text>
<text text-anchor="start" x="217" y="-657.5" font-family="Helvetica,sans-Serif" font-size="10.00">+ drawBackground()</text>
<text text-anchor="start" x="217" y="-646.5" font-family="Helvetica,sans-Serif" font-size="10.00">+ display()</text>
<text text-anchor="start" x="217" y="-635.5" font-family="Helvetica,sans-Serif" font-size="10.00">+ drawPixel()</text>
<text text-anchor="start" x="217" y="-624.5" font-family="Helvetica,sans-Serif" font-size="10.00">+ setTextColor()</text>
<text text-anchor="start" x="217" y="-613.5" font-family="Helvetica,sans-Serif" font-size="10.00">+ setTextSize()</text>
<text text-anchor="start" x="217" y="-602.5" font-family="Helvetica,sans-Serif" font-size="10.00">+ setCursor()</text>
<text text-anchor="start" x="217" y="-591.5" font-family="Helvetica,sans-Serif" font-size="10.00">+ write()</text>
<text text-anchor="start" x="217" y="-580.5" font-family="Helvetica,sans-Serif" font-size="10.00">+ drawLine()</text>
<text text-anchor="start" x="217" y="-569.5" font-family="Helvetica,sans-Serif" font-size="10.00">+ drawFastVLine()</text>
<text text-anchor="start" x="217" y="-558.5" font-family="Helvetica,sans-Serif" font-size="10.00">+ drawFastHLine()</text>
<text text-anchor="start" x="217" y="-547.5" font-family="Helvetica,sans-Serif" font-size="10.00">+ drawXBitmap()</text>
<text text-anchor="start" x="217" y="-536.5" font-family="Helvetica,sans-Serif" font-size="10.00">+ fillRect()</text>
<text text-anchor="start" x="217" y="-525.5" font-family="Helvetica,sans-Serif" font-size="10.00">+ drawCircle()</text>
<text text-anchor="start" x="217" y="-514.5" font-family="Helvetica,sans-Serif" font-size="10.00">+ fillCircle()</text>
<text text-anchor="start" x="217" y="-503.5" font-family="Helvetica,sans-Serif" font-size="10.00">+ clearAndDrawBackground()</text>
<text text-anchor="start" x="217" y="-492.5" font-family="Helvetica,sans-Serif" font-size="10.00"># DisplayInterface()</text>
</a>
</g>
</g>
<!-- Node4&#45;&gt;Node2 -->
<g id="edge3" class="edge">
<title>Node4&#45;&gt;Node2</title>
<path fill="none" stroke="#404040" d="M210,-485.15C200.07,-469.27 190.05,-453.26 180.5,-438 179.9,-437.04 179.29,-436.07 178.68,-435.09"/>
<polygon fill="none" stroke="#404040" points="178.44,-434.7 171.86,-431.73 172.07,-424.52 178.65,-427.49 178.44,-434.7"/>
<text text-anchor="middle" x="222" y="-459" font-family="Helvetica,sans-Serif" font-size="10.00"> #display</text>
</g>
<!-- Node5 -->
<g id="node5" class="node">
<title>Node5</title>
<g id="a_node5"><a xlink:title=" ">
<polygon fill="white" stroke="#bfbfbf" points="270,-778.5 270,-835.5 309,-835.5 309,-778.5 270,-778.5"/>
<text text-anchor="middle" x="289.5" y="-823.5" font-family="Helvetica,sans-Serif" font-size="10.00">Print</text>
<polyline fill="none" stroke="#bfbfbf" points="270,-816.5 309,-816.5 "/>
<text text-anchor="middle" x="289.5" y="-804.5" font-family="Helvetica,sans-Serif" font-size="10.00"> </text>
<polyline fill="none" stroke="#bfbfbf" points="270,-797.5 309,-797.5 "/>
<text text-anchor="middle" x="289.5" y="-785.5" font-family="Helvetica,sans-Serif" font-size="10.00"> </text>
</a>
</g>
</g>
<!-- Node5&#45;&gt;Node4 -->
<g id="edge4" class="edge">
<title>Node5&#45;&gt;Node4</title>
<path fill="none" stroke="midnightblue" d="M289.5,-768.39C289.5,-759.98 289.5,-750.61 289.5,-740.75"/>
<polygon fill="none" stroke="midnightblue" points="286,-768.49 289.5,-778.49 293,-768.49 286,-768.49"/>
</g>
<!-- Node6 -->
<g id="node6" class="node">
<title>Node6</title>
<g id="a_node6"><a xlink:href="../../d2/dde/classInterfaces_1_1MCU_1_1IVPot.html" target="_top" xlink:title=" ">
<polygon fill="white" stroke="black" points="190,-276 190,-377 291,-377 291,-276 190,-276"/>
<text text-anchor="middle" x="240.5" y="-365" font-family="Helvetica,sans-Serif" font-size="10.00">IVPot</text>
<polyline fill="none" stroke="black" points="190,-358 291,-358 "/>
<text text-anchor="start" x="198" y="-346" font-family="Helvetica,sans-Serif" font-size="10.00"># dirty</text>
<polyline fill="none" stroke="black" points="190,-339 291,-339 "/>
<text text-anchor="start" x="198" y="-327" font-family="Helvetica,sans-Serif" font-size="10.00">+ getCenterLed()</text>
<text text-anchor="start" x="198" y="-316" font-family="Helvetica,sans-Serif" font-size="10.00">+ getStartOn()</text>
<text text-anchor="start" x="198" y="-305" font-family="Helvetica,sans-Serif" font-size="10.00">+ getStartOff()</text>
<text text-anchor="start" x="198" y="-294" font-family="Helvetica,sans-Serif" font-size="10.00">* getDirty()</text>
<text text-anchor="start" x="198" y="-283" font-family="Helvetica,sans-Serif" font-size="10.00">* clearDirty()</text>
</a>
</g>
</g>
<!-- Node6&#45;&gt;Node1 -->
<g id="edge5" class="edge">
<title>Node6&#45;&gt;Node1</title>
<path fill="none" stroke="#404040" d="M233.7,-275.96C229.89,-248.16 225,-212.54 220.48,-179.61"/>
<polygon fill="none" stroke="#404040" points="220.47,-179.51 215.69,-174.11 218.84,-167.62 223.62,-173.02 220.47,-179.51"/>
<text text-anchor="middle" x="236.5" y="-189" font-family="Helvetica,sans-Serif" font-size="10.00"> &#45;vpot</text>
</g>
</g>
</svg>
