<?xml version="1.0" encoding="UTF-8" standalone="no"?>
<!DOCTYPE svg PUBLIC "-//W3C//DTD SVG 1.1//EN"
 "http://www.w3.org/Graphics/SVG/1.1/DTD/svg11.dtd">
<!-- Generated by graphviz version 2.40.1 (20161225.0304)
 -->
<!-- Title: NoteButtonMatrix.hpp Pages: 1 -->
<svg width="2388pt" height="990pt"
 viewBox="0.00 0.00 2388.00 990.00" xmlns="http://www.w3.org/2000/svg" xmlns:xlink="http://www.w3.org/1999/xlink">
<g id="graph0" class="graph" transform="scale(1 1) rotate(0) translate(4 986)">
<title>NoteButtonMatrix.hpp</title>
<polygon fill="#ffffff" stroke="transparent" points="-4,4 -4,-986 2384,-986 2384,4 -4,4"/>
<!-- Node1 -->
<g id="node1" class="node">
<title>Node1</title>
<g id="a_node1"><a xlink:title=" ">
<polygon fill="#bfbfbf" stroke="#000000" points="1103,-962.5 1103,-981.5 1215,-981.5 1215,-962.5 1103,-962.5"/>
<text text-anchor="middle" x="1159" y="-969.5" font-family="Helvetica,sans-Serif" font-size="10.00" fill="#000000">NoteButtonMatrix.hpp</text>
</a>
</g>
</g>
<!-- Node2 -->
<g id="node2" class="node">
<title>Node2</title>
<g id="a_node2"><a xlink:href="../../d7/d33/Abstract_2MIDIButtonMatrix_8hpp.html" target="_top" xlink:title=" ">
<polygon fill="#ffffff" stroke="#000000" points="1025,-828.5 1025,-858.5 1143,-858.5 1143,-828.5 1025,-828.5"/>
<text text-anchor="start" x="1033" y="-846.5" font-family="Helvetica,sans-Serif" font-size="10.00" fill="#000000">MIDI_Outputs/Abstract</text>
<text text-anchor="middle" x="1084" y="-835.5" font-family="Helvetica,sans-Serif" font-size="10.00" fill="#000000">/MIDIButtonMatrix.hpp</text>
</a>
</g>
</g>
<!-- Node1&#45;&gt;Node2 -->
<g id="edge1" class="edge">
<title>Node1&#45;&gt;Node2</title>
<path fill="none" stroke="#191970" d="M1153.3628,-962.3416C1141.7323,-942.4146 1114.7713,-896.2215 1098.0962,-867.6516"/>
<polygon fill="#191970" stroke="#191970" points="1100.9362,-865.5739 1092.8725,-858.7016 1094.8906,-869.1025 1100.9362,-865.5739"/>
</g>
<!-- Node40 -->
<g id="node40" class="node">
<title>Node40</title>
<g id="a_node40"><a xlink:href="../../d1/daa/DigitalNoteSender_8hpp.html" target="_top" xlink:title=" ">
<polygon fill="#ffffff" stroke="#000000" points="1154.5,-895.5 1154.5,-925.5 1285.5,-925.5 1285.5,-895.5 1154.5,-895.5"/>
<text text-anchor="start" x="1162.5" y="-913.5" font-family="Helvetica,sans-Serif" font-size="10.00" fill="#000000">MIDI_Senders/DigitalNote</text>
<text text-anchor="middle" x="1220" y="-902.5" font-family="Helvetica,sans-Serif" font-size="10.00" fill="#000000">Sender.hpp</text>
</a>
</g>
</g>
<!-- Node1&#45;&gt;Node40 -->
<g id="edge80" class="edge">
<title>Node1&#45;&gt;Node40</title>
<path fill="none" stroke="#191970" d="M1168.5313,-962.3906C1176.4047,-954.4527 1187.8913,-942.8718 1198.0167,-932.6635"/>
<polygon fill="#191970" stroke="#191970" points="1200.5205,-935.1093 1205.0777,-925.5446 1195.5506,-930.1797 1200.5205,-935.1093"/>
</g>
<!-- Node3 -->
<g id="node3" class="node">
<title>Node3</title>
<g id="a_node3"><a xlink:href="../../d9/d4b/ButtonMatrix_8hpp.html" target="_top" xlink:title=" ">
<polygon fill="#ffffff" stroke="#000000" points="290.5,-767 290.5,-786 443.5,-786 443.5,-767 290.5,-767"/>
<text text-anchor="middle" x="367" y="-774" font-family="Helvetica,sans-Serif" font-size="10.00" fill="#000000">AH/Hardware/ButtonMatrix.hpp</text>
</a>
</g>
</g>
<!-- Node2&#45;&gt;Node3 -->
<g id="edge2" class="edge">
<title>Node2&#45;&gt;Node3</title>
<path fill="none" stroke="#191970" d="M1024.7149,-837.9601C898.323,-826.1494 601.8703,-798.4474 454.0259,-784.6321"/>
<polygon fill="#191970" stroke="#191970" points="453.9246,-781.1075 443.6423,-783.6618 453.2732,-788.0771 453.9246,-781.1075"/>
</g>
<!-- Node30 -->
<g id="node30" class="node">
<title>Node30</title>
<g id="a_node30"><a xlink:href="../../d0/d4e/Def_8hpp.html" target="_top" xlink:title=" ">
<polygon fill="#ffffff" stroke="#000000" points="1131,-644 1131,-663 1201,-663 1201,-644 1131,-644"/>
<text text-anchor="middle" x="1166" y="-651" font-family="Helvetica,sans-Serif" font-size="10.00" fill="#000000">Def/Def.hpp</text>
</a>
</g>
</g>
<!-- Node2&#45;&gt;Node30 -->
<g id="edge54" class="edge">
<title>Node2&#45;&gt;Node30</title>
<path fill="none" stroke="#191970" d="M1077.3777,-828.0761C1066.8801,-801.049 1049.8539,-744.2755 1073,-705 1079.9075,-693.2791 1109.7031,-677.9779 1133.7335,-667.1075"/>
<polygon fill="#191970" stroke="#191970" points="1135.2069,-670.2829 1142.9314,-663.0315 1132.3708,-663.8831 1135.2069,-670.2829"/>
</g>
<!-- Node32 -->
<g id="node32" class="node">
<title>Node32</title>
<g id="a_node32"><a xlink:href="../../d1/d41/MIDIOutputElement_8hpp.html" target="_top" xlink:title=" ">
<polygon fill="#ffffff" stroke="#000000" points="1085.5,-761.5 1085.5,-791.5 1210.5,-791.5 1210.5,-761.5 1085.5,-761.5"/>
<text text-anchor="start" x="1093.5" y="-779.5" font-family="Helvetica,sans-Serif" font-size="10.00" fill="#000000">MIDI_Outputs/Abstract</text>
<text text-anchor="middle" x="1148" y="-768.5" font-family="Helvetica,sans-Serif" font-size="10.00" fill="#000000">/MIDIOutputElement.hpp</text>
</a>
</g>
</g>
<!-- Node2&#45;&gt;Node32 -->
<g id="edge63" class="edge">
<title>Node2&#45;&gt;Node32</title>
<path fill="none" stroke="#191970" d="M1098.5226,-828.2967C1106.7872,-819.6446 1117.2955,-808.6438 1126.5002,-799.0076"/>
<polygon fill="#191970" stroke="#191970" points="1129.1584,-801.2919 1133.5349,-791.6432 1124.0966,-796.4567 1129.1584,-801.2919"/>
</g>
<!-- Node4 -->
<g id="node4" class="node">
<title>Node4</title>
<g id="a_node4"><a xlink:href="../../d1/d65/Warnings_8hpp.html" target="_top" xlink:title=" ">
<polygon fill="#ffffff" stroke="#000000" points="935.5,-.5 935.5,-19.5 1068.5,-19.5 1068.5,-.5 935.5,-.5"/>
<text text-anchor="middle" x="1002" y="-7.5" font-family="Helvetica,sans-Serif" font-size="10.00" fill="#000000">AH/Settings/Warnings.hpp</text>
</a>
</g>
</g>
<!-- Node3&#45;&gt;Node4 -->
<g id="edge3" class="edge">
<title>Node3&#45;&gt;Node4</title>
<path fill="none" stroke="#191970" d="M308.1814,-766.9361C213.5493,-749.8659 38,-710.5156 38,-653.5 38,-653.5 38,-653.5 38,-586.5 38,-508.7143 15,-490.7857 15,-413 15,-413 15,-413 15,-122 15,-83.2415 37.1665,-72.9957 72,-56 147.678,-19.0758 716.2257,-11.7849 925.2219,-10.35"/>
<polygon fill="#191970" stroke="#191970" points="925.5184,-13.8482 935.4951,-10.2822 925.4722,-6.8484 925.5184,-13.8482"/>
</g>
<!-- Node5 -->
<g id="node5" class="node">
<title>Node5</title>
<g id="a_node5"><a xlink:href="../../d4/d35/Hardware-Types_8hpp.html" target="_top" xlink:title=" ">
<polygon fill="#ffffff" stroke="#000000" points="712.5,-571.5 712.5,-601.5 833.5,-601.5 833.5,-571.5 712.5,-571.5"/>
<text text-anchor="start" x="720.5" y="-589.5" font-family="Helvetica,sans-Serif" font-size="10.00" fill="#000000">AH/Hardware/Hardware</text>
<text text-anchor="middle" x="773" y="-578.5" font-family="Helvetica,sans-Serif" font-size="10.00" fill="#000000">&#45;Types.hpp</text>
</a>
</g>
</g>
<!-- Node3&#45;&gt;Node5 -->
<g id="edge4" class="edge">
<title>Node3&#45;&gt;Node5</title>
<path fill="none" stroke="#191970" d="M443.6243,-773.8833C533.2992,-769.3578 674.8025,-757.2012 716,-725 751.3685,-697.3549 764.9564,-644.0066 770.0553,-612.1963"/>
<polygon fill="#191970" stroke="#191970" points="773.5738,-612.3154 771.5265,-601.9202 766.6445,-611.3232 773.5738,-612.3154"/>
</g>
<!-- Node27 -->
<g id="node27" class="node">
<title>Node27</title>
<g id="a_node27"><a xlink:href="../../d5/d41/ButtonMatrix_8ipp.html" target="_top" xlink:title=" ">
<polygon fill="#ffffff" stroke="#000000" points="323,-705.5 323,-724.5 411,-724.5 411,-705.5 323,-705.5"/>
<text text-anchor="middle" x="367" y="-712.5" font-family="Helvetica,sans-Serif" font-size="10.00" fill="#000000">ButtonMatrix.ipp</text>
</a>
</g>
</g>
<!-- Node3&#45;&gt;Node27 -->
<g id="edge46" class="edge">
<title>Node3&#45;&gt;Node27</title>
<path fill="none" stroke="#191970" d="M361.9375,-766.8906C360.2741,-758.3657 359.8404,-745.6392 360.6365,-734.9235"/>
<polygon fill="#191970" stroke="#191970" points="364.1414,-735.1023 361.9112,-724.7449 357.1956,-734.2324 364.1414,-735.1023"/>
</g>
<!-- Node5&#45;&gt;Node4 -->
<g id="edge5" class="edge">
<title>Node5&#45;&gt;Node4</title>
<path fill="none" stroke="#191970" d="M712.2965,-578.8706C563.5648,-556.9566 197.6188,-481.9281 262,-280 299.0858,-163.6826 314.8249,-116.2655 421,-56 463.806,-31.7031 777.195,-17.7662 925.1086,-12.4773"/>
<polygon fill="#191970" stroke="#191970" points="925.5962,-15.9623 935.4664,-12.1114 925.349,-8.9667 925.5962,-15.9623"/>
</g>
<!-- Node6 -->
<g id="node6" class="node">
<title>Node6</title>
<g id="a_node6"><a xlink:href="../../de/d76/Array_8hpp.html" target="_top" xlink:title=" ">
<polygon fill="#ffffff" stroke="#000000" points="835,-515.5 835,-534.5 961,-534.5 961,-515.5 835,-515.5"/>
<text text-anchor="middle" x="898" y="-522.5" font-family="Helvetica,sans-Serif" font-size="10.00" fill="#000000">AH/Containers/Array.hpp</text>
</a>
</g>
</g>
<!-- Node5&#45;&gt;Node6 -->
<g id="edge6" class="edge">
<title>Node5&#45;&gt;Node6</title>
<path fill="none" stroke="#191970" d="M803.5784,-571.4554C823.7032,-561.554 849.8639,-548.683 869.5438,-539.0004"/>
<polygon fill="#191970" stroke="#191970" points="871.2018,-542.0855 878.6294,-534.5303 868.1115,-535.8045 871.2018,-542.0855"/>
</g>
<!-- Node10 -->
<g id="node10" class="node">
<title>Node10</title>
<g id="a_node10"><a xlink:href="../../d6/db0/AH_2Settings_2NamespaceSettings_8hpp.html" target="_top" xlink:title=" ">
<polygon fill="#ffffff" stroke="#000000" points="1079,-56.5 1079,-75.5 1259,-75.5 1259,-56.5 1079,-56.5"/>
<text text-anchor="middle" x="1169" y="-63.5" font-family="Helvetica,sans-Serif" font-size="10.00" fill="#000000">AH/Settings/NamespaceSettings.hpp</text>
</a>
</g>
</g>
<!-- Node5&#45;&gt;Node10 -->
<g id="edge44" class="edge">
<title>Node5&#45;&gt;Node10</title>
<path fill="none" stroke="#191970" d="M833.6909,-578.7191C874.2305,-571.6315 927.6737,-558.5373 970,-535 1030.7051,-501.2424 1042.5028,-482.0986 1079,-423 1123.9701,-350.1815 1129.4919,-327.0919 1150,-244 1163.8562,-187.8595 1167.6075,-119.2975 1168.6231,-86.0261"/>
<polygon fill="#191970" stroke="#191970" points="1172.1275,-85.8925 1168.8803,-75.8076 1165.1297,-85.7163 1172.1275,-85.8925"/>
</g>
<!-- Node23 -->
<g id="node23" class="node">
<title>Node23</title>
<g id="a_node23"><a xlink:title=" ">
<polygon fill="#ffffff" stroke="#bfbfbf" points="949.5,-224.5 949.5,-243.5 998.5,-243.5 998.5,-224.5 949.5,-224.5"/>
<text text-anchor="middle" x="974" y="-231.5" font-family="Helvetica,sans-Serif" font-size="10.00" fill="#000000">stdint.h</text>
</a>
</g>
</g>
<!-- Node5&#45;&gt;Node23 -->
<g id="edge45" class="edge">
<title>Node5&#45;&gt;Node23</title>
<path fill="none" stroke="#191970" d="M766.4955,-571.2626C746.8064,-522.4957 693.4469,-368.2923 765,-280 813.6258,-219.9986 859.7999,-261.5951 935,-244 936.4463,-243.6616 937.9212,-243.3105 939.41,-242.9511"/>
<polygon fill="#191970" stroke="#191970" points="940.416,-246.3077 949.2812,-240.5061 938.733,-239.5131 940.416,-246.3077"/>
</g>
<!-- Node6&#45;&gt;Node4 -->
<g id="edge7" class="edge">
<title>Node6&#45;&gt;Node4</title>
<path fill="none" stroke="#191970" d="M880.7421,-515.3493C866.0238,-506.7343 844.664,-493.2997 828,-479 746.8744,-409.3847 460.3231,-202.6388 517,-112 559.7076,-43.7012 799.3863,-20.7455 925.0642,-13.3411"/>
<polygon fill="#191970" stroke="#191970" points="925.6017,-16.8163 935.3863,-12.7529 925.2033,-9.8276 925.6017,-16.8163"/>
</g>
<!-- Node7 -->
<g id="node7" class="node">
<title>Node7</title>
<g id="a_node7"><a xlink:href="../../d1/d93/Error_8hpp.html" target="_top" xlink:title=" ">
<polygon fill="#ffffff" stroke="#000000" points="1884,-459.5 1884,-478.5 1982,-478.5 1982,-459.5 1884,-459.5"/>
<text text-anchor="middle" x="1933" y="-466.5" font-family="Helvetica,sans-Serif" font-size="10.00" fill="#000000">AH/Error/Error.hpp</text>
</a>
</g>
</g>
<!-- Node6&#45;&gt;Node7 -->
<g id="edge8" class="edge">
<title>Node6&#45;&gt;Node7</title>
<path fill="none" stroke="#191970" d="M961.1859,-521.5812C1147.3928,-511.5063 1692.2939,-482.0237 1873.5741,-472.2153"/>
<polygon fill="#191970" stroke="#191970" points="1873.9188,-475.7019 1883.7151,-471.6666 1873.5405,-468.7121 1873.9188,-475.7019"/>
</g>
<!-- Node15 -->
<g id="node15" class="node">
<title>Node15</title>
<g id="a_node15"><a xlink:title=" ">
<polygon fill="#ffffff" stroke="#bfbfbf" points="966.5,-112.5 966.5,-131.5 1067.5,-131.5 1067.5,-112.5 966.5,-112.5"/>
<text text-anchor="middle" x="1017" y="-119.5" font-family="Helvetica,sans-Serif" font-size="10.00" fill="#000000">AH/STL/type_traits</text>
</a>
</g>
</g>
<!-- Node6&#45;&gt;Node15 -->
<g id="edge42" class="edge">
<title>Node6&#45;&gt;Node15</title>
<path fill="none" stroke="#191970" d="M908.2475,-515.1147C936.8623,-486.7001 1017.3319,-401.0494 1045,-311 1063.5409,-250.6563 1039.0405,-175.5807 1025.2466,-141.0261"/>
<polygon fill="#191970" stroke="#191970" points="1028.4294,-139.5638 1021.369,-131.6643 1021.9622,-142.2425 1028.4294,-139.5638"/>
</g>
<!-- Node22 -->
<g id="node22" class="node">
<title>Node22</title>
<g id="a_node22"><a xlink:title=" ">
<polygon fill="#ffffff" stroke="#bfbfbf" points="1242,-224.5 1242,-243.5 1294,-243.5 1294,-224.5 1242,-224.5"/>
<text text-anchor="middle" x="1268" y="-231.5" font-family="Helvetica,sans-Serif" font-size="10.00" fill="#000000">stddef.h</text>
</a>
</g>
</g>
<!-- Node6&#45;&gt;Node22 -->
<g id="edge43" class="edge">
<title>Node6&#45;&gt;Node22</title>
<path fill="none" stroke="#191970" d="M929.9514,-515.4514C951.9179,-507.8688 980.9813,-495.7464 1003,-479 1093.7746,-409.9609 1074.4716,-349.3616 1165,-280 1185.1306,-264.5763 1211.2498,-252.9864 1232.1485,-245.2982"/>
<polygon fill="#191970" stroke="#191970" points="1233.3809,-248.5748 1241.6404,-241.9392 1231.0456,-241.9758 1233.3809,-248.5748"/>
</g>
<!-- Node26 -->
<g id="node26" class="node">
<title>Node26</title>
<g id="a_node26"><a xlink:title=" ">
<polygon fill="#ffffff" stroke="#bfbfbf" points="837.5,-459.5 837.5,-478.5 922.5,-478.5 922.5,-459.5 837.5,-459.5"/>
<text text-anchor="middle" x="880" y="-466.5" font-family="Helvetica,sans-Serif" font-size="10.00" fill="#000000">AH/STL/iterator</text>
</a>
</g>
</g>
<!-- Node6&#45;&gt;Node26 -->
<g id="edge41" class="edge">
<title>Node6&#45;&gt;Node26</title>
<path fill="none" stroke="#191970" d="M894.8646,-515.2455C892.49,-507.8579 889.1507,-497.4689 886.2385,-488.4087"/>
<polygon fill="#191970" stroke="#191970" points="889.4917,-487.0919 883.0994,-478.6427 882.8275,-489.234 889.4917,-487.0919"/>
</g>
<!-- Node7&#45;&gt;Node4 -->
<g id="edge9" class="edge">
<title>Node7&#45;&gt;Node4</title>
<path fill="none" stroke="#191970" d="M1982.1544,-467.6713C2059.0779,-464.6268 2203.1449,-454.737 2242,-423 2266.1735,-403.255 2266,-388.2125 2266,-357 2266,-357 2266,-357 2266,-122 2266,-90.7875 2267.2288,-74.3774 2242,-56 2194.9344,-21.716 1342.6741,-12.5298 1079.0506,-10.5032"/>
<polygon fill="#191970" stroke="#191970" points="1078.8295,-7.0016 1068.8033,-10.4258 1078.7766,-14.0014 1078.8295,-7.0016"/>
</g>
<!-- Node8 -->
<g id="node8" class="node">
<title>Node8</title>
<g id="a_node8"><a xlink:href="../../df/dee/Debug_8hpp.html" target="_top" xlink:title=" ">
<polygon fill="#ffffff" stroke="#000000" points="1832.5,-403.5 1832.5,-422.5 1945.5,-422.5 1945.5,-403.5 1832.5,-403.5"/>
<text text-anchor="middle" x="1889" y="-410.5" font-family="Helvetica,sans-Serif" font-size="10.00" fill="#000000">AH/Debug/Debug.hpp</text>
</a>
</g>
</g>
<!-- Node7&#45;&gt;Node8 -->
<g id="edge10" class="edge">
<title>Node7&#45;&gt;Node8</title>
<path fill="none" stroke="#191970" d="M1925.3358,-459.2455C1919.1527,-451.3761 1910.2937,-440.101 1902.8711,-430.6542"/>
<polygon fill="#191970" stroke="#191970" points="1905.5068,-428.3435 1896.5764,-422.6427 1900.0025,-432.6683 1905.5068,-428.3435"/>
</g>
<!-- Node8&#45;&gt;Node4 -->
<g id="edge11" class="edge">
<title>Node8&#45;&gt;Node4</title>
<path fill="none" stroke="#191970" d="M1945.6158,-405.2868C2032.8082,-389.8699 2190,-346.4783 2190,-234 2190,-234 2190,-234 2190,-122 2190,-14.3701 2063.2193,-73.3684 1957,-56 1788.621,-28.4675 1274.8484,-15.4907 1078.9708,-11.4466"/>
<polygon fill="#191970" stroke="#191970" points="1078.8351,-7.9432 1068.7656,-11.238 1078.692,-14.9417 1078.8351,-7.9432"/>
</g>
<!-- Node9 -->
<g id="node9" class="node">
<title>Node9</title>
<g id="a_node9"><a xlink:href="../../dd/d80/PrintStream_8hpp.html" target="_top" xlink:title=" ">
<polygon fill="#ffffff" stroke="#000000" points="1851.5,-286 1851.5,-305 2010.5,-305 2010.5,-286 1851.5,-286"/>
<text text-anchor="middle" x="1931" y="-293" font-family="Helvetica,sans-Serif" font-size="10.00" fill="#000000">AH/PrintStream/PrintStream.hpp</text>
</a>
</g>
</g>
<!-- Node8&#45;&gt;Node9 -->
<g id="edge12" class="edge">
<title>Node8&#45;&gt;Node9</title>
<path fill="none" stroke="#191970" d="M1904.3074,-403.4046C1915.7037,-395.2816 1930.3859,-382.4994 1937,-367 1944.0816,-350.4049 1941.229,-329.6997 1937.4166,-314.8479"/>
<polygon fill="#191970" stroke="#191970" points="1940.7647,-313.8267 1934.5993,-305.2105 1934.0459,-315.7909 1940.7647,-313.8267"/>
</g>
<!-- Node17 -->
<g id="node17" class="node">
<title>Node17</title>
<g id="a_node17"><a xlink:href="../../de/dd1/AH_2Settings_2SettingsWrapper_8hpp.html" target="_top" xlink:title=" ">
<polygon fill="#ffffff" stroke="#000000" points="1668,-347.5 1668,-366.5 1832,-366.5 1832,-347.5 1668,-347.5"/>
<text text-anchor="middle" x="1750" y="-354.5" font-family="Helvetica,sans-Serif" font-size="10.00" fill="#000000">AH/Settings/SettingsWrapper.hpp</text>
</a>
</g>
</g>
<!-- Node8&#45;&gt;Node17 -->
<g id="edge25" class="edge">
<title>Node8&#45;&gt;Node17</title>
<path fill="none" stroke="#191970" d="M1859.863,-403.3733C1835.5754,-394.3032 1801.4229,-380.6279 1777.5807,-370.4755"/>
<polygon fill="#191970" stroke="#191970" points="1778.9344,-367.2478 1768.3659,-366.5011 1776.162,-373.6754 1778.9344,-367.2478"/>
</g>
<!-- Node25 -->
<g id="node25" class="node">
<title>Node25</title>
<g id="a_node25"><a xlink:href="../../d7/d52/DebugVal_8hpp.html" target="_top" xlink:title=" ">
<polygon fill="#ffffff" stroke="#000000" points="1850,-347.5 1850,-366.5 1928,-366.5 1928,-347.5 1850,-347.5"/>
<text text-anchor="middle" x="1889" y="-354.5" font-family="Helvetica,sans-Serif" font-size="10.00" fill="#000000">DebugVal.hpp</text>
</a>
</g>
</g>
<!-- Node8&#45;&gt;Node25 -->
<g id="edge40" class="edge">
<title>Node8&#45;&gt;Node25</title>
<path fill="none" stroke="#191970" d="M1889,-403.2455C1889,-395.9382 1889,-385.6944 1889,-376.7046"/>
<polygon fill="#191970" stroke="#191970" points="1892.5001,-376.6426 1889,-366.6427 1885.5001,-376.6427 1892.5001,-376.6426"/>
</g>
<!-- Node9&#45;&gt;Node4 -->
<g id="edge14" class="edge">
<title>Node9&#45;&gt;Node4</title>
<path fill="none" stroke="#191970" d="M1931,-285.7511C1931,-265.6182 1931,-217.9826 1931,-178 1931,-178 1931,-178 1931,-122 1931,-36.4459 1301.951,-15.8546 1079.1116,-11.2443"/>
<polygon fill="#191970" stroke="#191970" points="1078.8799,-7.739 1068.8114,-11.0367 1078.7388,-14.7376 1078.8799,-7.739"/>
</g>
<!-- Node9&#45;&gt;Node10 -->
<g id="edge13" class="edge">
<title>Node9&#45;&gt;Node10</title>
<path fill="none" stroke="#191970" d="M1880.397,-285.9902C1829.7407,-275.8517 1755.8542,-259.1971 1731,-244 1664.117,-203.1044 1683.7417,-147.8032 1614,-112 1555.8157,-82.13 1381.5898,-71.6527 1269.1874,-67.9798"/>
<polygon fill="#191970" stroke="#191970" points="1269.2889,-64.4814 1259.1839,-67.6655 1269.069,-71.4779 1269.2889,-64.4814"/>
</g>
<!-- Node11 -->
<g id="node11" class="node">
<title>Node11</title>
<g id="a_node11"><a xlink:href="../../d6/ddf/Arduino-Wrapper_8h.html" target="_top" xlink:title=" ">
<polygon fill="#ffffff" stroke="#000000" points="784.5,-168.5 784.5,-187.5 899.5,-187.5 899.5,-168.5 784.5,-168.5"/>
<text text-anchor="middle" x="842" y="-175.5" font-family="Helvetica,sans-Serif" font-size="10.00" fill="#000000">AH/Arduino&#45;Wrapper.h</text>
</a>
</g>
</g>
<!-- Node9&#45;&gt;Node11 -->
<g id="edge15" class="edge">
<title>Node9&#45;&gt;Node11</title>
<path fill="none" stroke="#191970" d="M1881.7927,-285.9657C1869.1841,-283.7615 1855.62,-281.5972 1843,-280 1637.7949,-254.0295 1582.9514,-278.4592 1379,-244 1344.5603,-238.1811 1337.3735,-230.1977 1303,-224 1164.4731,-199.0228 999.9056,-186.6981 909.6385,-181.3995"/>
<polygon fill="#191970" stroke="#191970" points="909.7235,-177.8987 899.5388,-180.8179 909.321,-184.8871 909.7235,-177.8987"/>
</g>
<!-- Node16 -->
<g id="node16" class="node">
<title>Node16</title>
<g id="a_node16"><a xlink:title=" ">
<polygon fill="#ffffff" stroke="#bfbfbf" points="1739.5,-224.5 1739.5,-243.5 1902.5,-243.5 1902.5,-224.5 1739.5,-224.5"/>
<text text-anchor="middle" x="1821" y="-231.5" font-family="Helvetica,sans-Serif" font-size="10.00" fill="#000000">Settings/NamespaceSettings.hpp</text>
</a>
</g>
</g>
<!-- Node9&#45;&gt;Node16 -->
<g id="edge24" class="edge">
<title>Node9&#45;&gt;Node16</title>
<path fill="none" stroke="#191970" d="M1913.8125,-285.8906C1895.8918,-275.8713 1867.5905,-260.0483 1846.9477,-248.5071"/>
<polygon fill="#191970" stroke="#191970" points="1848.5033,-245.367 1838.0668,-243.5419 1845.0872,-251.4769 1848.5033,-245.367"/>
</g>
<!-- Node12 -->
<g id="node12" class="node">
<title>Node12</title>
<g id="a_node12"><a xlink:href="../../d7/d79/MinMaxFix_8hpp.html" target="_top" xlink:title=" ">
<polygon fill="#ffffff" stroke="#000000" points="526.5,-112.5 526.5,-131.5 651.5,-131.5 651.5,-112.5 526.5,-112.5"/>
<text text-anchor="middle" x="589" y="-119.5" font-family="Helvetica,sans-Serif" font-size="10.00" fill="#000000">AH/Math/MinMaxFix.hpp</text>
</a>
</g>
</g>
<!-- Node11&#45;&gt;Node12 -->
<g id="edge16" class="edge">
<title>Node11&#45;&gt;Node12</title>
<path fill="none" stroke="#191970" d="M798.7952,-168.4369C755.4053,-158.8328 688.4791,-144.0191 641.9274,-133.7152"/>
<polygon fill="#191970" stroke="#191970" points="642.5467,-130.2676 632.0266,-131.5237 641.0338,-137.1022 642.5467,-130.2676"/>
</g>
<!-- Node14 -->
<g id="node14" class="node">
<title>Node14</title>
<g id="a_node14"><a xlink:title=" ">
<polygon fill="#ffffff" stroke="#bfbfbf" points="77,-.5 77,-19.5 135,-19.5 135,-.5 77,-.5"/>
<text text-anchor="middle" x="106" y="-7.5" font-family="Helvetica,sans-Serif" font-size="10.00" fill="#000000">Arduino.h</text>
</a>
</g>
</g>
<!-- Node11&#45;&gt;Node14 -->
<g id="edge23" class="edge">
<title>Node11&#45;&gt;Node14</title>
<path fill="none" stroke="#191970" d="M784.246,-174.6679C613.3229,-164.2235 118.9628,-129.5941 72,-76 59.1704,-61.3588 73.3129,-41.0213 87.0677,-26.8047"/>
<polygon fill="#191970" stroke="#191970" points="89.7468,-29.0824 94.4956,-19.6114 84.8771,-24.0539 89.7468,-29.0824"/>
</g>
<!-- Node11&#45;&gt;Node15 -->
<g id="edge22" class="edge">
<title>Node11&#45;&gt;Node15</title>
<path fill="none" stroke="#191970" d="M872.0836,-168.3733C901.1834,-159.0613 945.4523,-144.8953 977.403,-134.671"/>
<polygon fill="#191970" stroke="#191970" points="978.8515,-137.8824 987.309,-131.5011 976.718,-131.2155 978.8515,-137.8824"/>
</g>
<!-- Node12&#45;&gt;Node4 -->
<g id="edge17" class="edge">
<title>Node12&#45;&gt;Node4</title>
<path fill="none" stroke="#191970" d="M596.8341,-112.4258C609.5999,-97.5653 636.4502,-69.2793 666,-56 710.9619,-35.7948 840.8526,-22.3416 925.3371,-15.4518"/>
<polygon fill="#191970" stroke="#191970" points="925.7181,-18.9326 935.4062,-14.6441 925.1583,-11.955 925.7181,-18.9326"/>
</g>
<!-- Node12&#45;&gt;Node10 -->
<g id="edge21" class="edge">
<title>Node12&#45;&gt;Node10</title>
<path fill="none" stroke="#191970" d="M651.6212,-115.9538C751.738,-106.2874 948.7474,-87.2658 1068.6719,-75.6868"/>
<polygon fill="#191970" stroke="#191970" points="1069.3397,-79.1387 1078.9571,-74.6938 1068.667,-72.1711 1069.3397,-79.1387"/>
</g>
<!-- Node13 -->
<g id="node13" class="node">
<title>Node13</title>
<g id="a_node13"><a xlink:href="../../d6/d3b/FixArduinoMacros_8hpp.html" target="_top" xlink:title=" ">
<polygon fill="#ffffff" stroke="#000000" points="81,-56.5 81,-75.5 237,-75.5 237,-56.5 81,-56.5"/>
<text text-anchor="middle" x="159" y="-63.5" font-family="Helvetica,sans-Serif" font-size="10.00" fill="#000000">AH/Math/FixArduinoMacros.hpp</text>
</a>
</g>
</g>
<!-- Node12&#45;&gt;Node13 -->
<g id="edge18" class="edge">
<title>Node12&#45;&gt;Node13</title>
<path fill="none" stroke="#191970" d="M526.4743,-113.8571C451.3794,-104.0773 325.1546,-87.6387 241.9651,-76.8048"/>
<polygon fill="#191970" stroke="#191970" points="242.408,-73.333 232.0397,-75.5121 241.5039,-80.2743 242.408,-73.333"/>
</g>
<!-- Node13&#45;&gt;Node4 -->
<g id="edge19" class="edge">
<title>Node13&#45;&gt;Node4</title>
<path fill="none" stroke="#191970" d="M237.2724,-57.2386C241.9151,-56.7977 246.5176,-56.3807 251,-56 496.9362,-35.1136 788.957,-19.9994 925.0504,-13.5151"/>
<polygon fill="#191970" stroke="#191970" points="925.543,-16.9958 935.3659,-13.026 925.2113,-10.0037 925.543,-16.9958"/>
</g>
<!-- Node13&#45;&gt;Node14 -->
<g id="edge20" class="edge">
<title>Node13&#45;&gt;Node14</title>
<path fill="none" stroke="#191970" d="M149.7681,-56.2455C142.1683,-48.2155 131.2123,-36.6394 122.1632,-27.0781"/>
<polygon fill="#191970" stroke="#191970" points="124.542,-24.4998 115.1261,-19.6427 119.4579,-29.3115 124.542,-24.4998"/>
</g>
<!-- Node17&#45;&gt;Node4 -->
<g id="edge26" class="edge">
<title>Node17&#45;&gt;Node4</title>
<path fill="none" stroke="#191970" d="M1822.7913,-347.4765C1896.9616,-337.3154 2003.4092,-321.295 2020,-311 2055.9558,-288.6885 2076,-276.3157 2076,-234 2076,-234 2076,-234 2076,-122 2076,-7.5118 1940.0729,-73.9462 1827,-56 1684.2688,-33.3466 1255.1604,-17.8572 1078.8804,-12.2876"/>
<polygon fill="#191970" stroke="#191970" points="1078.7559,-8.7821 1068.651,-11.9666 1078.5362,-15.7786 1078.7559,-8.7821"/>
</g>
<!-- Node17&#45;&gt;Node8 -->
<g id="edge39" class="edge">
<title>Node17&#45;&gt;Node8</title>
<path fill="none" stroke="#191970" d="M1778.8004,-366.5011C1802.9963,-375.5284 1837.1505,-389.1985 1861.0876,-399.3833"/>
<polygon fill="#191970" stroke="#191970" points="1859.7783,-402.6302 1870.3471,-403.3733 1862.5485,-396.2016 1859.7783,-402.6302"/>
</g>
<!-- Node17&#45;&gt;Node10 -->
<g id="edge27" class="edge">
<title>Node17&#45;&gt;Node10</title>
<path fill="none" stroke="#191970" d="M1727.0567,-347.3919C1707.745,-338.9015 1679.7211,-325.6218 1657,-311 1638.6714,-299.2049 1636.1374,-293.4674 1619,-280 1511.119,-195.2217 1486.8849,-164.2102 1360,-112 1321.366,-96.103 1275.9777,-84.8877 1239.1425,-77.5133"/>
<polygon fill="#191970" stroke="#191970" points="1239.4776,-74.0128 1228.9926,-75.5345 1238.138,-80.8835 1239.4776,-74.0128"/>
</g>
<!-- Node18 -->
<g id="node18" class="node">
<title>Node18</title>
<g id="a_node18"><a xlink:href="../../d5/d4f/AH_2Settings_2Settings_8hpp.html" target="_top" xlink:title="All user settings and debugging options can be changed here.">
<polygon fill="#ffffff" stroke="#000000" points="1373.5,-286 1373.5,-305 1444.5,-305 1444.5,-286 1373.5,-286"/>
<text text-anchor="middle" x="1409" y="-293" font-family="Helvetica,sans-Serif" font-size="10.00" fill="#000000">Settings.hpp</text>
</a>
</g>
</g>
<!-- Node17&#45;&gt;Node18 -->
<g id="edge28" class="edge">
<title>Node17&#45;&gt;Node18</title>
<path fill="none" stroke="#191970" d="M1667.8759,-348.2101C1608.0334,-340.8461 1525.3009,-328.6712 1454,-311 1450.7919,-310.2049 1447.4877,-309.2798 1444.1957,-308.2849"/>
<polygon fill="#191970" stroke="#191970" points="1445.0565,-304.8851 1434.465,-305.1502 1442.91,-311.5479 1445.0565,-304.8851"/>
</g>
<!-- Node24 -->
<g id="node24" class="node">
<title>Node24</title>
<g id="a_node24"><a xlink:href="../../d9/d98/TeensyUSBTypes_8hpp.html" target="_top" xlink:title=" ">
<polygon fill="#ffffff" stroke="#000000" points="1666,-286 1666,-305 1834,-305 1834,-286 1666,-286"/>
<text text-anchor="middle" x="1750" y="-293" font-family="Helvetica,sans-Serif" font-size="10.00" fill="#000000">AH/Teensy/TeensyUSBTypes.hpp</text>
</a>
</g>
</g>
<!-- Node17&#45;&gt;Node24 -->
<g id="edge38" class="edge">
<title>Node17&#45;&gt;Node24</title>
<path fill="none" stroke="#191970" d="M1750,-347.3906C1750,-338.8657 1750,-326.1392 1750,-315.4235"/>
<polygon fill="#191970" stroke="#191970" points="1753.5001,-315.2448 1750,-305.2449 1746.5001,-315.2449 1753.5001,-315.2448"/>
</g>
<!-- Node19 -->
<g id="node19" class="node">
<title>Node19</title>
<g id="a_node19"><a xlink:href="../../dc/d50/Frequency_8hpp.html" target="_top" xlink:title=" ">
<polygon fill="#ffffff" stroke="#000000" points="1223,-112.5 1223,-131.5 1351,-131.5 1351,-112.5 1223,-112.5"/>
<text text-anchor="middle" x="1287" y="-119.5" font-family="Helvetica,sans-Serif" font-size="10.00" fill="#000000">AH/Types/Frequency.hpp</text>
</a>
</g>
</g>
<!-- Node18&#45;&gt;Node19 -->
<g id="edge29" class="edge">
<title>Node18&#45;&gt;Node19</title>
<path fill="none" stroke="#191970" d="M1402.267,-285.9248C1382.6495,-258.0261 1325.311,-176.4832 1299.6593,-140.0031"/>
<polygon fill="#191970" stroke="#191970" points="1302.4777,-137.9264 1293.8626,-131.7595 1296.7516,-141.9529 1302.4777,-137.9264"/>
</g>
<!-- Node20 -->
<g id="node20" class="node">
<title>Node20</title>
<g id="a_node20"><a xlink:href="../../d7/d7c/ADCConfig_8hpp.html" target="_top" xlink:title="This file contains the platform&#45;specific ADC resolutions. By default, the library automatically selec...">
<polygon fill="#ffffff" stroke="#000000" points="1388,-224.5 1388,-243.5 1536,-243.5 1536,-224.5 1388,-224.5"/>
<text text-anchor="middle" x="1462" y="-231.5" font-family="Helvetica,sans-Serif" font-size="10.00" fill="#000000">AH/Hardware/ADCConfig.hpp</text>
</a>
</g>
</g>
<!-- Node18&#45;&gt;Node20 -->
<g id="edge32" class="edge">
<title>Node18&#45;&gt;Node20</title>
<path fill="none" stroke="#191970" d="M1417.2813,-285.8906C1425.1693,-276.7376 1437.2314,-262.7409 1446.8412,-251.59"/>
<polygon fill="#191970" stroke="#191970" points="1449.7251,-253.6049 1453.602,-243.7449 1444.4225,-249.0352 1449.7251,-253.6049"/>
</g>
<!-- Node21 -->
<g id="node21" class="node">
<title>Node21</title>
<g id="a_node21"><a xlink:title=" ">
<polygon fill="#ffffff" stroke="#bfbfbf" points="1093,-224.5 1093,-243.5 1141,-243.5 1141,-224.5 1093,-224.5"/>
<text text-anchor="middle" x="1117" y="-231.5" font-family="Helvetica,sans-Serif" font-size="10.00" fill="#000000">limits.h</text>
</a>
</g>
</g>
<!-- Node18&#45;&gt;Node21 -->
<g id="edge35" class="edge">
<title>Node18&#45;&gt;Node21</title>
<path fill="none" stroke="#191970" d="M1373.487,-288.0204C1316.9434,-276.1114 1207.1551,-252.9882 1151.351,-241.2349"/>
<polygon fill="#191970" stroke="#191970" points="1151.7695,-237.7463 1141.2628,-239.1101 1150.3267,-244.596 1151.7695,-237.7463"/>
</g>
<!-- Node18&#45;&gt;Node22 -->
<g id="edge36" class="edge">
<title>Node18&#45;&gt;Node22</title>
<path fill="none" stroke="#191970" d="M1386.9688,-285.8906C1363.3769,-275.6005 1325.7499,-259.1888 1299.1367,-247.5809"/>
<polygon fill="#191970" stroke="#191970" points="1300.4419,-244.3318 1289.8765,-243.5419 1297.6433,-250.748 1300.4419,-244.3318"/>
</g>
<!-- Node18&#45;&gt;Node23 -->
<g id="edge37" class="edge">
<title>Node18&#45;&gt;Node23</title>
<path fill="none" stroke="#191970" d="M1373.4021,-290.4672C1291.4528,-278.8813 1090.2751,-250.4389 1008.9542,-238.9418"/>
<polygon fill="#191970" stroke="#191970" points="1009.1387,-235.4332 998.7472,-237.4987 1008.1588,-242.3642 1009.1387,-235.4332"/>
</g>
<!-- Node19&#45;&gt;Node4 -->
<g id="edge30" class="edge">
<title>Node19&#45;&gt;Node4</title>
<path fill="none" stroke="#191970" d="M1287.2056,-112.2751C1286.9449,-97.7331 1284.1585,-70.4858 1268,-56 1240.6993,-31.5255 1147.402,-19.7846 1078.9813,-14.3546"/>
<polygon fill="#191970" stroke="#191970" points="1078.8903,-10.8376 1068.6532,-13.5674 1078.3582,-17.8173 1078.8903,-10.8376"/>
</g>
<!-- Node19&#45;&gt;Node10 -->
<g id="edge31" class="edge">
<title>Node19&#45;&gt;Node10</title>
<path fill="none" stroke="#191970" d="M1266.7151,-112.3733C1247.8579,-103.4241 1219.554,-89.9917 1198.2545,-79.8835"/>
<polygon fill="#191970" stroke="#191970" points="1199.5551,-76.6266 1189.0202,-75.5011 1196.5539,-82.9506 1199.5551,-76.6266"/>
</g>
<!-- Node20&#45;&gt;Node4 -->
<g id="edge33" class="edge">
<title>Node20&#45;&gt;Node4</title>
<path fill="none" stroke="#191970" d="M1456.3344,-224.1771C1437.4166,-192.4879 1372.8056,-92.8852 1288,-56 1251.4617,-40.1081 1150.5814,-26.2656 1079.0098,-18.0242"/>
<polygon fill="#191970" stroke="#191970" points="1079.0052,-14.5012 1068.6739,-16.8493 1078.2146,-21.4564 1079.0052,-14.5012"/>
</g>
<!-- Node20&#45;&gt;Node11 -->
<g id="edge34" class="edge">
<title>Node20&#45;&gt;Node11</title>
<path fill="none" stroke="#191970" d="M1387.5978,-225.4028C1382.9979,-224.9154 1378.4369,-224.4438 1374,-224 1207.2287,-207.3174 1010.6807,-191.2558 909.589,-183.2583"/>
<polygon fill="#191970" stroke="#191970" points="909.7608,-179.7611 899.5163,-182.4632 909.2098,-186.7394 909.7608,-179.7611"/>
</g>
<!-- Node27&#45;&gt;Node3 -->
<g id="edge47" class="edge">
<title>Node27&#45;&gt;Node3</title>
<path fill="none" stroke="#191970" d="M372.0888,-724.7449C373.7392,-733.314 374.1598,-746.0519 373.3508,-756.7462"/>
<polygon fill="#191970" stroke="#191970" points="369.8503,-756.5293 372.0625,-766.8906 376.7945,-757.4113 369.8503,-756.5293"/>
</g>
<!-- Node28 -->
<g id="node28" class="node">
<title>Node28</title>
<g id="a_node28"><a xlink:href="../../dd/ddf/ExtendedInputOutput_8hpp.html" target="_top" xlink:title=" ">
<polygon fill="#ffffff" stroke="#000000" points="287,-638.5 287,-668.5 447,-668.5 447,-638.5 287,-638.5"/>
<text text-anchor="start" x="295" y="-656.5" font-family="Helvetica,sans-Serif" font-size="10.00" fill="#000000">AH/Hardware/ExtendedInput</text>
<text text-anchor="middle" x="367" y="-645.5" font-family="Helvetica,sans-Serif" font-size="10.00" fill="#000000">Output/ExtendedInputOutput.hpp</text>
</a>
</g>
</g>
<!-- Node27&#45;&gt;Node28 -->
<g id="edge48" class="edge">
<title>Node27&#45;&gt;Node28</title>
<path fill="none" stroke="#191970" d="M367,-705.3906C367,-698.2234 367,-688.0862 367,-678.671"/>
<polygon fill="#191970" stroke="#191970" points="370.5001,-678.5446 367,-668.5446 363.5001,-678.5446 370.5001,-678.5446"/>
</g>
<!-- Node29 -->
<g id="node29" class="node">
<title>Node29</title>
<g id="a_node29"><a xlink:title=" ">
<polygon fill="#ffffff" stroke="#bfbfbf" points="66.5,-644 66.5,-663 115.5,-663 115.5,-644 66.5,-644"/>
<text text-anchor="middle" x="91" y="-651" font-family="Helvetica,sans-Serif" font-size="10.00" fill="#000000">string.h</text>
</a>
</g>
</g>
<!-- Node27&#45;&gt;Node29 -->
<g id="edge53" class="edge">
<title>Node27&#45;&gt;Node29</title>
<path fill="none" stroke="#191970" d="M322.7325,-708.9353C274.6777,-701.7693 195.9656,-688.3264 130,-669 127.5528,-668.283 125.0457,-667.4724 122.5409,-666.607"/>
<polygon fill="#191970" stroke="#191970" points="123.6161,-663.2729 113.023,-663.0812 121.1844,-669.837 123.6161,-663.2729"/>
</g>
<!-- Node28&#45;&gt;Node4 -->
<g id="edge50" class="edge">
<title>Node28&#45;&gt;Node4</title>
<path fill="none" stroke="#191970" d="M295.5642,-638.4877C213.7865,-616.626 91,-567.4149 91,-469 91,-469 91,-469 91,-178 91,-146.7875 92.0583,-133.1637 115,-112 159.3807,-71.0588 189.3168,-96.8048 246,-76 265.7865,-68.7376 268.5775,-61.2123 289,-56 407.4891,-25.7586 766.4139,-14.8135 925.1194,-11.3801"/>
<polygon fill="#191970" stroke="#191970" points="925.3553,-14.876 935.2788,-11.1647 925.2068,-7.8776 925.3553,-14.876"/>
</g>
<!-- Node28&#45;&gt;Node5 -->
<g id="edge52" class="edge">
<title>Node28&#45;&gt;Node5</title>
<path fill="none" stroke="#191970" d="M447.2125,-640.263C521.5512,-627.9952 631.079,-609.9205 702.2344,-598.1781"/>
<polygon fill="#191970" stroke="#191970" points="703.149,-601.5746 712.4456,-596.493 702.0091,-594.668 703.149,-601.5746"/>
</g>
<!-- Node28&#45;&gt;Node10 -->
<g id="edge49" class="edge">
<title>Node28&#45;&gt;Node10</title>
<path fill="none" stroke="#191970" d="M375.8762,-638.1101C409.7785,-580.7874 537.4068,-377.9515 700,-280 757.2468,-245.5127 786.9742,-275.3453 846,-244 878.7944,-226.5847 883.9534,-216.2936 908,-188 934.0269,-157.3763 923.9645,-134.8881 957,-112 978.1867,-97.3211 1037.3221,-85.1889 1087.7697,-77.0763"/>
<polygon fill="#191970" stroke="#191970" points="1088.3958,-80.521 1097.7295,-75.5078 1087.3068,-73.6062 1088.3958,-80.521"/>
</g>
<!-- Node28&#45;&gt;Node11 -->
<g id="edge51" class="edge">
<title>Node28&#45;&gt;Node11</title>
<path fill="none" stroke="#191970" d="M336.0294,-638.474C299.3015,-618.2313 243,-578.4788 243,-525 243,-525 243,-525 243,-357 243,-321.7513 234.958,-302.6097 262,-280 358.1785,-199.5856 728.4136,-323.924 825,-244 838.2211,-233.0597 841.9181,-213.3324 842.6391,-198.2856"/>
<polygon fill="#191970" stroke="#191970" points="846.1417,-197.9412 842.7187,-187.9146 839.1419,-197.8874 846.1417,-197.9412"/>
</g>
<!-- Node30&#45;&gt;Node5 -->
<g id="edge59" class="edge">
<title>Node30&#45;&gt;Node5</title>
<path fill="none" stroke="#191970" d="M1130.6211,-648.2814C1071.8175,-639.4931 950.304,-620.8463 848,-602 846.529,-601.729 845.0424,-601.4519 843.5444,-601.1697"/>
<polygon fill="#191970" stroke="#191970" points="844.0193,-597.697 833.5382,-599.2453 842.6972,-604.571 844.0193,-597.697"/>
</g>
<!-- Node30&#45;&gt;Node6 -->
<g id="edge58" class="edge">
<title>Node30&#45;&gt;Node6</title>
<path fill="none" stroke="#191970" d="M1130.9314,-644.5647C1099.2267,-635.8242 1051.7256,-621.0588 1013,-602 977.601,-584.5784 940.3001,-557.8267 918.1009,-540.8815"/>
<polygon fill="#191970" stroke="#191970" points="920.1512,-538.0426 910.0986,-534.6965 915.8705,-543.5812 920.1512,-538.0426"/>
</g>
<!-- Node30&#45;&gt;Node16 -->
<g id="edge60" class="edge">
<title>Node30&#45;&gt;Node16</title>
<path fill="none" stroke="#191970" d="M1201.1279,-648.2246C1225.2342,-644.7952 1257.9878,-640.51 1287,-638 1463.4107,-622.7378 1913.6379,-653.6737 2083,-602 2137.7519,-585.2948 2150.4016,-573.2389 2193,-535 2221.8804,-509.0752 2252.5093,-494.1228 2236,-459 2182.9618,-346.1637 2131.7429,-335.3048 2020,-280 1985.722,-263.0348 1945.0029,-252.1997 1909.3551,-245.3407"/>
<polygon fill="#191970" stroke="#191970" points="1909.9141,-241.8848 1899.4446,-243.5097 1908.6423,-248.7683 1909.9141,-241.8848"/>
</g>
<!-- Node30&#45;&gt;Node22 -->
<g id="edge61" class="edge">
<title>Node30&#45;&gt;Node22</title>
<path fill="none" stroke="#191970" d="M1164.0469,-643.9372C1155.409,-599.0274 1124.2674,-405.9665 1199,-280 1207.177,-266.2172 1221.2884,-255.7234 1234.6275,-248.2642"/>
<polygon fill="#191970" stroke="#191970" points="1236.3905,-251.2927 1243.6565,-243.5819 1233.1679,-245.0786 1236.3905,-251.2927"/>
</g>
<!-- Node30&#45;&gt;Node23 -->
<g id="edge62" class="edge">
<title>Node30&#45;&gt;Node23</title>
<path fill="none" stroke="#191970" d="M1130.9921,-646.5975C1051.6895,-630.177 862.3962,-586.3015 826,-535 760.156,-442.191 733.7715,-370.3125 803,-280 804.0635,-278.6126 890.0097,-255.9569 939.6327,-242.9687"/>
<polygon fill="#191970" stroke="#191970" points="940.5429,-246.3484 949.332,-240.432 938.7717,-239.5762 940.5429,-246.3484"/>
</g>
<!-- Node31 -->
<g id="node31" class="node">
<title>Node31</title>
<g id="a_node31"><a xlink:href="../../d7/d42/Channel_8hpp.html" target="_top" xlink:title=" ">
<polygon fill="#ffffff" stroke="#000000" points="1207.5,-286 1207.5,-305 1278.5,-305 1278.5,-286 1207.5,-286"/>
<text text-anchor="middle" x="1243" y="-293" font-family="Helvetica,sans-Serif" font-size="10.00" fill="#000000">Channel.hpp</text>
</a>
</g>
</g>
<!-- Node30&#45;&gt;Node31 -->
<g id="edge55" class="edge">
<title>Node30&#45;&gt;Node31</title>
<path fill="none" stroke="#191970" d="M1170.7065,-643.7638C1183.332,-616.7202 1217,-538.1235 1217,-469 1217,-469 1217,-469 1217,-413 1217,-377.6488 1228.3582,-337.6979 1236.0602,-314.671"/>
<polygon fill="#191970" stroke="#191970" points="1239.4133,-315.6844 1239.3848,-305.0896 1232.8001,-313.3897 1239.4133,-315.6844"/>
</g>
<!-- Node31&#45;&gt;Node16 -->
<g id="edge57" class="edge">
<title>Node31&#45;&gt;Node16</title>
<path fill="none" stroke="#191970" d="M1278.7375,-290.7127C1303.0411,-287.5177 1335.9374,-283.3115 1365,-280 1491.1116,-265.6304 1637.1145,-251.3078 1729.2519,-242.5531"/>
<polygon fill="#191970" stroke="#191970" points="1729.7581,-246.0209 1739.3829,-241.5923 1729.0971,-239.0522 1729.7581,-246.0209"/>
</g>
<!-- Node31&#45;&gt;Node23 -->
<g id="edge56" class="edge">
<title>Node31&#45;&gt;Node23</title>
<path fill="none" stroke="#191970" d="M1207.2789,-287.3333C1155.4013,-275.4728 1059.8283,-253.6224 1008.5929,-241.9088"/>
<polygon fill="#191970" stroke="#191970" points="1009.1922,-238.4556 998.6636,-239.6387 1007.632,-245.2795 1009.1922,-238.4556"/>
</g>
<!-- Node32&#45;&gt;Node30 -->
<g id="edge77" class="edge">
<title>Node32&#45;&gt;Node30</title>
<path fill="none" stroke="#191970" d="M1116.1626,-761.3743C1092.8537,-748.0605 1067.3301,-727.3552 1080,-705 1089.919,-687.4987 1108.4146,-675.3022 1125.7192,-667.1882"/>
<polygon fill="#191970" stroke="#191970" points="1127.3705,-670.2869 1135.1483,-663.0927 1124.5817,-663.8664 1127.3705,-670.2869"/>
</g>
<!-- Node33 -->
<g id="node33" class="node">
<title>Node33</title>
<g id="a_node33"><a xlink:href="../../d4/d93/Updatable_8hpp.html" target="_top" xlink:title=" ">
<polygon fill="#ffffff" stroke="#000000" points="1603.5,-577 1603.5,-596 1750.5,-596 1750.5,-577 1603.5,-577"/>
<text text-anchor="middle" x="1677" y="-584" font-family="Helvetica,sans-Serif" font-size="10.00" fill="#000000">AH/Containers/Updatable.hpp</text>
</a>
</g>
</g>
<!-- Node32&#45;&gt;Node33 -->
<g id="edge64" class="edge">
<title>Node32&#45;&gt;Node33</title>
<path fill="none" stroke="#191970" d="M1210.7449,-762.5181C1213.8681,-761.9711 1216.966,-761.4606 1220,-761 1308.6746,-747.5367 1550.1155,-778.6383 1622,-725 1641.7395,-710.2709 1662.5396,-640.8419 1671.9042,-606.2239"/>
<polygon fill="#191970" stroke="#191970" points="1675.35,-606.8837 1674.5269,-596.3209 1668.5833,-605.0915 1675.35,-606.8837"/>
</g>
<!-- Node39 -->
<g id="node39" class="node">
<title>Node39</title>
<g id="a_node39"><a xlink:href="../../db/dd6/MIDIAddress_8hpp.html" target="_top" xlink:title=" ">
<polygon fill="#ffffff" stroke="#000000" points="1089,-705.5 1089,-724.5 1201,-724.5 1201,-705.5 1089,-705.5"/>
<text text-anchor="middle" x="1145" y="-712.5" font-family="Helvetica,sans-Serif" font-size="10.00" fill="#000000">Def/MIDIAddress.hpp</text>
</a>
</g>
</g>
<!-- Node32&#45;&gt;Node39 -->
<g id="edge78" class="edge">
<title>Node32&#45;&gt;Node39</title>
<path fill="none" stroke="#191970" d="M1147.2584,-761.2977C1146.8724,-753.3834 1146.3953,-743.6043 1145.9793,-735.0759"/>
<polygon fill="#191970" stroke="#191970" points="1149.4635,-734.6645 1145.4803,-724.8469 1142.4718,-735.0056 1149.4635,-734.6645"/>
</g>
<!-- Node33&#45;&gt;Node4 -->
<g id="edge65" class="edge">
<title>Node33&#45;&gt;Node4</title>
<path fill="none" stroke="#191970" d="M1750.6005,-581.5639C1855.8689,-573.849 2043.8036,-557.4577 2108,-535 2231.3403,-491.8521 2342,-487.6697 2342,-357 2342,-357 2342,-357 2342,-122 2342,-84.9295 2323.9786,-72.9303 2291,-56 2236.9743,-28.2646 1348.6882,-14.5009 1079.0188,-10.948"/>
<polygon fill="#191970" stroke="#191970" points="1078.971,-7.4472 1068.926,-10.816 1078.8794,-14.4466 1078.971,-7.4472"/>
</g>
<!-- Node33&#45;&gt;Node7 -->
<g id="edge73" class="edge">
<title>Node33&#45;&gt;Node7</title>
<path fill="none" stroke="#191970" d="M1717.99,-576.9978C1751.3258,-568.429 1799.0508,-554.2192 1838,-535 1866.1405,-521.1143 1895.321,-499.5912 1913.7882,-484.927"/>
<polygon fill="#191970" stroke="#191970" points="1916.1262,-487.5378 1921.7095,-478.5335 1911.7296,-482.0907 1916.1262,-487.5378"/>
</g>
<!-- Node33&#45;&gt;Node17 -->
<g id="edge75" class="edge">
<title>Node33&#45;&gt;Node17</title>
<path fill="none" stroke="#191970" d="M1648.399,-576.9967C1619.5643,-565.5999 1580.9174,-544.3015 1593,-515 1619.9761,-449.5804 1688.6069,-396.955 1725.558,-372.2596"/>
<polygon fill="#191970" stroke="#191970" points="1727.7712,-374.9943 1734.2252,-366.5921 1723.9402,-369.1356 1727.7712,-374.9943"/>
</g>
<!-- Node33&#45;&gt;Node22 -->
<g id="edge76" class="edge">
<title>Node33&#45;&gt;Node22</title>
<path fill="none" stroke="#191970" d="M1603.401,-579.5644C1512.6691,-570.3037 1368.2726,-552.97 1351,-535 1271.9208,-452.7279 1374.3576,-380.8721 1321,-280 1314.5465,-267.7998 1303.4265,-257.3896 1293.0335,-249.5742"/>
<polygon fill="#191970" stroke="#191970" points="1294.7857,-246.5276 1284.5928,-243.6372 1290.7585,-252.2531 1294.7857,-246.5276"/>
</g>
<!-- Node34 -->
<g id="node34" class="node">
<title>Node34</title>
<g id="a_node34"><a xlink:href="../../d8/db4/AH_2Containers_2CRTP_8hpp.html" target="_top" xlink:title=" ">
<polygon fill="#ffffff" stroke="#000000" points="1601.5,-515.5 1601.5,-534.5 1732.5,-534.5 1732.5,-515.5 1601.5,-515.5"/>
<text text-anchor="middle" x="1667" y="-522.5" font-family="Helvetica,sans-Serif" font-size="10.00" fill="#000000">AH/Containers/CRTP.hpp</text>
</a>
</g>
</g>
<!-- Node33&#45;&gt;Node34 -->
<g id="edge66" class="edge">
<title>Node33&#45;&gt;Node34</title>
<path fill="none" stroke="#191970" d="M1675.4375,-576.8906C1674.0513,-568.3657 1671.982,-555.6392 1670.2396,-544.9235"/>
<polygon fill="#191970" stroke="#191970" points="1673.6442,-544.0535 1668.5845,-534.7449 1666.7349,-545.177 1673.6442,-544.0535"/>
</g>
<!-- Node35 -->
<g id="node35" class="node">
<title>Node35</title>
<g id="a_node35"><a xlink:href="../../de/dd1/LinkedList_8hpp.html" target="_top" xlink:title=" ">
<polygon fill="#ffffff" stroke="#000000" points="1359.5,-515.5 1359.5,-534.5 1506.5,-534.5 1506.5,-515.5 1359.5,-515.5"/>
<text text-anchor="middle" x="1433" y="-522.5" font-family="Helvetica,sans-Serif" font-size="10.00" fill="#000000">AH/Containers/LinkedList.hpp</text>
</a>
</g>
</g>
<!-- Node33&#45;&gt;Node35 -->
<g id="edge67" class="edge">
<title>Node33&#45;&gt;Node35</title>
<path fill="none" stroke="#191970" d="M1639.1427,-576.9581C1596.4929,-566.2082 1527.0936,-548.7162 1480.7544,-537.0365"/>
<polygon fill="#191970" stroke="#191970" points="1481.4983,-533.6146 1470.9461,-534.5643 1479.7874,-540.4023 1481.4983,-533.6146"/>
</g>
<!-- Node38 -->
<g id="node38" class="node">
<title>Node38</title>
<g id="a_node38"><a xlink:title=" ">
<polygon fill="#ffffff" stroke="#bfbfbf" points="1751,-515.5 1751,-534.5 1829,-534.5 1829,-515.5 1751,-515.5"/>
<text text-anchor="middle" x="1790" y="-522.5" font-family="Helvetica,sans-Serif" font-size="10.00" fill="#000000">AH/STL/utility</text>
</a>
</g>
</g>
<!-- Node33&#45;&gt;Node38 -->
<g id="edge74" class="edge">
<title>Node33&#45;&gt;Node38</title>
<path fill="none" stroke="#191970" d="M1694.6563,-576.8906C1713.1486,-566.8262 1742.401,-550.9057 1763.6308,-539.3514"/>
<polygon fill="#191970" stroke="#191970" points="1765.3575,-542.3965 1772.4677,-534.5419 1762.0112,-536.2481 1765.3575,-542.3965"/>
</g>
<!-- Node35&#45;&gt;Node4 -->
<g id="edge68" class="edge">
<title>Node35&#45;&gt;Node4</title>
<path fill="none" stroke="#191970" d="M1439.6985,-515.2342C1450.6972,-500.1111 1474.1649,-471.4719 1502,-459 1650.6759,-392.3839 2228,-519.9178 2228,-357 2228,-357 2228,-357 2228,-122 2228,-49.9781 2150.1079,-72.4938 2080,-56 1983.4732,-33.2908 1309.1175,-16.6779 1078.8521,-11.6128"/>
<polygon fill="#191970" stroke="#191970" points="1078.6276,-8.1071 1068.5534,-11.3874 1078.4744,-15.1054 1078.6276,-8.1071"/>
</g>
<!-- Node35&#45;&gt;Node8 -->
<g id="edge69" class="edge">
<title>Node35&#45;&gt;Node8</title>
<path fill="none" stroke="#191970" d="M1435.2064,-515.4465C1439.1793,-500.6145 1449.0479,-472.3668 1469,-459 1497.6615,-439.7984 1711.0128,-423.9765 1822.1294,-416.9367"/>
<polygon fill="#191970" stroke="#191970" points="1822.4672,-420.4224 1832.2284,-416.3032 1822.0289,-413.4362 1822.4672,-420.4224"/>
</g>
<!-- Node35&#45;&gt;Node12 -->
<g id="edge70" class="edge">
<title>Node35&#45;&gt;Node12</title>
<path fill="none" stroke="#191970" d="M1359.4424,-518.7994C1205.773,-502.0715 847.6842,-442.8389 639,-244 609.7088,-216.0907 597.03,-168.5636 591.9871,-141.8124"/>
<polygon fill="#191970" stroke="#191970" points="595.4001,-141.0057 590.2672,-131.7373 588.4999,-142.1837 595.4001,-141.0057"/>
</g>
<!-- Node36 -->
<g id="node36" class="node">
<title>Node36</title>
<g id="a_node36"><a xlink:title=" ">
<polygon fill="#ffffff" stroke="#bfbfbf" points="1511,-459.5 1511,-478.5 1559,-478.5 1559,-459.5 1511,-459.5"/>
<text text-anchor="middle" x="1535" y="-466.5" font-family="Helvetica,sans-Serif" font-size="10.00" fill="#000000">stdlib.h</text>
</a>
</g>
</g>
<!-- Node35&#45;&gt;Node36 -->
<g id="edge71" class="edge">
<title>Node35&#45;&gt;Node36</title>
<path fill="none" stroke="#191970" d="M1450.767,-515.2455C1466.7095,-506.4928 1490.3259,-493.527 1508.4989,-483.5496"/>
<polygon fill="#191970" stroke="#191970" points="1510.3552,-486.5233 1517.4366,-478.6427 1506.9863,-480.3873 1510.3552,-486.5233"/>
</g>
<!-- Node37 -->
<g id="node37" class="node">
<title>Node37</title>
<g id="a_node37"><a xlink:title=" ">
<polygon fill="#ffffff" stroke="#bfbfbf" points="1369.5,-459.5 1369.5,-478.5 1416.5,-478.5 1416.5,-459.5 1369.5,-459.5"/>
<text text-anchor="middle" x="1393" y="-466.5" font-family="Helvetica,sans-Serif" font-size="10.00" fill="#000000">iterator</text>
</a>
</g>
</g>
<!-- Node35&#45;&gt;Node37 -->
<g id="edge72" class="edge">
<title>Node35&#45;&gt;Node37</title>
<path fill="none" stroke="#191970" d="M1426.0325,-515.2455C1420.4689,-507.4564 1412.522,-496.3308 1405.8171,-486.9439"/>
<polygon fill="#191970" stroke="#191970" points="1408.5481,-484.7457 1399.8876,-478.6427 1402.852,-488.8144 1408.5481,-484.7457"/>
</g>
<!-- Node39&#45;&gt;Node30 -->
<g id="edge79" class="edge">
<title>Node39&#45;&gt;Node30</title>
<path fill="none" stroke="#191970" d="M1148.2813,-705.3906C1151.2535,-696.6862 1155.7214,-683.6015 1159.427,-672.7494"/>
<polygon fill="#191970" stroke="#191970" points="1162.7532,-673.8394 1162.6725,-663.2449 1156.1288,-671.5773 1162.7532,-673.8394"/>
</g>
<!-- Node41 -->
<g id="node41" class="node">
<title>Node41</title>
<g id="a_node41"><a xlink:href="../../d3/d37/Control__Surface__Class_8hpp.html" target="_top" xlink:title=" ">
<polygon fill="#ffffff" stroke="#000000" points="1287,-828.5 1287,-858.5 1409,-858.5 1409,-828.5 1287,-828.5"/>
<text text-anchor="start" x="1295" y="-846.5" font-family="Helvetica,sans-Serif" font-size="10.00" fill="#000000">Control_Surface/Control</text>
<text text-anchor="middle" x="1348" y="-835.5" font-family="Helvetica,sans-Serif" font-size="10.00" fill="#000000">_Surface_Class.hpp</text>
</a>
</g>
</g>
<!-- Node40&#45;&gt;Node41 -->
<g id="edge81" class="edge">
<title>Node40&#45;&gt;Node41</title>
<path fill="none" stroke="#191970" d="M1248.7257,-895.4639C1266.7969,-886.0047 1290.3247,-873.6894 1309.9396,-863.4222"/>
<polygon fill="#191970" stroke="#191970" points="1311.6908,-866.4562 1318.9273,-858.7177 1308.4445,-860.2544 1311.6908,-866.4562"/>
</g>
<!-- Node41&#45;&gt;Node33 -->
<g id="edge82" class="edge">
<title>Node41&#45;&gt;Node33</title>
<path fill="none" stroke="#191970" d="M1409.0568,-841.4683C1485.439,-837.525 1619.5032,-825.948 1729,-792 1844.9969,-756.0368 1909.3223,-772.4108 1973,-669 1980.2242,-657.2681 1981.8682,-648.5443 1973,-638 1946.3312,-606.2905 1838.7688,-594.1039 1760.9845,-589.4211"/>
<polygon fill="#191970" stroke="#191970" points="1760.8805,-585.9096 1750.6975,-588.8347 1760.482,-592.8983 1760.8805,-585.9096"/>
</g>
<!-- Node42 -->
<g id="node42" class="node">
<title>Node42</title>
<g id="a_node42"><a xlink:href="../../d8/df3/FilteredAnalog_8hpp.html" target="_top" xlink:title=" ">
<polygon fill="#ffffff" stroke="#000000" points="547,-705.5 547,-724.5 707,-724.5 707,-705.5 547,-705.5"/>
<text text-anchor="middle" x="627" y="-712.5" font-family="Helvetica,sans-Serif" font-size="10.00" fill="#000000">AH/Hardware/FilteredAnalog.hpp</text>
</a>
</g>
</g>
<!-- Node41&#45;&gt;Node42 -->
<g id="edge83" class="edge">
<title>Node41&#45;&gt;Node42</title>
<path fill="none" stroke="#191970" d="M1286.839,-832.5996C1151.497,-808.4783 827.7954,-750.7867 690.4015,-726.2997"/>
<polygon fill="#191970" stroke="#191970" points="690.9016,-722.8338 680.4426,-724.5248 689.6733,-729.7252 690.9016,-722.8338"/>
</g>
<!-- Node46 -->
<g id="node46" class="node">
<title>Node46</title>
<g id="a_node46"><a xlink:href="../../d1/dd0/MillisMicrosTimer_8hpp.html" target="_top" xlink:title=" ">
<polygon fill="#ffffff" stroke="#000000" points="655.5,-224.5 655.5,-243.5 816.5,-243.5 816.5,-224.5 655.5,-224.5"/>
<text text-anchor="middle" x="736" y="-231.5" font-family="Helvetica,sans-Serif" font-size="10.00" fill="#000000">AH/Timing/MillisMicrosTimer.hpp</text>
</a>
</g>
</g>
<!-- Node41&#45;&gt;Node46 -->
<g id="edge102" class="edge">
<title>Node41&#45;&gt;Node46</title>
<path fill="none" stroke="#191970" d="M1286.6864,-838.0556C1248.0646,-834.7738 1197.1459,-830.7171 1152,-828 765.2582,-804.7238 664.1966,-849.1959 281,-792 152.926,-772.8837 0,-844.4928 0,-715 0,-715 0,-715 0,-586.5 0,-413.7584 87.4383,-362.8777 239,-280 273.6873,-261.0321 511.489,-245.7309 645.1877,-238.508"/>
<polygon fill="#191970" stroke="#191970" points="645.6212,-241.9899 655.4197,-237.96 645.2468,-234.9999 645.6212,-241.9899"/>
</g>
<!-- Node47 -->
<g id="node47" class="node">
<title>Node47</title>
<g id="a_node47"><a xlink:href="../../d6/dd2/DisplayElement_8hpp.html" target="_top" xlink:title=" ">
<polygon fill="#ffffff" stroke="#000000" points="1229,-767 1229,-786 1369,-786 1369,-767 1229,-767"/>
<text text-anchor="middle" x="1299" y="-774" font-family="Helvetica,sans-Serif" font-size="10.00" fill="#000000">Display/DisplayElement.hpp</text>
</a>
</g>
</g>
<!-- Node41&#45;&gt;Node47 -->
<g id="edge106" class="edge">
<title>Node41&#45;&gt;Node47</title>
<path fill="none" stroke="#191970" d="M1336.8811,-828.2967C1329.4691,-818.1618 1319.7,-804.804 1311.939,-794.1921"/>
<polygon fill="#191970" stroke="#191970" points="1314.7163,-792.0606 1305.988,-786.055 1309.0661,-796.1928 1314.7163,-792.0606"/>
</g>
<!-- Node48 -->
<g id="node48" class="node">
<title>Node48</title>
<g id="a_node48"><a xlink:href="../../dc/d77/DisplayInterface_8hpp.html" target="_top" xlink:title=" ">
<polygon fill="#ffffff" stroke="#000000" points="1257.5,-705.5 1257.5,-724.5 1400.5,-724.5 1400.5,-705.5 1257.5,-705.5"/>
<text text-anchor="middle" x="1329" y="-712.5" font-family="Helvetica,sans-Serif" font-size="10.00" fill="#000000">Display/DisplayInterface.hpp</text>
</a>
</g>
</g>
<!-- Node41&#45;&gt;Node48 -->
<g id="edge112" class="edge">
<title>Node41&#45;&gt;Node48</title>
<path fill="none" stroke="#191970" d="M1360.4637,-828.3858C1372.6388,-811.6791 1387.9888,-784.0778 1378,-761 1372.7663,-748.9081 1362.6158,-738.5335 1352.9045,-730.7139"/>
<polygon fill="#191970" stroke="#191970" points="1354.7234,-727.7038 1344.618,-724.5209 1350.5329,-733.3109 1354.7234,-727.7038"/>
</g>
<!-- Node50 -->
<g id="node50" class="node">
<title>Node50</title>
<g id="a_node50"><a xlink:href="../../d6/d04/MIDI__Interface_8hpp.html" target="_top" xlink:title=" ">
<polygon fill="#ffffff" stroke="#000000" points="1551,-761.5 1551,-791.5 1663,-791.5 1663,-761.5 1551,-761.5"/>
<text text-anchor="start" x="1559" y="-779.5" font-family="Helvetica,sans-Serif" font-size="10.00" fill="#000000">MIDI_Interfaces/MIDI</text>
<text text-anchor="middle" x="1607" y="-768.5" font-family="Helvetica,sans-Serif" font-size="10.00" fill="#000000">_Interface.hpp</text>
</a>
</g>
</g>
<!-- Node41&#45;&gt;Node50 -->
<g id="edge113" class="edge">
<title>Node41&#45;&gt;Node50</title>
<path fill="none" stroke="#191970" d="M1406.1247,-828.4639C1446.1664,-818.1056 1499.448,-804.3223 1541.0744,-793.5541"/>
<polygon fill="#191970" stroke="#191970" points="1542.0435,-796.9187 1550.8482,-791.0257 1540.2903,-790.1418 1542.0435,-796.9187"/>
</g>
<!-- Node55 -->
<g id="node55" class="node">
<title>Node55</title>
<g id="a_node55"><a xlink:title=" ">
<polygon fill="#ffffff" stroke="#bfbfbf" points="1816.5,-644 1816.5,-663 1963.5,-663 1963.5,-644 1816.5,-644"/>
<text text-anchor="middle" x="1890" y="-651" font-family="Helvetica,sans-Serif" font-size="10.00" fill="#000000">Settings/SettingsWrapper.hpp</text>
</a>
</g>
</g>
<!-- Node41&#45;&gt;Node55 -->
<g id="edge141" class="edge">
<title>Node41&#45;&gt;Node55</title>
<path fill="none" stroke="#191970" d="M1409.1077,-838.7387C1475.0762,-832.4622 1582.6995,-818.9056 1672,-792 1740.7469,-771.2871 1760.079,-766.0303 1819,-725 1841.0452,-709.6486 1862.1901,-686.9869 1875.5825,-671.309"/>
<polygon fill="#191970" stroke="#191970" points="1878.4572,-673.327 1882.1815,-663.4083 1873.0847,-668.8396 1878.4572,-673.327"/>
</g>
<!-- Node42&#45;&gt;Node4 -->
<g id="edge84" class="edge">
<title>Node42&#45;&gt;Node4</title>
<path fill="none" stroke="#191970" d="M546.8426,-710.2576C458.8752,-704.0374 324.0258,-691.2156 278,-669 195.0615,-628.9676 129,-617.0944 129,-525 129,-525 129,-525 129,-178 129,-114.7806 324.8871,-72.1836 386,-56 485.684,-29.6021 783.2271,-16.9062 925.103,-12.2231"/>
<polygon fill="#191970" stroke="#191970" points="925.5754,-15.7096 935.4563,-11.8864 925.3478,-8.7133 925.5754,-15.7096"/>
</g>
<!-- Node42&#45;&gt;Node5 -->
<g id="edge92" class="edge">
<title>Node42&#45;&gt;Node5</title>
<path fill="none" stroke="#191970" d="M644.5023,-705.3767C659.4296,-696.7789 681.0938,-683.354 698,-669 719.3036,-650.9124 740.4325,-626.9867 754.808,-609.5607"/>
<polygon fill="#191970" stroke="#191970" points="757.7016,-611.5497 761.2937,-601.5824 752.2699,-607.1342 757.7016,-611.5497"/>
</g>
<!-- Node42&#45;&gt;Node12 -->
<g id="edge98" class="edge">
<title>Node42&#45;&gt;Node12</title>
<path fill="none" stroke="#191970" d="M616.1111,-705.1981C595.0964,-685.144 551,-637.0417 551,-586.5 551,-586.5 551,-586.5 551,-357 551,-276.1575 573.1862,-181.6542 583.6537,-141.5662"/>
<polygon fill="#191970" stroke="#191970" points="587.0741,-142.3229 586.2671,-131.7589 580.3102,-140.5204 587.0741,-142.3229"/>
</g>
<!-- Node42&#45;&gt;Node15 -->
<g id="edge99" class="edge">
<title>Node42&#45;&gt;Node15</title>
<path fill="none" stroke="#191970" d="M627,-705.3281C627,-683.9175 627,-630.895 627,-586.5 627,-586.5 627,-586.5 627,-469 627,-370.4405 663.0709,-337.6655 743,-280 800.0031,-238.8747 835.7118,-278.4152 897,-244 944.2456,-217.4702 985.0798,-166.8194 1004.658,-139.8823"/>
<polygon fill="#191970" stroke="#191970" points="1007.5161,-141.9025 1010.4613,-131.7253 1001.8123,-137.8446 1007.5161,-141.9025"/>
</g>
<!-- Node42&#45;&gt;Node17 -->
<g id="edge101" class="edge">
<title>Node42&#45;&gt;Node17</title>
<path fill="none" stroke="#191970" d="M652.1151,-705.4257C745.1887,-670.1193 1079.5858,-544.8228 1361,-459 1481.2278,-422.3342 1624.7395,-386.7936 1699.3262,-368.9291"/>
<polygon fill="#191970" stroke="#191970" points="1700.4701,-372.2544 1709.3837,-366.5274 1698.8442,-365.4459 1700.4701,-372.2544"/>
</g>
<!-- Node42&#45;&gt;Node28 -->
<g id="edge91" class="edge">
<title>Node42&#45;&gt;Node28</title>
<path fill="none" stroke="#191970" d="M586.6603,-705.4581C547.7766,-696.2606 488.0273,-682.1276 440.6551,-670.9223"/>
<polygon fill="#191970" stroke="#191970" points="441.2833,-667.4744 430.7462,-668.5784 439.672,-674.2864 441.2833,-667.4744"/>
</g>
<!-- Node42&#45;&gt;Node38 -->
<g id="edge100" class="edge">
<title>Node42&#45;&gt;Node38</title>
<path fill="none" stroke="#191970" d="M702.8447,-705.4619C769.8302,-696.7916 870.0847,-683.2144 957,-669 1030.6381,-656.957 1048.5255,-651.0038 1122,-638 1393.8342,-589.8898 1465.7572,-586.4601 1741.1119,-535.112"/>
<polygon fill="#191970" stroke="#191970" points="1741.8069,-538.5428 1750.9936,-533.265 1740.5208,-531.6619 1741.8069,-538.5428"/>
</g>
<!-- Node43 -->
<g id="node43" class="node">
<title>Node43</title>
<g id="a_node43"><a xlink:href="../../d3/df0/EMA_8hpp.html" target="_top" xlink:title=" ">
<polygon fill="#ffffff" stroke="#000000" points="271,-286 271,-305 375,-305 375,-286 271,-286"/>
<text text-anchor="middle" x="323" y="-293" font-family="Helvetica,sans-Serif" font-size="10.00" fill="#000000">AH/Filters/EMA.hpp</text>
</a>
</g>
</g>
<!-- Node42&#45;&gt;Node43 -->
<g id="edge85" class="edge">
<title>Node42&#45;&gt;Node43</title>
<path fill="none" stroke="#191970" d="M585.3224,-705.4855C562.3809,-698.5188 534.6631,-687.0567 515,-669 400.7453,-564.0791 343.7865,-375.5772 327.804,-314.8893"/>
<polygon fill="#191970" stroke="#191970" points="331.1665,-313.911 325.292,-305.0939 324.3859,-315.6499 331.1665,-313.911"/>
</g>
<!-- Node44 -->
<g id="node44" class="node">
<title>Node44</title>
<g id="a_node44"><a xlink:href="../../d3/d09/Hysteresis_8hpp.html" target="_top" xlink:title=" ">
<polygon fill="#ffffff" stroke="#000000" points="393,-286 393,-305 523,-305 523,-286 393,-286"/>
<text text-anchor="middle" x="458" y="-293" font-family="Helvetica,sans-Serif" font-size="10.00" fill="#000000">AH/Filters/Hysteresis.hpp</text>
</a>
</g>
</g>
<!-- Node42&#45;&gt;Node44 -->
<g id="edge88" class="edge">
<title>Node42&#45;&gt;Node44</title>
<path fill="none" stroke="#191970" d="M594.0564,-705.4819C574.8685,-698.3488 551.6447,-686.7187 537,-669 512.6722,-639.5656 513,-624.6867 513,-586.5 513,-586.5 513,-586.5 513,-413 513,-374.5957 488.601,-335.2244 472.3048,-313.2111"/>
<polygon fill="#191970" stroke="#191970" points="474.9811,-310.9496 466.1154,-305.1487 469.4286,-315.2122 474.9811,-310.9496"/>
</g>
<!-- Node45 -->
<g id="node45" class="node">
<title>Node45</title>
<g id="a_node45"><a xlink:href="../../d5/dee/IncreaseBitDepth_8hpp.html" target="_top" xlink:title=" ">
<polygon fill="#ffffff" stroke="#000000" points="883.5,-286 883.5,-305 1036.5,-305 1036.5,-286 883.5,-286"/>
<text text-anchor="middle" x="960" y="-293" font-family="Helvetica,sans-Serif" font-size="10.00" fill="#000000">AH/Math/IncreaseBitDepth.hpp</text>
</a>
</g>
</g>
<!-- Node42&#45;&gt;Node45 -->
<g id="edge93" class="edge">
<title>Node42&#45;&gt;Node45</title>
<path fill="none" stroke="#191970" d="M631.5117,-705.2957C642.614,-681.6937 672.5766,-619.6559 703,-571 773.3528,-458.4853 893.5996,-351.2826 940.4787,-311.6335"/>
<polygon fill="#191970" stroke="#191970" points="942.9381,-314.1387 948.3496,-305.0302 938.4391,-308.776 942.9381,-314.1387"/>
</g>
<!-- Node43&#45;&gt;Node4 -->
<g id="edge86" class="edge">
<title>Node43&#45;&gt;Node4</title>
<path fill="none" stroke="#191970" d="M334.875,-285.8867C356.25,-267.4165 399,-224.6455 399,-178 399,-178 399,-178 399,-122 399,-81.1401 426.0836,-73.5132 463,-56 503.7178,-36.6834 786.3946,-20.4731 925.3019,-13.5704"/>
<polygon fill="#191970" stroke="#191970" points="925.6388,-17.0581 935.4542,-13.0698 925.294,-10.0666 925.6388,-17.0581"/>
</g>
<!-- Node43&#45;&gt;Node23 -->
<g id="edge87" class="edge">
<title>Node43&#45;&gt;Node23</title>
<path fill="none" stroke="#191970" d="M356.0221,-285.9998C365.0301,-283.713 374.8342,-281.5002 384,-280 592.9363,-245.8019 647.9809,-261.1707 859,-244 885.9002,-241.8111 916.3233,-239.1578 939.1183,-237.1344"/>
<polygon fill="#191970" stroke="#191970" points="939.6803,-240.5983 949.3303,-236.2249 939.0592,-233.6259 939.6803,-240.5983"/>
</g>
<!-- Node44&#45;&gt;Node4 -->
<g id="edge89" class="edge">
<title>Node44&#45;&gt;Node4</title>
<path fill="none" stroke="#191970" d="M458.139,-285.7513C458.4138,-265.6189 459,-217.9841 459,-178 459,-178 459,-178 459,-122 459,-90.6328 459.0033,-74.949 484,-56 518.3157,-29.9866 789.1682,-17.1982 924.9492,-12.3705"/>
<polygon fill="#191970" stroke="#191970" points="925.4082,-15.8566 935.2797,-12.0093 925.1635,-8.8609 925.4082,-15.8566"/>
</g>
<!-- Node44&#45;&gt;Node23 -->
<g id="edge90" class="edge">
<title>Node44&#45;&gt;Node23</title>
<path fill="none" stroke="#191970" d="M523.0903,-287.7421C633.5143,-274.5811 853.8628,-248.3187 939.1569,-238.1528"/>
<polygon fill="#191970" stroke="#191970" points="939.8252,-241.598 949.3406,-236.9391 938.9967,-234.6472 939.8252,-241.598"/>
</g>
<!-- Node45&#45;&gt;Node4 -->
<g id="edge94" class="edge">
<title>Node45&#45;&gt;Node4</title>
<path fill="none" stroke="#191970" d="M883.4209,-288.1092C795.4652,-278.8323 661.2434,-261.9472 646,-244 640.2457,-237.225 642.1919,-232.0319 646,-224 703.3702,-102.9971 864.8348,-44.9376 949.1866,-22.1754"/>
<polygon fill="#191970" stroke="#191970" points="950.2987,-25.502 959.0789,-19.5726 948.5175,-18.7324 950.2987,-25.502"/>
</g>
<!-- Node45&#45;&gt;Node15 -->
<g id="edge95" class="edge">
<title>Node45&#45;&gt;Node15</title>
<path fill="none" stroke="#191970" d="M972.4604,-285.9895C983.6563,-276.6492 999.4597,-261.3124 1007,-244 1021.6443,-210.3768 1021.0892,-166.646 1019.1721,-141.7136"/>
<polygon fill="#191970" stroke="#191970" points="1022.6507,-141.3202 1018.2451,-131.6848 1015.6804,-141.9645 1022.6507,-141.3202"/>
</g>
<!-- Node45&#45;&gt;Node21 -->
<g id="edge96" class="edge">
<title>Node45&#45;&gt;Node21</title>
<path fill="none" stroke="#191970" d="M984.5313,-285.8906C1011.1081,-275.4799 1053.6812,-258.8032 1083.367,-247.1747"/>
<polygon fill="#191970" stroke="#191970" points="1084.864,-250.3473 1092.8986,-243.441 1082.3108,-243.8295 1084.864,-250.3473"/>
</g>
<!-- Node45&#45;&gt;Node22 -->
<g id="edge97" class="edge">
<title>Node45&#45;&gt;Node22</title>
<path fill="none" stroke="#191970" d="M1007.7871,-285.9581C1069.6946,-273.5967 1176.2505,-252.3201 1231.8525,-241.2178"/>
<polygon fill="#191970" stroke="#191970" points="1232.8213,-244.5935 1241.9424,-239.2031 1231.4506,-237.729 1232.8213,-244.5935"/>
</g>
<!-- Node46&#45;&gt;Node4 -->
<g id="edge103" class="edge">
<title>Node46&#45;&gt;Node4</title>
<path fill="none" stroke="#191970" d="M736.8249,-224.1935C738.3929,-210.5007 742.8214,-185.3823 755,-168 808.0438,-92.2915 910.1221,-44.4878 964.9772,-23.0957"/>
<polygon fill="#191970" stroke="#191970" points="966.2315,-26.3633 974.3263,-19.5278 963.7356,-19.8234 966.2315,-26.3633"/>
</g>
<!-- Node46&#45;&gt;Node10 -->
<g id="edge105" class="edge">
<title>Node46&#45;&gt;Node10</title>
<path fill="none" stroke="#191970" d="M739.4674,-224.1322C744.9322,-209.9017 756.8327,-183.6165 775,-168 825.5075,-124.5841 850.0043,-130.4527 914,-112 969.4006,-96.0256 1033.2465,-84.5162 1083.1941,-77.0052"/>
<polygon fill="#191970" stroke="#191970" points="1083.9315,-80.4343 1093.3121,-75.5096 1082.9078,-73.5095 1083.9315,-80.4343"/>
</g>
<!-- Node46&#45;&gt;Node11 -->
<g id="edge104" class="edge">
<title>Node46&#45;&gt;Node11</title>
<path fill="none" stroke="#191970" d="M754.4638,-224.2455C771.1074,-215.4527 795.7993,-202.4079 814.7192,-192.4125"/>
<polygon fill="#191970" stroke="#191970" points="816.5408,-195.4086 823.7478,-187.6427 813.2709,-189.2193 816.5408,-195.4086"/>
</g>
<!-- Node47&#45;&gt;Node35 -->
<g id="edge111" class="edge">
<title>Node47&#45;&gt;Node35</title>
<path fill="none" stroke="#191970" d="M1284.9476,-766.9575C1272.8416,-757.8082 1256.2129,-742.7839 1249,-725 1221.3919,-656.9299 1255.0702,-620.8731 1309,-571 1326.3233,-554.9798 1349.7195,-544.4089 1371.5216,-537.4939"/>
<polygon fill="#191970" stroke="#191970" points="1372.8053,-540.764 1381.3992,-534.5675 1370.8169,-534.0524 1372.8053,-540.764"/>
</g>
<!-- Node47&#45;&gt;Node48 -->
<g id="edge107" class="edge">
<title>Node47&#45;&gt;Node48</title>
<path fill="none" stroke="#191970" d="M1303.6875,-766.8906C1307.9773,-758.0965 1314.4482,-744.8312 1319.7734,-733.9145"/>
<polygon fill="#191970" stroke="#191970" points="1323.0078,-735.2671 1324.2464,-724.7449 1316.7164,-732.1981 1323.0078,-735.2671"/>
</g>
<!-- Node48&#45;&gt;Node30 -->
<g id="edge109" class="edge">
<title>Node48&#45;&gt;Node30</title>
<path fill="none" stroke="#191970" d="M1303.5313,-705.3906C1275.8995,-694.9652 1231.6131,-678.2559 1200.7872,-666.6252"/>
<polygon fill="#191970" stroke="#191970" points="1201.8817,-663.2974 1191.2899,-663.0419 1199.4106,-669.8467 1201.8817,-663.2974"/>
</g>
<!-- Node48&#45;&gt;Node35 -->
<g id="edge108" class="edge">
<title>Node48&#45;&gt;Node35</title>
<path fill="none" stroke="#191970" d="M1315.972,-705.3141C1305.9208,-696.9649 1292.7875,-683.922 1287,-669 1282.0179,-656.1545 1280.932,-650.3696 1287,-638 1310.5485,-589.9964 1365.4014,-556.5719 1400.7621,-539.1094"/>
<polygon fill="#191970" stroke="#191970" points="1402.6642,-542.0795 1410.1766,-534.6085 1399.6449,-535.7641 1402.6642,-542.0795"/>
</g>
<!-- Node49 -->
<g id="node49" class="node">
<title>Node49</title>
<g id="a_node49"><a xlink:title=" ">
<polygon fill="#ffffff" stroke="#bfbfbf" points="1295.5,-644 1295.5,-663 1340.5,-663 1340.5,-644 1295.5,-644"/>
<text text-anchor="middle" x="1318" y="-651" font-family="Helvetica,sans-Serif" font-size="10.00" fill="#000000">Print.h</text>
</a>
</g>
</g>
<!-- Node48&#45;&gt;Node49 -->
<g id="edge110" class="edge">
<title>Node48&#45;&gt;Node49</title>
<path fill="none" stroke="#191970" d="M1327.2813,-705.3906C1325.7565,-696.8657 1323.4802,-684.1392 1321.5636,-673.4235"/>
<polygon fill="#191970" stroke="#191970" points="1324.9491,-672.4724 1319.743,-663.2449 1318.0584,-673.7049 1324.9491,-672.4724"/>
</g>
<!-- Node50&#45;&gt;Node30 -->
<g id="edge129" class="edge">
<title>Node50&#45;&gt;Node30</title>
<path fill="none" stroke="#191970" d="M1553.5698,-761.3945C1522.593,-752.0676 1483.093,-739.1926 1449,-725 1431.0164,-717.5136 1428.3585,-711.5133 1410,-705 1342.7659,-681.1463 1260.9932,-666.6634 1211.2538,-659.3708"/>
<polygon fill="#191970" stroke="#191970" points="1211.538,-655.8759 1201.1429,-657.9229 1210.5457,-662.8052 1211.538,-655.8759"/>
</g>
<!-- Node50&#45;&gt;Node33 -->
<g id="edge128" class="edge">
<title>Node50&#45;&gt;Node33</title>
<path fill="none" stroke="#191970" d="M1625.8554,-761.2954C1636.1405,-751.9356 1648.1405,-739.0606 1655,-725 1674.0461,-685.9594 1677.2301,-634.0632 1677.4108,-606.1939"/>
<polygon fill="#191970" stroke="#191970" points="1680.9105,-606.1173 1677.348,-596.1394 1673.9106,-606.1611 1680.9105,-606.1173"/>
</g>
<!-- Node50&#45;&gt;Node39 -->
<g id="edge130" class="edge">
<title>Node50&#45;&gt;Node39</title>
<path fill="none" stroke="#191970" d="M1550.8116,-769.0204C1465.1663,-757.6195 1302.3137,-735.9411 1211.1058,-723.7998"/>
<polygon fill="#191970" stroke="#191970" points="1211.5326,-720.3258 1201.1582,-722.4756 1210.6089,-727.2646 1211.5326,-720.3258"/>
</g>
<!-- Node51 -->
<g id="node51" class="node">
<title>Node51</title>
<g id="a_node51"><a xlink:href="../../dd/ddf/MIDI__Pipes_8hpp.html" target="_top" xlink:title=" ">
<polygon fill="#ffffff" stroke="#000000" points="1986.5,-577 1986.5,-596 2073.5,-596 2073.5,-577 1986.5,-577"/>
<text text-anchor="middle" x="2030" y="-584" font-family="Helvetica,sans-Serif" font-size="10.00" fill="#000000">MIDI_Pipes.hpp</text>
</a>
</g>
</g>
<!-- Node50&#45;&gt;Node51 -->
<g id="edge114" class="edge">
<title>Node50&#45;&gt;Node51</title>
<path fill="none" stroke="#191970" d="M1663.217,-772.606C1740.3778,-764.6701 1880.0858,-740.7374 1973,-669 1995.0907,-651.9442 2011.8668,-623.8972 2021.3216,-605.3133"/>
<polygon fill="#191970" stroke="#191970" points="2024.5801,-606.6158 2025.8083,-596.0924 2018.2857,-603.5531 2024.5801,-606.6158"/>
</g>
<!-- Node54 -->
<g id="node54" class="node">
<title>Node54</title>
<g id="a_node54"><a xlink:href="../../d7/d2d/MIDI__Parser_8hpp.html" target="_top" xlink:title=" ">
<polygon fill="#ffffff" stroke="#000000" points="1457.5,-705.5 1457.5,-724.5 1612.5,-724.5 1612.5,-705.5 1457.5,-705.5"/>
<text text-anchor="middle" x="1535" y="-712.5" font-family="Helvetica,sans-Serif" font-size="10.00" fill="#000000">MIDI_Parsers/MIDI_Parser.hpp</text>
</a>
</g>
</g>
<!-- Node50&#45;&gt;Node54 -->
<g id="edge131" class="edge">
<title>Node50&#45;&gt;Node54</title>
<path fill="none" stroke="#191970" d="M1589.2022,-761.2977C1578.5833,-752.2274 1565.0969,-740.7077 1554.2333,-731.4285"/>
<polygon fill="#191970" stroke="#191970" points="1556.4051,-728.6805 1546.5281,-724.8469 1551.8587,-734.0031 1556.4051,-728.6805"/>
</g>
<!-- Node56 -->
<g id="node56" class="node">
<title>Node56</title>
<g id="a_node56"><a xlink:href="../../d6/d38/MIDI__Interface_8ipp.html" target="_top" xlink:title=" ">
<polygon fill="#ffffff" stroke="#000000" points="1712,-705.5 1712,-724.5 1810,-724.5 1810,-705.5 1712,-705.5"/>
<text text-anchor="middle" x="1761" y="-712.5" font-family="Helvetica,sans-Serif" font-size="10.00" fill="#000000">MIDI_Interface.ipp</text>
</a>
</g>
</g>
<!-- Node50&#45;&gt;Node56 -->
<g id="edge138" class="edge">
<title>Node50&#45;&gt;Node56</title>
<path fill="none" stroke="#191970" d="M1638.7756,-761.4554C1663.1415,-751.239 1696.7261,-737.8609 1722.5894,-728.0861"/>
<polygon fill="#191970" stroke="#191970" points="1723.9501,-731.314 1732.0885,-724.5303 1721.4961,-724.7582 1723.9501,-731.314"/>
</g>
<!-- Node51&#45;&gt;Node4 -->
<g id="edge121" class="edge">
<title>Node51&#45;&gt;Node4</title>
<path fill="none" stroke="#191970" d="M2073.6201,-579.0808C2167.4437,-560.3628 2380,-501.9608 2380,-357 2380,-357 2380,-357 2380,-122 2380,-82.6547 2356.6295,-72.691 2321,-56 2264.5999,-29.5787 1352.3177,-14.8531 1078.8701,-11.0176"/>
<polygon fill="#191970" stroke="#191970" points="1078.6896,-7.5148 1068.6418,-10.875 1078.592,-14.5141 1078.6896,-7.5148"/>
</g>
<!-- Node51&#45;&gt;Node16 -->
<g id="edge127" class="edge">
<title>Node51&#45;&gt;Node16</title>
<path fill="none" stroke="#191970" d="M2056.5159,-576.8573C2074.5979,-568.7255 2097.1589,-555.1488 2108,-535 2152.2266,-452.8021 2454.4525,-660.9129 2020,-280 2002.4877,-264.6459 1950.5504,-252.9371 1904.1281,-245.1755"/>
<polygon fill="#191970" stroke="#191970" points="1904.4464,-241.6813 1894.0142,-243.5308 1903.3228,-248.5906 1904.4464,-241.6813"/>
</g>
<!-- Node51&#45;&gt;Node38 -->
<g id="edge120" class="edge">
<title>Node51&#45;&gt;Node38</title>
<path fill="none" stroke="#191970" d="M1992.7633,-576.9581C1950.9006,-566.2308 1882.8372,-548.7895 1837.2585,-537.11"/>
<polygon fill="#191970" stroke="#191970" points="1837.8799,-533.6562 1827.324,-534.5643 1836.1422,-540.4371 1837.8799,-533.6562"/>
</g>
<!-- Node52 -->
<g id="node52" class="node">
<title>Node52</title>
<g id="a_node52"><a xlink:href="../../d1/d40/BitArray_8hpp.html" target="_top" xlink:title=" ">
<polygon fill="#ffffff" stroke="#000000" points="1961,-515.5 1961,-534.5 2099,-534.5 2099,-515.5 1961,-515.5"/>
<text text-anchor="middle" x="2030" y="-522.5" font-family="Helvetica,sans-Serif" font-size="10.00" fill="#000000">AH/Containers/BitArray.hpp</text>
</a>
</g>
</g>
<!-- Node51&#45;&gt;Node52 -->
<g id="edge115" class="edge">
<title>Node51&#45;&gt;Node52</title>
<path fill="none" stroke="#191970" d="M2030,-576.8906C2030,-568.3657 2030,-555.6392 2030,-544.9235"/>
<polygon fill="#191970" stroke="#191970" points="2033.5001,-544.7448 2030,-534.7449 2026.5001,-544.7449 2033.5001,-544.7448"/>
</g>
<!-- Node53 -->
<g id="node53" class="node">
<title>Node53</title>
<g id="a_node53"><a xlink:href="../../dc/d40/MIDI__MessageTypes_8hpp.html" target="_top" xlink:title=" ">
<polygon fill="#ffffff" stroke="#000000" points="1462.5,-280.5 1462.5,-310.5 1609.5,-310.5 1609.5,-280.5 1462.5,-280.5"/>
<text text-anchor="start" x="1470.5" y="-298.5" font-family="Helvetica,sans-Serif" font-size="10.00" fill="#000000">MIDI_Parsers/MIDI_Message</text>
<text text-anchor="middle" x="1536" y="-287.5" font-family="Helvetica,sans-Serif" font-size="10.00" fill="#000000">Types.hpp</text>
</a>
</g>
</g>
<!-- Node51&#45;&gt;Node53 -->
<g id="edge122" class="edge">
<title>Node51&#45;&gt;Node53</title>
<path fill="none" stroke="#191970" d="M2013.8446,-576.9834C1944.0935,-535.8951 1667.8983,-373.1972 1570.3457,-315.732"/>
<polygon fill="#191970" stroke="#191970" points="1571.8684,-312.5669 1561.4757,-310.507 1568.3155,-318.5982 1571.8684,-312.5669"/>
</g>
<!-- Node52&#45;&gt;Node4 -->
<g id="edge116" class="edge">
<title>Node52&#45;&gt;Node4</title>
<path fill="none" stroke="#191970" d="M2050.6877,-515.3628C2078.8864,-502.2922 2131.0308,-478.355 2176,-459 2214.8148,-442.2939 2231.8746,-450.4525 2264,-423 2290.076,-400.7169 2304,-391.3001 2304,-357 2304,-357 2304,-357 2304,-122 2304,-87.9282 2294.2805,-73.4224 2265,-56 2213.9456,-25.6218 1345.0859,-13.7186 1078.891,-10.7745"/>
<polygon fill="#191970" stroke="#191970" points="1078.586,-7.2711 1068.5482,-10.6613 1078.5093,-14.2706 1078.586,-7.2711"/>
</g>
<!-- Node52&#45;&gt;Node7 -->
<g id="edge117" class="edge">
<title>Node52&#45;&gt;Node7</title>
<path fill="none" stroke="#191970" d="M2013.1039,-515.2455C1998.082,-506.5731 1975.8957,-493.7645 1958.679,-483.825"/>
<polygon fill="#191970" stroke="#191970" points="1960.1128,-480.6114 1949.7025,-478.6427 1956.6129,-486.6737 1960.1128,-480.6114"/>
</g>
<!-- Node52&#45;&gt;Node10 -->
<g id="edge118" class="edge">
<title>Node52&#45;&gt;Node10</title>
<path fill="none" stroke="#191970" d="M2032.827,-515.1008C2042.2936,-479.7852 2069.5864,-357.9406 2020,-280 1990.9767,-234.3809 1961.0157,-246.8236 1912,-224 1794.2271,-169.1604 1768.0326,-143.5216 1642,-112 1573.7539,-94.9312 1386.5445,-80.1909 1269.1453,-72.2509"/>
<polygon fill="#191970" stroke="#191970" points="1269.2748,-68.7518 1259.0628,-71.574 1268.8059,-75.736 1269.2748,-68.7518"/>
</g>
<!-- Node52&#45;&gt;Node23 -->
<g id="edge119" class="edge">
<title>Node52&#45;&gt;Node23</title>
<path fill="none" stroke="#191970" d="M1965.9635,-515.451C1728.4482,-479.7396 909.6915,-353.9051 874,-311 865.1888,-300.408 866.5671,-291.6008 874,-280 881.6333,-268.0865 913.8956,-254.5641 939.7398,-245.2803"/>
<polygon fill="#191970" stroke="#191970" points="940.9861,-248.5523 949.2658,-241.9419 938.671,-241.9462 940.9861,-248.5523"/>
</g>
<!-- Node53&#45;&gt;Node4 -->
<g id="edge123" class="edge">
<title>Node53&#45;&gt;Node4</title>
<path fill="none" stroke="#191970" d="M1542.6405,-280.4223C1548.2272,-265.3437 1553.9904,-241.8854 1545,-224 1488.7898,-112.176 1434.6788,-103.7766 1319,-56 1276.794,-38.5685 1158.2832,-24.5714 1078.7369,-16.7759"/>
<polygon fill="#191970" stroke="#191970" points="1079.0439,-13.2894 1068.7533,-15.8099 1078.3697,-20.2568 1079.0439,-13.2894"/>
</g>
<!-- Node53&#45;&gt;Node16 -->
<g id="edge124" class="edge">
<title>Node53&#45;&gt;Node16</title>
<path fill="none" stroke="#191970" d="M1605.7188,-280.4554C1655.3575,-269.7439 1721.1022,-255.5569 1766.8212,-245.6912"/>
<polygon fill="#191970" stroke="#191970" points="1767.7984,-249.061 1776.8351,-243.5303 1766.3218,-242.2185 1767.7984,-249.061"/>
</g>
<!-- Node53&#45;&gt;Node22 -->
<g id="edge125" class="edge">
<title>Node53&#45;&gt;Node22</title>
<path fill="none" stroke="#191970" d="M1470.4398,-280.4554C1418.0436,-268.4316 1346.5638,-252.0286 1304.0567,-242.2742"/>
<polygon fill="#191970" stroke="#191970" points="1304.6896,-238.8285 1294.1601,-240.0031 1303.1239,-245.6512 1304.6896,-238.8285"/>
</g>
<!-- Node53&#45;&gt;Node23 -->
<g id="edge126" class="edge">
<title>Node53&#45;&gt;Node23</title>
<path fill="none" stroke="#191970" d="M1462.2955,-281.2394C1459.4979,-280.8026 1456.7254,-280.3873 1454,-280 1410.223,-273.7781 1111.7766,-246.4955 1008.8273,-237.152"/>
<polygon fill="#191970" stroke="#191970" points="1008.9272,-233.6468 998.6519,-236.2292 1008.2949,-240.6182 1008.9272,-233.6468"/>
</g>
<!-- Node54&#45;&gt;Node22 -->
<g id="edge132" class="edge">
<title>Node54&#45;&gt;Node22</title>
<path fill="none" stroke="#191970" d="M1518.9699,-705.4749C1480.4665,-681.7562 1382.1793,-616.0802 1331,-535 1317.1833,-513.1111 1320.3093,-504.3345 1315,-479 1296.6928,-391.6429 1312.0213,-365.9616 1288,-280 1285.4007,-270.6983 1281.2999,-260.8226 1277.4864,-252.6159"/>
<polygon fill="#191970" stroke="#191970" points="1280.6162,-251.0488 1273.0974,-243.5843 1274.3202,-254.1083 1280.6162,-251.0488"/>
</g>
<!-- Node54&#45;&gt;Node23 -->
<g id="edge133" class="edge">
<title>Node54&#45;&gt;Node23</title>
<path fill="none" stroke="#191970" d="M1507.1755,-705.4367C1483.6858,-696.9736 1449.4341,-683.7088 1421,-669 1159.6219,-533.7906 1005.0267,-569.2858 864,-311 857.3973,-298.9074 856.3649,-291.4687 864,-280 872.8247,-266.7445 910.7757,-252.8065 939.6548,-243.7945"/>
<polygon fill="#191970" stroke="#191970" points="940.8802,-247.0802 949.4288,-240.8214 938.843,-240.3831 940.8802,-247.0802"/>
</g>
<!-- Node54&#45;&gt;Node30 -->
<g id="edge135" class="edge">
<title>Node54&#45;&gt;Node30</title>
<path fill="none" stroke="#191970" d="M1477.7486,-705.4581C1404.3464,-693.2244 1278.5526,-672.2588 1211.3906,-661.0651"/>
<polygon fill="#191970" stroke="#191970" points="1211.5713,-657.547 1201.132,-659.3553 1210.4205,-664.4518 1211.5713,-657.547"/>
</g>
<!-- Node54&#45;&gt;Node36 -->
<g id="edge134" class="edge">
<title>Node54&#45;&gt;Node36</title>
<path fill="none" stroke="#191970" d="M1535,-705.3565C1535,-668.8479 1535,-538.6569 1535,-488.7066"/>
<polygon fill="#191970" stroke="#191970" points="1538.5001,-488.5768 1535,-478.5768 1531.5001,-488.5769 1538.5001,-488.5768"/>
</g>
<!-- Node54&#45;&gt;Node53 -->
<g id="edge137" class="edge">
<title>Node54&#45;&gt;Node53</title>
<path fill="none" stroke="#191970" d="M1558.2363,-705.3084C1624.471,-677.1053 1811.1853,-593.3821 1838,-535 1887.3122,-427.6353 1972.2616,-631.7006 1622,-367 1600.9665,-351.1045 1578.0517,-331.9565 1561.1684,-317.4779"/>
<polygon fill="#191970" stroke="#191970" points="1563.2587,-314.6588 1553.3994,-310.78 1558.6879,-319.9606 1563.2587,-314.6588"/>
</g>
<!-- Node54&#45;&gt;Node55 -->
<g id="edge136" class="edge">
<title>Node54&#45;&gt;Node55</title>
<path fill="none" stroke="#191970" d="M1593.1501,-705.4611C1648.2571,-696.3516 1733.3246,-682.1083 1807,-669 1814.3255,-667.6967 1822.0089,-666.3008 1829.6205,-664.9004"/>
<polygon fill="#191970" stroke="#191970" points="1830.3524,-668.3245 1839.5491,-663.0641 1829.0793,-661.4412 1830.3524,-668.3245"/>
</g>
<!-- Node56&#45;&gt;Node50 -->
<g id="edge139" class="edge">
<title>Node56&#45;&gt;Node50</title>
<path fill="none" stroke="#191970" d="M1742.1825,-724.5303C1721.7402,-733.3896 1688.4769,-746.8353 1660.0132,-757.8306"/>
<polygon fill="#191970" stroke="#191970" points="1658.6514,-754.6043 1650.5697,-761.4554 1661.1598,-761.1394 1658.6514,-754.6043"/>
</g>
<!-- Node57 -->
<g id="node57" class="node">
<title>Node57</title>
<g id="a_node57"><a xlink:href="../../d6/d0b/Def_2CRTP_8hpp.html" target="_top" xlink:title=" ">
<polygon fill="#ffffff" stroke="#000000" points="1716,-644 1716,-663 1798,-663 1798,-644 1716,-644"/>
<text text-anchor="middle" x="1757" y="-651" font-family="Helvetica,sans-Serif" font-size="10.00" fill="#000000">Def/CRTP.hpp</text>
</a>
</g>
</g>
<!-- Node56&#45;&gt;Node57 -->
<g id="edge140" class="edge">
<title>Node56&#45;&gt;Node57</title>
<path fill="none" stroke="#191970" d="M1760.375,-705.3906C1759.8205,-696.8657 1758.9928,-684.1392 1758.2958,-673.4235"/>
<polygon fill="#191970" stroke="#191970" points="1761.7756,-672.9966 1757.6338,-663.2449 1754.7903,-673.451 1761.7756,-672.9966"/>
</g>
</g>
</svg>
