<?xml version="1.0" encoding="UTF-8" standalone="no"?>
<!DOCTYPE svg PUBLIC "-//W3C//DTD SVG 1.1//EN"
 "http://www.w3.org/Graphics/SVG/1.1/DTD/svg11.dtd">
<!-- Generated by graphviz version 2.38.0 (20140413.2041)
 -->
<!-- Title: TrueMIDI_Source Pages: 1 -->
<svg width="126pt" height="320pt"
 viewBox="0.00 0.00 126.00 320.00" xmlns="http://www.w3.org/2000/svg" xmlns:xlink="http://www.w3.org/1999/xlink">
<g id="graph0" class="graph" transform="scale(1 1) rotate(0) translate(4 316)">
<title>TrueMIDI_Source</title>
<polygon fill="white" stroke="none" points="-4,4 -4,-316 122,-316 122,4 -4,4"/>
<!-- Node1 -->
<g id="node1" class="node"><title>Node1</title>
<g id="a_node1"><a xlink:title=" ">
<polygon fill="#bfbfbf" stroke="black" points="12,-94.5 12,-151.5 106,-151.5 106,-94.5 12,-94.5"/>
<text text-anchor="middle" x="59" y="-139.5" font-family="Helvetica,sans-Serif" font-size="10.00">TrueMIDI_Source</text>
<polyline fill="none" stroke="black" points="12,-132.5 106,-132.5 "/>
<text text-anchor="middle" x="59" y="-120.5" font-family="Helvetica,sans-Serif" font-size="10.00"> </text>
<polyline fill="none" stroke="black" points="12,-113.5 106,-113.5 "/>
<text text-anchor="middle" x="59" y="-101.5" font-family="Helvetica,sans-Serif" font-size="10.00"> </text>
</a>
</g>
</g>
<!-- Node3 -->
<g id="node3" class="node"><title>Node3</title>
<g id="a_node3"><a xlink:href="../../d0/dc3/structTrueMIDI__SinkSource.html" target="_top" xlink:title=" ">
<polygon fill="white" stroke="black" points="2.5,-0.5 2.5,-57.5 115.5,-57.5 115.5,-0.5 2.5,-0.5"/>
<text text-anchor="middle" x="59" y="-45.5" font-family="Helvetica,sans-Serif" font-size="10.00">TrueMIDI_SinkSource</text>
<polyline fill="none" stroke="black" points="2.5,-38.5 115.5,-38.5 "/>
<text text-anchor="middle" x="59" y="-26.5" font-family="Helvetica,sans-Serif" font-size="10.00"> </text>
<polyline fill="none" stroke="black" points="2.5,-19.5 115.5,-19.5 "/>
<text text-anchor="middle" x="59" y="-7.5" font-family="Helvetica,sans-Serif" font-size="10.00"> </text>
</a>
</g>
</g>
<!-- Node1&#45;&gt;Node3 -->
<g id="edge2" class="edge"><title>Node1&#45;&gt;Node3</title>
<path fill="none" stroke="midnightblue" d="M59,-84.2092C59,-75.2929 59,-65.9513 59,-57.5836"/>
<polygon fill="none" stroke="midnightblue" points="55.5001,-84.3969 59,-94.397 62.5001,-84.397 55.5001,-84.3969"/>
</g>
<!-- Node2 -->
<g id="node2" class="node"><title>Node2</title>
<g id="a_node2"><a xlink:href="../../df/d5b/classMIDI__Source.html" target="_top" xlink:title=" ">
<polygon fill="white" stroke="black" points="0,-188.5 0,-311.5 118,-311.5 118,-188.5 0,-188.5"/>
<text text-anchor="middle" x="59" y="-299.5" font-family="Helvetica,sans-Serif" font-size="10.00">MIDI_Source</text>
<polyline fill="none" stroke="black" points="0,-292.5 118,-292.5 "/>
<text text-anchor="start" x="8" y="-280.5" font-family="Helvetica,sans-Serif" font-size="10.00"># sinkPipe</text>
<polyline fill="none" stroke="black" points="0,-273.5 118,-273.5 "/>
<text text-anchor="start" x="8" y="-261.5" font-family="Helvetica,sans-Serif" font-size="10.00">+ sourceMIDItoPipe()</text>
<text text-anchor="start" x="8" y="-250.5" font-family="Helvetica,sans-Serif" font-size="10.00">+ sourceMIDItoPipe()</text>
<text text-anchor="start" x="8" y="-239.5" font-family="Helvetica,sans-Serif" font-size="10.00">+ sourceMIDItoPipe()</text>
<text text-anchor="start" x="8" y="-228.5" font-family="Helvetica,sans-Serif" font-size="10.00">+ ~MIDI_Source()</text>
<text text-anchor="start" x="8" y="-217.5" font-family="Helvetica,sans-Serif" font-size="10.00">+ connectSinkPipe()</text>
<text text-anchor="start" x="8" y="-206.5" font-family="Helvetica,sans-Serif" font-size="10.00">+ disconnectSinkPipe()</text>
<text text-anchor="start" x="8" y="-195.5" font-family="Helvetica,sans-Serif" font-size="10.00">+ hasSinkPipe()</text>
</a>
</g>
</g>
<!-- Node2&#45;&gt;Node1 -->
<g id="edge1" class="edge"><title>Node2&#45;&gt;Node1</title>
<path fill="none" stroke="midnightblue" d="M59,-178.138C59,-168.8 59,-159.715 59,-151.738"/>
<polygon fill="none" stroke="midnightblue" points="55.5001,-178.331 59,-188.331 62.5001,-178.331 55.5001,-178.331"/>
</g>
</g>
</svg>
