<?xml version="1.0" encoding="UTF-8" standalone="no"?>
<!DOCTYPE svg PUBLIC "-//W3C//DTD SVG 1.1//EN"
 "http://www.w3.org/Graphics/SVG/1.1/DTD/svg11.dtd">
<!-- Generated by graphviz version 2.43.0 (0)
 -->
<!-- Title: Transposer&lt; MinTransposition, MaxTransposition &gt; Pages: 1 -->
<svg width="296pt" height="430pt"
 viewBox="0.00 0.00 295.50 430.00" xmlns="http://www.w3.org/2000/svg" xmlns:xlink="http://www.w3.org/1999/xlink">
<g id="graph0" class="graph" transform="scale(1 1) rotate(0) translate(4 426)">
<title>Transposer&lt; MinTransposition, MaxTransposition &gt;</title>
<polygon fill="white" stroke="transparent" points="-4,4 -4,-426 291.5,-426 291.5,4 -4,4"/>
<!-- Node1 -->
<g id="node1" class="node">
<title>Node1</title>
<g id="a_node1"><a xlink:title="Class for transposing the address of NoteButton and other MIDI elements.">
<polygon fill="#bfbfbf" stroke="black" points="64.5,-0.5 64.5,-90.5 230.5,-90.5 230.5,-0.5 64.5,-0.5"/>
<text text-anchor="start" x="72.5" y="-78.5" font-family="Helvetica,sans-Serif" font-size="10.00">Transposer&lt; MinTransposition,</text>
<text text-anchor="middle" x="147.5" y="-67.5" font-family="Helvetica,sans-Serif" font-size="10.00"> MaxTransposition &gt;</text>
<polyline fill="none" stroke="black" points="64.5,-60.5 230.5,-60.5 "/>
<text text-anchor="start" x="72.5" y="-48.5" font-family="Helvetica,sans-Serif" font-size="10.00">+ N</text>
<text text-anchor="start" x="72.5" y="-37.5" font-family="Helvetica,sans-Serif" font-size="10.00">+ NumBanks</text>
<polyline fill="none" stroke="black" points="64.5,-30.5 230.5,-30.5 "/>
<text text-anchor="start" x="72.5" y="-18.5" font-family="Helvetica,sans-Serif" font-size="10.00">+ Transposer()</text>
<text text-anchor="start" x="72.5" y="-7.5" font-family="Helvetica,sans-Serif" font-size="10.00">+ setTransposition()</text>
</a>
</g>
</g>
<!-- Node2 -->
<g id="node2" class="node">
<title>Node2</title>
<g id="a_node2"><a xlink:href="../../db/dbd/classBank.html" target="_top" xlink:title=" ">
<polygon fill="white" stroke="black" points="78.5,-127.5 78.5,-239.5 216.5,-239.5 216.5,-127.5 78.5,-127.5"/>
<text text-anchor="start" x="86.5" y="-227.5" font-family="Helvetica,sans-Serif" font-size="10.00">Bank&lt; MaxTransposition</text>
<text text-anchor="middle" x="147.5" y="-216.5" font-family="Helvetica,sans-Serif" font-size="10.00"> &#45; MinTransposition+1 &gt;</text>
<polyline fill="none" stroke="black" points="78.5,-209.5 216.5,-209.5 "/>
<text text-anchor="start" x="86.5" y="-197.5" font-family="Helvetica,sans-Serif" font-size="10.00">&#45; inputBankables</text>
<polyline fill="none" stroke="black" points="78.5,-190.5 216.5,-190.5 "/>
<text text-anchor="start" x="86.5" y="-178.5" font-family="Helvetica,sans-Serif" font-size="10.00">+ Bank()</text>
<text text-anchor="start" x="86.5" y="-167.5" font-family="Helvetica,sans-Serif" font-size="10.00">+ select()</text>
<text text-anchor="start" x="86.5" y="-156.5" font-family="Helvetica,sans-Serif" font-size="10.00">+ add()</text>
<text text-anchor="start" x="86.5" y="-145.5" font-family="Helvetica,sans-Serif" font-size="10.00">+ remove()</text>
<text text-anchor="start" x="86.5" y="-134.5" font-family="Helvetica,sans-Serif" font-size="10.00">+ getNumberOfBanks()</text>
</a>
</g>
</g>
<!-- Node2&#45;&gt;Node1 -->
<g id="edge1" class="edge">
<title>Node2&#45;&gt;Node1</title>
<path fill="none" stroke="midnightblue" d="M147.5,-117.08C147.5,-108.07 147.5,-99.01 147.5,-90.51"/>
<polygon fill="none" stroke="midnightblue" points="144,-117.18 147.5,-127.18 151,-117.18 144,-117.18"/>
</g>
<!-- Node3 -->
<g id="node3" class="node">
<title>Node3</title>
<g id="a_node3"><a xlink:href="../../de/de7/classSelectable.html" target="_top" xlink:title=" ">
<polygon fill="white" stroke="black" points="0,-298.5 0,-399.5 143,-399.5 143,-298.5 0,-298.5"/>
<text text-anchor="middle" x="71.5" y="-387.5" font-family="Helvetica,sans-Serif" font-size="10.00">Selectable&lt; NumBanks &gt;</text>
<polyline fill="none" stroke="black" points="0,-380.5 143,-380.5 "/>
<text text-anchor="start" x="8" y="-368.5" font-family="Helvetica,sans-Serif" font-size="10.00">&#45; initialSelection</text>
<polyline fill="none" stroke="black" points="0,-361.5 143,-361.5 "/>
<text text-anchor="start" x="8" y="-349.5" font-family="Helvetica,sans-Serif" font-size="10.00">+ select()</text>
<text text-anchor="start" x="8" y="-338.5" font-family="Helvetica,sans-Serif" font-size="10.00">+ getInitialSelection()</text>
<text text-anchor="start" x="8" y="-327.5" font-family="Helvetica,sans-Serif" font-size="10.00">+ setInitialSelection()</text>
<text text-anchor="start" x="8" y="-316.5" font-family="Helvetica,sans-Serif" font-size="10.00">+ validateSetting()</text>
<text text-anchor="start" x="8" y="-305.5" font-family="Helvetica,sans-Serif" font-size="10.00"># Selectable()</text>
</a>
</g>
</g>
<!-- Node3&#45;&gt;Node2 -->
<g id="edge2" class="edge">
<title>Node3&#45;&gt;Node2</title>
<path fill="none" stroke="midnightblue" d="M99.04,-288.76C106.5,-272.7 114.56,-255.37 121.91,-239.55"/>
<polygon fill="none" stroke="midnightblue" points="95.76,-287.51 94.72,-298.06 102.1,-290.46 95.76,-287.51"/>
</g>
<!-- Node4 -->
<g id="node4" class="node">
<title>Node4</title>
<g id="a_node4"><a xlink:href="../../d9/d36/classOutputBank.html" target="_top" xlink:title="A class for changing the address of BankableMIDIOutputs.">
<polygon fill="white" stroke="black" points="161.5,-276.5 161.5,-421.5 287.5,-421.5 287.5,-276.5 161.5,-276.5"/>
<text text-anchor="middle" x="224.5" y="-409.5" font-family="Helvetica,sans-Serif" font-size="10.00">OutputBank</text>
<polyline fill="none" stroke="black" points="161.5,-402.5 287.5,-402.5 "/>
<text text-anchor="start" x="169.5" y="-390.5" font-family="Helvetica,sans-Serif" font-size="10.00">&#45; tracksPerBank</text>
<text text-anchor="start" x="169.5" y="-379.5" font-family="Helvetica,sans-Serif" font-size="10.00">&#45; bankSetting</text>
<text text-anchor="start" x="169.5" y="-368.5" font-family="Helvetica,sans-Serif" font-size="10.00">&#45; selectionOffset</text>
<polyline fill="none" stroke="black" points="161.5,-361.5 287.5,-361.5 "/>
<text text-anchor="start" x="169.5" y="-349.5" font-family="Helvetica,sans-Serif" font-size="10.00">+ OutputBank()</text>
<text text-anchor="start" x="169.5" y="-338.5" font-family="Helvetica,sans-Serif" font-size="10.00">+ select()</text>
<text text-anchor="start" x="169.5" y="-327.5" font-family="Helvetica,sans-Serif" font-size="10.00">+ getSelection()</text>
<text text-anchor="start" x="169.5" y="-316.5" font-family="Helvetica,sans-Serif" font-size="10.00">+ getSelectionOffset()</text>
<text text-anchor="start" x="169.5" y="-305.5" font-family="Helvetica,sans-Serif" font-size="10.00">+ getTracksPerBank()</text>
<text text-anchor="start" x="169.5" y="-294.5" font-family="Helvetica,sans-Serif" font-size="10.00">+ getOffsetOfSetting()</text>
<text text-anchor="start" x="169.5" y="-283.5" font-family="Helvetica,sans-Serif" font-size="10.00">+ getOffset()</text>
</a>
</g>
</g>
<!-- Node4&#45;&gt;Node2 -->
<g id="edge3" class="edge">
<title>Node4&#45;&gt;Node2</title>
<path fill="none" stroke="midnightblue" d="M186.4,-267.11C182.07,-257.91 177.73,-248.7 173.61,-239.93"/>
<polygon fill="none" stroke="midnightblue" points="183.3,-268.73 190.73,-276.29 189.63,-265.75 183.3,-268.73"/>
</g>
</g>
</svg>
