<?xml version="1.0" encoding="UTF-8" standalone="no"?>
<!DOCTYPE svg PUBLIC "-//W3C//DTD SVG 1.1//EN"
 "http://www.w3.org/Graphics/SVG/1.1/DTD/svg11.dtd">
<!-- Generated by graphviz version 2.43.0 (0)
 -->
<!-- Title: VULEDs&lt; NumLEDs &gt; Pages: 1 -->
<svg width="508pt" height="1141pt"
 viewBox="0.00 0.00 508.00 1141.00" xmlns="http://www.w3.org/2000/svg" xmlns:xlink="http://www.w3.org/1999/xlink">
<g id="graph0" class="graph" transform="scale(1 1) rotate(0) translate(4 1137)">
<title>VULEDs&lt; NumLEDs &gt;</title>
<polygon fill="white" stroke="transparent" points="-4,4 -4,-1137 504,-1137 504,4 -4,4"/>
<!-- Node1 -->
<g id="node1" class="node">
<title>Node1</title>
<g id="a_node1"><a xlink:title="A MIDI input element that represents a Mackie Control Universal VU meter and displays its value using...">
<polygon fill="#bfbfbf" stroke="black" points="281,-0.5 281,-123.5 406,-123.5 406,-0.5 281,-0.5"/>
<text text-anchor="middle" x="343.5" y="-111.5" font-family="Helvetica,sans-Serif" font-size="10.00">VULEDs&lt; NumLEDs &gt;</text>
<polyline fill="none" stroke="black" points="281,-104.5 406,-104.5 "/>
<text text-anchor="middle" x="343.5" y="-92.5" font-family="Helvetica,sans-Serif" font-size="10.00"> </text>
<polyline fill="none" stroke="black" points="281,-85.5 406,-85.5 "/>
<text text-anchor="start" x="289" y="-73.5" font-family="Helvetica,sans-Serif" font-size="10.00">+ VULEDs()</text>
<text text-anchor="start" x="289" y="-62.5" font-family="Helvetica,sans-Serif" font-size="10.00">+ VULEDs()</text>
<text text-anchor="start" x="289" y="-51.5" font-family="Helvetica,sans-Serif" font-size="10.00">+ begin()</text>
<text text-anchor="start" x="289" y="-40.5" font-family="Helvetica,sans-Serif" font-size="10.00">+ reset()</text>
<text text-anchor="start" x="289" y="-29.5" font-family="Helvetica,sans-Serif" font-size="10.00">+ update()</text>
<text text-anchor="start" x="289" y="-18.5" font-family="Helvetica,sans-Serif" font-size="10.00"># handleUpdate()</text>
<text text-anchor="start" x="289" y="-7.5" font-family="Helvetica,sans-Serif" font-size="10.00"># updateDisplay()</text>
</a>
</g>
</g>
<!-- Node2 -->
<g id="node2" class="node">
<title>Node2</title>
<g id="a_node2"><a xlink:href="../../d8/d4c/classMCU_1_1VU.html" target="_top" xlink:title="A MIDI input element that represents a Mackie Control Universal VU meter.">
<polygon fill="white" stroke="black" points="202,-160.5 202,-316.5 327,-316.5 327,-160.5 202,-160.5"/>
<text text-anchor="middle" x="264.5" y="-304.5" font-family="Helvetica,sans-Serif" font-size="10.00">VU</text>
<polyline fill="none" stroke="black" points="202,-297.5 327,-297.5 "/>
<text text-anchor="start" x="210" y="-285.5" font-family="Helvetica,sans-Serif" font-size="10.00">&#45; state</text>
<text text-anchor="start" x="210" y="-274.5" font-family="Helvetica,sans-Serif" font-size="10.00">&#45; decayTimer</text>
<polyline fill="none" stroke="black" points="202,-267.5 327,-267.5 "/>
<text text-anchor="start" x="210" y="-255.5" font-family="Helvetica,sans-Serif" font-size="10.00">+ VU()</text>
<text text-anchor="start" x="210" y="-244.5" font-family="Helvetica,sans-Serif" font-size="10.00">+ VU()</text>
<text text-anchor="start" x="210" y="-233.5" font-family="Helvetica,sans-Serif" font-size="10.00">+ reset()</text>
<text text-anchor="start" x="210" y="-222.5" font-family="Helvetica,sans-Serif" font-size="10.00">+ update()</text>
<text text-anchor="start" x="210" y="-211.5" font-family="Helvetica,sans-Serif" font-size="10.00"># handleUpdateImpl()</text>
<text text-anchor="start" x="210" y="-200.5" font-family="Helvetica,sans-Serif" font-size="10.00"># handleUpdate()</text>
<text text-anchor="start" x="210" y="-189.5" font-family="Helvetica,sans-Serif" font-size="10.00"># decay()</text>
<text text-anchor="start" x="210" y="-178.5" font-family="Helvetica,sans-Serif" font-size="10.00">* getValue()</text>
<text text-anchor="start" x="210" y="-167.5" font-family="Helvetica,sans-Serif" font-size="10.00">* getOverload()</text>
</a>
</g>
</g>
<!-- Node2&#45;&gt;Node1 -->
<g id="edge1" class="edge">
<title>Node2&#45;&gt;Node1</title>
<path fill="none" stroke="midnightblue" d="M303.58,-151.17C307.79,-141.87 312.01,-132.56 316.04,-123.65"/>
<polygon fill="none" stroke="midnightblue" points="300.32,-149.9 299.38,-160.45 306.69,-152.79 300.32,-149.9"/>
</g>
<!-- Node3 -->
<g id="node3" class="node">
<title>Node3</title>
<g id="a_node3"><a xlink:href="../../d5/dae/classMatchingMIDIInputElement.html" target="_top" xlink:title=" ">
<polygon fill="white" stroke="black" points="0,-375.5 0,-476.5 207,-476.5 207,-375.5 0,-375.5"/>
<text text-anchor="start" x="8" y="-464.5" font-family="Helvetica,sans-Serif" font-size="10.00">MatchingMIDIInputElement</text>
<text text-anchor="start" x="8" y="-453.5" font-family="Helvetica,sans-Serif" font-size="10.00">&lt; MIDIMessageType::ChannelPressure,</text>
<text text-anchor="middle" x="103.5" y="-442.5" font-family="Helvetica,sans-Serif" font-size="10.00"> VUMatcher &gt;</text>
<polyline fill="none" stroke="black" points="0,-435.5 207,-435.5 "/>
<text text-anchor="start" x="8" y="-423.5" font-family="Helvetica,sans-Serif" font-size="10.00"># matcher</text>
<polyline fill="none" stroke="black" points="0,-416.5 207,-416.5 "/>
<text text-anchor="start" x="8" y="-404.5" font-family="Helvetica,sans-Serif" font-size="10.00">+ updateWith()</text>
<text text-anchor="start" x="8" y="-393.5" font-family="Helvetica,sans-Serif" font-size="10.00">+ handleUpdate()</text>
<text text-anchor="start" x="8" y="-382.5" font-family="Helvetica,sans-Serif" font-size="10.00"># MatchingMIDIInputElement()</text>
</a>
</g>
</g>
<!-- Node3&#45;&gt;Node2 -->
<g id="edge2" class="edge">
<title>Node3&#45;&gt;Node2</title>
<path fill="none" stroke="midnightblue" d="M153.54,-367.35C168.83,-349.73 185.84,-330.13 201.86,-311.67"/>
<polygon fill="none" stroke="midnightblue" points="150.56,-365.44 146.65,-375.29 155.84,-370.03 150.56,-365.44"/>
</g>
<!-- Node4 -->
<g id="node4" class="node">
<title>Node4</title>
<g id="a_node4"><a xlink:href="../../d9/db1/classMIDIInputElement.html" target="_top" xlink:title="A class for objects that listen for incoming MIDI events.">
<polygon fill="white" stroke="black" points="29,-535.5 29,-691.5 178,-691.5 178,-535.5 29,-535.5"/>
<text text-anchor="middle" x="103.5" y="-679.5" font-family="Helvetica,sans-Serif" font-size="10.00">MIDIInputElement&lt; Type &gt;</text>
<polyline fill="none" stroke="black" points="29,-672.5 178,-672.5 "/>
<text text-anchor="middle" x="103.5" y="-660.5" font-family="Helvetica,sans-Serif" font-size="10.00"> </text>
<polyline fill="none" stroke="black" points="29,-653.5 178,-653.5 "/>
<text text-anchor="start" x="37" y="-641.5" font-family="Helvetica,sans-Serif" font-size="10.00">+ ~MIDIInputElement()</text>
<text text-anchor="start" x="37" y="-630.5" font-family="Helvetica,sans-Serif" font-size="10.00">+ begin()</text>
<text text-anchor="start" x="37" y="-619.5" font-family="Helvetica,sans-Serif" font-size="10.00">+ reset()</text>
<text text-anchor="start" x="37" y="-608.5" font-family="Helvetica,sans-Serif" font-size="10.00">+ update()</text>
<text text-anchor="start" x="37" y="-597.5" font-family="Helvetica,sans-Serif" font-size="10.00">+ updateWith()</text>
<text text-anchor="start" x="37" y="-586.5" font-family="Helvetica,sans-Serif" font-size="10.00">+ updateAllWith()</text>
<text text-anchor="start" x="37" y="-575.5" font-family="Helvetica,sans-Serif" font-size="10.00">+ updateAll()</text>
<text text-anchor="start" x="37" y="-564.5" font-family="Helvetica,sans-Serif" font-size="10.00">+ beginAll()</text>
<text text-anchor="start" x="37" y="-553.5" font-family="Helvetica,sans-Serif" font-size="10.00">+ resetAll()</text>
<text text-anchor="start" x="37" y="-542.5" font-family="Helvetica,sans-Serif" font-size="10.00"># MIDIInputElement()</text>
</a>
</g>
</g>
<!-- Node4&#45;&gt;Node3 -->
<g id="edge3" class="edge">
<title>Node4&#45;&gt;Node3</title>
<path fill="none" stroke="midnightblue" d="M103.5,-525.11C103.5,-508.43 103.5,-491.52 103.5,-476.55"/>
<polygon fill="none" stroke="midnightblue" points="100,-525.44 103.5,-535.44 107,-525.44 100,-525.44"/>
</g>
<!-- Node5 -->
<g id="node5" class="node">
<title>Node5</title>
<g id="a_node5"><a xlink:href="../../d8/d1a/classAH_1_1UpdatableCRTP.html" target="_top" xlink:title=" ">
<polygon fill="white" stroke="black" points="28.5,-728.5 28.5,-961.5 178.5,-961.5 178.5,-728.5 28.5,-728.5"/>
<text text-anchor="start" x="36.5" y="-949.5" font-family="Helvetica,sans-Serif" font-size="10.00">UpdatableCRTP&lt; MIDIInput</text>
<text text-anchor="middle" x="103.5" y="-938.5" font-family="Helvetica,sans-Serif" font-size="10.00">Element&lt; Type &gt; &gt;</text>
<polyline fill="none" stroke="black" points="28.5,-931.5 178.5,-931.5 "/>
<text text-anchor="start" x="36.5" y="-919.5" font-family="Helvetica,sans-Serif" font-size="10.00"># updatables</text>
<polyline fill="none" stroke="black" points="28.5,-912.5 178.5,-912.5 "/>
<text text-anchor="start" x="36.5" y="-900.5" font-family="Helvetica,sans-Serif" font-size="10.00">+ ~UpdatableCRTP()</text>
<text text-anchor="start" x="36.5" y="-889.5" font-family="Helvetica,sans-Serif" font-size="10.00"># UpdatableCRTP()</text>
<text text-anchor="start" x="36.5" y="-878.5" font-family="Helvetica,sans-Serif" font-size="10.00"># UpdatableCRTP()</text>
<text text-anchor="start" x="36.5" y="-867.5" font-family="Helvetica,sans-Serif" font-size="10.00"># UpdatableCRTP()</text>
<text text-anchor="start" x="36.5" y="-856.5" font-family="Helvetica,sans-Serif" font-size="10.00"># operator=()</text>
<text text-anchor="start" x="36.5" y="-845.5" font-family="Helvetica,sans-Serif" font-size="10.00"># operator=()</text>
<text text-anchor="start" x="36.5" y="-834.5" font-family="Helvetica,sans-Serif" font-size="10.00">* enable()</text>
<text text-anchor="start" x="36.5" y="-823.5" font-family="Helvetica,sans-Serif" font-size="10.00">* disable()</text>
<text text-anchor="start" x="36.5" y="-812.5" font-family="Helvetica,sans-Serif" font-size="10.00">* isEnabled()</text>
<text text-anchor="start" x="36.5" y="-801.5" font-family="Helvetica,sans-Serif" font-size="10.00">* moveDown()</text>
<text text-anchor="start" x="36.5" y="-790.5" font-family="Helvetica,sans-Serif" font-size="10.00">* enable()</text>
<text text-anchor="start" x="36.5" y="-779.5" font-family="Helvetica,sans-Serif" font-size="10.00">* enable()</text>
<text text-anchor="start" x="36.5" y="-768.5" font-family="Helvetica,sans-Serif" font-size="10.00">* enable()</text>
<text text-anchor="start" x="36.5" y="-757.5" font-family="Helvetica,sans-Serif" font-size="10.00">* disable()</text>
<text text-anchor="start" x="36.5" y="-746.5" font-family="Helvetica,sans-Serif" font-size="10.00">* disable()</text>
<text text-anchor="start" x="36.5" y="-735.5" font-family="Helvetica,sans-Serif" font-size="10.00">* disable()</text>
</a>
</g>
</g>
<!-- Node5&#45;&gt;Node4 -->
<g id="edge4" class="edge">
<title>Node5&#45;&gt;Node4</title>
<path fill="none" stroke="midnightblue" d="M103.5,-718.11C103.5,-709.17 103.5,-700.31 103.5,-691.77"/>
<polygon fill="none" stroke="midnightblue" points="100,-718.24 103.5,-728.24 107,-718.24 100,-718.24"/>
</g>
<!-- Node6 -->
<g id="node6" class="node">
<title>Node6</title>
<g id="a_node6"><a xlink:href="../../d4/d23/classDoublyLinkable.html" target="_top" xlink:title=" ">
<polygon fill="white" stroke="black" points="28.5,-998.5 28.5,-1132.5 178.5,-1132.5 178.5,-998.5 28.5,-998.5"/>
<text text-anchor="start" x="36.5" y="-1120.5" font-family="Helvetica,sans-Serif" font-size="10.00">DoublyLinkable&lt; MIDIInput</text>
<text text-anchor="middle" x="103.5" y="-1109.5" font-family="Helvetica,sans-Serif" font-size="10.00">Element&lt; Type &gt; &gt;</text>
<polyline fill="none" stroke="black" points="28.5,-1102.5 178.5,-1102.5 "/>
<text text-anchor="start" x="36.5" y="-1090.5" font-family="Helvetica,sans-Serif" font-size="10.00"># next</text>
<text text-anchor="start" x="36.5" y="-1079.5" font-family="Helvetica,sans-Serif" font-size="10.00"># previous</text>
<polyline fill="none" stroke="black" points="28.5,-1072.5 178.5,-1072.5 "/>
<text text-anchor="start" x="36.5" y="-1060.5" font-family="Helvetica,sans-Serif" font-size="10.00"># ~DoublyLinkable()</text>
<text text-anchor="start" x="36.5" y="-1049.5" font-family="Helvetica,sans-Serif" font-size="10.00"># DoublyLinkable()</text>
<text text-anchor="start" x="36.5" y="-1038.5" font-family="Helvetica,sans-Serif" font-size="10.00"># DoublyLinkable()</text>
<text text-anchor="start" x="36.5" y="-1027.5" font-family="Helvetica,sans-Serif" font-size="10.00"># DoublyLinkable()</text>
<text text-anchor="start" x="36.5" y="-1016.5" font-family="Helvetica,sans-Serif" font-size="10.00"># operator=()</text>
<text text-anchor="start" x="36.5" y="-1005.5" font-family="Helvetica,sans-Serif" font-size="10.00"># operator=()</text>
</a>
</g>
</g>
<!-- Node6&#45;&gt;Node5 -->
<g id="edge5" class="edge">
<title>Node6&#45;&gt;Node5</title>
<path fill="none" stroke="midnightblue" d="M103.5,-988.32C103.5,-979.65 103.5,-970.67 103.5,-961.63"/>
<polygon fill="none" stroke="midnightblue" points="100,-988.35 103.5,-998.35 107,-988.35 100,-988.35"/>
</g>
<!-- Node7 -->
<g id="node7" class="node">
<title>Node7</title>
<g id="a_node7"><a xlink:href="../../dc/d25/classInterfaces_1_1MCU_1_1IVU.html" target="_top" xlink:title="An abstract interface for VU meters.">
<polygon fill="white" stroke="black" points="225,-353.5 225,-498.5 328,-498.5 328,-353.5 225,-353.5"/>
<text text-anchor="middle" x="276.5" y="-486.5" font-family="Helvetica,sans-Serif" font-size="10.00">IVU</text>
<polyline fill="none" stroke="black" points="225,-479.5 328,-479.5 "/>
<text text-anchor="start" x="233" y="-467.5" font-family="Helvetica,sans-Serif" font-size="10.00"># max</text>
<text text-anchor="start" x="233" y="-456.5" font-family="Helvetica,sans-Serif" font-size="10.00"># alwaysDirty</text>
<text text-anchor="start" x="233" y="-445.5" font-family="Helvetica,sans-Serif" font-size="10.00"># dirty</text>
<polyline fill="none" stroke="black" points="225,-438.5 328,-438.5 "/>
<text text-anchor="start" x="233" y="-426.5" font-family="Helvetica,sans-Serif" font-size="10.00">+ IVU()</text>
<text text-anchor="start" x="233" y="-415.5" font-family="Helvetica,sans-Serif" font-size="10.00">+ getValue()</text>
<text text-anchor="start" x="233" y="-404.5" font-family="Helvetica,sans-Serif" font-size="10.00">+ getOverload()</text>
<text text-anchor="start" x="233" y="-393.5" font-family="Helvetica,sans-Serif" font-size="10.00">+ getFloatValue()</text>
<text text-anchor="start" x="233" y="-382.5" font-family="Helvetica,sans-Serif" font-size="10.00">+ getMax()</text>
<text text-anchor="start" x="233" y="-371.5" font-family="Helvetica,sans-Serif" font-size="10.00">* getDirty()</text>
<text text-anchor="start" x="233" y="-360.5" font-family="Helvetica,sans-Serif" font-size="10.00">* clearDirty()</text>
</a>
</g>
</g>
<!-- Node7&#45;&gt;Node2 -->
<g id="edge6" class="edge">
<title>Node7&#45;&gt;Node2</title>
<path fill="none" stroke="midnightblue" d="M271.2,-343.03C270.63,-334.23 270.05,-325.3 269.49,-316.56"/>
<polygon fill="none" stroke="midnightblue" points="267.72,-343.53 271.86,-353.28 274.71,-343.08 267.72,-343.53"/>
</g>
<!-- Node8 -->
<g id="node8" class="node">
<title>Node8</title>
<g id="a_node8"><a xlink:href="../../d1/d29/classMCU_1_1VULEDsDriver.html" target="_top" xlink:title="Small helper to display the VU meters on an LED bar display.">
<polygon fill="white" stroke="black" points="345,-204.5 345,-272.5 500,-272.5 500,-204.5 345,-204.5"/>
<text text-anchor="middle" x="422.5" y="-260.5" font-family="Helvetica,sans-Serif" font-size="10.00">VULEDsDriver&lt; NumLEDs &gt;</text>
<polyline fill="none" stroke="black" points="345,-253.5 500,-253.5 "/>
<text text-anchor="start" x="353" y="-241.5" font-family="Helvetica,sans-Serif" font-size="10.00">&#45; FLOOR_CORRECTION</text>
<polyline fill="none" stroke="black" points="345,-234.5 500,-234.5 "/>
<text text-anchor="start" x="353" y="-222.5" font-family="Helvetica,sans-Serif" font-size="10.00">+ VULEDsDriver()</text>
<text text-anchor="start" x="353" y="-211.5" font-family="Helvetica,sans-Serif" font-size="10.00">+ displayVU()</text>
</a>
</g>
</g>
<!-- Node8&#45;&gt;Node1 -->
<g id="edge7" class="edge">
<title>Node8&#45;&gt;Node1</title>
<path fill="none" stroke="midnightblue" d="M403.3,-195.09C393.59,-173.64 381.63,-147.22 370.96,-123.66"/>
<polygon fill="none" stroke="midnightblue" points="400.14,-196.6 407.45,-204.27 406.52,-193.71 400.14,-196.6"/>
</g>
<!-- Node9 -->
<g id="node9" class="node">
<title>Node9</title>
<g id="a_node9"><a xlink:href="../../d9/d89/classAH_1_1DotBarDisplayLEDs.html" target="_top" xlink:title=" ">
<polygon fill="white" stroke="black" points="357.5,-353.5 357.5,-498.5 487.5,-498.5 487.5,-353.5 357.5,-353.5"/>
<text text-anchor="start" x="365.5" y="-486.5" font-family="Helvetica,sans-Serif" font-size="10.00">DotBarDisplayLEDs&lt;</text>
<text text-anchor="middle" x="422.5" y="-475.5" font-family="Helvetica,sans-Serif" font-size="10.00"> NumLEDs &gt;</text>
<polyline fill="none" stroke="black" points="357.5,-468.5 487.5,-468.5 "/>
<text text-anchor="start" x="365.5" y="-456.5" font-family="Helvetica,sans-Serif" font-size="10.00">&#45; mode</text>
<polyline fill="none" stroke="black" points="357.5,-449.5 487.5,-449.5 "/>
<text text-anchor="start" x="365.5" y="-437.5" font-family="Helvetica,sans-Serif" font-size="10.00">+ DotBarDisplayLEDs()</text>
<text text-anchor="start" x="365.5" y="-426.5" font-family="Helvetica,sans-Serif" font-size="10.00">+ display()</text>
<text text-anchor="start" x="365.5" y="-415.5" font-family="Helvetica,sans-Serif" font-size="10.00">+ display()</text>
<text text-anchor="start" x="365.5" y="-404.5" font-family="Helvetica,sans-Serif" font-size="10.00">+ getMode()</text>
<text text-anchor="start" x="365.5" y="-393.5" font-family="Helvetica,sans-Serif" font-size="10.00">+ setMode()</text>
<text text-anchor="start" x="365.5" y="-382.5" font-family="Helvetica,sans-Serif" font-size="10.00">+ dotMode()</text>
<text text-anchor="start" x="365.5" y="-371.5" font-family="Helvetica,sans-Serif" font-size="10.00">+ barMode()</text>
<text text-anchor="start" x="365.5" y="-360.5" font-family="Helvetica,sans-Serif" font-size="10.00">+ toggleMode()</text>
</a>
</g>
</g>
<!-- Node9&#45;&gt;Node8 -->
<g id="edge8" class="edge">
<title>Node9&#45;&gt;Node8</title>
<path fill="none" stroke="midnightblue" d="M422.5,-343.11C422.5,-318.31 422.5,-292.46 422.5,-272.78"/>
<polygon fill="none" stroke="midnightblue" points="419,-343.28 422.5,-353.28 426,-343.28 419,-343.28"/>
</g>
<!-- Node10 -->
<g id="node10" class="node">
<title>Node10</title>
<g id="a_node10"><a xlink:href="../../df/d06/classAH_1_1LEDs.html" target="_top" xlink:title="A class for collections of LEDs that can display ranges.">
<polygon fill="white" stroke="black" points="372,-552 372,-675 473,-675 473,-552 372,-552"/>
<text text-anchor="middle" x="422.5" y="-663" font-family="Helvetica,sans-Serif" font-size="10.00">LEDs&lt; N &gt;</text>
<polyline fill="none" stroke="black" points="372,-656 473,-656 "/>
<text text-anchor="start" x="380" y="-644" font-family="Helvetica,sans-Serif" font-size="10.00">&#45; ledPins</text>
<polyline fill="none" stroke="black" points="372,-637 473,-637 "/>
<text text-anchor="start" x="380" y="-625" font-family="Helvetica,sans-Serif" font-size="10.00">+ LEDs()</text>
<text text-anchor="start" x="380" y="-614" font-family="Helvetica,sans-Serif" font-size="10.00">+ begin()</text>
<text text-anchor="start" x="380" y="-603" font-family="Helvetica,sans-Serif" font-size="10.00">+ displayRange()</text>
<text text-anchor="start" x="380" y="-592" font-family="Helvetica,sans-Serif" font-size="10.00">+ set()</text>
<text text-anchor="start" x="380" y="-581" font-family="Helvetica,sans-Serif" font-size="10.00">+ clear()</text>
<text text-anchor="start" x="380" y="-570" font-family="Helvetica,sans-Serif" font-size="10.00">+ displayDot()</text>
<text text-anchor="start" x="380" y="-559" font-family="Helvetica,sans-Serif" font-size="10.00">+ clear()</text>
</a>
</g>
</g>
<!-- Node10&#45;&gt;Node9 -->
<g id="edge9" class="edge">
<title>Node10&#45;&gt;Node9</title>
<path fill="none" stroke="midnightblue" d="M422.5,-541.63C422.5,-527.5 422.5,-512.67 422.5,-498.52"/>
<polygon fill="none" stroke="midnightblue" points="419,-541.76 422.5,-551.76 426,-541.76 419,-541.76"/>
</g>
</g>
</svg>
