<?xml version="1.0" encoding="UTF-8" standalone="no"?>
<!DOCTYPE svg PUBLIC "-//W3C//DTD SVG 1.1//EN"
 "http://www.w3.org/Graphics/SVG/1.1/DTD/svg11.dtd">
<!-- Generated by graphviz version 2.43.0 (0)
 -->
<!-- Title: CCButtons&lt; NumButtons &gt; Pages: 1 -->
<svg width="796pt" height="1329pt"
 viewBox="0.00 0.00 795.50 1329.00" xmlns="http://www.w3.org/2000/svg" xmlns:xlink="http://www.w3.org/1999/xlink">
<g id="graph0" class="graph" transform="scale(1 1) rotate(0) translate(4 1325)">
<title>CCButtons&lt; NumButtons &gt;</title>
<polygon fill="white" stroke="transparent" points="-4,4 -4,-1325 791.5,-1325 791.5,4 -4,4"/>
<!-- Node1 -->
<g id="node1" class="node">
<title>Node1</title>
<g id="a_node1"><a xlink:title="A class of MIDIOutputElements that read the input of a collection of momentary push buttons or switch...">
<polygon fill="#bfbfbf" stroke="black" points="366,-0.5 366,-57.5 517,-57.5 517,-0.5 366,-0.5"/>
<text text-anchor="middle" x="441.5" y="-45.5" font-family="Helvetica,sans-Serif" font-size="10.00">CCButtons&lt; NumButtons &gt;</text>
<polyline fill="none" stroke="black" points="366,-38.5 517,-38.5 "/>
<text text-anchor="middle" x="441.5" y="-26.5" font-family="Helvetica,sans-Serif" font-size="10.00"> </text>
<polyline fill="none" stroke="black" points="366,-19.5 517,-19.5 "/>
<text text-anchor="start" x="374" y="-7.5" font-family="Helvetica,sans-Serif" font-size="10.00">+ CCButtons()</text>
</a>
</g>
</g>
<!-- Node2 -->
<g id="node2" class="node">
<title>Node2</title>
<g id="a_node2"><a xlink:href="../../dc/d22/classBankable_1_1MIDIButtons.html" target="_top" xlink:title=" ">
<polygon fill="white" stroke="black" points="353,-95.5 353,-207.5 530,-207.5 530,-95.5 353,-95.5"/>
<text text-anchor="start" x="361" y="-195.5" font-family="Helvetica,sans-Serif" font-size="10.00">MIDIButtons&lt; SingleAddress,</text>
<text text-anchor="middle" x="441.5" y="-184.5" font-family="Helvetica,sans-Serif" font-size="10.00"> DigitalCCSender, NumButtons &gt;</text>
<polyline fill="none" stroke="black" points="353,-177.5 530,-177.5 "/>
<text text-anchor="start" x="361" y="-165.5" font-family="Helvetica,sans-Serif" font-size="10.00">&#45; activeButtons</text>
<polyline fill="none" stroke="black" points="353,-158.5 530,-158.5 "/>
<text text-anchor="start" x="361" y="-146.5" font-family="Helvetica,sans-Serif" font-size="10.00">+ begin()</text>
<text text-anchor="start" x="361" y="-135.5" font-family="Helvetica,sans-Serif" font-size="10.00">+ update()</text>
<text text-anchor="start" x="361" y="-124.5" font-family="Helvetica,sans-Serif" font-size="10.00">+ invert()</text>
<text text-anchor="start" x="361" y="-113.5" font-family="Helvetica,sans-Serif" font-size="10.00">+ getButtonState()</text>
<text text-anchor="start" x="361" y="-102.5" font-family="Helvetica,sans-Serif" font-size="10.00"># MIDIButtons()</text>
</a>
</g>
</g>
<!-- Node2&#45;&gt;Node1 -->
<g id="edge1" class="edge">
<title>Node2&#45;&gt;Node1</title>
<path fill="none" stroke="midnightblue" d="M441.5,-85.12C441.5,-75.48 441.5,-66.01 441.5,-57.72"/>
<polygon fill="none" stroke="midnightblue" points="438,-85.19 441.5,-95.19 445,-85.19 438,-85.19"/>
</g>
<!-- Node3 -->
<g id="node3" class="node">
<title>Node3</title>
<g id="a_node3"><a xlink:href="../../d1/d55/classAH_1_1Updatable.html" target="_top" xlink:title=" ">
<polygon fill="white" stroke="black" points="109,-299.5 109,-389.5 222,-389.5 222,-299.5 109,-299.5"/>
<text text-anchor="middle" x="165.5" y="-377.5" font-family="Helvetica,sans-Serif" font-size="10.00">MIDIOutputElement</text>
<polyline fill="none" stroke="black" points="109,-370.5 222,-370.5 "/>
<text text-anchor="middle" x="165.5" y="-358.5" font-family="Helvetica,sans-Serif" font-size="10.00"> </text>
<polyline fill="none" stroke="black" points="109,-351.5 222,-351.5 "/>
<text text-anchor="start" x="117" y="-339.5" font-family="Helvetica,sans-Serif" font-size="10.00">* begin()</text>
<text text-anchor="start" x="117" y="-328.5" font-family="Helvetica,sans-Serif" font-size="10.00">* update()</text>
<text text-anchor="start" x="117" y="-317.5" font-family="Helvetica,sans-Serif" font-size="10.00">* beginAll()</text>
<text text-anchor="start" x="117" y="-306.5" font-family="Helvetica,sans-Serif" font-size="10.00">* updateAll()</text>
</a>
</g>
</g>
<!-- Node3&#45;&gt;Node2 -->
<g id="edge2" class="edge">
<title>Node3&#45;&gt;Node2</title>
<path fill="none" stroke="midnightblue" d="M200.66,-291.21C210.89,-278.35 222.78,-265.32 235.5,-255 270.4,-226.68 314.41,-203.46 352.78,-186.32"/>
<polygon fill="none" stroke="midnightblue" points="197.86,-289.11 194.51,-299.17 203.4,-293.39 197.86,-289.11"/>
</g>
<!-- Node4 -->
<g id="node4" class="node">
<title>Node4</title>
<g id="a_node4"><a xlink:href="../../d8/d1a/classAH_1_1UpdatableCRTP.html" target="_top" xlink:title=" ">
<polygon fill="white" stroke="black" points="76,-481.5 76,-802.5 229,-802.5 229,-481.5 76,-481.5"/>
<text text-anchor="start" x="84" y="-790.5" font-family="Helvetica,sans-Serif" font-size="10.00">UpdatableCRTP&lt; Updatable</text>
<text text-anchor="start" x="84" y="-779.5" font-family="Helvetica,sans-Serif" font-size="10.00">&lt; NormalUpdatable, false</text>
<text text-anchor="middle" x="152.5" y="-768.5" font-family="Helvetica,sans-Serif" font-size="10.00"> &gt;, false &gt;</text>
<polyline fill="none" stroke="black" points="76,-761.5 229,-761.5 "/>
<text text-anchor="start" x="84" y="-749.5" font-family="Helvetica,sans-Serif" font-size="10.00"># mutex</text>
<polyline fill="none" stroke="black" points="76,-742.5 229,-742.5 "/>
<text text-anchor="start" x="84" y="-730.5" font-family="Helvetica,sans-Serif" font-size="10.00">+ ~UpdatableCRTP()</text>
<text text-anchor="start" x="84" y="-719.5" font-family="Helvetica,sans-Serif" font-size="10.00">+ getMutex()</text>
<text text-anchor="start" x="84" y="-708.5" font-family="Helvetica,sans-Serif" font-size="10.00"># UpdatableCRTP()</text>
<text text-anchor="start" x="84" y="-697.5" font-family="Helvetica,sans-Serif" font-size="10.00"># UpdatableCRTP()</text>
<text text-anchor="start" x="84" y="-686.5" font-family="Helvetica,sans-Serif" font-size="10.00"># UpdatableCRTP()</text>
<text text-anchor="start" x="84" y="-675.5" font-family="Helvetica,sans-Serif" font-size="10.00"># operator=()</text>
<text text-anchor="start" x="84" y="-664.5" font-family="Helvetica,sans-Serif" font-size="10.00"># operator=()</text>
<text text-anchor="start" x="84" y="-653.5" font-family="Helvetica,sans-Serif" font-size="10.00">* method</text>
<text text-anchor="start" x="84" y="-642.5" font-family="Helvetica,sans-Serif" font-size="10.00">* args</text>
<text text-anchor="start" x="84" y="-631.5" font-family="Helvetica,sans-Serif" font-size="10.00">* enable()</text>
<text text-anchor="start" x="84" y="-620.5" font-family="Helvetica,sans-Serif" font-size="10.00">* enable()</text>
<text text-anchor="start" x="84" y="-609.5" font-family="Helvetica,sans-Serif" font-size="10.00">* disable()</text>
<text text-anchor="start" x="84" y="-598.5" font-family="Helvetica,sans-Serif" font-size="10.00">* disable()</text>
<text text-anchor="start" x="84" y="-587.5" font-family="Helvetica,sans-Serif" font-size="10.00">* isEnabled()</text>
<text text-anchor="start" x="84" y="-576.5" font-family="Helvetica,sans-Serif" font-size="10.00">* isEnabled()</text>
<text text-anchor="start" x="84" y="-565.5" font-family="Helvetica,sans-Serif" font-size="10.00">* moveDown()</text>
<text text-anchor="start" x="84" y="-554.5" font-family="Helvetica,sans-Serif" font-size="10.00">* moveDown()</text>
<text text-anchor="start" x="84" y="-543.5" font-family="Helvetica,sans-Serif" font-size="10.00">* enable()</text>
<text text-anchor="start" x="84" y="-532.5" font-family="Helvetica,sans-Serif" font-size="10.00">* enable()</text>
<text text-anchor="start" x="84" y="-521.5" font-family="Helvetica,sans-Serif" font-size="10.00">* enable()</text>
<text text-anchor="start" x="84" y="-510.5" font-family="Helvetica,sans-Serif" font-size="10.00">* disable()</text>
<text text-anchor="start" x="84" y="-499.5" font-family="Helvetica,sans-Serif" font-size="10.00">* disable()</text>
<text text-anchor="start" x="84" y="-488.5" font-family="Helvetica,sans-Serif" font-size="10.00">* disable()</text>
</a>
</g>
</g>
<!-- Node4&#45;&gt;Node3 -->
<g id="edge3" class="edge">
<title>Node4&#45;&gt;Node3</title>
<path fill="none" stroke="midnightblue" d="M159.98,-470.9C161.31,-440.82 162.57,-412.01 163.56,-389.6"/>
<polygon fill="none" stroke="midnightblue" points="156.48,-471 159.53,-481.14 163.47,-471.31 156.48,-471"/>
</g>
<!-- Node5 -->
<g id="node5" class="node">
<title>Node5</title>
<g id="a_node5"><a xlink:href="../../d4/d23/classDoublyLinkable.html" target="_top" xlink:title=" ">
<polygon fill="white" stroke="black" points="0,-938.5 0,-1072.5 167,-1072.5 167,-938.5 0,-938.5"/>
<text text-anchor="start" x="8" y="-1060.5" font-family="Helvetica,sans-Serif" font-size="10.00">DoublyLinkable&lt; Updatable</text>
<text text-anchor="middle" x="83.5" y="-1049.5" font-family="Helvetica,sans-Serif" font-size="10.00">&lt; NormalUpdatable, false &gt; &gt;</text>
<polyline fill="none" stroke="black" points="0,-1042.5 167,-1042.5 "/>
<text text-anchor="start" x="8" y="-1030.5" font-family="Helvetica,sans-Serif" font-size="10.00"># next</text>
<text text-anchor="start" x="8" y="-1019.5" font-family="Helvetica,sans-Serif" font-size="10.00"># previous</text>
<polyline fill="none" stroke="black" points="0,-1012.5 167,-1012.5 "/>
<text text-anchor="start" x="8" y="-1000.5" font-family="Helvetica,sans-Serif" font-size="10.00"># ~DoublyLinkable()</text>
<text text-anchor="start" x="8" y="-989.5" font-family="Helvetica,sans-Serif" font-size="10.00"># DoublyLinkable()</text>
<text text-anchor="start" x="8" y="-978.5" font-family="Helvetica,sans-Serif" font-size="10.00"># DoublyLinkable()</text>
<text text-anchor="start" x="8" y="-967.5" font-family="Helvetica,sans-Serif" font-size="10.00"># DoublyLinkable()</text>
<text text-anchor="start" x="8" y="-956.5" font-family="Helvetica,sans-Serif" font-size="10.00"># operator=()</text>
<text text-anchor="start" x="8" y="-945.5" font-family="Helvetica,sans-Serif" font-size="10.00"># operator=()</text>
</a>
</g>
</g>
<!-- Node5&#45;&gt;Node4 -->
<g id="edge4" class="edge">
<title>Node5&#45;&gt;Node4</title>
<path fill="none" stroke="midnightblue" d="M98.08,-928.12C105.06,-891.56 113.69,-846.33 122.01,-802.75"/>
<polygon fill="none" stroke="midnightblue" points="94.59,-927.72 96.16,-938.2 101.47,-929.03 94.59,-927.72"/>
</g>
<!-- Node6 -->
<g id="node6" class="node">
<title>Node6</title>
<g id="a_node6"><a xlink:href="../../dd/d16/classDoublyLinkedList.html" target="_top" xlink:title=" ">
<polygon fill="white" stroke="black" points="185,-850.5 185,-1160.5 352,-1160.5 352,-850.5 185,-850.5"/>
<text text-anchor="start" x="193" y="-1148.5" font-family="Helvetica,sans-Serif" font-size="10.00">DoublyLinkedList&lt; Updatable</text>
<text text-anchor="middle" x="268.5" y="-1137.5" font-family="Helvetica,sans-Serif" font-size="10.00">&lt; NormalUpdatable, false &gt; &gt;</text>
<polyline fill="none" stroke="black" points="185,-1130.5 352,-1130.5 "/>
<text text-anchor="start" x="193" y="-1118.5" font-family="Helvetica,sans-Serif" font-size="10.00">&#45; first</text>
<text text-anchor="start" x="193" y="-1107.5" font-family="Helvetica,sans-Serif" font-size="10.00">&#45; last</text>
<polyline fill="none" stroke="black" points="185,-1100.5 352,-1100.5 "/>
<text text-anchor="start" x="193" y="-1088.5" font-family="Helvetica,sans-Serif" font-size="10.00">+ append()</text>
<text text-anchor="start" x="193" y="-1077.5" font-family="Helvetica,sans-Serif" font-size="10.00">+ append()</text>
<text text-anchor="start" x="193" y="-1066.5" font-family="Helvetica,sans-Serif" font-size="10.00">+ insertBefore()</text>
<text text-anchor="start" x="193" y="-1055.5" font-family="Helvetica,sans-Serif" font-size="10.00">+ insertBefore()</text>
<text text-anchor="start" x="193" y="-1044.5" font-family="Helvetica,sans-Serif" font-size="10.00">+ insertSorted()</text>
<text text-anchor="start" x="193" y="-1033.5" font-family="Helvetica,sans-Serif" font-size="10.00">+ insertSorted()</text>
<text text-anchor="start" x="193" y="-1022.5" font-family="Helvetica,sans-Serif" font-size="10.00">+ remove()</text>
<text text-anchor="start" x="193" y="-1011.5" font-family="Helvetica,sans-Serif" font-size="10.00">+ remove()</text>
<text text-anchor="start" x="193" y="-1000.5" font-family="Helvetica,sans-Serif" font-size="10.00">+ moveDown()</text>
<text text-anchor="start" x="193" y="-989.5" font-family="Helvetica,sans-Serif" font-size="10.00">+ moveDown()</text>
<text text-anchor="start" x="193" y="-978.5" font-family="Helvetica,sans-Serif" font-size="10.00">+ couldContain()</text>
<text text-anchor="start" x="193" y="-967.5" font-family="Helvetica,sans-Serif" font-size="10.00">+ couldContain()</text>
<text text-anchor="start" x="193" y="-956.5" font-family="Helvetica,sans-Serif" font-size="10.00">+ begin()</text>
<text text-anchor="start" x="193" y="-945.5" font-family="Helvetica,sans-Serif" font-size="10.00">+ begin()</text>
<text text-anchor="start" x="193" y="-934.5" font-family="Helvetica,sans-Serif" font-size="10.00">+ end()</text>
<text text-anchor="start" x="193" y="-923.5" font-family="Helvetica,sans-Serif" font-size="10.00">+ end()</text>
<text text-anchor="start" x="193" y="-912.5" font-family="Helvetica,sans-Serif" font-size="10.00">+ rbegin()</text>
<text text-anchor="start" x="193" y="-901.5" font-family="Helvetica,sans-Serif" font-size="10.00">+ rbegin()</text>
<text text-anchor="start" x="193" y="-890.5" font-family="Helvetica,sans-Serif" font-size="10.00">+ rend()</text>
<text text-anchor="start" x="193" y="-879.5" font-family="Helvetica,sans-Serif" font-size="10.00">+ rend()</text>
<text text-anchor="start" x="193" y="-868.5" font-family="Helvetica,sans-Serif" font-size="10.00">+ getFirst()</text>
<text text-anchor="start" x="193" y="-857.5" font-family="Helvetica,sans-Serif" font-size="10.00">+ getLast()</text>
</a>
</g>
</g>
<!-- Node6&#45;&gt;Node4 -->
<g id="edge5" class="edge">
<title>Node6&#45;&gt;Node4</title>
<path fill="none" stroke="#404040" d="M219.05,-850.41C215.2,-838.4 211.3,-826.23 207.41,-814.12"/>
<polygon fill="none" stroke="#404040" points="207.36,-813.97 201.72,-809.47 203.69,-802.54 209.34,-807.03 207.36,-813.97"/>
<text text-anchor="middle" x="243.5" y="-824" font-family="Helvetica,sans-Serif" font-size="10.00"> #updatables</text>
</g>
<!-- Node7 -->
<g id="node7" class="node">
<title>Node7</title>
<g id="a_node7"><a xlink:href="../../d0/d32/structAH_1_1Array.html" target="_top" xlink:title=" ">
<polygon fill="white" stroke="black" points="244.5,-255.5 244.5,-433.5 354.5,-433.5 354.5,-255.5 244.5,-255.5"/>
<text text-anchor="start" x="252.5" y="-421.5" font-family="Helvetica,sans-Serif" font-size="10.00">Array&lt; AH::Button,</text>
<text text-anchor="middle" x="299.5" y="-410.5" font-family="Helvetica,sans-Serif" font-size="10.00"> NumButtons &gt;</text>
<polyline fill="none" stroke="black" points="244.5,-403.5 354.5,-403.5 "/>
<text text-anchor="start" x="252.5" y="-391.5" font-family="Helvetica,sans-Serif" font-size="10.00">+ length</text>
<polyline fill="none" stroke="black" points="244.5,-384.5 354.5,-384.5 "/>
<text text-anchor="start" x="252.5" y="-372.5" font-family="Helvetica,sans-Serif" font-size="10.00">+ operator[]()</text>
<text text-anchor="start" x="252.5" y="-361.5" font-family="Helvetica,sans-Serif" font-size="10.00">+ operator[]()</text>
<text text-anchor="start" x="252.5" y="-350.5" font-family="Helvetica,sans-Serif" font-size="10.00">+ begin()</text>
<text text-anchor="start" x="252.5" y="-339.5" font-family="Helvetica,sans-Serif" font-size="10.00">+ begin()</text>
<text text-anchor="start" x="252.5" y="-328.5" font-family="Helvetica,sans-Serif" font-size="10.00">+ end()</text>
<text text-anchor="start" x="252.5" y="-317.5" font-family="Helvetica,sans-Serif" font-size="10.00">+ end()</text>
<text text-anchor="start" x="252.5" y="-306.5" font-family="Helvetica,sans-Serif" font-size="10.00">+ operator==()</text>
<text text-anchor="start" x="252.5" y="-295.5" font-family="Helvetica,sans-Serif" font-size="10.00">+ operator!=()</text>
<text text-anchor="start" x="252.5" y="-284.5" font-family="Helvetica,sans-Serif" font-size="10.00">+ slice()</text>
<text text-anchor="start" x="252.5" y="-273.5" font-family="Helvetica,sans-Serif" font-size="10.00">+ slice()</text>
<text text-anchor="start" x="252.5" y="-262.5" font-family="Helvetica,sans-Serif" font-size="10.00">+ cslice()</text>
</a>
</g>
</g>
<!-- Node7&#45;&gt;Node2 -->
<g id="edge6" class="edge">
<title>Node7&#45;&gt;Node2</title>
<path fill="none" stroke="#404040" d="M354.54,-267.14C357.56,-263.03 360.56,-258.96 363.5,-255 372.54,-242.81 382.27,-229.89 391.69,-217.46"/>
<polygon fill="none" stroke="#404040" points="391.89,-217.19 392.34,-210 399.15,-207.64 398.71,-214.83 391.89,-217.19"/>
<text text-anchor="middle" x="407.5" y="-229" font-family="Helvetica,sans-Serif" font-size="10.00"> &#45;buttons</text>
</g>
<!-- Node8 -->
<g id="node8" class="node">
<title>Node8</title>
<g id="a_node8"><a xlink:href="../../de/d0d/classAH_1_1Button.html" target="_top" xlink:title="A class for reading and debouncing buttons and switches.">
<polygon fill="white" stroke="black" points="247.5,-525.5 247.5,-758.5 385.5,-758.5 385.5,-525.5 247.5,-525.5"/>
<text text-anchor="middle" x="316.5" y="-746.5" font-family="Helvetica,sans-Serif" font-size="10.00">Button</text>
<polyline fill="none" stroke="black" points="247.5,-739.5 385.5,-739.5 "/>
<text text-anchor="start" x="255.5" y="-727.5" font-family="Helvetica,sans-Serif" font-size="10.00">&#45; pin</text>
<text text-anchor="start" x="255.5" y="-716.5" font-family="Helvetica,sans-Serif" font-size="10.00">&#45; prevInput</text>
<text text-anchor="start" x="255.5" y="-705.5" font-family="Helvetica,sans-Serif" font-size="10.00">&#45; debouncedState</text>
<text text-anchor="start" x="255.5" y="-694.5" font-family="Helvetica,sans-Serif" font-size="10.00">&#45; prevBounceTime</text>
<text text-anchor="start" x="255.5" y="-683.5" font-family="Helvetica,sans-Serif" font-size="10.00">&#45; invertState</text>
<text text-anchor="start" x="255.5" y="-672.5" font-family="Helvetica,sans-Serif" font-size="10.00">&#45; debounceTime</text>
<polyline fill="none" stroke="black" points="247.5,-665.5 385.5,-665.5 "/>
<text text-anchor="start" x="255.5" y="-653.5" font-family="Helvetica,sans-Serif" font-size="10.00">+ Button()</text>
<text text-anchor="start" x="255.5" y="-642.5" font-family="Helvetica,sans-Serif" font-size="10.00">+ Button()</text>
<text text-anchor="start" x="255.5" y="-631.5" font-family="Helvetica,sans-Serif" font-size="10.00">+ begin()</text>
<text text-anchor="start" x="255.5" y="-620.5" font-family="Helvetica,sans-Serif" font-size="10.00">+ invert()</text>
<text text-anchor="start" x="255.5" y="-609.5" font-family="Helvetica,sans-Serif" font-size="10.00">+ update()</text>
<text text-anchor="start" x="255.5" y="-598.5" font-family="Helvetica,sans-Serif" font-size="10.00">+ getState()</text>
<text text-anchor="start" x="255.5" y="-587.5" font-family="Helvetica,sans-Serif" font-size="10.00">+ previousBounceTime()</text>
<text text-anchor="start" x="255.5" y="-576.5" font-family="Helvetica,sans-Serif" font-size="10.00">+ stableTime()</text>
<text text-anchor="start" x="255.5" y="-565.5" font-family="Helvetica,sans-Serif" font-size="10.00">+ stableTime()</text>
<text text-anchor="start" x="255.5" y="-554.5" font-family="Helvetica,sans-Serif" font-size="10.00">+ getName()</text>
<text text-anchor="start" x="255.5" y="-543.5" font-family="Helvetica,sans-Serif" font-size="10.00">+ setDebounceTime()</text>
<text text-anchor="start" x="255.5" y="-532.5" font-family="Helvetica,sans-Serif" font-size="10.00">+ getDebounceTime()</text>
</a>
</g>
</g>
<!-- Node8&#45;&gt;Node7 -->
<g id="edge7" class="edge">
<title>Node8&#45;&gt;Node7</title>
<path fill="none" stroke="#404040" d="M309.85,-525.48C308.34,-499.21 306.75,-471.51 305.28,-445.93"/>
<polygon fill="none" stroke="#404040" points="305.28,-445.92 300.94,-440.16 304.59,-433.94 308.93,-439.7 305.28,-445.92"/>
<text text-anchor="middle" x="323.5" y="-455" font-family="Helvetica,sans-Serif" font-size="10.00"> +data</text>
</g>
<!-- Node9 -->
<g id="node9" class="node">
<title>Node9</title>
<g id="a_node9"><a xlink:href="../../d5/d0e/classRelativeMIDIAddress.html" target="_top" xlink:title="A class for saving an offset to a MIDI address.">
<polygon fill="white" stroke="black" points="373,-299.5 373,-389.5 510,-389.5 510,-299.5 373,-299.5"/>
<text text-anchor="middle" x="441.5" y="-377.5" font-family="Helvetica,sans-Serif" font-size="10.00">RelativeMIDIAddress</text>
<polyline fill="none" stroke="black" points="373,-370.5 510,-370.5 "/>
<text text-anchor="start" x="381" y="-358.5" font-family="Helvetica,sans-Serif" font-size="10.00">&#45; addresses</text>
<polyline fill="none" stroke="black" points="373,-351.5 510,-351.5 "/>
<text text-anchor="start" x="381" y="-339.5" font-family="Helvetica,sans-Serif" font-size="10.00">+ RelativeMIDIAddress()</text>
<text text-anchor="start" x="381" y="-328.5" font-family="Helvetica,sans-Serif" font-size="10.00">+ RelativeMIDIAddress()</text>
<text text-anchor="start" x="381" y="-317.5" font-family="Helvetica,sans-Serif" font-size="10.00">+ isValid()</text>
<text text-anchor="start" x="381" y="-306.5" font-family="Helvetica,sans-Serif" font-size="10.00">+ operator+=()</text>
</a>
</g>
</g>
<!-- Node9&#45;&gt;Node2 -->
<g id="edge8" class="edge">
<title>Node9&#45;&gt;Node2</title>
<path fill="none" stroke="#404040" d="M441.5,-299.2C441.5,-275.7 441.5,-246.33 441.5,-220.06"/>
<polygon fill="none" stroke="#404040" points="441.5,-219.84 437.5,-213.84 441.5,-207.84 445.5,-213.84 441.5,-219.84"/>
<text text-anchor="middle" x="489.5" y="-229" font-family="Helvetica,sans-Serif" font-size="10.00"> &#45;incrementAddress</text>
</g>
<!-- Node10 -->
<g id="node10" class="node">
<title>Node10</title>
<g id="a_node10"><a xlink:href="../../df/de5/classBankable_1_1SingleAddress.html" target="_top" xlink:title=" ">
<polygon fill="white" stroke="black" points="528,-305 528,-384 649,-384 649,-305 528,-305"/>
<text text-anchor="middle" x="588.5" y="-372" font-family="Helvetica,sans-Serif" font-size="10.00">SingleAddress</text>
<polyline fill="none" stroke="black" points="528,-365 649,-365 "/>
<text text-anchor="middle" x="588.5" y="-353" font-family="Helvetica,sans-Serif" font-size="10.00"> </text>
<polyline fill="none" stroke="black" points="528,-346 649,-346 "/>
<text text-anchor="start" x="536" y="-334" font-family="Helvetica,sans-Serif" font-size="10.00">+ SingleAddress()</text>
<text text-anchor="start" x="536" y="-323" font-family="Helvetica,sans-Serif" font-size="10.00">+ getBaseAddress()</text>
<text text-anchor="start" x="536" y="-312" font-family="Helvetica,sans-Serif" font-size="10.00">+ getActiveAddress()</text>
</a>
</g>
</g>
<!-- Node10&#45;&gt;Node2 -->
<g id="edge9" class="edge">
<title>Node10&#45;&gt;Node2</title>
<path fill="none" stroke="#404040" d="M578.93,-304.74C571.55,-280.38 559.52,-249.28 541.5,-226 538.92,-222.66 536.14,-219.4 533.22,-216.23"/>
<polygon fill="none" stroke="#404040" points="533.07,-216.08 526.01,-214.62 524.64,-207.54 531.7,-209 533.07,-216.08"/>
<text text-anchor="middle" x="569.5" y="-229" font-family="Helvetica,sans-Serif" font-size="10.00"> &#45;address</text>
</g>
<!-- Node11 -->
<g id="node11" class="node">
<title>Node11</title>
<g id="a_node11"><a xlink:href="../../d2/d97/classOutputBankableMIDIAddress.html" target="_top" xlink:title="A base class for all MIDIOutputElements that can be banked.">
<polygon fill="white" stroke="black" points="452,-602.5 452,-681.5 627,-681.5 627,-602.5 452,-602.5"/>
<text text-anchor="middle" x="539.5" y="-669.5" font-family="Helvetica,sans-Serif" font-size="10.00">OutputBankableMIDIAddress</text>
<polyline fill="none" stroke="black" points="452,-662.5 627,-662.5 "/>
<text text-anchor="start" x="460" y="-650.5" font-family="Helvetica,sans-Serif" font-size="10.00">&#45; type</text>
<polyline fill="none" stroke="black" points="452,-643.5 627,-643.5 "/>
<text text-anchor="start" x="460" y="-631.5" font-family="Helvetica,sans-Serif" font-size="10.00">+ OutputBankableMIDIAddress()</text>
<text text-anchor="start" x="460" y="-620.5" font-family="Helvetica,sans-Serif" font-size="10.00">+ OutputBankableMIDIAddress()</text>
<text text-anchor="start" x="460" y="-609.5" font-family="Helvetica,sans-Serif" font-size="10.00">+ getAddressOffset()</text>
</a>
</g>
</g>
<!-- Node11&#45;&gt;Node10 -->
<g id="edge10" class="edge">
<title>Node11&#45;&gt;Node10</title>
<path fill="none" stroke="midnightblue" d="M547.58,-592.3C557.24,-534 573.23,-437.57 582.09,-384.14"/>
<polygon fill="none" stroke="midnightblue" points="544.09,-591.93 545.91,-602.37 550.99,-593.08 544.09,-591.93"/>
</g>
<!-- Node12 -->
<g id="node12" class="node">
<title>Node12</title>
<g id="a_node12"><a xlink:href="../../d2/d4e/classOutputBankableMIDIAddress__Base.html" target="_top" xlink:title="Class for keeping track of the active bank, and allows locking of the bank setting.">
<polygon fill="white" stroke="black" points="437.5,-949.5 437.5,-1061.5 641.5,-1061.5 641.5,-949.5 437.5,-949.5"/>
<text text-anchor="middle" x="539.5" y="-1049.5" font-family="Helvetica,sans-Serif" font-size="10.00">OutputBankableMIDIAddress_Base</text>
<polyline fill="none" stroke="black" points="437.5,-1042.5 641.5,-1042.5 "/>
<text text-anchor="start" x="445.5" y="-1030.5" font-family="Helvetica,sans-Serif" font-size="10.00">&#45; lockedSetting</text>
<text text-anchor="start" x="445.5" y="-1019.5" font-family="Helvetica,sans-Serif" font-size="10.00">&#45; UNLOCKED</text>
<polyline fill="none" stroke="black" points="437.5,-1012.5 641.5,-1012.5 "/>
<text text-anchor="start" x="445.5" y="-1000.5" font-family="Helvetica,sans-Serif" font-size="10.00">+ getRawBankSetting()</text>
<text text-anchor="start" x="445.5" y="-989.5" font-family="Helvetica,sans-Serif" font-size="10.00">+ getSelection()</text>
<text text-anchor="start" x="445.5" y="-978.5" font-family="Helvetica,sans-Serif" font-size="10.00">+ lock()</text>
<text text-anchor="start" x="445.5" y="-967.5" font-family="Helvetica,sans-Serif" font-size="10.00">+ unlock()</text>
<text text-anchor="start" x="445.5" y="-956.5" font-family="Helvetica,sans-Serif" font-size="10.00"># OutputBankableMIDIAddress_Base()</text>
</a>
</g>
</g>
<!-- Node12&#45;&gt;Node11 -->
<g id="edge11" class="edge">
<title>Node12&#45;&gt;Node11</title>
<path fill="none" stroke="midnightblue" d="M539.5,-938.91C539.5,-863.75 539.5,-743.05 539.5,-681.62"/>
<polygon fill="none" stroke="midnightblue" points="536,-939.2 539.5,-949.2 543,-939.2 536,-939.2"/>
</g>
<!-- Node13 -->
<g id="node13" class="node">
<title>Node13</title>
<g id="a_node13"><a xlink:href="../../d9/d36/classOutputBank.html" target="_top" xlink:title="A class for changing the address of BankableMIDIOutputs.">
<polygon fill="white" stroke="black" points="478.5,-1208.5 478.5,-1320.5 600.5,-1320.5 600.5,-1208.5 478.5,-1208.5"/>
<text text-anchor="middle" x="539.5" y="-1308.5" font-family="Helvetica,sans-Serif" font-size="10.00">OutputBank</text>
<polyline fill="none" stroke="black" points="478.5,-1301.5 600.5,-1301.5 "/>
<text text-anchor="start" x="486.5" y="-1289.5" font-family="Helvetica,sans-Serif" font-size="10.00">&#45; tracksPerBank</text>
<text text-anchor="start" x="486.5" y="-1278.5" font-family="Helvetica,sans-Serif" font-size="10.00">&#45; bankSetting</text>
<polyline fill="none" stroke="black" points="478.5,-1271.5 600.5,-1271.5 "/>
<text text-anchor="start" x="486.5" y="-1259.5" font-family="Helvetica,sans-Serif" font-size="10.00">+ OutputBank()</text>
<text text-anchor="start" x="486.5" y="-1248.5" font-family="Helvetica,sans-Serif" font-size="10.00">+ select()</text>
<text text-anchor="start" x="486.5" y="-1237.5" font-family="Helvetica,sans-Serif" font-size="10.00">+ getSelection()</text>
<text text-anchor="start" x="486.5" y="-1226.5" font-family="Helvetica,sans-Serif" font-size="10.00">+ getTracksPerBank()</text>
<text text-anchor="start" x="486.5" y="-1215.5" font-family="Helvetica,sans-Serif" font-size="10.00">+ getOffset()</text>
</a>
</g>
</g>
<!-- Node13&#45;&gt;Node12 -->
<g id="edge12" class="edge">
<title>Node13&#45;&gt;Node12</title>
<path fill="none" stroke="#404040" d="M539.5,-1208.37C539.5,-1168.9 539.5,-1115.55 539.5,-1073.61"/>
<polygon fill="none" stroke="#404040" points="539.5,-1073.54 535.5,-1067.54 539.5,-1061.54 543.5,-1067.54 539.5,-1073.54"/>
<text text-anchor="middle" x="557.5" y="-1182" font-family="Helvetica,sans-Serif" font-size="10.00"> #bank</text>
</g>
<!-- Node14 -->
<g id="node14" class="node">
<title>Node14</title>
<g id="a_node14"><a xlink:href="../../d7/d0f/classMIDIAddress.html" target="_top" xlink:title="A type&#45;safe utility class for saving a MIDI address consisting of a 7&#45;bit address,...">
<polygon fill="white" stroke="black" points="645.5,-498 645.5,-786 787.5,-786 787.5,-498 645.5,-498"/>
<text text-anchor="middle" x="716.5" y="-774" font-family="Helvetica,sans-Serif" font-size="10.00">MIDIAddress</text>
<polyline fill="none" stroke="black" points="645.5,-767 787.5,-767 "/>
<text text-anchor="start" x="653.5" y="-755" font-family="Helvetica,sans-Serif" font-size="10.00">&#45; addresses</text>
<polyline fill="none" stroke="black" points="645.5,-748 787.5,-748 "/>
<text text-anchor="start" x="653.5" y="-736" font-family="Helvetica,sans-Serif" font-size="10.00">* MIDIAddress()</text>
<text text-anchor="start" x="653.5" y="-725" font-family="Helvetica,sans-Serif" font-size="10.00">* MIDIAddress()</text>
<text text-anchor="start" x="653.5" y="-714" font-family="Helvetica,sans-Serif" font-size="10.00">* MIDIAddress()</text>
<text text-anchor="start" x="653.5" y="-703" font-family="Helvetica,sans-Serif" font-size="10.00">* MIDIAddress()</text>
<text text-anchor="start" x="653.5" y="-692" font-family="Helvetica,sans-Serif" font-size="10.00">* MIDIAddress()</text>
<text text-anchor="start" x="653.5" y="-681" font-family="Helvetica,sans-Serif" font-size="10.00">* MIDIAddress()</text>
<text text-anchor="start" x="653.5" y="-670" font-family="Helvetica,sans-Serif" font-size="10.00">* invalid()</text>
<text text-anchor="start" x="653.5" y="-659" font-family="Helvetica,sans-Serif" font-size="10.00">* operator+=()</text>
<text text-anchor="start" x="653.5" y="-648" font-family="Helvetica,sans-Serif" font-size="10.00">* operator&#45;=()</text>
<text text-anchor="start" x="653.5" y="-637" font-family="Helvetica,sans-Serif" font-size="10.00">* operator+()</text>
<text text-anchor="start" x="653.5" y="-626" font-family="Helvetica,sans-Serif" font-size="10.00">* operator&#45;()</text>
<text text-anchor="start" x="653.5" y="-615" font-family="Helvetica,sans-Serif" font-size="10.00">* getAddress()</text>
<text text-anchor="start" x="653.5" y="-604" font-family="Helvetica,sans-Serif" font-size="10.00">* getChannel()</text>
<text text-anchor="start" x="653.5" y="-593" font-family="Helvetica,sans-Serif" font-size="10.00">* getRawChannel()</text>
<text text-anchor="start" x="653.5" y="-582" font-family="Helvetica,sans-Serif" font-size="10.00">* getCableNumber()</text>
<text text-anchor="start" x="653.5" y="-571" font-family="Helvetica,sans-Serif" font-size="10.00">* getRawCableNumber()</text>
<text text-anchor="start" x="653.5" y="-560" font-family="Helvetica,sans-Serif" font-size="10.00">* operator==()</text>
<text text-anchor="start" x="653.5" y="-549" font-family="Helvetica,sans-Serif" font-size="10.00">* operator!=()</text>
<text text-anchor="start" x="653.5" y="-538" font-family="Helvetica,sans-Serif" font-size="10.00">* isValid()</text>
<text text-anchor="start" x="653.5" y="-527" font-family="Helvetica,sans-Serif" font-size="10.00">* operator bool()</text>
<text text-anchor="start" x="653.5" y="-516" font-family="Helvetica,sans-Serif" font-size="10.00">* matchSingle()</text>
<text text-anchor="start" x="653.5" y="-505" font-family="Helvetica,sans-Serif" font-size="10.00">* matchAddressInRange()</text>
</a>
</g>
</g>
<!-- Node14&#45;&gt;Node10 -->
<g id="edge13" class="edge">
<title>Node14&#45;&gt;Node10</title>
<path fill="none" stroke="#404040" d="M654.37,-497.58C638.48,-460.87 622.42,-423.81 610.14,-395.47"/>
<polygon fill="none" stroke="#404040" points="610.06,-395.28 604.01,-391.36 605.29,-384.27 611.35,-388.18 610.06,-395.28"/>
<text text-anchor="middle" x="659.5" y="-455" font-family="Helvetica,sans-Serif" font-size="10.00"> &#45;address</text>
</g>
<!-- Node15 -->
<g id="node15" class="node">
<title>Node15</title>
<g id="a_node15"><a xlink:href="../../d5/db5/classDigitalCCSender.html" target="_top" xlink:title="Class that sends MIDI control change messages signifying either &quot;on&quot; or &quot;off&quot;.">
<polygon fill="white" stroke="black" points="667,-277.5 667,-411.5 782,-411.5 782,-277.5 667,-277.5"/>
<text text-anchor="middle" x="724.5" y="-399.5" font-family="Helvetica,sans-Serif" font-size="10.00">DigitalCCSender</text>
<polyline fill="none" stroke="black" points="667,-392.5 782,-392.5 "/>
<text text-anchor="start" x="675" y="-380.5" font-family="Helvetica,sans-Serif" font-size="10.00">&#45; onValue</text>
<text text-anchor="start" x="675" y="-369.5" font-family="Helvetica,sans-Serif" font-size="10.00">&#45; offValue</text>
<polyline fill="none" stroke="black" points="667,-362.5 782,-362.5 "/>
<text text-anchor="start" x="675" y="-350.5" font-family="Helvetica,sans-Serif" font-size="10.00">+ DigitalCCSender()</text>
<text text-anchor="start" x="675" y="-339.5" font-family="Helvetica,sans-Serif" font-size="10.00">+ sendOn()</text>
<text text-anchor="start" x="675" y="-328.5" font-family="Helvetica,sans-Serif" font-size="10.00">+ sendOff()</text>
<text text-anchor="start" x="675" y="-317.5" font-family="Helvetica,sans-Serif" font-size="10.00">+ getOnValue()</text>
<text text-anchor="start" x="675" y="-306.5" font-family="Helvetica,sans-Serif" font-size="10.00">+ setOnValue()</text>
<text text-anchor="start" x="675" y="-295.5" font-family="Helvetica,sans-Serif" font-size="10.00">+ getOffValue()</text>
<text text-anchor="start" x="675" y="-284.5" font-family="Helvetica,sans-Serif" font-size="10.00">+ setOffValue()</text>
</a>
</g>
</g>
<!-- Node15&#45;&gt;Node2 -->
<g id="edge14" class="edge">
<title>Node15&#45;&gt;Node2</title>
<path fill="none" stroke="#404040" d="M681.03,-277.39C674.08,-269.28 666.51,-261.55 658.5,-255 623.94,-226.73 580.28,-204.16 541.2,-187.48"/>
<polygon fill="none" stroke="#404040" points="541.12,-187.45 534.04,-188.83 530.05,-182.82 537.13,-181.44 541.12,-187.45"/>
<text text-anchor="middle" x="654" y="-229" font-family="Helvetica,sans-Serif" font-size="10.00"> +sender</text>
</g>
</g>
</svg>
