<?xml version="1.0" encoding="UTF-8" standalone="no"?>
<!DOCTYPE svg PUBLIC "-//W3C//DTD SVG 1.1//EN"
 "http://www.w3.org/Graphics/SVG/1.1/DTD/svg11.dtd">
<!-- Generated by graphviz version 2.40.1 (20161225.0304)
 -->
<!-- Title: USBMIDI.hpp Pages: 1 -->
<svg width="544pt" height="140pt"
 viewBox="0.00 0.00 543.50 140.00" xmlns="http://www.w3.org/2000/svg" xmlns:xlink="http://www.w3.org/1999/xlink">
<g id="graph0" class="graph" transform="scale(1 1) rotate(0) translate(4 136)">
<title>USBMIDI.hpp</title>
<polygon fill="#ffffff" stroke="transparent" points="-4,4 -4,-136 539.5,-136 539.5,4 -4,4"/>
<!-- Node1 -->
<g id="node1" class="node">
<title>Node1</title>
<g id="a_node1"><a xlink:title=" ">
<polygon fill="#bfbfbf" stroke="#000000" points="229.5,-112.5 229.5,-131.5 307.5,-131.5 307.5,-112.5 229.5,-112.5"/>
<text text-anchor="middle" x="268.5" y="-119.5" font-family="Helvetica,sans-Serif" font-size="10.00" fill="#000000">USBMIDI.hpp</text>
</a>
</g>
</g>
<!-- Node2 -->
<g id="node2" class="node">
<title>Node2</title>
<g id="a_node2"><a xlink:href="../../df/dfa/USBMIDI__MIDIUSB_8ipp.html" target="_top" xlink:title=" ">
<polygon fill="#ffffff" stroke="#000000" points="0,-56.5 0,-75.5 123,-75.5 123,-56.5 0,-56.5"/>
<text text-anchor="middle" x="61.5" y="-63.5" font-family="Helvetica,sans-Serif" font-size="10.00" fill="#000000">USBMIDI_MIDIUSB.ipp</text>
</a>
</g>
</g>
<!-- Node1&#45;&gt;Node2 -->
<g id="edge1" class="edge">
<title>Node1&#45;&gt;Node2</title>
<path fill="none" stroke="#191970" d="M223.1075,-109.7199C185.045,-99.4228 131.472,-84.9296 96.6202,-75.5011"/>
<polygon fill="#191970" stroke="#191970" points="222.3484,-113.1403 232.9154,-112.3733 224.1765,-106.3832 222.3484,-113.1403"/>
</g>
<!-- Node4 -->
<g id="node4" class="node">
<title>Node4</title>
<g id="a_node4"><a xlink:href="../../db/dcf/USBMIDI__Teensy2_8ipp.html" target="_top" xlink:title=" ">
<polygon fill="#ffffff" stroke="#000000" points="141.5,-56.5 141.5,-75.5 259.5,-75.5 259.5,-56.5 141.5,-56.5"/>
<text text-anchor="middle" x="200.5" y="-63.5" font-family="Helvetica,sans-Serif" font-size="10.00" fill="#000000">USBMIDI_Teensy2.ipp</text>
</a>
</g>
</g>
<!-- Node1&#45;&gt;Node4 -->
<g id="edge3" class="edge">
<title>Node1&#45;&gt;Node4</title>
<path fill="none" stroke="#191970" d="M248.6404,-105.645C236.8142,-95.9058 222.2108,-83.8795 212.209,-75.6427"/>
<polygon fill="#191970" stroke="#191970" points="246.711,-108.5902 256.6553,-112.2455 251.161,-103.1867 246.711,-108.5902"/>
</g>
<!-- Node5 -->
<g id="node5" class="node">
<title>Node5</title>
<g id="a_node5"><a xlink:href="../../d9/dd5/USBMIDI__Teensy3_8ipp.html" target="_top" xlink:title=" ">
<polygon fill="#ffffff" stroke="#000000" points="277.5,-56.5 277.5,-75.5 395.5,-75.5 395.5,-56.5 277.5,-56.5"/>
<text text-anchor="middle" x="336.5" y="-63.5" font-family="Helvetica,sans-Serif" font-size="10.00" fill="#000000">USBMIDI_Teensy3.ipp</text>
</a>
</g>
</g>
<!-- Node1&#45;&gt;Node5 -->
<g id="edge4" class="edge">
<title>Node1&#45;&gt;Node5</title>
<path fill="none" stroke="#191970" d="M288.3596,-105.645C300.1858,-95.9058 314.7892,-83.8795 324.791,-75.6427"/>
<polygon fill="#191970" stroke="#191970" points="285.839,-103.1867 280.3447,-112.2455 290.289,-108.5902 285.839,-103.1867"/>
</g>
<!-- Node8 -->
<g id="node8" class="node">
<title>Node8</title>
<g id="a_node8"><a xlink:href="../../d1/d64/USBMIDI__Interface_8hpp.html" target="_top" xlink:title=" ">
<polygon fill="#ffffff" stroke="#000000" points="413.5,-56.5 413.5,-75.5 535.5,-75.5 535.5,-56.5 413.5,-56.5"/>
<text text-anchor="middle" x="474.5" y="-63.5" font-family="Helvetica,sans-Serif" font-size="10.00" fill="#000000">USBMIDI_Interface.hpp</text>
</a>
</g>
</g>
<!-- Node1&#45;&gt;Node8 -->
<g id="edge7" class="edge">
<title>Node1&#45;&gt;Node8</title>
<path fill="none" stroke="#191970" d="M313.6732,-109.7199C351.5518,-99.4228 404.866,-84.9296 439.5494,-75.5011"/>
<polygon fill="#191970" stroke="#191970" points="312.6443,-106.3725 303.9127,-112.3733 314.4806,-113.1274 312.6443,-106.3725"/>
</g>
<!-- Node3 -->
<g id="node3" class="node">
<title>Node3</title>
<g id="a_node3"><a xlink:href="../../d6/dad/USBMIDI_8cpp.html" target="_top" xlink:title=" ">
<polygon fill="#ffffff" stroke="#000000" points="22.5,-.5 22.5,-19.5 100.5,-19.5 100.5,-.5 22.5,-.5"/>
<text text-anchor="middle" x="61.5" y="-7.5" font-family="Helvetica,sans-Serif" font-size="10.00" fill="#000000">USBMIDI.cpp</text>
</a>
</g>
</g>
<!-- Node2&#45;&gt;Node3 -->
<g id="edge2" class="edge">
<title>Node2&#45;&gt;Node3</title>
<path fill="none" stroke="#191970" d="M61.5,-46.1575C61.5,-37.155 61.5,-26.9199 61.5,-19.6427"/>
<polygon fill="#191970" stroke="#191970" points="58.0001,-46.2455 61.5,-56.2455 65.0001,-46.2456 58.0001,-46.2455"/>
</g>
<!-- Node6 -->
<g id="node6" class="node">
<title>Node6</title>
<g id="a_node6"><a xlink:href="../../db/d79/USBMIDI__Teensy4_8ipp.html" target="_top" xlink:title=" ">
<polygon fill="#ffffff" stroke="#000000" points="142.5,-.5 142.5,-19.5 260.5,-19.5 260.5,-.5 142.5,-.5"/>
<text text-anchor="middle" x="201.5" y="-7.5" font-family="Helvetica,sans-Serif" font-size="10.00" fill="#000000">USBMIDI_Teensy4.ipp</text>
</a>
</g>
</g>
<!-- Node5&#45;&gt;Node6 -->
<g id="edge5" class="edge">
<title>Node5&#45;&gt;Node6</title>
<path fill="none" stroke="#191970" d="M304.0009,-52.5189C279.4146,-42.3201 246.2634,-28.5685 224.4045,-19.5011"/>
<polygon fill="#191970" stroke="#191970" points="302.7148,-55.7745 313.2927,-56.3733 305.3969,-49.3087 302.7148,-55.7745"/>
</g>
<!-- Node7 -->
<g id="node7" class="node">
<title>Node7</title>
<g id="a_node7"><a xlink:href="../../db/dd1/USBMIDI__TeensyLC_8ipp.html" target="_top" xlink:title=" ">
<polygon fill="#ffffff" stroke="#000000" points="279,-.5 279,-19.5 404,-19.5 404,-.5 279,-.5"/>
<text text-anchor="middle" x="341.5" y="-7.5" font-family="Helvetica,sans-Serif" font-size="10.00" fill="#000000">USBMIDI_TeensyLC.ipp</text>
</a>
</g>
</g>
<!-- Node5&#45;&gt;Node7 -->
<g id="edge6" class="edge">
<title>Node5&#45;&gt;Node7</title>
<path fill="none" stroke="#191970" d="M338.2717,-46.1575C339.0754,-37.155 339.9893,-26.9199 340.639,-19.6427"/>
<polygon fill="#191970" stroke="#191970" points="334.7742,-45.9739 337.3709,-56.2455 341.7465,-46.5965 334.7742,-45.9739"/>
</g>
<!-- Node9 -->
<g id="node9" class="node">
<title>Node9</title>
<g id="a_node9"><a xlink:href="../../db/dbf/Control__Surface_8h.html" target="_top" xlink:title="The main header file that includes all Control&#45;Surface header files.">
<polygon fill="#ffffff" stroke="#000000" points="427,-.5 427,-19.5 522,-19.5 522,-.5 427,-.5"/>
<text text-anchor="middle" x="474.5" y="-7.5" font-family="Helvetica,sans-Serif" font-size="10.00" fill="#000000">Control_Surface.h</text>
</a>
</g>
</g>
<!-- Node8&#45;&gt;Node9 -->
<g id="edge8" class="edge">
<title>Node8&#45;&gt;Node9</title>
<path fill="none" stroke="#191970" d="M474.5,-46.1575C474.5,-37.155 474.5,-26.9199 474.5,-19.6427"/>
<polygon fill="#191970" stroke="#191970" points="471.0001,-46.2455 474.5,-56.2455 478.0001,-46.2456 471.0001,-46.2455"/>
</g>
</g>
</svg>
