<?xml version="1.0" encoding="UTF-8" standalone="no"?>
<!DOCTYPE svg PUBLIC "-//W3C//DTD SVG 1.1//EN"
 "http://www.w3.org/Graphics/SVG/1.1/DTD/svg11.dtd">
<!-- Generated by graphviz version 2.40.1 (20161225.0304)
 -->
<!-- Title: ContinuousCCSender.hpp Pages: 1 -->
<svg width="520pt" height="140pt"
 viewBox="0.00 0.00 520.00 140.00" xmlns="http://www.w3.org/2000/svg" xmlns:xlink="http://www.w3.org/1999/xlink">
<g id="graph0" class="graph" transform="scale(1 1) rotate(0) translate(4 136)">
<title>ContinuousCCSender.hpp</title>
<polygon fill="#ffffff" stroke="transparent" points="-4,4 -4,-136 516,-136 516,4 -4,4"/>
<!-- Node1 -->
<g id="node1" class="node">
<title>Node1</title>
<g id="a_node1"><a xlink:title=" ">
<polygon fill="#bfbfbf" stroke="#000000" points="194,-112.5 194,-131.5 325,-131.5 325,-112.5 194,-112.5"/>
<text text-anchor="middle" x="259.5" y="-119.5" font-family="Helvetica,sans-Serif" font-size="10.00" fill="#000000">ContinuousCCSender.hpp</text>
</a>
</g>
</g>
<!-- Node2 -->
<g id="node2" class="node">
<title>Node2</title>
<g id="a_node2"><a xlink:href="../../d6/ddd/Bankable_2CCPotentiometer_8hpp.html" target="_top" xlink:title=" ">
<polygon fill="#ffffff" stroke="#000000" points="0,-56.5 0,-75.5 111,-75.5 111,-56.5 0,-56.5"/>
<text text-anchor="middle" x="55.5" y="-63.5" font-family="Helvetica,sans-Serif" font-size="10.00" fill="#000000">CCPotentiometer.hpp</text>
</a>
</g>
</g>
<!-- Node1&#45;&gt;Node2 -->
<g id="edge1" class="edge">
<title>Node1&#45;&gt;Node2</title>
<path fill="none" stroke="#191970" d="M214.7653,-109.7199C177.2545,-99.4228 124.4579,-84.9296 90.1112,-75.5011"/>
<polygon fill="#191970" stroke="#191970" points="213.8613,-113.1012 224.4311,-112.3733 215.7144,-106.3509 213.8613,-113.1012"/>
</g>
<!-- Node4 -->
<g id="node4" class="node">
<title>Node4</title>
<g id="a_node4"><a xlink:href="../../dd/d09/CCAbsoluteEncoder_8hpp.html" target="_top" xlink:title=" ">
<polygon fill="#ffffff" stroke="#000000" points="129,-56.5 129,-75.5 254,-75.5 254,-56.5 129,-56.5"/>
<text text-anchor="middle" x="191.5" y="-63.5" font-family="Helvetica,sans-Serif" font-size="10.00" fill="#000000">CCAbsoluteEncoder.hpp</text>
</a>
</g>
</g>
<!-- Node1&#45;&gt;Node4 -->
<g id="edge3" class="edge">
<title>Node1&#45;&gt;Node4</title>
<path fill="none" stroke="#191970" d="M239.6404,-105.645C227.8142,-95.9058 213.2108,-83.8795 203.209,-75.6427"/>
<polygon fill="#191970" stroke="#191970" points="237.711,-108.5902 247.6553,-112.2455 242.161,-103.1867 237.711,-108.5902"/>
</g>
<!-- Node5 -->
<g id="node5" class="node">
<title>Node5</title>
<g id="a_node5"><a xlink:href="../../d4/df0/CCPotentiometer_8hpp.html" target="_top" xlink:title=" ">
<polygon fill="#ffffff" stroke="#000000" points="272,-56.5 272,-75.5 383,-75.5 383,-56.5 272,-56.5"/>
<text text-anchor="middle" x="327.5" y="-63.5" font-family="Helvetica,sans-Serif" font-size="10.00" fill="#000000">CCPotentiometer.hpp</text>
</a>
</g>
</g>
<!-- Node1&#45;&gt;Node5 -->
<g id="edge5" class="edge">
<title>Node1&#45;&gt;Node5</title>
<path fill="none" stroke="#191970" d="M279.3596,-105.645C291.1858,-95.9058 305.7892,-83.8795 315.791,-75.6427"/>
<polygon fill="#191970" stroke="#191970" points="276.839,-103.1867 271.3447,-112.2455 281.289,-108.5902 276.839,-103.1867"/>
</g>
<!-- Node6 -->
<g id="node6" class="node">
<title>Node6</title>
<g id="a_node6"><a xlink:href="../../d1/d82/ManyAddresses_2CCPotentiometer_8hpp.html" target="_top" xlink:title=" ">
<polygon fill="#ffffff" stroke="#000000" points="401,-56.5 401,-75.5 512,-75.5 512,-56.5 401,-56.5"/>
<text text-anchor="middle" x="456.5" y="-63.5" font-family="Helvetica,sans-Serif" font-size="10.00" fill="#000000">CCPotentiometer.hpp</text>
</a>
</g>
</g>
<!-- Node1&#45;&gt;Node6 -->
<g id="edge7" class="edge">
<title>Node1&#45;&gt;Node6</title>
<path fill="none" stroke="#191970" d="M303.1629,-109.5882C339.3569,-99.2996 390.0494,-84.8895 423.0764,-75.5011"/>
<polygon fill="#191970" stroke="#191970" points="302.0274,-106.2723 293.3655,-112.3733 303.9415,-113.0055 302.0274,-106.2723"/>
</g>
<!-- Node3 -->
<g id="node3" class="node">
<title>Node3</title>
<g id="a_node3"><a xlink:href="../../db/dbf/Control__Surface_8h.html" target="_top" xlink:title="The main header file that includes all Control&#45;Surface header files.">
<polygon fill="#ffffff" stroke="#000000" points="212,-.5 212,-19.5 307,-19.5 307,-.5 212,-.5"/>
<text text-anchor="middle" x="259.5" y="-7.5" font-family="Helvetica,sans-Serif" font-size="10.00" fill="#000000">Control_Surface.h</text>
</a>
</g>
</g>
<!-- Node2&#45;&gt;Node3 -->
<g id="edge2" class="edge">
<title>Node2&#45;&gt;Node3</title>
<path fill="none" stroke="#191970" d="M100.2347,-53.7199C137.7455,-43.4228 190.5421,-28.9296 224.8888,-19.5011"/>
<polygon fill="#191970" stroke="#191970" points="99.2856,-50.3509 90.5689,-56.3733 101.1387,-57.1012 99.2856,-50.3509"/>
</g>
<!-- Node4&#45;&gt;Node3 -->
<g id="edge4" class="edge">
<title>Node4&#45;&gt;Node3</title>
<path fill="none" stroke="#191970" d="M211.3596,-49.645C223.1858,-39.9058 237.7892,-27.8795 247.791,-19.6427"/>
<polygon fill="#191970" stroke="#191970" points="208.839,-47.1867 203.3447,-56.2455 213.289,-52.5902 208.839,-47.1867"/>
</g>
<!-- Node5&#45;&gt;Node3 -->
<g id="edge6" class="edge">
<title>Node5&#45;&gt;Node3</title>
<path fill="none" stroke="#191970" d="M307.6404,-49.645C295.8142,-39.9058 281.2108,-27.8795 271.209,-19.6427"/>
<polygon fill="#191970" stroke="#191970" points="305.711,-52.5902 315.6553,-56.2455 310.161,-47.1867 305.711,-52.5902"/>
</g>
<!-- Node6&#45;&gt;Node3 -->
<g id="edge8" class="edge">
<title>Node6&#45;&gt;Node3</title>
<path fill="none" stroke="#191970" d="M412.8371,-53.5882C376.6431,-43.2996 325.9506,-28.8895 292.9236,-19.5011"/>
<polygon fill="#191970" stroke="#191970" points="412.0585,-57.0055 422.6345,-56.3733 413.9726,-50.2723 412.0585,-57.0055"/>
</g>
</g>
</svg>
