<?xml version="1.0" encoding="UTF-8" standalone="no"?>
<!DOCTYPE svg PUBLIC "-//W3C//DTD SVG 1.1//EN"
 "http://www.w3.org/Graphics/SVG/1.1/DTD/svg11.dtd">
<!-- Generated by graphviz version 2.43.0 (0)
 -->
<!-- Title: NoteButtonLatched Pages: 1 -->
<svg width="161pt" height="772pt"
 viewBox="0.00 0.00 161.00 772.00" xmlns="http://www.w3.org/2000/svg" xmlns:xlink="http://www.w3.org/1999/xlink">
<g id="graph0" class="graph" transform="scale(1 1) rotate(0) translate(4 768)">
<title>NoteButtonLatched</title>
<polygon fill="white" stroke="transparent" points="-4,4 -4,-768 157,-768 157,4 -4,4"/>
<!-- Node1 -->
<g id="node1" class="node">
<title>Node1</title>
<g id="a_node1"><a xlink:title="A class of MIDIOutputElements that read the input of a momentary push button or toggle switch,...">
<polygon fill="#bfbfbf" stroke="black" points="12,-0.5 12,-79.5 141,-79.5 141,-0.5 12,-0.5"/>
<text text-anchor="middle" x="76.5" y="-67.5" font-family="Helvetica,sans-Serif" font-size="10.00">NoteButtonLatched</text>
<polyline fill="none" stroke="black" points="12,-60.5 141,-60.5 "/>
<text text-anchor="middle" x="76.5" y="-48.5" font-family="Helvetica,sans-Serif" font-size="10.00"> </text>
<polyline fill="none" stroke="black" points="12,-41.5 141,-41.5 "/>
<text text-anchor="start" x="20" y="-29.5" font-family="Helvetica,sans-Serif" font-size="10.00">+ NoteButtonLatched()</text>
<text text-anchor="start" x="20" y="-18.5" font-family="Helvetica,sans-Serif" font-size="10.00">+ setVelocity()</text>
<text text-anchor="start" x="20" y="-7.5" font-family="Helvetica,sans-Serif" font-size="10.00">+ getVelocity()</text>
</a>
</g>
</g>
<!-- Node2 -->
<g id="node2" class="node">
<title>Node2</title>
<g id="a_node2"><a xlink:href="../../d3/d88/classMIDIButtonLatched.html" target="_top" xlink:title=" ">
<polygon fill="white" stroke="black" points="12.5,-116.5 12.5,-294.5 140.5,-294.5 140.5,-116.5 12.5,-116.5"/>
<text text-anchor="start" x="20.5" y="-282.5" font-family="Helvetica,sans-Serif" font-size="10.00">MIDIButtonLatched&lt;</text>
<text text-anchor="middle" x="76.5" y="-271.5" font-family="Helvetica,sans-Serif" font-size="10.00"> DigitalNoteSender &gt;</text>
<polyline fill="none" stroke="black" points="12.5,-264.5 140.5,-264.5 "/>
<text text-anchor="start" x="20.5" y="-252.5" font-family="Helvetica,sans-Serif" font-size="10.00">+ sender</text>
<text text-anchor="start" x="20.5" y="-241.5" font-family="Helvetica,sans-Serif" font-size="10.00">&#45; button</text>
<text text-anchor="start" x="20.5" y="-230.5" font-family="Helvetica,sans-Serif" font-size="10.00">&#45; address</text>
<text text-anchor="start" x="20.5" y="-219.5" font-family="Helvetica,sans-Serif" font-size="10.00">&#45; state</text>
<polyline fill="none" stroke="black" points="12.5,-212.5 140.5,-212.5 "/>
<text text-anchor="start" x="20.5" y="-200.5" font-family="Helvetica,sans-Serif" font-size="10.00">+ begin()</text>
<text text-anchor="start" x="20.5" y="-189.5" font-family="Helvetica,sans-Serif" font-size="10.00">+ update()</text>
<text text-anchor="start" x="20.5" y="-178.5" font-family="Helvetica,sans-Serif" font-size="10.00">+ toggleState()</text>
<text text-anchor="start" x="20.5" y="-167.5" font-family="Helvetica,sans-Serif" font-size="10.00">+ getState()</text>
<text text-anchor="start" x="20.5" y="-156.5" font-family="Helvetica,sans-Serif" font-size="10.00">+ setState()</text>
<text text-anchor="start" x="20.5" y="-145.5" font-family="Helvetica,sans-Serif" font-size="10.00">+ invert()</text>
<text text-anchor="start" x="20.5" y="-134.5" font-family="Helvetica,sans-Serif" font-size="10.00">+ getButtonState()</text>
<text text-anchor="start" x="20.5" y="-123.5" font-family="Helvetica,sans-Serif" font-size="10.00"># MIDIButtonLatched()</text>
</a>
</g>
</g>
<!-- Node2&#45;&gt;Node1 -->
<g id="edge1" class="edge">
<title>Node2&#45;&gt;Node1</title>
<path fill="none" stroke="midnightblue" d="M76.5,-105.93C76.5,-96.69 76.5,-87.74 76.5,-79.6"/>
<polygon fill="none" stroke="midnightblue" points="73,-106.05 76.5,-116.05 80,-106.05 73,-106.05"/>
</g>
<!-- Node3 -->
<g id="node3" class="node">
<title>Node3</title>
<g id="a_node3"><a xlink:href="../../d1/d55/classAH_1_1Updatable.html" target="_top" xlink:title=" ">
<polygon fill="white" stroke="black" points="20,-331.5 20,-421.5 133,-421.5 133,-331.5 20,-331.5"/>
<text text-anchor="middle" x="76.5" y="-409.5" font-family="Helvetica,sans-Serif" font-size="10.00">MIDIOutputElement</text>
<polyline fill="none" stroke="black" points="20,-402.5 133,-402.5 "/>
<text text-anchor="middle" x="76.5" y="-390.5" font-family="Helvetica,sans-Serif" font-size="10.00"> </text>
<polyline fill="none" stroke="black" points="20,-383.5 133,-383.5 "/>
<text text-anchor="start" x="28" y="-371.5" font-family="Helvetica,sans-Serif" font-size="10.00">* begin()</text>
<text text-anchor="start" x="28" y="-360.5" font-family="Helvetica,sans-Serif" font-size="10.00">* update()</text>
<text text-anchor="start" x="28" y="-349.5" font-family="Helvetica,sans-Serif" font-size="10.00">* beginAll()</text>
<text text-anchor="start" x="28" y="-338.5" font-family="Helvetica,sans-Serif" font-size="10.00">* updateAll()</text>
</a>
</g>
</g>
<!-- Node3&#45;&gt;Node2 -->
<g id="edge2" class="edge">
<title>Node3&#45;&gt;Node2</title>
<path fill="none" stroke="midnightblue" d="M76.5,-321.06C76.5,-312.63 76.5,-303.73 76.5,-294.78"/>
<polygon fill="none" stroke="midnightblue" points="73,-321.1 76.5,-331.1 80,-321.1 73,-321.1"/>
</g>
<!-- Node4 -->
<g id="node4" class="node">
<title>Node4</title>
<g id="a_node4"><a xlink:href="../../d8/d1a/classAH_1_1UpdatableCRTP.html" target="_top" xlink:title=" ">
<polygon fill="white" stroke="black" points="0,-458.5 0,-647.5 153,-647.5 153,-458.5 0,-458.5"/>
<text text-anchor="start" x="8" y="-635.5" font-family="Helvetica,sans-Serif" font-size="10.00">UpdatableCRTP&lt; Updatable</text>
<text text-anchor="middle" x="76.5" y="-624.5" font-family="Helvetica,sans-Serif" font-size="10.00">&lt; NormalUpdatable &gt; &gt;</text>
<polyline fill="none" stroke="black" points="0,-617.5 153,-617.5 "/>
<text text-anchor="start" x="8" y="-605.5" font-family="Helvetica,sans-Serif" font-size="10.00"># updatables</text>
<polyline fill="none" stroke="black" points="0,-598.5 153,-598.5 "/>
<text text-anchor="start" x="8" y="-586.5" font-family="Helvetica,sans-Serif" font-size="10.00">+ ~UpdatableCRTP()</text>
<text text-anchor="start" x="8" y="-575.5" font-family="Helvetica,sans-Serif" font-size="10.00"># UpdatableCRTP()</text>
<text text-anchor="start" x="8" y="-564.5" font-family="Helvetica,sans-Serif" font-size="10.00">* enable()</text>
<text text-anchor="start" x="8" y="-553.5" font-family="Helvetica,sans-Serif" font-size="10.00">* disable()</text>
<text text-anchor="start" x="8" y="-542.5" font-family="Helvetica,sans-Serif" font-size="10.00">* isEnabled()</text>
<text text-anchor="start" x="8" y="-531.5" font-family="Helvetica,sans-Serif" font-size="10.00">* enable()</text>
<text text-anchor="start" x="8" y="-520.5" font-family="Helvetica,sans-Serif" font-size="10.00">* enable()</text>
<text text-anchor="start" x="8" y="-509.5" font-family="Helvetica,sans-Serif" font-size="10.00">* enable()</text>
<text text-anchor="start" x="8" y="-498.5" font-family="Helvetica,sans-Serif" font-size="10.00">* disable()</text>
<text text-anchor="start" x="8" y="-487.5" font-family="Helvetica,sans-Serif" font-size="10.00">* disable()</text>
<text text-anchor="start" x="8" y="-476.5" font-family="Helvetica,sans-Serif" font-size="10.00">* disable()</text>
<text text-anchor="start" x="8" y="-465.5" font-family="Helvetica,sans-Serif" font-size="10.00">* applyToAll()</text>
</a>
</g>
</g>
<!-- Node4&#45;&gt;Node3 -->
<g id="edge3" class="edge">
<title>Node4&#45;&gt;Node3</title>
<path fill="none" stroke="midnightblue" d="M76.5,-448.24C76.5,-438.99 76.5,-430 76.5,-421.69"/>
<polygon fill="none" stroke="midnightblue" points="73,-448.36 76.5,-458.36 80,-448.36 73,-448.36"/>
</g>
<!-- Node5 -->
<g id="node5" class="node">
<title>Node5</title>
<g id="a_node5"><a xlink:href="../../d4/d23/classDoublyLinkable.html" target="_top" xlink:title=" ">
<polygon fill="white" stroke="black" points="0,-684.5 0,-763.5 153,-763.5 153,-684.5 0,-684.5"/>
<text text-anchor="start" x="8" y="-751.5" font-family="Helvetica,sans-Serif" font-size="10.00">DoublyLinkable&lt; Updatable</text>
<text text-anchor="middle" x="76.5" y="-740.5" font-family="Helvetica,sans-Serif" font-size="10.00">&lt; NormalUpdatable &gt; &gt;</text>
<polyline fill="none" stroke="black" points="0,-733.5 153,-733.5 "/>
<text text-anchor="start" x="8" y="-721.5" font-family="Helvetica,sans-Serif" font-size="10.00"># next</text>
<text text-anchor="start" x="8" y="-710.5" font-family="Helvetica,sans-Serif" font-size="10.00"># previous</text>
<polyline fill="none" stroke="black" points="0,-703.5 153,-703.5 "/>
<text text-anchor="start" x="8" y="-691.5" font-family="Helvetica,sans-Serif" font-size="10.00"># ~DoublyLinkable()</text>
</a>
</g>
</g>
<!-- Node5&#45;&gt;Node4 -->
<g id="edge4" class="edge">
<title>Node5&#45;&gt;Node4</title>
<path fill="none" stroke="midnightblue" d="M76.5,-673.97C76.5,-665.6 76.5,-656.67 76.5,-647.6"/>
<polygon fill="none" stroke="midnightblue" points="73,-674.23 76.5,-684.23 80,-674.23 73,-674.23"/>
</g>
</g>
</svg>
