<?xml version="1.0" encoding="UTF-8" standalone="no"?>
<!DOCTYPE svg PUBLIC "-//W3C//DTD SVG 1.1//EN"
 "http://www.w3.org/Graphics/SVG/1.1/DTD/svg11.dtd">
<!-- Generated by graphviz version 2.40.1 (20161225.0304)
 -->
<!-- Title: SerialMIDI_Parser Pages: 1 -->
<svg width="129pt" height="281pt"
 viewBox="0.00 0.00 129.00 281.00" xmlns="http://www.w3.org/2000/svg" xmlns:xlink="http://www.w3.org/1999/xlink">
<g id="graph0" class="graph" transform="scale(1 1) rotate(0) translate(4 277)">
<title>SerialMIDI_Parser</title>
<polygon fill="#ffffff" stroke="transparent" points="-4,4 -4,-277 125,-277 125,4 -4,4"/>
<!-- Node1 -->
<g id="node1" class="node">
<title>Node1</title>
<g id="a_node1"><a xlink:title=" ">
<polygon fill="#bfbfbf" stroke="#000000" points="12,-.5 12,-112.5 109,-112.5 109,-.5 12,-.5"/>
<text text-anchor="middle" x="60.5" y="-100.5" font-family="Helvetica,sans-Serif" font-size="10.00" fill="#000000">SerialMIDI_Parser</text>
<polyline fill="none" stroke="#000000" points="12,-93.5 109,-93.5 "/>
<text text-anchor="start" x="20" y="-81.5" font-family="Helvetica,sans-Serif" font-size="10.00" fill="#000000"># sysexbuffer</text>
<text text-anchor="start" x="20" y="-70.5" font-family="Helvetica,sans-Serif" font-size="10.00" fill="#000000">&#45; thirdByte</text>
<polyline fill="none" stroke="#000000" points="12,-63.5 109,-63.5 "/>
<text text-anchor="start" x="20" y="-51.5" font-family="Helvetica,sans-Serif" font-size="10.00" fill="#000000">+ parse()</text>
<text text-anchor="start" x="20" y="-40.5" font-family="Helvetica,sans-Serif" font-size="10.00" fill="#000000">+ getSysEx()</text>
<text text-anchor="start" x="20" y="-29.5" font-family="Helvetica,sans-Serif" font-size="10.00" fill="#000000"># addSysExByte()</text>
<text text-anchor="start" x="20" y="-18.5" font-family="Helvetica,sans-Serif" font-size="10.00" fill="#000000"># startSysEx()</text>
<text text-anchor="start" x="20" y="-7.5" font-family="Helvetica,sans-Serif" font-size="10.00" fill="#000000"># endSysEx()</text>
</a>
</g>
</g>
<!-- Node2 -->
<g id="node2" class="node">
<title>Node2</title>
<g id="a_node2"><a xlink:href="../../df/d0c/classMIDI__Parser.html" target="_top" xlink:title=" ">
<polygon fill="#ffffff" stroke="#000000" points="0,-149.5 0,-272.5 121,-272.5 121,-149.5 0,-149.5"/>
<text text-anchor="middle" x="60.5" y="-260.5" font-family="Helvetica,sans-Serif" font-size="10.00" fill="#000000">MIDI_Parser</text>
<polyline fill="none" stroke="#000000" points="0,-253.5 121,-253.5 "/>
<text text-anchor="start" x="8" y="-241.5" font-family="Helvetica,sans-Serif" font-size="10.00" fill="#000000"># midimsg</text>
<polyline fill="none" stroke="#000000" points="0,-234.5 121,-234.5 "/>
<text text-anchor="start" x="8" y="-222.5" font-family="Helvetica,sans-Serif" font-size="10.00" fill="#000000">+ getChannelMessage()</text>
<text text-anchor="start" x="8" y="-211.5" font-family="Helvetica,sans-Serif" font-size="10.00" fill="#000000">+ getSysEx()</text>
<text text-anchor="start" x="8" y="-200.5" font-family="Helvetica,sans-Serif" font-size="10.00" fill="#000000">+ getSysExBuffer()</text>
<text text-anchor="start" x="8" y="-189.5" font-family="Helvetica,sans-Serif" font-size="10.00" fill="#000000">+ getSysExLength()</text>
<text text-anchor="start" x="8" y="-178.5" font-family="Helvetica,sans-Serif" font-size="10.00" fill="#000000">+ getCN()</text>
<text text-anchor="start" x="8" y="-167.5" font-family="Helvetica,sans-Serif" font-size="10.00" fill="#000000">+ isStatus()</text>
<text text-anchor="start" x="8" y="-156.5" font-family="Helvetica,sans-Serif" font-size="10.00" fill="#000000">+ isData()</text>
</a>
</g>
</g>
<!-- Node2&#45;&gt;Node1 -->
<g id="edge1" class="edge">
<title>Node2&#45;&gt;Node1</title>
<path fill="none" stroke="#191970" d="M60.5,-139.458C60.5,-130.5079 60.5,-121.455 60.5,-112.7834"/>
<polygon fill="none" stroke="#191970" points="57.0001,-139.4935 60.5,-149.4936 64.0001,-139.4936 57.0001,-139.4935"/>
</g>
</g>
</svg>
