<?xml version="1.0" encoding="UTF-8" standalone="no"?>
<!DOCTYPE svg PUBLIC "-//W3C//DTD SVG 1.1//EN"
 "http://www.w3.org/Graphics/SVG/1.1/DTD/svg11.dtd">
<!-- Generated by graphviz version 2.38.0 (20140413.2041)
 -->
<!-- Title: NoteButton&lt; N &gt; Pages: 1 -->
<svg width="591pt" height="1307pt"
 viewBox="0.00 0.00 591.00 1307.00" xmlns="http://www.w3.org/2000/svg" xmlns:xlink="http://www.w3.org/1999/xlink">
<g id="graph0" class="graph" transform="scale(1 1) rotate(0) translate(4 1303)">
<title>NoteButton&lt; N &gt;</title>
<polygon fill="white" stroke="none" points="-4,4 -4,-1303 587,-1303 587,4 -4,4"/>
<!-- Node1 -->
<g id="node1" class="node"><title>Node1</title>
<g id="a_node1"><a xlink:title="A class of MIDIOutputElements that read the input of a momentary push button or switch,...">
<polygon fill="#bfbfbf" stroke="black" points="209.5,-0.5 209.5,-57.5 301.5,-57.5 301.5,-0.5 209.5,-0.5"/>
<text text-anchor="middle" x="255.5" y="-45.5" font-family="Helvetica,sans-Serif" font-size="10.00">NoteButton&lt; N &gt;</text>
<polyline fill="none" stroke="black" points="209.5,-38.5 301.5,-38.5 "/>
<text text-anchor="middle" x="255.5" y="-26.5" font-family="Helvetica,sans-Serif" font-size="10.00"> </text>
<polyline fill="none" stroke="black" points="209.5,-19.5 301.5,-19.5 "/>
<text text-anchor="start" x="217.5" y="-7.5" font-family="Helvetica,sans-Serif" font-size="10.00">+ NoteButton()</text>
</a>
</g>
</g>
<!-- Node2 -->
<g id="node2" class="node"><title>Node2</title>
<g id="a_node2"><a xlink:href="../../d9/df9/classBankable_1_1MIDIButton.html" target="_top" xlink:title=" ">
<polygon fill="white" stroke="black" points="182.5,-95.5 182.5,-207.5 328.5,-207.5 328.5,-95.5 182.5,-95.5"/>
<text text-anchor="start" x="190.5" y="-195.5" font-family="Helvetica,sans-Serif" font-size="10.00">MIDIButton&lt; ManyAddresses</text>
<text text-anchor="middle" x="255.5" y="-184.5" font-family="Helvetica,sans-Serif" font-size="10.00">&lt; N &gt;, DigitalNoteSender &gt;</text>
<polyline fill="none" stroke="black" points="182.5,-177.5 328.5,-177.5 "/>
<text text-anchor="middle" x="255.5" y="-165.5" font-family="Helvetica,sans-Serif" font-size="10.00"> </text>
<polyline fill="none" stroke="black" points="182.5,-158.5 328.5,-158.5 "/>
<text text-anchor="start" x="190.5" y="-146.5" font-family="Helvetica,sans-Serif" font-size="10.00">+ MIDIButton()</text>
<text text-anchor="start" x="190.5" y="-135.5" font-family="Helvetica,sans-Serif" font-size="10.00">+ begin()</text>
<text text-anchor="start" x="190.5" y="-124.5" font-family="Helvetica,sans-Serif" font-size="10.00">+ update()</text>
<text text-anchor="start" x="190.5" y="-113.5" font-family="Helvetica,sans-Serif" font-size="10.00">+ invert()</text>
<text text-anchor="start" x="190.5" y="-102.5" font-family="Helvetica,sans-Serif" font-size="10.00">+ getButtonState()</text>
</a>
</g>
</g>
<!-- Node2&#45;&gt;Node1 -->
<g id="edge1" class="edge"><title>Node2&#45;&gt;Node1</title>
<path fill="none" stroke="midnightblue" d="M255.5,-85.1187C255.5,-75.478 255.5,-66.0138 255.5,-57.7231"/>
<polygon fill="none" stroke="midnightblue" points="252,-85.1874 255.5,-95.1875 259,-85.1875 252,-85.1874"/>
</g>
<!-- Node3 -->
<g id="node3" class="node"><title>Node3</title>
<g id="a_node3"><a xlink:href="../../d1/d55/classAH_1_1Updatable.html" target="_top" xlink:title=" ">
<polygon fill="white" stroke="black" points="4.5,-266.5 4.5,-477.5 108.5,-477.5 108.5,-266.5 4.5,-266.5"/>
<text text-anchor="middle" x="56.5" y="-465.5" font-family="Helvetica,sans-Serif" font-size="10.00">MIDIOutputElement</text>
<polyline fill="none" stroke="black" points="4.5,-458.5 108.5,-458.5 "/>
<text text-anchor="middle" x="56.5" y="-446.5" font-family="Helvetica,sans-Serif" font-size="10.00"> </text>
<polyline fill="none" stroke="black" points="4.5,-439.5 108.5,-439.5 "/>
<text text-anchor="start" x="12.5" y="-427.5" font-family="Helvetica,sans-Serif" font-size="10.00">+ ~Updatable()</text>
<text text-anchor="start" x="12.5" y="-416.5" font-family="Helvetica,sans-Serif" font-size="10.00"># Updatable()</text>
<text text-anchor="start" x="12.5" y="-405.5" font-family="Helvetica,sans-Serif" font-size="10.00">* begin()</text>
<text text-anchor="start" x="12.5" y="-394.5" font-family="Helvetica,sans-Serif" font-size="10.00">* update()</text>
<text text-anchor="start" x="12.5" y="-383.5" font-family="Helvetica,sans-Serif" font-size="10.00">* beginAll()</text>
<text text-anchor="start" x="12.5" y="-372.5" font-family="Helvetica,sans-Serif" font-size="10.00">* updateAll()</text>
<text text-anchor="start" x="12.5" y="-361.5" font-family="Helvetica,sans-Serif" font-size="10.00">* enable()</text>
<text text-anchor="start" x="12.5" y="-350.5" font-family="Helvetica,sans-Serif" font-size="10.00">* disable()</text>
<text text-anchor="start" x="12.5" y="-339.5" font-family="Helvetica,sans-Serif" font-size="10.00">* isEnabled()</text>
<text text-anchor="start" x="12.5" y="-328.5" font-family="Helvetica,sans-Serif" font-size="10.00">* enable()</text>
<text text-anchor="start" x="12.5" y="-317.5" font-family="Helvetica,sans-Serif" font-size="10.00">* enable()</text>
<text text-anchor="start" x="12.5" y="-306.5" font-family="Helvetica,sans-Serif" font-size="10.00">* enable()</text>
<text text-anchor="start" x="12.5" y="-295.5" font-family="Helvetica,sans-Serif" font-size="10.00">* disable()</text>
<text text-anchor="start" x="12.5" y="-284.5" font-family="Helvetica,sans-Serif" font-size="10.00">* disable()</text>
<text text-anchor="start" x="12.5" y="-273.5" font-family="Helvetica,sans-Serif" font-size="10.00">* disable()</text>
</a>
</g>
</g>
<!-- Node3&#45;&gt;Node2 -->
<g id="edge2" class="edge"><title>Node3&#45;&gt;Node2</title>
<path fill="none" stroke="midnightblue" d="M114.616,-258.455C115.568,-257.287 116.529,-256.134 117.5,-255 135.938,-233.463 159.696,-213.795 182.286,-197.575"/>
<polygon fill="none" stroke="midnightblue" points="111.829,-256.338 108.48,-266.39 117.366,-260.62 111.829,-256.338"/>
</g>
<!-- Node4 -->
<g id="node4" class="node"><title>Node4</title>
<g id="a_node4"><a xlink:href="../../d4/d23/classDoublyLinkable.html" target="_top" xlink:title=" ">
<polygon fill="white" stroke="black" points="0,-1203 0,-1282 137,-1282 137,-1203 0,-1203"/>
<text text-anchor="start" x="8" y="-1270" font-family="Helvetica,sans-Serif" font-size="10.00">DoublyLinkable&lt; Updatable</text>
<text text-anchor="middle" x="68.5" y="-1259" font-family="Helvetica,sans-Serif" font-size="10.00">&lt; NormalUpdatable &gt; &gt;</text>
<polyline fill="none" stroke="black" points="0,-1252 137,-1252 "/>
<text text-anchor="start" x="8" y="-1240" font-family="Helvetica,sans-Serif" font-size="10.00"># next</text>
<text text-anchor="start" x="8" y="-1229" font-family="Helvetica,sans-Serif" font-size="10.00"># previous</text>
<polyline fill="none" stroke="black" points="0,-1222 137,-1222 "/>
<text text-anchor="start" x="8" y="-1210" font-family="Helvetica,sans-Serif" font-size="10.00"># ~DoublyLinkable()</text>
</a>
</g>
</g>
<!-- Node4&#45;&gt;Node3 -->
<g id="edge3" class="edge"><title>Node4&#45;&gt;Node3</title>
<path fill="none" stroke="midnightblue" d="M60.4274,-1192.48C58.0118,-1175.59 55.6903,-1156.51 54.5,-1139 36.3241,-871.617 52.8559,-803.995 54.5,-536 54.6155,-517.18 54.8059,-497.139 55.0245,-477.781"/>
<polygon fill="none" stroke="midnightblue" points="57.011,-1193.31 61.9344,-1202.69 63.9359,-1192.29 57.011,-1193.31"/>
</g>
<!-- Node6 -->
<g id="node6" class="node"><title>Node6</title>
<g id="a_node6"><a xlink:href="../../d1/d55/classAH_1_1Updatable.html" target="_top" xlink:title=" ">
<polygon fill="white" stroke="black" points="64,-900 64,-1111 219,-1111 219,-900 64,-900"/>
<text text-anchor="middle" x="141.5" y="-1099" font-family="Helvetica,sans-Serif" font-size="10.00">Updatable&lt; NormalUpdatable &gt;</text>
<polyline fill="none" stroke="black" points="64,-1092 219,-1092 "/>
<text text-anchor="middle" x="141.5" y="-1080" font-family="Helvetica,sans-Serif" font-size="10.00"> </text>
<polyline fill="none" stroke="black" points="64,-1073 219,-1073 "/>
<text text-anchor="start" x="72" y="-1061" font-family="Helvetica,sans-Serif" font-size="10.00">+ ~Updatable()</text>
<text text-anchor="start" x="72" y="-1050" font-family="Helvetica,sans-Serif" font-size="10.00"># Updatable()</text>
<text text-anchor="start" x="72" y="-1039" font-family="Helvetica,sans-Serif" font-size="10.00">* begin()</text>
<text text-anchor="start" x="72" y="-1028" font-family="Helvetica,sans-Serif" font-size="10.00">* update()</text>
<text text-anchor="start" x="72" y="-1017" font-family="Helvetica,sans-Serif" font-size="10.00">* beginAll()</text>
<text text-anchor="start" x="72" y="-1006" font-family="Helvetica,sans-Serif" font-size="10.00">* updateAll()</text>
<text text-anchor="start" x="72" y="-995" font-family="Helvetica,sans-Serif" font-size="10.00">* enable()</text>
<text text-anchor="start" x="72" y="-984" font-family="Helvetica,sans-Serif" font-size="10.00">* disable()</text>
<text text-anchor="start" x="72" y="-973" font-family="Helvetica,sans-Serif" font-size="10.00">* isEnabled()</text>
<text text-anchor="start" x="72" y="-962" font-family="Helvetica,sans-Serif" font-size="10.00">* enable()</text>
<text text-anchor="start" x="72" y="-951" font-family="Helvetica,sans-Serif" font-size="10.00">* enable()</text>
<text text-anchor="start" x="72" y="-940" font-family="Helvetica,sans-Serif" font-size="10.00">* enable()</text>
<text text-anchor="start" x="72" y="-929" font-family="Helvetica,sans-Serif" font-size="10.00">* disable()</text>
<text text-anchor="start" x="72" y="-918" font-family="Helvetica,sans-Serif" font-size="10.00">* disable()</text>
<text text-anchor="start" x="72" y="-907" font-family="Helvetica,sans-Serif" font-size="10.00">* disable()</text>
</a>
</g>
</g>
<!-- Node4&#45;&gt;Node6 -->
<g id="edge6" class="edge"><title>Node4&#45;&gt;Node6</title>
<path fill="none" stroke="midnightblue" d="M83.5163,-1193.16C90.8922,-1169.42 100.085,-1139.82 108.962,-1111.24"/>
<polygon fill="none" stroke="midnightblue" points="80.0969,-1192.37 80.4727,-1202.96 86.7818,-1194.45 80.0969,-1192.37"/>
</g>
<!-- Node5 -->
<g id="node5" class="node"><title>Node5</title>
<g id="a_node5"><a xlink:href="../../dd/d16/classDoublyLinkedList.html" target="_top" xlink:title=" ">
<polygon fill="white" stroke="black" points="63.5,-536.5 63.5,-813.5 233.5,-813.5 233.5,-536.5 63.5,-536.5"/>
<text text-anchor="start" x="71.5" y="-801.5" font-family="Helvetica,sans-Serif" font-size="10.00">DoublyLinkedList&lt; AH</text>
<text text-anchor="middle" x="148.5" y="-790.5" font-family="Helvetica,sans-Serif" font-size="10.00">::Updatable&lt; NormalUpdatable &gt; &gt;</text>
<polyline fill="none" stroke="black" points="63.5,-783.5 233.5,-783.5 "/>
<text text-anchor="middle" x="148.5" y="-771.5" font-family="Helvetica,sans-Serif" font-size="10.00"> </text>
<polyline fill="none" stroke="black" points="63.5,-764.5 233.5,-764.5 "/>
<text text-anchor="start" x="71.5" y="-752.5" font-family="Helvetica,sans-Serif" font-size="10.00">+ append()</text>
<text text-anchor="start" x="71.5" y="-741.5" font-family="Helvetica,sans-Serif" font-size="10.00">+ append()</text>
<text text-anchor="start" x="71.5" y="-730.5" font-family="Helvetica,sans-Serif" font-size="10.00">+ insertBefore()</text>
<text text-anchor="start" x="71.5" y="-719.5" font-family="Helvetica,sans-Serif" font-size="10.00">+ insertBefore()</text>
<text text-anchor="start" x="71.5" y="-708.5" font-family="Helvetica,sans-Serif" font-size="10.00">+ insertSorted()</text>
<text text-anchor="start" x="71.5" y="-697.5" font-family="Helvetica,sans-Serif" font-size="10.00">+ insertSorted()</text>
<text text-anchor="start" x="71.5" y="-686.5" font-family="Helvetica,sans-Serif" font-size="10.00">+ remove()</text>
<text text-anchor="start" x="71.5" y="-675.5" font-family="Helvetica,sans-Serif" font-size="10.00">+ remove()</text>
<text text-anchor="start" x="71.5" y="-664.5" font-family="Helvetica,sans-Serif" font-size="10.00">+ moveDown()</text>
<text text-anchor="start" x="71.5" y="-653.5" font-family="Helvetica,sans-Serif" font-size="10.00">+ couldContain()</text>
<text text-anchor="start" x="71.5" y="-642.5" font-family="Helvetica,sans-Serif" font-size="10.00">+ begin()</text>
<text text-anchor="start" x="71.5" y="-631.5" font-family="Helvetica,sans-Serif" font-size="10.00">+ begin()</text>
<text text-anchor="start" x="71.5" y="-620.5" font-family="Helvetica,sans-Serif" font-size="10.00">+ end()</text>
<text text-anchor="start" x="71.5" y="-609.5" font-family="Helvetica,sans-Serif" font-size="10.00">+ end()</text>
<text text-anchor="start" x="71.5" y="-598.5" font-family="Helvetica,sans-Serif" font-size="10.00">+ rbegin()</text>
<text text-anchor="start" x="71.5" y="-587.5" font-family="Helvetica,sans-Serif" font-size="10.00">+ rbegin()</text>
<text text-anchor="start" x="71.5" y="-576.5" font-family="Helvetica,sans-Serif" font-size="10.00">+ rend()</text>
<text text-anchor="start" x="71.5" y="-565.5" font-family="Helvetica,sans-Serif" font-size="10.00">+ rend()</text>
<text text-anchor="start" x="71.5" y="-554.5" font-family="Helvetica,sans-Serif" font-size="10.00">+ getFirst()</text>
<text text-anchor="start" x="71.5" y="-543.5" font-family="Helvetica,sans-Serif" font-size="10.00">+ getLast()</text>
</a>
</g>
</g>
<!-- Node5&#45;&gt;Node3 -->
<g id="edge4" class="edge"><title>Node5&#45;&gt;Node3</title>
<path fill="none" stroke="#404040" d="M106.404,-536.273C101.616,-520.607 96.7705,-504.755 92.0781,-489.402"/>
<polygon fill="none" stroke="#404040" points="92.0307,-489.247 86.4515,-484.678 88.523,-477.771 94.1022,-482.34 92.0307,-489.247"/>
<text text-anchor="middle" x="127.5" y="-510" font-family="Helvetica,sans-Serif" font-size="10.00"> &#45;updatables</text>
</g>
<!-- Node5&#45;&gt;Node6 -->
<g id="edge7" class="edge"><title>Node5&#45;&gt;Node6</title>
<path fill="none" stroke="#404040" d="M146.316,-813.509C146.058,-827.19 145.785,-840.868 145.5,-854 145.265,-864.843 145,-876.124 144.723,-887.417"/>
<polygon fill="none" stroke="#404040" points="144.717,-887.66 148.566,-893.758 144.417,-899.656 140.568,-893.558 144.717,-887.66"/>
<text text-anchor="middle" x="173.5" y="-840.5" font-family="Helvetica,sans-Serif" font-size="10.00"> &#45;updatables</text>
</g>
<!-- Node6&#45;&gt;Node5 -->
<g id="edge5" class="edge"><title>Node6&#45;&gt;Node5</title>
<path fill="none" stroke="#404040" d="M127.355,-899.796C125.755,-884.463 124.384,-868.841 123.5,-854 122.952,-844.801 122.863,-835.355 123.134,-825.843"/>
<polygon fill="none" stroke="#404040" points="123.138,-825.76 119.405,-819.59 123.664,-813.771 127.397,-819.941 123.138,-825.76"/>
<text text-anchor="middle" x="134.5" y="-846" font-family="Helvetica,sans-Serif" font-size="10.00"> &#45;last</text>
<text text-anchor="middle" x="134.5" y="-835" font-family="Helvetica,sans-Serif" font-size="10.00">&#45;first</text>
</g>
<!-- Node7 -->
<g id="node7" class="node"><title>Node7</title>
<g id="a_node7"><a xlink:href="../../de/d0d/classAH_1_1Button.html" target="_top" xlink:title="A class for reading and debouncing buttons and switches.">
<polygon fill="white" stroke="black" points="127,-255.5 127,-488.5 250,-488.5 250,-255.5 127,-255.5"/>
<text text-anchor="middle" x="188.5" y="-476.5" font-family="Helvetica,sans-Serif" font-size="10.00">Button</text>
<polyline fill="none" stroke="black" points="127,-469.5 250,-469.5 "/>
<text text-anchor="start" x="135" y="-457.5" font-family="Helvetica,sans-Serif" font-size="10.00">&#45; pin</text>
<text text-anchor="start" x="135" y="-446.5" font-family="Helvetica,sans-Serif" font-size="10.00">&#45; prevInput</text>
<text text-anchor="start" x="135" y="-435.5" font-family="Helvetica,sans-Serif" font-size="10.00">&#45; debouncedState</text>
<text text-anchor="start" x="135" y="-424.5" font-family="Helvetica,sans-Serif" font-size="10.00">&#45; prevBounceTime</text>
<text text-anchor="start" x="135" y="-413.5" font-family="Helvetica,sans-Serif" font-size="10.00">&#45; invertState</text>
<text text-anchor="start" x="135" y="-402.5" font-family="Helvetica,sans-Serif" font-size="10.00">&#45; debounceTime</text>
<polyline fill="none" stroke="black" points="127,-395.5 250,-395.5 "/>
<text text-anchor="start" x="135" y="-383.5" font-family="Helvetica,sans-Serif" font-size="10.00">+ Button()</text>
<text text-anchor="start" x="135" y="-372.5" font-family="Helvetica,sans-Serif" font-size="10.00">+ Button()</text>
<text text-anchor="start" x="135" y="-361.5" font-family="Helvetica,sans-Serif" font-size="10.00">+ begin()</text>
<text text-anchor="start" x="135" y="-350.5" font-family="Helvetica,sans-Serif" font-size="10.00">+ invert()</text>
<text text-anchor="start" x="135" y="-339.5" font-family="Helvetica,sans-Serif" font-size="10.00">+ update()</text>
<text text-anchor="start" x="135" y="-328.5" font-family="Helvetica,sans-Serif" font-size="10.00">+ getState()</text>
<text text-anchor="start" x="135" y="-317.5" font-family="Helvetica,sans-Serif" font-size="10.00">+ previousBounceTime()</text>
<text text-anchor="start" x="135" y="-306.5" font-family="Helvetica,sans-Serif" font-size="10.00">+ stableTime()</text>
<text text-anchor="start" x="135" y="-295.5" font-family="Helvetica,sans-Serif" font-size="10.00">+ stableTime()</text>
<text text-anchor="start" x="135" y="-284.5" font-family="Helvetica,sans-Serif" font-size="10.00">+ getName()</text>
<text text-anchor="start" x="135" y="-273.5" font-family="Helvetica,sans-Serif" font-size="10.00">+ setDebounceTime()</text>
<text text-anchor="start" x="135" y="-262.5" font-family="Helvetica,sans-Serif" font-size="10.00">+ getDebounceTime()</text>
</a>
</g>
</g>
<!-- Node7&#45;&gt;Node2 -->
<g id="edge8" class="edge"><title>Node7&#45;&gt;Node2</title>
<path fill="none" stroke="#404040" d="M223.962,-255.352C227.736,-243.044 231.477,-230.845 234.992,-219.382"/>
<polygon fill="none" stroke="#404040" points="235.047,-219.202 232.981,-212.293 238.565,-207.729 240.63,-214.638 235.047,-219.202"/>
<text text-anchor="middle" x="249.5" y="-229" font-family="Helvetica,sans-Serif" font-size="10.00"> &#45;button</text>
</g>
<!-- Node8 -->
<g id="node8" class="node"><title>Node8</title>
<g id="a_node8"><a xlink:href="../../dc/dd4/classDigitalNoteSender.html" target="_top" xlink:title=" ">
<polygon fill="white" stroke="black" points="268,-321.5 268,-422.5 379,-422.5 379,-321.5 268,-321.5"/>
<text text-anchor="middle" x="323.5" y="-410.5" font-family="Helvetica,sans-Serif" font-size="10.00">DigitalNoteSender</text>
<polyline fill="none" stroke="black" points="268,-403.5 379,-403.5 "/>
<text text-anchor="start" x="276" y="-391.5" font-family="Helvetica,sans-Serif" font-size="10.00">&#45; velocity</text>
<polyline fill="none" stroke="black" points="268,-384.5 379,-384.5 "/>
<text text-anchor="start" x="276" y="-372.5" font-family="Helvetica,sans-Serif" font-size="10.00">+ DigitalNoteSender()</text>
<text text-anchor="start" x="276" y="-361.5" font-family="Helvetica,sans-Serif" font-size="10.00">+ sendOn()</text>
<text text-anchor="start" x="276" y="-350.5" font-family="Helvetica,sans-Serif" font-size="10.00">+ sendOff()</text>
<text text-anchor="start" x="276" y="-339.5" font-family="Helvetica,sans-Serif" font-size="10.00">+ setVelocity()</text>
<text text-anchor="start" x="276" y="-328.5" font-family="Helvetica,sans-Serif" font-size="10.00">+ getVelocity()</text>
</a>
</g>
</g>
<!-- Node8&#45;&gt;Node2 -->
<g id="edge9" class="edge"><title>Node8&#45;&gt;Node2</title>
<path fill="none" stroke="#404040" d="M308.07,-321.419C298.682,-291.253 286.569,-252.333 276.337,-219.455"/>
<polygon fill="none" stroke="#404040" points="276.227,-219.101 270.625,-214.561 272.661,-207.643 278.264,-212.184 276.227,-219.101"/>
<text text-anchor="middle" x="301" y="-229" font-family="Helvetica,sans-Serif" font-size="10.00"> +sender</text>
</g>
<!-- Node9 -->
<g id="node9" class="node"><title>Node9</title>
<g id="a_node9"><a xlink:href="../../d8/d58/classBankable_1_1ManyAddresses_1_1ManyAddresses.html" target="_top" xlink:title=" ">
<polygon fill="white" stroke="black" points="397,-338 397,-406 510,-406 510,-338 397,-338"/>
<text text-anchor="middle" x="453.5" y="-394" font-family="Helvetica,sans-Serif" font-size="10.00">ManyAddresses&lt; N &gt;</text>
<polyline fill="none" stroke="black" points="397,-387 510,-387 "/>
<text text-anchor="middle" x="453.5" y="-375" font-family="Helvetica,sans-Serif" font-size="10.00"> </text>
<polyline fill="none" stroke="black" points="397,-368 510,-368 "/>
<text text-anchor="start" x="405" y="-356" font-family="Helvetica,sans-Serif" font-size="10.00">+ ManyAddresses()</text>
<text text-anchor="start" x="405" y="-345" font-family="Helvetica,sans-Serif" font-size="10.00">+ getActiveAddress()</text>
</a>
</g>
</g>
<!-- Node9&#45;&gt;Node2 -->
<g id="edge10" class="edge"><title>Node9&#45;&gt;Node2</title>
<path fill="none" stroke="#404040" d="M438.956,-337.787C427.247,-313.303 409.196,-280.043 387.5,-255 373.153,-238.44 355.784,-222.731 338.425,-208.811"/>
<polygon fill="none" stroke="#404040" points="338.246,-208.671 331.056,-208.118 328.801,-201.268 335.991,-201.822 338.246,-208.671"/>
<text text-anchor="middle" x="390" y="-229" font-family="Helvetica,sans-Serif" font-size="10.00"> &#45;address</text>
</g>
<!-- Node10 -->
<g id="node10" class="node"><title>Node10</title>
<g id="a_node10"><a xlink:href="../../d1/d2f/classManyAddressesMIDIOutput.html" target="_top" xlink:title="A base class for all MIDIOutputElements that can have one of many addresses.">
<polygon fill="white" stroke="black" points="287,-646.5 287,-703.5 440,-703.5 440,-646.5 287,-646.5"/>
<text text-anchor="middle" x="363.5" y="-691.5" font-family="Helvetica,sans-Serif" font-size="10.00">ManyAddressesMIDIOutput</text>
<polyline fill="none" stroke="black" points="287,-684.5 440,-684.5 "/>
<text text-anchor="middle" x="363.5" y="-672.5" font-family="Helvetica,sans-Serif" font-size="10.00"> </text>
<polyline fill="none" stroke="black" points="287,-665.5 440,-665.5 "/>
<text text-anchor="start" x="295" y="-653.5" font-family="Helvetica,sans-Serif" font-size="10.00">+ ManyAddressesMIDIOutput()</text>
</a>
</g>
</g>
<!-- Node10&#45;&gt;Node9 -->
<g id="edge11" class="edge"><title>Node10&#45;&gt;Node9</title>
<path fill="none" stroke="midnightblue" d="M374.625,-636.793C392.33,-577.579 426.643,-462.823 443.567,-406.219"/>
<polygon fill="none" stroke="midnightblue" points="371.237,-635.907 371.725,-646.49 377.944,-637.912 371.237,-635.907"/>
</g>
<!-- Node11 -->
<g id="node11" class="node"><title>Node11</title>
<g id="a_node11"><a xlink:href="../../d4/d6e/classBankableMIDIOutput__Base.html" target="_top" xlink:title=" ">
<polygon fill="white" stroke="black" points="285.5,-949.5 285.5,-1061.5 435.5,-1061.5 435.5,-949.5 285.5,-949.5"/>
<text text-anchor="middle" x="360.5" y="-1049.5" font-family="Helvetica,sans-Serif" font-size="10.00">BankableMIDIOutput_Base</text>
<polyline fill="none" stroke="black" points="285.5,-1042.5 435.5,-1042.5 "/>
<text text-anchor="start" x="293.5" y="-1030.5" font-family="Helvetica,sans-Serif" font-size="10.00">&#45; lockedSetting</text>
<text text-anchor="start" x="293.5" y="-1019.5" font-family="Helvetica,sans-Serif" font-size="10.00">&#45; UNLOCKED</text>
<polyline fill="none" stroke="black" points="285.5,-1012.5 435.5,-1012.5 "/>
<text text-anchor="start" x="293.5" y="-1000.5" font-family="Helvetica,sans-Serif" font-size="10.00">+ getRawBankSetting()</text>
<text text-anchor="start" x="293.5" y="-989.5" font-family="Helvetica,sans-Serif" font-size="10.00">+ getSelection()</text>
<text text-anchor="start" x="293.5" y="-978.5" font-family="Helvetica,sans-Serif" font-size="10.00">+ lock()</text>
<text text-anchor="start" x="293.5" y="-967.5" font-family="Helvetica,sans-Serif" font-size="10.00">+ unlock()</text>
<text text-anchor="start" x="293.5" y="-956.5" font-family="Helvetica,sans-Serif" font-size="10.00"># BankableMIDIOutput_Base()</text>
</a>
</g>
</g>
<!-- Node11&#45;&gt;Node10 -->
<g id="edge12" class="edge"><title>Node11&#45;&gt;Node10</title>
<path fill="none" stroke="midnightblue" d="M361.099,-938.856C361.755,-867.069 362.775,-755.383 363.246,-703.82"/>
<polygon fill="none" stroke="midnightblue" points="357.597,-939.114 361.006,-949.146 364.597,-939.178 357.597,-939.114"/>
</g>
<!-- Node12 -->
<g id="node12" class="node"><title>Node12</title>
<g id="a_node12"><a xlink:href="../../d9/d36/classOutputBank.html" target="_top" xlink:title="A class for changing the address of BankableMIDIOutputs.">
<polygon fill="white" stroke="black" points="304,-1186.5 304,-1298.5 417,-1298.5 417,-1186.5 304,-1186.5"/>
<text text-anchor="middle" x="360.5" y="-1286.5" font-family="Helvetica,sans-Serif" font-size="10.00">OutputBank</text>
<polyline fill="none" stroke="black" points="304,-1279.5 417,-1279.5 "/>
<text text-anchor="start" x="312" y="-1267.5" font-family="Helvetica,sans-Serif" font-size="10.00">&#45; tracksPerBank</text>
<text text-anchor="start" x="312" y="-1256.5" font-family="Helvetica,sans-Serif" font-size="10.00">&#45; bankSetting</text>
<polyline fill="none" stroke="black" points="304,-1249.5 417,-1249.5 "/>
<text text-anchor="start" x="312" y="-1237.5" font-family="Helvetica,sans-Serif" font-size="10.00">+ OutputBank()</text>
<text text-anchor="start" x="312" y="-1226.5" font-family="Helvetica,sans-Serif" font-size="10.00">+ select()</text>
<text text-anchor="start" x="312" y="-1215.5" font-family="Helvetica,sans-Serif" font-size="10.00">+ getSelection()</text>
<text text-anchor="start" x="312" y="-1204.5" font-family="Helvetica,sans-Serif" font-size="10.00">+ getTracksPerBank()</text>
<text text-anchor="start" x="312" y="-1193.5" font-family="Helvetica,sans-Serif" font-size="10.00">+ getOffset()</text>
</a>
</g>
</g>
<!-- Node12&#45;&gt;Node11 -->
<g id="edge13" class="edge"><title>Node12&#45;&gt;Node11</title>
<path fill="none" stroke="#404040" d="M360.5,-1186.4C360.5,-1152.79 360.5,-1109.57 360.5,-1073.92"/>
<polygon fill="none" stroke="#404040" points="360.5,-1073.66 356.5,-1067.66 360.5,-1061.66 364.5,-1067.66 360.5,-1073.66"/>
<text text-anchor="middle" x="375.5" y="-1160" font-family="Helvetica,sans-Serif" font-size="10.00"> #bank</text>
</g>
<!-- Node13 -->
<g id="node13" class="node"><title>Node13</title>
<g id="a_node13"><a xlink:href="../../d0/d32/structAH_1_1Array.html" target="_top" xlink:title=" ">
<polygon fill="white" stroke="black" points="462.5,-586 462.5,-764 572.5,-764 572.5,-586 462.5,-586"/>
<text text-anchor="start" x="470.5" y="-752" font-family="Helvetica,sans-Serif" font-size="10.00">Array&lt; MIDIAddress,</text>
<text text-anchor="middle" x="517.5" y="-741" font-family="Helvetica,sans-Serif" font-size="10.00"> NumBanks &gt;</text>
<polyline fill="none" stroke="black" points="462.5,-734 572.5,-734 "/>
<text text-anchor="start" x="470.5" y="-722" font-family="Helvetica,sans-Serif" font-size="10.00">+ length</text>
<polyline fill="none" stroke="black" points="462.5,-715 572.5,-715 "/>
<text text-anchor="start" x="470.5" y="-703" font-family="Helvetica,sans-Serif" font-size="10.00">+ operator[]()</text>
<text text-anchor="start" x="470.5" y="-692" font-family="Helvetica,sans-Serif" font-size="10.00">+ operator[]()</text>
<text text-anchor="start" x="470.5" y="-681" font-family="Helvetica,sans-Serif" font-size="10.00">+ begin()</text>
<text text-anchor="start" x="470.5" y="-670" font-family="Helvetica,sans-Serif" font-size="10.00">+ begin()</text>
<text text-anchor="start" x="470.5" y="-659" font-family="Helvetica,sans-Serif" font-size="10.00">+ end()</text>
<text text-anchor="start" x="470.5" y="-648" font-family="Helvetica,sans-Serif" font-size="10.00">+ end()</text>
<text text-anchor="start" x="470.5" y="-637" font-family="Helvetica,sans-Serif" font-size="10.00">+ operator==()</text>
<text text-anchor="start" x="470.5" y="-626" font-family="Helvetica,sans-Serif" font-size="10.00">+ operator!=()</text>
<text text-anchor="start" x="470.5" y="-615" font-family="Helvetica,sans-Serif" font-size="10.00">+ slice()</text>
<text text-anchor="start" x="470.5" y="-604" font-family="Helvetica,sans-Serif" font-size="10.00">+ slice()</text>
<text text-anchor="start" x="470.5" y="-593" font-family="Helvetica,sans-Serif" font-size="10.00">+ cslice()</text>
</a>
</g>
</g>
<!-- Node13&#45;&gt;Node9 -->
<g id="edge14" class="edge"><title>Node13&#45;&gt;Node9</title>
<path fill="none" stroke="#404040" d="M498.73,-585.724C487.031,-530.703 472.469,-462.215 463.081,-418.061"/>
<polygon fill="none" stroke="#404040" points="463.073,-418.021 457.912,-412.984 460.577,-406.284 465.737,-411.321 463.073,-418.021"/>
<text text-anchor="middle" x="510.5" y="-510" font-family="Helvetica,sans-Serif" font-size="10.00"> &#45;addresses</text>
</g>
<!-- Node14 -->
<g id="node14" class="node"><title>Node14</title>
<g id="a_node14"><a xlink:href="../../d7/d0f/classMIDIAddress.html" target="_top" xlink:title="A type&#45;safe utility class for saving a MIDI address consisting of a 7&#45;bit address,...">
<polygon fill="white" stroke="black" points="454,-872.5 454,-1138.5 583,-1138.5 583,-872.5 454,-872.5"/>
<text text-anchor="middle" x="518.5" y="-1126.5" font-family="Helvetica,sans-Serif" font-size="10.00">MIDIAddress</text>
<polyline fill="none" stroke="black" points="454,-1119.5 583,-1119.5 "/>
<text text-anchor="start" x="462" y="-1107.5" font-family="Helvetica,sans-Serif" font-size="10.00">&#45; addresses</text>
<polyline fill="none" stroke="black" points="454,-1100.5 583,-1100.5 "/>
<text text-anchor="start" x="462" y="-1088.5" font-family="Helvetica,sans-Serif" font-size="10.00">* MIDIAddress()</text>
<text text-anchor="start" x="462" y="-1077.5" font-family="Helvetica,sans-Serif" font-size="10.00">* MIDIAddress()</text>
<text text-anchor="start" x="462" y="-1066.5" font-family="Helvetica,sans-Serif" font-size="10.00">* MIDIAddress()</text>
<text text-anchor="start" x="462" y="-1055.5" font-family="Helvetica,sans-Serif" font-size="10.00">* MIDIAddress()</text>
<text text-anchor="start" x="462" y="-1044.5" font-family="Helvetica,sans-Serif" font-size="10.00">* MIDIAddress()</text>
<text text-anchor="start" x="462" y="-1033.5" font-family="Helvetica,sans-Serif" font-size="10.00">* invalid()</text>
<text text-anchor="start" x="462" y="-1022.5" font-family="Helvetica,sans-Serif" font-size="10.00">* operator+=()</text>
<text text-anchor="start" x="462" y="-1011.5" font-family="Helvetica,sans-Serif" font-size="10.00">* operator&#45;=()</text>
<text text-anchor="start" x="462" y="-1000.5" font-family="Helvetica,sans-Serif" font-size="10.00">* operator+()</text>
<text text-anchor="start" x="462" y="-989.5" font-family="Helvetica,sans-Serif" font-size="10.00">* operator&#45;()</text>
<text text-anchor="start" x="462" y="-978.5" font-family="Helvetica,sans-Serif" font-size="10.00">* getAddress()</text>
<text text-anchor="start" x="462" y="-967.5" font-family="Helvetica,sans-Serif" font-size="10.00">* getChannel()</text>
<text text-anchor="start" x="462" y="-956.5" font-family="Helvetica,sans-Serif" font-size="10.00">* getRawChannel()</text>
<text text-anchor="start" x="462" y="-945.5" font-family="Helvetica,sans-Serif" font-size="10.00">* getCableNumber()</text>
<text text-anchor="start" x="462" y="-934.5" font-family="Helvetica,sans-Serif" font-size="10.00">* operator==()</text>
<text text-anchor="start" x="462" y="-923.5" font-family="Helvetica,sans-Serif" font-size="10.00">* operator!=()</text>
<text text-anchor="start" x="462" y="-912.5" font-family="Helvetica,sans-Serif" font-size="10.00">* isValid()</text>
<text text-anchor="start" x="462" y="-901.5" font-family="Helvetica,sans-Serif" font-size="10.00">* operator bool()</text>
<text text-anchor="start" x="462" y="-890.5" font-family="Helvetica,sans-Serif" font-size="10.00">* matchSingle()</text>
<text text-anchor="start" x="462" y="-879.5" font-family="Helvetica,sans-Serif" font-size="10.00">* matchAddressInRange()</text>
</a>
</g>
</g>
<!-- Node14&#45;&gt;Node13 -->
<g id="edge15" class="edge"><title>Node14&#45;&gt;Node13</title>
<path fill="none" stroke="#404040" d="M518.098,-872.306C518,-840.341 517.898,-806.689 517.806,-776.453"/>
<polygon fill="none" stroke="#404040" points="517.805,-776.164 513.787,-770.176 517.768,-764.164 521.787,-770.151 517.805,-776.164"/>
<text text-anchor="middle" x="531.5" y="-840.5" font-family="Helvetica,sans-Serif" font-size="10.00"> +data</text>
</g>
</g>
</svg>
