<?xml version="1.0" encoding="UTF-8" standalone="no"?>
<!DOCTYPE svg PUBLIC "-//W3C//DTD SVG 1.1//EN"
 "http://www.w3.org/Graphics/SVG/1.1/DTD/svg11.dtd">
<!-- Generated by graphviz version 2.40.1 (20161225.0304)
 -->
<!-- Title: MIDI_MessageTypes.hpp Pages: 1 -->
<svg width="460pt" height="84pt"
 viewBox="0.00 0.00 460.00 84.00" xmlns="http://www.w3.org/2000/svg" xmlns:xlink="http://www.w3.org/1999/xlink">
<g id="graph0" class="graph" transform="scale(1 1) rotate(0) translate(4 80)">
<title>MIDI_MessageTypes.hpp</title>
<polygon fill="#ffffff" stroke="transparent" points="-4,4 -4,-80 456,-80 456,4 -4,4"/>
<!-- Node1 -->
<g id="node1" class="node">
<title>Node1</title>
<g id="a_node1"><a xlink:title=" ">
<polygon fill="#bfbfbf" stroke="#000000" points="231,-56.5 231,-75.5 360,-75.5 360,-56.5 231,-56.5"/>
<text text-anchor="middle" x="295.5" y="-63.5" font-family="Helvetica,sans-Serif" font-size="10.00" fill="#000000">MIDI_MessageTypes.hpp</text>
</a>
</g>
</g>
<!-- Node2 -->
<g id="node2" class="node">
<title>Node2</title>
<g id="a_node2"><a xlink:href="../../d1/d65/Warnings_8hpp.html" target="_top" xlink:title=" ">
<polygon fill="#ffffff" stroke="#000000" points="0,-.5 0,-19.5 133,-19.5 133,-.5 0,-.5"/>
<text text-anchor="middle" x="66.5" y="-7.5" font-family="Helvetica,sans-Serif" font-size="10.00" fill="#000000">AH/Settings/Warnings.hpp</text>
</a>
</g>
</g>
<!-- Node1&#45;&gt;Node2 -->
<g id="edge1" class="edge">
<title>Node1&#45;&gt;Node2</title>
<path fill="none" stroke="#191970" d="M256.3937,-56.4369C217.3668,-46.8932 157.3035,-32.2052 115.2038,-21.9101"/>
<polygon fill="#191970" stroke="#191970" points="115.9902,-18.4993 105.445,-19.5237 114.3274,-25.299 115.9902,-18.4993"/>
</g>
<!-- Node3 -->
<g id="node3" class="node">
<title>Node3</title>
<g id="a_node3"><a xlink:title=" ">
<polygon fill="#ffffff" stroke="#bfbfbf" points="151,-.5 151,-19.5 314,-19.5 314,-.5 151,-.5"/>
<text text-anchor="middle" x="232.5" y="-7.5" font-family="Helvetica,sans-Serif" font-size="10.00" fill="#000000">Settings/NamespaceSettings.hpp</text>
</a>
</g>
</g>
<!-- Node1&#45;&gt;Node3 -->
<g id="edge2" class="edge">
<title>Node1&#45;&gt;Node3</title>
<path fill="none" stroke="#191970" d="M284.5262,-56.2455C275.3118,-48.0549 261.9468,-36.1749 251.0703,-26.5069"/>
<polygon fill="#191970" stroke="#191970" points="253.1474,-23.6704 243.348,-19.6427 248.4968,-28.9023 253.1474,-23.6704"/>
</g>
<!-- Node4 -->
<g id="node4" class="node">
<title>Node4</title>
<g id="a_node4"><a xlink:title=" ">
<polygon fill="#ffffff" stroke="#bfbfbf" points="332.5,-.5 332.5,-19.5 384.5,-19.5 384.5,-.5 332.5,-.5"/>
<text text-anchor="middle" x="358.5" y="-7.5" font-family="Helvetica,sans-Serif" font-size="10.00" fill="#000000">stddef.h</text>
</a>
</g>
</g>
<!-- Node1&#45;&gt;Node4 -->
<g id="edge3" class="edge">
<title>Node1&#45;&gt;Node4</title>
<path fill="none" stroke="#191970" d="M306.4738,-56.2455C315.6882,-48.0549 329.0532,-36.1749 339.9297,-26.5069"/>
<polygon fill="#191970" stroke="#191970" points="342.5032,-28.9023 347.652,-19.6427 337.8526,-23.6704 342.5032,-28.9023"/>
</g>
<!-- Node5 -->
<g id="node5" class="node">
<title>Node5</title>
<g id="a_node5"><a xlink:title=" ">
<polygon fill="#ffffff" stroke="#bfbfbf" points="403,-.5 403,-19.5 452,-19.5 452,-.5 403,-.5"/>
<text text-anchor="middle" x="427.5" y="-7.5" font-family="Helvetica,sans-Serif" font-size="10.00" fill="#000000">stdint.h</text>
</a>
</g>
</g>
<!-- Node1&#45;&gt;Node5 -->
<g id="edge4" class="edge">
<title>Node1&#45;&gt;Node5</title>
<path fill="none" stroke="#191970" d="M318.1916,-56.3733C339.5711,-47.3032 371.8057,-33.6279 395.7362,-23.4755"/>
<polygon fill="#191970" stroke="#191970" points="397.2656,-26.6287 405.1045,-19.5011 394.5317,-20.1846 397.2656,-26.6287"/>
</g>
</g>
</svg>
