<?xml version="1.0" encoding="UTF-8" standalone="no"?>
<!DOCTYPE svg PUBLIC "-//W3C//DTD SVG 1.1//EN"
 "http://www.w3.org/Graphics/SVG/1.1/DTD/svg11.dtd">
<!-- Generated by graphviz version 2.43.0 (0)
 -->
<!-- Title: HairlessMIDI_Interface Pages: 1 -->
<svg width="755pt" height="1648pt"
 viewBox="0.00 0.00 754.50 1648.00" xmlns="http://www.w3.org/2000/svg" xmlns:xlink="http://www.w3.org/1999/xlink">
<g id="graph0" class="graph" transform="scale(1 1) rotate(0) translate(4 1644)">
<title>HairlessMIDI_Interface</title>
<polygon fill="white" stroke="transparent" points="-4,4 -4,-1644 750.5,-1644 750.5,4 -4,4"/>
<!-- Node1 -->
<g id="node1" class="node">
<title>Node1</title>
<g id="a_node1"><a xlink:title="A class for MIDI Interfaces sending and receiving data over the USB Serial CDC connection for the use...">
<polygon fill="#bfbfbf" stroke="black" points="381.5,-0.5 381.5,-57.5 527.5,-57.5 527.5,-0.5 381.5,-0.5"/>
<text text-anchor="middle" x="454.5" y="-45.5" font-family="Helvetica,sans-Serif" font-size="10.00">HairlessMIDI_Interface</text>
<polyline fill="none" stroke="black" points="381.5,-38.5 527.5,-38.5 "/>
<text text-anchor="middle" x="454.5" y="-26.5" font-family="Helvetica,sans-Serif" font-size="10.00"> </text>
<polyline fill="none" stroke="black" points="381.5,-19.5 527.5,-19.5 "/>
<text text-anchor="start" x="389.5" y="-7.5" font-family="Helvetica,sans-Serif" font-size="10.00">+ HairlessMIDI_Interface()</text>
</a>
</g>
</g>
<!-- Node2 -->
<g id="node2" class="node">
<title>Node2</title>
<g id="a_node2"><a xlink:href="../../d8/d57/classUSBSerialMIDI__Interface.html" target="_top" xlink:title="A class for MIDI interfaces sending and receiving MIDI messages over the Serial port of the USB conne...">
<polygon fill="white" stroke="black" points="377,-94.5 377,-151.5 532,-151.5 532,-94.5 377,-94.5"/>
<text text-anchor="middle" x="454.5" y="-139.5" font-family="Helvetica,sans-Serif" font-size="10.00">USBSerialMIDI_Interface</text>
<polyline fill="none" stroke="black" points="377,-132.5 532,-132.5 "/>
<text text-anchor="middle" x="454.5" y="-120.5" font-family="Helvetica,sans-Serif" font-size="10.00"> </text>
<polyline fill="none" stroke="black" points="377,-113.5 532,-113.5 "/>
<text text-anchor="start" x="385" y="-101.5" font-family="Helvetica,sans-Serif" font-size="10.00">+ USBSerialMIDI_Interface()</text>
</a>
</g>
</g>
<!-- Node2&#45;&gt;Node1 -->
<g id="edge1" class="edge">
<title>Node2&#45;&gt;Node1</title>
<path fill="none" stroke="midnightblue" d="M454.5,-84.21C454.5,-75.29 454.5,-65.95 454.5,-57.58"/>
<polygon fill="none" stroke="midnightblue" points="451,-84.4 454.5,-94.4 458,-84.4 451,-84.4"/>
</g>
<!-- Node3 -->
<g id="node3" class="node">
<title>Node3</title>
<g id="a_node3"><a xlink:href="../../d9/db8/classSerialMIDI__Interface.html" target="_top" xlink:title=" ">
<polygon fill="white" stroke="black" points="387.5,-188.5 387.5,-267.5 521.5,-267.5 521.5,-188.5 387.5,-188.5"/>
<text text-anchor="start" x="395.5" y="-255.5" font-family="Helvetica,sans-Serif" font-size="10.00">SerialMIDI_Interface</text>
<text text-anchor="middle" x="454.5" y="-244.5" font-family="Helvetica,sans-Serif" font-size="10.00">&lt; decltype(Serial)&gt;</text>
<polyline fill="none" stroke="black" points="387.5,-237.5 521.5,-237.5 "/>
<text text-anchor="start" x="395.5" y="-225.5" font-family="Helvetica,sans-Serif" font-size="10.00">&#45; baud</text>
<polyline fill="none" stroke="black" points="387.5,-218.5 521.5,-218.5 "/>
<text text-anchor="start" x="395.5" y="-206.5" font-family="Helvetica,sans-Serif" font-size="10.00">+ SerialMIDI_Interface()</text>
<text text-anchor="start" x="395.5" y="-195.5" font-family="Helvetica,sans-Serif" font-size="10.00">+ begin()</text>
</a>
</g>
</g>
<!-- Node3&#45;&gt;Node2 -->
<g id="edge2" class="edge">
<title>Node3&#45;&gt;Node2</title>
<path fill="none" stroke="midnightblue" d="M454.5,-178.16C454.5,-169.04 454.5,-159.81 454.5,-151.61"/>
<polygon fill="none" stroke="midnightblue" points="451,-178.35 454.5,-188.35 458,-178.35 451,-178.35"/>
</g>
<!-- Node4 -->
<g id="node4" class="node">
<title>Node4</title>
<g id="a_node4"><a xlink:href="../../d3/dc3/classStreamMIDI__Interface.html" target="_top" xlink:title="A class for MIDI interfaces sending and receiving MIDI messages over a Stream.">
<polygon fill="white" stroke="black" points="372.5,-304.5 372.5,-515.5 536.5,-515.5 536.5,-304.5 372.5,-304.5"/>
<text text-anchor="middle" x="454.5" y="-503.5" font-family="Helvetica,sans-Serif" font-size="10.00">StreamMIDI_Interface</text>
<polyline fill="none" stroke="black" points="372.5,-496.5 536.5,-496.5 "/>
<text text-anchor="start" x="380.5" y="-484.5" font-family="Helvetica,sans-Serif" font-size="10.00"># stream</text>
<text text-anchor="start" x="380.5" y="-473.5" font-family="Helvetica,sans-Serif" font-size="10.00"># parser</text>
<polyline fill="none" stroke="black" points="372.5,-466.5 536.5,-466.5 "/>
<text text-anchor="start" x="380.5" y="-454.5" font-family="Helvetica,sans-Serif" font-size="10.00">+ StreamMIDI_Interface()</text>
<text text-anchor="start" x="380.5" y="-443.5" font-family="Helvetica,sans-Serif" font-size="10.00">+ read()</text>
<text text-anchor="start" x="380.5" y="-432.5" font-family="Helvetica,sans-Serif" font-size="10.00">+ getChannelMessage()</text>
<text text-anchor="start" x="380.5" y="-421.5" font-family="Helvetica,sans-Serif" font-size="10.00">+ getSysCommonMessage()</text>
<text text-anchor="start" x="380.5" y="-410.5" font-family="Helvetica,sans-Serif" font-size="10.00">+ getRealTimeMessage()</text>
<text text-anchor="start" x="380.5" y="-399.5" font-family="Helvetica,sans-Serif" font-size="10.00">+ getSysExMessage()</text>
<text text-anchor="start" x="380.5" y="-388.5" font-family="Helvetica,sans-Serif" font-size="10.00">+ update()</text>
<text text-anchor="start" x="380.5" y="-377.5" font-family="Helvetica,sans-Serif" font-size="10.00"># dispatchMIDIEvent()</text>
<text text-anchor="start" x="380.5" y="-366.5" font-family="Helvetica,sans-Serif" font-size="10.00"># sendChannelMessageImpl()</text>
<text text-anchor="start" x="380.5" y="-355.5" font-family="Helvetica,sans-Serif" font-size="10.00"># sendSysCommonImpl()</text>
<text text-anchor="start" x="380.5" y="-344.5" font-family="Helvetica,sans-Serif" font-size="10.00"># sendSysExImpl()</text>
<text text-anchor="start" x="380.5" y="-333.5" font-family="Helvetica,sans-Serif" font-size="10.00"># sendRealTimeImpl()</text>
<text text-anchor="start" x="380.5" y="-322.5" font-family="Helvetica,sans-Serif" font-size="10.00"># sendNowImpl()</text>
<text text-anchor="start" x="380.5" y="-311.5" font-family="Helvetica,sans-Serif" font-size="10.00">&#45; handleStall()</text>
</a>
</g>
</g>
<!-- Node4&#45;&gt;Node3 -->
<g id="edge3" class="edge">
<title>Node4&#45;&gt;Node3</title>
<path fill="none" stroke="midnightblue" d="M454.5,-294.05C454.5,-284.73 454.5,-275.8 454.5,-267.7"/>
<polygon fill="none" stroke="midnightblue" points="451,-294.29 454.5,-304.29 458,-294.29 451,-294.29"/>
</g>
<!-- Node5 -->
<g id="node5" class="node">
<title>Node5</title>
<g id="a_node5"><a xlink:href="../../d9/d73/classMIDI__Interface.html" target="_top" xlink:title="An abstract class for MIDI interfaces.">
<polygon fill="white" stroke="black" points="372.5,-552.5 372.5,-862.5 536.5,-862.5 536.5,-552.5 372.5,-552.5"/>
<text text-anchor="middle" x="454.5" y="-850.5" font-family="Helvetica,sans-Serif" font-size="10.00">MIDI_Interface</text>
<polyline fill="none" stroke="black" points="372.5,-843.5 536.5,-843.5 "/>
<text text-anchor="start" x="380.5" y="-831.5" font-family="Helvetica,sans-Serif" font-size="10.00">&#45; callbacks</text>
<text text-anchor="start" x="380.5" y="-820.5" font-family="Helvetica,sans-Serif" font-size="10.00">&#45; DefaultMIDI_Interface</text>
<polyline fill="none" stroke="black" points="372.5,-813.5 536.5,-813.5 "/>
<text text-anchor="start" x="380.5" y="-801.5" font-family="Helvetica,sans-Serif" font-size="10.00">+ ~MIDI_Interface()</text>
<text text-anchor="start" x="380.5" y="-790.5" font-family="Helvetica,sans-Serif" font-size="10.00">+ begin()</text>
<text text-anchor="start" x="380.5" y="-779.5" font-family="Helvetica,sans-Serif" font-size="10.00">+ update()</text>
<text text-anchor="start" x="380.5" y="-768.5" font-family="Helvetica,sans-Serif" font-size="10.00"># MIDI_Interface()</text>
<text text-anchor="start" x="380.5" y="-757.5" font-family="Helvetica,sans-Serif" font-size="10.00"># MIDI_Interface()</text>
<text text-anchor="start" x="380.5" y="-746.5" font-family="Helvetica,sans-Serif" font-size="10.00"># sendChannelMessageImpl()</text>
<text text-anchor="start" x="380.5" y="-735.5" font-family="Helvetica,sans-Serif" font-size="10.00"># sendSysCommonImpl()</text>
<text text-anchor="start" x="380.5" y="-724.5" font-family="Helvetica,sans-Serif" font-size="10.00"># sendSysExImpl()</text>
<text text-anchor="start" x="380.5" y="-713.5" font-family="Helvetica,sans-Serif" font-size="10.00"># sendRealTimeImpl()</text>
<text text-anchor="start" x="380.5" y="-702.5" font-family="Helvetica,sans-Serif" font-size="10.00"># sendNowImpl()</text>
<text text-anchor="start" x="380.5" y="-691.5" font-family="Helvetica,sans-Serif" font-size="10.00"># sinkMIDIfromPipe()</text>
<text text-anchor="start" x="380.5" y="-680.5" font-family="Helvetica,sans-Serif" font-size="10.00"># sinkMIDIfromPipe()</text>
<text text-anchor="start" x="380.5" y="-669.5" font-family="Helvetica,sans-Serif" font-size="10.00"># sinkMIDIfromPipe()</text>
<text text-anchor="start" x="380.5" y="-658.5" font-family="Helvetica,sans-Serif" font-size="10.00"># onChannelMessage()</text>
<text text-anchor="start" x="380.5" y="-647.5" font-family="Helvetica,sans-Serif" font-size="10.00"># onSysExMessage()</text>
<text text-anchor="start" x="380.5" y="-636.5" font-family="Helvetica,sans-Serif" font-size="10.00"># onRealTimeMessage()</text>
<text text-anchor="start" x="380.5" y="-625.5" font-family="Helvetica,sans-Serif" font-size="10.00"># updateIncoming()</text>
<text text-anchor="start" x="380.5" y="-614.5" font-family="Helvetica,sans-Serif" font-size="10.00"># dispatchIncoming()</text>
<text text-anchor="start" x="380.5" y="-603.5" font-family="Helvetica,sans-Serif" font-size="10.00"># handleStall()</text>
<text text-anchor="start" x="380.5" y="-592.5" font-family="Helvetica,sans-Serif" font-size="10.00">* setAsDefault()</text>
<text text-anchor="start" x="380.5" y="-581.5" font-family="Helvetica,sans-Serif" font-size="10.00">* getDefault()</text>
<text text-anchor="start" x="380.5" y="-570.5" font-family="Helvetica,sans-Serif" font-size="10.00">* setCallbacks()</text>
<text text-anchor="start" x="380.5" y="-559.5" font-family="Helvetica,sans-Serif" font-size="10.00">* setCallbacks()</text>
</a>
</g>
</g>
<!-- Node5&#45;&gt;Node4 -->
<g id="edge4" class="edge">
<title>Node5&#45;&gt;Node4</title>
<path fill="none" stroke="midnightblue" d="M454.5,-542.18C454.5,-533.27 454.5,-524.45 454.5,-515.84"/>
<polygon fill="none" stroke="midnightblue" points="451,-542.26 454.5,-552.26 458,-542.26 451,-542.26"/>
</g>
<!-- Node6 -->
<g id="node6" class="node">
<title>Node6</title>
<g id="a_node6"><a xlink:href="../../d0/dc3/structTrueMIDI__SinkSource.html" target="_top" xlink:title="A struct that is both a TrueMIDI_Sink and a TrueMIDI_Source.">
<polygon fill="white" stroke="black" points="139,-998.5 139,-1055.5 258,-1055.5 258,-998.5 139,-998.5"/>
<text text-anchor="middle" x="198.5" y="-1043.5" font-family="Helvetica,sans-Serif" font-size="10.00">TrueMIDI_SinkSource</text>
<polyline fill="none" stroke="black" points="139,-1036.5 258,-1036.5 "/>
<text text-anchor="middle" x="198.5" y="-1024.5" font-family="Helvetica,sans-Serif" font-size="10.00"> </text>
<polyline fill="none" stroke="black" points="139,-1017.5 258,-1017.5 "/>
<text text-anchor="middle" x="198.5" y="-1005.5" font-family="Helvetica,sans-Serif" font-size="10.00"> </text>
</a>
</g>
</g>
<!-- Node6&#45;&gt;Node5 -->
<g id="edge5" class="edge">
<title>Node6&#45;&gt;Node5</title>
<path fill="none" stroke="midnightblue" d="M215.1,-989.2C227.74,-962.94 246.5,-927.39 267.5,-899 298.23,-857.46 337.67,-815.96 372.39,-782.36"/>
<polygon fill="none" stroke="midnightblue" points="211.85,-987.89 210.73,-998.43 218.17,-990.89 211.85,-987.89"/>
</g>
<!-- Node7 -->
<g id="node7" class="node">
<title>Node7</title>
<g id="a_node7"><a xlink:href="../../d9/db6/classMIDI__Sink.html" target="_top" xlink:title="Receives MIDI messages from a MIDI pipe.">
<polygon fill="white" stroke="black" points="0,-1224.5 0,-1490.5 181,-1490.5 181,-1224.5 0,-1224.5"/>
<text text-anchor="middle" x="90.5" y="-1478.5" font-family="Helvetica,sans-Serif" font-size="10.00">TrueMIDI_Sink</text>
<polyline fill="none" stroke="black" points="0,-1471.5 181,-1471.5 "/>
<text text-anchor="start" x="8" y="-1459.5" font-family="Helvetica,sans-Serif" font-size="10.00"># sourcePipe</text>
<polyline fill="none" stroke="black" points="0,-1452.5 181,-1452.5 "/>
<text text-anchor="start" x="8" y="-1440.5" font-family="Helvetica,sans-Serif" font-size="10.00">+ MIDI_Sink()</text>
<text text-anchor="start" x="8" y="-1429.5" font-family="Helvetica,sans-Serif" font-size="10.00">+ MIDI_Sink()</text>
<text text-anchor="start" x="8" y="-1418.5" font-family="Helvetica,sans-Serif" font-size="10.00">+ operator=()</text>
<text text-anchor="start" x="8" y="-1407.5" font-family="Helvetica,sans-Serif" font-size="10.00">+ MIDI_Sink()</text>
<text text-anchor="start" x="8" y="-1396.5" font-family="Helvetica,sans-Serif" font-size="10.00">+ operator=()</text>
<text text-anchor="start" x="8" y="-1385.5" font-family="Helvetica,sans-Serif" font-size="10.00">+ ~MIDI_Sink()</text>
<text text-anchor="start" x="8" y="-1374.5" font-family="Helvetica,sans-Serif" font-size="10.00">+ swap()</text>
<text text-anchor="start" x="8" y="-1363.5" font-family="Helvetica,sans-Serif" font-size="10.00">&#45; stallDownstream()</text>
<text text-anchor="start" x="8" y="-1352.5" font-family="Helvetica,sans-Serif" font-size="10.00">&#45; unstallDownstream()</text>
<text text-anchor="start" x="8" y="-1341.5" font-family="Helvetica,sans-Serif" font-size="10.00">&#45; getFinalSink()</text>
<text text-anchor="start" x="8" y="-1330.5" font-family="Helvetica,sans-Serif" font-size="10.00">&#45; disconnectSourcePipesShallow()</text>
<text text-anchor="start" x="8" y="-1319.5" font-family="Helvetica,sans-Serif" font-size="10.00">* sinkMIDIfromPipe()</text>
<text text-anchor="start" x="8" y="-1308.5" font-family="Helvetica,sans-Serif" font-size="10.00">* sinkMIDIfromPipe()</text>
<text text-anchor="start" x="8" y="-1297.5" font-family="Helvetica,sans-Serif" font-size="10.00">* sinkMIDIfromPipe()</text>
<text text-anchor="start" x="8" y="-1286.5" font-family="Helvetica,sans-Serif" font-size="10.00">* connectSourcePipe()</text>
<text text-anchor="start" x="8" y="-1275.5" font-family="Helvetica,sans-Serif" font-size="10.00">* disconnectSourcePipes()</text>
<text text-anchor="start" x="8" y="-1264.5" font-family="Helvetica,sans-Serif" font-size="10.00">* disconnect()</text>
<text text-anchor="start" x="8" y="-1253.5" font-family="Helvetica,sans-Serif" font-size="10.00">* disconnect()</text>
<text text-anchor="start" x="8" y="-1242.5" font-family="Helvetica,sans-Serif" font-size="10.00">* hasSourcePipe()</text>
<text text-anchor="start" x="8" y="-1231.5" font-family="Helvetica,sans-Serif" font-size="10.00">* getSourcePipe()</text>
</a>
</g>
</g>
<!-- Node7&#45;&gt;Node6 -->
<g id="edge6" class="edge">
<title>Node7&#45;&gt;Node6</title>
<path fill="none" stroke="midnightblue" d="M137.1,-1214.76C156.75,-1155 177.72,-1091.19 189.37,-1055.78"/>
<polygon fill="none" stroke="midnightblue" points="133.76,-1213.71 133.96,-1224.31 140.41,-1215.9 133.76,-1213.71"/>
</g>
<!-- Node8 -->
<g id="node8" class="node">
<title>Node8</title>
<g id="a_node8"><a xlink:href="../../df/d5b/classMIDI__Source.html" target="_top" xlink:title="Class that can send MIDI messages to a MIDI pipe.">
<polygon fill="white" stroke="black" points="199,-1191.5 199,-1523.5 368,-1523.5 368,-1191.5 199,-1191.5"/>
<text text-anchor="middle" x="283.5" y="-1511.5" font-family="Helvetica,sans-Serif" font-size="10.00">TrueMIDI_Source</text>
<polyline fill="none" stroke="black" points="199,-1504.5 368,-1504.5 "/>
<text text-anchor="start" x="207" y="-1492.5" font-family="Helvetica,sans-Serif" font-size="10.00"># sinkPipe</text>
<polyline fill="none" stroke="black" points="199,-1485.5 368,-1485.5 "/>
<text text-anchor="start" x="207" y="-1473.5" font-family="Helvetica,sans-Serif" font-size="10.00">+ MIDI_Source()</text>
<text text-anchor="start" x="207" y="-1462.5" font-family="Helvetica,sans-Serif" font-size="10.00">+ MIDI_Source()</text>
<text text-anchor="start" x="207" y="-1451.5" font-family="Helvetica,sans-Serif" font-size="10.00">+ operator=()</text>
<text text-anchor="start" x="207" y="-1440.5" font-family="Helvetica,sans-Serif" font-size="10.00">+ MIDI_Source()</text>
<text text-anchor="start" x="207" y="-1429.5" font-family="Helvetica,sans-Serif" font-size="10.00">+ operator=()</text>
<text text-anchor="start" x="207" y="-1418.5" font-family="Helvetica,sans-Serif" font-size="10.00">+ ~MIDI_Source()</text>
<text text-anchor="start" x="207" y="-1407.5" font-family="Helvetica,sans-Serif" font-size="10.00">+ swap()</text>
<text text-anchor="start" x="207" y="-1396.5" font-family="Helvetica,sans-Serif" font-size="10.00">&#45; stallUpstream()</text>
<text text-anchor="start" x="207" y="-1385.5" font-family="Helvetica,sans-Serif" font-size="10.00">&#45; unstallUpstream()</text>
<text text-anchor="start" x="207" y="-1374.5" font-family="Helvetica,sans-Serif" font-size="10.00">&#45; getInitialSource()</text>
<text text-anchor="start" x="207" y="-1363.5" font-family="Helvetica,sans-Serif" font-size="10.00">&#45; disconnectSinkPipesShallow()</text>
<text text-anchor="start" x="207" y="-1352.5" font-family="Helvetica,sans-Serif" font-size="10.00">* sourceMIDItoPipe()</text>
<text text-anchor="start" x="207" y="-1341.5" font-family="Helvetica,sans-Serif" font-size="10.00">* sourceMIDItoPipe()</text>
<text text-anchor="start" x="207" y="-1330.5" font-family="Helvetica,sans-Serif" font-size="10.00">* sourceMIDItoPipe()</text>
<text text-anchor="start" x="207" y="-1319.5" font-family="Helvetica,sans-Serif" font-size="10.00">* stall()</text>
<text text-anchor="start" x="207" y="-1308.5" font-family="Helvetica,sans-Serif" font-size="10.00">* unstall()</text>
<text text-anchor="start" x="207" y="-1297.5" font-family="Helvetica,sans-Serif" font-size="10.00">* isStalled()</text>
<text text-anchor="start" x="207" y="-1286.5" font-family="Helvetica,sans-Serif" font-size="10.00">* getStaller()</text>
<text text-anchor="start" x="207" y="-1275.5" font-family="Helvetica,sans-Serif" font-size="10.00">* getStallerName()</text>
<text text-anchor="start" x="207" y="-1264.5" font-family="Helvetica,sans-Serif" font-size="10.00">* handleStallers()</text>
<text text-anchor="start" x="207" y="-1253.5" font-family="Helvetica,sans-Serif" font-size="10.00">* connectSinkPipe()</text>
<text text-anchor="start" x="207" y="-1242.5" font-family="Helvetica,sans-Serif" font-size="10.00">* disconnectSinkPipes()</text>
<text text-anchor="start" x="207" y="-1231.5" font-family="Helvetica,sans-Serif" font-size="10.00">* disconnect()</text>
<text text-anchor="start" x="207" y="-1220.5" font-family="Helvetica,sans-Serif" font-size="10.00">* disconnect()</text>
<text text-anchor="start" x="207" y="-1209.5" font-family="Helvetica,sans-Serif" font-size="10.00">* hasSinkPipe()</text>
<text text-anchor="start" x="207" y="-1198.5" font-family="Helvetica,sans-Serif" font-size="10.00">* getSinkPipe()</text>
</a>
</g>
</g>
<!-- Node8&#45;&gt;Node6 -->
<g id="edge7" class="edge">
<title>Node8&#45;&gt;Node6</title>
<path fill="none" stroke="midnightblue" d="M238.2,-1181.44C225.48,-1132.25 213.08,-1084.37 205.62,-1055.52"/>
<polygon fill="none" stroke="midnightblue" points="234.86,-1182.48 240.75,-1191.29 241.63,-1180.73 234.86,-1182.48"/>
</g>
<!-- Node9 -->
<g id="node9" class="node">
<title>Node9</title>
<g id="a_node9"><a xlink:href="../../d6/d72/classMIDI__Sender.html" target="_top" xlink:title=" ">
<polygon fill="white" stroke="black" points="276.5,-899.5 276.5,-1154.5 448.5,-1154.5 448.5,-899.5 276.5,-899.5"/>
<text text-anchor="middle" x="362.5" y="-1142.5" font-family="Helvetica,sans-Serif" font-size="10.00">MIDI_Sender&lt; MIDI_Interface &gt;</text>
<polyline fill="none" stroke="black" points="276.5,-1135.5 448.5,-1135.5 "/>
<text text-anchor="middle" x="362.5" y="-1123.5" font-family="Helvetica,sans-Serif" font-size="10.00"> </text>
<polyline fill="none" stroke="black" points="276.5,-1116.5 448.5,-1116.5 "/>
<text text-anchor="start" x="284.5" y="-1104.5" font-family="Helvetica,sans-Serif" font-size="10.00">* send()</text>
<text text-anchor="start" x="284.5" y="-1093.5" font-family="Helvetica,sans-Serif" font-size="10.00">* send()</text>
<text text-anchor="start" x="284.5" y="-1082.5" font-family="Helvetica,sans-Serif" font-size="10.00">* send()</text>
<text text-anchor="start" x="284.5" y="-1071.5" font-family="Helvetica,sans-Serif" font-size="10.00">* send()</text>
<text text-anchor="start" x="284.5" y="-1060.5" font-family="Helvetica,sans-Serif" font-size="10.00">* send()</text>
<text text-anchor="start" x="284.5" y="-1049.5" font-family="Helvetica,sans-Serif" font-size="10.00">* send()</text>
<text text-anchor="start" x="284.5" y="-1038.5" font-family="Helvetica,sans-Serif" font-size="10.00">* sendNoteOn()</text>
<text text-anchor="start" x="284.5" y="-1027.5" font-family="Helvetica,sans-Serif" font-size="10.00">* sendNoteOff()</text>
<text text-anchor="start" x="284.5" y="-1016.5" font-family="Helvetica,sans-Serif" font-size="10.00">* sendKP()</text>
<text text-anchor="start" x="284.5" y="-1005.5" font-family="Helvetica,sans-Serif" font-size="10.00">* sendCC()</text>
<text text-anchor="start" x="284.5" y="-994.5" font-family="Helvetica,sans-Serif" font-size="10.00">* sendPC()</text>
<text text-anchor="start" x="284.5" y="-983.5" font-family="Helvetica,sans-Serif" font-size="10.00">* sendPC()</text>
<text text-anchor="start" x="284.5" y="-972.5" font-family="Helvetica,sans-Serif" font-size="10.00">* sendCP()</text>
<text text-anchor="start" x="284.5" y="-961.5" font-family="Helvetica,sans-Serif" font-size="10.00">* sendPB()</text>
<text text-anchor="start" x="284.5" y="-950.5" font-family="Helvetica,sans-Serif" font-size="10.00">* sendSysEx()</text>
<text text-anchor="start" x="284.5" y="-939.5" font-family="Helvetica,sans-Serif" font-size="10.00">* sendSysEx()</text>
<text text-anchor="start" x="284.5" y="-928.5" font-family="Helvetica,sans-Serif" font-size="10.00">* sendRealTime()</text>
<text text-anchor="start" x="284.5" y="-917.5" font-family="Helvetica,sans-Serif" font-size="10.00">* sendRealTime()</text>
<text text-anchor="start" x="284.5" y="-906.5" font-family="Helvetica,sans-Serif" font-size="10.00">* sendNow()</text>
</a>
</g>
</g>
<!-- Node9&#45;&gt;Node5 -->
<g id="edge8" class="edge">
<title>Node9&#45;&gt;Node5</title>
<path fill="none" stroke="midnightblue" d="M402.04,-889.53C404.62,-880.63 407.23,-871.64 409.83,-862.66"/>
<polygon fill="none" stroke="midnightblue" points="398.68,-888.57 399.26,-899.15 405.4,-890.52 398.68,-888.57"/>
</g>
<!-- Node10 -->
<g id="node10" class="node">
<title>Node10</title>
<g id="a_node10"><a xlink:href="../../d1/d55/classAH_1_1Updatable.html" target="_top" xlink:title=" ">
<polygon fill="white" stroke="black" points="467,-982 467,-1072 628,-1072 628,-982 467,-982"/>
<text text-anchor="middle" x="547.5" y="-1060" font-family="Helvetica,sans-Serif" font-size="10.00">Updatable&lt; MIDI_Interface &gt;</text>
<polyline fill="none" stroke="black" points="467,-1053 628,-1053 "/>
<text text-anchor="middle" x="547.5" y="-1041" font-family="Helvetica,sans-Serif" font-size="10.00"> </text>
<polyline fill="none" stroke="black" points="467,-1034 628,-1034 "/>
<text text-anchor="start" x="475" y="-1022" font-family="Helvetica,sans-Serif" font-size="10.00">* begin()</text>
<text text-anchor="start" x="475" y="-1011" font-family="Helvetica,sans-Serif" font-size="10.00">* update()</text>
<text text-anchor="start" x="475" y="-1000" font-family="Helvetica,sans-Serif" font-size="10.00">* beginAll()</text>
<text text-anchor="start" x="475" y="-989" font-family="Helvetica,sans-Serif" font-size="10.00">* updateAll()</text>
</a>
</g>
</g>
<!-- Node10&#45;&gt;Node5 -->
<g id="edge9" class="edge">
<title>Node10&#45;&gt;Node5</title>
<path fill="none" stroke="midnightblue" d="M531.66,-971.92C522.76,-941.54 511.16,-901.95 499.67,-862.72"/>
<polygon fill="none" stroke="midnightblue" points="528.4,-973.24 534.57,-981.85 535.12,-971.27 528.4,-973.24"/>
</g>
<!-- Node11 -->
<g id="node11" class="node">
<title>Node11</title>
<g id="a_node11"><a xlink:href="../../d8/d1a/classAH_1_1UpdatableCRTP.html" target="_top" xlink:title=" ">
<polygon fill="white" stroke="black" points="471,-1213.5 471,-1501.5 624,-1501.5 624,-1213.5 471,-1213.5"/>
<text text-anchor="start" x="479" y="-1489.5" font-family="Helvetica,sans-Serif" font-size="10.00">UpdatableCRTP&lt; Updatable</text>
<text text-anchor="start" x="479" y="-1478.5" font-family="Helvetica,sans-Serif" font-size="10.00">&lt; MIDI_Interface, false</text>
<text text-anchor="middle" x="547.5" y="-1467.5" font-family="Helvetica,sans-Serif" font-size="10.00"> &gt;, false &gt;</text>
<polyline fill="none" stroke="black" points="471,-1460.5 624,-1460.5 "/>
<text text-anchor="start" x="479" y="-1448.5" font-family="Helvetica,sans-Serif" font-size="10.00"># updatables</text>
<text text-anchor="start" x="479" y="-1437.5" font-family="Helvetica,sans-Serif" font-size="10.00"># mutex</text>
<polyline fill="none" stroke="black" points="471,-1430.5 624,-1430.5 "/>
<text text-anchor="start" x="479" y="-1418.5" font-family="Helvetica,sans-Serif" font-size="10.00">+ ~UpdatableCRTP()</text>
<text text-anchor="start" x="479" y="-1407.5" font-family="Helvetica,sans-Serif" font-size="10.00">+ getMutex()</text>
<text text-anchor="start" x="479" y="-1396.5" font-family="Helvetica,sans-Serif" font-size="10.00"># UpdatableCRTP()</text>
<text text-anchor="start" x="479" y="-1385.5" font-family="Helvetica,sans-Serif" font-size="10.00">* enable()</text>
<text text-anchor="start" x="479" y="-1374.5" font-family="Helvetica,sans-Serif" font-size="10.00">* enable()</text>
<text text-anchor="start" x="479" y="-1363.5" font-family="Helvetica,sans-Serif" font-size="10.00">* disable()</text>
<text text-anchor="start" x="479" y="-1352.5" font-family="Helvetica,sans-Serif" font-size="10.00">* disable()</text>
<text text-anchor="start" x="479" y="-1341.5" font-family="Helvetica,sans-Serif" font-size="10.00">* isEnabled()</text>
<text text-anchor="start" x="479" y="-1330.5" font-family="Helvetica,sans-Serif" font-size="10.00">* isEnabled()</text>
<text text-anchor="start" x="479" y="-1319.5" font-family="Helvetica,sans-Serif" font-size="10.00">* moveDown()</text>
<text text-anchor="start" x="479" y="-1308.5" font-family="Helvetica,sans-Serif" font-size="10.00">* moveDown()</text>
<text text-anchor="start" x="479" y="-1297.5" font-family="Helvetica,sans-Serif" font-size="10.00">* enable()</text>
<text text-anchor="start" x="479" y="-1286.5" font-family="Helvetica,sans-Serif" font-size="10.00">* enable()</text>
<text text-anchor="start" x="479" y="-1275.5" font-family="Helvetica,sans-Serif" font-size="10.00">* enable()</text>
<text text-anchor="start" x="479" y="-1264.5" font-family="Helvetica,sans-Serif" font-size="10.00">* disable()</text>
<text text-anchor="start" x="479" y="-1253.5" font-family="Helvetica,sans-Serif" font-size="10.00">* disable()</text>
<text text-anchor="start" x="479" y="-1242.5" font-family="Helvetica,sans-Serif" font-size="10.00">* disable()</text>
<text text-anchor="start" x="479" y="-1231.5" font-family="Helvetica,sans-Serif" font-size="10.00">* applyToAll()</text>
<text text-anchor="start" x="479" y="-1220.5" font-family="Helvetica,sans-Serif" font-size="10.00">* applyToAll()</text>
</a>
</g>
</g>
<!-- Node11&#45;&gt;Node10 -->
<g id="edge10" class="edge">
<title>Node11&#45;&gt;Node10</title>
<path fill="none" stroke="midnightblue" d="M547.5,-1203.18C547.5,-1155.3 547.5,-1106.18 547.5,-1072.18"/>
<polygon fill="none" stroke="midnightblue" points="544,-1203.37 547.5,-1213.37 551,-1203.37 544,-1203.37"/>
</g>
<!-- Node12 -->
<g id="node12" class="node">
<title>Node12</title>
<g id="a_node12"><a xlink:href="../../d4/d23/classDoublyLinkable.html" target="_top" xlink:title=" ">
<polygon fill="white" stroke="black" points="471,-1560.5 471,-1639.5 624,-1639.5 624,-1560.5 471,-1560.5"/>
<text text-anchor="start" x="479" y="-1627.5" font-family="Helvetica,sans-Serif" font-size="10.00">DoublyLinkable&lt; Updatable</text>
<text text-anchor="middle" x="547.5" y="-1616.5" font-family="Helvetica,sans-Serif" font-size="10.00">&lt; MIDI_Interface, false &gt; &gt;</text>
<polyline fill="none" stroke="black" points="471,-1609.5 624,-1609.5 "/>
<text text-anchor="start" x="479" y="-1597.5" font-family="Helvetica,sans-Serif" font-size="10.00"># next</text>
<text text-anchor="start" x="479" y="-1586.5" font-family="Helvetica,sans-Serif" font-size="10.00"># previous</text>
<polyline fill="none" stroke="black" points="471,-1579.5 624,-1579.5 "/>
<text text-anchor="start" x="479" y="-1567.5" font-family="Helvetica,sans-Serif" font-size="10.00"># ~DoublyLinkable()</text>
</a>
</g>
</g>
<!-- Node12&#45;&gt;Node11 -->
<g id="edge11" class="edge">
<title>Node12&#45;&gt;Node11</title>
<path fill="none" stroke="midnightblue" d="M547.5,-1550.21C547.5,-1535.71 547.5,-1519.03 547.5,-1501.69"/>
<polygon fill="none" stroke="midnightblue" points="544,-1550.36 547.5,-1560.36 551,-1550.36 544,-1550.36"/>
</g>
<!-- Node13 -->
<g id="node13" class="node">
<title>Node13</title>
<g id="a_node13"><a xlink:href="../../d4/d48/structMIDIStaller.html" target="_top" xlink:title="Struct that can cause a MIDI_Pipe to be stalled.">
<polygon fill="white" stroke="black" points="646.5,-982 646.5,-1072 746.5,-1072 746.5,-982 646.5,-982"/>
<text text-anchor="middle" x="696.5" y="-1060" font-family="Helvetica,sans-Serif" font-size="10.00">MIDIStaller</text>
<polyline fill="none" stroke="black" points="646.5,-1053 746.5,-1053 "/>
<text text-anchor="middle" x="696.5" y="-1041" font-family="Helvetica,sans-Serif" font-size="10.00"> </text>
<polyline fill="none" stroke="black" points="646.5,-1034 746.5,-1034 "/>
<text text-anchor="start" x="654.5" y="-1022" font-family="Helvetica,sans-Serif" font-size="10.00">+ ~MIDIStaller()</text>
<text text-anchor="start" x="654.5" y="-1011" font-family="Helvetica,sans-Serif" font-size="10.00">+ getName()</text>
<text text-anchor="start" x="654.5" y="-1000" font-family="Helvetica,sans-Serif" font-size="10.00">+ handleStall()</text>
<text text-anchor="start" x="654.5" y="-989" font-family="Helvetica,sans-Serif" font-size="10.00">+ getNameNull()</text>
</a>
</g>
</g>
<!-- Node13&#45;&gt;Node5 -->
<g id="edge12" class="edge">
<title>Node13&#45;&gt;Node5</title>
<path fill="none" stroke="darkgreen" d="M675.72,-972.34C665.5,-948.88 652.03,-921.61 636.5,-899 608.01,-857.53 570.4,-816.53 536.77,-783.24"/>
<polygon fill="none" stroke="darkgreen" points="672.61,-973.97 679.76,-981.8 679.05,-971.22 672.61,-973.97"/>
</g>
</g>
</svg>
