<?xml version="1.0" encoding="UTF-8" standalone="no"?>
<!DOCTYPE svg PUBLIC "-//W3C//DTD SVG 1.1//EN"
 "http://www.w3.org/Graphics/SVG/1.1/DTD/svg11.dtd">
<!-- Generated by graphviz version 2.43.0 (0)
 -->
<!-- Title: USBMIDI_Teensy2.hpp Pages: 1 -->
<svg width="1050pt" height="588pt"
 viewBox="0.00 0.00 1049.50 588.00" xmlns="http://www.w3.org/2000/svg" xmlns:xlink="http://www.w3.org/1999/xlink">
<g id="graph0" class="graph" transform="scale(1 1) rotate(0) translate(4 584)">
<title>USBMIDI_Teensy2.hpp</title>
<polygon fill="white" stroke="transparent" points="-4,4 -4,-584 1045.5,-584 1045.5,4 -4,4"/>
<!-- Node1 -->
<g id="node1" class="node">
<title>Node1</title>
<g id="a_node1"><a xlink:title=" ">
<polygon fill="#bfbfbf" stroke="black" points="554.5,-560.5 554.5,-579.5 679.5,-579.5 679.5,-560.5 554.5,-560.5"/>
<text text-anchor="middle" x="617" y="-567.5" font-family="Helvetica,sans-Serif" font-size="10.00">USBMIDI_Teensy2.hpp</text>
</a>
</g>
</g>
<!-- Node2 -->
<g id="node2" class="node">
<title>Node2</title>
<g id="a_node2"><a xlink:href="../../d9/d98/TeensyUSBTypes_8hpp.html" target="_top" xlink:title=" ">
<polygon fill="white" stroke="black" points="257.5,-280.5 257.5,-299.5 430.5,-299.5 430.5,-280.5 257.5,-280.5"/>
<text text-anchor="middle" x="344" y="-287.5" font-family="Helvetica,sans-Serif" font-size="10.00">AH/Teensy/TeensyUSBTypes.hpp</text>
</a>
</g>
</g>
<!-- Node1&#45;&gt;Node2 -->
<g id="edge1" class="edge">
<title>Node1&#45;&gt;Node2</title>
<path fill="none" stroke="midnightblue" d="M554.26,-562.75C492.07,-552.68 406,-526.54 406,-459 406,-459 406,-459 406,-401 406,-363.62 378.5,-327.24 360.13,-307.1"/>
<polygon fill="midnightblue" stroke="midnightblue" points="362.57,-304.59 353.15,-299.75 357.49,-309.41 362.57,-304.59"/>
</g>
<!-- Node3 -->
<g id="node3" class="node">
<title>Node3</title>
<g id="a_node3"><a xlink:href="../../de/d76/Array_8hpp.html" target="_top" xlink:title=" ">
<polygon fill="white" stroke="black" points="45.5,-504.5 45.5,-523.5 180.5,-523.5 180.5,-504.5 45.5,-504.5"/>
<text text-anchor="middle" x="113" y="-511.5" font-family="Helvetica,sans-Serif" font-size="10.00">AH/Containers/Array.hpp</text>
</a>
</g>
</g>
<!-- Node1&#45;&gt;Node3 -->
<g id="edge2" class="edge">
<title>Node1&#45;&gt;Node3</title>
<path fill="none" stroke="midnightblue" d="M554.44,-562.3C462.43,-552.44 290.74,-534.04 190.75,-523.33"/>
<polygon fill="midnightblue" stroke="midnightblue" points="191.02,-519.84 180.71,-522.25 190.28,-526.8 191.02,-519.84"/>
</g>
<!-- Node14 -->
<g id="node14" class="node">
<title>Node14</title>
<g id="a_node14"><a xlink:title=" ">
<polygon fill="white" stroke="#bfbfbf" points="726,-168.5 726,-187.5 904,-187.5 904,-168.5 726,-168.5"/>
<text text-anchor="middle" x="815" y="-175.5" font-family="Helvetica,sans-Serif" font-size="10.00">Settings/NamespaceSettings.hpp</text>
</a>
</g>
</g>
<!-- Node1&#45;&gt;Node14 -->
<g id="edge39" class="edge">
<title>Node1&#45;&gt;Node14</title>
<path fill="none" stroke="midnightblue" d="M676.61,-560.49C767.42,-545.82 930,-512.13 930,-459 930,-459 930,-459 930,-289 930,-241.9 879.01,-208.75 844.93,-191.86"/>
<polygon fill="midnightblue" stroke="midnightblue" points="846.36,-188.66 835.83,-187.53 843.35,-194.98 846.36,-188.66"/>
</g>
<!-- Node23 -->
<g id="node23" class="node">
<title>Node23</title>
<g id="a_node23"><a xlink:title=" ">
<polygon fill="white" stroke="#bfbfbf" points="958.5,-504.5 958.5,-523.5 1041.5,-523.5 1041.5,-504.5 958.5,-504.5"/>
<text text-anchor="middle" x="1000" y="-511.5" font-family="Helvetica,sans-Serif" font-size="10.00">usb_private.h</text>
</a>
</g>
</g>
<!-- Node1&#45;&gt;Node23 -->
<g id="edge40" class="edge">
<title>Node1&#45;&gt;Node23</title>
<path fill="none" stroke="midnightblue" d="M679.75,-560.79C745.62,-552.08 852.18,-537.69 944,-524 945.46,-523.78 946.94,-523.56 948.44,-523.33"/>
<polygon fill="midnightblue" stroke="midnightblue" points="949.08,-526.77 958.43,-521.79 948.01,-519.86 949.08,-526.77"/>
</g>
<!-- Node4 -->
<g id="node4" class="node">
<title>Node4</title>
<g id="a_node4"><a xlink:href="../../d1/d65/Warnings_8hpp.html" target="_top" xlink:title=" ">
<polygon fill="white" stroke="black" points="300.5,-0.5 300.5,-19.5 443.5,-19.5 443.5,-0.5 300.5,-0.5"/>
<text text-anchor="middle" x="372" y="-7.5" font-family="Helvetica,sans-Serif" font-size="10.00">AH/Settings/Warnings.hpp</text>
</a>
</g>
</g>
<!-- Node3&#45;&gt;Node4 -->
<g id="edge3" class="edge">
<title>Node3&#45;&gt;Node4</title>
<path fill="none" stroke="midnightblue" d="M92.8,-504.49C60.3,-489.29 0,-454.2 0,-403 0,-403 0,-403 0,-121 0,-74.15 40.02,-74.65 83,-56 149.05,-27.34 230.6,-16.62 290.21,-12.76"/>
<polygon fill="midnightblue" stroke="midnightblue" points="290.55,-16.25 300.33,-12.16 290.13,-9.26 290.55,-16.25"/>
</g>
<!-- Node5 -->
<g id="node5" class="node">
<title>Node5</title>
<g id="a_node5"><a xlink:href="../../d1/d93/Error_8hpp.html" target="_top" xlink:title=" ">
<polygon fill="white" stroke="black" points="212,-448.5 212,-467.5 316,-467.5 316,-448.5 212,-448.5"/>
<text text-anchor="middle" x="264" y="-455.5" font-family="Helvetica,sans-Serif" font-size="10.00">AH/Error/Error.hpp</text>
</a>
</g>
</g>
<!-- Node3&#45;&gt;Node5 -->
<g id="edge4" class="edge">
<title>Node3&#45;&gt;Node5</title>
<path fill="none" stroke="midnightblue" d="M136.93,-504.44C162.22,-495.4 202.3,-481.06 230.68,-470.92"/>
<polygon fill="midnightblue" stroke="midnightblue" points="231.95,-474.18 240.19,-467.52 229.59,-467.59 231.95,-474.18"/>
</g>
<!-- Node13 -->
<g id="node13" class="node">
<title>Node13</title>
<g id="a_node13"><a xlink:title=" ">
<polygon fill="white" stroke="#bfbfbf" points="66.5,-112.5 66.5,-131.5 173.5,-131.5 173.5,-112.5 66.5,-112.5"/>
<text text-anchor="middle" x="120" y="-119.5" font-family="Helvetica,sans-Serif" font-size="10.00">AH/STL/type_traits</text>
</a>
</g>
</g>
<!-- Node3&#45;&gt;Node13 -->
<g id="edge37" class="edge">
<title>Node3&#45;&gt;Node13</title>
<path fill="none" stroke="midnightblue" d="M101.61,-504.4C80.63,-487.48 38,-447.61 38,-403 38,-403 38,-403 38,-233 38,-192.27 74.59,-156.87 98.88,-137.86"/>
<polygon fill="midnightblue" stroke="midnightblue" points="101.3,-140.42 107.19,-131.61 97.09,-134.82 101.3,-140.42"/>
</g>
<!-- Node20 -->
<g id="node20" class="node">
<title>Node20</title>
<g id="a_node20"><a xlink:title=" ">
<polygon fill="white" stroke="#bfbfbf" points="138,-224.5 138,-243.5 194,-243.5 194,-224.5 138,-224.5"/>
<text text-anchor="middle" x="166" y="-231.5" font-family="Helvetica,sans-Serif" font-size="10.00">stddef.h</text>
</a>
</g>
</g>
<!-- Node3&#45;&gt;Node20 -->
<g id="edge38" class="edge">
<title>Node3&#45;&gt;Node20</title>
<path fill="none" stroke="midnightblue" d="M108.01,-504.49C97.91,-486.44 76,-442.69 76,-403 76,-403 76,-403 76,-345 76,-302.66 116.44,-267.66 143.1,-249.18"/>
<polygon fill="midnightblue" stroke="midnightblue" points="145.16,-252.02 151.54,-243.56 141.28,-246.19 145.16,-252.02"/>
</g>
<!-- Node22 -->
<g id="node22" class="node">
<title>Node22</title>
<g id="a_node22"><a xlink:title=" ">
<polygon fill="white" stroke="#bfbfbf" points="104,-448.5 104,-467.5 194,-467.5 194,-448.5 104,-448.5"/>
<text text-anchor="middle" x="149" y="-455.5" font-family="Helvetica,sans-Serif" font-size="10.00">AH/STL/iterator</text>
</a>
</g>
</g>
<!-- Node3&#45;&gt;Node22 -->
<g id="edge36" class="edge">
<title>Node3&#45;&gt;Node22</title>
<path fill="none" stroke="midnightblue" d="M118.94,-504.08C123.98,-496.53 131.34,-485.49 137.51,-476.23"/>
<polygon fill="midnightblue" stroke="midnightblue" points="140.53,-478.01 143.17,-467.75 134.71,-474.13 140.53,-478.01"/>
</g>
<!-- Node5&#45;&gt;Node4 -->
<g id="edge5" class="edge">
<title>Node5&#45;&gt;Node4</title>
<path fill="none" stroke="midnightblue" d="M251.2,-448.28C196.68,-409.98 -10.48,-252.39 57,-112 74.26,-76.09 90.76,-72.54 127,-56 178.44,-32.52 241.24,-21.29 290.38,-15.92"/>
<polygon fill="midnightblue" stroke="midnightblue" points="290.75,-19.4 300.33,-14.89 290.03,-12.43 290.75,-19.4"/>
</g>
<!-- Node6 -->
<g id="node6" class="node">
<title>Node6</title>
<g id="a_node6"><a xlink:href="../../df/dee/Debug_8hpp.html" target="_top" xlink:title=" ">
<polygon fill="white" stroke="black" points="523.5,-392.5 523.5,-411.5 644.5,-411.5 644.5,-392.5 523.5,-392.5"/>
<text text-anchor="middle" x="584" y="-399.5" font-family="Helvetica,sans-Serif" font-size="10.00">AH/Debug/Debug.hpp</text>
</a>
</g>
</g>
<!-- Node5&#45;&gt;Node6 -->
<g id="edge6" class="edge">
<title>Node5&#45;&gt;Node6</title>
<path fill="none" stroke="midnightblue" d="M314.7,-448.44C371.35,-438.89 463,-423.42 523.38,-413.23"/>
<polygon fill="midnightblue" stroke="midnightblue" points="524.25,-416.63 533.53,-411.52 523.09,-409.73 524.25,-416.63"/>
</g>
<!-- Node6&#45;&gt;Node4 -->
<g id="edge7" class="edge">
<title>Node6&#45;&gt;Node4</title>
<path fill="none" stroke="midnightblue" d="M623.06,-392.45C725.39,-368.13 988.32,-292.17 913,-168 857.12,-75.88 800.65,-88.74 698,-56 617.36,-30.28 520.88,-19.26 453.9,-14.54"/>
<polygon fill="midnightblue" stroke="midnightblue" points="454.03,-11.04 443.82,-13.86 453.56,-18.02 454.03,-11.04"/>
</g>
<!-- Node7 -->
<g id="node7" class="node">
<title>Node7</title>
<g id="a_node7"><a xlink:href="../../dd/d80/PrintStream_8hpp.html" target="_top" xlink:title=" ">
<polygon fill="white" stroke="black" points="650.5,-224.5 650.5,-243.5 823.5,-243.5 823.5,-224.5 650.5,-224.5"/>
<text text-anchor="middle" x="737" y="-231.5" font-family="Helvetica,sans-Serif" font-size="10.00">AH/PrintStream/PrintStream.hpp</text>
</a>
</g>
</g>
<!-- Node6&#45;&gt;Node7 -->
<g id="edge8" class="edge">
<title>Node6&#45;&gt;Node7</title>
<path fill="none" stroke="midnightblue" d="M616.57,-392.5C637.5,-385.61 664.03,-374.04 682,-356 711.08,-326.81 726.35,-279.46 732.93,-253.5"/>
<polygon fill="midnightblue" stroke="midnightblue" points="736.4,-254.04 735.3,-243.5 729.59,-252.43 736.4,-254.04"/>
</g>
<!-- Node15 -->
<g id="node15" class="node">
<title>Node15</title>
<g id="a_node15"><a xlink:href="../../de/dd1/AH_2Settings_2SettingsWrapper_8hpp.html" target="_top" xlink:title=" ">
<polygon fill="white" stroke="black" points="495,-336.5 495,-355.5 673,-355.5 673,-336.5 495,-336.5"/>
<text text-anchor="middle" x="584" y="-343.5" font-family="Helvetica,sans-Serif" font-size="10.00">AH/Settings/SettingsWrapper.hpp</text>
</a>
</g>
</g>
<!-- Node6&#45;&gt;Node15 -->
<g id="edge21" class="edge">
<title>Node6&#45;&gt;Node15</title>
<path fill="none" stroke="midnightblue" d="M578.83,-392.08C577.32,-384.93 576.89,-374.64 577.54,-365.69"/>
<polygon fill="midnightblue" stroke="midnightblue" points="581.02,-366.13 578.87,-355.75 574.08,-365.2 581.02,-366.13"/>
</g>
<!-- Node7&#45;&gt;Node4 -->
<g id="edge10" class="edge">
<title>Node7&#45;&gt;Node4</title>
<path fill="none" stroke="midnightblue" d="M732.9,-224.48C728.65,-215.52 721.96,-200.93 717,-188 694.89,-130.4 721.12,-95.84 674,-56 641.6,-28.61 531.66,-17.88 453.8,-13.68"/>
<polygon fill="midnightblue" stroke="midnightblue" points="453.68,-10.17 443.52,-13.16 453.33,-17.16 453.68,-10.17"/>
</g>
<!-- Node8 -->
<g id="node8" class="node">
<title>Node8</title>
<g id="a_node8"><a xlink:href="../../d6/db0/AH_2Settings_2NamespaceSettings_8hpp.html" target="_top" xlink:title=" ">
<polygon fill="white" stroke="black" points="437.5,-56.5 437.5,-75.5 632.5,-75.5 632.5,-56.5 437.5,-56.5"/>
<text text-anchor="middle" x="535" y="-63.5" font-family="Helvetica,sans-Serif" font-size="10.00">AH/Settings/NamespaceSettings.hpp</text>
</a>
</g>
</g>
<!-- Node7&#45;&gt;Node8 -->
<g id="edge9" class="edge">
<title>Node7&#45;&gt;Node8</title>
<path fill="none" stroke="midnightblue" d="M726.79,-224.43C716.08,-215.42 698.78,-200.8 684,-188 645.45,-154.6 637.92,-143.76 598,-112 584.46,-101.23 568.6,-89.91 556.18,-81.32"/>
<polygon fill="midnightblue" stroke="midnightblue" points="558.06,-78.36 547.83,-75.59 554.1,-84.13 558.06,-78.36"/>
</g>
<!-- Node9 -->
<g id="node9" class="node">
<title>Node9</title>
<g id="a_node9"><a xlink:href="../../d6/ddf/Arduino-Wrapper_8h.html" target="_top" xlink:title=" ">
<polygon fill="white" stroke="black" points="268,-168.5 268,-187.5 392,-187.5 392,-168.5 268,-168.5"/>
<text text-anchor="middle" x="330" y="-175.5" font-family="Helvetica,sans-Serif" font-size="10.00">AH/Arduino&#45;Wrapper.h</text>
</a>
</g>
</g>
<!-- Node7&#45;&gt;Node9 -->
<g id="edge11" class="edge">
<title>Node7&#45;&gt;Node9</title>
<path fill="none" stroke="midnightblue" d="M672.51,-224.44C598.93,-214.68 478.91,-198.76 402.24,-188.59"/>
<polygon fill="midnightblue" stroke="midnightblue" points="402.56,-185.1 392.19,-187.25 401.64,-192.04 402.56,-185.1"/>
</g>
<!-- Node7&#45;&gt;Node14 -->
<g id="edge20" class="edge">
<title>Node7&#45;&gt;Node14</title>
<path fill="none" stroke="midnightblue" d="M749.53,-224.32C761.59,-215.98 780.03,-203.21 794.27,-193.35"/>
<polygon fill="midnightblue" stroke="midnightblue" points="796.27,-196.22 802.5,-187.65 792.28,-190.47 796.27,-196.22"/>
</g>
<!-- Node10 -->
<g id="node10" class="node">
<title>Node10</title>
<g id="a_node10"><a xlink:href="../../d7/d79/MinMaxFix_8hpp.html" target="_top" xlink:title=" ">
<polygon fill="white" stroke="black" points="268,-112.5 268,-131.5 404,-131.5 404,-112.5 268,-112.5"/>
<text text-anchor="middle" x="336" y="-119.5" font-family="Helvetica,sans-Serif" font-size="10.00">AH/Math/MinMaxFix.hpp</text>
</a>
</g>
</g>
<!-- Node9&#45;&gt;Node10 -->
<g id="edge12" class="edge">
<title>Node9&#45;&gt;Node10</title>
<path fill="none" stroke="midnightblue" d="M330.99,-168.08C331.79,-160.93 332.93,-150.64 333.92,-141.69"/>
<polygon fill="midnightblue" stroke="midnightblue" points="337.4,-142.08 335.03,-131.75 330.44,-141.3 337.4,-142.08"/>
</g>
<!-- Node12 -->
<g id="node12" class="node">
<title>Node12</title>
<g id="a_node12"><a xlink:title=" ">
<polygon fill="white" stroke="#bfbfbf" points="133.5,-0.5 133.5,-19.5 196.5,-19.5 196.5,-0.5 133.5,-0.5"/>
<text text-anchor="middle" x="165" y="-7.5" font-family="Helvetica,sans-Serif" font-size="10.00">Arduino.h</text>
</a>
</g>
</g>
<!-- Node9&#45;&gt;Node12 -->
<g id="edge19" class="edge">
<title>Node9&#45;&gt;Node12</title>
<path fill="none" stroke="midnightblue" d="M309.95,-168.46C260.8,-147.33 137.6,-93.11 127,-76 116.6,-59.22 131.7,-39.61 145.83,-26.36"/>
<polygon fill="midnightblue" stroke="midnightblue" points="148.2,-28.93 153.41,-19.71 143.59,-23.67 148.2,-28.93"/>
</g>
<!-- Node9&#45;&gt;Node13 -->
<g id="edge18" class="edge">
<title>Node9&#45;&gt;Node13</title>
<path fill="none" stroke="midnightblue" d="M296.72,-168.44C260.55,-159.14 202.62,-144.25 163.02,-134.06"/>
<polygon fill="midnightblue" stroke="midnightblue" points="163.68,-130.62 153.12,-131.52 161.93,-137.4 163.68,-130.62"/>
</g>
<!-- Node10&#45;&gt;Node4 -->
<g id="edge13" class="edge">
<title>Node10&#45;&gt;Node4</title>
<path fill="none" stroke="midnightblue" d="M338.82,-112.37C344.66,-94.54 358.16,-53.3 366.02,-29.27"/>
<polygon fill="midnightblue" stroke="midnightblue" points="369.4,-30.18 369.19,-19.59 362.75,-28.01 369.4,-30.18"/>
</g>
<!-- Node10&#45;&gt;Node8 -->
<g id="edge17" class="edge">
<title>Node10&#45;&gt;Node8</title>
<path fill="none" stroke="midnightblue" d="M367.53,-112.44C401.59,-103.2 456.01,-88.44 493.52,-78.26"/>
<polygon fill="midnightblue" stroke="midnightblue" points="494.88,-81.51 503.62,-75.52 493.05,-74.76 494.88,-81.51"/>
</g>
<!-- Node11 -->
<g id="node11" class="node">
<title>Node11</title>
<g id="a_node11"><a xlink:href="../../d6/d3b/FixArduinoMacros_8hpp.html" target="_top" xlink:title=" ">
<polygon fill="white" stroke="black" points="136,-56.5 136,-75.5 306,-75.5 306,-56.5 136,-56.5"/>
<text text-anchor="middle" x="221" y="-63.5" font-family="Helvetica,sans-Serif" font-size="10.00">AH/Math/FixArduinoMacros.hpp</text>
</a>
</g>
</g>
<!-- Node10&#45;&gt;Node11 -->
<g id="edge14" class="edge">
<title>Node10&#45;&gt;Node11</title>
<path fill="none" stroke="midnightblue" d="M317.78,-112.44C299.1,-103.68 269.84,-89.94 248.38,-79.86"/>
<polygon fill="midnightblue" stroke="midnightblue" points="249.68,-76.6 239.14,-75.52 246.7,-82.93 249.68,-76.6"/>
</g>
<!-- Node11&#45;&gt;Node4 -->
<g id="edge15" class="edge">
<title>Node11&#45;&gt;Node4</title>
<path fill="none" stroke="midnightblue" d="M244.93,-56.44C270.22,-47.4 310.3,-33.06 338.68,-22.92"/>
<polygon fill="midnightblue" stroke="midnightblue" points="339.95,-26.18 348.19,-19.52 337.59,-19.59 339.95,-26.18"/>
</g>
<!-- Node11&#45;&gt;Node12 -->
<g id="edge16" class="edge">
<title>Node11&#45;&gt;Node12</title>
<path fill="none" stroke="midnightblue" d="M212,-56.32C203.81,-48.42 191.49,-36.55 181.53,-26.94"/>
<polygon fill="midnightblue" stroke="midnightblue" points="183.79,-24.26 174.16,-19.83 178.93,-29.29 183.79,-24.26"/>
</g>
<!-- Node15&#45;&gt;Node2 -->
<g id="edge34" class="edge">
<title>Node15&#45;&gt;Node2</title>
<path fill="none" stroke="midnightblue" d="M545.97,-336.44C504.19,-327.04 437.02,-311.93 391.73,-301.74"/>
<polygon fill="midnightblue" stroke="midnightblue" points="392.38,-298.3 381.85,-299.52 390.84,-305.13 392.38,-298.3"/>
</g>
<!-- Node15&#45;&gt;Node4 -->
<g id="edge22" class="edge">
<title>Node15&#45;&gt;Node4</title>
<path fill="none" stroke="midnightblue" d="M587.47,-336.42C604.68,-293.27 678.5,-100.3 641,-56 617.34,-28.06 524.11,-17.45 453.99,-13.44"/>
<polygon fill="midnightblue" stroke="midnightblue" points="453.99,-9.93 443.82,-12.89 453.62,-16.92 453.99,-9.93"/>
</g>
<!-- Node15&#45;&gt;Node6 -->
<g id="edge35" class="edge">
<title>Node15&#45;&gt;Node6</title>
<path fill="none" stroke="midnightblue" d="M589.13,-355.75C590.66,-362.86 591.1,-373.14 590.47,-382.1"/>
<polygon fill="midnightblue" stroke="midnightblue" points="586.99,-381.71 589.17,-392.08 593.93,-382.62 586.99,-381.71"/>
</g>
<!-- Node15&#45;&gt;Node8 -->
<g id="edge23" class="edge">
<title>Node15&#45;&gt;Node8</title>
<path fill="none" stroke="midnightblue" d="M584,-336.44C584,-317.94 584,-272.81 584,-235 584,-235 584,-235 584,-177 584,-141.47 562.4,-104.63 547.88,-83.88"/>
<polygon fill="midnightblue" stroke="midnightblue" points="550.53,-81.57 541.81,-75.54 544.87,-85.69 550.53,-81.57"/>
</g>
<!-- Node16 -->
<g id="node16" class="node">
<title>Node16</title>
<g id="a_node16"><a xlink:href="../../d5/d4f/AH_2Settings_2Settings_8hpp.html" target="_top" xlink:title="All user settings and debugging options can be changed here.">
<polygon fill="white" stroke="black" points="448.5,-280.5 448.5,-299.5 525.5,-299.5 525.5,-280.5 448.5,-280.5"/>
<text text-anchor="middle" x="487" y="-287.5" font-family="Helvetica,sans-Serif" font-size="10.00">Settings.hpp</text>
</a>
</g>
</g>
<!-- Node15&#45;&gt;Node16 -->
<g id="edge24" class="edge">
<title>Node15&#45;&gt;Node16</title>
<path fill="none" stroke="midnightblue" d="M568.42,-336.32C553,-327.74 529.19,-314.49 511.29,-304.52"/>
<polygon fill="midnightblue" stroke="midnightblue" points="512.99,-301.46 502.55,-299.65 509.58,-307.58 512.99,-301.46"/>
</g>
<!-- Node17 -->
<g id="node17" class="node">
<title>Node17</title>
<g id="a_node17"><a xlink:href="../../dc/d50/Frequency_8hpp.html" target="_top" xlink:title=" ">
<polygon fill="white" stroke="black" points="422,-112.5 422,-131.5 556,-131.5 556,-112.5 422,-112.5"/>
<text text-anchor="middle" x="489" y="-119.5" font-family="Helvetica,sans-Serif" font-size="10.00">AH/Types/Frequency.hpp</text>
</a>
</g>
</g>
<!-- Node16&#45;&gt;Node17 -->
<g id="edge25" class="edge">
<title>Node16&#45;&gt;Node17</title>
<path fill="none" stroke="midnightblue" d="M465.19,-280.45C450.06,-273.22 431.05,-261.26 422,-244 417.87,-236.13 419.43,-232.51 422,-224 432.11,-190.46 457.41,-157.82 473.87,-139.1"/>
<polygon fill="midnightblue" stroke="midnightblue" points="476.61,-141.29 480.72,-131.53 471.41,-136.6 476.61,-141.29"/>
</g>
<!-- Node18 -->
<g id="node18" class="node">
<title>Node18</title>
<g id="a_node18"><a xlink:href="../../d7/d7c/ADCConfig_8hpp.html" target="_top" xlink:title="This file contains the platform&#45;specific ADC resolutions.">
<polygon fill="white" stroke="black" points="217.5,-224.5 217.5,-243.5 374.5,-243.5 374.5,-224.5 217.5,-224.5"/>
<text text-anchor="middle" x="296" y="-231.5" font-family="Helvetica,sans-Serif" font-size="10.00">AH/Hardware/ADCConfig.hpp</text>
</a>
</g>
</g>
<!-- Node16&#45;&gt;Node18 -->
<g id="edge28" class="edge">
<title>Node16&#45;&gt;Node18</title>
<path fill="none" stroke="midnightblue" d="M456.74,-280.44C424.04,-271.2 371.82,-256.44 335.82,-246.26"/>
<polygon fill="midnightblue" stroke="midnightblue" points="336.7,-242.87 326.12,-243.52 334.79,-249.61 336.7,-242.87"/>
</g>
<!-- Node19 -->
<g id="node19" class="node">
<title>Node19</title>
<g id="a_node19"><a xlink:title=" ">
<polygon fill="white" stroke="#bfbfbf" points="502.5,-224.5 502.5,-243.5 555.5,-243.5 555.5,-224.5 502.5,-224.5"/>
<text text-anchor="middle" x="529" y="-231.5" font-family="Helvetica,sans-Serif" font-size="10.00">limits.h</text>
</a>
</g>
</g>
<!-- Node16&#45;&gt;Node19 -->
<g id="edge31" class="edge">
<title>Node16&#45;&gt;Node19</title>
<path fill="none" stroke="midnightblue" d="M493.94,-280.08C499.93,-272.38 508.75,-261.03 516.05,-251.65"/>
<polygon fill="midnightblue" stroke="midnightblue" points="518.82,-253.79 522.19,-243.75 513.29,-249.5 518.82,-253.79"/>
</g>
<!-- Node16&#45;&gt;Node20 -->
<g id="edge32" class="edge">
<title>Node16&#45;&gt;Node20</title>
<path fill="none" stroke="midnightblue" d="M448.25,-281.63C445.12,-281.07 442.01,-280.52 439,-280 336.59,-262.42 310.17,-262.89 208,-244 206.76,-243.77 205.51,-243.53 204.24,-243.29"/>
<polygon fill="midnightblue" stroke="midnightblue" points="204.92,-239.86 194.42,-241.32 203.54,-246.72 204.92,-239.86"/>
</g>
<!-- Node21 -->
<g id="node21" class="node">
<title>Node21</title>
<g id="a_node21"><a xlink:title=" ">
<polygon fill="white" stroke="#bfbfbf" points="431.5,-224.5 431.5,-243.5 484.5,-243.5 484.5,-224.5 431.5,-224.5"/>
<text text-anchor="middle" x="458" y="-231.5" font-family="Helvetica,sans-Serif" font-size="10.00">stdint.h</text>
</a>
</g>
</g>
<!-- Node16&#45;&gt;Node21 -->
<g id="edge33" class="edge">
<title>Node16&#45;&gt;Node21</title>
<path fill="none" stroke="midnightblue" d="M482.21,-280.08C478.24,-272.69 472.47,-261.95 467.57,-252.81"/>
<polygon fill="midnightblue" stroke="midnightblue" points="470.51,-250.91 462.7,-243.75 464.35,-254.22 470.51,-250.91"/>
</g>
<!-- Node17&#45;&gt;Node4 -->
<g id="edge26" class="edge">
<title>Node17&#45;&gt;Node4</title>
<path fill="none" stroke="midnightblue" d="M475.73,-112.48C462.91,-103.97 443.25,-90.14 428,-76 411.69,-60.88 395.36,-41.29 384.58,-27.58"/>
<polygon fill="midnightblue" stroke="midnightblue" points="387.24,-25.3 378.35,-19.53 381.7,-29.58 387.24,-25.3"/>
</g>
<!-- Node17&#45;&gt;Node8 -->
<g id="edge27" class="edge">
<title>Node17&#45;&gt;Node8</title>
<path fill="none" stroke="midnightblue" d="M496.6,-112.08C503.23,-104.3 513.02,-92.8 521.06,-83.37"/>
<polygon fill="midnightblue" stroke="midnightblue" points="523.73,-85.63 527.55,-75.75 518.4,-81.09 523.73,-85.63"/>
</g>
<!-- Node18&#45;&gt;Node4 -->
<g id="edge29" class="edge">
<title>Node18&#45;&gt;Node4</title>
<path fill="none" stroke="midnightblue" d="M285.56,-224.24C276.58,-215.97 264.25,-202.66 259,-188 247.61,-156.2 242.81,-141.65 259,-112 273.18,-86.03 292.58,-95.31 315,-76 331.98,-61.37 348.54,-41.7 359.4,-27.84"/>
<polygon fill="midnightblue" stroke="midnightblue" points="362.34,-29.75 365.65,-19.68 356.79,-25.49 362.34,-29.75"/>
</g>
<!-- Node18&#45;&gt;Node9 -->
<g id="edge30" class="edge">
<title>Node18&#45;&gt;Node9</title>
<path fill="none" stroke="midnightblue" d="M301.61,-224.08C306.37,-216.53 313.32,-205.49 319.15,-196.23"/>
<polygon fill="midnightblue" stroke="midnightblue" points="322.12,-198.08 324.49,-187.75 316.2,-194.35 322.12,-198.08"/>
</g>
</g>
</svg>
