<?xml version="1.0" encoding="UTF-8" standalone="no"?>
<!DOCTYPE svg PUBLIC "-//W3C//DTD SVG 1.1//EN"
 "http://www.w3.org/Graphics/SVG/1.1/DTD/svg11.dtd">
<!-- Generated by graphviz version 2.43.0 (0)
 -->
<!-- Title: MIDIFilteredAnalog&lt; Sender &gt; Pages: 1 -->
<svg width="747pt" height="1345pt"
 viewBox="0.00 0.00 746.50 1345.00" xmlns="http://www.w3.org/2000/svg" xmlns:xlink="http://www.w3.org/1999/xlink">
<g id="graph0" class="graph" transform="scale(1 1) rotate(0) translate(4 1341)">
<title>MIDIFilteredAnalog&lt; Sender &gt;</title>
<polygon fill="white" stroke="transparent" points="-4,4 -4,-1341 742.5,-1341 742.5,4 -4,4"/>
<!-- Node1 -->
<g id="node1" class="node">
<title>Node1</title>
<g id="a_node1"><a xlink:title="A class for potentiometers and faders that send MIDI events.">
<polygon fill="#bfbfbf" stroke="black" points="411.5,-0.5 411.5,-134.5 539.5,-134.5 539.5,-0.5 411.5,-0.5"/>
<text text-anchor="start" x="419.5" y="-122.5" font-family="Helvetica,sans-Serif" font-size="10.00">MIDIFilteredAnalog</text>
<text text-anchor="middle" x="475.5" y="-111.5" font-family="Helvetica,sans-Serif" font-size="10.00">&lt; Sender &gt;</text>
<polyline fill="none" stroke="black" points="411.5,-104.5 539.5,-104.5 "/>
<text text-anchor="start" x="419.5" y="-92.5" font-family="Helvetica,sans-Serif" font-size="10.00">+ sender</text>
<polyline fill="none" stroke="black" points="411.5,-85.5 539.5,-85.5 "/>
<text text-anchor="start" x="419.5" y="-73.5" font-family="Helvetica,sans-Serif" font-size="10.00">+ begin()</text>
<text text-anchor="start" x="419.5" y="-62.5" font-family="Helvetica,sans-Serif" font-size="10.00">+ update()</text>
<text text-anchor="start" x="419.5" y="-51.5" font-family="Helvetica,sans-Serif" font-size="10.00">+ map()</text>
<text text-anchor="start" x="419.5" y="-40.5" font-family="Helvetica,sans-Serif" font-size="10.00">+ invert()</text>
<text text-anchor="start" x="419.5" y="-29.5" font-family="Helvetica,sans-Serif" font-size="10.00">+ getRawValue()</text>
<text text-anchor="start" x="419.5" y="-18.5" font-family="Helvetica,sans-Serif" font-size="10.00">+ getValue()</text>
<text text-anchor="start" x="419.5" y="-7.5" font-family="Helvetica,sans-Serif" font-size="10.00"># MIDIFilteredAnalog()</text>
</a>
</g>
</g>
<!-- Node2 -->
<g id="node2" class="node">
<title>Node2</title>
<g id="a_node2"><a xlink:href="../../d1/d55/classAH_1_1Updatable.html" target="_top" xlink:title=" ">
<polygon fill="white" stroke="black" points="261,-281.5 261,-371.5 374,-371.5 374,-281.5 261,-281.5"/>
<text text-anchor="middle" x="317.5" y="-359.5" font-family="Helvetica,sans-Serif" font-size="10.00">MIDIOutputElement</text>
<polyline fill="none" stroke="black" points="261,-352.5 374,-352.5 "/>
<text text-anchor="middle" x="317.5" y="-340.5" font-family="Helvetica,sans-Serif" font-size="10.00"> </text>
<polyline fill="none" stroke="black" points="261,-333.5 374,-333.5 "/>
<text text-anchor="start" x="269" y="-321.5" font-family="Helvetica,sans-Serif" font-size="10.00">* begin()</text>
<text text-anchor="start" x="269" y="-310.5" font-family="Helvetica,sans-Serif" font-size="10.00">* update()</text>
<text text-anchor="start" x="269" y="-299.5" font-family="Helvetica,sans-Serif" font-size="10.00">* beginAll()</text>
<text text-anchor="start" x="269" y="-288.5" font-family="Helvetica,sans-Serif" font-size="10.00">* updateAll()</text>
</a>
</g>
</g>
<!-- Node2&#45;&gt;Node1 -->
<g id="edge1" class="edge">
<title>Node2&#45;&gt;Node1</title>
<path fill="none" stroke="midnightblue" d="M347.17,-272.47C362.68,-245.2 382.2,-211.57 400.5,-182 410.07,-166.54 420.67,-150.11 430.81,-134.69"/>
<polygon fill="none" stroke="midnightblue" points="343.97,-271.03 342.08,-281.45 350.05,-274.48 343.97,-271.03"/>
</g>
<!-- Node3 -->
<g id="node3" class="node">
<title>Node3</title>
<g id="a_node3"><a xlink:href="../../d8/d1a/classAH_1_1UpdatableCRTP.html" target="_top" xlink:title=" ">
<polygon fill="white" stroke="black" points="192,-508.5 192,-829.5 345,-829.5 345,-508.5 192,-508.5"/>
<text text-anchor="start" x="200" y="-817.5" font-family="Helvetica,sans-Serif" font-size="10.00">UpdatableCRTP&lt; Updatable</text>
<text text-anchor="start" x="200" y="-806.5" font-family="Helvetica,sans-Serif" font-size="10.00">&lt; NormalUpdatable, false</text>
<text text-anchor="middle" x="268.5" y="-795.5" font-family="Helvetica,sans-Serif" font-size="10.00"> &gt;, false &gt;</text>
<polyline fill="none" stroke="black" points="192,-788.5 345,-788.5 "/>
<text text-anchor="start" x="200" y="-776.5" font-family="Helvetica,sans-Serif" font-size="10.00"># mutex</text>
<polyline fill="none" stroke="black" points="192,-769.5 345,-769.5 "/>
<text text-anchor="start" x="200" y="-757.5" font-family="Helvetica,sans-Serif" font-size="10.00">+ ~UpdatableCRTP()</text>
<text text-anchor="start" x="200" y="-746.5" font-family="Helvetica,sans-Serif" font-size="10.00">+ getMutex()</text>
<text text-anchor="start" x="200" y="-735.5" font-family="Helvetica,sans-Serif" font-size="10.00"># UpdatableCRTP()</text>
<text text-anchor="start" x="200" y="-724.5" font-family="Helvetica,sans-Serif" font-size="10.00"># UpdatableCRTP()</text>
<text text-anchor="start" x="200" y="-713.5" font-family="Helvetica,sans-Serif" font-size="10.00"># UpdatableCRTP()</text>
<text text-anchor="start" x="200" y="-702.5" font-family="Helvetica,sans-Serif" font-size="10.00"># operator=()</text>
<text text-anchor="start" x="200" y="-691.5" font-family="Helvetica,sans-Serif" font-size="10.00"># operator=()</text>
<text text-anchor="start" x="200" y="-680.5" font-family="Helvetica,sans-Serif" font-size="10.00">* method</text>
<text text-anchor="start" x="200" y="-669.5" font-family="Helvetica,sans-Serif" font-size="10.00">* args</text>
<text text-anchor="start" x="200" y="-658.5" font-family="Helvetica,sans-Serif" font-size="10.00">* enable()</text>
<text text-anchor="start" x="200" y="-647.5" font-family="Helvetica,sans-Serif" font-size="10.00">* enable()</text>
<text text-anchor="start" x="200" y="-636.5" font-family="Helvetica,sans-Serif" font-size="10.00">* disable()</text>
<text text-anchor="start" x="200" y="-625.5" font-family="Helvetica,sans-Serif" font-size="10.00">* disable()</text>
<text text-anchor="start" x="200" y="-614.5" font-family="Helvetica,sans-Serif" font-size="10.00">* isEnabled()</text>
<text text-anchor="start" x="200" y="-603.5" font-family="Helvetica,sans-Serif" font-size="10.00">* isEnabled()</text>
<text text-anchor="start" x="200" y="-592.5" font-family="Helvetica,sans-Serif" font-size="10.00">* moveDown()</text>
<text text-anchor="start" x="200" y="-581.5" font-family="Helvetica,sans-Serif" font-size="10.00">* moveDown()</text>
<text text-anchor="start" x="200" y="-570.5" font-family="Helvetica,sans-Serif" font-size="10.00">* enable()</text>
<text text-anchor="start" x="200" y="-559.5" font-family="Helvetica,sans-Serif" font-size="10.00">* enable()</text>
<text text-anchor="start" x="200" y="-548.5" font-family="Helvetica,sans-Serif" font-size="10.00">* enable()</text>
<text text-anchor="start" x="200" y="-537.5" font-family="Helvetica,sans-Serif" font-size="10.00">* disable()</text>
<text text-anchor="start" x="200" y="-526.5" font-family="Helvetica,sans-Serif" font-size="10.00">* disable()</text>
<text text-anchor="start" x="200" y="-515.5" font-family="Helvetica,sans-Serif" font-size="10.00">* disable()</text>
</a>
</g>
</g>
<!-- Node3&#45;&gt;Node2 -->
<g id="edge2" class="edge">
<title>Node3&#45;&gt;Node2</title>
<path fill="none" stroke="midnightblue" d="M292.93,-498.22C299.68,-451.37 306.43,-404.46 311.14,-371.7"/>
<polygon fill="none" stroke="midnightblue" points="289.45,-497.82 291.49,-508.22 296.38,-498.82 289.45,-497.82"/>
</g>
<!-- Node4 -->
<g id="node4" class="node">
<title>Node4</title>
<g id="a_node4"><a xlink:href="../../d4/d23/classDoublyLinkable.html" target="_top" xlink:title=" ">
<polygon fill="white" stroke="black" points="0,-965.5 0,-1099.5 167,-1099.5 167,-965.5 0,-965.5"/>
<text text-anchor="start" x="8" y="-1087.5" font-family="Helvetica,sans-Serif" font-size="10.00">DoublyLinkable&lt; Updatable</text>
<text text-anchor="middle" x="83.5" y="-1076.5" font-family="Helvetica,sans-Serif" font-size="10.00">&lt; NormalUpdatable, false &gt; &gt;</text>
<polyline fill="none" stroke="black" points="0,-1069.5 167,-1069.5 "/>
<text text-anchor="start" x="8" y="-1057.5" font-family="Helvetica,sans-Serif" font-size="10.00"># next</text>
<text text-anchor="start" x="8" y="-1046.5" font-family="Helvetica,sans-Serif" font-size="10.00"># previous</text>
<polyline fill="none" stroke="black" points="0,-1039.5 167,-1039.5 "/>
<text text-anchor="start" x="8" y="-1027.5" font-family="Helvetica,sans-Serif" font-size="10.00"># ~DoublyLinkable()</text>
<text text-anchor="start" x="8" y="-1016.5" font-family="Helvetica,sans-Serif" font-size="10.00"># DoublyLinkable()</text>
<text text-anchor="start" x="8" y="-1005.5" font-family="Helvetica,sans-Serif" font-size="10.00"># DoublyLinkable()</text>
<text text-anchor="start" x="8" y="-994.5" font-family="Helvetica,sans-Serif" font-size="10.00"># DoublyLinkable()</text>
<text text-anchor="start" x="8" y="-983.5" font-family="Helvetica,sans-Serif" font-size="10.00"># operator=()</text>
<text text-anchor="start" x="8" y="-972.5" font-family="Helvetica,sans-Serif" font-size="10.00"># operator=()</text>
</a>
</g>
</g>
<!-- Node4&#45;&gt;Node3 -->
<g id="edge3" class="edge">
<title>Node4&#45;&gt;Node3</title>
<path fill="none" stroke="midnightblue" d="M122.19,-955.91C142.38,-916.44 167.83,-866.71 191.82,-819.84"/>
<polygon fill="none" stroke="midnightblue" points="118.87,-954.7 117.43,-965.2 125.1,-957.89 118.87,-954.7"/>
</g>
<!-- Node5 -->
<g id="node5" class="node">
<title>Node5</title>
<g id="a_node5"><a xlink:href="../../dd/d16/classDoublyLinkedList.html" target="_top" xlink:title=" ">
<polygon fill="white" stroke="black" points="185,-877.5 185,-1187.5 352,-1187.5 352,-877.5 185,-877.5"/>
<text text-anchor="start" x="193" y="-1175.5" font-family="Helvetica,sans-Serif" font-size="10.00">DoublyLinkedList&lt; Updatable</text>
<text text-anchor="middle" x="268.5" y="-1164.5" font-family="Helvetica,sans-Serif" font-size="10.00">&lt; NormalUpdatable, false &gt; &gt;</text>
<polyline fill="none" stroke="black" points="185,-1157.5 352,-1157.5 "/>
<text text-anchor="start" x="193" y="-1145.5" font-family="Helvetica,sans-Serif" font-size="10.00">&#45; first</text>
<text text-anchor="start" x="193" y="-1134.5" font-family="Helvetica,sans-Serif" font-size="10.00">&#45; last</text>
<polyline fill="none" stroke="black" points="185,-1127.5 352,-1127.5 "/>
<text text-anchor="start" x="193" y="-1115.5" font-family="Helvetica,sans-Serif" font-size="10.00">+ append()</text>
<text text-anchor="start" x="193" y="-1104.5" font-family="Helvetica,sans-Serif" font-size="10.00">+ append()</text>
<text text-anchor="start" x="193" y="-1093.5" font-family="Helvetica,sans-Serif" font-size="10.00">+ insertBefore()</text>
<text text-anchor="start" x="193" y="-1082.5" font-family="Helvetica,sans-Serif" font-size="10.00">+ insertBefore()</text>
<text text-anchor="start" x="193" y="-1071.5" font-family="Helvetica,sans-Serif" font-size="10.00">+ insertSorted()</text>
<text text-anchor="start" x="193" y="-1060.5" font-family="Helvetica,sans-Serif" font-size="10.00">+ insertSorted()</text>
<text text-anchor="start" x="193" y="-1049.5" font-family="Helvetica,sans-Serif" font-size="10.00">+ remove()</text>
<text text-anchor="start" x="193" y="-1038.5" font-family="Helvetica,sans-Serif" font-size="10.00">+ remove()</text>
<text text-anchor="start" x="193" y="-1027.5" font-family="Helvetica,sans-Serif" font-size="10.00">+ moveDown()</text>
<text text-anchor="start" x="193" y="-1016.5" font-family="Helvetica,sans-Serif" font-size="10.00">+ moveDown()</text>
<text text-anchor="start" x="193" y="-1005.5" font-family="Helvetica,sans-Serif" font-size="10.00">+ couldContain()</text>
<text text-anchor="start" x="193" y="-994.5" font-family="Helvetica,sans-Serif" font-size="10.00">+ couldContain()</text>
<text text-anchor="start" x="193" y="-983.5" font-family="Helvetica,sans-Serif" font-size="10.00">+ begin()</text>
<text text-anchor="start" x="193" y="-972.5" font-family="Helvetica,sans-Serif" font-size="10.00">+ begin()</text>
<text text-anchor="start" x="193" y="-961.5" font-family="Helvetica,sans-Serif" font-size="10.00">+ end()</text>
<text text-anchor="start" x="193" y="-950.5" font-family="Helvetica,sans-Serif" font-size="10.00">+ end()</text>
<text text-anchor="start" x="193" y="-939.5" font-family="Helvetica,sans-Serif" font-size="10.00">+ rbegin()</text>
<text text-anchor="start" x="193" y="-928.5" font-family="Helvetica,sans-Serif" font-size="10.00">+ rbegin()</text>
<text text-anchor="start" x="193" y="-917.5" font-family="Helvetica,sans-Serif" font-size="10.00">+ rend()</text>
<text text-anchor="start" x="193" y="-906.5" font-family="Helvetica,sans-Serif" font-size="10.00">+ rend()</text>
<text text-anchor="start" x="193" y="-895.5" font-family="Helvetica,sans-Serif" font-size="10.00">+ getFirst()</text>
<text text-anchor="start" x="193" y="-884.5" font-family="Helvetica,sans-Serif" font-size="10.00">+ getLast()</text>
</a>
</g>
</g>
<!-- Node5&#45;&gt;Node3 -->
<g id="edge4" class="edge">
<title>Node5&#45;&gt;Node3</title>
<path fill="none" stroke="#404040" d="M268.5,-877.41C268.5,-865.65 268.5,-853.73 268.5,-841.87"/>
<polygon fill="none" stroke="#404040" points="268.5,-841.54 264.5,-835.54 268.5,-829.54 272.5,-835.54 268.5,-841.54"/>
<text text-anchor="middle" x="301.5" y="-851" font-family="Helvetica,sans-Serif" font-size="10.00"> #updatables</text>
</g>
<!-- Node6 -->
<g id="node6" class="node">
<title>Node6</title>
<g id="a_node6"><a xlink:href="../../d3/d6e/classAH_1_1FilteredAnalog.html" target="_top" xlink:title=" ">
<polygon fill="white" stroke="black" points="409.5,-281.5 409.5,-371.5 541.5,-371.5 541.5,-281.5 409.5,-281.5"/>
<text text-anchor="start" x="417.5" y="-359.5" font-family="Helvetica,sans-Serif" font-size="10.00">FilteredAnalog&lt; Sender</text>
<text text-anchor="middle" x="475.5" y="-348.5" font-family="Helvetica,sans-Serif" font-size="10.00">::precision()&gt;</text>
<polyline fill="none" stroke="black" points="409.5,-341.5 541.5,-341.5 "/>
<text text-anchor="middle" x="475.5" y="-329.5" font-family="Helvetica,sans-Serif" font-size="10.00"> </text>
<polyline fill="none" stroke="black" points="409.5,-322.5 541.5,-322.5 "/>
<text text-anchor="start" x="417.5" y="-310.5" font-family="Helvetica,sans-Serif" font-size="10.00">+ FilteredAnalog()</text>
<text text-anchor="start" x="417.5" y="-299.5" font-family="Helvetica,sans-Serif" font-size="10.00">+ FilteredAnalog()</text>
<text text-anchor="start" x="417.5" y="-288.5" font-family="Helvetica,sans-Serif" font-size="10.00">+ invert()</text>
</a>
</g>
</g>
<!-- Node6&#45;&gt;Node1 -->
<g id="edge5" class="edge">
<title>Node6&#45;&gt;Node1</title>
<path fill="none" stroke="#404040" d="M475.5,-281.32C475.5,-244.46 475.5,-191.02 475.5,-146.92"/>
<polygon fill="none" stroke="#404040" points="475.5,-146.75 471.5,-140.75 475.5,-134.75 479.5,-140.75 475.5,-146.75"/>
<text text-anchor="middle" x="513.5" y="-156" font-family="Helvetica,sans-Serif" font-size="10.00"> &#45;filteredAnalog</text>
</g>
<!-- Node7 -->
<g id="node7" class="node">
<title>Node7</title>
<g id="a_node7"><a xlink:href="../../da/d36/classAH_1_1GenericFilteredAnalog.html" target="_top" xlink:title=" ">
<polygon fill="white" stroke="black" points="380.5,-530.5 380.5,-807.5 604.5,-807.5 604.5,-530.5 380.5,-530.5"/>
<text text-anchor="start" x="388.5" y="-795.5" font-family="Helvetica,sans-Serif" font-size="10.00">GenericFilteredAnalog</text>
<text text-anchor="start" x="388.5" y="-784.5" font-family="Helvetica,sans-Serif" font-size="10.00">&lt; analog_t(*)(analog</text>
<text text-anchor="start" x="388.5" y="-773.5" font-family="Helvetica,sans-Serif" font-size="10.00">_t), Precision, ANALOG</text>
<text text-anchor="start" x="388.5" y="-762.5" font-family="Helvetica,sans-Serif" font-size="10.00">_FILTER_SHIFT_FACTOR, ANALOG</text>
<text text-anchor="start" x="388.5" y="-751.5" font-family="Helvetica,sans-Serif" font-size="10.00">_FILTER_TYPE, analog_t, MaximumFiltered</text>
<text text-anchor="start" x="388.5" y="-740.5" font-family="Helvetica,sans-Serif" font-size="10.00">AnalogIncRes&lt; ANALOG_FILTER_SHIFT</text>
<text text-anchor="start" x="388.5" y="-729.5" font-family="Helvetica,sans-Serif" font-size="10.00">_FACTOR, ANALOG_FILTER_TYPE, analog</text>
<text text-anchor="middle" x="492.5" y="-718.5" font-family="Helvetica,sans-Serif" font-size="10.00">_t &gt;::value &gt;</text>
<polyline fill="none" stroke="black" points="380.5,-711.5 604.5,-711.5 "/>
<text text-anchor="start" x="388.5" y="-699.5" font-family="Helvetica,sans-Serif" font-size="10.00">&#45; analogPin</text>
<polyline fill="none" stroke="black" points="380.5,-692.5 604.5,-692.5 "/>
<text text-anchor="start" x="388.5" y="-680.5" font-family="Helvetica,sans-Serif" font-size="10.00">+ GenericFilteredAnalog()</text>
<text text-anchor="start" x="388.5" y="-669.5" font-family="Helvetica,sans-Serif" font-size="10.00">+ reset()</text>
<text text-anchor="start" x="388.5" y="-658.5" font-family="Helvetica,sans-Serif" font-size="10.00">+ resetToCurrentValue()</text>
<text text-anchor="start" x="388.5" y="-647.5" font-family="Helvetica,sans-Serif" font-size="10.00">+ map()</text>
<text text-anchor="start" x="388.5" y="-636.5" font-family="Helvetica,sans-Serif" font-size="10.00">+ getMappingFunction()</text>
<text text-anchor="start" x="388.5" y="-625.5" font-family="Helvetica,sans-Serif" font-size="10.00">+ getMappingFunction()</text>
<text text-anchor="start" x="388.5" y="-614.5" font-family="Helvetica,sans-Serif" font-size="10.00">+ update()</text>
<text text-anchor="start" x="388.5" y="-603.5" font-family="Helvetica,sans-Serif" font-size="10.00">+ getValue()</text>
<text text-anchor="start" x="388.5" y="-592.5" font-family="Helvetica,sans-Serif" font-size="10.00">+ getFloatValue()</text>
<text text-anchor="start" x="388.5" y="-581.5" font-family="Helvetica,sans-Serif" font-size="10.00">+ getRawValue()</text>
<text text-anchor="start" x="388.5" y="-570.5" font-family="Helvetica,sans-Serif" font-size="10.00">+ getMaxRawValue()</text>
<text text-anchor="start" x="388.5" y="-559.5" font-family="Helvetica,sans-Serif" font-size="10.00">+ setupADC()</text>
<text text-anchor="start" x="388.5" y="-548.5" font-family="Helvetica,sans-Serif" font-size="10.00">&#45; mapFnHelper()</text>
<text text-anchor="start" x="388.5" y="-537.5" font-family="Helvetica,sans-Serif" font-size="10.00">&#45; mapFnHelper()</text>
</a>
</g>
</g>
<!-- Node7&#45;&gt;Node6 -->
<g id="edge6" class="edge">
<title>Node7&#45;&gt;Node6</title>
<path fill="none" stroke="midnightblue" d="M485.13,-520.48C482.45,-466.67 479.61,-409.77 477.71,-371.81"/>
<polygon fill="none" stroke="midnightblue" points="481.64,-520.67 485.63,-530.49 488.63,-520.32 481.64,-520.67"/>
</g>
<!-- Node8 -->
<g id="node8" class="node">
<title>Node8</title>
<g id="a_node8"><a xlink:href="../../d2/dcb/classHysteresis.html" target="_top" xlink:title=" ">
<polygon fill="white" stroke="black" points="446.5,-987.5 446.5,-1077.5 574.5,-1077.5 574.5,-987.5 446.5,-987.5"/>
<text text-anchor="start" x="454.5" y="-1065.5" font-family="Helvetica,sans-Serif" font-size="10.00">Hysteresis&lt; ADC_BITS</text>
<text text-anchor="start" x="454.5" y="-1054.5" font-family="Helvetica,sans-Serif" font-size="10.00">+IncRes &#45; Precision,</text>
<text text-anchor="middle" x="510.5" y="-1043.5" font-family="Helvetica,sans-Serif" font-size="10.00"> analog_t, analog_t &gt;</text>
<polyline fill="none" stroke="black" points="446.5,-1036.5 574.5,-1036.5 "/>
<text text-anchor="middle" x="510.5" y="-1024.5" font-family="Helvetica,sans-Serif" font-size="10.00"> </text>
<polyline fill="none" stroke="black" points="446.5,-1017.5 574.5,-1017.5 "/>
<text text-anchor="start" x="454.5" y="-1005.5" font-family="Helvetica,sans-Serif" font-size="10.00">+ update()</text>
<text text-anchor="start" x="454.5" y="-994.5" font-family="Helvetica,sans-Serif" font-size="10.00">+ getValue()</text>
</a>
</g>
</g>
<!-- Node8&#45;&gt;Node7 -->
<g id="edge7" class="edge">
<title>Node8&#45;&gt;Node7</title>
<path fill="none" stroke="#404040" d="M508.29,-987.17C506.21,-945.28 502.96,-880.02 499.95,-819.56"/>
<polygon fill="none" stroke="#404040" points="499.95,-819.52 495.65,-813.73 499.35,-807.54 503.64,-813.33 499.95,-819.52"/>
<text text-anchor="middle" x="530.5" y="-851" font-family="Helvetica,sans-Serif" font-size="10.00"> &#45;hysteresis</text>
</g>
<!-- Node9 -->
<g id="node9" class="node">
<title>Node9</title>
<g id="a_node9"><a xlink:title=" ">
<polygon fill="white" stroke="#bfbfbf" points="374,-1279.5 374,-1336.5 433,-1336.5 433,-1279.5 374,-1279.5"/>
<text text-anchor="middle" x="403.5" y="-1324.5" font-family="Helvetica,sans-Serif" font-size="10.00">analog_t</text>
<polyline fill="none" stroke="#bfbfbf" points="374,-1317.5 433,-1317.5 "/>
<text text-anchor="middle" x="403.5" y="-1305.5" font-family="Helvetica,sans-Serif" font-size="10.00"> </text>
<polyline fill="none" stroke="#bfbfbf" points="374,-1298.5 433,-1298.5 "/>
<text text-anchor="middle" x="403.5" y="-1286.5" font-family="Helvetica,sans-Serif" font-size="10.00"> </text>
</a>
</g>
</g>
<!-- Node9&#45;&gt;Node7 -->
<g id="edge10" class="edge">
<title>Node9&#45;&gt;Node7</title>
<path fill="none" stroke="#404040" d="M398.69,-1279.39C387.62,-1210.48 363.69,-1025.74 396.5,-877 400.76,-857.68 407.02,-838.02 414.32,-818.88"/>
<polygon fill="none" stroke="#404040" points="414.33,-818.85 412.81,-811.8 418.74,-807.68 420.26,-814.73 414.33,-818.85"/>
<text text-anchor="middle" x="417" y="-1030" font-family="Helvetica,sans-Serif" font-size="10.00"> &#45;mapFn</text>
</g>
<!-- Node9&#45;&gt;Node8 -->
<g id="edge8" class="edge">
<title>Node9&#45;&gt;Node8</title>
<path fill="none" stroke="#404040" d="M414.35,-1279.27C431.7,-1234.93 466.02,-1147.19 488.61,-1089.44"/>
<polygon fill="none" stroke="#404040" points="488.74,-1089.13 487.2,-1082.09 493.11,-1077.96 494.65,-1085 488.74,-1089.13"/>
<text text-anchor="middle" x="467.5" y="-1253" font-family="Helvetica,sans-Serif" font-size="10.00"> &#45;margin</text>
<text text-anchor="middle" x="467.5" y="-1242" font-family="Helvetica,sans-Serif" font-size="10.00">&#45;max_in</text>
<text text-anchor="middle" x="467.5" y="-1231" font-family="Helvetica,sans-Serif" font-size="10.00">&#45;max_out</text>
<text text-anchor="middle" x="467.5" y="-1220" font-family="Helvetica,sans-Serif" font-size="10.00">&#45;offset</text>
<text text-anchor="middle" x="467.5" y="-1209" font-family="Helvetica,sans-Serif" font-size="10.00">&#45;prevLevel</text>
</g>
<!-- Node10 -->
<g id="node10" class="node">
<title>Node10</title>
<g id="a_node10"><a xlink:href="../../d7/d40/classEMA.html" target="_top" xlink:title=" ">
<polygon fill="white" stroke="black" points="592.5,-949 592.5,-1116 738.5,-1116 738.5,-949 592.5,-949"/>
<text text-anchor="start" x="600.5" y="-1104" font-family="Helvetica,sans-Serif" font-size="10.00">EMA&lt; FilterShiftFactor,</text>
<text text-anchor="start" x="600.5" y="-1093" font-family="Helvetica,sans-Serif" font-size="10.00"> analog_t, ANALOG_FILTER</text>
<text text-anchor="middle" x="665.5" y="-1082" font-family="Helvetica,sans-Serif" font-size="10.00">_TYPE &gt;</text>
<polyline fill="none" stroke="black" points="592.5,-1075 738.5,-1075 "/>
<text text-anchor="start" x="600.5" y="-1063" font-family="Helvetica,sans-Serif" font-size="10.00">+ max_state</text>
<text text-anchor="start" x="600.5" y="-1052" font-family="Helvetica,sans-Serif" font-size="10.00">+ half_state</text>
<text text-anchor="start" x="600.5" y="-1041" font-family="Helvetica,sans-Serif" font-size="10.00">+ zero</text>
<text text-anchor="start" x="600.5" y="-1030" font-family="Helvetica,sans-Serif" font-size="10.00">+ half</text>
<text text-anchor="start" x="600.5" y="-1019" font-family="Helvetica,sans-Serif" font-size="10.00">&#45; state</text>
<polyline fill="none" stroke="black" points="592.5,-1012 738.5,-1012 "/>
<text text-anchor="start" x="600.5" y="-1000" font-family="Helvetica,sans-Serif" font-size="10.00">+ EMA()</text>
<text text-anchor="start" x="600.5" y="-989" font-family="Helvetica,sans-Serif" font-size="10.00">+ reset()</text>
<text text-anchor="start" x="600.5" y="-978" font-family="Helvetica,sans-Serif" font-size="10.00">+ filter()</text>
<text text-anchor="start" x="600.5" y="-967" font-family="Helvetica,sans-Serif" font-size="10.00">+ operator()()</text>
<text text-anchor="start" x="600.5" y="-956" font-family="Helvetica,sans-Serif" font-size="10.00">+ supports_range()</text>
</a>
</g>
</g>
<!-- Node10&#45;&gt;Node7 -->
<g id="edge9" class="edge">
<title>Node10&#45;&gt;Node7</title>
<path fill="none" stroke="#404040" d="M625.81,-948.56C607.38,-910.05 584.89,-863.06 563.67,-818.72"/>
<polygon fill="none" stroke="#404040" points="563.63,-818.64 557.43,-814.95 558.45,-807.81 564.65,-811.5 563.63,-818.64"/>
<text text-anchor="middle" x="593.5" y="-851" font-family="Helvetica,sans-Serif" font-size="10.00"> &#45;filter</text>
</g>
<!-- Node11 -->
<g id="node11" class="node">
<title>Node11</title>
<g id="a_node11"><a xlink:href="../../d7/d0f/classMIDIAddress.html" target="_top" xlink:title="A type&#45;safe utility class for saving a MIDI address consisting of a 7&#45;bit address,...">
<polygon fill="white" stroke="black" points="559.5,-182.5 559.5,-470.5 701.5,-470.5 701.5,-182.5 559.5,-182.5"/>
<text text-anchor="middle" x="630.5" y="-458.5" font-family="Helvetica,sans-Serif" font-size="10.00">MIDIAddress</text>
<polyline fill="none" stroke="black" points="559.5,-451.5 701.5,-451.5 "/>
<text text-anchor="start" x="567.5" y="-439.5" font-family="Helvetica,sans-Serif" font-size="10.00">&#45; addresses</text>
<polyline fill="none" stroke="black" points="559.5,-432.5 701.5,-432.5 "/>
<text text-anchor="start" x="567.5" y="-420.5" font-family="Helvetica,sans-Serif" font-size="10.00">* MIDIAddress()</text>
<text text-anchor="start" x="567.5" y="-409.5" font-family="Helvetica,sans-Serif" font-size="10.00">* MIDIAddress()</text>
<text text-anchor="start" x="567.5" y="-398.5" font-family="Helvetica,sans-Serif" font-size="10.00">* MIDIAddress()</text>
<text text-anchor="start" x="567.5" y="-387.5" font-family="Helvetica,sans-Serif" font-size="10.00">* MIDIAddress()</text>
<text text-anchor="start" x="567.5" y="-376.5" font-family="Helvetica,sans-Serif" font-size="10.00">* MIDIAddress()</text>
<text text-anchor="start" x="567.5" y="-365.5" font-family="Helvetica,sans-Serif" font-size="10.00">* MIDIAddress()</text>
<text text-anchor="start" x="567.5" y="-354.5" font-family="Helvetica,sans-Serif" font-size="10.00">* invalid()</text>
<text text-anchor="start" x="567.5" y="-343.5" font-family="Helvetica,sans-Serif" font-size="10.00">* operator+=()</text>
<text text-anchor="start" x="567.5" y="-332.5" font-family="Helvetica,sans-Serif" font-size="10.00">* operator&#45;=()</text>
<text text-anchor="start" x="567.5" y="-321.5" font-family="Helvetica,sans-Serif" font-size="10.00">* operator+()</text>
<text text-anchor="start" x="567.5" y="-310.5" font-family="Helvetica,sans-Serif" font-size="10.00">* operator&#45;()</text>
<text text-anchor="start" x="567.5" y="-299.5" font-family="Helvetica,sans-Serif" font-size="10.00">* getAddress()</text>
<text text-anchor="start" x="567.5" y="-288.5" font-family="Helvetica,sans-Serif" font-size="10.00">* getChannel()</text>
<text text-anchor="start" x="567.5" y="-277.5" font-family="Helvetica,sans-Serif" font-size="10.00">* getRawChannel()</text>
<text text-anchor="start" x="567.5" y="-266.5" font-family="Helvetica,sans-Serif" font-size="10.00">* getCableNumber()</text>
<text text-anchor="start" x="567.5" y="-255.5" font-family="Helvetica,sans-Serif" font-size="10.00">* getRawCableNumber()</text>
<text text-anchor="start" x="567.5" y="-244.5" font-family="Helvetica,sans-Serif" font-size="10.00">* operator==()</text>
<text text-anchor="start" x="567.5" y="-233.5" font-family="Helvetica,sans-Serif" font-size="10.00">* operator!=()</text>
<text text-anchor="start" x="567.5" y="-222.5" font-family="Helvetica,sans-Serif" font-size="10.00">* isValid()</text>
<text text-anchor="start" x="567.5" y="-211.5" font-family="Helvetica,sans-Serif" font-size="10.00">* operator bool()</text>
<text text-anchor="start" x="567.5" y="-200.5" font-family="Helvetica,sans-Serif" font-size="10.00">* matchSingle()</text>
<text text-anchor="start" x="567.5" y="-189.5" font-family="Helvetica,sans-Serif" font-size="10.00">* matchAddressInRange()</text>
</a>
</g>
</g>
<!-- Node11&#45;&gt;Node1 -->
<g id="edge11" class="edge">
<title>Node11&#45;&gt;Node1</title>
<path fill="none" stroke="#404040" d="M572.93,-182.22C567.44,-172.11 561.62,-162.26 555.5,-153 552.88,-149.04 550.07,-145.09 547.12,-141.19"/>
<polygon fill="none" stroke="#404040" points="546.98,-141.01 540.12,-138.79 539.54,-131.6 546.4,-133.83 546.98,-141.01"/>
<text text-anchor="middle" x="583.5" y="-156" font-family="Helvetica,sans-Serif" font-size="10.00"> &#45;address</text>
</g>
</g>
</svg>
