<?xml version="1.0" encoding="UTF-8" standalone="no"?>
<!DOCTYPE svg PUBLIC "-//W3C//DTD SVG 1.1//EN"
 "http://www.w3.org/Graphics/SVG/1.1/DTD/svg11.dtd">
<!-- Generated by graphviz version 2.40.1 (20161225.0304)
 -->
<!-- Title: CCRotaryEncoder.cpp Pages: 1 -->
<svg width="2321pt" height="1113pt"
 viewBox="0.00 0.00 2321.00 1113.00" xmlns="http://www.w3.org/2000/svg" xmlns:xlink="http://www.w3.org/1999/xlink">
<g id="graph0" class="graph" transform="scale(1 1) rotate(0) translate(4 1109)">
<title>CCRotaryEncoder.cpp</title>
<polygon fill="#ffffff" stroke="transparent" points="-4,4 -4,-1109 2317,-1109 2317,4 -4,4"/>
<!-- Node1 -->
<g id="node1" class="node">
<title>Node1</title>
<g id="a_node1"><a xlink:title=" ">
<polygon fill="#bfbfbf" stroke="#000000" points="437,-1085.5 437,-1104.5 553,-1104.5 553,-1085.5 437,-1085.5"/>
<text text-anchor="middle" x="495" y="-1092.5" font-family="Helvetica,sans-Serif" font-size="10.00" fill="#000000">CCRotaryEncoder.cpp</text>
</a>
</g>
</g>
<!-- Node2 -->
<g id="node2" class="node">
<title>Node2</title>
<g id="a_node2"><a xlink:title=" ">
<polygon fill="#ffffff" stroke="#bfbfbf" points="412.5,-895.5 412.5,-914.5 473.5,-914.5 473.5,-895.5 412.5,-895.5"/>
<text text-anchor="middle" x="443" y="-902.5" font-family="Helvetica,sans-Serif" font-size="10.00" fill="#000000">Encoder.h</text>
</a>
</g>
</g>
<!-- Node1&#45;&gt;Node2 -->
<g id="edge1" class="edge">
<title>Node1&#45;&gt;Node2</title>
<path fill="none" stroke="#191970" d="M492.0369,-1085.3647C486.0853,-1065.9036 472.362,-1020.4825 462,-982 456.757,-962.5284 451.2945,-940.1351 447.5797,-924.5356"/>
<polygon fill="#191970" stroke="#191970" points="450.918,-923.4432 445.2117,-914.5164 444.1057,-925.0534 450.918,-923.4432"/>
</g>
<!-- Node3 -->
<g id="node3" class="node">
<title>Node3</title>
<g id="a_node3"><a xlink:href="../../d1/d6f/ManyAddresses_2CCRotaryEncoder_8hpp.html" target="_top" xlink:title=" ">
<polygon fill="#ffffff" stroke="#000000" points="551,-1018.5 551,-1048.5 703,-1048.5 703,-1018.5 551,-1018.5"/>
<text text-anchor="start" x="559" y="-1036.5" font-family="Helvetica,sans-Serif" font-size="10.00" fill="#000000">MIDI_Outputs/ManyAddresses</text>
<text text-anchor="middle" x="627" y="-1025.5" font-family="Helvetica,sans-Serif" font-size="10.00" fill="#000000">/CCRotaryEncoder.hpp</text>
</a>
</g>
</g>
<!-- Node1&#45;&gt;Node3 -->
<g id="edge2" class="edge">
<title>Node1&#45;&gt;Node3</title>
<path fill="none" stroke="#191970" d="M515.625,-1085.3906C534.234,-1076.7205 562.1707,-1063.7046 585.4085,-1052.8779"/>
<polygon fill="#191970" stroke="#191970" points="587.1228,-1055.9404 594.7092,-1048.5446 584.1666,-1049.5953 587.1228,-1055.9404"/>
</g>
<!-- Node4 -->
<g id="node4" class="node">
<title>Node4</title>
<g id="a_node4"><a xlink:href="../../d0/dcc/BankAddresses_8hpp.html" target="_top" xlink:title=" ">
<polygon fill="#ffffff" stroke="#000000" points="471.5,-957 471.5,-976 606.5,-976 606.5,-957 471.5,-957"/>
<text text-anchor="middle" x="539" y="-964" font-family="Helvetica,sans-Serif" font-size="10.00" fill="#000000">Banks/BankAddresses.hpp</text>
</a>
</g>
</g>
<!-- Node3&#45;&gt;Node4 -->
<g id="edge3" class="edge">
<title>Node3&#45;&gt;Node4</title>
<path fill="none" stroke="#191970" d="M607.0314,-1018.2967C592.9213,-1007.5537 574.0549,-993.1895 559.7692,-982.3129"/>
<polygon fill="#191970" stroke="#191970" points="561.6264,-979.328 551.5498,-976.055 557.386,-984.8975 561.6264,-979.328"/>
</g>
<!-- Node39 -->
<g id="node39" class="node">
<title>Node39</title>
<g id="a_node39"><a xlink:href="../../da/dd5/Bankable_2Abstract_2MIDIRotaryEncoder_8hpp.html" target="_top" xlink:title=" ">
<polygon fill="#ffffff" stroke="#000000" points="624.5,-951.5 624.5,-981.5 789.5,-981.5 789.5,-951.5 624.5,-951.5"/>
<text text-anchor="start" x="632.5" y="-969.5" font-family="Helvetica,sans-Serif" font-size="10.00" fill="#000000">MIDI_Outputs/Bankable</text>
<text text-anchor="middle" x="707" y="-958.5" font-family="Helvetica,sans-Serif" font-size="10.00" fill="#000000">/Abstract/MIDIRotaryEncoder.hpp</text>
</a>
</g>
</g>
<!-- Node3&#45;&gt;Node39 -->
<g id="edge76" class="edge">
<title>Node3&#45;&gt;Node39</title>
<path fill="none" stroke="#191970" d="M645.1532,-1018.2967C655.7909,-1009.3876 669.4022,-997.9882 681.146,-988.1527"/>
<polygon fill="#191970" stroke="#191970" points="683.4993,-990.7472 688.9186,-981.6432 679.0048,-985.3806 683.4993,-990.7472"/>
</g>
<!-- Node44 -->
<g id="node44" class="node">
<title>Node44</title>
<g id="a_node44"><a xlink:href="../../d9/d24/RelativeCCSender_8hpp.html" target="_top" xlink:title=" ">
<polygon fill="#ffffff" stroke="#000000" points="1062.5,-895.5 1062.5,-914.5 1245.5,-914.5 1245.5,-895.5 1062.5,-895.5"/>
<text text-anchor="middle" x="1154" y="-902.5" font-family="Helvetica,sans-Serif" font-size="10.00" fill="#000000">MIDI_Senders/RelativeCCSender.hpp</text>
</a>
</g>
</g>
<!-- Node3&#45;&gt;Node44 -->
<g id="edge91" class="edge">
<title>Node3&#45;&gt;Node44</title>
<path fill="none" stroke="#191970" d="M688.7439,-1018.4448C794.6676,-992.6171 1008.8892,-940.3828 1105.1802,-916.9039"/>
<polygon fill="#191970" stroke="#191970" points="1106.0638,-920.291 1114.95,-914.5217 1104.4055,-913.4903 1106.0638,-920.291"/>
</g>
<!-- Node5 -->
<g id="node5" class="node">
<title>Node5</title>
<g id="a_node5"><a xlink:href="../../d0/dd4/BankableAddresses_8hpp.html" target="_top" xlink:title=" ">
<polygon fill="#ffffff" stroke="#000000" points="492,-895.5 492,-914.5 614,-914.5 614,-895.5 492,-895.5"/>
<text text-anchor="middle" x="553" y="-902.5" font-family="Helvetica,sans-Serif" font-size="10.00" fill="#000000">BankableAddresses.hpp</text>
</a>
</g>
</g>
<!-- Node4&#45;&gt;Node5 -->
<g id="edge4" class="edge">
<title>Node4&#45;&gt;Node5</title>
<path fill="none" stroke="#191970" d="M541.1875,-956.8906C543.1486,-948.276 546.0863,-935.3708 548.5415,-924.5858"/>
<polygon fill="#191970" stroke="#191970" points="551.9746,-925.2723 550.7817,-914.7449 545.1493,-923.7185 551.9746,-925.2723"/>
</g>
<!-- Node6 -->
<g id="node6" class="node">
<title>Node6</title>
<g id="a_node6"><a xlink:href="../../d4/d57/Bank_8hpp.html" target="_top" xlink:title=" ">
<polygon fill="#ffffff" stroke="#000000" points="369,-834 369,-853 427,-853 427,-834 369,-834"/>
<text text-anchor="middle" x="398" y="-841" font-family="Helvetica,sans-Serif" font-size="10.00" fill="#000000">Bank.hpp</text>
</a>
</g>
</g>
<!-- Node5&#45;&gt;Node6 -->
<g id="edge5" class="edge">
<title>Node5&#45;&gt;Node6</title>
<path fill="none" stroke="#191970" d="M528.7813,-895.3906C502.6194,-885.0103 460.7571,-868.4004 431.4612,-856.7766"/>
<polygon fill="#191970" stroke="#191970" points="432.6346,-853.4767 422.0487,-853.0419 430.0529,-859.9833 432.6346,-853.4767"/>
</g>
<!-- Node37 -->
<g id="node37" class="node">
<title>Node37</title>
<g id="a_node37"><a xlink:href="../../dd/d1f/BankConfig_8hpp.html" target="_top" xlink:title=" ">
<polygon fill="#ffffff" stroke="#000000" points="528,-705.5 528,-724.5 614,-724.5 614,-705.5 528,-705.5"/>
<text text-anchor="middle" x="571" y="-712.5" font-family="Helvetica,sans-Serif" font-size="10.00" fill="#000000">BankConfig.hpp</text>
</a>
</g>
</g>
<!-- Node5&#45;&gt;Node37 -->
<g id="edge74" class="edge">
<title>Node5&#45;&gt;Node37</title>
<path fill="none" stroke="#191970" d="M557.6872,-895.3115C568.2884,-872.2439 592.6141,-812.1685 585,-761 583.6673,-752.0439 580.9506,-742.419 578.2619,-734.3"/>
<polygon fill="#191970" stroke="#191970" points="581.4936,-732.9402 574.8624,-724.6772 574.8933,-735.272 581.4936,-732.9402"/>
</g>
<!-- Node38 -->
<g id="node38" class="node">
<title>Node38</title>
<g id="a_node38"><a xlink:href="../../db/dd6/MIDIAddress_8hpp.html" target="_top" xlink:title=" ">
<polygon fill="#ffffff" stroke="#000000" points="708,-705.5 708,-724.5 820,-724.5 820,-705.5 708,-705.5"/>
<text text-anchor="middle" x="764" y="-712.5" font-family="Helvetica,sans-Serif" font-size="10.00" fill="#000000">Def/MIDIAddress.hpp</text>
</a>
</g>
</g>
<!-- Node5&#45;&gt;Node38 -->
<g id="edge75" class="edge">
<title>Node5&#45;&gt;Node38</title>
<path fill="none" stroke="#191970" d="M592.1263,-895.4959C664.0856,-877.1386 812.7633,-834.8239 842,-792 849.7685,-780.6212 848.8337,-772.9636 842,-761 833.6846,-746.4424 818.762,-736.0309 804.1797,-728.8375"/>
<polygon fill="#191970" stroke="#191970" points="805.2733,-725.491 794.7191,-724.5638 802.3915,-731.8703 805.2733,-725.491"/>
</g>
<!-- Node7 -->
<g id="node7" class="node">
<title>Node7</title>
<g id="a_node7"><a xlink:href="../../df/dee/Debug_8hpp.html" target="_top" xlink:title=" ">
<polygon fill="#ffffff" stroke="#000000" points="345.5,-392.5 345.5,-411.5 458.5,-411.5 458.5,-392.5 345.5,-392.5"/>
<text text-anchor="middle" x="402" y="-399.5" font-family="Helvetica,sans-Serif" font-size="10.00" fill="#000000">AH/Debug/Debug.hpp</text>
</a>
</g>
</g>
<!-- Node6&#45;&gt;Node7 -->
<g id="edge6" class="edge">
<title>Node6&#45;&gt;Node7</title>
<path fill="none" stroke="#191970" d="M368.8446,-839.5188C283.141,-827.0076 38,-785.0951 38,-715 38,-715 38,-715 38,-519.5 38,-457.8053 229.7659,-423.7679 334.9187,-409.7414"/>
<polygon fill="#191970" stroke="#191970" points="335.6634,-413.1739 345.125,-408.4064 334.7555,-406.233 335.6634,-413.1739"/>
</g>
<!-- Node25 -->
<g id="node25" class="node">
<title>Node25</title>
<g id="a_node25"><a xlink:href="../../d1/d93/Error_8hpp.html" target="_top" xlink:title=" ">
<polygon fill="#ffffff" stroke="#000000" points="209,-448.5 209,-467.5 307,-467.5 307,-448.5 209,-448.5"/>
<text text-anchor="middle" x="258" y="-455.5" font-family="Helvetica,sans-Serif" font-size="10.00" fill="#000000">AH/Error/Error.hpp</text>
</a>
</g>
</g>
<!-- Node6&#45;&gt;Node25 -->
<g id="edge35" class="edge">
<title>Node6&#45;&gt;Node25</title>
<path fill="none" stroke="#191970" d="M368.9417,-836.9001C296.5596,-819.6219 114,-770.5383 114,-715 114,-715 114,-715 114,-653.5 114,-572.5982 194.9308,-503.1225 235.4481,-473.4094"/>
<polygon fill="#191970" stroke="#191970" points="237.5751,-476.1911 243.6663,-467.5222 233.4986,-470.5005 237.5751,-476.1911"/>
</g>
<!-- Node26 -->
<g id="node26" class="node">
<title>Node26</title>
<g id="a_node26"><a xlink:href="../../de/dd1/LinkedList_8hpp.html" target="_top" xlink:title=" ">
<polygon fill="#ffffff" stroke="#000000" points="558.5,-644 558.5,-663 705.5,-663 705.5,-644 558.5,-644"/>
<text text-anchor="middle" x="632" y="-651" font-family="Helvetica,sans-Serif" font-size="10.00" fill="#000000">AH/Containers/LinkedList.hpp</text>
</a>
</g>
</g>
<!-- Node6&#45;&gt;Node26 -->
<g id="edge38" class="edge">
<title>Node6&#45;&gt;Node26</title>
<path fill="none" stroke="#191970" d="M397.934,-833.9061C398.2812,-817.4808 401.0527,-783.5657 417,-761 454.4822,-707.962 525.847,-679.6816 576.0476,-665.6584"/>
<polygon fill="#191970" stroke="#191970" points="577.0401,-669.0159 585.7892,-663.0407 575.2235,-662.2557 577.0401,-669.0159"/>
</g>
<!-- Node29 -->
<g id="node29" class="node">
<title>Node29</title>
<g id="a_node29"><a xlink:href="../../d9/d46/Selectable_8hpp.html" target="_top" xlink:title=" ">
<polygon fill="#ffffff" stroke="#000000" points="308.5,-705.5 308.5,-724.5 433.5,-724.5 433.5,-705.5 308.5,-705.5"/>
<text text-anchor="middle" x="371" y="-712.5" font-family="Helvetica,sans-Serif" font-size="10.00" fill="#000000">Selectors/Selectable.hpp</text>
</a>
</g>
</g>
<!-- Node6&#45;&gt;Node29 -->
<g id="edge44" class="edge">
<title>Node6&#45;&gt;Node29</title>
<path fill="none" stroke="#191970" d="M395.0267,-833.6982C391.9725,-823.3893 387.222,-806.6601 384,-792 379.738,-772.6078 376.0978,-750.2031 373.7628,-734.5793"/>
<polygon fill="#191970" stroke="#191970" points="377.2058,-733.9334 372.3031,-724.5412 370.2787,-734.9408 377.2058,-733.9334"/>
</g>
<!-- Node36 -->
<g id="node36" class="node">
<title>Node36</title>
<g id="a_node36"><a xlink:href="../../de/d6e/BankableMIDIInput_8hpp.html" target="_top" xlink:title=" ">
<polygon fill="#ffffff" stroke="#000000" points="426,-767 426,-786 576,-786 576,-767 426,-767"/>
<text text-anchor="middle" x="501" y="-774" font-family="Helvetica,sans-Serif" font-size="10.00" fill="#000000">Banks/BankableMIDIInput.hpp</text>
</a>
</g>
</g>
<!-- Node6&#45;&gt;Node36 -->
<g id="edge66" class="edge">
<title>Node6&#45;&gt;Node36</title>
<path fill="none" stroke="#191970" d="M407.8568,-833.9005C422.8309,-822.7559 451.0149,-804.2477 472.5892,-791.2682"/>
<polygon fill="#191970" stroke="#191970" points="474.5415,-794.1801 481.3728,-786.0817 470.9823,-788.1524 474.5415,-794.1801"/>
</g>
<!-- Node8 -->
<g id="node8" class="node">
<title>Node8</title>
<g id="a_node8"><a xlink:href="../../d1/d65/Warnings_8hpp.html" target="_top" xlink:title=" ">
<polygon fill="#ffffff" stroke="#000000" points="1375.5,-.5 1375.5,-19.5 1508.5,-19.5 1508.5,-.5 1375.5,-.5"/>
<text text-anchor="middle" x="1442" y="-7.5" font-family="Helvetica,sans-Serif" font-size="10.00" fill="#000000">AH/Settings/Warnings.hpp</text>
</a>
</g>
</g>
<!-- Node7&#45;&gt;Node8 -->
<g id="edge7" class="edge">
<title>Node7&#45;&gt;Node8</title>
<path fill="none" stroke="#191970" d="M387.0514,-392.216C353.6753,-369.0551 276,-307.2813 276,-234 276,-234 276,-234 276,-122 276,-4.9321 415.2794,-73.7095 531,-56 612.2514,-43.5656 1160.9174,-21.0438 1365.3941,-12.9754"/>
<polygon fill="#191970" stroke="#191970" points="1365.5973,-16.4702 1375.4517,-12.5793 1365.3217,-9.4757 1365.5973,-16.4702"/>
</g>
<!-- Node9 -->
<g id="node9" class="node">
<title>Node9</title>
<g id="a_node9"><a xlink:href="../../dd/d80/PrintStream_8hpp.html" target="_top" xlink:title=" ">
<polygon fill="#ffffff" stroke="#000000" points="1187.5,-224.5 1187.5,-243.5 1346.5,-243.5 1346.5,-224.5 1187.5,-224.5"/>
<text text-anchor="middle" x="1267" y="-231.5" font-family="Helvetica,sans-Serif" font-size="10.00" fill="#000000">AH/PrintStream/PrintStream.hpp</text>
</a>
</g>
</g>
<!-- Node7&#45;&gt;Node9 -->
<g id="edge8" class="edge">
<title>Node7&#45;&gt;Node9</title>
<path fill="none" stroke="#191970" d="M429.5889,-392.4337C472.8154,-377.846 559.3902,-350.2376 635,-336 798.6716,-305.1801 843.9342,-328.6474 1008,-300 1018.5596,-298.1562 1148.8501,-264.5788 1220.4998,-246.046"/>
<polygon fill="#191970" stroke="#191970" points="1221.3976,-249.429 1230.2021,-243.5357 1219.6442,-242.6522 1221.3976,-249.429"/>
</g>
<!-- Node16 -->
<g id="node16" class="node">
<title>Node16</title>
<g id="a_node16"><a xlink:href="../../de/dd1/AH_2Settings_2SettingsWrapper_8hpp.html" target="_top" xlink:title=" ">
<polygon fill="#ffffff" stroke="#000000" points="644,-336.5 644,-355.5 808,-355.5 808,-336.5 644,-336.5"/>
<text text-anchor="middle" x="726" y="-343.5" font-family="Helvetica,sans-Serif" font-size="10.00" fill="#000000">AH/Settings/SettingsWrapper.hpp</text>
</a>
</g>
</g>
<!-- Node7&#45;&gt;Node16 -->
<g id="edge19" class="edge">
<title>Node7&#45;&gt;Node16</title>
<path fill="none" stroke="#191970" d="M452.0999,-392.4369C506.6756,-382.6717 594.2357,-367.5207 655.67,-357.2006"/>
<polygon fill="#191970" stroke="#191970" points="656.393,-360.6283 665.677,-355.5237 655.2361,-353.7246 656.393,-360.6283"/>
</g>
<!-- Node24 -->
<g id="node24" class="node">
<title>Node24</title>
<g id="a_node24"><a xlink:href="../../d7/d52/DebugVal_8hpp.html" target="_top" xlink:title=" ">
<polygon fill="#ffffff" stroke="#000000" points="380,-336.5 380,-355.5 458,-355.5 458,-336.5 380,-336.5"/>
<text text-anchor="middle" x="419" y="-343.5" font-family="Helvetica,sans-Serif" font-size="10.00" fill="#000000">DebugVal.hpp</text>
</a>
</g>
</g>
<!-- Node7&#45;&gt;Node24 -->
<g id="edge34" class="edge">
<title>Node7&#45;&gt;Node24</title>
<path fill="none" stroke="#191970" d="M404.9612,-392.2455C407.2038,-384.8579 410.3577,-374.4689 413.1081,-365.4087"/>
<polygon fill="#191970" stroke="#191970" points="416.517,-366.2282 416.0728,-355.6427 409.8188,-364.1948 416.517,-366.2282"/>
</g>
<!-- Node9&#45;&gt;Node8 -->
<g id="edge9" class="edge">
<title>Node9&#45;&gt;Node8</title>
<path fill="none" stroke="#191970" d="M1281.8281,-224.3022C1306.0932,-207.8137 1354.6176,-172.1711 1385,-132 1409.6791,-99.3698 1427.2533,-54.3405 1435.9039,-29.1122"/>
<polygon fill="#191970" stroke="#191970" points="1439.2306,-30.1997 1439.0596,-19.6062 1432.5871,-27.9942 1439.2306,-30.1997"/>
</g>
<!-- Node10 -->
<g id="node10" class="node">
<title>Node10</title>
<g id="a_node10"><a xlink:href="../../d6/ddf/Arduino-Wrapper_8h.html" target="_top" xlink:title=" ">
<polygon fill="#ffffff" stroke="#000000" points="1609.5,-168.5 1609.5,-187.5 1724.5,-187.5 1724.5,-168.5 1609.5,-168.5"/>
<text text-anchor="middle" x="1667" y="-175.5" font-family="Helvetica,sans-Serif" font-size="10.00" fill="#000000">AH/Arduino&#45;Wrapper.h</text>
</a>
</g>
</g>
<!-- Node9&#45;&gt;Node10 -->
<g id="edge10" class="edge">
<title>Node9&#45;&gt;Node10</title>
<path fill="none" stroke="#191970" d="M1335.308,-224.4369C1409.0443,-214.1138 1525.7718,-197.7719 1599.279,-187.4809"/>
<polygon fill="#191970" stroke="#191970" points="1599.9373,-190.923 1609.3554,-186.0702 1598.9667,-183.9906 1599.9373,-190.923"/>
</g>
<!-- Node11 -->
<g id="node11" class="node">
<title>Node11</title>
<g id="a_node11"><a xlink:href="../../d7/d79/MinMaxFix_8hpp.html" target="_top" xlink:title=" ">
<polygon fill="#ffffff" stroke="#000000" points="1623.5,-112.5 1623.5,-131.5 1748.5,-131.5 1748.5,-112.5 1623.5,-112.5"/>
<text text-anchor="middle" x="1686" y="-119.5" font-family="Helvetica,sans-Serif" font-size="10.00" fill="#000000">AH/Math/MinMaxFix.hpp</text>
</a>
</g>
</g>
<!-- Node10&#45;&gt;Node11 -->
<g id="edge11" class="edge">
<title>Node10&#45;&gt;Node11</title>
<path fill="none" stroke="#191970" d="M1670.3095,-168.2455C1672.8433,-160.7776 1676.4177,-150.2427 1679.515,-141.1137"/>
<polygon fill="#191970" stroke="#191970" points="1682.8298,-142.237 1682.7284,-131.6427 1676.2009,-139.9879 1682.8298,-142.237"/>
</g>
<!-- Node13 -->
<g id="node13" class="node">
<title>Node13</title>
<g id="a_node13"><a xlink:title=" ">
<polygon fill="#ffffff" stroke="#bfbfbf" points="1937,-.5 1937,-19.5 1995,-19.5 1995,-.5 1937,-.5"/>
<text text-anchor="middle" x="1966" y="-7.5" font-family="Helvetica,sans-Serif" font-size="10.00" fill="#000000">Arduino.h</text>
</a>
</g>
</g>
<!-- Node10&#45;&gt;Node13 -->
<g id="edge18" class="edge">
<title>Node10&#45;&gt;Node13</title>
<path fill="none" stroke="#191970" d="M1724.7613,-172.3246C1788.0681,-163.0356 1888.4045,-138.7876 1947,-76 1958.5546,-63.6187 1963.1365,-44.6602 1964.926,-30.2339"/>
<polygon fill="#191970" stroke="#191970" points="1968.4498,-30.117 1965.8424,-19.8481 1961.4769,-29.5017 1968.4498,-30.117"/>
</g>
<!-- Node15 -->
<g id="node15" class="node">
<title>Node15</title>
<g id="a_node15"><a xlink:title=" ">
<polygon fill="#ffffff" stroke="#bfbfbf" points="838.5,-112.5 838.5,-131.5 939.5,-131.5 939.5,-112.5 838.5,-112.5"/>
<text text-anchor="middle" x="889" y="-119.5" font-family="Helvetica,sans-Serif" font-size="10.00" fill="#000000">AH/STL/type_traits</text>
</a>
</g>
</g>
<!-- Node10&#45;&gt;Node15 -->
<g id="edge17" class="edge">
<title>Node10&#45;&gt;Node15</title>
<path fill="none" stroke="#191970" d="M1609.4759,-173.8594C1466.4922,-163.5676 1096.0001,-136.8998 949.7052,-126.3695"/>
<polygon fill="#191970" stroke="#191970" points="949.7911,-122.8667 939.5656,-125.6397 949.2885,-129.8487 949.7911,-122.8667"/>
</g>
<!-- Node11&#45;&gt;Node8 -->
<g id="edge12" class="edge">
<title>Node11&#45;&gt;Node8</title>
<path fill="none" stroke="#191970" d="M1661.5444,-112.4189C1638.9165,-103.4235 1604.4333,-89.3832 1575,-76 1538.0093,-59.1805 1496.143,-38.0488 1469.4321,-24.2935"/>
<polygon fill="#191970" stroke="#191970" points="1470.8048,-21.0631 1460.3141,-19.5811 1467.5908,-27.2817 1470.8048,-21.0631"/>
</g>
<!-- Node12 -->
<g id="node12" class="node">
<title>Node12</title>
<g id="a_node12"><a xlink:href="../../d6/d3b/FixArduinoMacros_8hpp.html" target="_top" xlink:title=" ">
<polygon fill="#ffffff" stroke="#000000" points="1584,-56.5 1584,-75.5 1740,-75.5 1740,-56.5 1584,-56.5"/>
<text text-anchor="middle" x="1662" y="-63.5" font-family="Helvetica,sans-Serif" font-size="10.00" fill="#000000">AH/Math/FixArduinoMacros.hpp</text>
</a>
</g>
</g>
<!-- Node11&#45;&gt;Node12 -->
<g id="edge13" class="edge">
<title>Node11&#45;&gt;Node12</title>
<path fill="none" stroke="#191970" d="M1681.8195,-112.2455C1678.619,-104.7776 1674.104,-94.2427 1670.1916,-85.1137"/>
<polygon fill="#191970" stroke="#191970" points="1673.2888,-83.4554 1666.1326,-75.6427 1666.8548,-86.2129 1673.2888,-83.4554"/>
</g>
<!-- Node14 -->
<g id="node14" class="node">
<title>Node14</title>
<g id="a_node14"><a xlink:href="../../d6/db0/AH_2Settings_2NamespaceSettings_8hpp.html" target="_top" xlink:title=" ">
<polygon fill="#ffffff" stroke="#000000" points="1758,-56.5 1758,-75.5 1938,-75.5 1938,-56.5 1758,-56.5"/>
<text text-anchor="middle" x="1848" y="-63.5" font-family="Helvetica,sans-Serif" font-size="10.00" fill="#000000">AH/Settings/NamespaceSettings.hpp</text>
</a>
</g>
</g>
<!-- Node11&#45;&gt;Node14 -->
<g id="edge16" class="edge">
<title>Node11&#45;&gt;Node14</title>
<path fill="none" stroke="#191970" d="M1713.8488,-112.3733C1740.6703,-103.1016 1781.4127,-89.0178 1810.9598,-78.804"/>
<polygon fill="#191970" stroke="#191970" points="1812.2069,-82.0762 1820.5146,-75.5011 1809.9198,-75.4603 1812.2069,-82.0762"/>
</g>
<!-- Node12&#45;&gt;Node8 -->
<g id="edge14" class="edge">
<title>Node12&#45;&gt;Node8</title>
<path fill="none" stroke="#191970" d="M1624.1807,-56.3733C1586.8062,-46.8598 1529.5276,-32.2797 1489.1929,-22.0127"/>
<polygon fill="#191970" stroke="#191970" points="1489.8802,-18.5761 1479.3258,-19.5011 1488.1534,-25.3598 1489.8802,-18.5761"/>
</g>
<!-- Node12&#45;&gt;Node13 -->
<g id="edge15" class="edge">
<title>Node12&#45;&gt;Node13</title>
<path fill="none" stroke="#191970" d="M1713.914,-56.4369C1774.2942,-45.3142 1872.6052,-27.2043 1926.8917,-17.2042"/>
<polygon fill="#191970" stroke="#191970" points="1927.6168,-20.6296 1936.8173,-15.3758 1926.3486,-13.7454 1927.6168,-20.6296"/>
</g>
<!-- Node16&#45;&gt;Node7 -->
<g id="edge33" class="edge">
<title>Node16&#45;&gt;Node7</title>
<path fill="none" stroke="#191970" d="M676.1846,-355.5122C620.5844,-365.4625 530.4981,-381.0449 468.824,-391.3879"/>
<polygon fill="#191970" stroke="#191970" points="468.0844,-387.9629 458.7988,-393.0647 469.2393,-394.867 468.0844,-387.9629"/>
</g>
<!-- Node16&#45;&gt;Node8 -->
<g id="edge20" class="edge">
<title>Node16&#45;&gt;Node8</title>
<path fill="none" stroke="#191970" d="M647.1232,-336.4784C598.0788,-329.0163 541.0318,-317.0244 523,-300 500.8047,-279.0448 504,-264.5246 504,-234 504,-234 504,-234 504,-122 504,-64.6047 560.1008,-72.742 615,-56 685.4843,-34.5052 1173.2991,-17.9407 1364.9445,-12.1918"/>
<polygon fill="#191970" stroke="#191970" points="1365.3262,-15.6821 1375.2174,-11.8855 1365.1175,-8.6852 1365.3262,-15.6821"/>
</g>
<!-- Node16&#45;&gt;Node14 -->
<g id="edge21" class="edge">
<title>Node16&#45;&gt;Node14</title>
<path fill="none" stroke="#191970" d="M808.2853,-344.8003C1024.194,-341.252 1592.2884,-329.1741 1620,-300 1626.1218,-293.5551 1620.9036,-288.8428 1620,-280 1614.8676,-229.7726 1594.8311,-218.1107 1601,-168 1604.1346,-142.5373 1596.4109,-129.681 1615,-112 1626.4322,-101.1262 1707.4868,-86.8111 1770.823,-77.057"/>
<polygon fill="#191970" stroke="#191970" points="1771.4646,-80.4997 1780.8225,-75.5319 1770.4091,-73.5797 1771.4646,-80.4997"/>
</g>
<!-- Node17 -->
<g id="node17" class="node">
<title>Node17</title>
<g id="a_node17"><a xlink:href="../../d5/d4f/AH_2Settings_2Settings_8hpp.html" target="_top" xlink:title="All user settings and debugging options can be changed here.">
<polygon fill="#ffffff" stroke="#000000" points="927.5,-280.5 927.5,-299.5 998.5,-299.5 998.5,-280.5 927.5,-280.5"/>
<text text-anchor="middle" x="963" y="-287.5" font-family="Helvetica,sans-Serif" font-size="10.00" fill="#000000">Settings.hpp</text>
</a>
</g>
</g>
<!-- Node16&#45;&gt;Node17 -->
<g id="edge22" class="edge">
<title>Node16&#45;&gt;Node17</title>
<path fill="none" stroke="#191970" d="M766.4725,-336.4369C808.4198,-326.5253 873.8493,-311.0651 917.5485,-300.7396"/>
<polygon fill="#191970" stroke="#191970" points="918.4162,-304.131 927.3434,-298.4252 916.8065,-297.3186 918.4162,-304.131"/>
</g>
<!-- Node23 -->
<g id="node23" class="node">
<title>Node23</title>
<g id="a_node23"><a xlink:href="../../d9/d98/TeensyUSBTypes_8hpp.html" target="_top" xlink:title=" ">
<polygon fill="#ffffff" stroke="#000000" points="532,-280.5 532,-299.5 700,-299.5 700,-280.5 532,-280.5"/>
<text text-anchor="middle" x="616" y="-287.5" font-family="Helvetica,sans-Serif" font-size="10.00" fill="#000000">AH/Teensy/TeensyUSBTypes.hpp</text>
</a>
</g>
</g>
<!-- Node16&#45;&gt;Node23 -->
<g id="edge32" class="edge">
<title>Node16&#45;&gt;Node23</title>
<path fill="none" stroke="#191970" d="M706.8395,-336.2455C689.4889,-327.4125 663.7099,-314.2887 644.0417,-304.2758"/>
<polygon fill="#191970" stroke="#191970" points="645.4405,-301.0605 634.941,-299.6427 642.2647,-307.2986 645.4405,-301.0605"/>
</g>
<!-- Node18 -->
<g id="node18" class="node">
<title>Node18</title>
<g id="a_node18"><a xlink:href="../../dc/d50/Frequency_8hpp.html" target="_top" xlink:title=" ">
<polygon fill="#ffffff" stroke="#000000" points="1248,-112.5 1248,-131.5 1376,-131.5 1376,-112.5 1248,-112.5"/>
<text text-anchor="middle" x="1312" y="-119.5" font-family="Helvetica,sans-Serif" font-size="10.00" fill="#000000">AH/Types/Frequency.hpp</text>
</a>
</g>
</g>
<!-- Node17&#45;&gt;Node18 -->
<g id="edge23" class="edge">
<title>Node17&#45;&gt;Node18</title>
<path fill="none" stroke="#191970" d="M967.6548,-280.4794C975.1002,-266.2044 991.0122,-239.3009 1012,-224 1081.0944,-173.6276 1176.8805,-146.8216 1241.474,-133.5345"/>
<polygon fill="#191970" stroke="#191970" points="1242.4447,-136.9097 1251.5641,-131.5165 1241.0719,-130.0456 1242.4447,-136.9097"/>
</g>
<!-- Node19 -->
<g id="node19" class="node">
<title>Node19</title>
<g id="a_node19"><a xlink:href="../../d7/d7c/ADCConfig_8hpp.html" target="_top" xlink:title="This file contains the platform&#45;specific ADC resolutions. By default, the library automatically selec...">
<polygon fill="#ffffff" stroke="#000000" points="1021,-224.5 1021,-243.5 1169,-243.5 1169,-224.5 1021,-224.5"/>
<text text-anchor="middle" x="1095" y="-231.5" font-family="Helvetica,sans-Serif" font-size="10.00" fill="#000000">AH/Hardware/ADCConfig.hpp</text>
</a>
</g>
</g>
<!-- Node17&#45;&gt;Node19 -->
<g id="edge26" class="edge">
<title>Node17&#45;&gt;Node19</title>
<path fill="none" stroke="#191970" d="M985.6916,-280.3733C1007.0711,-271.3032 1039.3057,-257.6279 1063.2362,-247.4755"/>
<polygon fill="#191970" stroke="#191970" points="1064.7656,-250.6287 1072.6045,-243.5011 1062.0317,-244.1846 1064.7656,-250.6287"/>
</g>
<!-- Node20 -->
<g id="node20" class="node">
<title>Node20</title>
<g id="a_node20"><a xlink:title=" ">
<polygon fill="#ffffff" stroke="#bfbfbf" points="876,-224.5 876,-243.5 924,-243.5 924,-224.5 876,-224.5"/>
<text text-anchor="middle" x="900" y="-231.5" font-family="Helvetica,sans-Serif" font-size="10.00" fill="#000000">limits.h</text>
</a>
</g>
</g>
<!-- Node17&#45;&gt;Node20 -->
<g id="edge29" class="edge">
<title>Node17&#45;&gt;Node20</title>
<path fill="none" stroke="#191970" d="M952.0262,-280.2455C942.8118,-272.0549 929.4468,-260.1749 918.5703,-250.5069"/>
<polygon fill="#191970" stroke="#191970" points="920.6474,-247.6704 910.848,-243.6427 915.9968,-252.9023 920.6474,-247.6704"/>
</g>
<!-- Node21 -->
<g id="node21" class="node">
<title>Node21</title>
<g id="a_node21"><a xlink:title=" ">
<polygon fill="#ffffff" stroke="#bfbfbf" points="424,-224.5 424,-243.5 476,-243.5 476,-224.5 424,-224.5"/>
<text text-anchor="middle" x="450" y="-231.5" font-family="Helvetica,sans-Serif" font-size="10.00" fill="#000000">stddef.h</text>
</a>
</g>
</g>
<!-- Node17&#45;&gt;Node21 -->
<g id="edge30" class="edge">
<title>Node17&#45;&gt;Node21</title>
<path fill="none" stroke="#191970" d="M927.0537,-281.4433C924.3361,-280.9152 921.6292,-280.426 919,-280 758.9485,-254.0687 565.635,-240.719 486.4748,-236.0113"/>
<polygon fill="#191970" stroke="#191970" points="486.265,-232.4932 476.0778,-235.404 485.8567,-239.4813 486.265,-232.4932"/>
</g>
<!-- Node22 -->
<g id="node22" class="node">
<title>Node22</title>
<g id="a_node22"><a xlink:title=" ">
<polygon fill="#ffffff" stroke="#bfbfbf" points="1364.5,-224.5 1364.5,-243.5 1413.5,-243.5 1413.5,-224.5 1364.5,-224.5"/>
<text text-anchor="middle" x="1389" y="-231.5" font-family="Helvetica,sans-Serif" font-size="10.00" fill="#000000">stdint.h</text>
</a>
</g>
</g>
<!-- Node17&#45;&gt;Node22 -->
<g id="edge31" class="edge">
<title>Node17&#45;&gt;Node22</title>
<path fill="none" stroke="#191970" d="M998.7054,-286.6416C1078.7241,-278.9878 1271.3123,-259.827 1354.2352,-244.0221"/>
<polygon fill="#191970" stroke="#191970" points="1355.1387,-247.4107 1364.2559,-242.0137 1353.763,-240.5472 1355.1387,-247.4107"/>
</g>
<!-- Node18&#45;&gt;Node8 -->
<g id="edge24" class="edge">
<title>Node18&#45;&gt;Node8</title>
<path fill="none" stroke="#191970" d="M1323.0837,-112.4509C1345.3418,-93.2747 1395.6919,-49.8962 1423.1978,-26.1988"/>
<polygon fill="#191970" stroke="#191970" points="1425.6527,-28.7036 1430.9443,-19.5249 1421.0837,-23.4004 1425.6527,-28.7036"/>
</g>
<!-- Node18&#45;&gt;Node14 -->
<g id="edge25" class="edge">
<title>Node18&#45;&gt;Node14</title>
<path fill="none" stroke="#191970" d="M1376.1217,-115.3007C1468.2777,-105.6725 1639.0351,-87.8322 1747.8997,-76.4582"/>
<polygon fill="#191970" stroke="#191970" points="1748.3281,-79.9326 1757.9103,-75.4124 1747.6007,-72.9705 1748.3281,-79.9326"/>
</g>
<!-- Node19&#45;&gt;Node8 -->
<g id="edge27" class="edge">
<title>Node19&#45;&gt;Node8</title>
<path fill="none" stroke="#191970" d="M1104.8102,-224.2293C1127.1947,-202.2766 1184.3378,-148.1457 1239,-112 1295.8037,-74.4382 1368.3255,-41.1457 1409.5246,-23.4497"/>
<polygon fill="#191970" stroke="#191970" points="1410.9742,-26.6366 1418.8051,-19.5003 1408.2331,-20.1956 1410.9742,-26.6366"/>
</g>
<!-- Node19&#45;&gt;Node10 -->
<g id="edge28" class="edge">
<title>Node19&#45;&gt;Node10</title>
<path fill="none" stroke="#191970" d="M1169.1926,-225.0676C1172.5063,-224.7002 1175.7872,-224.3426 1179,-224 1329.0193,-208.0021 1505.3001,-192.1005 1599.5173,-183.8345"/>
<polygon fill="#191970" stroke="#191970" points="1599.8277,-187.3208 1609.4842,-182.9617 1599.217,-180.3475 1599.8277,-187.3208"/>
</g>
<!-- Node25&#45;&gt;Node7 -->
<g id="edge37" class="edge">
<title>Node25&#45;&gt;Node7</title>
<path fill="none" stroke="#191970" d="M282.7545,-448.3733C306.2849,-439.2226 341.8687,-425.3844 368.0426,-415.2057"/>
<polygon fill="#191970" stroke="#191970" points="369.5171,-418.3877 377.5685,-411.5011 366.9799,-411.8636 369.5171,-418.3877"/>
</g>
<!-- Node25&#45;&gt;Node8 -->
<g id="edge36" class="edge">
<title>Node25&#45;&gt;Node8</title>
<path fill="none" stroke="#191970" d="M240.8371,-448.4139C213.2241,-431.5774 162,-393.8904 162,-346 162,-346 162,-346 162,-122 162,-90.7875 160.7669,-74.3715 186,-56 233.7347,-21.2459 1098.9032,-12.3758 1364.8673,-10.4655"/>
<polygon fill="#191970" stroke="#191970" points="1365.2277,-13.9632 1375.2027,-10.3926 1365.1782,-6.9633 1365.2277,-13.9632"/>
</g>
<!-- Node26&#45;&gt;Node7 -->
<g id="edge40" class="edge">
<title>Node26&#45;&gt;Node7</title>
<path fill="none" stroke="#191970" d="M614.2497,-643.8208C582.5775,-625.8454 515.6542,-584.5915 473,-535 442.4123,-499.4374 419.8557,-448.4875 409.0758,-421.1217"/>
<polygon fill="#191970" stroke="#191970" points="412.2595,-419.6482 405.4143,-411.5616 405.7226,-422.152 412.2595,-419.6482"/>
</g>
<!-- Node26&#45;&gt;Node8 -->
<g id="edge39" class="edge">
<title>Node26&#45;&gt;Node8</title>
<path fill="none" stroke="#191970" d="M600.3551,-643.9939C574.3051,-635.3387 537.0677,-621.0116 508,-602 467.2326,-575.3362 200,-338.7128 200,-290 200,-290 200,-290 200,-122 200,-84.6561 218.7234,-72.9479 252,-56 301.574,-30.7517 1109.2068,-15.4393 1364.9675,-11.2056"/>
<polygon fill="#191970" stroke="#191970" points="1365.3405,-14.7 1375.2815,-11.0359 1365.2253,-7.7009 1365.3405,-14.7"/>
</g>
<!-- Node26&#45;&gt;Node11 -->
<g id="edge41" class="edge">
<title>Node26&#45;&gt;Node11</title>
<path fill="none" stroke="#191970" d="M642.896,-643.6933C672.4908,-617.5175 757.6781,-545.1973 840,-504 1166.212,-340.7498 1322.3455,-487.915 1635,-300 1691.943,-265.7755 1710.476,-250.1325 1734,-188 1737.1474,-179.687 1737.4888,-176.1756 1734,-168 1728.8844,-156.0122 1718.9425,-145.6498 1709.4273,-137.8114"/>
<polygon fill="#191970" stroke="#191970" points="1711.3754,-134.8949 1701.3074,-131.5954 1707.1203,-140.4532 1711.3754,-134.8949"/>
</g>
<!-- Node27 -->
<g id="node27" class="node">
<title>Node27</title>
<g id="a_node27"><a xlink:title=" ">
<polygon fill="#ffffff" stroke="#bfbfbf" points="963,-577 963,-596 1011,-596 1011,-577 963,-577"/>
<text text-anchor="middle" x="987" y="-584" font-family="Helvetica,sans-Serif" font-size="10.00" fill="#000000">stdlib.h</text>
</a>
</g>
</g>
<!-- Node26&#45;&gt;Node27 -->
<g id="edge42" class="edge">
<title>Node26&#45;&gt;Node27</title>
<path fill="none" stroke="#191970" d="M682.4858,-643.9717C755.7729,-630.14 889.7243,-604.8591 952.638,-592.9852"/>
<polygon fill="#191970" stroke="#191970" points="953.6407,-596.3578 962.8181,-591.0639 952.3425,-589.4793 953.6407,-596.3578"/>
</g>
<!-- Node28 -->
<g id="node28" class="node">
<title>Node28</title>
<g id="a_node28"><a xlink:title=" ">
<polygon fill="#ffffff" stroke="#bfbfbf" points="596.5,-577 596.5,-596 643.5,-596 643.5,-577 596.5,-577"/>
<text text-anchor="middle" x="620" y="-584" font-family="Helvetica,sans-Serif" font-size="10.00" fill="#000000">iterator</text>
</a>
</g>
</g>
<!-- Node26&#45;&gt;Node28 -->
<g id="edge43" class="edge">
<title>Node26&#45;&gt;Node28</title>
<path fill="none" stroke="#191970" d="M630.2807,-643.9005C628.5163,-634.0495 625.7215,-618.4451 623.491,-605.9912"/>
<polygon fill="#191970" stroke="#191970" points="626.9244,-605.308 621.7161,-596.0817 620.034,-606.5421 626.9244,-605.308"/>
</g>
<!-- Node29&#45;&gt;Node15 -->
<g id="edge46" class="edge">
<title>Node29&#45;&gt;Node15</title>
<path fill="none" stroke="#191970" d="M383.7248,-705.2466C393.5407,-696.8582 406.3633,-683.7955 412,-669 416.905,-656.1249 414.225,-651.5969 412,-638 393.5202,-525.0699 311.0523,-503.6796 336,-392 353.9882,-311.4747 350.4089,-275.3409 415,-224 478.5006,-173.5259 715.0517,-141.238 828.094,-128.3618"/>
<polygon fill="#191970" stroke="#191970" points="828.7647,-131.8085 838.3109,-127.2127 827.9823,-124.8524 828.7647,-131.8085"/>
</g>
<!-- Node29&#45;&gt;Node22 -->
<g id="edge65" class="edge">
<title>Node29&#45;&gt;Node22</title>
<path fill="none" stroke="#191970" d="M395.3859,-705.4127C415.5444,-697.0294 444.5583,-683.8892 468,-669 525.8351,-632.2655 526.2764,-602.7328 587,-571 639.3757,-543.6297 660.6545,-558.2145 715,-535 920.0312,-447.4177 937.7094,-356.8498 1147,-280 1232.4562,-248.6212 1262.239,-264.5243 1354.219,-244.1681"/>
<polygon fill="#191970" stroke="#191970" points="1355.2623,-247.5196 1364.2232,-241.867 1353.6931,-240.6978 1355.2623,-247.5196"/>
</g>
<!-- Node29&#45;&gt;Node25 -->
<g id="edge45" class="edge">
<title>Node29&#45;&gt;Node25</title>
<path fill="none" stroke="#191970" d="M378.1015,-705.3724C384.2052,-696.4569 392.5517,-682.5662 396,-669 399.3941,-655.6468 400.426,-651.0475 396,-638 372.3116,-568.1685 309.4356,-504.1831 277.3797,-474.8578"/>
<polygon fill="#191970" stroke="#191970" points="279.3527,-471.9254 269.5743,-467.847 274.6751,-477.1332 279.3527,-471.9254"/>
</g>
<!-- Node30 -->
<g id="node30" class="node">
<title>Node30</title>
<g id="a_node30"><a xlink:href="../../d0/d4e/Def_8hpp.html" target="_top" xlink:title=" ">
<polygon fill="#ffffff" stroke="#000000" points="777,-644 777,-663 847,-663 847,-644 777,-644"/>
<text text-anchor="middle" x="812" y="-651" font-family="Helvetica,sans-Serif" font-size="10.00" fill="#000000">Def/Def.hpp</text>
</a>
</g>
</g>
<!-- Node29&#45;&gt;Node30 -->
<g id="edge47" class="edge">
<title>Node29&#45;&gt;Node30</title>
<path fill="none" stroke="#191970" d="M433.6514,-707.0477C502.4642,-698.2085 616.204,-683.2896 714,-669 731.2202,-666.4839 750.112,-663.5396 766.6739,-660.897"/>
<polygon fill="#191970" stroke="#191970" points="767.3297,-664.3366 776.6492,-659.2971 766.2211,-657.425 767.3297,-664.3366"/>
</g>
<!-- Node30&#45;&gt;Node21 -->
<g id="edge63" class="edge">
<title>Node30&#45;&gt;Node21</title>
<path fill="none" stroke="#191970" d="M785.1224,-643.9843C760.4088,-634.7486 723.1424,-619.5766 693,-602 673.2655,-590.4924 672.5834,-580.9096 652,-571 593.7249,-542.9443 555.9873,-581.4678 511,-535 447.995,-469.9215 517.8365,-410.97 467,-336 451.0186,-312.4318 427.3277,-325.1642 414,-300 405.1145,-283.2231 417.9477,-264.2043 430.688,-250.9071"/>
<polygon fill="#191970" stroke="#191970" points="433.2739,-253.2749 438.0137,-243.7994 428.3994,-248.251 433.2739,-253.2749"/>
</g>
<!-- Node30&#45;&gt;Node22 -->
<g id="edge64" class="edge">
<title>Node30&#45;&gt;Node22</title>
<path fill="none" stroke="#191970" d="M817.4686,-643.864C827.1833,-627.3751 848.8148,-593.3668 874,-571 897.8248,-549.8414 912.2931,-556.2907 936,-535 994.6636,-482.3154 985.3804,-447.8887 1041,-392 1099.9408,-332.774 1115.9503,-314.6145 1192,-280 1257.0014,-250.4142 1281.659,-261.7361 1354.1336,-244.2764"/>
<polygon fill="#191970" stroke="#191970" points="1355.3496,-247.5795 1364.1927,-241.7443 1353.6408,-240.7913 1355.3496,-247.5795"/>
</g>
<!-- Node31 -->
<g id="node31" class="node">
<title>Node31</title>
<g id="a_node31"><a xlink:href="../../d7/d42/Channel_8hpp.html" target="_top" xlink:title=" ">
<polygon fill="#ffffff" stroke="#000000" points="983.5,-510 983.5,-529 1054.5,-529 1054.5,-510 983.5,-510"/>
<text text-anchor="middle" x="1019" y="-517" font-family="Helvetica,sans-Serif" font-size="10.00" fill="#000000">Channel.hpp</text>
</a>
</g>
</g>
<!-- Node30&#45;&gt;Node31 -->
<g id="edge48" class="edge">
<title>Node30&#45;&gt;Node31</title>
<path fill="none" stroke="#191970" d="M823.3224,-643.9365C842.6446,-627.8475 883.5374,-594.7945 921,-571 943.1688,-556.9194 969.5917,-543.198 989.4117,-533.4638"/>
<polygon fill="#191970" stroke="#191970" points="991.0958,-536.5369 998.5635,-529.0213 988.0389,-530.2396 991.0958,-536.5369"/>
</g>
<!-- Node32 -->
<g id="node32" class="node">
<title>Node32</title>
<g id="a_node32"><a xlink:title=" ">
<polygon fill="#ffffff" stroke="#bfbfbf" points="1026.5,-448.5 1026.5,-467.5 1189.5,-467.5 1189.5,-448.5 1026.5,-448.5"/>
<text text-anchor="middle" x="1108" y="-455.5" font-family="Helvetica,sans-Serif" font-size="10.00" fill="#000000">Settings/NamespaceSettings.hpp</text>
</a>
</g>
</g>
<!-- Node30&#45;&gt;Node32 -->
<g id="edge62" class="edge">
<title>Node30&#45;&gt;Node32</title>
<path fill="none" stroke="#191970" d="M833.749,-643.9966C854.8583,-634.4341 887.5016,-618.7402 914,-602 933.015,-589.9873 934.1316,-581.5415 954,-571 999.4408,-546.8908 1024.1299,-567.5039 1064,-535 1082.579,-519.8536 1094.8337,-494.6513 1101.5849,-477.2261"/>
<polygon fill="#191970" stroke="#191970" points="1104.9778,-478.1352 1105.0846,-467.5409 1098.3944,-475.7563 1104.9778,-478.1352"/>
</g>
<!-- Node33 -->
<g id="node33" class="node">
<title>Node33</title>
<g id="a_node33"><a xlink:href="../../de/d76/Array_8hpp.html" target="_top" xlink:title=" ">
<polygon fill="#ffffff" stroke="#000000" points="553,-510 553,-529 679,-529 679,-510 553,-510"/>
<text text-anchor="middle" x="616" y="-517" font-family="Helvetica,sans-Serif" font-size="10.00" fill="#000000">AH/Containers/Array.hpp</text>
</a>
</g>
</g>
<!-- Node30&#45;&gt;Node33 -->
<g id="edge51" class="edge">
<title>Node30&#45;&gt;Node33</title>
<path fill="none" stroke="#191970" d="M797.9042,-643.8631C764.2834,-620.8774 679.1611,-562.6816 638.411,-534.8218"/>
<polygon fill="#191970" stroke="#191970" points="640.1986,-531.8042 629.9681,-529.0496 636.2479,-537.5828 640.1986,-531.8042"/>
</g>
<!-- Node35 -->
<g id="node35" class="node">
<title>Node35</title>
<g id="a_node35"><a xlink:href="../../d4/d35/Hardware-Types_8hpp.html" target="_top" xlink:title=" ">
<polygon fill="#ffffff" stroke="#000000" points="1549.5,-571.5 1549.5,-601.5 1670.5,-601.5 1670.5,-571.5 1549.5,-571.5"/>
<text text-anchor="start" x="1557.5" y="-589.5" font-family="Helvetica,sans-Serif" font-size="10.00" fill="#000000">AH/Hardware/Hardware</text>
<text text-anchor="middle" x="1610" y="-578.5" font-family="Helvetica,sans-Serif" font-size="10.00" fill="#000000">&#45;Types.hpp</text>
</a>
</g>
</g>
<!-- Node30&#45;&gt;Node35 -->
<g id="edge57" class="edge">
<title>Node30&#45;&gt;Node35</title>
<path fill="none" stroke="#191970" d="M847.3969,-647.6227C867.7173,-644.4124 893.7405,-640.5776 917,-638 1143.5565,-612.8931 1413.1772,-596.7937 1538.8895,-590.0819"/>
<polygon fill="#191970" stroke="#191970" points="1539.3458,-593.5627 1549.1464,-589.5381 1538.9751,-586.5726 1539.3458,-593.5627"/>
</g>
<!-- Node31&#45;&gt;Node22 -->
<g id="edge49" class="edge">
<title>Node31&#45;&gt;Node22</title>
<path fill="none" stroke="#191970" d="M1016.1218,-509.6093C1012.5073,-495.1888 1007.9166,-467.9415 1018,-448 1049.127,-386.4417 1089.976,-400.1223 1143,-356 1180.9462,-324.4243 1180.9144,-304.095 1224,-280 1274.3786,-251.8264 1295.398,-259.8564 1354.3572,-244.3156"/>
<polygon fill="#191970" stroke="#191970" points="1355.4482,-247.6454 1364.1558,-241.6098 1353.5849,-240.8979 1355.4482,-247.6454"/>
</g>
<!-- Node31&#45;&gt;Node32 -->
<g id="edge50" class="edge">
<title>Node31&#45;&gt;Node32</title>
<path fill="none" stroke="#191970" d="M1032.9063,-509.8906C1047.0138,-500.1421 1069.0724,-484.8994 1085.6385,-473.4521"/>
<polygon fill="#191970" stroke="#191970" points="1087.9542,-476.1063 1094.1914,-467.5419 1083.9747,-470.3474 1087.9542,-476.1063"/>
</g>
<!-- Node33&#45;&gt;Node8 -->
<g id="edge52" class="edge">
<title>Node33&#45;&gt;Node8</title>
<path fill="none" stroke="#191970" d="M560.3934,-509.986C499.2457,-497.0551 401.0539,-468.7179 336,-412 267.93,-352.6525 238,-324.3087 238,-234 238,-234 238,-234 238,-122 238,-85.989 253.3262,-73.1336 285,-56 332.4689,-30.3223 1114.6419,-15.3525 1365.338,-11.1969"/>
<polygon fill="#191970" stroke="#191970" points="1365.5123,-14.6946 1375.4533,-11.0303 1365.397,-7.6956 1365.5123,-14.6946"/>
</g>
<!-- Node33&#45;&gt;Node15 -->
<g id="edge55" class="edge">
<title>Node33&#45;&gt;Node15</title>
<path fill="none" stroke="#191970" d="M637.1738,-509.9483C658.9502,-499.9765 693.7233,-483.6389 723,-468 755.423,-450.6804 989.7647,-331.917 1008,-300 1043.7979,-237.3435 956.8763,-167.3578 912.768,-137.1876"/>
<polygon fill="#191970" stroke="#191970" points="914.5735,-134.1845 904.3154,-131.5343 910.6819,-140.003 914.5735,-134.1845"/>
</g>
<!-- Node33&#45;&gt;Node21 -->
<g id="edge56" class="edge">
<title>Node33&#45;&gt;Node21</title>
<path fill="none" stroke="#191970" d="M616.7819,-509.8082C618.6388,-480.1005 620.2391,-389.1136 576,-336 549.4812,-304.1615 521.3914,-327.0466 490,-300 475.2976,-287.3325 464.4273,-267.8712 457.7594,-253.3591"/>
<polygon fill="#191970" stroke="#191970" points="460.8259,-251.6312 453.6521,-243.8346 454.3981,-254.4032 460.8259,-251.6312"/>
</g>
<!-- Node33&#45;&gt;Node25 -->
<g id="edge53" class="edge">
<title>Node33&#45;&gt;Node25</title>
<path fill="none" stroke="#191970" d="M560.4553,-509.9581C494.4187,-498.6138 384.6747,-479.7612 317.1102,-468.1544"/>
<polygon fill="#191970" stroke="#191970" points="317.4983,-464.6699 307.05,-466.4262 316.3131,-471.5688 317.4983,-464.6699"/>
</g>
<!-- Node34 -->
<g id="node34" class="node">
<title>Node34</title>
<g id="a_node34"><a xlink:title=" ">
<polygon fill="#ffffff" stroke="#bfbfbf" points="629.5,-448.5 629.5,-467.5 714.5,-467.5 714.5,-448.5 629.5,-448.5"/>
<text text-anchor="middle" x="672" y="-455.5" font-family="Helvetica,sans-Serif" font-size="10.00" fill="#000000">AH/STL/iterator</text>
</a>
</g>
</g>
<!-- Node33&#45;&gt;Node34 -->
<g id="edge54" class="edge">
<title>Node33&#45;&gt;Node34</title>
<path fill="none" stroke="#191970" d="M624.75,-509.8906C633.1662,-500.6478 646.0797,-486.466 656.281,-475.2628"/>
<polygon fill="#191970" stroke="#191970" points="658.9818,-477.4953 663.1266,-467.7449 653.806,-472.7824 658.9818,-477.4953"/>
</g>
<!-- Node35&#45;&gt;Node8 -->
<g id="edge58" class="edge">
<title>Node35&#45;&gt;Node8</title>
<path fill="none" stroke="#191970" d="M1670.7772,-576.2641C1694.6416,-568.9482 1719.6996,-556.424 1734,-535 1741.6491,-523.5406 1737.2132,-517.3979 1734,-504 1683.8493,-294.889 1510.6824,-87.2143 1457.5954,-27.213"/>
<polygon fill="#191970" stroke="#191970" points="1460.197,-24.8716 1450.9269,-19.7418 1454.9747,-29.5329 1460.197,-24.8716"/>
</g>
<!-- Node35&#45;&gt;Node14 -->
<g id="edge60" class="edge">
<title>Node35&#45;&gt;Node14</title>
<path fill="none" stroke="#191970" d="M1670.58,-582.3046C1746.5604,-573.3712 1867,-545.4226 1867,-458 1867,-458 1867,-458 1867,-346 1867,-248.0822 1855.2907,-131.344 1850.2565,-85.6794"/>
<polygon fill="#191970" stroke="#191970" points="1853.7251,-85.203 1849.1316,-75.6558 1846.7688,-85.9837 1853.7251,-85.203"/>
</g>
<!-- Node35&#45;&gt;Node22 -->
<g id="edge61" class="edge">
<title>Node35&#45;&gt;Node22</title>
<path fill="none" stroke="#191970" d="M1600.5039,-571.3535C1564.8998,-514.5641 1439.3926,-314.3774 1400.5469,-252.4176"/>
<polygon fill="#191970" stroke="#191970" points="1403.3608,-250.3167 1395.0835,-243.7034 1397.43,-254.0351 1403.3608,-250.3167"/>
</g>
<!-- Node35&#45;&gt;Node33 -->
<g id="edge59" class="edge">
<title>Node35&#45;&gt;Node33</title>
<path fill="none" stroke="#191970" d="M1549.1075,-582.4752C1418.9505,-573.8616 1103.9986,-552.9624 840,-535 789.6664,-531.5753 732.9759,-527.6519 689.2199,-524.6093"/>
<polygon fill="#191970" stroke="#191970" points="689.4581,-521.1175 679.2393,-523.9149 688.9723,-528.1006 689.4581,-521.1175"/>
</g>
<!-- Node36&#45;&gt;Node6 -->
<g id="edge67" class="edge">
<title>Node36&#45;&gt;Node6</title>
<path fill="none" stroke="#191970" d="M491.1671,-786.0817C476.2071,-797.2184 448.0267,-815.7256 426.4453,-828.711"/>
<polygon fill="#191970" stroke="#191970" points="424.4887,-825.8017 417.658,-833.9005 428.0484,-831.8291 424.4887,-825.8017"/>
</g>
<!-- Node36&#45;&gt;Node7 -->
<g id="edge72" class="edge">
<title>Node36&#45;&gt;Node7</title>
<path fill="none" stroke="#191970" d="M425.9615,-772.4304C333.4558,-766.3131 182.523,-752.4191 134,-725 98.3757,-704.8696 76,-694.4185 76,-653.5 76,-653.5 76,-653.5 76,-586.5 76,-468.5369 239.6693,-425.1121 335.0699,-409.8202"/>
<polygon fill="#191970" stroke="#191970" points="335.8641,-413.2392 345.2151,-408.2584 334.799,-406.3207 335.8641,-413.2392"/>
</g>
<!-- Node36&#45;&gt;Node26 -->
<g id="edge73" class="edge">
<title>Node36&#45;&gt;Node26</title>
<path fill="none" stroke="#191970" d="M500.8973,-766.7632C501.2478,-751.7983 504.0009,-722.9932 519,-705 534.6327,-686.2468 558.5464,-674.0074 580.3559,-666.1885"/>
<polygon fill="#191970" stroke="#191970" points="581.497,-669.4975 589.8663,-663.0009 579.2724,-662.8603 581.497,-669.4975"/>
</g>
<!-- Node36&#45;&gt;Node37 -->
<g id="edge68" class="edge">
<title>Node36&#45;&gt;Node37</title>
<path fill="none" stroke="#191970" d="M511.9375,-766.8906C522.662,-757.4683 539.2287,-742.9134 552.0901,-731.6137"/>
<polygon fill="#191970" stroke="#191970" points="554.7059,-733.9745 559.9083,-724.7449 550.0857,-728.7158 554.7059,-733.9745"/>
</g>
<!-- Node36&#45;&gt;Node38 -->
<g id="edge70" class="edge">
<title>Node36&#45;&gt;Node38</title>
<path fill="none" stroke="#191970" d="M541.8052,-766.9581C587.9689,-756.1632 663.2072,-738.5694 713.154,-726.8899"/>
<polygon fill="#191970" stroke="#191970" points="714.1587,-730.2494 723.0991,-724.5643 712.5648,-723.4333 714.1587,-730.2494"/>
</g>
<!-- Node37&#45;&gt;Node30 -->
<g id="edge69" class="edge">
<title>Node37&#45;&gt;Node30</title>
<path fill="none" stroke="#191970" d="M608.3918,-705.4581C651.1665,-694.5426 721.1822,-676.6755 766.9323,-665.0007"/>
<polygon fill="#191970" stroke="#191970" points="768.0499,-668.3277 776.8739,-662.4637 766.319,-661.5451 768.0499,-668.3277"/>
</g>
<!-- Node38&#45;&gt;Node30 -->
<g id="edge71" class="edge">
<title>Node38&#45;&gt;Node30</title>
<path fill="none" stroke="#191970" d="M771.5,-705.3906C778.5738,-696.3273 789.3542,-682.5149 798.0146,-671.4188"/>
<polygon fill="#191970" stroke="#191970" points="801.0006,-673.2815 804.3943,-663.2449 795.4824,-668.9746 801.0006,-673.2815"/>
</g>
<!-- Node39&#45;&gt;Node2 -->
<g id="edge79" class="edge">
<title>Node39&#45;&gt;Node2</title>
<path fill="none" stroke="#191970" d="M639.7796,-951.3955C597.5993,-941.836 541.8286,-929.0487 483.35,-915.052"/>
<polygon fill="#191970" stroke="#191970" points="484.1008,-911.6328 473.5602,-912.7035 482.4678,-918.4397 484.1008,-911.6328"/>
</g>
<!-- Node39&#45;&gt;Node5 -->
<g id="edge77" class="edge">
<title>Node39&#45;&gt;Node5</title>
<path fill="none" stroke="#191970" d="M669.3274,-951.4554C643.9702,-941.329 610.8348,-928.0964 586.4174,-918.3453"/>
<polygon fill="#191970" stroke="#191970" points="587.4495,-914.9887 576.8645,-914.5303 584.8533,-921.4895 587.4495,-914.9887"/>
</g>
<!-- Node39&#45;&gt;Node30 -->
<g id="edge78" class="edge">
<title>Node39&#45;&gt;Node30</title>
<path fill="none" stroke="#191970" d="M692.5744,-951.1756C673.4249,-929.1635 642,-886.4915 642,-843.5 642,-843.5 642,-843.5 642,-776.5 642,-714.6846 716.6911,-680.7757 767.0565,-664.9372"/>
<polygon fill="#191970" stroke="#191970" points="768.2115,-668.2447 776.7759,-662.0076 766.1913,-661.5425 768.2115,-668.2447"/>
</g>
<!-- Node40 -->
<g id="node40" class="node">
<title>Node40</title>
<g id="a_node40"><a xlink:href="../../d1/d41/MIDIOutputElement_8hpp.html" target="_top" xlink:title=" ">
<polygon fill="#ffffff" stroke="#000000" points="708.5,-761.5 708.5,-791.5 833.5,-791.5 833.5,-761.5 708.5,-761.5"/>
<text text-anchor="start" x="716.5" y="-779.5" font-family="Helvetica,sans-Serif" font-size="10.00" fill="#000000">MIDI_Outputs/Abstract</text>
<text text-anchor="middle" x="771" y="-768.5" font-family="Helvetica,sans-Serif" font-size="10.00" fill="#000000">/MIDIOutputElement.hpp</text>
</a>
</g>
</g>
<!-- Node39&#45;&gt;Node40 -->
<g id="edge80" class="edge">
<title>Node39&#45;&gt;Node40</title>
<path fill="none" stroke="#191970" d="M712.1292,-951.2727C723.1803,-918.4646 749.3208,-840.8602 762.7387,-801.0257"/>
<polygon fill="#191970" stroke="#191970" points="766.0598,-802.1302 765.9352,-791.5361 759.4261,-799.8956 766.0598,-802.1302"/>
</g>
<!-- Node40&#45;&gt;Node30 -->
<g id="edge89" class="edge">
<title>Node40&#45;&gt;Node30</title>
<path fill="none" stroke="#191970" d="M736.8374,-761.3069C711.8814,-747.952 684.7052,-727.2243 699,-705 713.9659,-681.7324 742.32,-668.8511 766.8804,-661.7899"/>
<polygon fill="#191970" stroke="#191970" points="767.989,-665.1174 776.771,-659.1907 766.2098,-658.3473 767.989,-665.1174"/>
</g>
<!-- Node40&#45;&gt;Node38 -->
<g id="edge90" class="edge">
<title>Node40&#45;&gt;Node38</title>
<path fill="none" stroke="#191970" d="M769.2697,-761.2977C768.3587,-753.2945 767.2307,-743.3843 766.2524,-734.7889"/>
<polygon fill="#191970" stroke="#191970" points="769.7293,-734.3869 765.1208,-724.8469 762.7742,-735.1786 769.7293,-734.3869"/>
</g>
<!-- Node41 -->
<g id="node41" class="node">
<title>Node41</title>
<g id="a_node41"><a xlink:href="../../d4/d93/Updatable_8hpp.html" target="_top" xlink:title=" ">
<polygon fill="#ffffff" stroke="#000000" points="143.5,-705.5 143.5,-724.5 290.5,-724.5 290.5,-705.5 143.5,-705.5"/>
<text text-anchor="middle" x="217" y="-712.5" font-family="Helvetica,sans-Serif" font-size="10.00" fill="#000000">AH/Containers/Updatable.hpp</text>
</a>
</g>
</g>
<!-- Node40&#45;&gt;Node41 -->
<g id="edge81" class="edge">
<title>Node40&#45;&gt;Node41</title>
<path fill="none" stroke="#191970" d="M708.4833,-763.3293C703.5934,-762.4785 698.7228,-761.6885 694,-761 522.7975,-736.0411 476.0159,-743.3829 300.8209,-725.162"/>
<polygon fill="#191970" stroke="#191970" points="301.0567,-721.6676 290.7451,-724.1008 300.3234,-728.6291 301.0567,-721.6676"/>
</g>
<!-- Node41&#45;&gt;Node8 -->
<g id="edge82" class="edge">
<title>Node41&#45;&gt;Node8</title>
<path fill="none" stroke="#191970" d="M155.397,-705.4699C91.2422,-691.6341 0,-659.1806 0,-586.5 0,-586.5 0,-586.5 0,-122 0,-43.4301 87.1446,-72.3243 164,-56 281.0672,-31.1346 1107.5542,-15.5229 1365.3762,-11.2165"/>
<polygon fill="#191970" stroke="#191970" points="1365.4615,-14.7156 1375.402,-11.0499 1365.3452,-7.7166 1365.4615,-14.7156"/>
</g>
<!-- Node41&#45;&gt;Node16 -->
<g id="edge87" class="edge">
<title>Node41&#45;&gt;Node16</title>
<path fill="none" stroke="#191970" d="M217.9431,-705.3632C220.0726,-689.0025 226.768,-655.837 247,-638 338.7727,-557.091 394.7364,-598.2888 514,-571 590.9817,-553.3857 624.9754,-582.5851 688,-535 740.3808,-495.4513 734.8096,-405.5881 729.3351,-365.7024"/>
<polygon fill="#191970" stroke="#191970" points="732.7708,-365.0144 727.8072,-355.6542 725.8504,-366.0668 732.7708,-365.0144"/>
</g>
<!-- Node41&#45;&gt;Node21 -->
<g id="edge88" class="edge">
<title>Node41&#45;&gt;Node21</title>
<path fill="none" stroke="#191970" d="M213.1887,-705.1774C199.7577,-668.9237 157.6589,-539.9791 200,-448 246.1839,-347.673 365.1769,-276.837 420.6807,-248.1626"/>
<polygon fill="#191970" stroke="#191970" points="422.3156,-251.2579 429.6497,-243.6119 419.1483,-245.0155 422.3156,-251.2579"/>
</g>
<!-- Node41&#45;&gt;Node25 -->
<g id="edge85" class="edge">
<title>Node41&#45;&gt;Node25</title>
<path fill="none" stroke="#191970" d="M215.663,-705.4775C213.833,-690.8936 211.0883,-662.1736 214,-638 221.1892,-578.3135 241.3288,-509.8501 251.6808,-477.229"/>
<polygon fill="#191970" stroke="#191970" points="255.0463,-478.1962 254.7834,-467.6047 248.3839,-476.0484 255.0463,-478.1962"/>
</g>
<!-- Node41&#45;&gt;Node26 -->
<g id="edge84" class="edge">
<title>Node41&#45;&gt;Node26</title>
<path fill="none" stroke="#191970" d="M281.3884,-705.4581C356.014,-694.3991 478.7897,-676.2047 557.4781,-664.5436"/>
<polygon fill="#191970" stroke="#191970" points="558.4231,-667.9419 567.802,-663.0137 557.3969,-661.0175 558.4231,-667.9419"/>
</g>
<!-- Node42 -->
<g id="node42" class="node">
<title>Node42</title>
<g id="a_node42"><a xlink:href="../../d8/db4/AH_2Containers_2CRTP_8hpp.html" target="_top" xlink:title=" ">
<polygon fill="#ffffff" stroke="#000000" points="256.5,-644 256.5,-663 387.5,-663 387.5,-644 256.5,-644"/>
<text text-anchor="middle" x="322" y="-651" font-family="Helvetica,sans-Serif" font-size="10.00" fill="#000000">AH/Containers/CRTP.hpp</text>
</a>
</g>
</g>
<!-- Node41&#45;&gt;Node42 -->
<g id="edge83" class="edge">
<title>Node41&#45;&gt;Node42</title>
<path fill="none" stroke="#191970" d="M233.4063,-705.3906C250.4353,-695.4165 277.2841,-679.6908 296.9651,-668.1633"/>
<polygon fill="#191970" stroke="#191970" points="298.849,-671.1161 305.709,-663.0419 295.3112,-665.0759 298.849,-671.1161"/>
</g>
<!-- Node43 -->
<g id="node43" class="node">
<title>Node43</title>
<g id="a_node43"><a xlink:title=" ">
<polygon fill="#ffffff" stroke="#bfbfbf" points="849,-510 849,-529 927,-529 927,-510 849,-510"/>
<text text-anchor="middle" x="888" y="-517" font-family="Helvetica,sans-Serif" font-size="10.00" fill="#000000">AH/STL/utility</text>
</a>
</g>
</g>
<!-- Node41&#45;&gt;Node43 -->
<g id="edge86" class="edge">
<title>Node41&#45;&gt;Node43</title>
<path fill="none" stroke="#191970" d="M266.1493,-705.4605C302.633,-697.6416 353.2535,-685.2268 396,-669 485.2001,-635.1392 496.4857,-601.1724 587,-571 672.8187,-542.3929 777.9564,-529.0414 838.5353,-523.3178"/>
<polygon fill="#191970" stroke="#191970" points="838.9491,-526.7947 848.5893,-522.3996 838.3124,-519.8237 838.9491,-526.7947"/>
</g>
<!-- Node44&#45;&gt;Node13 -->
<g id="edge155" class="edge">
<title>Node44&#45;&gt;Node13</title>
<path fill="none" stroke="#191970" d="M1245.9136,-899.6124C1520.0417,-882.9411 2313,-830.0855 2313,-776.5 2313,-776.5 2313,-776.5 2313,-122 2313,-80.5164 2283.9132,-74.9289 2247,-56 2205.4547,-34.6959 2072.2287,-19.7863 2005.2381,-13.4337"/>
<polygon fill="#191970" stroke="#191970" points="2005.3608,-9.93 1995.0794,-12.4879 2004.7118,-16.8999 2005.3608,-9.93"/>
</g>
<!-- Node45 -->
<g id="node45" class="node">
<title>Node45</title>
<g id="a_node45"><a xlink:href="../../d3/d37/Control__Surface__Class_8hpp.html" target="_top" xlink:title=" ">
<polygon fill="#ffffff" stroke="#000000" points="1093,-828.5 1093,-858.5 1215,-858.5 1215,-828.5 1093,-828.5"/>
<text text-anchor="start" x="1101" y="-846.5" font-family="Helvetica,sans-Serif" font-size="10.00" fill="#000000">Control_Surface/Control</text>
<text text-anchor="middle" x="1154" y="-835.5" font-family="Helvetica,sans-Serif" font-size="10.00" fill="#000000">_Surface_Class.hpp</text>
</a>
</g>
</g>
<!-- Node44&#45;&gt;Node45 -->
<g id="edge92" class="edge">
<title>Node44&#45;&gt;Node45</title>
<path fill="none" stroke="#191970" d="M1154,-895.3906C1154,-888.2234 1154,-878.0862 1154,-868.671"/>
<polygon fill="#191970" stroke="#191970" points="1157.5001,-868.5446 1154,-858.5446 1150.5001,-868.5446 1157.5001,-868.5446"/>
</g>
<!-- Node45&#45;&gt;Node41 -->
<g id="edge93" class="edge">
<title>Node45&#45;&gt;Node41</title>
<path fill="none" stroke="#191970" d="M1092.8369,-839.559C1005.0633,-833.23 838.5683,-818.7127 699,-792 647.4295,-782.1296 636.5121,-771.1705 585,-761 578.0585,-759.6295 407.0543,-738.4418 300.6278,-725.3055"/>
<polygon fill="#191970" stroke="#191970" points="300.8912,-721.8116 290.5378,-724.0603 300.0338,-728.7589 300.8912,-721.8116"/>
</g>
<!-- Node46 -->
<g id="node46" class="node">
<title>Node46</title>
<g id="a_node46"><a xlink:href="../../d8/df3/FilteredAnalog_8hpp.html" target="_top" xlink:title=" ">
<polygon fill="#ffffff" stroke="#000000" points="1492,-705.5 1492,-724.5 1652,-724.5 1652,-705.5 1492,-705.5"/>
<text text-anchor="middle" x="1572" y="-712.5" font-family="Helvetica,sans-Serif" font-size="10.00" fill="#000000">AH/Hardware/FilteredAnalog.hpp</text>
</a>
</g>
</g>
<!-- Node45&#45;&gt;Node46 -->
<g id="edge94" class="edge">
<title>Node45&#45;&gt;Node46</title>
<path fill="none" stroke="#191970" d="M1215.2488,-837.4074C1271.7128,-830.5328 1357.2314,-816.9072 1428,-792 1473.1685,-776.1028 1521.4201,-747.6634 1549.0234,-730.1526"/>
<polygon fill="#191970" stroke="#191970" points="1551.0386,-733.018 1557.5587,-724.667 1547.254,-727.1293 1551.0386,-733.018"/>
</g>
<!-- Node51 -->
<g id="node51" class="node">
<title>Node51</title>
<g id="a_node51"><a xlink:href="../../d1/dd0/MillisMicrosTimer_8hpp.html" target="_top" xlink:title=" ">
<polygon fill="#ffffff" stroke="#000000" points="1933.5,-224.5 1933.5,-243.5 2094.5,-243.5 2094.5,-224.5 1933.5,-224.5"/>
<text text-anchor="middle" x="2014" y="-231.5" font-family="Helvetica,sans-Serif" font-size="10.00" fill="#000000">AH/Timing/MillisMicrosTimer.hpp</text>
</a>
</g>
</g>
<!-- Node45&#45;&gt;Node51 -->
<g id="edge115" class="edge">
<title>Node45&#45;&gt;Node51</title>
<path fill="none" stroke="#191970" d="M1215.0659,-842.9736C1448.9935,-840.1628 2275,-822.6185 2275,-715 2275,-715 2275,-715 2275,-458 2275,-342.6568 2126.4012,-273.8447 2053.4537,-247.0137"/>
<polygon fill="#191970" stroke="#191970" points="2054.2804,-243.5918 2043.6859,-243.5059 2051.9144,-250.1798 2054.2804,-243.5918"/>
</g>
<!-- Node52 -->
<g id="node52" class="node">
<title>Node52</title>
<g id="a_node52"><a xlink:href="../../d6/dd2/DisplayElement_8hpp.html" target="_top" xlink:title=" ">
<polygon fill="#ffffff" stroke="#000000" points="890,-767 890,-786 1030,-786 1030,-767 890,-767"/>
<text text-anchor="middle" x="960" y="-774" font-family="Helvetica,sans-Serif" font-size="10.00" fill="#000000">Display/DisplayElement.hpp</text>
</a>
</g>
</g>
<!-- Node45&#45;&gt;Node52 -->
<g id="edge119" class="edge">
<title>Node45&#45;&gt;Node52</title>
<path fill="none" stroke="#191970" d="M1110.4626,-828.4639C1076.3444,-816.6808 1029.3932,-800.4657 997.0581,-789.2984"/>
<polygon fill="#191970" stroke="#191970" points="998.1175,-785.9615 987.5228,-786.0053 995.8324,-792.578 998.1175,-785.9615"/>
</g>
<!-- Node53 -->
<g id="node53" class="node">
<title>Node53</title>
<g id="a_node53"><a xlink:href="../../dc/d77/DisplayInterface_8hpp.html" target="_top" xlink:title=" ">
<polygon fill="#ffffff" stroke="#000000" points="876.5,-705.5 876.5,-724.5 1019.5,-724.5 1019.5,-705.5 876.5,-705.5"/>
<text text-anchor="middle" x="948" y="-712.5" font-family="Helvetica,sans-Serif" font-size="10.00" fill="#000000">Display/DisplayInterface.hpp</text>
</a>
</g>
</g>
<!-- Node45&#45;&gt;Node53 -->
<g id="edge125" class="edge">
<title>Node45&#45;&gt;Node53</title>
<path fill="none" stroke="#191970" d="M1134.6881,-828.2348C1112.3343,-810.9035 1074.0861,-782.2789 1039,-761 1019.4601,-749.1495 996.4866,-737.5534 978.5112,-728.9686"/>
<polygon fill="#191970" stroke="#191970" points="979.6303,-725.6266 969.0927,-724.5265 976.6443,-731.9578 979.6303,-725.6266"/>
</g>
<!-- Node55 -->
<g id="node55" class="node">
<title>Node55</title>
<g id="a_node55"><a xlink:href="../../d6/d04/MIDI__Interface_8hpp.html" target="_top" xlink:title=" ">
<polygon fill="#ffffff" stroke="#000000" points="1098,-761.5 1098,-791.5 1210,-791.5 1210,-761.5 1098,-761.5"/>
<text text-anchor="start" x="1106" y="-779.5" font-family="Helvetica,sans-Serif" font-size="10.00" fill="#000000">MIDI_Interfaces/MIDI</text>
<text text-anchor="middle" x="1154" y="-768.5" font-family="Helvetica,sans-Serif" font-size="10.00" fill="#000000">_Interface.hpp</text>
</a>
</g>
</g>
<!-- Node45&#45;&gt;Node55 -->
<g id="edge126" class="edge">
<title>Node45&#45;&gt;Node55</title>
<path fill="none" stroke="#191970" d="M1154,-828.2967C1154,-820.5013 1154,-810.7991 1154,-801.9064"/>
<polygon fill="#191970" stroke="#191970" points="1157.5001,-801.6431 1154,-791.6432 1150.5001,-801.6432 1157.5001,-801.6431"/>
</g>
<!-- Node60 -->
<g id="node60" class="node">
<title>Node60</title>
<g id="a_node60"><a xlink:title=" ">
<polygon fill="#ffffff" stroke="#bfbfbf" points="1182.5,-644 1182.5,-663 1329.5,-663 1329.5,-644 1182.5,-644"/>
<text text-anchor="middle" x="1256" y="-651" font-family="Helvetica,sans-Serif" font-size="10.00" fill="#000000">Settings/SettingsWrapper.hpp</text>
</a>
</g>
</g>
<!-- Node45&#45;&gt;Node60 -->
<g id="edge154" class="edge">
<title>Node45&#45;&gt;Node60</title>
<path fill="none" stroke="#191970" d="M1215.2481,-832.3256C1272.863,-818.2104 1355.9393,-787.7333 1395,-725 1399.6983,-717.4543 1400.0775,-712.296 1395,-705 1384.3848,-689.7467 1341.5081,-675.3131 1306.1489,-665.6289"/>
<polygon fill="#191970" stroke="#191970" points="1306.9728,-662.2263 1296.4082,-663.0266 1305.166,-668.9891 1306.9728,-662.2263"/>
</g>
<!-- Node46&#45;&gt;Node8 -->
<g id="edge95" class="edge">
<title>Node46&#45;&gt;Node8</title>
<path fill="none" stroke="#191970" d="M1652.2145,-707.8107C1829.0843,-690.8791 2237,-645.4405 2237,-586.5 2237,-586.5 2237,-586.5 2237,-458 2237,-381.4471 2275,-366.5529 2275,-290 2275,-290 2275,-290 2275,-122 2275,-82.3572 2250.7614,-73.1079 2215,-56 2153.3299,-26.4977 1701.6585,-14.8373 1518.6689,-11.2913"/>
<polygon fill="#191970" stroke="#191970" points="1518.6479,-7.7903 1508.5829,-11.0988 1518.5143,-14.7891 1518.6479,-7.7903"/>
</g>
<!-- Node46&#45;&gt;Node11 -->
<g id="edge113" class="edge">
<title>Node46&#45;&gt;Node11</title>
<path fill="none" stroke="#191970" d="M1652.3253,-709.4129C1739.2683,-702.4719 1871.7041,-689.0417 1918,-669 1971.1906,-645.9736 2019,-644.4608 2019,-586.5 2019,-586.5 2019,-586.5 2019,-519.5 2019,-329.1789 1791.909,-182.1172 1712.7931,-136.6576"/>
<polygon fill="#191970" stroke="#191970" points="1714.3295,-133.5054 1703.9035,-131.6213 1710.879,-139.5959 1714.3295,-133.5054"/>
</g>
<!-- Node46&#45;&gt;Node16 -->
<g id="edge114" class="edge">
<title>Node46&#45;&gt;Node16</title>
<path fill="none" stroke="#191970" d="M1551.1413,-705.4517C1532.5816,-696.6967 1504.9085,-683.0002 1482,-669 1461.8971,-656.7144 1460.9232,-646.6277 1439,-638 1319.7853,-591.0842 1278.2213,-629.0712 1153,-602 1107.5196,-592.1677 1098.2627,-581.79 1053,-571 959.6077,-548.7366 919.3622,-589.0316 840,-535 808.0366,-513.2386 755.6181,-408.323 734.8622,-364.8892"/>
<polygon fill="#191970" stroke="#191970" points="737.9538,-363.2399 730.5076,-355.703 731.6285,-366.2384 737.9538,-363.2399"/>
</g>
<!-- Node46&#45;&gt;Node35 -->
<g id="edge107" class="edge">
<title>Node46&#45;&gt;Node35</title>
<path fill="none" stroke="#191970" d="M1574.9301,-705.4955C1577.7866,-696.201 1582.2377,-681.6415 1586,-669 1591.7243,-649.7662 1598.0601,-627.9641 1602.7839,-611.6047"/>
<polygon fill="#191970" stroke="#191970" points="1606.2259,-612.3002 1605.6327,-601.722 1599.4998,-610.3613 1606.2259,-612.3002"/>
</g>
<!-- Node47 -->
<g id="node47" class="node">
<title>Node47</title>
<g id="a_node47"><a xlink:href="../../d3/df0/EMA_8hpp.html" target="_top" xlink:title=" ">
<polygon fill="#ffffff" stroke="#000000" points="1283,-280.5 1283,-299.5 1387,-299.5 1387,-280.5 1283,-280.5"/>
<text text-anchor="middle" x="1335" y="-287.5" font-family="Helvetica,sans-Serif" font-size="10.00" fill="#000000">AH/Filters/EMA.hpp</text>
</a>
</g>
</g>
<!-- Node46&#45;&gt;Node47 -->
<g id="edge96" class="edge">
<title>Node46&#45;&gt;Node47</title>
<path fill="none" stroke="#191970" d="M1566.5671,-705.2684C1561.5072,-696.0518 1553.8817,-681.7619 1548,-669 1503.6789,-572.8341 1511.9924,-539.6736 1459,-448 1426.8962,-392.4623 1376.8969,-335.1512 1351.3018,-307.2966"/>
<polygon fill="#191970" stroke="#191970" points="1353.5568,-304.5812 1344.1888,-299.6323 1348.426,-309.343 1353.5568,-304.5812"/>
</g>
<!-- Node48 -->
<g id="node48" class="node">
<title>Node48</title>
<g id="a_node48"><a xlink:href="../../d3/d09/Hysteresis_8hpp.html" target="_top" xlink:title=" ">
<polygon fill="#ffffff" stroke="#000000" points="1481,-280.5 1481,-299.5 1611,-299.5 1611,-280.5 1481,-280.5"/>
<text text-anchor="middle" x="1546" y="-287.5" font-family="Helvetica,sans-Serif" font-size="10.00" fill="#000000">AH/Filters/Hysteresis.hpp</text>
</a>
</g>
</g>
<!-- Node46&#45;&gt;Node48 -->
<g id="edge99" class="edge">
<title>Node46&#45;&gt;Node48</title>
<path fill="none" stroke="#191970" d="M1569.0253,-705.4524C1561.8104,-682.1103 1543.7696,-622.5641 1541,-602 1526.2394,-492.4023 1538.1983,-359.2064 1543.6499,-309.7344"/>
<polygon fill="#191970" stroke="#191970" points="1547.1607,-309.8383 1544.8184,-299.5057 1540.2059,-309.0437 1547.1607,-309.8383"/>
</g>
<!-- Node49 -->
<g id="node49" class="node">
<title>Node49</title>
<g id="a_node49"><a xlink:href="../../dd/ddf/ExtendedInputOutput_8hpp.html" target="_top" xlink:title=" ">
<polygon fill="#ffffff" stroke="#000000" points="1749,-638.5 1749,-668.5 1909,-668.5 1909,-638.5 1749,-638.5"/>
<text text-anchor="start" x="1757" y="-656.5" font-family="Helvetica,sans-Serif" font-size="10.00" fill="#000000">AH/Hardware/ExtendedInput</text>
<text text-anchor="middle" x="1829" y="-645.5" font-family="Helvetica,sans-Serif" font-size="10.00" fill="#000000">Output/ExtendedInputOutput.hpp</text>
</a>
</g>
</g>
<!-- Node46&#45;&gt;Node49 -->
<g id="edge102" class="edge">
<title>Node46&#45;&gt;Node49</title>
<path fill="none" stroke="#191970" d="M1611.8743,-705.4581C1650.3093,-696.2606 1709.3691,-682.1276 1756.1948,-670.9223"/>
<polygon fill="#191970" stroke="#191970" points="1757.0785,-674.3097 1765.9894,-668.5784 1755.4494,-667.5019 1757.0785,-674.3097"/>
</g>
<!-- Node50 -->
<g id="node50" class="node">
<title>Node50</title>
<g id="a_node50"><a xlink:href="../../d5/dee/IncreaseBitDepth_8hpp.html" target="_top" xlink:title=" ">
<polygon fill="#ffffff" stroke="#000000" points="756.5,-280.5 756.5,-299.5 909.5,-299.5 909.5,-280.5 756.5,-280.5"/>
<text text-anchor="middle" x="833" y="-287.5" font-family="Helvetica,sans-Serif" font-size="10.00" fill="#000000">AH/Math/IncreaseBitDepth.hpp</text>
</a>
</g>
</g>
<!-- Node46&#45;&gt;Node50 -->
<g id="edge108" class="edge">
<title>Node46&#45;&gt;Node50</title>
<path fill="none" stroke="#191970" d="M1563.1458,-705.4413C1521.9338,-661.5811 1343.0243,-478.0606 1157,-392 1064.9184,-349.4002 950.2676,-317.9902 884.9724,-301.9701"/>
<polygon fill="#191970" stroke="#191970" points="885.4711,-298.4896 874.9277,-299.5318 883.8198,-305.292 885.4711,-298.4896"/>
</g>
<!-- Node47&#45;&gt;Node8 -->
<g id="edge97" class="edge">
<title>Node47&#45;&gt;Node8</title>
<path fill="none" stroke="#191970" d="M1366.8083,-280.4843C1385.6614,-273.3057 1408.6081,-261.6265 1423,-244 1442.3054,-220.3557 1442,-208.5246 1442,-178 1442,-178 1442,-178 1442,-122 1442,-89.7116 1442,-52.1872 1442,-29.8048"/>
<polygon fill="#191970" stroke="#191970" points="1445.5001,-29.5883 1442,-19.5884 1438.5001,-29.5884 1445.5001,-29.5883"/>
</g>
<!-- Node47&#45;&gt;Node22 -->
<g id="edge98" class="edge">
<title>Node47&#45;&gt;Node22</title>
<path fill="none" stroke="#191970" d="M1344.4061,-280.2455C1352.1493,-272.2155 1363.312,-260.6394 1372.5318,-251.0781"/>
<polygon fill="#191970" stroke="#191970" points="1375.2798,-253.2706 1379.7017,-243.6427 1370.2409,-248.4117 1375.2798,-253.2706"/>
</g>
<!-- Node48&#45;&gt;Node8 -->
<g id="edge100" class="edge">
<title>Node48&#45;&gt;Node8</title>
<path fill="none" stroke="#191970" d="M1535.396,-280.3425C1516.7393,-262.2361 1480,-221.1076 1480,-178 1480,-178 1480,-178 1480,-122 1480,-87.6118 1463.7366,-50.2832 1452.489,-28.5791"/>
<polygon fill="#191970" stroke="#191970" points="1455.431,-26.6605 1447.607,-19.5166 1449.2683,-29.9804 1455.431,-26.6605"/>
</g>
<!-- Node48&#45;&gt;Node22 -->
<g id="edge101" class="edge">
<title>Node48&#45;&gt;Node22</title>
<path fill="none" stroke="#191970" d="M1519.0107,-280.3733C1492.5026,-270.9181 1451.9641,-256.4585 1423.2099,-246.2023"/>
<polygon fill="#191970" stroke="#191970" points="1424.1677,-242.828 1413.573,-242.7649 1421.8159,-249.4211 1424.1677,-242.828"/>
</g>
<!-- Node49&#45;&gt;Node8 -->
<g id="edge103" class="edge">
<title>Node49&#45;&gt;Node8</title>
<path fill="none" stroke="#191970" d="M1909.2845,-641.0194C2018.1045,-621.7964 2199,-580.6455 2199,-519.5 2199,-519.5 2199,-519.5 2199,-458 2199,-381.4471 2237,-366.5529 2237,-290 2237,-290 2237,-290 2237,-122 2237,-84.6561 2218.0779,-73.3327 2185,-56 2127.0973,-25.6591 1696.634,-14.5444 1518.6621,-11.2173"/>
<polygon fill="#191970" stroke="#191970" points="1518.65,-7.7165 1508.5874,-11.0322 1518.5214,-14.7154 1518.65,-7.7165"/>
</g>
<!-- Node49&#45;&gt;Node10 -->
<g id="edge105" class="edge">
<title>Node49&#45;&gt;Node10</title>
<path fill="none" stroke="#191970" d="M1827.7874,-638.385C1825.3325,-611.1026 1818.7936,-552.0032 1805,-504 1770.0591,-382.402 1702.0779,-245.5653 1676.7875,-196.6261"/>
<polygon fill="#191970" stroke="#191970" points="1679.7875,-194.8089 1672.0661,-187.5543 1673.5781,-198.0407 1679.7875,-194.8089"/>
</g>
<!-- Node49&#45;&gt;Node14 -->
<g id="edge104" class="edge">
<title>Node49&#45;&gt;Node14</title>
<path fill="none" stroke="#191970" d="M1855.1539,-638.3547C1888.8106,-616.6793 1943,-573.4097 1943,-519.5 1943,-519.5 1943,-519.5 1943,-346 1943,-291.3943 1887.2437,-163.1024 1868,-112 1864.5964,-102.9616 1860.3881,-93.121 1856.7112,-84.8696"/>
<polygon fill="#191970" stroke="#191970" points="1859.8956,-83.417 1852.5795,-75.7538 1853.5199,-86.3068 1859.8956,-83.417"/>
</g>
<!-- Node49&#45;&gt;Node35 -->
<g id="edge106" class="edge">
<title>Node49&#45;&gt;Node35</title>
<path fill="none" stroke="#191970" d="M1779.8521,-638.4639C1747.1398,-628.456 1703.977,-615.2509 1669.3491,-604.657"/>
<polygon fill="#191970" stroke="#191970" points="1669.9487,-601.1804 1659.3622,-601.6017 1667.9008,-607.8741 1669.9487,-601.1804"/>
</g>
<!-- Node50&#45;&gt;Node8 -->
<g id="edge109" class="edge">
<title>Node50&#45;&gt;Node8</title>
<path fill="none" stroke="#191970" d="M778.2651,-280.4886C693.9695,-264.2652 542,-228.0735 542,-178 542,-178 542,-178 542,-122 542,-39.3199 1147.8579,-16.9177 1365.394,-11.5388"/>
<polygon fill="#191970" stroke="#191970" points="1365.543,-15.0364 1375.4554,-11.2954 1365.3736,-8.0384 1365.543,-15.0364"/>
</g>
<!-- Node50&#45;&gt;Node15 -->
<g id="edge110" class="edge">
<title>Node50&#45;&gt;Node15</title>
<path fill="none" stroke="#191970" d="M836.1713,-280.4862C845.0619,-253.8144 870.3628,-177.9117 882.435,-141.695"/>
<polygon fill="#191970" stroke="#191970" points="885.8821,-142.4215 885.724,-131.8279 879.2413,-140.2079 885.8821,-142.4215"/>
</g>
<!-- Node50&#45;&gt;Node20 -->
<g id="edge111" class="edge">
<title>Node50&#45;&gt;Node20</title>
<path fill="none" stroke="#191970" d="M844.6705,-280.2455C854.5661,-271.9746 868.9627,-259.9416 880.5901,-250.2232"/>
<polygon fill="#191970" stroke="#191970" points="883.035,-252.7413 888.4632,-243.6427 878.5458,-247.3703 883.035,-252.7413"/>
</g>
<!-- Node50&#45;&gt;Node21 -->
<g id="edge112" class="edge">
<title>Node50&#45;&gt;Node21</title>
<path fill="none" stroke="#191970" d="M767.5951,-280.4369C686.439,-268.5707 550.8926,-248.7519 486.3301,-239.312"/>
<polygon fill="#191970" stroke="#191970" points="486.6303,-235.8187 476.2291,-237.8351 485.6175,-242.7451 486.6303,-235.8187"/>
</g>
<!-- Node51&#45;&gt;Node8 -->
<g id="edge116" class="edge">
<title>Node51&#45;&gt;Node8</title>
<path fill="none" stroke="#191970" d="M2013.7002,-224.2275C2012.1798,-193.5392 2002.9549,-98.6093 1947,-56 1913.722,-30.659 1651.5354,-17.5914 1518.654,-12.5403"/>
<polygon fill="#191970" stroke="#191970" points="1518.6621,-9.0383 1508.5381,-12.1618 1518.4002,-16.0334 1518.6621,-9.0383"/>
</g>
<!-- Node51&#45;&gt;Node10 -->
<g id="edge117" class="edge">
<title>Node51&#45;&gt;Node10</title>
<path fill="none" stroke="#191970" d="M1954.7428,-224.4369C1893.6495,-214.5774 1798.5361,-199.2277 1734.56,-188.9031"/>
<polygon fill="#191970" stroke="#191970" points="1734.9995,-185.4288 1724.5696,-187.2908 1733.8842,-192.3394 1734.9995,-185.4288"/>
</g>
<!-- Node51&#45;&gt;Node14 -->
<g id="edge118" class="edge">
<title>Node51&#45;&gt;Node14</title>
<path fill="none" stroke="#191970" d="M2008.0322,-224.249C1994.2971,-202.3366 1958.5741,-148.2828 1919,-112 1905.8938,-99.9839 1889.3054,-89.0454 1875.4593,-80.8526"/>
<polygon fill="#191970" stroke="#191970" points="1876.8023,-77.5876 1866.3881,-75.6398 1873.3146,-83.6569 1876.8023,-77.5876"/>
</g>
<!-- Node52&#45;&gt;Node26 -->
<g id="edge124" class="edge">
<title>Node52&#45;&gt;Node26</title>
<path fill="none" stroke="#191970" d="M942.7574,-766.944C908.5557,-748.0092 834.9006,-707.3408 829,-705 784.3186,-687.275 731.5235,-673.8499 691.84,-665.1576"/>
<polygon fill="#191970" stroke="#191970" points="692.559,-661.7323 682.0464,-663.0499 691.0862,-668.5756 692.559,-661.7323"/>
</g>
<!-- Node52&#45;&gt;Node53 -->
<g id="edge120" class="edge">
<title>Node52&#45;&gt;Node53</title>
<path fill="none" stroke="#191970" d="M958.125,-766.8906C956.4441,-758.276 953.926,-745.3708 951.8216,-734.5858"/>
<polygon fill="#191970" stroke="#191970" points="955.2518,-733.8895 949.9014,-724.7449 948.3814,-735.2301 955.2518,-733.8895"/>
</g>
<!-- Node53&#45;&gt;Node26 -->
<g id="edge121" class="edge">
<title>Node53&#45;&gt;Node26</title>
<path fill="none" stroke="#191970" d="M898.9717,-705.4581C842.8442,-694.5345 750.9453,-676.6492 690.9604,-664.9749"/>
<polygon fill="#191970" stroke="#191970" points="691.3678,-661.4886 680.8833,-663.0137 690.0305,-668.3597 691.3678,-661.4886"/>
</g>
<!-- Node53&#45;&gt;Node30 -->
<g id="edge122" class="edge">
<title>Node53&#45;&gt;Node30</title>
<path fill="none" stroke="#191970" d="M926.75,-705.3906C904.0945,-695.1457 868.0202,-678.8326 842.3709,-667.2339"/>
<polygon fill="#191970" stroke="#191970" points="843.6546,-663.9732 833.1008,-663.0419 840.7703,-670.3514 843.6546,-663.9732"/>
</g>
<!-- Node54 -->
<g id="node54" class="node">
<title>Node54</title>
<g id="a_node54"><a xlink:title=" ">
<polygon fill="#ffffff" stroke="#bfbfbf" points="925.5,-644 925.5,-663 970.5,-663 970.5,-644 925.5,-644"/>
<text text-anchor="middle" x="948" y="-651" font-family="Helvetica,sans-Serif" font-size="10.00" fill="#000000">Print.h</text>
</a>
</g>
</g>
<!-- Node53&#45;&gt;Node54 -->
<g id="edge123" class="edge">
<title>Node53&#45;&gt;Node54</title>
<path fill="none" stroke="#191970" d="M948,-705.3906C948,-696.8657 948,-684.1392 948,-673.4235"/>
<polygon fill="#191970" stroke="#191970" points="951.5001,-673.2448 948,-663.2449 944.5001,-673.2449 951.5001,-673.2448"/>
</g>
<!-- Node55&#45;&gt;Node30 -->
<g id="edge142" class="edge">
<title>Node55&#45;&gt;Node30</title>
<path fill="none" stroke="#191970" d="M1129.706,-761.4923C1099.4161,-742.9785 1049.1707,-712.9699 1029,-705 971.7044,-682.3611 901.8068,-667.9697 857.1036,-660.3188"/>
<polygon fill="#191970" stroke="#191970" points="857.5737,-656.8489 847.1336,-658.6528 856.42,-663.7531 857.5737,-656.8489"/>
</g>
<!-- Node55&#45;&gt;Node38 -->
<g id="edge143" class="edge">
<title>Node55&#45;&gt;Node38</title>
<path fill="none" stroke="#191970" d="M1097.7072,-767.6231C1026.9921,-756.4718 905.8187,-737.3637 830.5777,-725.4988"/>
<polygon fill="#191970" stroke="#191970" points="830.6989,-721.9747 820.2758,-723.8743 829.6085,-728.8893 830.6989,-721.9747"/>
</g>
<!-- Node55&#45;&gt;Node41 -->
<g id="edge141" class="edge">
<title>Node55&#45;&gt;Node41</title>
<path fill="none" stroke="#191970" d="M1097.9564,-767.9705C1079.2462,-765.3836 1058.2594,-762.7631 1039,-761 714.4557,-731.2889 628.838,-752.5037 300.9989,-725.1152"/>
<polygon fill="#191970" stroke="#191970" points="300.99,-721.6021 290.731,-724.2482 300.401,-728.5773 300.99,-721.6021"/>
</g>
<!-- Node56 -->
<g id="node56" class="node">
<title>Node56</title>
<g id="a_node56"><a xlink:href="../../dd/ddf/MIDI__Pipes_8hpp.html" target="_top" xlink:title=" ">
<polygon fill="#ffffff" stroke="#000000" points="1161.5,-577 1161.5,-596 1248.5,-596 1248.5,-577 1161.5,-577"/>
<text text-anchor="middle" x="1205" y="-584" font-family="Helvetica,sans-Serif" font-size="10.00" fill="#000000">MIDI_Pipes.hpp</text>
</a>
</g>
</g>
<!-- Node55&#45;&gt;Node56 -->
<g id="edge127" class="edge">
<title>Node55&#45;&gt;Node56</title>
<path fill="none" stroke="#191970" d="M1197.7413,-761.4993C1214.3457,-753.424 1231.5244,-741.6204 1241,-725 1267.1122,-679.1985 1176.1402,-672.5795 1174,-669 1161.5634,-648.1995 1176.3832,-621.5566 1189.4924,-604.2634"/>
<polygon fill="#191970" stroke="#191970" points="1192.4813,-606.1328 1196.0383,-596.1529 1187.0341,-601.7364 1192.4813,-606.1328"/>
</g>
<!-- Node59 -->
<g id="node59" class="node">
<title>Node59</title>
<g id="a_node59"><a xlink:href="../../d7/d2d/MIDI__Parser_8hpp.html" target="_top" xlink:title=" ">
<polygon fill="#ffffff" stroke="#000000" points="1076.5,-705.5 1076.5,-724.5 1231.5,-724.5 1231.5,-705.5 1076.5,-705.5"/>
<text text-anchor="middle" x="1154" y="-712.5" font-family="Helvetica,sans-Serif" font-size="10.00" fill="#000000">MIDI_Parsers/MIDI_Parser.hpp</text>
</a>
</g>
</g>
<!-- Node55&#45;&gt;Node59 -->
<g id="edge144" class="edge">
<title>Node55&#45;&gt;Node59</title>
<path fill="none" stroke="#191970" d="M1154,-761.2977C1154,-753.3834 1154,-743.6043 1154,-735.0759"/>
<polygon fill="#191970" stroke="#191970" points="1157.5001,-734.8469 1154,-724.8469 1150.5001,-734.847 1157.5001,-734.8469"/>
</g>
<!-- Node61 -->
<g id="node61" class="node">
<title>Node61</title>
<g id="a_node61"><a xlink:href="../../d6/d38/MIDI__Interface_8ipp.html" target="_top" xlink:title=" ">
<polygon fill="#ffffff" stroke="#000000" points="1288,-705.5 1288,-724.5 1386,-724.5 1386,-705.5 1288,-705.5"/>
<text text-anchor="middle" x="1337" y="-712.5" font-family="Helvetica,sans-Serif" font-size="10.00" fill="#000000">MIDI_Interface.ipp</text>
</a>
</g>
</g>
<!-- Node55&#45;&gt;Node61 -->
<g id="edge151" class="edge">
<title>Node55&#45;&gt;Node61</title>
<path fill="none" stroke="#191970" d="M1192.8698,-761.4554C1222.5675,-751.059 1263.3554,-737.3884 1294.0208,-727.5727"/>
<polygon fill="#191970" stroke="#191970" points="1295.1242,-730.8946 1303.5945,-724.5303 1293.0041,-724.2234 1295.1242,-730.8946"/>
</g>
<!-- Node56&#45;&gt;Node8 -->
<g id="edge134" class="edge">
<title>Node56&#45;&gt;Node8</title>
<path fill="none" stroke="#191970" d="M1248.6851,-583.8745C1358.1862,-577.0328 1642.1608,-557.6093 1734,-535 1868.7529,-501.826 1900.2644,-480.4235 2021,-412 2104.4413,-364.7119 2199,-385.9094 2199,-290 2199,-290 2199,-290 2199,-122 2199,-87.6999 2188.3309,-73.7818 2159,-56 2105.3042,-23.447 1692.4696,-13.6445 1518.6988,-10.9432"/>
<polygon fill="#191970" stroke="#191970" points="1518.6554,-7.4422 1508.6034,-10.79 1518.5492,-14.4414 1518.6554,-7.4422"/>
</g>
<!-- Node56&#45;&gt;Node32 -->
<g id="edge140" class="edge">
<title>Node56&#45;&gt;Node32</title>
<path fill="none" stroke="#191970" d="M1188.9383,-576.8209C1174.7388,-567.5797 1154.2751,-552.4971 1141,-535 1127.7314,-517.5114 1118.6374,-493.878 1113.4079,-477.4253"/>
<polygon fill="#191970" stroke="#191970" points="1116.7438,-476.3644 1110.5243,-467.7872 1110.0375,-478.3708 1116.7438,-476.3644"/>
</g>
<!-- Node56&#45;&gt;Node43 -->
<g id="edge133" class="edge">
<title>Node56&#45;&gt;Node43</title>
<path fill="none" stroke="#191970" d="M1161.2553,-577.2543C1102.5306,-564.8424 998.5076,-542.8565 937.1459,-529.8873"/>
<polygon fill="#191970" stroke="#191970" points="937.8174,-526.452 927.3097,-527.8084 936.3698,-533.3007 937.8174,-526.452"/>
</g>
<!-- Node57 -->
<g id="node57" class="node">
<title>Node57</title>
<g id="a_node57"><a xlink:href="../../d1/d40/BitArray_8hpp.html" target="_top" xlink:title=" ">
<polygon fill="#ffffff" stroke="#000000" points="1587,-510 1587,-529 1725,-529 1725,-510 1587,-510"/>
<text text-anchor="middle" x="1656" y="-517" font-family="Helvetica,sans-Serif" font-size="10.00" fill="#000000">AH/Containers/BitArray.hpp</text>
</a>
</g>
</g>
<!-- Node56&#45;&gt;Node57 -->
<g id="edge128" class="edge">
<title>Node56&#45;&gt;Node57</title>
<path fill="none" stroke="#191970" d="M1248.6536,-580.0149C1325.758,-568.5603 1486.8507,-544.6286 1581.7182,-530.5352"/>
<polygon fill="#191970" stroke="#191970" points="1582.4402,-533.9665 1591.8173,-529.0349 1581.4115,-527.0424 1582.4402,-533.9665"/>
</g>
<!-- Node58 -->
<g id="node58" class="node">
<title>Node58</title>
<g id="a_node58"><a xlink:href="../../dc/d40/MIDI__MessageTypes_8hpp.html" target="_top" xlink:title=" ">
<polygon fill="#ffffff" stroke="#000000" points="1149.5,-504.5 1149.5,-534.5 1296.5,-534.5 1296.5,-504.5 1149.5,-504.5"/>
<text text-anchor="start" x="1157.5" y="-522.5" font-family="Helvetica,sans-Serif" font-size="10.00" fill="#000000">MIDI_Parsers/MIDI_Message</text>
<text text-anchor="middle" x="1223" y="-511.5" font-family="Helvetica,sans-Serif" font-size="10.00" fill="#000000">Types.hpp</text>
</a>
</g>
</g>
<!-- Node56&#45;&gt;Node58 -->
<g id="edge135" class="edge">
<title>Node56&#45;&gt;Node58</title>
<path fill="none" stroke="#191970" d="M1207.579,-576.9005C1209.8564,-568.4234 1213.2785,-555.6856 1216.3208,-544.3614"/>
<polygon fill="#191970" stroke="#191970" points="1219.7498,-545.0874 1218.9643,-534.5218 1212.9895,-543.2712 1219.7498,-545.0874"/>
</g>
<!-- Node57&#45;&gt;Node8 -->
<g id="edge129" class="edge">
<title>Node57&#45;&gt;Node8</title>
<path fill="none" stroke="#191970" d="M1708.6147,-509.9752C1837.9578,-483.2195 2161,-394.704 2161,-178 2161,-178 2161,-178 2161,-122 2161,-90.7875 2161.9596,-74.7414 2137,-56 2112.6013,-37.6797 1694.5836,-19.6511 1518.8471,-12.8443"/>
<polygon fill="#191970" stroke="#191970" points="1518.7657,-9.3387 1508.6384,-12.451 1518.4962,-16.3335 1518.7657,-9.3387"/>
</g>
<!-- Node57&#45;&gt;Node14 -->
<g id="edge131" class="edge">
<title>Node57&#45;&gt;Node14</title>
<path fill="none" stroke="#191970" d="M1660.1888,-509.6063C1684.4391,-452.3275 1806.8953,-163.0885 1839.8325,-85.2916"/>
<polygon fill="#191970" stroke="#191970" points="1843.1907,-86.3368 1843.8664,-75.7635 1836.7446,-83.6076 1843.1907,-86.3368"/>
</g>
<!-- Node57&#45;&gt;Node22 -->
<g id="edge132" class="edge">
<title>Node57&#45;&gt;Node22</title>
<path fill="none" stroke="#191970" d="M1650.9957,-509.9043C1639.1945,-487.7624 1607.9729,-431.9417 1573,-392 1545.5581,-360.6594 1450.6139,-283.3758 1408.9094,-249.8932"/>
<polygon fill="#191970" stroke="#191970" points="1411.08,-247.1475 1401.0875,-243.626 1406.703,-252.6103 1411.08,-247.1475"/>
</g>
<!-- Node57&#45;&gt;Node25 -->
<g id="edge130" class="edge">
<title>Node57&#45;&gt;Node25</title>
<path fill="none" stroke="#191970" d="M1586.9348,-516.4334C1516.3388,-513.3007 1403.5269,-508.2999 1306,-504 929.4582,-487.3985 476.8093,-467.5759 317.1941,-460.5901"/>
<polygon fill="#191970" stroke="#191970" points="317.2518,-457.0893 307.1083,-460.1487 316.9456,-464.0826 317.2518,-457.0893"/>
</g>
<!-- Node58&#45;&gt;Node8 -->
<g id="edge136" class="edge">
<title>Node58&#45;&gt;Node8</title>
<path fill="none" stroke="#191970" d="M1282.1776,-504.4689C1470.0436,-456.2815 2044.1394,-305.2399 2104,-244 2125.3369,-222.1714 2123,-208.5246 2123,-178 2123,-178 2123,-178 2123,-122 2123,-48.3508 2042.3924,-74.0921 1971,-56 1887.5582,-34.8544 1644.3446,-20.0806 1518.8681,-13.6351"/>
<polygon fill="#191970" stroke="#191970" points="1518.736,-10.1239 1508.5711,-13.1112 1518.3803,-17.1149 1518.736,-10.1239"/>
</g>
<!-- Node58&#45;&gt;Node21 -->
<g id="edge138" class="edge">
<title>Node58&#45;&gt;Node21</title>
<path fill="none" stroke="#191970" d="M1221.834,-504.2957C1219.8037,-488.2168 1214.2405,-463.1279 1199,-448 1048.976,-299.0844 941.6598,-382.4052 747,-300 729.4247,-292.5599 727.0547,-286.1867 709,-280 632.1638,-253.6709 537.0832,-241.7232 486.1923,-236.8822"/>
<polygon fill="#191970" stroke="#191970" points="486.3026,-233.3778 476.0259,-235.9544 485.6664,-240.3489 486.3026,-233.3778"/>
</g>
<!-- Node58&#45;&gt;Node22 -->
<g id="edge139" class="edge">
<title>Node58&#45;&gt;Node22</title>
<path fill="none" stroke="#191970" d="M1226.182,-504.2483C1228.1847,-494.0367 1230.6397,-480.2688 1232,-468 1241.2183,-384.8582 1189.8017,-346.1533 1241,-280 1241.9048,-278.831 1311.3656,-257.5734 1354.7953,-244.3698"/>
<polygon fill="#191970" stroke="#191970" points="1355.8747,-247.6999 1364.4255,-241.4443 1353.8399,-241.0022 1355.8747,-247.6999"/>
</g>
<!-- Node58&#45;&gt;Node32 -->
<g id="edge137" class="edge">
<title>Node58&#45;&gt;Node32</title>
<path fill="none" stroke="#191970" d="M1194.8678,-504.4554C1176.5214,-494.644 1152.7223,-481.9167 1134.6749,-472.2653"/>
<polygon fill="#191970" stroke="#191970" points="1136.2897,-469.1598 1125.8209,-467.5303 1132.9886,-475.3326 1136.2897,-469.1598"/>
</g>
<!-- Node59&#45;&gt;Node21 -->
<g id="edge145" class="edge">
<title>Node59&#45;&gt;Node21</title>
<path fill="none" stroke="#191970" d="M1145.426,-705.4085C1117.1643,-673.8431 1028.2704,-574.9789 1020,-571 924.4079,-525.0099 626.2401,-602.0037 544,-535 535.0843,-527.7361 491.052,-346.7626 487,-336 480.7656,-319.4405 476.3607,-316.5115 470,-300 464.082,-284.6378 458.7515,-266.7378 455.0847,-253.458"/>
<polygon fill="#191970" stroke="#191970" points="458.3963,-252.2948 452.4194,-243.5468 451.6364,-254.1126 458.3963,-252.2948"/>
</g>
<!-- Node59&#45;&gt;Node22 -->
<g id="edge146" class="edge">
<title>Node59&#45;&gt;Node22</title>
<path fill="none" stroke="#191970" d="M1153.9122,-705.2469C1154.2844,-689.3019 1157.2543,-657.4818 1174,-638 1200.4763,-607.1977 1226.3409,-627.4456 1258,-602 1313.0199,-557.7786 1325,-528.5884 1325,-458 1325,-458 1325,-458 1325,-402 1325,-343.2307 1241.0523,-328.6649 1274,-280 1278.8344,-272.8595 1322.7607,-256.6071 1354.892,-245.4651"/>
<polygon fill="#191970" stroke="#191970" points="1356.1095,-248.7477 1364.4287,-242.1871 1353.8341,-242.1278 1356.1095,-248.7477"/>
</g>
<!-- Node59&#45;&gt;Node27 -->
<g id="edge147" class="edge">
<title>Node59&#45;&gt;Node27</title>
<path fill="none" stroke="#191970" d="M1098.7167,-705.4768C1073.7469,-698.805 1045.3523,-687.615 1025,-669 1006.5186,-652.0962 996.3426,-624.4111 991.2803,-605.8294"/>
<polygon fill="#191970" stroke="#191970" points="994.6696,-604.9552 988.8664,-596.091 987.8752,-606.6394 994.6696,-604.9552"/>
</g>
<!-- Node59&#45;&gt;Node30 -->
<g id="edge148" class="edge">
<title>Node59&#45;&gt;Node30</title>
<path fill="none" stroke="#191970" d="M1100.9377,-705.4581C1034.1128,-693.4413 920.4365,-672.9996 857.4314,-661.6697"/>
<polygon fill="#191970" stroke="#191970" points="857.8584,-658.1904 847.3968,-659.8652 856.6195,-665.0799 857.8584,-658.1904"/>
</g>
<!-- Node59&#45;&gt;Node58 -->
<g id="edge150" class="edge">
<title>Node59&#45;&gt;Node58</title>
<path fill="none" stroke="#191970" d="M1151.0438,-705.2228C1144.2839,-680.9304 1129.9818,-616.5114 1153,-571 1159.4109,-558.3244 1170.5741,-548.0066 1182.1269,-540.0268"/>
<polygon fill="#191970" stroke="#191970" points="1184.0164,-542.973 1190.5457,-534.6292 1180.2383,-537.0802 1184.0164,-542.973"/>
</g>
<!-- Node59&#45;&gt;Node60 -->
<g id="edge149" class="edge">
<title>Node59&#45;&gt;Node60</title>
<path fill="none" stroke="#191970" d="M1169.9375,-705.3906C1186.4051,-695.4616 1212.3258,-679.833 1231.4204,-668.3201"/>
<polygon fill="#191970" stroke="#191970" points="1233.4178,-671.2027 1240.1744,-663.0419 1229.8034,-665.2081 1233.4178,-671.2027"/>
</g>
<!-- Node61&#45;&gt;Node55 -->
<g id="edge152" class="edge">
<title>Node61&#45;&gt;Node55</title>
<path fill="none" stroke="#191970" d="M1313.6885,-724.5303C1288.7475,-733.5052 1248.4294,-747.1868 1214.503,-758.2596"/>
<polygon fill="#191970" stroke="#191970" points="1213.0936,-755.0374 1204.6639,-761.4554 1215.256,-761.695 1213.0936,-755.0374"/>
</g>
<!-- Node62 -->
<g id="node62" class="node">
<title>Node62</title>
<g id="a_node62"><a xlink:href="../../d6/d0b/Def_2CRTP_8hpp.html" target="_top" xlink:title=" ">
<polygon fill="#ffffff" stroke="#000000" points="1348,-644 1348,-663 1430,-663 1430,-644 1348,-644"/>
<text text-anchor="middle" x="1389" y="-651" font-family="Helvetica,sans-Serif" font-size="10.00" fill="#000000">Def/CRTP.hpp</text>
</a>
</g>
</g>
<!-- Node61&#45;&gt;Node62 -->
<g id="edge153" class="edge">
<title>Node61&#45;&gt;Node62</title>
<path fill="none" stroke="#191970" d="M1345.125,-705.3906C1352.8642,-696.2376 1364.6987,-682.2409 1374.1272,-671.09"/>
<polygon fill="#191970" stroke="#191970" points="1376.9765,-673.1409 1380.7604,-663.2449 1371.6311,-668.6213 1376.9765,-673.1409"/>
</g>
</g>
</svg>
