<?xml version="1.0" encoding="UTF-8" standalone="no"?>
<!DOCTYPE svg PUBLIC "-//W3C//DTD SVG 1.1//EN"
 "http://www.w3.org/Graphics/SVG/1.1/DTD/svg11.dtd">
<!-- Generated by graphviz version 2.43.0 (0)
 -->
<!-- Title: SysCommonMessage Pages: 1 -->
<svg width="203pt" height="607pt"
 viewBox="0.00 0.00 203.00 607.00" xmlns="http://www.w3.org/2000/svg" xmlns:xlink="http://www.w3.org/1999/xlink">
<g id="graph0" class="graph" transform="scale(1 1) rotate(0) translate(4 603)">
<title>SysCommonMessage</title>
<polygon fill="white" stroke="transparent" points="-4,4 -4,-603 199,-603 199,4 -4,4"/>
<!-- Node1 -->
<g id="node1" class="node">
<title>Node1</title>
<g id="a_node1"><a xlink:title=" ">
<polygon fill="#bfbfbf" stroke="black" points="21.5,-0.5 21.5,-112.5 173.5,-112.5 173.5,-0.5 21.5,-0.5"/>
<text text-anchor="middle" x="97.5" y="-100.5" font-family="Helvetica,sans-Serif" font-size="10.00">SysCommonMessage</text>
<polyline fill="none" stroke="black" points="21.5,-93.5 173.5,-93.5 "/>
<text text-anchor="middle" x="97.5" y="-81.5" font-family="Helvetica,sans-Serif" font-size="10.00"> </text>
<polyline fill="none" stroke="black" points="21.5,-74.5 173.5,-74.5 "/>
<text text-anchor="start" x="29.5" y="-62.5" font-family="Helvetica,sans-Serif" font-size="10.00">+ SysCommonMessage()</text>
<text text-anchor="start" x="29.5" y="-51.5" font-family="Helvetica,sans-Serif" font-size="10.00">+ SysCommonMessage()</text>
<text text-anchor="start" x="29.5" y="-40.5" font-family="Helvetica,sans-Serif" font-size="10.00">+ getMessageType()</text>
<text text-anchor="start" x="29.5" y="-29.5" font-family="Helvetica,sans-Serif" font-size="10.00">+ getNumberOfDataBytes()</text>
<text text-anchor="start" x="29.5" y="-18.5" font-family="Helvetica,sans-Serif" font-size="10.00">+ MIDIMessage()</text>
<text text-anchor="start" x="29.5" y="-7.5" font-family="Helvetica,sans-Serif" font-size="10.00">+ MIDIMessage()</text>
</a>
</g>
</g>
<!-- Node2 -->
<g id="node2" class="node">
<title>Node2</title>
<g id="a_node2"><a xlink:href="../../d4/d61/structMIDIMessage.html" target="_top" xlink:title=" ">
<polygon fill="white" stroke="black" points="0,-150.5 0,-394.5 195,-394.5 195,-150.5 0,-150.5"/>
<text text-anchor="middle" x="97.5" y="-382.5" font-family="Helvetica,sans-Serif" font-size="10.00">MIDIMessage</text>
<polyline fill="none" stroke="black" points="0,-375.5 195,-375.5 "/>
<text text-anchor="start" x="8" y="-363.5" font-family="Helvetica,sans-Serif" font-size="10.00">+ header</text>
<text text-anchor="start" x="8" y="-352.5" font-family="Helvetica,sans-Serif" font-size="10.00">+ data1</text>
<text text-anchor="start" x="8" y="-341.5" font-family="Helvetica,sans-Serif" font-size="10.00">+ data2</text>
<polyline fill="none" stroke="black" points="0,-334.5 195,-334.5 "/>
<text text-anchor="start" x="8" y="-322.5" font-family="Helvetica,sans-Serif" font-size="10.00">+ MIDIMessage()</text>
<text text-anchor="start" x="8" y="-311.5" font-family="Helvetica,sans-Serif" font-size="10.00">+ MIDIMessage()</text>
<text text-anchor="start" x="8" y="-300.5" font-family="Helvetica,sans-Serif" font-size="10.00">+ operator==()</text>
<text text-anchor="start" x="8" y="-289.5" font-family="Helvetica,sans-Serif" font-size="10.00">+ operator!=()</text>
<text text-anchor="start" x="8" y="-278.5" font-family="Helvetica,sans-Serif" font-size="10.00">+ getMessageType()</text>
<text text-anchor="start" x="8" y="-267.5" font-family="Helvetica,sans-Serif" font-size="10.00">+ setMessageType()</text>
<text text-anchor="start" x="8" y="-256.5" font-family="Helvetica,sans-Serif" font-size="10.00">+ getData1()</text>
<text text-anchor="start" x="8" y="-245.5" font-family="Helvetica,sans-Serif" font-size="10.00">+ getData2()</text>
<text text-anchor="start" x="8" y="-234.5" font-family="Helvetica,sans-Serif" font-size="10.00">+ setData1()</text>
<text text-anchor="start" x="8" y="-223.5" font-family="Helvetica,sans-Serif" font-size="10.00">+ setData2()</text>
<text text-anchor="start" x="8" y="-212.5" font-family="Helvetica,sans-Serif" font-size="10.00">+ getCable()</text>
<text text-anchor="start" x="8" y="-201.5" font-family="Helvetica,sans-Serif" font-size="10.00">+ setCable()</text>
<text text-anchor="start" x="8" y="-190.5" font-family="Helvetica,sans-Serif" font-size="10.00">+ hasValidChannelMessageHeader()</text>
<text text-anchor="start" x="8" y="-179.5" font-family="Helvetica,sans-Serif" font-size="10.00">+ hasValidSystemCommonHeader()</text>
<text text-anchor="start" x="8" y="-168.5" font-family="Helvetica,sans-Serif" font-size="10.00">+ getValue14bit()</text>
<text text-anchor="start" x="8" y="-157.5" font-family="Helvetica,sans-Serif" font-size="10.00">+ sanitize()</text>
</a>
</g>
</g>
<!-- Node2&#45;&gt;Node1 -->
<g id="edge1" class="edge">
<title>Node2&#45;&gt;Node1</title>
<path fill="none" stroke="midnightblue" d="M97.5,-140.33C97.5,-130.73 97.5,-121.4 97.5,-112.67"/>
<polygon fill="none" stroke="midnightblue" points="94,-140.43 97.5,-150.43 101,-140.43 94,-140.43"/>
</g>
<!-- Node3 -->
<g id="node3" class="node">
<title>Node3</title>
<g id="a_node3"><a xlink:href="../../d2/d75/classCable.html" target="_top" xlink:title="A type&#45;safe class for MIDI USB Cable numbers.">
<polygon fill="white" stroke="black" points="46.5,-442.5 46.5,-598.5 148.5,-598.5 148.5,-442.5 46.5,-442.5"/>
<text text-anchor="middle" x="97.5" y="-586.5" font-family="Helvetica,sans-Serif" font-size="10.00">Cable</text>
<polyline fill="none" stroke="black" points="46.5,-579.5 148.5,-579.5 "/>
<text text-anchor="start" x="54.5" y="-567.5" font-family="Helvetica,sans-Serif" font-size="10.00">&#45; zeroBasedCable</text>
<polyline fill="none" stroke="black" points="46.5,-560.5 148.5,-560.5 "/>
<text text-anchor="start" x="54.5" y="-548.5" font-family="Helvetica,sans-Serif" font-size="10.00">+ Cable()</text>
<text text-anchor="start" x="54.5" y="-537.5" font-family="Helvetica,sans-Serif" font-size="10.00">+ getRaw()</text>
<text text-anchor="start" x="54.5" y="-526.5" font-family="Helvetica,sans-Serif" font-size="10.00">+ getOneBased()</text>
<text text-anchor="start" x="54.5" y="-515.5" font-family="Helvetica,sans-Serif" font-size="10.00">+ operator==()</text>
<text text-anchor="start" x="54.5" y="-504.5" font-family="Helvetica,sans-Serif" font-size="10.00">+ operator!=()</text>
<text text-anchor="start" x="54.5" y="-493.5" font-family="Helvetica,sans-Serif" font-size="10.00">+ operator+=()</text>
<text text-anchor="start" x="54.5" y="-482.5" font-family="Helvetica,sans-Serif" font-size="10.00">+ operator+()</text>
<text text-anchor="start" x="54.5" y="-471.5" font-family="Helvetica,sans-Serif" font-size="10.00">+ operator&#45;=()</text>
<text text-anchor="start" x="54.5" y="-460.5" font-family="Helvetica,sans-Serif" font-size="10.00">+ operator&#45;()</text>
<text text-anchor="start" x="54.5" y="-449.5" font-family="Helvetica,sans-Serif" font-size="10.00">+ createCable()</text>
</a>
</g>
</g>
<!-- Node3&#45;&gt;Node2 -->
<g id="edge2" class="edge">
<title>Node3&#45;&gt;Node2</title>
<path fill="none" stroke="#404040" d="M97.5,-442.34C97.5,-430.93 97.5,-418.9 97.5,-406.74"/>
<polygon fill="none" stroke="#404040" points="97.5,-406.55 93.5,-400.55 97.5,-394.55 101.5,-400.55 97.5,-406.55"/>
<text text-anchor="middle" x="116.5" y="-416" font-family="Helvetica,sans-Serif" font-size="10.00"> +cable</text>
</g>
</g>
</svg>
