<?xml version="1.0" encoding="UTF-8" standalone="no"?>
<!DOCTYPE svg PUBLIC "-//W3C//DTD SVG 1.1//EN"
 "http://www.w3.org/Graphics/SVG/1.1/DTD/svg11.dtd">
<!-- Generated by graphviz version 2.40.1 (20161225.0304)
 -->
<!-- Title: MIDIFilteredAnalog.hpp Pages: 1 -->
<svg width="506pt" height="140pt"
 viewBox="0.00 0.00 505.50 140.00" xmlns="http://www.w3.org/2000/svg" xmlns:xlink="http://www.w3.org/1999/xlink">
<g id="graph0" class="graph" transform="scale(1 1) rotate(0) translate(4 136)">
<title>MIDIFilteredAnalog.hpp</title>
<polygon fill="#ffffff" stroke="transparent" points="-4,4 -4,-136 501.5,-136 501.5,4 -4,4"/>
<!-- Node1 -->
<g id="node1" class="node">
<title>Node1</title>
<g id="a_node1"><a xlink:title=" ">
<polygon fill="#bfbfbf" stroke="#000000" points="189,-112.5 189,-131.5 308,-131.5 308,-112.5 189,-112.5"/>
<text text-anchor="middle" x="248.5" y="-119.5" font-family="Helvetica,sans-Serif" font-size="10.00" fill="#000000">MIDIFilteredAnalog.hpp</text>
</a>
</g>
</g>
<!-- Node2 -->
<g id="node2" class="node">
<title>Node2</title>
<g id="a_node2"><a xlink:href="../../d6/ddd/Bankable_2CCPotentiometer_8hpp.html" target="_top" xlink:title=" ">
<polygon fill="#ffffff" stroke="#000000" points="0,-56.5 0,-75.5 111,-75.5 111,-56.5 0,-56.5"/>
<text text-anchor="middle" x="55.5" y="-63.5" font-family="Helvetica,sans-Serif" font-size="10.00" fill="#000000">CCPotentiometer.hpp</text>
</a>
</g>
</g>
<!-- Node1&#45;&gt;Node2 -->
<g id="edge1" class="edge">
<title>Node1&#45;&gt;Node2</title>
<path fill="none" stroke="#191970" d="M205.2683,-109.4561C169.8404,-99.1765 120.463,-84.8494 88.2449,-75.5011"/>
<polygon fill="#191970" stroke="#191970" points="204.7429,-112.9479 215.3221,-112.3733 206.6936,-106.2252 204.7429,-112.9479"/>
</g>
<!-- Node4 -->
<g id="node4" class="node">
<title>Node4</title>
<g id="a_node4"><a xlink:href="../../d9/d99/Bankable_2PBPotentiometer_8hpp.html" target="_top" xlink:title=" ">
<polygon fill="#ffffff" stroke="#000000" points="129.5,-56.5 129.5,-75.5 239.5,-75.5 239.5,-56.5 129.5,-56.5"/>
<text text-anchor="middle" x="184.5" y="-63.5" font-family="Helvetica,sans-Serif" font-size="10.00" fill="#000000">PBPotentiometer.hpp</text>
</a>
</g>
</g>
<!-- Node1&#45;&gt;Node4 -->
<g id="edge3" class="edge">
<title>Node1&#45;&gt;Node4</title>
<path fill="none" stroke="#191970" d="M229.8086,-105.645C218.6781,-95.9058 204.9337,-83.8795 195.5202,-75.6427"/>
<polygon fill="#191970" stroke="#191970" points="227.5215,-108.2945 237.3521,-112.2455 232.131,-103.0264 227.5215,-108.2945"/>
</g>
<!-- Node5 -->
<g id="node5" class="node">
<title>Node5</title>
<g id="a_node5"><a xlink:href="../../d1/d82/ManyAddresses_2CCPotentiometer_8hpp.html" target="_top" xlink:title=" ">
<polygon fill="#ffffff" stroke="#000000" points="258,-56.5 258,-75.5 369,-75.5 369,-56.5 258,-56.5"/>
<text text-anchor="middle" x="313.5" y="-63.5" font-family="Helvetica,sans-Serif" font-size="10.00" fill="#000000">CCPotentiometer.hpp</text>
</a>
</g>
</g>
<!-- Node1&#45;&gt;Node5 -->
<g id="edge5" class="edge">
<title>Node1&#45;&gt;Node5</title>
<path fill="none" stroke="#191970" d="M267.4835,-105.645C278.7879,-95.9058 292.747,-83.8795 302.3076,-75.6427"/>
<polygon fill="#191970" stroke="#191970" points="265.1138,-103.0668 259.8221,-112.2455 269.6827,-108.3701 265.1138,-103.0668"/>
</g>
<!-- Node6 -->
<g id="node6" class="node">
<title>Node6</title>
<g id="a_node6"><a xlink:href="../../da/df2/ManyAddresses_2PBPotentiometer_8hpp.html" target="_top" xlink:title=" ">
<polygon fill="#ffffff" stroke="#000000" points="387.5,-56.5 387.5,-75.5 497.5,-75.5 497.5,-56.5 387.5,-56.5"/>
<text text-anchor="middle" x="442.5" y="-63.5" font-family="Helvetica,sans-Serif" font-size="10.00" fill="#000000">PBPotentiometer.hpp</text>
</a>
</g>
</g>
<!-- Node1&#45;&gt;Node6 -->
<g id="edge7" class="edge">
<title>Node1&#45;&gt;Node6</title>
<path fill="none" stroke="#191970" d="M291.498,-109.5882C327.1408,-99.2996 377.0614,-84.8895 409.5854,-75.5011"/>
<polygon fill="#191970" stroke="#191970" points="290.4868,-106.2371 281.8498,-112.3733 292.4282,-112.9625 290.4868,-106.2371"/>
</g>
<!-- Node3 -->
<g id="node3" class="node">
<title>Node3</title>
<g id="a_node3"><a xlink:href="../../db/dbf/Control__Surface_8h.html" target="_top" xlink:title="The main header file that includes all Control&#45;Surface header files.">
<polygon fill="#ffffff" stroke="#000000" points="201,-.5 201,-19.5 296,-19.5 296,-.5 201,-.5"/>
<text text-anchor="middle" x="248.5" y="-7.5" font-family="Helvetica,sans-Serif" font-size="10.00" fill="#000000">Control_Surface.h</text>
</a>
</g>
</g>
<!-- Node2&#45;&gt;Node3 -->
<g id="edge2" class="edge">
<title>Node2&#45;&gt;Node3</title>
<path fill="none" stroke="#191970" d="M98.7317,-53.4561C134.1596,-43.1765 183.537,-28.8494 215.7551,-19.5011"/>
<polygon fill="#191970" stroke="#191970" points="97.3064,-50.2252 88.6779,-56.3733 99.2571,-56.9479 97.3064,-50.2252"/>
</g>
<!-- Node4&#45;&gt;Node3 -->
<g id="edge4" class="edge">
<title>Node4&#45;&gt;Node3</title>
<path fill="none" stroke="#191970" d="M203.1914,-49.645C214.3219,-39.9058 228.0663,-27.8795 237.4798,-19.6427"/>
<polygon fill="#191970" stroke="#191970" points="200.869,-47.0264 195.6479,-56.2455 205.4785,-52.2945 200.869,-47.0264"/>
</g>
<!-- Node5&#45;&gt;Node3 -->
<g id="edge6" class="edge">
<title>Node5&#45;&gt;Node3</title>
<path fill="none" stroke="#191970" d="M294.5165,-49.645C283.2121,-39.9058 269.253,-27.8795 259.6924,-19.6427"/>
<polygon fill="#191970" stroke="#191970" points="292.3173,-52.3701 302.1779,-56.2455 296.8862,-47.0668 292.3173,-52.3701"/>
</g>
<!-- Node6&#45;&gt;Node3 -->
<g id="edge8" class="edge">
<title>Node6&#45;&gt;Node3</title>
<path fill="none" stroke="#191970" d="M399.502,-53.5882C363.8592,-43.2996 313.9386,-28.8895 281.4146,-19.5011"/>
<polygon fill="#191970" stroke="#191970" points="398.5718,-56.9625 409.1502,-56.3733 400.5132,-50.2371 398.5718,-56.9625"/>
</g>
</g>
</svg>
