<?xml version="1.0" encoding="UTF-8" standalone="no"?>
<!DOCTYPE svg PUBLIC "-//W3C//DTD SVG 1.1//EN"
 "http://www.w3.org/Graphics/SVG/1.1/DTD/svg11.dtd">
<!-- Generated by graphviz version 2.43.0 (0)
 -->
<!-- Title: VULEDs&lt; BankSize, NumLEDs &gt; Pages: 1 -->
<svg width="1033pt" height="1643pt"
 viewBox="0.00 0.00 1033.00 1643.00" xmlns="http://www.w3.org/2000/svg" xmlns:xlink="http://www.w3.org/1999/xlink">
<g id="graph0" class="graph" transform="scale(1 1) rotate(0) translate(4 1639)">
<title>VULEDs&lt; BankSize, NumLEDs &gt;</title>
<polygon fill="white" stroke="transparent" points="-4,4 -4,-1639 1029,-1639 1029,4 -4,4"/>
<!-- Node1 -->
<g id="node1" class="node">
<title>Node1</title>
<g id="a_node1"><a xlink:title="A MIDI input element that represents a Mackie Control Universal VU meter and displays its value using...">
<polygon fill="#bfbfbf" stroke="black" points="675,-0.5 675,-134.5 851,-134.5 851,-0.5 675,-0.5"/>
<text text-anchor="middle" x="763" y="-122.5" font-family="Helvetica,sans-Serif" font-size="10.00">VULEDs&lt; BankSize, NumLEDs &gt;</text>
<polyline fill="none" stroke="black" points="675,-115.5 851,-115.5 "/>
<text text-anchor="middle" x="763" y="-103.5" font-family="Helvetica,sans-Serif" font-size="10.00"> </text>
<polyline fill="none" stroke="black" points="675,-96.5 851,-96.5 "/>
<text text-anchor="start" x="683" y="-84.5" font-family="Helvetica,sans-Serif" font-size="10.00">+ VULEDs()</text>
<text text-anchor="start" x="683" y="-73.5" font-family="Helvetica,sans-Serif" font-size="10.00">+ VULEDs()</text>
<text text-anchor="start" x="683" y="-62.5" font-family="Helvetica,sans-Serif" font-size="10.00">+ begin()</text>
<text text-anchor="start" x="683" y="-51.5" font-family="Helvetica,sans-Serif" font-size="10.00">+ reset()</text>
<text text-anchor="start" x="683" y="-40.5" font-family="Helvetica,sans-Serif" font-size="10.00">+ update()</text>
<text text-anchor="start" x="683" y="-29.5" font-family="Helvetica,sans-Serif" font-size="10.00"># handleUpdate()</text>
<text text-anchor="start" x="683" y="-18.5" font-family="Helvetica,sans-Serif" font-size="10.00"># updateDisplay()</text>
<text text-anchor="start" x="683" y="-7.5" font-family="Helvetica,sans-Serif" font-size="10.00"># onBankSettingChange()</text>
</a>
</g>
</g>
<!-- Node2 -->
<g id="node2" class="node">
<title>Node2</title>
<g id="a_node2"><a xlink:href="../../d0/d43/classMCU_1_1Bankable_1_1VU.html" target="_top" xlink:title="A MIDI input element that represents a Mackie Control Universal VU meter.">
<polygon fill="white" stroke="black" points="608.5,-172.5 608.5,-372.5 751.5,-372.5 751.5,-172.5 608.5,-172.5"/>
<text text-anchor="middle" x="680" y="-360.5" font-family="Helvetica,sans-Serif" font-size="10.00">VU&lt; BankSize &gt;</text>
<polyline fill="none" stroke="black" points="608.5,-353.5 751.5,-353.5 "/>
<text text-anchor="middle" x="680" y="-341.5" font-family="Helvetica,sans-Serif" font-size="10.00"> </text>
<polyline fill="none" stroke="black" points="608.5,-334.5 751.5,-334.5 "/>
<text text-anchor="start" x="616.5" y="-322.5" font-family="Helvetica,sans-Serif" font-size="10.00">+ VU()</text>
<text text-anchor="start" x="616.5" y="-311.5" font-family="Helvetica,sans-Serif" font-size="10.00">+ VU()</text>
<text text-anchor="start" x="616.5" y="-300.5" font-family="Helvetica,sans-Serif" font-size="10.00">+ reset()</text>
<text text-anchor="start" x="616.5" y="-289.5" font-family="Helvetica,sans-Serif" font-size="10.00">+ update()</text>
<text text-anchor="start" x="616.5" y="-278.5" font-family="Helvetica,sans-Serif" font-size="10.00"># handleUpdateImpl()</text>
<text text-anchor="start" x="616.5" y="-267.5" font-family="Helvetica,sans-Serif" font-size="10.00"># handleUpdate()</text>
<text text-anchor="start" x="616.5" y="-256.5" font-family="Helvetica,sans-Serif" font-size="10.00"># decay()</text>
<text text-anchor="start" x="616.5" y="-245.5" font-family="Helvetica,sans-Serif" font-size="10.00"># onBankSettingChange()</text>
<text text-anchor="start" x="616.5" y="-234.5" font-family="Helvetica,sans-Serif" font-size="10.00">* getValue()</text>
<text text-anchor="start" x="616.5" y="-223.5" font-family="Helvetica,sans-Serif" font-size="10.00">* getOverload()</text>
<text text-anchor="start" x="616.5" y="-212.5" font-family="Helvetica,sans-Serif" font-size="10.00">* getFloatValue()</text>
<text text-anchor="start" x="616.5" y="-201.5" font-family="Helvetica,sans-Serif" font-size="10.00">* getValue()</text>
<text text-anchor="start" x="616.5" y="-190.5" font-family="Helvetica,sans-Serif" font-size="10.00">* getOverload()</text>
<text text-anchor="start" x="616.5" y="-179.5" font-family="Helvetica,sans-Serif" font-size="10.00">* getFloatValue()</text>
</a>
</g>
</g>
<!-- Node2&#45;&gt;Node1 -->
<g id="edge1" class="edge">
<title>Node2&#45;&gt;Node1</title>
<path fill="none" stroke="midnightblue" d="M724.32,-163.09C728.28,-153.43 732.2,-143.84 735.94,-134.69"/>
<polygon fill="none" stroke="midnightblue" points="721.07,-161.8 720.53,-172.38 727.55,-164.45 721.07,-161.8"/>
</g>
<!-- Node3 -->
<g id="node3" class="node">
<title>Node3</title>
<g id="a_node3"><a xlink:href="../../d9/dc0/classBankableMatchingMIDIInputElement.html" target="_top" xlink:title=" ">
<polygon fill="white" stroke="black" points="87.5,-442.5 87.5,-576.5 296.5,-576.5 296.5,-442.5 87.5,-442.5"/>
<text text-anchor="start" x="95.5" y="-564.5" font-family="Helvetica,sans-Serif" font-size="10.00">BankableMatchingMIDIInput</text>
<text text-anchor="start" x="95.5" y="-553.5" font-family="Helvetica,sans-Serif" font-size="10.00">Element&lt; MIDIMessageType</text>
<text text-anchor="start" x="95.5" y="-542.5" font-family="Helvetica,sans-Serif" font-size="10.00">::ChannelPressure, BankableVUMatcher</text>
<text text-anchor="middle" x="192" y="-531.5" font-family="Helvetica,sans-Serif" font-size="10.00">&lt; BankSize &gt; &gt;</text>
<polyline fill="none" stroke="black" points="87.5,-524.5 296.5,-524.5 "/>
<text text-anchor="middle" x="192" y="-512.5" font-family="Helvetica,sans-Serif" font-size="10.00"> </text>
<polyline fill="none" stroke="black" points="87.5,-505.5 296.5,-505.5 "/>
<text text-anchor="start" x="95.5" y="-493.5" font-family="Helvetica,sans-Serif" font-size="10.00">+ ~BankableMatchingMIDIInput</text>
<text text-anchor="start" x="95.5" y="-482.5" font-family="Helvetica,sans-Serif" font-size="10.00">Element()</text>
<text text-anchor="start" x="95.5" y="-471.5" font-family="Helvetica,sans-Serif" font-size="10.00"># BankableMatchingMIDIInput</text>
<text text-anchor="start" x="95.5" y="-460.5" font-family="Helvetica,sans-Serif" font-size="10.00">Element()</text>
<text text-anchor="start" x="95.5" y="-449.5" font-family="Helvetica,sans-Serif" font-size="10.00"># getActiveBank()</text>
</a>
</g>
</g>
<!-- Node3&#45;&gt;Node2 -->
<g id="edge2" class="edge">
<title>Node3&#45;&gt;Node2</title>
<path fill="none" stroke="midnightblue" d="M279.56,-436.62C288.27,-430.67 297.17,-425.02 306,-420 405.43,-363.5 530.96,-319.27 608.34,-294.77"/>
<polygon fill="none" stroke="midnightblue" points="277.46,-433.82 271.27,-442.41 281.47,-439.56 277.46,-433.82"/>
</g>
<!-- Node4 -->
<g id="node4" class="node">
<title>Node4</title>
<g id="a_node4"><a xlink:href="../../d5/dae/classMatchingMIDIInputElement.html" target="_top" xlink:title=" ">
<polygon fill="white" stroke="black" points="77,-668.5 77,-769.5 245,-769.5 245,-668.5 77,-668.5"/>
<text text-anchor="start" x="85" y="-757.5" font-family="Helvetica,sans-Serif" font-size="10.00">MatchingMIDIInputElement</text>
<text text-anchor="start" x="85" y="-746.5" font-family="Helvetica,sans-Serif" font-size="10.00">&lt; Type, BankableVUMatcher</text>
<text text-anchor="middle" x="161" y="-735.5" font-family="Helvetica,sans-Serif" font-size="10.00">&lt; BankSize &gt; &gt;</text>
<polyline fill="none" stroke="black" points="77,-728.5 245,-728.5 "/>
<text text-anchor="start" x="85" y="-716.5" font-family="Helvetica,sans-Serif" font-size="10.00"># matcher</text>
<polyline fill="none" stroke="black" points="77,-709.5 245,-709.5 "/>
<text text-anchor="start" x="85" y="-697.5" font-family="Helvetica,sans-Serif" font-size="10.00">+ updateWith()</text>
<text text-anchor="start" x="85" y="-686.5" font-family="Helvetica,sans-Serif" font-size="10.00">+ handleUpdate()</text>
<text text-anchor="start" x="85" y="-675.5" font-family="Helvetica,sans-Serif" font-size="10.00"># MatchingMIDIInputElement()</text>
</a>
</g>
</g>
<!-- Node4&#45;&gt;Node3 -->
<g id="edge3" class="edge">
<title>Node4&#45;&gt;Node3</title>
<path fill="none" stroke="midnightblue" d="M169.91,-658.38C173.72,-632.83 178.2,-602.9 182.11,-576.67"/>
<polygon fill="none" stroke="midnightblue" points="166.44,-657.89 168.43,-668.3 173.36,-658.93 166.44,-657.89"/>
</g>
<!-- Node5 -->
<g id="node5" class="node">
<title>Node5</title>
<g id="a_node5"><a xlink:href="../../d9/db1/classMIDIInputElement.html" target="_top" xlink:title="A class for objects that listen for incoming MIDI events.">
<polygon fill="white" stroke="black" points="86.5,-834 86.5,-990 235.5,-990 235.5,-834 86.5,-834"/>
<text text-anchor="middle" x="161" y="-978" font-family="Helvetica,sans-Serif" font-size="10.00">MIDIInputElement&lt; Type &gt;</text>
<polyline fill="none" stroke="black" points="86.5,-971 235.5,-971 "/>
<text text-anchor="middle" x="161" y="-959" font-family="Helvetica,sans-Serif" font-size="10.00"> </text>
<polyline fill="none" stroke="black" points="86.5,-952 235.5,-952 "/>
<text text-anchor="start" x="94.5" y="-940" font-family="Helvetica,sans-Serif" font-size="10.00">+ ~MIDIInputElement()</text>
<text text-anchor="start" x="94.5" y="-929" font-family="Helvetica,sans-Serif" font-size="10.00">+ begin()</text>
<text text-anchor="start" x="94.5" y="-918" font-family="Helvetica,sans-Serif" font-size="10.00">+ reset()</text>
<text text-anchor="start" x="94.5" y="-907" font-family="Helvetica,sans-Serif" font-size="10.00">+ update()</text>
<text text-anchor="start" x="94.5" y="-896" font-family="Helvetica,sans-Serif" font-size="10.00">+ updateWith()</text>
<text text-anchor="start" x="94.5" y="-885" font-family="Helvetica,sans-Serif" font-size="10.00">+ updateAllWith()</text>
<text text-anchor="start" x="94.5" y="-874" font-family="Helvetica,sans-Serif" font-size="10.00">+ updateAll()</text>
<text text-anchor="start" x="94.5" y="-863" font-family="Helvetica,sans-Serif" font-size="10.00">+ beginAll()</text>
<text text-anchor="start" x="94.5" y="-852" font-family="Helvetica,sans-Serif" font-size="10.00">+ resetAll()</text>
<text text-anchor="start" x="94.5" y="-841" font-family="Helvetica,sans-Serif" font-size="10.00"># MIDIInputElement()</text>
</a>
</g>
</g>
<!-- Node5&#45;&gt;Node4 -->
<g id="edge4" class="edge">
<title>Node5&#45;&gt;Node4</title>
<path fill="none" stroke="midnightblue" d="M161,-823.64C161,-805.14 161,-786.22 161,-769.7"/>
<polygon fill="none" stroke="midnightblue" points="157.5,-823.86 161,-833.86 164.5,-823.86 157.5,-823.86"/>
</g>
<!-- Node6 -->
<g id="node6" class="node">
<title>Node6</title>
<g id="a_node6"><a xlink:href="../../d8/d1a/classAH_1_1UpdatableCRTP.html" target="_top" xlink:title=" ">
<polygon fill="white" stroke="black" points="86,-1043.5 86,-1276.5 236,-1276.5 236,-1043.5 86,-1043.5"/>
<text text-anchor="start" x="94" y="-1264.5" font-family="Helvetica,sans-Serif" font-size="10.00">UpdatableCRTP&lt; MIDIInput</text>
<text text-anchor="middle" x="161" y="-1253.5" font-family="Helvetica,sans-Serif" font-size="10.00">Element&lt; Type &gt; &gt;</text>
<polyline fill="none" stroke="black" points="86,-1246.5 236,-1246.5 "/>
<text text-anchor="middle" x="161" y="-1234.5" font-family="Helvetica,sans-Serif" font-size="10.00"> </text>
<polyline fill="none" stroke="black" points="86,-1227.5 236,-1227.5 "/>
<text text-anchor="start" x="94" y="-1215.5" font-family="Helvetica,sans-Serif" font-size="10.00">+ ~UpdatableCRTP()</text>
<text text-anchor="start" x="94" y="-1204.5" font-family="Helvetica,sans-Serif" font-size="10.00"># UpdatableCRTP()</text>
<text text-anchor="start" x="94" y="-1193.5" font-family="Helvetica,sans-Serif" font-size="10.00"># UpdatableCRTP()</text>
<text text-anchor="start" x="94" y="-1182.5" font-family="Helvetica,sans-Serif" font-size="10.00"># UpdatableCRTP()</text>
<text text-anchor="start" x="94" y="-1171.5" font-family="Helvetica,sans-Serif" font-size="10.00"># operator=()</text>
<text text-anchor="start" x="94" y="-1160.5" font-family="Helvetica,sans-Serif" font-size="10.00"># operator=()</text>
<text text-anchor="start" x="94" y="-1149.5" font-family="Helvetica,sans-Serif" font-size="10.00">* enable()</text>
<text text-anchor="start" x="94" y="-1138.5" font-family="Helvetica,sans-Serif" font-size="10.00">* disable()</text>
<text text-anchor="start" x="94" y="-1127.5" font-family="Helvetica,sans-Serif" font-size="10.00">* isEnabled()</text>
<text text-anchor="start" x="94" y="-1116.5" font-family="Helvetica,sans-Serif" font-size="10.00">* moveDown()</text>
<text text-anchor="start" x="94" y="-1105.5" font-family="Helvetica,sans-Serif" font-size="10.00">* enable()</text>
<text text-anchor="start" x="94" y="-1094.5" font-family="Helvetica,sans-Serif" font-size="10.00">* enable()</text>
<text text-anchor="start" x="94" y="-1083.5" font-family="Helvetica,sans-Serif" font-size="10.00">* enable()</text>
<text text-anchor="start" x="94" y="-1072.5" font-family="Helvetica,sans-Serif" font-size="10.00">* disable()</text>
<text text-anchor="start" x="94" y="-1061.5" font-family="Helvetica,sans-Serif" font-size="10.00">* disable()</text>
<text text-anchor="start" x="94" y="-1050.5" font-family="Helvetica,sans-Serif" font-size="10.00">* disable()</text>
</a>
</g>
</g>
<!-- Node6&#45;&gt;Node5 -->
<g id="edge5" class="edge">
<title>Node6&#45;&gt;Node5</title>
<path fill="none" stroke="midnightblue" d="M161,-1033.1C161,-1018.5 161,-1003.95 161,-990.29"/>
<polygon fill="none" stroke="midnightblue" points="157.5,-1033.2 161,-1043.2 164.5,-1033.2 157.5,-1033.2"/>
</g>
<!-- Node7 -->
<g id="node7" class="node">
<title>Node7</title>
<g id="a_node7"><a xlink:href="../../d4/d23/classDoublyLinkable.html" target="_top" xlink:title=" ">
<polygon fill="white" stroke="black" points="0,-1412.5 0,-1546.5 150,-1546.5 150,-1412.5 0,-1412.5"/>
<text text-anchor="start" x="8" y="-1534.5" font-family="Helvetica,sans-Serif" font-size="10.00">DoublyLinkable&lt; MIDIInput</text>
<text text-anchor="middle" x="75" y="-1523.5" font-family="Helvetica,sans-Serif" font-size="10.00">Element&lt; Type &gt; &gt;</text>
<polyline fill="none" stroke="black" points="0,-1516.5 150,-1516.5 "/>
<text text-anchor="start" x="8" y="-1504.5" font-family="Helvetica,sans-Serif" font-size="10.00"># next</text>
<text text-anchor="start" x="8" y="-1493.5" font-family="Helvetica,sans-Serif" font-size="10.00"># previous</text>
<polyline fill="none" stroke="black" points="0,-1486.5 150,-1486.5 "/>
<text text-anchor="start" x="8" y="-1474.5" font-family="Helvetica,sans-Serif" font-size="10.00"># ~DoublyLinkable()</text>
<text text-anchor="start" x="8" y="-1463.5" font-family="Helvetica,sans-Serif" font-size="10.00"># DoublyLinkable()</text>
<text text-anchor="start" x="8" y="-1452.5" font-family="Helvetica,sans-Serif" font-size="10.00"># DoublyLinkable()</text>
<text text-anchor="start" x="8" y="-1441.5" font-family="Helvetica,sans-Serif" font-size="10.00"># DoublyLinkable()</text>
<text text-anchor="start" x="8" y="-1430.5" font-family="Helvetica,sans-Serif" font-size="10.00"># operator=()</text>
<text text-anchor="start" x="8" y="-1419.5" font-family="Helvetica,sans-Serif" font-size="10.00"># operator=()</text>
</a>
</g>
</g>
<!-- Node7&#45;&gt;Node6 -->
<g id="edge6" class="edge">
<title>Node7&#45;&gt;Node6</title>
<path fill="none" stroke="midnightblue" d="M95.6,-1402.44C105.81,-1364.76 118.35,-1318.46 129.71,-1276.52"/>
<polygon fill="none" stroke="midnightblue" points="92.16,-1401.76 92.92,-1412.33 98.92,-1403.59 92.16,-1401.76"/>
</g>
<!-- Node8 -->
<g id="node8" class="node">
<title>Node8</title>
<g id="a_node8"><a xlink:href="../../dd/d16/classDoublyLinkedList.html" target="_top" xlink:title=" ">
<polygon fill="white" stroke="black" points="168,-1324.5 168,-1634.5 326,-1634.5 326,-1324.5 168,-1324.5"/>
<text text-anchor="start" x="176" y="-1622.5" font-family="Helvetica,sans-Serif" font-size="10.00">DoublyLinkedList&lt; MIDIInput</text>
<text text-anchor="middle" x="247" y="-1611.5" font-family="Helvetica,sans-Serif" font-size="10.00">Element&lt; Type &gt; &gt;</text>
<polyline fill="none" stroke="black" points="168,-1604.5 326,-1604.5 "/>
<text text-anchor="start" x="176" y="-1592.5" font-family="Helvetica,sans-Serif" font-size="10.00">&#45; first</text>
<text text-anchor="start" x="176" y="-1581.5" font-family="Helvetica,sans-Serif" font-size="10.00">&#45; last</text>
<polyline fill="none" stroke="black" points="168,-1574.5 326,-1574.5 "/>
<text text-anchor="start" x="176" y="-1562.5" font-family="Helvetica,sans-Serif" font-size="10.00">+ append()</text>
<text text-anchor="start" x="176" y="-1551.5" font-family="Helvetica,sans-Serif" font-size="10.00">+ append()</text>
<text text-anchor="start" x="176" y="-1540.5" font-family="Helvetica,sans-Serif" font-size="10.00">+ insertBefore()</text>
<text text-anchor="start" x="176" y="-1529.5" font-family="Helvetica,sans-Serif" font-size="10.00">+ insertBefore()</text>
<text text-anchor="start" x="176" y="-1518.5" font-family="Helvetica,sans-Serif" font-size="10.00">+ insertSorted()</text>
<text text-anchor="start" x="176" y="-1507.5" font-family="Helvetica,sans-Serif" font-size="10.00">+ insertSorted()</text>
<text text-anchor="start" x="176" y="-1496.5" font-family="Helvetica,sans-Serif" font-size="10.00">+ remove()</text>
<text text-anchor="start" x="176" y="-1485.5" font-family="Helvetica,sans-Serif" font-size="10.00">+ remove()</text>
<text text-anchor="start" x="176" y="-1474.5" font-family="Helvetica,sans-Serif" font-size="10.00">+ moveDown()</text>
<text text-anchor="start" x="176" y="-1463.5" font-family="Helvetica,sans-Serif" font-size="10.00">+ moveDown()</text>
<text text-anchor="start" x="176" y="-1452.5" font-family="Helvetica,sans-Serif" font-size="10.00">+ couldContain()</text>
<text text-anchor="start" x="176" y="-1441.5" font-family="Helvetica,sans-Serif" font-size="10.00">+ couldContain()</text>
<text text-anchor="start" x="176" y="-1430.5" font-family="Helvetica,sans-Serif" font-size="10.00">+ begin()</text>
<text text-anchor="start" x="176" y="-1419.5" font-family="Helvetica,sans-Serif" font-size="10.00">+ begin()</text>
<text text-anchor="start" x="176" y="-1408.5" font-family="Helvetica,sans-Serif" font-size="10.00">+ end()</text>
<text text-anchor="start" x="176" y="-1397.5" font-family="Helvetica,sans-Serif" font-size="10.00">+ end()</text>
<text text-anchor="start" x="176" y="-1386.5" font-family="Helvetica,sans-Serif" font-size="10.00">+ rbegin()</text>
<text text-anchor="start" x="176" y="-1375.5" font-family="Helvetica,sans-Serif" font-size="10.00">+ rbegin()</text>
<text text-anchor="start" x="176" y="-1364.5" font-family="Helvetica,sans-Serif" font-size="10.00">+ rend()</text>
<text text-anchor="start" x="176" y="-1353.5" font-family="Helvetica,sans-Serif" font-size="10.00">+ rend()</text>
<text text-anchor="start" x="176" y="-1342.5" font-family="Helvetica,sans-Serif" font-size="10.00">+ getFirst()</text>
<text text-anchor="start" x="176" y="-1331.5" font-family="Helvetica,sans-Serif" font-size="10.00">+ getLast()</text>
</a>
</g>
</g>
<!-- Node8&#45;&gt;Node6 -->
<g id="edge7" class="edge">
<title>Node8&#45;&gt;Node6</title>
<path fill="none" stroke="#404040" d="M205.26,-1324.4C201.99,-1312.31 198.7,-1300.19 195.48,-1288.31"/>
<polygon fill="none" stroke="#404040" points="195.43,-1288.11 190,-1283.36 192.29,-1276.53 197.72,-1281.27 195.43,-1288.11"/>
<text text-anchor="middle" x="232" y="-1298" font-family="Helvetica,sans-Serif" font-size="10.00"> #updatables</text>
</g>
<!-- Node9 -->
<g id="node9" class="node">
<title>Node9</title>
<g id="a_node9"><a xlink:href="../../d2/dbf/classBankSettingChangeCallback.html" target="_top" xlink:title="Callback class for Bankable objects that need to be notified when the active setting of their Bank ch...">
<polygon fill="white" stroke="black" points="263.5,-690.5 263.5,-747.5 418.5,-747.5 418.5,-690.5 263.5,-690.5"/>
<text text-anchor="middle" x="341" y="-735.5" font-family="Helvetica,sans-Serif" font-size="10.00">BankSettingChangeCallback</text>
<polyline fill="none" stroke="black" points="263.5,-728.5 418.5,-728.5 "/>
<text text-anchor="middle" x="341" y="-716.5" font-family="Helvetica,sans-Serif" font-size="10.00"> </text>
<polyline fill="none" stroke="black" points="263.5,-709.5 418.5,-709.5 "/>
<text text-anchor="start" x="271.5" y="-697.5" font-family="Helvetica,sans-Serif" font-size="10.00">&#45; onBankSettingChange()</text>
</a>
</g>
</g>
<!-- Node9&#45;&gt;Node3 -->
<g id="edge8" class="edge">
<title>Node9&#45;&gt;Node3</title>
<path fill="none" stroke="midnightblue" d="M315.33,-682.25C294.53,-653.28 264.64,-611.66 239.5,-576.65"/>
<polygon fill="none" stroke="midnightblue" points="312.54,-684.36 321.21,-690.45 318.22,-680.28 312.54,-684.36"/>
</g>
<!-- Node10 -->
<g id="node10" class="node">
<title>Node10</title>
<g id="a_node10"><a xlink:href="../../d4/d23/classDoublyLinkable.html" target="_top" xlink:title=" ">
<polygon fill="white" stroke="black" points="315,-448 315,-571 477,-571 477,-448 315,-448"/>
<text text-anchor="start" x="323" y="-559" font-family="Helvetica,sans-Serif" font-size="10.00">DoublyLinkable&lt; BankSetting</text>
<text text-anchor="middle" x="396" y="-548" font-family="Helvetica,sans-Serif" font-size="10.00">ChangeCallback &gt;</text>
<polyline fill="none" stroke="black" points="315,-541 477,-541 "/>
<text text-anchor="middle" x="396" y="-529" font-family="Helvetica,sans-Serif" font-size="10.00"> </text>
<polyline fill="none" stroke="black" points="315,-522 477,-522 "/>
<text text-anchor="start" x="323" y="-510" font-family="Helvetica,sans-Serif" font-size="10.00"># ~DoublyLinkable()</text>
<text text-anchor="start" x="323" y="-499" font-family="Helvetica,sans-Serif" font-size="10.00"># DoublyLinkable()</text>
<text text-anchor="start" x="323" y="-488" font-family="Helvetica,sans-Serif" font-size="10.00"># DoublyLinkable()</text>
<text text-anchor="start" x="323" y="-477" font-family="Helvetica,sans-Serif" font-size="10.00"># DoublyLinkable()</text>
<text text-anchor="start" x="323" y="-466" font-family="Helvetica,sans-Serif" font-size="10.00"># operator=()</text>
<text text-anchor="start" x="323" y="-455" font-family="Helvetica,sans-Serif" font-size="10.00"># operator=()</text>
</a>
</g>
</g>
<!-- Node9&#45;&gt;Node10 -->
<g id="edge10" class="edge">
<title>Node9&#45;&gt;Node10</title>
<path fill="none" stroke="#404040" d="M333.26,-690.08C328.82,-669.53 325.32,-641.09 332,-617 335.3,-605.11 340.32,-593.21 346.13,-581.91"/>
<polygon fill="none" stroke="#404040" points="346.18,-581.81 345.53,-574.63 351.91,-571.27 352.56,-578.45 346.18,-581.81"/>
<text text-anchor="middle" x="357.5" y="-631" font-family="Helvetica,sans-Serif" font-size="10.00"> #next</text>
<text text-anchor="middle" x="357.5" y="-620" font-family="Helvetica,sans-Serif" font-size="10.00">#previous</text>
</g>
<!-- Node10&#45;&gt;Node9 -->
<g id="edge9" class="edge">
<title>Node10&#45;&gt;Node9</title>
<path fill="none" stroke="midnightblue" d="M396.83,-581.18C395.5,-600.27 392.63,-620.7 387,-639 381.4,-657.2 370.94,-675.7 361.41,-690.21"/>
<polygon fill="none" stroke="midnightblue" points="400.34,-581.22 397.41,-571.04 393.35,-580.82 400.34,-581.22"/>
</g>
<!-- Node11 -->
<g id="node11" class="node">
<title>Node11</title>
<g id="a_node11"><a xlink:href="../../dc/d25/classInterfaces_1_1MCU_1_1IVU.html" target="_top" xlink:title="An abstract interface for VU meters.">
<polygon fill="white" stroke="black" points="495.5,-437 495.5,-582 598.5,-582 598.5,-437 495.5,-437"/>
<text text-anchor="middle" x="547" y="-570" font-family="Helvetica,sans-Serif" font-size="10.00">IVU</text>
<polyline fill="none" stroke="black" points="495.5,-563 598.5,-563 "/>
<text text-anchor="start" x="503.5" y="-551" font-family="Helvetica,sans-Serif" font-size="10.00"># max</text>
<text text-anchor="start" x="503.5" y="-540" font-family="Helvetica,sans-Serif" font-size="10.00"># alwaysDirty</text>
<text text-anchor="start" x="503.5" y="-529" font-family="Helvetica,sans-Serif" font-size="10.00"># dirty</text>
<polyline fill="none" stroke="black" points="495.5,-522 598.5,-522 "/>
<text text-anchor="start" x="503.5" y="-510" font-family="Helvetica,sans-Serif" font-size="10.00">+ IVU()</text>
<text text-anchor="start" x="503.5" y="-499" font-family="Helvetica,sans-Serif" font-size="10.00">+ getValue()</text>
<text text-anchor="start" x="503.5" y="-488" font-family="Helvetica,sans-Serif" font-size="10.00">+ getOverload()</text>
<text text-anchor="start" x="503.5" y="-477" font-family="Helvetica,sans-Serif" font-size="10.00">+ getFloatValue()</text>
<text text-anchor="start" x="503.5" y="-466" font-family="Helvetica,sans-Serif" font-size="10.00">+ getMax()</text>
<text text-anchor="start" x="503.5" y="-455" font-family="Helvetica,sans-Serif" font-size="10.00">* getDirty()</text>
<text text-anchor="start" x="503.5" y="-444" font-family="Helvetica,sans-Serif" font-size="10.00">* clearDirty()</text>
</a>
</g>
</g>
<!-- Node11&#45;&gt;Node2 -->
<g id="edge11" class="edge">
<title>Node11&#45;&gt;Node2</title>
<path fill="none" stroke="midnightblue" d="M592.8,-427.57C602.84,-409.84 613.57,-390.88 623.95,-372.53"/>
<polygon fill="none" stroke="midnightblue" points="589.51,-426.29 587.63,-436.72 595.6,-429.74 589.51,-426.29"/>
</g>
<!-- Node12 -->
<g id="node12" class="node">
<title>Node12</title>
<g id="a_node12"><a xlink:href="../../d0/d32/structAH_1_1Array.html" target="_top" xlink:title=" ">
<polygon fill="white" stroke="black" points="617,-420.5 617,-598.5 743,-598.5 743,-420.5 617,-420.5"/>
<text text-anchor="start" x="625" y="-586.5" font-family="Helvetica,sans-Serif" font-size="10.00">Array&lt; MCU::VUState,</text>
<text text-anchor="middle" x="680" y="-575.5" font-family="Helvetica,sans-Serif" font-size="10.00"> BankSize &gt;</text>
<polyline fill="none" stroke="black" points="617,-568.5 743,-568.5 "/>
<text text-anchor="start" x="625" y="-556.5" font-family="Helvetica,sans-Serif" font-size="10.00">+ length</text>
<polyline fill="none" stroke="black" points="617,-549.5 743,-549.5 "/>
<text text-anchor="start" x="625" y="-537.5" font-family="Helvetica,sans-Serif" font-size="10.00">+ operator[]()</text>
<text text-anchor="start" x="625" y="-526.5" font-family="Helvetica,sans-Serif" font-size="10.00">+ operator[]()</text>
<text text-anchor="start" x="625" y="-515.5" font-family="Helvetica,sans-Serif" font-size="10.00">+ begin()</text>
<text text-anchor="start" x="625" y="-504.5" font-family="Helvetica,sans-Serif" font-size="10.00">+ begin()</text>
<text text-anchor="start" x="625" y="-493.5" font-family="Helvetica,sans-Serif" font-size="10.00">+ end()</text>
<text text-anchor="start" x="625" y="-482.5" font-family="Helvetica,sans-Serif" font-size="10.00">+ end()</text>
<text text-anchor="start" x="625" y="-471.5" font-family="Helvetica,sans-Serif" font-size="10.00">+ operator==()</text>
<text text-anchor="start" x="625" y="-460.5" font-family="Helvetica,sans-Serif" font-size="10.00">+ operator!=()</text>
<text text-anchor="start" x="625" y="-449.5" font-family="Helvetica,sans-Serif" font-size="10.00">+ slice()</text>
<text text-anchor="start" x="625" y="-438.5" font-family="Helvetica,sans-Serif" font-size="10.00">+ slice()</text>
<text text-anchor="start" x="625" y="-427.5" font-family="Helvetica,sans-Serif" font-size="10.00">+ cslice()</text>
</a>
</g>
</g>
<!-- Node12&#45;&gt;Node2 -->
<g id="edge12" class="edge">
<title>Node12&#45;&gt;Node2</title>
<path fill="none" stroke="#404040" d="M680,-420.33C680,-408.82 680,-396.92 680,-385.1"/>
<polygon fill="none" stroke="#404040" points="680,-384.82 676,-378.82 680,-372.82 684,-378.82 680,-384.82"/>
<text text-anchor="middle" x="698.5" y="-394" font-family="Helvetica,sans-Serif" font-size="10.00"> &#45;states</text>
</g>
<!-- Node13 -->
<g id="node13" class="node">
<title>Node13</title>
<g id="a_node13"><a xlink:href="../../dc/d11/structMCU_1_1VUState.html" target="_top" xlink:title="Struct that keeps track of the value and overload indicator of a Mackie Control Universal VU meter.">
<polygon fill="white" stroke="black" points="642.5,-674 642.5,-764 717.5,-764 717.5,-674 642.5,-674"/>
<text text-anchor="middle" x="680" y="-752" font-family="Helvetica,sans-Serif" font-size="10.00">VUState</text>
<polyline fill="none" stroke="black" points="642.5,-745 717.5,-745 "/>
<text text-anchor="start" x="650.5" y="-733" font-family="Helvetica,sans-Serif" font-size="10.00">+ value</text>
<text text-anchor="start" x="650.5" y="-722" font-family="Helvetica,sans-Serif" font-size="10.00">+ overload</text>
<polyline fill="none" stroke="black" points="642.5,-715 717.5,-715 "/>
<text text-anchor="start" x="650.5" y="-703" font-family="Helvetica,sans-Serif" font-size="10.00">+ VUState()</text>
<text text-anchor="start" x="650.5" y="-692" font-family="Helvetica,sans-Serif" font-size="10.00">+ update()</text>
<text text-anchor="start" x="650.5" y="-681" font-family="Helvetica,sans-Serif" font-size="10.00">+ decay()</text>
</a>
</g>
</g>
<!-- Node13&#45;&gt;Node12 -->
<g id="edge13" class="edge">
<title>Node13&#45;&gt;Node12</title>
<path fill="none" stroke="#404040" d="M680,-673.99C680,-655.53 680,-633.22 680,-611.11"/>
<polygon fill="none" stroke="#404040" points="680,-610.87 676,-604.87 680,-598.87 684,-604.87 680,-610.87"/>
<text text-anchor="middle" x="697" y="-625.5" font-family="Helvetica,sans-Serif" font-size="10.00"> +data</text>
</g>
<!-- Node14 -->
<g id="node14" class="node">
<title>Node14</title>
<g id="a_node14"><a xlink:href="../../d2/de5/classAH_1_1Timer.html" target="_top" xlink:title=" ">
<polygon fill="white" stroke="black" points="761,-448 761,-571 877,-571 877,-448 761,-448"/>
<text text-anchor="middle" x="819" y="-559" font-family="Helvetica,sans-Serif" font-size="10.00">Timer&lt; millis &gt;</text>
<polyline fill="none" stroke="black" points="761,-552 877,-552 "/>
<text text-anchor="start" x="769" y="-540" font-family="Helvetica,sans-Serif" font-size="10.00">&#45; interval</text>
<text text-anchor="start" x="769" y="-529" font-family="Helvetica,sans-Serif" font-size="10.00">&#45; previous</text>
<polyline fill="none" stroke="black" points="761,-522 877,-522 "/>
<text text-anchor="start" x="769" y="-510" font-family="Helvetica,sans-Serif" font-size="10.00">+ Timer()</text>
<text text-anchor="start" x="769" y="-499" font-family="Helvetica,sans-Serif" font-size="10.00">+ begin()</text>
<text text-anchor="start" x="769" y="-488" font-family="Helvetica,sans-Serif" font-size="10.00">+ beginNextPeriod()</text>
<text text-anchor="start" x="769" y="-477" font-family="Helvetica,sans-Serif" font-size="10.00">+ operator bool()</text>
<text text-anchor="start" x="769" y="-466" font-family="Helvetica,sans-Serif" font-size="10.00">+ getInterval()</text>
<text text-anchor="start" x="769" y="-455" font-family="Helvetica,sans-Serif" font-size="10.00">+ setInterval()</text>
</a>
</g>
</g>
<!-- Node14&#45;&gt;Node2 -->
<g id="edge14" class="edge">
<title>Node14&#45;&gt;Node2</title>
<path fill="none" stroke="#404040" d="M783.2,-447.98C771.47,-428.14 758.04,-405.44 744.84,-383.12"/>
<polygon fill="none" stroke="#404040" points="744.7,-382.89 738.2,-379.76 738.59,-372.56 745.09,-375.69 744.7,-382.89"/>
<text text-anchor="middle" x="786.5" y="-394" font-family="Helvetica,sans-Serif" font-size="10.00"> &#45;decayTimer</text>
</g>
<!-- Node15 -->
<g id="node15" class="node">
<title>Node15</title>
<g id="a_node15"><a xlink:href="../../d1/d29/classMCU_1_1VULEDsDriver.html" target="_top" xlink:title="Small helper to display the VU meters on an LED bar display.">
<polygon fill="white" stroke="black" points="810.5,-238.5 810.5,-306.5 965.5,-306.5 965.5,-238.5 810.5,-238.5"/>
<text text-anchor="middle" x="888" y="-294.5" font-family="Helvetica,sans-Serif" font-size="10.00">VULEDsDriver&lt; NumLEDs &gt;</text>
<polyline fill="none" stroke="black" points="810.5,-287.5 965.5,-287.5 "/>
<text text-anchor="start" x="818.5" y="-275.5" font-family="Helvetica,sans-Serif" font-size="10.00">&#45; FLOOR_CORRECTION</text>
<polyline fill="none" stroke="black" points="810.5,-268.5 965.5,-268.5 "/>
<text text-anchor="start" x="818.5" y="-256.5" font-family="Helvetica,sans-Serif" font-size="10.00">+ VULEDsDriver()</text>
<text text-anchor="start" x="818.5" y="-245.5" font-family="Helvetica,sans-Serif" font-size="10.00">+ displayVU()</text>
</a>
</g>
</g>
<!-- Node15&#45;&gt;Node1 -->
<g id="edge15" class="edge">
<title>Node15&#45;&gt;Node1</title>
<path fill="none" stroke="midnightblue" d="M862.37,-229.88C845.52,-202.52 823.11,-166.11 803.83,-134.81"/>
<polygon fill="none" stroke="midnightblue" points="859.41,-231.75 867.64,-238.43 865.38,-228.08 859.41,-231.75"/>
</g>
<!-- Node16 -->
<g id="node16" class="node">
<title>Node16</title>
<g id="a_node16"><a xlink:href="../../d9/d89/classAH_1_1DotBarDisplayLEDs.html" target="_top" xlink:title=" ">
<polygon fill="white" stroke="black" points="895,-437 895,-582 1025,-582 1025,-437 895,-437"/>
<text text-anchor="start" x="903" y="-570" font-family="Helvetica,sans-Serif" font-size="10.00">DotBarDisplayLEDs&lt;</text>
<text text-anchor="middle" x="960" y="-559" font-family="Helvetica,sans-Serif" font-size="10.00"> NumLEDs &gt;</text>
<polyline fill="none" stroke="black" points="895,-552 1025,-552 "/>
<text text-anchor="start" x="903" y="-540" font-family="Helvetica,sans-Serif" font-size="10.00">&#45; mode</text>
<polyline fill="none" stroke="black" points="895,-533 1025,-533 "/>
<text text-anchor="start" x="903" y="-521" font-family="Helvetica,sans-Serif" font-size="10.00">+ DotBarDisplayLEDs()</text>
<text text-anchor="start" x="903" y="-510" font-family="Helvetica,sans-Serif" font-size="10.00">+ display()</text>
<text text-anchor="start" x="903" y="-499" font-family="Helvetica,sans-Serif" font-size="10.00">+ display()</text>
<text text-anchor="start" x="903" y="-488" font-family="Helvetica,sans-Serif" font-size="10.00">+ getMode()</text>
<text text-anchor="start" x="903" y="-477" font-family="Helvetica,sans-Serif" font-size="10.00">+ setMode()</text>
<text text-anchor="start" x="903" y="-466" font-family="Helvetica,sans-Serif" font-size="10.00">+ dotMode()</text>
<text text-anchor="start" x="903" y="-455" font-family="Helvetica,sans-Serif" font-size="10.00">+ barMode()</text>
<text text-anchor="start" x="903" y="-444" font-family="Helvetica,sans-Serif" font-size="10.00">+ toggleMode()</text>
</a>
</g>
</g>
<!-- Node16&#45;&gt;Node15 -->
<g id="edge16" class="edge">
<title>Node16&#45;&gt;Node15</title>
<path fill="none" stroke="midnightblue" d="M935,-426.92C922.35,-385.6 907.68,-337.74 898.14,-306.61"/>
<polygon fill="none" stroke="midnightblue" points="931.73,-428.18 938.01,-436.72 938.42,-426.13 931.73,-428.18"/>
</g>
<!-- Node17 -->
<g id="node17" class="node">
<title>Node17</title>
<g id="a_node17"><a xlink:href="../../df/d06/classAH_1_1LEDs.html" target="_top" xlink:title="A class for collections of LEDs that can display ranges.">
<polygon fill="white" stroke="black" points="909.5,-657.5 909.5,-780.5 1010.5,-780.5 1010.5,-657.5 909.5,-657.5"/>
<text text-anchor="middle" x="960" y="-768.5" font-family="Helvetica,sans-Serif" font-size="10.00">LEDs&lt; N &gt;</text>
<polyline fill="none" stroke="black" points="909.5,-761.5 1010.5,-761.5 "/>
<text text-anchor="middle" x="960" y="-749.5" font-family="Helvetica,sans-Serif" font-size="10.00"> </text>
<polyline fill="none" stroke="black" points="909.5,-742.5 1010.5,-742.5 "/>
<text text-anchor="start" x="917.5" y="-730.5" font-family="Helvetica,sans-Serif" font-size="10.00">+ LEDs()</text>
<text text-anchor="start" x="917.5" y="-719.5" font-family="Helvetica,sans-Serif" font-size="10.00">+ begin()</text>
<text text-anchor="start" x="917.5" y="-708.5" font-family="Helvetica,sans-Serif" font-size="10.00">+ displayRange()</text>
<text text-anchor="start" x="917.5" y="-697.5" font-family="Helvetica,sans-Serif" font-size="10.00">+ set()</text>
<text text-anchor="start" x="917.5" y="-686.5" font-family="Helvetica,sans-Serif" font-size="10.00">+ clear()</text>
<text text-anchor="start" x="917.5" y="-675.5" font-family="Helvetica,sans-Serif" font-size="10.00">+ displayDot()</text>
<text text-anchor="start" x="917.5" y="-664.5" font-family="Helvetica,sans-Serif" font-size="10.00">+ clear()</text>
</a>
</g>
</g>
<!-- Node17&#45;&gt;Node16 -->
<g id="edge17" class="edge">
<title>Node17&#45;&gt;Node16</title>
<path fill="none" stroke="midnightblue" d="M960,-647.29C960,-626.27 960,-603.23 960,-582.15"/>
<polygon fill="none" stroke="midnightblue" points="956.5,-647.42 960,-657.42 963.5,-647.42 956.5,-647.42"/>
</g>
<!-- Node18 -->
<g id="node18" class="node">
<title>Node18</title>
<g id="a_node18"><a xlink:href="../../d0/d32/structAH_1_1Array.html" target="_top" xlink:title=" ">
<polygon fill="white" stroke="black" points="913.5,-828.5 913.5,-995.5 1006.5,-995.5 1006.5,-828.5 913.5,-828.5"/>
<text text-anchor="middle" x="960" y="-983.5" font-family="Helvetica,sans-Serif" font-size="10.00">Array&lt; N &gt;</text>
<polyline fill="none" stroke="black" points="913.5,-976.5 1006.5,-976.5 "/>
<text text-anchor="start" x="921.5" y="-964.5" font-family="Helvetica,sans-Serif" font-size="10.00">+ length</text>
<polyline fill="none" stroke="black" points="913.5,-957.5 1006.5,-957.5 "/>
<text text-anchor="start" x="921.5" y="-945.5" font-family="Helvetica,sans-Serif" font-size="10.00">+ operator[]()</text>
<text text-anchor="start" x="921.5" y="-934.5" font-family="Helvetica,sans-Serif" font-size="10.00">+ operator[]()</text>
<text text-anchor="start" x="921.5" y="-923.5" font-family="Helvetica,sans-Serif" font-size="10.00">+ begin()</text>
<text text-anchor="start" x="921.5" y="-912.5" font-family="Helvetica,sans-Serif" font-size="10.00">+ begin()</text>
<text text-anchor="start" x="921.5" y="-901.5" font-family="Helvetica,sans-Serif" font-size="10.00">+ end()</text>
<text text-anchor="start" x="921.5" y="-890.5" font-family="Helvetica,sans-Serif" font-size="10.00">+ end()</text>
<text text-anchor="start" x="921.5" y="-879.5" font-family="Helvetica,sans-Serif" font-size="10.00">+ operator==()</text>
<text text-anchor="start" x="921.5" y="-868.5" font-family="Helvetica,sans-Serif" font-size="10.00">+ operator!=()</text>
<text text-anchor="start" x="921.5" y="-857.5" font-family="Helvetica,sans-Serif" font-size="10.00">+ slice()</text>
<text text-anchor="start" x="921.5" y="-846.5" font-family="Helvetica,sans-Serif" font-size="10.00">+ slice()</text>
<text text-anchor="start" x="921.5" y="-835.5" font-family="Helvetica,sans-Serif" font-size="10.00">+ cslice()</text>
</a>
</g>
</g>
<!-- Node18&#45;&gt;Node17 -->
<g id="edge18" class="edge">
<title>Node18&#45;&gt;Node17</title>
<path fill="none" stroke="#404040" d="M960,-828.34C960,-816.56 960,-804.53 960,-792.96"/>
<polygon fill="none" stroke="#404040" points="960,-792.62 956,-786.62 960,-780.62 964,-786.62 960,-792.62"/>
<text text-anchor="middle" x="981.5" y="-802" font-family="Helvetica,sans-Serif" font-size="10.00"> &#45;ledPins</text>
</g>
<!-- Node19 -->
<g id="node19" class="node">
<title>Node19</title>
<g id="a_node19"><a xlink:href="../../d8/d75/namespace_3globalScope_4.html#d7/d14/classN" target="_top" xlink:title=" ">
<polygon fill="white" stroke="black" points="945.5,-1131.5 945.5,-1188.5 974.5,-1188.5 974.5,-1131.5 945.5,-1131.5"/>
<text text-anchor="middle" x="960" y="-1176.5" font-family="Helvetica,sans-Serif" font-size="10.00">N</text>
<polyline fill="none" stroke="black" points="945.5,-1169.5 974.5,-1169.5 "/>
<text text-anchor="middle" x="960" y="-1157.5" font-family="Helvetica,sans-Serif" font-size="10.00"> </text>
<polyline fill="none" stroke="black" points="945.5,-1150.5 974.5,-1150.5 "/>
<text text-anchor="middle" x="960" y="-1138.5" font-family="Helvetica,sans-Serif" font-size="10.00"> </text>
</a>
</g>
</g>
<!-- Node19&#45;&gt;Node18 -->
<g id="edge19" class="edge">
<title>Node19&#45;&gt;Node18</title>
<path fill="none" stroke="#404040" d="M960,-1131.26C960,-1101.27 960,-1051.83 960,-1007.58"/>
<polygon fill="none" stroke="#404040" points="960,-1007.56 956,-1001.56 960,-995.56 964,-1001.56 960,-1007.56"/>
<text text-anchor="middle" x="977" y="-1017" font-family="Helvetica,sans-Serif" font-size="10.00"> +data</text>
</g>
</g>
</svg>
