<?xml version="1.0" encoding="UTF-8" standalone="no"?>
<!DOCTYPE svg PUBLIC "-//W3C//DTD SVG 1.1//EN"
 "http://www.w3.org/Graphics/SVG/1.1/DTD/svg11.dtd">
<!-- Generated by graphviz version 2.40.1 (20161225.0304)
 -->
<!-- Title: CCRotaryEncoder Pages: 1 -->
<svg width="693pt" height="1208pt"
 viewBox="0.00 0.00 693.00 1208.00" xmlns="http://www.w3.org/2000/svg" xmlns:xlink="http://www.w3.org/1999/xlink">
<g id="graph0" class="graph" transform="scale(1 1) rotate(0) translate(4 1204)">
<title>CCRotaryEncoder</title>
<polygon fill="#ffffff" stroke="transparent" points="-4,4 -4,-1204 689,-1204 689,4 -4,4"/>
<!-- Node1 -->
<g id="node1" class="node">
<title>Node1</title>
<g id="a_node1"><a xlink:title="A class of MIDIOutputElements that read the input of a quadrature (rotary) encoder and send out relat...">
<polygon fill="#bfbfbf" stroke="#000000" points="286.5,-.5 286.5,-57.5 398.5,-57.5 398.5,-.5 286.5,-.5"/>
<text text-anchor="middle" x="342.5" y="-45.5" font-family="Helvetica,sans-Serif" font-size="10.00" fill="#000000">CCRotaryEncoder</text>
<polyline fill="none" stroke="#000000" points="286.5,-38.5 398.5,-38.5 "/>
<text text-anchor="middle" x="342.5" y="-26.5" font-family="Helvetica,sans-Serif" font-size="10.00" fill="#000000"> </text>
<polyline fill="none" stroke="#000000" points="286.5,-19.5 398.5,-19.5 "/>
<text text-anchor="start" x="294.5" y="-7.5" font-family="Helvetica,sans-Serif" font-size="10.00" fill="#000000">+ CCRotaryEncoder()</text>
</a>
</g>
</g>
<!-- Node2 -->
<g id="node2" class="node">
<title>Node2</title>
<g id="a_node2"><a xlink:href="../../dc/dd5/classBankable_1_1MIDIRotaryEncoder.html" target="_top" xlink:title=" ">
<polygon fill="#ffffff" stroke="#000000" points="253,-95.5 253,-218.5 432,-218.5 432,-95.5 253,-95.5"/>
<text text-anchor="start" x="261" y="-206.5" font-family="Helvetica,sans-Serif" font-size="10.00" fill="#000000">MIDIRotaryEncoder&lt;</text>
<text text-anchor="middle" x="342.5" y="-195.5" font-family="Helvetica,sans-Serif" font-size="10.00" fill="#000000"> SingleAddress, RelativeCCSender &gt;</text>
<polyline fill="none" stroke="#000000" points="253,-188.5 432,-188.5 "/>
<text text-anchor="start" x="261" y="-176.5" font-family="Helvetica,sans-Serif" font-size="10.00" fill="#000000">&#45; encoder</text>
<text text-anchor="start" x="261" y="-165.5" font-family="Helvetica,sans-Serif" font-size="10.00" fill="#000000">&#45; speedMultiply</text>
<text text-anchor="start" x="261" y="-154.5" font-family="Helvetica,sans-Serif" font-size="10.00" fill="#000000">&#45; pulsesPerStep</text>
<text text-anchor="start" x="261" y="-143.5" font-family="Helvetica,sans-Serif" font-size="10.00" fill="#000000">&#45; previousPosition</text>
<polyline fill="none" stroke="#000000" points="253,-136.5 432,-136.5 "/>
<text text-anchor="start" x="261" y="-124.5" font-family="Helvetica,sans-Serif" font-size="10.00" fill="#000000">+ begin()</text>
<text text-anchor="start" x="261" y="-113.5" font-family="Helvetica,sans-Serif" font-size="10.00" fill="#000000">+ update()</text>
<text text-anchor="start" x="261" y="-102.5" font-family="Helvetica,sans-Serif" font-size="10.00" fill="#000000"># MIDIRotaryEncoder()</text>
</a>
</g>
</g>
<!-- Node2&#45;&gt;Node1 -->
<g id="edge1" class="edge">
<title>Node2&#45;&gt;Node1</title>
<path fill="none" stroke="#191970" d="M342.5,-85.0767C342.5,-75.364 342.5,-65.8986 342.5,-57.5937"/>
<polygon fill="none" stroke="#191970" points="339.0001,-85.2496 342.5,-95.2496 346.0001,-85.2496 339.0001,-85.2496"/>
</g>
<!-- Node3 -->
<g id="node3" class="node">
<title>Node3</title>
<g id="a_node3"><a xlink:href="../../d1/d55/classAH_1_1Updatable.html" target="_top" xlink:title=" ">
<polygon fill="#ffffff" stroke="#000000" points="152.5,-277.5 152.5,-367.5 256.5,-367.5 256.5,-277.5 152.5,-277.5"/>
<text text-anchor="middle" x="204.5" y="-355.5" font-family="Helvetica,sans-Serif" font-size="10.00" fill="#000000">MIDIOutputElement</text>
<polyline fill="none" stroke="#000000" points="152.5,-348.5 256.5,-348.5 "/>
<text text-anchor="middle" x="204.5" y="-336.5" font-family="Helvetica,sans-Serif" font-size="10.00" fill="#000000"> </text>
<polyline fill="none" stroke="#000000" points="152.5,-329.5 256.5,-329.5 "/>
<text text-anchor="start" x="160.5" y="-317.5" font-family="Helvetica,sans-Serif" font-size="10.00" fill="#000000">* begin()</text>
<text text-anchor="start" x="160.5" y="-306.5" font-family="Helvetica,sans-Serif" font-size="10.00" fill="#000000">* update()</text>
<text text-anchor="start" x="160.5" y="-295.5" font-family="Helvetica,sans-Serif" font-size="10.00" fill="#000000">* beginAll()</text>
<text text-anchor="start" x="160.5" y="-284.5" font-family="Helvetica,sans-Serif" font-size="10.00" fill="#000000">* updateAll()</text>
</a>
</g>
</g>
<!-- Node3&#45;&gt;Node2 -->
<g id="edge2" class="edge">
<title>Node3&#45;&gt;Node2</title>
<path fill="none" stroke="#191970" d="M248.7114,-269.4784C262.2182,-253.28 277.1865,-235.3288 291.1262,-218.6114"/>
<polygon fill="none" stroke="#191970" points="245.9252,-267.3546 242.2091,-277.2764 251.3014,-271.8375 245.9252,-267.3546"/>
</g>
<!-- Node4 -->
<g id="node4" class="node">
<title>Node4</title>
<g id="a_node4"><a xlink:href="../../d8/d1a/classAH_1_1UpdatableCRTP.html" target="_top" xlink:title=" ">
<polygon fill="#ffffff" stroke="#000000" points="133.5,-465 133.5,-654 275.5,-654 275.5,-465 133.5,-465"/>
<text text-anchor="start" x="141.5" y="-642" font-family="Helvetica,sans-Serif" font-size="10.00" fill="#000000">UpdatableCRTP&lt; Updatable</text>
<text text-anchor="middle" x="204.5" y="-631" font-family="Helvetica,sans-Serif" font-size="10.00" fill="#000000">&lt; NormalUpdatable &gt; &gt;</text>
<polyline fill="none" stroke="#000000" points="133.5,-624 275.5,-624 "/>
<text text-anchor="middle" x="204.5" y="-612" font-family="Helvetica,sans-Serif" font-size="10.00" fill="#000000"> </text>
<polyline fill="none" stroke="#000000" points="133.5,-605 275.5,-605 "/>
<text text-anchor="start" x="141.5" y="-593" font-family="Helvetica,sans-Serif" font-size="10.00" fill="#000000">+ ~UpdatableCRTP()</text>
<text text-anchor="start" x="141.5" y="-582" font-family="Helvetica,sans-Serif" font-size="10.00" fill="#000000"># UpdatableCRTP()</text>
<text text-anchor="start" x="141.5" y="-571" font-family="Helvetica,sans-Serif" font-size="10.00" fill="#000000">* enable()</text>
<text text-anchor="start" x="141.5" y="-560" font-family="Helvetica,sans-Serif" font-size="10.00" fill="#000000">* disable()</text>
<text text-anchor="start" x="141.5" y="-549" font-family="Helvetica,sans-Serif" font-size="10.00" fill="#000000">* isEnabled()</text>
<text text-anchor="start" x="141.5" y="-538" font-family="Helvetica,sans-Serif" font-size="10.00" fill="#000000">* enable()</text>
<text text-anchor="start" x="141.5" y="-527" font-family="Helvetica,sans-Serif" font-size="10.00" fill="#000000">* enable()</text>
<text text-anchor="start" x="141.5" y="-516" font-family="Helvetica,sans-Serif" font-size="10.00" fill="#000000">* enable()</text>
<text text-anchor="start" x="141.5" y="-505" font-family="Helvetica,sans-Serif" font-size="10.00" fill="#000000">* disable()</text>
<text text-anchor="start" x="141.5" y="-494" font-family="Helvetica,sans-Serif" font-size="10.00" fill="#000000">* disable()</text>
<text text-anchor="start" x="141.5" y="-483" font-family="Helvetica,sans-Serif" font-size="10.00" fill="#000000">* disable()</text>
<text text-anchor="start" x="141.5" y="-472" font-family="Helvetica,sans-Serif" font-size="10.00" fill="#000000">* applyToAll()</text>
</a>
</g>
</g>
<!-- Node4&#45;&gt;Node3 -->
<g id="edge3" class="edge">
<title>Node4&#45;&gt;Node3</title>
<path fill="none" stroke="#191970" d="M204.5,-454.5255C204.5,-424.0287 204.5,-392.3211 204.5,-367.6248"/>
<polygon fill="none" stroke="#191970" points="201.0001,-454.8095 204.5,-464.8096 208.0001,-454.8096 201.0001,-454.8095"/>
</g>
<!-- Node5 -->
<g id="node5" class="node">
<title>Node5</title>
<g id="a_node5"><a xlink:href="../../d4/d23/classDoublyLinkable.html" target="_top" xlink:title=" ">
<polygon fill="#ffffff" stroke="#000000" points="0,-850.5 0,-929.5 137,-929.5 137,-850.5 0,-850.5"/>
<text text-anchor="start" x="8" y="-917.5" font-family="Helvetica,sans-Serif" font-size="10.00" fill="#000000">DoublyLinkable&lt; Updatable</text>
<text text-anchor="middle" x="68.5" y="-906.5" font-family="Helvetica,sans-Serif" font-size="10.00" fill="#000000">&lt; NormalUpdatable &gt; &gt;</text>
<polyline fill="none" stroke="#000000" points="0,-899.5 137,-899.5 "/>
<text text-anchor="start" x="8" y="-887.5" font-family="Helvetica,sans-Serif" font-size="10.00" fill="#000000"># next</text>
<text text-anchor="start" x="8" y="-876.5" font-family="Helvetica,sans-Serif" font-size="10.00" fill="#000000"># previous</text>
<polyline fill="none" stroke="#000000" points="0,-869.5 137,-869.5 "/>
<text text-anchor="start" x="8" y="-857.5" font-family="Helvetica,sans-Serif" font-size="10.00" fill="#000000"># ~DoublyLinkable()</text>
</a>
</g>
</g>
<!-- Node5&#45;&gt;Node4 -->
<g id="edge4" class="edge">
<title>Node5&#45;&gt;Node4</title>
<path fill="none" stroke="#191970" d="M88.6469,-841.04C108.8191,-792.0186 140.3839,-715.3115 165.4748,-654.3369"/>
<polygon fill="none" stroke="#191970" points="85.3385,-839.8827 84.7697,-850.4623 91.8118,-842.5465 85.3385,-839.8827"/>
</g>
<!-- Node6 -->
<g id="node6" class="node">
<title>Node6</title>
<g id="a_node6"><a xlink:href="../../dd/d16/classDoublyLinkedList.html" target="_top" xlink:title=" ">
<polygon fill="#ffffff" stroke="#000000" points="155,-740.5 155,-1039.5 300,-1039.5 300,-740.5 155,-740.5"/>
<text text-anchor="start" x="163" y="-1027.5" font-family="Helvetica,sans-Serif" font-size="10.00" fill="#000000">DoublyLinkedList&lt; Updatable</text>
<text text-anchor="middle" x="227.5" y="-1016.5" font-family="Helvetica,sans-Serif" font-size="10.00" fill="#000000">&lt; NormalUpdatable &gt; &gt;</text>
<polyline fill="none" stroke="#000000" points="155,-1009.5 300,-1009.5 "/>
<text text-anchor="start" x="163" y="-997.5" font-family="Helvetica,sans-Serif" font-size="10.00" fill="#000000">&#45; first</text>
<text text-anchor="start" x="163" y="-986.5" font-family="Helvetica,sans-Serif" font-size="10.00" fill="#000000">&#45; last</text>
<polyline fill="none" stroke="#000000" points="155,-979.5 300,-979.5 "/>
<text text-anchor="start" x="163" y="-967.5" font-family="Helvetica,sans-Serif" font-size="10.00" fill="#000000">+ append()</text>
<text text-anchor="start" x="163" y="-956.5" font-family="Helvetica,sans-Serif" font-size="10.00" fill="#000000">+ append()</text>
<text text-anchor="start" x="163" y="-945.5" font-family="Helvetica,sans-Serif" font-size="10.00" fill="#000000">+ insertBefore()</text>
<text text-anchor="start" x="163" y="-934.5" font-family="Helvetica,sans-Serif" font-size="10.00" fill="#000000">+ insertBefore()</text>
<text text-anchor="start" x="163" y="-923.5" font-family="Helvetica,sans-Serif" font-size="10.00" fill="#000000">+ insertSorted()</text>
<text text-anchor="start" x="163" y="-912.5" font-family="Helvetica,sans-Serif" font-size="10.00" fill="#000000">+ insertSorted()</text>
<text text-anchor="start" x="163" y="-901.5" font-family="Helvetica,sans-Serif" font-size="10.00" fill="#000000">+ remove()</text>
<text text-anchor="start" x="163" y="-890.5" font-family="Helvetica,sans-Serif" font-size="10.00" fill="#000000">+ remove()</text>
<text text-anchor="start" x="163" y="-879.5" font-family="Helvetica,sans-Serif" font-size="10.00" fill="#000000">+ moveDown()</text>
<text text-anchor="start" x="163" y="-868.5" font-family="Helvetica,sans-Serif" font-size="10.00" fill="#000000">+ couldContain()</text>
<text text-anchor="start" x="163" y="-857.5" font-family="Helvetica,sans-Serif" font-size="10.00" fill="#000000">+ couldContain()</text>
<text text-anchor="start" x="163" y="-846.5" font-family="Helvetica,sans-Serif" font-size="10.00" fill="#000000">+ begin()</text>
<text text-anchor="start" x="163" y="-835.5" font-family="Helvetica,sans-Serif" font-size="10.00" fill="#000000">+ begin()</text>
<text text-anchor="start" x="163" y="-824.5" font-family="Helvetica,sans-Serif" font-size="10.00" fill="#000000">+ end()</text>
<text text-anchor="start" x="163" y="-813.5" font-family="Helvetica,sans-Serif" font-size="10.00" fill="#000000">+ end()</text>
<text text-anchor="start" x="163" y="-802.5" font-family="Helvetica,sans-Serif" font-size="10.00" fill="#000000">+ rbegin()</text>
<text text-anchor="start" x="163" y="-791.5" font-family="Helvetica,sans-Serif" font-size="10.00" fill="#000000">+ rbegin()</text>
<text text-anchor="start" x="163" y="-780.5" font-family="Helvetica,sans-Serif" font-size="10.00" fill="#000000">+ rend()</text>
<text text-anchor="start" x="163" y="-769.5" font-family="Helvetica,sans-Serif" font-size="10.00" fill="#000000">+ rend()</text>
<text text-anchor="start" x="163" y="-758.5" font-family="Helvetica,sans-Serif" font-size="10.00" fill="#000000">+ getFirst()</text>
<text text-anchor="start" x="163" y="-747.5" font-family="Helvetica,sans-Serif" font-size="10.00" fill="#000000">+ getLast()</text>
</a>
</g>
</g>
<!-- Node6&#45;&gt;Node4 -->
<g id="edge5" class="edge">
<title>Node6&#45;&gt;Node4</title>
<path fill="none" stroke="#404040" d="M217.0767,-740.222C215.3459,-715.3516 213.5824,-690.0096 211.9446,-666.476"/>
<polygon fill="none" stroke="#404040" points="211.9337,-666.3174 207.5267,-660.6096 211.1005,-654.3464 215.5074,-660.0542 211.9337,-666.3174"/>
<text text-anchor="middle" x="243.5" y="-714" font-family="Helvetica,sans-Serif" font-size="10.00" fill="#000000"> #updatables</text>
</g>
<!-- Node7 -->
<g id="node7" class="node">
<title>Node7</title>
<g id="a_node7"><a xlink:href="../../d3/dd0/classRelativeCCSender.html" target="_top" xlink:title=" ">
<polygon fill="#ffffff" stroke="#000000" points="275,-266.5 275,-378.5 410,-378.5 410,-266.5 275,-266.5"/>
<text text-anchor="middle" x="342.5" y="-366.5" font-family="Helvetica,sans-Serif" font-size="10.00" fill="#000000">RelativeCCSender</text>
<polyline fill="none" stroke="#000000" points="275,-359.5 410,-359.5 "/>
<text text-anchor="start" x="283" y="-347.5" font-family="Helvetica,sans-Serif" font-size="10.00" fill="#000000">&#45; mode</text>
<polyline fill="none" stroke="#000000" points="275,-340.5 410,-340.5 "/>
<text text-anchor="start" x="283" y="-328.5" font-family="Helvetica,sans-Serif" font-size="10.00" fill="#000000">+ toTwosComplement7bit()</text>
<text text-anchor="start" x="283" y="-317.5" font-family="Helvetica,sans-Serif" font-size="10.00" fill="#000000">+ toBinaryOffset7bit()</text>
<text text-anchor="start" x="283" y="-306.5" font-family="Helvetica,sans-Serif" font-size="10.00" fill="#000000">+ toSignedMagnitude7bit()</text>
<text text-anchor="start" x="283" y="-295.5" font-family="Helvetica,sans-Serif" font-size="10.00" fill="#000000">+ mapRelativeCC()</text>
<text text-anchor="start" x="283" y="-284.5" font-family="Helvetica,sans-Serif" font-size="10.00" fill="#000000">+ send()</text>
<text text-anchor="start" x="283" y="-273.5" font-family="Helvetica,sans-Serif" font-size="10.00" fill="#000000">+ setMode()</text>
</a>
</g>
</g>
<!-- Node7&#45;&gt;Node2 -->
<g id="edge6" class="edge">
<title>Node7&#45;&gt;Node2</title>
<path fill="none" stroke="#404040" d="M342.5,-266.4692C342.5,-255.0551 342.5,-242.8811 342.5,-230.9537"/>
<polygon fill="none" stroke="#404040" points="342.5001,-230.6555 338.5,-224.6555 342.5,-218.6555 346.5,-224.6555 342.5001,-230.6555"/>
<text text-anchor="middle" x="362" y="-240" font-family="Helvetica,sans-Serif" font-size="10.00" fill="#000000"> +sender</text>
</g>
<!-- Node8 -->
<g id="node8" class="node">
<title>Node8</title>
<g id="a_node8"><a xlink:href="../../df/de5/classBankable_1_1SingleAddress.html" target="_top" xlink:title=" ">
<polygon fill="#ffffff" stroke="#000000" points="428,-283 428,-362 537,-362 537,-283 428,-283"/>
<text text-anchor="middle" x="482.5" y="-350" font-family="Helvetica,sans-Serif" font-size="10.00" fill="#000000">SingleAddress</text>
<polyline fill="none" stroke="#000000" points="428,-343 537,-343 "/>
<text text-anchor="middle" x="482.5" y="-331" font-family="Helvetica,sans-Serif" font-size="10.00" fill="#000000"> </text>
<polyline fill="none" stroke="#000000" points="428,-324 537,-324 "/>
<text text-anchor="start" x="436" y="-312" font-family="Helvetica,sans-Serif" font-size="10.00" fill="#000000">+ SingleAddress()</text>
<text text-anchor="start" x="436" y="-301" font-family="Helvetica,sans-Serif" font-size="10.00" fill="#000000">+ getBaseAddress()</text>
<text text-anchor="start" x="436" y="-290" font-family="Helvetica,sans-Serif" font-size="10.00" fill="#000000">+ getActiveAddress()</text>
</a>
</g>
</g>
<!-- Node8&#45;&gt;Node2 -->
<g id="edge7" class="edge">
<title>Node8&#45;&gt;Node2</title>
<path fill="none" stroke="#404040" d="M448.9665,-282.8586C434.9933,-266.3403 418.3305,-246.6424 402.3832,-227.7905"/>
<polygon fill="none" stroke="#404040" points="402.377,-227.7832 395.4481,-225.7857 394.6269,-218.6215 401.5559,-220.619 402.377,-227.7832"/>
<text text-anchor="middle" x="438" y="-240" font-family="Helvetica,sans-Serif" font-size="10.00" fill="#000000"> &#45;address</text>
</g>
<!-- Node9 -->
<g id="node9" class="node">
<title>Node9</title>
<g id="a_node9"><a xlink:href="../../d2/d97/classOutputBankableMIDIAddress.html" target="_top" xlink:title="A base class for all MIDIOutputElements that can be banked.">
<polygon fill="#ffffff" stroke="#000000" points="379,-520 379,-599 538,-599 538,-520 379,-520"/>
<text text-anchor="middle" x="458.5" y="-587" font-family="Helvetica,sans-Serif" font-size="10.00" fill="#000000">OutputBankableMIDIAddress</text>
<polyline fill="none" stroke="#000000" points="379,-580 538,-580 "/>
<text text-anchor="start" x="387" y="-568" font-family="Helvetica,sans-Serif" font-size="10.00" fill="#000000">&#45; type</text>
<polyline fill="none" stroke="#000000" points="379,-561 538,-561 "/>
<text text-anchor="start" x="387" y="-549" font-family="Helvetica,sans-Serif" font-size="10.00" fill="#000000">+ OutputBankableMIDIAddress()</text>
<text text-anchor="start" x="387" y="-538" font-family="Helvetica,sans-Serif" font-size="10.00" fill="#000000">+ OutputBankableMIDIAddress()</text>
<text text-anchor="start" x="387" y="-527" font-family="Helvetica,sans-Serif" font-size="10.00" fill="#000000">+ getAddressOffset()</text>
</a>
</g>
</g>
<!-- Node9&#45;&gt;Node8 -->
<g id="edge8" class="edge">
<title>Node9&#45;&gt;Node8</title>
<path fill="none" stroke="#191970" d="M463.5452,-509.6785C467.9847,-465.8386 474.3635,-402.8476 478.4698,-362.2979"/>
<polygon fill="none" stroke="#191970" points="460.0425,-509.5298 462.5171,-519.8315 467.0068,-510.2351 460.0425,-509.5298"/>
</g>
<!-- Node10 -->
<g id="node10" class="node">
<title>Node10</title>
<g id="a_node10"><a xlink:href="../../d2/d4e/classOutputBankableMIDIAddress__Base.html" target="_top" xlink:title=" ">
<polygon fill="#ffffff" stroke="#000000" points="365.5,-834 365.5,-946 551.5,-946 551.5,-834 365.5,-834"/>
<text text-anchor="middle" x="458.5" y="-934" font-family="Helvetica,sans-Serif" font-size="10.00" fill="#000000">OutputBankableMIDIAddress_Base</text>
<polyline fill="none" stroke="#000000" points="365.5,-927 551.5,-927 "/>
<text text-anchor="start" x="373.5" y="-915" font-family="Helvetica,sans-Serif" font-size="10.00" fill="#000000">&#45; lockedSetting</text>
<text text-anchor="start" x="373.5" y="-904" font-family="Helvetica,sans-Serif" font-size="10.00" fill="#000000">&#45; UNLOCKED</text>
<polyline fill="none" stroke="#000000" points="365.5,-897 551.5,-897 "/>
<text text-anchor="start" x="373.5" y="-885" font-family="Helvetica,sans-Serif" font-size="10.00" fill="#000000">+ getRawBankSetting()</text>
<text text-anchor="start" x="373.5" y="-874" font-family="Helvetica,sans-Serif" font-size="10.00" fill="#000000">+ getSelection()</text>
<text text-anchor="start" x="373.5" y="-863" font-family="Helvetica,sans-Serif" font-size="10.00" fill="#000000">+ lock()</text>
<text text-anchor="start" x="373.5" y="-852" font-family="Helvetica,sans-Serif" font-size="10.00" fill="#000000">+ unlock()</text>
<text text-anchor="start" x="373.5" y="-841" font-family="Helvetica,sans-Serif" font-size="10.00" fill="#000000"># OutputBankableMIDIAddress_Base()</text>
</a>
</g>
</g>
<!-- Node10&#45;&gt;Node9 -->
<g id="edge9" class="edge">
<title>Node10&#45;&gt;Node9</title>
<path fill="none" stroke="#191970" d="M458.5,-823.8733C458.5,-756.6873 458.5,-654.8277 458.5,-599.1966"/>
<polygon fill="none" stroke="#191970" points="455.0001,-823.9351 458.5,-833.9352 462.0001,-823.9352 455.0001,-823.9351"/>
</g>
<!-- Node11 -->
<g id="node11" class="node">
<title>Node11</title>
<g id="a_node11"><a xlink:href="../../d9/d36/classOutputBank.html" target="_top" xlink:title="A class for changing the address of BankableMIDIOutputs.">
<polygon fill="#ffffff" stroke="#000000" points="402,-1087.5 402,-1199.5 515,-1199.5 515,-1087.5 402,-1087.5"/>
<text text-anchor="middle" x="458.5" y="-1187.5" font-family="Helvetica,sans-Serif" font-size="10.00" fill="#000000">OutputBank</text>
<polyline fill="none" stroke="#000000" points="402,-1180.5 515,-1180.5 "/>
<text text-anchor="start" x="410" y="-1168.5" font-family="Helvetica,sans-Serif" font-size="10.00" fill="#000000">&#45; tracksPerBank</text>
<text text-anchor="start" x="410" y="-1157.5" font-family="Helvetica,sans-Serif" font-size="10.00" fill="#000000">&#45; bankSetting</text>
<polyline fill="none" stroke="#000000" points="402,-1150.5 515,-1150.5 "/>
<text text-anchor="start" x="410" y="-1138.5" font-family="Helvetica,sans-Serif" font-size="10.00" fill="#000000">+ OutputBank()</text>
<text text-anchor="start" x="410" y="-1127.5" font-family="Helvetica,sans-Serif" font-size="10.00" fill="#000000">+ select()</text>
<text text-anchor="start" x="410" y="-1116.5" font-family="Helvetica,sans-Serif" font-size="10.00" fill="#000000">+ getSelection()</text>
<text text-anchor="start" x="410" y="-1105.5" font-family="Helvetica,sans-Serif" font-size="10.00" fill="#000000">+ getTracksPerBank()</text>
<text text-anchor="start" x="410" y="-1094.5" font-family="Helvetica,sans-Serif" font-size="10.00" fill="#000000">+ getOffset()</text>
</a>
</g>
</g>
<!-- Node11&#45;&gt;Node10 -->
<g id="edge10" class="edge">
<title>Node11&#45;&gt;Node10</title>
<path fill="none" stroke="#404040" d="M458.5,-1087.2401C458.5,-1049.1692 458.5,-998.6578 458.5,-958.2825"/>
<polygon fill="none" stroke="#404040" points="458.5001,-958.1026 454.5,-952.1026 458.5,-946.1026 462.5,-952.1026 458.5001,-958.1026"/>
<text text-anchor="middle" x="473.5" y="-1061" font-family="Helvetica,sans-Serif" font-size="10.00" fill="#000000"> #bank</text>
</g>
<!-- Node12 -->
<g id="node12" class="node">
<title>Node12</title>
<g id="a_node12"><a xlink:href="../../d7/d0f/classMIDIAddress.html" target="_top" xlink:title="A type&#45;safe utility class for saving a MIDI address consisting of a 7&#45;bit address,...">
<polygon fill="#ffffff" stroke="#000000" points="556,-426.5 556,-692.5 685,-692.5 685,-426.5 556,-426.5"/>
<text text-anchor="middle" x="620.5" y="-680.5" font-family="Helvetica,sans-Serif" font-size="10.00" fill="#000000">MIDIAddress</text>
<polyline fill="none" stroke="#000000" points="556,-673.5 685,-673.5 "/>
<text text-anchor="start" x="564" y="-661.5" font-family="Helvetica,sans-Serif" font-size="10.00" fill="#000000">&#45; addresses</text>
<polyline fill="none" stroke="#000000" points="556,-654.5 685,-654.5 "/>
<text text-anchor="start" x="564" y="-642.5" font-family="Helvetica,sans-Serif" font-size="10.00" fill="#000000">* MIDIAddress()</text>
<text text-anchor="start" x="564" y="-631.5" font-family="Helvetica,sans-Serif" font-size="10.00" fill="#000000">* MIDIAddress()</text>
<text text-anchor="start" x="564" y="-620.5" font-family="Helvetica,sans-Serif" font-size="10.00" fill="#000000">* MIDIAddress()</text>
<text text-anchor="start" x="564" y="-609.5" font-family="Helvetica,sans-Serif" font-size="10.00" fill="#000000">* MIDIAddress()</text>
<text text-anchor="start" x="564" y="-598.5" font-family="Helvetica,sans-Serif" font-size="10.00" fill="#000000">* MIDIAddress()</text>
<text text-anchor="start" x="564" y="-587.5" font-family="Helvetica,sans-Serif" font-size="10.00" fill="#000000">* invalid()</text>
<text text-anchor="start" x="564" y="-576.5" font-family="Helvetica,sans-Serif" font-size="10.00" fill="#000000">* operator+=()</text>
<text text-anchor="start" x="564" y="-565.5" font-family="Helvetica,sans-Serif" font-size="10.00" fill="#000000">* operator&#45;=()</text>
<text text-anchor="start" x="564" y="-554.5" font-family="Helvetica,sans-Serif" font-size="10.00" fill="#000000">* operator+()</text>
<text text-anchor="start" x="564" y="-543.5" font-family="Helvetica,sans-Serif" font-size="10.00" fill="#000000">* operator&#45;()</text>
<text text-anchor="start" x="564" y="-532.5" font-family="Helvetica,sans-Serif" font-size="10.00" fill="#000000">* getAddress()</text>
<text text-anchor="start" x="564" y="-521.5" font-family="Helvetica,sans-Serif" font-size="10.00" fill="#000000">* getChannel()</text>
<text text-anchor="start" x="564" y="-510.5" font-family="Helvetica,sans-Serif" font-size="10.00" fill="#000000">* getRawChannel()</text>
<text text-anchor="start" x="564" y="-499.5" font-family="Helvetica,sans-Serif" font-size="10.00" fill="#000000">* getCableNumber()</text>
<text text-anchor="start" x="564" y="-488.5" font-family="Helvetica,sans-Serif" font-size="10.00" fill="#000000">* operator==()</text>
<text text-anchor="start" x="564" y="-477.5" font-family="Helvetica,sans-Serif" font-size="10.00" fill="#000000">* operator!=()</text>
<text text-anchor="start" x="564" y="-466.5" font-family="Helvetica,sans-Serif" font-size="10.00" fill="#000000">* isValid()</text>
<text text-anchor="start" x="564" y="-455.5" font-family="Helvetica,sans-Serif" font-size="10.00" fill="#000000">* operator bool()</text>
<text text-anchor="start" x="564" y="-444.5" font-family="Helvetica,sans-Serif" font-size="10.00" fill="#000000">* matchSingle()</text>
<text text-anchor="start" x="564" y="-433.5" font-family="Helvetica,sans-Serif" font-size="10.00" fill="#000000">* matchAddressInRange()</text>
</a>
</g>
</g>
<!-- Node12&#45;&gt;Node8 -->
<g id="edge11" class="edge">
<title>Node12&#45;&gt;Node8</title>
<path fill="none" stroke="#404040" d="M555.8415,-442.1081C552.7058,-436.6503 549.5811,-431.2588 546.5,-426 536.1523,-408.3384 524.4696,-389.2198 513.9447,-372.2772"/>
<polygon fill="none" stroke="#404040" points="513.9121,-372.2248 507.3434,-369.2495 507.5634,-362.0417 514.1321,-365.017 513.9121,-372.2248"/>
<text text-anchor="middle" x="556" y="-400" font-family="Helvetica,sans-Serif" font-size="10.00" fill="#000000"> &#45;address</text>
</g>
</g>
</svg>
