<?xml version="1.0" encoding="UTF-8" standalone="no"?>
<!DOCTYPE svg PUBLIC "-//W3C//DTD SVG 1.1//EN"
 "http://www.w3.org/Graphics/SVG/1.1/DTD/svg11.dtd">
<!-- Generated by graphviz version 2.43.0 (0)
 -->
<!-- Title: BankSettingChangeCallback Pages: 1 -->
<svg width="1418pt" height="816pt"
 viewBox="0.00 0.00 1417.50 816.00" xmlns="http://www.w3.org/2000/svg" xmlns:xlink="http://www.w3.org/1999/xlink">
<g id="graph0" class="graph" transform="scale(1 1) rotate(0) translate(4 812)">
<title>BankSettingChangeCallback</title>
<polygon fill="white" stroke="transparent" points="-4,4 -4,-812 1413.5,-812 1413.5,4 -4,4"/>
<!-- Node1 -->
<g id="node1" class="node">
<title>Node1</title>
<g id="a_node1"><a xlink:title="Callback class for Bankable objects that need to be notified when the active setting of their Bank ch...">
<polygon fill="#bfbfbf" stroke="black" points="606,-634.5 606,-691.5 761,-691.5 761,-634.5 606,-634.5"/>
<text text-anchor="middle" x="683.5" y="-679.5" font-family="Helvetica,sans-Serif" font-size="10.00">BankSettingChangeCallback</text>
<polyline fill="none" stroke="black" points="606,-672.5 761,-672.5 "/>
<text text-anchor="middle" x="683.5" y="-660.5" font-family="Helvetica,sans-Serif" font-size="10.00"> </text>
<polyline fill="none" stroke="black" points="606,-653.5 761,-653.5 "/>
<text text-anchor="start" x="614" y="-641.5" font-family="Helvetica,sans-Serif" font-size="10.00">&#45; onBankSettingChange()</text>
</a>
</g>
</g>
<!-- Node3 -->
<g id="node3" class="node">
<title>Node3</title>
<g id="a_node3"><a xlink:href="../../d9/dc0/classBankableMatchingMIDIInputElement.html" target="_top" xlink:title=" ">
<polygon fill="white" stroke="black" points="0,-474.5 0,-586.5 173,-586.5 173,-474.5 0,-474.5"/>
<text text-anchor="start" x="8" y="-574.5" font-family="Helvetica,sans-Serif" font-size="10.00">BankableMatchingMIDIInput</text>
<text text-anchor="middle" x="86.5" y="-563.5" font-family="Helvetica,sans-Serif" font-size="10.00">Element&lt; Type, Matcher &gt;</text>
<polyline fill="none" stroke="black" points="0,-556.5 173,-556.5 "/>
<text text-anchor="middle" x="86.5" y="-544.5" font-family="Helvetica,sans-Serif" font-size="10.00"> </text>
<polyline fill="none" stroke="black" points="0,-537.5 173,-537.5 "/>
<text text-anchor="start" x="8" y="-525.5" font-family="Helvetica,sans-Serif" font-size="10.00">+ ~BankableMatchingMIDIInput</text>
<text text-anchor="start" x="8" y="-514.5" font-family="Helvetica,sans-Serif" font-size="10.00">Element()</text>
<text text-anchor="start" x="8" y="-503.5" font-family="Helvetica,sans-Serif" font-size="10.00"># BankableMatchingMIDIInput</text>
<text text-anchor="start" x="8" y="-492.5" font-family="Helvetica,sans-Serif" font-size="10.00">Element()</text>
<text text-anchor="start" x="8" y="-481.5" font-family="Helvetica,sans-Serif" font-size="10.00"># getActiveBank()</text>
</a>
</g>
</g>
<!-- Node1&#45;&gt;Node3 -->
<g id="edge2" class="edge">
<title>Node1&#45;&gt;Node3</title>
<path fill="none" stroke="midnightblue" d="M595.42,-655.88C472.15,-646.44 255.03,-626.42 181.5,-598 173.43,-594.88 165.38,-590.93 157.59,-586.52"/>
<polygon fill="none" stroke="midnightblue" points="595.35,-659.38 605.59,-656.65 595.88,-652.4 595.35,-659.38"/>
</g>
<!-- Node4 -->
<g id="node4" class="node">
<title>Node4</title>
<g id="a_node4"><a xlink:href="../../d9/dc0/classBankableMatchingMIDIInputElement.html" target="_top" xlink:title=" ">
<polygon fill="white" stroke="black" points="191,-463.5 191,-597.5 422,-597.5 422,-463.5 191,-463.5"/>
<text text-anchor="start" x="199" y="-585.5" font-family="Helvetica,sans-Serif" font-size="10.00">BankableMatchingMIDIInput</text>
<text text-anchor="start" x="199" y="-574.5" font-family="Helvetica,sans-Serif" font-size="10.00">Element&lt; MIDIMessageType</text>
<text text-anchor="start" x="199" y="-563.5" font-family="Helvetica,sans-Serif" font-size="10.00">::CHANNEL_PRESSURE, BankableVUMatcher</text>
<text text-anchor="middle" x="306.5" y="-552.5" font-family="Helvetica,sans-Serif" font-size="10.00">&lt; BankSize &gt; &gt;</text>
<polyline fill="none" stroke="black" points="191,-545.5 422,-545.5 "/>
<text text-anchor="middle" x="306.5" y="-533.5" font-family="Helvetica,sans-Serif" font-size="10.00"> </text>
<polyline fill="none" stroke="black" points="191,-526.5 422,-526.5 "/>
<text text-anchor="start" x="199" y="-514.5" font-family="Helvetica,sans-Serif" font-size="10.00">+ ~BankableMatchingMIDIInput</text>
<text text-anchor="start" x="199" y="-503.5" font-family="Helvetica,sans-Serif" font-size="10.00">Element()</text>
<text text-anchor="start" x="199" y="-492.5" font-family="Helvetica,sans-Serif" font-size="10.00"># BankableMatchingMIDIInput</text>
<text text-anchor="start" x="199" y="-481.5" font-family="Helvetica,sans-Serif" font-size="10.00">Element()</text>
<text text-anchor="start" x="199" y="-470.5" font-family="Helvetica,sans-Serif" font-size="10.00"># getActiveBank()</text>
</a>
</g>
</g>
<!-- Node1&#45;&gt;Node4 -->
<g id="edge3" class="edge">
<title>Node1&#45;&gt;Node4</title>
<path fill="none" stroke="midnightblue" d="M595.94,-645.19C546.72,-634.4 484.68,-618.55 431.5,-598 428.4,-596.8 425.29,-595.55 422.16,-594.24"/>
<polygon fill="none" stroke="midnightblue" points="595.41,-648.65 605.92,-647.35 596.89,-641.81 595.41,-648.65"/>
</g>
<!-- Node7 -->
<g id="node7" class="node">
<title>Node7</title>
<g id="a_node7"><a xlink:href="../../d9/dc0/classBankableMatchingMIDIInputElement.html" target="_top" xlink:title=" ">
<polygon fill="white" stroke="black" points="440.5,-463.5 440.5,-597.5 670.5,-597.5 670.5,-463.5 440.5,-463.5"/>
<text text-anchor="start" x="448.5" y="-585.5" font-family="Helvetica,sans-Serif" font-size="10.00">BankableMatchingMIDIInput</text>
<text text-anchor="start" x="448.5" y="-574.5" font-family="Helvetica,sans-Serif" font-size="10.00">Element&lt; MIDIMessageType</text>
<text text-anchor="start" x="448.5" y="-563.5" font-family="Helvetica,sans-Serif" font-size="10.00">::CONTROL_CHANGE, BankableVPotMatcher</text>
<text text-anchor="middle" x="555.5" y="-552.5" font-family="Helvetica,sans-Serif" font-size="10.00">&lt; BankSize &gt; &gt;</text>
<polyline fill="none" stroke="black" points="440.5,-545.5 670.5,-545.5 "/>
<text text-anchor="middle" x="555.5" y="-533.5" font-family="Helvetica,sans-Serif" font-size="10.00"> </text>
<polyline fill="none" stroke="black" points="440.5,-526.5 670.5,-526.5 "/>
<text text-anchor="start" x="448.5" y="-514.5" font-family="Helvetica,sans-Serif" font-size="10.00">+ ~BankableMatchingMIDIInput</text>
<text text-anchor="start" x="448.5" y="-503.5" font-family="Helvetica,sans-Serif" font-size="10.00">Element()</text>
<text text-anchor="start" x="448.5" y="-492.5" font-family="Helvetica,sans-Serif" font-size="10.00"># BankableMatchingMIDIInput</text>
<text text-anchor="start" x="448.5" y="-481.5" font-family="Helvetica,sans-Serif" font-size="10.00">Element()</text>
<text text-anchor="start" x="448.5" y="-470.5" font-family="Helvetica,sans-Serif" font-size="10.00"># getActiveBank()</text>
</a>
</g>
</g>
<!-- Node1&#45;&gt;Node7 -->
<g id="edge6" class="edge">
<title>Node1&#45;&gt;Node7</title>
<path fill="none" stroke="midnightblue" d="M649.1,-626.92C640.15,-617.81 630.22,-607.68 620.27,-597.53"/>
<polygon fill="none" stroke="midnightblue" points="646.85,-629.64 656.35,-634.32 651.85,-624.73 646.85,-629.64"/>
</g>
<!-- Node10 -->
<g id="node10" class="node">
<title>Node10</title>
<g id="a_node10"><a xlink:href="../../d9/dc0/classBankableMatchingMIDIInputElement.html" target="_top" xlink:title=" ">
<polygon fill="white" stroke="black" points="688.5,-463.5 688.5,-597.5 934.5,-597.5 934.5,-463.5 688.5,-463.5"/>
<text text-anchor="start" x="696.5" y="-585.5" font-family="Helvetica,sans-Serif" font-size="10.00">BankableMatchingMIDIInput</text>
<text text-anchor="start" x="696.5" y="-574.5" font-family="Helvetica,sans-Serif" font-size="10.00">Element&lt; MIDIMessageType</text>
<text text-anchor="start" x="696.5" y="-563.5" font-family="Helvetica,sans-Serif" font-size="10.00">::PITCH_BEND, BankablePitchBendMIDIMatcher</text>
<text text-anchor="middle" x="811.5" y="-552.5" font-family="Helvetica,sans-Serif" font-size="10.00">&lt; BankSize &gt; &gt;</text>
<polyline fill="none" stroke="black" points="688.5,-545.5 934.5,-545.5 "/>
<text text-anchor="middle" x="811.5" y="-533.5" font-family="Helvetica,sans-Serif" font-size="10.00"> </text>
<polyline fill="none" stroke="black" points="688.5,-526.5 934.5,-526.5 "/>
<text text-anchor="start" x="696.5" y="-514.5" font-family="Helvetica,sans-Serif" font-size="10.00">+ ~BankableMatchingMIDIInput</text>
<text text-anchor="start" x="696.5" y="-503.5" font-family="Helvetica,sans-Serif" font-size="10.00">Element()</text>
<text text-anchor="start" x="696.5" y="-492.5" font-family="Helvetica,sans-Serif" font-size="10.00"># BankableMatchingMIDIInput</text>
<text text-anchor="start" x="696.5" y="-481.5" font-family="Helvetica,sans-Serif" font-size="10.00">Element()</text>
<text text-anchor="start" x="696.5" y="-470.5" font-family="Helvetica,sans-Serif" font-size="10.00"># getActiveBank()</text>
</a>
</g>
</g>
<!-- Node1&#45;&gt;Node10 -->
<g id="edge9" class="edge">
<title>Node1&#45;&gt;Node10</title>
<path fill="none" stroke="midnightblue" d="M717.9,-626.92C726.85,-617.81 736.78,-607.68 746.73,-597.53"/>
<polygon fill="none" stroke="midnightblue" points="715.15,-624.73 710.65,-634.32 720.15,-629.64 715.15,-624.73"/>
</g>
<!-- Node12 -->
<g id="node12" class="node">
<title>Node12</title>
<g id="a_node12"><a xlink:href="../../d9/dc0/classBankableMatchingMIDIInputElement.html" target="_top" xlink:title=" ">
<polygon fill="white" stroke="black" points="953,-469 953,-592 1136,-592 1136,-469 953,-469"/>
<text text-anchor="start" x="961" y="-580" font-family="Helvetica,sans-Serif" font-size="10.00">BankableMatchingMIDIInput</text>
<text text-anchor="start" x="961" y="-569" font-family="Helvetica,sans-Serif" font-size="10.00">Element&lt; Type, BankableTwoByte</text>
<text text-anchor="middle" x="1044.5" y="-558" font-family="Helvetica,sans-Serif" font-size="10.00">MIDIMatcher&lt; BankSize &gt; &gt;</text>
<polyline fill="none" stroke="black" points="953,-551 1136,-551 "/>
<text text-anchor="middle" x="1044.5" y="-539" font-family="Helvetica,sans-Serif" font-size="10.00"> </text>
<polyline fill="none" stroke="black" points="953,-532 1136,-532 "/>
<text text-anchor="start" x="961" y="-520" font-family="Helvetica,sans-Serif" font-size="10.00">+ ~BankableMatchingMIDIInput</text>
<text text-anchor="start" x="961" y="-509" font-family="Helvetica,sans-Serif" font-size="10.00">Element()</text>
<text text-anchor="start" x="961" y="-498" font-family="Helvetica,sans-Serif" font-size="10.00"># BankableMatchingMIDIInput</text>
<text text-anchor="start" x="961" y="-487" font-family="Helvetica,sans-Serif" font-size="10.00">Element()</text>
<text text-anchor="start" x="961" y="-476" font-family="Helvetica,sans-Serif" font-size="10.00"># getActiveBank()</text>
</a>
</g>
</g>
<!-- Node1&#45;&gt;Node12 -->
<g id="edge11" class="edge">
<title>Node1&#45;&gt;Node12</title>
<path fill="none" stroke="midnightblue" d="M771.23,-648.13C822.81,-638.1 888.49,-622.03 943.5,-598 947.64,-596.19 951.79,-594.22 955.93,-592.12"/>
<polygon fill="none" stroke="midnightblue" points="770.28,-644.75 761.11,-650.06 771.59,-651.62 770.28,-644.75"/>
</g>
<!-- Node17 -->
<g id="node17" class="node">
<title>Node17</title>
<g id="a_node17"><a xlink:href="../../d9/dc0/classBankableMatchingMIDIInputElement.html" target="_top" xlink:title=" ">
<polygon fill="white" stroke="black" points="1219.5,-469 1219.5,-592 1407.5,-592 1407.5,-469 1219.5,-469"/>
<text text-anchor="start" x="1227.5" y="-580" font-family="Helvetica,sans-Serif" font-size="10.00">BankableMatchingMIDIInput</text>
<text text-anchor="start" x="1227.5" y="-569" font-family="Helvetica,sans-Serif" font-size="10.00">Element&lt; Type, BankableTwoByte</text>
<text text-anchor="middle" x="1313.5" y="-558" font-family="Helvetica,sans-Serif" font-size="10.00">RangeMIDIMatcher&lt; BankSize &gt; &gt;</text>
<polyline fill="none" stroke="black" points="1219.5,-551 1407.5,-551 "/>
<text text-anchor="middle" x="1313.5" y="-539" font-family="Helvetica,sans-Serif" font-size="10.00"> </text>
<polyline fill="none" stroke="black" points="1219.5,-532 1407.5,-532 "/>
<text text-anchor="start" x="1227.5" y="-520" font-family="Helvetica,sans-Serif" font-size="10.00">+ ~BankableMatchingMIDIInput</text>
<text text-anchor="start" x="1227.5" y="-509" font-family="Helvetica,sans-Serif" font-size="10.00">Element()</text>
<text text-anchor="start" x="1227.5" y="-498" font-family="Helvetica,sans-Serif" font-size="10.00"># BankableMatchingMIDIInput</text>
<text text-anchor="start" x="1227.5" y="-487" font-family="Helvetica,sans-Serif" font-size="10.00">Element()</text>
<text text-anchor="start" x="1227.5" y="-476" font-family="Helvetica,sans-Serif" font-size="10.00"># getActiveBank()</text>
</a>
</g>
</g>
<!-- Node1&#45;&gt;Node17 -->
<g id="edge16" class="edge">
<title>Node1&#45;&gt;Node17</title>
<path fill="none" stroke="midnightblue" d="M771.27,-656.03C864.93,-648.23 1017.05,-631.41 1144.5,-598 1169.2,-591.52 1195.19,-582.49 1219.18,-573.16"/>
<polygon fill="none" stroke="midnightblue" points="770.95,-652.55 761.27,-656.85 771.52,-659.52 770.95,-652.55"/>
</g>
<!-- Node2 -->
<g id="node2" class="node">
<title>Node2</title>
<g id="a_node2"><a xlink:href="../../d4/d23/classDoublyLinkable.html" target="_top" xlink:title=" ">
<polygon fill="white" stroke="black" points="602.5,-728.5 602.5,-807.5 764.5,-807.5 764.5,-728.5 602.5,-728.5"/>
<text text-anchor="start" x="610.5" y="-795.5" font-family="Helvetica,sans-Serif" font-size="10.00">DoublyLinkable&lt; BankSetting</text>
<text text-anchor="middle" x="683.5" y="-784.5" font-family="Helvetica,sans-Serif" font-size="10.00">ChangeCallback &gt;</text>
<polyline fill="none" stroke="black" points="602.5,-777.5 764.5,-777.5 "/>
<text text-anchor="start" x="610.5" y="-765.5" font-family="Helvetica,sans-Serif" font-size="10.00"># next</text>
<text text-anchor="start" x="610.5" y="-754.5" font-family="Helvetica,sans-Serif" font-size="10.00"># previous</text>
<polyline fill="none" stroke="black" points="602.5,-747.5 764.5,-747.5 "/>
<text text-anchor="start" x="610.5" y="-735.5" font-family="Helvetica,sans-Serif" font-size="10.00"># ~DoublyLinkable()</text>
</a>
</g>
</g>
<!-- Node2&#45;&gt;Node1 -->
<g id="edge1" class="edge">
<title>Node2&#45;&gt;Node1</title>
<path fill="none" stroke="midnightblue" d="M683.5,-718.16C683.5,-709.04 683.5,-699.81 683.5,-691.61"/>
<polygon fill="none" stroke="midnightblue" points="680,-718.35 683.5,-728.35 687,-718.35 680,-718.35"/>
</g>
<!-- Node5 -->
<g id="node5" class="node">
<title>Node5</title>
<g id="a_node5"><a xlink:href="../../d0/d43/classMCU_1_1Bankable_1_1VU.html" target="_top" xlink:title="A MIDI input element that represents a Mackie Control Universal VU meter.">
<polygon fill="white" stroke="black" points="235,-215.5 235,-404.5 378,-404.5 378,-215.5 235,-215.5"/>
<text text-anchor="middle" x="306.5" y="-392.5" font-family="Helvetica,sans-Serif" font-size="10.00">VU&lt; BankSize &gt;</text>
<polyline fill="none" stroke="black" points="235,-385.5 378,-385.5 "/>
<text text-anchor="start" x="243" y="-373.5" font-family="Helvetica,sans-Serif" font-size="10.00">&#45; states</text>
<text text-anchor="start" x="243" y="-362.5" font-family="Helvetica,sans-Serif" font-size="10.00">&#45; decayTimer</text>
<polyline fill="none" stroke="black" points="235,-355.5 378,-355.5 "/>
<text text-anchor="start" x="243" y="-343.5" font-family="Helvetica,sans-Serif" font-size="10.00">+ VU()</text>
<text text-anchor="start" x="243" y="-332.5" font-family="Helvetica,sans-Serif" font-size="10.00">+ VU()</text>
<text text-anchor="start" x="243" y="-321.5" font-family="Helvetica,sans-Serif" font-size="10.00">+ reset()</text>
<text text-anchor="start" x="243" y="-310.5" font-family="Helvetica,sans-Serif" font-size="10.00">+ update()</text>
<text text-anchor="start" x="243" y="-299.5" font-family="Helvetica,sans-Serif" font-size="10.00"># handleUpdate()</text>
<text text-anchor="start" x="243" y="-288.5" font-family="Helvetica,sans-Serif" font-size="10.00"># onBankSettingChange()</text>
<text text-anchor="start" x="243" y="-277.5" font-family="Helvetica,sans-Serif" font-size="10.00">* getValue()</text>
<text text-anchor="start" x="243" y="-266.5" font-family="Helvetica,sans-Serif" font-size="10.00">* getOverload()</text>
<text text-anchor="start" x="243" y="-255.5" font-family="Helvetica,sans-Serif" font-size="10.00">* getFloatValue()</text>
<text text-anchor="start" x="243" y="-244.5" font-family="Helvetica,sans-Serif" font-size="10.00">* getValue()</text>
<text text-anchor="start" x="243" y="-233.5" font-family="Helvetica,sans-Serif" font-size="10.00">* getOverload()</text>
<text text-anchor="start" x="243" y="-222.5" font-family="Helvetica,sans-Serif" font-size="10.00">* getFloatValue()</text>
</a>
</g>
</g>
<!-- Node4&#45;&gt;Node5 -->
<g id="edge4" class="edge">
<title>Node4&#45;&gt;Node5</title>
<path fill="none" stroke="midnightblue" d="M306.5,-453.22C306.5,-437.57 306.5,-420.92 306.5,-404.73"/>
<polygon fill="none" stroke="midnightblue" points="303,-453.35 306.5,-463.35 310,-453.35 303,-453.35"/>
</g>
<!-- Node6 -->
<g id="node6" class="node">
<title>Node6</title>
<g id="a_node6"><a xlink:href="../../db/d17/classMCU_1_1Bankable_1_1VULEDs.html" target="_top" xlink:title="A MIDI input element that represents a Mackie Control Universal VU meter and displays its value using...">
<polygon fill="white" stroke="black" points="245.5,-17 245.5,-140 367.5,-140 367.5,-17 245.5,-17"/>
<text text-anchor="middle" x="306.5" y="-128" font-family="Helvetica,sans-Serif" font-size="10.00">VULEDs&lt; BankSize &gt;</text>
<polyline fill="none" stroke="black" points="245.5,-121 367.5,-121 "/>
<text text-anchor="middle" x="306.5" y="-109" font-family="Helvetica,sans-Serif" font-size="10.00"> </text>
<polyline fill="none" stroke="black" points="245.5,-102 367.5,-102 "/>
<text text-anchor="start" x="253.5" y="-90" font-family="Helvetica,sans-Serif" font-size="10.00">+ VULEDs()</text>
<text text-anchor="start" x="253.5" y="-79" font-family="Helvetica,sans-Serif" font-size="10.00">+ VULEDs()</text>
<text text-anchor="start" x="253.5" y="-68" font-family="Helvetica,sans-Serif" font-size="10.00">+ begin()</text>
<text text-anchor="start" x="253.5" y="-57" font-family="Helvetica,sans-Serif" font-size="10.00">+ reset()</text>
<text text-anchor="start" x="253.5" y="-46" font-family="Helvetica,sans-Serif" font-size="10.00">+ update()</text>
<text text-anchor="start" x="253.5" y="-35" font-family="Helvetica,sans-Serif" font-size="10.00"># handleUpdate()</text>
<text text-anchor="start" x="253.5" y="-24" font-family="Helvetica,sans-Serif" font-size="10.00"># updateDisplay()</text>
</a>
</g>
</g>
<!-- Node5&#45;&gt;Node6 -->
<g id="edge5" class="edge">
<title>Node5&#45;&gt;Node6</title>
<path fill="none" stroke="midnightblue" d="M306.5,-205.14C306.5,-182.85 306.5,-160.02 306.5,-140.03"/>
<polygon fill="none" stroke="midnightblue" points="303,-205.32 306.5,-215.32 310,-205.32 303,-205.32"/>
</g>
<!-- Node8 -->
<g id="node8" class="node">
<title>Node8</title>
<g id="a_node8"><a xlink:href="../../da/d93/classMCU_1_1Bankable_1_1VPotRing.html" target="_top" xlink:title="A MIDI input element that represents a Mackie Control Universal VPot ring.">
<polygon fill="white" stroke="black" points="484,-193.5 484,-426.5 627,-426.5 627,-193.5 484,-193.5"/>
<text text-anchor="middle" x="555.5" y="-414.5" font-family="Helvetica,sans-Serif" font-size="10.00">VPotRing&lt; BankSize &gt;</text>
<polyline fill="none" stroke="black" points="484,-407.5 627,-407.5 "/>
<text text-anchor="start" x="492" y="-395.5" font-family="Helvetica,sans-Serif" font-size="10.00">+ ignoreReset</text>
<text text-anchor="start" x="492" y="-384.5" font-family="Helvetica,sans-Serif" font-size="10.00">&#45; states</text>
<polyline fill="none" stroke="black" points="484,-377.5 627,-377.5 "/>
<text text-anchor="start" x="492" y="-365.5" font-family="Helvetica,sans-Serif" font-size="10.00">+ VPotRing()</text>
<text text-anchor="start" x="492" y="-354.5" font-family="Helvetica,sans-Serif" font-size="10.00">+ reset()</text>
<text text-anchor="start" x="492" y="-343.5" font-family="Helvetica,sans-Serif" font-size="10.00"># handleUpdate()</text>
<text text-anchor="start" x="492" y="-332.5" font-family="Helvetica,sans-Serif" font-size="10.00"># onBankSettingChange()</text>
<text text-anchor="start" x="492" y="-321.5" font-family="Helvetica,sans-Serif" font-size="10.00">* getState()</text>
<text text-anchor="start" x="492" y="-310.5" font-family="Helvetica,sans-Serif" font-size="10.00">* getPosition()</text>
<text text-anchor="start" x="492" y="-299.5" font-family="Helvetica,sans-Serif" font-size="10.00">* getCenterLed()</text>
<text text-anchor="start" x="492" y="-288.5" font-family="Helvetica,sans-Serif" font-size="10.00">* getMode()</text>
<text text-anchor="start" x="492" y="-277.5" font-family="Helvetica,sans-Serif" font-size="10.00">* getStartOn()</text>
<text text-anchor="start" x="492" y="-266.5" font-family="Helvetica,sans-Serif" font-size="10.00">* getStartOff()</text>
<text text-anchor="start" x="492" y="-255.5" font-family="Helvetica,sans-Serif" font-size="10.00">* getState()</text>
<text text-anchor="start" x="492" y="-244.5" font-family="Helvetica,sans-Serif" font-size="10.00">* getPosition()</text>
<text text-anchor="start" x="492" y="-233.5" font-family="Helvetica,sans-Serif" font-size="10.00">* getCenterLed()</text>
<text text-anchor="start" x="492" y="-222.5" font-family="Helvetica,sans-Serif" font-size="10.00">* getMode()</text>
<text text-anchor="start" x="492" y="-211.5" font-family="Helvetica,sans-Serif" font-size="10.00">* getStartOn()</text>
<text text-anchor="start" x="492" y="-200.5" font-family="Helvetica,sans-Serif" font-size="10.00">* getStartOff()</text>
</a>
</g>
</g>
<!-- Node7&#45;&gt;Node8 -->
<g id="edge7" class="edge">
<title>Node7&#45;&gt;Node8</title>
<path fill="none" stroke="midnightblue" d="M555.5,-453.32C555.5,-444.65 555.5,-435.67 555.5,-426.63"/>
<polygon fill="none" stroke="midnightblue" points="552,-453.35 555.5,-463.35 559,-453.35 552,-453.35"/>
</g>
<!-- Node9 -->
<g id="node9" class="node">
<title>Node9</title>
<g id="a_node9"><a xlink:href="../../d2/d89/classMCU_1_1Bankable_1_1VPotRingLEDs.html" target="_top" xlink:title="A MIDI input element that represents a Mackie Control Universal VPot ring and displays its value usin...">
<polygon fill="white" stroke="black" points="479.5,-22.5 479.5,-134.5 631.5,-134.5 631.5,-22.5 479.5,-22.5"/>
<text text-anchor="middle" x="555.5" y="-122.5" font-family="Helvetica,sans-Serif" font-size="10.00">VPotRingLEDs&lt; BankSize &gt;</text>
<polyline fill="none" stroke="black" points="479.5,-115.5 631.5,-115.5 "/>
<text text-anchor="middle" x="555.5" y="-103.5" font-family="Helvetica,sans-Serif" font-size="10.00"> </text>
<polyline fill="none" stroke="black" points="479.5,-96.5 631.5,-96.5 "/>
<text text-anchor="start" x="487.5" y="-84.5" font-family="Helvetica,sans-Serif" font-size="10.00">+ VPotRingLEDs()</text>
<text text-anchor="start" x="487.5" y="-73.5" font-family="Helvetica,sans-Serif" font-size="10.00">+ begin()</text>
<text text-anchor="start" x="487.5" y="-62.5" font-family="Helvetica,sans-Serif" font-size="10.00">+ reset()</text>
<text text-anchor="start" x="487.5" y="-51.5" font-family="Helvetica,sans-Serif" font-size="10.00"># handleUpdate()</text>
<text text-anchor="start" x="487.5" y="-40.5" font-family="Helvetica,sans-Serif" font-size="10.00"># updateDisplay()</text>
<text text-anchor="start" x="487.5" y="-29.5" font-family="Helvetica,sans-Serif" font-size="10.00"># onBankSettingChange()</text>
</a>
</g>
</g>
<!-- Node8&#45;&gt;Node9 -->
<g id="edge8" class="edge">
<title>Node8&#45;&gt;Node9</title>
<path fill="none" stroke="midnightblue" d="M555.5,-183.22C555.5,-166.25 555.5,-149.6 555.5,-134.78"/>
<polygon fill="none" stroke="midnightblue" points="552,-183.24 555.5,-193.24 559,-183.24 552,-183.24"/>
</g>
<!-- Node11 -->
<g id="node11" class="node">
<title>Node11</title>
<g id="a_node11"><a xlink:href="../../d1/d78/classBankable_1_1PBValue.html" target="_top" xlink:title="Class that listens for MIDI Pitch Bend events on a single address and saves their value.">
<polygon fill="white" stroke="black" points="740,-248.5 740,-371.5 883,-371.5 883,-248.5 740,-248.5"/>
<text text-anchor="middle" x="811.5" y="-359.5" font-family="Helvetica,sans-Serif" font-size="10.00">PBValue&lt; BankSize &gt;</text>
<polyline fill="none" stroke="black" points="740,-352.5 883,-352.5 "/>
<text text-anchor="start" x="748" y="-340.5" font-family="Helvetica,sans-Serif" font-size="10.00">+ MessageType</text>
<text text-anchor="start" x="748" y="-329.5" font-family="Helvetica,sans-Serif" font-size="10.00">&#45; values</text>
<polyline fill="none" stroke="black" points="740,-322.5 883,-322.5 "/>
<text text-anchor="start" x="748" y="-310.5" font-family="Helvetica,sans-Serif" font-size="10.00">+ PBValue()</text>
<text text-anchor="start" x="748" y="-299.5" font-family="Helvetica,sans-Serif" font-size="10.00">+ reset()</text>
<text text-anchor="start" x="748" y="-288.5" font-family="Helvetica,sans-Serif" font-size="10.00"># handleUpdate()</text>
<text text-anchor="start" x="748" y="-277.5" font-family="Helvetica,sans-Serif" font-size="10.00"># onBankSettingChange()</text>
<text text-anchor="start" x="748" y="-266.5" font-family="Helvetica,sans-Serif" font-size="10.00">* getValue()</text>
<text text-anchor="start" x="748" y="-255.5" font-family="Helvetica,sans-Serif" font-size="10.00">* getValue()</text>
</a>
</g>
</g>
<!-- Node10&#45;&gt;Node11 -->
<g id="edge10" class="edge">
<title>Node10&#45;&gt;Node11</title>
<path fill="none" stroke="midnightblue" d="M811.5,-453.27C811.5,-426.57 811.5,-396.97 811.5,-371.71"/>
<polygon fill="none" stroke="midnightblue" points="808,-453.35 811.5,-463.35 815,-453.35 808,-453.35"/>
</g>
<!-- Node13 -->
<g id="node13" class="node">
<title>Node13</title>
<g id="a_node13"><a xlink:href="../../d5/dcd/classBankable_1_1NoteCCKPValue.html" target="_top" xlink:title="Generic base class for classes that listen for MIDI Note, Control Change and Key Pressure events on a...">
<polygon fill="white" stroke="black" points="941,-248.5 941,-371.5 1084,-371.5 1084,-248.5 941,-248.5"/>
<text text-anchor="start" x="949" y="-359.5" font-family="Helvetica,sans-Serif" font-size="10.00">NoteCCKPValue&lt; Type,</text>
<text text-anchor="middle" x="1012.5" y="-348.5" font-family="Helvetica,sans-Serif" font-size="10.00"> BankSize &gt;</text>
<polyline fill="none" stroke="black" points="941,-341.5 1084,-341.5 "/>
<text text-anchor="start" x="949" y="-329.5" font-family="Helvetica,sans-Serif" font-size="10.00">&#45; values</text>
<polyline fill="none" stroke="black" points="941,-322.5 1084,-322.5 "/>
<text text-anchor="start" x="949" y="-310.5" font-family="Helvetica,sans-Serif" font-size="10.00">+ NoteCCKPValue()</text>
<text text-anchor="start" x="949" y="-299.5" font-family="Helvetica,sans-Serif" font-size="10.00">+ reset()</text>
<text text-anchor="start" x="949" y="-288.5" font-family="Helvetica,sans-Serif" font-size="10.00"># handleUpdate()</text>
<text text-anchor="start" x="949" y="-277.5" font-family="Helvetica,sans-Serif" font-size="10.00"># onBankSettingChange()</text>
<text text-anchor="start" x="949" y="-266.5" font-family="Helvetica,sans-Serif" font-size="10.00">* getValue()</text>
<text text-anchor="start" x="949" y="-255.5" font-family="Helvetica,sans-Serif" font-size="10.00">* getValue()</text>
</a>
</g>
</g>
<!-- Node12&#45;&gt;Node13 -->
<g id="edge12" class="edge">
<title>Node12&#45;&gt;Node13</title>
<path fill="none" stroke="midnightblue" d="M1034.14,-458.77C1030.03,-430.68 1025.34,-398.7 1021.39,-371.69"/>
<polygon fill="none" stroke="midnightblue" points="1030.72,-459.54 1035.63,-468.93 1037.64,-458.52 1030.72,-459.54"/>
</g>
<!-- Node14 -->
<g id="node14" class="node">
<title>Node14</title>
<g id="a_node14"><a xlink:href="../../d5/d3a/classBankable_1_1NoteCCKPLED.html" target="_top" xlink:title="Generic base class for classes that listen for MIDI Note, Control Change and Key Pressure events on a...">
<polygon fill="white" stroke="black" points="762,-0.5 762,-156.5 905,-156.5 905,-0.5 762,-0.5"/>
<text text-anchor="start" x="770" y="-144.5" font-family="Helvetica,sans-Serif" font-size="10.00">NoteCCKPLED&lt; Type,</text>
<text text-anchor="middle" x="833.5" y="-133.5" font-family="Helvetica,sans-Serif" font-size="10.00"> BankSize &gt;</text>
<polyline fill="none" stroke="black" points="762,-126.5 905,-126.5 "/>
<text text-anchor="start" x="770" y="-114.5" font-family="Helvetica,sans-Serif" font-size="10.00">&#45; ledPin</text>
<text text-anchor="start" x="770" y="-103.5" font-family="Helvetica,sans-Serif" font-size="10.00">&#45; threshold</text>
<polyline fill="none" stroke="black" points="762,-96.5 905,-96.5 "/>
<text text-anchor="start" x="770" y="-84.5" font-family="Helvetica,sans-Serif" font-size="10.00">+ NoteCCKPLED()</text>
<text text-anchor="start" x="770" y="-73.5" font-family="Helvetica,sans-Serif" font-size="10.00">+ begin()</text>
<text text-anchor="start" x="770" y="-62.5" font-family="Helvetica,sans-Serif" font-size="10.00">+ reset()</text>
<text text-anchor="start" x="770" y="-51.5" font-family="Helvetica,sans-Serif" font-size="10.00">+ getThreshold()</text>
<text text-anchor="start" x="770" y="-40.5" font-family="Helvetica,sans-Serif" font-size="10.00">+ setThreshold()</text>
<text text-anchor="start" x="770" y="-29.5" font-family="Helvetica,sans-Serif" font-size="10.00"># handleUpdate()</text>
<text text-anchor="start" x="770" y="-18.5" font-family="Helvetica,sans-Serif" font-size="10.00"># display()</text>
<text text-anchor="start" x="770" y="-7.5" font-family="Helvetica,sans-Serif" font-size="10.00"># onBankSettingChange()</text>
</a>
</g>
</g>
<!-- Node13&#45;&gt;Node14 -->
<g id="edge13" class="edge">
<title>Node13&#45;&gt;Node14</title>
<path fill="none" stroke="midnightblue" d="M958.95,-240.34C938.36,-213.94 914.73,-183.64 893.57,-156.51"/>
<polygon fill="none" stroke="midnightblue" points="956.33,-242.67 965.24,-248.4 961.85,-238.36 956.33,-242.67"/>
</g>
<!-- Node15 -->
<g id="node15" class="node">
<title>Node15</title>
<g id="a_node15"><a xlink:href="../../df/d8a/classBankable_1_1NoteCCKPLEDPWM.html" target="_top" xlink:title="Generic base class for classes that listen for MIDI Note, Control Change and Key Pressure events on a...">
<polygon fill="white" stroke="black" points="923.5,-0.5 923.5,-156.5 1069.5,-156.5 1069.5,-0.5 923.5,-0.5"/>
<text text-anchor="start" x="931.5" y="-144.5" font-family="Helvetica,sans-Serif" font-size="10.00">NoteCCKPLEDPWM&lt; Type,</text>
<text text-anchor="middle" x="996.5" y="-133.5" font-family="Helvetica,sans-Serif" font-size="10.00"> BankSize &gt;</text>
<polyline fill="none" stroke="black" points="923.5,-126.5 1069.5,-126.5 "/>
<text text-anchor="start" x="931.5" y="-114.5" font-family="Helvetica,sans-Serif" font-size="10.00">&#45; ledPin</text>
<text text-anchor="start" x="931.5" y="-103.5" font-family="Helvetica,sans-Serif" font-size="10.00">&#45; threshold</text>
<polyline fill="none" stroke="black" points="923.5,-96.5 1069.5,-96.5 "/>
<text text-anchor="start" x="931.5" y="-84.5" font-family="Helvetica,sans-Serif" font-size="10.00">+ NoteCCKPLEDPWM()</text>
<text text-anchor="start" x="931.5" y="-73.5" font-family="Helvetica,sans-Serif" font-size="10.00">+ begin()</text>
<text text-anchor="start" x="931.5" y="-62.5" font-family="Helvetica,sans-Serif" font-size="10.00">+ reset()</text>
<text text-anchor="start" x="931.5" y="-51.5" font-family="Helvetica,sans-Serif" font-size="10.00">+ getThreshold()</text>
<text text-anchor="start" x="931.5" y="-40.5" font-family="Helvetica,sans-Serif" font-size="10.00">+ setThreshold()</text>
<text text-anchor="start" x="931.5" y="-29.5" font-family="Helvetica,sans-Serif" font-size="10.00"># handleUpdate()</text>
<text text-anchor="start" x="931.5" y="-18.5" font-family="Helvetica,sans-Serif" font-size="10.00"># display()</text>
<text text-anchor="start" x="931.5" y="-7.5" font-family="Helvetica,sans-Serif" font-size="10.00"># onBankSettingChange()</text>
</a>
</g>
</g>
<!-- Node13&#45;&gt;Node15 -->
<g id="edge14" class="edge">
<title>Node13&#45;&gt;Node15</title>
<path fill="none" stroke="midnightblue" d="M1007.57,-238.29C1005.76,-212.38 1003.71,-182.94 1001.87,-156.51"/>
<polygon fill="none" stroke="midnightblue" points="1004.09,-238.67 1008.28,-248.4 1011.07,-238.18 1004.09,-238.67"/>
</g>
<!-- Node16 -->
<g id="node16" class="node">
<title>Node16</title>
<g id="a_node16"><a xlink:href="../../dc/d7f/classBankable_1_1NoteCCKPValueBar.html" target="_top" xlink:title=" ">
<polygon fill="white" stroke="black" points="1087.5,-17 1087.5,-140 1233.5,-140 1233.5,-17 1087.5,-17"/>
<text text-anchor="start" x="1095.5" y="-128" font-family="Helvetica,sans-Serif" font-size="10.00">NoteCCKPValueBar&lt; Type,</text>
<text text-anchor="middle" x="1160.5" y="-117" font-family="Helvetica,sans-Serif" font-size="10.00"> BankSize &gt;</text>
<polyline fill="none" stroke="black" points="1087.5,-110 1233.5,-110 "/>
<text text-anchor="middle" x="1160.5" y="-98" font-family="Helvetica,sans-Serif" font-size="10.00"> </text>
<polyline fill="none" stroke="black" points="1087.5,-91 1233.5,-91 "/>
<text text-anchor="start" x="1095.5" y="-79" font-family="Helvetica,sans-Serif" font-size="10.00">+ NoteCCKPValueBar()</text>
<text text-anchor="start" x="1095.5" y="-68" font-family="Helvetica,sans-Serif" font-size="10.00">+ begin()</text>
<text text-anchor="start" x="1095.5" y="-57" font-family="Helvetica,sans-Serif" font-size="10.00">+ reset()</text>
<text text-anchor="start" x="1095.5" y="-46" font-family="Helvetica,sans-Serif" font-size="10.00"># handleUpdate()</text>
<text text-anchor="start" x="1095.5" y="-35" font-family="Helvetica,sans-Serif" font-size="10.00"># updateDisplay()</text>
<text text-anchor="start" x="1095.5" y="-24" font-family="Helvetica,sans-Serif" font-size="10.00"># onBankSettingChange()</text>
</a>
</g>
</g>
<!-- Node13&#45;&gt;Node16 -->
<g id="edge15" class="edge">
<title>Node13&#45;&gt;Node16</title>
<path fill="none" stroke="midnightblue" d="M1057.25,-239.61C1077.72,-207.87 1101.74,-170.62 1121.46,-140.04"/>
<polygon fill="none" stroke="midnightblue" points="1054.06,-238.1 1051.58,-248.4 1059.94,-241.89 1054.06,-238.1"/>
</g>
<!-- Node18 -->
<g id="node18" class="node">
<title>Node18</title>
<g id="a_node18"><a xlink:href="../../d9/dd1/classBankable_1_1NoteCCKPRange.html" target="_top" xlink:title="Generic base class for classes that listen for MIDI Note, Control Change and Key Pressure events on a...">
<polygon fill="white" stroke="black" points="1250,-232 1250,-388 1393,-388 1393,-232 1250,-232"/>
<text text-anchor="start" x="1258" y="-376" font-family="Helvetica,sans-Serif" font-size="10.00">NoteCCKPRange&lt; Type,</text>
<text text-anchor="middle" x="1321.5" y="-365" font-family="Helvetica,sans-Serif" font-size="10.00"> BankSize, RangeLen &gt;</text>
<polyline fill="none" stroke="black" points="1250,-358 1393,-358 "/>
<text text-anchor="start" x="1258" y="-346" font-family="Helvetica,sans-Serif" font-size="10.00">&#45; values</text>
<text text-anchor="start" x="1258" y="-335" font-family="Helvetica,sans-Serif" font-size="10.00">&#45; dirty</text>
<polyline fill="none" stroke="black" points="1250,-328 1393,-328 "/>
<text text-anchor="start" x="1258" y="-316" font-family="Helvetica,sans-Serif" font-size="10.00">+ NoteCCKPRange()</text>
<text text-anchor="start" x="1258" y="-305" font-family="Helvetica,sans-Serif" font-size="10.00">+ reset()</text>
<text text-anchor="start" x="1258" y="-294" font-family="Helvetica,sans-Serif" font-size="10.00"># handleUpdate()</text>
<text text-anchor="start" x="1258" y="-283" font-family="Helvetica,sans-Serif" font-size="10.00"># onBankSettingChange()</text>
<text text-anchor="start" x="1258" y="-272" font-family="Helvetica,sans-Serif" font-size="10.00">* getValue()</text>
<text text-anchor="start" x="1258" y="-261" font-family="Helvetica,sans-Serif" font-size="10.00">* getValue()</text>
<text text-anchor="start" x="1258" y="-250" font-family="Helvetica,sans-Serif" font-size="10.00">* getDirty()</text>
<text text-anchor="start" x="1258" y="-239" font-family="Helvetica,sans-Serif" font-size="10.00">* clearDirty()</text>
</a>
</g>
</g>
<!-- Node17&#45;&gt;Node18 -->
<g id="edge17" class="edge">
<title>Node17&#45;&gt;Node18</title>
<path fill="none" stroke="midnightblue" d="M1316.09,-458.75C1316.92,-436.19 1317.83,-411.11 1318.68,-388.12"/>
<polygon fill="none" stroke="midnightblue" points="1312.59,-458.8 1315.72,-468.93 1319.58,-459.06 1312.59,-458.8"/>
</g>
<!-- Node19 -->
<g id="node19" class="node">
<title>Node19</title>
<g id="a_node19"><a xlink:href="../../d6/d56/classBankable_1_1NoteCCKPRangeLEDs.html" target="_top" xlink:title="Generic base class for classes that listen for MIDI Note, Control Change and Key Pressure events on a...">
<polygon fill="white" stroke="black" points="1251.5,-0.5 1251.5,-156.5 1409.5,-156.5 1409.5,-0.5 1251.5,-0.5"/>
<text text-anchor="start" x="1259.5" y="-144.5" font-family="Helvetica,sans-Serif" font-size="10.00">NoteCCKPRangeLEDs&lt;</text>
<text text-anchor="middle" x="1330.5" y="-133.5" font-family="Helvetica,sans-Serif" font-size="10.00"> Type, BankSize, RangeLen &gt;</text>
<polyline fill="none" stroke="black" points="1251.5,-126.5 1409.5,-126.5 "/>
<text text-anchor="start" x="1259.5" y="-114.5" font-family="Helvetica,sans-Serif" font-size="10.00">&#45; ledPins</text>
<text text-anchor="start" x="1259.5" y="-103.5" font-family="Helvetica,sans-Serif" font-size="10.00">&#45; threshold</text>
<polyline fill="none" stroke="black" points="1251.5,-96.5 1409.5,-96.5 "/>
<text text-anchor="start" x="1259.5" y="-84.5" font-family="Helvetica,sans-Serif" font-size="10.00">+ NoteCCKPRangeLEDs()</text>
<text text-anchor="start" x="1259.5" y="-73.5" font-family="Helvetica,sans-Serif" font-size="10.00">+ begin()</text>
<text text-anchor="start" x="1259.5" y="-62.5" font-family="Helvetica,sans-Serif" font-size="10.00">+ reset()</text>
<text text-anchor="start" x="1259.5" y="-51.5" font-family="Helvetica,sans-Serif" font-size="10.00">+ getThreshold()</text>
<text text-anchor="start" x="1259.5" y="-40.5" font-family="Helvetica,sans-Serif" font-size="10.00">+ setThreshold()</text>
<text text-anchor="start" x="1259.5" y="-29.5" font-family="Helvetica,sans-Serif" font-size="10.00"># handleUpdate()</text>
<text text-anchor="start" x="1259.5" y="-18.5" font-family="Helvetica,sans-Serif" font-size="10.00"># display()</text>
<text text-anchor="start" x="1259.5" y="-7.5" font-family="Helvetica,sans-Serif" font-size="10.00"># onBankSettingChange()</text>
</a>
</g>
</g>
<!-- Node18&#45;&gt;Node19 -->
<g id="edge18" class="edge">
<title>Node18&#45;&gt;Node19</title>
<path fill="none" stroke="midnightblue" d="M1324.92,-221.88C1325.76,-200.46 1326.65,-177.67 1327.47,-156.75"/>
<polygon fill="none" stroke="midnightblue" points="1321.42,-221.81 1324.52,-231.94 1328.41,-222.09 1321.42,-221.81"/>
</g>
</g>
</svg>
