<?xml version="1.0" encoding="UTF-8" standalone="no"?>
<!DOCTYPE svg PUBLIC "-//W3C//DTD SVG 1.1//EN"
 "http://www.w3.org/Graphics/SVG/1.1/DTD/svg11.dtd">
<!-- Generated by graphviz version 2.43.0 (0)
 -->
<!-- Title: Selectable.hpp Pages: 1 -->
<svg width="1260pt" height="711pt"
 viewBox="0.00 0.00 1260.00 711.00" xmlns="http://www.w3.org/2000/svg" xmlns:xlink="http://www.w3.org/1999/xlink">
<g id="graph0" class="graph" transform="scale(1 1) rotate(0) translate(4 707)">
<title>Selectable.hpp</title>
<polygon fill="white" stroke="transparent" points="-4,4 -4,-707 1256,-707 1256,4 -4,4"/>
<!-- Node1 -->
<g id="node1" class="node">
<title>Node1</title>
<g id="a_node1"><a xlink:title=" ">
<polygon fill="#bfbfbf" stroke="black" points="726.5,-683.5 726.5,-702.5 815.5,-702.5 815.5,-683.5 726.5,-683.5"/>
<text text-anchor="middle" x="771" y="-690.5" font-family="Helvetica,sans-Serif" font-size="10.00">Selectable.hpp</text>
</a>
</g>
</g>
<!-- Node2 -->
<g id="node2" class="node">
<title>Node2</title>
<g id="a_node2"><a xlink:href="../../d1/d93/Error_8hpp.html" target="_top" xlink:title=" ">
<polygon fill="white" stroke="black" points="85,-448.5 85,-467.5 189,-467.5 189,-448.5 85,-448.5"/>
<text text-anchor="middle" x="137" y="-455.5" font-family="Helvetica,sans-Serif" font-size="10.00">AH/Error/Error.hpp</text>
</a>
</g>
</g>
<!-- Node1&#45;&gt;Node2 -->
<g id="edge1" class="edge">
<title>Node1&#45;&gt;Node2</title>
<path fill="none" stroke="midnightblue" d="M726.1,-686.5C679.14,-679.99 603.68,-667.38 541,-647 390.16,-597.95 221.79,-506.88 160.73,-472.56"/>
<polygon fill="midnightblue" stroke="midnightblue" points="162.3,-469.42 151.87,-467.55 158.85,-475.52 162.3,-469.42"/>
</g>
<!-- Node11 -->
<g id="node11" class="node">
<title>Node11</title>
<g id="a_node11"><a xlink:title=" ">
<polygon fill="white" stroke="#bfbfbf" points="1103.5,-112.5 1103.5,-131.5 1210.5,-131.5 1210.5,-112.5 1103.5,-112.5"/>
<text text-anchor="middle" x="1157" y="-119.5" font-family="Helvetica,sans-Serif" font-size="10.00">AH/STL/type_traits</text>
</a>
</g>
</g>
<!-- Node1&#45;&gt;Node11 -->
<g id="edge33" class="edge">
<title>Node1&#45;&gt;Node11</title>
<path fill="none" stroke="midnightblue" d="M815.82,-690.74C935.23,-686.19 1252,-665.71 1252,-576.5 1252,-576.5 1252,-576.5 1252,-233 1252,-201.37 1243.28,-192.28 1223,-168 1212.16,-155.03 1196.69,-144.21 1183.44,-136.43"/>
<polygon fill="midnightblue" stroke="midnightblue" points="1185.15,-133.38 1174.72,-131.55 1181.73,-139.49 1185.15,-133.38"/>
</g>
<!-- Node19 -->
<g id="node19" class="node">
<title>Node19</title>
<g id="a_node19"><a xlink:title=" ">
<polygon fill="white" stroke="#bfbfbf" points="693.5,-224.5 693.5,-243.5 746.5,-243.5 746.5,-224.5 693.5,-224.5"/>
<text text-anchor="middle" x="720" y="-231.5" font-family="Helvetica,sans-Serif" font-size="10.00">stdint.h</text>
</a>
</g>
</g>
<!-- Node1&#45;&gt;Node19 -->
<g id="edge56" class="edge">
<title>Node1&#45;&gt;Node19</title>
<path fill="none" stroke="midnightblue" d="M726.24,-687.89C662.98,-679.34 555,-653.47 555,-576.5 555,-576.5 555,-576.5 555,-345 555,-312.79 643.14,-268.9 690.58,-247.61"/>
<polygon fill="midnightblue" stroke="midnightblue" points="692.04,-250.8 699.77,-243.55 689.21,-244.4 692.04,-250.8"/>
</g>
<!-- Node21 -->
<g id="node21" class="node">
<title>Node21</title>
<g id="a_node21"><a xlink:href="../../d0/d4e/Def_8hpp.html" target="_top" xlink:title=" ">
<polygon fill="white" stroke="black" points="960,-627.5 960,-646.5 1034,-646.5 1034,-627.5 960,-627.5"/>
<text text-anchor="middle" x="997" y="-634.5" font-family="Helvetica,sans-Serif" font-size="10.00">Def/Def.hpp</text>
</a>
</g>
</g>
<!-- Node1&#45;&gt;Node21 -->
<g id="edge34" class="edge">
<title>Node1&#45;&gt;Node21</title>
<path fill="none" stroke="midnightblue" d="M806.81,-683.44C845.99,-674.08 908.88,-659.06 951.52,-648.87"/>
<polygon fill="midnightblue" stroke="midnightblue" points="952.44,-652.24 961.36,-646.52 950.82,-645.44 952.44,-652.24"/>
</g>
<!-- Node3 -->
<g id="node3" class="node">
<title>Node3</title>
<g id="a_node3"><a xlink:href="../../d1/d65/Warnings_8hpp.html" target="_top" xlink:title=" ">
<polygon fill="white" stroke="black" points="407.5,-0.5 407.5,-19.5 550.5,-19.5 550.5,-0.5 407.5,-0.5"/>
<text text-anchor="middle" x="479" y="-7.5" font-family="Helvetica,sans-Serif" font-size="10.00">AH/Settings/Warnings.hpp</text>
</a>
</g>
</g>
<!-- Node2&#45;&gt;Node3 -->
<g id="edge2" class="edge">
<title>Node2&#45;&gt;Node3</title>
<path fill="none" stroke="midnightblue" d="M129.3,-448.21C112.47,-427.85 75.4,-376.17 95,-336 177.34,-167.25 295.07,-208.61 428,-76 443.02,-61.02 457.7,-41.66 467.43,-27.97"/>
<polygon fill="midnightblue" stroke="midnightblue" points="470.47,-29.74 473.31,-19.53 464.72,-25.73 470.47,-29.74"/>
</g>
<!-- Node4 -->
<g id="node4" class="node">
<title>Node4</title>
<g id="a_node4"><a xlink:href="../../df/dee/Debug_8hpp.html" target="_top" xlink:title=" ">
<polygon fill="white" stroke="black" points="132.5,-392.5 132.5,-411.5 253.5,-411.5 253.5,-392.5 132.5,-392.5"/>
<text text-anchor="middle" x="193" y="-399.5" font-family="Helvetica,sans-Serif" font-size="10.00">AH/Debug/Debug.hpp</text>
</a>
</g>
</g>
<!-- Node2&#45;&gt;Node4 -->
<g id="edge3" class="edge">
<title>Node2&#45;&gt;Node4</title>
<path fill="none" stroke="midnightblue" d="M146,-448.32C154.19,-440.42 166.51,-428.55 176.47,-418.94"/>
<polygon fill="midnightblue" stroke="midnightblue" points="179.07,-421.29 183.84,-411.83 174.21,-416.26 179.07,-421.29"/>
</g>
<!-- Node4&#45;&gt;Node3 -->
<g id="edge4" class="edge">
<title>Node4&#45;&gt;Node3</title>
<path fill="none" stroke="midnightblue" d="M156.66,-392.39C110.85,-379.12 38,-348.91 38,-291 38,-291 38,-291 38,-121 38,-75.87 74.6,-73.95 116,-56 164.93,-34.79 305.9,-22.04 397.08,-15.78"/>
<polygon fill="midnightblue" stroke="midnightblue" points="397.38,-19.27 407.12,-15.1 396.91,-12.28 397.38,-19.27"/>
</g>
<!-- Node5 -->
<g id="node5" class="node">
<title>Node5</title>
<g id="a_node5"><a xlink:href="../../dd/d80/PrintStream_8hpp.html" target="_top" xlink:title=" ">
<polygon fill="white" stroke="black" points="502.5,-224.5 502.5,-243.5 675.5,-243.5 675.5,-224.5 502.5,-224.5"/>
<text text-anchor="middle" x="589" y="-231.5" font-family="Helvetica,sans-Serif" font-size="10.00">AH/PrintStream/PrintStream.hpp</text>
</a>
</g>
</g>
<!-- Node4&#45;&gt;Node5 -->
<g id="edge5" class="edge">
<title>Node4&#45;&gt;Node5</title>
<path fill="none" stroke="midnightblue" d="M217.8,-392.45C265.08,-375.95 371.17,-337.98 458,-300 495.54,-283.58 537.81,-262.03 563.93,-248.34"/>
<polygon fill="midnightblue" stroke="midnightblue" points="565.89,-251.27 573.1,-243.51 562.62,-245.08 565.89,-251.27"/>
</g>
<!-- Node13 -->
<g id="node13" class="node">
<title>Node13</title>
<g id="a_node13"><a xlink:href="../../de/dd1/AH_2Settings_2SettingsWrapper_8hpp.html" target="_top" xlink:title=" ">
<polygon fill="white" stroke="black" points="104,-336.5 104,-355.5 282,-355.5 282,-336.5 104,-336.5"/>
<text text-anchor="middle" x="193" y="-343.5" font-family="Helvetica,sans-Serif" font-size="10.00">AH/Settings/SettingsWrapper.hpp</text>
</a>
</g>
</g>
<!-- Node4&#45;&gt;Node13 -->
<g id="edge18" class="edge">
<title>Node4&#45;&gt;Node13</title>
<path fill="none" stroke="midnightblue" d="M187.83,-392.08C186.32,-384.93 185.89,-374.64 186.54,-365.69"/>
<polygon fill="midnightblue" stroke="midnightblue" points="190.02,-366.13 187.87,-355.75 183.08,-365.2 190.02,-366.13"/>
</g>
<!-- Node5&#45;&gt;Node3 -->
<g id="edge7" class="edge">
<title>Node5&#45;&gt;Node3</title>
<path fill="none" stroke="midnightblue" d="M584.69,-224.3C568.4,-191.42 510.41,-74.39 487.96,-29.09"/>
<polygon fill="midnightblue" stroke="midnightblue" points="490.98,-27.29 483.4,-19.88 484.71,-30.4 490.98,-27.29"/>
</g>
<!-- Node6 -->
<g id="node6" class="node">
<title>Node6</title>
<g id="a_node6"><a xlink:href="../../d6/db0/AH_2Settings_2NamespaceSettings_8hpp.html" target="_top" xlink:title=" ">
<polygon fill="white" stroke="black" points="143.5,-56.5 143.5,-75.5 338.5,-75.5 338.5,-56.5 143.5,-56.5"/>
<text text-anchor="middle" x="241" y="-63.5" font-family="Helvetica,sans-Serif" font-size="10.00">AH/Settings/NamespaceSettings.hpp</text>
</a>
</g>
</g>
<!-- Node5&#45;&gt;Node6 -->
<g id="edge6" class="edge">
<title>Node5&#45;&gt;Node6</title>
<path fill="none" stroke="midnightblue" d="M570.78,-224.31C513.46,-196.97 336.6,-112.6 268.3,-80.02"/>
<polygon fill="midnightblue" stroke="midnightblue" points="269.57,-76.75 259.04,-75.61 266.56,-83.07 269.57,-76.75"/>
</g>
<!-- Node7 -->
<g id="node7" class="node">
<title>Node7</title>
<g id="a_node7"><a xlink:href="../../d6/ddf/Arduino-Wrapper_8h.html" target="_top" xlink:title=" ">
<polygon fill="white" stroke="black" points="845,-168.5 845,-187.5 969,-187.5 969,-168.5 845,-168.5"/>
<text text-anchor="middle" x="907" y="-175.5" font-family="Helvetica,sans-Serif" font-size="10.00">AH/Arduino&#45;Wrapper.h</text>
</a>
</g>
</g>
<!-- Node5&#45;&gt;Node7 -->
<g id="edge8" class="edge">
<title>Node5&#45;&gt;Node7</title>
<path fill="none" stroke="midnightblue" d="M639.39,-224.44C695.68,-214.89 786.75,-199.42 846.76,-189.23"/>
<polygon fill="midnightblue" stroke="midnightblue" points="847.57,-192.64 856.85,-187.52 846.4,-185.74 847.57,-192.64"/>
</g>
<!-- Node12 -->
<g id="node12" class="node">
<title>Node12</title>
<g id="a_node12"><a xlink:title=" ">
<polygon fill="white" stroke="#bfbfbf" points="1036,-168.5 1036,-187.5 1214,-187.5 1214,-168.5 1036,-168.5"/>
<text text-anchor="middle" x="1125" y="-175.5" font-family="Helvetica,sans-Serif" font-size="10.00">Settings/NamespaceSettings.hpp</text>
</a>
</g>
</g>
<!-- Node5&#45;&gt;Node12 -->
<g id="edge17" class="edge">
<title>Node5&#45;&gt;Node12</title>
<path fill="none" stroke="midnightblue" d="M673.64,-224.47C770.61,-214.7 929.11,-198.74 1030.16,-188.55"/>
<polygon fill="midnightblue" stroke="midnightblue" points="1030.77,-192.01 1040.37,-187.53 1030.07,-185.05 1030.77,-192.01"/>
</g>
<!-- Node8 -->
<g id="node8" class="node">
<title>Node8</title>
<g id="a_node8"><a xlink:href="../../d7/d79/MinMaxFix_8hpp.html" target="_top" xlink:title=" ">
<polygon fill="white" stroke="black" points="839,-112.5 839,-131.5 975,-131.5 975,-112.5 839,-112.5"/>
<text text-anchor="middle" x="907" y="-119.5" font-family="Helvetica,sans-Serif" font-size="10.00">AH/Math/MinMaxFix.hpp</text>
</a>
</g>
</g>
<!-- Node7&#45;&gt;Node8 -->
<g id="edge9" class="edge">
<title>Node7&#45;&gt;Node8</title>
<path fill="none" stroke="midnightblue" d="M907,-168.08C907,-161.01 907,-150.86 907,-141.99"/>
<polygon fill="midnightblue" stroke="midnightblue" points="910.5,-141.75 907,-131.75 903.5,-141.75 910.5,-141.75"/>
</g>
<!-- Node10 -->
<g id="node10" class="node">
<title>Node10</title>
<g id="a_node10"><a xlink:title=" ">
<polygon fill="white" stroke="#bfbfbf" points="986.5,-0.5 986.5,-19.5 1049.5,-19.5 1049.5,-0.5 986.5,-0.5"/>
<text text-anchor="middle" x="1018" y="-7.5" font-family="Helvetica,sans-Serif" font-size="10.00">Arduino.h</text>
</a>
</g>
</g>
<!-- Node7&#45;&gt;Node10 -->
<g id="edge16" class="edge">
<title>Node7&#45;&gt;Node10</title>
<path fill="none" stroke="midnightblue" d="M933.56,-168.39C969.42,-155.12 1031.63,-125.83 1056,-76 1064.55,-58.53 1050.32,-39.41 1036.91,-26.46"/>
<polygon fill="midnightblue" stroke="midnightblue" points="1039.06,-23.69 1029.28,-19.6 1034.38,-28.89 1039.06,-23.69"/>
</g>
<!-- Node7&#45;&gt;Node11 -->
<g id="edge15" class="edge">
<title>Node7&#45;&gt;Node11</title>
<path fill="none" stroke="midnightblue" d="M946.61,-168.44C990.23,-159.02 1060.4,-143.87 1107.58,-133.68"/>
<polygon fill="midnightblue" stroke="midnightblue" points="1108.54,-137.05 1117.57,-131.52 1107.06,-130.21 1108.54,-137.05"/>
</g>
<!-- Node8&#45;&gt;Node3 -->
<g id="edge10" class="edge">
<title>Node8&#45;&gt;Node3</title>
<path fill="none" stroke="midnightblue" d="M899.38,-112.49C885.94,-98.12 856.46,-69.29 825,-56 778.84,-36.5 647.83,-23.41 560.92,-16.59"/>
<polygon fill="midnightblue" stroke="midnightblue" points="561.05,-13.09 550.81,-15.81 560.51,-20.07 561.05,-13.09"/>
</g>
<!-- Node8&#45;&gt;Node6 -->
<g id="edge14" class="edge">
<title>Node8&#45;&gt;Node6</title>
<path fill="none" stroke="midnightblue" d="M838.86,-115.47C723.07,-106.09 487.05,-86.95 348.71,-75.73"/>
<polygon fill="midnightblue" stroke="midnightblue" points="348.76,-72.23 338.51,-74.91 348.2,-79.2 348.76,-72.23"/>
</g>
<!-- Node9 -->
<g id="node9" class="node">
<title>Node9</title>
<g id="a_node9"><a xlink:href="../../d6/d3b/FixArduinoMacros_8hpp.html" target="_top" xlink:title=" ">
<polygon fill="white" stroke="black" points="877,-56.5 877,-75.5 1047,-75.5 1047,-56.5 877,-56.5"/>
<text text-anchor="middle" x="962" y="-63.5" font-family="Helvetica,sans-Serif" font-size="10.00">AH/Math/FixArduinoMacros.hpp</text>
</a>
</g>
</g>
<!-- Node8&#45;&gt;Node9 -->
<g id="edge11" class="edge">
<title>Node8&#45;&gt;Node9</title>
<path fill="none" stroke="midnightblue" d="M916.08,-112.08C924.17,-104.14 936.2,-92.34 945.91,-82.8"/>
<polygon fill="midnightblue" stroke="midnightblue" points="948.4,-85.25 953.09,-75.75 943.5,-80.26 948.4,-85.25"/>
</g>
<!-- Node9&#45;&gt;Node3 -->
<g id="edge12" class="edge">
<title>Node9&#45;&gt;Node3</title>
<path fill="none" stroke="midnightblue" d="M885.73,-56.47C797.08,-46.56 651.35,-30.27 560.51,-20.11"/>
<polygon fill="midnightblue" stroke="midnightblue" points="560.86,-16.63 550.54,-19 560.08,-23.59 560.86,-16.63"/>
</g>
<!-- Node9&#45;&gt;Node10 -->
<g id="edge13" class="edge">
<title>Node9&#45;&gt;Node10</title>
<path fill="none" stroke="midnightblue" d="M971,-56.32C979.19,-48.42 991.51,-36.55 1001.47,-26.94"/>
<polygon fill="midnightblue" stroke="midnightblue" points="1004.07,-29.29 1008.84,-19.83 999.21,-24.26 1004.07,-29.29"/>
</g>
<!-- Node13&#45;&gt;Node3 -->
<g id="edge19" class="edge">
<title>Node13&#45;&gt;Node3</title>
<path fill="none" stroke="midnightblue" d="M180.66,-336.28C158.44,-319.45 114,-280.14 114,-235 114,-235 114,-235 114,-121 114,-90.64 111.67,-75.42 135,-56 173.67,-23.81 308.37,-14.47 397.29,-11.87"/>
<polygon fill="midnightblue" stroke="midnightblue" points="397.46,-15.36 407.36,-11.59 397.27,-8.36 397.46,-15.36"/>
</g>
<!-- Node13&#45;&gt;Node4 -->
<g id="edge32" class="edge">
<title>Node13&#45;&gt;Node4</title>
<path fill="none" stroke="midnightblue" d="M198.13,-355.75C199.66,-362.86 200.1,-373.14 199.47,-382.1"/>
<polygon fill="midnightblue" stroke="midnightblue" points="195.99,-381.71 198.17,-392.08 202.93,-382.62 195.99,-381.71"/>
</g>
<!-- Node13&#45;&gt;Node6 -->
<g id="edge20" class="edge">
<title>Node13&#45;&gt;Node6</title>
<path fill="none" stroke="midnightblue" d="M187.3,-336.29C176.03,-318.2 152,-274.95 152,-235 152,-235 152,-235 152,-177 152,-146.9 152.98,-136.11 171,-112 181.19,-98.37 196.83,-87.75 210.74,-80.26"/>
<polygon fill="midnightblue" stroke="midnightblue" points="212.66,-83.21 220.01,-75.58 209.5,-76.97 212.66,-83.21"/>
</g>
<!-- Node14 -->
<g id="node14" class="node">
<title>Node14</title>
<g id="a_node14"><a xlink:href="../../d5/d4f/AH_2Settings_2Settings_8hpp.html" target="_top" xlink:title="All user settings and debugging options can be changed here.">
<polygon fill="white" stroke="black" points="371.5,-280.5 371.5,-299.5 448.5,-299.5 448.5,-280.5 371.5,-280.5"/>
<text text-anchor="middle" x="410" y="-287.5" font-family="Helvetica,sans-Serif" font-size="10.00">Settings.hpp</text>
</a>
</g>
</g>
<!-- Node13&#45;&gt;Node14 -->
<g id="edge21" class="edge">
<title>Node13&#45;&gt;Node14</title>
<path fill="none" stroke="midnightblue" d="M227.38,-336.44C264.92,-327.1 325.13,-312.12 366.07,-301.93"/>
<polygon fill="midnightblue" stroke="midnightblue" points="366.92,-305.33 375.78,-299.52 365.23,-298.53 366.92,-305.33"/>
</g>
<!-- Node20 -->
<g id="node20" class="node">
<title>Node20</title>
<g id="a_node20"><a xlink:href="../../d9/d98/TeensyUSBTypes_8hpp.html" target="_top" xlink:title=" ">
<polygon fill="white" stroke="black" points="180.5,-280.5 180.5,-299.5 353.5,-299.5 353.5,-280.5 180.5,-280.5"/>
<text text-anchor="middle" x="267" y="-287.5" font-family="Helvetica,sans-Serif" font-size="10.00">AH/Teensy/TeensyUSBTypes.hpp</text>
</a>
</g>
</g>
<!-- Node13&#45;&gt;Node20 -->
<g id="edge31" class="edge">
<title>Node13&#45;&gt;Node20</title>
<path fill="none" stroke="midnightblue" d="M204.89,-336.32C216.15,-328.11 233.29,-315.6 246.71,-305.81"/>
<polygon fill="midnightblue" stroke="midnightblue" points="248.88,-308.56 254.89,-299.83 244.75,-302.9 248.88,-308.56"/>
</g>
<!-- Node15 -->
<g id="node15" class="node">
<title>Node15</title>
<g id="a_node15"><a xlink:href="../../dc/d50/Frequency_8hpp.html" target="_top" xlink:title=" ">
<polygon fill="white" stroke="black" points="180,-112.5 180,-131.5 314,-131.5 314,-112.5 180,-112.5"/>
<text text-anchor="middle" x="247" y="-119.5" font-family="Helvetica,sans-Serif" font-size="10.00">AH/Types/Frequency.hpp</text>
</a>
</g>
</g>
<!-- Node14&#45;&gt;Node15 -->
<g id="edge22" class="edge">
<title>Node14&#45;&gt;Node15</title>
<path fill="none" stroke="midnightblue" d="M371.19,-280.77C325.73,-270.75 255.61,-253.93 248,-244 225.19,-214.24 233.7,-167.15 240.95,-141.37"/>
<polygon fill="midnightblue" stroke="midnightblue" points="244.31,-142.33 243.88,-131.74 237.62,-140.29 244.31,-142.33"/>
</g>
<!-- Node16 -->
<g id="node16" class="node">
<title>Node16</title>
<g id="a_node16"><a xlink:href="../../d7/d7c/ADCConfig_8hpp.html" target="_top" xlink:title="This file contains the platform&#45;specific ADC resolutions.">
<polygon fill="white" stroke="black" points="327.5,-224.5 327.5,-243.5 484.5,-243.5 484.5,-224.5 327.5,-224.5"/>
<text text-anchor="middle" x="406" y="-231.5" font-family="Helvetica,sans-Serif" font-size="10.00">AH/Hardware/ADCConfig.hpp</text>
</a>
</g>
</g>
<!-- Node14&#45;&gt;Node16 -->
<g id="edge25" class="edge">
<title>Node14&#45;&gt;Node16</title>
<path fill="none" stroke="midnightblue" d="M409.34,-280.08C408.82,-273.01 408.06,-262.86 407.41,-253.99"/>
<polygon fill="midnightblue" stroke="midnightblue" points="410.88,-253.47 406.65,-243.75 403.9,-253.98 410.88,-253.47"/>
</g>
<!-- Node17 -->
<g id="node17" class="node">
<title>Node17</title>
<g id="a_node17"><a xlink:title=" ">
<polygon fill="white" stroke="#bfbfbf" points="256.5,-224.5 256.5,-243.5 309.5,-243.5 309.5,-224.5 256.5,-224.5"/>
<text text-anchor="middle" x="283" y="-231.5" font-family="Helvetica,sans-Serif" font-size="10.00">limits.h</text>
</a>
</g>
</g>
<!-- Node14&#45;&gt;Node17 -->
<g id="edge28" class="edge">
<title>Node14&#45;&gt;Node17</title>
<path fill="none" stroke="midnightblue" d="M389.88,-280.44C368.98,-271.56 336.07,-257.56 312.28,-247.45"/>
<polygon fill="midnightblue" stroke="midnightblue" points="313.6,-244.21 303.03,-243.52 310.86,-250.65 313.6,-244.21"/>
</g>
<!-- Node18 -->
<g id="node18" class="node">
<title>Node18</title>
<g id="a_node18"><a xlink:title=" ">
<polygon fill="white" stroke="#bfbfbf" points="893,-224.5 893,-243.5 949,-243.5 949,-224.5 893,-224.5"/>
<text text-anchor="middle" x="921" y="-231.5" font-family="Helvetica,sans-Serif" font-size="10.00">stddef.h</text>
</a>
</g>
</g>
<!-- Node14&#45;&gt;Node18 -->
<g id="edge29" class="edge">
<title>Node14&#45;&gt;Node18</title>
<path fill="none" stroke="midnightblue" d="M448.83,-284.9C544.01,-274.84 788.08,-249.05 882.7,-239.05"/>
<polygon fill="midnightblue" stroke="midnightblue" points="883.12,-242.52 892.7,-237.99 882.39,-235.56 883.12,-242.52"/>
</g>
<!-- Node14&#45;&gt;Node19 -->
<g id="edge30" class="edge">
<title>Node14&#45;&gt;Node19</title>
<path fill="none" stroke="midnightblue" d="M448.91,-283.75C500.45,-276.56 594.34,-262.6 683.32,-244.21"/>
<polygon fill="midnightblue" stroke="midnightblue" points="684.23,-247.6 693.3,-242.13 682.8,-240.75 684.23,-247.6"/>
</g>
<!-- Node15&#45;&gt;Node3 -->
<g id="edge23" class="edge">
<title>Node15&#45;&gt;Node3</title>
<path fill="none" stroke="midnightblue" d="M266.85,-112.45C287.3,-103.57 320.04,-89.16 348,-76 384.83,-58.67 426.9,-37.55 453.21,-24.19"/>
<polygon fill="midnightblue" stroke="midnightblue" points="454.83,-27.3 462.15,-19.64 451.65,-21.06 454.83,-27.3"/>
</g>
<!-- Node15&#45;&gt;Node6 -->
<g id="edge24" class="edge">
<title>Node15&#45;&gt;Node6</title>
<path fill="none" stroke="midnightblue" d="M246.01,-112.08C245.21,-104.93 244.07,-94.64 243.08,-85.69"/>
<polygon fill="midnightblue" stroke="midnightblue" points="246.56,-85.3 241.97,-75.75 239.6,-86.08 246.56,-85.3"/>
</g>
<!-- Node16&#45;&gt;Node3 -->
<g id="edge26" class="edge">
<title>Node16&#45;&gt;Node3</title>
<path fill="none" stroke="midnightblue" d="M405.01,-224.26C402.38,-197.34 397.35,-114.05 428,-56 434.46,-43.76 445.69,-33.3 455.97,-25.55"/>
<polygon fill="midnightblue" stroke="midnightblue" points="458.11,-28.33 464.26,-19.7 454.07,-22.61 458.11,-28.33"/>
</g>
<!-- Node16&#45;&gt;Node7 -->
<g id="edge27" class="edge">
<title>Node16&#45;&gt;Node7</title>
<path fill="none" stroke="midnightblue" d="M484.56,-224.53C580.51,-214.19 741.51,-196.84 834.59,-186.8"/>
<polygon fill="midnightblue" stroke="midnightblue" points="835.19,-190.26 844.76,-185.71 834.44,-183.3 835.19,-190.26"/>
</g>
<!-- Node21&#45;&gt;Node12 -->
<g id="edge53" class="edge">
<title>Node21&#45;&gt;Node12</title>
<path fill="none" stroke="midnightblue" d="M1034.22,-635.47C1073.47,-633.07 1135.15,-623.81 1176,-591 1205.44,-567.35 1214,-552.76 1214,-515 1214,-515 1214,-515 1214,-289 1214,-258.9 1213.02,-248.11 1195,-224 1184.81,-210.37 1169.17,-199.75 1155.26,-192.26"/>
<polygon fill="midnightblue" stroke="midnightblue" points="1156.5,-188.97 1145.99,-187.58 1153.34,-195.21 1156.5,-188.97"/>
</g>
<!-- Node21&#45;&gt;Node18 -->
<g id="edge54" class="edge">
<title>Node21&#45;&gt;Node18</title>
<path fill="none" stroke="midnightblue" d="M997,-627.49C997,-607.74 997,-557.22 997,-515 997,-515 997,-515 997,-401 997,-341.8 956.54,-280.61 934.66,-251.86"/>
<polygon fill="midnightblue" stroke="midnightblue" points="937.2,-249.43 928.29,-243.71 931.69,-253.74 937.2,-249.43"/>
</g>
<!-- Node21&#45;&gt;Node19 -->
<g id="edge55" class="edge">
<title>Node21&#45;&gt;Node19</title>
<path fill="none" stroke="midnightblue" d="M959.91,-627.67C909.72,-614.45 820.87,-583.81 772,-524 736.58,-480.65 737,-458.98 737,-403 737,-403 737,-403 737,-345 737,-312.58 729.7,-275.42 724.67,-253.64"/>
<polygon fill="midnightblue" stroke="midnightblue" points="728.03,-252.67 722.29,-243.77 721.23,-254.31 728.03,-252.67"/>
</g>
<!-- Node22 -->
<g id="node22" class="node">
<title>Node22</title>
<g id="a_node22"><a xlink:href="../../d2/dbc/Cable_8hpp.html" target="_top" xlink:title=" ">
<polygon fill="white" stroke="black" points="1025.5,-224.5 1025.5,-243.5 1090.5,-243.5 1090.5,-224.5 1025.5,-224.5"/>
<text text-anchor="middle" x="1058" y="-231.5" font-family="Helvetica,sans-Serif" font-size="10.00">Cable.hpp</text>
</a>
</g>
</g>
<!-- Node21&#45;&gt;Node22 -->
<g id="edge35" class="edge">
<title>Node21&#45;&gt;Node22</title>
<path fill="none" stroke="midnightblue" d="M1001.66,-627.48C1011.81,-608.12 1035,-559.04 1035,-515 1035,-515 1035,-515 1035,-345 1035,-312.12 1044.97,-274.86 1051.78,-253.24"/>
<polygon fill="midnightblue" stroke="midnightblue" points="1055.11,-254.3 1054.9,-243.71 1048.46,-252.12 1055.11,-254.3"/>
</g>
<!-- Node23 -->
<g id="node23" class="node">
<title>Node23</title>
<g id="a_node23"><a xlink:href="../../d7/d42/Channel_8hpp.html" target="_top" xlink:title=" ">
<polygon fill="white" stroke="black" points="1108.5,-224.5 1108.5,-243.5 1185.5,-243.5 1185.5,-224.5 1108.5,-224.5"/>
<text text-anchor="middle" x="1147" y="-231.5" font-family="Helvetica,sans-Serif" font-size="10.00">Channel.hpp</text>
</a>
</g>
</g>
<!-- Node21&#45;&gt;Node23 -->
<g id="edge38" class="edge">
<title>Node21&#45;&gt;Node23</title>
<path fill="none" stroke="midnightblue" d="M1034.05,-635.48C1069.69,-632.93 1122.67,-623.42 1154,-591 1178.2,-565.96 1173,-549.82 1173,-515 1173,-515 1173,-515 1173,-345 1173,-311.93 1161.73,-274.73 1154.03,-253.17"/>
<polygon fill="midnightblue" stroke="midnightblue" points="1157.27,-251.83 1150.51,-243.68 1150.71,-254.27 1157.27,-251.83"/>
</g>
<!-- Node24 -->
<g id="node24" class="node">
<title>Node24</title>
<g id="a_node24"><a xlink:href="../../de/d76/Array_8hpp.html" target="_top" xlink:title=" ">
<polygon fill="white" stroke="black" points="780.5,-504.5 780.5,-523.5 915.5,-523.5 915.5,-504.5 780.5,-504.5"/>
<text text-anchor="middle" x="848" y="-511.5" font-family="Helvetica,sans-Serif" font-size="10.00">AH/Containers/Array.hpp</text>
</a>
</g>
</g>
<!-- Node21&#45;&gt;Node24 -->
<g id="edge41" class="edge">
<title>Node21&#45;&gt;Node24</title>
<path fill="none" stroke="midnightblue" d="M986.28,-627.3C961.16,-606.89 898.18,-555.75 866.63,-530.13"/>
<polygon fill="midnightblue" stroke="midnightblue" points="868.59,-527.21 858.62,-523.62 864.17,-532.64 868.59,-527.21"/>
</g>
<!-- Node26 -->
<g id="node26" class="node">
<title>Node26</title>
<g id="a_node26"><a xlink:href="../../d4/d35/Hardware-Types_8hpp.html" target="_top" xlink:title=" ">
<polygon fill="white" stroke="black" points="590.5,-560.5 590.5,-590.5 721.5,-590.5 721.5,-560.5 590.5,-560.5"/>
<text text-anchor="start" x="598.5" y="-578.5" font-family="Helvetica,sans-Serif" font-size="10.00">AH/Hardware/Hardware</text>
<text text-anchor="middle" x="656" y="-567.5" font-family="Helvetica,sans-Serif" font-size="10.00">&#45;Types.hpp</text>
</a>
</g>
</g>
<!-- Node21&#45;&gt;Node26 -->
<g id="edge47" class="edge">
<title>Node21&#45;&gt;Node26</title>
<path fill="none" stroke="midnightblue" d="M959.81,-629.69C909.17,-621.08 815.69,-605.09 736,-591 734.71,-590.77 733.41,-590.54 732.1,-590.31"/>
<polygon fill="midnightblue" stroke="midnightblue" points="732.37,-586.8 721.91,-588.49 731.14,-593.69 732.37,-586.8"/>
</g>
<!-- Node27 -->
<g id="node27" class="node">
<title>Node27</title>
<g id="a_node27"><a xlink:title=" ">
<polygon fill="white" stroke="#bfbfbf" points="1063,-566 1063,-585 1145,-585 1145,-566 1063,-566"/>
<text text-anchor="middle" x="1104" y="-573" font-family="Helvetica,sans-Serif" font-size="10.00">AH/STL/limits</text>
</a>
</g>
</g>
<!-- Node21&#45;&gt;Node27 -->
<g id="edge52" class="edge">
<title>Node21&#45;&gt;Node27</title>
<path fill="none" stroke="midnightblue" d="M1012.33,-627.48C1029.97,-617.67 1059.16,-601.43 1079.86,-589.92"/>
<polygon fill="midnightblue" stroke="midnightblue" points="1081.66,-592.93 1088.7,-585.01 1078.26,-586.81 1081.66,-592.93"/>
</g>
<!-- Node22&#45;&gt;Node7 -->
<g id="edge36" class="edge">
<title>Node22&#45;&gt;Node7</title>
<path fill="none" stroke="midnightblue" d="M1034.07,-224.44C1008.78,-215.4 968.7,-201.06 940.32,-190.92"/>
<polygon fill="midnightblue" stroke="midnightblue" points="941.41,-187.59 930.81,-187.52 939.05,-194.18 941.41,-187.59"/>
</g>
<!-- Node22&#45;&gt;Node12 -->
<g id="edge37" class="edge">
<title>Node22&#45;&gt;Node12</title>
<path fill="none" stroke="midnightblue" d="M1068.76,-224.32C1078.77,-216.26 1093.89,-204.08 1105.93,-194.37"/>
<polygon fill="midnightblue" stroke="midnightblue" points="1108.45,-196.83 1114.04,-187.83 1104.06,-191.38 1108.45,-196.83"/>
</g>
<!-- Node23&#45;&gt;Node7 -->
<g id="edge39" class="edge">
<title>Node23&#45;&gt;Node7</title>
<path fill="none" stroke="midnightblue" d="M1108.97,-224.44C1067.19,-215.04 1000.02,-199.93 954.73,-189.74"/>
<polygon fill="midnightblue" stroke="midnightblue" points="955.38,-186.3 944.85,-187.52 953.84,-193.13 955.38,-186.3"/>
</g>
<!-- Node23&#45;&gt;Node12 -->
<g id="edge40" class="edge">
<title>Node23&#45;&gt;Node12</title>
<path fill="none" stroke="midnightblue" d="M1143.37,-224.08C1140.39,-216.77 1136.07,-206.18 1132.38,-197.1"/>
<polygon fill="midnightblue" stroke="midnightblue" points="1135.58,-195.69 1128.57,-187.75 1129.1,-198.33 1135.58,-195.69"/>
</g>
<!-- Node24&#45;&gt;Node2 -->
<g id="edge43" class="edge">
<title>Node24&#45;&gt;Node2</title>
<path fill="none" stroke="midnightblue" d="M780.47,-507.87C642.97,-497.43 332.3,-473.83 199.31,-463.73"/>
<polygon fill="midnightblue" stroke="midnightblue" points="199.52,-460.24 189.29,-462.97 198.99,-467.22 199.52,-460.24"/>
</g>
<!-- Node24&#45;&gt;Node3 -->
<g id="edge42" class="edge">
<title>Node24&#45;&gt;Node3</title>
<path fill="none" stroke="midnightblue" d="M831.44,-504.43C818.63,-496.79 801.8,-484.29 794,-468 714.92,-302.82 907.94,-193.52 787,-56 758.04,-23.07 641.99,-13.81 560.93,-11.44"/>
<polygon fill="midnightblue" stroke="midnightblue" points="560.82,-7.93 550.73,-11.17 560.63,-14.93 560.82,-7.93"/>
</g>
<!-- Node24&#45;&gt;Node11 -->
<g id="edge45" class="edge">
<title>Node24&#45;&gt;Node11</title>
<path fill="none" stroke="midnightblue" d="M869.62,-504.43C885.82,-497.01 907.44,-484.8 921,-468 1009.81,-357.95 926.69,-267.67 1027,-168 1044.86,-150.25 1070.06,-139.49 1093.53,-132.97"/>
<polygon fill="midnightblue" stroke="midnightblue" points="1094.63,-136.3 1103.45,-130.43 1092.9,-129.52 1094.63,-136.3"/>
</g>
<!-- Node24&#45;&gt;Node18 -->
<g id="edge46" class="edge">
<title>Node24&#45;&gt;Node18</title>
<path fill="none" stroke="midnightblue" d="M862.46,-504.44C874.7,-496.47 891.83,-483.51 902,-468 918.5,-442.83 921,-433.1 921,-403 921,-403 921,-403 921,-345 921,-312.95 921,-275.64 921,-253.75"/>
<polygon fill="midnightblue" stroke="midnightblue" points="924.5,-253.56 921,-243.56 917.5,-253.56 924.5,-253.56"/>
</g>
<!-- Node25 -->
<g id="node25" class="node">
<title>Node25</title>
<g id="a_node25"><a xlink:title=" ">
<polygon fill="white" stroke="#bfbfbf" points="803,-448.5 803,-467.5 893,-467.5 893,-448.5 803,-448.5"/>
<text text-anchor="middle" x="848" y="-455.5" font-family="Helvetica,sans-Serif" font-size="10.00">AH/STL/iterator</text>
</a>
</g>
</g>
<!-- Node24&#45;&gt;Node25 -->
<g id="edge44" class="edge">
<title>Node24&#45;&gt;Node25</title>
<path fill="none" stroke="midnightblue" d="M848,-504.08C848,-497.01 848,-486.86 848,-477.99"/>
<polygon fill="midnightblue" stroke="midnightblue" points="851.5,-477.75 848,-467.75 844.5,-477.75 851.5,-477.75"/>
</g>
<!-- Node26&#45;&gt;Node3 -->
<g id="edge48" class="edge">
<title>Node26&#45;&gt;Node3</title>
<path fill="none" stroke="midnightblue" d="M665.12,-560.19C677.74,-538.97 699,-497.51 699,-459 699,-459 699,-459 699,-401 699,-318.35 792.52,-298.14 756,-224 703.82,-118.06 570.83,-50.08 510.1,-23.58"/>
<polygon fill="midnightblue" stroke="midnightblue" points="511.23,-20.25 500.65,-19.54 508.47,-26.69 511.23,-20.25"/>
</g>
<!-- Node26&#45;&gt;Node6 -->
<g id="edge50" class="edge">
<title>Node26&#45;&gt;Node6</title>
<path fill="none" stroke="midnightblue" d="M590.4,-569.8C424.26,-557.01 0,-518.52 0,-459 0,-459 0,-459 0,-345 0,-220.87 61.67,-194.97 154,-112 169.44,-98.13 189.93,-87.25 207.15,-79.67"/>
<polygon fill="midnightblue" stroke="midnightblue" points="208.98,-82.7 216.84,-75.59 206.27,-76.25 208.98,-82.7"/>
</g>
<!-- Node26&#45;&gt;Node19 -->
<g id="edge51" class="edge">
<title>Node26&#45;&gt;Node19</title>
<path fill="none" stroke="midnightblue" d="M656.4,-560.28C656.99,-538.48 658,-495.5 658,-459 658,-459 658,-459 658,-345 658,-307.62 685.5,-271.24 703.87,-251.1"/>
<polygon fill="midnightblue" stroke="midnightblue" points="706.51,-253.41 710.85,-243.75 701.43,-248.59 706.51,-253.41"/>
</g>
<!-- Node26&#45;&gt;Node24 -->
<g id="edge49" class="edge">
<title>Node26&#45;&gt;Node24</title>
<path fill="none" stroke="midnightblue" d="M701.5,-560.4C734.82,-550.07 779.49,-536.23 810.71,-526.56"/>
<polygon fill="midnightblue" stroke="midnightblue" points="811.83,-529.87 820.34,-523.57 809.75,-523.19 811.83,-529.87"/>
</g>
</g>
</svg>
