<?xml version="1.0" encoding="UTF-8" standalone="no"?>
<!DOCTYPE svg PUBLIC "-//W3C//DTD SVG 1.1//EN"
 "http://www.w3.org/Graphics/SVG/1.1/DTD/svg11.dtd">
<!-- Generated by graphviz version 2.43.0 (0)
 -->
<!-- Title: VPotDisplay.hpp Pages: 1 -->
<svg width="1634pt" height="834pt"
 viewBox="0.00 0.00 1634.26 834.00" xmlns="http://www.w3.org/2000/svg" xmlns:xlink="http://www.w3.org/1999/xlink">
<g id="graph0" class="graph" transform="scale(1 1) rotate(0) translate(4 830)">
<title>VPotDisplay.hpp</title>
<polygon fill="white" stroke="transparent" points="-4,4 -4,-830 1630.26,-830 1630.26,4 -4,4"/>
<!-- Node1 -->
<g id="node1" class="node">
<title>Node1</title>
<g id="a_node1"><a xlink:title=" ">
<polygon fill="#bfbfbf" stroke="black" points="1018.76,-806.5 1018.76,-825.5 1113.76,-825.5 1113.76,-806.5 1018.76,-806.5"/>
<text text-anchor="middle" x="1066.26" y="-813.5" font-family="Helvetica,sans-Serif" font-size="10.00">VPotDisplay.hpp</text>
</a>
</g>
</g>
<!-- Node2 -->
<g id="node2" class="node">
<title>Node2</title>
<g id="a_node2"><a xlink:title=" ">
<polygon fill="white" stroke="#bfbfbf" points="781.76,-750.5 781.76,-769.5 864.76,-769.5 864.76,-750.5 781.76,-750.5"/>
<text text-anchor="middle" x="823.26" y="-757.5" font-family="Helvetica,sans-Serif" font-size="10.00">AH/STL/utility</text>
</a>
</g>
</g>
<!-- Node1&#45;&gt;Node2 -->
<g id="edge1" class="edge">
<title>Node1&#45;&gt;Node2</title>
<path fill="none" stroke="midnightblue" d="M1027.76,-806.44C985.46,-797.04 917.44,-781.93 871.59,-771.74"/>
<polygon fill="midnightblue" stroke="midnightblue" points="872.11,-768.27 861.59,-769.52 870.59,-775.1 872.11,-768.27"/>
</g>
<!-- Node3 -->
<g id="node3" class="node">
<title>Node3</title>
<g id="a_node3"><a xlink:href="../../d6/dd2/DisplayElement_8hpp.html" target="_top" xlink:title=" ">
<polygon fill="white" stroke="black" points="882.76,-750.5 882.76,-769.5 1037.76,-769.5 1037.76,-750.5 882.76,-750.5"/>
<text text-anchor="middle" x="960.26" y="-757.5" font-family="Helvetica,sans-Serif" font-size="10.00">Display/DisplayElement.hpp</text>
</a>
</g>
</g>
<!-- Node1&#45;&gt;Node3 -->
<g id="edge2" class="edge">
<title>Node1&#45;&gt;Node3</title>
<path fill="none" stroke="midnightblue" d="M1049.23,-806.32C1032.23,-797.66 1005.89,-784.24 986.27,-774.25"/>
<polygon fill="midnightblue" stroke="midnightblue" points="987.75,-771.08 977.25,-769.65 984.57,-777.31 987.75,-771.08"/>
</g>
<!-- Node26 -->
<g id="node26" class="node">
<title>Node26</title>
<g id="a_node26"><a xlink:href="../../dc/d77/DisplayInterface_8hpp.html" target="_top" xlink:title=" ">
<polygon fill="white" stroke="black" points="881.26,-694.5 881.26,-713.5 1039.26,-713.5 1039.26,-694.5 881.26,-694.5"/>
<text text-anchor="middle" x="960.26" y="-701.5" font-family="Helvetica,sans-Serif" font-size="10.00">Display/DisplayInterface.hpp</text>
</a>
</g>
</g>
<!-- Node1&#45;&gt;Node26 -->
<g id="edge65" class="edge">
<title>Node1&#45;&gt;Node26</title>
<path fill="none" stroke="midnightblue" d="M1065.86,-806.43C1064.81,-792.97 1061.02,-766.7 1047.26,-750 1034.97,-735.08 1016.44,-724.53 999.64,-717.42"/>
<polygon fill="midnightblue" stroke="midnightblue" points="1000.59,-714.04 990,-713.63 998.02,-720.55 1000.59,-714.04"/>
</g>
<!-- Node34 -->
<g id="node34" class="node">
<title>Node34</title>
<g id="a_node34"><a xlink:href="../../d1/d52/InterfaceMIDIInputElements_8hpp.html" target="_top" xlink:title=" ">
<polygon fill="white" stroke="black" points="1458.26,-280.5 1458.26,-310.5 1626.26,-310.5 1626.26,-280.5 1458.26,-280.5"/>
<text text-anchor="start" x="1466.26" y="-298.5" font-family="Helvetica,sans-Serif" font-size="10.00">MIDI_Inputs/InterfaceMIDIInput</text>
<text text-anchor="middle" x="1542.26" y="-287.5" font-family="Helvetica,sans-Serif" font-size="10.00">Elements.hpp</text>
</a>
</g>
</g>
<!-- Node1&#45;&gt;Node34 -->
<g id="edge66" class="edge">
<title>Node1&#45;&gt;Node34</title>
<path fill="none" stroke="midnightblue" d="M1113.96,-812.02C1220.44,-804.06 1468.26,-777.72 1468.26,-705 1468.26,-705 1468.26,-705 1468.26,-412 1468.26,-374.29 1496.57,-339.05 1518.17,-317.64"/>
<polygon fill="midnightblue" stroke="midnightblue" points="1520.66,-320.1 1525.47,-310.67 1515.82,-315.04 1520.66,-320.1"/>
</g>
<!-- Node36 -->
<g id="node36" class="node">
<title>Node36</title>
<g id="a_node36"><a xlink:title=" ">
<polygon fill="white" stroke="#bfbfbf" points="1496.76,-750.5 1496.76,-769.5 1547.76,-769.5 1547.76,-750.5 1496.76,-750.5"/>
<text text-anchor="middle" x="1522.26" y="-757.5" font-family="Helvetica,sans-Serif" font-size="10.00">math.h</text>
</a>
</g>
</g>
<!-- Node1&#45;&gt;Node36 -->
<g id="edge70" class="edge">
<title>Node1&#45;&gt;Node36</title>
<path fill="none" stroke="midnightblue" d="M1113.92,-811.62C1191.48,-805.71 1349.69,-792.01 1482.26,-770 1483.71,-769.76 1485.19,-769.5 1486.67,-769.22"/>
<polygon fill="midnightblue" stroke="midnightblue" points="1487.41,-772.65 1496.53,-767.24 1486.03,-765.78 1487.41,-772.65"/>
</g>
<!-- Node4 -->
<g id="node4" class="node">
<title>Node4</title>
<g id="a_node4"><a xlink:href="../../de/dd1/LinkedList_8hpp.html" target="_top" xlink:title=" ">
<polygon fill="white" stroke="black" points="196.76,-515.5 196.76,-534.5 355.76,-534.5 355.76,-515.5 196.76,-515.5"/>
<text text-anchor="middle" x="276.26" y="-522.5" font-family="Helvetica,sans-Serif" font-size="10.00">AH/Containers/LinkedList.hpp</text>
</a>
</g>
</g>
<!-- Node3&#45;&gt;Node4 -->
<g id="edge3" class="edge">
<title>Node3&#45;&gt;Node4</title>
<path fill="none" stroke="midnightblue" d="M935.11,-750.43C830.67,-714.85 431.1,-578.74 310.76,-537.75"/>
<polygon fill="midnightblue" stroke="midnightblue" points="311.88,-534.44 301.29,-534.52 309.62,-541.06 311.88,-534.44"/>
</g>
<!-- Node3&#45;&gt;Node26 -->
<g id="edge39" class="edge">
<title>Node3&#45;&gt;Node26</title>
<path fill="none" stroke="midnightblue" d="M960.26,-750.08C960.26,-743.01 960.26,-732.86 960.26,-723.99"/>
<polygon fill="midnightblue" stroke="midnightblue" points="963.76,-723.75 960.26,-713.75 956.76,-723.75 963.76,-723.75"/>
</g>
<!-- Node5 -->
<g id="node5" class="node">
<title>Node5</title>
<g id="a_node5"><a xlink:href="../../d1/d65/Warnings_8hpp.html" target="_top" xlink:title=" ">
<polygon fill="white" stroke="black" points="815.76,-0.5 815.76,-19.5 958.76,-19.5 958.76,-0.5 815.76,-0.5"/>
<text text-anchor="middle" x="887.26" y="-7.5" font-family="Helvetica,sans-Serif" font-size="10.00">AH/Settings/Warnings.hpp</text>
</a>
</g>
</g>
<!-- Node4&#45;&gt;Node5 -->
<g id="edge4" class="edge">
<title>Node4&#45;&gt;Node5</title>
<path fill="none" stroke="midnightblue" d="M253.15,-515.43C236.49,-508.13 214.65,-496.09 201.26,-479 182.63,-455.2 181.26,-444.23 181.26,-414 181.26,-414 181.26,-414 181.26,-177 181.26,-104.32 222.13,-78.41 291.26,-56 384.55,-25.76 665,-15.64 805.37,-12.42"/>
<polygon fill="midnightblue" stroke="midnightblue" points="805.72,-15.91 815.64,-12.19 805.57,-8.91 805.72,-15.91"/>
</g>
<!-- Node6 -->
<g id="node6" class="node">
<title>Node6</title>
<g id="a_node6"><a xlink:href="../../df/dee/Debug_8hpp.html" target="_top" xlink:title=" ">
<polygon fill="white" stroke="black" points="703.76,-403.5 703.76,-422.5 824.76,-422.5 824.76,-403.5 703.76,-403.5"/>
<text text-anchor="middle" x="764.26" y="-410.5" font-family="Helvetica,sans-Serif" font-size="10.00">AH/Debug/Debug.hpp</text>
</a>
</g>
</g>
<!-- Node4&#45;&gt;Node6 -->
<g id="edge5" class="edge">
<title>Node4&#45;&gt;Node6</title>
<path fill="none" stroke="midnightblue" d="M314.15,-515.46C402.07,-495.64 619.82,-446.56 716.59,-424.75"/>
<polygon fill="midnightblue" stroke="midnightblue" points="717.42,-428.15 726.4,-422.53 715.88,-421.32 717.42,-428.15"/>
</g>
<!-- Node10 -->
<g id="node10" class="node">
<title>Node10</title>
<g id="a_node10"><a xlink:href="../../d7/d79/MinMaxFix_8hpp.html" target="_top" xlink:title=" ">
<polygon fill="white" stroke="black" points="209.26,-112.5 209.26,-131.5 345.26,-131.5 345.26,-112.5 209.26,-112.5"/>
<text text-anchor="middle" x="277.26" y="-119.5" font-family="Helvetica,sans-Serif" font-size="10.00">AH/Math/MinMaxFix.hpp</text>
</a>
</g>
</g>
<!-- Node4&#45;&gt;Node10 -->
<g id="edge36" class="edge">
<title>Node4&#45;&gt;Node10</title>
<path fill="none" stroke="midnightblue" d="M276.29,-515.25C276.41,-465.02 277.04,-213.02 277.22,-141.78"/>
<polygon fill="midnightblue" stroke="midnightblue" points="280.72,-141.64 277.24,-131.63 273.72,-141.62 280.72,-141.64"/>
</g>
<!-- Node24 -->
<g id="node24" class="node">
<title>Node24</title>
<g id="a_node24"><a xlink:title=" ">
<polygon fill="white" stroke="#bfbfbf" points="209.76,-459.5 209.76,-478.5 262.76,-478.5 262.76,-459.5 209.76,-459.5"/>
<text text-anchor="middle" x="236.26" y="-466.5" font-family="Helvetica,sans-Serif" font-size="10.00">stdlib.h</text>
</a>
</g>
</g>
<!-- Node4&#45;&gt;Node24 -->
<g id="edge37" class="edge">
<title>Node4&#45;&gt;Node24</title>
<path fill="none" stroke="midnightblue" d="M269.66,-515.08C264.01,-507.46 255.72,-496.26 248.81,-486.94"/>
<polygon fill="midnightblue" stroke="midnightblue" points="251.51,-484.7 242.75,-478.75 245.89,-488.87 251.51,-484.7"/>
</g>
<!-- Node25 -->
<g id="node25" class="node">
<title>Node25</title>
<g id="a_node25"><a xlink:title=" ">
<polygon fill="white" stroke="#bfbfbf" points="590.26,-459.5 590.26,-478.5 680.26,-478.5 680.26,-459.5 590.26,-459.5"/>
<text text-anchor="middle" x="635.26" y="-466.5" font-family="Helvetica,sans-Serif" font-size="10.00">AH/STL/iterator</text>
</a>
</g>
</g>
<!-- Node4&#45;&gt;Node25 -->
<g id="edge38" class="edge">
<title>Node4&#45;&gt;Node25</title>
<path fill="none" stroke="midnightblue" d="M333.15,-515.44C400.85,-505.26 513.13,-488.37 580.07,-478.3"/>
<polygon fill="midnightblue" stroke="midnightblue" points="580.64,-481.76 590.01,-476.81 579.6,-474.83 580.64,-481.76"/>
</g>
<!-- Node6&#45;&gt;Node5 -->
<g id="edge6" class="edge">
<title>Node6&#45;&gt;Node5</title>
<path fill="none" stroke="midnightblue" d="M811.87,-403.39C866.09,-390.52 947.26,-360.56 947.26,-296.5 947.26,-296.5 947.26,-296.5 947.26,-121 947.26,-83.88 920.61,-47.38 902.83,-27.16"/>
<polygon fill="midnightblue" stroke="midnightblue" points="905.19,-24.55 895.86,-19.53 900.03,-29.28 905.19,-24.55"/>
</g>
<!-- Node7 -->
<g id="node7" class="node">
<title>Node7</title>
<g id="a_node7"><a xlink:href="../../dd/d80/PrintStream_8hpp.html" target="_top" xlink:title=" ">
<polygon fill="white" stroke="black" points="343.76,-286 343.76,-305 516.76,-305 516.76,-286 343.76,-286"/>
<text text-anchor="middle" x="430.26" y="-293" font-family="Helvetica,sans-Serif" font-size="10.00">AH/PrintStream/PrintStream.hpp</text>
</a>
</g>
</g>
<!-- Node6&#45;&gt;Node7 -->
<g id="edge7" class="edge">
<title>Node6&#45;&gt;Node7</title>
<path fill="none" stroke="midnightblue" d="M708.39,-403.49C667.64,-396.31 611.52,-384.4 564.26,-367 522.96,-351.79 478.36,-326.32 452.45,-310.51"/>
<polygon fill="midnightblue" stroke="midnightblue" points="454.14,-307.44 443.79,-305.17 450.46,-313.4 454.14,-307.44"/>
</g>
<!-- Node15 -->
<g id="node15" class="node">
<title>Node15</title>
<g id="a_node15"><a xlink:href="../../de/dd1/AH_2Settings_2SettingsWrapper_8hpp.html" target="_top" xlink:title=" ">
<polygon fill="white" stroke="black" points="675.26,-347.5 675.26,-366.5 853.26,-366.5 853.26,-347.5 675.26,-347.5"/>
<text text-anchor="middle" x="764.26" y="-354.5" font-family="Helvetica,sans-Serif" font-size="10.00">AH/Settings/SettingsWrapper.hpp</text>
</a>
</g>
</g>
<!-- Node6&#45;&gt;Node15 -->
<g id="edge20" class="edge">
<title>Node6&#45;&gt;Node15</title>
<path fill="none" stroke="midnightblue" d="M759.1,-403.08C757.59,-395.93 757.16,-385.64 757.81,-376.69"/>
<polygon fill="midnightblue" stroke="midnightblue" points="761.28,-377.13 759.13,-366.75 754.34,-376.2 761.28,-377.13"/>
</g>
<!-- Node23 -->
<g id="node23" class="node">
<title>Node23</title>
<g id="a_node23"><a xlink:href="../../d7/d52/DebugVal_8hpp.html" target="_top" xlink:title=" ">
<polygon fill="white" stroke="black" points="573.26,-347.5 573.26,-366.5 657.26,-366.5 657.26,-347.5 573.26,-347.5"/>
<text text-anchor="middle" x="615.26" y="-354.5" font-family="Helvetica,sans-Serif" font-size="10.00">DebugVal.hpp</text>
</a>
</g>
</g>
<!-- Node6&#45;&gt;Node23 -->
<g id="edge35" class="edge">
<title>Node6&#45;&gt;Node23</title>
<path fill="none" stroke="midnightblue" d="M740.65,-403.44C715.81,-394.44 676.49,-380.19 648.51,-370.05"/>
<polygon fill="midnightblue" stroke="midnightblue" points="649.36,-366.63 638.76,-366.52 646.97,-373.21 649.36,-366.63"/>
</g>
<!-- Node7&#45;&gt;Node5 -->
<g id="edge9" class="edge">
<title>Node7&#45;&gt;Node5</title>
<path fill="none" stroke="midnightblue" d="M441.93,-285.83C478.6,-258.74 595.18,-173.76 697.26,-112 753.89,-77.74 823.14,-42.53 860.42,-24.09"/>
<polygon fill="midnightblue" stroke="midnightblue" points="862.19,-27.12 869.61,-19.56 859.1,-20.84 862.19,-27.12"/>
</g>
<!-- Node8 -->
<g id="node8" class="node">
<title>Node8</title>
<g id="a_node8"><a xlink:href="../../d6/db0/AH_2Settings_2NamespaceSettings_8hpp.html" target="_top" xlink:title=" ">
<polygon fill="white" stroke="black" points="321.76,-56.5 321.76,-75.5 516.76,-75.5 516.76,-56.5 321.76,-56.5"/>
<text text-anchor="middle" x="419.26" y="-63.5" font-family="Helvetica,sans-Serif" font-size="10.00">AH/Settings/NamespaceSettings.hpp</text>
</a>
</g>
</g>
<!-- Node7&#45;&gt;Node8 -->
<g id="edge8" class="edge">
<title>Node7&#45;&gt;Node8</title>
<path fill="none" stroke="midnightblue" d="M437.99,-285.79C455.37,-265.11 494.63,-211.49 476.26,-168 467.34,-146.86 451.23,-151.57 439.26,-132 430.51,-117.68 425.31,-99.21 422.42,-85.63"/>
<polygon fill="midnightblue" stroke="midnightblue" points="425.81,-84.73 420.5,-75.56 418.93,-86.04 425.81,-84.73"/>
</g>
<!-- Node9 -->
<g id="node9" class="node">
<title>Node9</title>
<g id="a_node9"><a xlink:href="../../d6/ddf/Arduino-Wrapper_8h.html" target="_top" xlink:title=" ">
<polygon fill="white" stroke="black" points="343.26,-168.5 343.26,-187.5 467.26,-187.5 467.26,-168.5 343.26,-168.5"/>
<text text-anchor="middle" x="405.26" y="-175.5" font-family="Helvetica,sans-Serif" font-size="10.00">AH/Arduino&#45;Wrapper.h</text>
</a>
</g>
</g>
<!-- Node7&#45;&gt;Node9 -->
<g id="edge10" class="edge">
<title>Node7&#45;&gt;Node9</title>
<path fill="none" stroke="midnightblue" d="M428.38,-285.82C424.35,-267.17 414.78,-222.94 409.3,-197.63"/>
<polygon fill="midnightblue" stroke="midnightblue" points="412.7,-196.82 407.16,-187.78 405.86,-198.3 412.7,-196.82"/>
</g>
<!-- Node14 -->
<g id="node14" class="node">
<title>Node14</title>
<g id="a_node14"><a xlink:title=" ">
<polygon fill="white" stroke="#bfbfbf" points="1239.26,-224.5 1239.26,-243.5 1417.26,-243.5 1417.26,-224.5 1239.26,-224.5"/>
<text text-anchor="middle" x="1328.26" y="-231.5" font-family="Helvetica,sans-Serif" font-size="10.00">Settings/NamespaceSettings.hpp</text>
</a>
</g>
</g>
<!-- Node7&#45;&gt;Node14 -->
<g id="edge19" class="edge">
<title>Node7&#45;&gt;Node14</title>
<path fill="none" stroke="midnightblue" d="M516.91,-286.79C544.5,-284.45 575.15,-281.98 603.26,-280 878.43,-260.57 950.24,-264.67 1229.07,-244.06"/>
<polygon fill="midnightblue" stroke="midnightblue" points="1229.36,-247.55 1239.08,-243.32 1228.84,-240.57 1229.36,-247.55"/>
</g>
<!-- Node9&#45;&gt;Node10 -->
<g id="edge11" class="edge">
<title>Node9&#45;&gt;Node10</title>
<path fill="none" stroke="midnightblue" d="M384.98,-168.44C363.92,-159.56 330.75,-145.56 306.78,-135.45"/>
<polygon fill="midnightblue" stroke="midnightblue" points="308.03,-132.18 297.45,-131.52 305.3,-138.63 308.03,-132.18"/>
</g>
<!-- Node12 -->
<g id="node12" class="node">
<title>Node12</title>
<g id="a_node12"><a xlink:title=" ">
<polygon fill="white" stroke="#bfbfbf" points="9.76,-0.5 9.76,-19.5 72.76,-19.5 72.76,-0.5 9.76,-0.5"/>
<text text-anchor="middle" x="41.26" y="-7.5" font-family="Helvetica,sans-Serif" font-size="10.00">Arduino.h</text>
</a>
</g>
</g>
<!-- Node9&#45;&gt;Node12 -->
<g id="edge18" class="edge">
<title>Node9&#45;&gt;Node12</title>
<path fill="none" stroke="midnightblue" d="M343.2,-170.72C241.07,-158.94 44.79,-129.73 4.26,-76 -7.68,-60.17 7.8,-40.09 22.22,-26.47"/>
<polygon fill="midnightblue" stroke="midnightblue" points="24.78,-28.88 29.95,-19.64 20.14,-23.64 24.78,-28.88"/>
</g>
<!-- Node13 -->
<g id="node13" class="node">
<title>Node13</title>
<g id="a_node13"><a xlink:title=" ">
<polygon fill="white" stroke="#bfbfbf" points="447.76,-112.5 447.76,-131.5 554.76,-131.5 554.76,-112.5 447.76,-112.5"/>
<text text-anchor="middle" x="501.26" y="-119.5" font-family="Helvetica,sans-Serif" font-size="10.00">AH/STL/type_traits</text>
</a>
</g>
</g>
<!-- Node9&#45;&gt;Node13 -->
<g id="edge17" class="edge">
<title>Node9&#45;&gt;Node13</title>
<path fill="none" stroke="midnightblue" d="M420.69,-168.32C435.8,-159.82 459.08,-146.73 476.73,-136.8"/>
<polygon fill="midnightblue" stroke="midnightblue" points="478.88,-139.61 485.88,-131.65 475.45,-133.51 478.88,-139.61"/>
</g>
<!-- Node10&#45;&gt;Node5 -->
<g id="edge12" class="edge">
<title>Node10&#45;&gt;Node5</title>
<path fill="none" stroke="midnightblue" d="M279.22,-112.46C283.01,-98.03 292.87,-69.12 313.26,-56 353.66,-30.01 656.97,-17.68 805.63,-13.15"/>
<polygon fill="midnightblue" stroke="midnightblue" points="805.73,-16.65 815.62,-12.85 805.52,-9.65 805.73,-16.65"/>
</g>
<!-- Node10&#45;&gt;Node8 -->
<g id="edge16" class="edge">
<title>Node10&#45;&gt;Node8</title>
<path fill="none" stroke="midnightblue" d="M299.76,-112.44C323.34,-103.48 360.59,-89.31 387.23,-79.18"/>
<polygon fill="midnightblue" stroke="midnightblue" points="388.77,-82.34 396.87,-75.52 386.28,-75.8 388.77,-82.34"/>
</g>
<!-- Node11 -->
<g id="node11" class="node">
<title>Node11</title>
<g id="a_node11"><a xlink:href="../../d6/d3b/FixArduinoMacros_8hpp.html" target="_top" xlink:title=" ">
<polygon fill="white" stroke="black" points="13.26,-56.5 13.26,-75.5 183.26,-75.5 183.26,-56.5 13.26,-56.5"/>
<text text-anchor="middle" x="98.26" y="-63.5" font-family="Helvetica,sans-Serif" font-size="10.00">AH/Math/FixArduinoMacros.hpp</text>
</a>
</g>
</g>
<!-- Node10&#45;&gt;Node11 -->
<g id="edge13" class="edge">
<title>Node10&#45;&gt;Node11</title>
<path fill="none" stroke="midnightblue" d="M248.9,-112.44C218.53,-103.28 170.15,-88.69 136.45,-78.52"/>
<polygon fill="midnightblue" stroke="midnightblue" points="137.08,-75.05 126.49,-75.52 135.06,-81.76 137.08,-75.05"/>
</g>
<!-- Node11&#45;&gt;Node5 -->
<g id="edge14" class="edge">
<title>Node11&#45;&gt;Node5</title>
<path fill="none" stroke="midnightblue" d="M183.31,-57.13C188.03,-56.73 192.7,-56.36 197.26,-56 416.92,-38.86 676.26,-23.17 805.49,-15.66"/>
<polygon fill="midnightblue" stroke="midnightblue" points="805.92,-19.14 815.7,-15.06 805.52,-12.15 805.92,-19.14"/>
</g>
<!-- Node11&#45;&gt;Node12 -->
<g id="edge15" class="edge">
<title>Node11&#45;&gt;Node12</title>
<path fill="none" stroke="midnightblue" d="M89.11,-56.32C80.76,-48.42 68.23,-36.55 58.09,-26.94"/>
<polygon fill="midnightblue" stroke="midnightblue" points="60.26,-24.17 50.59,-19.83 55.44,-29.25 60.26,-24.17"/>
</g>
<!-- Node15&#45;&gt;Node5 -->
<g id="edge21" class="edge">
<title>Node15&#45;&gt;Node5</title>
<path fill="none" stroke="midnightblue" d="M756.19,-347.2C743.37,-332.13 721.35,-300.97 737.26,-280 773.25,-232.59 818.72,-279.82 866.26,-244 893.36,-223.59 906.26,-212.92 906.26,-179 906.26,-179 906.26,-179 906.26,-121 906.26,-88.49 898.1,-51.35 892.48,-29.61"/>
<polygon fill="midnightblue" stroke="midnightblue" points="895.81,-28.5 889.83,-19.75 889.05,-30.32 895.81,-28.5"/>
</g>
<!-- Node15&#45;&gt;Node6 -->
<g id="edge34" class="edge">
<title>Node15&#45;&gt;Node6</title>
<path fill="none" stroke="midnightblue" d="M769.39,-366.75C770.92,-373.86 771.37,-384.14 770.74,-393.1"/>
<polygon fill="midnightblue" stroke="midnightblue" points="767.26,-392.71 769.43,-403.08 774.2,-393.62 767.26,-392.71"/>
</g>
<!-- Node15&#45;&gt;Node8 -->
<g id="edge22" class="edge">
<title>Node15&#45;&gt;Node8</title>
<path fill="none" stroke="midnightblue" d="M675.02,-347.99C648.91,-341.55 622.31,-330.33 603.26,-311 578.75,-286.12 583.26,-269.93 583.26,-235 583.26,-235 583.26,-235 583.26,-177 583.26,-146.9 585.37,-133.46 564.26,-112 547.92,-95.39 525.57,-84.88 503.31,-78.24"/>
<polygon fill="midnightblue" stroke="midnightblue" points="504.03,-74.81 493.46,-75.55 502.18,-81.56 504.03,-74.81"/>
</g>
<!-- Node16 -->
<g id="node16" class="node">
<title>Node16</title>
<g id="a_node16"><a xlink:href="../../d5/d4f/AH_2Settings_2Settings_8hpp.html" target="_top" xlink:title="All user settings and debugging options can be changed here.">
<polygon fill="white" stroke="black" points="611.76,-286 611.76,-305 688.76,-305 688.76,-286 611.76,-286"/>
<text text-anchor="middle" x="650.26" y="-293" font-family="Helvetica,sans-Serif" font-size="10.00">Settings.hpp</text>
</a>
</g>
</g>
<!-- Node15&#45;&gt;Node16 -->
<g id="edge23" class="edge">
<title>Node15&#45;&gt;Node16</title>
<path fill="none" stroke="midnightblue" d="M747.93,-347.48C729.05,-337.62 697.76,-321.29 675.69,-309.77"/>
<polygon fill="midnightblue" stroke="midnightblue" points="677.05,-306.53 666.57,-305.01 673.81,-312.74 677.05,-306.53"/>
</g>
<!-- Node22 -->
<g id="node22" class="node">
<title>Node22</title>
<g id="a_node22"><a xlink:href="../../d9/d98/TeensyUSBTypes_8hpp.html" target="_top" xlink:title=" ">
<polygon fill="white" stroke="black" points="745.76,-286 745.76,-305 918.76,-305 918.76,-286 745.76,-286"/>
<text text-anchor="middle" x="832.26" y="-293" font-family="Helvetica,sans-Serif" font-size="10.00">AH/Teensy/TeensyUSBTypes.hpp</text>
</a>
</g>
</g>
<!-- Node15&#45;&gt;Node22 -->
<g id="edge33" class="edge">
<title>Node15&#45;&gt;Node22</title>
<path fill="none" stroke="midnightblue" d="M774.01,-347.48C784.61,-338.2 801.78,-323.17 814.74,-311.83"/>
<polygon fill="midnightblue" stroke="midnightblue" points="817.32,-314.23 822.54,-305.01 812.71,-308.96 817.32,-314.23"/>
</g>
<!-- Node17 -->
<g id="node17" class="node">
<title>Node17</title>
<g id="a_node17"><a xlink:href="../../dc/d50/Frequency_8hpp.html" target="_top" xlink:title=" ">
<polygon fill="white" stroke="black" points="706.26,-112.5 706.26,-131.5 840.26,-131.5 840.26,-112.5 706.26,-112.5"/>
<text text-anchor="middle" x="773.26" y="-119.5" font-family="Helvetica,sans-Serif" font-size="10.00">AH/Types/Frequency.hpp</text>
</a>
</g>
</g>
<!-- Node16&#45;&gt;Node17 -->
<g id="edge24" class="edge">
<title>Node16&#45;&gt;Node17</title>
<path fill="none" stroke="midnightblue" d="M681.06,-285.93C688.33,-283.95 696.06,-281.87 703.26,-280 767.95,-263.18 808.05,-296.61 849.26,-244 877.51,-207.94 825.48,-160.95 794.27,-137.56"/>
<polygon fill="midnightblue" stroke="midnightblue" points="796.25,-134.67 786.11,-131.61 792.13,-140.33 796.25,-134.67"/>
</g>
<!-- Node18 -->
<g id="node18" class="node">
<title>Node18</title>
<g id="a_node18"><a xlink:href="../../d7/d7c/ADCConfig_8hpp.html" target="_top" xlink:title="This file contains the platform&#45;specific ADC resolutions.">
<polygon fill="white" stroke="black" points="611.76,-224.5 611.76,-243.5 768.76,-243.5 768.76,-224.5 611.76,-224.5"/>
<text text-anchor="middle" x="690.26" y="-231.5" font-family="Helvetica,sans-Serif" font-size="10.00">AH/Hardware/ADCConfig.hpp</text>
</a>
</g>
</g>
<!-- Node16&#45;&gt;Node18 -->
<g id="edge27" class="edge">
<title>Node16&#45;&gt;Node18</title>
<path fill="none" stroke="midnightblue" d="M655.99,-285.98C661.94,-277.14 671.38,-263.09 678.85,-251.98"/>
<polygon fill="midnightblue" stroke="midnightblue" points="681.87,-253.76 684.54,-243.51 676.06,-249.86 681.87,-253.76"/>
</g>
<!-- Node19 -->
<g id="node19" class="node">
<title>Node19</title>
<g id="a_node19"><a xlink:title=" ">
<polygon fill="white" stroke="#bfbfbf" points="786.76,-224.5 786.76,-243.5 839.76,-243.5 839.76,-224.5 786.76,-224.5"/>
<text text-anchor="middle" x="813.26" y="-231.5" font-family="Helvetica,sans-Serif" font-size="10.00">limits.h</text>
</a>
</g>
</g>
<!-- Node16&#45;&gt;Node19 -->
<g id="edge30" class="edge">
<title>Node16&#45;&gt;Node19</title>
<path fill="none" stroke="midnightblue" d="M673.62,-285.98C701.58,-275.77 748.59,-258.61 780.26,-247.05"/>
<polygon fill="midnightblue" stroke="midnightblue" points="781.76,-250.23 789.95,-243.51 779.36,-243.65 781.76,-250.23"/>
</g>
<!-- Node20 -->
<g id="node20" class="node">
<title>Node20</title>
<g id="a_node20"><a xlink:title=" ">
<polygon fill="white" stroke="#bfbfbf" points="1165.26,-224.5 1165.26,-243.5 1221.26,-243.5 1221.26,-224.5 1165.26,-224.5"/>
<text text-anchor="middle" x="1193.26" y="-231.5" font-family="Helvetica,sans-Serif" font-size="10.00">stddef.h</text>
</a>
</g>
</g>
<!-- Node16&#45;&gt;Node20 -->
<g id="edge31" class="edge">
<title>Node16&#45;&gt;Node20</title>
<path fill="none" stroke="midnightblue" d="M689.16,-287.45C704.16,-284.88 721.48,-282.09 737.26,-280 891.48,-259.56 1076.17,-244.09 1154.79,-237.92"/>
<polygon fill="midnightblue" stroke="midnightblue" points="1155.47,-241.38 1165.17,-237.12 1154.93,-234.4 1155.47,-241.38"/>
</g>
<!-- Node21 -->
<g id="node21" class="node">
<title>Node21</title>
<g id="a_node21"><a xlink:title=" ">
<polygon fill="white" stroke="#bfbfbf" points="979.76,-224.5 979.76,-243.5 1032.76,-243.5 1032.76,-224.5 979.76,-224.5"/>
<text text-anchor="middle" x="1006.26" y="-231.5" font-family="Helvetica,sans-Serif" font-size="10.00">stdint.h</text>
</a>
</g>
</g>
<!-- Node16&#45;&gt;Node21 -->
<g id="edge32" class="edge">
<title>Node16&#45;&gt;Node21</title>
<path fill="none" stroke="midnightblue" d="M689.04,-288.02C758.15,-276.47 901.69,-252.48 969.4,-241.16"/>
<polygon fill="midnightblue" stroke="midnightblue" points="970.31,-244.56 979.59,-239.46 969.15,-237.65 970.31,-244.56"/>
</g>
<!-- Node17&#45;&gt;Node5 -->
<g id="edge25" class="edge">
<title>Node17&#45;&gt;Node5</title>
<path fill="none" stroke="midnightblue" d="M782.21,-112.37C801.36,-93.89 846.54,-50.29 870.95,-26.74"/>
<polygon fill="midnightblue" stroke="midnightblue" points="873.59,-29.05 878.36,-19.59 868.73,-24.02 873.59,-29.05"/>
</g>
<!-- Node17&#45;&gt;Node8 -->
<g id="edge26" class="edge">
<title>Node17&#45;&gt;Node8</title>
<path fill="none" stroke="midnightblue" d="M717.17,-112.44C654.12,-102.83 551.87,-87.23 485.09,-77.04"/>
<polygon fill="midnightblue" stroke="midnightblue" points="485.51,-73.56 475.09,-75.52 484.45,-80.48 485.51,-73.56"/>
</g>
<!-- Node18&#45;&gt;Node5 -->
<g id="edge28" class="edge">
<title>Node18&#45;&gt;Node5</title>
<path fill="none" stroke="midnightblue" d="M713.36,-224.4C747.95,-210.35 813.03,-179.22 849.26,-132 872.98,-101.1 882.06,-55.12 885.41,-29.66"/>
<polygon fill="midnightblue" stroke="midnightblue" points="888.91,-29.87 886.58,-19.54 881.96,-29.07 888.91,-29.87"/>
</g>
<!-- Node18&#45;&gt;Node9 -->
<g id="edge29" class="edge">
<title>Node18&#45;&gt;Node9</title>
<path fill="none" stroke="midnightblue" d="M645.1,-224.44C594.97,-214.94 514.04,-199.61 460.26,-189.42"/>
<polygon fill="midnightblue" stroke="midnightblue" points="460.69,-185.94 450.21,-187.52 459.39,-192.82 460.69,-185.94"/>
</g>
<!-- Node26&#45;&gt;Node4 -->
<g id="edge40" class="edge">
<title>Node26&#45;&gt;Node4</title>
<path fill="none" stroke="midnightblue" d="M946.16,-694.39C924.49,-681.34 881.47,-656.14 843.26,-638 770.65,-603.52 753.23,-590.57 675.26,-571 646.05,-563.67 474.38,-545.72 365.95,-534.84"/>
<polygon fill="midnightblue" stroke="midnightblue" points="366.28,-531.35 355.98,-533.84 365.58,-538.32 366.28,-531.35"/>
</g>
<!-- Node27 -->
<g id="node27" class="node">
<title>Node27</title>
<g id="a_node27"><a xlink:href="../../d0/d4e/Def_8hpp.html" target="_top" xlink:title=" ">
<polygon fill="white" stroke="black" points="1143.26,-638.5 1143.26,-657.5 1217.26,-657.5 1217.26,-638.5 1143.26,-638.5"/>
<text text-anchor="middle" x="1180.26" y="-645.5" font-family="Helvetica,sans-Serif" font-size="10.00">Def/Def.hpp</text>
</a>
</g>
</g>
<!-- Node26&#45;&gt;Node27 -->
<g id="edge41" class="edge">
<title>Node26&#45;&gt;Node27</title>
<path fill="none" stroke="midnightblue" d="M995.12,-694.44C1033.18,-685.1 1094.22,-670.12 1135.72,-659.93"/>
<polygon fill="midnightblue" stroke="midnightblue" points="1136.69,-663.3 1145.57,-657.52 1135.02,-656.5 1136.69,-663.3"/>
</g>
<!-- Node33 -->
<g id="node33" class="node">
<title>Node33</title>
<g id="a_node33"><a xlink:title=" ">
<polygon fill="white" stroke="#bfbfbf" points="786.26,-638.5 786.26,-657.5 834.26,-657.5 834.26,-638.5 786.26,-638.5"/>
<text text-anchor="middle" x="810.26" y="-645.5" font-family="Helvetica,sans-Serif" font-size="10.00">Print.h</text>
</a>
</g>
</g>
<!-- Node26&#45;&gt;Node33 -->
<g id="edge64" class="edge">
<title>Node26&#45;&gt;Node33</title>
<path fill="none" stroke="midnightblue" d="M936.5,-694.44C911.37,-685.4 871.55,-671.06 843.36,-660.92"/>
<polygon fill="midnightblue" stroke="midnightblue" points="844.51,-657.61 833.92,-657.52 842.14,-664.2 844.51,-657.61"/>
</g>
<!-- Node27&#45;&gt;Node14 -->
<g id="edge61" class="edge">
<title>Node27&#45;&gt;Node14</title>
<path fill="none" stroke="midnightblue" d="M1217.42,-645.59C1287.06,-640.74 1430.26,-619.42 1430.26,-526 1430.26,-526 1430.26,-526 1430.26,-356 1430.26,-318.81 1419.38,-308.31 1395.26,-280 1384.19,-267 1368.48,-256.18 1355.05,-248.41"/>
<polygon fill="midnightblue" stroke="midnightblue" points="1356.65,-245.29 1346.2,-243.53 1353.27,-251.42 1356.65,-245.29"/>
</g>
<!-- Node27&#45;&gt;Node20 -->
<g id="edge62" class="edge">
<title>Node27&#45;&gt;Node20</title>
<path fill="none" stroke="midnightblue" d="M1217.68,-642.71C1278.54,-633.43 1392.26,-605.46 1392.26,-526 1392.26,-526 1392.26,-526 1392.26,-356 1392.26,-321.18 1397.88,-304.62 1373.26,-280 1371.99,-278.72 1283.97,-257.1 1231.51,-244.3"/>
<polygon fill="midnightblue" stroke="midnightblue" points="1232.07,-240.84 1221.53,-241.87 1230.41,-247.64 1232.07,-240.84"/>
</g>
<!-- Node27&#45;&gt;Node21 -->
<g id="edge63" class="edge">
<title>Node27&#45;&gt;Node21</title>
<path fill="none" stroke="midnightblue" d="M1142.87,-645.6C1081.97,-642.45 965.58,-632.5 940.26,-602 851.55,-495.1 957.93,-309.55 994.68,-252.31"/>
<polygon fill="midnightblue" stroke="midnightblue" points="997.76,-253.99 1000.3,-243.71 991.9,-250.16 997.76,-253.99"/>
</g>
<!-- Node28 -->
<g id="node28" class="node">
<title>Node28</title>
<g id="a_node28"><a xlink:href="../../d7/d42/Channel_8hpp.html" target="_top" xlink:title=" ">
<polygon fill="white" stroke="black" points="1286.76,-286 1286.76,-305 1363.76,-305 1363.76,-286 1286.76,-286"/>
<text text-anchor="middle" x="1325.26" y="-293" font-family="Helvetica,sans-Serif" font-size="10.00">Channel.hpp</text>
</a>
</g>
</g>
<!-- Node27&#45;&gt;Node28 -->
<g id="edge42" class="edge">
<title>Node27&#45;&gt;Node28</title>
<path fill="none" stroke="midnightblue" d="M1200.74,-638.42C1235.96,-622.12 1304.26,-583.15 1304.26,-526 1304.26,-526 1304.26,-526 1304.26,-412 1304.26,-377.3 1313.55,-337.68 1319.77,-315.02"/>
<polygon fill="midnightblue" stroke="midnightblue" points="1323.23,-315.67 1322.6,-305.1 1316.49,-313.75 1323.23,-315.67"/>
</g>
<!-- Node29 -->
<g id="node29" class="node">
<title>Node29</title>
<g id="a_node29"><a xlink:href="../../d2/dbc/Cable_8hpp.html" target="_top" xlink:title=" ">
<polygon fill="white" stroke="black" points="1203.76,-286 1203.76,-305 1268.76,-305 1268.76,-286 1203.76,-286"/>
<text text-anchor="middle" x="1236.26" y="-293" font-family="Helvetica,sans-Serif" font-size="10.00">Cable.hpp</text>
</a>
</g>
</g>
<!-- Node27&#45;&gt;Node29 -->
<g id="edge45" class="edge">
<title>Node27&#45;&gt;Node29</title>
<path fill="none" stroke="midnightblue" d="M1189.7,-638.3C1208.81,-619.69 1250.26,-573.81 1250.26,-526 1250.26,-526 1250.26,-526 1250.26,-412 1250.26,-377.61 1244.07,-337.88 1239.92,-315.13"/>
<polygon fill="midnightblue" stroke="midnightblue" points="1243.34,-314.32 1238.04,-305.15 1236.46,-315.63 1243.34,-314.32"/>
</g>
<!-- Node30 -->
<g id="node30" class="node">
<title>Node30</title>
<g id="a_node30"><a xlink:href="../../de/d76/Array_8hpp.html" target="_top" xlink:title=" ">
<polygon fill="white" stroke="black" points="1042.76,-515.5 1042.76,-534.5 1177.76,-534.5 1177.76,-515.5 1042.76,-515.5"/>
<text text-anchor="middle" x="1110.26" y="-522.5" font-family="Helvetica,sans-Serif" font-size="10.00">AH/Containers/Array.hpp</text>
</a>
</g>
</g>
<!-- Node27&#45;&gt;Node30 -->
<g id="edge48" class="edge">
<title>Node27&#45;&gt;Node30</title>
<path fill="none" stroke="midnightblue" d="M1175.23,-638.3C1163.78,-618.5 1135.59,-569.78 1120.38,-543.49"/>
<polygon fill="midnightblue" stroke="midnightblue" points="1123.29,-541.53 1115.25,-534.62 1117.23,-545.03 1123.29,-541.53"/>
</g>
<!-- Node32 -->
<g id="node32" class="node">
<title>Node32</title>
<g id="a_node32"><a xlink:href="../../d4/d35/Hardware-Types_8hpp.html" target="_top" xlink:title=" ">
<polygon fill="white" stroke="black" points="948.76,-571.5 948.76,-601.5 1079.76,-601.5 1079.76,-571.5 948.76,-571.5"/>
<text text-anchor="start" x="956.76" y="-589.5" font-family="Helvetica,sans-Serif" font-size="10.00">AH/Hardware/Hardware</text>
<text text-anchor="middle" x="1014.26" y="-578.5" font-family="Helvetica,sans-Serif" font-size="10.00">&#45;Types.hpp</text>
</a>
</g>
</g>
<!-- Node27&#45;&gt;Node32 -->
<g id="edge56" class="edge">
<title>Node27&#45;&gt;Node32</title>
<path fill="none" stroke="midnightblue" d="M1156.48,-638.48C1132.21,-629.78 1093.85,-616.03 1063.08,-605"/>
<polygon fill="midnightblue" stroke="midnightblue" points="1063.98,-601.6 1053.39,-601.52 1061.62,-608.19 1063.98,-601.6"/>
</g>
<!-- Node28&#45;&gt;Node14 -->
<g id="edge43" class="edge">
<title>Node28&#45;&gt;Node14</title>
<path fill="none" stroke="midnightblue" d="M1325.69,-285.98C1326.12,-277.58 1326.78,-264.48 1327.32,-253.66"/>
<polygon fill="midnightblue" stroke="midnightblue" points="1330.83,-253.67 1327.83,-243.51 1323.84,-253.32 1330.83,-253.67"/>
</g>
<!-- Node28&#45;&gt;Node21 -->
<g id="edge44" class="edge">
<title>Node28&#45;&gt;Node21</title>
<path fill="none" stroke="midnightblue" d="M1299.58,-285.89C1292.71,-283.77 1285.25,-281.65 1278.26,-280 1195.24,-260.42 1095.98,-246.29 1043.34,-239.52"/>
<polygon fill="midnightblue" stroke="midnightblue" points="1043.5,-236.01 1033.14,-238.22 1042.62,-242.95 1043.5,-236.01"/>
</g>
<!-- Node29&#45;&gt;Node14 -->
<g id="edge46" class="edge">
<title>Node29&#45;&gt;Node14</title>
<path fill="none" stroke="midnightblue" d="M1249.45,-285.98C1264.34,-276.34 1288.81,-260.52 1306.54,-249.05"/>
<polygon fill="midnightblue" stroke="midnightblue" points="1308.61,-251.88 1315.11,-243.51 1304.81,-246 1308.61,-251.88"/>
</g>
<!-- Node29&#45;&gt;Node21 -->
<g id="edge47" class="edge">
<title>Node29&#45;&gt;Node21</title>
<path fill="none" stroke="midnightblue" d="M1203.31,-285.98C1160.79,-274.97 1087.04,-255.9 1042.83,-244.46"/>
<polygon fill="midnightblue" stroke="midnightblue" points="1043.62,-241.05 1033.06,-241.93 1041.87,-247.83 1043.62,-241.05"/>
</g>
<!-- Node30&#45;&gt;Node5 -->
<g id="edge49" class="edge">
<title>Node30&#45;&gt;Node5</title>
<path fill="none" stroke="midnightblue" d="M1123.33,-515.44C1134.18,-507.47 1148.84,-494.52 1155.26,-479 1158.67,-470.79 1155.62,-467.88 1155.26,-459 1151.26,-359.2 1137.26,-334.88 1137.26,-235 1137.26,-235 1137.26,-235 1137.26,-121 1137.26,-46.05 1041.95,-21.72 969.03,-14.07"/>
<polygon fill="midnightblue" stroke="midnightblue" points="969.19,-10.57 958.9,-13.1 968.52,-17.54 969.19,-10.57"/>
</g>
<!-- Node30&#45;&gt;Node13 -->
<g id="edge54" class="edge">
<title>Node30&#45;&gt;Node13</title>
<path fill="none" stroke="midnightblue" d="M1052.6,-515.44C925.81,-495.41 628.93,-441.47 564.26,-367 542.99,-342.5 545.26,-328.95 545.26,-296.5 545.26,-296.5 545.26,-296.5 545.26,-233 545.26,-198.04 525.87,-161.01 512.83,-140.07"/>
<polygon fill="midnightblue" stroke="midnightblue" points="515.75,-138.15 507.38,-131.65 509.88,-141.95 515.75,-138.15"/>
</g>
<!-- Node30&#45;&gt;Node20 -->
<g id="edge55" class="edge">
<title>Node30&#45;&gt;Node20</title>
<path fill="none" stroke="midnightblue" d="M1139.26,-515.37C1156.73,-508.52 1177.6,-497.03 1188.26,-479 1193.96,-469.36 1193.66,-309.17 1193.38,-253.71"/>
<polygon fill="midnightblue" stroke="midnightblue" points="1196.88,-253.54 1193.32,-243.56 1189.88,-253.58 1196.88,-253.54"/>
</g>
<!-- Node30&#45;&gt;Node25 -->
<g id="edge53" class="edge">
<title>Node30&#45;&gt;Node25</title>
<path fill="none" stroke="midnightblue" d="M1042.71,-516.32C948.1,-505.56 777.94,-486.22 690.48,-476.28"/>
<polygon fill="midnightblue" stroke="midnightblue" points="690.82,-472.79 680.49,-475.14 690.03,-479.75 690.82,-472.79"/>
</g>
<!-- Node31 -->
<g id="node31" class="node">
<title>Node31</title>
<g id="a_node31"><a xlink:href="../../d1/d93/Error_8hpp.html" target="_top" xlink:title=" ">
<polygon fill="white" stroke="black" points="1042.26,-459.5 1042.26,-478.5 1146.26,-478.5 1146.26,-459.5 1042.26,-459.5"/>
<text text-anchor="middle" x="1094.26" y="-466.5" font-family="Helvetica,sans-Serif" font-size="10.00">AH/Error/Error.hpp</text>
</a>
</g>
</g>
<!-- Node30&#45;&gt;Node31 -->
<g id="edge50" class="edge">
<title>Node30&#45;&gt;Node31</title>
<path fill="none" stroke="midnightblue" d="M1107.62,-515.08C1105.48,-507.85 1102.38,-497.41 1099.71,-488.4"/>
<polygon fill="midnightblue" stroke="midnightblue" points="1103.05,-487.34 1096.86,-478.75 1096.34,-489.33 1103.05,-487.34"/>
</g>
<!-- Node31&#45;&gt;Node5 -->
<g id="edge51" class="edge">
<title>Node31&#45;&gt;Node5</title>
<path fill="none" stroke="midnightblue" d="M1094.92,-459.45C1096.27,-440.95 1099.26,-395.85 1099.26,-358 1099.26,-358 1099.26,-358 1099.26,-121 1099.26,-90.2 1098.29,-76.44 1075.26,-56 1058.06,-40.72 1005.34,-28.9 960.09,-21.22"/>
<polygon fill="midnightblue" stroke="midnightblue" points="960.41,-17.72 949.97,-19.54 959.27,-24.63 960.41,-17.72"/>
</g>
<!-- Node31&#45;&gt;Node6 -->
<g id="edge52" class="edge">
<title>Node31&#45;&gt;Node6</title>
<path fill="none" stroke="midnightblue" d="M1041.97,-459.44C983.44,-449.87 888.66,-434.36 826.39,-424.17"/>
<polygon fill="midnightblue" stroke="midnightblue" points="826.74,-420.68 816.31,-422.52 825.61,-427.59 826.74,-420.68"/>
</g>
<!-- Node32&#45;&gt;Node5 -->
<g id="edge57" class="edge">
<title>Node32&#45;&gt;Node5</title>
<path fill="none" stroke="midnightblue" d="M1016.27,-571.45C1019.64,-548.08 1026.69,-499.78 1033.26,-459 1044.93,-386.65 1061.26,-369.79 1061.26,-296.5 1061.26,-296.5 1061.26,-296.5 1061.26,-121 1061.26,-64.38 994.62,-35.71 943.82,-22.08"/>
<polygon fill="midnightblue" stroke="midnightblue" points="944.45,-18.63 933.89,-19.55 942.72,-25.41 944.45,-18.63"/>
</g>
<!-- Node32&#45;&gt;Node8 -->
<g id="edge59" class="edge">
<title>Node32&#45;&gt;Node8</title>
<path fill="none" stroke="midnightblue" d="M948.73,-584.08C802.91,-576.82 455.07,-535.67 335.26,-311 305.36,-254.92 312.48,-227.71 334.26,-168 341.36,-148.55 380.79,-106.24 403.37,-83.03"/>
<polygon fill="midnightblue" stroke="midnightblue" points="406.07,-85.27 410.57,-75.68 401.07,-80.37 406.07,-85.27"/>
</g>
<!-- Node32&#45;&gt;Node21 -->
<g id="edge60" class="edge">
<title>Node32&#45;&gt;Node21</title>
<path fill="none" stroke="midnightblue" d="M1009.16,-571.13C1005.89,-561.14 1001.96,-547.44 1000.26,-535 992.82,-480.31 1001.81,-310.61 1005.13,-253.77"/>
<polygon fill="midnightblue" stroke="midnightblue" points="1008.63,-253.89 1005.73,-243.7 1001.64,-253.48 1008.63,-253.89"/>
</g>
<!-- Node32&#45;&gt;Node30 -->
<g id="edge58" class="edge">
<title>Node32&#45;&gt;Node30</title>
<path fill="none" stroke="midnightblue" d="M1037.01,-571.4C1052.26,-561.95 1072.25,-549.56 1087.5,-540.11"/>
<polygon fill="midnightblue" stroke="midnightblue" points="1089.64,-542.9 1096.29,-534.66 1085.95,-536.95 1089.64,-542.9"/>
</g>
<!-- Node34&#45;&gt;Node5 -->
<g id="edge68" class="edge">
<title>Node34&#45;&gt;Node5</title>
<path fill="none" stroke="midnightblue" d="M1522.78,-280.5C1497.97,-260.87 1458.26,-222.64 1458.26,-179 1458.26,-179 1458.26,-179 1458.26,-121 1458.26,-71.79 1127.07,-33.73 969.15,-18.38"/>
<polygon fill="midnightblue" stroke="midnightblue" points="969.29,-14.88 959,-17.41 968.62,-21.85 969.29,-14.88"/>
</g>
<!-- Node34&#45;&gt;Node14 -->
<g id="edge69" class="edge">
<title>Node34&#45;&gt;Node14</title>
<path fill="none" stroke="midnightblue" d="M1491.82,-280.47C1454.26,-270.03 1403.64,-255.96 1368.71,-246.25"/>
<polygon fill="midnightblue" stroke="midnightblue" points="1369.43,-242.81 1358.86,-243.51 1367.56,-249.56 1369.43,-242.81"/>
</g>
<!-- Node35 -->
<g id="node35" class="node">
<title>Node35</title>
<g id="a_node35"><a xlink:title=" ">
<polygon fill="white" stroke="#bfbfbf" points="1498.76,-224.5 1498.76,-243.5 1585.76,-243.5 1585.76,-224.5 1498.76,-224.5"/>
<text text-anchor="middle" x="1542.26" y="-231.5" font-family="Helvetica,sans-Serif" font-size="10.00">AH/STL/cstdint</text>
</a>
</g>
</g>
<!-- Node34&#45;&gt;Node35 -->
<g id="edge67" class="edge">
<title>Node34&#45;&gt;Node35</title>
<path fill="none" stroke="midnightblue" d="M1542.26,-280.4C1542.26,-272.47 1542.26,-262.46 1542.26,-253.86"/>
<polygon fill="midnightblue" stroke="midnightblue" points="1545.76,-253.66 1542.26,-243.66 1538.76,-253.66 1545.76,-253.66"/>
</g>
</g>
</svg>
