<?xml version="1.0" encoding="UTF-8" standalone="no"?>
<!DOCTYPE svg PUBLIC "-//W3C//DTD SVG 1.1//EN"
 "http://www.w3.org/Graphics/SVG/1.1/DTD/svg11.dtd">
<!-- Generated by graphviz version 2.43.0 (0)
 -->
<!-- Title: BankSettingChangeCallback Pages: 1 -->
<svg width="170pt" height="193pt"
 viewBox="0.00 0.00 170.00 193.00" xmlns="http://www.w3.org/2000/svg" xmlns:xlink="http://www.w3.org/1999/xlink">
<g id="graph0" class="graph" transform="scale(1 1) rotate(0) translate(4 189)">
<title>BankSettingChangeCallback</title>
<polygon fill="white" stroke="transparent" points="-4,4 -4,-189 166,-189 166,4 -4,4"/>
<!-- Node1 -->
<g id="node1" class="node">
<title>Node1</title>
<g id="a_node1"><a xlink:title="Callback class for Bankable objects that need to be notified when the active setting of their Bank ch...">
<polygon fill="#bfbfbf" stroke="black" points="3.5,-127.5 3.5,-184.5 158.5,-184.5 158.5,-127.5 3.5,-127.5"/>
<text text-anchor="middle" x="81" y="-172.5" font-family="Helvetica,sans-Serif" font-size="10.00">BankSettingChangeCallback</text>
<polyline fill="none" stroke="black" points="3.5,-165.5 158.5,-165.5 "/>
<text text-anchor="middle" x="81" y="-153.5" font-family="Helvetica,sans-Serif" font-size="10.00"> </text>
<polyline fill="none" stroke="black" points="3.5,-146.5 158.5,-146.5 "/>
<text text-anchor="start" x="11.5" y="-134.5" font-family="Helvetica,sans-Serif" font-size="10.00">&#45; onBankSettingChange()</text>
</a>
</g>
</g>
<!-- Node2 -->
<g id="node2" class="node">
<title>Node2</title>
<g id="a_node2"><a xlink:href="../../d4/d23/classDoublyLinkable.html" target="_top" xlink:title=" ">
<polygon fill="white" stroke="black" points="0,-0.5 0,-68.5 162,-68.5 162,-0.5 0,-0.5"/>
<text text-anchor="start" x="8" y="-56.5" font-family="Helvetica,sans-Serif" font-size="10.00">DoublyLinkable&lt; BankSetting</text>
<text text-anchor="middle" x="81" y="-45.5" font-family="Helvetica,sans-Serif" font-size="10.00">ChangeCallback &gt;</text>
<polyline fill="none" stroke="black" points="0,-38.5 162,-38.5 "/>
<text text-anchor="middle" x="81" y="-26.5" font-family="Helvetica,sans-Serif" font-size="10.00"> </text>
<polyline fill="none" stroke="black" points="0,-19.5 162,-19.5 "/>
<text text-anchor="start" x="8" y="-7.5" font-family="Helvetica,sans-Serif" font-size="10.00"># ~DoublyLinkable()</text>
</a>
</g>
</g>
<!-- Node1&#45;&gt;Node2 -->
<g id="edge2" class="edge">
<title>Node1&#45;&gt;Node2</title>
<path fill="none" stroke="#404040" d="M54.73,-127.31C50.74,-121.64 47.21,-115.42 45,-109 41.81,-99.76 42.06,-96.33 45,-87 45.81,-84.42 46.8,-81.86 47.93,-79.34"/>
<polygon fill="none" stroke="#404040" points="48.02,-79.18 47.29,-72 53.64,-68.57 54.36,-75.75 48.02,-79.18"/>
<text text-anchor="middle" x="70.5" y="-101" font-family="Helvetica,sans-Serif" font-size="10.00"> #next</text>
<text text-anchor="middle" x="70.5" y="-90" font-family="Helvetica,sans-Serif" font-size="10.00">#previous</text>
</g>
<!-- Node2&#45;&gt;Node1 -->
<g id="edge1" class="edge">
<title>Node2&#45;&gt;Node1</title>
<path fill="none" stroke="midnightblue" d="M98.75,-78.35C101.04,-88.36 101.98,-99.01 100,-109 98.79,-115.1 96.76,-121.41 94.46,-127.33"/>
<polygon fill="none" stroke="midnightblue" points="102.1,-77.33 96.08,-68.61 95.35,-79.18 102.1,-77.33"/>
</g>
</g>
</svg>
