<?xml version="1.0" encoding="UTF-8" standalone="no"?>
<!DOCTYPE svg PUBLIC "-//W3C//DTD SVG 1.1//EN"
 "http://www.w3.org/Graphics/SVG/1.1/DTD/svg11.dtd">
<!-- Generated by graphviz version 2.40.1 (20161225.0304)
 -->
<!-- Title: BankableMIDIOutput_Base Pages: 1 -->
<svg width="2008pt" height="568pt"
 viewBox="0.00 0.00 2008.00 568.00" xmlns="http://www.w3.org/2000/svg" xmlns:xlink="http://www.w3.org/1999/xlink">
<g id="graph0" class="graph" transform="scale(1 1) rotate(0) translate(4 564)">
<title>BankableMIDIOutput_Base</title>
<polygon fill="#ffffff" stroke="transparent" points="-4,4 -4,-564 2004,-564 2004,4 -4,4"/>
<!-- Node1 -->
<g id="node1" class="node">
<title>Node1</title>
<g id="a_node1"><a xlink:title=" ">
<polygon fill="#bfbfbf" stroke="#000000" points="1240.5,-436.5 1240.5,-559.5 1390.5,-559.5 1390.5,-436.5 1240.5,-436.5"/>
<text text-anchor="middle" x="1315.5" y="-547.5" font-family="Helvetica,sans-Serif" font-size="10.00" fill="#000000">BankableMIDIOutput_Base</text>
<polyline fill="none" stroke="#000000" points="1240.5,-540.5 1390.5,-540.5 "/>
<text text-anchor="start" x="1248.5" y="-528.5" font-family="Helvetica,sans-Serif" font-size="10.00" fill="#000000"># bank</text>
<text text-anchor="start" x="1248.5" y="-517.5" font-family="Helvetica,sans-Serif" font-size="10.00" fill="#000000">&#45; lockedSetting</text>
<text text-anchor="start" x="1248.5" y="-506.5" font-family="Helvetica,sans-Serif" font-size="10.00" fill="#000000">&#45; UNLOCKED</text>
<polyline fill="none" stroke="#000000" points="1240.5,-499.5 1390.5,-499.5 "/>
<text text-anchor="start" x="1248.5" y="-487.5" font-family="Helvetica,sans-Serif" font-size="10.00" fill="#000000">+ getRawBankSetting()</text>
<text text-anchor="start" x="1248.5" y="-476.5" font-family="Helvetica,sans-Serif" font-size="10.00" fill="#000000">+ getSelection()</text>
<text text-anchor="start" x="1248.5" y="-465.5" font-family="Helvetica,sans-Serif" font-size="10.00" fill="#000000">+ lock()</text>
<text text-anchor="start" x="1248.5" y="-454.5" font-family="Helvetica,sans-Serif" font-size="10.00" fill="#000000">+ unlock()</text>
<text text-anchor="start" x="1248.5" y="-443.5" font-family="Helvetica,sans-Serif" font-size="10.00" fill="#000000"># BankableMIDIOutput_Base()</text>
</a>
</g>
</g>
<!-- Node2 -->
<g id="node2" class="node">
<title>Node2</title>
<g id="a_node2"><a xlink:href="../../d3/d43/classBankableMIDIOutput.html" target="_top" xlink:title="A base class for all MIDIOutputElements that can be banked.">
<polygon fill="#ffffff" stroke="#000000" points="846,-320.5 846,-399.5 969,-399.5 969,-320.5 846,-320.5"/>
<text text-anchor="middle" x="907.5" y="-387.5" font-family="Helvetica,sans-Serif" font-size="10.00" fill="#000000">BankableMIDIOutput</text>
<polyline fill="none" stroke="#000000" points="846,-380.5 969,-380.5 "/>
<text text-anchor="start" x="854" y="-368.5" font-family="Helvetica,sans-Serif" font-size="10.00" fill="#000000">&#45; type</text>
<polyline fill="none" stroke="#000000" points="846,-361.5 969,-361.5 "/>
<text text-anchor="start" x="854" y="-349.5" font-family="Helvetica,sans-Serif" font-size="10.00" fill="#000000">+ BankableMIDIOutput()</text>
<text text-anchor="start" x="854" y="-338.5" font-family="Helvetica,sans-Serif" font-size="10.00" fill="#000000">+ BankableMIDIOutput()</text>
<text text-anchor="start" x="854" y="-327.5" font-family="Helvetica,sans-Serif" font-size="10.00" fill="#000000">+ getAddressOffset()</text>
</a>
</g>
</g>
<!-- Node1&#45;&gt;Node2 -->
<g id="edge1" class="edge">
<title>Node1&#45;&gt;Node2</title>
<path fill="none" stroke="#191970" d="M1230.3784,-469.2089C1152.3281,-442.8095 1038.6189,-404.349 969.0468,-380.8173"/>
<polygon fill="none" stroke="#191970" points="1229.5968,-472.6392 1240.191,-472.5279 1231.8397,-466.0083 1229.5968,-472.6392"/>
</g>
<!-- Node17 -->
<g id="node17" class="node">
<title>Node17</title>
<g id="a_node17"><a xlink:href="../../d1/d2f/classManyAddressesMIDIOutput.html" target="_top" xlink:title="A base class for all MIDIOutputElements that can have one of many addresses.">
<polygon fill="#ffffff" stroke="#000000" points="1715,-331.5 1715,-388.5 1868,-388.5 1868,-331.5 1715,-331.5"/>
<text text-anchor="middle" x="1791.5" y="-376.5" font-family="Helvetica,sans-Serif" font-size="10.00" fill="#000000">ManyAddressesMIDIOutput</text>
<polyline fill="none" stroke="#000000" points="1715,-369.5 1868,-369.5 "/>
<text text-anchor="middle" x="1791.5" y="-357.5" font-family="Helvetica,sans-Serif" font-size="10.00" fill="#000000"> </text>
<polyline fill="none" stroke="#000000" points="1715,-350.5 1868,-350.5 "/>
<text text-anchor="start" x="1723" y="-338.5" font-family="Helvetica,sans-Serif" font-size="10.00" fill="#000000">+ ManyAddressesMIDIOutput()</text>
</a>
</g>
</g>
<!-- Node1&#45;&gt;Node17 -->
<g id="edge16" class="edge">
<title>Node1&#45;&gt;Node17</title>
<path fill="none" stroke="#191970" d="M1400.4804,-473.3628C1489.71,-447.4937 1628.7591,-407.1812 1714.7632,-382.2472"/>
<polygon fill="none" stroke="#191970" points="1399.2909,-470.0635 1390.661,-476.2096 1401.2401,-476.7866 1399.2909,-470.0635"/>
</g>
<!-- Node3 -->
<g id="node3" class="node">
<title>Node3</title>
<g id="a_node3"><a xlink:href="../../d7/dc9/classBankable_1_1ManyAddresses_1_1ManyMatrixAddresses.html" target="_top" xlink:title=" ">
<polygon fill="#ffffff" stroke="#000000" points="0,-155 0,-256 129,-256 129,-155 0,-155"/>
<text text-anchor="start" x="8" y="-244" font-family="Helvetica,sans-Serif" font-size="10.00" fill="#000000">ManyMatrixAddresses</text>
<text text-anchor="start" x="8" y="-233" font-family="Helvetica,sans-Serif" font-size="10.00" fill="#000000">&lt; NumBanks, nb_rows,</text>
<text text-anchor="middle" x="64.5" y="-222" font-family="Helvetica,sans-Serif" font-size="10.00" fill="#000000"> nb_cols &gt;</text>
<polyline fill="none" stroke="#000000" points="0,-215 129,-215 "/>
<text text-anchor="start" x="8" y="-203" font-family="Helvetica,sans-Serif" font-size="10.00" fill="#000000">&#45; addresses</text>
<text text-anchor="start" x="8" y="-192" font-family="Helvetica,sans-Serif" font-size="10.00" fill="#000000">&#45; channelCNs</text>
<polyline fill="none" stroke="#000000" points="0,-185 129,-185 "/>
<text text-anchor="start" x="8" y="-173" font-family="Helvetica,sans-Serif" font-size="10.00" fill="#000000">+ ManyMatrixAddresses()</text>
<text text-anchor="start" x="8" y="-162" font-family="Helvetica,sans-Serif" font-size="10.00" fill="#000000">+ getActiveAddress()</text>
</a>
</g>
</g>
<!-- Node2&#45;&gt;Node3 -->
<g id="edge2" class="edge">
<title>Node2&#45;&gt;Node3</title>
<path fill="none" stroke="#191970" d="M835.7157,-355.8148C656.477,-344.9557 199.2299,-314.5866 137.5,-284 123.9926,-277.3072 111.7246,-266.9908 101.264,-256.0139"/>
<polygon fill="none" stroke="#191970" points="835.6423,-359.3167 845.8349,-356.4251 836.0638,-352.3294 835.6423,-359.3167"/>
</g>
<!-- Node4 -->
<g id="node4" class="node">
<title>Node4</title>
<g id="a_node4"><a xlink:href="../../d7/d27/classBankable_1_1ManyAddresses_1_1TwoManyAddresses.html" target="_top" xlink:title=" ">
<polygon fill="#ffffff" stroke="#000000" points="147,-171.5 147,-239.5 320,-239.5 320,-171.5 147,-171.5"/>
<text text-anchor="middle" x="233.5" y="-227.5" font-family="Helvetica,sans-Serif" font-size="10.00" fill="#000000">TwoManyAddresses&lt; NumBanks &gt;</text>
<polyline fill="none" stroke="#000000" points="147,-220.5 320,-220.5 "/>
<text text-anchor="start" x="155" y="-208.5" font-family="Helvetica,sans-Serif" font-size="10.00" fill="#000000">&#45; addresses</text>
<polyline fill="none" stroke="#000000" points="147,-201.5 320,-201.5 "/>
<text text-anchor="start" x="155" y="-189.5" font-family="Helvetica,sans-Serif" font-size="10.00" fill="#000000">+ TwoManyAddresses()</text>
<text text-anchor="start" x="155" y="-178.5" font-family="Helvetica,sans-Serif" font-size="10.00" fill="#000000">+ getActiveAddress()</text>
</a>
</g>
</g>
<!-- Node2&#45;&gt;Node4 -->
<g id="edge3" class="edge">
<title>Node2&#45;&gt;Node4</title>
<path fill="none" stroke="#191970" d="M835.4373,-355.4606C701.3498,-346.2079 419.0221,-322.7062 329.5,-284 305.7864,-273.7471 283.2105,-255.8577 265.9163,-239.7439"/>
<polygon fill="none" stroke="#191970" points="835.3941,-358.9657 845.6092,-356.1547 835.8708,-351.9819 835.3941,-358.9657"/>
</g>
<!-- Node5 -->
<g id="node5" class="node">
<title>Node5</title>
<g id="a_node5"><a xlink:href="../../d7/db5/classBankable_1_1MatrixAddress.html" target="_top" xlink:title=" ">
<polygon fill="#ffffff" stroke="#000000" points="338.5,-155 338.5,-256 466.5,-256 466.5,-155 338.5,-155"/>
<text text-anchor="start" x="346.5" y="-244" font-family="Helvetica,sans-Serif" font-size="10.00" fill="#000000">MatrixAddress&lt; nb_rows,</text>
<text text-anchor="middle" x="402.5" y="-233" font-family="Helvetica,sans-Serif" font-size="10.00" fill="#000000"> nb_cols &gt;</text>
<polyline fill="none" stroke="#000000" points="338.5,-226 466.5,-226 "/>
<text text-anchor="start" x="346.5" y="-214" font-family="Helvetica,sans-Serif" font-size="10.00" fill="#000000">&#45; addresses</text>
<text text-anchor="start" x="346.5" y="-203" font-family="Helvetica,sans-Serif" font-size="10.00" fill="#000000">&#45; channelCN</text>
<polyline fill="none" stroke="#000000" points="338.5,-196 466.5,-196 "/>
<text text-anchor="start" x="346.5" y="-184" font-family="Helvetica,sans-Serif" font-size="10.00" fill="#000000">+ MatrixAddress()</text>
<text text-anchor="start" x="346.5" y="-173" font-family="Helvetica,sans-Serif" font-size="10.00" fill="#000000">+ getBaseAddress()</text>
<text text-anchor="start" x="346.5" y="-162" font-family="Helvetica,sans-Serif" font-size="10.00" fill="#000000">+ getActiveAddress()</text>
</a>
</g>
</g>
<!-- Node2&#45;&gt;Node5 -->
<g id="edge4" class="edge">
<title>Node2&#45;&gt;Node5</title>
<path fill="none" stroke="#191970" d="M835.9825,-352.9852C729.8232,-341.6453 536.5068,-317.1632 475.5,-284 462.5828,-276.9782 450.6861,-266.8146 440.4102,-256.117"/>
<polygon fill="none" stroke="#191970" points="835.6641,-356.471 845.9766,-354.0415 836.3998,-349.5098 835.6641,-356.471"/>
</g>
<!-- Node6 -->
<g id="node6" class="node">
<title>Node6</title>
<g id="a_node6"><a xlink:href="../../dc/d22/classBankable_1_1MIDIButtons.html" target="_top" xlink:title="An abstract class for momentary push buttons that send MIDI events.">
<polygon fill="#ffffff" stroke="#000000" points="485,-127.5 485,-283.5 630,-283.5 630,-127.5 485,-127.5"/>
<text text-anchor="start" x="493" y="-271.5" font-family="Helvetica,sans-Serif" font-size="10.00" fill="#000000">MIDIButtons&lt; Sender,</text>
<text text-anchor="middle" x="557.5" y="-260.5" font-family="Helvetica,sans-Serif" font-size="10.00" fill="#000000"> NUMBER_OF_BUTTONS &gt;</text>
<polyline fill="none" stroke="#000000" points="485,-253.5 630,-253.5 "/>
<text text-anchor="start" x="493" y="-241.5" font-family="Helvetica,sans-Serif" font-size="10.00" fill="#000000">+ sender</text>
<text text-anchor="start" x="493" y="-230.5" font-family="Helvetica,sans-Serif" font-size="10.00" fill="#000000">&#45; buttons</text>
<text text-anchor="start" x="493" y="-219.5" font-family="Helvetica,sans-Serif" font-size="10.00" fill="#000000">&#45; baseAddress</text>
<text text-anchor="start" x="493" y="-208.5" font-family="Helvetica,sans-Serif" font-size="10.00" fill="#000000">&#45; incrementAddress</text>
<text text-anchor="start" x="493" y="-197.5" font-family="Helvetica,sans-Serif" font-size="10.00" fill="#000000">&#45; activeButtons</text>
<polyline fill="none" stroke="#000000" points="485,-190.5 630,-190.5 "/>
<text text-anchor="start" x="493" y="-178.5" font-family="Helvetica,sans-Serif" font-size="10.00" fill="#000000">+ begin()</text>
<text text-anchor="start" x="493" y="-167.5" font-family="Helvetica,sans-Serif" font-size="10.00" fill="#000000">+ update()</text>
<text text-anchor="start" x="493" y="-156.5" font-family="Helvetica,sans-Serif" font-size="10.00" fill="#000000">+ invert()</text>
<text text-anchor="start" x="493" y="-145.5" font-family="Helvetica,sans-Serif" font-size="10.00" fill="#000000">+ getButtonState()</text>
<text text-anchor="start" x="493" y="-134.5" font-family="Helvetica,sans-Serif" font-size="10.00" fill="#000000"># MIDIButtons()</text>
</a>
</g>
</g>
<!-- Node2&#45;&gt;Node6 -->
<g id="edge5" class="edge">
<title>Node2&#45;&gt;Node6</title>
<path fill="none" stroke="#191970" d="M836.047,-349.4929C779.8204,-338.9916 700.969,-319.1916 639.5,-284 636.3359,-282.1885 633.2009,-280.2289 630.1072,-278.152"/>
<polygon fill="none" stroke="#191970" points="835.457,-352.943 845.9214,-351.2852 836.7072,-346.0555 835.457,-352.943"/>
</g>
<!-- Node9 -->
<g id="node9" class="node">
<title>Node9</title>
<g id="a_node9"><a xlink:href="../../dc/dd5/classBankable_1_1MIDIRotaryEncoder.html" target="_top" xlink:title="An abstract class for rotary encoders that send MIDI events and that can be added to a Bank.">
<polygon fill="#ffffff" stroke="#000000" points="648.5,-133 648.5,-278 766.5,-278 766.5,-133 648.5,-133"/>
<text text-anchor="start" x="656.5" y="-266" font-family="Helvetica,sans-Serif" font-size="10.00" fill="#000000">MIDIRotaryEncoder&lt;</text>
<text text-anchor="middle" x="707.5" y="-255" font-family="Helvetica,sans-Serif" font-size="10.00" fill="#000000"> Sender &gt;</text>
<polyline fill="none" stroke="#000000" points="648.5,-248 766.5,-248 "/>
<text text-anchor="start" x="656.5" y="-236" font-family="Helvetica,sans-Serif" font-size="10.00" fill="#000000">+ sender</text>
<text text-anchor="start" x="656.5" y="-225" font-family="Helvetica,sans-Serif" font-size="10.00" fill="#000000">&#45; encoder</text>
<text text-anchor="start" x="656.5" y="-214" font-family="Helvetica,sans-Serif" font-size="10.00" fill="#000000">&#45; address</text>
<text text-anchor="start" x="656.5" y="-203" font-family="Helvetica,sans-Serif" font-size="10.00" fill="#000000">&#45; speedMultiply</text>
<text text-anchor="start" x="656.5" y="-192" font-family="Helvetica,sans-Serif" font-size="10.00" fill="#000000">&#45; pulsesPerStep</text>
<text text-anchor="start" x="656.5" y="-181" font-family="Helvetica,sans-Serif" font-size="10.00" fill="#000000">&#45; previousPosition</text>
<polyline fill="none" stroke="#000000" points="648.5,-174 766.5,-174 "/>
<text text-anchor="start" x="656.5" y="-162" font-family="Helvetica,sans-Serif" font-size="10.00" fill="#000000">+ begin()</text>
<text text-anchor="start" x="656.5" y="-151" font-family="Helvetica,sans-Serif" font-size="10.00" fill="#000000">+ update()</text>
<text text-anchor="start" x="656.5" y="-140" font-family="Helvetica,sans-Serif" font-size="10.00" fill="#000000"># MIDIRotaryEncoder()</text>
</a>
</g>
</g>
<!-- Node2&#45;&gt;Node9 -->
<g id="edge8" class="edge">
<title>Node2&#45;&gt;Node9</title>
<path fill="none" stroke="#191970" d="M837.114,-325.2333C816.3215,-313.4755 794.1533,-299.3851 775.5,-284 772.5789,-281.5907 769.6795,-279.0485 766.8179,-276.4113"/>
<polygon fill="none" stroke="#191970" points="835.4849,-328.3321 845.9267,-330.1266 838.883,-322.2122 835.4849,-328.3321"/>
</g>
<!-- Node10 -->
<g id="node10" class="node">
<title>Node10</title>
<g id="a_node10"><a xlink:href="../../df/de5/classBankable_1_1SingleAddress.html" target="_top" xlink:title=" ">
<polygon fill="#ffffff" stroke="#000000" points="785,-166 785,-245 894,-245 894,-166 785,-166"/>
<text text-anchor="middle" x="839.5" y="-233" font-family="Helvetica,sans-Serif" font-size="10.00" fill="#000000">SingleAddress</text>
<polyline fill="none" stroke="#000000" points="785,-226 894,-226 "/>
<text text-anchor="start" x="793" y="-214" font-family="Helvetica,sans-Serif" font-size="10.00" fill="#000000">&#45; address</text>
<polyline fill="none" stroke="#000000" points="785,-207 894,-207 "/>
<text text-anchor="start" x="793" y="-195" font-family="Helvetica,sans-Serif" font-size="10.00" fill="#000000">+ SingleAddress()</text>
<text text-anchor="start" x="793" y="-184" font-family="Helvetica,sans-Serif" font-size="10.00" fill="#000000">+ getBaseAddress()</text>
<text text-anchor="start" x="793" y="-173" font-family="Helvetica,sans-Serif" font-size="10.00" fill="#000000">+ getActiveAddress()</text>
</a>
</g>
</g>
<!-- Node2&#45;&gt;Node10 -->
<g id="edge9" class="edge">
<title>Node2&#45;&gt;Node10</title>
<path fill="none" stroke="#191970" d="M885.9442,-311.0239C876.5941,-289.78 865.7875,-265.2267 856.9523,-245.1528"/>
<polygon fill="none" stroke="#191970" points="882.7564,-312.4696 889.9883,-320.2124 889.1633,-309.6497 882.7564,-312.4696"/>
</g>
<!-- Node11 -->
<g id="node11" class="node">
<title>Node11</title>
<g id="a_node11"><a xlink:href="../../d3/df8/classBankable_1_1TwoSingleAddresses.html" target="_top" xlink:title=" ">
<polygon fill="#ffffff" stroke="#000000" points="912.5,-166 912.5,-245 1036.5,-245 1036.5,-166 912.5,-166"/>
<text text-anchor="middle" x="974.5" y="-233" font-family="Helvetica,sans-Serif" font-size="10.00" fill="#000000">TwoSingleAddresses</text>
<polyline fill="none" stroke="#000000" points="912.5,-226 1036.5,-226 "/>
<text text-anchor="start" x="920.5" y="-214" font-family="Helvetica,sans-Serif" font-size="10.00" fill="#000000">&#45; addresses</text>
<polyline fill="none" stroke="#000000" points="912.5,-207 1036.5,-207 "/>
<text text-anchor="start" x="920.5" y="-195" font-family="Helvetica,sans-Serif" font-size="10.00" fill="#000000">+ TwoSingleAddresses()</text>
<text text-anchor="start" x="920.5" y="-184" font-family="Helvetica,sans-Serif" font-size="10.00" fill="#000000">+ getBaseAddress()</text>
<text text-anchor="start" x="920.5" y="-173" font-family="Helvetica,sans-Serif" font-size="10.00" fill="#000000">+ getActiveAddress()</text>
</a>
</g>
</g>
<!-- Node2&#45;&gt;Node11 -->
<g id="edge10" class="edge">
<title>Node2&#45;&gt;Node11</title>
<path fill="none" stroke="#191970" d="M928.7388,-311.0239C937.9514,-289.78 948.5991,-265.2267 957.3043,-245.1528"/>
<polygon fill="none" stroke="#191970" points="925.5217,-309.6454 924.7542,-320.2124 931.9439,-312.4305 925.5217,-309.6454"/>
</g>
<!-- Node12 -->
<g id="node12" class="node">
<title>Node12</title>
<g id="a_node12"><a xlink:href="../../dc/d22/classBankable_1_1MIDIButtons.html" target="_top" xlink:title=" ">
<polygon fill="#ffffff" stroke="#000000" points="1054.5,-127.5 1054.5,-283.5 1212.5,-283.5 1212.5,-127.5 1054.5,-127.5"/>
<text text-anchor="start" x="1062.5" y="-271.5" font-family="Helvetica,sans-Serif" font-size="10.00" fill="#000000">MIDIButtons&lt; DigitalCCSender,</text>
<text text-anchor="middle" x="1133.5" y="-260.5" font-family="Helvetica,sans-Serif" font-size="10.00" fill="#000000"> NUMBER_OF_BUTTONS &gt;</text>
<polyline fill="none" stroke="#000000" points="1054.5,-253.5 1212.5,-253.5 "/>
<text text-anchor="start" x="1062.5" y="-241.5" font-family="Helvetica,sans-Serif" font-size="10.00" fill="#000000">+ sender</text>
<text text-anchor="start" x="1062.5" y="-230.5" font-family="Helvetica,sans-Serif" font-size="10.00" fill="#000000">&#45; buttons</text>
<text text-anchor="start" x="1062.5" y="-219.5" font-family="Helvetica,sans-Serif" font-size="10.00" fill="#000000">&#45; baseAddress</text>
<text text-anchor="start" x="1062.5" y="-208.5" font-family="Helvetica,sans-Serif" font-size="10.00" fill="#000000">&#45; incrementAddress</text>
<text text-anchor="start" x="1062.5" y="-197.5" font-family="Helvetica,sans-Serif" font-size="10.00" fill="#000000">&#45; activeButtons</text>
<polyline fill="none" stroke="#000000" points="1054.5,-190.5 1212.5,-190.5 "/>
<text text-anchor="start" x="1062.5" y="-178.5" font-family="Helvetica,sans-Serif" font-size="10.00" fill="#000000">+ begin()</text>
<text text-anchor="start" x="1062.5" y="-167.5" font-family="Helvetica,sans-Serif" font-size="10.00" fill="#000000">+ update()</text>
<text text-anchor="start" x="1062.5" y="-156.5" font-family="Helvetica,sans-Serif" font-size="10.00" fill="#000000">+ invert()</text>
<text text-anchor="start" x="1062.5" y="-145.5" font-family="Helvetica,sans-Serif" font-size="10.00" fill="#000000">+ getButtonState()</text>
<text text-anchor="start" x="1062.5" y="-134.5" font-family="Helvetica,sans-Serif" font-size="10.00" fill="#000000"># MIDIButtons()</text>
</a>
</g>
</g>
<!-- Node2&#45;&gt;Node12 -->
<g id="edge11" class="edge">
<title>Node2&#45;&gt;Node12</title>
<path fill="none" stroke="#191970" d="M978.1034,-325.0753C1000.3113,-313.0577 1024.5043,-298.8595 1045.5,-284 1048.4245,-281.9302 1051.3603,-279.7766 1054.2923,-277.5603"/>
<polygon fill="none" stroke="#191970" points="976.2199,-322.1134 969.0508,-329.9144 979.5199,-328.2867 976.2199,-322.1134"/>
</g>
<!-- Node13 -->
<g id="node13" class="node">
<title>Node13</title>
<g id="a_node13"><a xlink:href="../../dc/d22/classBankable_1_1MIDIButtons.html" target="_top" xlink:title=" ">
<polygon fill="#ffffff" stroke="#000000" points="1231,-127.5 1231,-283.5 1410,-283.5 1410,-127.5 1231,-127.5"/>
<text text-anchor="start" x="1239" y="-271.5" font-family="Helvetica,sans-Serif" font-size="10.00" fill="#000000">MIDIButtons&lt; DigitalNote</text>
<text text-anchor="middle" x="1320.5" y="-260.5" font-family="Helvetica,sans-Serif" font-size="10.00" fill="#000000">Sender, NUMBER_OF_BUTTONS &gt;</text>
<polyline fill="none" stroke="#000000" points="1231,-253.5 1410,-253.5 "/>
<text text-anchor="start" x="1239" y="-241.5" font-family="Helvetica,sans-Serif" font-size="10.00" fill="#000000">+ sender</text>
<text text-anchor="start" x="1239" y="-230.5" font-family="Helvetica,sans-Serif" font-size="10.00" fill="#000000">&#45; buttons</text>
<text text-anchor="start" x="1239" y="-219.5" font-family="Helvetica,sans-Serif" font-size="10.00" fill="#000000">&#45; baseAddress</text>
<text text-anchor="start" x="1239" y="-208.5" font-family="Helvetica,sans-Serif" font-size="10.00" fill="#000000">&#45; incrementAddress</text>
<text text-anchor="start" x="1239" y="-197.5" font-family="Helvetica,sans-Serif" font-size="10.00" fill="#000000">&#45; activeButtons</text>
<polyline fill="none" stroke="#000000" points="1231,-190.5 1410,-190.5 "/>
<text text-anchor="start" x="1239" y="-178.5" font-family="Helvetica,sans-Serif" font-size="10.00" fill="#000000">+ begin()</text>
<text text-anchor="start" x="1239" y="-167.5" font-family="Helvetica,sans-Serif" font-size="10.00" fill="#000000">+ update()</text>
<text text-anchor="start" x="1239" y="-156.5" font-family="Helvetica,sans-Serif" font-size="10.00" fill="#000000">+ invert()</text>
<text text-anchor="start" x="1239" y="-145.5" font-family="Helvetica,sans-Serif" font-size="10.00" fill="#000000">+ getButtonState()</text>
<text text-anchor="start" x="1239" y="-134.5" font-family="Helvetica,sans-Serif" font-size="10.00" fill="#000000"># MIDIButtons()</text>
</a>
</g>
</g>
<!-- Node2&#45;&gt;Node13 -->
<g id="edge12" class="edge">
<title>Node2&#45;&gt;Node13</title>
<path fill="none" stroke="#191970" d="M979.429,-351.5949C1045.092,-341.8712 1143.508,-322.0545 1221.5,-284 1224.6542,-282.461 1227.8008,-280.8077 1230.9285,-279.0605"/>
<polygon fill="none" stroke="#191970" points="978.5792,-348.181 969.1798,-353.07 979.5765,-355.1096 978.5792,-348.181"/>
</g>
<!-- Node14 -->
<g id="node14" class="node">
<title>Node14</title>
<g id="a_node14"><a xlink:href="../../dc/dd5/classBankable_1_1MIDIRotaryEncoder.html" target="_top" xlink:title=" ">
<polygon fill="#ffffff" stroke="#000000" points="1428.5,-133 1428.5,-278 1546.5,-278 1546.5,-133 1428.5,-133"/>
<text text-anchor="start" x="1436.5" y="-266" font-family="Helvetica,sans-Serif" font-size="10.00" fill="#000000">MIDIRotaryEncoder&lt;</text>
<text text-anchor="middle" x="1487.5" y="-255" font-family="Helvetica,sans-Serif" font-size="10.00" fill="#000000"> RelativeCCSender &gt;</text>
<polyline fill="none" stroke="#000000" points="1428.5,-248 1546.5,-248 "/>
<text text-anchor="start" x="1436.5" y="-236" font-family="Helvetica,sans-Serif" font-size="10.00" fill="#000000">+ sender</text>
<text text-anchor="start" x="1436.5" y="-225" font-family="Helvetica,sans-Serif" font-size="10.00" fill="#000000">&#45; encoder</text>
<text text-anchor="start" x="1436.5" y="-214" font-family="Helvetica,sans-Serif" font-size="10.00" fill="#000000">&#45; address</text>
<text text-anchor="start" x="1436.5" y="-203" font-family="Helvetica,sans-Serif" font-size="10.00" fill="#000000">&#45; speedMultiply</text>
<text text-anchor="start" x="1436.5" y="-192" font-family="Helvetica,sans-Serif" font-size="10.00" fill="#000000">&#45; pulsesPerStep</text>
<text text-anchor="start" x="1436.5" y="-181" font-family="Helvetica,sans-Serif" font-size="10.00" fill="#000000">&#45; previousPosition</text>
<polyline fill="none" stroke="#000000" points="1428.5,-174 1546.5,-174 "/>
<text text-anchor="start" x="1436.5" y="-162" font-family="Helvetica,sans-Serif" font-size="10.00" fill="#000000">+ begin()</text>
<text text-anchor="start" x="1436.5" y="-151" font-family="Helvetica,sans-Serif" font-size="10.00" fill="#000000">+ update()</text>
<text text-anchor="start" x="1436.5" y="-140" font-family="Helvetica,sans-Serif" font-size="10.00" fill="#000000"># MIDIRotaryEncoder()</text>
</a>
</g>
</g>
<!-- Node2&#45;&gt;Node14 -->
<g id="edge13" class="edge">
<title>Node2&#45;&gt;Node14</title>
<path fill="none" stroke="#191970" d="M979.4799,-355.395C1101.7955,-346.5718 1344.1842,-324.4717 1418.5,-284 1421.8464,-282.1776 1425.108,-280.126 1428.2764,-277.8949"/>
<polygon fill="none" stroke="#191970" points="979.1818,-351.9072 969.4553,-356.1077 979.6783,-358.8896 979.1818,-351.9072"/>
</g>
<!-- Node16 -->
<g id="node16" class="node">
<title>Node16</title>
<g id="a_node16"><a xlink:href="../../d7/d27/classBankable_1_1ManyAddresses_1_1TwoManyAddresses.html" target="_top" xlink:title=" ">
<polygon fill="#ffffff" stroke="#000000" points="1565,-171.5 1565,-239.5 1696,-239.5 1696,-171.5 1565,-171.5"/>
<text text-anchor="middle" x="1630.5" y="-227.5" font-family="Helvetica,sans-Serif" font-size="10.00" fill="#000000">TwoManyAddresses&lt; N &gt;</text>
<polyline fill="none" stroke="#000000" points="1565,-220.5 1696,-220.5 "/>
<text text-anchor="start" x="1573" y="-208.5" font-family="Helvetica,sans-Serif" font-size="10.00" fill="#000000">&#45; addresses</text>
<polyline fill="none" stroke="#000000" points="1565,-201.5 1696,-201.5 "/>
<text text-anchor="start" x="1573" y="-189.5" font-family="Helvetica,sans-Serif" font-size="10.00" fill="#000000">+ TwoManyAddresses()</text>
<text text-anchor="start" x="1573" y="-178.5" font-family="Helvetica,sans-Serif" font-size="10.00" fill="#000000">+ getActiveAddress()</text>
</a>
</g>
</g>
<!-- Node2&#45;&gt;Node16 -->
<g id="edge15" class="edge">
<title>Node2&#45;&gt;Node16</title>
<path fill="none" stroke="#191970" d="M979.4794,-357.663C1126.4885,-351.9096 1455.7613,-333.723 1555.5,-284 1575.7425,-273.9084 1593.4872,-256.0292 1606.6279,-239.8806"/>
<polygon fill="none" stroke="#191970" points="979.0741,-354.1759 969.2154,-358.0561 979.342,-361.1708 979.0741,-354.1759"/>
</g>
<!-- Node7 -->
<g id="node7" class="node">
<title>Node7</title>
<g id="a_node7"><a xlink:href="../../d2/def/classBankable_1_1CCButtons.html" target="_top" xlink:title="A class of MIDIOutputElements that read the input of a collection of momentary push buttons or switch...">
<polygon fill="#ffffff" stroke="#000000" points="390,-11.5 390,-79.5 541,-79.5 541,-11.5 390,-11.5"/>
<text text-anchor="start" x="398" y="-67.5" font-family="Helvetica,sans-Serif" font-size="10.00" fill="#000000">CCButtons&lt; DigitalCCSender,</text>
<text text-anchor="middle" x="465.5" y="-56.5" font-family="Helvetica,sans-Serif" font-size="10.00" fill="#000000"> NUMBER_OF_BUTTONS &gt;</text>
<polyline fill="none" stroke="#000000" points="390,-49.5 541,-49.5 "/>
<text text-anchor="middle" x="465.5" y="-37.5" font-family="Helvetica,sans-Serif" font-size="10.00" fill="#000000"> </text>
<polyline fill="none" stroke="#000000" points="390,-30.5 541,-30.5 "/>
<text text-anchor="start" x="398" y="-18.5" font-family="Helvetica,sans-Serif" font-size="10.00" fill="#000000">+ CCButtons()</text>
</a>
</g>
</g>
<!-- Node6&#45;&gt;Node7 -->
<g id="edge6" class="edge">
<title>Node6&#45;&gt;Node7</title>
<path fill="none" stroke="#191970" d="M507.3691,-118.3159C499.4634,-104.5667 491.7217,-91.1029 485.0882,-79.5665"/>
<polygon fill="none" stroke="#191970" points="504.5591,-120.4504 512.578,-127.3748 510.6275,-116.9611 504.5591,-120.4504"/>
</g>
<!-- Node8 -->
<g id="node8" class="node">
<title>Node8</title>
<g id="a_node8"><a xlink:href="../../d6/d5b/classBankable_1_1NoteButtons.html" target="_top" xlink:title="A class of MIDIOutputElements that read the input of a collection of momentary push buttons or switch...">
<polygon fill="#ffffff" stroke="#000000" points="559,-.5 559,-90.5 738,-90.5 738,-.5 559,-.5"/>
<text text-anchor="start" x="567" y="-78.5" font-family="Helvetica,sans-Serif" font-size="10.00" fill="#000000">NoteButtons&lt; DigitalNote</text>
<text text-anchor="middle" x="648.5" y="-67.5" font-family="Helvetica,sans-Serif" font-size="10.00" fill="#000000">Sender, NUMBER_OF_BUTTONS &gt;</text>
<polyline fill="none" stroke="#000000" points="559,-60.5 738,-60.5 "/>
<text text-anchor="middle" x="648.5" y="-48.5" font-family="Helvetica,sans-Serif" font-size="10.00" fill="#000000"> </text>
<polyline fill="none" stroke="#000000" points="559,-41.5 738,-41.5 "/>
<text text-anchor="start" x="567" y="-29.5" font-family="Helvetica,sans-Serif" font-size="10.00" fill="#000000">+ NoteButtons()</text>
<text text-anchor="start" x="567" y="-18.5" font-family="Helvetica,sans-Serif" font-size="10.00" fill="#000000">+ setVelocity()</text>
<text text-anchor="start" x="567" y="-7.5" font-family="Helvetica,sans-Serif" font-size="10.00" fill="#000000">+ getVelocity()</text>
</a>
</g>
</g>
<!-- Node6&#45;&gt;Node8 -->
<g id="edge7" class="edge">
<title>Node6&#45;&gt;Node8</title>
<path fill="none" stroke="#191970" d="M606.9426,-118.5679C612.3834,-109.0017 617.7485,-99.5686 622.7234,-90.8214"/>
<polygon fill="none" stroke="#191970" points="603.8352,-116.952 601.9337,-127.3748 609.9199,-120.4127 603.8352,-116.952"/>
</g>
<!-- Node15 -->
<g id="node15" class="node">
<title>Node15</title>
<g id="a_node15"><a xlink:href="../../da/d40/classBankable_1_1CCRotaryEncoder.html" target="_top" xlink:title="A class of MIDIOutputElements that read the input of a quadrature (rotary) encoder and send out relat...">
<polygon fill="#ffffff" stroke="#000000" points="1431.5,-17 1431.5,-74 1543.5,-74 1543.5,-17 1431.5,-17"/>
<text text-anchor="middle" x="1487.5" y="-62" font-family="Helvetica,sans-Serif" font-size="10.00" fill="#000000">CCRotaryEncoder</text>
<polyline fill="none" stroke="#000000" points="1431.5,-55 1543.5,-55 "/>
<text text-anchor="middle" x="1487.5" y="-43" font-family="Helvetica,sans-Serif" font-size="10.00" fill="#000000"> </text>
<polyline fill="none" stroke="#000000" points="1431.5,-36 1543.5,-36 "/>
<text text-anchor="start" x="1439.5" y="-24" font-family="Helvetica,sans-Serif" font-size="10.00" fill="#000000">+ CCRotaryEncoder()</text>
</a>
</g>
</g>
<!-- Node14&#45;&gt;Node15 -->
<g id="edge14" class="edge">
<title>Node14&#45;&gt;Node15</title>
<path fill="none" stroke="#191970" d="M1487.5,-122.7049C1487.5,-105.2283 1487.5,-87.9298 1487.5,-74.151"/>
<polygon fill="none" stroke="#191970" points="1484.0001,-122.9902 1487.5,-132.9902 1491.0001,-122.9903 1484.0001,-122.9902"/>
</g>
<!-- Node18 -->
<g id="node18" class="node">
<title>Node18</title>
<g id="a_node18"><a xlink:href="../../d8/d58/classBankable_1_1ManyAddresses_1_1ManyAddresses.html" target="_top" xlink:title=" ">
<polygon fill="#ffffff" stroke="#000000" points="1714.5,-171.5 1714.5,-239.5 1868.5,-239.5 1868.5,-171.5 1714.5,-171.5"/>
<text text-anchor="middle" x="1791.5" y="-227.5" font-family="Helvetica,sans-Serif" font-size="10.00" fill="#000000">ManyAddresses&lt; NumBanks &gt;</text>
<polyline fill="none" stroke="#000000" points="1714.5,-220.5 1868.5,-220.5 "/>
<text text-anchor="start" x="1722.5" y="-208.5" font-family="Helvetica,sans-Serif" font-size="10.00" fill="#000000">&#45; addresses</text>
<polyline fill="none" stroke="#000000" points="1714.5,-201.5 1868.5,-201.5 "/>
<text text-anchor="start" x="1722.5" y="-189.5" font-family="Helvetica,sans-Serif" font-size="10.00" fill="#000000">+ ManyAddresses()</text>
<text text-anchor="start" x="1722.5" y="-178.5" font-family="Helvetica,sans-Serif" font-size="10.00" fill="#000000">+ getActiveAddress()</text>
</a>
</g>
</g>
<!-- Node17&#45;&gt;Node18 -->
<g id="edge17" class="edge">
<title>Node17&#45;&gt;Node18</title>
<path fill="none" stroke="#191970" d="M1791.5,-321.0526C1791.5,-296.0057 1791.5,-263.7667 1791.5,-239.7084"/>
<polygon fill="none" stroke="#191970" points="1788.0001,-321.3018 1791.5,-331.3018 1795.0001,-321.3019 1788.0001,-321.3018"/>
</g>
<!-- Node19 -->
<g id="node19" class="node">
<title>Node19</title>
<g id="a_node19"><a xlink:href="../../d8/d58/classBankable_1_1ManyAddresses_1_1ManyAddresses.html" target="_top" xlink:title=" ">
<polygon fill="#ffffff" stroke="#000000" points="1887,-171.5 1887,-239.5 2000,-239.5 2000,-171.5 1887,-171.5"/>
<text text-anchor="middle" x="1943.5" y="-227.5" font-family="Helvetica,sans-Serif" font-size="10.00" fill="#000000">ManyAddresses&lt; N &gt;</text>
<polyline fill="none" stroke="#000000" points="1887,-220.5 2000,-220.5 "/>
<text text-anchor="start" x="1895" y="-208.5" font-family="Helvetica,sans-Serif" font-size="10.00" fill="#000000">&#45; addresses</text>
<polyline fill="none" stroke="#000000" points="1887,-201.5 2000,-201.5 "/>
<text text-anchor="start" x="1895" y="-189.5" font-family="Helvetica,sans-Serif" font-size="10.00" fill="#000000">+ ManyAddresses()</text>
<text text-anchor="start" x="1895" y="-178.5" font-family="Helvetica,sans-Serif" font-size="10.00" fill="#000000">+ getActiveAddress()</text>
</a>
</g>
</g>
<!-- Node17&#45;&gt;Node19 -->
<g id="edge18" class="edge">
<title>Node17&#45;&gt;Node19</title>
<path fill="none" stroke="#191970" d="M1834.182,-324.4868C1848.3769,-312.1048 1863.9985,-297.8384 1877.5,-284 1891.0533,-270.1086 1905.0302,-253.8154 1916.6129,-239.684"/>
<polygon fill="none" stroke="#191970" points="1831.7419,-321.9697 1826.4653,-331.1571 1836.3196,-327.2655 1831.7419,-321.9697"/>
</g>
</g>
</svg>
