<?xml version="1.0" encoding="UTF-8" standalone="no"?>
<!DOCTYPE svg PUBLIC "-//W3C//DTD SVG 1.1//EN"
 "http://www.w3.org/Graphics/SVG/1.1/DTD/svg11.dtd">
<!-- Generated by graphviz version 2.40.1 (20161225.0304)
 -->
<!-- Title: SelectorDisplay Pages: 1 -->
<svg width="178pt" height="408pt"
 viewBox="0.00 0.00 178.00 408.00" xmlns="http://www.w3.org/2000/svg" xmlns:xlink="http://www.w3.org/1999/xlink">
<g id="graph0" class="graph" transform="scale(1 1) rotate(0) translate(4 404)">
<title>SelectorDisplay</title>
<polygon fill="#ffffff" stroke="transparent" points="-4,4 -4,-404 174,-404 174,4 -4,4"/>
<!-- Node1 -->
<g id="node1" class="node">
<title>Node1</title>
<g id="a_node1"><a xlink:title="A class for displaying the setting of a Selector object.">
<polygon fill="#bfbfbf" stroke="#000000" points="34.5,-.5 34.5,-134.5 135.5,-134.5 135.5,-.5 34.5,-.5"/>
<text text-anchor="middle" x="85" y="-122.5" font-family="Helvetica,sans-Serif" font-size="10.00" fill="#000000">SelectorDisplay</text>
<polyline fill="none" stroke="#000000" points="34.5,-115.5 135.5,-115.5 "/>
<text text-anchor="start" x="42.5" y="-103.5" font-family="Helvetica,sans-Serif" font-size="10.00" fill="#000000">&#45; selector</text>
<text text-anchor="start" x="42.5" y="-92.5" font-family="Helvetica,sans-Serif" font-size="10.00" fill="#000000">&#45; offset</text>
<text text-anchor="start" x="42.5" y="-81.5" font-family="Helvetica,sans-Serif" font-size="10.00" fill="#000000">&#45; multiplier</text>
<text text-anchor="start" x="42.5" y="-70.5" font-family="Helvetica,sans-Serif" font-size="10.00" fill="#000000">&#45; x</text>
<text text-anchor="start" x="42.5" y="-59.5" font-family="Helvetica,sans-Serif" font-size="10.00" fill="#000000">&#45; y</text>
<text text-anchor="start" x="42.5" y="-48.5" font-family="Helvetica,sans-Serif" font-size="10.00" fill="#000000">&#45; size</text>
<text text-anchor="start" x="42.5" y="-37.5" font-family="Helvetica,sans-Serif" font-size="10.00" fill="#000000">&#45; color</text>
<polyline fill="none" stroke="#000000" points="34.5,-30.5 135.5,-30.5 "/>
<text text-anchor="start" x="42.5" y="-18.5" font-family="Helvetica,sans-Serif" font-size="10.00" fill="#000000">+ SelectorDisplay()</text>
<text text-anchor="start" x="42.5" y="-7.5" font-family="Helvetica,sans-Serif" font-size="10.00" fill="#000000">+ draw()</text>
</a>
</g>
</g>
<!-- Node2 -->
<g id="node2" class="node">
<title>Node2</title>
<g id="a_node2"><a xlink:href="../../d8/d43/classDisplayElement.html" target="_top" xlink:title="An interface for elements that draw to a display.">
<polygon fill="#ffffff" stroke="#000000" points="31.5,-171.5 31.5,-294.5 138.5,-294.5 138.5,-171.5 31.5,-171.5"/>
<text text-anchor="middle" x="85" y="-282.5" font-family="Helvetica,sans-Serif" font-size="10.00" fill="#000000">DisplayElement</text>
<polyline fill="none" stroke="#000000" points="31.5,-275.5 138.5,-275.5 "/>
<text text-anchor="start" x="39.5" y="-263.5" font-family="Helvetica,sans-Serif" font-size="10.00" fill="#000000"># display</text>
<text text-anchor="start" x="39.5" y="-252.5" font-family="Helvetica,sans-Serif" font-size="10.00" fill="#000000"># elements</text>
<polyline fill="none" stroke="#000000" points="31.5,-245.5 138.5,-245.5 "/>
<text text-anchor="start" x="39.5" y="-233.5" font-family="Helvetica,sans-Serif" font-size="10.00" fill="#000000">+ ~DisplayElement()</text>
<text text-anchor="start" x="39.5" y="-222.5" font-family="Helvetica,sans-Serif" font-size="10.00" fill="#000000">+ draw()</text>
<text text-anchor="start" x="39.5" y="-211.5" font-family="Helvetica,sans-Serif" font-size="10.00" fill="#000000">+ getDisplay()</text>
<text text-anchor="start" x="39.5" y="-200.5" font-family="Helvetica,sans-Serif" font-size="10.00" fill="#000000">+ getDisplay()</text>
<text text-anchor="start" x="39.5" y="-189.5" font-family="Helvetica,sans-Serif" font-size="10.00" fill="#000000">+ getAll()</text>
<text text-anchor="start" x="39.5" y="-178.5" font-family="Helvetica,sans-Serif" font-size="10.00" fill="#000000"># DisplayElement()</text>
</a>
</g>
</g>
<!-- Node2&#45;&gt;Node1 -->
<g id="edge1" class="edge">
<title>Node2&#45;&gt;Node1</title>
<path fill="none" stroke="#191970" d="M85,-161.1682C85,-152.3885 85,-143.4419 85,-134.7332"/>
<polygon fill="none" stroke="#191970" points="81.5001,-161.3739 85,-171.3739 88.5001,-161.3739 81.5001,-161.3739"/>
</g>
<!-- Node3 -->
<g id="node3" class="node">
<title>Node3</title>
<g id="a_node3"><a xlink:href="../../d4/d23/classDoublyLinkable.html" target="_top" xlink:title=" ">
<polygon fill="#ffffff" stroke="#000000" points="0,-331.5 0,-399.5 170,-399.5 170,-331.5 0,-331.5"/>
<text text-anchor="middle" x="85" y="-387.5" font-family="Helvetica,sans-Serif" font-size="10.00" fill="#000000">DoublyLinkable&lt; DisplayElement &gt;</text>
<polyline fill="none" stroke="#000000" points="0,-380.5 170,-380.5 "/>
<text text-anchor="start" x="8" y="-368.5" font-family="Helvetica,sans-Serif" font-size="10.00" fill="#000000"># next</text>
<text text-anchor="start" x="8" y="-357.5" font-family="Helvetica,sans-Serif" font-size="10.00" fill="#000000"># previous</text>
<polyline fill="none" stroke="#000000" points="0,-350.5 170,-350.5 "/>
<text text-anchor="start" x="8" y="-338.5" font-family="Helvetica,sans-Serif" font-size="10.00" fill="#000000"># ~DoublyLinkable()</text>
</a>
</g>
</g>
<!-- Node3&#45;&gt;Node2 -->
<g id="edge2" class="edge">
<title>Node3&#45;&gt;Node2</title>
<path fill="none" stroke="#191970" d="M85,-321.2382C85,-312.6629 85,-303.5334 85,-294.5211"/>
<polygon fill="none" stroke="#191970" points="81.5001,-321.3779 85,-331.378 88.5001,-321.378 81.5001,-321.3779"/>
</g>
</g>
</svg>
