<?xml version="1.0" encoding="UTF-8" standalone="no"?>
<!DOCTYPE svg PUBLIC "-//W3C//DTD SVG 1.1//EN"
 "http://www.w3.org/Graphics/SVG/1.1/DTD/svg11.dtd">
<!-- Generated by graphviz version 2.43.0 (0)
 -->
<!-- Title: MIDIInputElement.hpp Pages: 1 -->
<svg width="1969pt" height="834pt"
 viewBox="0.00 0.00 1969.00 834.00" xmlns="http://www.w3.org/2000/svg" xmlns:xlink="http://www.w3.org/1999/xlink">
<g id="graph0" class="graph" transform="scale(1 1) rotate(0) translate(4 830)">
<title>MIDIInputElement.hpp</title>
<polygon fill="white" stroke="transparent" points="-4,4 -4,-830 1965,-830 1965,4 -4,4"/>
<!-- Node1 -->
<g id="node1" class="node">
<title>Node1</title>
<g id="a_node1"><a xlink:title=" ">
<polygon fill="#bfbfbf" stroke="black" points="789,-806.5 789,-825.5 914,-825.5 914,-806.5 789,-806.5"/>
<text text-anchor="middle" x="851.5" y="-813.5" font-family="Helvetica,sans-Serif" font-size="10.00">MIDIInputElement.hpp</text>
</a>
</g>
</g>
<!-- Node2 -->
<g id="node2" class="node">
<title>Node2</title>
<g id="a_node2"><a xlink:href="../../db/dd6/MIDIAddress_8hpp.html" target="_top" xlink:title=" ">
<polygon fill="white" stroke="black" points="0,-683.5 0,-702.5 119,-702.5 119,-683.5 0,-683.5"/>
<text text-anchor="middle" x="59.5" y="-690.5" font-family="Helvetica,sans-Serif" font-size="10.00">Def/MIDIAddress.hpp</text>
</a>
</g>
</g>
<!-- Node1&#45;&gt;Node2 -->
<g id="edge1" class="edge">
<title>Node1&#45;&gt;Node2</title>
<path fill="none" stroke="midnightblue" d="M788.87,-813.74C649.62,-810.43 318.21,-799.6 210.5,-770 161.18,-756.44 109.02,-726.12 80.75,-708.14"/>
<polygon fill="midnightblue" stroke="midnightblue" points="82.42,-705.05 72.12,-702.56 78.62,-710.93 82.42,-705.05"/>
</g>
<!-- Node18 -->
<g id="node18" class="node">
<title>Node18</title>
<g id="a_node18"><a xlink:title=" ">
<polygon fill="white" stroke="#bfbfbf" points="1047,-112.5 1047,-131.5 1154,-131.5 1154,-112.5 1047,-112.5"/>
<text text-anchor="middle" x="1100.5" y="-119.5" font-family="Helvetica,sans-Serif" font-size="10.00">AH/STL/type_traits</text>
</a>
</g>
</g>
<!-- Node1&#45;&gt;Node18 -->
<g id="edge88" class="edge">
<title>Node1&#45;&gt;Node18</title>
<path fill="none" stroke="midnightblue" d="M914.31,-809.21C1027.38,-797.05 1253.5,-763.97 1253.5,-694 1253.5,-694 1253.5,-694 1253.5,-513 1253.5,-377.49 1462.5,-426.51 1462.5,-291 1462.5,-291 1462.5,-291 1462.5,-233 1462.5,-201.13 1254.43,-154.36 1153.78,-133.6"/>
<polygon fill="midnightblue" stroke="midnightblue" points="1154.31,-130.13 1143.81,-131.55 1152.9,-136.99 1154.31,-130.13"/>
</g>
<!-- Node29 -->
<g id="node29" class="node">
<title>Node29</title>
<g id="a_node29"><a xlink:href="../../dc/d40/MIDI__MessageTypes_8hpp.html" target="_top" xlink:title=" ">
<polygon fill="white" stroke="black" points="219.5,-739.5 219.5,-769.5 373.5,-769.5 373.5,-739.5 219.5,-739.5"/>
<text text-anchor="start" x="227.5" y="-757.5" font-family="Helvetica,sans-Serif" font-size="10.00">MIDI_Parsers/MIDI_Message</text>
<text text-anchor="middle" x="296.5" y="-746.5" font-family="Helvetica,sans-Serif" font-size="10.00">Types.hpp</text>
</a>
</g>
</g>
<!-- Node1&#45;&gt;Node29 -->
<g id="edge55" class="edge">
<title>Node1&#45;&gt;Node29</title>
<path fill="none" stroke="midnightblue" d="M788.91,-808.29C689.85,-797.67 496.62,-776.95 383.92,-764.87"/>
<polygon fill="midnightblue" stroke="midnightblue" points="384.26,-761.39 373.94,-763.8 383.51,-768.35 384.26,-761.39"/>
</g>
<!-- Node33 -->
<g id="node33" class="node">
<title>Node33</title>
<g id="a_node33"><a xlink:href="../../d4/d57/Bank_8hpp.html" target="_top" xlink:title=" ">
<polygon fill="white" stroke="black" points="804,-745 804,-764 899,-764 899,-745 804,-745"/>
<text text-anchor="middle" x="851.5" y="-752" font-family="Helvetica,sans-Serif" font-size="10.00">Banks/Bank.hpp</text>
</a>
</g>
</g>
<!-- Node1&#45;&gt;Node33 -->
<g id="edge64" class="edge">
<title>Node1&#45;&gt;Node33</title>
<path fill="none" stroke="midnightblue" d="M851.5,-806.48C851.5,-798.08 851.5,-784.98 851.5,-774.16"/>
<polygon fill="midnightblue" stroke="midnightblue" points="855,-774.01 851.5,-764.01 848,-774.01 855,-774.01"/>
</g>
<!-- Node37 -->
<g id="node37" class="node">
<title>Node37</title>
<g id="a_node37"><a xlink:href="../../d4/d93/Updatable_8hpp.html" target="_top" xlink:title=" ">
<polygon fill="white" stroke="black" points="1351,-504.5 1351,-523.5 1512,-523.5 1512,-504.5 1351,-504.5"/>
<text text-anchor="middle" x="1431.5" y="-511.5" font-family="Helvetica,sans-Serif" font-size="10.00">AH/Containers/Updatable.hpp</text>
</a>
</g>
</g>
<!-- Node1&#45;&gt;Node37 -->
<g id="edge78" class="edge">
<title>Node1&#45;&gt;Node37</title>
<path fill="none" stroke="midnightblue" d="M914.21,-812.54C1014.29,-807.9 1205.2,-795.89 1267.5,-770 1317.11,-749.38 1361.5,-747.72 1361.5,-694 1361.5,-694 1361.5,-694 1361.5,-636 1361.5,-593.61 1394.09,-552.73 1414.8,-531.04"/>
<polygon fill="midnightblue" stroke="midnightblue" points="1417.51,-533.27 1422.06,-523.7 1412.54,-528.35 1417.51,-533.27"/>
</g>
<!-- Node3 -->
<g id="node3" class="node">
<title>Node3</title>
<g id="a_node3"><a xlink:href="../../d0/d4e/Def_8hpp.html" target="_top" xlink:title=" ">
<polygon fill="white" stroke="black" points="300.5,-627.5 300.5,-646.5 374.5,-646.5 374.5,-627.5 300.5,-627.5"/>
<text text-anchor="middle" x="337.5" y="-634.5" font-family="Helvetica,sans-Serif" font-size="10.00">Def/Def.hpp</text>
</a>
</g>
</g>
<!-- Node2&#45;&gt;Node3 -->
<g id="edge2" class="edge">
<title>Node2&#45;&gt;Node3</title>
<path fill="none" stroke="midnightblue" d="M103.55,-683.44C154.5,-673.55 238.07,-657.31 290.32,-647.17"/>
<polygon fill="midnightblue" stroke="midnightblue" points="291.18,-650.56 300.33,-645.22 289.84,-643.69 291.18,-650.56"/>
</g>
<!-- Node4 -->
<g id="node4" class="node">
<title>Node4</title>
<g id="a_node4"><a xlink:href="../../d7/d42/Channel_8hpp.html" target="_top" xlink:title=" ">
<polygon fill="white" stroke="black" points="132,-504.5 132,-523.5 209,-523.5 209,-504.5 132,-504.5"/>
<text text-anchor="middle" x="170.5" y="-511.5" font-family="Helvetica,sans-Serif" font-size="10.00">Channel.hpp</text>
</a>
</g>
</g>
<!-- Node3&#45;&gt;Node4 -->
<g id="edge3" class="edge">
<title>Node3&#45;&gt;Node4</title>
<path fill="none" stroke="midnightblue" d="M325.76,-627.49C297.56,-607.06 225.76,-555.04 190.56,-529.54"/>
<polygon fill="midnightblue" stroke="midnightblue" points="192.61,-526.69 182.45,-523.66 188.5,-532.36 192.61,-526.69"/>
</g>
<!-- Node5 -->
<g id="node5" class="node">
<title>Node5</title>
<g id="a_node5"><a xlink:title=" ">
<polygon fill="white" stroke="#bfbfbf" points="131.5,-280.5 131.5,-299.5 309.5,-299.5 309.5,-280.5 131.5,-280.5"/>
<text text-anchor="middle" x="220.5" y="-287.5" font-family="Helvetica,sans-Serif" font-size="10.00">Settings/NamespaceSettings.hpp</text>
</a>
</g>
</g>
<!-- Node3&#45;&gt;Node5 -->
<g id="edge52" class="edge">
<title>Node3&#45;&gt;Node5</title>
<path fill="none" stroke="midnightblue" d="M332.84,-627.48C322.69,-608.12 299.5,-559.04 299.5,-515 299.5,-515 299.5,-515 299.5,-401 299.5,-360.79 264.25,-325.22 240.84,-306.03"/>
<polygon fill="midnightblue" stroke="midnightblue" points="242.86,-303.17 232.84,-299.72 238.53,-308.66 242.86,-303.17"/>
</g>
<!-- Node6 -->
<g id="node6" class="node">
<title>Node6</title>
<g id="a_node6"><a xlink:title=" ">
<polygon fill="white" stroke="#bfbfbf" points="330,-224.5 330,-243.5 383,-243.5 383,-224.5 330,-224.5"/>
<text text-anchor="middle" x="356.5" y="-231.5" font-family="Helvetica,sans-Serif" font-size="10.00">stdint.h</text>
</a>
</g>
</g>
<!-- Node3&#45;&gt;Node6 -->
<g id="edge54" class="edge">
<title>Node3&#45;&gt;Node6</title>
<path fill="none" stroke="midnightblue" d="M337.5,-627.49C337.5,-607.74 337.5,-557.22 337.5,-515 337.5,-515 337.5,-515 337.5,-345 337.5,-312.49 345.66,-275.35 351.28,-253.61"/>
<polygon fill="midnightblue" stroke="midnightblue" points="354.72,-254.32 353.94,-243.75 347.96,-252.5 354.72,-254.32"/>
</g>
<!-- Node7 -->
<g id="node7" class="node">
<title>Node7</title>
<g id="a_node7"><a xlink:href="../../d2/dbc/Cable_8hpp.html" target="_top" xlink:title=" ">
<polygon fill="white" stroke="black" points="81,-566 81,-585 146,-585 146,-566 81,-566"/>
<text text-anchor="middle" x="113.5" y="-573" font-family="Helvetica,sans-Serif" font-size="10.00">Cable.hpp</text>
</a>
</g>
</g>
<!-- Node3&#45;&gt;Node7 -->
<g id="edge6" class="edge">
<title>Node3&#45;&gt;Node7</title>
<path fill="none" stroke="midnightblue" d="M305.41,-627.48C265.9,-616.98 198.72,-599.14 155.24,-587.59"/>
<polygon fill="midnightblue" stroke="midnightblue" points="156.1,-584.19 145.53,-585.01 154.3,-590.96 156.1,-584.19"/>
</g>
<!-- Node8 -->
<g id="node8" class="node">
<title>Node8</title>
<g id="a_node8"><a xlink:href="../../de/d76/Array_8hpp.html" target="_top" xlink:title=" ">
<polygon fill="white" stroke="black" points="594,-504.5 594,-523.5 729,-523.5 729,-504.5 594,-504.5"/>
<text text-anchor="middle" x="661.5" y="-511.5" font-family="Helvetica,sans-Serif" font-size="10.00">AH/Containers/Array.hpp</text>
</a>
</g>
</g>
<!-- Node3&#45;&gt;Node8 -->
<g id="edge9" class="edge">
<title>Node3&#45;&gt;Node8</title>
<path fill="none" stroke="midnightblue" d="M374.61,-632.04C417,-626.59 487.81,-614.64 544.5,-591 582.39,-575.2 621.4,-547 643.43,-529.76"/>
<polygon fill="midnightblue" stroke="midnightblue" points="645.62,-532.49 651.27,-523.52 641.26,-527.01 645.62,-532.49"/>
</g>
<!-- Node24 -->
<g id="node24" class="node">
<title>Node24</title>
<g id="a_node24"><a xlink:title=" ">
<polygon fill="white" stroke="#bfbfbf" points="988.5,-224.5 988.5,-243.5 1044.5,-243.5 1044.5,-224.5 988.5,-224.5"/>
<text text-anchor="middle" x="1016.5" y="-231.5" font-family="Helvetica,sans-Serif" font-size="10.00">stddef.h</text>
</a>
</g>
</g>
<!-- Node3&#45;&gt;Node24 -->
<g id="edge53" class="edge">
<title>Node3&#45;&gt;Node24</title>
<path fill="none" stroke="midnightblue" d="M374.77,-632.71C511.45,-619.9 982.62,-569.01 1087.5,-468 1112.36,-444.05 1109.66,-425.96 1103.5,-392 1098.76,-365.85 1095.27,-359.31 1082.5,-336 1072.89,-318.46 1066.66,-316.6 1055.5,-300 1044.97,-284.34 1033.99,-265.82 1026.38,-252.56"/>
<polygon fill="midnightblue" stroke="midnightblue" points="1029.26,-250.55 1021.28,-243.59 1023.18,-254.01 1029.26,-250.55"/>
</g>
<!-- Node28 -->
<g id="node28" class="node">
<title>Node28</title>
<g id="a_node28"><a xlink:href="../../d4/d35/Hardware-Types_8hpp.html" target="_top" xlink:title=" ">
<polygon fill="white" stroke="black" points="404,-560.5 404,-590.5 535,-590.5 535,-560.5 404,-560.5"/>
<text text-anchor="start" x="412" y="-578.5" font-family="Helvetica,sans-Serif" font-size="10.00">AH/Hardware/Hardware</text>
<text text-anchor="middle" x="469.5" y="-567.5" font-family="Helvetica,sans-Serif" font-size="10.00">&#45;Types.hpp</text>
</a>
</g>
</g>
<!-- Node3&#45;&gt;Node28 -->
<g id="edge47" class="edge">
<title>Node3&#45;&gt;Node28</title>
<path fill="none" stroke="midnightblue" d="M356.41,-627.48C375.29,-618.96 404.9,-605.62 429.08,-594.72"/>
<polygon fill="midnightblue" stroke="midnightblue" points="430.71,-597.82 438.39,-590.52 427.84,-591.44 430.71,-597.82"/>
</g>
<!-- Node4&#45;&gt;Node5 -->
<g id="edge4" class="edge">
<title>Node4&#45;&gt;Node5</title>
<path fill="none" stroke="midnightblue" d="M172.46,-504.3C179.83,-471.56 206,-355.38 216.3,-309.67"/>
<polygon fill="midnightblue" stroke="midnightblue" points="219.72,-310.41 218.5,-299.88 212.89,-308.87 219.72,-310.41"/>
</g>
<!-- Node4&#45;&gt;Node6 -->
<g id="edge5" class="edge">
<title>Node4&#45;&gt;Node6</title>
<path fill="none" stroke="midnightblue" d="M164.17,-504.18C140.98,-470.67 64.9,-349.74 122.5,-280 147.11,-250.21 260.38,-239.94 319.83,-236.56"/>
<polygon fill="midnightblue" stroke="midnightblue" points="320.13,-240.05 329.93,-236.02 319.75,-233.06 320.13,-240.05"/>
</g>
<!-- Node7&#45;&gt;Node5 -->
<g id="edge7" class="edge">
<title>Node7&#45;&gt;Node5</title>
<path fill="none" stroke="midnightblue" d="M113.77,-565.64C114.37,-552.11 116.31,-525.59 122.5,-504 144.34,-427.78 189.68,-344.24 210.11,-308.64"/>
<polygon fill="midnightblue" stroke="midnightblue" points="213.39,-309.96 215.39,-299.56 207.34,-306.45 213.39,-309.96"/>
</g>
<!-- Node7&#45;&gt;Node6 -->
<g id="edge8" class="edge">
<title>Node7&#45;&gt;Node6</title>
<path fill="none" stroke="midnightblue" d="M107.03,-565.74C93.92,-547.11 65.5,-501.78 65.5,-459 65.5,-459 65.5,-459 65.5,-345 65.5,-310.61 78.88,-299.08 107.5,-280 141.72,-257.19 259.11,-243.67 319.68,-238.06"/>
<polygon fill="midnightblue" stroke="midnightblue" points="320.3,-241.52 329.95,-237.13 319.67,-234.54 320.3,-241.52"/>
</g>
<!-- Node9 -->
<g id="node9" class="node">
<title>Node9</title>
<g id="a_node9"><a xlink:href="../../d1/d65/Warnings_8hpp.html" target="_top" xlink:title=" ">
<polygon fill="white" stroke="black" points="647,-0.5 647,-19.5 790,-19.5 790,-0.5 647,-0.5"/>
<text text-anchor="middle" x="718.5" y="-7.5" font-family="Helvetica,sans-Serif" font-size="10.00">AH/Settings/Warnings.hpp</text>
</a>
</g>
</g>
<!-- Node8&#45;&gt;Node9 -->
<g id="edge10" class="edge">
<title>Node8&#45;&gt;Node9</title>
<path fill="none" stroke="midnightblue" d="M634.38,-504.47C595.23,-490.27 527.5,-457.78 527.5,-403 527.5,-403 527.5,-403 527.5,-121 527.5,-62.64 595.29,-34.78 650.09,-21.78"/>
<polygon fill="midnightblue" stroke="midnightblue" points="651.16,-25.13 660.16,-19.53 649.63,-18.3 651.16,-25.13"/>
</g>
<!-- Node10 -->
<g id="node10" class="node">
<title>Node10</title>
<g id="a_node10"><a xlink:href="../../d1/d93/Error_8hpp.html" target="_top" xlink:title=" ">
<polygon fill="white" stroke="black" points="729.5,-448.5 729.5,-467.5 833.5,-467.5 833.5,-448.5 729.5,-448.5"/>
<text text-anchor="middle" x="781.5" y="-455.5" font-family="Helvetica,sans-Serif" font-size="10.00">AH/Error/Error.hpp</text>
</a>
</g>
</g>
<!-- Node8&#45;&gt;Node10 -->
<g id="edge11" class="edge">
<title>Node8&#45;&gt;Node10</title>
<path fill="none" stroke="midnightblue" d="M680.51,-504.44C700.09,-495.64 730.81,-481.81 753.23,-471.72"/>
<polygon fill="midnightblue" stroke="midnightblue" points="754.89,-474.81 762.57,-467.52 752.02,-468.43 754.89,-474.81"/>
</g>
<!-- Node8&#45;&gt;Node18 -->
<g id="edge45" class="edge">
<title>Node8&#45;&gt;Node18</title>
<path fill="none" stroke="midnightblue" d="M653.66,-504.25C635.22,-482.6 592.86,-425.89 622.5,-392 701.62,-301.54 800.92,-436.12 890.5,-356 954.7,-298.59 877.35,-229.64 937.5,-168 951.72,-153.42 998.41,-141.43 1038.19,-133.5"/>
<polygon fill="midnightblue" stroke="midnightblue" points="1038.98,-136.91 1048.13,-131.57 1037.65,-130.04 1038.98,-136.91"/>
</g>
<!-- Node8&#45;&gt;Node24 -->
<g id="edge46" class="edge">
<title>Node8&#45;&gt;Node24</title>
<path fill="none" stroke="midnightblue" d="M729,-510.24C838.27,-505.08 1044.01,-492.25 1066.5,-468 1106.41,-424.98 1093.46,-386.45 1063.5,-336 1048.77,-311.2 1023.11,-325.43 1009.5,-300 1001.81,-285.63 1004.95,-266.93 1009.19,-253.27"/>
<polygon fill="midnightblue" stroke="midnightblue" points="1012.58,-254.18 1012.64,-243.59 1005.99,-251.83 1012.58,-254.18"/>
</g>
<!-- Node27 -->
<g id="node27" class="node">
<title>Node27</title>
<g id="a_node27"><a xlink:title=" ">
<polygon fill="white" stroke="#bfbfbf" points="631.5,-392.5 631.5,-411.5 721.5,-411.5 721.5,-392.5 631.5,-392.5"/>
<text text-anchor="middle" x="676.5" y="-399.5" font-family="Helvetica,sans-Serif" font-size="10.00">AH/STL/iterator</text>
</a>
</g>
</g>
<!-- Node8&#45;&gt;Node27 -->
<g id="edge44" class="edge">
<title>Node8&#45;&gt;Node27</title>
<path fill="none" stroke="midnightblue" d="M662.68,-504.37C665.1,-486.62 670.68,-445.67 673.96,-421.6"/>
<polygon fill="midnightblue" stroke="midnightblue" points="677.45,-421.97 675.33,-411.59 670.51,-421.03 677.45,-421.97"/>
</g>
<!-- Node10&#45;&gt;Node9 -->
<g id="edge12" class="edge">
<title>Node10&#45;&gt;Node9</title>
<path fill="none" stroke="midnightblue" d="M776.76,-448.11C768.92,-434.22 751.97,-407.35 730.5,-392 691.06,-363.79 662.09,-389.99 627.5,-356 605.54,-334.42 603.5,-321.8 603.5,-291 603.5,-291 603.5,-291 603.5,-121 603.5,-90.2 606.9,-78.89 627.5,-56 641.03,-40.96 660.71,-30.37 678.31,-23.25"/>
<polygon fill="midnightblue" stroke="midnightblue" points="679.72,-26.46 687.83,-19.65 677.24,-19.92 679.72,-26.46"/>
</g>
<!-- Node11 -->
<g id="node11" class="node">
<title>Node11</title>
<g id="a_node11"><a xlink:href="../../df/dee/Debug_8hpp.html" target="_top" xlink:title=" ">
<polygon fill="white" stroke="black" points="822,-392.5 822,-411.5 943,-411.5 943,-392.5 822,-392.5"/>
<text text-anchor="middle" x="882.5" y="-399.5" font-family="Helvetica,sans-Serif" font-size="10.00">AH/Debug/Debug.hpp</text>
</a>
</g>
</g>
<!-- Node10&#45;&gt;Node11 -->
<g id="edge13" class="edge">
<title>Node10&#45;&gt;Node11</title>
<path fill="none" stroke="midnightblue" d="M797.73,-448.32C813.85,-439.7 838.8,-426.36 857.46,-416.39"/>
<polygon fill="midnightblue" stroke="midnightblue" points="859.14,-419.46 866.31,-411.65 855.84,-413.28 859.14,-419.46"/>
</g>
<!-- Node11&#45;&gt;Node9 -->
<g id="edge14" class="edge">
<title>Node11&#45;&gt;Node9</title>
<path fill="none" stroke="midnightblue" d="M821.67,-392.61C775.52,-385.06 717.1,-372.62 699.5,-356 677.52,-335.25 679.5,-321.23 679.5,-291 679.5,-291 679.5,-291 679.5,-121 679.5,-86.72 696.54,-49.7 708.09,-28.54"/>
<polygon fill="midnightblue" stroke="midnightblue" points="711.19,-30.17 713.08,-19.75 705.1,-26.72 711.19,-30.17"/>
</g>
<!-- Node12 -->
<g id="node12" class="node">
<title>Node12</title>
<g id="a_node12"><a xlink:href="../../dd/d80/PrintStream_8hpp.html" target="_top" xlink:title=" ">
<polygon fill="white" stroke="black" points="708,-336.5 708,-355.5 881,-355.5 881,-336.5 708,-336.5"/>
<text text-anchor="middle" x="794.5" y="-343.5" font-family="Helvetica,sans-Serif" font-size="10.00">AH/PrintStream/PrintStream.hpp</text>
</a>
</g>
</g>
<!-- Node11&#45;&gt;Node12 -->
<g id="edge15" class="edge">
<title>Node11&#45;&gt;Node12</title>
<path fill="none" stroke="midnightblue" d="M868.36,-392.32C854.63,-383.9 833.56,-370.97 817.44,-361.07"/>
<polygon fill="midnightblue" stroke="midnightblue" points="818.96,-357.9 808.6,-355.65 815.3,-363.87 818.96,-357.9"/>
</g>
<!-- Node19 -->
<g id="node19" class="node">
<title>Node19</title>
<g id="a_node19"><a xlink:href="../../de/dd1/AH_2Settings_2SettingsWrapper_8hpp.html" target="_top" xlink:title=" ">
<polygon fill="white" stroke="black" points="1229.5,-336.5 1229.5,-355.5 1407.5,-355.5 1407.5,-336.5 1229.5,-336.5"/>
<text text-anchor="middle" x="1318.5" y="-343.5" font-family="Helvetica,sans-Serif" font-size="10.00">AH/Settings/SettingsWrapper.hpp</text>
</a>
</g>
</g>
<!-- Node11&#45;&gt;Node19 -->
<g id="edge28" class="edge">
<title>Node11&#45;&gt;Node19</title>
<path fill="none" stroke="midnightblue" d="M943.25,-392.86C1019.1,-383.19 1149.08,-367.08 1234.43,-356.75"/>
<polygon fill="midnightblue" stroke="midnightblue" points="1235.11,-360.2 1244.61,-355.52 1234.27,-353.25 1235.11,-360.2"/>
</g>
<!-- Node26 -->
<g id="node26" class="node">
<title>Node26</title>
<g id="a_node26"><a xlink:href="../../d7/d52/DebugVal_8hpp.html" target="_top" xlink:title=" ">
<polygon fill="white" stroke="black" points="937.5,-336.5 937.5,-355.5 1021.5,-355.5 1021.5,-336.5 937.5,-336.5"/>
<text text-anchor="middle" x="979.5" y="-343.5" font-family="Helvetica,sans-Serif" font-size="10.00">DebugVal.hpp</text>
</a>
</g>
</g>
<!-- Node11&#45;&gt;Node26 -->
<g id="edge43" class="edge">
<title>Node11&#45;&gt;Node26</title>
<path fill="none" stroke="midnightblue" d="M898.08,-392.32C913.5,-383.74 937.31,-370.49 955.21,-360.52"/>
<polygon fill="midnightblue" stroke="midnightblue" points="956.92,-363.58 963.95,-355.65 953.51,-357.46 956.92,-363.58"/>
</g>
<!-- Node12&#45;&gt;Node5 -->
<g id="edge27" class="edge">
<title>Node12&#45;&gt;Node5</title>
<path fill="none" stroke="midnightblue" d="M707.94,-336.86C603.77,-327.06 429.23,-310.64 319.71,-300.33"/>
<polygon fill="midnightblue" stroke="midnightblue" points="319.94,-296.84 309.65,-299.39 319.28,-303.81 319.94,-296.84"/>
</g>
<!-- Node12&#45;&gt;Node9 -->
<g id="edge17" class="edge">
<title>Node12&#45;&gt;Node9</title>
<path fill="none" stroke="midnightblue" d="M792.54,-336.41C782.53,-292.38 736.87,-91.74 722.71,-29.48"/>
<polygon fill="midnightblue" stroke="midnightblue" points="726.07,-28.51 720.44,-19.54 719.25,-30.06 726.07,-28.51"/>
</g>
<!-- Node13 -->
<g id="node13" class="node">
<title>Node13</title>
<g id="a_node13"><a xlink:href="../../d6/db0/AH_2Settings_2NamespaceSettings_8hpp.html" target="_top" xlink:title=" ">
<polygon fill="white" stroke="black" points="746,-56.5 746,-75.5 941,-75.5 941,-56.5 746,-56.5"/>
<text text-anchor="middle" x="843.5" y="-63.5" font-family="Helvetica,sans-Serif" font-size="10.00">AH/Settings/NamespaceSettings.hpp</text>
</a>
</g>
</g>
<!-- Node12&#45;&gt;Node13 -->
<g id="edge16" class="edge">
<title>Node12&#45;&gt;Node13</title>
<path fill="none" stroke="midnightblue" d="M794.63,-336.44C794.9,-317.94 795.5,-272.81 795.5,-235 795.5,-235 795.5,-235 795.5,-177 795.5,-141.58 816.66,-104.71 830.88,-83.92"/>
<polygon fill="midnightblue" stroke="midnightblue" points="833.88,-85.74 836.83,-75.56 828.18,-81.68 833.88,-85.74"/>
</g>
<!-- Node14 -->
<g id="node14" class="node">
<title>Node14</title>
<g id="a_node14"><a xlink:href="../../d6/ddf/Arduino-Wrapper_8h.html" target="_top" xlink:title=" ">
<polygon fill="white" stroke="black" points="946.5,-168.5 946.5,-187.5 1070.5,-187.5 1070.5,-168.5 946.5,-168.5"/>
<text text-anchor="middle" x="1008.5" y="-175.5" font-family="Helvetica,sans-Serif" font-size="10.00">AH/Arduino&#45;Wrapper.h</text>
</a>
</g>
</g>
<!-- Node12&#45;&gt;Node14 -->
<g id="edge18" class="edge">
<title>Node12&#45;&gt;Node14</title>
<path fill="none" stroke="midnightblue" d="M804.12,-336.41C827.07,-316.05 887.09,-263.62 940.5,-224 955.28,-213.03 972.58,-201.6 986.04,-193"/>
<polygon fill="midnightblue" stroke="midnightblue" points="988.08,-195.85 994.66,-187.54 984.34,-189.94 988.08,-195.85"/>
</g>
<!-- Node15 -->
<g id="node15" class="node">
<title>Node15</title>
<g id="a_node15"><a xlink:href="../../d7/d79/MinMaxFix_8hpp.html" target="_top" xlink:title=" ">
<polygon fill="white" stroke="black" points="892.5,-112.5 892.5,-131.5 1028.5,-131.5 1028.5,-112.5 892.5,-112.5"/>
<text text-anchor="middle" x="960.5" y="-119.5" font-family="Helvetica,sans-Serif" font-size="10.00">AH/Math/MinMaxFix.hpp</text>
</a>
</g>
</g>
<!-- Node14&#45;&gt;Node15 -->
<g id="edge19" class="edge">
<title>Node14&#45;&gt;Node15</title>
<path fill="none" stroke="midnightblue" d="M1000.57,-168.08C993.65,-160.3 983.43,-148.8 975.05,-139.37"/>
<polygon fill="midnightblue" stroke="midnightblue" points="977.54,-136.9 968.28,-131.75 972.31,-141.55 977.54,-136.9"/>
</g>
<!-- Node17 -->
<g id="node17" class="node">
<title>Node17</title>
<g id="a_node17"><a xlink:title=" ">
<polygon fill="white" stroke="#bfbfbf" points="1296,-0.5 1296,-19.5 1359,-19.5 1359,-0.5 1296,-0.5"/>
<text text-anchor="middle" x="1327.5" y="-7.5" font-family="Helvetica,sans-Serif" font-size="10.00">Arduino.h</text>
</a>
</g>
</g>
<!-- Node14&#45;&gt;Node17 -->
<g id="edge26" class="edge">
<title>Node14&#45;&gt;Node17</title>
<path fill="none" stroke="midnightblue" d="M1070.78,-172.89C1147.97,-166.94 1274.35,-154.15 1315.5,-132 1344.88,-116.19 1353.61,-107.17 1365.5,-76 1372.29,-58.2 1359.03,-39.6 1346.35,-26.88"/>
<polygon fill="midnightblue" stroke="midnightblue" points="1348.42,-24.02 1338.72,-19.78 1343.66,-29.15 1348.42,-24.02"/>
</g>
<!-- Node14&#45;&gt;Node18 -->
<g id="edge25" class="edge">
<title>Node14&#45;&gt;Node18</title>
<path fill="none" stroke="midnightblue" d="M1023.28,-168.32C1037.77,-159.82 1060.07,-146.73 1076.99,-136.8"/>
<polygon fill="midnightblue" stroke="midnightblue" points="1078.9,-139.74 1085.76,-131.65 1075.36,-133.7 1078.9,-139.74"/>
</g>
<!-- Node15&#45;&gt;Node9 -->
<g id="edge20" class="edge">
<title>Node15&#45;&gt;Node9</title>
<path fill="none" stroke="midnightblue" d="M962.03,-112.06C963.86,-98.1 965.06,-71.14 950.5,-56 929.9,-34.58 858.32,-22.99 800.05,-16.97"/>
<polygon fill="midnightblue" stroke="midnightblue" points="800.39,-13.48 790.09,-15.98 799.69,-20.45 800.39,-13.48"/>
</g>
<!-- Node15&#45;&gt;Node13 -->
<g id="edge24" class="edge">
<title>Node15&#45;&gt;Node13</title>
<path fill="none" stroke="midnightblue" d="M941.96,-112.44C922.88,-103.64 892.93,-89.81 871.06,-79.72"/>
<polygon fill="midnightblue" stroke="midnightblue" points="872.5,-76.53 861.95,-75.52 869.57,-82.88 872.5,-76.53"/>
</g>
<!-- Node16 -->
<g id="node16" class="node">
<title>Node16</title>
<g id="a_node16"><a xlink:href="../../d6/d3b/FixArduinoMacros_8hpp.html" target="_top" xlink:title=" ">
<polygon fill="white" stroke="black" points="1186.5,-56.5 1186.5,-75.5 1356.5,-75.5 1356.5,-56.5 1186.5,-56.5"/>
<text text-anchor="middle" x="1271.5" y="-63.5" font-family="Helvetica,sans-Serif" font-size="10.00">AH/Math/FixArduinoMacros.hpp</text>
</a>
</g>
</g>
<!-- Node15&#45;&gt;Node16 -->
<g id="edge21" class="edge">
<title>Node15&#45;&gt;Node16</title>
<path fill="none" stroke="midnightblue" d="M1009.78,-112.44C1064.83,-102.89 1153.9,-87.42 1212.58,-77.23"/>
<polygon fill="midnightblue" stroke="midnightblue" points="1213.2,-80.68 1222.45,-75.52 1212,-73.78 1213.2,-80.68"/>
</g>
<!-- Node16&#45;&gt;Node9 -->
<g id="edge22" class="edge">
<title>Node16&#45;&gt;Node9</title>
<path fill="none" stroke="midnightblue" d="M1186.31,-56.68C1081.19,-46.42 903.73,-29.09 800.23,-18.98"/>
<polygon fill="midnightblue" stroke="midnightblue" points="800.44,-15.48 790.14,-18 799.76,-22.45 800.44,-15.48"/>
</g>
<!-- Node16&#45;&gt;Node17 -->
<g id="edge23" class="edge">
<title>Node16&#45;&gt;Node17</title>
<path fill="none" stroke="midnightblue" d="M1280.5,-56.32C1288.69,-48.42 1301.01,-36.55 1310.97,-26.94"/>
<polygon fill="midnightblue" stroke="midnightblue" points="1313.57,-29.29 1318.34,-19.83 1308.71,-24.26 1313.57,-29.29"/>
</g>
<!-- Node19&#45;&gt;Node9 -->
<g id="edge29" class="edge">
<title>Node19&#45;&gt;Node9</title>
<path fill="none" stroke="midnightblue" d="M1348.24,-336.37C1367.16,-329.44 1390.8,-317.85 1405.5,-300 1424.63,-276.77 1424.5,-265.1 1424.5,-235 1424.5,-235 1424.5,-235 1424.5,-121 1424.5,-81.98 1400.6,-73.03 1365.5,-56 1315.9,-31.94 963.6,-18.36 800.72,-13.3"/>
<polygon fill="midnightblue" stroke="midnightblue" points="800.37,-9.79 790.27,-12.98 800.16,-16.79 800.37,-9.79"/>
</g>
<!-- Node19&#45;&gt;Node11 -->
<g id="edge42" class="edge">
<title>Node19&#45;&gt;Node11</title>
<path fill="none" stroke="midnightblue" d="M1254.77,-355.52C1174.47,-365.75 1037.05,-382.76 953.48,-392.83"/>
<polygon fill="midnightblue" stroke="midnightblue" points="952.82,-389.38 943.31,-394.05 953.66,-396.33 952.82,-389.38"/>
</g>
<!-- Node19&#45;&gt;Node13 -->
<g id="edge30" class="edge">
<title>Node19&#45;&gt;Node13</title>
<path fill="none" stroke="midnightblue" d="M1229.29,-337.05C1193.25,-330.82 1152.48,-319.73 1119.5,-300 1081.11,-277.04 1090.96,-248.45 1053.5,-224 1008.3,-194.49 983.46,-216.32 937.5,-188 896.13,-162.51 865.94,-111.79 852.04,-84.82"/>
<polygon fill="midnightblue" stroke="midnightblue" points="855.11,-83.14 847.52,-75.75 848.85,-86.27 855.11,-83.14"/>
</g>
<!-- Node20 -->
<g id="node20" class="node">
<title>Node20</title>
<g id="a_node20"><a xlink:href="../../d5/d4f/AH_2Settings_2Settings_8hpp.html" target="_top" xlink:title="All user settings and debugging options can be changed here.">
<polygon fill="white" stroke="black" points="1319,-280.5 1319,-299.5 1396,-299.5 1396,-280.5 1319,-280.5"/>
<text text-anchor="middle" x="1357.5" y="-287.5" font-family="Helvetica,sans-Serif" font-size="10.00">Settings.hpp</text>
</a>
</g>
</g>
<!-- Node19&#45;&gt;Node20 -->
<g id="edge31" class="edge">
<title>Node19&#45;&gt;Node20</title>
<path fill="none" stroke="midnightblue" d="M1324.94,-336.08C1330.45,-328.46 1338.53,-317.26 1345.26,-307.94"/>
<polygon fill="midnightblue" stroke="midnightblue" points="1348.16,-309.91 1351.18,-299.75 1342.49,-305.81 1348.16,-309.91"/>
</g>
<!-- Node25 -->
<g id="node25" class="node">
<title>Node25</title>
<g id="a_node25"><a xlink:href="../../d9/d98/TeensyUSBTypes_8hpp.html" target="_top" xlink:title=" ">
<polygon fill="white" stroke="black" points="1128,-280.5 1128,-299.5 1301,-299.5 1301,-280.5 1128,-280.5"/>
<text text-anchor="middle" x="1214.5" y="-287.5" font-family="Helvetica,sans-Serif" font-size="10.00">AH/Teensy/TeensyUSBTypes.hpp</text>
</a>
</g>
</g>
<!-- Node19&#45;&gt;Node25 -->
<g id="edge41" class="edge">
<title>Node19&#45;&gt;Node25</title>
<path fill="none" stroke="midnightblue" d="M1301.79,-336.32C1285.19,-327.7 1259.5,-314.36 1240.28,-304.39"/>
<polygon fill="midnightblue" stroke="midnightblue" points="1241.66,-301.16 1231.17,-299.65 1238.43,-307.37 1241.66,-301.16"/>
</g>
<!-- Node20&#45;&gt;Node6 -->
<g id="edge40" class="edge">
<title>Node20&#45;&gt;Node6</title>
<path fill="none" stroke="midnightblue" d="M1318.84,-281.15C1316.02,-280.71 1313.22,-280.32 1310.5,-280 955.32,-237.83 521.35,-234.78 393.55,-234.86"/>
<polygon fill="midnightblue" stroke="midnightblue" points="393.17,-231.36 383.17,-234.87 393.18,-238.36 393.17,-231.36"/>
</g>
<!-- Node21 -->
<g id="node21" class="node">
<title>Node21</title>
<g id="a_node21"><a xlink:href="../../dc/d50/Frequency_8hpp.html" target="_top" xlink:title=" ">
<polygon fill="white" stroke="black" points="1172.5,-112.5 1172.5,-131.5 1306.5,-131.5 1306.5,-112.5 1172.5,-112.5"/>
<text text-anchor="middle" x="1239.5" y="-119.5" font-family="Helvetica,sans-Serif" font-size="10.00">AH/Types/Frequency.hpp</text>
</a>
</g>
</g>
<!-- Node20&#45;&gt;Node21 -->
<g id="edge32" class="edge">
<title>Node20&#45;&gt;Node21</title>
<path fill="none" stroke="midnightblue" d="M1356.37,-280.47C1354.36,-267.53 1349.32,-242.46 1338.5,-224 1317.68,-188.46 1281.64,-156.14 1259.27,-138.07"/>
<polygon fill="midnightblue" stroke="midnightblue" points="1261.16,-135.1 1251.15,-131.65 1256.82,-140.6 1261.16,-135.1"/>
</g>
<!-- Node22 -->
<g id="node22" class="node">
<title>Node22</title>
<g id="a_node22"><a xlink:href="../../d7/d7c/ADCConfig_8hpp.html" target="_top" xlink:title="This file contains the platform&#45;specific ADC resolutions.">
<polygon fill="white" stroke="black" points="1172,-224.5 1172,-243.5 1329,-243.5 1329,-224.5 1172,-224.5"/>
<text text-anchor="middle" x="1250.5" y="-231.5" font-family="Helvetica,sans-Serif" font-size="10.00">AH/Hardware/ADCConfig.hpp</text>
</a>
</g>
</g>
<!-- Node20&#45;&gt;Node22 -->
<g id="edge35" class="edge">
<title>Node20&#45;&gt;Node22</title>
<path fill="none" stroke="midnightblue" d="M1340.31,-280.32C1323.15,-271.66 1296.55,-258.24 1276.75,-248.25"/>
<polygon fill="midnightblue" stroke="midnightblue" points="1278.15,-245.04 1267.65,-243.65 1275,-251.28 1278.15,-245.04"/>
</g>
<!-- Node23 -->
<g id="node23" class="node">
<title>Node23</title>
<g id="a_node23"><a xlink:title=" ">
<polygon fill="white" stroke="#bfbfbf" points="1101,-224.5 1101,-243.5 1154,-243.5 1154,-224.5 1101,-224.5"/>
<text text-anchor="middle" x="1127.5" y="-231.5" font-family="Helvetica,sans-Serif" font-size="10.00">limits.h</text>
</a>
</g>
</g>
<!-- Node20&#45;&gt;Node23 -->
<g id="edge38" class="edge">
<title>Node20&#45;&gt;Node23</title>
<path fill="none" stroke="midnightblue" d="M1319.9,-280.48C1282.85,-272.04 1224.36,-258.59 1164.27,-244.15"/>
<polygon fill="midnightblue" stroke="midnightblue" points="1164.77,-240.67 1154.22,-241.73 1163.13,-247.48 1164.77,-240.67"/>
</g>
<!-- Node20&#45;&gt;Node24 -->
<g id="edge39" class="edge">
<title>Node20&#45;&gt;Node24</title>
<path fill="none" stroke="midnightblue" d="M1318.79,-281.47C1315.99,-280.96 1313.2,-280.47 1310.5,-280 1218.95,-264.23 1110.88,-248.4 1054.72,-240.39"/>
<polygon fill="midnightblue" stroke="midnightblue" points="1054.92,-236.88 1044.53,-238.93 1053.93,-243.81 1054.92,-236.88"/>
</g>
<!-- Node21&#45;&gt;Node9 -->
<g id="edge33" class="edge">
<title>Node21&#45;&gt;Node9</title>
<path fill="none" stroke="midnightblue" d="M1206.81,-112.47C1156.17,-99.41 1055.62,-74.07 969.5,-56 905.52,-42.58 831.85,-29.67 780.94,-21.14"/>
<polygon fill="midnightblue" stroke="midnightblue" points="781.51,-17.69 771.07,-19.5 780.36,-24.6 781.51,-17.69"/>
</g>
<!-- Node21&#45;&gt;Node13 -->
<g id="edge34" class="edge">
<title>Node21&#45;&gt;Node13</title>
<path fill="none" stroke="midnightblue" d="M1176.75,-112.44C1105.93,-102.79 990.9,-87.1 916.21,-76.92"/>
<polygon fill="midnightblue" stroke="midnightblue" points="916.34,-73.4 905.95,-75.52 915.39,-80.34 916.34,-73.4"/>
</g>
<!-- Node22&#45;&gt;Node9 -->
<g id="edge36" class="edge">
<title>Node22&#45;&gt;Node9</title>
<path fill="none" stroke="midnightblue" d="M1261.66,-224.39C1287.38,-203.55 1346.29,-149.35 1315.5,-112 1298.89,-91.85 948.19,-42.1 792.2,-20.87"/>
<polygon fill="midnightblue" stroke="midnightblue" points="792.59,-17.39 782.21,-19.51 791.65,-24.32 792.59,-17.39"/>
</g>
<!-- Node22&#45;&gt;Node14 -->
<g id="edge37" class="edge">
<title>Node22&#45;&gt;Node14</title>
<path fill="none" stroke="midnightblue" d="M1212.15,-224.44C1170.03,-215.04 1102.29,-199.93 1056.63,-189.74"/>
<polygon fill="midnightblue" stroke="midnightblue" points="1057.19,-186.28 1046.67,-187.52 1055.66,-193.11 1057.19,-186.28"/>
</g>
<!-- Node28&#45;&gt;Node6 -->
<g id="edge51" class="edge">
<title>Node28&#45;&gt;Node6</title>
<path fill="none" stroke="midnightblue" d="M457.35,-560.26C440.88,-539.46 413.5,-498.89 413.5,-459 413.5,-459 413.5,-459 413.5,-345 413.5,-308.3 388.18,-271.66 371.29,-251.3"/>
<polygon fill="midnightblue" stroke="midnightblue" points="373.85,-248.9 364.67,-243.62 368.55,-253.48 373.85,-248.9"/>
</g>
<!-- Node28&#45;&gt;Node8 -->
<g id="edge49" class="edge">
<title>Node28&#45;&gt;Node8</title>
<path fill="none" stroke="midnightblue" d="M515,-560.4C548.32,-550.07 592.99,-536.23 624.21,-526.56"/>
<polygon fill="midnightblue" stroke="midnightblue" points="625.33,-529.87 633.84,-523.57 623.25,-523.19 625.33,-529.87"/>
</g>
<!-- Node28&#45;&gt;Node9 -->
<g id="edge48" class="edge">
<title>Node28&#45;&gt;Node9</title>
<path fill="none" stroke="midnightblue" d="M465.86,-560.39C460.6,-538.73 451.5,-495.94 451.5,-459 451.5,-459 451.5,-459 451.5,-121 451.5,-90.2 451.95,-75.84 475.5,-56 499.59,-35.71 575.98,-23.89 636.75,-17.5"/>
<polygon fill="midnightblue" stroke="midnightblue" points="637.15,-20.98 646.75,-16.48 636.44,-14.01 637.15,-20.98"/>
</g>
<!-- Node28&#45;&gt;Node13 -->
<g id="edge50" class="edge">
<title>Node28&#45;&gt;Node13</title>
<path fill="none" stroke="midnightblue" d="M493.23,-560.17C521.66,-541 565.5,-504.11 565.5,-459 565.5,-459 565.5,-459 565.5,-345 565.5,-206.15 741.05,-112.42 813.15,-79.79"/>
<polygon fill="midnightblue" stroke="midnightblue" points="814.88,-82.85 822.6,-75.59 812.04,-76.45 814.88,-82.85"/>
</g>
<!-- Node29&#45;&gt;Node2 -->
<g id="edge63" class="edge">
<title>Node29&#45;&gt;Node2</title>
<path fill="none" stroke="midnightblue" d="M240.63,-739.47C198.68,-728.94 142.01,-714.72 103.31,-705"/>
<polygon fill="midnightblue" stroke="midnightblue" points="103.93,-701.55 93.38,-702.51 102.23,-708.34 103.93,-701.55"/>
</g>
<!-- Node29&#45;&gt;Node4 -->
<g id="edge62" class="edge">
<title>Node29&#45;&gt;Node4</title>
<path fill="none" stroke="midnightblue" d="M257.53,-739.45C240.32,-731.34 221.35,-719.43 209.5,-703 171.85,-650.79 168.81,-570.38 169.59,-534.01"/>
<polygon fill="midnightblue" stroke="midnightblue" points="173.09,-533.96 169.94,-523.85 166.1,-533.72 173.09,-533.96"/>
</g>
<!-- Node29&#45;&gt;Node5 -->
<g id="edge60" class="edge">
<title>Node29&#45;&gt;Node5</title>
<path fill="none" stroke="midnightblue" d="M274.24,-739.29C262.48,-730.43 249.14,-717.89 242.5,-703 198.3,-603.95 237.5,-567.47 237.5,-459 237.5,-459 237.5,-459 237.5,-401 237.5,-368.58 230.2,-331.42 225.17,-309.64"/>
<polygon fill="midnightblue" stroke="midnightblue" points="228.53,-308.67 222.79,-299.77 221.73,-310.31 228.53,-308.67"/>
</g>
<!-- Node29&#45;&gt;Node7 -->
<g id="edge61" class="edge">
<title>Node29&#45;&gt;Node7</title>
<path fill="none" stroke="midnightblue" d="M236.52,-739.45C213.96,-731.74 189.44,-720.14 171.5,-703 140.01,-672.92 124.11,-622.49 117.46,-595.27"/>
<polygon fill="midnightblue" stroke="midnightblue" points="120.79,-594.13 115.15,-585.16 113.96,-595.69 120.79,-594.13"/>
</g>
<!-- Node29&#45;&gt;Node9 -->
<g id="edge59" class="edge">
<title>Node29&#45;&gt;Node9</title>
<path fill="none" stroke="midnightblue" d="M373.65,-749.31C442.6,-743.76 536.25,-731.14 559.5,-703 646.71,-597.45 489.5,-539.91 489.5,-403 489.5,-403 489.5,-403 489.5,-121 489.5,-53.56 571.19,-27.44 636.99,-17.34"/>
<polygon fill="midnightblue" stroke="midnightblue" points="637.58,-20.79 646.98,-15.91 636.59,-13.86 637.58,-20.79"/>
</g>
<!-- Node30 -->
<g id="node30" class="node">
<title>Node30</title>
<g id="a_node30"><a xlink:title=" ">
<polygon fill="white" stroke="#bfbfbf" points="251.5,-683.5 251.5,-702.5 341.5,-702.5 341.5,-683.5 251.5,-683.5"/>
<text text-anchor="middle" x="296.5" y="-690.5" font-family="Helvetica,sans-Serif" font-size="10.00">AH/STL/cstddef</text>
</a>
</g>
</g>
<!-- Node29&#45;&gt;Node30 -->
<g id="edge56" class="edge">
<title>Node29&#45;&gt;Node30</title>
<path fill="none" stroke="midnightblue" d="M296.5,-739.4C296.5,-731.47 296.5,-721.46 296.5,-712.86"/>
<polygon fill="midnightblue" stroke="midnightblue" points="300,-712.66 296.5,-702.66 293,-712.66 300,-712.66"/>
</g>
<!-- Node31 -->
<g id="node31" class="node">
<title>Node31</title>
<g id="a_node31"><a xlink:title=" ">
<polygon fill="white" stroke="#bfbfbf" points="360,-683.5 360,-702.5 447,-702.5 447,-683.5 360,-683.5"/>
<text text-anchor="middle" x="403.5" y="-690.5" font-family="Helvetica,sans-Serif" font-size="10.00">AH/STL/cstdint</text>
</a>
</g>
</g>
<!-- Node29&#45;&gt;Node31 -->
<g id="edge57" class="edge">
<title>Node29&#45;&gt;Node31</title>
<path fill="none" stroke="midnightblue" d="M321.86,-739.4C339.17,-729.77 361.98,-717.09 379.08,-707.58"/>
<polygon fill="midnightblue" stroke="midnightblue" points="380.89,-710.58 387.93,-702.66 377.49,-704.46 380.89,-710.58"/>
</g>
<!-- Node32 -->
<g id="node32" class="node">
<title>Node32</title>
<g id="a_node32"><a xlink:title=" ">
<polygon fill="white" stroke="#bfbfbf" points="465,-683.5 465,-702.5 550,-702.5 550,-683.5 465,-683.5"/>
<text text-anchor="middle" x="507.5" y="-690.5" font-family="Helvetica,sans-Serif" font-size="10.00">AH/STL/vector</text>
</a>
</g>
</g>
<!-- Node29&#45;&gt;Node32 -->
<g id="edge58" class="edge">
<title>Node29&#45;&gt;Node32</title>
<path fill="none" stroke="midnightblue" d="M346.24,-739.47C383.27,-729.03 433.18,-714.96 467.62,-705.25"/>
<polygon fill="midnightblue" stroke="midnightblue" points="468.66,-708.59 477.33,-702.51 466.76,-701.85 468.66,-708.59"/>
</g>
<!-- Node33&#45;&gt;Node10 -->
<g id="edge72" class="edge">
<title>Node33&#45;&gt;Node10</title>
<path fill="none" stroke="midnightblue" d="M849.09,-744.89C843.98,-725.8 832.5,-678.44 832.5,-638 832.5,-638 832.5,-638 832.5,-574.5 832.5,-536.72 809.38,-497.45 794.27,-475.83"/>
<polygon fill="midnightblue" stroke="midnightblue" points="797.08,-473.74 788.38,-467.7 791.41,-477.85 797.08,-473.74"/>
</g>
<!-- Node33&#45;&gt;Node11 -->
<g id="edge71" class="edge">
<title>Node33&#45;&gt;Node11</title>
<path fill="none" stroke="midnightblue" d="M853.91,-744.89C859.02,-725.8 870.5,-678.44 870.5,-638 870.5,-638 870.5,-638 870.5,-513 870.5,-480.76 875.66,-443.51 879.21,-421.68"/>
<polygon fill="midnightblue" stroke="midnightblue" points="882.71,-421.97 880.93,-411.52 875.81,-420.8 882.71,-421.97"/>
</g>
<!-- Node34 -->
<g id="node34" class="node">
<title>Node34</title>
<g id="a_node34"><a xlink:href="../../de/dd1/LinkedList_8hpp.html" target="_top" xlink:title=" ">
<polygon fill="white" stroke="black" points="898,-448.5 898,-467.5 1057,-467.5 1057,-448.5 898,-448.5"/>
<text text-anchor="middle" x="977.5" y="-455.5" font-family="Helvetica,sans-Serif" font-size="10.00">AH/Containers/LinkedList.hpp</text>
</a>
</g>
</g>
<!-- Node33&#45;&gt;Node34 -->
<g id="edge65" class="edge">
<title>Node33&#45;&gt;Node34</title>
<path fill="none" stroke="midnightblue" d="M899.1,-745.88C985.78,-730.65 1160.5,-693.12 1160.5,-638 1160.5,-638 1160.5,-638 1160.5,-574.5 1160.5,-514.2 1088.56,-484.11 1034.89,-470.05"/>
<polygon fill="midnightblue" stroke="midnightblue" points="1035.65,-466.63 1025.1,-467.61 1033.96,-473.43 1035.65,-466.63"/>
</g>
<!-- Node36 -->
<g id="node36" class="node">
<title>Node36</title>
<g id="a_node36"><a xlink:href="../../d9/d46/Selectable_8hpp.html" target="_top" xlink:title=" ">
<polygon fill="white" stroke="black" points="667,-683.5 667,-702.5 804,-702.5 804,-683.5 667,-683.5"/>
<text text-anchor="middle" x="735.5" y="-690.5" font-family="Helvetica,sans-Serif" font-size="10.00">Selectors/Selectable.hpp</text>
</a>
</g>
</g>
<!-- Node33&#45;&gt;Node36 -->
<g id="edge73" class="edge">
<title>Node33&#45;&gt;Node36</title>
<path fill="none" stroke="midnightblue" d="M834.88,-744.98C815.58,-735.08 783.54,-718.64 761.07,-707.12"/>
<polygon fill="midnightblue" stroke="midnightblue" points="762.58,-703.96 752.09,-702.51 759.39,-710.19 762.58,-703.96"/>
</g>
<!-- Node34&#45;&gt;Node9 -->
<g id="edge66" class="edge">
<title>Node34&#45;&gt;Node9</title>
<path fill="none" stroke="midnightblue" d="M941.26,-448.48C907.76,-440.26 856.77,-426.91 813.5,-412 782.99,-401.49 703.79,-377.25 679.5,-356 654.32,-333.96 641.5,-324.46 641.5,-291 641.5,-291 641.5,-291 641.5,-121 641.5,-80.93 676.21,-45.08 699.03,-25.84"/>
<polygon fill="midnightblue" stroke="midnightblue" points="701.24,-28.55 706.81,-19.53 696.83,-23.11 701.24,-28.55"/>
</g>
<!-- Node34&#45;&gt;Node11 -->
<g id="edge67" class="edge">
<title>Node34&#45;&gt;Node11</title>
<path fill="none" stroke="midnightblue" d="M962.24,-448.32C947.28,-439.82 924.25,-426.73 906.77,-416.8"/>
<polygon fill="midnightblue" stroke="midnightblue" points="908.15,-413.55 897.73,-411.65 904.69,-419.64 908.15,-413.55"/>
</g>
<!-- Node34&#45;&gt;Node15 -->
<g id="edge68" class="edge">
<title>Node34&#45;&gt;Node15</title>
<path fill="none" stroke="midnightblue" d="M978.95,-448.09C981.34,-435.08 986.94,-410.44 997.5,-392 1011.86,-366.93 1047,-359.72 1030.5,-336 1004.24,-298.25 964.32,-334.13 933.5,-300 893.25,-255.42 878.54,-222.17 904.5,-168 910.75,-154.95 922.84,-144.49 934.18,-136.95"/>
<polygon fill="midnightblue" stroke="midnightblue" points="936.31,-139.75 943,-131.54 932.65,-133.79 936.31,-139.75"/>
</g>
<!-- Node34&#45;&gt;Node27 -->
<g id="edge70" class="edge">
<title>Node34&#45;&gt;Node27</title>
<path fill="none" stroke="midnightblue" d="M929.81,-448.44C875.85,-438.76 788.14,-423.03 731.39,-412.85"/>
<polygon fill="midnightblue" stroke="midnightblue" points="731.97,-409.4 721.51,-411.08 730.74,-416.29 731.97,-409.4"/>
</g>
<!-- Node35 -->
<g id="node35" class="node">
<title>Node35</title>
<g id="a_node35"><a xlink:title=" ">
<polygon fill="white" stroke="#bfbfbf" points="1006,-392.5 1006,-411.5 1059,-411.5 1059,-392.5 1006,-392.5"/>
<text text-anchor="middle" x="1032.5" y="-399.5" font-family="Helvetica,sans-Serif" font-size="10.00">stdlib.h</text>
</a>
</g>
</g>
<!-- Node34&#45;&gt;Node35 -->
<g id="edge69" class="edge">
<title>Node34&#45;&gt;Node35</title>
<path fill="none" stroke="midnightblue" d="M986.58,-448.08C994.67,-440.14 1006.7,-428.34 1016.41,-418.8"/>
<polygon fill="midnightblue" stroke="midnightblue" points="1018.9,-421.25 1023.59,-411.75 1014,-416.26 1018.9,-421.25"/>
</g>
<!-- Node36&#45;&gt;Node3 -->
<g id="edge76" class="edge">
<title>Node36&#45;&gt;Node3</title>
<path fill="none" stroke="midnightblue" d="M672.44,-683.44C592.42,-672.59 456.24,-654.11 384.66,-644.4"/>
<polygon fill="midnightblue" stroke="midnightblue" points="384.96,-640.91 374.58,-643.03 384.02,-647.84 384.96,-640.91"/>
</g>
<!-- Node36&#45;&gt;Node6 -->
<g id="edge77" class="edge">
<title>Node36&#45;&gt;Node6</title>
<path fill="none" stroke="midnightblue" d="M666.74,-690.64C589.95,-685.33 467.06,-664.85 395.5,-591 371.19,-565.92 375.5,-549.93 375.5,-515 375.5,-515 375.5,-515 375.5,-345 375.5,-312.49 367.34,-275.35 361.72,-253.61"/>
<polygon fill="midnightblue" stroke="midnightblue" points="365.04,-252.5 359.06,-243.75 358.28,-254.32 365.04,-252.5"/>
</g>
<!-- Node36&#45;&gt;Node10 -->
<g id="edge74" class="edge">
<title>Node36&#45;&gt;Node10</title>
<path fill="none" stroke="midnightblue" d="M737.19,-683.43C743.85,-649.68 768.38,-525.47 777.79,-477.8"/>
<polygon fill="midnightblue" stroke="midnightblue" points="781.24,-478.38 779.74,-467.9 774.37,-477.03 781.24,-478.38"/>
</g>
<!-- Node36&#45;&gt;Node18 -->
<g id="edge75" class="edge">
<title>Node36&#45;&gt;Node18</title>
<path fill="none" stroke="midnightblue" d="M804.24,-685.69C915.45,-673.55 1122.5,-642.15 1122.5,-576.5 1122.5,-576.5 1122.5,-576.5 1122.5,-513 1122.5,-427.39 1098.73,-403.83 1046.5,-336 1030.66,-315.43 1015.85,-320.93 1000.5,-300 984.78,-278.56 984.24,-270.15 979.5,-244 977.91,-235.25 974.39,-231.27 979.5,-224 1006.66,-185.35 1046.66,-221.95 1079.5,-188 1091.47,-175.63 1096.62,-156.38 1098.83,-142.04"/>
<polygon fill="midnightblue" stroke="midnightblue" points="1102.34,-142.16 1100.05,-131.81 1095.39,-141.33 1102.34,-142.16"/>
</g>
<!-- Node37&#45;&gt;Node9 -->
<g id="edge79" class="edge">
<title>Node37&#45;&gt;Node9</title>
<path fill="none" stroke="midnightblue" d="M1450.14,-504.44C1480.79,-488.93 1538.5,-453.09 1538.5,-403 1538.5,-403 1538.5,-403 1538.5,-121 1538.5,-51.59 1463.79,-73.02 1396.5,-56 1285.96,-28.04 955.77,-16.65 800.68,-12.74"/>
<polygon fill="midnightblue" stroke="midnightblue" points="800.35,-9.23 790.27,-12.49 800.18,-16.23 800.35,-9.23"/>
</g>
<!-- Node37&#45;&gt;Node10 -->
<g id="edge83" class="edge">
<title>Node37&#45;&gt;Node10</title>
<path fill="none" stroke="midnightblue" d="M1350.69,-506.3C1244.78,-497.51 1053.23,-481.62 889.5,-468 874.72,-466.77 858.81,-465.45 843.86,-464.2"/>
<polygon fill="midnightblue" stroke="midnightblue" points="843.94,-460.69 833.69,-463.35 843.36,-467.67 843.94,-460.69"/>
</g>
<!-- Node37&#45;&gt;Node18 -->
<g id="edge84" class="edge">
<title>Node37&#45;&gt;Node18</title>
<path fill="none" stroke="midnightblue" d="M1441.68,-504.46C1460.87,-487.35 1500.5,-446.73 1500.5,-403 1500.5,-403 1500.5,-403 1500.5,-233 1500.5,-202.2 1500.72,-187.02 1476.5,-168 1423.64,-126.48 1247.82,-139.75 1164.08,-131.86"/>
<polygon fill="midnightblue" stroke="midnightblue" points="1164.43,-128.38 1154.1,-130.76 1163.66,-135.34 1164.43,-128.38"/>
</g>
<!-- Node37&#45;&gt;Node19 -->
<g id="edge86" class="edge">
<title>Node37&#45;&gt;Node19</title>
<path fill="none" stroke="midnightblue" d="M1425.42,-504.08C1407.41,-477.61 1354.04,-399.21 1330.22,-364.21"/>
<polygon fill="midnightblue" stroke="midnightblue" points="1332.85,-361.87 1324.33,-355.57 1327.07,-365.8 1332.85,-361.87"/>
</g>
<!-- Node37&#45;&gt;Node24 -->
<g id="edge87" class="edge">
<title>Node37&#45;&gt;Node24</title>
<path fill="none" stroke="midnightblue" d="M1420.95,-504.26C1387.26,-476.66 1278.47,-389.96 1177.5,-336 1138.78,-315.3 1122.6,-323.48 1085.5,-300 1064.11,-286.46 1043.52,-265.73 1030.48,-251.33"/>
<polygon fill="midnightblue" stroke="midnightblue" points="1032.98,-248.87 1023.73,-243.69 1027.73,-253.5 1032.98,-248.87"/>
</g>
<!-- Node37&#45;&gt;Node34 -->
<g id="edge81" class="edge">
<title>Node37&#45;&gt;Node34</title>
<path fill="none" stroke="midnightblue" d="M1359.81,-504.47C1278.09,-494.75 1144.78,-478.9 1059.13,-468.71"/>
<polygon fill="midnightblue" stroke="midnightblue" points="1059.53,-465.23 1049.19,-467.53 1058.7,-472.18 1059.53,-465.23"/>
</g>
<!-- Node38 -->
<g id="node38" class="node">
<title>Node38</title>
<g id="a_node38"><a xlink:href="../../d4/dba/CRTP_8hpp.html" target="_top" xlink:title=" ">
<polygon fill="white" stroke="black" points="1566.5,-448.5 1566.5,-467.5 1700.5,-467.5 1700.5,-448.5 1566.5,-448.5"/>
<text text-anchor="middle" x="1633.5" y="-455.5" font-family="Helvetica,sans-Serif" font-size="10.00">AH/Containers/CRTP.hpp</text>
</a>
</g>
</g>
<!-- Node37&#45;&gt;Node38 -->
<g id="edge80" class="edge">
<title>Node37&#45;&gt;Node38</title>
<path fill="none" stroke="midnightblue" d="M1463.51,-504.44C1498.23,-495.16 1553.79,-480.31 1591.88,-470.13"/>
<polygon fill="midnightblue" stroke="midnightblue" points="1592.89,-473.48 1601.64,-467.52 1591.08,-466.72 1592.89,-473.48"/>
</g>
<!-- Node39 -->
<g id="node39" class="node">
<title>Node39</title>
<g id="a_node39"><a xlink:href="../../d4/d84/Mutex_8hpp.html" target="_top" xlink:title=" ">
<polygon fill="white" stroke="black" points="1719,-448.5 1719,-467.5 1860,-467.5 1860,-448.5 1719,-448.5"/>
<text text-anchor="middle" x="1789.5" y="-455.5" font-family="Helvetica,sans-Serif" font-size="10.00">AH/Containers/Mutex.hpp</text>
</a>
</g>
</g>
<!-- Node37&#45;&gt;Node39 -->
<g id="edge82" class="edge">
<title>Node37&#45;&gt;Node39</title>
<path fill="none" stroke="midnightblue" d="M1488.23,-504.44C1551.99,-494.83 1655.4,-479.23 1722.93,-469.04"/>
<polygon fill="midnightblue" stroke="midnightblue" points="1723.67,-472.47 1733.04,-467.52 1722.63,-465.55 1723.67,-472.47"/>
</g>
<!-- Node40 -->
<g id="node40" class="node">
<title>Node40</title>
<g id="a_node40"><a xlink:title=" ">
<polygon fill="white" stroke="#bfbfbf" points="1878,-448.5 1878,-467.5 1961,-467.5 1961,-448.5 1878,-448.5"/>
<text text-anchor="middle" x="1919.5" y="-455.5" font-family="Helvetica,sans-Serif" font-size="10.00">AH/STL/utility</text>
</a>
</g>
</g>
<!-- Node37&#45;&gt;Node40 -->
<g id="edge85" class="edge">
<title>Node37&#45;&gt;Node40</title>
<path fill="none" stroke="midnightblue" d="M1512.05,-506.57C1597.85,-499.29 1737.85,-486.23 1867.67,-468.17"/>
<polygon fill="midnightblue" stroke="midnightblue" points="1868.38,-471.61 1877.8,-466.75 1867.41,-464.68 1868.38,-471.61"/>
</g>
</g>
</svg>
