<?xml version="1.0" encoding="UTF-8" standalone="no"?>
<!DOCTYPE svg PUBLIC "-//W3C//DTD SVG 1.1//EN"
 "http://www.w3.org/Graphics/SVG/1.1/DTD/svg11.dtd">
<!-- Generated by graphviz version 2.43.0 (0)
 -->
<!-- Title: SwitchSelector Pages: 1 -->
<svg width="400pt" height="1198pt"
 viewBox="0.00 0.00 399.50 1198.00" xmlns="http://www.w3.org/2000/svg" xmlns:xlink="http://www.w3.org/1999/xlink">
<g id="graph0" class="graph" transform="scale(1 1) rotate(0) translate(4 1194)">
<title>SwitchSelector</title>
<polygon fill="white" stroke="transparent" points="-4,4 -4,-1194 395.5,-1194 395.5,4 -4,4"/>
<!-- Node1 -->
<g id="node1" class="node">
<title>Node1</title>
<g id="a_node1"><a xlink:title="Selector that selects one of two settings, based on the state of a toggle or momentary switch.">
<polygon fill="#bfbfbf" stroke="black" points="189,-0.5 189,-57.5 296,-57.5 296,-0.5 189,-0.5"/>
<text text-anchor="middle" x="242.5" y="-45.5" font-family="Helvetica,sans-Serif" font-size="10.00">SwitchSelector</text>
<polyline fill="none" stroke="black" points="189,-38.5 296,-38.5 "/>
<text text-anchor="middle" x="242.5" y="-26.5" font-family="Helvetica,sans-Serif" font-size="10.00"> </text>
<polyline fill="none" stroke="black" points="189,-19.5 296,-19.5 "/>
<text text-anchor="start" x="197" y="-7.5" font-family="Helvetica,sans-Serif" font-size="10.00">+ SwitchSelector()</text>
</a>
</g>
</g>
<!-- Node2 -->
<g id="node2" class="node">
<title>Node2</title>
<g id="a_node2"><a xlink:href="../../d2/d1c/classGenericSwitchSelector.html" target="_top" xlink:title=" ">
<polygon fill="white" stroke="black" points="170,-95.5 170,-196.5 315,-196.5 315,-95.5 170,-95.5"/>
<text text-anchor="middle" x="242.5" y="-184.5" font-family="Helvetica,sans-Serif" font-size="10.00">GenericSwitchSelector&lt;&gt;</text>
<polyline fill="none" stroke="black" points="170,-177.5 315,-177.5 "/>
<text text-anchor="middle" x="242.5" y="-165.5" font-family="Helvetica,sans-Serif" font-size="10.00"> </text>
<polyline fill="none" stroke="black" points="170,-158.5 315,-158.5 "/>
<text text-anchor="start" x="178" y="-146.5" font-family="Helvetica,sans-Serif" font-size="10.00">+ GenericSwitchSelector()</text>
<text text-anchor="start" x="178" y="-135.5" font-family="Helvetica,sans-Serif" font-size="10.00">+ begin()</text>
<text text-anchor="start" x="178" y="-124.5" font-family="Helvetica,sans-Serif" font-size="10.00">+ update()</text>
<text text-anchor="start" x="178" y="-113.5" font-family="Helvetica,sans-Serif" font-size="10.00">+ getButtonState()</text>
<text text-anchor="start" x="178" y="-102.5" font-family="Helvetica,sans-Serif" font-size="10.00">+ invert()</text>
</a>
</g>
</g>
<!-- Node2&#45;&gt;Node1 -->
<g id="edge1" class="edge">
<title>Node2&#45;&gt;Node1</title>
<path fill="none" stroke="midnightblue" d="M242.5,-85.22C242.5,-75.59 242.5,-66.06 242.5,-57.68"/>
<polygon fill="none" stroke="midnightblue" points="239,-85.23 242.5,-95.23 246,-85.23 239,-85.23"/>
</g>
<!-- Node3 -->
<g id="node3" class="node">
<title>Node3</title>
<g id="a_node3"><a xlink:href="../../d0/d04/classGenericSelector.html" target="_top" xlink:title=" ">
<polygon fill="white" stroke="black" points="91.5,-294 91.5,-428 235.5,-428 235.5,-294 91.5,-294"/>
<text text-anchor="start" x="99.5" y="-416" font-family="Helvetica,sans-Serif" font-size="10.00">GenericSelector&lt; 2,</text>
<text text-anchor="middle" x="163.5" y="-405" font-family="Helvetica,sans-Serif" font-size="10.00"> EmptySelectorCallback &gt;</text>
<polyline fill="none" stroke="black" points="91.5,-398 235.5,-398 "/>
<text text-anchor="start" x="99.5" y="-386" font-family="Helvetica,sans-Serif" font-size="10.00">&#45; selectable</text>
<polyline fill="none" stroke="black" points="91.5,-379 235.5,-379 "/>
<text text-anchor="start" x="99.5" y="-367" font-family="Helvetica,sans-Serif" font-size="10.00">+ GenericSelector()</text>
<text text-anchor="start" x="99.5" y="-356" font-family="Helvetica,sans-Serif" font-size="10.00">+ begin()</text>
<text text-anchor="start" x="99.5" y="-345" font-family="Helvetica,sans-Serif" font-size="10.00">+ update()</text>
<text text-anchor="start" x="99.5" y="-334" font-family="Helvetica,sans-Serif" font-size="10.00">+ reset()</text>
<text text-anchor="start" x="99.5" y="-323" font-family="Helvetica,sans-Serif" font-size="10.00">+ set()</text>
<text text-anchor="start" x="99.5" y="-312" font-family="Helvetica,sans-Serif" font-size="10.00">+ increment()</text>
<text text-anchor="start" x="99.5" y="-301" font-family="Helvetica,sans-Serif" font-size="10.00">+ decrement()</text>
</a>
</g>
</g>
<!-- Node3&#45;&gt;Node2 -->
<g id="edge2" class="edge">
<title>Node3&#45;&gt;Node2</title>
<path fill="none" stroke="midnightblue" d="M191.67,-284.05C202.45,-254.98 214.46,-222.59 224.1,-196.6"/>
<polygon fill="none" stroke="midnightblue" points="188.26,-283.18 188.06,-293.77 194.82,-285.61 188.26,-283.18"/>
</g>
<!-- Node4 -->
<g id="node4" class="node">
<title>Node4</title>
<g id="a_node4"><a xlink:href="../../dc/d77/classSelectorBase.html" target="_top" xlink:title="Base class for all Selectors exposing the get method, so it can be used by display elements etc,...">
<polygon fill="white" stroke="black" points="5,-536.5 5,-604.5 104,-604.5 104,-536.5 5,-536.5"/>
<text text-anchor="middle" x="54.5" y="-592.5" font-family="Helvetica,sans-Serif" font-size="10.00">SelectorBase</text>
<polyline fill="none" stroke="black" points="5,-585.5 104,-585.5 "/>
<text text-anchor="start" x="13" y="-573.5" font-family="Helvetica,sans-Serif" font-size="10.00"># setting</text>
<polyline fill="none" stroke="black" points="5,-566.5 104,-566.5 "/>
<text text-anchor="start" x="13" y="-554.5" font-family="Helvetica,sans-Serif" font-size="10.00">+ get()</text>
<text text-anchor="start" x="13" y="-543.5" font-family="Helvetica,sans-Serif" font-size="10.00"># SelectorBase()</text>
</a>
</g>
</g>
<!-- Node4&#45;&gt;Node3 -->
<g id="edge3" class="edge">
<title>Node4&#45;&gt;Node3</title>
<path fill="none" stroke="midnightblue" d="M76.67,-527.29C91.6,-498.87 111.6,-460.8 128.64,-428.36"/>
<polygon fill="none" stroke="midnightblue" points="73.56,-525.68 72.01,-536.16 79.76,-528.94 73.56,-525.68"/>
</g>
<!-- Node5 -->
<g id="node5" class="node">
<title>Node5</title>
<g id="a_node5"><a xlink:href="../../d1/d55/classAH_1_1Updatable.html" target="_top" xlink:title=" ">
<polygon fill="white" stroke="black" points="122,-525.5 122,-615.5 205,-615.5 205,-525.5 122,-525.5"/>
<text text-anchor="middle" x="163.5" y="-603.5" font-family="Helvetica,sans-Serif" font-size="10.00">Updatable&lt;&gt;</text>
<polyline fill="none" stroke="black" points="122,-596.5 205,-596.5 "/>
<text text-anchor="middle" x="163.5" y="-584.5" font-family="Helvetica,sans-Serif" font-size="10.00"> </text>
<polyline fill="none" stroke="black" points="122,-577.5 205,-577.5 "/>
<text text-anchor="start" x="130" y="-565.5" font-family="Helvetica,sans-Serif" font-size="10.00">* begin()</text>
<text text-anchor="start" x="130" y="-554.5" font-family="Helvetica,sans-Serif" font-size="10.00">* update()</text>
<text text-anchor="start" x="130" y="-543.5" font-family="Helvetica,sans-Serif" font-size="10.00">* beginAll()</text>
<text text-anchor="start" x="130" y="-532.5" font-family="Helvetica,sans-Serif" font-size="10.00">* updateAll()</text>
</a>
</g>
</g>
<!-- Node5&#45;&gt;Node3 -->
<g id="edge4" class="edge">
<title>Node5&#45;&gt;Node3</title>
<path fill="none" stroke="midnightblue" d="M163.5,-515.19C163.5,-488.51 163.5,-456.13 163.5,-428.03"/>
<polygon fill="none" stroke="midnightblue" points="160,-515.49 163.5,-525.49 167,-515.49 160,-515.49"/>
</g>
<!-- Node6 -->
<g id="node6" class="node">
<title>Node6</title>
<g id="a_node6"><a xlink:href="../../d8/d1a/classAH_1_1UpdatableCRTP.html" target="_top" xlink:title=" ">
<polygon fill="white" stroke="black" points="87,-653.5 87,-842.5 240,-842.5 240,-653.5 87,-653.5"/>
<text text-anchor="start" x="95" y="-830.5" font-family="Helvetica,sans-Serif" font-size="10.00">UpdatableCRTP&lt; Updatable</text>
<text text-anchor="middle" x="163.5" y="-819.5" font-family="Helvetica,sans-Serif" font-size="10.00">&lt; NormalUpdatable &gt; &gt;</text>
<polyline fill="none" stroke="black" points="87,-812.5 240,-812.5 "/>
<text text-anchor="middle" x="163.5" y="-800.5" font-family="Helvetica,sans-Serif" font-size="10.00"> </text>
<polyline fill="none" stroke="black" points="87,-793.5 240,-793.5 "/>
<text text-anchor="start" x="95" y="-781.5" font-family="Helvetica,sans-Serif" font-size="10.00">+ ~UpdatableCRTP()</text>
<text text-anchor="start" x="95" y="-770.5" font-family="Helvetica,sans-Serif" font-size="10.00"># UpdatableCRTP()</text>
<text text-anchor="start" x="95" y="-759.5" font-family="Helvetica,sans-Serif" font-size="10.00">* enable()</text>
<text text-anchor="start" x="95" y="-748.5" font-family="Helvetica,sans-Serif" font-size="10.00">* disable()</text>
<text text-anchor="start" x="95" y="-737.5" font-family="Helvetica,sans-Serif" font-size="10.00">* isEnabled()</text>
<text text-anchor="start" x="95" y="-726.5" font-family="Helvetica,sans-Serif" font-size="10.00">* enable()</text>
<text text-anchor="start" x="95" y="-715.5" font-family="Helvetica,sans-Serif" font-size="10.00">* enable()</text>
<text text-anchor="start" x="95" y="-704.5" font-family="Helvetica,sans-Serif" font-size="10.00">* enable()</text>
<text text-anchor="start" x="95" y="-693.5" font-family="Helvetica,sans-Serif" font-size="10.00">* disable()</text>
<text text-anchor="start" x="95" y="-682.5" font-family="Helvetica,sans-Serif" font-size="10.00">* disable()</text>
<text text-anchor="start" x="95" y="-671.5" font-family="Helvetica,sans-Serif" font-size="10.00">* disable()</text>
<text text-anchor="start" x="95" y="-660.5" font-family="Helvetica,sans-Serif" font-size="10.00">* applyToAll()</text>
</a>
</g>
</g>
<!-- Node6&#45;&gt;Node5 -->
<g id="edge5" class="edge">
<title>Node6&#45;&gt;Node5</title>
<path fill="none" stroke="midnightblue" d="M163.5,-643.29C163.5,-633.71 163.5,-624.4 163.5,-615.83"/>
<polygon fill="none" stroke="midnightblue" points="160,-643.34 163.5,-653.34 167,-643.34 160,-643.34"/>
</g>
<!-- Node7 -->
<g id="node7" class="node">
<title>Node7</title>
<g id="a_node7"><a xlink:href="../../d4/d23/classDoublyLinkable.html" target="_top" xlink:title=" ">
<polygon fill="white" stroke="black" points="0,-1000.5 0,-1079.5 153,-1079.5 153,-1000.5 0,-1000.5"/>
<text text-anchor="start" x="8" y="-1067.5" font-family="Helvetica,sans-Serif" font-size="10.00">DoublyLinkable&lt; Updatable</text>
<text text-anchor="middle" x="76.5" y="-1056.5" font-family="Helvetica,sans-Serif" font-size="10.00">&lt; NormalUpdatable &gt; &gt;</text>
<polyline fill="none" stroke="black" points="0,-1049.5 153,-1049.5 "/>
<text text-anchor="start" x="8" y="-1037.5" font-family="Helvetica,sans-Serif" font-size="10.00"># next</text>
<text text-anchor="start" x="8" y="-1026.5" font-family="Helvetica,sans-Serif" font-size="10.00"># previous</text>
<polyline fill="none" stroke="black" points="0,-1019.5 153,-1019.5 "/>
<text text-anchor="start" x="8" y="-1007.5" font-family="Helvetica,sans-Serif" font-size="10.00"># ~DoublyLinkable()</text>
</a>
</g>
</g>
<!-- Node7&#45;&gt;Node6 -->
<g id="edge6" class="edge">
<title>Node7&#45;&gt;Node6</title>
<path fill="none" stroke="midnightblue" d="M91,-990.68C103.06,-950.46 120.59,-892.02 135.39,-842.69"/>
<polygon fill="none" stroke="midnightblue" points="87.57,-989.91 88.05,-1000.49 94.28,-991.92 87.57,-989.91"/>
</g>
<!-- Node8 -->
<g id="node8" class="node">
<title>Node8</title>
<g id="a_node8"><a xlink:href="../../dd/d16/classDoublyLinkedList.html" target="_top" xlink:title=" ">
<polygon fill="white" stroke="black" points="171,-890.5 171,-1189.5 332,-1189.5 332,-890.5 171,-890.5"/>
<text text-anchor="start" x="179" y="-1177.5" font-family="Helvetica,sans-Serif" font-size="10.00">DoublyLinkedList&lt; Updatable</text>
<text text-anchor="middle" x="251.5" y="-1166.5" font-family="Helvetica,sans-Serif" font-size="10.00">&lt; NormalUpdatable &gt; &gt;</text>
<polyline fill="none" stroke="black" points="171,-1159.5 332,-1159.5 "/>
<text text-anchor="start" x="179" y="-1147.5" font-family="Helvetica,sans-Serif" font-size="10.00">&#45; first</text>
<text text-anchor="start" x="179" y="-1136.5" font-family="Helvetica,sans-Serif" font-size="10.00">&#45; last</text>
<polyline fill="none" stroke="black" points="171,-1129.5 332,-1129.5 "/>
<text text-anchor="start" x="179" y="-1117.5" font-family="Helvetica,sans-Serif" font-size="10.00">+ append()</text>
<text text-anchor="start" x="179" y="-1106.5" font-family="Helvetica,sans-Serif" font-size="10.00">+ append()</text>
<text text-anchor="start" x="179" y="-1095.5" font-family="Helvetica,sans-Serif" font-size="10.00">+ insertBefore()</text>
<text text-anchor="start" x="179" y="-1084.5" font-family="Helvetica,sans-Serif" font-size="10.00">+ insertBefore()</text>
<text text-anchor="start" x="179" y="-1073.5" font-family="Helvetica,sans-Serif" font-size="10.00">+ insertSorted()</text>
<text text-anchor="start" x="179" y="-1062.5" font-family="Helvetica,sans-Serif" font-size="10.00">+ insertSorted()</text>
<text text-anchor="start" x="179" y="-1051.5" font-family="Helvetica,sans-Serif" font-size="10.00">+ remove()</text>
<text text-anchor="start" x="179" y="-1040.5" font-family="Helvetica,sans-Serif" font-size="10.00">+ remove()</text>
<text text-anchor="start" x="179" y="-1029.5" font-family="Helvetica,sans-Serif" font-size="10.00">+ moveDown()</text>
<text text-anchor="start" x="179" y="-1018.5" font-family="Helvetica,sans-Serif" font-size="10.00">+ couldContain()</text>
<text text-anchor="start" x="179" y="-1007.5" font-family="Helvetica,sans-Serif" font-size="10.00">+ couldContain()</text>
<text text-anchor="start" x="179" y="-996.5" font-family="Helvetica,sans-Serif" font-size="10.00">+ begin()</text>
<text text-anchor="start" x="179" y="-985.5" font-family="Helvetica,sans-Serif" font-size="10.00">+ begin()</text>
<text text-anchor="start" x="179" y="-974.5" font-family="Helvetica,sans-Serif" font-size="10.00">+ end()</text>
<text text-anchor="start" x="179" y="-963.5" font-family="Helvetica,sans-Serif" font-size="10.00">+ end()</text>
<text text-anchor="start" x="179" y="-952.5" font-family="Helvetica,sans-Serif" font-size="10.00">+ rbegin()</text>
<text text-anchor="start" x="179" y="-941.5" font-family="Helvetica,sans-Serif" font-size="10.00">+ rbegin()</text>
<text text-anchor="start" x="179" y="-930.5" font-family="Helvetica,sans-Serif" font-size="10.00">+ rend()</text>
<text text-anchor="start" x="179" y="-919.5" font-family="Helvetica,sans-Serif" font-size="10.00">+ rend()</text>
<text text-anchor="start" x="179" y="-908.5" font-family="Helvetica,sans-Serif" font-size="10.00">+ getFirst()</text>
<text text-anchor="start" x="179" y="-897.5" font-family="Helvetica,sans-Serif" font-size="10.00">+ getLast()</text>
</a>
</g>
</g>
<!-- Node8&#45;&gt;Node6 -->
<g id="edge7" class="edge">
<title>Node8&#45;&gt;Node6</title>
<path fill="none" stroke="#404040" d="M206.34,-890.18C202.67,-878.08 199.01,-866.01 195.46,-854.32"/>
<polygon fill="none" stroke="#404040" points="195.44,-854.25 189.87,-849.67 191.95,-842.77 197.52,-847.35 195.44,-854.25"/>
<text text-anchor="middle" x="233.5" y="-864" font-family="Helvetica,sans-Serif" font-size="10.00"> #updatables</text>
</g>
<!-- Node9 -->
<g id="node9" class="node">
<title>Node9</title>
<g id="a_node9"><a xlink:href="../../d3/d8b/structEmptySelectorCallback.html" target="_top" xlink:title="A callback for the GenericSelector class that does nothing.">
<polygon fill="white" stroke="black" points="223.5,-531 223.5,-610 353.5,-610 353.5,-531 223.5,-531"/>
<text text-anchor="middle" x="288.5" y="-598" font-family="Helvetica,sans-Serif" font-size="10.00">EmptySelectorCallback</text>
<polyline fill="none" stroke="black" points="223.5,-591 353.5,-591 "/>
<text text-anchor="middle" x="288.5" y="-579" font-family="Helvetica,sans-Serif" font-size="10.00"> </text>
<polyline fill="none" stroke="black" points="223.5,-572 353.5,-572 "/>
<text text-anchor="start" x="231.5" y="-560" font-family="Helvetica,sans-Serif" font-size="10.00">+ begin()</text>
<text text-anchor="start" x="231.5" y="-549" font-family="Helvetica,sans-Serif" font-size="10.00">+ update()</text>
<text text-anchor="start" x="231.5" y="-538" font-family="Helvetica,sans-Serif" font-size="10.00">+ update()</text>
</a>
</g>
</g>
<!-- Node9&#45;&gt;Node3 -->
<g id="edge8" class="edge">
<title>Node9&#45;&gt;Node3</title>
<path fill="none" stroke="#404040" d="M265.28,-530.96C249.68,-505.05 228.58,-470.03 209.64,-438.59"/>
<polygon fill="none" stroke="#404040" points="209.5,-438.36 202.98,-435.28 203.31,-428.08 209.83,-431.16 209.5,-438.36"/>
<text text-anchor="middle" x="274.5" y="-499" font-family="Helvetica,sans-Serif" font-size="10.00"> +callback</text>
</g>
<!-- Node10 -->
<g id="node10" class="node">
<title>Node10</title>
<g id="a_node10"><a xlink:href="../../de/d0d/classAH_1_1Button.html" target="_top" xlink:title="A class for reading and debouncing buttons and switches.">
<polygon fill="white" stroke="black" points="253.5,-244.5 253.5,-477.5 391.5,-477.5 391.5,-244.5 253.5,-244.5"/>
<text text-anchor="middle" x="322.5" y="-465.5" font-family="Helvetica,sans-Serif" font-size="10.00">Button</text>
<polyline fill="none" stroke="black" points="253.5,-458.5 391.5,-458.5 "/>
<text text-anchor="start" x="261.5" y="-446.5" font-family="Helvetica,sans-Serif" font-size="10.00">&#45; pin</text>
<text text-anchor="start" x="261.5" y="-435.5" font-family="Helvetica,sans-Serif" font-size="10.00">&#45; prevInput</text>
<text text-anchor="start" x="261.5" y="-424.5" font-family="Helvetica,sans-Serif" font-size="10.00">&#45; debouncedState</text>
<text text-anchor="start" x="261.5" y="-413.5" font-family="Helvetica,sans-Serif" font-size="10.00">&#45; prevBounceTime</text>
<text text-anchor="start" x="261.5" y="-402.5" font-family="Helvetica,sans-Serif" font-size="10.00">&#45; invertState</text>
<text text-anchor="start" x="261.5" y="-391.5" font-family="Helvetica,sans-Serif" font-size="10.00">&#45; debounceTime</text>
<polyline fill="none" stroke="black" points="253.5,-384.5 391.5,-384.5 "/>
<text text-anchor="start" x="261.5" y="-372.5" font-family="Helvetica,sans-Serif" font-size="10.00">+ Button()</text>
<text text-anchor="start" x="261.5" y="-361.5" font-family="Helvetica,sans-Serif" font-size="10.00">+ Button()</text>
<text text-anchor="start" x="261.5" y="-350.5" font-family="Helvetica,sans-Serif" font-size="10.00">+ begin()</text>
<text text-anchor="start" x="261.5" y="-339.5" font-family="Helvetica,sans-Serif" font-size="10.00">+ invert()</text>
<text text-anchor="start" x="261.5" y="-328.5" font-family="Helvetica,sans-Serif" font-size="10.00">+ update()</text>
<text text-anchor="start" x="261.5" y="-317.5" font-family="Helvetica,sans-Serif" font-size="10.00">+ getState()</text>
<text text-anchor="start" x="261.5" y="-306.5" font-family="Helvetica,sans-Serif" font-size="10.00">+ previousBounceTime()</text>
<text text-anchor="start" x="261.5" y="-295.5" font-family="Helvetica,sans-Serif" font-size="10.00">+ stableTime()</text>
<text text-anchor="start" x="261.5" y="-284.5" font-family="Helvetica,sans-Serif" font-size="10.00">+ stableTime()</text>
<text text-anchor="start" x="261.5" y="-273.5" font-family="Helvetica,sans-Serif" font-size="10.00">+ getName()</text>
<text text-anchor="start" x="261.5" y="-262.5" font-family="Helvetica,sans-Serif" font-size="10.00">+ setDebounceTime()</text>
<text text-anchor="start" x="261.5" y="-251.5" font-family="Helvetica,sans-Serif" font-size="10.00">+ getDebounceTime()</text>
</a>
</g>
</g>
<!-- Node10&#45;&gt;Node2 -->
<g id="edge9" class="edge">
<title>Node10&#45;&gt;Node2</title>
<path fill="none" stroke="#404040" d="M279.11,-244.46C274.37,-231.85 269.69,-219.4 265.35,-207.84"/>
<polygon fill="none" stroke="#404040" points="265.35,-207.83 259.49,-203.62 261.13,-196.6 266.98,-200.81 265.35,-207.83"/>
<text text-anchor="middle" x="291" y="-218" font-family="Helvetica,sans-Serif" font-size="10.00"> &#45;button</text>
</g>
</g>
</svg>
