<?xml version="1.0" encoding="UTF-8" standalone="no"?>
<!DOCTYPE svg PUBLIC "-//W3C//DTD SVG 1.1//EN"
 "http://www.w3.org/Graphics/SVG/1.1/DTD/svg11.dtd">
<!-- Generated by graphviz version 2.43.0 (0)
 -->
<!-- Title: TrueMIDI_SinkSource Pages: 1 -->
<svg width="762pt" height="1185pt"
 viewBox="0.00 0.00 762.00 1185.00" xmlns="http://www.w3.org/2000/svg" xmlns:xlink="http://www.w3.org/1999/xlink">
<g id="graph0" class="graph" transform="scale(1 1) rotate(0) translate(4 1181)">
<title>TrueMIDI_SinkSource</title>
<polygon fill="white" stroke="transparent" points="-4,4 -4,-1181 758,-1181 758,4 -4,4"/>
<!-- Node1 -->
<g id="node1" class="node">
<title>Node1</title>
<g id="a_node1"><a xlink:title="A struct that is both a TrueMIDI_Sink and a TrueMIDI_Source.">
<polygon fill="#bfbfbf" stroke="black" points="320,-0.5 320,-57.5 439,-57.5 439,-0.5 320,-0.5"/>
<text text-anchor="middle" x="379.5" y="-45.5" font-family="Helvetica,sans-Serif" font-size="10.00">TrueMIDI_SinkSource</text>
<polyline fill="none" stroke="black" points="320,-38.5 439,-38.5 "/>
<text text-anchor="middle" x="379.5" y="-26.5" font-family="Helvetica,sans-Serif" font-size="10.00"> </text>
<polyline fill="none" stroke="black" points="320,-19.5 439,-19.5 "/>
<text text-anchor="middle" x="379.5" y="-7.5" font-family="Helvetica,sans-Serif" font-size="10.00"> </text>
</a>
</g>
</g>
<!-- Node2 -->
<g id="node2" class="node">
<title>Node2</title>
<g id="a_node2"><a xlink:href="../../d9/db6/classMIDI__Sink.html" target="_top" xlink:title="Receives MIDI messages from a MIDI pipe.">
<polygon fill="white" stroke="black" points="0,-128.5 0,-394.5 181,-394.5 181,-128.5 0,-128.5"/>
<text text-anchor="middle" x="90.5" y="-382.5" font-family="Helvetica,sans-Serif" font-size="10.00">TrueMIDI_Sink</text>
<polyline fill="none" stroke="black" points="0,-375.5 181,-375.5 "/>
<text text-anchor="middle" x="90.5" y="-363.5" font-family="Helvetica,sans-Serif" font-size="10.00"> </text>
<polyline fill="none" stroke="black" points="0,-356.5 181,-356.5 "/>
<text text-anchor="start" x="8" y="-344.5" font-family="Helvetica,sans-Serif" font-size="10.00">+ MIDI_Sink()</text>
<text text-anchor="start" x="8" y="-333.5" font-family="Helvetica,sans-Serif" font-size="10.00">+ MIDI_Sink()</text>
<text text-anchor="start" x="8" y="-322.5" font-family="Helvetica,sans-Serif" font-size="10.00">+ operator=()</text>
<text text-anchor="start" x="8" y="-311.5" font-family="Helvetica,sans-Serif" font-size="10.00">+ MIDI_Sink()</text>
<text text-anchor="start" x="8" y="-300.5" font-family="Helvetica,sans-Serif" font-size="10.00">+ operator=()</text>
<text text-anchor="start" x="8" y="-289.5" font-family="Helvetica,sans-Serif" font-size="10.00">+ ~MIDI_Sink()</text>
<text text-anchor="start" x="8" y="-278.5" font-family="Helvetica,sans-Serif" font-size="10.00">+ swap()</text>
<text text-anchor="start" x="8" y="-267.5" font-family="Helvetica,sans-Serif" font-size="10.00">&#45; stallDownstream()</text>
<text text-anchor="start" x="8" y="-256.5" font-family="Helvetica,sans-Serif" font-size="10.00">&#45; unstallDownstream()</text>
<text text-anchor="start" x="8" y="-245.5" font-family="Helvetica,sans-Serif" font-size="10.00">&#45; getFinalSink()</text>
<text text-anchor="start" x="8" y="-234.5" font-family="Helvetica,sans-Serif" font-size="10.00">&#45; disconnectSourcePipesShallow()</text>
<text text-anchor="start" x="8" y="-223.5" font-family="Helvetica,sans-Serif" font-size="10.00">* sinkMIDIfromPipe()</text>
<text text-anchor="start" x="8" y="-212.5" font-family="Helvetica,sans-Serif" font-size="10.00">* sinkMIDIfromPipe()</text>
<text text-anchor="start" x="8" y="-201.5" font-family="Helvetica,sans-Serif" font-size="10.00">* sinkMIDIfromPipe()</text>
<text text-anchor="start" x="8" y="-190.5" font-family="Helvetica,sans-Serif" font-size="10.00">* connectSourcePipe()</text>
<text text-anchor="start" x="8" y="-179.5" font-family="Helvetica,sans-Serif" font-size="10.00">* disconnectSourcePipes()</text>
<text text-anchor="start" x="8" y="-168.5" font-family="Helvetica,sans-Serif" font-size="10.00">* disconnect()</text>
<text text-anchor="start" x="8" y="-157.5" font-family="Helvetica,sans-Serif" font-size="10.00">* disconnect()</text>
<text text-anchor="start" x="8" y="-146.5" font-family="Helvetica,sans-Serif" font-size="10.00">* hasSourcePipe()</text>
<text text-anchor="start" x="8" y="-135.5" font-family="Helvetica,sans-Serif" font-size="10.00">* getSourcePipe()</text>
</a>
</g>
</g>
<!-- Node2&#45;&gt;Node1 -->
<g id="edge1" class="edge">
<title>Node2&#45;&gt;Node1</title>
<path fill="none" stroke="midnightblue" d="M163.73,-120.35C171.66,-111.09 180.25,-102.49 189.5,-95 227.03,-64.61 279.56,-48.08 319.88,-39.31"/>
<polygon fill="none" stroke="midnightblue" points="160.86,-118.32 157.22,-128.27 166.27,-122.77 160.86,-118.32"/>
</g>
<!-- Node3 -->
<g id="node3" class="node">
<title>Node3</title>
<g id="a_node3"><a xlink:href="../../df/d72/classMIDI__Pipe.html" target="_top" xlink:title="Class that routes MIDI messages from a MIDI_Source to a MIDI_Sink.">
<polygon fill="white" stroke="black" points="280.5,-475.5 280.5,-1027.5 462.5,-1027.5 462.5,-475.5 280.5,-475.5"/>
<text text-anchor="middle" x="371.5" y="-1015.5" font-family="Helvetica,sans-Serif" font-size="10.00">MIDI_Pipe</text>
<polyline fill="none" stroke="black" points="280.5,-1008.5 462.5,-1008.5 "/>
<text text-anchor="middle" x="371.5" y="-996.5" font-family="Helvetica,sans-Serif" font-size="10.00"> </text>
<polyline fill="none" stroke="black" points="280.5,-989.5 462.5,-989.5 "/>
<text text-anchor="start" x="288.5" y="-977.5" font-family="Helvetica,sans-Serif" font-size="10.00">+ MIDI_Pipe()</text>
<text text-anchor="start" x="288.5" y="-966.5" font-family="Helvetica,sans-Serif" font-size="10.00">+ MIDI_Pipe()</text>
<text text-anchor="start" x="288.5" y="-955.5" font-family="Helvetica,sans-Serif" font-size="10.00">+ operator=()</text>
<text text-anchor="start" x="288.5" y="-944.5" font-family="Helvetica,sans-Serif" font-size="10.00">+ MIDI_Pipe()</text>
<text text-anchor="start" x="288.5" y="-933.5" font-family="Helvetica,sans-Serif" font-size="10.00">+ operator=()</text>
<text text-anchor="start" x="288.5" y="-922.5" font-family="Helvetica,sans-Serif" font-size="10.00">+ ~MIDI_Pipe()</text>
<text text-anchor="start" x="288.5" y="-911.5" font-family="Helvetica,sans-Serif" font-size="10.00"># sourceMIDItoSink()</text>
<text text-anchor="start" x="288.5" y="-900.5" font-family="Helvetica,sans-Serif" font-size="10.00"># acceptMIDIfromSource()</text>
<text text-anchor="start" x="288.5" y="-889.5" font-family="Helvetica,sans-Serif" font-size="10.00">&#45; sinkMIDIfromPipe()</text>
<text text-anchor="start" x="288.5" y="-878.5" font-family="Helvetica,sans-Serif" font-size="10.00">&#45; sinkMIDIfromPipe()</text>
<text text-anchor="start" x="288.5" y="-867.5" font-family="Helvetica,sans-Serif" font-size="10.00">&#45; sinkMIDIfromPipe()</text>
<text text-anchor="start" x="288.5" y="-856.5" font-family="Helvetica,sans-Serif" font-size="10.00">* isStalled()</text>
<text text-anchor="start" x="288.5" y="-845.5" font-family="Helvetica,sans-Serif" font-size="10.00">* getSinkStaller()</text>
<text text-anchor="start" x="288.5" y="-834.5" font-family="Helvetica,sans-Serif" font-size="10.00">* getSinkStallerName()</text>
<text text-anchor="start" x="288.5" y="-823.5" font-family="Helvetica,sans-Serif" font-size="10.00">* getThroughStaller()</text>
<text text-anchor="start" x="288.5" y="-812.5" font-family="Helvetica,sans-Serif" font-size="10.00">* getThroughStallerName()</text>
<text text-anchor="start" x="288.5" y="-801.5" font-family="Helvetica,sans-Serif" font-size="10.00">* getStaller()</text>
<text text-anchor="start" x="288.5" y="-790.5" font-family="Helvetica,sans-Serif" font-size="10.00">* getStallerName()</text>
<text text-anchor="start" x="288.5" y="-779.5" font-family="Helvetica,sans-Serif" font-size="10.00">* sinkIsUnstalledOrStalledBy()</text>
<text text-anchor="start" x="288.5" y="-768.5" font-family="Helvetica,sans-Serif" font-size="10.00">* throughIsUnstalledOrStalledBy()</text>
<text text-anchor="start" x="288.5" y="-757.5" font-family="Helvetica,sans-Serif" font-size="10.00">* handleStallers()</text>
<text text-anchor="start" x="288.5" y="-746.5" font-family="Helvetica,sans-Serif" font-size="10.00">* hasSink()</text>
<text text-anchor="start" x="288.5" y="-735.5" font-family="Helvetica,sans-Serif" font-size="10.00">* hasSource()</text>
<text text-anchor="start" x="288.5" y="-724.5" font-family="Helvetica,sans-Serif" font-size="10.00">* hasThroughOut()</text>
<text text-anchor="start" x="288.5" y="-713.5" font-family="Helvetica,sans-Serif" font-size="10.00">* hasThroughIn()</text>
<text text-anchor="start" x="288.5" y="-702.5" font-family="Helvetica,sans-Serif" font-size="10.00">* disconnect()</text>
<text text-anchor="start" x="288.5" y="-691.5" font-family="Helvetica,sans-Serif" font-size="10.00">* disconnect()</text>
<text text-anchor="start" x="288.5" y="-680.5" font-family="Helvetica,sans-Serif" font-size="10.00">* disconnect()</text>
<text text-anchor="start" x="288.5" y="-669.5" font-family="Helvetica,sans-Serif" font-size="10.00">* disconnect()</text>
<text text-anchor="start" x="288.5" y="-658.5" font-family="Helvetica,sans-Serif" font-size="10.00">* getSource()</text>
<text text-anchor="start" x="288.5" y="-647.5" font-family="Helvetica,sans-Serif" font-size="10.00">* getSink()</text>
<text text-anchor="start" x="288.5" y="-636.5" font-family="Helvetica,sans-Serif" font-size="10.00">* getThroughOut()</text>
<text text-anchor="start" x="288.5" y="-625.5" font-family="Helvetica,sans-Serif" font-size="10.00">* getThroughIn()</text>
<text text-anchor="start" x="288.5" y="-614.5" font-family="Helvetica,sans-Serif" font-size="10.00">* getFinalSink()</text>
<text text-anchor="start" x="288.5" y="-603.5" font-family="Helvetica,sans-Serif" font-size="10.00">* getInitialSource()</text>
<text text-anchor="start" x="288.5" y="-592.5" font-family="Helvetica,sans-Serif" font-size="10.00">* mapForwardMIDI()</text>
<text text-anchor="start" x="288.5" y="-581.5" font-family="Helvetica,sans-Serif" font-size="10.00">* mapForwardMIDI()</text>
<text text-anchor="start" x="288.5" y="-570.5" font-family="Helvetica,sans-Serif" font-size="10.00">* mapForwardMIDI()</text>
<text text-anchor="start" x="288.5" y="-559.5" font-family="Helvetica,sans-Serif" font-size="10.00">* connectSink()</text>
<text text-anchor="start" x="288.5" y="-548.5" font-family="Helvetica,sans-Serif" font-size="10.00">* disconnectSink()</text>
<text text-anchor="start" x="288.5" y="-537.5" font-family="Helvetica,sans-Serif" font-size="10.00">* connectSource()</text>
<text text-anchor="start" x="288.5" y="-526.5" font-family="Helvetica,sans-Serif" font-size="10.00">* disconnectSource()</text>
<text text-anchor="start" x="288.5" y="-515.5" font-family="Helvetica,sans-Serif" font-size="10.00">* stallDownstream()</text>
<text text-anchor="start" x="288.5" y="-504.5" font-family="Helvetica,sans-Serif" font-size="10.00">* unstallDownstream()</text>
<text text-anchor="start" x="288.5" y="-493.5" font-family="Helvetica,sans-Serif" font-size="10.00">* stallUpstream()</text>
<text text-anchor="start" x="288.5" y="-482.5" font-family="Helvetica,sans-Serif" font-size="10.00">* unstallUpstream()</text>
</a>
</g>
</g>
<!-- Node3&#45;&gt;Node2 -->
<g id="edge2" class="edge">
<title>Node3&#45;&gt;Node2</title>
<path fill="none" stroke="#404040" d="M280.47,-617.22C248.08,-567.77 212.29,-510.65 182.5,-457 173.38,-440.57 164.28,-423.09 155.57,-405.6"/>
<polygon fill="none" stroke="#404040" points="155.51,-405.48 149.26,-401.87 150.19,-394.72 156.43,-398.33 155.51,-405.48"/>
<text text-anchor="middle" x="215" y="-449" font-family="Helvetica,sans-Serif" font-size="10.00"> #sourcePipe</text>
</g>
<!-- Node3&#45;&gt;Node3 -->
<g id="edge8" class="edge">
<title>Node3&#45;&gt;Node3</title>
<path fill="none" stroke="#404040" d="M462.54,-799.84C473.4,-791.05 480.5,-774.94 480.5,-751.5 480.5,-734.65 476.83,-721.59 470.74,-712.31"/>
<polygon fill="none" stroke="#404040" points="470.54,-712.1 463.56,-710.3 462.54,-703.16 469.52,-704.96 470.54,-712.1"/>
<text text-anchor="middle" x="510" y="-754.5" font-family="Helvetica,sans-Serif" font-size="10.00"> &#45;throughIn</text>
<text text-anchor="middle" x="510" y="-743.5" font-family="Helvetica,sans-Serif" font-size="10.00">&#45;throughOut</text>
</g>
<!-- Node4 -->
<g id="node4" class="node">
<title>Node4</title>
<g id="a_node4"><a xlink:href="../../d9/db6/classMIDI__Sink.html" target="_top" xlink:title="Receives MIDI messages from a MIDI pipe.">
<polygon fill="white" stroke="black" points="199,-128.5 199,-394.5 380,-394.5 380,-128.5 199,-128.5"/>
<text text-anchor="middle" x="289.5" y="-382.5" font-family="Helvetica,sans-Serif" font-size="10.00">MIDI_Sink</text>
<polyline fill="none" stroke="black" points="199,-375.5 380,-375.5 "/>
<text text-anchor="middle" x="289.5" y="-363.5" font-family="Helvetica,sans-Serif" font-size="10.00"> </text>
<polyline fill="none" stroke="black" points="199,-356.5 380,-356.5 "/>
<text text-anchor="start" x="207" y="-344.5" font-family="Helvetica,sans-Serif" font-size="10.00">+ MIDI_Sink()</text>
<text text-anchor="start" x="207" y="-333.5" font-family="Helvetica,sans-Serif" font-size="10.00">+ MIDI_Sink()</text>
<text text-anchor="start" x="207" y="-322.5" font-family="Helvetica,sans-Serif" font-size="10.00">+ operator=()</text>
<text text-anchor="start" x="207" y="-311.5" font-family="Helvetica,sans-Serif" font-size="10.00">+ MIDI_Sink()</text>
<text text-anchor="start" x="207" y="-300.5" font-family="Helvetica,sans-Serif" font-size="10.00">+ operator=()</text>
<text text-anchor="start" x="207" y="-289.5" font-family="Helvetica,sans-Serif" font-size="10.00">+ ~MIDI_Sink()</text>
<text text-anchor="start" x="207" y="-278.5" font-family="Helvetica,sans-Serif" font-size="10.00">+ swap()</text>
<text text-anchor="start" x="207" y="-267.5" font-family="Helvetica,sans-Serif" font-size="10.00">&#45; stallDownstream()</text>
<text text-anchor="start" x="207" y="-256.5" font-family="Helvetica,sans-Serif" font-size="10.00">&#45; unstallDownstream()</text>
<text text-anchor="start" x="207" y="-245.5" font-family="Helvetica,sans-Serif" font-size="10.00">&#45; getFinalSink()</text>
<text text-anchor="start" x="207" y="-234.5" font-family="Helvetica,sans-Serif" font-size="10.00">&#45; disconnectSourcePipesShallow()</text>
<text text-anchor="start" x="207" y="-223.5" font-family="Helvetica,sans-Serif" font-size="10.00">* sinkMIDIfromPipe()</text>
<text text-anchor="start" x="207" y="-212.5" font-family="Helvetica,sans-Serif" font-size="10.00">* sinkMIDIfromPipe()</text>
<text text-anchor="start" x="207" y="-201.5" font-family="Helvetica,sans-Serif" font-size="10.00">* sinkMIDIfromPipe()</text>
<text text-anchor="start" x="207" y="-190.5" font-family="Helvetica,sans-Serif" font-size="10.00">* connectSourcePipe()</text>
<text text-anchor="start" x="207" y="-179.5" font-family="Helvetica,sans-Serif" font-size="10.00">* disconnectSourcePipes()</text>
<text text-anchor="start" x="207" y="-168.5" font-family="Helvetica,sans-Serif" font-size="10.00">* disconnect()</text>
<text text-anchor="start" x="207" y="-157.5" font-family="Helvetica,sans-Serif" font-size="10.00">* disconnect()</text>
<text text-anchor="start" x="207" y="-146.5" font-family="Helvetica,sans-Serif" font-size="10.00">* hasSourcePipe()</text>
<text text-anchor="start" x="207" y="-135.5" font-family="Helvetica,sans-Serif" font-size="10.00">* getSourcePipe()</text>
</a>
</g>
</g>
<!-- Node3&#45;&gt;Node4 -->
<g id="edge4" class="edge">
<title>Node3&#45;&gt;Node4</title>
<path fill="none" stroke="#404040" d="M280.44,-555.55C268.87,-523.26 258.87,-489.65 252.5,-457 249.34,-440.78 248.67,-423.79 249.67,-406.89"/>
<polygon fill="none" stroke="#404040" points="249.69,-406.58 246.2,-400.27 250.68,-394.62 254.17,-400.93 249.69,-406.58"/>
<text text-anchor="middle" x="285" y="-449" font-family="Helvetica,sans-Serif" font-size="10.00"> #sourcePipe</text>
</g>
<!-- Node5 -->
<g id="node5" class="node">
<title>Node5</title>
<g id="a_node5"><a xlink:href="../../df/d5b/classMIDI__Source.html" target="_top" xlink:title="Class that can send MIDI messages to a MIDI pipe.">
<polygon fill="white" stroke="black" points="398,-95.5 398,-427.5 567,-427.5 567,-95.5 398,-95.5"/>
<text text-anchor="middle" x="482.5" y="-415.5" font-family="Helvetica,sans-Serif" font-size="10.00">MIDI_Source</text>
<polyline fill="none" stroke="black" points="398,-408.5 567,-408.5 "/>
<text text-anchor="middle" x="482.5" y="-396.5" font-family="Helvetica,sans-Serif" font-size="10.00"> </text>
<polyline fill="none" stroke="black" points="398,-389.5 567,-389.5 "/>
<text text-anchor="start" x="406" y="-377.5" font-family="Helvetica,sans-Serif" font-size="10.00">+ MIDI_Source()</text>
<text text-anchor="start" x="406" y="-366.5" font-family="Helvetica,sans-Serif" font-size="10.00">+ MIDI_Source()</text>
<text text-anchor="start" x="406" y="-355.5" font-family="Helvetica,sans-Serif" font-size="10.00">+ operator=()</text>
<text text-anchor="start" x="406" y="-344.5" font-family="Helvetica,sans-Serif" font-size="10.00">+ MIDI_Source()</text>
<text text-anchor="start" x="406" y="-333.5" font-family="Helvetica,sans-Serif" font-size="10.00">+ operator=()</text>
<text text-anchor="start" x="406" y="-322.5" font-family="Helvetica,sans-Serif" font-size="10.00">+ ~MIDI_Source()</text>
<text text-anchor="start" x="406" y="-311.5" font-family="Helvetica,sans-Serif" font-size="10.00">+ swap()</text>
<text text-anchor="start" x="406" y="-300.5" font-family="Helvetica,sans-Serif" font-size="10.00">&#45; stallUpstream()</text>
<text text-anchor="start" x="406" y="-289.5" font-family="Helvetica,sans-Serif" font-size="10.00">&#45; unstallUpstream()</text>
<text text-anchor="start" x="406" y="-278.5" font-family="Helvetica,sans-Serif" font-size="10.00">&#45; getInitialSource()</text>
<text text-anchor="start" x="406" y="-267.5" font-family="Helvetica,sans-Serif" font-size="10.00">&#45; disconnectSinkPipesShallow()</text>
<text text-anchor="start" x="406" y="-256.5" font-family="Helvetica,sans-Serif" font-size="10.00">* sourceMIDItoPipe()</text>
<text text-anchor="start" x="406" y="-245.5" font-family="Helvetica,sans-Serif" font-size="10.00">* sourceMIDItoPipe()</text>
<text text-anchor="start" x="406" y="-234.5" font-family="Helvetica,sans-Serif" font-size="10.00">* sourceMIDItoPipe()</text>
<text text-anchor="start" x="406" y="-223.5" font-family="Helvetica,sans-Serif" font-size="10.00">* stall()</text>
<text text-anchor="start" x="406" y="-212.5" font-family="Helvetica,sans-Serif" font-size="10.00">* unstall()</text>
<text text-anchor="start" x="406" y="-201.5" font-family="Helvetica,sans-Serif" font-size="10.00">* isStalled()</text>
<text text-anchor="start" x="406" y="-190.5" font-family="Helvetica,sans-Serif" font-size="10.00">* getStaller()</text>
<text text-anchor="start" x="406" y="-179.5" font-family="Helvetica,sans-Serif" font-size="10.00">* getStallerName()</text>
<text text-anchor="start" x="406" y="-168.5" font-family="Helvetica,sans-Serif" font-size="10.00">* handleStallers()</text>
<text text-anchor="start" x="406" y="-157.5" font-family="Helvetica,sans-Serif" font-size="10.00">* connectSinkPipe()</text>
<text text-anchor="start" x="406" y="-146.5" font-family="Helvetica,sans-Serif" font-size="10.00">* disconnectSinkPipes()</text>
<text text-anchor="start" x="406" y="-135.5" font-family="Helvetica,sans-Serif" font-size="10.00">* disconnect()</text>
<text text-anchor="start" x="406" y="-124.5" font-family="Helvetica,sans-Serif" font-size="10.00">* disconnect()</text>
<text text-anchor="start" x="406" y="-113.5" font-family="Helvetica,sans-Serif" font-size="10.00">* hasSinkPipe()</text>
<text text-anchor="start" x="406" y="-102.5" font-family="Helvetica,sans-Serif" font-size="10.00">* getSinkPipe()</text>
</a>
</g>
</g>
<!-- Node3&#45;&gt;Node5 -->
<g id="edge6" class="edge">
<title>Node3&#45;&gt;Node5</title>
<path fill="none" stroke="#404040" d="M387.53,-475.4C389.62,-465.43 391.93,-455.6 394.5,-446 395.08,-443.82 395.69,-441.64 396.32,-439.45"/>
<polygon fill="none" stroke="#404040" points="396.4,-439.2 394.34,-432.3 399.92,-427.73 401.98,-434.64 396.4,-439.2"/>
<text text-anchor="middle" x="421" y="-449" font-family="Helvetica,sans-Serif" font-size="10.00"> #sinkPipe</text>
</g>
<!-- Node7 -->
<g id="node7" class="node">
<title>Node7</title>
<g id="a_node7"><a xlink:href="../../df/d5b/classMIDI__Source.html" target="_top" xlink:title="Class that can send MIDI messages to a MIDI pipe.">
<polygon fill="white" stroke="black" points="585,-95.5 585,-427.5 754,-427.5 754,-95.5 585,-95.5"/>
<text text-anchor="middle" x="669.5" y="-415.5" font-family="Helvetica,sans-Serif" font-size="10.00">TrueMIDI_Source</text>
<polyline fill="none" stroke="black" points="585,-408.5 754,-408.5 "/>
<text text-anchor="middle" x="669.5" y="-396.5" font-family="Helvetica,sans-Serif" font-size="10.00"> </text>
<polyline fill="none" stroke="black" points="585,-389.5 754,-389.5 "/>
<text text-anchor="start" x="593" y="-377.5" font-family="Helvetica,sans-Serif" font-size="10.00">+ MIDI_Source()</text>
<text text-anchor="start" x="593" y="-366.5" font-family="Helvetica,sans-Serif" font-size="10.00">+ MIDI_Source()</text>
<text text-anchor="start" x="593" y="-355.5" font-family="Helvetica,sans-Serif" font-size="10.00">+ operator=()</text>
<text text-anchor="start" x="593" y="-344.5" font-family="Helvetica,sans-Serif" font-size="10.00">+ MIDI_Source()</text>
<text text-anchor="start" x="593" y="-333.5" font-family="Helvetica,sans-Serif" font-size="10.00">+ operator=()</text>
<text text-anchor="start" x="593" y="-322.5" font-family="Helvetica,sans-Serif" font-size="10.00">+ ~MIDI_Source()</text>
<text text-anchor="start" x="593" y="-311.5" font-family="Helvetica,sans-Serif" font-size="10.00">+ swap()</text>
<text text-anchor="start" x="593" y="-300.5" font-family="Helvetica,sans-Serif" font-size="10.00">&#45; stallUpstream()</text>
<text text-anchor="start" x="593" y="-289.5" font-family="Helvetica,sans-Serif" font-size="10.00">&#45; unstallUpstream()</text>
<text text-anchor="start" x="593" y="-278.5" font-family="Helvetica,sans-Serif" font-size="10.00">&#45; getInitialSource()</text>
<text text-anchor="start" x="593" y="-267.5" font-family="Helvetica,sans-Serif" font-size="10.00">&#45; disconnectSinkPipesShallow()</text>
<text text-anchor="start" x="593" y="-256.5" font-family="Helvetica,sans-Serif" font-size="10.00">* sourceMIDItoPipe()</text>
<text text-anchor="start" x="593" y="-245.5" font-family="Helvetica,sans-Serif" font-size="10.00">* sourceMIDItoPipe()</text>
<text text-anchor="start" x="593" y="-234.5" font-family="Helvetica,sans-Serif" font-size="10.00">* sourceMIDItoPipe()</text>
<text text-anchor="start" x="593" y="-223.5" font-family="Helvetica,sans-Serif" font-size="10.00">* stall()</text>
<text text-anchor="start" x="593" y="-212.5" font-family="Helvetica,sans-Serif" font-size="10.00">* unstall()</text>
<text text-anchor="start" x="593" y="-201.5" font-family="Helvetica,sans-Serif" font-size="10.00">* isStalled()</text>
<text text-anchor="start" x="593" y="-190.5" font-family="Helvetica,sans-Serif" font-size="10.00">* getStaller()</text>
<text text-anchor="start" x="593" y="-179.5" font-family="Helvetica,sans-Serif" font-size="10.00">* getStallerName()</text>
<text text-anchor="start" x="593" y="-168.5" font-family="Helvetica,sans-Serif" font-size="10.00">* handleStallers()</text>
<text text-anchor="start" x="593" y="-157.5" font-family="Helvetica,sans-Serif" font-size="10.00">* connectSinkPipe()</text>
<text text-anchor="start" x="593" y="-146.5" font-family="Helvetica,sans-Serif" font-size="10.00">* disconnectSinkPipes()</text>
<text text-anchor="start" x="593" y="-135.5" font-family="Helvetica,sans-Serif" font-size="10.00">* disconnect()</text>
<text text-anchor="start" x="593" y="-124.5" font-family="Helvetica,sans-Serif" font-size="10.00">* disconnect()</text>
<text text-anchor="start" x="593" y="-113.5" font-family="Helvetica,sans-Serif" font-size="10.00">* hasSinkPipe()</text>
<text text-anchor="start" x="593" y="-102.5" font-family="Helvetica,sans-Serif" font-size="10.00">* getSinkPipe()</text>
</a>
</g>
</g>
<!-- Node3&#45;&gt;Node7 -->
<g id="edge12" class="edge">
<title>Node3&#45;&gt;Node7</title>
<path fill="none" stroke="#404040" d="M462.73,-610.64C498.85,-554.33 540.31,-488.49 576.5,-428 577.2,-426.83 577.9,-425.66 578.6,-424.48"/>
<polygon fill="none" stroke="#404040" points="578.83,-424.1 578.44,-416.9 584.94,-413.77 585.33,-420.97 578.83,-424.1"/>
<text text-anchor="middle" x="587" y="-449" font-family="Helvetica,sans-Serif" font-size="10.00"> #sinkPipe</text>
</g>
<!-- Node4&#45;&gt;Node3 -->
<g id="edge3" class="edge">
<title>Node4&#45;&gt;Node3</title>
<path fill="none" stroke="#8b1a1a" d="M313.36,-404.49C317.15,-427.06 321.18,-451.06 325.29,-475.48"/>
<polygon fill="none" stroke="#8b1a1a" points="316.8,-403.84 311.69,-394.56 309.9,-405 316.8,-403.84"/>
</g>
<!-- Node4&#45;&gt;Node3 -->
<g id="edge7" class="edge">
<title>Node4&#45;&gt;Node3</title>
<path fill="none" stroke="#404040" d="M315.29,-394.7C318.49,-411.94 321.63,-429.38 324.5,-446 325.49,-451.71 326.47,-457.49 327.46,-463.31"/>
<polygon fill="none" stroke="#404040" points="327.49,-463.48 332.43,-468.73 329.48,-475.31 324.54,-470.06 327.49,-463.48"/>
<text text-anchor="middle" x="340.5" y="-449" font-family="Helvetica,sans-Serif" font-size="10.00"> &#45;sink</text>
</g>
<!-- Node5&#45;&gt;Node3 -->
<g id="edge5" class="edge">
<title>Node5&#45;&gt;Node3</title>
<path fill="none" stroke="#8b1a1a" d="M455.44,-437.92C454.16,-444.37 452.85,-450.75 451.5,-457 450.19,-463.07 448.84,-469.19 447.44,-475.37"/>
<polygon fill="none" stroke="#8b1a1a" points="458.95,-438.22 457.43,-427.73 452.08,-436.88 458.95,-438.22"/>
</g>
<!-- Node5&#45;&gt;Node3 -->
<g id="edge10" class="edge">
<title>Node5&#45;&gt;Node3</title>
<path fill="none" stroke="#404040" d="M471.58,-427.61C470.1,-437.59 468.41,-447.45 466.5,-457 466.06,-459.22 465.6,-461.44 465.14,-463.67"/>
<polygon fill="none" stroke="#404040" points="465.08,-463.92 467.72,-470.63 462.54,-475.65 459.9,-468.94 465.08,-463.92"/>
<text text-anchor="middle" x="487.5" y="-449" font-family="Helvetica,sans-Serif" font-size="10.00"> &#45;source</text>
</g>
<!-- Node6 -->
<g id="node6" class="node">
<title>Node6</title>
<g id="a_node6"><a xlink:href="../../d4/d48/structMIDIStaller.html" target="_top" xlink:title="Struct that can cause a MIDI_Pipe to be stalled.">
<polygon fill="white" stroke="black" points="321.5,-1086.5 321.5,-1176.5 421.5,-1176.5 421.5,-1086.5 321.5,-1086.5"/>
<text text-anchor="middle" x="371.5" y="-1164.5" font-family="Helvetica,sans-Serif" font-size="10.00">MIDIStaller</text>
<polyline fill="none" stroke="black" points="321.5,-1157.5 421.5,-1157.5 "/>
<text text-anchor="middle" x="371.5" y="-1145.5" font-family="Helvetica,sans-Serif" font-size="10.00"> </text>
<polyline fill="none" stroke="black" points="321.5,-1138.5 421.5,-1138.5 "/>
<text text-anchor="start" x="329.5" y="-1126.5" font-family="Helvetica,sans-Serif" font-size="10.00">+ ~MIDIStaller()</text>
<text text-anchor="start" x="329.5" y="-1115.5" font-family="Helvetica,sans-Serif" font-size="10.00">+ getName()</text>
<text text-anchor="start" x="329.5" y="-1104.5" font-family="Helvetica,sans-Serif" font-size="10.00">+ handleStall()</text>
<text text-anchor="start" x="329.5" y="-1093.5" font-family="Helvetica,sans-Serif" font-size="10.00">+ getNameNull()</text>
</a>
</g>
</g>
<!-- Node6&#45;&gt;Node3 -->
<g id="edge9" class="edge">
<title>Node6&#45;&gt;Node3</title>
<path fill="none" stroke="#404040" d="M371.5,-1086.4C371.5,-1073.03 371.5,-1057.24 371.5,-1039.92"/>
<polygon fill="none" stroke="#404040" points="371.5,-1039.7 367.5,-1033.7 371.5,-1027.7 375.5,-1033.7 371.5,-1039.7"/>
<text text-anchor="middle" x="410.5" y="-1060" font-family="Helvetica,sans-Serif" font-size="10.00"> &#45;sink_staller</text>
<text text-anchor="middle" x="410.5" y="-1049" font-family="Helvetica,sans-Serif" font-size="10.00">&#45;through_staller</text>
</g>
<!-- Node7&#45;&gt;Node1 -->
<g id="edge11" class="edge">
<title>Node7&#45;&gt;Node1</title>
<path fill="none" stroke="midnightblue" d="M577.02,-95.43C576.85,-95.29 576.67,-95.14 576.5,-95 537.3,-62.72 481.52,-46.28 439.31,-38.03"/>
<polygon fill="none" stroke="midnightblue" points="574.88,-98.21 584.69,-102.22 579.52,-92.97 574.88,-98.21"/>
</g>
</g>
</svg>
