<?xml version="1.0" encoding="UTF-8" standalone="no"?>
<!DOCTYPE svg PUBLIC "-//W3C//DTD SVG 1.1//EN"
 "http://www.w3.org/Graphics/SVG/1.1/DTD/svg11.dtd">
<!-- Generated by graphviz version 2.40.1 (20161225.0304)
 -->
<!-- Title: SmartMIDIFilteredAnalog.hpp Pages: 1 -->
<svg width="1621pt" height="957pt"
 viewBox="0.00 0.00 1621.14 957.00" xmlns="http://www.w3.org/2000/svg" xmlns:xlink="http://www.w3.org/1999/xlink">
<g id="graph0" class="graph" transform="scale(1 1) rotate(0) translate(4 953)">
<title>SmartMIDIFilteredAnalog.hpp</title>
<polygon fill="#ffffff" stroke="transparent" points="-4,4 -4,-953 1617.1428,-953 1617.1428,4 -4,4"/>
<!-- Node1 -->
<g id="node1" class="node">
<title>Node1</title>
<g id="a_node1"><a xlink:title=" ">
<polygon fill="#bfbfbf" stroke="#000000" points="684.1428,-929.5 684.1428,-948.5 830.1428,-948.5 830.1428,-929.5 684.1428,-929.5"/>
<text text-anchor="middle" x="757.1428" y="-936.5" font-family="Helvetica,sans-Serif" font-size="10.00" fill="#000000">SmartMIDIFilteredAnalog.hpp</text>
</a>
</g>
</g>
<!-- Node2 -->
<g id="node2" class="node">
<title>Node2</title>
<g id="a_node2"><a xlink:href="../../d1/d40/BitArray_8hpp.html" target="_top" xlink:title=" ">
<polygon fill="#ffffff" stroke="#000000" points="29.1428,-504.5 29.1428,-523.5 167.1428,-523.5 167.1428,-504.5 29.1428,-504.5"/>
<text text-anchor="middle" x="98.1428" y="-511.5" font-family="Helvetica,sans-Serif" font-size="10.00" fill="#000000">AH/Containers/BitArray.hpp</text>
</a>
</g>
</g>
<!-- Node1&#45;&gt;Node2 -->
<g id="edge1" class="edge">
<title>Node1&#45;&gt;Node2</title>
<path fill="none" stroke="#191970" d="M683.875,-933.2382C520.8007,-919.4304 142.1428,-881.5009 142.1428,-827 142.1428,-827 142.1428,-827 142.1428,-642.5 142.1428,-601.4642 121.8104,-556.8392 108.7887,-532.4673"/>
<polygon fill="#191970" stroke="#191970" points="111.7944,-530.6699 103.8951,-523.6093 105.6673,-534.0549 111.7944,-530.6699"/>
</g>
<!-- Node23 -->
<g id="node23" class="node">
<title>Node23</title>
<g id="a_node23"><a xlink:href="../../d4/db3/Button_8hpp.html" target="_top" xlink:title=" ">
<polygon fill="#ffffff" stroke="#000000" points="1420.1428,-694.5 1420.1428,-713.5 1546.1428,-713.5 1546.1428,-694.5 1420.1428,-694.5"/>
<text text-anchor="middle" x="1483.1428" y="-701.5" font-family="Helvetica,sans-Serif" font-size="10.00" fill="#000000">AH/Hardware/Button.hpp</text>
</a>
</g>
</g>
<!-- Node1&#45;&gt;Node23 -->
<g id="edge38" class="edge">
<title>Node1&#45;&gt;Node23</title>
<path fill="none" stroke="#191970" d="M786.5021,-929.4967C900.5199,-892.5901 1314.0274,-758.7412 1443.859,-716.7158"/>
<polygon fill="#191970" stroke="#191970" points="1444.9821,-720.0312 1453.4183,-713.6216 1442.8264,-713.3714 1444.9821,-720.0312"/>
</g>
<!-- Node28 -->
<g id="node28" class="node">
<title>Node28</title>
<g id="a_node28"><a xlink:title=" ">
<polygon fill="#ffffff" stroke="#bfbfbf" points="671.6428,-873.5 671.6428,-892.5 766.6428,-892.5 766.6428,-873.5 671.6428,-873.5"/>
<text text-anchor="middle" x="719.1428" y="-880.5" font-family="Helvetica,sans-Serif" font-size="10.00" fill="#000000">AH/STL/algorithm</text>
</a>
</g>
</g>
<!-- Node1&#45;&gt;Node28 -->
<g id="edge55" class="edge">
<title>Node1&#45;&gt;Node28</title>
<path fill="none" stroke="#191970" d="M750.5237,-929.2455C745.2383,-921.4564 737.6887,-910.3308 731.3191,-900.9439"/>
<polygon fill="#191970" stroke="#191970" points="734.1973,-898.9522 725.6861,-892.6427 728.405,-902.8827 734.1973,-898.9522"/>
</g>
<!-- Node29 -->
<g id="node29" class="node">
<title>Node29</title>
<g id="a_node29"><a xlink:href="../../d0/dd4/BankableAddresses_8hpp.html" target="_top" xlink:title=" ">
<polygon fill="#ffffff" stroke="#000000" points="487.6428,-873.5 487.6428,-892.5 640.6428,-892.5 640.6428,-873.5 487.6428,-873.5"/>
<text text-anchor="middle" x="564.1428" y="-880.5" font-family="Helvetica,sans-Serif" font-size="10.00" fill="#000000">Banks/BankableAddresses.hpp</text>
</a>
</g>
</g>
<!-- Node1&#45;&gt;Node29 -->
<g id="edge56" class="edge">
<title>Node1&#45;&gt;Node29</title>
<path fill="none" stroke="#191970" d="M723.9649,-929.3733C691.5941,-919.9807 642.2031,-905.6496 606.9004,-895.4064"/>
<polygon fill="#191970" stroke="#191970" points="607.467,-891.9264 596.8878,-892.5011 605.5163,-898.6492 607.467,-891.9264"/>
</g>
<!-- Node35 -->
<g id="node35" class="node">
<title>Node35</title>
<g id="a_node35"><a xlink:href="../../d0/d4e/Def_8hpp.html" target="_top" xlink:title=" ">
<polygon fill="#ffffff" stroke="#000000" points="579.1428,-633 579.1428,-652 649.1428,-652 649.1428,-633 579.1428,-633"/>
<text text-anchor="middle" x="614.1428" y="-640" font-family="Helvetica,sans-Serif" font-size="10.00" fill="#000000">Def/Def.hpp</text>
</a>
</g>
</g>
<!-- Node1&#45;&gt;Node35 -->
<g id="edge89" class="edge">
<title>Node1&#45;&gt;Node35</title>
<path fill="none" stroke="#191970" d="M762.3746,-929.4788C767.0381,-920.4109 773.5198,-906.2215 776.1428,-893 777.8726,-884.281 777.4696,-881.7893 776.1428,-873 763.6808,-790.4436 774.2554,-756.7174 719.1428,-694 703.2918,-675.9618 679.6761,-663.5986 658.8534,-655.5168"/>
<polygon fill="#191970" stroke="#191970" points="659.8061,-652.1387 649.2123,-651.9937 657.4035,-658.7135 659.8061,-652.1387"/>
</g>
<!-- Node40 -->
<g id="node40" class="node">
<title>Node40</title>
<g id="a_node40"><a xlink:href="../../d1/d41/MIDIOutputElement_8hpp.html" target="_top" xlink:title=" ">
<polygon fill="#ffffff" stroke="#000000" points="823.6428,-750.5 823.6428,-780.5 948.6428,-780.5 948.6428,-750.5 823.6428,-750.5"/>
<text text-anchor="start" x="831.6428" y="-768.5" font-family="Helvetica,sans-Serif" font-size="10.00" fill="#000000">MIDI_Outputs/Abstract</text>
<text text-anchor="middle" x="886.1428" y="-757.5" font-family="Helvetica,sans-Serif" font-size="10.00" fill="#000000">/MIDIOutputElement.hpp</text>
</a>
</g>
</g>
<!-- Node1&#45;&gt;Node40 -->
<g id="edge90" class="edge">
<title>Node1&#45;&gt;Node40</title>
<path fill="none" stroke="#191970" d="M770.1077,-929.3604C781.2791,-920.6505 797.4115,-907.0723 809.1428,-893 836.5724,-860.0969 860.7452,-816.3883 874.3905,-789.6362"/>
<polygon fill="#191970" stroke="#191970" points="877.5689,-791.1061 878.928,-780.5988 871.3131,-787.9652 877.5689,-791.1061"/>
</g>
<!-- Node3 -->
<g id="node3" class="node">
<title>Node3</title>
<g id="a_node3"><a xlink:href="../../d1/d65/Warnings_8hpp.html" target="_top" xlink:title=" ">
<polygon fill="#ffffff" stroke="#000000" points="1074.6428,-.5 1074.6428,-19.5 1207.6428,-19.5 1207.6428,-.5 1074.6428,-.5"/>
<text text-anchor="middle" x="1141.1428" y="-7.5" font-family="Helvetica,sans-Serif" font-size="10.00" fill="#000000">AH/Settings/Warnings.hpp</text>
</a>
</g>
</g>
<!-- Node2&#45;&gt;Node3 -->
<g id="edge2" class="edge">
<title>Node2&#45;&gt;Node3</title>
<path fill="none" stroke="#191970" d="M90.7008,-504.4319C76.9932,-485.819 49.1428,-442.9622 49.1428,-402 49.1428,-402 49.1428,-402 49.1428,-122 49.1428,1.9649 197.5227,-74.2102 320.1428,-56 462.3153,-34.8861 888.7843,-18.5273 1064.3448,-12.5063"/>
<polygon fill="#191970" stroke="#191970" points="1064.6587,-15.9977 1074.5335,-12.1588 1064.42,-9.0018 1064.6587,-15.9977"/>
</g>
<!-- Node4 -->
<g id="node4" class="node">
<title>Node4</title>
<g id="a_node4"><a xlink:href="../../d1/d93/Error_8hpp.html" target="_top" xlink:title=" ">
<polygon fill="#ffffff" stroke="#000000" points="207.1428,-448.5 207.1428,-467.5 305.1428,-467.5 305.1428,-448.5 207.1428,-448.5"/>
<text text-anchor="middle" x="256.1428" y="-455.5" font-family="Helvetica,sans-Serif" font-size="10.00" fill="#000000">AH/Error/Error.hpp</text>
</a>
</g>
</g>
<!-- Node2&#45;&gt;Node4 -->
<g id="edge3" class="edge">
<title>Node2&#45;&gt;Node4</title>
<path fill="none" stroke="#191970" d="M125.304,-504.3733C151.3495,-495.1419 190.8544,-481.1402 219.6407,-470.9375"/>
<polygon fill="#191970" stroke="#191970" points="221.0799,-474.1408 229.3361,-467.5011 218.7413,-467.5429 221.0799,-474.1408"/>
</g>
<!-- Node7 -->
<g id="node7" class="node">
<title>Node7</title>
<g id="a_node7"><a xlink:href="../../d6/db0/AH_2Settings_2NamespaceSettings_8hpp.html" target="_top" xlink:title=" ">
<polygon fill="#ffffff" stroke="#000000" points="933.1428,-56.5 933.1428,-75.5 1113.1428,-75.5 1113.1428,-56.5 933.1428,-56.5"/>
<text text-anchor="middle" x="1023.1428" y="-63.5" font-family="Helvetica,sans-Serif" font-size="10.00" fill="#000000">AH/Settings/NamespaceSettings.hpp</text>
</a>
</g>
</g>
<!-- Node2&#45;&gt;Node7 -->
<g id="edge36" class="edge">
<title>Node2&#45;&gt;Node7</title>
<path fill="none" stroke="#191970" d="M105.7107,-504.339C112.34,-495.401 121.7363,-481.496 127.1428,-468 157.1578,-393.0756 163.1428,-370.7129 163.1428,-290 163.1428,-290 163.1428,-290 163.1428,-178 163.1428,-102.1418 696.0945,-76.3097 922.9002,-68.7511"/>
<polygon fill="#191970" stroke="#191970" points="923.2578,-72.2413 933.1377,-68.4154 923.0284,-65.2451 923.2578,-72.2413"/>
</g>
<!-- Node20 -->
<g id="node20" class="node">
<title>Node20</title>
<g id="a_node20"><a xlink:title=" ">
<polygon fill="#ffffff" stroke="#bfbfbf" points="309.6428,-224.5 309.6428,-243.5 358.6428,-243.5 358.6428,-224.5 309.6428,-224.5"/>
<text text-anchor="middle" x="334.1428" y="-231.5" font-family="Helvetica,sans-Serif" font-size="10.00" fill="#000000">stdint.h</text>
</a>
</g>
</g>
<!-- Node2&#45;&gt;Node20 -->
<g id="edge37" class="edge">
<title>Node2&#45;&gt;Node20</title>
<path fill="none" stroke="#191970" d="M101.7461,-504.3399C106.7739,-491.2434 116.4838,-467.2769 127.1428,-448 173.6285,-363.9303 190.5052,-342.8683 263.1428,-280 276.8988,-268.0941 293.9653,-256.9403 307.9181,-248.5982"/>
<polygon fill="#191970" stroke="#191970" points="309.7026,-251.6092 316.5714,-243.5426 306.1714,-245.5652 309.7026,-251.6092"/>
</g>
<!-- Node4&#45;&gt;Node3 -->
<g id="edge4" class="edge">
<title>Node4&#45;&gt;Node3</title>
<path fill="none" stroke="#191970" d="M240.601,-448.3628C205.9004,-425.5105 125.1428,-364.3412 125.1428,-290 125.1428,-290 125.1428,-290 125.1428,-122 125.1428,-110.3526 65.3541,-104.9483 467.1428,-56 682.5854,-29.7535 938.7321,-17.4161 1064.1683,-12.5935"/>
<polygon fill="#191970" stroke="#191970" points="1064.5733,-16.0807 1074.4335,-12.2044 1064.3081,-9.0857 1064.5733,-16.0807"/>
</g>
<!-- Node5 -->
<g id="node5" class="node">
<title>Node5</title>
<g id="a_node5"><a xlink:href="../../df/dee/Debug_8hpp.html" target="_top" xlink:title=" ">
<polygon fill="#ffffff" stroke="#000000" points="807.6428,-392.5 807.6428,-411.5 920.6428,-411.5 920.6428,-392.5 807.6428,-392.5"/>
<text text-anchor="middle" x="864.1428" y="-399.5" font-family="Helvetica,sans-Serif" font-size="10.00" fill="#000000">AH/Debug/Debug.hpp</text>
</a>
</g>
</g>
<!-- Node4&#45;&gt;Node5 -->
<g id="edge5" class="edge">
<title>Node4&#45;&gt;Node5</title>
<path fill="none" stroke="#191970" d="M305.383,-453.4647C413.9972,-443.4608 674.2342,-419.4916 797.3829,-408.1489"/>
<polygon fill="#191970" stroke="#191970" points="797.8007,-411.6254 807.4375,-407.2229 797.1586,-404.6549 797.8007,-411.6254"/>
</g>
<!-- Node5&#45;&gt;Node3 -->
<g id="edge6" class="edge">
<title>Node5&#45;&gt;Node3</title>
<path fill="none" stroke="#191970" d="M839.2694,-392.4085C805.9637,-378.0413 748.2764,-347.4425 724.1428,-300 720.1126,-292.0773 723.4945,-288.8652 724.1428,-280 727.4851,-234.3011 739.1428,-223.8209 739.1428,-178 739.1428,-178 739.1428,-178 739.1428,-122 739.1428,-55.21 947.6668,-26.5307 1064.3486,-15.711"/>
<polygon fill="#191970" stroke="#191970" points="1064.6654,-19.1967 1074.3094,-14.81 1064.0348,-12.2252 1064.6654,-19.1967"/>
</g>
<!-- Node6 -->
<g id="node6" class="node">
<title>Node6</title>
<g id="a_node6"><a xlink:href="../../dd/d80/PrintStream_8hpp.html" target="_top" xlink:title=" ">
<polygon fill="#ffffff" stroke="#000000" points="732.6428,-280.5 732.6428,-299.5 891.6428,-299.5 891.6428,-280.5 732.6428,-280.5"/>
<text text-anchor="middle" x="812.1428" y="-287.5" font-family="Helvetica,sans-Serif" font-size="10.00" fill="#000000">AH/PrintStream/PrintStream.hpp</text>
</a>
</g>
</g>
<!-- Node5&#45;&gt;Node6 -->
<g id="edge7" class="edge">
<title>Node5&#45;&gt;Node6</title>
<path fill="none" stroke="#191970" d="M859.3665,-392.1558C854.8722,-382.8595 847.9795,-368.5158 842.1428,-356 834.8391,-340.3385 826.7405,-322.4921 820.8005,-309.3092"/>
<polygon fill="#191970" stroke="#191970" points="823.8485,-307.5531 816.5559,-299.8674 817.464,-310.4233 823.8485,-307.5531"/>
</g>
<!-- Node14 -->
<g id="node14" class="node">
<title>Node14</title>
<g id="a_node14"><a xlink:href="../../de/dd1/AH_2Settings_2SettingsWrapper_8hpp.html" target="_top" xlink:title=" ">
<polygon fill="#ffffff" stroke="#000000" points="1147.1428,-336.5 1147.1428,-355.5 1311.1428,-355.5 1311.1428,-336.5 1147.1428,-336.5"/>
<text text-anchor="middle" x="1229.1428" y="-343.5" font-family="Helvetica,sans-Serif" font-size="10.00" fill="#000000">AH/Settings/SettingsWrapper.hpp</text>
</a>
</g>
</g>
<!-- Node5&#45;&gt;Node14 -->
<g id="edge20" class="edge">
<title>Node5&#45;&gt;Node14</title>
<path fill="none" stroke="#191970" d="M920.8431,-392.5004C982.8706,-382.6854 1082.5297,-367.3808 1151.7169,-357.0354"/>
<polygon fill="#191970" stroke="#191970" points="1152.3217,-360.484 1161.6956,-355.5462 1151.2885,-353.5606 1152.3217,-360.484"/>
</g>
<!-- Node22 -->
<g id="node22" class="node">
<title>Node22</title>
<g id="a_node22"><a xlink:href="../../d7/d52/DebugVal_8hpp.html" target="_top" xlink:title=" ">
<polygon fill="#ffffff" stroke="#000000" points="851.1428,-336.5 851.1428,-355.5 929.1428,-355.5 929.1428,-336.5 851.1428,-336.5"/>
<text text-anchor="middle" x="890.1428" y="-343.5" font-family="Helvetica,sans-Serif" font-size="10.00" fill="#000000">DebugVal.hpp</text>
</a>
</g>
</g>
<!-- Node5&#45;&gt;Node22 -->
<g id="edge35" class="edge">
<title>Node5&#45;&gt;Node22</title>
<path fill="none" stroke="#191970" d="M868.6717,-392.2455C872.1762,-384.6973 877.1355,-374.0158 881.4051,-364.8197"/>
<polygon fill="#191970" stroke="#191970" points="884.6292,-366.1867 885.6659,-355.6427 878.2802,-363.2389 884.6292,-366.1867"/>
</g>
<!-- Node6&#45;&gt;Node3 -->
<g id="edge9" class="edge">
<title>Node6&#45;&gt;Node3</title>
<path fill="none" stroke="#191970" d="M811.3202,-280.1551C808.8964,-244.0658 805.735,-117.9072 873.1428,-56 900.4832,-30.8907 995.3721,-19.2718 1064.4989,-14.0444"/>
<polygon fill="#191970" stroke="#191970" points="1064.7794,-17.5333 1074.4999,-13.3187 1064.2728,-10.5517 1064.7794,-17.5333"/>
</g>
<!-- Node6&#45;&gt;Node7 -->
<g id="edge8" class="edge">
<title>Node6&#45;&gt;Node7</title>
<path fill="none" stroke="#191970" d="M821.2092,-280.375C853.8087,-245.7671 965.3492,-127.3544 1007.1512,-82.9769"/>
<polygon fill="#191970" stroke="#191970" points="1009.8012,-85.2682 1014.1102,-75.5891 1004.7058,-80.4685 1009.8012,-85.2682"/>
</g>
<!-- Node8 -->
<g id="node8" class="node">
<title>Node8</title>
<g id="a_node8"><a xlink:href="../../d6/ddf/Arduino-Wrapper_8h.html" target="_top" xlink:title=" ">
<polygon fill="#ffffff" stroke="#000000" points="1285.6428,-168.5 1285.6428,-187.5 1400.6428,-187.5 1400.6428,-168.5 1285.6428,-168.5"/>
<text text-anchor="middle" x="1343.1428" y="-175.5" font-family="Helvetica,sans-Serif" font-size="10.00" fill="#000000">AH/Arduino&#45;Wrapper.h</text>
</a>
</g>
</g>
<!-- Node6&#45;&gt;Node8 -->
<g id="edge10" class="edge">
<title>Node6&#45;&gt;Node8</title>
<path fill="none" stroke="#191970" d="M840.6628,-280.4732C866.583,-271.6255 905.7607,-257.7777 939.1428,-244 958.6258,-235.9588 961.8926,-229.846 982.1428,-224 1081.7144,-195.2549 1201.9001,-184.4608 1275.401,-180.4152"/>
<polygon fill="#191970" stroke="#191970" points="1275.6525,-183.9069 1285.4555,-179.8879 1275.2859,-176.9165 1275.6525,-183.9069"/>
</g>
<!-- Node13 -->
<g id="node13" class="node">
<title>Node13</title>
<g id="a_node13"><a xlink:title=" ">
<polygon fill="#ffffff" stroke="#bfbfbf" points="547.6428,-224.5 547.6428,-243.5 710.6428,-243.5 710.6428,-224.5 547.6428,-224.5"/>
<text text-anchor="middle" x="629.1428" y="-231.5" font-family="Helvetica,sans-Serif" font-size="10.00" fill="#000000">Settings/NamespaceSettings.hpp</text>
</a>
</g>
</g>
<!-- Node6&#45;&gt;Node13 -->
<g id="edge19" class="edge">
<title>Node6&#45;&gt;Node13</title>
<path fill="none" stroke="#191970" d="M780.684,-280.3733C750.1222,-271.021 703.5602,-256.7725 670.1167,-246.5385"/>
<polygon fill="#191970" stroke="#191970" points="670.7776,-243.0806 660.1911,-243.5011 668.7293,-249.7742 670.7776,-243.0806"/>
</g>
<!-- Node9 -->
<g id="node9" class="node">
<title>Node9</title>
<g id="a_node9"><a xlink:href="../../d7/d79/MinMaxFix_8hpp.html" target="_top" xlink:title=" ">
<polygon fill="#ffffff" stroke="#000000" points="1236.6428,-112.5 1236.6428,-131.5 1361.6428,-131.5 1361.6428,-112.5 1236.6428,-112.5"/>
<text text-anchor="middle" x="1299.1428" y="-119.5" font-family="Helvetica,sans-Serif" font-size="10.00" fill="#000000">AH/Math/MinMaxFix.hpp</text>
</a>
</g>
</g>
<!-- Node8&#45;&gt;Node9 -->
<g id="edge11" class="edge">
<title>Node8&#45;&gt;Node9</title>
<path fill="none" stroke="#191970" d="M1335.4786,-168.2455C1329.2955,-160.3761 1320.4365,-149.101 1313.014,-139.6542"/>
<polygon fill="#191970" stroke="#191970" points="1315.6496,-137.3435 1306.7192,-131.6427 1310.1453,-141.6683 1315.6496,-137.3435"/>
</g>
<!-- Node11 -->
<g id="node11" class="node">
<title>Node11</title>
<g id="a_node11"><a xlink:title=" ">
<polygon fill="#ffffff" stroke="#bfbfbf" points="1309.1428,-.5 1309.1428,-19.5 1367.1428,-19.5 1367.1428,-.5 1309.1428,-.5"/>
<text text-anchor="middle" x="1338.1428" y="-7.5" font-family="Helvetica,sans-Serif" font-size="10.00" fill="#000000">Arduino.h</text>
</a>
</g>
</g>
<!-- Node8&#45;&gt;Node11 -->
<g id="edge18" class="edge">
<title>Node8&#45;&gt;Node11</title>
<path fill="none" stroke="#191970" d="M1351.0256,-168.497C1357.814,-159.6654 1367.1318,-145.8278 1371.1428,-132 1380.5537,-99.5566 1382.7131,-88.0843 1372.1428,-56 1368.6373,-45.3594 1361.6187,-35.164 1354.8642,-27.0877"/>
<polygon fill="#191970" stroke="#191970" points="1357.3568,-24.6247 1348.079,-19.5087 1352.1414,-29.2937 1357.3568,-24.6247"/>
</g>
<!-- Node12 -->
<g id="node12" class="node">
<title>Node12</title>
<g id="a_node12"><a xlink:title=" ">
<polygon fill="#ffffff" stroke="#bfbfbf" points="509.6428,-112.5 509.6428,-131.5 610.6428,-131.5 610.6428,-112.5 509.6428,-112.5"/>
<text text-anchor="middle" x="560.1428" y="-119.5" font-family="Helvetica,sans-Serif" font-size="10.00" fill="#000000">AH/STL/type_traits</text>
</a>
</g>
</g>
<!-- Node8&#45;&gt;Node12 -->
<g id="edge17" class="edge">
<title>Node8&#45;&gt;Node12</title>
<path fill="none" stroke="#191970" d="M1285.567,-173.8822C1141.8321,-163.6023 768.2468,-136.8836 621.04,-126.3554"/>
<polygon fill="#191970" stroke="#191970" points="621.0628,-122.8481 610.8386,-125.6257 620.5634,-129.8303 621.0628,-122.8481"/>
</g>
<!-- Node9&#45;&gt;Node3 -->
<g id="edge12" class="edge">
<title>Node9&#45;&gt;Node3</title>
<path fill="none" stroke="#191970" d="M1269.4732,-112.3522C1248.3175,-104.5879 1219.8865,-92.2875 1198.1428,-76 1180.2507,-62.5975 1164.0356,-42.6989 1153.5154,-28.2566"/>
<polygon fill="#191970" stroke="#191970" points="1156.088,-25.8315 1147.464,-19.677 1150.3677,-29.8662 1156.088,-25.8315"/>
</g>
<!-- Node9&#45;&gt;Node7 -->
<g id="edge16" class="edge">
<title>Node9&#45;&gt;Node7</title>
<path fill="none" stroke="#191970" d="M1252.0103,-112.4369C1204.3781,-102.7724 1130.7461,-87.8326 1079.9263,-77.5213"/>
<polygon fill="#191970" stroke="#191970" points="1080.5772,-74.0821 1070.0809,-75.5237 1079.1852,-80.9423 1080.5772,-74.0821"/>
</g>
<!-- Node10 -->
<g id="node10" class="node">
<title>Node10</title>
<g id="a_node10"><a xlink:href="../../d6/d3b/FixArduinoMacros_8hpp.html" target="_top" xlink:title=" ">
<polygon fill="#ffffff" stroke="#000000" points="1207.1428,-56.5 1207.1428,-75.5 1363.1428,-75.5 1363.1428,-56.5 1207.1428,-56.5"/>
<text text-anchor="middle" x="1285.1428" y="-63.5" font-family="Helvetica,sans-Serif" font-size="10.00" fill="#000000">AH/Math/FixArduinoMacros.hpp</text>
</a>
</g>
</g>
<!-- Node9&#45;&gt;Node10 -->
<g id="edge13" class="edge">
<title>Node9&#45;&gt;Node10</title>
<path fill="none" stroke="#191970" d="M1296.7042,-112.2455C1294.8573,-104.8579 1292.26,-94.4689 1289.995,-85.4087"/>
<polygon fill="#191970" stroke="#191970" points="1293.3744,-84.4952 1287.5535,-75.6427 1286.5834,-86.193 1293.3744,-84.4952"/>
</g>
<!-- Node10&#45;&gt;Node3 -->
<g id="edge14" class="edge">
<title>Node10&#45;&gt;Node3</title>
<path fill="none" stroke="#191970" d="M1260.3883,-56.3733C1236.858,-47.2226 1201.2742,-33.3844 1175.1002,-23.2057"/>
<polygon fill="#191970" stroke="#191970" points="1176.1629,-19.8636 1165.5743,-19.5011 1173.6258,-26.3877 1176.1629,-19.8636"/>
</g>
<!-- Node10&#45;&gt;Node11 -->
<g id="edge15" class="edge">
<title>Node10&#45;&gt;Node11</title>
<path fill="none" stroke="#191970" d="M1294.3747,-56.2455C1301.9746,-48.2155 1312.9305,-36.6394 1321.9796,-27.0781"/>
<polygon fill="#191970" stroke="#191970" points="1324.6849,-29.3115 1329.0167,-19.6427 1319.6008,-24.4998 1324.6849,-29.3115"/>
</g>
<!-- Node14&#45;&gt;Node3 -->
<g id="edge21" class="edge">
<title>Node14&#45;&gt;Node3</title>
<path fill="none" stroke="#191970" d="M1287.4142,-336.4245C1322.405,-329.2932 1367.1583,-317.685 1404.1428,-300 1466.1417,-270.3538 1499.1428,-246.7224 1499.1428,-178 1499.1428,-178 1499.1428,-178 1499.1428,-122 1499.1428,-63.5645 1323.2116,-32.0179 1218.0115,-18.3777"/>
<polygon fill="#191970" stroke="#191970" points="1218.4214,-14.9018 1208.0599,-17.1133 1217.539,-21.8459 1218.4214,-14.9018"/>
</g>
<!-- Node14&#45;&gt;Node5 -->
<g id="edge34" class="edge">
<title>Node14&#45;&gt;Node5</title>
<path fill="none" stroke="#191970" d="M1172.2546,-355.5294C1106.931,-365.8649 1000.0482,-382.2625 930.8623,-392.5621"/>
<polygon fill="#191970" stroke="#191970" points="930.3149,-389.1049 920.9376,-394.036 931.3433,-396.029 930.3149,-389.1049"/>
</g>
<!-- Node14&#45;&gt;Node7 -->
<g id="edge22" class="edge">
<title>Node14&#45;&gt;Node7</title>
<path fill="none" stroke="#191970" d="M1192.6622,-336.4468C1171.5742,-329.3457 1145.8049,-317.761 1128.1428,-300 1111.7301,-283.4954 1052.0805,-137.845 1030.773,-85.0259"/>
<polygon fill="#191970" stroke="#191970" points="1033.9215,-83.4744 1026.9418,-75.5036 1027.4274,-86.0873 1033.9215,-83.4744"/>
</g>
<!-- Node15 -->
<g id="node15" class="node">
<title>Node15</title>
<g id="a_node15"><a xlink:href="../../d5/d4f/AH_2Settings_2Settings_8hpp.html" target="_top" xlink:title="All user settings and debugging options can be changed here.">
<polygon fill="#ffffff" stroke="#000000" points="1323.6428,-280.5 1323.6428,-299.5 1394.6428,-299.5 1394.6428,-280.5 1323.6428,-280.5"/>
<text text-anchor="middle" x="1359.1428" y="-287.5" font-family="Helvetica,sans-Serif" font-size="10.00" fill="#000000">Settings.hpp</text>
</a>
</g>
</g>
<!-- Node14&#45;&gt;Node15 -->
<g id="edge23" class="edge">
<title>Node14&#45;&gt;Node15</title>
<path fill="none" stroke="#191970" d="M1251.4906,-336.3733C1272.5462,-327.3032 1304.2924,-313.6279 1327.8603,-303.4755"/>
<polygon fill="#191970" stroke="#191970" points="1329.2872,-306.6719 1337.0866,-299.5011 1326.5178,-300.243 1329.2872,-306.6719"/>
</g>
<!-- Node21 -->
<g id="node21" class="node">
<title>Node21</title>
<g id="a_node21"><a xlink:href="../../d9/d98/TeensyUSBTypes_8hpp.html" target="_top" xlink:title=" ">
<polygon fill="#ffffff" stroke="#000000" points="1137.1428,-280.5 1137.1428,-299.5 1305.1428,-299.5 1305.1428,-280.5 1137.1428,-280.5"/>
<text text-anchor="middle" x="1221.1428" y="-287.5" font-family="Helvetica,sans-Serif" font-size="10.00" fill="#000000">AH/Teensy/TeensyUSBTypes.hpp</text>
</a>
</g>
</g>
<!-- Node14&#45;&gt;Node21 -->
<g id="edge33" class="edge">
<title>Node14&#45;&gt;Node21</title>
<path fill="none" stroke="#191970" d="M1227.7493,-336.2455C1226.7054,-328.9382 1225.242,-318.6944 1223.9578,-309.7046"/>
<polygon fill="#191970" stroke="#191970" points="1227.3995,-309.0472 1222.5204,-299.6427 1220.4698,-310.0372 1227.3995,-309.0472"/>
</g>
<!-- Node16 -->
<g id="node16" class="node">
<title>Node16</title>
<g id="a_node16"><a xlink:href="../../dc/d50/Frequency_8hpp.html" target="_top" xlink:title=" ">
<polygon fill="#ffffff" stroke="#000000" points="1090.1428,-112.5 1090.1428,-131.5 1218.1428,-131.5 1218.1428,-112.5 1090.1428,-112.5"/>
<text text-anchor="middle" x="1154.1428" y="-119.5" font-family="Helvetica,sans-Serif" font-size="10.00" fill="#000000">AH/Types/Frequency.hpp</text>
</a>
</g>
</g>
<!-- Node15&#45;&gt;Node16 -->
<g id="edge24" class="edge">
<title>Node15&#45;&gt;Node16</title>
<path fill="none" stroke="#191970" d="M1323.2642,-281.7041C1269.6843,-269.2414 1174.7227,-246.8366 1172.1428,-244 1146.6813,-216.005 1147.7981,-168.5106 1150.9296,-141.7877"/>
<polygon fill="#191970" stroke="#191970" points="1154.4183,-142.1099 1152.3234,-131.7242 1147.4845,-141.1495 1154.4183,-142.1099"/>
</g>
<!-- Node17 -->
<g id="node17" class="node">
<title>Node17</title>
<g id="a_node17"><a xlink:href="../../d7/d7c/ADCConfig_8hpp.html" target="_top" xlink:title="This file contains the platform&#45;specific ADC resolutions. By default, the library automatically selec...">
<polygon fill="#ffffff" stroke="#000000" points="1323.1428,-224.5 1323.1428,-243.5 1471.1428,-243.5 1471.1428,-224.5 1323.1428,-224.5"/>
<text text-anchor="middle" x="1397.1428" y="-231.5" font-family="Helvetica,sans-Serif" font-size="10.00" fill="#000000">AH/Hardware/ADCConfig.hpp</text>
</a>
</g>
</g>
<!-- Node15&#45;&gt;Node17 -->
<g id="edge27" class="edge">
<title>Node15&#45;&gt;Node17</title>
<path fill="none" stroke="#191970" d="M1365.7619,-280.2455C1371.0474,-272.4564 1378.597,-261.3308 1384.9666,-251.9439"/>
<polygon fill="#191970" stroke="#191970" points="1387.8807,-253.8827 1390.5996,-243.6427 1382.0884,-249.9522 1387.8807,-253.8827"/>
</g>
<!-- Node18 -->
<g id="node18" class="node">
<title>Node18</title>
<g id="a_node18"><a xlink:title=" ">
<polygon fill="#ffffff" stroke="#bfbfbf" points="1181.1428,-224.5 1181.1428,-243.5 1229.1428,-243.5 1229.1428,-224.5 1181.1428,-224.5"/>
<text text-anchor="middle" x="1205.1428" y="-231.5" font-family="Helvetica,sans-Serif" font-size="10.00" fill="#000000">limits.h</text>
</a>
</g>
</g>
<!-- Node15&#45;&gt;Node18 -->
<g id="edge30" class="edge">
<title>Node15&#45;&gt;Node18</title>
<path fill="none" stroke="#191970" d="M1332.6693,-280.3733C1306.6677,-270.9181 1266.9038,-256.4585 1238.6991,-246.2023"/>
<polygon fill="#191970" stroke="#191970" points="1239.8404,-242.8931 1229.2463,-242.7649 1237.4481,-249.4717 1239.8404,-242.8931"/>
</g>
<!-- Node19 -->
<g id="node19" class="node">
<title>Node19</title>
<g id="a_node19"><a xlink:title=" ">
<polygon fill="#ffffff" stroke="#bfbfbf" points="991.1428,-224.5 991.1428,-243.5 1043.1428,-243.5 1043.1428,-224.5 991.1428,-224.5"/>
<text text-anchor="middle" x="1017.1428" y="-231.5" font-family="Helvetica,sans-Serif" font-size="10.00" fill="#000000">stddef.h</text>
</a>
</g>
</g>
<!-- Node15&#45;&gt;Node19 -->
<g id="edge31" class="edge">
<title>Node15&#45;&gt;Node19</title>
<path fill="none" stroke="#191970" d="M1323.3247,-281.8202C1320.2243,-281.179 1317.1314,-280.5629 1314.1428,-280 1220.6908,-262.3987 1109.7688,-246.5444 1053.6171,-238.8707"/>
<polygon fill="#191970" stroke="#191970" points="1053.8424,-235.3692 1043.4622,-237.4906 1052.8997,-242.3054 1053.8424,-235.3692"/>
</g>
<!-- Node15&#45;&gt;Node20 -->
<g id="edge32" class="edge">
<title>Node15&#45;&gt;Node20</title>
<path fill="none" stroke="#191970" d="M1323.381,-281.4697C1320.2684,-280.9047 1317.1573,-280.4018 1314.1428,-280 971.9099,-234.3821 883.0104,-260.4521 538.1428,-244 478.8058,-241.1693 409.7665,-237.7609 369.1349,-235.7432"/>
<polygon fill="#191970" stroke="#191970" points="369.1114,-232.2378 358.9499,-235.237 368.7638,-239.2292 369.1114,-232.2378"/>
</g>
<!-- Node16&#45;&gt;Node3 -->
<g id="edge25" class="edge">
<title>Node16&#45;&gt;Node3</title>
<path fill="none" stroke="#191970" d="M1153.0345,-112.4509C1150.9142,-94.184 1146.2448,-53.9553 1143.4292,-29.6976"/>
<polygon fill="#191970" stroke="#191970" points="1146.8781,-29.0546 1142.2484,-19.5249 1139.9248,-29.8618 1146.8781,-29.0546"/>
</g>
<!-- Node16&#45;&gt;Node7 -->
<g id="edge26" class="edge">
<title>Node16&#45;&gt;Node7</title>
<path fill="none" stroke="#191970" d="M1131.6231,-112.3733C1110.4056,-103.3032 1078.4152,-89.6279 1054.666,-79.4755"/>
<polygon fill="#191970" stroke="#191970" points="1055.9395,-76.2136 1045.3687,-75.5011 1053.188,-82.6502 1055.9395,-76.2136"/>
</g>
<!-- Node17&#45;&gt;Node3 -->
<g id="edge28" class="edge">
<title>Node17&#45;&gt;Node3</title>
<path fill="none" stroke="#191970" d="M1400.7305,-224.2967C1403.927,-215.1001 1408.3656,-200.8237 1410.1428,-188 1418.5236,-127.5287 1418.0348,-96.2609 1372.1428,-56 1349.4519,-36.0933 1276.1056,-23.8482 1218.0767,-17.0484"/>
<polygon fill="#191970" stroke="#191970" points="1218.1353,-13.5326 1207.8042,-15.882 1217.3455,-20.4879 1218.1353,-13.5326"/>
</g>
<!-- Node17&#45;&gt;Node8 -->
<g id="edge29" class="edge">
<title>Node17&#45;&gt;Node8</title>
<path fill="none" stroke="#191970" d="M1387.7367,-224.2455C1379.9935,-216.2155 1368.8308,-204.6394 1359.611,-195.0781"/>
<polygon fill="#191970" stroke="#191970" points="1361.902,-192.4117 1352.4411,-187.6427 1356.863,-197.2706 1361.902,-192.4117"/>
</g>
<!-- Node23&#45;&gt;Node3 -->
<g id="edge39" class="edge">
<title>Node23&#45;&gt;Node3</title>
<path fill="none" stroke="#191970" d="M1505.4906,-694.3865C1542.6595,-676.7154 1613.1428,-635.3194 1613.1428,-575.5 1613.1428,-575.5 1613.1428,-575.5 1613.1428,-122 1613.1428,-74.87 1573.6482,-74.1251 1530.1428,-56 1475.4247,-33.2034 1314.8385,-20.1231 1217.9467,-14.0975"/>
<polygon fill="#191970" stroke="#191970" points="1218.1016,-10.6005 1207.9067,-13.4841 1217.6747,-17.5875 1218.1016,-10.6005"/>
</g>
<!-- Node23&#45;&gt;Node14 -->
<g id="edge54" class="edge">
<title>Node23&#45;&gt;Node14</title>
<path fill="none" stroke="#191970" d="M1493.7019,-694.2076C1502.1438,-685.6048 1513.3334,-672.2634 1518.1428,-658 1522.5449,-644.9444 1520.5303,-640.5694 1518.1428,-627 1503.4765,-543.642 1510.5818,-510.1644 1453.1428,-448 1407.8773,-399.0106 1334.5326,-371.8409 1284.1798,-358.0957"/>
<polygon fill="#191970" stroke="#191970" points="1284.993,-354.6905 1274.4309,-355.5231 1283.2069,-361.4588 1284.993,-354.6905"/>
</g>
<!-- Node24 -->
<g id="node24" class="node">
<title>Node24</title>
<g id="a_node24"><a xlink:href="../../dd/ddf/ExtendedInputOutput_8hpp.html" target="_top" xlink:title=" ">
<polygon fill="#ffffff" stroke="#000000" points="1349.1428,-627.5 1349.1428,-657.5 1509.1428,-657.5 1509.1428,-627.5 1349.1428,-627.5"/>
<text text-anchor="start" x="1357.1428" y="-645.5" font-family="Helvetica,sans-Serif" font-size="10.00" fill="#000000">AH/Hardware/ExtendedInput</text>
<text text-anchor="middle" x="1429.1428" y="-634.5" font-family="Helvetica,sans-Serif" font-size="10.00" fill="#000000">Output/ExtendedInputOutput.hpp</text>
</a>
</g>
</g>
<!-- Node23&#45;&gt;Node24 -->
<g id="edge40" class="edge">
<title>Node23&#45;&gt;Node24</title>
<path fill="none" stroke="#191970" d="M1474.7053,-694.3906C1467.8708,-686.6068 1457.9606,-675.3202 1449.127,-665.2597"/>
<polygon fill="#191970" stroke="#191970" points="1451.5808,-662.7497 1442.3527,-657.5446 1446.3207,-667.3683 1451.5808,-662.7497"/>
</g>
<!-- Node24&#45;&gt;Node3 -->
<g id="edge42" class="edge">
<title>Node24&#45;&gt;Node3</title>
<path fill="none" stroke="#191970" d="M1469.038,-627.4963C1512.2659,-608.3406 1575.1428,-570.7277 1575.1428,-514 1575.1428,-514 1575.1428,-514 1575.1428,-122 1575.1428,-74.1711 1534.277,-74.4332 1490.1428,-56 1442.4746,-36.0908 1305.5664,-22.4163 1218.0702,-15.4243"/>
<polygon fill="#191970" stroke="#191970" points="1218.1621,-11.9208 1207.9182,-14.6252 1217.6127,-18.8992 1218.1621,-11.9208"/>
</g>
<!-- Node24&#45;&gt;Node7 -->
<g id="edge41" class="edge">
<title>Node24&#45;&gt;Node7</title>
<path fill="none" stroke="#191970" d="M1429.9457,-627.4736C1431.0197,-591.7338 1428.7221,-500.7169 1382.1428,-448 1305.4033,-361.1487 1223.6469,-434.2378 1138.1428,-356 1055.6731,-280.5387 1031.4321,-138.259 1025.1339,-85.949"/>
<polygon fill="#191970" stroke="#191970" points="1028.5773,-85.2449 1023.9954,-75.6921 1021.6201,-86.0172 1028.5773,-85.2449"/>
</g>
<!-- Node24&#45;&gt;Node8 -->
<g id="edge43" class="edge">
<title>Node24&#45;&gt;Node8</title>
<path fill="none" stroke="#191970" d="M1438.3515,-627.3519C1443.8418,-617.4104 1450.2835,-603.905 1453.1428,-591 1466.8914,-528.9493 1459.1153,-511.2743 1453.1428,-448 1446.0001,-372.3273 1471.1038,-337.2825 1421.1428,-280 1388.1627,-242.1867 1343.4236,-284.7451 1314.1428,-244 1303.275,-228.8771 1314.838,-209.0369 1326.4282,-195.0723"/>
<polygon fill="#191970" stroke="#191970" points="1329.0408,-197.4013 1333.086,-187.6091 1323.8172,-192.7414 1329.0408,-197.4013"/>
</g>
<!-- Node25 -->
<g id="node25" class="node">
<title>Node25</title>
<g id="a_node25"><a xlink:href="../../d4/d35/Hardware-Types_8hpp.html" target="_top" xlink:title=" ">
<polygon fill="#ffffff" stroke="#000000" points="553.6428,-560.5 553.6428,-590.5 674.6428,-590.5 674.6428,-560.5 553.6428,-560.5"/>
<text text-anchor="start" x="561.6428" y="-578.5" font-family="Helvetica,sans-Serif" font-size="10.00" fill="#000000">AH/Hardware/Hardware</text>
<text text-anchor="middle" x="614.1428" y="-567.5" font-family="Helvetica,sans-Serif" font-size="10.00" fill="#000000">&#45;Types.hpp</text>
</a>
</g>
</g>
<!-- Node24&#45;&gt;Node25 -->
<g id="edge44" class="edge">
<title>Node24&#45;&gt;Node25</title>
<path fill="none" stroke="#191970" d="M1349.1405,-635.9231C1189.9663,-622.8376 835.9245,-593.7324 684.7644,-581.3057"/>
<polygon fill="#191970" stroke="#191970" points="684.9241,-577.8071 674.6709,-580.4759 684.3505,-584.7836 684.9241,-577.8071"/>
</g>
<!-- Node25&#45;&gt;Node3 -->
<g id="edge45" class="edge">
<title>Node25&#45;&gt;Node3</title>
<path fill="none" stroke="#191970" d="M553.5211,-574.0837C410.4464,-570.2036 60.7086,-557.3775 20.1428,-524 -3.4285,-504.6055 1.1428,-488.5246 1.1428,-458 1.1428,-458 1.1428,-458 1.1428,-122 1.1428,-82.9495 23.9149,-72.8503 59.1428,-56 104.3419,-34.3802 824.6251,-16.8679 1064.2739,-11.6153"/>
<polygon fill="#191970" stroke="#191970" points="1064.3784,-15.1139 1074.2997,-11.3965 1064.2257,-8.1156 1064.3784,-15.1139"/>
</g>
<!-- Node25&#45;&gt;Node7 -->
<g id="edge52" class="edge">
<title>Node25&#45;&gt;Node7</title>
<path fill="none" stroke="#191970" d="M620.921,-560.2716C625.3942,-550.0699 631.3006,-536.3042 636.1428,-524 641.4199,-510.5908 715.4666,-291.5055 724.1428,-280 798.7787,-181.0256 932.2293,-109.0698 992.3209,-80.0925"/>
<polygon fill="#191970" stroke="#191970" points="994.1241,-83.1107 1001.6519,-75.6554 991.1179,-76.789 994.1241,-83.1107"/>
</g>
<!-- Node25&#45;&gt;Node20 -->
<g id="edge53" class="edge">
<title>Node25&#45;&gt;Node20</title>
<path fill="none" stroke="#191970" d="M617.4729,-560.4927C622.2099,-535.2929 628.1645,-483.7303 607.1428,-448 544.552,-341.6151 457.6756,-388.9916 372.1428,-300 359.0195,-286.346 348.6855,-267.3097 342.1278,-253.1884"/>
<polygon fill="#191970" stroke="#191970" points="345.2766,-251.6548 338.0342,-243.9219 338.8736,-254.4834 345.2766,-251.6548"/>
</g>
<!-- Node26 -->
<g id="node26" class="node">
<title>Node26</title>
<g id="a_node26"><a xlink:href="../../de/d76/Array_8hpp.html" target="_top" xlink:title=" ">
<polygon fill="#ffffff" stroke="#000000" points="462.1428,-504.5 462.1428,-523.5 588.1428,-523.5 588.1428,-504.5 462.1428,-504.5"/>
<text text-anchor="middle" x="525.1428" y="-511.5" font-family="Helvetica,sans-Serif" font-size="10.00" fill="#000000">AH/Containers/Array.hpp</text>
</a>
</g>
</g>
<!-- Node25&#45;&gt;Node26 -->
<g id="edge46" class="edge">
<title>Node25&#45;&gt;Node26</title>
<path fill="none" stroke="#191970" d="M592.1428,-560.2977C578.5461,-550.9022 561.1462,-538.8787 547.4861,-529.4395"/>
<polygon fill="#191970" stroke="#191970" points="549.3437,-526.4688 539.1271,-523.6633 545.3643,-532.2276 549.3437,-526.4688"/>
</g>
<!-- Node26&#45;&gt;Node3 -->
<g id="edge47" class="edge">
<title>Node26&#45;&gt;Node3</title>
<path fill="none" stroke="#191970" d="M518.0094,-504.3478C511.8313,-495.4157 503.2584,-481.5144 499.1428,-468 468.7555,-368.2172 481.1428,-338.3072 481.1428,-234 481.1428,-234 481.1428,-234 481.1428,-122 481.1428,-63.4218 890.482,-27.6447 1064.4228,-15.0862"/>
<polygon fill="#191970" stroke="#191970" points="1064.8074,-18.5678 1074.5323,-14.3634 1064.3081,-11.5856 1064.8074,-18.5678"/>
</g>
<!-- Node26&#45;&gt;Node4 -->
<g id="edge48" class="edge">
<title>Node26&#45;&gt;Node4</title>
<path fill="none" stroke="#191970" d="M479.2057,-504.4369C432.8783,-494.7925 361.316,-479.8948 311.796,-469.5858"/>
<polygon fill="#191970" stroke="#191970" points="312.3939,-466.1353 301.8905,-467.5237 310.9672,-472.9884 312.3939,-466.1353"/>
</g>
<!-- Node26&#45;&gt;Node12 -->
<g id="edge50" class="edge">
<title>Node26&#45;&gt;Node12</title>
<path fill="none" stroke="#191970" d="M519.1663,-504.2032C514.0316,-495.1737 507.0157,-481.2108 504.1428,-468 502.2539,-459.3141 503.4945,-456.8652 504.1428,-448 507.4851,-402.3011 519.1428,-391.8209 519.1428,-346 519.1428,-346 519.1428,-346 519.1428,-234 519.1428,-199.3444 536.6673,-162.1312 548.802,-140.5174"/>
<polygon fill="#191970" stroke="#191970" points="551.9009,-142.1511 553.9158,-131.7496 545.8542,-138.6243 551.9009,-142.1511"/>
</g>
<!-- Node26&#45;&gt;Node19 -->
<g id="edge51" class="edge">
<title>Node26&#45;&gt;Node19</title>
<path fill="none" stroke="#191970" d="M542.9366,-504.4696C559.6816,-495.3952 585.368,-481.2015 607.1428,-468 698.8512,-412.3997 713.8133,-385.1336 809.1428,-336 848.1717,-315.8842 861.5137,-318.9059 901.1428,-300 933.8594,-284.3918 969.9103,-263.212 993.0019,-249.0994"/>
<polygon fill="#191970" stroke="#191970" points="995.0866,-251.926 1001.7657,-243.7017 991.4156,-245.9658 995.0866,-251.926"/>
</g>
<!-- Node27 -->
<g id="node27" class="node">
<title>Node27</title>
<g id="a_node27"><a xlink:title=" ">
<polygon fill="#ffffff" stroke="#bfbfbf" points="513.6428,-448.5 513.6428,-467.5 598.6428,-467.5 598.6428,-448.5 513.6428,-448.5"/>
<text text-anchor="middle" x="556.1428" y="-455.5" font-family="Helvetica,sans-Serif" font-size="10.00" fill="#000000">AH/STL/iterator</text>
</a>
</g>
</g>
<!-- Node26&#45;&gt;Node27 -->
<g id="edge49" class="edge">
<title>Node26&#45;&gt;Node27</title>
<path fill="none" stroke="#191970" d="M530.5426,-504.2455C534.7655,-496.617 540.7601,-485.7881 545.8869,-476.5267"/>
<polygon fill="#191970" stroke="#191970" points="549.0238,-478.0867 550.8049,-467.6427 542.8996,-474.6965 549.0238,-478.0867"/>
</g>
<!-- Node30 -->
<g id="node30" class="node">
<title>Node30</title>
<g id="a_node30"><a xlink:href="../../d4/d57/Bank_8hpp.html" target="_top" xlink:title=" ">
<polygon fill="#ffffff" stroke="#000000" points="625.1428,-817.5 625.1428,-836.5 683.1428,-836.5 683.1428,-817.5 625.1428,-817.5"/>
<text text-anchor="middle" x="654.1428" y="-824.5" font-family="Helvetica,sans-Serif" font-size="10.00" fill="#000000">Bank.hpp</text>
</a>
</g>
</g>
<!-- Node29&#45;&gt;Node30 -->
<g id="edge57" class="edge">
<title>Node29&#45;&gt;Node30</title>
<path fill="none" stroke="#191970" d="M579.8196,-873.2455C593.6284,-864.6534 613.9621,-852.0014 629.8721,-842.1018"/>
<polygon fill="#191970" stroke="#191970" points="632.0042,-844.8974 638.6457,-836.6427 628.306,-838.954 632.0042,-844.8974"/>
</g>
<!-- Node38 -->
<g id="node38" class="node">
<title>Node38</title>
<g id="a_node38"><a xlink:href="../../dd/d1f/BankConfig_8hpp.html" target="_top" xlink:title=" ">
<polygon fill="#ffffff" stroke="#000000" points="494.1428,-694.5 494.1428,-713.5 580.1428,-713.5 580.1428,-694.5 494.1428,-694.5"/>
<text text-anchor="middle" x="537.1428" y="-701.5" font-family="Helvetica,sans-Serif" font-size="10.00" fill="#000000">BankConfig.hpp</text>
</a>
</g>
</g>
<!-- Node29&#45;&gt;Node38 -->
<g id="edge87" class="edge">
<title>Node29&#45;&gt;Node38</title>
<path fill="none" stroke="#191970" d="M556.4809,-873.4654C549.8941,-864.6125 540.8831,-850.7614 537.1428,-837 526.5391,-797.9866 530.4401,-750.1244 533.9652,-723.7673"/>
<polygon fill="#191970" stroke="#191970" points="537.4714,-723.979 535.4572,-713.5774 530.5453,-722.9648 537.4714,-723.979"/>
</g>
<!-- Node39 -->
<g id="node39" class="node">
<title>Node39</title>
<g id="a_node39"><a xlink:href="../../db/dd6/MIDIAddress_8hpp.html" target="_top" xlink:title=" ">
<polygon fill="#ffffff" stroke="#000000" points="598.1428,-694.5 598.1428,-713.5 710.1428,-713.5 710.1428,-694.5 598.1428,-694.5"/>
<text text-anchor="middle" x="654.1428" y="-701.5" font-family="Helvetica,sans-Serif" font-size="10.00" fill="#000000">Def/MIDIAddress.hpp</text>
</a>
</g>
</g>
<!-- Node29&#45;&gt;Node39 -->
<g id="edge88" class="edge">
<title>Node29&#45;&gt;Node39</title>
<path fill="none" stroke="#191970" d="M561.6161,-873.3785C556.0923,-850.1174 545.3212,-789.8179 570.1428,-750 579.3935,-735.1605 595.2207,-724.7501 610.6596,-717.6342"/>
<polygon fill="#191970" stroke="#191970" points="612.3113,-720.7359 620.16,-713.6191 609.5863,-714.2881 612.3113,-720.7359"/>
</g>
<!-- Node30&#45;&gt;Node4 -->
<g id="edge59" class="edge">
<title>Node30&#45;&gt;Node4</title>
<path fill="none" stroke="#191970" d="M624.9258,-825.0881C527.3934,-817.9171 219.1428,-788.5642 219.1428,-704 219.1428,-704 219.1428,-704 219.1428,-642.5 219.1428,-581.4498 238.8591,-511.2157 249.5066,-477.7378"/>
<polygon fill="#191970" stroke="#191970" points="252.955,-478.4523 252.7283,-467.8598 246.3,-476.2817 252.955,-478.4523"/>
</g>
<!-- Node30&#45;&gt;Node5 -->
<g id="edge58" class="edge">
<title>Node30&#45;&gt;Node5</title>
<path fill="none" stroke="#191970" d="M677.2834,-817.4625C725.6738,-797.0022 834.7739,-747.9971 855.1428,-714 912.7446,-617.8587 883.147,-473.4171 869.6506,-421.4723"/>
<polygon fill="#191970" stroke="#191970" points="872.9672,-420.3288 866.9805,-411.5876 866.2094,-422.1543 872.9672,-420.3288"/>
</g>
<!-- Node31 -->
<g id="node31" class="node">
<title>Node31</title>
<g id="a_node31"><a xlink:href="../../de/dd1/LinkedList_8hpp.html" target="_top" xlink:title=" ">
<polygon fill="#ffffff" stroke="#000000" points="903.6428,-448.5 903.6428,-467.5 1050.6428,-467.5 1050.6428,-448.5 903.6428,-448.5"/>
<text text-anchor="middle" x="977.1428" y="-455.5" font-family="Helvetica,sans-Serif" font-size="10.00" fill="#000000">AH/Containers/LinkedList.hpp</text>
</a>
</g>
</g>
<!-- Node30&#45;&gt;Node31 -->
<g id="edge60" class="edge">
<title>Node30&#45;&gt;Node31</title>
<path fill="none" stroke="#191970" d="M683.3888,-824.4214C755.5955,-817.7985 937.9568,-799.4141 958.1428,-781 984.1841,-757.2446 977.1428,-739.2487 977.1428,-704 977.1428,-704 977.1428,-704 977.1428,-575.5 977.1428,-541.1399 977.1428,-501.128 977.1428,-477.7764"/>
<polygon fill="#191970" stroke="#191970" points="980.6429,-477.7489 977.1428,-467.7489 973.6429,-477.749 980.6429,-477.7489"/>
</g>
<!-- Node34 -->
<g id="node34" class="node">
<title>Node34</title>
<g id="a_node34"><a xlink:href="../../d9/d46/Selectable_8hpp.html" target="_top" xlink:title=" ">
<polygon fill="#ffffff" stroke="#000000" points="270.6428,-694.5 270.6428,-713.5 395.6428,-713.5 395.6428,-694.5 270.6428,-694.5"/>
<text text-anchor="middle" x="333.1428" y="-701.5" font-family="Helvetica,sans-Serif" font-size="10.00" fill="#000000">Selectors/Selectable.hpp</text>
</a>
</g>
</g>
<!-- Node30&#45;&gt;Node34 -->
<g id="edge66" class="edge">
<title>Node30&#45;&gt;Node34</title>
<path fill="none" stroke="#191970" d="M629.2216,-817.4507C572.3358,-795.6534 432.8252,-742.1961 367.6912,-717.2381"/>
<polygon fill="#191970" stroke="#191970" points="368.8598,-713.9378 358.2695,-713.628 366.3551,-720.4744 368.8598,-713.9378"/>
</g>
<!-- Node37 -->
<g id="node37" class="node">
<title>Node37</title>
<g id="a_node37"><a xlink:href="../../de/d6e/BankableMIDIInput_8hpp.html" target="_top" xlink:title=" ">
<polygon fill="#ffffff" stroke="#000000" points="579.1428,-756 579.1428,-775 729.1428,-775 729.1428,-756 579.1428,-756"/>
<text text-anchor="middle" x="654.1428" y="-763" font-family="Helvetica,sans-Serif" font-size="10.00" fill="#000000">Banks/BankableMIDIInput.hpp</text>
</a>
</g>
</g>
<!-- Node30&#45;&gt;Node37 -->
<g id="edge79" class="edge">
<title>Node30&#45;&gt;Node37</title>
<path fill="none" stroke="#191970" d="M649.0803,-817.3906C647.4169,-808.8657 646.9833,-796.1392 647.7793,-785.4235"/>
<polygon fill="#191970" stroke="#191970" points="651.2842,-785.6023 649.0541,-775.2449 644.3384,-784.7324 651.2842,-785.6023"/>
</g>
<!-- Node31&#45;&gt;Node3 -->
<g id="edge61" class="edge">
<title>Node31&#45;&gt;Node3</title>
<path fill="none" stroke="#191970" d="M974.018,-448.1924C967.4131,-427.47 951.5402,-377.7068 938.1428,-336 915.5752,-265.7459 887.1428,-251.7898 887.1428,-178 887.1428,-178 887.1428,-178 887.1428,-122 887.1428,-88.3717 897.057,-75.9305 924.1428,-56 946.2894,-39.7039 1011.2469,-27.2753 1064.3647,-19.4699"/>
<polygon fill="#191970" stroke="#191970" points="1065.0717,-22.9044 1074.4727,-18.0186 1064.0768,-15.9754 1065.0717,-22.9044"/>
</g>
<!-- Node31&#45;&gt;Node5 -->
<g id="edge62" class="edge">
<title>Node31&#45;&gt;Node5</title>
<path fill="none" stroke="#191970" d="M957.7174,-448.3733C939.7407,-439.4644 912.7987,-426.1127 892.4338,-416.0203"/>
<polygon fill="#191970" stroke="#191970" points="893.829,-412.8055 883.3147,-411.5011 890.7207,-419.0776 893.829,-412.8055"/>
</g>
<!-- Node31&#45;&gt;Node9 -->
<g id="edge63" class="edge">
<title>Node31&#45;&gt;Node9</title>
<path fill="none" stroke="#191970" d="M1024.9226,-448.4671C1128.4019,-426.6392 1366.9385,-369.517 1404.1428,-300 1439.2506,-234.4006 1333.5824,-309.0218 1281.1428,-244 1257.0686,-214.1494 1275.4946,-166.3456 1288.7334,-140.3247"/>
<polygon fill="#191970" stroke="#191970" points="1291.8226,-141.9699 1293.4539,-131.5013 1285.6505,-138.6677 1291.8226,-141.9699"/>
</g>
<!-- Node32 -->
<g id="node32" class="node">
<title>Node32</title>
<g id="a_node32"><a xlink:title=" ">
<polygon fill="#ffffff" stroke="#bfbfbf" points="977.1428,-392.5 977.1428,-411.5 1025.1428,-411.5 1025.1428,-392.5 977.1428,-392.5"/>
<text text-anchor="middle" x="1001.1428" y="-399.5" font-family="Helvetica,sans-Serif" font-size="10.00" fill="#000000">stdlib.h</text>
</a>
</g>
</g>
<!-- Node31&#45;&gt;Node32 -->
<g id="edge64" class="edge">
<title>Node31&#45;&gt;Node32</title>
<path fill="none" stroke="#191970" d="M981.3233,-448.2455C984.5238,-440.7776 989.0388,-430.2427 992.9512,-421.1137"/>
<polygon fill="#191970" stroke="#191970" points="996.288,-422.2129 997.0103,-411.6427 989.854,-419.4554 996.288,-422.2129"/>
</g>
<!-- Node33 -->
<g id="node33" class="node">
<title>Node33</title>
<g id="a_node33"><a xlink:title=" ">
<polygon fill="#ffffff" stroke="#bfbfbf" points="1043.6428,-392.5 1043.6428,-411.5 1090.6428,-411.5 1090.6428,-392.5 1043.6428,-392.5"/>
<text text-anchor="middle" x="1067.1428" y="-399.5" font-family="Helvetica,sans-Serif" font-size="10.00" fill="#000000">iterator</text>
</a>
</g>
</g>
<!-- Node31&#45;&gt;Node33 -->
<g id="edge65" class="edge">
<title>Node31&#45;&gt;Node33</title>
<path fill="none" stroke="#191970" d="M992.8196,-448.2455C1006.6284,-439.6534 1026.9621,-427.0014 1042.8721,-417.1018"/>
<polygon fill="#191970" stroke="#191970" points="1045.0042,-419.8974 1051.6457,-411.6427 1041.306,-413.954 1045.0042,-419.8974"/>
</g>
<!-- Node34&#45;&gt;Node4 -->
<g id="edge67" class="edge">
<title>Node34&#45;&gt;Node4</title>
<path fill="none" stroke="#191970" d="M330.1243,-694.3565C318.6728,-657.771 277.7743,-527.1083 262.2127,-477.3922"/>
<polygon fill="#191970" stroke="#191970" points="265.4679,-476.0747 259.1405,-467.5768 258.7875,-478.1658 265.4679,-476.0747"/>
</g>
<!-- Node34&#45;&gt;Node12 -->
<g id="edge68" class="edge">
<title>Node34&#45;&gt;Node12</title>
<path fill="none" stroke="#191970" d="M333.1428,-694.3281C333.1428,-672.9175 333.1428,-619.895 333.1428,-575.5 333.1428,-575.5 333.1428,-575.5 333.1428,-514 333.1428,-384.2793 227.061,-331.1751 300.1428,-224 324.7475,-187.917 443.4658,-152.1093 511.6638,-134.0562"/>
<polygon fill="#191970" stroke="#191970" points="512.5539,-137.4412 521.342,-131.5236 510.7817,-130.6693 512.5539,-137.4412"/>
</g>
<!-- Node34&#45;&gt;Node20 -->
<g id="edge78" class="edge">
<title>Node34&#45;&gt;Node20</title>
<path fill="none" stroke="#191970" d="M321.542,-694.386C283.6989,-661.7921 167.9709,-551.7291 198.1428,-448 221.9449,-366.1703 287.5228,-285.7223 318.0807,-251.3628"/>
<polygon fill="#191970" stroke="#191970" points="320.9436,-253.4149 325.0485,-243.6475 315.7485,-248.7232 320.9436,-253.4149"/>
</g>
<!-- Node34&#45;&gt;Node35 -->
<g id="edge69" class="edge">
<title>Node34&#45;&gt;Node35</title>
<path fill="none" stroke="#191970" d="M376.7408,-694.4581C429.0215,-683.0159 516.204,-663.935 569.1126,-652.3554"/>
<polygon fill="#191970" stroke="#191970" points="569.8763,-655.7712 578.8967,-650.214 568.3796,-648.933 569.8763,-655.7712"/>
</g>
<!-- Node35&#45;&gt;Node13 -->
<g id="edge75" class="edge">
<title>Node35&#45;&gt;Node13</title>
<path fill="none" stroke="#191970" d="M635.9949,-632.9516C652.2932,-624.5159 673.3602,-610.5086 683.1428,-591 689.3187,-578.6839 684.2724,-573.7314 683.1428,-560 678.1395,-499.1775 644.1546,-314.2833 632.8163,-253.556"/>
<polygon fill="#191970" stroke="#191970" points="636.2553,-252.9049 630.9748,-243.7197 629.3748,-254.1931 636.2553,-252.9049"/>
</g>
<!-- Node35&#45;&gt;Node19 -->
<g id="edge76" class="edge">
<title>Node35&#45;&gt;Node19</title>
<path fill="none" stroke="#191970" d="M647.9312,-632.929C696.2041,-616.947 779.1428,-579.8992 779.1428,-514 779.1428,-514 779.1428,-514 779.1428,-458 779.1428,-396.975 793.3586,-372.6626 842.1428,-336 877.2434,-309.621 896.091,-321.908 934.1428,-300 958.5985,-285.9199 983.5244,-265.0393 999.5898,-250.5498"/>
<polygon fill="#191970" stroke="#191970" points="1002.1336,-252.9658 1007.134,-243.6251 997.4001,-247.8088 1002.1336,-252.9658"/>
</g>
<!-- Node35&#45;&gt;Node20 -->
<g id="edge77" class="edge">
<title>Node35&#45;&gt;Node20</title>
<path fill="none" stroke="#191970" d="M579.0048,-637.2936C530.0668,-629.3518 444.9286,-612.8056 423.1428,-591 327.5011,-495.2711 329.2043,-313.5051 332.6369,-253.653"/>
<polygon fill="#191970" stroke="#191970" points="336.1304,-253.8644 333.2965,-243.6556 329.1456,-253.4035 336.1304,-253.8644"/>
</g>
<!-- Node35&#45;&gt;Node25 -->
<g id="edge74" class="edge">
<title>Node35&#45;&gt;Node25</title>
<path fill="none" stroke="#191970" d="M614.1428,-632.9005C614.1428,-624.5099 614.1428,-611.9451 614.1428,-600.7085"/>
<polygon fill="#191970" stroke="#191970" points="617.6429,-600.5217 614.1428,-590.5218 610.6429,-600.5218 617.6429,-600.5217"/>
</g>
<!-- Node35&#45;&gt;Node26 -->
<g id="edge73" class="edge">
<title>Node35&#45;&gt;Node26</title>
<path fill="none" stroke="#191970" d="M594.226,-632.8252C578.2989,-624.0695 556.6352,-609.6897 544.1428,-591 532.7038,-573.8863 528.1455,-550.501 526.3326,-534.0055"/>
<polygon fill="#191970" stroke="#191970" points="529.8034,-533.514 525.4653,-523.848 522.8288,-534.1096 529.8034,-533.514"/>
</g>
<!-- Node36 -->
<g id="node36" class="node">
<title>Node36</title>
<g id="a_node36"><a xlink:href="../../d7/d42/Channel_8hpp.html" target="_top" xlink:title=" ">
<polygon fill="#ffffff" stroke="#000000" points="381.6428,-280.5 381.6428,-299.5 452.6428,-299.5 452.6428,-280.5 381.6428,-280.5"/>
<text text-anchor="middle" x="417.1428" y="-287.5" font-family="Helvetica,sans-Serif" font-size="10.00" fill="#000000">Channel.hpp</text>
</a>
</g>
</g>
<!-- Node35&#45;&gt;Node36 -->
<g id="edge70" class="edge">
<title>Node35&#45;&gt;Node36</title>
<path fill="none" stroke="#191970" d="M578.9021,-636.9241C520.2895,-625.4241 409.1428,-593.1781 409.1428,-514 409.1428,-514 409.1428,-514 409.1428,-402 409.1428,-369.6293 412.5088,-332.1294 414.8741,-309.7743"/>
<polygon fill="#191970" stroke="#191970" points="418.3819,-309.8948 415.9966,-299.5719 411.4239,-309.1291 418.3819,-309.8948"/>
</g>
<!-- Node36&#45;&gt;Node13 -->
<g id="edge72" class="edge">
<title>Node36&#45;&gt;Node13</title>
<path fill="none" stroke="#191970" d="M453.1057,-280.5004C488.892,-271.0474 543.9554,-256.5023 582.9576,-246.1999"/>
<polygon fill="#191970" stroke="#191970" points="584.229,-249.4842 593.0035,-243.5462 582.4412,-242.7163 584.229,-249.4842"/>
</g>
<!-- Node36&#45;&gt;Node20 -->
<g id="edge71" class="edge">
<title>Node36&#45;&gt;Node20</title>
<path fill="none" stroke="#191970" d="M402.6853,-280.2455C390.0696,-271.7337 371.5484,-259.2375 356.9383,-249.3801"/>
<polygon fill="#191970" stroke="#191970" points="358.6819,-246.3343 348.4346,-243.6427 354.7667,-252.1371 358.6819,-246.3343"/>
</g>
<!-- Node37&#45;&gt;Node5 -->
<g id="edge85" class="edge">
<title>Node37&#45;&gt;Node5</title>
<path fill="none" stroke="#191970" d="M689.9139,-755.9059C737.8956,-740.6147 817.1428,-705.781 817.1428,-642.5 817.1428,-642.5 817.1428,-642.5 817.1428,-514 817.1428,-478.5481 837.4132,-441.3564 851.33,-419.9999"/>
<polygon fill="#191970" stroke="#191970" points="854.2978,-421.8593 857.0045,-411.6161 848.5008,-417.9356 854.2978,-421.8593"/>
</g>
<!-- Node37&#45;&gt;Node30 -->
<g id="edge80" class="edge">
<title>Node37&#45;&gt;Node30</title>
<path fill="none" stroke="#191970" d="M659.2316,-775.2449C660.882,-783.814 661.3027,-796.5519 660.4936,-807.2462"/>
<polygon fill="#191970" stroke="#191970" points="656.9931,-807.0293 659.2053,-817.3906 663.9373,-807.9113 656.9931,-807.0293"/>
</g>
<!-- Node37&#45;&gt;Node31 -->
<g id="edge86" class="edge">
<title>Node37&#45;&gt;Node31</title>
<path fill="none" stroke="#191970" d="M701.2422,-755.9865C746.5241,-746.1095 810.9773,-729.9047 831.1428,-714 913.1365,-649.3309 957.1915,-525.0551 971.684,-477.3245"/>
<polygon fill="#191970" stroke="#191970" points="975.0719,-478.2096 974.5365,-467.6283 968.3564,-476.2339 975.0719,-478.2096"/>
</g>
<!-- Node37&#45;&gt;Node38 -->
<g id="edge81" class="edge">
<title>Node37&#45;&gt;Node38</title>
<path fill="none" stroke="#191970" d="M635.8616,-755.8906C616.6288,-745.7811 586.1549,-729.7628 564.1503,-718.1962"/>
<polygon fill="#191970" stroke="#191970" points="565.7759,-715.0967 555.2957,-713.5419 562.5189,-721.2928 565.7759,-715.0967"/>
</g>
<!-- Node37&#45;&gt;Node39 -->
<g id="edge83" class="edge">
<title>Node37&#45;&gt;Node39</title>
<path fill="none" stroke="#191970" d="M654.1428,-755.8906C654.1428,-747.3657 654.1428,-734.6392 654.1428,-723.9235"/>
<polygon fill="#191970" stroke="#191970" points="657.6429,-723.7448 654.1428,-713.7449 650.6429,-723.7449 657.6429,-723.7448"/>
</g>
<!-- Node38&#45;&gt;Node35 -->
<g id="edge82" class="edge">
<title>Node38&#45;&gt;Node35</title>
<path fill="none" stroke="#191970" d="M549.1741,-694.3906C561.1535,-684.8227 579.7594,-669.9621 593.9953,-658.5919"/>
<polygon fill="#191970" stroke="#191970" points="596.5667,-661.0175 602.1961,-652.0419 592.1981,-655.5479 596.5667,-661.0175"/>
</g>
<!-- Node39&#45;&gt;Node35 -->
<g id="edge84" class="edge">
<title>Node39&#45;&gt;Node35</title>
<path fill="none" stroke="#191970" d="M647.8928,-694.3906C642.0563,-685.417 633.1919,-671.7879 626.0122,-660.7491"/>
<polygon fill="#191970" stroke="#191970" points="628.8673,-658.7194 620.4809,-652.2449 622.9993,-662.5361 628.8673,-658.7194"/>
</g>
<!-- Node40&#45;&gt;Node35 -->
<g id="edge99" class="edge">
<title>Node40&#45;&gt;Node35</title>
<path fill="none" stroke="#191970" d="M861.1131,-750.3733C835.1638,-735.0429 793.1487,-711.1964 755.1428,-694 721.7971,-678.9121 682.6027,-664.8792 654.0126,-655.2845"/>
<polygon fill="#191970" stroke="#191970" points="654.9626,-651.9121 644.3692,-652.0814 652.7561,-658.5552 654.9626,-651.9121"/>
</g>
<!-- Node40&#45;&gt;Node39 -->
<g id="edge100" class="edge">
<title>Node40&#45;&gt;Node39</title>
<path fill="none" stroke="#191970" d="M829.3892,-750.4554C789.6608,-739.9239 737.2584,-726.0328 700.1364,-716.1923"/>
<polygon fill="#191970" stroke="#191970" points="700.6576,-712.7096 690.0946,-713.5303 698.8639,-719.4759 700.6576,-712.7096"/>
</g>
<!-- Node41 -->
<g id="node41" class="node">
<title>Node41</title>
<g id="a_node41"><a xlink:href="../../d4/d93/Updatable_8hpp.html" target="_top" xlink:title=" ">
<polygon fill="#ffffff" stroke="#000000" points="1024.6428,-504.5 1024.6428,-523.5 1171.6428,-523.5 1171.6428,-504.5 1024.6428,-504.5"/>
<text text-anchor="middle" x="1098.1428" y="-511.5" font-family="Helvetica,sans-Serif" font-size="10.00" fill="#000000">AH/Containers/Updatable.hpp</text>
</a>
</g>
</g>
<!-- Node40&#45;&gt;Node41 -->
<g id="edge91" class="edge">
<title>Node40&#45;&gt;Node41</title>
<path fill="none" stroke="#191970" d="M899.0852,-750.1461C936.4078,-705.8697 1044.0827,-578.1327 1083.4788,-531.3962"/>
<polygon fill="#191970" stroke="#191970" points="1086.239,-533.5523 1090.008,-523.6505 1080.8868,-529.0407 1086.239,-533.5523"/>
</g>
<!-- Node41&#45;&gt;Node3 -->
<g id="edge92" class="edge">
<title>Node41&#45;&gt;Node3</title>
<path fill="none" stroke="#191970" d="M1171.8166,-508.7645C1244.0971,-502.4553 1348.2555,-489.8725 1382.1428,-468 1486.9532,-400.3505 1537.1428,-358.7465 1537.1428,-234 1537.1428,-234 1537.1428,-234 1537.1428,-122 1537.1428,-72.3971 1493.0025,-74.9033 1447.1428,-56 1406.858,-39.3946 1294.7605,-25.3634 1218.0352,-17.3116"/>
<polygon fill="#191970" stroke="#191970" points="1218.232,-13.8133 1207.9244,-16.2635 1217.5102,-20.776 1218.232,-13.8133"/>
</g>
<!-- Node41&#45;&gt;Node4 -->
<g id="edge95" class="edge">
<title>Node41&#45;&gt;Node4</title>
<path fill="none" stroke="#191970" d="M1024.5267,-509.1039C860.1766,-498.1733 466.0415,-471.96 315.7467,-461.9642"/>
<polygon fill="#191970" stroke="#191970" points="315.5636,-458.4443 305.3533,-461.2729 315.099,-465.4289 315.5636,-458.4443"/>
</g>
<!-- Node41&#45;&gt;Node14 -->
<g id="edge97" class="edge">
<title>Node41&#45;&gt;Node14</title>
<path fill="none" stroke="#191970" d="M1103.1241,-504.2221C1110.0391,-490.9921 1123.2706,-466.8749 1137.1428,-448 1160.7267,-415.9112 1192.6896,-382.284 1212.0648,-362.7796"/>
<polygon fill="#191970" stroke="#191970" points="1214.692,-365.1026 1219.3015,-355.5631 1209.7491,-360.146 1214.692,-365.1026"/>
</g>
<!-- Node41&#45;&gt;Node19 -->
<g id="edge98" class="edge">
<title>Node41&#45;&gt;Node19</title>
<path fill="none" stroke="#191970" d="M1099.9572,-504.3201C1103.5159,-483.4291 1110.2273,-432.7128 1100.1428,-392 1095.793,-374.439 1089.5673,-372.0105 1081.1428,-356 1061.9445,-319.514 1039.5834,-276.8498 1027.0231,-252.8697"/>
<polygon fill="#191970" stroke="#191970" points="1030.0179,-251.0439 1022.2779,-243.8089 1023.8168,-254.2914 1030.0179,-251.0439"/>
</g>
<!-- Node41&#45;&gt;Node31 -->
<g id="edge94" class="edge">
<title>Node41&#45;&gt;Node31</title>
<path fill="none" stroke="#191970" d="M1077.3422,-504.3733C1057.9185,-495.3838 1028.7205,-481.8706 1006.8464,-471.7471"/>
<polygon fill="#191970" stroke="#191970" points="1008.2173,-468.5249 997.672,-467.5011 1005.2772,-474.8776 1008.2173,-468.5249"/>
</g>
<!-- Node42 -->
<g id="node42" class="node">
<title>Node42</title>
<g id="a_node42"><a xlink:href="../../d8/db4/AH_2Containers_2CRTP_8hpp.html" target="_top" xlink:title=" ">
<polygon fill="#ffffff" stroke="#000000" points="1145.6428,-448.5 1145.6428,-467.5 1276.6428,-467.5 1276.6428,-448.5 1145.6428,-448.5"/>
<text text-anchor="middle" x="1211.1428" y="-455.5" font-family="Helvetica,sans-Serif" font-size="10.00" fill="#000000">AH/Containers/CRTP.hpp</text>
</a>
</g>
</g>
<!-- Node41&#45;&gt;Node42 -->
<g id="edge93" class="edge">
<title>Node41&#45;&gt;Node42</title>
<path fill="none" stroke="#191970" d="M1117.5682,-504.3733C1135.545,-495.4644 1162.4869,-482.1127 1182.8519,-472.0203"/>
<polygon fill="#191970" stroke="#191970" points="1184.565,-475.0776 1191.9709,-467.5011 1181.4567,-468.8055 1184.565,-475.0776"/>
</g>
<!-- Node43 -->
<g id="node43" class="node">
<title>Node43</title>
<g id="a_node43"><a xlink:title=" ">
<polygon fill="#ffffff" stroke="#bfbfbf" points="1295.1428,-448.5 1295.1428,-467.5 1373.1428,-467.5 1373.1428,-448.5 1295.1428,-448.5"/>
<text text-anchor="middle" x="1334.1428" y="-455.5" font-family="Helvetica,sans-Serif" font-size="10.00" fill="#000000">AH/STL/utility</text>
</a>
</g>
</g>
<!-- Node41&#45;&gt;Node43 -->
<g id="edge96" class="edge">
<title>Node41&#45;&gt;Node43</title>
<path fill="none" stroke="#191970" d="M1138.4445,-504.4369C1178.9935,-494.8151 1241.5782,-479.9645 1285.0116,-469.6583"/>
<polygon fill="#191970" stroke="#191970" points="1285.8715,-473.0515 1294.7933,-467.3372 1284.2553,-466.2406 1285.8715,-473.0515"/>
</g>
</g>
</svg>
