<?xml version="1.0" encoding="UTF-8" standalone="no"?>
<!DOCTYPE svg PUBLIC "-//W3C//DTD SVG 1.1//EN"
 "http://www.w3.org/Graphics/SVG/1.1/DTD/svg11.dtd">
<!-- Generated by graphviz version 2.43.0 (0)
 -->
<!-- Title: SerialMIDI_Parser.hpp Pages: 1 -->
<svg width="1049pt" height="148pt"
 viewBox="0.00 0.00 1048.50 148.00" xmlns="http://www.w3.org/2000/svg" xmlns:xlink="http://www.w3.org/1999/xlink">
<g id="graph0" class="graph" transform="scale(1 1) rotate(0) translate(4 144)">
<title>SerialMIDI_Parser.hpp</title>
<!-- Node1 -->
<g id="Node000001" class="node">
<title>Node1</title>
<g id="a_Node000001"><a xlink:title=" ">
<polygon fill="#999999" stroke="#666666" points="696.5,-140 574.5,-140 574.5,-121 696.5,-121 696.5,-140"/>
<text text-anchor="middle" x="635.5" y="-128" font-family="Helvetica,sans-Serif" font-size="10.00">SerialMIDI_Parser.hpp</text>
</a>
</g>
</g>
<!-- Node2 -->
<g id="Node000002" class="node">
<title>Node2</title>
<g id="a_Node000002"><a xlink:href="../../df/ded/BluetoothMIDI__Interface_8hpp.html" target="_top" xlink:title=" ">
<polygon fill="white" stroke="#666666" points="316.5,-85 160.5,-85 160.5,-66 316.5,-66 316.5,-85"/>
<text text-anchor="middle" x="238.5" y="-73" font-family="Helvetica,sans-Serif" font-size="10.00">BluetoothMIDI_Interface.hpp</text>
</a>
</g>
</g>
<!-- Node1&#45;&gt;Node2 -->
<g id="edge1_Node000001_Node000002" class="edge">
<title>Node1&#45;&gt;Node2</title>
<g id="a_edge1_Node000001_Node000002"><a xlink:title=" ">
<path fill="none" stroke="#63b8ff" d="M564.11,-119.97C489.62,-110.03 373.92,-94.58 302.36,-85.03"/>
<polygon fill="#63b8ff" stroke="#63b8ff" points="563.96,-123.48 574.34,-121.33 564.89,-116.54 563.96,-123.48"/>
</a>
</g>
</g>
<!-- Node4 -->
<g id="Node000004" class="node">
<title>Node4</title>
<g id="a_Node000004"><a xlink:href="../../db/d55/DebugMIDI__Interface_8hpp.html" target="_top" xlink:title=" ">
<polygon fill="white" stroke="#666666" points="627.5,-85 487.5,-85 487.5,-66 627.5,-66 627.5,-85"/>
<text text-anchor="middle" x="557.5" y="-73" font-family="Helvetica,sans-Serif" font-size="10.00">DebugMIDI_Interface.hpp</text>
</a>
</g>
</g>
<!-- Node1&#45;&gt;Node4 -->
<g id="edge3_Node000001_Node000004" class="edge">
<title>Node1&#45;&gt;Node4</title>
<g id="a_edge3_Node000001_Node000004"><a xlink:title=" ">
<path fill="none" stroke="#63b8ff" d="M614.38,-115.15C600.29,-105.57 582.21,-93.29 570.26,-85.17"/>
<polygon fill="#63b8ff" stroke="#63b8ff" points="612.73,-118.26 622.97,-120.98 616.66,-112.47 612.73,-118.26"/>
</a>
</g>
</g>
<!-- Node9 -->
<g id="Node000009" class="node">
<title>Node9</title>
<g id="a_Node000009"><a xlink:href="../../d1/d23/SerialMIDI__Interface_8hpp.html" target="_top" xlink:title=" ">
<polygon fill="white" stroke="#666666" points="783,-85 646,-85 646,-66 783,-66 783,-85"/>
<text text-anchor="middle" x="714.5" y="-73" font-family="Helvetica,sans-Serif" font-size="10.00">SerialMIDI_Interface.hpp</text>
</a>
</g>
</g>
<!-- Node1&#45;&gt;Node9 -->
<g id="edge8_Node000001_Node000009" class="edge">
<title>Node1&#45;&gt;Node9</title>
<g id="a_edge8_Node000001_Node000009"><a xlink:title=" ">
<path fill="none" stroke="#63b8ff" d="M656.89,-115.15C671.17,-105.57 689.47,-93.29 701.58,-85.17"/>
<polygon fill="#63b8ff" stroke="#63b8ff" points="654.55,-112.51 648.19,-120.98 658.45,-118.32 654.55,-112.51"/>
</a>
</g>
</g>
<!-- Node12 -->
<g id="Node000012" class="node">
<title>Node12</title>
<g id="a_Node000012"><a xlink:href="../../d1/d49/SerialMIDI__Parser_8cpp.html" target="_top" xlink:title=" ">
<polygon fill="white" stroke="#666666" points="923.5,-85 801.5,-85 801.5,-66 923.5,-66 923.5,-85"/>
<text text-anchor="middle" x="862.5" y="-73" font-family="Helvetica,sans-Serif" font-size="10.00">SerialMIDI_Parser.cpp</text>
</a>
</g>
</g>
<!-- Node1&#45;&gt;Node12 -->
<g id="edge12_Node000001_Node000012" class="edge">
<title>Node1&#45;&gt;Node12</title>
<g id="a_edge12_Node000001_Node000012"><a xlink:title=" ">
<path fill="none" stroke="#63b8ff" d="M681.8,-118.69C724.33,-108.76 786.53,-94.24 825.74,-85.08"/>
<polygon fill="#63b8ff" stroke="#63b8ff" points="680.91,-115.3 671.97,-120.98 682.51,-122.12 680.91,-115.3"/>
</a>
</g>
</g>
<!-- Node3 -->
<g id="Node000003" class="node">
<title>Node3</title>
<g id="a_Node000003"><a xlink:href="../../d8/d2c/BluetoothMIDI__Interface_8cpp.html" target="_top" xlink:title=" ">
<polygon fill="white" stroke="#666666" points="155,-24.5 0,-24.5 0,-5.5 155,-5.5 155,-24.5"/>
<text text-anchor="middle" x="77.5" y="-12.5" font-family="Helvetica,sans-Serif" font-size="10.00">BluetoothMIDI_Interface.cpp</text>
</a>
</g>
</g>
<!-- Node2&#45;&gt;Node3 -->
<g id="edge2_Node000002_Node000003" class="edge">
<title>Node2&#45;&gt;Node3</title>
<g id="a_edge2_Node000002_Node000003"><a xlink:title=" ">
<path fill="none" stroke="#63b8ff" d="M205.54,-62.52C174.41,-51.21 128.5,-34.53 100.94,-24.52"/>
<polygon fill="#63b8ff" stroke="#63b8ff" points="204.5,-65.87 215.09,-65.99 206.89,-59.29 204.5,-65.87"/>
</a>
</g>
</g>
<!-- Node5 -->
<g id="Node000005" class="node">
<title>Node5</title>
<g id="a_Node000005"><a xlink:href="../../db/dbf/Control__Surface_8h.html" target="_top" xlink:title="The main header file that includes all Control&#45;Surface header files.">
<polygon fill="white" stroke="#666666" points="758,-24.5 655,-24.5 655,-5.5 758,-5.5 758,-24.5"/>
<text text-anchor="middle" x="706.5" y="-12.5" font-family="Helvetica,sans-Serif" font-size="10.00">Control_Surface.h</text>
</a>
</g>
</g>
<!-- Node4&#45;&gt;Node5 -->
<g id="edge4_Node000004_Node000005" class="edge">
<title>Node4&#45;&gt;Node5</title>
<g id="a_edge4_Node000004_Node000005"><a xlink:title=" ">
<path fill="none" stroke="#63b8ff" d="M588.75,-62.23C617.55,-50.92 659.53,-34.44 684.81,-24.52"/>
<polygon fill="#63b8ff" stroke="#63b8ff" points="587.2,-59.08 579.17,-65.99 589.75,-65.6 587.2,-59.08"/>
</a>
</g>
</g>
<!-- Node6 -->
<g id="Node000006" class="node">
<title>Node6</title>
<g id="a_Node000006"><a xlink:href="../../d9/d38/Control__Surface__Class_8cpp.html" target="_top" xlink:title=" ">
<polygon fill="white" stroke="#666666" points="319.5,-24.5 173.5,-24.5 173.5,-5.5 319.5,-5.5 319.5,-24.5"/>
<text text-anchor="middle" x="246.5" y="-12.5" font-family="Helvetica,sans-Serif" font-size="10.00">Control_Surface_Class.cpp</text>
</a>
</g>
</g>
<!-- Node4&#45;&gt;Node6 -->
<g id="edge5_Node000004_Node000006" class="edge">
<title>Node4&#45;&gt;Node6</title>
<g id="a_edge5_Node000004_Node000006"><a xlink:title=" ">
<path fill="none" stroke="#63b8ff" d="M502.23,-64.1C442.23,-52.82 347.54,-35.01 291.78,-24.52"/>
<polygon fill="#63b8ff" stroke="#63b8ff" points="501.8,-67.58 512.28,-65.99 503.1,-60.71 501.8,-67.58"/>
</a>
</g>
</g>
<!-- Node7 -->
<g id="Node000007" class="node">
<title>Node7</title>
<g id="a_Node000007"><a xlink:href="../../d1/d40/DebugMIDI__Interface_8cpp.html" target="_top" xlink:title=" ">
<polygon fill="white" stroke="#666666" points="477.5,-24.5 337.5,-24.5 337.5,-5.5 477.5,-5.5 477.5,-24.5"/>
<text text-anchor="middle" x="407.5" y="-12.5" font-family="Helvetica,sans-Serif" font-size="10.00">DebugMIDI_Interface.cpp</text>
</a>
</g>
</g>
<!-- Node4&#45;&gt;Node7 -->
<g id="edge6_Node000004_Node000007" class="edge">
<title>Node4&#45;&gt;Node7</title>
<g id="a_edge6_Node000004_Node000007"><a xlink:title=" ">
<path fill="none" stroke="#63b8ff" d="M526.04,-62.23C497.05,-50.92 454.79,-34.44 429.34,-24.52"/>
<polygon fill="#63b8ff" stroke="#63b8ff" points="525.1,-65.62 535.69,-65.99 527.64,-59.1 525.1,-65.62"/>
</a>
</g>
</g>
<!-- Node8 -->
<g id="Node000008" class="node">
<title>Node8</title>
<g id="a_Node000008"><a xlink:href="../../de/d83/SoftwareSerialDebugMIDI__Interface_8hpp.html" target="_top" xlink:title=" ">
<polygon fill="white" stroke="#666666" points="637,-30 496,-30 496,0 637,0 637,-30"/>
<text text-anchor="start" x="504" y="-18" font-family="Helvetica,sans-Serif" font-size="10.00">SoftwareSerialDebugMIDI</text>
<text text-anchor="middle" x="566.5" y="-7" font-family="Helvetica,sans-Serif" font-size="10.00">_Interface.hpp</text>
</a>
</g>
</g>
<!-- Node4&#45;&gt;Node8 -->
<g id="edge7_Node000004_Node000008" class="edge">
<title>Node4&#45;&gt;Node8</title>
<g id="a_edge7_Node000004_Node000008"><a xlink:title=" ">
<path fill="none" stroke="#63b8ff" d="M560.36,-55.93C561.64,-47.58 563.14,-37.87 564.33,-30.11"/>
<polygon fill="#63b8ff" stroke="#63b8ff" points="556.89,-55.45 558.83,-65.87 563.81,-56.52 556.89,-55.45"/>
</a>
</g>
</g>
<!-- Node9&#45;&gt;Node5 -->
<g id="edge9_Node000009_Node000005" class="edge">
<title>Node9&#45;&gt;Node5</title>
<g id="a_edge9_Node000009_Node000005"><a xlink:title=" ">
<path fill="none" stroke="#63b8ff" d="M711.92,-55.66C710.5,-45.24 708.8,-32.8 707.69,-24.67"/>
<polygon fill="#63b8ff" stroke="#63b8ff" points="708.5,-56.43 713.32,-65.87 715.43,-55.49 708.5,-56.43"/>
</a>
</g>
</g>
<!-- Node10 -->
<g id="Node000010" class="node">
<title>Node10</title>
<g id="a_Node000010"><a xlink:href="../../d5/db6/SerialMIDI__Interface_8cpp.html" target="_top" xlink:title=" ">
<polygon fill="white" stroke="#666666" points="912.5,-24.5 776.5,-24.5 776.5,-5.5 912.5,-5.5 912.5,-24.5"/>
<text text-anchor="middle" x="844.5" y="-12.5" font-family="Helvetica,sans-Serif" font-size="10.00">SerialMIDI_Interface.cpp</text>
</a>
</g>
</g>
<!-- Node9&#45;&gt;Node10 -->
<g id="edge10_Node000009_Node000010" class="edge">
<title>Node9&#45;&gt;Node10</title>
<g id="a_edge10_Node000009_Node000010"><a xlink:title=" ">
<path fill="none" stroke="#63b8ff" d="M742.76,-61.78C767.85,-50.49 803.81,-34.31 825.57,-24.52"/>
<polygon fill="#63b8ff" stroke="#63b8ff" points="741.09,-58.7 733.4,-65.99 743.96,-65.08 741.09,-58.7"/>
</a>
</g>
</g>
<!-- Node11 -->
<g id="Node000011" class="node">
<title>Node11</title>
<g id="a_Node000011"><a xlink:href="../../d3/df2/SoftwareSerialMIDI__Interface_8hpp.html" target="_top" xlink:title=" ">
<polygon fill="white" stroke="#666666" points="1040.5,-30 930.5,-30 930.5,0 1040.5,0 1040.5,-30"/>
<text text-anchor="start" x="938.5" y="-18" font-family="Helvetica,sans-Serif" font-size="10.00">SoftwareSerialMIDI</text>
<text text-anchor="middle" x="985.5" y="-7" font-family="Helvetica,sans-Serif" font-size="10.00">_Interface.hpp</text>
</a>
</g>
</g>
<!-- Node9&#45;&gt;Node11 -->
<g id="edge11_Node000009_Node000011" class="edge">
<title>Node9&#45;&gt;Node11</title>
<g id="a_edge11_Node000009_Node000011"><a xlink:title=" ">
<path fill="none" stroke="#63b8ff" d="M764.54,-63.8C806.47,-54.81 867.9,-41.62 921.5,-30 924.39,-29.37 927.35,-28.73 930.34,-28.08"/>
<polygon fill="#63b8ff" stroke="#63b8ff" points="763.62,-60.41 754.58,-65.93 765.09,-67.26 763.62,-60.41"/>
</a>
</g>
</g>
</g>
</svg>
