<?xml version="1.0" encoding="UTF-8" standalone="no"?>
<!DOCTYPE svg PUBLIC "-//W3C//DTD SVG 1.1//EN"
 "http://www.w3.org/Graphics/SVG/1.1/DTD/svg11.dtd">
<!-- Generated by graphviz version 2.43.0 (0)
 -->
<!-- Title: ShiftRegisterOutBase.hpp Pages: 1 -->
<svg width="1656pt" height="823pt"
 viewBox="0.00 0.00 1656.00 823.00" xmlns="http://www.w3.org/2000/svg" xmlns:xlink="http://www.w3.org/1999/xlink">
<g id="graph0" class="graph" transform="scale(1 1) rotate(0) translate(4 819)">
<title>ShiftRegisterOutBase.hpp</title>
<polygon fill="white" stroke="transparent" points="-4,4 -4,-819 1652,-819 1652,4 -4,4"/>
<!-- Node1 -->
<g id="node1" class="node">
<title>Node1</title>
<g id="a_node1"><a xlink:title=" ">
<polygon fill="#bfbfbf" stroke="black" points="304.5,-795.5 304.5,-814.5 445.5,-814.5 445.5,-795.5 304.5,-795.5"/>
<text text-anchor="middle" x="375" y="-802.5" font-family="Helvetica,sans-Serif" font-size="10.00">ShiftRegisterOutBase.hpp</text>
</a>
</g>
</g>
<!-- Node2 -->
<g id="node2" class="node">
<title>Node2</title>
<g id="a_node2"><a xlink:href="../../d1/d65/Warnings_8hpp.html" target="_top" xlink:title=" ">
<polygon fill="white" stroke="black" points="904.5,-0.5 904.5,-19.5 1047.5,-19.5 1047.5,-0.5 904.5,-0.5"/>
<text text-anchor="middle" x="976" y="-7.5" font-family="Helvetica,sans-Serif" font-size="10.00">AH/Settings/Warnings.hpp</text>
</a>
</g>
</g>
<!-- Node1&#45;&gt;Node2 -->
<g id="edge1" class="edge">
<title>Node1&#45;&gt;Node2</title>
<path fill="none" stroke="midnightblue" d="M445.71,-801.62C713.19,-792.18 1648,-754.83 1648,-694 1648,-694 1648,-694 1648,-121 1648,-63.45 1590.93,-73.17 1536,-56 1449.07,-28.82 1190.94,-17.35 1057.66,-13.13"/>
<polygon fill="midnightblue" stroke="midnightblue" points="1057.61,-9.63 1047.5,-12.82 1057.39,-16.62 1057.61,-9.63"/>
</g>
<!-- Node3 -->
<g id="node3" class="node">
<title>Node3</title>
<g id="a_node3"><a xlink:href="../../dd/ddf/ExtendedInputOutput_8hpp.html" target="_top" xlink:title=" ">
<polygon fill="white" stroke="black" points="153.5,-627.5 153.5,-646.5 294.5,-646.5 294.5,-627.5 153.5,-627.5"/>
<text text-anchor="middle" x="224" y="-634.5" font-family="Helvetica,sans-Serif" font-size="10.00">ExtendedInputOutput.hpp</text>
</a>
</g>
</g>
<!-- Node1&#45;&gt;Node3 -->
<g id="edge2" class="edge">
<title>Node1&#45;&gt;Node3</title>
<path fill="none" stroke="midnightblue" d="M310.87,-795.44C287.27,-789.11 262.34,-778.11 246,-759 221.22,-730.02 220.31,-682.6 222.02,-656.56"/>
<polygon fill="midnightblue" stroke="midnightblue" points="225.51,-656.8 222.88,-646.53 218.54,-656.19 225.51,-656.8"/>
</g>
<!-- Node26 -->
<g id="node26" class="node">
<title>Node26</title>
<g id="a_node26"><a xlink:href="../../d2/d05/StaticSizeExtendedIOElement_8hpp.html" target="_top" xlink:title=" ">
<polygon fill="white" stroke="black" points="1006,-739.5 1006,-758.5 1188,-758.5 1188,-739.5 1006,-739.5"/>
<text text-anchor="middle" x="1097" y="-746.5" font-family="Helvetica,sans-Serif" font-size="10.00">StaticSizeExtendedIOElement.hpp</text>
</a>
</g>
</g>
<!-- Node1&#45;&gt;Node26 -->
<g id="edge48" class="edge">
<title>Node1&#45;&gt;Node26</title>
<path fill="none" stroke="midnightblue" d="M445.54,-798.72C574.23,-789.1 847.47,-768.66 995.91,-757.56"/>
<polygon fill="midnightblue" stroke="midnightblue" points="996.23,-761.05 1005.94,-756.81 995.71,-754.07 996.23,-761.05"/>
</g>
<!-- Node36 -->
<g id="node36" class="node">
<title>Node36</title>
<g id="a_node36"><a xlink:href="../../d1/d40/BitArray_8hpp.html" target="_top" xlink:title=" ">
<polygon fill="white" stroke="black" points="350.5,-504.5 350.5,-523.5 499.5,-523.5 499.5,-504.5 350.5,-504.5"/>
<text text-anchor="middle" x="425" y="-511.5" font-family="Helvetica,sans-Serif" font-size="10.00">AH/Containers/BitArray.hpp</text>
</a>
</g>
</g>
<!-- Node1&#45;&gt;Node36 -->
<g id="edge72" class="edge">
<title>Node1&#45;&gt;Node36</title>
<path fill="none" stroke="midnightblue" d="M381.67,-795.44C394.86,-777.62 423,-734.84 423,-694 423,-694 423,-694 423,-636 423,-599.71 423.91,-557.3 424.5,-533.56"/>
<polygon fill="midnightblue" stroke="midnightblue" points="428,-533.59 424.76,-523.51 421.01,-533.41 428,-533.59"/>
</g>
<!-- Node37 -->
<g id="node37" class="node">
<title>Node37</title>
<g id="a_node37"><a xlink:href="../../d5/d47/ShiftRegisterOutBase_8ipp.html" target="_top" xlink:title=" ">
<polygon fill="white" stroke="black" points="255,-739.5 255,-758.5 393,-758.5 393,-739.5 255,-739.5"/>
<text text-anchor="middle" x="324" y="-746.5" font-family="Helvetica,sans-Serif" font-size="10.00">ShiftRegisterOutBase.ipp</text>
</a>
</g>
</g>
<!-- Node1&#45;&gt;Node37 -->
<g id="edge77" class="edge">
<title>Node1&#45;&gt;Node37</title>
<path fill="none" stroke="midnightblue" d="M361.69,-795.32C352.79,-787.65 341.62,-776.25 333.56,-766.8"/>
<polygon fill="midnightblue" stroke="midnightblue" points="336.17,-764.46 327.19,-758.83 330.71,-768.83 336.17,-764.46"/>
</g>
<!-- Node3&#45;&gt;Node2 -->
<g id="edge4" class="edge">
<title>Node3&#45;&gt;Node2</title>
<path fill="none" stroke="midnightblue" d="M153.2,-633.59C114.89,-628.96 68.84,-617.64 36,-591 6.98,-567.45 0,-552.38 0,-515 0,-515 0,-515 0,-121 0,-67.62 50.19,-72.37 101,-56 175.17,-32.11 691.23,-17.63 894.24,-12.81"/>
<polygon fill="midnightblue" stroke="midnightblue" points="894.33,-16.31 904.25,-12.57 894.17,-9.31 894.33,-16.31"/>
</g>
<!-- Node4 -->
<g id="node4" class="node">
<title>Node4</title>
<g id="a_node4"><a xlink:href="../../d6/db0/AH_2Settings_2NamespaceSettings_8hpp.html" target="_top" xlink:title=" ">
<polygon fill="white" stroke="black" points="197.5,-56.5 197.5,-75.5 392.5,-75.5 392.5,-56.5 197.5,-56.5"/>
<text text-anchor="middle" x="295" y="-63.5" font-family="Helvetica,sans-Serif" font-size="10.00">AH/Settings/NamespaceSettings.hpp</text>
</a>
</g>
</g>
<!-- Node3&#45;&gt;Node4 -->
<g id="edge3" class="edge">
<title>Node3&#45;&gt;Node4</title>
<path fill="none" stroke="midnightblue" d="M153.22,-633.04C119.88,-628.01 82.04,-616.5 57,-591 32.61,-566.16 38,-549.82 38,-515 38,-515 38,-515 38,-345 38,-210.94 201.15,-114.02 267.47,-80.17"/>
<polygon fill="midnightblue" stroke="midnightblue" points="269.14,-83.24 276.52,-75.64 266.01,-76.98 269.14,-83.24"/>
</g>
<!-- Node5 -->
<g id="node5" class="node">
<title>Node5</title>
<g id="a_node5"><a xlink:href="../../d6/ddf/Arduino-Wrapper_8h.html" target="_top" xlink:title=" ">
<polygon fill="white" stroke="black" points="529,-168.5 529,-187.5 653,-187.5 653,-168.5 529,-168.5"/>
<text text-anchor="middle" x="591" y="-175.5" font-family="Helvetica,sans-Serif" font-size="10.00">AH/Arduino&#45;Wrapper.h</text>
</a>
</g>
</g>
<!-- Node3&#45;&gt;Node5 -->
<g id="edge5" class="edge">
<title>Node3&#45;&gt;Node5</title>
<path fill="none" stroke="midnightblue" d="M223.22,-627.47C220.56,-597.76 211.81,-496.14 209,-412 206.11,-325.7 192.56,-280.33 258,-224 295.92,-191.36 432.52,-182.26 518.54,-179.8"/>
<polygon fill="midnightblue" stroke="midnightblue" points="518.87,-183.3 528.77,-179.54 518.68,-176.3 518.87,-183.3"/>
</g>
<!-- Node10 -->
<g id="node10" class="node">
<title>Node10</title>
<g id="a_node10"><a xlink:href="../../d4/d35/Hardware-Types_8hpp.html" target="_top" xlink:title=" ">
<polygon fill="white" stroke="black" points="66.5,-560.5 66.5,-590.5 197.5,-590.5 197.5,-560.5 66.5,-560.5"/>
<text text-anchor="start" x="74.5" y="-578.5" font-family="Helvetica,sans-Serif" font-size="10.00">AH/Hardware/Hardware</text>
<text text-anchor="middle" x="132" y="-567.5" font-family="Helvetica,sans-Serif" font-size="10.00">&#45;Types.hpp</text>
</a>
</g>
</g>
<!-- Node3&#45;&gt;Node10 -->
<g id="edge14" class="edge">
<title>Node3&#45;&gt;Node10</title>
<path fill="none" stroke="midnightblue" d="M210.82,-627.48C198.24,-619.34 178.84,-606.79 162.43,-596.18"/>
<polygon fill="midnightblue" stroke="midnightblue" points="163.98,-593.01 153.68,-590.52 160.18,-598.89 163.98,-593.01"/>
</g>
<!-- Node6 -->
<g id="node6" class="node">
<title>Node6</title>
<g id="a_node6"><a xlink:href="../../d7/d79/MinMaxFix_8hpp.html" target="_top" xlink:title=" ">
<polygon fill="white" stroke="black" points="382,-112.5 382,-131.5 518,-131.5 518,-112.5 382,-112.5"/>
<text text-anchor="middle" x="450" y="-119.5" font-family="Helvetica,sans-Serif" font-size="10.00">AH/Math/MinMaxFix.hpp</text>
</a>
</g>
</g>
<!-- Node5&#45;&gt;Node6 -->
<g id="edge6" class="edge">
<title>Node5&#45;&gt;Node6</title>
<path fill="none" stroke="midnightblue" d="M568.66,-168.44C545.25,-159.48 508.26,-145.31 481.81,-135.18"/>
<polygon fill="midnightblue" stroke="midnightblue" points="482.83,-131.82 472.24,-131.52 480.32,-138.36 482.83,-131.82"/>
</g>
<!-- Node8 -->
<g id="node8" class="node">
<title>Node8</title>
<g id="a_node8"><a xlink:title=" ">
<polygon fill="white" stroke="#bfbfbf" points="282.5,-0.5 282.5,-19.5 345.5,-19.5 345.5,-0.5 282.5,-0.5"/>
<text text-anchor="middle" x="314" y="-7.5" font-family="Helvetica,sans-Serif" font-size="10.00">Arduino.h</text>
</a>
</g>
</g>
<!-- Node5&#45;&gt;Node8 -->
<g id="edge13" class="edge">
<title>Node5&#45;&gt;Node8</title>
<path fill="none" stroke="midnightblue" d="M528.95,-170.89C426.28,-159.32 228.35,-130.37 188,-76 163.11,-42.46 226.56,-24.83 272.18,-16.75"/>
<polygon fill="midnightblue" stroke="midnightblue" points="272.9,-20.18 282.18,-15.08 271.74,-13.27 272.9,-20.18"/>
</g>
<!-- Node9 -->
<g id="node9" class="node">
<title>Node9</title>
<g id="a_node9"><a xlink:title=" ">
<polygon fill="white" stroke="#bfbfbf" points="574.5,-112.5 574.5,-131.5 681.5,-131.5 681.5,-112.5 574.5,-112.5"/>
<text text-anchor="middle" x="628" y="-119.5" font-family="Helvetica,sans-Serif" font-size="10.00">AH/STL/type_traits</text>
</a>
</g>
</g>
<!-- Node5&#45;&gt;Node9 -->
<g id="edge12" class="edge">
<title>Node5&#45;&gt;Node9</title>
<path fill="none" stroke="midnightblue" d="M597.11,-168.08C602.28,-160.53 609.85,-149.49 616.19,-140.23"/>
<polygon fill="midnightblue" stroke="midnightblue" points="619.24,-141.98 622,-131.75 613.46,-138.02 619.24,-141.98"/>
</g>
<!-- Node6&#45;&gt;Node2 -->
<g id="edge7" class="edge">
<title>Node6&#45;&gt;Node2</title>
<path fill="none" stroke="midnightblue" d="M480.15,-112.49C508.76,-104.14 552.8,-90.57 590,-76 609.63,-68.32 612.76,-61.88 633,-56 720.12,-30.67 823.87,-19.57 894.28,-14.72"/>
<polygon fill="midnightblue" stroke="midnightblue" points="894.67,-18.2 904.42,-14.05 894.21,-11.21 894.67,-18.2"/>
</g>
<!-- Node6&#45;&gt;Node4 -->
<g id="edge11" class="edge">
<title>Node6&#45;&gt;Node4</title>
<path fill="none" stroke="midnightblue" d="M425.44,-112.44C399.48,-103.4 358.33,-89.06 329.2,-78.92"/>
<polygon fill="midnightblue" stroke="midnightblue" points="330.04,-75.5 319.45,-75.52 327.74,-82.11 330.04,-75.5"/>
</g>
<!-- Node7 -->
<g id="node7" class="node">
<title>Node7</title>
<g id="a_node7"><a xlink:href="../../d6/d3b/FixArduinoMacros_8hpp.html" target="_top" xlink:title=" ">
<polygon fill="white" stroke="black" points="411,-56.5 411,-75.5 581,-75.5 581,-56.5 411,-56.5"/>
<text text-anchor="middle" x="496" y="-63.5" font-family="Helvetica,sans-Serif" font-size="10.00">AH/Math/FixArduinoMacros.hpp</text>
</a>
</g>
</g>
<!-- Node6&#45;&gt;Node7 -->
<g id="edge8" class="edge">
<title>Node6&#45;&gt;Node7</title>
<path fill="none" stroke="midnightblue" d="M457.6,-112.08C464.23,-104.3 474.02,-92.8 482.06,-83.37"/>
<polygon fill="midnightblue" stroke="midnightblue" points="484.73,-85.63 488.55,-75.75 479.4,-81.09 484.73,-85.63"/>
</g>
<!-- Node7&#45;&gt;Node2 -->
<g id="edge9" class="edge">
<title>Node7&#45;&gt;Node2</title>
<path fill="none" stroke="midnightblue" d="M571.79,-56.47C659.55,-46.6 803.59,-30.4 893.93,-20.23"/>
<polygon fill="midnightblue" stroke="midnightblue" points="894.59,-23.68 904.13,-19.08 893.8,-16.72 894.59,-23.68"/>
</g>
<!-- Node7&#45;&gt;Node8 -->
<g id="edge10" class="edge">
<title>Node7&#45;&gt;Node8</title>
<path fill="none" stroke="midnightblue" d="M467.16,-56.44C436.14,-47.24 386.67,-32.56 352.38,-22.39"/>
<polygon fill="midnightblue" stroke="midnightblue" points="353.29,-19.01 342.7,-19.52 351.29,-25.72 353.29,-19.01"/>
</g>
<!-- Node10&#45;&gt;Node2 -->
<g id="edge15" class="edge">
<title>Node10&#45;&gt;Node2</title>
<path fill="none" stroke="midnightblue" d="M119.85,-560.26C103.38,-539.46 76,-498.89 76,-459 76,-459 76,-459 76,-121 76,-70.21 121.95,-72.48 170,-56 237.15,-32.97 702.94,-18.2 894.25,-13.05"/>
<polygon fill="midnightblue" stroke="midnightblue" points="894.35,-16.55 904.26,-12.78 894.17,-9.55 894.35,-16.55"/>
</g>
<!-- Node10&#45;&gt;Node4 -->
<g id="edge46" class="edge">
<title>Node10&#45;&gt;Node4</title>
<path fill="none" stroke="midnightblue" d="M128.36,-560.39C123.1,-538.73 114,-495.94 114,-459 114,-459 114,-459 114,-401 114,-263.5 234.04,-128.44 278.61,-83.04"/>
<polygon fill="midnightblue" stroke="midnightblue" points="281.19,-85.4 285.78,-75.85 276.24,-80.46 281.19,-85.4"/>
</g>
<!-- Node11 -->
<g id="node11" class="node">
<title>Node11</title>
<g id="a_node11"><a xlink:href="../../de/d76/Array_8hpp.html" target="_top" xlink:title=" ">
<polygon fill="white" stroke="black" points="1134.5,-504.5 1134.5,-523.5 1269.5,-523.5 1269.5,-504.5 1134.5,-504.5"/>
<text text-anchor="middle" x="1202" y="-511.5" font-family="Helvetica,sans-Serif" font-size="10.00">AH/Containers/Array.hpp</text>
</a>
</g>
</g>
<!-- Node10&#45;&gt;Node11 -->
<g id="edge16" class="edge">
<title>Node10&#45;&gt;Node11</title>
<path fill="none" stroke="midnightblue" d="M197.72,-570.85C385.2,-560.42 922.05,-530.57 1123.96,-519.34"/>
<polygon fill="midnightblue" stroke="midnightblue" points="1124.39,-522.82 1134.18,-518.77 1124,-515.83 1124.39,-522.82"/>
</g>
<!-- Node22 -->
<g id="node22" class="node">
<title>Node22</title>
<g id="a_node22"><a xlink:title=" ">
<polygon fill="white" stroke="#bfbfbf" points="267.5,-224.5 267.5,-243.5 320.5,-243.5 320.5,-224.5 267.5,-224.5"/>
<text text-anchor="middle" x="294" y="-231.5" font-family="Helvetica,sans-Serif" font-size="10.00">stdint.h</text>
</a>
</g>
</g>
<!-- Node10&#45;&gt;Node22 -->
<g id="edge47" class="edge">
<title>Node10&#45;&gt;Node22</title>
<path fill="none" stroke="midnightblue" d="M136.05,-560.41C141.89,-538.79 152,-496.04 152,-459 152,-459 152,-459 152,-401 152,-329.75 228.47,-273.68 269.18,-248.88"/>
<polygon fill="midnightblue" stroke="midnightblue" points="271.17,-251.77 277.99,-243.66 267.6,-245.74 271.17,-251.77"/>
</g>
<!-- Node11&#45;&gt;Node2 -->
<g id="edge17" class="edge">
<title>Node11&#45;&gt;Node2</title>
<path fill="none" stroke="midnightblue" d="M1255.22,-504.46C1309.56,-492.35 1386,-464.41 1386,-403 1386,-403 1386,-403 1386,-121 1386,-80.46 1358.31,-74.04 1322,-56 1277.06,-33.67 1145.35,-21.39 1058.02,-15.51"/>
<polygon fill="midnightblue" stroke="midnightblue" points="1058.07,-12.01 1047.86,-14.84 1057.61,-18.99 1058.07,-12.01"/>
</g>
<!-- Node11&#45;&gt;Node9 -->
<g id="edge44" class="edge">
<title>Node11&#45;&gt;Node9</title>
<path fill="none" stroke="midnightblue" d="M1200.5,-504.2C1198.08,-491.34 1192.58,-466.87 1183,-448 1154.6,-392.03 1143.4,-378.26 1097,-336 968.92,-219.33 766.09,-157.26 675,-133.97"/>
<polygon fill="midnightblue" stroke="midnightblue" points="675.79,-130.56 665.24,-131.51 674.08,-137.34 675.79,-130.56"/>
</g>
<!-- Node12 -->
<g id="node12" class="node">
<title>Node12</title>
<g id="a_node12"><a xlink:href="../../d1/d93/Error_8hpp.html" target="_top" xlink:title=" ">
<polygon fill="white" stroke="black" points="1070,-448.5 1070,-467.5 1174,-467.5 1174,-448.5 1070,-448.5"/>
<text text-anchor="middle" x="1122" y="-455.5" font-family="Helvetica,sans-Serif" font-size="10.00">AH/Error/Error.hpp</text>
</a>
</g>
</g>
<!-- Node11&#45;&gt;Node12 -->
<g id="edge18" class="edge">
<title>Node11&#45;&gt;Node12</title>
<path fill="none" stroke="midnightblue" d="M1189.15,-504.32C1176.78,-495.98 1157.87,-483.21 1143.26,-473.35"/>
<polygon fill="midnightblue" stroke="midnightblue" points="1145.07,-470.35 1134.82,-467.65 1141.15,-476.15 1145.07,-470.35"/>
</g>
<!-- Node21 -->
<g id="node21" class="node">
<title>Node21</title>
<g id="a_node21"><a xlink:title=" ">
<polygon fill="white" stroke="#bfbfbf" points="854,-224.5 854,-243.5 910,-243.5 910,-224.5 854,-224.5"/>
<text text-anchor="middle" x="882" y="-231.5" font-family="Helvetica,sans-Serif" font-size="10.00">stddef.h</text>
</a>
</g>
</g>
<!-- Node11&#45;&gt;Node21 -->
<g id="edge45" class="edge">
<title>Node11&#45;&gt;Node21</title>
<path fill="none" stroke="midnightblue" d="M1134.13,-511.5C1044.49,-508.33 892.66,-498.49 847,-468 816.52,-447.64 806.58,-427.67 815,-392 825.5,-347.51 843.7,-342.32 861,-300 867.31,-284.56 873.02,-266.47 876.89,-253.3"/>
<polygon fill="midnightblue" stroke="midnightblue" points="880.29,-254.14 879.68,-243.56 873.57,-252.21 880.29,-254.14"/>
</g>
<!-- Node25 -->
<g id="node25" class="node">
<title>Node25</title>
<g id="a_node25"><a xlink:title=" ">
<polygon fill="white" stroke="#bfbfbf" points="1230,-448.5 1230,-467.5 1320,-467.5 1320,-448.5 1230,-448.5"/>
<text text-anchor="middle" x="1275" y="-455.5" font-family="Helvetica,sans-Serif" font-size="10.00">AH/STL/iterator</text>
</a>
</g>
</g>
<!-- Node11&#45;&gt;Node25 -->
<g id="edge43" class="edge">
<title>Node11&#45;&gt;Node25</title>
<path fill="none" stroke="midnightblue" d="M1213.73,-504.32C1224.84,-496.11 1241.74,-483.6 1254.98,-473.81"/>
<polygon fill="midnightblue" stroke="midnightblue" points="1257.1,-476.59 1263.06,-467.83 1252.94,-470.97 1257.1,-476.59"/>
</g>
<!-- Node12&#45;&gt;Node2 -->
<g id="edge19" class="edge">
<title>Node12&#45;&gt;Node2</title>
<path fill="none" stroke="midnightblue" d="M1141.07,-448.41C1172.25,-433.54 1234.53,-400.29 1273,-356 1311.27,-311.94 1324,-293.36 1324,-235 1324,-235 1324,-235 1324,-121 1324,-90.2 1323.99,-75.31 1300,-56 1263.79,-26.87 1141.44,-16.59 1057.9,-12.97"/>
<polygon fill="midnightblue" stroke="midnightblue" points="1057.79,-9.46 1047.66,-12.55 1057.51,-16.46 1057.79,-9.46"/>
</g>
<!-- Node13 -->
<g id="node13" class="node">
<title>Node13</title>
<g id="a_node13"><a xlink:href="../../df/dee/Debug_8hpp.html" target="_top" xlink:title=" ">
<polygon fill="white" stroke="black" points="1004.5,-392.5 1004.5,-411.5 1125.5,-411.5 1125.5,-392.5 1004.5,-392.5"/>
<text text-anchor="middle" x="1065" y="-399.5" font-family="Helvetica,sans-Serif" font-size="10.00">AH/Debug/Debug.hpp</text>
</a>
</g>
</g>
<!-- Node12&#45;&gt;Node13 -->
<g id="edge20" class="edge">
<title>Node12&#45;&gt;Node13</title>
<path fill="none" stroke="midnightblue" d="M1112.84,-448.32C1104.5,-440.42 1091.97,-428.55 1081.82,-418.94"/>
<polygon fill="midnightblue" stroke="midnightblue" points="1083.99,-416.17 1074.32,-411.83 1079.18,-421.25 1083.99,-416.17"/>
</g>
<!-- Node13&#45;&gt;Node2 -->
<g id="edge21" class="edge">
<title>Node13&#45;&gt;Node2</title>
<path fill="none" stroke="midnightblue" d="M1073.75,-392.29C1081.56,-383.84 1092.45,-370.25 1097,-356 1099.7,-347.53 1098.97,-344.67 1097,-336 1086.97,-291.8 1070.42,-285.84 1053,-244 1042.84,-219.6 1041.5,-213.03 1033,-188 1013.41,-130.3 991.72,-61.47 981.68,-29.28"/>
<polygon fill="midnightblue" stroke="midnightblue" points="984.95,-28.01 978.63,-19.51 978.27,-30.09 984.95,-28.01"/>
</g>
<!-- Node14 -->
<g id="node14" class="node">
<title>Node14</title>
<g id="a_node14"><a xlink:href="../../dd/d80/PrintStream_8hpp.html" target="_top" xlink:title=" ">
<polygon fill="white" stroke="black" points="1061.5,-224.5 1061.5,-243.5 1234.5,-243.5 1234.5,-224.5 1061.5,-224.5"/>
<text text-anchor="middle" x="1148" y="-231.5" font-family="Helvetica,sans-Serif" font-size="10.00">AH/PrintStream/PrintStream.hpp</text>
</a>
</g>
</g>
<!-- Node13&#45;&gt;Node14 -->
<g id="edge22" class="edge">
<title>Node13&#45;&gt;Node14</title>
<path fill="none" stroke="midnightblue" d="M1085.13,-392.49C1100.03,-385.09 1119.49,-372.9 1130,-356 1149.75,-324.25 1150.85,-278.95 1149.61,-253.75"/>
<polygon fill="midnightblue" stroke="midnightblue" points="1153.1,-253.45 1148.93,-243.7 1146.11,-253.92 1153.1,-253.45"/>
</g>
<!-- Node16 -->
<g id="node16" class="node">
<title>Node16</title>
<g id="a_node16"><a xlink:href="../../de/dd1/AH_2Settings_2SettingsWrapper_8hpp.html" target="_top" xlink:title=" ">
<polygon fill="white" stroke="black" points="594,-336.5 594,-355.5 772,-355.5 772,-336.5 594,-336.5"/>
<text text-anchor="middle" x="683" y="-343.5" font-family="Helvetica,sans-Serif" font-size="10.00">AH/Settings/SettingsWrapper.hpp</text>
</a>
</g>
</g>
<!-- Node13&#45;&gt;Node16 -->
<g id="edge27" class="edge">
<title>Node13&#45;&gt;Node16</title>
<path fill="none" stroke="midnightblue" d="M1004.1,-393.09C934.2,-383.53 820.12,-367.42 748.39,-357"/>
<polygon fill="midnightblue" stroke="midnightblue" points="748.53,-353.49 738.13,-355.51 747.52,-360.41 748.53,-353.49"/>
</g>
<!-- Node24 -->
<g id="node24" class="node">
<title>Node24</title>
<g id="a_node24"><a xlink:href="../../d7/d52/DebugVal_8hpp.html" target="_top" xlink:title=" ">
<polygon fill="white" stroke="black" points="1004,-336.5 1004,-355.5 1088,-355.5 1088,-336.5 1004,-336.5"/>
<text text-anchor="middle" x="1046" y="-343.5" font-family="Helvetica,sans-Serif" font-size="10.00">DebugVal.hpp</text>
</a>
</g>
</g>
<!-- Node13&#45;&gt;Node24 -->
<g id="edge42" class="edge">
<title>Node13&#45;&gt;Node24</title>
<path fill="none" stroke="midnightblue" d="M1061.86,-392.08C1059.32,-384.85 1055.64,-374.41 1052.47,-365.4"/>
<polygon fill="midnightblue" stroke="midnightblue" points="1055.7,-364.02 1049.08,-355.75 1049.1,-366.35 1055.7,-364.02"/>
</g>
<!-- Node14&#45;&gt;Node2 -->
<g id="edge24" class="edge">
<title>Node14&#45;&gt;Node2</title>
<path fill="none" stroke="midnightblue" d="M1175.87,-224.43C1204.71,-213.96 1243.64,-194.31 1229,-168 1183.62,-86.44 1076.4,-41.83 1017.15,-22.62"/>
<polygon fill="midnightblue" stroke="midnightblue" points="1017.95,-19.2 1007.37,-19.54 1015.85,-25.88 1017.95,-19.2"/>
</g>
<!-- Node14&#45;&gt;Node4 -->
<g id="edge23" class="edge">
<title>Node14&#45;&gt;Node4</title>
<path fill="none" stroke="midnightblue" d="M1125.93,-224.42C1102.77,-215.4 1065.3,-200.78 1033,-188 948.43,-154.54 931.53,-132.82 843,-112 654.75,-67.73 599.8,-91.42 402.78,-76.04"/>
<polygon fill="midnightblue" stroke="midnightblue" points="402.92,-72.54 392.67,-75.23 402.36,-79.52 402.92,-72.54"/>
</g>
<!-- Node14&#45;&gt;Node5 -->
<g id="edge25" class="edge">
<title>Node14&#45;&gt;Node5</title>
<path fill="none" stroke="midnightblue" d="M1061.27,-224.59C951.9,-213.99 765.8,-195.95 663.58,-186.04"/>
<polygon fill="midnightblue" stroke="midnightblue" points="663.64,-182.53 653.35,-185.04 662.96,-189.49 663.64,-182.53"/>
</g>
<!-- Node15 -->
<g id="node15" class="node">
<title>Node15</title>
<g id="a_node15"><a xlink:title=" ">
<polygon fill="white" stroke="#bfbfbf" points="1042,-168.5 1042,-187.5 1220,-187.5 1220,-168.5 1042,-168.5"/>
<text text-anchor="middle" x="1131" y="-175.5" font-family="Helvetica,sans-Serif" font-size="10.00">Settings/NamespaceSettings.hpp</text>
</a>
</g>
</g>
<!-- Node14&#45;&gt;Node15 -->
<g id="edge26" class="edge">
<title>Node14&#45;&gt;Node15</title>
<path fill="none" stroke="midnightblue" d="M1145.19,-224.08C1142.92,-216.85 1139.63,-206.41 1136.79,-197.4"/>
<polygon fill="midnightblue" stroke="midnightblue" points="1140.1,-196.24 1133.75,-187.75 1133.42,-198.34 1140.1,-196.24"/>
</g>
<!-- Node16&#45;&gt;Node2 -->
<g id="edge28" class="edge">
<title>Node16&#45;&gt;Node2</title>
<path fill="none" stroke="midnightblue" d="M731.29,-336.43C756.28,-329.95 785.88,-318.81 807,-300 835.2,-274.88 826.65,-257 845,-224 886.27,-149.78 940.96,-64.63 964.46,-28.58"/>
<polygon fill="midnightblue" stroke="midnightblue" points="967.68,-30.05 970.22,-19.76 961.82,-26.22 967.68,-30.05"/>
</g>
<!-- Node16&#45;&gt;Node4 -->
<g id="edge29" class="edge">
<title>Node16&#45;&gt;Node4</title>
<path fill="none" stroke="midnightblue" d="M624.57,-336.5C592.36,-329.97 552.63,-318.78 521,-300 469.91,-269.67 349.64,-131.21 308.83,-83.34"/>
<polygon fill="midnightblue" stroke="midnightblue" points="311.31,-80.85 302.17,-75.5 305.98,-85.39 311.31,-80.85"/>
</g>
<!-- Node16&#45;&gt;Node13 -->
<g id="edge41" class="edge">
<title>Node16&#45;&gt;Node13</title>
<path fill="none" stroke="midnightblue" d="M748.33,-355.52C818.5,-365.14 929.26,-380.78 999.5,-390.98"/>
<polygon fill="midnightblue" stroke="midnightblue" points="999.16,-394.47 1009.56,-392.44 1000.17,-387.54 999.16,-394.47"/>
</g>
<!-- Node17 -->
<g id="node17" class="node">
<title>Node17</title>
<g id="a_node17"><a xlink:href="../../d5/d4f/AH_2Settings_2Settings_8hpp.html" target="_top" xlink:title="All user settings and debugging options can be changed here.">
<polygon fill="white" stroke="black" points="529.5,-280.5 529.5,-299.5 606.5,-299.5 606.5,-280.5 529.5,-280.5"/>
<text text-anchor="middle" x="568" y="-287.5" font-family="Helvetica,sans-Serif" font-size="10.00">Settings.hpp</text>
</a>
</g>
</g>
<!-- Node16&#45;&gt;Node17 -->
<g id="edge30" class="edge">
<title>Node16&#45;&gt;Node17</title>
<path fill="none" stroke="midnightblue" d="M664.78,-336.44C646.1,-327.68 616.84,-313.94 595.38,-303.86"/>
<polygon fill="midnightblue" stroke="midnightblue" points="596.68,-300.6 586.14,-299.52 593.7,-306.93 596.68,-300.6"/>
</g>
<!-- Node23 -->
<g id="node23" class="node">
<title>Node23</title>
<g id="a_node23"><a xlink:href="../../d9/d98/TeensyUSBTypes_8hpp.html" target="_top" xlink:title=" ">
<polygon fill="white" stroke="black" points="624.5,-280.5 624.5,-299.5 797.5,-299.5 797.5,-280.5 624.5,-280.5"/>
<text text-anchor="middle" x="711" y="-287.5" font-family="Helvetica,sans-Serif" font-size="10.00">AH/Teensy/TeensyUSBTypes.hpp</text>
</a>
</g>
</g>
<!-- Node16&#45;&gt;Node23 -->
<g id="edge40" class="edge">
<title>Node16&#45;&gt;Node23</title>
<path fill="none" stroke="midnightblue" d="M687.62,-336.08C691.46,-328.69 697.02,-317.95 701.76,-308.81"/>
<polygon fill="midnightblue" stroke="midnightblue" points="704.97,-310.24 706.46,-299.75 698.75,-307.02 704.97,-310.24"/>
</g>
<!-- Node18 -->
<g id="node18" class="node">
<title>Node18</title>
<g id="a_node18"><a xlink:href="../../dc/d50/Frequency_8hpp.html" target="_top" xlink:title=" ">
<polygon fill="white" stroke="black" points="700,-112.5 700,-131.5 834,-131.5 834,-112.5 700,-112.5"/>
<text text-anchor="middle" x="767" y="-119.5" font-family="Helvetica,sans-Serif" font-size="10.00">AH/Types/Frequency.hpp</text>
</a>
</g>
</g>
<!-- Node17&#45;&gt;Node18 -->
<g id="edge31" class="edge">
<title>Node17&#45;&gt;Node18</title>
<path fill="none" stroke="midnightblue" d="M563.6,-280.08C557.66,-266.61 549.1,-240.88 561,-224 588.46,-185.05 619.05,-208.66 662,-188 692.8,-173.19 725.95,-151.62 746.59,-137.45"/>
<polygon fill="midnightblue" stroke="midnightblue" points="748.66,-140.27 754.88,-131.69 744.67,-134.52 748.66,-140.27"/>
</g>
<!-- Node19 -->
<g id="node19" class="node">
<title>Node19</title>
<g id="a_node19"><a xlink:href="../../d7/d7c/ADCConfig_8hpp.html" target="_top" xlink:title="This file contains the platform&#45;specific ADC resolutions. By default, the library automatically selec...">
<polygon fill="white" stroke="black" points="569.5,-224.5 569.5,-243.5 726.5,-243.5 726.5,-224.5 569.5,-224.5"/>
<text text-anchor="middle" x="648" y="-231.5" font-family="Helvetica,sans-Serif" font-size="10.00">AH/Hardware/ADCConfig.hpp</text>
</a>
</g>
</g>
<!-- Node17&#45;&gt;Node19 -->
<g id="edge34" class="edge">
<title>Node17&#45;&gt;Node19</title>
<path fill="none" stroke="midnightblue" d="M580.85,-280.32C593.22,-271.98 612.13,-259.21 626.74,-249.35"/>
<polygon fill="midnightblue" stroke="midnightblue" points="628.85,-252.15 635.18,-243.65 624.93,-246.35 628.85,-252.15"/>
</g>
<!-- Node20 -->
<g id="node20" class="node">
<title>Node20</title>
<g id="a_node20"><a xlink:title=" ">
<polygon fill="white" stroke="#bfbfbf" points="744.5,-224.5 744.5,-243.5 797.5,-243.5 797.5,-224.5 744.5,-224.5"/>
<text text-anchor="middle" x="771" y="-231.5" font-family="Helvetica,sans-Serif" font-size="10.00">limits.h</text>
</a>
</g>
</g>
<!-- Node17&#45;&gt;Node20 -->
<g id="edge37" class="edge">
<title>Node17&#45;&gt;Node20</title>
<path fill="none" stroke="midnightblue" d="M600.17,-280.44C636.8,-270.7 696.53,-254.81 734.78,-244.64"/>
<polygon fill="midnightblue" stroke="midnightblue" points="735.72,-248.01 744.48,-242.05 733.92,-241.24 735.72,-248.01"/>
</g>
<!-- Node17&#45;&gt;Node21 -->
<g id="edge38" class="edge">
<title>Node17&#45;&gt;Node21</title>
<path fill="none" stroke="midnightblue" d="M606.5,-281.72C609.71,-281.13 612.91,-280.55 616,-280 696.88,-265.58 791.81,-249.79 843.56,-241.28"/>
<polygon fill="midnightblue" stroke="midnightblue" points="844.33,-244.7 853.63,-239.63 843.19,-237.8 844.33,-244.7"/>
</g>
<!-- Node17&#45;&gt;Node22 -->
<g id="edge39" class="edge">
<title>Node17&#45;&gt;Node22</title>
<path fill="none" stroke="midnightblue" d="M529.32,-281.38C476.47,-270.96 382.34,-252.41 330.59,-242.21"/>
<polygon fill="midnightblue" stroke="midnightblue" points="331.02,-238.73 320.53,-240.23 329.66,-245.6 331.02,-238.73"/>
</g>
<!-- Node18&#45;&gt;Node2 -->
<g id="edge32" class="edge">
<title>Node18&#45;&gt;Node2</title>
<path fill="none" stroke="midnightblue" d="M775.74,-112.29C789.84,-98.64 819,-72.11 848,-56 874.54,-41.25 906.8,-29.95 932.3,-22.36"/>
<polygon fill="midnightblue" stroke="midnightblue" points="933.43,-25.67 942.06,-19.53 931.48,-18.95 933.43,-25.67"/>
</g>
<!-- Node18&#45;&gt;Node4 -->
<g id="edge33" class="edge">
<title>Node18&#45;&gt;Node4</title>
<path fill="none" stroke="midnightblue" d="M699.87,-113.03C696.87,-112.68 693.9,-112.34 691,-112 584.22,-99.61 461.2,-85.69 380.98,-76.65"/>
<polygon fill="midnightblue" stroke="midnightblue" points="381.26,-73.16 370.93,-75.52 380.47,-80.12 381.26,-73.16"/>
</g>
<!-- Node19&#45;&gt;Node2 -->
<g id="edge35" class="edge">
<title>Node19&#45;&gt;Node2</title>
<path fill="none" stroke="midnightblue" d="M668.99,-224.42C705.92,-208.84 784.18,-173.62 843,-132 883.3,-103.49 887.33,-89.05 924,-56 935.22,-45.88 948.06,-34.77 958.17,-26.12"/>
<polygon fill="midnightblue" stroke="midnightblue" points="960.59,-28.66 965.93,-19.51 956.05,-23.33 960.59,-28.66"/>
</g>
<!-- Node19&#45;&gt;Node5 -->
<g id="edge36" class="edge">
<title>Node19&#45;&gt;Node5</title>
<path fill="none" stroke="midnightblue" d="M638.84,-224.32C630.5,-216.42 617.97,-204.55 607.82,-194.94"/>
<polygon fill="midnightblue" stroke="midnightblue" points="609.99,-192.17 600.32,-187.83 605.18,-197.25 609.99,-192.17"/>
</g>
<!-- Node26&#45;&gt;Node2 -->
<g id="edge49" class="edge">
<title>Node26&#45;&gt;Node2</title>
<path fill="none" stroke="midnightblue" d="M1188.12,-746.91C1335.54,-742.66 1610,-723.28 1610,-638 1610,-638 1610,-638 1610,-121 1610,-48.34 1530.38,-74.03 1460,-56 1321.83,-20.6 1155.13,-12.33 1057.8,-10.79"/>
<polygon fill="midnightblue" stroke="midnightblue" points="1057.78,-7.29 1047.73,-10.66 1057.69,-14.29 1057.78,-7.29"/>
</g>
<!-- Node27 -->
<g id="node27" class="node">
<title>Node27</title>
<g id="a_node27"><a xlink:href="../../d4/d57/ExtendedIOElement_8hpp.html" target="_top" xlink:title=" ">
<polygon fill="white" stroke="black" points="691,-683.5 691,-702.5 825,-702.5 825,-683.5 691,-683.5"/>
<text text-anchor="middle" x="758" y="-690.5" font-family="Helvetica,sans-Serif" font-size="10.00">ExtendedIOElement.hpp</text>
</a>
</g>
</g>
<!-- Node26&#45;&gt;Node27 -->
<g id="edge50" class="edge">
<title>Node26&#45;&gt;Node27</title>
<path fill="none" stroke="midnightblue" d="M1043.28,-739.44C983.03,-729.85 885.39,-714.29 821.43,-704.1"/>
<polygon fill="midnightblue" stroke="midnightblue" points="821.89,-700.63 811.46,-702.52 820.79,-707.55 821.89,-700.63"/>
</g>
<!-- Node34 -->
<g id="node34" class="node">
<title>Node34</title>
<g id="a_node34"><a xlink:href="../../d5/db6/ArrayHelpers_8hpp.html" target="_top" xlink:title=" ">
<polygon fill="white" stroke="black" points="1387,-566 1387,-585 1561,-585 1561,-566 1387,-566"/>
<text text-anchor="middle" x="1474" y="-573" font-family="Helvetica,sans-Serif" font-size="10.00">AH/Containers/ArrayHelpers.hpp</text>
</a>
</g>
</g>
<!-- Node26&#45;&gt;Node34 -->
<g id="edge67" class="edge">
<title>Node26&#45;&gt;Node34</title>
<path fill="none" stroke="midnightblue" d="M1128.32,-739.43C1180.69,-724.47 1288.6,-690.95 1373,-647 1403.76,-630.98 1436.08,-606.97 1455.64,-591.52"/>
<polygon fill="midnightblue" stroke="midnightblue" points="1458.06,-594.06 1463.67,-585.08 1453.68,-588.6 1458.06,-594.06"/>
</g>
<!-- Node27&#45;&gt;Node2 -->
<g id="edge51" class="edge">
<title>Node27&#45;&gt;Node2</title>
<path fill="none" stroke="midnightblue" d="M799.66,-683.44C945.46,-652.32 1424,-539.76 1424,-403 1424,-403 1424,-403 1424,-121 1424,-78.87 1393.17,-73.83 1355,-56 1303.88,-32.13 1153.06,-20.1 1057.8,-14.73"/>
<polygon fill="midnightblue" stroke="midnightblue" points="1057.8,-11.22 1047.62,-14.17 1057.41,-18.21 1057.8,-11.22"/>
</g>
<!-- Node27&#45;&gt;Node3 -->
<g id="edge52" class="edge">
<title>Node27&#45;&gt;Node3</title>
<path fill="none" stroke="midnightblue" d="M690.91,-685.22C592.67,-675.28 409.96,-656.81 304.58,-646.15"/>
<polygon fill="midnightblue" stroke="midnightblue" points="304.93,-642.67 294.63,-645.14 304.23,-649.63 304.93,-642.67"/>
</g>
<!-- Node27&#45;&gt;Node10 -->
<g id="edge66" class="edge">
<title>Node27&#45;&gt;Node10</title>
<path fill="none" stroke="midnightblue" d="M711.71,-683.46C604.61,-663.7 338.88,-614.67 207.71,-590.47"/>
<polygon fill="midnightblue" stroke="midnightblue" points="208.2,-587 197.74,-588.63 206.93,-593.88 208.2,-587"/>
</g>
<!-- Node28 -->
<g id="node28" class="node">
<title>Node28</title>
<g id="a_node28"><a xlink:href="../../d4/d93/Updatable_8hpp.html" target="_top" xlink:title=" ">
<polygon fill="white" stroke="black" points="677.5,-504.5 677.5,-523.5 838.5,-523.5 838.5,-504.5 677.5,-504.5"/>
<text text-anchor="middle" x="758" y="-511.5" font-family="Helvetica,sans-Serif" font-size="10.00">AH/Containers/Updatable.hpp</text>
</a>
</g>
</g>
<!-- Node27&#45;&gt;Node28 -->
<g id="edge53" class="edge">
<title>Node27&#45;&gt;Node28</title>
<path fill="none" stroke="midnightblue" d="M758,-683.46C758,-656.43 758,-572.24 758,-534.11"/>
<polygon fill="midnightblue" stroke="midnightblue" points="761.5,-533.87 758,-523.87 754.5,-533.87 761.5,-533.87"/>
</g>
<!-- Node28&#45;&gt;Node2 -->
<g id="edge54" class="edge">
<title>Node28&#45;&gt;Node2</title>
<path fill="none" stroke="midnightblue" d="M838.55,-506.31C892.2,-500.18 963.66,-488.77 1024,-468 1041.67,-461.91 1044.37,-456.54 1061,-448 1093.54,-431.3 1106.08,-434.38 1135,-412 1216.77,-348.71 1286,-338.4 1286,-235 1286,-235 1286,-235 1286,-121 1286,-70.08 1135.6,-36.73 1044.31,-21.17"/>
<polygon fill="midnightblue" stroke="midnightblue" points="1044.75,-17.7 1034.31,-19.5 1043.59,-24.6 1044.75,-17.7"/>
</g>
<!-- Node28&#45;&gt;Node12 -->
<g id="edge62" class="edge">
<title>Node28&#45;&gt;Node12</title>
<path fill="none" stroke="midnightblue" d="M815.68,-504.44C882.22,-494.57 991.25,-478.4 1059.69,-468.24"/>
<polygon fill="midnightblue" stroke="midnightblue" points="1060.52,-471.66 1069.9,-466.73 1059.5,-464.73 1060.52,-471.66"/>
</g>
<!-- Node28&#45;&gt;Node16 -->
<g id="edge64" class="edge">
<title>Node28&#45;&gt;Node16</title>
<path fill="none" stroke="midnightblue" d="M677.32,-508.37C616.97,-503.03 541.61,-491.7 522,-468 500.47,-441.97 501.58,-418.91 522,-392 533.72,-376.56 577.03,-364.98 615.79,-357.44"/>
<polygon fill="midnightblue" stroke="midnightblue" points="616.86,-360.8 626.04,-355.51 615.57,-353.92 616.86,-360.8"/>
</g>
<!-- Node28&#45;&gt;Node21 -->
<g id="edge65" class="edge">
<title>Node28&#45;&gt;Node21</title>
<path fill="none" stroke="midnightblue" d="M677.18,-513.05C607.34,-509.9 522.37,-496.52 555,-448 615.53,-358.01 689.87,-414.79 781,-356 811.38,-336.4 816.92,-327.82 840,-300 852.43,-285.02 864.24,-266.19 872.15,-252.65"/>
<polygon fill="midnightblue" stroke="midnightblue" points="875.25,-254.28 877.18,-243.86 869.17,-250.81 875.25,-254.28"/>
</g>
<!-- Node29 -->
<g id="node29" class="node">
<title>Node29</title>
<g id="a_node29"><a xlink:href="../../d8/db4/AH_2Containers_2CRTP_8hpp.html" target="_top" xlink:title=" ">
<polygon fill="white" stroke="black" points="564,-448.5 564,-467.5 698,-467.5 698,-448.5 564,-448.5"/>
<text text-anchor="middle" x="631" y="-455.5" font-family="Helvetica,sans-Serif" font-size="10.00">AH/Containers/CRTP.hpp</text>
</a>
</g>
</g>
<!-- Node28&#45;&gt;Node29 -->
<g id="edge55" class="edge">
<title>Node28&#45;&gt;Node29</title>
<path fill="none" stroke="midnightblue" d="M737.88,-504.44C716.98,-495.56 684.07,-481.56 660.28,-471.45"/>
<polygon fill="midnightblue" stroke="midnightblue" points="661.6,-468.21 651.03,-467.52 658.86,-474.65 661.6,-468.21"/>
</g>
<!-- Node30 -->
<g id="node30" class="node">
<title>Node30</title>
<g id="a_node30"><a xlink:href="../../de/dd1/LinkedList_8hpp.html" target="_top" xlink:title=" ">
<polygon fill="white" stroke="black" points="855.5,-448.5 855.5,-467.5 1014.5,-467.5 1014.5,-448.5 855.5,-448.5"/>
<text text-anchor="middle" x="935" y="-455.5" font-family="Helvetica,sans-Serif" font-size="10.00">AH/Containers/LinkedList.hpp</text>
</a>
</g>
</g>
<!-- Node28&#45;&gt;Node30 -->
<g id="edge56" class="edge">
<title>Node28&#45;&gt;Node30</title>
<path fill="none" stroke="midnightblue" d="M786.05,-504.44C816.08,-495.28 863.91,-480.69 897.24,-470.52"/>
<polygon fill="midnightblue" stroke="midnightblue" points="898.54,-473.78 907.09,-467.52 896.5,-467.09 898.54,-473.78"/>
</g>
<!-- Node33 -->
<g id="node33" class="node">
<title>Node33</title>
<g id="a_node33"><a xlink:title=" ">
<polygon fill="white" stroke="#bfbfbf" points="716.5,-448.5 716.5,-467.5 799.5,-467.5 799.5,-448.5 716.5,-448.5"/>
<text text-anchor="middle" x="758" y="-455.5" font-family="Helvetica,sans-Serif" font-size="10.00">AH/STL/utility</text>
</a>
</g>
</g>
<!-- Node28&#45;&gt;Node33 -->
<g id="edge63" class="edge">
<title>Node28&#45;&gt;Node33</title>
<path fill="none" stroke="midnightblue" d="M758,-504.08C758,-497.01 758,-486.86 758,-477.99"/>
<polygon fill="midnightblue" stroke="midnightblue" points="761.5,-477.75 758,-467.75 754.5,-477.75 761.5,-477.75"/>
</g>
<!-- Node30&#45;&gt;Node2 -->
<g id="edge57" class="edge">
<title>Node30&#45;&gt;Node2</title>
<path fill="none" stroke="midnightblue" d="M940.7,-448.29C951.97,-430.2 976,-386.95 976,-347 976,-347 976,-347 976,-121 976,-88.95 976,-51.64 976,-29.75"/>
<polygon fill="midnightblue" stroke="midnightblue" points="979.5,-29.56 976,-19.56 972.5,-29.56 979.5,-29.56"/>
</g>
<!-- Node30&#45;&gt;Node6 -->
<g id="edge59" class="edge">
<title>Node30&#45;&gt;Node6</title>
<path fill="none" stroke="midnightblue" d="M878.14,-448.46C806.37,-435.97 680.75,-408.29 585,-356 551.83,-337.88 542.86,-330.83 521,-300 484.53,-248.55 463.02,-175.68 454.41,-141.74"/>
<polygon fill="midnightblue" stroke="midnightblue" points="457.75,-140.69 451.97,-131.81 450.95,-142.36 457.75,-140.69"/>
</g>
<!-- Node30&#45;&gt;Node13 -->
<g id="edge58" class="edge">
<title>Node30&#45;&gt;Node13</title>
<path fill="none" stroke="midnightblue" d="M955.6,-448.44C976.99,-439.56 1010.68,-425.56 1035.02,-415.45"/>
<polygon fill="midnightblue" stroke="midnightblue" points="1036.61,-418.58 1044.5,-411.52 1033.92,-412.12 1036.61,-418.58"/>
</g>
<!-- Node31 -->
<g id="node31" class="node">
<title>Node31</title>
<g id="a_node31"><a xlink:title=" ">
<polygon fill="white" stroke="#bfbfbf" points="823.5,-392.5 823.5,-411.5 876.5,-411.5 876.5,-392.5 823.5,-392.5"/>
<text text-anchor="middle" x="850" y="-399.5" font-family="Helvetica,sans-Serif" font-size="10.00">stdlib.h</text>
</a>
</g>
</g>
<!-- Node30&#45;&gt;Node31 -->
<g id="edge60" class="edge">
<title>Node30&#45;&gt;Node31</title>
<path fill="none" stroke="midnightblue" d="M921.34,-448.32C908.08,-439.9 887.73,-426.97 872.15,-417.07"/>
<polygon fill="midnightblue" stroke="midnightblue" points="873.94,-414.06 863.62,-411.65 870.19,-419.97 873.94,-414.06"/>
</g>
<!-- Node32 -->
<g id="node32" class="node">
<title>Node32</title>
<g id="a_node32"><a xlink:title=" ">
<polygon fill="white" stroke="#bfbfbf" points="894.5,-392.5 894.5,-411.5 947.5,-411.5 947.5,-392.5 894.5,-392.5"/>
<text text-anchor="middle" x="921" y="-399.5" font-family="Helvetica,sans-Serif" font-size="10.00">iterator</text>
</a>
</g>
</g>
<!-- Node30&#45;&gt;Node32 -->
<g id="edge61" class="edge">
<title>Node30&#45;&gt;Node32</title>
<path fill="none" stroke="midnightblue" d="M932.69,-448.08C930.83,-440.93 928.16,-430.64 925.85,-421.69"/>
<polygon fill="midnightblue" stroke="midnightblue" points="929.17,-420.55 923.27,-411.75 922.39,-422.31 929.17,-420.55"/>
</g>
<!-- Node34&#45;&gt;Node2 -->
<g id="edge68" class="edge">
<title>Node34&#45;&gt;Node2</title>
<path fill="none" stroke="midnightblue" d="M1472.98,-565.95C1470.07,-540.93 1462,-465.68 1462,-403 1462,-403 1462,-403 1462,-121 1462,-90.2 1462.38,-74.81 1438,-56 1408.64,-33.35 1182.64,-20.01 1057.96,-14.3"/>
<polygon fill="midnightblue" stroke="midnightblue" points="1057.84,-10.79 1047.69,-13.83 1057.52,-17.78 1057.84,-10.79"/>
</g>
<!-- Node34&#45;&gt;Node11 -->
<g id="edge69" class="edge">
<title>Node34&#45;&gt;Node11</title>
<path fill="none" stroke="midnightblue" d="M1435.03,-565.98C1386.45,-555.35 1303.42,-537.18 1250.7,-525.65"/>
<polygon fill="midnightblue" stroke="midnightblue" points="1251.42,-522.23 1240.9,-523.51 1249.92,-529.07 1251.42,-522.23"/>
</g>
<!-- Node34&#45;&gt;Node14 -->
<g id="edge71" class="edge">
<title>Node34&#45;&gt;Node14</title>
<path fill="none" stroke="midnightblue" d="M1465.61,-565.77C1422.02,-520.37 1221.09,-311.11 1163.48,-251.12"/>
<polygon fill="midnightblue" stroke="midnightblue" points="1165.78,-248.46 1156.33,-243.68 1160.73,-253.31 1165.78,-248.46"/>
</g>
<!-- Node35 -->
<g id="node35" class="node">
<title>Node35</title>
<g id="a_node35"><a xlink:title=" ">
<polygon fill="white" stroke="#bfbfbf" points="1480.5,-504.5 1480.5,-523.5 1581.5,-523.5 1581.5,-504.5 1480.5,-504.5"/>
<text text-anchor="middle" x="1531" y="-511.5" font-family="Helvetica,sans-Serif" font-size="10.00">AH/STL/algorithm</text>
</a>
</g>
</g>
<!-- Node34&#45;&gt;Node35 -->
<g id="edge70" class="edge">
<title>Node34&#45;&gt;Node35</title>
<path fill="none" stroke="midnightblue" d="M1482.17,-565.98C1490.89,-556.87 1504.9,-542.24 1515.69,-530.98"/>
<polygon fill="midnightblue" stroke="midnightblue" points="1518.46,-533.15 1522.85,-523.51 1513.4,-528.31 1518.46,-533.15"/>
</g>
<!-- Node36&#45;&gt;Node2 -->
<g id="edge73" class="edge">
<title>Node36&#45;&gt;Node2</title>
<path fill="none" stroke="midnightblue" d="M426.05,-504.24C431.15,-463.79 455.82,-291.83 520,-168 534.82,-139.4 538.75,-129.17 566,-112 667.57,-47.99 806.97,-24.55 894.24,-15.96"/>
<polygon fill="midnightblue" stroke="midnightblue" points="894.73,-19.43 904.35,-15.01 894.07,-12.46 894.73,-19.43"/>
</g>
<!-- Node36&#45;&gt;Node4 -->
<g id="edge75" class="edge">
<title>Node36&#45;&gt;Node4</title>
<path fill="none" stroke="midnightblue" d="M422.78,-504.14C419.62,-491.61 413.58,-468 408,-448 368.89,-307.8 317.5,-139.93 300.63,-85.21"/>
<polygon fill="midnightblue" stroke="midnightblue" points="303.94,-84.08 297.65,-75.55 297.25,-86.14 303.94,-84.08"/>
</g>
<!-- Node36&#45;&gt;Node12 -->
<g id="edge74" class="edge">
<title>Node36&#45;&gt;Node12</title>
<path fill="none" stroke="midnightblue" d="M499.74,-507.79C613.12,-499.78 835.38,-483.75 1024,-468 1035.52,-467.04 1047.8,-465.96 1059.63,-464.88"/>
<polygon fill="midnightblue" stroke="midnightblue" points="1060.24,-468.34 1069.88,-463.95 1059.61,-461.37 1060.24,-468.34"/>
</g>
<!-- Node36&#45;&gt;Node22 -->
<g id="edge76" class="edge">
<title>Node36&#45;&gt;Node22</title>
<path fill="none" stroke="midnightblue" d="M420.94,-504.38C402.64,-465.54 327.68,-306.47 302.38,-252.79"/>
<polygon fill="midnightblue" stroke="midnightblue" points="305.45,-251.08 298.02,-243.52 299.11,-254.06 305.45,-251.08"/>
</g>
<!-- Node37&#45;&gt;Node1 -->
<g id="edge79" class="edge">
<title>Node37&#45;&gt;Node1</title>
<path fill="none" stroke="midnightblue" d="M337.4,-758.75C346.27,-766.4 357.36,-777.74 365.39,-787.14"/>
<polygon fill="midnightblue" stroke="midnightblue" points="362.76,-789.46 371.74,-795.08 368.23,-785.09 362.76,-789.46"/>
</g>
<!-- Node37&#45;&gt;Node3 -->
<g id="edge78" class="edge">
<title>Node37&#45;&gt;Node3</title>
<path fill="none" stroke="midnightblue" d="M316.15,-739.37C299.43,-720.97 260.06,-677.67 238.59,-654.05"/>
<polygon fill="midnightblue" stroke="midnightblue" points="241.13,-651.64 231.81,-646.59 235.95,-656.35 241.13,-651.64"/>
</g>
<!-- Node38 -->
<g id="node38" class="node">
<title>Node38</title>
<g id="a_node38"><a xlink:href="../../d1/d1f/ShiftRegisterOutRGB_8hpp.html" target="_top" xlink:title=" ">
<polygon fill="white" stroke="black" points="218,-392.5 218,-411.5 356,-411.5 356,-392.5 218,-392.5"/>
<text text-anchor="middle" x="287" y="-399.5" font-family="Helvetica,sans-Serif" font-size="10.00">ShiftRegisterOutRGB.hpp</text>
</a>
</g>
</g>
<!-- Node37&#45;&gt;Node38 -->
<g id="edge80" class="edge">
<title>Node37&#45;&gt;Node38</title>
<path fill="none" stroke="midnightblue" d="M323.87,-739.44C323.6,-720.94 323,-675.81 323,-638 323,-638 323,-638 323,-513 323,-478.98 307.26,-441.85 296.59,-420.6"/>
<polygon fill="midnightblue" stroke="midnightblue" points="299.59,-418.77 291.86,-411.53 293.38,-422.01 299.59,-418.77"/>
</g>
<!-- Node38&#45;&gt;Node2 -->
<g id="edge81" class="edge">
<title>Node38&#45;&gt;Node2</title>
<path fill="none" stroke="midnightblue" d="M279.5,-392.4C243.16,-349.72 91.09,-158.61 188,-56 211.98,-30.62 697.43,-17.12 894.21,-12.68"/>
<polygon fill="midnightblue" stroke="midnightblue" points="894.58,-16.17 904.49,-12.45 894.42,-9.18 894.58,-16.17"/>
</g>
<!-- Node38&#45;&gt;Node16 -->
<g id="edge83" class="edge">
<title>Node38&#45;&gt;Node16</title>
<path fill="none" stroke="midnightblue" d="M349.75,-392.44C420.57,-382.79 535.6,-367.1 610.29,-356.92"/>
<polygon fill="midnightblue" stroke="midnightblue" points="611.11,-360.34 620.55,-355.52 610.16,-353.4 611.11,-360.34"/>
</g>
<!-- Node38&#45;&gt;Node22 -->
<g id="edge82" class="edge">
<title>Node38&#45;&gt;Node22</title>
<path fill="none" stroke="midnightblue" d="M287.38,-392.08C288.48,-365.95 291.71,-289.21 293.22,-253.58"/>
<polygon fill="midnightblue" stroke="midnightblue" points="296.71,-253.71 293.64,-243.57 289.72,-253.41 296.71,-253.71"/>
</g>
</g>
</svg>
