<?xml version="1.0" encoding="UTF-8" standalone="no"?>
<!DOCTYPE svg PUBLIC "-//W3C//DTD SVG 1.1//EN"
 "http://www.w3.org/Graphics/SVG/1.1/DTD/svg11.dtd">
<!-- Generated by graphviz version 2.38.0 (20140413.2041)
 -->
<!-- Title: BankableMIDIOutput Pages: 1 -->
<svg width="1862pt" height="590pt"
 viewBox="0.00 0.00 1861.50 590.00" xmlns="http://www.w3.org/2000/svg" xmlns:xlink="http://www.w3.org/1999/xlink">
<g id="graph0" class="graph" transform="scale(1 1) rotate(0) translate(4 586)">
<title>BankableMIDIOutput</title>
<polygon fill="white" stroke="none" points="-4,4 -4,-586 1857.5,-586 1857.5,4 -4,4"/>
<!-- Node1 -->
<g id="node1" class="node"><title>Node1</title>
<g id="a_node1"><a xlink:title="A base class for all MIDIOutputElements that can be banked.">
<polygon fill="#bfbfbf" stroke="black" points="901.5,-342.5 901.5,-421.5 1024.5,-421.5 1024.5,-342.5 901.5,-342.5"/>
<text text-anchor="middle" x="963" y="-409.5" font-family="Helvetica,sans-Serif" font-size="10.00">BankableMIDIOutput</text>
<polyline fill="none" stroke="black" points="901.5,-402.5 1024.5,-402.5 "/>
<text text-anchor="start" x="909.5" y="-390.5" font-family="Helvetica,sans-Serif" font-size="10.00">&#45; type</text>
<polyline fill="none" stroke="black" points="901.5,-383.5 1024.5,-383.5 "/>
<text text-anchor="start" x="909.5" y="-371.5" font-family="Helvetica,sans-Serif" font-size="10.00">+ BankableMIDIOutput()</text>
<text text-anchor="start" x="909.5" y="-360.5" font-family="Helvetica,sans-Serif" font-size="10.00">+ BankableMIDIOutput()</text>
<text text-anchor="start" x="909.5" y="-349.5" font-family="Helvetica,sans-Serif" font-size="10.00">+ getAddressOffset()</text>
</a>
</g>
</g>
<!-- Node3 -->
<g id="node3" class="node"><title>Node3</title>
<g id="a_node3"><a xlink:href="../../d7/dc9/classBankable_1_1ManyAddresses_1_1ManyMatrixAddresses.html" target="_top" xlink:title=" ">
<polygon fill="white" stroke="black" points="0,-171.5 0,-272.5 166,-272.5 166,-171.5 0,-171.5"/>
<text text-anchor="start" x="8" y="-260.5" font-family="Helvetica,sans-Serif" font-size="10.00">Bankable::ManyAddresses</text>
<text text-anchor="start" x="8" y="-249.5" font-family="Helvetica,sans-Serif" font-size="10.00">::ManyMatrixAddresses</text>
<text text-anchor="middle" x="83" y="-238.5" font-family="Helvetica,sans-Serif" font-size="10.00">&lt; NumBanks, nb_rows, nb_cols &gt;</text>
<polyline fill="none" stroke="black" points="0,-231.5 166,-231.5 "/>
<text text-anchor="start" x="8" y="-219.5" font-family="Helvetica,sans-Serif" font-size="10.00">&#45; addresses</text>
<text text-anchor="start" x="8" y="-208.5" font-family="Helvetica,sans-Serif" font-size="10.00">&#45; channelCNs</text>
<polyline fill="none" stroke="black" points="0,-201.5 166,-201.5 "/>
<text text-anchor="start" x="8" y="-189.5" font-family="Helvetica,sans-Serif" font-size="10.00">+ ManyMatrixAddresses()</text>
<text text-anchor="start" x="8" y="-178.5" font-family="Helvetica,sans-Serif" font-size="10.00">+ getActiveAddress()</text>
</a>
</g>
</g>
<!-- Node1&#45;&gt;Node3 -->
<g id="edge2" class="edge"><title>Node1&#45;&gt;Node3</title>
<path fill="none" stroke="midnightblue" d="M891.411,-379.896C722.256,-376.38 302.508,-362.095 175,-306 157.279,-298.204 140.647,-285.631 126.529,-272.603"/>
<polygon fill="none" stroke="midnightblue" points="891.391,-383.396 901.459,-380.098 891.532,-376.398 891.391,-383.396"/>
</g>
<!-- Node4 -->
<g id="node4" class="node"><title>Node4</title>
<g id="a_node4"><a xlink:href="../../d7/d27/classBankable_1_1ManyAddresses_1_1TwoManyAddresses.html" target="_top" xlink:title=" ">
<polygon fill="white" stroke="black" points="184.5,-182.5 184.5,-261.5 363.5,-261.5 363.5,-182.5 184.5,-182.5"/>
<text text-anchor="start" x="192.5" y="-249.5" font-family="Helvetica,sans-Serif" font-size="10.00">Bankable::ManyAddresses</text>
<text text-anchor="middle" x="274" y="-238.5" font-family="Helvetica,sans-Serif" font-size="10.00">::TwoManyAddresses&lt; NumBanks &gt;</text>
<polyline fill="none" stroke="black" points="184.5,-231.5 363.5,-231.5 "/>
<text text-anchor="start" x="192.5" y="-219.5" font-family="Helvetica,sans-Serif" font-size="10.00">&#45; addresses</text>
<polyline fill="none" stroke="black" points="184.5,-212.5 363.5,-212.5 "/>
<text text-anchor="start" x="192.5" y="-200.5" font-family="Helvetica,sans-Serif" font-size="10.00">+ TwoManyAddresses()</text>
<text text-anchor="start" x="192.5" y="-189.5" font-family="Helvetica,sans-Serif" font-size="10.00">+ getActiveAddress()</text>
</a>
</g>
</g>
<!-- Node1&#45;&gt;Node4 -->
<g id="edge3" class="edge"><title>Node1&#45;&gt;Node4</title>
<path fill="none" stroke="midnightblue" d="M890.954,-376.921C754.656,-368.377 464.518,-346.003 373,-306 349.572,-295.759 327.377,-278.18 309.963,-261.829"/>
<polygon fill="none" stroke="midnightblue" points="891.09,-380.436 901.288,-377.561 891.523,-373.449 891.09,-380.436"/>
</g>
<!-- Node5 -->
<g id="node5" class="node"><title>Node5</title>
<g id="a_node5"><a xlink:href="../../d7/db5/classBankable_1_1MatrixAddress.html" target="_top" xlink:title=" ">
<polygon fill="white" stroke="black" points="382,-171.5 382,-272.5 508,-272.5 508,-171.5 382,-171.5"/>
<text text-anchor="start" x="390" y="-260.5" font-family="Helvetica,sans-Serif" font-size="10.00">Bankable::MatrixAddress</text>
<text text-anchor="middle" x="445" y="-249.5" font-family="Helvetica,sans-Serif" font-size="10.00">&lt; nb_rows, nb_cols &gt;</text>
<polyline fill="none" stroke="black" points="382,-242.5 508,-242.5 "/>
<text text-anchor="start" x="390" y="-230.5" font-family="Helvetica,sans-Serif" font-size="10.00">&#45; addresses</text>
<text text-anchor="start" x="390" y="-219.5" font-family="Helvetica,sans-Serif" font-size="10.00">&#45; channelCN</text>
<polyline fill="none" stroke="black" points="382,-212.5 508,-212.5 "/>
<text text-anchor="start" x="390" y="-200.5" font-family="Helvetica,sans-Serif" font-size="10.00">+ MatrixAddress()</text>
<text text-anchor="start" x="390" y="-189.5" font-family="Helvetica,sans-Serif" font-size="10.00">+ getBaseAddress()</text>
<text text-anchor="start" x="390" y="-178.5" font-family="Helvetica,sans-Serif" font-size="10.00">+ getActiveAddress()</text>
</a>
</g>
</g>
<!-- Node1&#45;&gt;Node5 -->
<g id="edge4" class="edge"><title>Node1&#45;&gt;Node5</title>
<path fill="none" stroke="midnightblue" d="M891.203,-374.858C781.909,-364.525 579.849,-341.273 517,-306 502.361,-297.784 489.279,-285.409 478.412,-272.705"/>
<polygon fill="none" stroke="midnightblue" points="891.201,-378.373 901.483,-375.817 891.852,-371.403 891.201,-378.373"/>
</g>
<!-- Node6 -->
<g id="node6" class="node"><title>Node6</title>
<g id="a_node6"><a xlink:href="../../dc/d22/classBankable_1_1MIDIButtons.html" target="_top" xlink:title="An abstract class for momentary push buttons that send MIDI events.">
<polygon fill="white" stroke="black" points="526,-144 526,-300 714,-300 714,-144 526,-144"/>
<text text-anchor="start" x="534" y="-288" font-family="Helvetica,sans-Serif" font-size="10.00">Bankable::MIDIButtons</text>
<text text-anchor="middle" x="620" y="-277" font-family="Helvetica,sans-Serif" font-size="10.00">&lt; Sender, NUMBER_OF_BUTTONS &gt;</text>
<polyline fill="none" stroke="black" points="526,-270 714,-270 "/>
<text text-anchor="start" x="534" y="-258" font-family="Helvetica,sans-Serif" font-size="10.00">+ sender</text>
<text text-anchor="start" x="534" y="-247" font-family="Helvetica,sans-Serif" font-size="10.00">&#45; buttons</text>
<text text-anchor="start" x="534" y="-236" font-family="Helvetica,sans-Serif" font-size="10.00">&#45; baseAddress</text>
<text text-anchor="start" x="534" y="-225" font-family="Helvetica,sans-Serif" font-size="10.00">&#45; incrementAddress</text>
<text text-anchor="start" x="534" y="-214" font-family="Helvetica,sans-Serif" font-size="10.00">&#45; activeButtons</text>
<polyline fill="none" stroke="black" points="526,-207 714,-207 "/>
<text text-anchor="start" x="534" y="-195" font-family="Helvetica,sans-Serif" font-size="10.00">+ begin()</text>
<text text-anchor="start" x="534" y="-184" font-family="Helvetica,sans-Serif" font-size="10.00">+ update()</text>
<text text-anchor="start" x="534" y="-173" font-family="Helvetica,sans-Serif" font-size="10.00">+ invert()</text>
<text text-anchor="start" x="534" y="-162" font-family="Helvetica,sans-Serif" font-size="10.00">+ getButtonState()</text>
<text text-anchor="start" x="534" y="-151" font-family="Helvetica,sans-Serif" font-size="10.00"># MIDIButtons()</text>
</a>
</g>
</g>
<!-- Node1&#45;&gt;Node6 -->
<g id="edge5" class="edge"><title>Node1&#45;&gt;Node6</title>
<path fill="none" stroke="midnightblue" d="M891.395,-366.097C842.165,-354.09 776.315,-334.477 723,-306 719.556,-304.161 716.116,-302.2 712.693,-300.141"/>
<polygon fill="none" stroke="midnightblue" points="890.784,-369.549 901.324,-368.47 892.412,-362.741 890.784,-369.549"/>
</g>
<!-- Node8 -->
<g id="node8" class="node"><title>Node8</title>
<g id="a_node8"><a xlink:href="../../dc/dd5/classBankable_1_1MIDIRotaryEncoder.html" target="_top" xlink:title="An abstract class for rotary encoders that send MIDI events and that can be added to a Bank.">
<polygon fill="white" stroke="black" points="732,-149.5 732,-294.5 882,-294.5 882,-149.5 732,-149.5"/>
<text text-anchor="start" x="740" y="-282.5" font-family="Helvetica,sans-Serif" font-size="10.00">Bankable::MIDIRotaryEncoder</text>
<text text-anchor="middle" x="807" y="-271.5" font-family="Helvetica,sans-Serif" font-size="10.00">&lt; Sender &gt;</text>
<polyline fill="none" stroke="black" points="732,-264.5 882,-264.5 "/>
<text text-anchor="start" x="740" y="-252.5" font-family="Helvetica,sans-Serif" font-size="10.00">+ sender</text>
<text text-anchor="start" x="740" y="-241.5" font-family="Helvetica,sans-Serif" font-size="10.00">&#45; encoder</text>
<text text-anchor="start" x="740" y="-230.5" font-family="Helvetica,sans-Serif" font-size="10.00">&#45; address</text>
<text text-anchor="start" x="740" y="-219.5" font-family="Helvetica,sans-Serif" font-size="10.00">&#45; speedMultiply</text>
<text text-anchor="start" x="740" y="-208.5" font-family="Helvetica,sans-Serif" font-size="10.00">&#45; pulsesPerStep</text>
<text text-anchor="start" x="740" y="-197.5" font-family="Helvetica,sans-Serif" font-size="10.00">&#45; previousPosition</text>
<polyline fill="none" stroke="black" points="732,-190.5 882,-190.5 "/>
<text text-anchor="start" x="740" y="-178.5" font-family="Helvetica,sans-Serif" font-size="10.00">+ begin()</text>
<text text-anchor="start" x="740" y="-167.5" font-family="Helvetica,sans-Serif" font-size="10.00">+ update()</text>
<text text-anchor="start" x="740" y="-156.5" font-family="Helvetica,sans-Serif" font-size="10.00"># MIDIRotaryEncoder()</text>
</a>
</g>
</g>
<!-- Node1&#45;&gt;Node8 -->
<g id="edge7" class="edge"><title>Node1&#45;&gt;Node8</title>
<path fill="none" stroke="midnightblue" d="M917.64,-335.059C905.125,-322.383 891.243,-308.323 877.66,-294.566"/>
<polygon fill="none" stroke="midnightblue" points="915.322,-337.692 924.838,-342.349 920.303,-332.774 915.322,-337.692"/>
</g>
<!-- Node9 -->
<g id="node9" class="node"><title>Node9</title>
<g id="a_node9"><a xlink:href="../../df/de5/classBankable_1_1SingleAddress.html" target="_top" xlink:title=" ">
<polygon fill="white" stroke="black" points="900,-182.5 900,-261.5 1026,-261.5 1026,-182.5 900,-182.5"/>
<text text-anchor="middle" x="963" y="-249.5" font-family="Helvetica,sans-Serif" font-size="10.00">Bankable::SingleAddress</text>
<polyline fill="none" stroke="black" points="900,-242.5 1026,-242.5 "/>
<text text-anchor="start" x="908" y="-230.5" font-family="Helvetica,sans-Serif" font-size="10.00">&#45; address</text>
<polyline fill="none" stroke="black" points="900,-223.5 1026,-223.5 "/>
<text text-anchor="start" x="908" y="-211.5" font-family="Helvetica,sans-Serif" font-size="10.00">+ SingleAddress()</text>
<text text-anchor="start" x="908" y="-200.5" font-family="Helvetica,sans-Serif" font-size="10.00">+ getBaseAddress()</text>
<text text-anchor="start" x="908" y="-189.5" font-family="Helvetica,sans-Serif" font-size="10.00">+ getActiveAddress()</text>
</a>
</g>
</g>
<!-- Node1&#45;&gt;Node9 -->
<g id="edge8" class="edge"><title>Node1&#45;&gt;Node9</title>
<path fill="none" stroke="midnightblue" d="M963,-332.214C963,-309.48 963,-282.816 963,-261.526"/>
<polygon fill="none" stroke="midnightblue" points="959.5,-332.349 963,-342.349 966.5,-332.349 959.5,-332.349"/>
</g>
<!-- Node10 -->
<g id="node10" class="node"><title>Node10</title>
<g id="a_node10"><a xlink:href="../../d3/df8/classBankable_1_1TwoSingleAddresses.html" target="_top" xlink:title=" ">
<polygon fill="white" stroke="black" points="1044.5,-182.5 1044.5,-261.5 1199.5,-261.5 1199.5,-182.5 1044.5,-182.5"/>
<text text-anchor="middle" x="1122" y="-249.5" font-family="Helvetica,sans-Serif" font-size="10.00">Bankable::TwoSingleAddresses</text>
<polyline fill="none" stroke="black" points="1044.5,-242.5 1199.5,-242.5 "/>
<text text-anchor="start" x="1052.5" y="-230.5" font-family="Helvetica,sans-Serif" font-size="10.00">&#45; addresses</text>
<polyline fill="none" stroke="black" points="1044.5,-223.5 1199.5,-223.5 "/>
<text text-anchor="start" x="1052.5" y="-211.5" font-family="Helvetica,sans-Serif" font-size="10.00">+ TwoSingleAddresses()</text>
<text text-anchor="start" x="1052.5" y="-200.5" font-family="Helvetica,sans-Serif" font-size="10.00">+ getBaseAddress()</text>
<text text-anchor="start" x="1052.5" y="-189.5" font-family="Helvetica,sans-Serif" font-size="10.00">+ getActiveAddress()</text>
</a>
</g>
</g>
<!-- Node1&#45;&gt;Node10 -->
<g id="edge9" class="edge"><title>Node1&#45;&gt;Node10</title>
<path fill="none" stroke="midnightblue" d="M1009.03,-335.261C1032.54,-311.893 1060.84,-283.775 1083.23,-261.526"/>
<polygon fill="none" stroke="midnightblue" points="1006.52,-332.817 1001.9,-342.349 1011.46,-337.783 1006.52,-332.817"/>
</g>
<!-- Node11 -->
<g id="node11" class="node"><title>Node11</title>
<g id="a_node11"><a xlink:href="../../dc/d22/classBankable_1_1MIDIButtons.html" target="_top" xlink:title=" ">
<polygon fill="white" stroke="black" points="1217.5,-138.5 1217.5,-305.5 1366.5,-305.5 1366.5,-138.5 1217.5,-138.5"/>
<text text-anchor="start" x="1225.5" y="-293.5" font-family="Helvetica,sans-Serif" font-size="10.00">Bankable::MIDIButtons</text>
<text text-anchor="start" x="1225.5" y="-282.5" font-family="Helvetica,sans-Serif" font-size="10.00">&lt; DigitalCCSender, NUMBER</text>
<text text-anchor="middle" x="1292" y="-271.5" font-family="Helvetica,sans-Serif" font-size="10.00">_OF_BUTTONS &gt;</text>
<polyline fill="none" stroke="black" points="1217.5,-264.5 1366.5,-264.5 "/>
<text text-anchor="start" x="1225.5" y="-252.5" font-family="Helvetica,sans-Serif" font-size="10.00">+ sender</text>
<text text-anchor="start" x="1225.5" y="-241.5" font-family="Helvetica,sans-Serif" font-size="10.00">&#45; buttons</text>
<text text-anchor="start" x="1225.5" y="-230.5" font-family="Helvetica,sans-Serif" font-size="10.00">&#45; baseAddress</text>
<text text-anchor="start" x="1225.5" y="-219.5" font-family="Helvetica,sans-Serif" font-size="10.00">&#45; incrementAddress</text>
<text text-anchor="start" x="1225.5" y="-208.5" font-family="Helvetica,sans-Serif" font-size="10.00">&#45; activeButtons</text>
<polyline fill="none" stroke="black" points="1217.5,-201.5 1366.5,-201.5 "/>
<text text-anchor="start" x="1225.5" y="-189.5" font-family="Helvetica,sans-Serif" font-size="10.00">+ begin()</text>
<text text-anchor="start" x="1225.5" y="-178.5" font-family="Helvetica,sans-Serif" font-size="10.00">+ update()</text>
<text text-anchor="start" x="1225.5" y="-167.5" font-family="Helvetica,sans-Serif" font-size="10.00">+ invert()</text>
<text text-anchor="start" x="1225.5" y="-156.5" font-family="Helvetica,sans-Serif" font-size="10.00">+ getButtonState()</text>
<text text-anchor="start" x="1225.5" y="-145.5" font-family="Helvetica,sans-Serif" font-size="10.00"># MIDIButtons()</text>
</a>
</g>
</g>
<!-- Node1&#45;&gt;Node11 -->
<g id="edge10" class="edge"><title>Node1&#45;&gt;Node11</title>
<path fill="none" stroke="midnightblue" d="M1034.45,-368.625C1085.43,-357.6 1154.2,-338.12 1208,-306 1211.17,-304.108 1214.31,-302.072 1217.4,-299.922"/>
<polygon fill="none" stroke="midnightblue" points="1033.57,-365.234 1024.5,-370.719 1035.01,-372.084 1033.57,-365.234"/>
</g>
<!-- Node14 -->
<g id="node14" class="node"><title>Node14</title>
<g id="a_node14"><a xlink:href="../../dc/d22/classBankable_1_1MIDIButtons.html" target="_top" xlink:title=" ">
<polygon fill="white" stroke="black" points="1384.5,-138.5 1384.5,-305.5 1529.5,-305.5 1529.5,-138.5 1384.5,-138.5"/>
<text text-anchor="start" x="1392.5" y="-293.5" font-family="Helvetica,sans-Serif" font-size="10.00">Bankable::MIDIButtons</text>
<text text-anchor="start" x="1392.5" y="-282.5" font-family="Helvetica,sans-Serif" font-size="10.00">&lt; DigitalNoteSender,</text>
<text text-anchor="middle" x="1457" y="-271.5" font-family="Helvetica,sans-Serif" font-size="10.00"> NUMBER_OF_BUTTONS &gt;</text>
<polyline fill="none" stroke="black" points="1384.5,-264.5 1529.5,-264.5 "/>
<text text-anchor="start" x="1392.5" y="-252.5" font-family="Helvetica,sans-Serif" font-size="10.00">+ sender</text>
<text text-anchor="start" x="1392.5" y="-241.5" font-family="Helvetica,sans-Serif" font-size="10.00">&#45; buttons</text>
<text text-anchor="start" x="1392.5" y="-230.5" font-family="Helvetica,sans-Serif" font-size="10.00">&#45; baseAddress</text>
<text text-anchor="start" x="1392.5" y="-219.5" font-family="Helvetica,sans-Serif" font-size="10.00">&#45; incrementAddress</text>
<text text-anchor="start" x="1392.5" y="-208.5" font-family="Helvetica,sans-Serif" font-size="10.00">&#45; activeButtons</text>
<polyline fill="none" stroke="black" points="1384.5,-201.5 1529.5,-201.5 "/>
<text text-anchor="start" x="1392.5" y="-189.5" font-family="Helvetica,sans-Serif" font-size="10.00">+ begin()</text>
<text text-anchor="start" x="1392.5" y="-178.5" font-family="Helvetica,sans-Serif" font-size="10.00">+ update()</text>
<text text-anchor="start" x="1392.5" y="-167.5" font-family="Helvetica,sans-Serif" font-size="10.00">+ invert()</text>
<text text-anchor="start" x="1392.5" y="-156.5" font-family="Helvetica,sans-Serif" font-size="10.00">+ getButtonState()</text>
<text text-anchor="start" x="1392.5" y="-145.5" font-family="Helvetica,sans-Serif" font-size="10.00"># MIDIButtons()</text>
</a>
</g>
</g>
<!-- Node1&#45;&gt;Node14 -->
<g id="edge13" class="edge"><title>Node1&#45;&gt;Node14</title>
<path fill="none" stroke="midnightblue" d="M1034.84,-380.81C1120.56,-377.778 1265.96,-363.571 1375,-306 1378.13,-304.345 1381.22,-302.528 1384.26,-300.58"/>
<polygon fill="none" stroke="midnightblue" points="1034.58,-377.317 1024.69,-381.127 1034.79,-384.313 1034.58,-377.317"/>
</g>
<!-- Node15 -->
<g id="node15" class="node"><title>Node15</title>
<g id="a_node15"><a xlink:href="../../dc/dd5/classBankable_1_1MIDIRotaryEncoder.html" target="_top" xlink:title=" ">
<polygon fill="white" stroke="black" points="1548,-149.5 1548,-294.5 1698,-294.5 1698,-149.5 1548,-149.5"/>
<text text-anchor="start" x="1556" y="-282.5" font-family="Helvetica,sans-Serif" font-size="10.00">Bankable::MIDIRotaryEncoder</text>
<text text-anchor="middle" x="1623" y="-271.5" font-family="Helvetica,sans-Serif" font-size="10.00">&lt; RelativeCCSender &gt;</text>
<polyline fill="none" stroke="black" points="1548,-264.5 1698,-264.5 "/>
<text text-anchor="start" x="1556" y="-252.5" font-family="Helvetica,sans-Serif" font-size="10.00">+ sender</text>
<text text-anchor="start" x="1556" y="-241.5" font-family="Helvetica,sans-Serif" font-size="10.00">&#45; encoder</text>
<text text-anchor="start" x="1556" y="-230.5" font-family="Helvetica,sans-Serif" font-size="10.00">&#45; address</text>
<text text-anchor="start" x="1556" y="-219.5" font-family="Helvetica,sans-Serif" font-size="10.00">&#45; speedMultiply</text>
<text text-anchor="start" x="1556" y="-208.5" font-family="Helvetica,sans-Serif" font-size="10.00">&#45; pulsesPerStep</text>
<text text-anchor="start" x="1556" y="-197.5" font-family="Helvetica,sans-Serif" font-size="10.00">&#45; previousPosition</text>
<polyline fill="none" stroke="black" points="1548,-190.5 1698,-190.5 "/>
<text text-anchor="start" x="1556" y="-178.5" font-family="Helvetica,sans-Serif" font-size="10.00">+ begin()</text>
<text text-anchor="start" x="1556" y="-167.5" font-family="Helvetica,sans-Serif" font-size="10.00">+ update()</text>
<text text-anchor="start" x="1556" y="-156.5" font-family="Helvetica,sans-Serif" font-size="10.00"># MIDIRotaryEncoder()</text>
</a>
</g>
</g>
<!-- Node1&#45;&gt;Node15 -->
<g id="edge14" class="edge"><title>Node1&#45;&gt;Node15</title>
<path fill="none" stroke="midnightblue" d="M1035.01,-377.279C1168.96,-369.436 1450.71,-348.336 1538,-306 1544.59,-302.805 1550.98,-298.899 1557.11,-294.543"/>
<polygon fill="none" stroke="midnightblue" points="1034.63,-373.795 1024.85,-377.865 1035.04,-380.783 1034.63,-373.795"/>
</g>
<!-- Node17 -->
<g id="node17" class="node"><title>Node17</title>
<g id="a_node17"><a xlink:href="../../d7/d27/classBankable_1_1ManyAddresses_1_1TwoManyAddresses.html" target="_top" xlink:title=" ">
<polygon fill="white" stroke="black" points="1716.5,-182.5 1716.5,-261.5 1853.5,-261.5 1853.5,-182.5 1716.5,-182.5"/>
<text text-anchor="start" x="1724.5" y="-249.5" font-family="Helvetica,sans-Serif" font-size="10.00">Bankable::ManyAddresses</text>
<text text-anchor="middle" x="1785" y="-238.5" font-family="Helvetica,sans-Serif" font-size="10.00">::TwoManyAddresses&lt; N &gt;</text>
<polyline fill="none" stroke="black" points="1716.5,-231.5 1853.5,-231.5 "/>
<text text-anchor="start" x="1724.5" y="-219.5" font-family="Helvetica,sans-Serif" font-size="10.00">&#45; addresses</text>
<polyline fill="none" stroke="black" points="1716.5,-212.5 1853.5,-212.5 "/>
<text text-anchor="start" x="1724.5" y="-200.5" font-family="Helvetica,sans-Serif" font-size="10.00">+ TwoManyAddresses()</text>
<text text-anchor="start" x="1724.5" y="-189.5" font-family="Helvetica,sans-Serif" font-size="10.00">+ getActiveAddress()</text>
</a>
</g>
</g>
<!-- Node1&#45;&gt;Node17 -->
<g id="edge16" class="edge"><title>Node1&#45;&gt;Node17</title>
<path fill="none" stroke="midnightblue" d="M1035.16,-380.096C1198.22,-377.041 1590.02,-363.731 1707,-306 1727.39,-295.936 1745.2,-278.165 1758.64,-261.641"/>
<polygon fill="none" stroke="midnightblue" points="1034.69,-376.604 1024.75,-380.283 1034.81,-383.603 1034.69,-376.604"/>
</g>
<!-- Node2 -->
<g id="node2" class="node"><title>Node2</title>
<g id="a_node2"><a xlink:href="../../d4/d6e/classBankableMIDIOutput__Base.html" target="_top" xlink:title=" ">
<polygon fill="white" stroke="black" points="888,-458.5 888,-581.5 1038,-581.5 1038,-458.5 888,-458.5"/>
<text text-anchor="middle" x="963" y="-569.5" font-family="Helvetica,sans-Serif" font-size="10.00">BankableMIDIOutput_Base</text>
<polyline fill="none" stroke="black" points="888,-562.5 1038,-562.5 "/>
<text text-anchor="start" x="896" y="-550.5" font-family="Helvetica,sans-Serif" font-size="10.00"># bank</text>
<text text-anchor="start" x="896" y="-539.5" font-family="Helvetica,sans-Serif" font-size="10.00">&#45; lockedSetting</text>
<text text-anchor="start" x="896" y="-528.5" font-family="Helvetica,sans-Serif" font-size="10.00">&#45; UNLOCKED</text>
<polyline fill="none" stroke="black" points="888,-521.5 1038,-521.5 "/>
<text text-anchor="start" x="896" y="-509.5" font-family="Helvetica,sans-Serif" font-size="10.00">+ getRawBankSetting()</text>
<text text-anchor="start" x="896" y="-498.5" font-family="Helvetica,sans-Serif" font-size="10.00">+ getSelection()</text>
<text text-anchor="start" x="896" y="-487.5" font-family="Helvetica,sans-Serif" font-size="10.00">+ lock()</text>
<text text-anchor="start" x="896" y="-476.5" font-family="Helvetica,sans-Serif" font-size="10.00">+ unlock()</text>
<text text-anchor="start" x="896" y="-465.5" font-family="Helvetica,sans-Serif" font-size="10.00"># BankableMIDIOutput_Base()</text>
</a>
</g>
</g>
<!-- Node2&#45;&gt;Node1 -->
<g id="edge1" class="edge"><title>Node2&#45;&gt;Node1</title>
<path fill="none" stroke="midnightblue" d="M963,-447.911C963,-438.831 963,-429.824 963,-421.54"/>
<polygon fill="none" stroke="midnightblue" points="959.5,-448.16 963,-458.16 966.5,-448.16 959.5,-448.16"/>
</g>
<!-- Node7 -->
<g id="node7" class="node"><title>Node7</title>
<g id="a_node7"><a xlink:href="../../d6/d5b/classBankable_1_1NoteButtons.html" target="_top" xlink:title="A class of MIDIOutputElements that read the input of a collection of momentary push buttons or switch...">
<polygon fill="white" stroke="black" points="547.5,-0.5 547.5,-101.5 692.5,-101.5 692.5,-0.5 547.5,-0.5"/>
<text text-anchor="start" x="555.5" y="-89.5" font-family="Helvetica,sans-Serif" font-size="10.00">Bankable::NoteButtons</text>
<text text-anchor="start" x="555.5" y="-78.5" font-family="Helvetica,sans-Serif" font-size="10.00">&lt; DigitalNoteSender,</text>
<text text-anchor="middle" x="620" y="-67.5" font-family="Helvetica,sans-Serif" font-size="10.00"> NUMBER_OF_BUTTONS &gt;</text>
<polyline fill="none" stroke="black" points="547.5,-60.5 692.5,-60.5 "/>
<text text-anchor="middle" x="620" y="-48.5" font-family="Helvetica,sans-Serif" font-size="10.00"> </text>
<polyline fill="none" stroke="black" points="547.5,-41.5 692.5,-41.5 "/>
<text text-anchor="start" x="555.5" y="-29.5" font-family="Helvetica,sans-Serif" font-size="10.00">+ NoteButtons()</text>
<text text-anchor="start" x="555.5" y="-18.5" font-family="Helvetica,sans-Serif" font-size="10.00">+ setVelocity()</text>
<text text-anchor="start" x="555.5" y="-7.5" font-family="Helvetica,sans-Serif" font-size="10.00">+ getVelocity()</text>
</a>
</g>
</g>
<!-- Node6&#45;&gt;Node7 -->
<g id="edge6" class="edge"><title>Node6&#45;&gt;Node7</title>
<path fill="none" stroke="midnightblue" d="M620,-133.854C620,-122.89 620,-111.986 620,-101.881"/>
<polygon fill="none" stroke="midnightblue" points="616.5,-133.918 620,-143.918 623.5,-133.918 616.5,-133.918"/>
</g>
<!-- Node12 -->
<g id="node12" class="node"><title>Node12</title>
<g id="a_node12"><a xlink:href="../../d2/def/classBankable_1_1CCButtons.html" target="_top" xlink:title="A class of MIDIOutputElements that read the input of a collection of momentary push buttons or switch...">
<polygon fill="white" stroke="black" points="1135.5,-17 1135.5,-85 1286.5,-85 1286.5,-17 1135.5,-17"/>
<text text-anchor="start" x="1143.5" y="-73" font-family="Helvetica,sans-Serif" font-size="10.00">Bankable::CCButtons</text>
<text text-anchor="middle" x="1211" y="-62" font-family="Helvetica,sans-Serif" font-size="10.00">&lt; NUMBER_OF_BUTTONS &gt;</text>
<polyline fill="none" stroke="black" points="1135.5,-55 1286.5,-55 "/>
<text text-anchor="middle" x="1211" y="-43" font-family="Helvetica,sans-Serif" font-size="10.00"> </text>
<polyline fill="none" stroke="black" points="1135.5,-36 1286.5,-36 "/>
<text text-anchor="start" x="1143.5" y="-24" font-family="Helvetica,sans-Serif" font-size="10.00">+ CCButtons()</text>
</a>
</g>
</g>
<!-- Node11&#45;&gt;Node12 -->
<g id="edge11" class="edge"><title>Node11&#45;&gt;Node12</title>
<path fill="none" stroke="midnightblue" d="M1247.99,-129.166C1240.42,-113.386 1233.02,-97.9495 1226.86,-85.0804"/>
<polygon fill="none" stroke="midnightblue" points="1244.97,-130.975 1252.45,-138.48 1251.28,-127.95 1244.97,-130.975"/>
</g>
<!-- Node13 -->
<g id="node13" class="node"><title>Node13</title>
<g id="a_node13"><a xlink:href="../../d0/dd3/classCCButtons.html" target="_top" xlink:title="A class of MIDIOutputElements that read the input of a collection of momentary push buttons or switch...">
<polygon fill="white" stroke="black" points="1304.5,-17 1304.5,-85 1441.5,-85 1441.5,-17 1304.5,-17"/>
<text text-anchor="start" x="1312.5" y="-73" font-family="Helvetica,sans-Serif" font-size="10.00">CCButtons&lt; NUMBER_OF</text>
<text text-anchor="middle" x="1373" y="-62" font-family="Helvetica,sans-Serif" font-size="10.00">_BUTTONS &gt;</text>
<polyline fill="none" stroke="black" points="1304.5,-55 1441.5,-55 "/>
<text text-anchor="middle" x="1373" y="-43" font-family="Helvetica,sans-Serif" font-size="10.00"> </text>
<polyline fill="none" stroke="black" points="1304.5,-36 1441.5,-36 "/>
<text text-anchor="start" x="1312.5" y="-24" font-family="Helvetica,sans-Serif" font-size="10.00">+ CCButtons()</text>
</a>
</g>
</g>
<!-- Node11&#45;&gt;Node13 -->
<g id="edge12" class="edge"><title>Node11&#45;&gt;Node13</title>
<path fill="none" stroke="midnightblue" d="M1336.01,-129.166C1343.58,-113.386 1350.98,-97.9495 1357.14,-85.0804"/>
<polygon fill="none" stroke="midnightblue" points="1332.72,-127.95 1331.55,-138.48 1339.03,-130.975 1332.72,-127.95"/>
</g>
<!-- Node16 -->
<g id="node16" class="node"><title>Node16</title>
<g id="a_node16"><a xlink:href="../../da/d40/classBankable_1_1CCRotaryEncoder.html" target="_top" xlink:title="A class of MIDIOutputElements that read the input of a quadrature (rotary) encoder and send out relat...">
<polygon fill="white" stroke="black" points="1551.5,-22.5 1551.5,-79.5 1694.5,-79.5 1694.5,-22.5 1551.5,-22.5"/>
<text text-anchor="middle" x="1623" y="-67.5" font-family="Helvetica,sans-Serif" font-size="10.00">Bankable::CCRotaryEncoder</text>
<polyline fill="none" stroke="black" points="1551.5,-60.5 1694.5,-60.5 "/>
<text text-anchor="middle" x="1623" y="-48.5" font-family="Helvetica,sans-Serif" font-size="10.00"> </text>
<polyline fill="none" stroke="black" points="1551.5,-41.5 1694.5,-41.5 "/>
<text text-anchor="start" x="1559.5" y="-29.5" font-family="Helvetica,sans-Serif" font-size="10.00">+ CCRotaryEncoder()</text>
</a>
</g>
</g>
<!-- Node15&#45;&gt;Node16 -->
<g id="edge15" class="edge"><title>Node15&#45;&gt;Node16</title>
<path fill="none" stroke="midnightblue" d="M1623,-139.157C1623,-117.665 1623,-95.9435 1623,-79.5613"/>
<polygon fill="none" stroke="midnightblue" points="1619.5,-139.329 1623,-149.329 1626.5,-139.329 1619.5,-139.329"/>
</g>
</g>
</svg>
