<?xml version="1.0" encoding="UTF-8" standalone="no"?>
<!DOCTYPE svg PUBLIC "-//W3C//DTD SVG 1.1//EN"
 "http://www.w3.org/Graphics/SVG/1.1/DTD/svg11.dtd">
<!-- Generated by graphviz version 2.40.1 (20161225.0304)
 -->
<!-- Title: CCRotaryEncoder Pages: 1 -->
<svg width="807pt" height="811pt"
 viewBox="0.00 0.00 806.50 811.00" xmlns="http://www.w3.org/2000/svg" xmlns:xlink="http://www.w3.org/1999/xlink">
<g id="graph0" class="graph" transform="scale(1 1) rotate(0) translate(4 807)">
<title>CCRotaryEncoder</title>
<polygon fill="#ffffff" stroke="transparent" points="-4,4 -4,-807 802.5,-807 802.5,4 -4,4"/>
<!-- Node1 -->
<g id="node1" class="node">
<title>Node1</title>
<g id="a_node1"><a xlink:title="A class of MIDIOutputElements that read the input of a quadrature (rotary) encoder and send out relat...">
<polygon fill="#bfbfbf" stroke="#000000" points="528,-.5 528,-57.5 640,-57.5 640,-.5 528,-.5"/>
<text text-anchor="middle" x="584" y="-45.5" font-family="Helvetica,sans-Serif" font-size="10.00" fill="#000000">CCRotaryEncoder</text>
<polyline fill="none" stroke="#000000" points="528,-38.5 640,-38.5 "/>
<text text-anchor="middle" x="584" y="-26.5" font-family="Helvetica,sans-Serif" font-size="10.00" fill="#000000"> </text>
<polyline fill="none" stroke="#000000" points="528,-19.5 640,-19.5 "/>
<text text-anchor="start" x="536" y="-7.5" font-family="Helvetica,sans-Serif" font-size="10.00" fill="#000000">+ CCRotaryEncoder()</text>
</a>
</g>
</g>
<!-- Node2 -->
<g id="node2" class="node">
<title>Node2</title>
<g id="a_node2"><a xlink:href="../../d8/d20/classMIDIRotaryEncoder.html" target="_top" xlink:title=" ">
<polygon fill="#ffffff" stroke="#000000" points="525,-95.5 525,-218.5 643,-218.5 643,-95.5 525,-95.5"/>
<text text-anchor="start" x="533" y="-206.5" font-family="Helvetica,sans-Serif" font-size="10.00" fill="#000000">MIDIRotaryEncoder&lt;</text>
<text text-anchor="middle" x="584" y="-195.5" font-family="Helvetica,sans-Serif" font-size="10.00" fill="#000000"> RelativeCCSender &gt;</text>
<polyline fill="none" stroke="#000000" points="525,-188.5 643,-188.5 "/>
<text text-anchor="start" x="533" y="-176.5" font-family="Helvetica,sans-Serif" font-size="10.00" fill="#000000">&#45; encoder</text>
<text text-anchor="start" x="533" y="-165.5" font-family="Helvetica,sans-Serif" font-size="10.00" fill="#000000">&#45; speedMultiply</text>
<text text-anchor="start" x="533" y="-154.5" font-family="Helvetica,sans-Serif" font-size="10.00" fill="#000000">&#45; pulsesPerStep</text>
<text text-anchor="start" x="533" y="-143.5" font-family="Helvetica,sans-Serif" font-size="10.00" fill="#000000">&#45; previousPosition</text>
<polyline fill="none" stroke="#000000" points="525,-136.5 643,-136.5 "/>
<text text-anchor="start" x="533" y="-124.5" font-family="Helvetica,sans-Serif" font-size="10.00" fill="#000000">+ begin()</text>
<text text-anchor="start" x="533" y="-113.5" font-family="Helvetica,sans-Serif" font-size="10.00" fill="#000000">+ update()</text>
<text text-anchor="start" x="533" y="-102.5" font-family="Helvetica,sans-Serif" font-size="10.00" fill="#000000"># MIDIRotaryEncoder()</text>
</a>
</g>
</g>
<!-- Node2&#45;&gt;Node1 -->
<g id="edge1" class="edge">
<title>Node2&#45;&gt;Node1</title>
<path fill="none" stroke="#191970" d="M584,-85.0767C584,-75.364 584,-65.8986 584,-57.5937"/>
<polygon fill="none" stroke="#191970" points="580.5001,-85.2496 584,-95.2496 587.5001,-85.2496 580.5001,-85.2496"/>
</g>
<!-- Node3 -->
<g id="node3" class="node">
<title>Node3</title>
<g id="a_node3"><a xlink:href="../../d1/d55/classAH_1_1Updatable.html" target="_top" xlink:title=" ">
<polygon fill="#ffffff" stroke="#000000" points="0,-365.5 0,-455.5 104,-455.5 104,-365.5 0,-365.5"/>
<text text-anchor="middle" x="52" y="-443.5" font-family="Helvetica,sans-Serif" font-size="10.00" fill="#000000">MIDIOutputElement</text>
<polyline fill="none" stroke="#000000" points="0,-436.5 104,-436.5 "/>
<text text-anchor="middle" x="52" y="-424.5" font-family="Helvetica,sans-Serif" font-size="10.00" fill="#000000"> </text>
<polyline fill="none" stroke="#000000" points="0,-417.5 104,-417.5 "/>
<text text-anchor="start" x="8" y="-405.5" font-family="Helvetica,sans-Serif" font-size="10.00" fill="#000000">* begin()</text>
<text text-anchor="start" x="8" y="-394.5" font-family="Helvetica,sans-Serif" font-size="10.00" fill="#000000">* update()</text>
<text text-anchor="start" x="8" y="-383.5" font-family="Helvetica,sans-Serif" font-size="10.00" fill="#000000">* beginAll()</text>
<text text-anchor="start" x="8" y="-372.5" font-family="Helvetica,sans-Serif" font-size="10.00" fill="#000000">* updateAll()</text>
</a>
</g>
</g>
<!-- Node3&#45;&gt;Node2 -->
<g id="edge2" class="edge">
<title>Node3&#45;&gt;Node2</title>
<path fill="none" stroke="#191970" d="M62.3786,-355.4957C70.9386,-324.8927 86.2058,-288.5402 113,-266 175.1407,-213.7252 412.4354,-178.2009 524.5982,-163.9709"/>
<polygon fill="none" stroke="#191970" points="58.9837,-354.6438 59.8289,-365.2049 65.7541,-356.4218 58.9837,-354.6438"/>
</g>
<!-- Node4 -->
<g id="node4" class="node">
<title>Node4</title>
<g id="a_node4"><a xlink:href="../../d8/d1a/classAH_1_1UpdatableCRTP.html" target="_top" xlink:title=" ">
<polygon fill="#ffffff" stroke="#000000" points="214,-613.5 214,-802.5 356,-802.5 356,-613.5 214,-613.5"/>
<text text-anchor="start" x="222" y="-790.5" font-family="Helvetica,sans-Serif" font-size="10.00" fill="#000000">UpdatableCRTP&lt; Updatable</text>
<text text-anchor="middle" x="285" y="-779.5" font-family="Helvetica,sans-Serif" font-size="10.00" fill="#000000">&lt; NormalUpdatable &gt; &gt;</text>
<polyline fill="none" stroke="#000000" points="214,-772.5 356,-772.5 "/>
<text text-anchor="middle" x="285" y="-760.5" font-family="Helvetica,sans-Serif" font-size="10.00" fill="#000000"> </text>
<polyline fill="none" stroke="#000000" points="214,-753.5 356,-753.5 "/>
<text text-anchor="start" x="222" y="-741.5" font-family="Helvetica,sans-Serif" font-size="10.00" fill="#000000">+ ~UpdatableCRTP()</text>
<text text-anchor="start" x="222" y="-730.5" font-family="Helvetica,sans-Serif" font-size="10.00" fill="#000000"># UpdatableCRTP()</text>
<text text-anchor="start" x="222" y="-719.5" font-family="Helvetica,sans-Serif" font-size="10.00" fill="#000000">* enable()</text>
<text text-anchor="start" x="222" y="-708.5" font-family="Helvetica,sans-Serif" font-size="10.00" fill="#000000">* disable()</text>
<text text-anchor="start" x="222" y="-697.5" font-family="Helvetica,sans-Serif" font-size="10.00" fill="#000000">* isEnabled()</text>
<text text-anchor="start" x="222" y="-686.5" font-family="Helvetica,sans-Serif" font-size="10.00" fill="#000000">* enable()</text>
<text text-anchor="start" x="222" y="-675.5" font-family="Helvetica,sans-Serif" font-size="10.00" fill="#000000">* enable()</text>
<text text-anchor="start" x="222" y="-664.5" font-family="Helvetica,sans-Serif" font-size="10.00" fill="#000000">* enable()</text>
<text text-anchor="start" x="222" y="-653.5" font-family="Helvetica,sans-Serif" font-size="10.00" fill="#000000">* disable()</text>
<text text-anchor="start" x="222" y="-642.5" font-family="Helvetica,sans-Serif" font-size="10.00" fill="#000000">* disable()</text>
<text text-anchor="start" x="222" y="-631.5" font-family="Helvetica,sans-Serif" font-size="10.00" fill="#000000">* disable()</text>
<text text-anchor="start" x="222" y="-620.5" font-family="Helvetica,sans-Serif" font-size="10.00" fill="#000000">* applyToAll()</text>
</a>
</g>
</g>
<!-- Node4&#45;&gt;Node3 -->
<g id="edge3" class="edge">
<title>Node4&#45;&gt;Node3</title>
<path fill="none" stroke="#191970" d="M205.701,-650.1288C173.7676,-623.8331 138.5325,-590.642 113,-555 91.3541,-524.7835 75.4489,-485.7079 65.3165,-455.8113"/>
<polygon fill="none" stroke="#191970" points="203.7729,-653.0719 213.7406,-656.6628 208.1878,-647.6397 203.7729,-653.0719"/>
</g>
<!-- Node5 -->
<g id="node5" class="node">
<title>Node5</title>
<g id="a_node5"><a xlink:href="../../d4/d23/classDoublyLinkable.html" target="_top" xlink:title=" ">
<polygon fill="#ffffff" stroke="#000000" points="122.5,-376.5 122.5,-444.5 331.5,-444.5 331.5,-376.5 122.5,-376.5"/>
<text text-anchor="start" x="130.5" y="-432.5" font-family="Helvetica,sans-Serif" font-size="10.00" fill="#000000">DoublyLinkable&lt; Updatable</text>
<text text-anchor="middle" x="227" y="-421.5" font-family="Helvetica,sans-Serif" font-size="10.00" fill="#000000">CRTP&lt; Updatable&lt; NormalUpdatable &gt; &gt; &gt;</text>
<polyline fill="none" stroke="#000000" points="122.5,-414.5 331.5,-414.5 "/>
<text text-anchor="middle" x="227" y="-402.5" font-family="Helvetica,sans-Serif" font-size="10.00" fill="#000000"> </text>
<polyline fill="none" stroke="#000000" points="122.5,-395.5 331.5,-395.5 "/>
<text text-anchor="start" x="130.5" y="-383.5" font-family="Helvetica,sans-Serif" font-size="10.00" fill="#000000"># ~DoublyLinkable()</text>
</a>
</g>
</g>
<!-- Node4&#45;&gt;Node5 -->
<g id="edge5" class="edge">
<title>Node4&#45;&gt;Node5</title>
<path fill="none" stroke="#404040" d="M229.7875,-613.4845C227.5225,-607.3493 225.5565,-601.1602 224,-595 212.4012,-549.0965 215.1946,-494.7019 219.6284,-456.9197"/>
<polygon fill="none" stroke="#404040" points="219.6584,-456.6833 216.4496,-450.2255 221.1764,-444.7797 224.3853,-451.2375 219.6584,-456.6833"/>
<text text-anchor="middle" x="245.5" y="-587" font-family="Helvetica,sans-Serif" font-size="10.00" fill="#000000"> #next</text>
<text text-anchor="middle" x="245.5" y="-576" font-family="Helvetica,sans-Serif" font-size="10.00" fill="#000000">#previous</text>
</g>
<!-- Node6 -->
<g id="node6" class="node">
<title>Node6</title>
<g id="a_node6"><a xlink:href="../../dd/d16/classDoublyLinkedList.html" target="_top" xlink:title=" ">
<polygon fill="#ffffff" stroke="#000000" points="350,-266.5 350,-554.5 498,-554.5 498,-266.5 350,-266.5"/>
<text text-anchor="start" x="358" y="-542.5" font-family="Helvetica,sans-Serif" font-size="10.00" fill="#000000">DoublyLinkedList&lt; AH</text>
<text text-anchor="start" x="358" y="-531.5" font-family="Helvetica,sans-Serif" font-size="10.00" fill="#000000">::UpdatableCRTP&lt; Updatable</text>
<text text-anchor="middle" x="424" y="-520.5" font-family="Helvetica,sans-Serif" font-size="10.00" fill="#000000">&lt; NormalUpdatable &gt; &gt; &gt;</text>
<polyline fill="none" stroke="#000000" points="350,-513.5 498,-513.5 "/>
<text text-anchor="middle" x="424" y="-501.5" font-family="Helvetica,sans-Serif" font-size="10.00" fill="#000000"> </text>
<polyline fill="none" stroke="#000000" points="350,-494.5 498,-494.5 "/>
<text text-anchor="start" x="358" y="-482.5" font-family="Helvetica,sans-Serif" font-size="10.00" fill="#000000">+ append()</text>
<text text-anchor="start" x="358" y="-471.5" font-family="Helvetica,sans-Serif" font-size="10.00" fill="#000000">+ append()</text>
<text text-anchor="start" x="358" y="-460.5" font-family="Helvetica,sans-Serif" font-size="10.00" fill="#000000">+ insertBefore()</text>
<text text-anchor="start" x="358" y="-449.5" font-family="Helvetica,sans-Serif" font-size="10.00" fill="#000000">+ insertBefore()</text>
<text text-anchor="start" x="358" y="-438.5" font-family="Helvetica,sans-Serif" font-size="10.00" fill="#000000">+ insertSorted()</text>
<text text-anchor="start" x="358" y="-427.5" font-family="Helvetica,sans-Serif" font-size="10.00" fill="#000000">+ insertSorted()</text>
<text text-anchor="start" x="358" y="-416.5" font-family="Helvetica,sans-Serif" font-size="10.00" fill="#000000">+ remove()</text>
<text text-anchor="start" x="358" y="-405.5" font-family="Helvetica,sans-Serif" font-size="10.00" fill="#000000">+ remove()</text>
<text text-anchor="start" x="358" y="-394.5" font-family="Helvetica,sans-Serif" font-size="10.00" fill="#000000">+ moveDown()</text>
<text text-anchor="start" x="358" y="-383.5" font-family="Helvetica,sans-Serif" font-size="10.00" fill="#000000">+ couldContain()</text>
<text text-anchor="start" x="358" y="-372.5" font-family="Helvetica,sans-Serif" font-size="10.00" fill="#000000">+ begin()</text>
<text text-anchor="start" x="358" y="-361.5" font-family="Helvetica,sans-Serif" font-size="10.00" fill="#000000">+ begin()</text>
<text text-anchor="start" x="358" y="-350.5" font-family="Helvetica,sans-Serif" font-size="10.00" fill="#000000">+ end()</text>
<text text-anchor="start" x="358" y="-339.5" font-family="Helvetica,sans-Serif" font-size="10.00" fill="#000000">+ end()</text>
<text text-anchor="start" x="358" y="-328.5" font-family="Helvetica,sans-Serif" font-size="10.00" fill="#000000">+ rbegin()</text>
<text text-anchor="start" x="358" y="-317.5" font-family="Helvetica,sans-Serif" font-size="10.00" fill="#000000">+ rbegin()</text>
<text text-anchor="start" x="358" y="-306.5" font-family="Helvetica,sans-Serif" font-size="10.00" fill="#000000">+ rend()</text>
<text text-anchor="start" x="358" y="-295.5" font-family="Helvetica,sans-Serif" font-size="10.00" fill="#000000">+ rend()</text>
<text text-anchor="start" x="358" y="-284.5" font-family="Helvetica,sans-Serif" font-size="10.00" fill="#000000">+ getFirst()</text>
<text text-anchor="start" x="358" y="-273.5" font-family="Helvetica,sans-Serif" font-size="10.00" fill="#000000">+ getLast()</text>
</a>
</g>
</g>
<!-- Node4&#45;&gt;Node6 -->
<g id="edge7" class="edge">
<title>Node4&#45;&gt;Node6</title>
<path fill="none" stroke="#404040" d="M329.2199,-613.2167C335.5218,-599.7166 341.9242,-586.0053 348,-573 349.0814,-570.6853 350.1715,-568.3521 351.2687,-566.0039"/>
<polygon fill="none" stroke="#404040" points="351.3684,-565.7905 350.2847,-558.6613 356.4487,-554.9189 357.5324,-562.0481 351.3684,-565.7905"/>
<text text-anchor="middle" x="359" y="-587" font-family="Helvetica,sans-Serif" font-size="10.00" fill="#000000"> &#45;last</text>
<text text-anchor="middle" x="359" y="-576" font-family="Helvetica,sans-Serif" font-size="10.00" fill="#000000">&#45;first</text>
</g>
<!-- Node5&#45;&gt;Node4 -->
<g id="edge4" class="edge">
<title>Node5&#45;&gt;Node4</title>
<path fill="none" stroke="#191970" d="M240.926,-454.3165C250.7342,-486.7718 263.4204,-532.2457 271,-573 273.4127,-585.9729 275.4398,-599.7302 277.1345,-613.3078"/>
<polygon fill="none" stroke="#191970" points="244.2518,-453.2233 237.9834,-444.6818 237.5571,-455.2681 244.2518,-453.2233"/>
</g>
<!-- Node6&#45;&gt;Node4 -->
<g id="edge6" class="edge">
<title>Node6&#45;&gt;Node4</title>
<path fill="none" stroke="#404040" d="M391.0716,-554.6543C386.0781,-568.5789 380.4105,-582.2507 374,-595 370.6504,-601.6618 366.8713,-608.3069 362.8086,-614.8486"/>
<polygon fill="none" stroke="#404040" points="362.7367,-614.9596 362.8313,-622.1701 356.2118,-625.0306 356.1172,-617.8201 362.7367,-614.9596"/>
<text text-anchor="middle" x="411" y="-581.5" font-family="Helvetica,sans-Serif" font-size="10.00" fill="#000000"> #updatables</text>
</g>
<!-- Node7 -->
<g id="node7" class="node">
<title>Node7</title>
<g id="a_node7"><a xlink:href="../../d3/dd0/classRelativeCCSender.html" target="_top" xlink:title=" ">
<polygon fill="#ffffff" stroke="#000000" points="516.5,-354.5 516.5,-466.5 651.5,-466.5 651.5,-354.5 516.5,-354.5"/>
<text text-anchor="middle" x="584" y="-454.5" font-family="Helvetica,sans-Serif" font-size="10.00" fill="#000000">RelativeCCSender</text>
<polyline fill="none" stroke="#000000" points="516.5,-447.5 651.5,-447.5 "/>
<text text-anchor="start" x="524.5" y="-435.5" font-family="Helvetica,sans-Serif" font-size="10.00" fill="#000000">&#45; mode</text>
<polyline fill="none" stroke="#000000" points="516.5,-428.5 651.5,-428.5 "/>
<text text-anchor="start" x="524.5" y="-416.5" font-family="Helvetica,sans-Serif" font-size="10.00" fill="#000000">+ toTwosComplement7bit()</text>
<text text-anchor="start" x="524.5" y="-405.5" font-family="Helvetica,sans-Serif" font-size="10.00" fill="#000000">+ toBinaryOffset7bit()</text>
<text text-anchor="start" x="524.5" y="-394.5" font-family="Helvetica,sans-Serif" font-size="10.00" fill="#000000">+ toSignedMagnitude7bit()</text>
<text text-anchor="start" x="524.5" y="-383.5" font-family="Helvetica,sans-Serif" font-size="10.00" fill="#000000">+ mapRelativeCC()</text>
<text text-anchor="start" x="524.5" y="-372.5" font-family="Helvetica,sans-Serif" font-size="10.00" fill="#000000">+ send()</text>
<text text-anchor="start" x="524.5" y="-361.5" font-family="Helvetica,sans-Serif" font-size="10.00" fill="#000000">+ setMode()</text>
</a>
</g>
</g>
<!-- Node7&#45;&gt;Node2 -->
<g id="edge8" class="edge">
<title>Node7&#45;&gt;Node2</title>
<path fill="none" stroke="#404040" d="M584,-354.2401C584,-317.9661 584,-270.398 584,-231.0646"/>
<polygon fill="none" stroke="#404040" points="584.0001,-230.8763 580,-224.8763 584,-218.8763 588,-224.8762 584.0001,-230.8763"/>
<text text-anchor="middle" x="603.5" y="-240" font-family="Helvetica,sans-Serif" font-size="10.00" fill="#000000"> +sender</text>
</g>
<!-- Node8 -->
<g id="node8" class="node">
<title>Node8</title>
<g id="a_node8"><a xlink:href="../../d7/d0f/classMIDIAddress.html" target="_top" xlink:title="A type&#45;safe utility class for saving a MIDI address consisting of a 7&#45;bit address,...">
<polygon fill="#ffffff" stroke="#000000" points="669.5,-277.5 669.5,-543.5 798.5,-543.5 798.5,-277.5 669.5,-277.5"/>
<text text-anchor="middle" x="734" y="-531.5" font-family="Helvetica,sans-Serif" font-size="10.00" fill="#000000">MIDIAddress</text>
<polyline fill="none" stroke="#000000" points="669.5,-524.5 798.5,-524.5 "/>
<text text-anchor="start" x="677.5" y="-512.5" font-family="Helvetica,sans-Serif" font-size="10.00" fill="#000000">&#45; addresses</text>
<polyline fill="none" stroke="#000000" points="669.5,-505.5 798.5,-505.5 "/>
<text text-anchor="start" x="677.5" y="-493.5" font-family="Helvetica,sans-Serif" font-size="10.00" fill="#000000">* MIDIAddress()</text>
<text text-anchor="start" x="677.5" y="-482.5" font-family="Helvetica,sans-Serif" font-size="10.00" fill="#000000">* MIDIAddress()</text>
<text text-anchor="start" x="677.5" y="-471.5" font-family="Helvetica,sans-Serif" font-size="10.00" fill="#000000">* MIDIAddress()</text>
<text text-anchor="start" x="677.5" y="-460.5" font-family="Helvetica,sans-Serif" font-size="10.00" fill="#000000">* MIDIAddress()</text>
<text text-anchor="start" x="677.5" y="-449.5" font-family="Helvetica,sans-Serif" font-size="10.00" fill="#000000">* MIDIAddress()</text>
<text text-anchor="start" x="677.5" y="-438.5" font-family="Helvetica,sans-Serif" font-size="10.00" fill="#000000">* invalid()</text>
<text text-anchor="start" x="677.5" y="-427.5" font-family="Helvetica,sans-Serif" font-size="10.00" fill="#000000">* operator+=()</text>
<text text-anchor="start" x="677.5" y="-416.5" font-family="Helvetica,sans-Serif" font-size="10.00" fill="#000000">* operator&#45;=()</text>
<text text-anchor="start" x="677.5" y="-405.5" font-family="Helvetica,sans-Serif" font-size="10.00" fill="#000000">* operator+()</text>
<text text-anchor="start" x="677.5" y="-394.5" font-family="Helvetica,sans-Serif" font-size="10.00" fill="#000000">* operator&#45;()</text>
<text text-anchor="start" x="677.5" y="-383.5" font-family="Helvetica,sans-Serif" font-size="10.00" fill="#000000">* getAddress()</text>
<text text-anchor="start" x="677.5" y="-372.5" font-family="Helvetica,sans-Serif" font-size="10.00" fill="#000000">* getChannel()</text>
<text text-anchor="start" x="677.5" y="-361.5" font-family="Helvetica,sans-Serif" font-size="10.00" fill="#000000">* getRawChannel()</text>
<text text-anchor="start" x="677.5" y="-350.5" font-family="Helvetica,sans-Serif" font-size="10.00" fill="#000000">* getCableNumber()</text>
<text text-anchor="start" x="677.5" y="-339.5" font-family="Helvetica,sans-Serif" font-size="10.00" fill="#000000">* operator==()</text>
<text text-anchor="start" x="677.5" y="-328.5" font-family="Helvetica,sans-Serif" font-size="10.00" fill="#000000">* operator!=()</text>
<text text-anchor="start" x="677.5" y="-317.5" font-family="Helvetica,sans-Serif" font-size="10.00" fill="#000000">* isValid()</text>
<text text-anchor="start" x="677.5" y="-306.5" font-family="Helvetica,sans-Serif" font-size="10.00" fill="#000000">* operator bool()</text>
<text text-anchor="start" x="677.5" y="-295.5" font-family="Helvetica,sans-Serif" font-size="10.00" fill="#000000">* matchSingle()</text>
<text text-anchor="start" x="677.5" y="-284.5" font-family="Helvetica,sans-Serif" font-size="10.00" fill="#000000">* matchAddressInRange()</text>
</a>
</g>
</g>
<!-- Node8&#45;&gt;Node2 -->
<g id="edge9" class="edge">
<title>Node8&#45;&gt;Node2</title>
<path fill="none" stroke="#404040" d="M669.4378,-280.4134C666.6422,-275.5167 663.8245,-270.6969 661,-266 653.6308,-253.7454 645.3393,-241.0642 636.9985,-228.8744"/>
<polygon fill="none" stroke="#404040" points="636.8329,-228.6352 630.1282,-225.9806 629.9999,-218.7706 636.7046,-221.4253 636.8329,-228.6352"/>
<text text-anchor="middle" x="669.5" y="-240" font-family="Helvetica,sans-Serif" font-size="10.00" fill="#000000"> &#45;address</text>
</g>
</g>
</svg>
