<?xml version="1.0" encoding="UTF-8" standalone="no"?>
<!DOCTYPE svg PUBLIC "-//W3C//DTD SVG 1.1//EN"
 "http://www.w3.org/Graphics/SVG/1.1/DTD/svg11.dtd">
<!-- Generated by graphviz version 2.43.0 (0)
 -->
<!-- Title: AudioVULEDs&lt; N &gt; Pages: 1 -->
<svg width="282pt" height="722pt"
 viewBox="0.00 0.00 281.50 722.00" xmlns="http://www.w3.org/2000/svg" xmlns:xlink="http://www.w3.org/1999/xlink">
<g id="graph0" class="graph" transform="scale(1 1) rotate(0) translate(4 718)">
<title>AudioVULEDs&lt; N &gt;</title>
<polygon fill="white" stroke="transparent" points="-4,4 -4,-718 277.5,-718 277.5,4 -4,4"/>
<!-- Node1 -->
<g id="node1" class="node">
<title>Node1</title>
<g id="a_node1"><a xlink:title="A VU meter that reads from an Audio stream using the AudioAnalyzePeak class, and displays it on an LE...">
<polygon fill="#bfbfbf" stroke="black" points="67,-0.5 67,-123.5 180,-123.5 180,-0.5 67,-0.5"/>
<text text-anchor="middle" x="123.5" y="-111.5" font-family="Helvetica,sans-Serif" font-size="10.00">AudioVULEDs&lt; N &gt;</text>
<polyline fill="none" stroke="black" points="67,-104.5 180,-104.5 "/>
<text text-anchor="start" x="75" y="-92.5" font-family="Helvetica,sans-Serif" font-size="10.00">&#45; vuleds</text>
<text text-anchor="start" x="75" y="-81.5" font-family="Helvetica,sans-Serif" font-size="10.00">&#45; previousValue</text>
<polyline fill="none" stroke="black" points="67,-74.5 180,-74.5 "/>
<text text-anchor="start" x="75" y="-62.5" font-family="Helvetica,sans-Serif" font-size="10.00">+ AudioVULEDs()</text>
<text text-anchor="start" x="75" y="-51.5" font-family="Helvetica,sans-Serif" font-size="10.00">+ begin()</text>
<text text-anchor="start" x="75" y="-40.5" font-family="Helvetica,sans-Serif" font-size="10.00">+ update()</text>
<text text-anchor="start" x="75" y="-29.5" font-family="Helvetica,sans-Serif" font-size="10.00">+ setMode()</text>
<text text-anchor="start" x="75" y="-18.5" font-family="Helvetica,sans-Serif" font-size="10.00">+ dotMode()</text>
<text text-anchor="start" x="75" y="-7.5" font-family="Helvetica,sans-Serif" font-size="10.00">+ barMode()</text>
</a>
</g>
</g>
<!-- Node2 -->
<g id="node2" class="node">
<title>Node2</title>
<g id="a_node2"><a xlink:href="../../d4/dce/classAudioVU.html" target="_top" xlink:title="A VU meter that reads from an Audio stream using the Analyzer class.">
<polygon fill="white" stroke="black" points="5,-160.5 5,-294.5 108,-294.5 108,-160.5 5,-160.5"/>
<text text-anchor="middle" x="56.5" y="-282.5" font-family="Helvetica,sans-Serif" font-size="10.00">AudioVU</text>
<polyline fill="none" stroke="black" points="5,-275.5 108,-275.5 "/>
<text text-anchor="start" x="13" y="-263.5" font-family="Helvetica,sans-Serif" font-size="10.00">&#45; ballistics</text>
<text text-anchor="start" x="13" y="-252.5" font-family="Helvetica,sans-Serif" font-size="10.00">&#45; level</text>
<text text-anchor="start" x="13" y="-241.5" font-family="Helvetica,sans-Serif" font-size="10.00">&#45; gain</text>
<polyline fill="none" stroke="black" points="5,-234.5 108,-234.5 "/>
<text text-anchor="start" x="13" y="-222.5" font-family="Helvetica,sans-Serif" font-size="10.00">+ AudioVU()</text>
<text text-anchor="start" x="13" y="-211.5" font-family="Helvetica,sans-Serif" font-size="10.00">+ AudioVU()</text>
<text text-anchor="start" x="13" y="-200.5" font-family="Helvetica,sans-Serif" font-size="10.00">+ getValue()</text>
<text text-anchor="start" x="13" y="-189.5" font-family="Helvetica,sans-Serif" font-size="10.00">+ getFloatValue()</text>
<text text-anchor="start" x="13" y="-178.5" font-family="Helvetica,sans-Serif" font-size="10.00">+ getOverload()</text>
<text text-anchor="start" x="13" y="-167.5" font-family="Helvetica,sans-Serif" font-size="10.00">+ setGain()</text>
</a>
</g>
</g>
<!-- Node2&#45;&gt;Node1 -->
<g id="edge1" class="edge">
<title>Node2&#45;&gt;Node1</title>
<path fill="none" stroke="midnightblue" d="M87.44,-151C91.18,-141.86 94.97,-132.62 98.61,-123.73"/>
<polygon fill="none" stroke="midnightblue" points="84.11,-149.89 83.56,-160.47 90.59,-152.54 84.11,-149.89"/>
</g>
<!-- Node3 -->
<g id="node3" class="node">
<title>Node3</title>
<g id="a_node3"><a xlink:href="../../dc/d25/classInterfaces_1_1MCU_1_1IVU.html" target="_top" xlink:title="An abstract interface for VU meters.">
<polygon fill="white" stroke="black" points="0,-370 0,-515 103,-515 103,-370 0,-370"/>
<text text-anchor="middle" x="51.5" y="-503" font-family="Helvetica,sans-Serif" font-size="10.00">IVU</text>
<polyline fill="none" stroke="black" points="0,-496 103,-496 "/>
<text text-anchor="start" x="8" y="-484" font-family="Helvetica,sans-Serif" font-size="10.00"># max</text>
<text text-anchor="start" x="8" y="-473" font-family="Helvetica,sans-Serif" font-size="10.00"># alwaysDirty</text>
<text text-anchor="start" x="8" y="-462" font-family="Helvetica,sans-Serif" font-size="10.00"># dirty</text>
<polyline fill="none" stroke="black" points="0,-455 103,-455 "/>
<text text-anchor="start" x="8" y="-443" font-family="Helvetica,sans-Serif" font-size="10.00">+ IVU()</text>
<text text-anchor="start" x="8" y="-432" font-family="Helvetica,sans-Serif" font-size="10.00">+ getValue()</text>
<text text-anchor="start" x="8" y="-421" font-family="Helvetica,sans-Serif" font-size="10.00">+ getOverload()</text>
<text text-anchor="start" x="8" y="-410" font-family="Helvetica,sans-Serif" font-size="10.00">+ getFloatValue()</text>
<text text-anchor="start" x="8" y="-399" font-family="Helvetica,sans-Serif" font-size="10.00">+ getMax()</text>
<text text-anchor="start" x="8" y="-388" font-family="Helvetica,sans-Serif" font-size="10.00">* getDirty()</text>
<text text-anchor="start" x="8" y="-377" font-family="Helvetica,sans-Serif" font-size="10.00">* clearDirty()</text>
</a>
</g>
</g>
<!-- Node3&#45;&gt;Node2 -->
<g id="edge2" class="edge">
<title>Node3&#45;&gt;Node2</title>
<path fill="none" stroke="midnightblue" d="M53.42,-359.88C53.92,-338.36 54.46,-315.4 54.94,-294.8"/>
<polygon fill="none" stroke="midnightblue" points="49.91,-359.9 53.18,-369.98 56.91,-360.07 49.91,-359.9"/>
</g>
<!-- Node4 -->
<g id="node4" class="node">
<title>Node4</title>
<g id="a_node4"><a xlink:href="../../d1/d55/classAH_1_1Updatable.html" target="_top" xlink:title=" ">
<polygon fill="white" stroke="black" points="129,-182.5 129,-272.5 260,-272.5 260,-182.5 129,-182.5"/>
<text text-anchor="middle" x="194.5" y="-260.5" font-family="Helvetica,sans-Serif" font-size="10.00">Updatable&lt; AudioVU &gt;</text>
<polyline fill="none" stroke="black" points="129,-253.5 260,-253.5 "/>
<text text-anchor="middle" x="194.5" y="-241.5" font-family="Helvetica,sans-Serif" font-size="10.00"> </text>
<polyline fill="none" stroke="black" points="129,-234.5 260,-234.5 "/>
<text text-anchor="start" x="137" y="-222.5" font-family="Helvetica,sans-Serif" font-size="10.00">* begin()</text>
<text text-anchor="start" x="137" y="-211.5" font-family="Helvetica,sans-Serif" font-size="10.00">* update()</text>
<text text-anchor="start" x="137" y="-200.5" font-family="Helvetica,sans-Serif" font-size="10.00">* beginAll()</text>
<text text-anchor="start" x="137" y="-189.5" font-family="Helvetica,sans-Serif" font-size="10.00">* updateAll()</text>
</a>
</g>
</g>
<!-- Node4&#45;&gt;Node1 -->
<g id="edge3" class="edge">
<title>Node4&#45;&gt;Node1</title>
<path fill="none" stroke="midnightblue" d="M171.13,-172.69C164.3,-156.96 156.79,-139.66 149.79,-123.55"/>
<polygon fill="none" stroke="midnightblue" points="168.09,-174.48 175.29,-182.25 174.51,-171.69 168.09,-174.48"/>
</g>
<!-- Node5 -->
<g id="node5" class="node">
<title>Node5</title>
<g id="a_node5"><a xlink:href="../../d8/d1a/classAH_1_1UpdatableCRTP.html" target="_top" xlink:title="A super class for object that have to be updated regularly.">
<polygon fill="white" stroke="black" points="121.5,-331.5 121.5,-553.5 273.5,-553.5 273.5,-331.5 121.5,-331.5"/>
<text text-anchor="middle" x="197.5" y="-541.5" font-family="Helvetica,sans-Serif" font-size="10.00">UpdatableCRTP&lt; Derived &gt;</text>
<polyline fill="none" stroke="black" points="121.5,-534.5 273.5,-534.5 "/>
<text text-anchor="start" x="129.5" y="-522.5" font-family="Helvetica,sans-Serif" font-size="10.00"># updatables</text>
<polyline fill="none" stroke="black" points="121.5,-515.5 273.5,-515.5 "/>
<text text-anchor="start" x="129.5" y="-503.5" font-family="Helvetica,sans-Serif" font-size="10.00">+ ~UpdatableCRTP()</text>
<text text-anchor="start" x="129.5" y="-492.5" font-family="Helvetica,sans-Serif" font-size="10.00"># UpdatableCRTP()</text>
<text text-anchor="start" x="129.5" y="-481.5" font-family="Helvetica,sans-Serif" font-size="10.00"># UpdatableCRTP()</text>
<text text-anchor="start" x="129.5" y="-470.5" font-family="Helvetica,sans-Serif" font-size="10.00"># operator=()</text>
<text text-anchor="start" x="129.5" y="-459.5" font-family="Helvetica,sans-Serif" font-size="10.00"># UpdatableCRTP()</text>
<text text-anchor="start" x="129.5" y="-448.5" font-family="Helvetica,sans-Serif" font-size="10.00"># operator=()</text>
<text text-anchor="start" x="129.5" y="-437.5" font-family="Helvetica,sans-Serif" font-size="10.00">* enable()</text>
<text text-anchor="start" x="129.5" y="-426.5" font-family="Helvetica,sans-Serif" font-size="10.00">* disable()</text>
<text text-anchor="start" x="129.5" y="-415.5" font-family="Helvetica,sans-Serif" font-size="10.00">* isEnabled()</text>
<text text-anchor="start" x="129.5" y="-404.5" font-family="Helvetica,sans-Serif" font-size="10.00">* moveDown()</text>
<text text-anchor="start" x="129.5" y="-393.5" font-family="Helvetica,sans-Serif" font-size="10.00">* enable()</text>
<text text-anchor="start" x="129.5" y="-382.5" font-family="Helvetica,sans-Serif" font-size="10.00">* enable()</text>
<text text-anchor="start" x="129.5" y="-371.5" font-family="Helvetica,sans-Serif" font-size="10.00">* enable()</text>
<text text-anchor="start" x="129.5" y="-360.5" font-family="Helvetica,sans-Serif" font-size="10.00">* disable()</text>
<text text-anchor="start" x="129.5" y="-349.5" font-family="Helvetica,sans-Serif" font-size="10.00">* disable()</text>
<text text-anchor="start" x="129.5" y="-338.5" font-family="Helvetica,sans-Serif" font-size="10.00">* disable()</text>
</a>
</g>
</g>
<!-- Node5&#45;&gt;Node4 -->
<g id="edge4" class="edge">
<title>Node5&#45;&gt;Node4</title>
<path fill="none" stroke="midnightblue" d="M195.8,-321.04C195.56,-303.77 195.32,-287 195.12,-272.58"/>
<polygon fill="none" stroke="midnightblue" points="192.31,-321.31 195.95,-331.26 199.31,-321.21 192.31,-321.31"/>
</g>
<!-- Node6 -->
<g id="node6" class="node">
<title>Node6</title>
<g id="a_node6"><a xlink:href="../../d4/d23/classDoublyLinkable.html" target="_top" xlink:title=" ">
<polygon fill="white" stroke="black" points="121.5,-590.5 121.5,-713.5 273.5,-713.5 273.5,-590.5 121.5,-590.5"/>
<text text-anchor="middle" x="197.5" y="-701.5" font-family="Helvetica,sans-Serif" font-size="10.00">DoublyLinkable&lt; Derived &gt;</text>
<polyline fill="none" stroke="black" points="121.5,-694.5 273.5,-694.5 "/>
<text text-anchor="start" x="129.5" y="-682.5" font-family="Helvetica,sans-Serif" font-size="10.00"># next</text>
<text text-anchor="start" x="129.5" y="-671.5" font-family="Helvetica,sans-Serif" font-size="10.00"># previous</text>
<polyline fill="none" stroke="black" points="121.5,-664.5 273.5,-664.5 "/>
<text text-anchor="start" x="129.5" y="-652.5" font-family="Helvetica,sans-Serif" font-size="10.00"># ~DoublyLinkable()</text>
<text text-anchor="start" x="129.5" y="-641.5" font-family="Helvetica,sans-Serif" font-size="10.00"># DoublyLinkable()</text>
<text text-anchor="start" x="129.5" y="-630.5" font-family="Helvetica,sans-Serif" font-size="10.00"># DoublyLinkable()</text>
<text text-anchor="start" x="129.5" y="-619.5" font-family="Helvetica,sans-Serif" font-size="10.00"># DoublyLinkable()</text>
<text text-anchor="start" x="129.5" y="-608.5" font-family="Helvetica,sans-Serif" font-size="10.00"># operator=()</text>
<text text-anchor="start" x="129.5" y="-597.5" font-family="Helvetica,sans-Serif" font-size="10.00"># operator=()</text>
</a>
</g>
</g>
<!-- Node6&#45;&gt;Node5 -->
<g id="edge5" class="edge">
<title>Node6&#45;&gt;Node5</title>
<path fill="none" stroke="midnightblue" d="M197.5,-580.16C197.5,-571.6 197.5,-562.7 197.5,-553.73"/>
<polygon fill="none" stroke="midnightblue" points="194,-580.42 197.5,-590.42 201,-580.42 194,-580.42"/>
</g>
</g>
</svg>
