<?xml version="1.0" encoding="UTF-8" standalone="no"?>
<!DOCTYPE svg PUBLIC "-//W3C//DTD SVG 1.1//EN"
 "http://www.w3.org/Graphics/SVG/1.1/DTD/svg11.dtd">
<!-- Generated by graphviz version 2.40.1 (20161225.0304)
 -->
<!-- Title: GenericIncrementSelector&lt; N, Callback &gt; Pages: 1 -->
<svg width="476pt" height="1296pt"
 viewBox="0.00 0.00 476.00 1296.00" xmlns="http://www.w3.org/2000/svg" xmlns:xlink="http://www.w3.org/1999/xlink">
<g id="graph0" class="graph" transform="scale(1 1) rotate(0) translate(4 1292)">
<title>GenericIncrementSelector&lt; N, Callback &gt;</title>
<polygon fill="#ffffff" stroke="transparent" points="-4,4 -4,-1292 472,-1292 472,4 -4,4"/>
<!-- Node1 -->
<g id="node1" class="node">
<title>Node1</title>
<g id="a_node1"><a xlink:title=" ">
<polygon fill="#bfbfbf" stroke="#000000" points="191,-.5 191,-112.5 336,-112.5 336,-.5 191,-.5"/>
<text text-anchor="start" x="199" y="-100.5" font-family="Helvetica,sans-Serif" font-size="10.00" fill="#000000">GenericIncrementSelector</text>
<text text-anchor="middle" x="263.5" y="-89.5" font-family="Helvetica,sans-Serif" font-size="10.00" fill="#000000">&lt; N, Callback &gt;</text>
<polyline fill="none" stroke="#000000" points="191,-82.5 336,-82.5 "/>
<text text-anchor="start" x="199" y="-70.5" font-family="Helvetica,sans-Serif" font-size="10.00" fill="#000000">&#45; wrap</text>
<polyline fill="none" stroke="#000000" points="191,-63.5 336,-63.5 "/>
<text text-anchor="start" x="199" y="-51.5" font-family="Helvetica,sans-Serif" font-size="10.00" fill="#000000">+ GenericIncrementSelector()</text>
<text text-anchor="start" x="199" y="-40.5" font-family="Helvetica,sans-Serif" font-size="10.00" fill="#000000">+ begin()</text>
<text text-anchor="start" x="199" y="-29.5" font-family="Helvetica,sans-Serif" font-size="10.00" fill="#000000">+ update()</text>
<text text-anchor="start" x="199" y="-18.5" font-family="Helvetica,sans-Serif" font-size="10.00" fill="#000000">+ getButtonState()</text>
<text text-anchor="start" x="199" y="-7.5" font-family="Helvetica,sans-Serif" font-size="10.00" fill="#000000">+ invert()</text>
</a>
</g>
</g>
<!-- Node2 -->
<g id="node2" class="node">
<title>Node2</title>
<g id="a_node2"><a xlink:href="../../d0/d04/classGenericSelector.html" target="_top" xlink:title=" ">
<polygon fill="#ffffff" stroke="#000000" points="125,-160.5 125,-294.5 256,-294.5 256,-160.5 125,-160.5"/>
<text text-anchor="start" x="133" y="-282.5" font-family="Helvetica,sans-Serif" font-size="10.00" fill="#000000">GenericSelector&lt; N,</text>
<text text-anchor="middle" x="190.5" y="-271.5" font-family="Helvetica,sans-Serif" font-size="10.00" fill="#000000"> EmptySelectorCallback &gt;</text>
<polyline fill="none" stroke="#000000" points="125,-264.5 256,-264.5 "/>
<text text-anchor="start" x="133" y="-252.5" font-family="Helvetica,sans-Serif" font-size="10.00" fill="#000000">&#45; selectable</text>
<polyline fill="none" stroke="#000000" points="125,-245.5 256,-245.5 "/>
<text text-anchor="start" x="133" y="-233.5" font-family="Helvetica,sans-Serif" font-size="10.00" fill="#000000">+ GenericSelector()</text>
<text text-anchor="start" x="133" y="-222.5" font-family="Helvetica,sans-Serif" font-size="10.00" fill="#000000">+ begin()</text>
<text text-anchor="start" x="133" y="-211.5" font-family="Helvetica,sans-Serif" font-size="10.00" fill="#000000">+ update()</text>
<text text-anchor="start" x="133" y="-200.5" font-family="Helvetica,sans-Serif" font-size="10.00" fill="#000000">+ reset()</text>
<text text-anchor="start" x="133" y="-189.5" font-family="Helvetica,sans-Serif" font-size="10.00" fill="#000000">+ set()</text>
<text text-anchor="start" x="133" y="-178.5" font-family="Helvetica,sans-Serif" font-size="10.00" fill="#000000">+ increment()</text>
<text text-anchor="start" x="133" y="-167.5" font-family="Helvetica,sans-Serif" font-size="10.00" fill="#000000">+ decrement()</text>
</a>
</g>
</g>
<!-- Node2&#45;&gt;Node1 -->
<g id="edge1" class="edge">
<title>Node2&#45;&gt;Node1</title>
<path fill="none" stroke="#191970" d="M223.1332,-151.0579C228.6534,-138.127 234.2929,-124.9166 239.539,-112.6278"/>
<polygon fill="none" stroke="#191970" points="219.8493,-149.8359 219.142,-160.4071 226.2872,-152.5842 219.8493,-149.8359"/>
</g>
<!-- Node3 -->
<g id="node3" class="node">
<title>Node3</title>
<g id="a_node3"><a xlink:href="../../dc/d77/classSelectorBase.html" target="_top" xlink:title="Base class for all Selectors exposing the get method, so it can be used by display elements etc,...">
<polygon fill="#ffffff" stroke="#000000" points="0,-425 0,-493 89,-493 89,-425 0,-425"/>
<text text-anchor="middle" x="44.5" y="-481" font-family="Helvetica,sans-Serif" font-size="10.00" fill="#000000">SelectorBase</text>
<polyline fill="none" stroke="#000000" points="0,-474 89,-474 "/>
<text text-anchor="start" x="8" y="-462" font-family="Helvetica,sans-Serif" font-size="10.00" fill="#000000"># setting</text>
<polyline fill="none" stroke="#000000" points="0,-455 89,-455 "/>
<text text-anchor="start" x="8" y="-443" font-family="Helvetica,sans-Serif" font-size="10.00" fill="#000000">+ get()</text>
<text text-anchor="start" x="8" y="-432" font-family="Helvetica,sans-Serif" font-size="10.00" fill="#000000"># SelectorBase()</text>
</a>
</g>
</g>
<!-- Node3&#45;&gt;Node2 -->
<g id="edge2" class="edge">
<title>Node3&#45;&gt;Node2</title>
<path fill="none" stroke="#191970" d="M61.5677,-415.4955C71.1753,-392.8898 84.119,-365.2137 98.5,-342 108.4377,-325.9586 120.3175,-309.6238 132.1861,-294.5057"/>
<polygon fill="none" stroke="#191970" points="58.2869,-414.2691 57.66,-424.8453 64.7455,-416.9685 58.2869,-414.2691"/>
</g>
<!-- Node4 -->
<g id="node4" class="node">
<title>Node4</title>
<g id="a_node4"><a xlink:href="../../d1/d55/classAH_1_1Updatable.html" target="_top" xlink:title=" ">
<polygon fill="#ffffff" stroke="#000000" points="107.5,-353.5 107.5,-564.5 189.5,-564.5 189.5,-353.5 107.5,-353.5"/>
<text text-anchor="middle" x="148.5" y="-552.5" font-family="Helvetica,sans-Serif" font-size="10.00" fill="#000000">Updatable&lt;&gt;</text>
<polyline fill="none" stroke="#000000" points="107.5,-545.5 189.5,-545.5 "/>
<text text-anchor="middle" x="148.5" y="-533.5" font-family="Helvetica,sans-Serif" font-size="10.00" fill="#000000"> </text>
<polyline fill="none" stroke="#000000" points="107.5,-526.5 189.5,-526.5 "/>
<text text-anchor="start" x="115.5" y="-514.5" font-family="Helvetica,sans-Serif" font-size="10.00" fill="#000000">+ ~Updatable()</text>
<text text-anchor="start" x="115.5" y="-503.5" font-family="Helvetica,sans-Serif" font-size="10.00" fill="#000000"># Updatable()</text>
<text text-anchor="start" x="115.5" y="-492.5" font-family="Helvetica,sans-Serif" font-size="10.00" fill="#000000">* begin()</text>
<text text-anchor="start" x="115.5" y="-481.5" font-family="Helvetica,sans-Serif" font-size="10.00" fill="#000000">* update()</text>
<text text-anchor="start" x="115.5" y="-470.5" font-family="Helvetica,sans-Serif" font-size="10.00" fill="#000000">* beginAll()</text>
<text text-anchor="start" x="115.5" y="-459.5" font-family="Helvetica,sans-Serif" font-size="10.00" fill="#000000">* updateAll()</text>
<text text-anchor="start" x="115.5" y="-448.5" font-family="Helvetica,sans-Serif" font-size="10.00" fill="#000000">* enable()</text>
<text text-anchor="start" x="115.5" y="-437.5" font-family="Helvetica,sans-Serif" font-size="10.00" fill="#000000">* disable()</text>
<text text-anchor="start" x="115.5" y="-426.5" font-family="Helvetica,sans-Serif" font-size="10.00" fill="#000000">* isEnabled()</text>
<text text-anchor="start" x="115.5" y="-415.5" font-family="Helvetica,sans-Serif" font-size="10.00" fill="#000000">* enable()</text>
<text text-anchor="start" x="115.5" y="-404.5" font-family="Helvetica,sans-Serif" font-size="10.00" fill="#000000">* enable()</text>
<text text-anchor="start" x="115.5" y="-393.5" font-family="Helvetica,sans-Serif" font-size="10.00" fill="#000000">* enable()</text>
<text text-anchor="start" x="115.5" y="-382.5" font-family="Helvetica,sans-Serif" font-size="10.00" fill="#000000">* disable()</text>
<text text-anchor="start" x="115.5" y="-371.5" font-family="Helvetica,sans-Serif" font-size="10.00" fill="#000000">* disable()</text>
<text text-anchor="start" x="115.5" y="-360.5" font-family="Helvetica,sans-Serif" font-size="10.00" fill="#000000">* disable()</text>
</a>
</g>
</g>
<!-- Node4&#45;&gt;Node2 -->
<g id="edge3" class="edge">
<title>Node4&#45;&gt;Node2</title>
<path fill="none" stroke="#191970" d="M169.4494,-343.5289C172.4982,-326.7242 175.5484,-309.9116 178.343,-294.508"/>
<polygon fill="none" stroke="#191970" points="165.9978,-342.9475 167.6564,-353.4117 172.8854,-344.1971 165.9978,-342.9475"/>
</g>
<!-- Node5 -->
<g id="node5" class="node">
<title>Node5</title>
<g id="a_node5"><a xlink:href="../../d4/d23/classDoublyLinkable.html" target="_top" xlink:title=" ">
<polygon fill="#ffffff" stroke="#000000" points="55,-1208.5 55,-1287.5 192,-1287.5 192,-1208.5 55,-1208.5"/>
<text text-anchor="start" x="63" y="-1275.5" font-family="Helvetica,sans-Serif" font-size="10.00" fill="#000000">DoublyLinkable&lt; Updatable</text>
<text text-anchor="middle" x="123.5" y="-1264.5" font-family="Helvetica,sans-Serif" font-size="10.00" fill="#000000">&lt; NormalUpdatable &gt; &gt;</text>
<polyline fill="none" stroke="#000000" points="55,-1257.5 192,-1257.5 "/>
<text text-anchor="start" x="63" y="-1245.5" font-family="Helvetica,sans-Serif" font-size="10.00" fill="#000000"># next</text>
<text text-anchor="start" x="63" y="-1234.5" font-family="Helvetica,sans-Serif" font-size="10.00" fill="#000000"># previous</text>
<polyline fill="none" stroke="#000000" points="55,-1227.5 192,-1227.5 "/>
<text text-anchor="start" x="63" y="-1215.5" font-family="Helvetica,sans-Serif" font-size="10.00" fill="#000000"># ~DoublyLinkable()</text>
</a>
</g>
</g>
<!-- Node5&#45;&gt;Node4 -->
<g id="edge4" class="edge">
<title>Node5&#45;&gt;Node4</title>
<path fill="none" stroke="#191970" d="M122.4054,-1198.3987C120.4328,-1092.571 117.5983,-836.8453 130.5,-623 131.6385,-604.1298 133.3863,-584.0889 135.3537,-564.7352"/>
<polygon fill="none" stroke="#191970" points="118.9073,-1198.5343 122.599,-1208.4651 125.906,-1198.3996 118.9073,-1198.5343"/>
</g>
<!-- Node7 -->
<g id="node7" class="node">
<title>Node7</title>
<g id="a_node7"><a xlink:href="../../d1/d55/classAH_1_1Updatable.html" target="_top" xlink:title=" ">
<polygon fill="#ffffff" stroke="#000000" points="140,-959.5 140,-1170.5 295,-1170.5 295,-959.5 140,-959.5"/>
<text text-anchor="middle" x="217.5" y="-1158.5" font-family="Helvetica,sans-Serif" font-size="10.00" fill="#000000">Updatable&lt; NormalUpdatable &gt;</text>
<polyline fill="none" stroke="#000000" points="140,-1151.5 295,-1151.5 "/>
<text text-anchor="middle" x="217.5" y="-1139.5" font-family="Helvetica,sans-Serif" font-size="10.00" fill="#000000"> </text>
<polyline fill="none" stroke="#000000" points="140,-1132.5 295,-1132.5 "/>
<text text-anchor="start" x="148" y="-1120.5" font-family="Helvetica,sans-Serif" font-size="10.00" fill="#000000">+ ~Updatable()</text>
<text text-anchor="start" x="148" y="-1109.5" font-family="Helvetica,sans-Serif" font-size="10.00" fill="#000000"># Updatable()</text>
<text text-anchor="start" x="148" y="-1098.5" font-family="Helvetica,sans-Serif" font-size="10.00" fill="#000000">* begin()</text>
<text text-anchor="start" x="148" y="-1087.5" font-family="Helvetica,sans-Serif" font-size="10.00" fill="#000000">* update()</text>
<text text-anchor="start" x="148" y="-1076.5" font-family="Helvetica,sans-Serif" font-size="10.00" fill="#000000">* beginAll()</text>
<text text-anchor="start" x="148" y="-1065.5" font-family="Helvetica,sans-Serif" font-size="10.00" fill="#000000">* updateAll()</text>
<text text-anchor="start" x="148" y="-1054.5" font-family="Helvetica,sans-Serif" font-size="10.00" fill="#000000">* enable()</text>
<text text-anchor="start" x="148" y="-1043.5" font-family="Helvetica,sans-Serif" font-size="10.00" fill="#000000">* disable()</text>
<text text-anchor="start" x="148" y="-1032.5" font-family="Helvetica,sans-Serif" font-size="10.00" fill="#000000">* isEnabled()</text>
<text text-anchor="start" x="148" y="-1021.5" font-family="Helvetica,sans-Serif" font-size="10.00" fill="#000000">* enable()</text>
<text text-anchor="start" x="148" y="-1010.5" font-family="Helvetica,sans-Serif" font-size="10.00" fill="#000000">* enable()</text>
<text text-anchor="start" x="148" y="-999.5" font-family="Helvetica,sans-Serif" font-size="10.00" fill="#000000">* enable()</text>
<text text-anchor="start" x="148" y="-988.5" font-family="Helvetica,sans-Serif" font-size="10.00" fill="#000000">* disable()</text>
<text text-anchor="start" x="148" y="-977.5" font-family="Helvetica,sans-Serif" font-size="10.00" fill="#000000">* disable()</text>
<text text-anchor="start" x="148" y="-966.5" font-family="Helvetica,sans-Serif" font-size="10.00" fill="#000000">* disable()</text>
</a>
</g>
</g>
<!-- Node5&#45;&gt;Node7 -->
<g id="edge7" class="edge">
<title>Node5&#45;&gt;Node7</title>
<path fill="none" stroke="#191970" d="M148.5591,-1199.2147C153.1693,-1190.2396 158.1426,-1180.5575 163.2325,-1170.6485"/>
<polygon fill="none" stroke="#191970" points="145.3524,-1197.7974 143.8966,-1208.2917 151.579,-1200.9958 145.3524,-1197.7974"/>
</g>
<!-- Node6 -->
<g id="node6" class="node">
<title>Node6</title>
<g id="a_node6"><a xlink:href="../../dd/d16/classDoublyLinkedList.html" target="_top" xlink:title=" ">
<polygon fill="#ffffff" stroke="#000000" points="139.5,-623.5 139.5,-900.5 309.5,-900.5 309.5,-623.5 139.5,-623.5"/>
<text text-anchor="start" x="147.5" y="-888.5" font-family="Helvetica,sans-Serif" font-size="10.00" fill="#000000">DoublyLinkedList&lt; AH</text>
<text text-anchor="middle" x="224.5" y="-877.5" font-family="Helvetica,sans-Serif" font-size="10.00" fill="#000000">::Updatable&lt; NormalUpdatable &gt; &gt;</text>
<polyline fill="none" stroke="#000000" points="139.5,-870.5 309.5,-870.5 "/>
<text text-anchor="middle" x="224.5" y="-858.5" font-family="Helvetica,sans-Serif" font-size="10.00" fill="#000000"> </text>
<polyline fill="none" stroke="#000000" points="139.5,-851.5 309.5,-851.5 "/>
<text text-anchor="start" x="147.5" y="-839.5" font-family="Helvetica,sans-Serif" font-size="10.00" fill="#000000">+ append()</text>
<text text-anchor="start" x="147.5" y="-828.5" font-family="Helvetica,sans-Serif" font-size="10.00" fill="#000000">+ append()</text>
<text text-anchor="start" x="147.5" y="-817.5" font-family="Helvetica,sans-Serif" font-size="10.00" fill="#000000">+ insertBefore()</text>
<text text-anchor="start" x="147.5" y="-806.5" font-family="Helvetica,sans-Serif" font-size="10.00" fill="#000000">+ insertBefore()</text>
<text text-anchor="start" x="147.5" y="-795.5" font-family="Helvetica,sans-Serif" font-size="10.00" fill="#000000">+ insertSorted()</text>
<text text-anchor="start" x="147.5" y="-784.5" font-family="Helvetica,sans-Serif" font-size="10.00" fill="#000000">+ insertSorted()</text>
<text text-anchor="start" x="147.5" y="-773.5" font-family="Helvetica,sans-Serif" font-size="10.00" fill="#000000">+ remove()</text>
<text text-anchor="start" x="147.5" y="-762.5" font-family="Helvetica,sans-Serif" font-size="10.00" fill="#000000">+ remove()</text>
<text text-anchor="start" x="147.5" y="-751.5" font-family="Helvetica,sans-Serif" font-size="10.00" fill="#000000">+ moveDown()</text>
<text text-anchor="start" x="147.5" y="-740.5" font-family="Helvetica,sans-Serif" font-size="10.00" fill="#000000">+ couldContain()</text>
<text text-anchor="start" x="147.5" y="-729.5" font-family="Helvetica,sans-Serif" font-size="10.00" fill="#000000">+ begin()</text>
<text text-anchor="start" x="147.5" y="-718.5" font-family="Helvetica,sans-Serif" font-size="10.00" fill="#000000">+ begin()</text>
<text text-anchor="start" x="147.5" y="-707.5" font-family="Helvetica,sans-Serif" font-size="10.00" fill="#000000">+ end()</text>
<text text-anchor="start" x="147.5" y="-696.5" font-family="Helvetica,sans-Serif" font-size="10.00" fill="#000000">+ end()</text>
<text text-anchor="start" x="147.5" y="-685.5" font-family="Helvetica,sans-Serif" font-size="10.00" fill="#000000">+ rbegin()</text>
<text text-anchor="start" x="147.5" y="-674.5" font-family="Helvetica,sans-Serif" font-size="10.00" fill="#000000">+ rbegin()</text>
<text text-anchor="start" x="147.5" y="-663.5" font-family="Helvetica,sans-Serif" font-size="10.00" fill="#000000">+ rend()</text>
<text text-anchor="start" x="147.5" y="-652.5" font-family="Helvetica,sans-Serif" font-size="10.00" fill="#000000">+ rend()</text>
<text text-anchor="start" x="147.5" y="-641.5" font-family="Helvetica,sans-Serif" font-size="10.00" fill="#000000">+ getFirst()</text>
<text text-anchor="start" x="147.5" y="-630.5" font-family="Helvetica,sans-Serif" font-size="10.00" fill="#000000">+ getLast()</text>
</a>
</g>
</g>
<!-- Node6&#45;&gt;Node4 -->
<g id="edge5" class="edge">
<title>Node6&#45;&gt;Node4</title>
<path fill="none" stroke="#404040" d="M189.7251,-623.3578C185.8391,-607.8651 181.9079,-592.1918 178.0954,-576.9922"/>
<polygon fill="none" stroke="#404040" points="177.9861,-576.556 172.6465,-571.7094 175.0665,-564.9165 180.4061,-569.7631 177.9861,-576.556"/>
<text text-anchor="middle" x="212.5" y="-597" font-family="Helvetica,sans-Serif" font-size="10.00" fill="#000000"> #updatables</text>
</g>
<!-- Node6&#45;&gt;Node7 -->
<g id="edge8" class="edge">
<title>Node6&#45;&gt;Node7</title>
<path fill="none" stroke="#404040" d="M222.3862,-900.7691C222.1155,-914.364 221.8198,-927.95 221.5,-941 221.4492,-943.0725 221.3966,-945.1645 221.3423,-947.2714"/>
<polygon fill="none" stroke="#404040" points="221.3369,-947.4771 225.1747,-953.5821 221.0153,-959.4728 217.1775,-953.3677 221.3369,-947.4771"/>
<text text-anchor="middle" x="250.5" y="-927.5" font-family="Helvetica,sans-Serif" font-size="10.00" fill="#000000"> #updatables</text>
</g>
<!-- Node7&#45;&gt;Node6 -->
<g id="edge6" class="edge">
<title>Node7&#45;&gt;Node6</title>
<path fill="none" stroke="#404040" d="M201.1082,-959.2461C200.4768,-953.0823 199.9308,-946.9667 199.5,-941 198.8327,-931.7577 198.652,-922.2658 198.8546,-912.7048"/>
<polygon fill="none" stroke="#404040" points="198.8598,-912.5625 195.0869,-906.4172 199.3083,-900.5709 203.0813,-906.7162 198.8598,-912.5625"/>
<text text-anchor="middle" x="210.5" y="-933" font-family="Helvetica,sans-Serif" font-size="10.00" fill="#000000"> &#45;last</text>
<text text-anchor="middle" x="210.5" y="-922" font-family="Helvetica,sans-Serif" font-size="10.00" fill="#000000">&#45;first</text>
</g>
<!-- Node8 -->
<g id="node8" class="node">
<title>Node8</title>
<g id="a_node8"><a xlink:href="../../d3/d8b/structEmptySelectorCallback.html" target="_top" xlink:title="A callback for the GenericSelector class that does nothing.">
<polygon fill="#ffffff" stroke="#000000" points="208,-419.5 208,-498.5 327,-498.5 327,-419.5 208,-419.5"/>
<text text-anchor="middle" x="267.5" y="-486.5" font-family="Helvetica,sans-Serif" font-size="10.00" fill="#000000">EmptySelectorCallback</text>
<polyline fill="none" stroke="#000000" points="208,-479.5 327,-479.5 "/>
<text text-anchor="middle" x="267.5" y="-467.5" font-family="Helvetica,sans-Serif" font-size="10.00" fill="#000000"> </text>
<polyline fill="none" stroke="#000000" points="208,-460.5 327,-460.5 "/>
<text text-anchor="start" x="216" y="-448.5" font-family="Helvetica,sans-Serif" font-size="10.00" fill="#000000">+ begin()</text>
<text text-anchor="start" x="216" y="-437.5" font-family="Helvetica,sans-Serif" font-size="10.00" fill="#000000">+ update()</text>
<text text-anchor="start" x="216" y="-426.5" font-family="Helvetica,sans-Serif" font-size="10.00" fill="#000000">+ update()</text>
</a>
</g>
</g>
<!-- Node8&#45;&gt;Node2 -->
<g id="edge9" class="edge">
<title>Node8&#45;&gt;Node2</title>
<path fill="none" stroke="#404040" d="M254.3507,-419.4668C244.0352,-388.4532 229.3488,-344.2987 216.6614,-306.1542"/>
<polygon fill="none" stroke="#404040" points="216.5826,-305.9171 210.8934,-301.4862 212.7952,-294.5304 218.4845,-298.9613 216.5826,-305.9171"/>
<text text-anchor="middle" x="245.5" y="-316" font-family="Helvetica,sans-Serif" font-size="10.00" fill="#000000"> +callback</text>
</g>
<!-- Node9 -->
<g id="node9" class="node">
<title>Node9</title>
<g id="a_node9"><a xlink:href="../../d7/d83/classAH_1_1IncrementButton.html" target="_top" xlink:title="A class for buttons that increment some counter or setting.">
<polygon fill="#ffffff" stroke="#000000" points="329,-160.5 329,-294.5 456,-294.5 456,-160.5 329,-160.5"/>
<text text-anchor="middle" x="392.5" y="-282.5" font-family="Helvetica,sans-Serif" font-size="10.00" fill="#000000">IncrementButton</text>
<polyline fill="none" stroke="#000000" points="329,-275.5 456,-275.5 "/>
<text text-anchor="start" x="337" y="-263.5" font-family="Helvetica,sans-Serif" font-size="10.00" fill="#000000">&#45; longPressState</text>
<text text-anchor="start" x="337" y="-252.5" font-family="Helvetica,sans-Serif" font-size="10.00" fill="#000000">&#45; longPressRepeat</text>
<text text-anchor="start" x="337" y="-241.5" font-family="Helvetica,sans-Serif" font-size="10.00" fill="#000000">&#45; state</text>
<polyline fill="none" stroke="#000000" points="329,-234.5 456,-234.5 "/>
<text text-anchor="start" x="337" y="-222.5" font-family="Helvetica,sans-Serif" font-size="10.00" fill="#000000">+ IncrementButton()</text>
<text text-anchor="start" x="337" y="-211.5" font-family="Helvetica,sans-Serif" font-size="10.00" fill="#000000">+ begin()</text>
<text text-anchor="start" x="337" y="-200.5" font-family="Helvetica,sans-Serif" font-size="10.00" fill="#000000">+ update()</text>
<text text-anchor="start" x="337" y="-189.5" font-family="Helvetica,sans-Serif" font-size="10.00" fill="#000000">+ getState()</text>
<text text-anchor="start" x="337" y="-178.5" font-family="Helvetica,sans-Serif" font-size="10.00" fill="#000000">+ invert()</text>
<text text-anchor="start" x="337" y="-167.5" font-family="Helvetica,sans-Serif" font-size="10.00" fill="#000000"># updateImplementation()</text>
</a>
</g>
</g>
<!-- Node9&#45;&gt;Node1 -->
<g id="edge10" class="edge">
<title>Node9&#45;&gt;Node1</title>
<path fill="none" stroke="#404040" d="M341.886,-160.4071C332.4733,-147.9297 322.6463,-134.9032 313.2594,-122.4602"/>
<polygon fill="none" stroke="#404040" points="313.0689,-122.2076 306.2622,-119.8266 305.842,-112.6278 312.6487,-115.0087 313.0689,-122.2076"/>
<text text-anchor="middle" x="345.5" y="-134" font-family="Helvetica,sans-Serif" font-size="10.00" fill="#000000"> &#45;button</text>
</g>
<!-- Node10 -->
<g id="node10" class="node">
<title>Node10</title>
<g id="a_node10"><a xlink:href="../../de/d0d/classAH_1_1Button.html" target="_top" xlink:title="A class for reading and debouncing buttons and switches.">
<polygon fill="#ffffff" stroke="#000000" points="345,-342.5 345,-575.5 468,-575.5 468,-342.5 345,-342.5"/>
<text text-anchor="middle" x="406.5" y="-563.5" font-family="Helvetica,sans-Serif" font-size="10.00" fill="#000000">Button</text>
<polyline fill="none" stroke="#000000" points="345,-556.5 468,-556.5 "/>
<text text-anchor="start" x="353" y="-544.5" font-family="Helvetica,sans-Serif" font-size="10.00" fill="#000000">&#45; pin</text>
<text text-anchor="start" x="353" y="-533.5" font-family="Helvetica,sans-Serif" font-size="10.00" fill="#000000">&#45; prevInput</text>
<text text-anchor="start" x="353" y="-522.5" font-family="Helvetica,sans-Serif" font-size="10.00" fill="#000000">&#45; debouncedState</text>
<text text-anchor="start" x="353" y="-511.5" font-family="Helvetica,sans-Serif" font-size="10.00" fill="#000000">&#45; prevBounceTime</text>
<text text-anchor="start" x="353" y="-500.5" font-family="Helvetica,sans-Serif" font-size="10.00" fill="#000000">&#45; invertState</text>
<text text-anchor="start" x="353" y="-489.5" font-family="Helvetica,sans-Serif" font-size="10.00" fill="#000000">&#45; debounceTime</text>
<polyline fill="none" stroke="#000000" points="345,-482.5 468,-482.5 "/>
<text text-anchor="start" x="353" y="-470.5" font-family="Helvetica,sans-Serif" font-size="10.00" fill="#000000">+ Button()</text>
<text text-anchor="start" x="353" y="-459.5" font-family="Helvetica,sans-Serif" font-size="10.00" fill="#000000">+ Button()</text>
<text text-anchor="start" x="353" y="-448.5" font-family="Helvetica,sans-Serif" font-size="10.00" fill="#000000">+ begin()</text>
<text text-anchor="start" x="353" y="-437.5" font-family="Helvetica,sans-Serif" font-size="10.00" fill="#000000">+ invert()</text>
<text text-anchor="start" x="353" y="-426.5" font-family="Helvetica,sans-Serif" font-size="10.00" fill="#000000">+ update()</text>
<text text-anchor="start" x="353" y="-415.5" font-family="Helvetica,sans-Serif" font-size="10.00" fill="#000000">+ getState()</text>
<text text-anchor="start" x="353" y="-404.5" font-family="Helvetica,sans-Serif" font-size="10.00" fill="#000000">+ previousBounceTime()</text>
<text text-anchor="start" x="353" y="-393.5" font-family="Helvetica,sans-Serif" font-size="10.00" fill="#000000">+ stableTime()</text>
<text text-anchor="start" x="353" y="-382.5" font-family="Helvetica,sans-Serif" font-size="10.00" fill="#000000">+ stableTime()</text>
<text text-anchor="start" x="353" y="-371.5" font-family="Helvetica,sans-Serif" font-size="10.00" fill="#000000">+ getName()</text>
<text text-anchor="start" x="353" y="-360.5" font-family="Helvetica,sans-Serif" font-size="10.00" fill="#000000">+ setDebounceTime()</text>
<text text-anchor="start" x="353" y="-349.5" font-family="Helvetica,sans-Serif" font-size="10.00" fill="#000000">+ getDebounceTime()</text>
</a>
</g>
</g>
<!-- Node10&#45;&gt;Node9 -->
<g id="edge11" class="edge">
<title>Node10&#45;&gt;Node9</title>
<path fill="none" stroke="#404040" d="M399.4385,-342.2327C398.7148,-330.2669 397.9921,-318.3157 397.3012,-306.8905"/>
<polygon fill="none" stroke="#404040" points="397.2898,-306.7017 392.9349,-300.9541 396.5654,-294.7236 400.9203,-300.4711 397.2898,-306.7017"/>
<text text-anchor="middle" x="415.5" y="-316" font-family="Helvetica,sans-Serif" font-size="10.00" fill="#000000"> &#45;button</text>
</g>
</g>
</svg>
