<?xml version="1.0" encoding="UTF-8" standalone="no"?>
<!DOCTYPE svg PUBLIC "-//W3C//DTD SVG 1.1//EN"
 "http://www.w3.org/Graphics/SVG/1.1/DTD/svg11.dtd">
<!-- Generated by graphviz version 2.40.1 (20161225.0304)
 -->
<!-- Title: GenericProgramChangeSelector&lt; N, Callback &gt; Pages: 1 -->
<svg width="580pt" height="1450pt"
 viewBox="0.00 0.00 579.50 1450.00" xmlns="http://www.w3.org/2000/svg" xmlns:xlink="http://www.w3.org/1999/xlink">
<g id="graph0" class="graph" transform="scale(1 1) rotate(0) translate(4 1446)">
<title>GenericProgramChangeSelector&lt; N, Callback &gt;</title>
<polygon fill="#ffffff" stroke="transparent" points="-4,4 -4,-1446 575.5,-1446 575.5,4 -4,4"/>
<!-- Node1 -->
<g id="node1" class="node">
<title>Node1</title>
<g id="a_node1"><a xlink:title=" ">
<polygon fill="#bfbfbf" stroke="#000000" points="83.5,-88.5 83.5,-189.5 255.5,-189.5 255.5,-88.5 83.5,-88.5"/>
<text text-anchor="start" x="91.5" y="-177.5" font-family="Helvetica,sans-Serif" font-size="10.00" fill="#000000">GenericProgramChangeSelector</text>
<text text-anchor="middle" x="169.5" y="-166.5" font-family="Helvetica,sans-Serif" font-size="10.00" fill="#000000">&lt; N, Callback &gt;</text>
<polyline fill="none" stroke="#000000" points="83.5,-159.5 255.5,-159.5 "/>
<text text-anchor="middle" x="169.5" y="-147.5" font-family="Helvetica,sans-Serif" font-size="10.00" fill="#000000"> </text>
<polyline fill="none" stroke="#000000" points="83.5,-140.5 255.5,-140.5 "/>
<text text-anchor="start" x="91.5" y="-128.5" font-family="Helvetica,sans-Serif" font-size="10.00" fill="#000000">+ GenericProgramChangeSelector()</text>
<text text-anchor="start" x="91.5" y="-117.5" font-family="Helvetica,sans-Serif" font-size="10.00" fill="#000000">+ begin()</text>
<text text-anchor="start" x="91.5" y="-106.5" font-family="Helvetica,sans-Serif" font-size="10.00" fill="#000000">+ reset()</text>
<text text-anchor="start" x="91.5" y="-95.5" font-family="Helvetica,sans-Serif" font-size="10.00" fill="#000000">+ updateImpl()</text>
</a>
</g>
</g>
<!-- Node2 -->
<g id="node2" class="node">
<title>Node2</title>
<g id="a_node2"><a xlink:href="../../d0/d04/classGenericSelector.html" target="_top" xlink:title=" ">
<polygon fill="#ffffff" stroke="#000000" points="86,-336.5 86,-470.5 217,-470.5 217,-336.5 86,-336.5"/>
<text text-anchor="start" x="94" y="-458.5" font-family="Helvetica,sans-Serif" font-size="10.00" fill="#000000">GenericSelector&lt; N,</text>
<text text-anchor="middle" x="151.5" y="-447.5" font-family="Helvetica,sans-Serif" font-size="10.00" fill="#000000"> EmptySelectorCallback &gt;</text>
<polyline fill="none" stroke="#000000" points="86,-440.5 217,-440.5 "/>
<text text-anchor="start" x="94" y="-428.5" font-family="Helvetica,sans-Serif" font-size="10.00" fill="#000000">&#45; selectable</text>
<polyline fill="none" stroke="#000000" points="86,-421.5 217,-421.5 "/>
<text text-anchor="start" x="94" y="-409.5" font-family="Helvetica,sans-Serif" font-size="10.00" fill="#000000">+ GenericSelector()</text>
<text text-anchor="start" x="94" y="-398.5" font-family="Helvetica,sans-Serif" font-size="10.00" fill="#000000">+ begin()</text>
<text text-anchor="start" x="94" y="-387.5" font-family="Helvetica,sans-Serif" font-size="10.00" fill="#000000">+ update()</text>
<text text-anchor="start" x="94" y="-376.5" font-family="Helvetica,sans-Serif" font-size="10.00" fill="#000000">+ reset()</text>
<text text-anchor="start" x="94" y="-365.5" font-family="Helvetica,sans-Serif" font-size="10.00" fill="#000000">+ set()</text>
<text text-anchor="start" x="94" y="-354.5" font-family="Helvetica,sans-Serif" font-size="10.00" fill="#000000">+ increment()</text>
<text text-anchor="start" x="94" y="-343.5" font-family="Helvetica,sans-Serif" font-size="10.00" fill="#000000">+ decrement()</text>
</a>
</g>
</g>
<!-- Node2&#45;&gt;Node1 -->
<g id="edge1" class="edge">
<title>Node2&#45;&gt;Node1</title>
<path fill="none" stroke="#191970" d="M156.7522,-326.3217C159.7471,-282.3134 163.4161,-228.3997 166.0476,-189.7305"/>
<polygon fill="none" stroke="#191970" points="153.2526,-326.199 156.0654,-336.4136 160.2364,-326.6743 153.2526,-326.199"/>
</g>
<!-- Node3 -->
<g id="node3" class="node">
<title>Node3</title>
<g id="a_node3"><a xlink:href="../../dc/d77/classSelectorBase.html" target="_top" xlink:title="Base class for all Selectors exposing the get method, so it can be used by display elements etc,...">
<polygon fill="#ffffff" stroke="#000000" points="0,-590 0,-658 89,-658 89,-590 0,-590"/>
<text text-anchor="middle" x="44.5" y="-646" font-family="Helvetica,sans-Serif" font-size="10.00" fill="#000000">SelectorBase</text>
<polyline fill="none" stroke="#000000" points="0,-639 89,-639 "/>
<text text-anchor="start" x="8" y="-627" font-family="Helvetica,sans-Serif" font-size="10.00" fill="#000000"># setting</text>
<polyline fill="none" stroke="#000000" points="0,-620 89,-620 "/>
<text text-anchor="start" x="8" y="-608" font-family="Helvetica,sans-Serif" font-size="10.00" fill="#000000">+ get()</text>
<text text-anchor="start" x="8" y="-597" font-family="Helvetica,sans-Serif" font-size="10.00" fill="#000000"># SelectorBase()</text>
</a>
</g>
</g>
<!-- Node3&#45;&gt;Node2 -->
<g id="edge2" class="edge">
<title>Node3&#45;&gt;Node2</title>
<path fill="none" stroke="#191970" d="M65.7477,-580.2139C80.9462,-548.8936 101.6852,-506.1558 118.9607,-470.5554"/>
<polygon fill="none" stroke="#191970" points="62.4357,-579.0222 61.2188,-589.5469 68.7334,-582.0782 62.4357,-579.0222"/>
</g>
<!-- Node4 -->
<g id="node4" class="node">
<title>Node4</title>
<g id="a_node4"><a xlink:href="../../d1/d55/classAH_1_1Updatable.html" target="_top" xlink:title=" ">
<polygon fill="#ffffff" stroke="#000000" points="107.5,-518.5 107.5,-729.5 189.5,-729.5 189.5,-518.5 107.5,-518.5"/>
<text text-anchor="middle" x="148.5" y="-717.5" font-family="Helvetica,sans-Serif" font-size="10.00" fill="#000000">Updatable&lt;&gt;</text>
<polyline fill="none" stroke="#000000" points="107.5,-710.5 189.5,-710.5 "/>
<text text-anchor="middle" x="148.5" y="-698.5" font-family="Helvetica,sans-Serif" font-size="10.00" fill="#000000"> </text>
<polyline fill="none" stroke="#000000" points="107.5,-691.5 189.5,-691.5 "/>
<text text-anchor="start" x="115.5" y="-679.5" font-family="Helvetica,sans-Serif" font-size="10.00" fill="#000000">+ ~Updatable()</text>
<text text-anchor="start" x="115.5" y="-668.5" font-family="Helvetica,sans-Serif" font-size="10.00" fill="#000000"># Updatable()</text>
<text text-anchor="start" x="115.5" y="-657.5" font-family="Helvetica,sans-Serif" font-size="10.00" fill="#000000">* begin()</text>
<text text-anchor="start" x="115.5" y="-646.5" font-family="Helvetica,sans-Serif" font-size="10.00" fill="#000000">* update()</text>
<text text-anchor="start" x="115.5" y="-635.5" font-family="Helvetica,sans-Serif" font-size="10.00" fill="#000000">* beginAll()</text>
<text text-anchor="start" x="115.5" y="-624.5" font-family="Helvetica,sans-Serif" font-size="10.00" fill="#000000">* updateAll()</text>
<text text-anchor="start" x="115.5" y="-613.5" font-family="Helvetica,sans-Serif" font-size="10.00" fill="#000000">* enable()</text>
<text text-anchor="start" x="115.5" y="-602.5" font-family="Helvetica,sans-Serif" font-size="10.00" fill="#000000">* disable()</text>
<text text-anchor="start" x="115.5" y="-591.5" font-family="Helvetica,sans-Serif" font-size="10.00" fill="#000000">* isEnabled()</text>
<text text-anchor="start" x="115.5" y="-580.5" font-family="Helvetica,sans-Serif" font-size="10.00" fill="#000000">* enable()</text>
<text text-anchor="start" x="115.5" y="-569.5" font-family="Helvetica,sans-Serif" font-size="10.00" fill="#000000">* enable()</text>
<text text-anchor="start" x="115.5" y="-558.5" font-family="Helvetica,sans-Serif" font-size="10.00" fill="#000000">* enable()</text>
<text text-anchor="start" x="115.5" y="-547.5" font-family="Helvetica,sans-Serif" font-size="10.00" fill="#000000">* disable()</text>
<text text-anchor="start" x="115.5" y="-536.5" font-family="Helvetica,sans-Serif" font-size="10.00" fill="#000000">* disable()</text>
<text text-anchor="start" x="115.5" y="-525.5" font-family="Helvetica,sans-Serif" font-size="10.00" fill="#000000">* disable()</text>
</a>
</g>
</g>
<!-- Node4&#45;&gt;Node2 -->
<g id="edge3" class="edge">
<title>Node4&#45;&gt;Node2</title>
<path fill="none" stroke="#191970" d="M150.0784,-507.985C150.2528,-495.1707 150.4257,-482.4605 150.5878,-470.5495"/>
<polygon fill="none" stroke="#191970" points="146.575,-508.2241 149.9385,-518.2708 153.5743,-508.3194 146.575,-508.2241"/>
</g>
<!-- Node5 -->
<g id="node5" class="node">
<title>Node5</title>
<g id="a_node5"><a xlink:href="../../d4/d23/classDoublyLinkable.html" target="_top" xlink:title=" ">
<polygon fill="#ffffff" stroke="#000000" points="42,-1362.5 42,-1441.5 179,-1441.5 179,-1362.5 42,-1362.5"/>
<text text-anchor="start" x="50" y="-1429.5" font-family="Helvetica,sans-Serif" font-size="10.00" fill="#000000">DoublyLinkable&lt; Updatable</text>
<text text-anchor="middle" x="110.5" y="-1418.5" font-family="Helvetica,sans-Serif" font-size="10.00" fill="#000000">&lt; NormalUpdatable &gt; &gt;</text>
<polyline fill="none" stroke="#000000" points="42,-1411.5 179,-1411.5 "/>
<text text-anchor="start" x="50" y="-1399.5" font-family="Helvetica,sans-Serif" font-size="10.00" fill="#000000"># next</text>
<text text-anchor="start" x="50" y="-1388.5" font-family="Helvetica,sans-Serif" font-size="10.00" fill="#000000"># previous</text>
<polyline fill="none" stroke="#000000" points="42,-1381.5 179,-1381.5 "/>
<text text-anchor="start" x="50" y="-1369.5" font-family="Helvetica,sans-Serif" font-size="10.00" fill="#000000"># ~DoublyLinkable()</text>
</a>
</g>
</g>
<!-- Node5&#45;&gt;Node4 -->
<g id="edge4" class="edge">
<title>Node5&#45;&gt;Node4</title>
<path fill="none" stroke="#191970" d="M107.8867,-1352.2725C103.008,-1246.2033 94.9287,-990.0418 117.5,-777 119.1276,-761.6377 121.5673,-745.5313 124.3767,-729.7738"/>
<polygon fill="none" stroke="#191970" points="104.3953,-1352.5382 108.3622,-1362.3623 111.3875,-1352.2086 104.3953,-1352.5382"/>
</g>
<!-- Node7 -->
<g id="node7" class="node">
<title>Node7</title>
<g id="a_node7"><a xlink:href="../../d1/d55/classAH_1_1Updatable.html" target="_top" xlink:title=" ">
<polygon fill="#ffffff" stroke="#000000" points="127,-1113.5 127,-1324.5 282,-1324.5 282,-1113.5 127,-1113.5"/>
<text text-anchor="middle" x="204.5" y="-1312.5" font-family="Helvetica,sans-Serif" font-size="10.00" fill="#000000">Updatable&lt; NormalUpdatable &gt;</text>
<polyline fill="none" stroke="#000000" points="127,-1305.5 282,-1305.5 "/>
<text text-anchor="middle" x="204.5" y="-1293.5" font-family="Helvetica,sans-Serif" font-size="10.00" fill="#000000"> </text>
<polyline fill="none" stroke="#000000" points="127,-1286.5 282,-1286.5 "/>
<text text-anchor="start" x="135" y="-1274.5" font-family="Helvetica,sans-Serif" font-size="10.00" fill="#000000">+ ~Updatable()</text>
<text text-anchor="start" x="135" y="-1263.5" font-family="Helvetica,sans-Serif" font-size="10.00" fill="#000000"># Updatable()</text>
<text text-anchor="start" x="135" y="-1252.5" font-family="Helvetica,sans-Serif" font-size="10.00" fill="#000000">* begin()</text>
<text text-anchor="start" x="135" y="-1241.5" font-family="Helvetica,sans-Serif" font-size="10.00" fill="#000000">* update()</text>
<text text-anchor="start" x="135" y="-1230.5" font-family="Helvetica,sans-Serif" font-size="10.00" fill="#000000">* beginAll()</text>
<text text-anchor="start" x="135" y="-1219.5" font-family="Helvetica,sans-Serif" font-size="10.00" fill="#000000">* updateAll()</text>
<text text-anchor="start" x="135" y="-1208.5" font-family="Helvetica,sans-Serif" font-size="10.00" fill="#000000">* enable()</text>
<text text-anchor="start" x="135" y="-1197.5" font-family="Helvetica,sans-Serif" font-size="10.00" fill="#000000">* disable()</text>
<text text-anchor="start" x="135" y="-1186.5" font-family="Helvetica,sans-Serif" font-size="10.00" fill="#000000">* isEnabled()</text>
<text text-anchor="start" x="135" y="-1175.5" font-family="Helvetica,sans-Serif" font-size="10.00" fill="#000000">* enable()</text>
<text text-anchor="start" x="135" y="-1164.5" font-family="Helvetica,sans-Serif" font-size="10.00" fill="#000000">* enable()</text>
<text text-anchor="start" x="135" y="-1153.5" font-family="Helvetica,sans-Serif" font-size="10.00" fill="#000000">* enable()</text>
<text text-anchor="start" x="135" y="-1142.5" font-family="Helvetica,sans-Serif" font-size="10.00" fill="#000000">* disable()</text>
<text text-anchor="start" x="135" y="-1131.5" font-family="Helvetica,sans-Serif" font-size="10.00" fill="#000000">* disable()</text>
<text text-anchor="start" x="135" y="-1120.5" font-family="Helvetica,sans-Serif" font-size="10.00" fill="#000000">* disable()</text>
</a>
</g>
</g>
<!-- Node5&#45;&gt;Node7 -->
<g id="edge7" class="edge">
<title>Node5&#45;&gt;Node7</title>
<path fill="none" stroke="#191970" d="M135.5591,-1353.2147C140.1693,-1344.2396 145.1426,-1334.5575 150.2325,-1324.6485"/>
<polygon fill="none" stroke="#191970" points="132.3524,-1351.7974 130.8966,-1362.2917 138.579,-1354.9958 132.3524,-1351.7974"/>
</g>
<!-- Node6 -->
<g id="node6" class="node">
<title>Node6</title>
<g id="a_node6"><a xlink:href="../../dd/d16/classDoublyLinkedList.html" target="_top" xlink:title=" ">
<polygon fill="#ffffff" stroke="#000000" points="126.5,-777.5 126.5,-1054.5 296.5,-1054.5 296.5,-777.5 126.5,-777.5"/>
<text text-anchor="start" x="134.5" y="-1042.5" font-family="Helvetica,sans-Serif" font-size="10.00" fill="#000000">DoublyLinkedList&lt; AH</text>
<text text-anchor="middle" x="211.5" y="-1031.5" font-family="Helvetica,sans-Serif" font-size="10.00" fill="#000000">::Updatable&lt; NormalUpdatable &gt; &gt;</text>
<polyline fill="none" stroke="#000000" points="126.5,-1024.5 296.5,-1024.5 "/>
<text text-anchor="middle" x="211.5" y="-1012.5" font-family="Helvetica,sans-Serif" font-size="10.00" fill="#000000"> </text>
<polyline fill="none" stroke="#000000" points="126.5,-1005.5 296.5,-1005.5 "/>
<text text-anchor="start" x="134.5" y="-993.5" font-family="Helvetica,sans-Serif" font-size="10.00" fill="#000000">+ append()</text>
<text text-anchor="start" x="134.5" y="-982.5" font-family="Helvetica,sans-Serif" font-size="10.00" fill="#000000">+ append()</text>
<text text-anchor="start" x="134.5" y="-971.5" font-family="Helvetica,sans-Serif" font-size="10.00" fill="#000000">+ insertBefore()</text>
<text text-anchor="start" x="134.5" y="-960.5" font-family="Helvetica,sans-Serif" font-size="10.00" fill="#000000">+ insertBefore()</text>
<text text-anchor="start" x="134.5" y="-949.5" font-family="Helvetica,sans-Serif" font-size="10.00" fill="#000000">+ insertSorted()</text>
<text text-anchor="start" x="134.5" y="-938.5" font-family="Helvetica,sans-Serif" font-size="10.00" fill="#000000">+ insertSorted()</text>
<text text-anchor="start" x="134.5" y="-927.5" font-family="Helvetica,sans-Serif" font-size="10.00" fill="#000000">+ remove()</text>
<text text-anchor="start" x="134.5" y="-916.5" font-family="Helvetica,sans-Serif" font-size="10.00" fill="#000000">+ remove()</text>
<text text-anchor="start" x="134.5" y="-905.5" font-family="Helvetica,sans-Serif" font-size="10.00" fill="#000000">+ moveDown()</text>
<text text-anchor="start" x="134.5" y="-894.5" font-family="Helvetica,sans-Serif" font-size="10.00" fill="#000000">+ couldContain()</text>
<text text-anchor="start" x="134.5" y="-883.5" font-family="Helvetica,sans-Serif" font-size="10.00" fill="#000000">+ begin()</text>
<text text-anchor="start" x="134.5" y="-872.5" font-family="Helvetica,sans-Serif" font-size="10.00" fill="#000000">+ begin()</text>
<text text-anchor="start" x="134.5" y="-861.5" font-family="Helvetica,sans-Serif" font-size="10.00" fill="#000000">+ end()</text>
<text text-anchor="start" x="134.5" y="-850.5" font-family="Helvetica,sans-Serif" font-size="10.00" fill="#000000">+ end()</text>
<text text-anchor="start" x="134.5" y="-839.5" font-family="Helvetica,sans-Serif" font-size="10.00" fill="#000000">+ rbegin()</text>
<text text-anchor="start" x="134.5" y="-828.5" font-family="Helvetica,sans-Serif" font-size="10.00" fill="#000000">+ rbegin()</text>
<text text-anchor="start" x="134.5" y="-817.5" font-family="Helvetica,sans-Serif" font-size="10.00" fill="#000000">+ rend()</text>
<text text-anchor="start" x="134.5" y="-806.5" font-family="Helvetica,sans-Serif" font-size="10.00" fill="#000000">+ rend()</text>
<text text-anchor="start" x="134.5" y="-795.5" font-family="Helvetica,sans-Serif" font-size="10.00" fill="#000000">+ getFirst()</text>
<text text-anchor="start" x="134.5" y="-784.5" font-family="Helvetica,sans-Serif" font-size="10.00" fill="#000000">+ getLast()</text>
</a>
</g>
</g>
<!-- Node6&#45;&gt;Node4 -->
<g id="edge5" class="edge">
<title>Node6&#45;&gt;Node4</title>
<path fill="none" stroke="#404040" d="M181.5683,-777.2688C178.9729,-765.2393 176.3632,-753.1439 173.8101,-741.3102"/>
<polygon fill="none" stroke="#404040" points="173.8092,-741.306 168.6338,-736.2846 171.2784,-729.5759 176.4538,-734.5973 173.8092,-741.306"/>
<text text-anchor="middle" x="204.5" y="-751" font-family="Helvetica,sans-Serif" font-size="10.00" fill="#000000"> #updatables</text>
</g>
<!-- Node6&#45;&gt;Node7 -->
<g id="edge8" class="edge">
<title>Node6&#45;&gt;Node7</title>
<path fill="none" stroke="#404040" d="M209.3862,-1054.7691C209.1155,-1068.364 208.8198,-1081.95 208.5,-1095 208.4492,-1097.0725 208.3966,-1099.1645 208.3423,-1101.2714"/>
<polygon fill="none" stroke="#404040" points="208.3369,-1101.4771 212.1747,-1107.5821 208.0153,-1113.4728 204.1775,-1107.3677 208.3369,-1101.4771"/>
<text text-anchor="middle" x="237.5" y="-1081.5" font-family="Helvetica,sans-Serif" font-size="10.00" fill="#000000"> #updatables</text>
</g>
<!-- Node7&#45;&gt;Node6 -->
<g id="edge6" class="edge">
<title>Node7&#45;&gt;Node6</title>
<path fill="none" stroke="#404040" d="M188.1082,-1113.2461C187.4768,-1107.0823 186.9308,-1100.9667 186.5,-1095 185.8327,-1085.7577 185.652,-1076.2658 185.8546,-1066.7048"/>
<polygon fill="none" stroke="#404040" points="185.8598,-1066.5625 182.0869,-1060.4172 186.3083,-1054.5709 190.0813,-1060.7162 185.8598,-1066.5625"/>
<text text-anchor="middle" x="197.5" y="-1087" font-family="Helvetica,sans-Serif" font-size="10.00" fill="#000000"> &#45;last</text>
<text text-anchor="middle" x="197.5" y="-1076" font-family="Helvetica,sans-Serif" font-size="10.00" fill="#000000">&#45;first</text>
</g>
<!-- Node8 -->
<g id="node8" class="node">
<title>Node8</title>
<g id="a_node8"><a xlink:href="../../d3/d8b/structEmptySelectorCallback.html" target="_top" xlink:title="A callback for the GenericSelector class that does nothing.">
<polygon fill="#ffffff" stroke="#000000" points="208,-584.5 208,-663.5 327,-663.5 327,-584.5 208,-584.5"/>
<text text-anchor="middle" x="267.5" y="-651.5" font-family="Helvetica,sans-Serif" font-size="10.00" fill="#000000">EmptySelectorCallback</text>
<polyline fill="none" stroke="#000000" points="208,-644.5 327,-644.5 "/>
<text text-anchor="middle" x="267.5" y="-632.5" font-family="Helvetica,sans-Serif" font-size="10.00" fill="#000000"> </text>
<polyline fill="none" stroke="#000000" points="208,-625.5 327,-625.5 "/>
<text text-anchor="start" x="216" y="-613.5" font-family="Helvetica,sans-Serif" font-size="10.00" fill="#000000">+ begin()</text>
<text text-anchor="start" x="216" y="-602.5" font-family="Helvetica,sans-Serif" font-size="10.00" fill="#000000">+ update()</text>
<text text-anchor="start" x="216" y="-591.5" font-family="Helvetica,sans-Serif" font-size="10.00" fill="#000000">+ update()</text>
</a>
</g>
</g>
<!-- Node8&#45;&gt;Node2 -->
<g id="edge9" class="edge">
<title>Node8&#45;&gt;Node2</title>
<path fill="none" stroke="#404040" d="M246.6276,-584.3244C231.5536,-555.6708 210.7075,-516.0454 192.3708,-481.1898"/>
<polygon fill="none" stroke="#404040" points="192.3568,-481.1631 186.0233,-477.7154 186.7698,-470.5431 193.1034,-473.9908 192.3568,-481.1631"/>
<text text-anchor="middle" x="222.5" y="-492" font-family="Helvetica,sans-Serif" font-size="10.00" fill="#000000"> +callback</text>
</g>
<!-- Node9 -->
<g id="node9" class="node">
<title>Node9</title>
<g id="a_node9"><a xlink:href="../../db/d1d/classMIDIInputElementPC.html" target="_top" xlink:title="Class for objects that listen for incoming MIDI Program Change events.">
<polygon fill="#ffffff" stroke="#000000" points="337,-336.5 337,-470.5 468,-470.5 468,-336.5 337,-336.5"/>
<text text-anchor="middle" x="402.5" y="-458.5" font-family="Helvetica,sans-Serif" font-size="10.00" fill="#000000">MIDIInputElementPC</text>
<polyline fill="none" stroke="#000000" points="337,-451.5 468,-451.5 "/>
<text text-anchor="middle" x="402.5" y="-439.5" font-family="Helvetica,sans-Serif" font-size="10.00" fill="#000000"> </text>
<polyline fill="none" stroke="#000000" points="337,-432.5 468,-432.5 "/>
<text text-anchor="start" x="345" y="-420.5" font-family="Helvetica,sans-Serif" font-size="10.00" fill="#000000">+ MIDIInputElementPC()</text>
<text text-anchor="start" x="345" y="-409.5" font-family="Helvetica,sans-Serif" font-size="10.00" fill="#000000">+ ~MIDIInputElementPC()</text>
<text text-anchor="start" x="345" y="-398.5" font-family="Helvetica,sans-Serif" font-size="10.00" fill="#000000">+ beginAll()</text>
<text text-anchor="start" x="345" y="-387.5" font-family="Helvetica,sans-Serif" font-size="10.00" fill="#000000">+ resetAll()</text>
<text text-anchor="start" x="345" y="-376.5" font-family="Helvetica,sans-Serif" font-size="10.00" fill="#000000">+ updateAll()</text>
<text text-anchor="start" x="345" y="-365.5" font-family="Helvetica,sans-Serif" font-size="10.00" fill="#000000">+ updateAllWith()</text>
<text text-anchor="start" x="345" y="-354.5" font-family="Helvetica,sans-Serif" font-size="10.00" fill="#000000">&#45; getTarget()</text>
<text text-anchor="start" x="345" y="-343.5" font-family="Helvetica,sans-Serif" font-size="10.00" fill="#000000">&#45; moveDown()</text>
</a>
</g>
</g>
<!-- Node9&#45;&gt;Node1 -->
<g id="edge10" class="edge">
<title>Node9&#45;&gt;Node1</title>
<path fill="none" stroke="#191970" d="M329.0182,-342.4463C307.2257,-322.851 283.9933,-300.3981 264.5,-278 240.6094,-250.5494 217.4872,-216.9232 200.0365,-189.6206"/>
<polygon fill="none" stroke="#191970" points="326.8633,-345.214 336.6579,-349.2534 331.5201,-339.9877 326.8633,-345.214"/>
</g>
<!-- Node12 -->
<g id="node12" class="node">
<title>Node12</title>
<g id="a_node12"><a xlink:href="../../d4/d23/classDoublyLinkable.html" target="_top" xlink:title=" ">
<polygon fill="#ffffff" stroke="#000000" points="273.5,-105 273.5,-173 409.5,-173 409.5,-105 273.5,-105"/>
<text text-anchor="start" x="281.5" y="-161" font-family="Helvetica,sans-Serif" font-size="10.00" fill="#000000">DoublyLinkable&lt; MIDIInput</text>
<text text-anchor="middle" x="341.5" y="-150" font-family="Helvetica,sans-Serif" font-size="10.00" fill="#000000">ElementPC &gt;</text>
<polyline fill="none" stroke="#000000" points="273.5,-143 409.5,-143 "/>
<text text-anchor="middle" x="341.5" y="-131" font-family="Helvetica,sans-Serif" font-size="10.00" fill="#000000"> </text>
<polyline fill="none" stroke="#000000" points="273.5,-124 409.5,-124 "/>
<text text-anchor="start" x="281.5" y="-112" font-family="Helvetica,sans-Serif" font-size="10.00" fill="#000000"># ~DoublyLinkable()</text>
</a>
</g>
</g>
<!-- Node9&#45;&gt;Node12 -->
<g id="edge14" class="edge">
<title>Node9&#45;&gt;Node12</title>
<path fill="none" stroke="#404040" d="M347.3467,-336.3164C344.2318,-330.3563 341.5436,-324.2184 339.5,-318 325.2471,-274.6296 328.0095,-222.0951 332.9531,-185.1933"/>
<polygon fill="none" stroke="#404040" points="332.9539,-185.1874 329.865,-178.6714 334.6918,-173.3139 337.7807,-179.83 332.9539,-185.1874"/>
<text text-anchor="middle" x="361" y="-310" font-family="Helvetica,sans-Serif" font-size="10.00" fill="#000000"> #next</text>
<text text-anchor="middle" x="361" y="-299" font-family="Helvetica,sans-Serif" font-size="10.00" fill="#000000">#previous</text>
</g>
<!-- Node13 -->
<g id="node13" class="node">
<title>Node13</title>
<g id="a_node13"><a xlink:href="../../dd/d16/classDoublyLinkedList.html" target="_top" xlink:title=" ">
<polygon fill="#ffffff" stroke="#000000" points="427.5,-.5 427.5,-277.5 571.5,-277.5 571.5,-.5 427.5,-.5"/>
<text text-anchor="start" x="435.5" y="-265.5" font-family="Helvetica,sans-Serif" font-size="10.00" fill="#000000">DoublyLinkedList&lt; MIDIInput</text>
<text text-anchor="middle" x="499.5" y="-254.5" font-family="Helvetica,sans-Serif" font-size="10.00" fill="#000000">ElementPC &gt;</text>
<polyline fill="none" stroke="#000000" points="427.5,-247.5 571.5,-247.5 "/>
<text text-anchor="middle" x="499.5" y="-235.5" font-family="Helvetica,sans-Serif" font-size="10.00" fill="#000000"> </text>
<polyline fill="none" stroke="#000000" points="427.5,-228.5 571.5,-228.5 "/>
<text text-anchor="start" x="435.5" y="-216.5" font-family="Helvetica,sans-Serif" font-size="10.00" fill="#000000">+ append()</text>
<text text-anchor="start" x="435.5" y="-205.5" font-family="Helvetica,sans-Serif" font-size="10.00" fill="#000000">+ append()</text>
<text text-anchor="start" x="435.5" y="-194.5" font-family="Helvetica,sans-Serif" font-size="10.00" fill="#000000">+ insertBefore()</text>
<text text-anchor="start" x="435.5" y="-183.5" font-family="Helvetica,sans-Serif" font-size="10.00" fill="#000000">+ insertBefore()</text>
<text text-anchor="start" x="435.5" y="-172.5" font-family="Helvetica,sans-Serif" font-size="10.00" fill="#000000">+ insertSorted()</text>
<text text-anchor="start" x="435.5" y="-161.5" font-family="Helvetica,sans-Serif" font-size="10.00" fill="#000000">+ insertSorted()</text>
<text text-anchor="start" x="435.5" y="-150.5" font-family="Helvetica,sans-Serif" font-size="10.00" fill="#000000">+ remove()</text>
<text text-anchor="start" x="435.5" y="-139.5" font-family="Helvetica,sans-Serif" font-size="10.00" fill="#000000">+ remove()</text>
<text text-anchor="start" x="435.5" y="-128.5" font-family="Helvetica,sans-Serif" font-size="10.00" fill="#000000">+ moveDown()</text>
<text text-anchor="start" x="435.5" y="-117.5" font-family="Helvetica,sans-Serif" font-size="10.00" fill="#000000">+ couldContain()</text>
<text text-anchor="start" x="435.5" y="-106.5" font-family="Helvetica,sans-Serif" font-size="10.00" fill="#000000">+ begin()</text>
<text text-anchor="start" x="435.5" y="-95.5" font-family="Helvetica,sans-Serif" font-size="10.00" fill="#000000">+ begin()</text>
<text text-anchor="start" x="435.5" y="-84.5" font-family="Helvetica,sans-Serif" font-size="10.00" fill="#000000">+ end()</text>
<text text-anchor="start" x="435.5" y="-73.5" font-family="Helvetica,sans-Serif" font-size="10.00" fill="#000000">+ end()</text>
<text text-anchor="start" x="435.5" y="-62.5" font-family="Helvetica,sans-Serif" font-size="10.00" fill="#000000">+ rbegin()</text>
<text text-anchor="start" x="435.5" y="-51.5" font-family="Helvetica,sans-Serif" font-size="10.00" fill="#000000">+ rbegin()</text>
<text text-anchor="start" x="435.5" y="-40.5" font-family="Helvetica,sans-Serif" font-size="10.00" fill="#000000">+ rend()</text>
<text text-anchor="start" x="435.5" y="-29.5" font-family="Helvetica,sans-Serif" font-size="10.00" fill="#000000">+ rend()</text>
<text text-anchor="start" x="435.5" y="-18.5" font-family="Helvetica,sans-Serif" font-size="10.00" fill="#000000">+ getFirst()</text>
<text text-anchor="start" x="435.5" y="-7.5" font-family="Helvetica,sans-Serif" font-size="10.00" fill="#000000">+ getLast()</text>
</a>
</g>
</g>
<!-- Node9&#45;&gt;Node13 -->
<g id="edge16" class="edge">
<title>Node9&#45;&gt;Node13</title>
<path fill="none" stroke="#404040" d="M427.1026,-336.4136C432.4838,-321.74 438.3883,-305.6396 444.4314,-289.1613"/>
<polygon fill="none" stroke="#404040" points="444.5007,-288.972 442.8112,-281.9616 448.6325,-277.7057 450.322,-284.7161 444.5007,-288.972"/>
<text text-anchor="middle" x="449.5" y="-310" font-family="Helvetica,sans-Serif" font-size="10.00" fill="#000000"> &#45;last</text>
<text text-anchor="middle" x="449.5" y="-299" font-family="Helvetica,sans-Serif" font-size="10.00" fill="#000000">&#45;first</text>
</g>
<!-- Node10 -->
<g id="node10" class="node">
<title>Node10</title>
<g id="a_node10"><a xlink:href="../../d9/db1/classMIDIInputElement.html" target="_top" xlink:title="A class for objects that listen for incoming MIDI events.">
<polygon fill="#ffffff" stroke="#000000" points="345,-546 345,-702 462,-702 462,-546 345,-546"/>
<text text-anchor="middle" x="403.5" y="-690" font-family="Helvetica,sans-Serif" font-size="10.00" fill="#000000">MIDIInputElement</text>
<polyline fill="none" stroke="#000000" points="345,-683 462,-683 "/>
<text text-anchor="middle" x="403.5" y="-671" font-family="Helvetica,sans-Serif" font-size="10.00" fill="#000000"> </text>
<polyline fill="none" stroke="#000000" points="345,-664 462,-664 "/>
<text text-anchor="start" x="353" y="-652" font-family="Helvetica,sans-Serif" font-size="10.00" fill="#000000">+ ~MIDIInputElement()</text>
<text text-anchor="start" x="353" y="-641" font-family="Helvetica,sans-Serif" font-size="10.00" fill="#000000">+ begin()</text>
<text text-anchor="start" x="353" y="-630" font-family="Helvetica,sans-Serif" font-size="10.00" fill="#000000">+ reset()</text>
<text text-anchor="start" x="353" y="-619" font-family="Helvetica,sans-Serif" font-size="10.00" fill="#000000">+ update()</text>
<text text-anchor="start" x="353" y="-608" font-family="Helvetica,sans-Serif" font-size="10.00" fill="#000000">+ updateWith()</text>
<text text-anchor="start" x="353" y="-597" font-family="Helvetica,sans-Serif" font-size="10.00" fill="#000000"># MIDIInputElement()</text>
<text text-anchor="start" x="353" y="-586" font-family="Helvetica,sans-Serif" font-size="10.00" fill="#000000"># MIDIInputElement()</text>
<text text-anchor="start" x="353" y="-575" font-family="Helvetica,sans-Serif" font-size="10.00" fill="#000000">&#45; updateImpl()</text>
<text text-anchor="start" x="353" y="-564" font-family="Helvetica,sans-Serif" font-size="10.00" fill="#000000">&#45; getTarget()</text>
<text text-anchor="start" x="353" y="-553" font-family="Helvetica,sans-Serif" font-size="10.00" fill="#000000">&#45; match()</text>
</a>
</g>
</g>
<!-- Node10&#45;&gt;Node9 -->
<g id="edge11" class="edge">
<title>Node10&#45;&gt;Node9</title>
<path fill="none" stroke="#191970" d="M403.0999,-535.7718C403.0017,-514.1336 402.8983,-491.3155 402.8054,-470.8378"/>
<polygon fill="none" stroke="#191970" points="399.6006,-535.9657 403.146,-545.9496 406.6005,-535.9338 399.6006,-535.9657"/>
</g>
<!-- Node11 -->
<g id="node11" class="node">
<title>Node11</title>
<g id="a_node11"><a xlink:href="../../d7/d0f/classMIDIAddress.html" target="_top" xlink:title="A type&#45;safe utility class for saving a MIDI address consisting of a 7&#45;bit address,...">
<polygon fill="#ffffff" stroke="#000000" points="339,-783 339,-1049 468,-1049 468,-783 339,-783"/>
<text text-anchor="middle" x="403.5" y="-1037" font-family="Helvetica,sans-Serif" font-size="10.00" fill="#000000">MIDIAddress</text>
<polyline fill="none" stroke="#000000" points="339,-1030 468,-1030 "/>
<text text-anchor="start" x="347" y="-1018" font-family="Helvetica,sans-Serif" font-size="10.00" fill="#000000">&#45; addresses</text>
<polyline fill="none" stroke="#000000" points="339,-1011 468,-1011 "/>
<text text-anchor="start" x="347" y="-999" font-family="Helvetica,sans-Serif" font-size="10.00" fill="#000000">* MIDIAddress()</text>
<text text-anchor="start" x="347" y="-988" font-family="Helvetica,sans-Serif" font-size="10.00" fill="#000000">* MIDIAddress()</text>
<text text-anchor="start" x="347" y="-977" font-family="Helvetica,sans-Serif" font-size="10.00" fill="#000000">* MIDIAddress()</text>
<text text-anchor="start" x="347" y="-966" font-family="Helvetica,sans-Serif" font-size="10.00" fill="#000000">* MIDIAddress()</text>
<text text-anchor="start" x="347" y="-955" font-family="Helvetica,sans-Serif" font-size="10.00" fill="#000000">* MIDIAddress()</text>
<text text-anchor="start" x="347" y="-944" font-family="Helvetica,sans-Serif" font-size="10.00" fill="#000000">* invalid()</text>
<text text-anchor="start" x="347" y="-933" font-family="Helvetica,sans-Serif" font-size="10.00" fill="#000000">* operator+=()</text>
<text text-anchor="start" x="347" y="-922" font-family="Helvetica,sans-Serif" font-size="10.00" fill="#000000">* operator&#45;=()</text>
<text text-anchor="start" x="347" y="-911" font-family="Helvetica,sans-Serif" font-size="10.00" fill="#000000">* operator+()</text>
<text text-anchor="start" x="347" y="-900" font-family="Helvetica,sans-Serif" font-size="10.00" fill="#000000">* operator&#45;()</text>
<text text-anchor="start" x="347" y="-889" font-family="Helvetica,sans-Serif" font-size="10.00" fill="#000000">* getAddress()</text>
<text text-anchor="start" x="347" y="-878" font-family="Helvetica,sans-Serif" font-size="10.00" fill="#000000">* getChannel()</text>
<text text-anchor="start" x="347" y="-867" font-family="Helvetica,sans-Serif" font-size="10.00" fill="#000000">* getRawChannel()</text>
<text text-anchor="start" x="347" y="-856" font-family="Helvetica,sans-Serif" font-size="10.00" fill="#000000">* getCableNumber()</text>
<text text-anchor="start" x="347" y="-845" font-family="Helvetica,sans-Serif" font-size="10.00" fill="#000000">* operator==()</text>
<text text-anchor="start" x="347" y="-834" font-family="Helvetica,sans-Serif" font-size="10.00" fill="#000000">* operator!=()</text>
<text text-anchor="start" x="347" y="-823" font-family="Helvetica,sans-Serif" font-size="10.00" fill="#000000">* isValid()</text>
<text text-anchor="start" x="347" y="-812" font-family="Helvetica,sans-Serif" font-size="10.00" fill="#000000">* operator bool()</text>
<text text-anchor="start" x="347" y="-801" font-family="Helvetica,sans-Serif" font-size="10.00" fill="#000000">* matchSingle()</text>
<text text-anchor="start" x="347" y="-790" font-family="Helvetica,sans-Serif" font-size="10.00" fill="#000000">* matchAddressInRange()</text>
</a>
</g>
</g>
<!-- Node11&#45;&gt;Node10 -->
<g id="edge12" class="edge">
<title>Node11&#45;&gt;Node10</title>
<path fill="none" stroke="#404040" d="M403.5,-782.8173C403.5,-759.7 403.5,-736.1507 403.5,-714.5119"/>
<polygon fill="none" stroke="#404040" points="403.5001,-714.3571 399.5,-708.3572 403.5,-702.3571 407.5,-708.3571 403.5001,-714.3571"/>
<text text-anchor="middle" x="425" y="-751" font-family="Helvetica,sans-Serif" font-size="10.00" fill="#000000"> #address</text>
</g>
<!-- Node12&#45;&gt;Node9 -->
<g id="edge13" class="edge">
<title>Node12&#45;&gt;Node9</title>
<path fill="none" stroke="#191970" d="M355.7887,-182.9914C365.5276,-214.251 378.1265,-257.3675 386.5,-296 389.3179,-309.0006 391.7971,-322.9935 393.9106,-336.4462"/>
<polygon fill="none" stroke="#191970" points="359.0737,-181.7699 352.7362,-173.2795 352.3957,-183.8689 359.0737,-181.7699"/>
</g>
<!-- Node13&#45;&gt;Node9 -->
<g id="edge15" class="edge">
<title>Node13&#45;&gt;Node9</title>
<path fill="none" stroke="#404040" d="M483.3642,-277.8555C479.6523,-291.7019 475.0946,-305.3146 469.5,-318 468.3443,-320.6206 467.0898,-323.2311 465.7525,-325.8237"/>
<polygon fill="none" stroke="#404040" points="465.7098,-325.8997 466.2556,-333.0901 459.8281,-336.3594 459.2824,-329.169 465.7098,-325.8997"/>
<text text-anchor="middle" x="499.5" y="-304.5" font-family="Helvetica,sans-Serif" font-size="10.00" fill="#000000"> &#45;elements</text>
</g>
</g>
</svg>
