<?xml version="1.0" encoding="UTF-8" standalone="no"?>
<!DOCTYPE svg PUBLIC "-//W3C//DTD SVG 1.1//EN"
 "http://www.w3.org/Graphics/SVG/1.1/DTD/svg11.dtd">
<!-- Generated by graphviz version 2.43.0 (0)
 -->
<!-- Title: GenericProgramChangeSelector&lt; N, Callback &gt; Pages: 1 -->
<svg width="1150pt" height="1301pt"
 viewBox="0.00 0.00 1149.50 1301.00" xmlns="http://www.w3.org/2000/svg" xmlns:xlink="http://www.w3.org/1999/xlink">
<g id="graph0" class="graph" transform="scale(1 1) rotate(0) translate(4 1297)">
<title>GenericProgramChangeSelector&lt; N, Callback &gt;</title>
<polygon fill="white" stroke="transparent" points="-4,4 -4,-1297 1145.5,-1297 1145.5,4 -4,4"/>
<!-- Node1 -->
<g id="node1" class="node">
<title>Node1</title>
<g id="a_node1"><a xlink:title=" ">
<polygon fill="#bfbfbf" stroke="black" points="623,-0.5 623,-101.5 814,-101.5 814,-0.5 623,-0.5"/>
<text text-anchor="start" x="631" y="-89.5" font-family="Helvetica,sans-Serif" font-size="10.00">GenericProgramChangeSelector</text>
<text text-anchor="middle" x="718.5" y="-78.5" font-family="Helvetica,sans-Serif" font-size="10.00">&lt; N, Callback &gt;</text>
<polyline fill="none" stroke="black" points="623,-71.5 814,-71.5 "/>
<text text-anchor="middle" x="718.5" y="-59.5" font-family="Helvetica,sans-Serif" font-size="10.00"> </text>
<polyline fill="none" stroke="black" points="623,-52.5 814,-52.5 "/>
<text text-anchor="start" x="631" y="-40.5" font-family="Helvetica,sans-Serif" font-size="10.00">+ GenericProgramChangeSelector()</text>
<text text-anchor="start" x="631" y="-29.5" font-family="Helvetica,sans-Serif" font-size="10.00">+ begin()</text>
<text text-anchor="start" x="631" y="-18.5" font-family="Helvetica,sans-Serif" font-size="10.00">+ reset()</text>
<text text-anchor="start" x="631" y="-7.5" font-family="Helvetica,sans-Serif" font-size="10.00">+ handleUpdate()</text>
</a>
</g>
</g>
<!-- Node2 -->
<g id="node2" class="node">
<title>Node2</title>
<g id="a_node2"><a xlink:href="../../d0/d04/classGenericSelector.html" target="_top" xlink:title=" ">
<polygon fill="white" stroke="black" points="505.5,-222 505.5,-356 649.5,-356 649.5,-222 505.5,-222"/>
<text text-anchor="start" x="513.5" y="-344" font-family="Helvetica,sans-Serif" font-size="10.00">GenericSelector&lt; N,</text>
<text text-anchor="middle" x="577.5" y="-333" font-family="Helvetica,sans-Serif" font-size="10.00"> EmptySelectorCallback &gt;</text>
<polyline fill="none" stroke="black" points="505.5,-326 649.5,-326 "/>
<text text-anchor="start" x="513.5" y="-314" font-family="Helvetica,sans-Serif" font-size="10.00">&#45; selectable</text>
<polyline fill="none" stroke="black" points="505.5,-307 649.5,-307 "/>
<text text-anchor="start" x="513.5" y="-295" font-family="Helvetica,sans-Serif" font-size="10.00">+ GenericSelector()</text>
<text text-anchor="start" x="513.5" y="-284" font-family="Helvetica,sans-Serif" font-size="10.00">+ begin()</text>
<text text-anchor="start" x="513.5" y="-273" font-family="Helvetica,sans-Serif" font-size="10.00">+ update()</text>
<text text-anchor="start" x="513.5" y="-262" font-family="Helvetica,sans-Serif" font-size="10.00">+ reset()</text>
<text text-anchor="start" x="513.5" y="-251" font-family="Helvetica,sans-Serif" font-size="10.00">+ set()</text>
<text text-anchor="start" x="513.5" y="-240" font-family="Helvetica,sans-Serif" font-size="10.00">+ increment()</text>
<text text-anchor="start" x="513.5" y="-229" font-family="Helvetica,sans-Serif" font-size="10.00">+ decrement()</text>
</a>
</g>
</g>
<!-- Node2&#45;&gt;Node1 -->
<g id="edge1" class="edge">
<title>Node2&#45;&gt;Node1</title>
<path fill="none" stroke="midnightblue" d="M622.13,-213.3C643.93,-176.82 669.55,-133.92 688.9,-101.54"/>
<polygon fill="none" stroke="midnightblue" points="619.09,-211.57 616.96,-221.95 625.1,-215.16 619.09,-211.57"/>
</g>
<!-- Node3 -->
<g id="node3" class="node">
<title>Node3</title>
<g id="a_node3"><a xlink:href="../../dc/d77/classSelectorBase.html" target="_top" xlink:title="Base class for all Selectors exposing the get method, so it can be used by display elements etc,...">
<polygon fill="white" stroke="black" points="365,-541.5 365,-609.5 464,-609.5 464,-541.5 365,-541.5"/>
<text text-anchor="middle" x="414.5" y="-597.5" font-family="Helvetica,sans-Serif" font-size="10.00">SelectorBase</text>
<polyline fill="none" stroke="black" points="365,-590.5 464,-590.5 "/>
<text text-anchor="start" x="373" y="-578.5" font-family="Helvetica,sans-Serif" font-size="10.00"># setting</text>
<polyline fill="none" stroke="black" points="365,-571.5 464,-571.5 "/>
<text text-anchor="start" x="373" y="-559.5" font-family="Helvetica,sans-Serif" font-size="10.00">+ get()</text>
<text text-anchor="start" x="373" y="-548.5" font-family="Helvetica,sans-Serif" font-size="10.00"># SelectorBase()</text>
</a>
</g>
</g>
<!-- Node3&#45;&gt;Node2 -->
<g id="edge2" class="edge">
<title>Node3&#45;&gt;Node2</title>
<path fill="none" stroke="midnightblue" d="M438.61,-532.41C465.24,-485.94 508.46,-410.5 539.62,-356.11"/>
<polygon fill="none" stroke="midnightblue" points="435.45,-530.89 433.52,-541.31 441.53,-534.37 435.45,-530.89"/>
</g>
<!-- Node4 -->
<g id="node4" class="node">
<title>Node4</title>
<g id="a_node4"><a xlink:href="../../d1/d55/classAH_1_1Updatable.html" target="_top" xlink:title="A super class for object that have to be updated regularly.">
<polygon fill="white" stroke="black" points="482,-530.5 482,-620.5 577,-620.5 577,-530.5 482,-530.5"/>
<text text-anchor="middle" x="529.5" y="-608.5" font-family="Helvetica,sans-Serif" font-size="10.00">Updatable&lt; T &gt;</text>
<polyline fill="none" stroke="black" points="482,-601.5 577,-601.5 "/>
<text text-anchor="middle" x="529.5" y="-589.5" font-family="Helvetica,sans-Serif" font-size="10.00"> </text>
<polyline fill="none" stroke="black" points="482,-582.5 577,-582.5 "/>
<text text-anchor="start" x="490" y="-570.5" font-family="Helvetica,sans-Serif" font-size="10.00">* begin()</text>
<text text-anchor="start" x="490" y="-559.5" font-family="Helvetica,sans-Serif" font-size="10.00">* update()</text>
<text text-anchor="start" x="490" y="-548.5" font-family="Helvetica,sans-Serif" font-size="10.00">* beginAll()</text>
<text text-anchor="start" x="490" y="-537.5" font-family="Helvetica,sans-Serif" font-size="10.00">* updateAll()</text>
</a>
</g>
</g>
<!-- Node4&#45;&gt;Node2 -->
<g id="edge3" class="edge">
<title>Node4&#45;&gt;Node2</title>
<path fill="none" stroke="midnightblue" d="M538.62,-520.44C546.5,-473.75 557.9,-406.14 566.33,-356.22"/>
<polygon fill="none" stroke="midnightblue" points="535.16,-519.92 536.95,-530.36 542.06,-521.08 535.16,-519.92"/>
</g>
<!-- Node5 -->
<g id="node5" class="node">
<title>Node5</title>
<g id="a_node5"><a xlink:href="../../d8/d1a/classAH_1_1UpdatableCRTP.html" target="_top" xlink:title=" ">
<polygon fill="white" stroke="black" points="142,-701.5 142,-934.5 295,-934.5 295,-701.5 142,-701.5"/>
<text text-anchor="start" x="150" y="-922.5" font-family="Helvetica,sans-Serif" font-size="10.00">UpdatableCRTP&lt; Updatable</text>
<text text-anchor="middle" x="218.5" y="-911.5" font-family="Helvetica,sans-Serif" font-size="10.00">&lt; NormalUpdatable &gt; &gt;</text>
<polyline fill="none" stroke="black" points="142,-904.5 295,-904.5 "/>
<text text-anchor="middle" x="218.5" y="-892.5" font-family="Helvetica,sans-Serif" font-size="10.00"> </text>
<polyline fill="none" stroke="black" points="142,-885.5 295,-885.5 "/>
<text text-anchor="start" x="150" y="-873.5" font-family="Helvetica,sans-Serif" font-size="10.00">+ ~UpdatableCRTP()</text>
<text text-anchor="start" x="150" y="-862.5" font-family="Helvetica,sans-Serif" font-size="10.00"># UpdatableCRTP()</text>
<text text-anchor="start" x="150" y="-851.5" font-family="Helvetica,sans-Serif" font-size="10.00"># UpdatableCRTP()</text>
<text text-anchor="start" x="150" y="-840.5" font-family="Helvetica,sans-Serif" font-size="10.00"># UpdatableCRTP()</text>
<text text-anchor="start" x="150" y="-829.5" font-family="Helvetica,sans-Serif" font-size="10.00"># operator=()</text>
<text text-anchor="start" x="150" y="-818.5" font-family="Helvetica,sans-Serif" font-size="10.00"># operator=()</text>
<text text-anchor="start" x="150" y="-807.5" font-family="Helvetica,sans-Serif" font-size="10.00">* enable()</text>
<text text-anchor="start" x="150" y="-796.5" font-family="Helvetica,sans-Serif" font-size="10.00">* disable()</text>
<text text-anchor="start" x="150" y="-785.5" font-family="Helvetica,sans-Serif" font-size="10.00">* isEnabled()</text>
<text text-anchor="start" x="150" y="-774.5" font-family="Helvetica,sans-Serif" font-size="10.00">* moveDown()</text>
<text text-anchor="start" x="150" y="-763.5" font-family="Helvetica,sans-Serif" font-size="10.00">* enable()</text>
<text text-anchor="start" x="150" y="-752.5" font-family="Helvetica,sans-Serif" font-size="10.00">* enable()</text>
<text text-anchor="start" x="150" y="-741.5" font-family="Helvetica,sans-Serif" font-size="10.00">* enable()</text>
<text text-anchor="start" x="150" y="-730.5" font-family="Helvetica,sans-Serif" font-size="10.00">* disable()</text>
<text text-anchor="start" x="150" y="-719.5" font-family="Helvetica,sans-Serif" font-size="10.00">* disable()</text>
<text text-anchor="start" x="150" y="-708.5" font-family="Helvetica,sans-Serif" font-size="10.00">* disable()</text>
</a>
</g>
</g>
<!-- Node5&#45;&gt;Node4 -->
<g id="edge4" class="edge">
<title>Node5&#45;&gt;Node4</title>
<path fill="none" stroke="midnightblue" d="M303.92,-772.7C356,-743.25 422.02,-701.36 472.5,-654 482.97,-644.17 492.84,-632.2 501.33,-620.64"/>
<polygon fill="none" stroke="midnightblue" points="302.04,-769.74 295.03,-777.69 305.46,-775.85 302.04,-769.74"/>
</g>
<!-- Node7 -->
<g id="node7" class="node">
<title>Node7</title>
<g id="a_node7"><a xlink:href="../../d1/d55/classAH_1_1Updatable.html" target="_top" xlink:title=" ">
<polygon fill="white" stroke="black" points="68.5,-530.5 68.5,-620.5 244.5,-620.5 244.5,-530.5 68.5,-530.5"/>
<text text-anchor="middle" x="156.5" y="-608.5" font-family="Helvetica,sans-Serif" font-size="10.00">Updatable&lt; NormalUpdatable &gt;</text>
<polyline fill="none" stroke="black" points="68.5,-601.5 244.5,-601.5 "/>
<text text-anchor="middle" x="156.5" y="-589.5" font-family="Helvetica,sans-Serif" font-size="10.00"> </text>
<polyline fill="none" stroke="black" points="68.5,-582.5 244.5,-582.5 "/>
<text text-anchor="start" x="76.5" y="-570.5" font-family="Helvetica,sans-Serif" font-size="10.00">* begin()</text>
<text text-anchor="start" x="76.5" y="-559.5" font-family="Helvetica,sans-Serif" font-size="10.00">* update()</text>
<text text-anchor="start" x="76.5" y="-548.5" font-family="Helvetica,sans-Serif" font-size="10.00">* beginAll()</text>
<text text-anchor="start" x="76.5" y="-537.5" font-family="Helvetica,sans-Serif" font-size="10.00">* updateAll()</text>
</a>
</g>
</g>
<!-- Node5&#45;&gt;Node7 -->
<g id="edge7" class="edge">
<title>Node5&#45;&gt;Node7</title>
<path fill="none" stroke="midnightblue" d="M186.16,-691.55C179.59,-666.05 173.09,-640.87 167.87,-620.59"/>
<polygon fill="none" stroke="midnightblue" points="182.79,-692.52 188.68,-701.33 189.57,-690.77 182.79,-692.52"/>
</g>
<!-- Node6 -->
<g id="node6" class="node">
<title>Node6</title>
<g id="a_node6"><a xlink:href="../../d4/d23/classDoublyLinkable.html" target="_top" xlink:title=" ">
<polygon fill="white" stroke="black" points="0,-227.5 0,-350.5 153,-350.5 153,-227.5 0,-227.5"/>
<text text-anchor="start" x="8" y="-338.5" font-family="Helvetica,sans-Serif" font-size="10.00">DoublyLinkable&lt; Updatable</text>
<text text-anchor="middle" x="76.5" y="-327.5" font-family="Helvetica,sans-Serif" font-size="10.00">&lt; NormalUpdatable &gt; &gt;</text>
<polyline fill="none" stroke="black" points="0,-320.5 153,-320.5 "/>
<text text-anchor="middle" x="76.5" y="-308.5" font-family="Helvetica,sans-Serif" font-size="10.00"> </text>
<polyline fill="none" stroke="black" points="0,-301.5 153,-301.5 "/>
<text text-anchor="start" x="8" y="-289.5" font-family="Helvetica,sans-Serif" font-size="10.00"># ~DoublyLinkable()</text>
<text text-anchor="start" x="8" y="-278.5" font-family="Helvetica,sans-Serif" font-size="10.00"># DoublyLinkable()</text>
<text text-anchor="start" x="8" y="-267.5" font-family="Helvetica,sans-Serif" font-size="10.00"># DoublyLinkable()</text>
<text text-anchor="start" x="8" y="-256.5" font-family="Helvetica,sans-Serif" font-size="10.00"># DoublyLinkable()</text>
<text text-anchor="start" x="8" y="-245.5" font-family="Helvetica,sans-Serif" font-size="10.00"># operator=()</text>
<text text-anchor="start" x="8" y="-234.5" font-family="Helvetica,sans-Serif" font-size="10.00"># operator=()</text>
</a>
</g>
</g>
<!-- Node6&#45;&gt;Node5 -->
<g id="edge5" class="edge">
<title>Node6&#45;&gt;Node5</title>
<path fill="none" stroke="midnightblue" d="M56.22,-360.49C38.29,-436.06 20.47,-558.1 59.5,-654 76.49,-695.74 109.88,-732.63 141.69,-760.71"/>
<polygon fill="none" stroke="midnightblue" points="59.67,-361.14 58.64,-350.6 52.87,-359.49 59.67,-361.14"/>
</g>
<!-- Node7&#45;&gt;Node6 -->
<g id="edge6" class="edge">
<title>Node7&#45;&gt;Node6</title>
<path fill="none" stroke="#404040" d="M125.48,-530.17C116.01,-514.63 106.51,-496.65 100.5,-479 87.86,-441.89 81.78,-398.63 78.89,-362.87"/>
<polygon fill="none" stroke="#404040" points="78.87,-362.52 74.44,-356.83 78,-350.55 82.42,-356.25 78.87,-362.52"/>
<text text-anchor="middle" x="126" y="-471" font-family="Helvetica,sans-Serif" font-size="10.00"> #next</text>
<text text-anchor="middle" x="126" y="-460" font-family="Helvetica,sans-Serif" font-size="10.00">#previous</text>
</g>
<!-- Node8 -->
<g id="node8" class="node">
<title>Node8</title>
<g id="a_node8"><a xlink:href="../../dd/d16/classDoublyLinkedList.html" target="_top" xlink:title=" ">
<polygon fill="white" stroke="black" points="189,-139.5 189,-438.5 350,-438.5 350,-139.5 189,-139.5"/>
<text text-anchor="start" x="197" y="-426.5" font-family="Helvetica,sans-Serif" font-size="10.00">DoublyLinkedList&lt; Updatable</text>
<text text-anchor="middle" x="269.5" y="-415.5" font-family="Helvetica,sans-Serif" font-size="10.00">&lt; NormalUpdatable &gt; &gt;</text>
<polyline fill="none" stroke="black" points="189,-408.5 350,-408.5 "/>
<text text-anchor="middle" x="269.5" y="-396.5" font-family="Helvetica,sans-Serif" font-size="10.00"> </text>
<polyline fill="none" stroke="black" points="189,-389.5 350,-389.5 "/>
<text text-anchor="start" x="197" y="-377.5" font-family="Helvetica,sans-Serif" font-size="10.00">+ append()</text>
<text text-anchor="start" x="197" y="-366.5" font-family="Helvetica,sans-Serif" font-size="10.00">+ append()</text>
<text text-anchor="start" x="197" y="-355.5" font-family="Helvetica,sans-Serif" font-size="10.00">+ insertBefore()</text>
<text text-anchor="start" x="197" y="-344.5" font-family="Helvetica,sans-Serif" font-size="10.00">+ insertBefore()</text>
<text text-anchor="start" x="197" y="-333.5" font-family="Helvetica,sans-Serif" font-size="10.00">+ insertSorted()</text>
<text text-anchor="start" x="197" y="-322.5" font-family="Helvetica,sans-Serif" font-size="10.00">+ insertSorted()</text>
<text text-anchor="start" x="197" y="-311.5" font-family="Helvetica,sans-Serif" font-size="10.00">+ remove()</text>
<text text-anchor="start" x="197" y="-300.5" font-family="Helvetica,sans-Serif" font-size="10.00">+ remove()</text>
<text text-anchor="start" x="197" y="-289.5" font-family="Helvetica,sans-Serif" font-size="10.00">+ moveDown()</text>
<text text-anchor="start" x="197" y="-278.5" font-family="Helvetica,sans-Serif" font-size="10.00">+ moveDown()</text>
<text text-anchor="start" x="197" y="-267.5" font-family="Helvetica,sans-Serif" font-size="10.00">+ couldContain()</text>
<text text-anchor="start" x="197" y="-256.5" font-family="Helvetica,sans-Serif" font-size="10.00">+ couldContain()</text>
<text text-anchor="start" x="197" y="-245.5" font-family="Helvetica,sans-Serif" font-size="10.00">+ begin()</text>
<text text-anchor="start" x="197" y="-234.5" font-family="Helvetica,sans-Serif" font-size="10.00">+ begin()</text>
<text text-anchor="start" x="197" y="-223.5" font-family="Helvetica,sans-Serif" font-size="10.00">+ end()</text>
<text text-anchor="start" x="197" y="-212.5" font-family="Helvetica,sans-Serif" font-size="10.00">+ end()</text>
<text text-anchor="start" x="197" y="-201.5" font-family="Helvetica,sans-Serif" font-size="10.00">+ rbegin()</text>
<text text-anchor="start" x="197" y="-190.5" font-family="Helvetica,sans-Serif" font-size="10.00">+ rbegin()</text>
<text text-anchor="start" x="197" y="-179.5" font-family="Helvetica,sans-Serif" font-size="10.00">+ rend()</text>
<text text-anchor="start" x="197" y="-168.5" font-family="Helvetica,sans-Serif" font-size="10.00">+ rend()</text>
<text text-anchor="start" x="197" y="-157.5" font-family="Helvetica,sans-Serif" font-size="10.00">+ getFirst()</text>
<text text-anchor="start" x="197" y="-146.5" font-family="Helvetica,sans-Serif" font-size="10.00">+ getLast()</text>
</a>
</g>
</g>
<!-- Node7&#45;&gt;Node8 -->
<g id="edge9" class="edge">
<title>Node7&#45;&gt;Node8</title>
<path fill="none" stroke="#404040" d="M174.03,-530.36C182.88,-508.08 194.22,-479.53 205.97,-449.95"/>
<polygon fill="none" stroke="#404040" points="206.06,-449.73 204.55,-442.68 210.49,-438.58 211.99,-445.63 206.06,-449.73"/>
<text text-anchor="middle" x="216.5" y="-471" font-family="Helvetica,sans-Serif" font-size="10.00"> &#45;first</text>
<text text-anchor="middle" x="216.5" y="-460" font-family="Helvetica,sans-Serif" font-size="10.00">&#45;last</text>
</g>
<!-- Node8&#45;&gt;Node5 -->
<g id="edge8" class="edge">
<title>Node8&#45;&gt;Node5</title>
<path fill="none" stroke="#404040" d="M268.59,-438.8C266.73,-504.93 262.54,-583.57 253.5,-654 252.02,-665.52 250.15,-677.43 248.03,-689.33"/>
<polygon fill="none" stroke="#404040" points="248.02,-689.41 250.87,-696.03 245.85,-701.21 243,-694.59 248.02,-689.41"/>
<text text-anchor="middle" x="299.5" y="-573" font-family="Helvetica,sans-Serif" font-size="10.00"> #updatables</text>
</g>
<!-- Node9 -->
<g id="node9" class="node">
<title>Node9</title>
<g id="a_node9"><a xlink:href="../../d3/d8b/structEmptySelectorCallback.html" target="_top" xlink:title="A callback for the GenericSelector class that does nothing.">
<polygon fill="white" stroke="black" points="595.5,-536 595.5,-615 725.5,-615 725.5,-536 595.5,-536"/>
<text text-anchor="middle" x="660.5" y="-603" font-family="Helvetica,sans-Serif" font-size="10.00">EmptySelectorCallback</text>
<polyline fill="none" stroke="black" points="595.5,-596 725.5,-596 "/>
<text text-anchor="middle" x="660.5" y="-584" font-family="Helvetica,sans-Serif" font-size="10.00"> </text>
<polyline fill="none" stroke="black" points="595.5,-577 725.5,-577 "/>
<text text-anchor="start" x="603.5" y="-565" font-family="Helvetica,sans-Serif" font-size="10.00">+ begin()</text>
<text text-anchor="start" x="603.5" y="-554" font-family="Helvetica,sans-Serif" font-size="10.00">+ update()</text>
<text text-anchor="start" x="603.5" y="-543" font-family="Helvetica,sans-Serif" font-size="10.00">+ update()</text>
</a>
</g>
</g>
<!-- Node9&#45;&gt;Node2 -->
<g id="edge10" class="edge">
<title>Node9&#45;&gt;Node2</title>
<path fill="none" stroke="#404040" d="M649.22,-535.83C636.69,-492.88 616.12,-422.39 600.22,-367.88"/>
<polygon fill="none" stroke="#404040" points="600.16,-367.68 594.64,-363.04 596.8,-356.16 602.32,-360.8 600.16,-367.68"/>
<text text-anchor="middle" x="657.5" y="-465.5" font-family="Helvetica,sans-Serif" font-size="10.00"> +callback</text>
</g>
<!-- Node10 -->
<g id="node10" class="node">
<title>Node10</title>
<g id="a_node10"><a xlink:href="../../d5/dae/classMatchingMIDIInputElement.html" target="_top" xlink:title=" ">
<polygon fill="white" stroke="black" points="712,-238.5 712,-339.5 915,-339.5 915,-238.5 712,-238.5"/>
<text text-anchor="start" x="720" y="-327.5" font-family="Helvetica,sans-Serif" font-size="10.00">MatchingMIDIInputElement</text>
<text text-anchor="start" x="720" y="-316.5" font-family="Helvetica,sans-Serif" font-size="10.00">&lt; MIDIMessageType::ProgramChange,</text>
<text text-anchor="middle" x="813.5" y="-305.5" font-family="Helvetica,sans-Serif" font-size="10.00"> OneByteMIDIMatcher &gt;</text>
<polyline fill="none" stroke="black" points="712,-298.5 915,-298.5 "/>
<text text-anchor="middle" x="813.5" y="-286.5" font-family="Helvetica,sans-Serif" font-size="10.00"> </text>
<polyline fill="none" stroke="black" points="712,-279.5 915,-279.5 "/>
<text text-anchor="start" x="720" y="-267.5" font-family="Helvetica,sans-Serif" font-size="10.00">+ updateWith()</text>
<text text-anchor="start" x="720" y="-256.5" font-family="Helvetica,sans-Serif" font-size="10.00">+ handleUpdate()</text>
<text text-anchor="start" x="720" y="-245.5" font-family="Helvetica,sans-Serif" font-size="10.00"># MatchingMIDIInputElement()</text>
</a>
</g>
</g>
<!-- Node10&#45;&gt;Node1 -->
<g id="edge11" class="edge">
<title>Node10&#45;&gt;Node1</title>
<path fill="none" stroke="midnightblue" d="M789.57,-228.55C773.8,-189.39 753.4,-138.7 738.5,-101.69"/>
<polygon fill="none" stroke="midnightblue" points="786.49,-230.27 793.47,-238.24 792.98,-227.66 786.49,-230.27"/>
</g>
<!-- Node11 -->
<g id="node11" class="node">
<title>Node11</title>
<g id="a_node11"><a xlink:href="../../d9/db1/classMIDIInputElement.html" target="_top" xlink:title="A class for objects that listen for incoming MIDI events.">
<polygon fill="white" stroke="black" points="902,-497.5 902,-653.5 1051,-653.5 1051,-497.5 902,-497.5"/>
<text text-anchor="middle" x="976.5" y="-641.5" font-family="Helvetica,sans-Serif" font-size="10.00">MIDIInputElement&lt; Type &gt;</text>
<polyline fill="none" stroke="black" points="902,-634.5 1051,-634.5 "/>
<text text-anchor="middle" x="976.5" y="-622.5" font-family="Helvetica,sans-Serif" font-size="10.00"> </text>
<polyline fill="none" stroke="black" points="902,-615.5 1051,-615.5 "/>
<text text-anchor="start" x="910" y="-603.5" font-family="Helvetica,sans-Serif" font-size="10.00">+ ~MIDIInputElement()</text>
<text text-anchor="start" x="910" y="-592.5" font-family="Helvetica,sans-Serif" font-size="10.00">+ begin()</text>
<text text-anchor="start" x="910" y="-581.5" font-family="Helvetica,sans-Serif" font-size="10.00">+ reset()</text>
<text text-anchor="start" x="910" y="-570.5" font-family="Helvetica,sans-Serif" font-size="10.00">+ update()</text>
<text text-anchor="start" x="910" y="-559.5" font-family="Helvetica,sans-Serif" font-size="10.00">+ updateWith()</text>
<text text-anchor="start" x="910" y="-548.5" font-family="Helvetica,sans-Serif" font-size="10.00">+ updateAllWith()</text>
<text text-anchor="start" x="910" y="-537.5" font-family="Helvetica,sans-Serif" font-size="10.00">+ updateAll()</text>
<text text-anchor="start" x="910" y="-526.5" font-family="Helvetica,sans-Serif" font-size="10.00">+ beginAll()</text>
<text text-anchor="start" x="910" y="-515.5" font-family="Helvetica,sans-Serif" font-size="10.00">+ resetAll()</text>
<text text-anchor="start" x="910" y="-504.5" font-family="Helvetica,sans-Serif" font-size="10.00"># MIDIInputElement()</text>
</a>
</g>
</g>
<!-- Node11&#45;&gt;Node10 -->
<g id="edge12" class="edge">
<title>Node11&#45;&gt;Node10</title>
<path fill="none" stroke="midnightblue" d="M927.04,-488.18C899.17,-439.53 865.35,-380.5 841.91,-339.59"/>
<polygon fill="none" stroke="midnightblue" points="924.17,-490.2 932.17,-497.13 930.24,-486.72 924.17,-490.2"/>
</g>
<!-- Node12 -->
<g id="node12" class="node">
<title>Node12</title>
<g id="a_node12"><a xlink:href="../../d8/d1a/classAH_1_1UpdatableCRTP.html" target="_top" xlink:title=" ">
<polygon fill="white" stroke="black" points="901.5,-701.5 901.5,-934.5 1051.5,-934.5 1051.5,-701.5 901.5,-701.5"/>
<text text-anchor="start" x="909.5" y="-922.5" font-family="Helvetica,sans-Serif" font-size="10.00">UpdatableCRTP&lt; MIDIInput</text>
<text text-anchor="middle" x="976.5" y="-911.5" font-family="Helvetica,sans-Serif" font-size="10.00">Element&lt; Type &gt; &gt;</text>
<polyline fill="none" stroke="black" points="901.5,-904.5 1051.5,-904.5 "/>
<text text-anchor="middle" x="976.5" y="-892.5" font-family="Helvetica,sans-Serif" font-size="10.00"> </text>
<polyline fill="none" stroke="black" points="901.5,-885.5 1051.5,-885.5 "/>
<text text-anchor="start" x="909.5" y="-873.5" font-family="Helvetica,sans-Serif" font-size="10.00">+ ~UpdatableCRTP()</text>
<text text-anchor="start" x="909.5" y="-862.5" font-family="Helvetica,sans-Serif" font-size="10.00"># UpdatableCRTP()</text>
<text text-anchor="start" x="909.5" y="-851.5" font-family="Helvetica,sans-Serif" font-size="10.00"># UpdatableCRTP()</text>
<text text-anchor="start" x="909.5" y="-840.5" font-family="Helvetica,sans-Serif" font-size="10.00"># UpdatableCRTP()</text>
<text text-anchor="start" x="909.5" y="-829.5" font-family="Helvetica,sans-Serif" font-size="10.00"># operator=()</text>
<text text-anchor="start" x="909.5" y="-818.5" font-family="Helvetica,sans-Serif" font-size="10.00"># operator=()</text>
<text text-anchor="start" x="909.5" y="-807.5" font-family="Helvetica,sans-Serif" font-size="10.00">* enable()</text>
<text text-anchor="start" x="909.5" y="-796.5" font-family="Helvetica,sans-Serif" font-size="10.00">* disable()</text>
<text text-anchor="start" x="909.5" y="-785.5" font-family="Helvetica,sans-Serif" font-size="10.00">* isEnabled()</text>
<text text-anchor="start" x="909.5" y="-774.5" font-family="Helvetica,sans-Serif" font-size="10.00">* moveDown()</text>
<text text-anchor="start" x="909.5" y="-763.5" font-family="Helvetica,sans-Serif" font-size="10.00">* enable()</text>
<text text-anchor="start" x="909.5" y="-752.5" font-family="Helvetica,sans-Serif" font-size="10.00">* enable()</text>
<text text-anchor="start" x="909.5" y="-741.5" font-family="Helvetica,sans-Serif" font-size="10.00">* enable()</text>
<text text-anchor="start" x="909.5" y="-730.5" font-family="Helvetica,sans-Serif" font-size="10.00">* disable()</text>
<text text-anchor="start" x="909.5" y="-719.5" font-family="Helvetica,sans-Serif" font-size="10.00">* disable()</text>
<text text-anchor="start" x="909.5" y="-708.5" font-family="Helvetica,sans-Serif" font-size="10.00">* disable()</text>
</a>
</g>
</g>
<!-- Node12&#45;&gt;Node11 -->
<g id="edge13" class="edge">
<title>Node12&#45;&gt;Node11</title>
<path fill="none" stroke="midnightblue" d="M976.5,-691.12C976.5,-678.4 976.5,-665.77 976.5,-653.79"/>
<polygon fill="none" stroke="midnightblue" points="973,-691.33 976.5,-701.33 980,-691.33 973,-691.33"/>
</g>
<!-- Node13 -->
<g id="node13" class="node">
<title>Node13</title>
<g id="a_node13"><a xlink:href="../../d4/d23/classDoublyLinkable.html" target="_top" xlink:title=" ">
<polygon fill="white" stroke="black" points="815.5,-1070.5 815.5,-1204.5 965.5,-1204.5 965.5,-1070.5 815.5,-1070.5"/>
<text text-anchor="start" x="823.5" y="-1192.5" font-family="Helvetica,sans-Serif" font-size="10.00">DoublyLinkable&lt; MIDIInput</text>
<text text-anchor="middle" x="890.5" y="-1181.5" font-family="Helvetica,sans-Serif" font-size="10.00">Element&lt; Type &gt; &gt;</text>
<polyline fill="none" stroke="black" points="815.5,-1174.5 965.5,-1174.5 "/>
<text text-anchor="start" x="823.5" y="-1162.5" font-family="Helvetica,sans-Serif" font-size="10.00"># next</text>
<text text-anchor="start" x="823.5" y="-1151.5" font-family="Helvetica,sans-Serif" font-size="10.00"># previous</text>
<polyline fill="none" stroke="black" points="815.5,-1144.5 965.5,-1144.5 "/>
<text text-anchor="start" x="823.5" y="-1132.5" font-family="Helvetica,sans-Serif" font-size="10.00"># ~DoublyLinkable()</text>
<text text-anchor="start" x="823.5" y="-1121.5" font-family="Helvetica,sans-Serif" font-size="10.00"># DoublyLinkable()</text>
<text text-anchor="start" x="823.5" y="-1110.5" font-family="Helvetica,sans-Serif" font-size="10.00"># DoublyLinkable()</text>
<text text-anchor="start" x="823.5" y="-1099.5" font-family="Helvetica,sans-Serif" font-size="10.00"># DoublyLinkable()</text>
<text text-anchor="start" x="823.5" y="-1088.5" font-family="Helvetica,sans-Serif" font-size="10.00"># operator=()</text>
<text text-anchor="start" x="823.5" y="-1077.5" font-family="Helvetica,sans-Serif" font-size="10.00"># operator=()</text>
</a>
</g>
</g>
<!-- Node13&#45;&gt;Node12 -->
<g id="edge14" class="edge">
<title>Node13&#45;&gt;Node12</title>
<path fill="none" stroke="midnightblue" d="M911.1,-1060.44C921.31,-1022.76 933.85,-976.46 945.21,-934.52"/>
<polygon fill="none" stroke="midnightblue" points="907.66,-1059.76 908.42,-1070.33 914.42,-1061.59 907.66,-1059.76"/>
</g>
<!-- Node14 -->
<g id="node14" class="node">
<title>Node14</title>
<g id="a_node14"><a xlink:href="../../dd/d16/classDoublyLinkedList.html" target="_top" xlink:title=" ">
<polygon fill="white" stroke="black" points="983.5,-982.5 983.5,-1292.5 1141.5,-1292.5 1141.5,-982.5 983.5,-982.5"/>
<text text-anchor="start" x="991.5" y="-1280.5" font-family="Helvetica,sans-Serif" font-size="10.00">DoublyLinkedList&lt; MIDIInput</text>
<text text-anchor="middle" x="1062.5" y="-1269.5" font-family="Helvetica,sans-Serif" font-size="10.00">Element&lt; Type &gt; &gt;</text>
<polyline fill="none" stroke="black" points="983.5,-1262.5 1141.5,-1262.5 "/>
<text text-anchor="start" x="991.5" y="-1250.5" font-family="Helvetica,sans-Serif" font-size="10.00">&#45; first</text>
<text text-anchor="start" x="991.5" y="-1239.5" font-family="Helvetica,sans-Serif" font-size="10.00">&#45; last</text>
<polyline fill="none" stroke="black" points="983.5,-1232.5 1141.5,-1232.5 "/>
<text text-anchor="start" x="991.5" y="-1220.5" font-family="Helvetica,sans-Serif" font-size="10.00">+ append()</text>
<text text-anchor="start" x="991.5" y="-1209.5" font-family="Helvetica,sans-Serif" font-size="10.00">+ append()</text>
<text text-anchor="start" x="991.5" y="-1198.5" font-family="Helvetica,sans-Serif" font-size="10.00">+ insertBefore()</text>
<text text-anchor="start" x="991.5" y="-1187.5" font-family="Helvetica,sans-Serif" font-size="10.00">+ insertBefore()</text>
<text text-anchor="start" x="991.5" y="-1176.5" font-family="Helvetica,sans-Serif" font-size="10.00">+ insertSorted()</text>
<text text-anchor="start" x="991.5" y="-1165.5" font-family="Helvetica,sans-Serif" font-size="10.00">+ insertSorted()</text>
<text text-anchor="start" x="991.5" y="-1154.5" font-family="Helvetica,sans-Serif" font-size="10.00">+ remove()</text>
<text text-anchor="start" x="991.5" y="-1143.5" font-family="Helvetica,sans-Serif" font-size="10.00">+ remove()</text>
<text text-anchor="start" x="991.5" y="-1132.5" font-family="Helvetica,sans-Serif" font-size="10.00">+ moveDown()</text>
<text text-anchor="start" x="991.5" y="-1121.5" font-family="Helvetica,sans-Serif" font-size="10.00">+ moveDown()</text>
<text text-anchor="start" x="991.5" y="-1110.5" font-family="Helvetica,sans-Serif" font-size="10.00">+ couldContain()</text>
<text text-anchor="start" x="991.5" y="-1099.5" font-family="Helvetica,sans-Serif" font-size="10.00">+ couldContain()</text>
<text text-anchor="start" x="991.5" y="-1088.5" font-family="Helvetica,sans-Serif" font-size="10.00">+ begin()</text>
<text text-anchor="start" x="991.5" y="-1077.5" font-family="Helvetica,sans-Serif" font-size="10.00">+ begin()</text>
<text text-anchor="start" x="991.5" y="-1066.5" font-family="Helvetica,sans-Serif" font-size="10.00">+ end()</text>
<text text-anchor="start" x="991.5" y="-1055.5" font-family="Helvetica,sans-Serif" font-size="10.00">+ end()</text>
<text text-anchor="start" x="991.5" y="-1044.5" font-family="Helvetica,sans-Serif" font-size="10.00">+ rbegin()</text>
<text text-anchor="start" x="991.5" y="-1033.5" font-family="Helvetica,sans-Serif" font-size="10.00">+ rbegin()</text>
<text text-anchor="start" x="991.5" y="-1022.5" font-family="Helvetica,sans-Serif" font-size="10.00">+ rend()</text>
<text text-anchor="start" x="991.5" y="-1011.5" font-family="Helvetica,sans-Serif" font-size="10.00">+ rend()</text>
<text text-anchor="start" x="991.5" y="-1000.5" font-family="Helvetica,sans-Serif" font-size="10.00">+ getFirst()</text>
<text text-anchor="start" x="991.5" y="-989.5" font-family="Helvetica,sans-Serif" font-size="10.00">+ getLast()</text>
</a>
</g>
</g>
<!-- Node14&#45;&gt;Node12 -->
<g id="edge15" class="edge">
<title>Node14&#45;&gt;Node12</title>
<path fill="none" stroke="#404040" d="M1020.76,-982.4C1017.49,-970.31 1014.2,-958.19 1010.98,-946.31"/>
<polygon fill="none" stroke="#404040" points="1010.93,-946.11 1005.5,-941.36 1007.79,-934.53 1013.22,-939.27 1010.93,-946.11"/>
<text text-anchor="middle" x="1046.5" y="-956" font-family="Helvetica,sans-Serif" font-size="10.00"> #updatables</text>
</g>
<!-- Node15 -->
<g id="node15" class="node">
<title>Node15</title>
<g id="a_node15"><a xlink:href="../../dc/dd7/structOneByteMIDIMatcher.html" target="_top" xlink:title="Matcher for MIDI messages with 1 data byte, such as Channel Pressure and Program Change.">
<polygon fill="white" stroke="black" points="743.5,-541.5 743.5,-609.5 883.5,-609.5 883.5,-541.5 743.5,-541.5"/>
<text text-anchor="middle" x="813.5" y="-597.5" font-family="Helvetica,sans-Serif" font-size="10.00">OneByteMIDIMatcher</text>
<polyline fill="none" stroke="black" points="743.5,-590.5 883.5,-590.5 "/>
<text text-anchor="middle" x="813.5" y="-578.5" font-family="Helvetica,sans-Serif" font-size="10.00"> </text>
<polyline fill="none" stroke="black" points="743.5,-571.5 883.5,-571.5 "/>
<text text-anchor="start" x="751.5" y="-559.5" font-family="Helvetica,sans-Serif" font-size="10.00">+ OneByteMIDIMatcher()</text>
<text text-anchor="start" x="751.5" y="-548.5" font-family="Helvetica,sans-Serif" font-size="10.00">+ operator()()</text>
</a>
</g>
</g>
<!-- Node15&#45;&gt;Node10 -->
<g id="edge16" class="edge">
<title>Node15&#45;&gt;Node10</title>
<path fill="none" stroke="#404040" d="M813.5,-541.31C813.5,-495.01 813.5,-410.21 813.5,-352.02"/>
<polygon fill="none" stroke="#404040" points="813.5,-351.67 809.5,-345.67 813.5,-339.67 817.5,-345.67 813.5,-351.67"/>
<text text-anchor="middle" x="839.5" y="-465.5" font-family="Helvetica,sans-Serif" font-size="10.00"> #matcher</text>
</g>
<!-- Node16 -->
<g id="node16" class="node">
<title>Node16</title>
<g id="a_node16"><a xlink:href="../../d7/d46/classMIDIChannelCable.html" target="_top" xlink:title="A class for saving a MIDI channel and cable number.">
<polygon fill="white" stroke="black" points="745.5,-723.5 745.5,-912.5 881.5,-912.5 881.5,-723.5 745.5,-723.5"/>
<text text-anchor="middle" x="813.5" y="-900.5" font-family="Helvetica,sans-Serif" font-size="10.00">MIDIChannelCable</text>
<polyline fill="none" stroke="black" points="745.5,-893.5 881.5,-893.5 "/>
<text text-anchor="start" x="753.5" y="-881.5" font-family="Helvetica,sans-Serif" font-size="10.00">&#45; addresses</text>
<polyline fill="none" stroke="black" points="745.5,-874.5 881.5,-874.5 "/>
<text text-anchor="start" x="753.5" y="-862.5" font-family="Helvetica,sans-Serif" font-size="10.00"># MIDIChannelCable()</text>
<text text-anchor="start" x="753.5" y="-851.5" font-family="Helvetica,sans-Serif" font-size="10.00">* MIDIChannelCable()</text>
<text text-anchor="start" x="753.5" y="-840.5" font-family="Helvetica,sans-Serif" font-size="10.00">* MIDIChannelCable()</text>
<text text-anchor="start" x="753.5" y="-829.5" font-family="Helvetica,sans-Serif" font-size="10.00">* invalid()</text>
<text text-anchor="start" x="753.5" y="-818.5" font-family="Helvetica,sans-Serif" font-size="10.00">* getChannel()</text>
<text text-anchor="start" x="753.5" y="-807.5" font-family="Helvetica,sans-Serif" font-size="10.00">* getRawChannel()</text>
<text text-anchor="start" x="753.5" y="-796.5" font-family="Helvetica,sans-Serif" font-size="10.00">* getCableNumber()</text>
<text text-anchor="start" x="753.5" y="-785.5" font-family="Helvetica,sans-Serif" font-size="10.00">* getRawCableNumber()</text>
<text text-anchor="start" x="753.5" y="-774.5" font-family="Helvetica,sans-Serif" font-size="10.00">* operator==()</text>
<text text-anchor="start" x="753.5" y="-763.5" font-family="Helvetica,sans-Serif" font-size="10.00">* operator!=()</text>
<text text-anchor="start" x="753.5" y="-752.5" font-family="Helvetica,sans-Serif" font-size="10.00">* isValid()</text>
<text text-anchor="start" x="753.5" y="-741.5" font-family="Helvetica,sans-Serif" font-size="10.00">* operator bool()</text>
<text text-anchor="start" x="753.5" y="-730.5" font-family="Helvetica,sans-Serif" font-size="10.00">* matchSingle()</text>
</a>
</g>
</g>
<!-- Node16&#45;&gt;Node15 -->
<g id="edge17" class="edge">
<title>Node16&#45;&gt;Node15</title>
<path fill="none" stroke="#404040" d="M813.5,-723.33C813.5,-688.4 813.5,-650.33 813.5,-621.7"/>
<polygon fill="none" stroke="#404040" points="813.5,-621.66 809.5,-615.66 813.5,-609.66 817.5,-615.66 813.5,-621.66"/>
<text text-anchor="middle" x="838.5" y="-675" font-family="Helvetica,sans-Serif" font-size="10.00"> +address</text>
</g>
</g>
</svg>
