<?xml version="1.0" encoding="UTF-8" standalone="no"?>
<!DOCTYPE svg PUBLIC "-//W3C//DTD SVG 1.1//EN"
 "http://www.w3.org/Graphics/SVG/1.1/DTD/svg11.dtd">
<!-- Generated by graphviz version 2.43.0 (0)
 -->
<!-- Title: CCButtonMatrix&lt; NumRows, NumCols &gt; Pages: 1 -->
<svg width="423pt" height="918pt"
 viewBox="0.00 0.00 423.00 918.00" xmlns="http://www.w3.org/2000/svg" xmlns:xlink="http://www.w3.org/1999/xlink">
<g id="graph0" class="graph" transform="scale(1 1) rotate(0) translate(4 914)">
<title>CCButtonMatrix&lt; NumRows, NumCols &gt;</title>
<polygon fill="white" stroke="transparent" points="-4,4 -4,-914 419,-914 419,4 -4,4"/>
<!-- Node1 -->
<g id="node1" class="node">
<title>Node1</title>
<g id="a_node1"><a xlink:title="A class of MIDIOutputElements that read the input from a matrix of momentary push buttons or switches...">
<polygon fill="#bfbfbf" stroke="black" points="74.5,-0.5 74.5,-68.5 232.5,-68.5 232.5,-0.5 74.5,-0.5"/>
<text text-anchor="start" x="82.5" y="-56.5" font-family="Helvetica,sans-Serif" font-size="10.00">CCButtonMatrix&lt; NumRows,</text>
<text text-anchor="middle" x="153.5" y="-45.5" font-family="Helvetica,sans-Serif" font-size="10.00"> NumCols &gt;</text>
<polyline fill="none" stroke="black" points="74.5,-38.5 232.5,-38.5 "/>
<text text-anchor="middle" x="153.5" y="-26.5" font-family="Helvetica,sans-Serif" font-size="10.00"> </text>
<polyline fill="none" stroke="black" points="74.5,-19.5 232.5,-19.5 "/>
<text text-anchor="start" x="82.5" y="-7.5" font-family="Helvetica,sans-Serif" font-size="10.00">+ CCButtonMatrix()</text>
</a>
</g>
</g>
<!-- Node2 -->
<g id="node2" class="node">
<title>Node2</title>
<g id="a_node2"><a xlink:href="../../d0/d54/classMIDIButtonMatrix.html" target="_top" xlink:title=" ">
<polygon fill="white" stroke="black" points="63,-106.5 63,-229.5 244,-229.5 244,-106.5 63,-106.5"/>
<text text-anchor="start" x="71" y="-217.5" font-family="Helvetica,sans-Serif" font-size="10.00">MIDIButtonMatrix&lt; Digital</text>
<text text-anchor="middle" x="153.5" y="-206.5" font-family="Helvetica,sans-Serif" font-size="10.00">CCSender, NumRows, NumCols &gt;</text>
<polyline fill="none" stroke="black" points="63,-199.5 244,-199.5 "/>
<text text-anchor="start" x="71" y="-187.5" font-family="Helvetica,sans-Serif" font-size="10.00">+ sender</text>
<text text-anchor="start" x="71" y="-176.5" font-family="Helvetica,sans-Serif" font-size="10.00">&#45; addresses</text>
<text text-anchor="start" x="71" y="-165.5" font-family="Helvetica,sans-Serif" font-size="10.00">&#45; baseChannelCN</text>
<polyline fill="none" stroke="black" points="63,-158.5 244,-158.5 "/>
<text text-anchor="start" x="71" y="-146.5" font-family="Helvetica,sans-Serif" font-size="10.00">+ begin()</text>
<text text-anchor="start" x="71" y="-135.5" font-family="Helvetica,sans-Serif" font-size="10.00">+ update()</text>
<text text-anchor="start" x="71" y="-124.5" font-family="Helvetica,sans-Serif" font-size="10.00"># MIDIButtonMatrix()</text>
<text text-anchor="start" x="71" y="-113.5" font-family="Helvetica,sans-Serif" font-size="10.00">&#45; onButtonChanged()</text>
</a>
</g>
</g>
<!-- Node2&#45;&gt;Node1 -->
<g id="edge1" class="edge">
<title>Node2&#45;&gt;Node1</title>
<path fill="none" stroke="midnightblue" d="M153.5,-96.24C153.5,-86.65 153.5,-77.21 153.5,-68.73"/>
<polygon fill="none" stroke="midnightblue" points="150,-96.25 153.5,-106.25 157,-96.25 150,-96.25"/>
</g>
<!-- Node3 -->
<g id="node3" class="node">
<title>Node3</title>
<g id="a_node3"><a xlink:href="../../d1/d55/classAH_1_1Updatable.html" target="_top" xlink:title="A super class for object that have to be updated regularly.">
<polygon fill="white" stroke="black" points="27,-322.5 27,-412.5 140,-412.5 140,-322.5 27,-322.5"/>
<text text-anchor="middle" x="83.5" y="-400.5" font-family="Helvetica,sans-Serif" font-size="10.00">MIDIOutputElement</text>
<polyline fill="none" stroke="black" points="27,-393.5 140,-393.5 "/>
<text text-anchor="middle" x="83.5" y="-381.5" font-family="Helvetica,sans-Serif" font-size="10.00"> </text>
<polyline fill="none" stroke="black" points="27,-374.5 140,-374.5 "/>
<text text-anchor="start" x="35" y="-362.5" font-family="Helvetica,sans-Serif" font-size="10.00">* begin()</text>
<text text-anchor="start" x="35" y="-351.5" font-family="Helvetica,sans-Serif" font-size="10.00">* update()</text>
<text text-anchor="start" x="35" y="-340.5" font-family="Helvetica,sans-Serif" font-size="10.00">* beginAll()</text>
<text text-anchor="start" x="35" y="-329.5" font-family="Helvetica,sans-Serif" font-size="10.00">* updateAll()</text>
</a>
</g>
</g>
<!-- Node3&#45;&gt;Node2 -->
<g id="edge2" class="edge">
<title>Node3&#45;&gt;Node2</title>
<path fill="none" stroke="midnightblue" d="M102.6,-312.61C111.7,-286.94 122.62,-256.14 132,-229.65"/>
<polygon fill="none" stroke="midnightblue" points="99.25,-311.58 99.21,-322.18 105.85,-313.92 99.25,-311.58"/>
</g>
<!-- Node4 -->
<g id="node4" class="node">
<title>Node4</title>
<g id="a_node4"><a xlink:href="../../d8/d1a/classAH_1_1UpdatableCRTP.html" target="_top" xlink:title=" ">
<polygon fill="white" stroke="black" points="0,-515.5 0,-748.5 153,-748.5 153,-515.5 0,-515.5"/>
<text text-anchor="start" x="8" y="-736.5" font-family="Helvetica,sans-Serif" font-size="10.00">UpdatableCRTP&lt; Updatable</text>
<text text-anchor="middle" x="76.5" y="-725.5" font-family="Helvetica,sans-Serif" font-size="10.00">&lt; NormalUpdatable &gt; &gt;</text>
<polyline fill="none" stroke="black" points="0,-718.5 153,-718.5 "/>
<text text-anchor="start" x="8" y="-706.5" font-family="Helvetica,sans-Serif" font-size="10.00"># updatables</text>
<polyline fill="none" stroke="black" points="0,-699.5 153,-699.5 "/>
<text text-anchor="start" x="8" y="-687.5" font-family="Helvetica,sans-Serif" font-size="10.00">+ ~UpdatableCRTP()</text>
<text text-anchor="start" x="8" y="-676.5" font-family="Helvetica,sans-Serif" font-size="10.00"># UpdatableCRTP()</text>
<text text-anchor="start" x="8" y="-665.5" font-family="Helvetica,sans-Serif" font-size="10.00"># UpdatableCRTP()</text>
<text text-anchor="start" x="8" y="-654.5" font-family="Helvetica,sans-Serif" font-size="10.00"># UpdatableCRTP()</text>
<text text-anchor="start" x="8" y="-643.5" font-family="Helvetica,sans-Serif" font-size="10.00"># operator=()</text>
<text text-anchor="start" x="8" y="-632.5" font-family="Helvetica,sans-Serif" font-size="10.00"># operator=()</text>
<text text-anchor="start" x="8" y="-621.5" font-family="Helvetica,sans-Serif" font-size="10.00">* enable()</text>
<text text-anchor="start" x="8" y="-610.5" font-family="Helvetica,sans-Serif" font-size="10.00">* disable()</text>
<text text-anchor="start" x="8" y="-599.5" font-family="Helvetica,sans-Serif" font-size="10.00">* isEnabled()</text>
<text text-anchor="start" x="8" y="-588.5" font-family="Helvetica,sans-Serif" font-size="10.00">* moveDown()</text>
<text text-anchor="start" x="8" y="-577.5" font-family="Helvetica,sans-Serif" font-size="10.00">* enable()</text>
<text text-anchor="start" x="8" y="-566.5" font-family="Helvetica,sans-Serif" font-size="10.00">* enable()</text>
<text text-anchor="start" x="8" y="-555.5" font-family="Helvetica,sans-Serif" font-size="10.00">* enable()</text>
<text text-anchor="start" x="8" y="-544.5" font-family="Helvetica,sans-Serif" font-size="10.00">* disable()</text>
<text text-anchor="start" x="8" y="-533.5" font-family="Helvetica,sans-Serif" font-size="10.00">* disable()</text>
<text text-anchor="start" x="8" y="-522.5" font-family="Helvetica,sans-Serif" font-size="10.00">* disable()</text>
</a>
</g>
</g>
<!-- Node4&#45;&gt;Node3 -->
<g id="edge3" class="edge">
<title>Node4&#45;&gt;Node3</title>
<path fill="none" stroke="midnightblue" d="M79.85,-505.2C80.74,-471.97 81.64,-438.29 82.32,-412.67"/>
<polygon fill="none" stroke="midnightblue" points="76.35,-505.39 79.58,-515.48 83.35,-505.58 76.35,-505.39"/>
</g>
<!-- Node5 -->
<g id="node5" class="node">
<title>Node5</title>
<g id="a_node5"><a xlink:href="../../d4/d23/classDoublyLinkable.html" target="_top" xlink:title="A class that can be inherited from to allow inserting into a DoublyLinkedList.">
<polygon fill="white" stroke="black" points="6.5,-786.5 6.5,-909.5 146.5,-909.5 146.5,-786.5 6.5,-786.5"/>
<text text-anchor="middle" x="76.5" y="-897.5" font-family="Helvetica,sans-Serif" font-size="10.00">DoublyLinkable&lt; Node &gt;</text>
<polyline fill="none" stroke="black" points="6.5,-890.5 146.5,-890.5 "/>
<text text-anchor="start" x="14.5" y="-878.5" font-family="Helvetica,sans-Serif" font-size="10.00"># next</text>
<text text-anchor="start" x="14.5" y="-867.5" font-family="Helvetica,sans-Serif" font-size="10.00"># previous</text>
<polyline fill="none" stroke="black" points="6.5,-860.5 146.5,-860.5 "/>
<text text-anchor="start" x="14.5" y="-848.5" font-family="Helvetica,sans-Serif" font-size="10.00"># ~DoublyLinkable()</text>
<text text-anchor="start" x="14.5" y="-837.5" font-family="Helvetica,sans-Serif" font-size="10.00"># DoublyLinkable()</text>
<text text-anchor="start" x="14.5" y="-826.5" font-family="Helvetica,sans-Serif" font-size="10.00"># DoublyLinkable()</text>
<text text-anchor="start" x="14.5" y="-815.5" font-family="Helvetica,sans-Serif" font-size="10.00"># operator=()</text>
<text text-anchor="start" x="14.5" y="-804.5" font-family="Helvetica,sans-Serif" font-size="10.00"># DoublyLinkable()</text>
<text text-anchor="start" x="14.5" y="-793.5" font-family="Helvetica,sans-Serif" font-size="10.00"># operator=()</text>
</a>
</g>
</g>
<!-- Node5&#45;&gt;Node4 -->
<g id="edge4" class="edge">
<title>Node5&#45;&gt;Node4</title>
<path fill="none" stroke="midnightblue" d="M76.5,-776.03C76.5,-767.17 76.5,-757.94 76.5,-748.61"/>
<polygon fill="none" stroke="midnightblue" points="73,-776.25 76.5,-786.25 80,-776.25 73,-776.25"/>
</g>
<!-- Node6 -->
<g id="node6" class="node">
<title>Node6</title>
<g id="a_node6"><a xlink:href="../../dd/d29/classAH_1_1ButtonMatrix.html" target="_top" xlink:title="A class that reads the states of a button matrix.">
<polygon fill="white" stroke="black" points="160,-267.5 160,-467.5 293,-467.5 293,-267.5 160,-267.5"/>
<text text-anchor="start" x="168" y="-455.5" font-family="Helvetica,sans-Serif" font-size="10.00">ButtonMatrix&lt; Derived,</text>
<text text-anchor="middle" x="226.5" y="-444.5" font-family="Helvetica,sans-Serif" font-size="10.00"> NumRows, NumCols &gt;</text>
<polyline fill="none" stroke="black" points="160,-437.5 293,-437.5 "/>
<text text-anchor="start" x="168" y="-425.5" font-family="Helvetica,sans-Serif" font-size="10.00">&#45; debounceTime</text>
<text text-anchor="start" x="168" y="-414.5" font-family="Helvetica,sans-Serif" font-size="10.00">&#45; prevRefresh</text>
<text text-anchor="start" x="168" y="-403.5" font-family="Helvetica,sans-Serif" font-size="10.00">&#45; prevStates</text>
<polyline fill="none" stroke="black" points="160,-396.5 293,-396.5 "/>
<text text-anchor="start" x="168" y="-384.5" font-family="Helvetica,sans-Serif" font-size="10.00">+ ButtonMatrix()</text>
<text text-anchor="start" x="168" y="-373.5" font-family="Helvetica,sans-Serif" font-size="10.00">+ begin()</text>
<text text-anchor="start" x="168" y="-362.5" font-family="Helvetica,sans-Serif" font-size="10.00">+ update()</text>
<text text-anchor="start" x="168" y="-351.5" font-family="Helvetica,sans-Serif" font-size="10.00">+ getPrevState()</text>
<text text-anchor="start" x="168" y="-340.5" font-family="Helvetica,sans-Serif" font-size="10.00">+ setDebounceTime()</text>
<text text-anchor="start" x="168" y="-329.5" font-family="Helvetica,sans-Serif" font-size="10.00">+ getDebounceTime()</text>
<text text-anchor="start" x="168" y="-318.5" font-family="Helvetica,sans-Serif" font-size="10.00"># onButtonChanged()</text>
<text text-anchor="start" x="168" y="-307.5" font-family="Helvetica,sans-Serif" font-size="10.00">&#45; setPrevState()</text>
<text text-anchor="start" x="168" y="-296.5" font-family="Helvetica,sans-Serif" font-size="10.00">&#45; positionToBits()</text>
<text text-anchor="start" x="168" y="-285.5" font-family="Helvetica,sans-Serif" font-size="10.00">&#45; bitsToIndex()</text>
<text text-anchor="start" x="168" y="-274.5" font-family="Helvetica,sans-Serif" font-size="10.00">&#45; bitsToBitmask()</text>
</a>
</g>
</g>
<!-- Node6&#45;&gt;Node2 -->
<g id="edge5" class="edge">
<title>Node6&#45;&gt;Node2</title>
<path fill="none" stroke="midnightblue" d="M186.32,-257.8C182.76,-248.17 179.25,-238.67 175.92,-229.67"/>
<polygon fill="none" stroke="midnightblue" points="183.14,-259.29 189.89,-267.46 189.71,-256.87 183.14,-259.29"/>
</g>
<!-- Node7 -->
<g id="node7" class="node">
<title>Node7</title>
<g id="a_node7"><a xlink:href="../../d0/d32/structAH_1_1Array.html" target="_top" xlink:title=" ">
<polygon fill="white" stroke="black" points="171.5,-543 171.5,-721 281.5,-721 281.5,-543 171.5,-543"/>
<text text-anchor="middle" x="226.5" y="-709" font-family="Helvetica,sans-Serif" font-size="10.00">Array&lt; NumCols &gt;</text>
<polyline fill="none" stroke="black" points="171.5,-702 281.5,-702 "/>
<text text-anchor="start" x="179.5" y="-690" font-family="Helvetica,sans-Serif" font-size="10.00">+ data</text>
<text text-anchor="start" x="179.5" y="-679" font-family="Helvetica,sans-Serif" font-size="10.00">+ length</text>
<polyline fill="none" stroke="black" points="171.5,-672 281.5,-672 "/>
<text text-anchor="start" x="179.5" y="-660" font-family="Helvetica,sans-Serif" font-size="10.00">+ operator[]()</text>
<text text-anchor="start" x="179.5" y="-649" font-family="Helvetica,sans-Serif" font-size="10.00">+ operator[]()</text>
<text text-anchor="start" x="179.5" y="-638" font-family="Helvetica,sans-Serif" font-size="10.00">+ begin()</text>
<text text-anchor="start" x="179.5" y="-627" font-family="Helvetica,sans-Serif" font-size="10.00">+ begin()</text>
<text text-anchor="start" x="179.5" y="-616" font-family="Helvetica,sans-Serif" font-size="10.00">+ end()</text>
<text text-anchor="start" x="179.5" y="-605" font-family="Helvetica,sans-Serif" font-size="10.00">+ end()</text>
<text text-anchor="start" x="179.5" y="-594" font-family="Helvetica,sans-Serif" font-size="10.00">+ operator==()</text>
<text text-anchor="start" x="179.5" y="-583" font-family="Helvetica,sans-Serif" font-size="10.00">+ operator!=()</text>
<text text-anchor="start" x="179.5" y="-572" font-family="Helvetica,sans-Serif" font-size="10.00">+ slice()</text>
<text text-anchor="start" x="179.5" y="-561" font-family="Helvetica,sans-Serif" font-size="10.00">+ slice()</text>
<text text-anchor="start" x="179.5" y="-550" font-family="Helvetica,sans-Serif" font-size="10.00">+ cslice()</text>
</a>
</g>
</g>
<!-- Node7&#45;&gt;Node6 -->
<g id="edge6" class="edge">
<title>Node7&#45;&gt;Node6</title>
<path fill="none" stroke="#404040" d="M226.5,-542.86C226.5,-522.69 226.5,-500.99 226.5,-479.99"/>
<polygon fill="none" stroke="#404040" points="226.5,-479.71 222.5,-473.71 226.5,-467.71 230.5,-473.71 226.5,-479.71"/>
<text text-anchor="middle" x="247.5" y="-489" font-family="Helvetica,sans-Serif" font-size="10.00"> &#45;colPins</text>
</g>
<!-- Node8 -->
<g id="node8" class="node">
<title>Node8</title>
<g id="a_node8"><a xlink:href="../../d0/d32/structAH_1_1Array.html" target="_top" xlink:title=" ">
<polygon fill="white" stroke="black" points="300,-543 300,-721 415,-721 415,-543 300,-543"/>
<text text-anchor="middle" x="357.5" y="-709" font-family="Helvetica,sans-Serif" font-size="10.00">Array&lt; NumRows &gt;</text>
<polyline fill="none" stroke="black" points="300,-702 415,-702 "/>
<text text-anchor="start" x="308" y="-690" font-family="Helvetica,sans-Serif" font-size="10.00">+ data</text>
<text text-anchor="start" x="308" y="-679" font-family="Helvetica,sans-Serif" font-size="10.00">+ length</text>
<polyline fill="none" stroke="black" points="300,-672 415,-672 "/>
<text text-anchor="start" x="308" y="-660" font-family="Helvetica,sans-Serif" font-size="10.00">+ operator[]()</text>
<text text-anchor="start" x="308" y="-649" font-family="Helvetica,sans-Serif" font-size="10.00">+ operator[]()</text>
<text text-anchor="start" x="308" y="-638" font-family="Helvetica,sans-Serif" font-size="10.00">+ begin()</text>
<text text-anchor="start" x="308" y="-627" font-family="Helvetica,sans-Serif" font-size="10.00">+ begin()</text>
<text text-anchor="start" x="308" y="-616" font-family="Helvetica,sans-Serif" font-size="10.00">+ end()</text>
<text text-anchor="start" x="308" y="-605" font-family="Helvetica,sans-Serif" font-size="10.00">+ end()</text>
<text text-anchor="start" x="308" y="-594" font-family="Helvetica,sans-Serif" font-size="10.00">+ operator==()</text>
<text text-anchor="start" x="308" y="-583" font-family="Helvetica,sans-Serif" font-size="10.00">+ operator!=()</text>
<text text-anchor="start" x="308" y="-572" font-family="Helvetica,sans-Serif" font-size="10.00">+ slice()</text>
<text text-anchor="start" x="308" y="-561" font-family="Helvetica,sans-Serif" font-size="10.00">+ slice()</text>
<text text-anchor="start" x="308" y="-550" font-family="Helvetica,sans-Serif" font-size="10.00">+ cslice()</text>
</a>
</g>
</g>
<!-- Node8&#45;&gt;Node6 -->
<g id="edge7" class="edge">
<title>Node8&#45;&gt;Node6</title>
<path fill="none" stroke="#404040" d="M313.51,-542.86C303.21,-522.22 292.11,-499.98 281.4,-478.51"/>
<polygon fill="none" stroke="#404040" points="281.37,-478.45 275.11,-474.87 276.01,-467.71 282.27,-471.3 281.37,-478.45"/>
<text text-anchor="middle" x="311.5" y="-489" font-family="Helvetica,sans-Serif" font-size="10.00"> &#45;rowPins</text>
</g>
</g>
</svg>
