<?xml version="1.0" encoding="UTF-8" standalone="no"?>
<!DOCTYPE svg PUBLIC "-//W3C//DTD SVG 1.1//EN"
 "http://www.w3.org/Graphics/SVG/1.1/DTD/svg11.dtd">
<!-- Generated by graphviz version 2.43.0 (0)
 -->
<!-- Title: SerialMIDI_Parser Pages: 1 -->
<svg width="164pt" height="380pt"
 viewBox="0.00 0.00 164.00 380.00" xmlns="http://www.w3.org/2000/svg" xmlns:xlink="http://www.w3.org/1999/xlink">
<g id="graph0" class="graph" transform="scale(1 1) rotate(0) translate(4 376)">
<title>SerialMIDI_Parser</title>
<polygon fill="white" stroke="transparent" points="-4,4 -4,-376 160,-376 160,4 -4,4"/>
<!-- Node1 -->
<g id="node1" class="node">
<title>Node1</title>
<g id="a_node1"><a xlink:title="Parser for Serial MIDI streams.">
<polygon fill="#bfbfbf" stroke="black" points="16,-0.5 16,-222.5 140,-222.5 140,-0.5 16,-0.5"/>
<text text-anchor="middle" x="78" y="-210.5" font-family="Helvetica,sans-Serif" font-size="10.00">SerialMIDI_Parser</text>
<polyline fill="none" stroke="black" points="16,-203.5 140,-203.5 "/>
<text text-anchor="start" x="24" y="-191.5" font-family="Helvetica,sans-Serif" font-size="10.00"># sysexbuffer</text>
<text text-anchor="start" x="24" y="-180.5" font-family="Helvetica,sans-Serif" font-size="10.00">&#45; thirdByte</text>
<text text-anchor="start" x="24" y="-169.5" font-family="Helvetica,sans-Serif" font-size="10.00">&#45; storedByte</text>
<polyline fill="none" stroke="black" points="16,-162.5 140,-162.5 "/>
<text text-anchor="start" x="24" y="-150.5" font-family="Helvetica,sans-Serif" font-size="10.00">+ pull()</text>
<text text-anchor="start" x="24" y="-139.5" font-family="Helvetica,sans-Serif" font-size="10.00">+ getSysExMessage()</text>
<text text-anchor="start" x="24" y="-128.5" font-family="Helvetica,sans-Serif" font-size="10.00"># feed()</text>
<text text-anchor="start" x="24" y="-117.5" font-family="Helvetica,sans-Serif" font-size="10.00"># resume()</text>
<text text-anchor="start" x="24" y="-106.5" font-family="Helvetica,sans-Serif" font-size="10.00"># addSysExByte()</text>
<text text-anchor="start" x="24" y="-95.5" font-family="Helvetica,sans-Serif" font-size="10.00"># hasSysExSpace()</text>
<text text-anchor="start" x="24" y="-84.5" font-family="Helvetica,sans-Serif" font-size="10.00"># startSysEx()</text>
<text text-anchor="start" x="24" y="-73.5" font-family="Helvetica,sans-Serif" font-size="10.00"># endSysEx()</text>
<text text-anchor="start" x="24" y="-62.5" font-family="Helvetica,sans-Serif" font-size="10.00"># handleRealTime()</text>
<text text-anchor="start" x="24" y="-51.5" font-family="Helvetica,sans-Serif" font-size="10.00"># handleStatus()</text>
<text text-anchor="start" x="24" y="-40.5" font-family="Helvetica,sans-Serif" font-size="10.00"># handleData()</text>
<text text-anchor="start" x="24" y="-29.5" font-family="Helvetica,sans-Serif" font-size="10.00"># storeByte()</text>
<text text-anchor="start" x="24" y="-18.5" font-family="Helvetica,sans-Serif" font-size="10.00"># hasStoredByte()</text>
<text text-anchor="start" x="24" y="-7.5" font-family="Helvetica,sans-Serif" font-size="10.00"># popStoredByte()</text>
</a>
</g>
</g>
<!-- Node2 -->
<g id="node2" class="node">
<title>Node2</title>
<g id="a_node2"><a xlink:href="../../df/d0c/classMIDI__Parser.html" target="_top" xlink:title="Base class for MIDI parsers.">
<polygon fill="white" stroke="black" points="0,-259.5 0,-371.5 156,-371.5 156,-259.5 0,-259.5"/>
<text text-anchor="middle" x="78" y="-359.5" font-family="Helvetica,sans-Serif" font-size="10.00">MIDI_Parser</text>
<polyline fill="none" stroke="black" points="0,-352.5 156,-352.5 "/>
<text text-anchor="start" x="8" y="-340.5" font-family="Helvetica,sans-Serif" font-size="10.00"># midimsg</text>
<text text-anchor="start" x="8" y="-329.5" font-family="Helvetica,sans-Serif" font-size="10.00"># rtmsg</text>
<polyline fill="none" stroke="black" points="0,-322.5 156,-322.5 "/>
<text text-anchor="start" x="8" y="-310.5" font-family="Helvetica,sans-Serif" font-size="10.00">+ getChannelMessage()</text>
<text text-anchor="start" x="8" y="-299.5" font-family="Helvetica,sans-Serif" font-size="10.00">+ getSysCommonMessage()</text>
<text text-anchor="start" x="8" y="-288.5" font-family="Helvetica,sans-Serif" font-size="10.00">+ getRealTimeMessage()</text>
<text text-anchor="start" x="8" y="-277.5" font-family="Helvetica,sans-Serif" font-size="10.00">+ isStatus()</text>
<text text-anchor="start" x="8" y="-266.5" font-family="Helvetica,sans-Serif" font-size="10.00">+ isData()</text>
</a>
</g>
</g>
<!-- Node2&#45;&gt;Node1 -->
<g id="edge1" class="edge">
<title>Node2&#45;&gt;Node1</title>
<path fill="none" stroke="midnightblue" d="M78,-249.14C78,-240.64 78,-231.76 78,-222.77"/>
<polygon fill="none" stroke="midnightblue" points="74.5,-249.3 78,-259.3 81.5,-249.3 74.5,-249.3"/>
</g>
</g>
</svg>
