<?xml version="1.0" encoding="UTF-8" standalone="no"?>
<!DOCTYPE svg PUBLIC "-//W3C//DTD SVG 1.1//EN"
 "http://www.w3.org/Graphics/SVG/1.1/DTD/svg11.dtd">
<!-- Generated by graphviz version 2.40.1 (20161225.0304)
 -->
<!-- Title: OutputBank Pages: 1 -->
<svg width="306pt" height="397pt"
 viewBox="0.00 0.00 305.50 397.00" xmlns="http://www.w3.org/2000/svg" xmlns:xlink="http://www.w3.org/1999/xlink">
<g id="graph0" class="graph" transform="scale(1 1) rotate(0) translate(4 393)">
<title>OutputBank</title>
<polygon fill="#ffffff" stroke="transparent" points="-4,4 -4,-393 301.5,-393 301.5,4 -4,4"/>
<!-- Node1 -->
<g id="node1" class="node">
<title>Node1</title>
<g id="a_node1"><a xlink:title="A class for changing the address of BankableMIDIOutputs.">
<polygon fill="#bfbfbf" stroke="#000000" points="81.5,-276.5 81.5,-388.5 194.5,-388.5 194.5,-276.5 81.5,-276.5"/>
<text text-anchor="middle" x="138" y="-376.5" font-family="Helvetica,sans-Serif" font-size="10.00" fill="#000000">OutputBank</text>
<polyline fill="none" stroke="#000000" points="81.5,-369.5 194.5,-369.5 "/>
<text text-anchor="start" x="89.5" y="-357.5" font-family="Helvetica,sans-Serif" font-size="10.00" fill="#000000">&#45; tracksPerBank</text>
<text text-anchor="start" x="89.5" y="-346.5" font-family="Helvetica,sans-Serif" font-size="10.00" fill="#000000">&#45; bankSetting</text>
<polyline fill="none" stroke="#000000" points="81.5,-339.5 194.5,-339.5 "/>
<text text-anchor="start" x="89.5" y="-327.5" font-family="Helvetica,sans-Serif" font-size="10.00" fill="#000000">+ OutputBank()</text>
<text text-anchor="start" x="89.5" y="-316.5" font-family="Helvetica,sans-Serif" font-size="10.00" fill="#000000">+ select()</text>
<text text-anchor="start" x="89.5" y="-305.5" font-family="Helvetica,sans-Serif" font-size="10.00" fill="#000000">+ getSelection()</text>
<text text-anchor="start" x="89.5" y="-294.5" font-family="Helvetica,sans-Serif" font-size="10.00" fill="#000000">+ getTracksPerBank()</text>
<text text-anchor="start" x="89.5" y="-283.5" font-family="Helvetica,sans-Serif" font-size="10.00" fill="#000000">+ getOffset()</text>
</a>
</g>
</g>
<!-- Node2 -->
<g id="node2" class="node">
<title>Node2</title>
<g id="a_node2"><a xlink:href="../../db/dbd/classBank.html" target="_top" xlink:title="A class that groups Bankable BankableMIDIOutputs and BankableMIDIInputs, and allows the user to chang...">
<polygon fill="#ffffff" stroke="#000000" points="0,-133 0,-234 118,-234 118,-133 0,-133"/>
<text text-anchor="middle" x="59" y="-222" font-family="Helvetica,sans-Serif" font-size="10.00" fill="#000000">Bank&lt; N &gt;</text>
<polyline fill="none" stroke="#000000" points="0,-215 118,-215 "/>
<text text-anchor="start" x="8" y="-203" font-family="Helvetica,sans-Serif" font-size="10.00" fill="#000000">&#45; inputBankables</text>
<polyline fill="none" stroke="#000000" points="0,-196 118,-196 "/>
<text text-anchor="start" x="8" y="-184" font-family="Helvetica,sans-Serif" font-size="10.00" fill="#000000">+ Bank()</text>
<text text-anchor="start" x="8" y="-173" font-family="Helvetica,sans-Serif" font-size="10.00" fill="#000000">+ select()</text>
<text text-anchor="start" x="8" y="-162" font-family="Helvetica,sans-Serif" font-size="10.00" fill="#000000">+ getNumberOfBanks()</text>
<text text-anchor="start" x="8" y="-151" font-family="Helvetica,sans-Serif" font-size="10.00" fill="#000000">&#45; add()</text>
<text text-anchor="start" x="8" y="-140" font-family="Helvetica,sans-Serif" font-size="10.00" fill="#000000">&#45; remove()</text>
</a>
</g>
</g>
<!-- Node1&#45;&gt;Node2 -->
<g id="edge1" class="edge">
<title>Node1&#45;&gt;Node2</title>
<path fill="none" stroke="#191970" d="M103.4355,-267.3087C97.5245,-256.1602 91.4638,-244.7292 85.794,-234.0355"/>
<polygon fill="none" stroke="#191970" points="100.3569,-268.974 108.1335,-276.1695 106.5414,-265.695 100.3569,-268.974"/>
</g>
<!-- Node3 -->
<g id="node3" class="node">
<title>Node3</title>
<g id="a_node3"><a xlink:href="../../db/dbd/classBank.html" target="_top" xlink:title=" ">
<polygon fill="#ffffff" stroke="#000000" points="136.5,-127.5 136.5,-239.5 297.5,-239.5 297.5,-127.5 136.5,-127.5"/>
<text text-anchor="start" x="144.5" y="-227.5" font-family="Helvetica,sans-Serif" font-size="10.00" fill="#000000">Bank&lt; MAXIMUM_SEMITONES</text>
<text text-anchor="middle" x="217" y="-216.5" font-family="Helvetica,sans-Serif" font-size="10.00" fill="#000000"> &#45; MINIMUM_SEMITONES+1 &gt;</text>
<polyline fill="none" stroke="#000000" points="136.5,-209.5 297.5,-209.5 "/>
<text text-anchor="start" x="144.5" y="-197.5" font-family="Helvetica,sans-Serif" font-size="10.00" fill="#000000">&#45; inputBankables</text>
<polyline fill="none" stroke="#000000" points="136.5,-190.5 297.5,-190.5 "/>
<text text-anchor="start" x="144.5" y="-178.5" font-family="Helvetica,sans-Serif" font-size="10.00" fill="#000000">+ Bank()</text>
<text text-anchor="start" x="144.5" y="-167.5" font-family="Helvetica,sans-Serif" font-size="10.00" fill="#000000">+ select()</text>
<text text-anchor="start" x="144.5" y="-156.5" font-family="Helvetica,sans-Serif" font-size="10.00" fill="#000000">+ getNumberOfBanks()</text>
<text text-anchor="start" x="144.5" y="-145.5" font-family="Helvetica,sans-Serif" font-size="10.00" fill="#000000">&#45; add()</text>
<text text-anchor="start" x="144.5" y="-134.5" font-family="Helvetica,sans-Serif" font-size="10.00" fill="#000000">&#45; remove()</text>
</a>
</g>
</g>
<!-- Node1&#45;&gt;Node3 -->
<g id="edge2" class="edge">
<title>Node1&#45;&gt;Node3</title>
<path fill="none" stroke="#191970" d="M172.6398,-267.1668C177.4565,-258.082 182.3711,-248.8127 187.0913,-239.9102"/>
<polygon fill="none" stroke="#191970" points="169.4586,-265.695 167.8665,-276.1695 175.6431,-268.974 169.4586,-265.695"/>
</g>
<!-- Node4 -->
<g id="node4" class="node">
<title>Node4</title>
<g id="a_node4"><a xlink:href="../../da/db8/classTransposer.html" target="_top" xlink:title=" ">
<polygon fill="#ffffff" stroke="#000000" points="149,-.5 149,-90.5 285,-90.5 285,-.5 149,-.5"/>
<text text-anchor="start" x="157" y="-78.5" font-family="Helvetica,sans-Serif" font-size="10.00" fill="#000000">Transposer&lt; MINIMUM</text>
<text text-anchor="start" x="157" y="-67.5" font-family="Helvetica,sans-Serif" font-size="10.00" fill="#000000">_SEMITONES, MAXIMUM</text>
<text text-anchor="middle" x="217" y="-56.5" font-family="Helvetica,sans-Serif" font-size="10.00" fill="#000000">_SEMITONES &gt;</text>
<polyline fill="none" stroke="#000000" points="149,-49.5 285,-49.5 "/>
<text text-anchor="start" x="157" y="-37.5" font-family="Helvetica,sans-Serif" font-size="10.00" fill="#000000">+ N</text>
<polyline fill="none" stroke="#000000" points="149,-30.5 285,-30.5 "/>
<text text-anchor="start" x="157" y="-18.5" font-family="Helvetica,sans-Serif" font-size="10.00" fill="#000000">+ Transposer()</text>
<text text-anchor="start" x="157" y="-7.5" font-family="Helvetica,sans-Serif" font-size="10.00" fill="#000000">+ getSelection()</text>
</a>
</g>
</g>
<!-- Node3&#45;&gt;Node4 -->
<g id="edge3" class="edge">
<title>Node3&#45;&gt;Node4</title>
<path fill="none" stroke="#191970" d="M217,-117.2386C217,-108.2122 217,-99.1233 217,-90.5909"/>
<polygon fill="none" stroke="#191970" points="213.5001,-117.3701 217,-127.3701 220.5001,-117.3702 213.5001,-117.3701"/>
</g>
</g>
</svg>
