<?xml version="1.0" encoding="UTF-8" standalone="no"?>
<!DOCTYPE svg PUBLIC "-//W3C//DTD SVG 1.1//EN"
 "http://www.w3.org/Graphics/SVG/1.1/DTD/svg11.dtd">
<!-- Generated by graphviz version 2.43.0 (0)
 -->
<!-- Title: EncoderSelector&lt; N &gt; Pages: 1 -->
<svg width="435pt" height="1100pt"
 viewBox="0.00 0.00 435.00 1100.00" xmlns="http://www.w3.org/2000/svg" xmlns:xlink="http://www.w3.org/1999/xlink">
<g id="graph0" class="graph" transform="scale(1 1) rotate(0) translate(4 1096)">
<title>EncoderSelector&lt; N &gt;</title>
<polygon fill="white" stroke="transparent" points="-4,4 -4,-1096 431,-1096 431,4 -4,4"/>
<!-- Node1 -->
<g id="node1" class="node">
<title>Node1</title>
<g id="a_node1"><a xlink:title="Selector that reads from a rotary encoder.">
<polygon fill="#bfbfbf" stroke="black" points="244,-0.5 244,-57.5 369,-57.5 369,-0.5 244,-0.5"/>
<text text-anchor="middle" x="306.5" y="-45.5" font-family="Helvetica,sans-Serif" font-size="10.00">EncoderSelector&lt; N &gt;</text>
<polyline fill="none" stroke="black" points="244,-38.5 369,-38.5 "/>
<text text-anchor="middle" x="306.5" y="-26.5" font-family="Helvetica,sans-Serif" font-size="10.00"> </text>
<polyline fill="none" stroke="black" points="244,-19.5 369,-19.5 "/>
<text text-anchor="start" x="252" y="-7.5" font-family="Helvetica,sans-Serif" font-size="10.00">+ EncoderSelector()</text>
</a>
</g>
</g>
<!-- Node2 -->
<g id="node2" class="node">
<title>Node2</title>
<g id="a_node2"><a xlink:href="../../da/dbf/classGenericEncoderSelector.html" target="_top" xlink:title=" ">
<polygon fill="white" stroke="black" points="230.5,-95.5 230.5,-218.5 382.5,-218.5 382.5,-95.5 230.5,-95.5"/>
<text text-anchor="start" x="238.5" y="-206.5" font-family="Helvetica,sans-Serif" font-size="10.00">GenericEncoderSelector</text>
<text text-anchor="middle" x="306.5" y="-195.5" font-family="Helvetica,sans-Serif" font-size="10.00">&lt; N, Callback &gt;</text>
<polyline fill="none" stroke="black" points="230.5,-188.5 382.5,-188.5 "/>
<text text-anchor="start" x="238.5" y="-176.5" font-family="Helvetica,sans-Serif" font-size="10.00">&#45; pulsesPerStep</text>
<text text-anchor="start" x="238.5" y="-165.5" font-family="Helvetica,sans-Serif" font-size="10.00">&#45; wrap</text>
<text text-anchor="start" x="238.5" y="-154.5" font-family="Helvetica,sans-Serif" font-size="10.00">&#45; previousPosition</text>
<text text-anchor="start" x="238.5" y="-143.5" font-family="Helvetica,sans-Serif" font-size="10.00">&#45; previousSwitchState</text>
<polyline fill="none" stroke="black" points="230.5,-136.5 382.5,-136.5 "/>
<text text-anchor="start" x="238.5" y="-124.5" font-family="Helvetica,sans-Serif" font-size="10.00">+ GenericEncoderSelector()</text>
<text text-anchor="start" x="238.5" y="-113.5" font-family="Helvetica,sans-Serif" font-size="10.00">+ begin()</text>
<text text-anchor="start" x="238.5" y="-102.5" font-family="Helvetica,sans-Serif" font-size="10.00">+ update()</text>
</a>
</g>
</g>
<!-- Node2&#45;&gt;Node1 -->
<g id="edge1" class="edge">
<title>Node2&#45;&gt;Node1</title>
<path fill="none" stroke="midnightblue" d="M306.5,-85.01C306.5,-75.26 306.5,-65.78 306.5,-57.51"/>
<polygon fill="none" stroke="midnightblue" points="303,-85.21 306.5,-95.21 310,-85.21 303,-85.21"/>
</g>
<!-- Node3 -->
<g id="node3" class="node">
<title>Node3</title>
<g id="a_node3"><a xlink:href="../../d0/d04/classGenericSelector.html" target="_top" xlink:title=" ">
<polygon fill="white" stroke="black" points="83.5,-305 83.5,-450 227.5,-450 227.5,-305 83.5,-305"/>
<text text-anchor="start" x="91.5" y="-438" font-family="Helvetica,sans-Serif" font-size="10.00">GenericSelector&lt; N,</text>
<text text-anchor="middle" x="155.5" y="-427" font-family="Helvetica,sans-Serif" font-size="10.00"> EmptySelectorCallback &gt;</text>
<polyline fill="none" stroke="black" points="83.5,-420 227.5,-420 "/>
<text text-anchor="start" x="91.5" y="-408" font-family="Helvetica,sans-Serif" font-size="10.00">+ callback</text>
<text text-anchor="start" x="91.5" y="-397" font-family="Helvetica,sans-Serif" font-size="10.00">&#45; selectable</text>
<polyline fill="none" stroke="black" points="83.5,-390 227.5,-390 "/>
<text text-anchor="start" x="91.5" y="-378" font-family="Helvetica,sans-Serif" font-size="10.00">+ GenericSelector()</text>
<text text-anchor="start" x="91.5" y="-367" font-family="Helvetica,sans-Serif" font-size="10.00">+ begin()</text>
<text text-anchor="start" x="91.5" y="-356" font-family="Helvetica,sans-Serif" font-size="10.00">+ update()</text>
<text text-anchor="start" x="91.5" y="-345" font-family="Helvetica,sans-Serif" font-size="10.00">+ reset()</text>
<text text-anchor="start" x="91.5" y="-334" font-family="Helvetica,sans-Serif" font-size="10.00">+ set()</text>
<text text-anchor="start" x="91.5" y="-323" font-family="Helvetica,sans-Serif" font-size="10.00">+ increment()</text>
<text text-anchor="start" x="91.5" y="-312" font-family="Helvetica,sans-Serif" font-size="10.00">+ decrement()</text>
</a>
</g>
</g>
<!-- Node3&#45;&gt;Node2 -->
<g id="edge2" class="edge">
<title>Node3&#45;&gt;Node2</title>
<path fill="none" stroke="midnightblue" d="M210.66,-296.69C228.44,-270.95 247.86,-242.85 264.54,-218.72"/>
<polygon fill="none" stroke="midnightblue" points="207.75,-294.74 204.94,-304.95 213.51,-298.72 207.75,-294.74"/>
</g>
<!-- Node4 -->
<g id="node4" class="node">
<title>Node4</title>
<g id="a_node4"><a xlink:href="../../dc/d77/classSelectorBase.html" target="_top" xlink:title="Base class for all Selectors exposing the get method, so it can be used by display elements etc,...">
<polygon fill="white" stroke="black" points="0,-569.5 0,-637.5 99,-637.5 99,-569.5 0,-569.5"/>
<text text-anchor="middle" x="49.5" y="-625.5" font-family="Helvetica,sans-Serif" font-size="10.00">SelectorBase</text>
<polyline fill="none" stroke="black" points="0,-618.5 99,-618.5 "/>
<text text-anchor="start" x="8" y="-606.5" font-family="Helvetica,sans-Serif" font-size="10.00"># setting</text>
<polyline fill="none" stroke="black" points="0,-599.5 99,-599.5 "/>
<text text-anchor="start" x="8" y="-587.5" font-family="Helvetica,sans-Serif" font-size="10.00">+ get()</text>
<text text-anchor="start" x="8" y="-576.5" font-family="Helvetica,sans-Serif" font-size="10.00"># SelectorBase()</text>
</a>
</g>
</g>
<!-- Node4&#45;&gt;Node3 -->
<g id="edge3" class="edge">
<title>Node4&#45;&gt;Node3</title>
<path fill="none" stroke="midnightblue" d="M69.5,-560.23C84.17,-529.24 104.43,-486.43 121.6,-450.14"/>
<polygon fill="none" stroke="midnightblue" points="66.25,-558.91 65.14,-569.45 72.58,-561.91 66.25,-558.91"/>
</g>
<!-- Node5 -->
<g id="node5" class="node">
<title>Node5</title>
<g id="a_node5"><a xlink:href="../../d1/d55/classAH_1_1Updatable.html" target="_top" xlink:title="A super class for object that have to be updated regularly.">
<polygon fill="white" stroke="black" points="117,-558.5 117,-648.5 212,-648.5 212,-558.5 117,-558.5"/>
<text text-anchor="middle" x="164.5" y="-636.5" font-family="Helvetica,sans-Serif" font-size="10.00">Updatable&lt; T &gt;</text>
<polyline fill="none" stroke="black" points="117,-629.5 212,-629.5 "/>
<text text-anchor="middle" x="164.5" y="-617.5" font-family="Helvetica,sans-Serif" font-size="10.00"> </text>
<polyline fill="none" stroke="black" points="117,-610.5 212,-610.5 "/>
<text text-anchor="start" x="125" y="-598.5" font-family="Helvetica,sans-Serif" font-size="10.00">* begin()</text>
<text text-anchor="start" x="125" y="-587.5" font-family="Helvetica,sans-Serif" font-size="10.00">* update()</text>
<text text-anchor="start" x="125" y="-576.5" font-family="Helvetica,sans-Serif" font-size="10.00">* beginAll()</text>
<text text-anchor="start" x="125" y="-565.5" font-family="Helvetica,sans-Serif" font-size="10.00">* updateAll()</text>
</a>
</g>
</g>
<!-- Node5&#45;&gt;Node3 -->
<g id="edge4" class="edge">
<title>Node5&#45;&gt;Node3</title>
<path fill="none" stroke="midnightblue" d="M162.32,-548.18C161.14,-518.81 159.66,-482.15 158.39,-450.44"/>
<polygon fill="none" stroke="midnightblue" points="158.82,-548.39 162.72,-558.24 165.82,-548.11 158.82,-548.39"/>
</g>
<!-- Node6 -->
<g id="node6" class="node">
<title>Node6</title>
<g id="a_node6"><a xlink:href="../../d8/d1a/classAH_1_1UpdatableCRTP.html" target="_top" xlink:title=" ">
<polygon fill="white" stroke="black" points="88,-697.5 88,-930.5 241,-930.5 241,-697.5 88,-697.5"/>
<text text-anchor="start" x="96" y="-918.5" font-family="Helvetica,sans-Serif" font-size="10.00">UpdatableCRTP&lt; Updatable</text>
<text text-anchor="middle" x="164.5" y="-907.5" font-family="Helvetica,sans-Serif" font-size="10.00">&lt; NormalUpdatable &gt; &gt;</text>
<polyline fill="none" stroke="black" points="88,-900.5 241,-900.5 "/>
<text text-anchor="start" x="96" y="-888.5" font-family="Helvetica,sans-Serif" font-size="10.00"># updatables</text>
<polyline fill="none" stroke="black" points="88,-881.5 241,-881.5 "/>
<text text-anchor="start" x="96" y="-869.5" font-family="Helvetica,sans-Serif" font-size="10.00">+ ~UpdatableCRTP()</text>
<text text-anchor="start" x="96" y="-858.5" font-family="Helvetica,sans-Serif" font-size="10.00"># UpdatableCRTP()</text>
<text text-anchor="start" x="96" y="-847.5" font-family="Helvetica,sans-Serif" font-size="10.00"># UpdatableCRTP()</text>
<text text-anchor="start" x="96" y="-836.5" font-family="Helvetica,sans-Serif" font-size="10.00"># UpdatableCRTP()</text>
<text text-anchor="start" x="96" y="-825.5" font-family="Helvetica,sans-Serif" font-size="10.00"># operator=()</text>
<text text-anchor="start" x="96" y="-814.5" font-family="Helvetica,sans-Serif" font-size="10.00"># operator=()</text>
<text text-anchor="start" x="96" y="-803.5" font-family="Helvetica,sans-Serif" font-size="10.00">* enable()</text>
<text text-anchor="start" x="96" y="-792.5" font-family="Helvetica,sans-Serif" font-size="10.00">* disable()</text>
<text text-anchor="start" x="96" y="-781.5" font-family="Helvetica,sans-Serif" font-size="10.00">* isEnabled()</text>
<text text-anchor="start" x="96" y="-770.5" font-family="Helvetica,sans-Serif" font-size="10.00">* moveDown()</text>
<text text-anchor="start" x="96" y="-759.5" font-family="Helvetica,sans-Serif" font-size="10.00">* enable()</text>
<text text-anchor="start" x="96" y="-748.5" font-family="Helvetica,sans-Serif" font-size="10.00">* enable()</text>
<text text-anchor="start" x="96" y="-737.5" font-family="Helvetica,sans-Serif" font-size="10.00">* enable()</text>
<text text-anchor="start" x="96" y="-726.5" font-family="Helvetica,sans-Serif" font-size="10.00">* disable()</text>
<text text-anchor="start" x="96" y="-715.5" font-family="Helvetica,sans-Serif" font-size="10.00">* disable()</text>
<text text-anchor="start" x="96" y="-704.5" font-family="Helvetica,sans-Serif" font-size="10.00">* disable()</text>
</a>
</g>
</g>
<!-- Node6&#45;&gt;Node5 -->
<g id="edge5" class="edge">
<title>Node6&#45;&gt;Node5</title>
<path fill="none" stroke="midnightblue" d="M164.5,-687.4C164.5,-673.68 164.5,-660.48 164.5,-648.79"/>
<polygon fill="none" stroke="midnightblue" points="161,-687.47 164.5,-697.47 168,-687.47 161,-687.47"/>
</g>
<!-- Node7 -->
<g id="node7" class="node">
<title>Node7</title>
<g id="a_node7"><a xlink:href="../../d4/d23/classDoublyLinkable.html" target="_top" xlink:title="A class that can be inherited from to allow inserting into a DoublyLinkedList.">
<polygon fill="white" stroke="black" points="94.5,-968.5 94.5,-1091.5 234.5,-1091.5 234.5,-968.5 94.5,-968.5"/>
<text text-anchor="middle" x="164.5" y="-1079.5" font-family="Helvetica,sans-Serif" font-size="10.00">DoublyLinkable&lt; Node &gt;</text>
<polyline fill="none" stroke="black" points="94.5,-1072.5 234.5,-1072.5 "/>
<text text-anchor="start" x="102.5" y="-1060.5" font-family="Helvetica,sans-Serif" font-size="10.00"># next</text>
<text text-anchor="start" x="102.5" y="-1049.5" font-family="Helvetica,sans-Serif" font-size="10.00"># previous</text>
<polyline fill="none" stroke="black" points="94.5,-1042.5 234.5,-1042.5 "/>
<text text-anchor="start" x="102.5" y="-1030.5" font-family="Helvetica,sans-Serif" font-size="10.00"># ~DoublyLinkable()</text>
<text text-anchor="start" x="102.5" y="-1019.5" font-family="Helvetica,sans-Serif" font-size="10.00"># DoublyLinkable()</text>
<text text-anchor="start" x="102.5" y="-1008.5" font-family="Helvetica,sans-Serif" font-size="10.00"># DoublyLinkable()</text>
<text text-anchor="start" x="102.5" y="-997.5" font-family="Helvetica,sans-Serif" font-size="10.00"># operator=()</text>
<text text-anchor="start" x="102.5" y="-986.5" font-family="Helvetica,sans-Serif" font-size="10.00"># DoublyLinkable()</text>
<text text-anchor="start" x="102.5" y="-975.5" font-family="Helvetica,sans-Serif" font-size="10.00"># operator=()</text>
</a>
</g>
</g>
<!-- Node7&#45;&gt;Node6 -->
<g id="edge6" class="edge">
<title>Node7&#45;&gt;Node6</title>
<path fill="none" stroke="midnightblue" d="M164.5,-958.03C164.5,-949.17 164.5,-939.94 164.5,-930.61"/>
<polygon fill="none" stroke="midnightblue" points="161,-958.25 164.5,-968.25 168,-958.25 161,-958.25"/>
</g>
<!-- Node8 -->
<g id="node8" class="node">
<title>Node8</title>
<g id="a_node8"><a xlink:href="../../d0/d3b/classEncoder.html" target="_top" xlink:title="Class for reading quadrature encoders, based on http://www.pjrc.com/teensy/td_libs_Encoder....">
<polygon fill="white" stroke="black" points="245.5,-266.5 245.5,-488.5 367.5,-488.5 367.5,-266.5 245.5,-266.5"/>
<text text-anchor="middle" x="306.5" y="-476.5" font-family="Helvetica,sans-Serif" font-size="10.00">Encoder</text>
<polyline fill="none" stroke="black" points="245.5,-469.5 367.5,-469.5 "/>
<text text-anchor="start" x="253.5" y="-457.5" font-family="Helvetica,sans-Serif" font-size="10.00">&#45; pin1</text>
<text text-anchor="start" x="253.5" y="-446.5" font-family="Helvetica,sans-Serif" font-size="10.00">&#45; pin2</text>
<text text-anchor="start" x="253.5" y="-435.5" font-family="Helvetica,sans-Serif" font-size="10.00">&#45; interrupts_in_use</text>
<polyline fill="none" stroke="black" points="245.5,-428.5 367.5,-428.5 "/>
<text text-anchor="start" x="253.5" y="-416.5" font-family="Helvetica,sans-Serif" font-size="10.00">+ Encoder()</text>
<text text-anchor="start" x="253.5" y="-405.5" font-family="Helvetica,sans-Serif" font-size="10.00">+ Encoder()</text>
<text text-anchor="start" x="253.5" y="-394.5" font-family="Helvetica,sans-Serif" font-size="10.00">+ operator=()</text>
<text text-anchor="start" x="253.5" y="-383.5" font-family="Helvetica,sans-Serif" font-size="10.00">+ Encoder()</text>
<text text-anchor="start" x="253.5" y="-372.5" font-family="Helvetica,sans-Serif" font-size="10.00">+ operator=()</text>
<text text-anchor="start" x="253.5" y="-361.5" font-family="Helvetica,sans-Serif" font-size="10.00">+ ~Encoder()</text>
<text text-anchor="start" x="253.5" y="-350.5" font-family="Helvetica,sans-Serif" font-size="10.00">+ begin()</text>
<text text-anchor="start" x="253.5" y="-339.5" font-family="Helvetica,sans-Serif" font-size="10.00">+ end()</text>
<text text-anchor="start" x="253.5" y="-328.5" font-family="Helvetica,sans-Serif" font-size="10.00">+ read()</text>
<text text-anchor="start" x="253.5" y="-317.5" font-family="Helvetica,sans-Serif" font-size="10.00">+ readAndReset()</text>
<text text-anchor="start" x="253.5" y="-306.5" font-family="Helvetica,sans-Serif" font-size="10.00">+ write()</text>
<text text-anchor="start" x="253.5" y="-295.5" font-family="Helvetica,sans-Serif" font-size="10.00">+ update()</text>
<text text-anchor="start" x="253.5" y="-284.5" font-family="Helvetica,sans-Serif" font-size="10.00">&#45; attachInterruptCtx()</text>
<text text-anchor="start" x="253.5" y="-273.5" font-family="Helvetica,sans-Serif" font-size="10.00">&#45; detachInterruptCtx()</text>
</a>
</g>
</g>
<!-- Node8&#45;&gt;Node2 -->
<g id="edge7" class="edge">
<title>Node8&#45;&gt;Node2</title>
<path fill="none" stroke="#404040" d="M306.5,-266.29C306.5,-254.22 306.5,-242.16 306.5,-230.71"/>
<polygon fill="none" stroke="#404040" points="306.5,-230.55 302.5,-224.55 306.5,-218.55 310.5,-224.55 306.5,-230.55"/>
<text text-anchor="middle" x="329.5" y="-240" font-family="Helvetica,sans-Serif" font-size="10.00"> &#45;encoder</text>
</g>
<!-- Node9 -->
<g id="node9" class="node">
<title>Node9</title>
<g id="a_node9"><a xlink:href="../../db/de4/Encoder_8h.html#d9/d08/structEncoder__internal__state__t" target="_top" xlink:title="All the data needed by interrupts is consolidated into this ugly struct to facilitate assembly langua...">
<polygon fill="white" stroke="black" points="238,-547.5 238,-659.5 375,-659.5 375,-547.5 238,-547.5"/>
<text text-anchor="middle" x="306.5" y="-647.5" font-family="Helvetica,sans-Serif" font-size="10.00">Encoder_internal_state_t</text>
<polyline fill="none" stroke="black" points="238,-640.5 375,-640.5 "/>
<text text-anchor="start" x="246" y="-628.5" font-family="Helvetica,sans-Serif" font-size="10.00">+ pin1_register</text>
<text text-anchor="start" x="246" y="-617.5" font-family="Helvetica,sans-Serif" font-size="10.00">+ pin2_register</text>
<text text-anchor="start" x="246" y="-606.5" font-family="Helvetica,sans-Serif" font-size="10.00">+ pin1_bitmask</text>
<text text-anchor="start" x="246" y="-595.5" font-family="Helvetica,sans-Serif" font-size="10.00">+ pin2_bitmask</text>
<text text-anchor="start" x="246" y="-584.5" font-family="Helvetica,sans-Serif" font-size="10.00">+ state</text>
<text text-anchor="start" x="246" y="-573.5" font-family="Helvetica,sans-Serif" font-size="10.00">+ position</text>
<polyline fill="none" stroke="black" points="238,-566.5 375,-566.5 "/>
<text text-anchor="middle" x="306.5" y="-554.5" font-family="Helvetica,sans-Serif" font-size="10.00"> </text>
</a>
</g>
</g>
<!-- Node9&#45;&gt;Node8 -->
<g id="edge8" class="edge">
<title>Node9&#45;&gt;Node8</title>
<path fill="none" stroke="#404040" d="M306.5,-547.42C306.5,-533.17 306.5,-517.25 306.5,-501.04"/>
<polygon fill="none" stroke="#404040" points="306.5,-500.6 302.5,-494.6 306.5,-488.6 310.5,-494.6 306.5,-500.6"/>
<text text-anchor="middle" x="344.5" y="-521" font-family="Helvetica,sans-Serif" font-size="10.00"> +interruptArgs</text>
<text text-anchor="middle" x="344.5" y="-510" font-family="Helvetica,sans-Serif" font-size="10.00">&#45;encoder</text>
</g>
<!-- Node10 -->
<g id="node10" class="node">
<title>Node10</title>
<g id="a_node10"><a xlink:title=" ">
<polygon fill="white" stroke="#bfbfbf" points="386,-349 386,-406 427,-406 427,-349 386,-349"/>
<text text-anchor="middle" x="406.5" y="-394" font-family="Helvetica,sans-Serif" font-size="10.00">pin_t</text>
<polyline fill="none" stroke="#bfbfbf" points="386,-387 427,-387 "/>
<text text-anchor="middle" x="406.5" y="-375" font-family="Helvetica,sans-Serif" font-size="10.00"> </text>
<polyline fill="none" stroke="#bfbfbf" points="386,-368 427,-368 "/>
<text text-anchor="middle" x="406.5" y="-356" font-family="Helvetica,sans-Serif" font-size="10.00"> </text>
</a>
</g>
</g>
<!-- Node10&#45;&gt;Node2 -->
<g id="edge9" class="edge">
<title>Node10&#45;&gt;Node2</title>
<path fill="none" stroke="#404040" d="M401.49,-348.9C396.76,-326.04 388.58,-293.04 376.5,-266 370.97,-253.61 364.12,-241.03 356.9,-229.03"/>
<polygon fill="none" stroke="#404040" points="356.79,-228.87 350.23,-225.87 350.47,-218.67 357.03,-221.66 356.79,-228.87"/>
<text text-anchor="middle" x="393.5" y="-240" font-family="Helvetica,sans-Serif" font-size="10.00"> &#45;switchPin</text>
</g>
</g>
</svg>
