<?xml version="1.0" encoding="UTF-8" standalone="no"?>
<!DOCTYPE svg PUBLIC "-//W3C//DTD SVG 1.1//EN"
 "http://www.w3.org/Graphics/SVG/1.1/DTD/svg11.dtd">
<!-- Generated by graphviz version 2.43.0 (0)
 -->
<!-- Title: MIDIButtonMatrix&lt; Sender, NumRows, NumCols &gt; Pages: 1 -->
<svg width="605pt" height="1063pt"
 viewBox="0.00 0.00 604.50 1063.00" xmlns="http://www.w3.org/2000/svg" xmlns:xlink="http://www.w3.org/1999/xlink">
<g id="graph0" class="graph" transform="scale(1 1) rotate(0) translate(4 1059)">
<title>MIDIButtonMatrix&lt; Sender, NumRows, NumCols &gt;</title>
<polygon fill="white" stroke="transparent" points="-4,4 -4,-1059 600.5,-1059 600.5,4 -4,4"/>
<!-- Node1 -->
<g id="node1" class="node">
<title>Node1</title>
<g id="a_node1"><a xlink:title="MIDIButtonMatrix.">
<polygon fill="#bfbfbf" stroke="black" points="271,-0.5 271,-112.5 422,-112.5 422,-0.5 271,-0.5"/>
<text text-anchor="start" x="279" y="-100.5" font-family="Helvetica,sans-Serif" font-size="10.00">MIDIButtonMatrix&lt; Sender,</text>
<text text-anchor="middle" x="346.5" y="-89.5" font-family="Helvetica,sans-Serif" font-size="10.00"> NumRows, NumCols &gt;</text>
<polyline fill="none" stroke="black" points="271,-82.5 422,-82.5 "/>
<text text-anchor="start" x="279" y="-70.5" font-family="Helvetica,sans-Serif" font-size="10.00">+ sender</text>
<text text-anchor="start" x="279" y="-59.5" font-family="Helvetica,sans-Serif" font-size="10.00">&#45; addresses</text>
<polyline fill="none" stroke="black" points="271,-52.5 422,-52.5 "/>
<text text-anchor="start" x="279" y="-40.5" font-family="Helvetica,sans-Serif" font-size="10.00">+ begin()</text>
<text text-anchor="start" x="279" y="-29.5" font-family="Helvetica,sans-Serif" font-size="10.00">+ update()</text>
<text text-anchor="start" x="279" y="-18.5" font-family="Helvetica,sans-Serif" font-size="10.00"># MIDIButtonMatrix()</text>
<text text-anchor="start" x="279" y="-7.5" font-family="Helvetica,sans-Serif" font-size="10.00">&#45; onButtonChanged()</text>
</a>
</g>
</g>
<!-- Node2 -->
<g id="node2" class="node">
<title>Node2</title>
<g id="a_node2"><a xlink:href="../../d1/d55/classAH_1_1Updatable.html" target="_top" xlink:title=" ">
<polygon fill="white" stroke="black" points="119,-221 119,-311 232,-311 232,-221 119,-221"/>
<text text-anchor="middle" x="175.5" y="-299" font-family="Helvetica,sans-Serif" font-size="10.00">MIDIOutputElement</text>
<polyline fill="none" stroke="black" points="119,-292 232,-292 "/>
<text text-anchor="middle" x="175.5" y="-280" font-family="Helvetica,sans-Serif" font-size="10.00"> </text>
<polyline fill="none" stroke="black" points="119,-273 232,-273 "/>
<text text-anchor="start" x="127" y="-261" font-family="Helvetica,sans-Serif" font-size="10.00">* begin()</text>
<text text-anchor="start" x="127" y="-250" font-family="Helvetica,sans-Serif" font-size="10.00">* update()</text>
<text text-anchor="start" x="127" y="-239" font-family="Helvetica,sans-Serif" font-size="10.00">* beginAll()</text>
<text text-anchor="start" x="127" y="-228" font-family="Helvetica,sans-Serif" font-size="10.00">* updateAll()</text>
</a>
</g>
</g>
<!-- Node2&#45;&gt;Node1 -->
<g id="edge1" class="edge">
<title>Node2&#45;&gt;Node1</title>
<path fill="none" stroke="midnightblue" d="M205.47,-211.96C216.04,-194.79 228.54,-176.05 241.5,-160 254.62,-143.75 270.11,-127.39 285.11,-112.66"/>
<polygon fill="none" stroke="midnightblue" points="202.31,-210.41 200.12,-220.77 208.3,-214.04 202.31,-210.41"/>
</g>
<!-- Node3 -->
<g id="node3" class="node">
<title>Node3</title>
<g id="a_node3"><a xlink:href="../../d8/d1a/classAH_1_1UpdatableCRTP.html" target="_top" xlink:title=" ">
<polygon fill="white" stroke="black" points="99,-419.5 99,-696.5 252,-696.5 252,-419.5 99,-419.5"/>
<text text-anchor="start" x="107" y="-684.5" font-family="Helvetica,sans-Serif" font-size="10.00">UpdatableCRTP&lt; Updatable</text>
<text text-anchor="start" x="107" y="-673.5" font-family="Helvetica,sans-Serif" font-size="10.00">&lt; NormalUpdatable, false</text>
<text text-anchor="middle" x="175.5" y="-662.5" font-family="Helvetica,sans-Serif" font-size="10.00"> &gt;, false &gt;</text>
<polyline fill="none" stroke="black" points="99,-655.5 252,-655.5 "/>
<text text-anchor="start" x="107" y="-643.5" font-family="Helvetica,sans-Serif" font-size="10.00"># mutex</text>
<polyline fill="none" stroke="black" points="99,-636.5 252,-636.5 "/>
<text text-anchor="start" x="107" y="-624.5" font-family="Helvetica,sans-Serif" font-size="10.00">+ ~UpdatableCRTP()</text>
<text text-anchor="start" x="107" y="-613.5" font-family="Helvetica,sans-Serif" font-size="10.00">+ getMutex()</text>
<text text-anchor="start" x="107" y="-602.5" font-family="Helvetica,sans-Serif" font-size="10.00"># UpdatableCRTP()</text>
<text text-anchor="start" x="107" y="-591.5" font-family="Helvetica,sans-Serif" font-size="10.00">* method</text>
<text text-anchor="start" x="107" y="-580.5" font-family="Helvetica,sans-Serif" font-size="10.00">* args</text>
<text text-anchor="start" x="107" y="-569.5" font-family="Helvetica,sans-Serif" font-size="10.00">* enable()</text>
<text text-anchor="start" x="107" y="-558.5" font-family="Helvetica,sans-Serif" font-size="10.00">* enable()</text>
<text text-anchor="start" x="107" y="-547.5" font-family="Helvetica,sans-Serif" font-size="10.00">* disable()</text>
<text text-anchor="start" x="107" y="-536.5" font-family="Helvetica,sans-Serif" font-size="10.00">* disable()</text>
<text text-anchor="start" x="107" y="-525.5" font-family="Helvetica,sans-Serif" font-size="10.00">* isEnabled()</text>
<text text-anchor="start" x="107" y="-514.5" font-family="Helvetica,sans-Serif" font-size="10.00">* isEnabled()</text>
<text text-anchor="start" x="107" y="-503.5" font-family="Helvetica,sans-Serif" font-size="10.00">* moveDown()</text>
<text text-anchor="start" x="107" y="-492.5" font-family="Helvetica,sans-Serif" font-size="10.00">* moveDown()</text>
<text text-anchor="start" x="107" y="-481.5" font-family="Helvetica,sans-Serif" font-size="10.00">* enable()</text>
<text text-anchor="start" x="107" y="-470.5" font-family="Helvetica,sans-Serif" font-size="10.00">* enable()</text>
<text text-anchor="start" x="107" y="-459.5" font-family="Helvetica,sans-Serif" font-size="10.00">* enable()</text>
<text text-anchor="start" x="107" y="-448.5" font-family="Helvetica,sans-Serif" font-size="10.00">* disable()</text>
<text text-anchor="start" x="107" y="-437.5" font-family="Helvetica,sans-Serif" font-size="10.00">* disable()</text>
<text text-anchor="start" x="107" y="-426.5" font-family="Helvetica,sans-Serif" font-size="10.00">* disable()</text>
</a>
</g>
</g>
<!-- Node3&#45;&gt;Node2 -->
<g id="edge2" class="edge">
<title>Node3&#45;&gt;Node2</title>
<path fill="none" stroke="midnightblue" d="M175.5,-409.11C175.5,-373.28 175.5,-337.68 175.5,-311.08"/>
<polygon fill="none" stroke="midnightblue" points="172,-409.22 175.5,-419.22 179,-409.22 172,-409.22"/>
</g>
<!-- Node4 -->
<g id="node4" class="node">
<title>Node4</title>
<g id="a_node4"><a xlink:href="../../d4/d23/classDoublyLinkable.html" target="_top" xlink:title=" ">
<polygon fill="white" stroke="black" points="0,-860 0,-939 167,-939 167,-860 0,-860"/>
<text text-anchor="start" x="8" y="-927" font-family="Helvetica,sans-Serif" font-size="10.00">DoublyLinkable&lt; Updatable</text>
<text text-anchor="middle" x="83.5" y="-916" font-family="Helvetica,sans-Serif" font-size="10.00">&lt; NormalUpdatable, false &gt; &gt;</text>
<polyline fill="none" stroke="black" points="0,-909 167,-909 "/>
<text text-anchor="start" x="8" y="-897" font-family="Helvetica,sans-Serif" font-size="10.00"># next</text>
<text text-anchor="start" x="8" y="-886" font-family="Helvetica,sans-Serif" font-size="10.00"># previous</text>
<polyline fill="none" stroke="black" points="0,-879 167,-879 "/>
<text text-anchor="start" x="8" y="-867" font-family="Helvetica,sans-Serif" font-size="10.00"># ~DoublyLinkable()</text>
</a>
</g>
</g>
<!-- Node4&#45;&gt;Node3 -->
<g id="edge3" class="edge">
<title>Node4&#45;&gt;Node3</title>
<path fill="none" stroke="midnightblue" d="M96.61,-850.12C107.47,-810.06 123.45,-751.09 138.19,-696.68"/>
<polygon fill="none" stroke="midnightblue" points="93.2,-849.32 93.96,-859.89 99.96,-851.15 93.2,-849.32"/>
</g>
<!-- Node5 -->
<g id="node5" class="node">
<title>Node5</title>
<g id="a_node5"><a xlink:href="../../dd/d16/classDoublyLinkedList.html" target="_top" xlink:title=" ">
<polygon fill="white" stroke="black" points="185,-744.5 185,-1054.5 352,-1054.5 352,-744.5 185,-744.5"/>
<text text-anchor="start" x="193" y="-1042.5" font-family="Helvetica,sans-Serif" font-size="10.00">DoublyLinkedList&lt; Updatable</text>
<text text-anchor="middle" x="268.5" y="-1031.5" font-family="Helvetica,sans-Serif" font-size="10.00">&lt; NormalUpdatable, false &gt; &gt;</text>
<polyline fill="none" stroke="black" points="185,-1024.5 352,-1024.5 "/>
<text text-anchor="start" x="193" y="-1012.5" font-family="Helvetica,sans-Serif" font-size="10.00">&#45; first</text>
<text text-anchor="start" x="193" y="-1001.5" font-family="Helvetica,sans-Serif" font-size="10.00">&#45; last</text>
<polyline fill="none" stroke="black" points="185,-994.5 352,-994.5 "/>
<text text-anchor="start" x="193" y="-982.5" font-family="Helvetica,sans-Serif" font-size="10.00">+ append()</text>
<text text-anchor="start" x="193" y="-971.5" font-family="Helvetica,sans-Serif" font-size="10.00">+ append()</text>
<text text-anchor="start" x="193" y="-960.5" font-family="Helvetica,sans-Serif" font-size="10.00">+ insertBefore()</text>
<text text-anchor="start" x="193" y="-949.5" font-family="Helvetica,sans-Serif" font-size="10.00">+ insertBefore()</text>
<text text-anchor="start" x="193" y="-938.5" font-family="Helvetica,sans-Serif" font-size="10.00">+ insertSorted()</text>
<text text-anchor="start" x="193" y="-927.5" font-family="Helvetica,sans-Serif" font-size="10.00">+ insertSorted()</text>
<text text-anchor="start" x="193" y="-916.5" font-family="Helvetica,sans-Serif" font-size="10.00">+ remove()</text>
<text text-anchor="start" x="193" y="-905.5" font-family="Helvetica,sans-Serif" font-size="10.00">+ remove()</text>
<text text-anchor="start" x="193" y="-894.5" font-family="Helvetica,sans-Serif" font-size="10.00">+ moveDown()</text>
<text text-anchor="start" x="193" y="-883.5" font-family="Helvetica,sans-Serif" font-size="10.00">+ moveDown()</text>
<text text-anchor="start" x="193" y="-872.5" font-family="Helvetica,sans-Serif" font-size="10.00">+ couldContain()</text>
<text text-anchor="start" x="193" y="-861.5" font-family="Helvetica,sans-Serif" font-size="10.00">+ couldContain()</text>
<text text-anchor="start" x="193" y="-850.5" font-family="Helvetica,sans-Serif" font-size="10.00">+ begin()</text>
<text text-anchor="start" x="193" y="-839.5" font-family="Helvetica,sans-Serif" font-size="10.00">+ begin()</text>
<text text-anchor="start" x="193" y="-828.5" font-family="Helvetica,sans-Serif" font-size="10.00">+ end()</text>
<text text-anchor="start" x="193" y="-817.5" font-family="Helvetica,sans-Serif" font-size="10.00">+ end()</text>
<text text-anchor="start" x="193" y="-806.5" font-family="Helvetica,sans-Serif" font-size="10.00">+ rbegin()</text>
<text text-anchor="start" x="193" y="-795.5" font-family="Helvetica,sans-Serif" font-size="10.00">+ rbegin()</text>
<text text-anchor="start" x="193" y="-784.5" font-family="Helvetica,sans-Serif" font-size="10.00">+ rend()</text>
<text text-anchor="start" x="193" y="-773.5" font-family="Helvetica,sans-Serif" font-size="10.00">+ rend()</text>
<text text-anchor="start" x="193" y="-762.5" font-family="Helvetica,sans-Serif" font-size="10.00">+ getFirst()</text>
<text text-anchor="start" x="193" y="-751.5" font-family="Helvetica,sans-Serif" font-size="10.00">+ getLast()</text>
</a>
</g>
</g>
<!-- Node5&#45;&gt;Node3 -->
<g id="edge4" class="edge">
<title>Node5&#45;&gt;Node3</title>
<path fill="none" stroke="#404040" d="M226.22,-744.15C222.96,-732.26 219.68,-720.27 216.43,-708.41"/>
<polygon fill="none" stroke="#404040" points="216.37,-708.18 210.92,-703.45 213.2,-696.61 218.64,-701.34 216.37,-708.18"/>
<text text-anchor="middle" x="252.5" y="-718" font-family="Helvetica,sans-Serif" font-size="10.00"> #updatables</text>
</g>
<!-- Node6 -->
<g id="node6" class="node">
<title>Node6</title>
<g id="a_node6"><a xlink:href="../../dd/d29/classAH_1_1ButtonMatrix.html" target="_top" xlink:title=" ">
<polygon fill="white" stroke="black" points="250.5,-160.5 250.5,-371.5 442.5,-371.5 442.5,-160.5 250.5,-160.5"/>
<text text-anchor="start" x="258.5" y="-359.5" font-family="Helvetica,sans-Serif" font-size="10.00">ButtonMatrix&lt; MIDIButton</text>
<text text-anchor="start" x="258.5" y="-348.5" font-family="Helvetica,sans-Serif" font-size="10.00">Matrix&lt; Sender, NumRows,</text>
<text text-anchor="middle" x="346.5" y="-337.5" font-family="Helvetica,sans-Serif" font-size="10.00"> NumCols &gt;, NumRows, NumCols &gt;</text>
<polyline fill="none" stroke="black" points="250.5,-330.5 442.5,-330.5 "/>
<text text-anchor="start" x="258.5" y="-318.5" font-family="Helvetica,sans-Serif" font-size="10.00">&#45; debounceTime</text>
<text text-anchor="start" x="258.5" y="-307.5" font-family="Helvetica,sans-Serif" font-size="10.00">&#45; prevRefresh</text>
<text text-anchor="start" x="258.5" y="-296.5" font-family="Helvetica,sans-Serif" font-size="10.00">&#45; prevStates</text>
<polyline fill="none" stroke="black" points="250.5,-289.5 442.5,-289.5 "/>
<text text-anchor="start" x="258.5" y="-277.5" font-family="Helvetica,sans-Serif" font-size="10.00">+ ButtonMatrix()</text>
<text text-anchor="start" x="258.5" y="-266.5" font-family="Helvetica,sans-Serif" font-size="10.00">+ begin()</text>
<text text-anchor="start" x="258.5" y="-255.5" font-family="Helvetica,sans-Serif" font-size="10.00">+ update()</text>
<text text-anchor="start" x="258.5" y="-244.5" font-family="Helvetica,sans-Serif" font-size="10.00">+ getPrevState()</text>
<text text-anchor="start" x="258.5" y="-233.5" font-family="Helvetica,sans-Serif" font-size="10.00">+ setDebounceTime()</text>
<text text-anchor="start" x="258.5" y="-222.5" font-family="Helvetica,sans-Serif" font-size="10.00">+ getDebounceTime()</text>
<text text-anchor="start" x="258.5" y="-211.5" font-family="Helvetica,sans-Serif" font-size="10.00"># onButtonChanged()</text>
<text text-anchor="start" x="258.5" y="-200.5" font-family="Helvetica,sans-Serif" font-size="10.00">&#45; setPrevState()</text>
<text text-anchor="start" x="258.5" y="-189.5" font-family="Helvetica,sans-Serif" font-size="10.00">&#45; positionToBits()</text>
<text text-anchor="start" x="258.5" y="-178.5" font-family="Helvetica,sans-Serif" font-size="10.00">&#45; bitsToIndex()</text>
<text text-anchor="start" x="258.5" y="-167.5" font-family="Helvetica,sans-Serif" font-size="10.00">&#45; bitsToBitmask()</text>
</a>
</g>
</g>
<!-- Node6&#45;&gt;Node1 -->
<g id="edge5" class="edge">
<title>Node6&#45;&gt;Node1</title>
<path fill="none" stroke="midnightblue" d="M346.5,-150.29C346.5,-137.19 346.5,-124.33 346.5,-112.55"/>
<polygon fill="none" stroke="midnightblue" points="343,-150.34 346.5,-160.34 350,-150.34 343,-150.34"/>
</g>
<!-- Node7 -->
<g id="node7" class="node">
<title>Node7</title>
<g id="a_node7"><a xlink:href="../../d0/d32/structAH_1_1Array.html" target="_top" xlink:title=" ">
<polygon fill="white" stroke="black" points="280.5,-469 280.5,-647 390.5,-647 390.5,-469 280.5,-469"/>
<text text-anchor="middle" x="335.5" y="-635" font-family="Helvetica,sans-Serif" font-size="10.00">Array&lt; NumCols &gt;</text>
<polyline fill="none" stroke="black" points="280.5,-628 390.5,-628 "/>
<text text-anchor="start" x="288.5" y="-616" font-family="Helvetica,sans-Serif" font-size="10.00">+ data</text>
<text text-anchor="start" x="288.5" y="-605" font-family="Helvetica,sans-Serif" font-size="10.00">+ length</text>
<polyline fill="none" stroke="black" points="280.5,-598 390.5,-598 "/>
<text text-anchor="start" x="288.5" y="-586" font-family="Helvetica,sans-Serif" font-size="10.00">+ operator[]()</text>
<text text-anchor="start" x="288.5" y="-575" font-family="Helvetica,sans-Serif" font-size="10.00">+ operator[]()</text>
<text text-anchor="start" x="288.5" y="-564" font-family="Helvetica,sans-Serif" font-size="10.00">+ begin()</text>
<text text-anchor="start" x="288.5" y="-553" font-family="Helvetica,sans-Serif" font-size="10.00">+ begin()</text>
<text text-anchor="start" x="288.5" y="-542" font-family="Helvetica,sans-Serif" font-size="10.00">+ end()</text>
<text text-anchor="start" x="288.5" y="-531" font-family="Helvetica,sans-Serif" font-size="10.00">+ end()</text>
<text text-anchor="start" x="288.5" y="-520" font-family="Helvetica,sans-Serif" font-size="10.00">+ operator==()</text>
<text text-anchor="start" x="288.5" y="-509" font-family="Helvetica,sans-Serif" font-size="10.00">+ operator!=()</text>
<text text-anchor="start" x="288.5" y="-498" font-family="Helvetica,sans-Serif" font-size="10.00">+ slice()</text>
<text text-anchor="start" x="288.5" y="-487" font-family="Helvetica,sans-Serif" font-size="10.00">+ slice()</text>
<text text-anchor="start" x="288.5" y="-476" font-family="Helvetica,sans-Serif" font-size="10.00">+ cslice()</text>
</a>
</g>
</g>
<!-- Node7&#45;&gt;Node6 -->
<g id="edge6" class="edge">
<title>Node7&#45;&gt;Node6</title>
<path fill="none" stroke="#404040" d="M338.85,-468.81C339.86,-441.98 341,-412.07 342.07,-383.67"/>
<polygon fill="none" stroke="#404040" points="342.08,-383.59 338.31,-377.44 342.53,-371.6 346.3,-377.75 342.08,-383.59"/>
<text text-anchor="middle" x="363.5" y="-393" font-family="Helvetica,sans-Serif" font-size="10.00"> &#45;colPins</text>
</g>
<!-- Node8 -->
<g id="node8" class="node">
<title>Node8</title>
<g id="a_node8"><a xlink:href="../../d0/d32/structAH_1_1Array.html" target="_top" xlink:title=" ">
<polygon fill="white" stroke="black" points="409,-469 409,-647 524,-647 524,-469 409,-469"/>
<text text-anchor="middle" x="466.5" y="-635" font-family="Helvetica,sans-Serif" font-size="10.00">Array&lt; NumRows &gt;</text>
<polyline fill="none" stroke="black" points="409,-628 524,-628 "/>
<text text-anchor="start" x="417" y="-616" font-family="Helvetica,sans-Serif" font-size="10.00">+ data</text>
<text text-anchor="start" x="417" y="-605" font-family="Helvetica,sans-Serif" font-size="10.00">+ length</text>
<polyline fill="none" stroke="black" points="409,-598 524,-598 "/>
<text text-anchor="start" x="417" y="-586" font-family="Helvetica,sans-Serif" font-size="10.00">+ operator[]()</text>
<text text-anchor="start" x="417" y="-575" font-family="Helvetica,sans-Serif" font-size="10.00">+ operator[]()</text>
<text text-anchor="start" x="417" y="-564" font-family="Helvetica,sans-Serif" font-size="10.00">+ begin()</text>
<text text-anchor="start" x="417" y="-553" font-family="Helvetica,sans-Serif" font-size="10.00">+ begin()</text>
<text text-anchor="start" x="417" y="-542" font-family="Helvetica,sans-Serif" font-size="10.00">+ end()</text>
<text text-anchor="start" x="417" y="-531" font-family="Helvetica,sans-Serif" font-size="10.00">+ end()</text>
<text text-anchor="start" x="417" y="-520" font-family="Helvetica,sans-Serif" font-size="10.00">+ operator==()</text>
<text text-anchor="start" x="417" y="-509" font-family="Helvetica,sans-Serif" font-size="10.00">+ operator!=()</text>
<text text-anchor="start" x="417" y="-498" font-family="Helvetica,sans-Serif" font-size="10.00">+ slice()</text>
<text text-anchor="start" x="417" y="-487" font-family="Helvetica,sans-Serif" font-size="10.00">+ slice()</text>
<text text-anchor="start" x="417" y="-476" font-family="Helvetica,sans-Serif" font-size="10.00">+ cslice()</text>
</a>
</g>
</g>
<!-- Node8&#45;&gt;Node6 -->
<g id="edge7" class="edge">
<title>Node8&#45;&gt;Node6</title>
<path fill="none" stroke="#404040" d="M430.01,-468.81C418.81,-441.74 406.31,-411.53 394.46,-382.91"/>
<polygon fill="none" stroke="#404040" points="394.37,-382.69 388.38,-378.67 389.78,-371.6 395.77,-375.62 394.37,-382.69"/>
<text text-anchor="middle" x="422.5" y="-393" font-family="Helvetica,sans-Serif" font-size="10.00"> &#45;rowPins</text>
</g>
<!-- Node9 -->
<g id="node9" class="node">
<title>Node9</title>
<g id="a_node9"><a xlink:href="../../d7/d46/classMIDIChannelCable.html" target="_top" xlink:title="A class for saving a MIDI channel and cable number.">
<polygon fill="white" stroke="black" points="460.5,-177 460.5,-355 596.5,-355 596.5,-177 460.5,-177"/>
<text text-anchor="middle" x="528.5" y="-343" font-family="Helvetica,sans-Serif" font-size="10.00">MIDIChannelCable</text>
<polyline fill="none" stroke="black" points="460.5,-336 596.5,-336 "/>
<text text-anchor="start" x="468.5" y="-324" font-family="Helvetica,sans-Serif" font-size="10.00">&#45; addresses</text>
<polyline fill="none" stroke="black" points="460.5,-317 596.5,-317 "/>
<text text-anchor="start" x="468.5" y="-305" font-family="Helvetica,sans-Serif" font-size="10.00">* MIDIChannelCable()</text>
<text text-anchor="start" x="468.5" y="-294" font-family="Helvetica,sans-Serif" font-size="10.00">* MIDIChannelCable()</text>
<text text-anchor="start" x="468.5" y="-283" font-family="Helvetica,sans-Serif" font-size="10.00">* invalid()</text>
<text text-anchor="start" x="468.5" y="-272" font-family="Helvetica,sans-Serif" font-size="10.00">* getChannel()</text>
<text text-anchor="start" x="468.5" y="-261" font-family="Helvetica,sans-Serif" font-size="10.00">* getRawChannel()</text>
<text text-anchor="start" x="468.5" y="-250" font-family="Helvetica,sans-Serif" font-size="10.00">* getCableNumber()</text>
<text text-anchor="start" x="468.5" y="-239" font-family="Helvetica,sans-Serif" font-size="10.00">* getRawCableNumber()</text>
<text text-anchor="start" x="468.5" y="-228" font-family="Helvetica,sans-Serif" font-size="10.00">* operator==()</text>
<text text-anchor="start" x="468.5" y="-217" font-family="Helvetica,sans-Serif" font-size="10.00">* operator!=()</text>
<text text-anchor="start" x="468.5" y="-206" font-family="Helvetica,sans-Serif" font-size="10.00">* isValid()</text>
<text text-anchor="start" x="468.5" y="-195" font-family="Helvetica,sans-Serif" font-size="10.00">* operator bool()</text>
<text text-anchor="start" x="468.5" y="-184" font-family="Helvetica,sans-Serif" font-size="10.00">* matchSingle()</text>
</a>
</g>
</g>
<!-- Node9&#45;&gt;Node1 -->
<g id="edge8" class="edge">
<title>Node9&#45;&gt;Node1</title>
<path fill="none" stroke="#404040" d="M465.48,-176.78C460.85,-171.02 456.17,-165.38 451.5,-160 440.17,-146.95 427.47,-133.62 414.92,-121.07"/>
<polygon fill="none" stroke="#404040" points="414.81,-120.96 407.73,-119.59 406.28,-112.52 413.36,-113.9 414.81,-120.96"/>
<text text-anchor="middle" x="476" y="-134" font-family="Helvetica,sans-Serif" font-size="10.00"> &#45;baseChannelCN</text>
</g>
</g>
</svg>
