<?xml version="1.0" encoding="UTF-8" standalone="no"?>
<!DOCTYPE svg PUBLIC "-//W3C//DTD SVG 1.1//EN"
 "http://www.w3.org/Graphics/SVG/1.1/DTD/svg11.dtd">
<!-- Generated by graphviz version 2.40.1 (20161225.0304)
 -->
<!-- Title: USBMIDI_MIDIUSB.ipp Pages: 1 -->
<svg width="937pt" height="644pt"
 viewBox="0.00 0.00 936.50 644.00" xmlns="http://www.w3.org/2000/svg" xmlns:xlink="http://www.w3.org/1999/xlink">
<g id="graph0" class="graph" transform="scale(1 1) rotate(0) translate(4 640)">
<title>USBMIDI_MIDIUSB.ipp</title>
<polygon fill="#ffffff" stroke="transparent" points="-4,4 -4,-640 932.5,-640 932.5,4 -4,4"/>
<!-- Node1 -->
<g id="node1" class="node">
<title>Node1</title>
<g id="a_node1"><a xlink:title=" ">
<polygon fill="#bfbfbf" stroke="#000000" points="64,-616.5 64,-635.5 187,-635.5 187,-616.5 64,-616.5"/>
<text text-anchor="middle" x="125.5" y="-623.5" font-family="Helvetica,sans-Serif" font-size="10.00" fill="#000000">USBMIDI_MIDIUSB.ipp</text>
</a>
</g>
</g>
<!-- Node2 -->
<g id="node2" class="node">
<title>Node2</title>
<g id="a_node2"><a xlink:href="../../d1/d93/USBMIDI_8hpp.html" target="_top" xlink:title=" ">
<polygon fill="#ffffff" stroke="#000000" points="41.5,-560.5 41.5,-579.5 119.5,-579.5 119.5,-560.5 41.5,-560.5"/>
<text text-anchor="middle" x="80.5" y="-567.5" font-family="Helvetica,sans-Serif" font-size="10.00" fill="#000000">USBMIDI.hpp</text>
</a>
</g>
</g>
<!-- Node1&#45;&gt;Node2 -->
<g id="edge1" class="edge">
<title>Node1&#45;&gt;Node2</title>
<path fill="none" stroke="#191970" d="M117.6616,-616.2455C111.338,-608.3761 102.2776,-597.101 94.6864,-587.6542"/>
<polygon fill="#191970" stroke="#191970" points="97.2408,-585.2454 88.2486,-579.6427 91.7842,-589.6302 97.2408,-585.2454"/>
</g>
<!-- Node25 -->
<g id="node25" class="node">
<title>Node25</title>
<g id="a_node25"><a xlink:title=" ">
<polygon fill="#ffffff" stroke="#bfbfbf" points="137.5,-560.5 137.5,-579.5 205.5,-579.5 205.5,-560.5 137.5,-560.5"/>
<text text-anchor="middle" x="171.5" y="-567.5" font-family="Helvetica,sans-Serif" font-size="10.00" fill="#000000">MIDIUSB.h</text>
</a>
</g>
</g>
<!-- Node1&#45;&gt;Node25 -->
<g id="edge41" class="edge">
<title>Node1&#45;&gt;Node25</title>
<path fill="none" stroke="#191970" d="M133.5126,-616.2455C139.9768,-608.3761 149.2385,-597.101 156.9983,-587.6542"/>
<polygon fill="#191970" stroke="#191970" points="159.9364,-589.5916 163.5792,-579.6427 154.5273,-585.1484 159.9364,-589.5916"/>
</g>
<!-- Node3 -->
<g id="node3" class="node">
<title>Node3</title>
<g id="a_node3"><a xlink:href="../../de/d76/Array_8hpp.html" target="_top" xlink:title=" ">
<polygon fill="#ffffff" stroke="#000000" points="109.5,-504.5 109.5,-523.5 235.5,-523.5 235.5,-504.5 109.5,-504.5"/>
<text text-anchor="middle" x="172.5" y="-511.5" font-family="Helvetica,sans-Serif" font-size="10.00" fill="#000000">AH/Containers/Array.hpp</text>
</a>
</g>
</g>
<!-- Node2&#45;&gt;Node3 -->
<g id="edge2" class="edge">
<title>Node2&#45;&gt;Node3</title>
<path fill="none" stroke="#191970" d="M96.5252,-560.2455C110.6408,-551.6534 131.4263,-539.0014 147.6899,-529.1018"/>
<polygon fill="#191970" stroke="#191970" points="149.9363,-531.8319 156.6585,-523.6427 146.2966,-525.8525 149.9363,-531.8319"/>
</g>
<!-- Node14 -->
<g id="node14" class="node">
<title>Node14</title>
<g id="a_node14"><a xlink:title=" ">
<polygon fill="#ffffff" stroke="#bfbfbf" points="17,-168.5 17,-187.5 180,-187.5 180,-168.5 17,-168.5"/>
<text text-anchor="middle" x="98.5" y="-175.5" font-family="Helvetica,sans-Serif" font-size="10.00" fill="#000000">Settings/NamespaceSettings.hpp</text>
</a>
</g>
</g>
<!-- Node2&#45;&gt;Node14 -->
<g id="edge40" class="edge">
<title>Node2&#45;&gt;Node14</title>
<path fill="none" stroke="#191970" d="M72.0625,-560.2711C56.875,-541.723 26.5,-499.4461 26.5,-458 26.5,-458 26.5,-458 26.5,-290 26.5,-251.0554 57.684,-214.8622 79.0069,-194.6662"/>
<polygon fill="#191970" stroke="#191970" points="81.5769,-197.0595 86.6107,-187.7368 76.8619,-191.8856 81.5769,-197.0595"/>
</g>
<!-- Node4 -->
<g id="node4" class="node">
<title>Node4</title>
<g id="a_node4"><a xlink:href="../../d1/d65/Warnings_8hpp.html" target="_top" xlink:title=" ">
<polygon fill="#ffffff" stroke="#000000" points="676,-.5 676,-19.5 809,-19.5 809,-.5 676,-.5"/>
<text text-anchor="middle" x="742.5" y="-7.5" font-family="Helvetica,sans-Serif" font-size="10.00" fill="#000000">AH/Settings/Warnings.hpp</text>
</a>
</g>
</g>
<!-- Node3&#45;&gt;Node4 -->
<g id="edge3" class="edge">
<title>Node3&#45;&gt;Node4</title>
<path fill="none" stroke="#191970" d="M235.6558,-511.2607C417.3527,-502.5458 928.5,-471.8242 928.5,-402 928.5,-402 928.5,-402 928.5,-122 928.5,-64.5137 862.4889,-35.7718 809.1167,-21.9281"/>
<polygon fill="#191970" stroke="#191970" points="809.8638,-18.5076 799.3168,-19.513 808.1888,-25.3042 809.8638,-18.5076"/>
</g>
<!-- Node5 -->
<g id="node5" class="node">
<title>Node5</title>
<g id="a_node5"><a xlink:href="../../d1/d93/Error_8hpp.html" target="_top" xlink:title=" ">
<polygon fill="#ffffff" stroke="#000000" points="579.5,-448.5 579.5,-467.5 677.5,-467.5 677.5,-448.5 579.5,-448.5"/>
<text text-anchor="middle" x="628.5" y="-455.5" font-family="Helvetica,sans-Serif" font-size="10.00" fill="#000000">AH/Error/Error.hpp</text>
</a>
</g>
</g>
<!-- Node3&#45;&gt;Node5 -->
<g id="edge4" class="edge">
<title>Node3&#45;&gt;Node5</title>
<path fill="none" stroke="#191970" d="M235.9048,-506.2134C324.2074,-495.3693 483.0388,-475.8637 569.1311,-465.2909"/>
<polygon fill="#191970" stroke="#191970" points="569.7612,-468.7399 579.26,-464.047 568.9079,-461.7921 569.7612,-468.7399"/>
</g>
<!-- Node13 -->
<g id="node13" class="node">
<title>Node13</title>
<g id="a_node13"><a xlink:title=" ">
<polygon fill="#ffffff" stroke="#bfbfbf" points="0,-112.5 0,-131.5 101,-131.5 101,-112.5 0,-112.5"/>
<text text-anchor="middle" x="50.5" y="-119.5" font-family="Helvetica,sans-Serif" font-size="10.00" fill="#000000">AH/STL/type_traits</text>
</a>
</g>
</g>
<!-- Node3&#45;&gt;Node13 -->
<g id="edge38" class="edge">
<title>Node3&#45;&gt;Node13</title>
<path fill="none" stroke="#191970" d="M140.9958,-504.4403C122.3354,-497.2451 99.6469,-485.564 85.5,-468 4.4663,-367.3931 24.9945,-315.9927 7.5,-188 6.2962,-179.193 4.2372,-176.2684 7.5,-168 12.0469,-156.4774 20.9932,-146.143 29.5534,-138.2024"/>
<polygon fill="#191970" stroke="#191970" points="31.8938,-140.8057 37.169,-131.6175 27.3153,-135.5106 31.8938,-140.8057"/>
</g>
<!-- Node20 -->
<g id="node20" class="node">
<title>Node20</title>
<g id="a_node20"><a xlink:title=" ">
<polygon fill="#ffffff" stroke="#bfbfbf" points="182.5,-224.5 182.5,-243.5 234.5,-243.5 234.5,-224.5 182.5,-224.5"/>
<text text-anchor="middle" x="208.5" y="-231.5" font-family="Helvetica,sans-Serif" font-size="10.00" fill="#000000">stddef.h</text>
</a>
</g>
</g>
<!-- Node3&#45;&gt;Node20 -->
<g id="edge39" class="edge">
<title>Node3&#45;&gt;Node20</title>
<path fill="none" stroke="#191970" d="M177.8119,-504.4462C187.8259,-485.5117 208.5,-441.623 208.5,-402 208.5,-402 208.5,-402 208.5,-346 208.5,-313.7116 208.5,-276.1872 208.5,-253.8048"/>
<polygon fill="#191970" stroke="#191970" points="212.0001,-253.5883 208.5,-243.5884 205.0001,-253.5884 212.0001,-253.5883"/>
</g>
<!-- Node24 -->
<g id="node24" class="node">
<title>Node24</title>
<g id="a_node24"><a xlink:title=" ">
<polygon fill="#ffffff" stroke="#bfbfbf" points="95,-448.5 95,-467.5 180,-467.5 180,-448.5 95,-448.5"/>
<text text-anchor="middle" x="137.5" y="-455.5" font-family="Helvetica,sans-Serif" font-size="10.00" fill="#000000">AH/STL/iterator</text>
</a>
</g>
</g>
<!-- Node3&#45;&gt;Node24 -->
<g id="edge37" class="edge">
<title>Node3&#45;&gt;Node24</title>
<path fill="none" stroke="#191970" d="M166.4035,-504.2455C161.5855,-496.5367 154.7249,-485.5598 148.8968,-476.2348"/>
<polygon fill="#191970" stroke="#191970" points="151.7947,-474.2677 143.5267,-467.6427 145.8587,-477.9777 151.7947,-474.2677"/>
</g>
<!-- Node5&#45;&gt;Node4 -->
<g id="edge5" class="edge">
<title>Node5&#45;&gt;Node4</title>
<path fill="none" stroke="#191970" d="M673.5394,-448.4707C748.4491,-431.3107 890.5,-392.6235 890.5,-346 890.5,-346 890.5,-346 890.5,-122 890.5,-69.5755 830.7233,-38.5491 787.1495,-22.8967"/>
<polygon fill="#191970" stroke="#191970" points="788.1686,-19.5461 777.5739,-19.6065 785.8939,-26.1662 788.1686,-19.5461"/>
</g>
<!-- Node6 -->
<g id="node6" class="node">
<title>Node6</title>
<g id="a_node6"><a xlink:href="../../df/dee/Debug_8hpp.html" target="_top" xlink:title=" ">
<polygon fill="#ffffff" stroke="#000000" points="572,-392.5 572,-411.5 685,-411.5 685,-392.5 572,-392.5"/>
<text text-anchor="middle" x="628.5" y="-399.5" font-family="Helvetica,sans-Serif" font-size="10.00" fill="#000000">AH/Debug/Debug.hpp</text>
</a>
</g>
</g>
<!-- Node5&#45;&gt;Node6 -->
<g id="edge6" class="edge">
<title>Node5&#45;&gt;Node6</title>
<path fill="none" stroke="#191970" d="M628.5,-448.2455C628.5,-440.9382 628.5,-430.6944 628.5,-421.7046"/>
<polygon fill="#191970" stroke="#191970" points="632.0001,-421.6426 628.5,-411.6427 625.0001,-421.6427 632.0001,-421.6426"/>
</g>
<!-- Node6&#45;&gt;Node4 -->
<g id="edge7" class="edge">
<title>Node6&#45;&gt;Node4</title>
<path fill="none" stroke="#191970" d="M650.3007,-392.358C700.4414,-370.0136 820.6489,-315.4225 833.5,-300 853.0405,-276.5496 852.5,-264.5246 852.5,-234 852.5,-234 852.5,-234 852.5,-122 852.5,-76.2337 805.1699,-42.3178 772.6023,-24.3977"/>
<polygon fill="#191970" stroke="#191970" points="773.926,-21.1387 763.4491,-19.5625 770.6564,-27.3282 773.926,-21.1387"/>
</g>
<!-- Node7 -->
<g id="node7" class="node">
<title>Node7</title>
<g id="a_node7"><a xlink:href="../../dd/d80/PrintStream_8hpp.html" target="_top" xlink:title=" ">
<polygon fill="#ffffff" stroke="#000000" points="252,-224.5 252,-243.5 411,-243.5 411,-224.5 252,-224.5"/>
<text text-anchor="middle" x="331.5" y="-231.5" font-family="Helvetica,sans-Serif" font-size="10.00" fill="#000000">AH/PrintStream/PrintStream.hpp</text>
</a>
</g>
</g>
<!-- Node6&#45;&gt;Node7 -->
<g id="edge8" class="edge">
<title>Node6&#45;&gt;Node7</title>
<path fill="none" stroke="#191970" d="M606.7803,-392.4751C568.8565,-375.5534 488.5036,-338.4022 424.5,-300 398.4123,-284.3474 370.135,-263.7059 351.6961,-249.7044"/>
<polygon fill="#191970" stroke="#191970" points="353.7907,-246.9 343.7236,-243.5978 349.5341,-252.4572 353.7907,-246.9"/>
</g>
<!-- Node15 -->
<g id="node15" class="node">
<title>Node15</title>
<g id="a_node15"><a xlink:href="../../de/dd1/AH_2Settings_2SettingsWrapper_8hpp.html" target="_top" xlink:title=" ">
<polygon fill="#ffffff" stroke="#000000" points="546.5,-336.5 546.5,-355.5 710.5,-355.5 710.5,-336.5 546.5,-336.5"/>
<text text-anchor="middle" x="628.5" y="-343.5" font-family="Helvetica,sans-Serif" font-size="10.00" fill="#000000">AH/Settings/SettingsWrapper.hpp</text>
</a>
</g>
</g>
<!-- Node6&#45;&gt;Node15 -->
<g id="edge21" class="edge">
<title>Node6&#45;&gt;Node15</title>
<path fill="none" stroke="#191970" d="M623.2332,-392.2455C621.8221,-384.9382 621.4179,-374.6944 622.0205,-365.7046"/>
<polygon fill="#191970" stroke="#191970" points="625.5111,-365.9945 623.2549,-355.6427 618.5632,-365.1421 625.5111,-365.9945"/>
</g>
<!-- Node23 -->
<g id="node23" class="node">
<title>Node23</title>
<g id="a_node23"><a xlink:href="../../d7/d52/DebugVal_8hpp.html" target="_top" xlink:title=" ">
<polygon fill="#ffffff" stroke="#000000" points="784.5,-336.5 784.5,-355.5 862.5,-355.5 862.5,-336.5 784.5,-336.5"/>
<text text-anchor="middle" x="823.5" y="-343.5" font-family="Helvetica,sans-Serif" font-size="10.00" fill="#000000">DebugVal.hpp</text>
</a>
</g>
</g>
<!-- Node6&#45;&gt;Node23 -->
<g id="edge36" class="edge">
<title>Node6&#45;&gt;Node23</title>
<path fill="none" stroke="#191970" d="M662.0217,-392.3733C694.8683,-382.9404 745.0595,-368.5265 780.7578,-358.2747"/>
<polygon fill="#191970" stroke="#191970" points="781.7703,-361.6255 790.4157,-355.5011 779.8381,-354.8974 781.7703,-361.6255"/>
</g>
<!-- Node7&#45;&gt;Node4 -->
<g id="edge10" class="edge">
<title>Node7&#45;&gt;Node4</title>
<path fill="none" stroke="#191970" d="M331.3821,-224.24C331.5712,-202.3092 334.6159,-148.2202 358.5,-112 381.9931,-76.3726 396.9631,-72.0645 436.5,-56 476.868,-39.5978 588.9433,-25.5123 665.6411,-17.3934"/>
<polygon fill="#191970" stroke="#191970" points="666.1666,-20.8576 675.7482,-16.3362 665.4383,-13.8956 666.1666,-20.8576"/>
</g>
<!-- Node8 -->
<g id="node8" class="node">
<title>Node8</title>
<g id="a_node8"><a xlink:href="../../d6/db0/AH_2Settings_2NamespaceSettings_8hpp.html" target="_top" xlink:title=" ">
<polygon fill="#ffffff" stroke="#000000" points="465.5,-56.5 465.5,-75.5 645.5,-75.5 645.5,-56.5 465.5,-56.5"/>
<text text-anchor="middle" x="555.5" y="-63.5" font-family="Helvetica,sans-Serif" font-size="10.00" fill="#000000">AH/Settings/NamespaceSettings.hpp</text>
</a>
</g>
</g>
<!-- Node7&#45;&gt;Node8 -->
<g id="edge9" class="edge">
<title>Node7&#45;&gt;Node8</title>
<path fill="none" stroke="#191970" d="M352.359,-224.4228C385.9988,-208.3636 453.3255,-173.6377 501.5,-132 517.8551,-117.8641 533.1208,-98.3822 543.219,-84.2515"/>
<polygon fill="#191970" stroke="#191970" points="546.2279,-86.0553 549.0684,-75.8483 540.4827,-82.0561 546.2279,-86.0553"/>
</g>
<!-- Node9 -->
<g id="node9" class="node">
<title>Node9</title>
<g id="a_node9"><a xlink:href="../../d6/ddf/Arduino-Wrapper_8h.html" target="_top" xlink:title=" ">
<polygon fill="#ffffff" stroke="#000000" points="198,-168.5 198,-187.5 313,-187.5 313,-168.5 198,-168.5"/>
<text text-anchor="middle" x="255.5" y="-175.5" font-family="Helvetica,sans-Serif" font-size="10.00" fill="#000000">AH/Arduino&#45;Wrapper.h</text>
</a>
</g>
</g>
<!-- Node7&#45;&gt;Node9 -->
<g id="edge11" class="edge">
<title>Node7&#45;&gt;Node9</title>
<path fill="none" stroke="#191970" d="M318.2618,-224.2455C306.819,-215.814 290.0704,-203.4729 276.7525,-193.6598"/>
<polygon fill="#191970" stroke="#191970" points="278.7133,-190.757 268.5865,-187.6427 274.5609,-196.3924 278.7133,-190.757"/>
</g>
<!-- Node7&#45;&gt;Node14 -->
<g id="edge20" class="edge">
<title>Node7&#45;&gt;Node14</title>
<path fill="none" stroke="#191970" d="M291.7106,-224.4369C252.002,-214.8932 190.8896,-200.2052 148.0545,-189.9101"/>
<polygon fill="#191970" stroke="#191970" points="148.6663,-186.4575 138.1253,-187.5237 147.0305,-193.2637 148.6663,-186.4575"/>
</g>
<!-- Node10 -->
<g id="node10" class="node">
<title>Node10</title>
<g id="a_node10"><a xlink:href="../../d7/d79/MinMaxFix_8hpp.html" target="_top" xlink:title=" ">
<polygon fill="#ffffff" stroke="#000000" points="367,-112.5 367,-131.5 492,-131.5 492,-112.5 367,-112.5"/>
<text text-anchor="middle" x="429.5" y="-119.5" font-family="Helvetica,sans-Serif" font-size="10.00" fill="#000000">AH/Math/MinMaxFix.hpp</text>
</a>
</g>
</g>
<!-- Node9&#45;&gt;Node10 -->
<g id="edge12" class="edge">
<title>Node9&#45;&gt;Node10</title>
<path fill="none" stroke="#191970" d="M285.4117,-168.3733C314.3452,-159.0613 358.3611,-144.8953 390.1293,-134.671"/>
<polygon fill="#191970" stroke="#191970" points="391.5318,-137.8965 399.9787,-131.5011 389.3872,-131.2331 391.5318,-137.8965"/>
</g>
<!-- Node12 -->
<g id="node12" class="node">
<title>Node12</title>
<g id="a_node12"><a xlink:title=" ">
<polygon fill="#ffffff" stroke="#bfbfbf" points="179.5,-.5 179.5,-19.5 237.5,-19.5 237.5,-.5 179.5,-.5"/>
<text text-anchor="middle" x="208.5" y="-7.5" font-family="Helvetica,sans-Serif" font-size="10.00" fill="#000000">Arduino.h</text>
</a>
</g>
</g>
<!-- Node9&#45;&gt;Node12 -->
<g id="edge19" class="edge">
<title>Node9&#45;&gt;Node12</title>
<path fill="none" stroke="#191970" d="M244.0537,-168.4663C225.2269,-151.949 188.4252,-115.9273 174.5,-76 168.5111,-58.8283 179.4517,-40.5365 190.4797,-27.5754"/>
<polygon fill="#191970" stroke="#191970" points="193.3572,-29.6178 197.5623,-19.8932 188.2106,-24.873 193.3572,-29.6178"/>
</g>
<!-- Node9&#45;&gt;Node13 -->
<g id="edge18" class="edge">
<title>Node9&#45;&gt;Node13</title>
<path fill="none" stroke="#191970" d="M220.2592,-168.3733C185.5806,-158.9001 132.5117,-144.4032 94.9538,-134.1435"/>
<polygon fill="#191970" stroke="#191970" points="95.8498,-130.7601 85.2809,-131.5011 94.0051,-137.5126 95.8498,-130.7601"/>
</g>
<!-- Node10&#45;&gt;Node4 -->
<g id="edge13" class="edge">
<title>Node10&#45;&gt;Node4</title>
<path fill="none" stroke="#191970" d="M430.5402,-112.1556C432.651,-97.4575 438.8528,-70.0091 456.5,-56 488.0531,-30.9518 592.1303,-19.2388 665.5965,-13.9805"/>
<polygon fill="#191970" stroke="#191970" points="666.0134,-17.4601 675.749,-13.2806 665.532,-10.4767 666.0134,-17.4601"/>
</g>
<!-- Node10&#45;&gt;Node8 -->
<g id="edge17" class="edge">
<title>Node10&#45;&gt;Node8</title>
<path fill="none" stroke="#191970" d="M451.1602,-112.3733C471.4772,-103.3435 502.064,-89.7494 524.875,-79.6111"/>
<polygon fill="#191970" stroke="#191970" points="526.4059,-82.7609 534.1225,-75.5011 523.5628,-76.3642 526.4059,-82.7609"/>
</g>
<!-- Node11 -->
<g id="node11" class="node">
<title>Node11</title>
<g id="a_node11"><a xlink:href="../../d6/d3b/FixArduinoMacros_8hpp.html" target="_top" xlink:title=" ">
<polygon fill="#ffffff" stroke="#000000" points="183.5,-56.5 183.5,-75.5 339.5,-75.5 339.5,-56.5 183.5,-56.5"/>
<text text-anchor="middle" x="261.5" y="-63.5" font-family="Helvetica,sans-Serif" font-size="10.00" fill="#000000">AH/Math/FixArduinoMacros.hpp</text>
</a>
</g>
</g>
<!-- Node10&#45;&gt;Node11 -->
<g id="edge14" class="edge">
<title>Node10&#45;&gt;Node11</title>
<path fill="none" stroke="#191970" d="M400.6198,-112.3733C372.6839,-103.0613 330.1858,-88.8953 299.5131,-78.671"/>
<polygon fill="#191970" stroke="#191970" points="300.597,-75.3431 290.0034,-75.5011 298.3834,-81.9839 300.597,-75.3431"/>
</g>
<!-- Node11&#45;&gt;Node4 -->
<g id="edge15" class="edge">
<title>Node11&#45;&gt;Node4</title>
<path fill="none" stroke="#191970" d="M339.5833,-56.9092C429.5001,-46.4407 576.2748,-29.3526 665.6624,-18.9457"/>
<polygon fill="#191970" stroke="#191970" points="666.2069,-22.4061 675.735,-17.7731 665.3973,-15.4531 666.2069,-22.4061"/>
</g>
<!-- Node11&#45;&gt;Node12 -->
<g id="edge16" class="edge">
<title>Node11&#45;&gt;Node12</title>
<path fill="none" stroke="#191970" d="M252.2681,-56.2455C244.6683,-48.2155 233.7123,-36.6394 224.6632,-27.0781"/>
<polygon fill="#191970" stroke="#191970" points="227.042,-24.4998 217.6261,-19.6427 221.9579,-29.3115 227.042,-24.4998"/>
</g>
<!-- Node15&#45;&gt;Node4 -->
<g id="edge22" class="edge">
<title>Node15&#45;&gt;Node4</title>
<path fill="none" stroke="#191970" d="M628.4866,-336.4787C628.9983,-322.2026 632.108,-295.2979 647.5,-280 689.4152,-238.3411 728.6566,-280.0283 775.5,-244 802.5076,-223.2279 814.5,-212.0718 814.5,-178 814.5,-178 814.5,-178 814.5,-122 814.5,-83.0554 783.316,-46.8622 761.9931,-26.6662"/>
<polygon fill="#191970" stroke="#191970" points="764.1381,-23.8856 754.3893,-19.7368 759.4231,-29.0595 764.1381,-23.8856"/>
</g>
<!-- Node15&#45;&gt;Node6 -->
<g id="edge35" class="edge">
<title>Node15&#45;&gt;Node6</title>
<path fill="none" stroke="#191970" d="M633.7451,-355.6427C635.1665,-362.9199 635.581,-373.155 634.9887,-382.1575"/>
<polygon fill="#191970" stroke="#191970" points="631.4947,-381.8972 633.7668,-392.2455 638.4439,-382.739 631.4947,-381.8972"/>
</g>
<!-- Node15&#45;&gt;Node8 -->
<g id="edge23" class="edge">
<title>Node15&#45;&gt;Node8</title>
<path fill="none" stroke="#191970" d="M588.6718,-336.4533C545.929,-323.6943 481.0071,-296.3467 457.5,-244 436.4334,-197.0879 499.1853,-174.7847 524.5,-132 533.4524,-116.8694 541.8146,-98.7321 547.5925,-85.303"/>
<polygon fill="#191970" stroke="#191970" points="550.9848,-86.2648 551.634,-75.6898 544.5319,-83.5518 550.9848,-86.2648"/>
</g>
<!-- Node16 -->
<g id="node16" class="node">
<title>Node16</title>
<g id="a_node16"><a xlink:href="../../d5/d4f/AH_2Settings_2Settings_8hpp.html" target="_top" xlink:title="All user settings and debugging options can be changed here.">
<polygon fill="#ffffff" stroke="#000000" points="529,-280.5 529,-299.5 600,-299.5 600,-280.5 529,-280.5"/>
<text text-anchor="middle" x="564.5" y="-287.5" font-family="Helvetica,sans-Serif" font-size="10.00" fill="#000000">Settings.hpp</text>
</a>
</g>
</g>
<!-- Node15&#45;&gt;Node16 -->
<g id="edge24" class="edge">
<title>Node15&#45;&gt;Node16</title>
<path fill="none" stroke="#191970" d="M617.3521,-336.2455C607.9913,-328.0549 594.4142,-316.1749 583.3651,-306.5069"/>
<polygon fill="#191970" stroke="#191970" points="585.3508,-303.5937 575.5202,-299.6427 580.7412,-308.8618 585.3508,-303.5937"/>
</g>
<!-- Node22 -->
<g id="node22" class="node">
<title>Node22</title>
<g id="a_node22"><a xlink:href="../../d9/d98/TeensyUSBTypes_8hpp.html" target="_top" xlink:title=" ">
<polygon fill="#ffffff" stroke="#000000" points="656.5,-280.5 656.5,-299.5 824.5,-299.5 824.5,-280.5 656.5,-280.5"/>
<text text-anchor="middle" x="740.5" y="-287.5" font-family="Helvetica,sans-Serif" font-size="10.00" fill="#000000">AH/Teensy/TeensyUSBTypes.hpp</text>
</a>
</g>
</g>
<!-- Node15&#45;&gt;Node22 -->
<g id="edge34" class="edge">
<title>Node15&#45;&gt;Node22</title>
<path fill="none" stroke="#191970" d="M647.7535,-336.3733C665.5712,-327.4644 692.2747,-314.1127 712.4594,-304.0203"/>
<polygon fill="#191970" stroke="#191970" points="714.1187,-307.1038 721.4978,-299.5011 710.9882,-300.8428 714.1187,-307.1038"/>
</g>
<!-- Node17 -->
<g id="node17" class="node">
<title>Node17</title>
<g id="a_node17"><a xlink:href="../../dc/d50/Frequency_8hpp.html" target="_top" xlink:title=" ">
<polygon fill="#ffffff" stroke="#000000" points="586.5,-112.5 586.5,-131.5 714.5,-131.5 714.5,-112.5 586.5,-112.5"/>
<text text-anchor="middle" x="650.5" y="-119.5" font-family="Helvetica,sans-Serif" font-size="10.00" fill="#000000">AH/Types/Frequency.hpp</text>
</a>
</g>
</g>
<!-- Node16&#45;&gt;Node17 -->
<g id="edge25" class="edge">
<title>Node16&#45;&gt;Node17</title>
<path fill="none" stroke="#191970" d="M600.104,-282.6985C654.5032,-271.3756 752.5768,-250.2345 757.5,-244 789.4771,-203.5057 720.934,-158.5092 679.3328,-136.1787"/>
<polygon fill="#191970" stroke="#191970" points="680.8947,-133.0458 670.4113,-131.5128 677.6506,-139.2487 680.8947,-133.0458"/>
</g>
<!-- Node18 -->
<g id="node18" class="node">
<title>Node18</title>
<g id="a_node18"><a xlink:href="../../d7/d7c/ADCConfig_8hpp.html" target="_top" xlink:title="This file contains the platform&#45;specific ADC resolutions. By default, the library automatically selec...">
<polygon fill="#ffffff" stroke="#000000" points="466.5,-224.5 466.5,-243.5 614.5,-243.5 614.5,-224.5 466.5,-224.5"/>
<text text-anchor="middle" x="540.5" y="-231.5" font-family="Helvetica,sans-Serif" font-size="10.00" fill="#000000">AH/Hardware/ADCConfig.hpp</text>
</a>
</g>
</g>
<!-- Node16&#45;&gt;Node18 -->
<g id="edge28" class="edge">
<title>Node16&#45;&gt;Node18</title>
<path fill="none" stroke="#191970" d="M560.3195,-280.2455C557.119,-272.7776 552.604,-262.2427 548.6916,-253.1137"/>
<polygon fill="#191970" stroke="#191970" points="551.7888,-251.4554 544.6326,-243.6427 545.3548,-254.2129 551.7888,-251.4554"/>
</g>
<!-- Node19 -->
<g id="node19" class="node">
<title>Node19</title>
<g id="a_node19"><a xlink:title=" ">
<polygon fill="#ffffff" stroke="#bfbfbf" points="700.5,-224.5 700.5,-243.5 748.5,-243.5 748.5,-224.5 700.5,-224.5"/>
<text text-anchor="middle" x="724.5" y="-231.5" font-family="Helvetica,sans-Serif" font-size="10.00" fill="#000000">limits.h</text>
</a>
</g>
</g>
<!-- Node16&#45;&gt;Node19 -->
<g id="edge31" class="edge">
<title>Node16&#45;&gt;Node19</title>
<path fill="none" stroke="#191970" d="M592.005,-280.3733C619.3393,-270.8062 661.3126,-256.1156 690.6716,-245.8399"/>
<polygon fill="#191970" stroke="#191970" points="692.2032,-249.0121 700.4855,-242.4051 689.8907,-242.4051 692.2032,-249.0121"/>
</g>
<!-- Node16&#45;&gt;Node20 -->
<g id="edge32" class="edge">
<title>Node16&#45;&gt;Node20</title>
<path fill="none" stroke="#191970" d="M528.5941,-286.4665C470.7051,-280.4209 353.0633,-266.6967 244.573,-244.0017"/>
<polygon fill="#191970" stroke="#191970" points="245.2856,-240.5751 234.7768,-241.9223 243.8321,-247.4225 245.2856,-240.5751"/>
</g>
<!-- Node21 -->
<g id="node21" class="node">
<title>Node21</title>
<g id="a_node21"><a xlink:title=" ">
<polygon fill="#ffffff" stroke="#bfbfbf" points="633,-224.5 633,-243.5 682,-243.5 682,-224.5 633,-224.5"/>
<text text-anchor="middle" x="657.5" y="-231.5" font-family="Helvetica,sans-Serif" font-size="10.00" fill="#000000">stdint.h</text>
</a>
</g>
</g>
<!-- Node16&#45;&gt;Node21 -->
<g id="edge33" class="edge">
<title>Node16&#45;&gt;Node21</title>
<path fill="none" stroke="#191970" d="M580.6994,-280.2455C595.1018,-271.5731 616.3732,-258.7645 632.8799,-248.825"/>
<polygon fill="#191970" stroke="#191970" points="634.725,-251.7996 641.4863,-243.6427 631.114,-245.8028 634.725,-251.7996"/>
</g>
<!-- Node17&#45;&gt;Node4 -->
<g id="edge26" class="edge">
<title>Node17&#45;&gt;Node4</title>
<path fill="none" stroke="#191970" d="M658.3439,-112.4509C673.8242,-93.6054 708.5053,-51.3849 728.1727,-27.4419"/>
<polygon fill="#191970" stroke="#191970" points="731.0331,-29.4738 734.676,-19.5249 725.624,-25.0306 731.0331,-29.4738"/>
</g>
<!-- Node17&#45;&gt;Node8 -->
<g id="edge27" class="edge">
<title>Node17&#45;&gt;Node8</title>
<path fill="none" stroke="#191970" d="M633.9523,-112.2455C619.2401,-103.5731 597.5112,-90.7645 580.6495,-80.825"/>
<polygon fill="#191970" stroke="#191970" points="582.2502,-77.7057 571.8581,-75.6427 578.6954,-83.736 582.2502,-77.7057"/>
</g>
<!-- Node18&#45;&gt;Node4 -->
<g id="edge29" class="edge">
<title>Node18&#45;&gt;Node4</title>
<path fill="none" stroke="#191970" d="M576.2421,-224.4958C618.6491,-211.2361 688.0547,-182.8875 723.5,-132 744.9517,-101.2026 745.9477,-55.4634 744.4344,-29.6276"/>
<polygon fill="#191970" stroke="#191970" points="747.9179,-29.2781 743.6559,-19.5784 740.9388,-29.8189 747.9179,-29.2781"/>
</g>
<!-- Node18&#45;&gt;Node9 -->
<g id="edge30" class="edge">
<title>Node18&#45;&gt;Node9</title>
<path fill="none" stroke="#191970" d="M491.8306,-224.4369C442.5427,-214.7522 366.2952,-199.7703 313.8074,-189.4569"/>
<polygon fill="#191970" stroke="#191970" points="314.4559,-186.0175 303.9687,-187.5237 313.1062,-192.8861 314.4559,-186.0175"/>
</g>
</g>
</svg>
