<?xml version="1.0" encoding="UTF-8" standalone="no"?>
<!DOCTYPE svg PUBLIC "-//W3C//DTD SVG 1.1//EN"
 "http://www.w3.org/Graphics/SVG/1.1/DTD/svg11.dtd">
<!-- Generated by graphviz version 2.43.0 (0)
 -->
<!-- Title: MIDI_Pipes.hpp Pages: 1 -->
<svg width="1313pt" height="599pt"
 viewBox="0.00 0.00 1312.61 599.00" xmlns="http://www.w3.org/2000/svg" xmlns:xlink="http://www.w3.org/1999/xlink">
<g id="graph0" class="graph" transform="scale(1 1) rotate(0) translate(4 595)">
<title>MIDI_Pipes.hpp</title>
<polygon fill="white" stroke="transparent" points="-4,4 -4,-595 1308.61,-595 1308.61,4 -4,4"/>
<!-- Node1 -->
<g id="node1" class="node">
<title>Node1</title>
<g id="a_node1"><a xlink:title=" ">
<polygon fill="#bfbfbf" stroke="black" points="1030.11,-571.5 1030.11,-590.5 1122.11,-590.5 1122.11,-571.5 1030.11,-571.5"/>
<text text-anchor="middle" x="1076.11" y="-578.5" font-family="Helvetica,sans-Serif" font-size="10.00">MIDI_Pipes.hpp</text>
</a>
</g>
</g>
<!-- Node2 -->
<g id="node2" class="node">
<title>Node2</title>
<g id="a_node2"><a xlink:href="../../d1/d40/BitArray_8hpp.html" target="_top" xlink:title=" ">
<polygon fill="white" stroke="black" points="717.61,-515.5 717.61,-534.5 866.61,-534.5 866.61,-515.5 717.61,-515.5"/>
<text text-anchor="middle" x="792.11" y="-522.5" font-family="Helvetica,sans-Serif" font-size="10.00">AH/Containers/BitArray.hpp</text>
</a>
</g>
</g>
<!-- Node1&#45;&gt;Node2 -->
<g id="edge1" class="edge">
<title>Node1&#45;&gt;Node2</title>
<path fill="none" stroke="midnightblue" d="M1031.11,-571.44C981.15,-561.94 900.51,-546.61 846.91,-536.42"/>
<polygon fill="midnightblue" stroke="midnightblue" points="847.38,-532.95 836.9,-534.52 846.07,-539.82 847.38,-532.95"/>
</g>
<!-- Node3 -->
<g id="node3" class="node">
<title>Node3</title>
<g id="a_node3"><a xlink:href="../../d1/d65/Warnings_8hpp.html" target="_top" xlink:title=" ">
<polygon fill="white" stroke="black" points="589.61,-0.5 589.61,-19.5 732.61,-19.5 732.61,-0.5 589.61,-0.5"/>
<text text-anchor="middle" x="661.11" y="-7.5" font-family="Helvetica,sans-Serif" font-size="10.00">AH/Settings/Warnings.hpp</text>
</a>
</g>
</g>
<!-- Node1&#45;&gt;Node3 -->
<g id="edge39" class="edge">
<title>Node1&#45;&gt;Node3</title>
<path fill="none" stroke="midnightblue" d="M1097.57,-571.46C1131.35,-556.43 1193.11,-521.86 1193.11,-470 1193.11,-470 1193.11,-470 1193.11,-121 1193.11,-30.19 892.06,-13.76 742.89,-11.19"/>
<polygon fill="midnightblue" stroke="midnightblue" points="742.91,-7.69 732.86,-11.03 742.8,-14.69 742.91,-7.69"/>
</g>
<!-- Node13 -->
<g id="node13" class="node">
<title>Node13</title>
<g id="a_node13"><a xlink:title=" ">
<polygon fill="white" stroke="#bfbfbf" points="987.11,-224.5 987.11,-243.5 1165.11,-243.5 1165.11,-224.5 987.11,-224.5"/>
<text text-anchor="middle" x="1076.11" y="-231.5" font-family="Helvetica,sans-Serif" font-size="10.00">Settings/NamespaceSettings.hpp</text>
</a>
</g>
</g>
<!-- Node1&#45;&gt;Node13 -->
<g id="edge45" class="edge">
<title>Node1&#45;&gt;Node13</title>
<path fill="none" stroke="midnightblue" d="M1076.11,-571.44C1076.11,-552.94 1076.11,-507.81 1076.11,-470 1076.11,-470 1076.11,-470 1076.11,-356 1076.11,-319.71 1076.11,-277.31 1076.11,-253.56"/>
<polygon fill="midnightblue" stroke="midnightblue" points="1079.61,-253.51 1076.11,-243.51 1072.61,-253.51 1079.61,-253.51"/>
</g>
<!-- Node23 -->
<g id="node23" class="node">
<title>Node23</title>
<g id="a_node23"><a xlink:title=" ">
<polygon fill="white" stroke="#bfbfbf" points="1221.61,-515.5 1221.61,-534.5 1304.61,-534.5 1304.61,-515.5 1221.61,-515.5"/>
<text text-anchor="middle" x="1263.11" y="-522.5" font-family="Helvetica,sans-Serif" font-size="10.00">AH/STL/utility</text>
</a>
</g>
</g>
<!-- Node1&#45;&gt;Node23 -->
<g id="edge38" class="edge">
<title>Node1&#45;&gt;Node23</title>
<path fill="none" stroke="midnightblue" d="M1105.74,-571.44C1137.61,-562.24 1188.44,-547.56 1223.67,-537.39"/>
<polygon fill="midnightblue" stroke="midnightblue" points="1224.98,-540.65 1233.62,-534.52 1223.04,-533.93 1224.98,-540.65"/>
</g>
<!-- Node24 -->
<g id="node24" class="node">
<title>Node24</title>
<g id="a_node24"><a xlink:href="../../dc/d40/MIDI__MessageTypes_8hpp.html" target="_top" xlink:title=" ">
<polygon fill="white" stroke="black" points="882.11,-280.5 882.11,-310.5 1036.11,-310.5 1036.11,-280.5 882.11,-280.5"/>
<text text-anchor="start" x="890.11" y="-298.5" font-family="Helvetica,sans-Serif" font-size="10.00">MIDI_Parsers/MIDI_Message</text>
<text text-anchor="middle" x="959.11" y="-287.5" font-family="Helvetica,sans-Serif" font-size="10.00">Types.hpp</text>
</a>
</g>
</g>
<!-- Node1&#45;&gt;Node24 -->
<g id="edge40" class="edge">
<title>Node1&#45;&gt;Node24</title>
<path fill="none" stroke="midnightblue" d="M1064.41,-571.47C1042.87,-554.66 999.11,-514.99 999.11,-470 999.11,-470 999.11,-470 999.11,-412 999.11,-378.39 983.8,-342.16 972.12,-319.42"/>
<polygon fill="midnightblue" stroke="midnightblue" points="975.19,-317.72 967.4,-310.54 969.01,-321.01 975.19,-317.72"/>
</g>
<!-- Node2&#45;&gt;Node3 -->
<g id="edge2" class="edge">
<title>Node2&#45;&gt;Node3</title>
<path fill="none" stroke="midnightblue" d="M799.99,-515.33C815.2,-497.67 847.11,-455.64 847.11,-414 847.11,-414 847.11,-414 847.11,-121 847.11,-62.99 779.25,-34.93 725.51,-21.8"/>
<polygon fill="midnightblue" stroke="midnightblue" points="726.19,-18.36 715.66,-19.52 724.61,-25.18 726.19,-18.36"/>
</g>
<!-- Node4 -->
<g id="node4" class="node">
<title>Node4</title>
<g id="a_node4"><a xlink:href="../../d1/d93/Error_8hpp.html" target="_top" xlink:title=" ">
<polygon fill="white" stroke="black" points="383.11,-459.5 383.11,-478.5 487.11,-478.5 487.11,-459.5 383.11,-459.5"/>
<text text-anchor="middle" x="435.11" y="-466.5" font-family="Helvetica,sans-Serif" font-size="10.00">AH/Error/Error.hpp</text>
</a>
</g>
</g>
<!-- Node2&#45;&gt;Node4 -->
<g id="edge3" class="edge">
<title>Node2&#45;&gt;Node4</title>
<path fill="none" stroke="midnightblue" d="M735.54,-515.44C670.65,-505.63 564.57,-489.58 497.38,-479.42"/>
<polygon fill="midnightblue" stroke="midnightblue" points="497.76,-475.94 487.35,-477.9 496.71,-482.86 497.76,-475.94"/>
</g>
<!-- Node7 -->
<g id="node7" class="node">
<title>Node7</title>
<g id="a_node7"><a xlink:href="../../d6/db0/AH_2Settings_2NamespaceSettings_8hpp.html" target="_top" xlink:title=" ">
<polygon fill="white" stroke="black" points="28.61,-56.5 28.61,-75.5 223.61,-75.5 223.61,-56.5 28.61,-56.5"/>
<text text-anchor="middle" x="126.11" y="-63.5" font-family="Helvetica,sans-Serif" font-size="10.00">AH/Settings/NamespaceSettings.hpp</text>
</a>
</g>
</g>
<!-- Node2&#45;&gt;Node7 -->
<g id="edge36" class="edge">
<title>Node2&#45;&gt;Node7</title>
<path fill="none" stroke="midnightblue" d="M717.34,-521.38C520.16,-513.49 1.11,-485.88 1.11,-414 1.11,-414 1.11,-414 1.11,-356 1.11,-241.6 23.03,-209.36 83.11,-112 89.82,-101.13 99.5,-90.7 107.98,-82.63"/>
<polygon fill="midnightblue" stroke="midnightblue" points="110.58,-84.99 115.6,-75.67 105.86,-79.82 110.58,-84.99"/>
</g>
<!-- Node20 -->
<g id="node20" class="node">
<title>Node20</title>
<g id="a_node20"><a xlink:title=" ">
<polygon fill="white" stroke="#bfbfbf" points="765.61,-224.5 765.61,-243.5 818.61,-243.5 818.61,-224.5 765.61,-224.5"/>
<text text-anchor="middle" x="792.11" y="-231.5" font-family="Helvetica,sans-Serif" font-size="10.00">stdint.h</text>
</a>
</g>
</g>
<!-- Node2&#45;&gt;Node20 -->
<g id="edge37" class="edge">
<title>Node2&#45;&gt;Node20</title>
<path fill="none" stroke="midnightblue" d="M792.11,-515.44C792.11,-496.94 792.11,-451.81 792.11,-414 792.11,-414 792.11,-414 792.11,-356 792.11,-319.71 792.11,-277.31 792.11,-253.56"/>
<polygon fill="midnightblue" stroke="midnightblue" points="795.61,-253.51 792.11,-243.51 788.61,-253.51 795.61,-253.51"/>
</g>
<!-- Node4&#45;&gt;Node3 -->
<g id="edge4" class="edge">
<title>Node4&#45;&gt;Node3</title>
<path fill="none" stroke="midnightblue" d="M386.17,-459.43C272.67,-436.45 1.11,-362.31 1.11,-179 1.11,-179 1.11,-179 1.11,-121 1.11,-90.9 -3.33,-74.88 20.11,-56 62.66,-21.71 415.62,-13.55 578.86,-11.61"/>
<polygon fill="midnightblue" stroke="midnightblue" points="579.38,-15.1 589.34,-11.49 579.3,-8.1 579.38,-15.1"/>
</g>
<!-- Node5 -->
<g id="node5" class="node">
<title>Node5</title>
<g id="a_node5"><a xlink:href="../../df/dee/Debug_8hpp.html" target="_top" xlink:title=" ">
<polygon fill="white" stroke="black" points="374.61,-403.5 374.61,-422.5 495.61,-422.5 495.61,-403.5 374.61,-403.5"/>
<text text-anchor="middle" x="435.11" y="-410.5" font-family="Helvetica,sans-Serif" font-size="10.00">AH/Debug/Debug.hpp</text>
</a>
</g>
</g>
<!-- Node4&#45;&gt;Node5 -->
<g id="edge5" class="edge">
<title>Node4&#45;&gt;Node5</title>
<path fill="none" stroke="midnightblue" d="M435.11,-459.08C435.11,-452.01 435.11,-441.86 435.11,-432.99"/>
<polygon fill="midnightblue" stroke="midnightblue" points="438.61,-432.75 435.11,-422.75 431.61,-432.75 438.61,-432.75"/>
</g>
<!-- Node5&#45;&gt;Node3 -->
<g id="edge6" class="edge">
<title>Node5&#45;&gt;Node3</title>
<path fill="none" stroke="midnightblue" d="M495.63,-404.56C536.31,-398.08 590.45,-386.57 635.11,-367 685.58,-344.88 737.11,-351.61 737.11,-296.5 737.11,-296.5 737.11,-296.5 737.11,-121 737.11,-81.28 703.14,-45.5 680.63,-26.15"/>
<polygon fill="midnightblue" stroke="midnightblue" points="682.59,-23.24 672.65,-19.57 678.13,-28.63 682.59,-23.24"/>
</g>
<!-- Node6 -->
<g id="node6" class="node">
<title>Node6</title>
<g id="a_node6"><a xlink:href="../../dd/d80/PrintStream_8hpp.html" target="_top" xlink:title=" ">
<polygon fill="white" stroke="black" points="174.61,-286 174.61,-305 347.61,-305 347.61,-286 174.61,-286"/>
<text text-anchor="middle" x="261.11" y="-293" font-family="Helvetica,sans-Serif" font-size="10.00">AH/PrintStream/PrintStream.hpp</text>
</a>
</g>
</g>
<!-- Node5&#45;&gt;Node6 -->
<g id="edge7" class="edge">
<title>Node5&#45;&gt;Node6</title>
<path fill="none" stroke="midnightblue" d="M411.04,-403.43C390.49,-395.54 360.61,-382.71 337.11,-367 313.63,-351.31 290.37,-328.36 275.89,-312.95"/>
<polygon fill="midnightblue" stroke="midnightblue" points="278.16,-310.24 268.81,-305.26 273.01,-314.98 278.16,-310.24"/>
</g>
<!-- Node14 -->
<g id="node14" class="node">
<title>Node14</title>
<g id="a_node14"><a xlink:href="../../de/dd1/AH_2Settings_2SettingsWrapper_8hpp.html" target="_top" xlink:title=" ">
<polygon fill="white" stroke="black" points="346.11,-347.5 346.11,-366.5 524.11,-366.5 524.11,-347.5 346.11,-347.5"/>
<text text-anchor="middle" x="435.11" y="-354.5" font-family="Helvetica,sans-Serif" font-size="10.00">AH/Settings/SettingsWrapper.hpp</text>
</a>
</g>
</g>
<!-- Node5&#45;&gt;Node14 -->
<g id="edge20" class="edge">
<title>Node5&#45;&gt;Node14</title>
<path fill="none" stroke="midnightblue" d="M429.94,-403.08C428.43,-395.93 428,-385.64 428.65,-376.69"/>
<polygon fill="midnightblue" stroke="midnightblue" points="432.12,-377.13 429.98,-366.75 425.19,-376.2 432.12,-377.13"/>
</g>
<!-- Node22 -->
<g id="node22" class="node">
<title>Node22</title>
<g id="a_node22"><a xlink:href="../../d7/d52/DebugVal_8hpp.html" target="_top" xlink:title=" ">
<polygon fill="white" stroke="black" points="542.11,-347.5 542.11,-366.5 626.11,-366.5 626.11,-347.5 542.11,-347.5"/>
<text text-anchor="middle" x="584.11" y="-354.5" font-family="Helvetica,sans-Serif" font-size="10.00">DebugVal.hpp</text>
</a>
</g>
</g>
<!-- Node5&#45;&gt;Node22 -->
<g id="edge35" class="edge">
<title>Node5&#45;&gt;Node22</title>
<path fill="none" stroke="midnightblue" d="M458.72,-403.44C483.57,-394.44 522.88,-380.19 550.86,-370.05"/>
<polygon fill="midnightblue" stroke="midnightblue" points="552.4,-373.21 560.61,-366.52 550.02,-366.63 552.4,-373.21"/>
</g>
<!-- Node6&#45;&gt;Node3 -->
<g id="edge9" class="edge">
<title>Node6&#45;&gt;Node3</title>
<path fill="none" stroke="midnightblue" d="M333.7,-285.97C442.69,-273.01 636.57,-249.3 642.11,-244 701.61,-187.12 678.76,-74.12 666.69,-29.63"/>
<polygon fill="midnightblue" stroke="midnightblue" points="670.02,-28.53 663.92,-19.87 663.29,-30.44 670.02,-28.53"/>
</g>
<!-- Node6&#45;&gt;Node7 -->
<g id="edge8" class="edge">
<title>Node6&#45;&gt;Node7</title>
<path fill="none" stroke="midnightblue" d="M254.91,-285.86C242.18,-267.97 212.4,-225.42 190.11,-188 168.81,-152.25 146.71,-108.8 134.87,-84.91"/>
<polygon fill="midnightblue" stroke="midnightblue" points="137.88,-83.1 130.32,-75.67 131.6,-86.19 137.88,-83.1"/>
</g>
<!-- Node8 -->
<g id="node8" class="node">
<title>Node8</title>
<g id="a_node8"><a xlink:href="../../d6/ddf/Arduino-Wrapper_8h.html" target="_top" xlink:title=" ">
<polygon fill="white" stroke="black" points="199.11,-168.5 199.11,-187.5 323.11,-187.5 323.11,-168.5 199.11,-168.5"/>
<text text-anchor="middle" x="261.11" y="-175.5" font-family="Helvetica,sans-Serif" font-size="10.00">AH/Arduino&#45;Wrapper.h</text>
</a>
</g>
</g>
<!-- Node6&#45;&gt;Node8 -->
<g id="edge10" class="edge">
<title>Node6&#45;&gt;Node8</title>
<path fill="none" stroke="midnightblue" d="M261.11,-285.82C261.11,-267.26 261.11,-223.34 261.11,-197.97"/>
<polygon fill="midnightblue" stroke="midnightblue" points="264.61,-197.78 261.11,-187.78 257.61,-197.78 264.61,-197.78"/>
</g>
<!-- Node6&#45;&gt;Node13 -->
<g id="edge19" class="edge">
<title>Node6&#45;&gt;Node13</title>
<path fill="none" stroke="midnightblue" d="M335.33,-285.98C355.07,-283.86 376.38,-281.71 396.11,-280 396.11,-280 787.83,-254.08 976.65,-241.58"/>
<polygon fill="midnightblue" stroke="midnightblue" points="977.11,-245.06 986.86,-240.91 976.65,-238.07 977.11,-245.06"/>
</g>
<!-- Node9 -->
<g id="node9" class="node">
<title>Node9</title>
<g id="a_node9"><a xlink:href="../../d7/d79/MinMaxFix_8hpp.html" target="_top" xlink:title=" ">
<polygon fill="white" stroke="black" points="181.11,-112.5 181.11,-131.5 317.11,-131.5 317.11,-112.5 181.11,-112.5"/>
<text text-anchor="middle" x="249.11" y="-119.5" font-family="Helvetica,sans-Serif" font-size="10.00">AH/Math/MinMaxFix.hpp</text>
</a>
</g>
</g>
<!-- Node8&#45;&gt;Node9 -->
<g id="edge11" class="edge">
<title>Node8&#45;&gt;Node9</title>
<path fill="none" stroke="midnightblue" d="M259.13,-168.08C257.54,-160.93 255.25,-150.64 253.26,-141.69"/>
<polygon fill="midnightblue" stroke="midnightblue" points="256.64,-140.75 251.05,-131.75 249.81,-142.27 256.64,-140.75"/>
</g>
<!-- Node11 -->
<g id="node11" class="node">
<title>Node11</title>
<g id="a_node11"><a xlink:title=" ">
<polygon fill="white" stroke="#bfbfbf" points="113.61,-0.5 113.61,-19.5 176.61,-19.5 176.61,-0.5 113.61,-0.5"/>
<text text-anchor="middle" x="145.11" y="-7.5" font-family="Helvetica,sans-Serif" font-size="10.00">Arduino.h</text>
</a>
</g>
</g>
<!-- Node8&#45;&gt;Node11 -->
<g id="edge18" class="edge">
<title>Node8&#45;&gt;Node11</title>
<path fill="none" stroke="midnightblue" d="M199.1,-170.07C141.78,-160.01 59.68,-135.49 20.11,-76 -2.7,-41.71 58.57,-24.41 103.19,-16.58"/>
<polygon fill="midnightblue" stroke="midnightblue" points="103.97,-20 113.26,-14.92 102.83,-13.09 103.97,-20"/>
</g>
<!-- Node12 -->
<g id="node12" class="node">
<title>Node12</title>
<g id="a_node12"><a xlink:title=" ">
<polygon fill="white" stroke="#bfbfbf" points="335.61,-112.5 335.61,-131.5 442.61,-131.5 442.61,-112.5 335.61,-112.5"/>
<text text-anchor="middle" x="389.11" y="-119.5" font-family="Helvetica,sans-Serif" font-size="10.00">AH/STL/type_traits</text>
</a>
</g>
</g>
<!-- Node8&#45;&gt;Node12 -->
<g id="edge17" class="edge">
<title>Node8&#45;&gt;Node12</title>
<path fill="none" stroke="midnightblue" d="M281.39,-168.44C302.46,-159.56 335.63,-145.56 359.59,-135.45"/>
<polygon fill="midnightblue" stroke="midnightblue" points="361.07,-138.63 368.92,-131.52 358.35,-132.18 361.07,-138.63"/>
</g>
<!-- Node9&#45;&gt;Node3 -->
<g id="edge12" class="edge">
<title>Node9&#45;&gt;Node3</title>
<path fill="none" stroke="midnightblue" d="M290.05,-112.47C325.3,-104.61 377.26,-91.79 421.11,-76 440.94,-68.86 444.17,-62.83 464.11,-56 508.84,-40.68 561.07,-29.02 600.51,-21.41"/>
<polygon fill="midnightblue" stroke="midnightblue" points="601.33,-24.82 610.5,-19.52 600.03,-17.94 601.33,-24.82"/>
</g>
<!-- Node9&#45;&gt;Node7 -->
<g id="edge16" class="edge">
<title>Node9&#45;&gt;Node7</title>
<path fill="none" stroke="midnightblue" d="M229.62,-112.44C209.47,-103.6 177.79,-89.69 154.78,-79.59"/>
<polygon fill="midnightblue" stroke="midnightblue" points="156.07,-76.33 145.51,-75.52 153.26,-82.74 156.07,-76.33"/>
</g>
<!-- Node10 -->
<g id="node10" class="node">
<title>Node10</title>
<g id="a_node10"><a xlink:href="../../d6/d3b/FixArduinoMacros_8hpp.html" target="_top" xlink:title=" ">
<polygon fill="white" stroke="black" points="242.11,-56.5 242.11,-75.5 412.11,-75.5 412.11,-56.5 242.11,-56.5"/>
<text text-anchor="middle" x="327.11" y="-63.5" font-family="Helvetica,sans-Serif" font-size="10.00">AH/Math/FixArduinoMacros.hpp</text>
</a>
</g>
</g>
<!-- Node9&#45;&gt;Node10 -->
<g id="edge13" class="edge">
<title>Node9&#45;&gt;Node10</title>
<path fill="none" stroke="midnightblue" d="M261.64,-112.32C273.7,-103.98 292.14,-91.21 306.38,-81.35"/>
<polygon fill="midnightblue" stroke="midnightblue" points="308.38,-84.22 314.61,-75.65 304.39,-78.47 308.38,-84.22"/>
</g>
<!-- Node10&#45;&gt;Node3 -->
<g id="edge14" class="edge">
<title>Node10&#45;&gt;Node3</title>
<path fill="none" stroke="midnightblue" d="M380.03,-56.44C439.28,-46.87 535.21,-31.36 598.23,-21.17"/>
<polygon fill="midnightblue" stroke="midnightblue" points="599.12,-24.57 608.43,-19.52 598,-17.66 599.12,-24.57"/>
</g>
<!-- Node10&#45;&gt;Node11 -->
<g id="edge15" class="edge">
<title>Node10&#45;&gt;Node11</title>
<path fill="none" stroke="midnightblue" d="M298.27,-56.44C267.25,-47.24 217.78,-32.56 183.49,-22.39"/>
<polygon fill="midnightblue" stroke="midnightblue" points="184.4,-19.01 173.81,-19.52 182.4,-25.72 184.4,-19.01"/>
</g>
<!-- Node14&#45;&gt;Node3 -->
<g id="edge21" class="edge">
<title>Node14&#45;&gt;Node3</title>
<path fill="none" stroke="midnightblue" d="M424.12,-347.37C414.66,-339.17 401.67,-325.92 396.11,-311 382.59,-274.77 382.88,-260.33 396.11,-224 435.3,-116.33 567.42,-49.48 629.01,-23.45"/>
<polygon fill="midnightblue" stroke="midnightblue" points="630.36,-26.68 638.26,-19.62 627.68,-20.21 630.36,-26.68"/>
</g>
<!-- Node14&#45;&gt;Node5 -->
<g id="edge34" class="edge">
<title>Node14&#45;&gt;Node5</title>
<path fill="none" stroke="midnightblue" d="M440.24,-366.75C441.77,-373.86 442.21,-384.14 441.58,-393.1"/>
<polygon fill="midnightblue" stroke="midnightblue" points="438.1,-392.71 440.28,-403.08 445.04,-393.62 438.1,-392.71"/>
</g>
<!-- Node14&#45;&gt;Node7 -->
<g id="edge22" class="edge">
<title>Node14&#45;&gt;Node7</title>
<path fill="none" stroke="midnightblue" d="M345.86,-353.06C291.71,-348.42 222.44,-337.26 166.11,-311 118.97,-289.02 77.11,-287.02 77.11,-235 77.11,-235 77.11,-235 77.11,-177 77.11,-141.47 98.71,-104.63 113.23,-83.88"/>
<polygon fill="midnightblue" stroke="midnightblue" points="116.24,-85.69 119.3,-75.54 110.58,-81.57 116.24,-85.69"/>
</g>
<!-- Node15 -->
<g id="node15" class="node">
<title>Node15</title>
<g id="a_node15"><a xlink:href="../../d5/d4f/AH_2Settings_2Settings_8hpp.html" target="_top" xlink:title="All user settings and debugging options can be changed here.">
<polygon fill="white" stroke="black" points="613.61,-286 613.61,-305 690.61,-305 690.61,-286 613.61,-286"/>
<text text-anchor="middle" x="652.11" y="-293" font-family="Helvetica,sans-Serif" font-size="10.00">Settings.hpp</text>
</a>
</g>
</g>
<!-- Node14&#45;&gt;Node15 -->
<g id="edge23" class="edge">
<title>Node14&#45;&gt;Node15</title>
<path fill="none" stroke="midnightblue" d="M466.2,-347.48C504.39,-337 569.28,-319.21 611.41,-307.66"/>
<polygon fill="midnightblue" stroke="midnightblue" points="612.36,-311.03 621.08,-305.01 610.51,-304.28 612.36,-311.03"/>
</g>
<!-- Node21 -->
<g id="node21" class="node">
<title>Node21</title>
<g id="a_node21"><a xlink:href="../../d9/d98/TeensyUSBTypes_8hpp.html" target="_top" xlink:title=" ">
<polygon fill="white" stroke="black" points="404.61,-286 404.61,-305 577.61,-305 577.61,-286 404.61,-286"/>
<text text-anchor="middle" x="491.11" y="-293" font-family="Helvetica,sans-Serif" font-size="10.00">AH/Teensy/TeensyUSBTypes.hpp</text>
</a>
</g>
</g>
<!-- Node14&#45;&gt;Node21 -->
<g id="edge33" class="edge">
<title>Node14&#45;&gt;Node21</title>
<path fill="none" stroke="midnightblue" d="M443.13,-347.48C451.7,-338.37 465.47,-323.74 476.07,-312.48"/>
<polygon fill="midnightblue" stroke="midnightblue" points="478.8,-314.69 483.1,-305.01 473.7,-309.89 478.8,-314.69"/>
</g>
<!-- Node16 -->
<g id="node16" class="node">
<title>Node16</title>
<g id="a_node16"><a xlink:href="../../dc/d50/Frequency_8hpp.html" target="_top" xlink:title=" ">
<polygon fill="white" stroke="black" points="499.11,-112.5 499.11,-131.5 633.11,-131.5 633.11,-112.5 499.11,-112.5"/>
<text text-anchor="middle" x="566.11" y="-119.5" font-family="Helvetica,sans-Serif" font-size="10.00">AH/Types/Frequency.hpp</text>
</a>
</g>
</g>
<!-- Node15&#45;&gt;Node16 -->
<g id="edge24" class="edge">
<title>Node15&#45;&gt;Node16</title>
<path fill="none" stroke="midnightblue" d="M652.25,-285.89C652.17,-272.24 650.82,-245.01 642.11,-224 628.13,-190.27 600.22,-157.72 582.39,-139.07"/>
<polygon fill="midnightblue" stroke="midnightblue" points="584.71,-136.44 575.22,-131.74 579.71,-141.33 584.71,-136.44"/>
</g>
<!-- Node17 -->
<g id="node17" class="node">
<title>Node17</title>
<g id="a_node17"><a xlink:href="../../d7/d7c/ADCConfig_8hpp.html" target="_top" xlink:title="This file contains the platform&#45;specific ADC resolutions. By default, the library automatically selec...">
<polygon fill="white" stroke="black" points="475.61,-224.5 475.61,-243.5 632.61,-243.5 632.61,-224.5 475.61,-224.5"/>
<text text-anchor="middle" x="554.11" y="-231.5" font-family="Helvetica,sans-Serif" font-size="10.00">AH/Hardware/ADCConfig.hpp</text>
</a>
</g>
</g>
<!-- Node15&#45;&gt;Node17 -->
<g id="edge27" class="edge">
<title>Node15&#45;&gt;Node17</title>
<path fill="none" stroke="midnightblue" d="M638.07,-285.98C622.06,-276.25 595.66,-260.23 576.74,-248.74"/>
<polygon fill="midnightblue" stroke="midnightblue" points="578.49,-245.71 568.12,-243.51 574.86,-251.69 578.49,-245.71"/>
</g>
<!-- Node18 -->
<g id="node18" class="node">
<title>Node18</title>
<g id="a_node18"><a xlink:title=" ">
<polygon fill="white" stroke="#bfbfbf" points="404.61,-224.5 404.61,-243.5 457.61,-243.5 457.61,-224.5 404.61,-224.5"/>
<text text-anchor="middle" x="431.11" y="-231.5" font-family="Helvetica,sans-Serif" font-size="10.00">limits.h</text>
</a>
</g>
</g>
<!-- Node15&#45;&gt;Node18 -->
<g id="edge30" class="edge">
<title>Node15&#45;&gt;Node18</title>
<path fill="none" stroke="midnightblue" d="M620.45,-285.98C580,-275.09 510.17,-256.28 467.55,-244.81"/>
<polygon fill="midnightblue" stroke="midnightblue" points="468.43,-241.42 457.86,-242.2 466.61,-248.18 468.43,-241.42"/>
</g>
<!-- Node19 -->
<g id="node19" class="node">
<title>Node19</title>
<g id="a_node19"><a xlink:title=" ">
<polygon fill="white" stroke="#bfbfbf" points="875.11,-224.5 875.11,-243.5 931.11,-243.5 931.11,-224.5 875.11,-224.5"/>
<text text-anchor="middle" x="903.11" y="-231.5" font-family="Helvetica,sans-Serif" font-size="10.00">stddef.h</text>
</a>
</g>
</g>
<!-- Node15&#45;&gt;Node19 -->
<g id="edge31" class="edge">
<title>Node15&#45;&gt;Node19</title>
<path fill="none" stroke="midnightblue" d="M688.07,-285.98C735.05,-274.84 816.96,-255.42 864.98,-244.04"/>
<polygon fill="midnightblue" stroke="midnightblue" points="866.06,-247.38 874.98,-241.67 864.44,-240.57 866.06,-247.38"/>
</g>
<!-- Node15&#45;&gt;Node20 -->
<g id="edge32" class="edge">
<title>Node15&#45;&gt;Node20</title>
<path fill="none" stroke="midnightblue" d="M672.17,-285.98C695.87,-275.9 735.51,-259.05 762.69,-247.5"/>
<polygon fill="midnightblue" stroke="midnightblue" points="764.25,-250.64 772.09,-243.51 761.52,-244.2 764.25,-250.64"/>
</g>
<!-- Node16&#45;&gt;Node3 -->
<g id="edge25" class="edge">
<title>Node16&#45;&gt;Node3</title>
<path fill="none" stroke="midnightblue" d="M573.56,-112.37C589.38,-94.05 626.52,-51.05 646.98,-27.36"/>
<polygon fill="midnightblue" stroke="midnightblue" points="649.8,-29.45 653.69,-19.59 644.5,-24.87 649.8,-29.45"/>
</g>
<!-- Node16&#45;&gt;Node7 -->
<g id="edge26" class="edge">
<title>Node16&#45;&gt;Node7</title>
<path fill="none" stroke="midnightblue" d="M498.8,-112.74C419.92,-103.06 289.35,-87.03 205.57,-76.75"/>
<polygon fill="midnightblue" stroke="midnightblue" points="205.94,-73.27 195.59,-75.53 205.09,-80.22 205.94,-73.27"/>
</g>
<!-- Node17&#45;&gt;Node3 -->
<g id="edge28" class="edge">
<title>Node17&#45;&gt;Node3</title>
<path fill="none" stroke="midnightblue" d="M564.92,-224.31C584.01,-208.29 623.44,-172.05 642.11,-132 657.78,-98.39 660.92,-54.42 661.32,-29.81"/>
<polygon fill="midnightblue" stroke="midnightblue" points="664.82,-29.69 661.35,-19.68 657.82,-29.67 664.82,-29.69"/>
</g>
<!-- Node17&#45;&gt;Node8 -->
<g id="edge29" class="edge">
<title>Node17&#45;&gt;Node8</title>
<path fill="none" stroke="midnightblue" d="M507.68,-224.44C456.03,-214.92 372.6,-199.55 317.3,-189.36"/>
<polygon fill="midnightblue" stroke="midnightblue" points="317.79,-185.89 307.32,-187.52 316.52,-192.77 317.79,-185.89"/>
</g>
<!-- Node24&#45;&gt;Node3 -->
<g id="edge41" class="edge">
<title>Node24&#45;&gt;Node3</title>
<path fill="none" stroke="midnightblue" d="M959.11,-280.28C959.11,-258.48 959.11,-215.49 959.11,-179 959.11,-179 959.11,-179 959.11,-121 959.11,-71.48 812.47,-37.31 724.92,-21.32"/>
<polygon fill="midnightblue" stroke="midnightblue" points="725.54,-17.87 715.07,-19.55 724.3,-24.76 725.54,-17.87"/>
</g>
<!-- Node24&#45;&gt;Node13 -->
<g id="edge42" class="edge">
<title>Node24&#45;&gt;Node13</title>
<path fill="none" stroke="midnightblue" d="M986.84,-280.4C1005.94,-270.68 1031.17,-257.86 1049.93,-248.31"/>
<polygon fill="midnightblue" stroke="midnightblue" points="1051.76,-251.31 1059.08,-243.66 1048.58,-245.07 1051.76,-251.31"/>
</g>
<!-- Node24&#45;&gt;Node19 -->
<g id="edge43" class="edge">
<title>Node24&#45;&gt;Node19</title>
<path fill="none" stroke="midnightblue" d="M945.84,-280.4C937.53,-271.58 926.81,-260.18 918.18,-251.02"/>
<polygon fill="midnightblue" stroke="midnightblue" points="920.66,-248.54 911.26,-243.66 915.56,-253.34 920.66,-248.54"/>
</g>
<!-- Node24&#45;&gt;Node20 -->
<g id="edge44" class="edge">
<title>Node24&#45;&gt;Node20</title>
<path fill="none" stroke="midnightblue" d="M919.53,-280.4C891.01,-270.24 852.94,-256.67 825.85,-247.02"/>
<polygon fill="midnightblue" stroke="midnightblue" points="827,-243.72 816.41,-243.66 824.65,-250.31 827,-243.72"/>
</g>
</g>
</svg>
