<?xml version="1.0" encoding="UTF-8" standalone="no"?>
<!DOCTYPE svg PUBLIC "-//W3C//DTD SVG 1.1//EN"
 "http://www.w3.org/Graphics/SVG/1.1/DTD/svg11.dtd">
<!-- Generated by graphviz version 2.40.1 (20161225.0304)
 -->
<!-- Title: GenericIncrementDecrementSelector&lt; N, Callback &gt; Pages: 1 -->
<svg width="490pt" height="1318pt"
 viewBox="0.00 0.00 489.50 1318.00" xmlns="http://www.w3.org/2000/svg" xmlns:xlink="http://www.w3.org/1999/xlink">
<g id="graph0" class="graph" transform="scale(1 1) rotate(0) translate(4 1314)">
<title>GenericIncrementDecrementSelector&lt; N, Callback &gt;</title>
<polygon fill="#ffffff" stroke="transparent" points="-4,4 -4,-1314 485.5,-1314 485.5,4 -4,4"/>
<!-- Node1 -->
<g id="node1" class="node">
<title>Node1</title>
<g id="a_node1"><a xlink:title=" ">
<polygon fill="#bfbfbf" stroke="#000000" points="189,-.5 189,-123.5 340,-123.5 340,-.5 189,-.5"/>
<text text-anchor="start" x="197" y="-111.5" font-family="Helvetica,sans-Serif" font-size="10.00" fill="#000000">GenericIncrementDecrement</text>
<text text-anchor="middle" x="264.5" y="-100.5" font-family="Helvetica,sans-Serif" font-size="10.00" fill="#000000">Selector&lt; N, Callback &gt;</text>
<polyline fill="none" stroke="#000000" points="189,-93.5 340,-93.5 "/>
<text text-anchor="start" x="197" y="-81.5" font-family="Helvetica,sans-Serif" font-size="10.00" fill="#000000">&#45; wrap</text>
<polyline fill="none" stroke="#000000" points="189,-74.5 340,-74.5 "/>
<text text-anchor="start" x="197" y="-62.5" font-family="Helvetica,sans-Serif" font-size="10.00" fill="#000000">+ GenericIncrementDecrement</text>
<text text-anchor="start" x="197" y="-51.5" font-family="Helvetica,sans-Serif" font-size="10.00" fill="#000000">Selector()</text>
<text text-anchor="start" x="197" y="-40.5" font-family="Helvetica,sans-Serif" font-size="10.00" fill="#000000">+ begin()</text>
<text text-anchor="start" x="197" y="-29.5" font-family="Helvetica,sans-Serif" font-size="10.00" fill="#000000">+ update()</text>
<text text-anchor="start" x="197" y="-18.5" font-family="Helvetica,sans-Serif" font-size="10.00" fill="#000000">+ invert()</text>
<text text-anchor="start" x="197" y="-7.5" font-family="Helvetica,sans-Serif" font-size="10.00" fill="#000000">+ getButtonsState()</text>
</a>
</g>
</g>
<!-- Node2 -->
<g id="node2" class="node">
<title>Node2</title>
<g id="a_node2"><a xlink:href="../../d0/d04/classGenericSelector.html" target="_top" xlink:title=" ">
<polygon fill="#ffffff" stroke="#000000" points="119,-171.5 119,-305.5 250,-305.5 250,-171.5 119,-171.5"/>
<text text-anchor="start" x="127" y="-293.5" font-family="Helvetica,sans-Serif" font-size="10.00" fill="#000000">GenericSelector&lt; N,</text>
<text text-anchor="middle" x="184.5" y="-282.5" font-family="Helvetica,sans-Serif" font-size="10.00" fill="#000000"> EmptySelectorCallback &gt;</text>
<polyline fill="none" stroke="#000000" points="119,-275.5 250,-275.5 "/>
<text text-anchor="start" x="127" y="-263.5" font-family="Helvetica,sans-Serif" font-size="10.00" fill="#000000">&#45; selectable</text>
<polyline fill="none" stroke="#000000" points="119,-256.5 250,-256.5 "/>
<text text-anchor="start" x="127" y="-244.5" font-family="Helvetica,sans-Serif" font-size="10.00" fill="#000000">+ GenericSelector()</text>
<text text-anchor="start" x="127" y="-233.5" font-family="Helvetica,sans-Serif" font-size="10.00" fill="#000000">+ begin()</text>
<text text-anchor="start" x="127" y="-222.5" font-family="Helvetica,sans-Serif" font-size="10.00" fill="#000000">+ update()</text>
<text text-anchor="start" x="127" y="-211.5" font-family="Helvetica,sans-Serif" font-size="10.00" fill="#000000">+ reset()</text>
<text text-anchor="start" x="127" y="-200.5" font-family="Helvetica,sans-Serif" font-size="10.00" fill="#000000">+ set()</text>
<text text-anchor="start" x="127" y="-189.5" font-family="Helvetica,sans-Serif" font-size="10.00" fill="#000000">+ increment()</text>
<text text-anchor="start" x="127" y="-178.5" font-family="Helvetica,sans-Serif" font-size="10.00" fill="#000000">+ decrement()</text>
</a>
</g>
</g>
<!-- Node2&#45;&gt;Node1 -->
<g id="edge1" class="edge">
<title>Node2&#45;&gt;Node1</title>
<path fill="none" stroke="#191970" d="M219.1799,-161.9876C225.0047,-149.1365 230.9827,-135.9474 236.6081,-123.5366"/>
<polygon fill="none" stroke="#191970" points="215.9133,-160.7164 214.9728,-171.2694 222.289,-163.6063 215.9133,-160.7164"/>
</g>
<!-- Node3 -->
<g id="node3" class="node">
<title>Node3</title>
<g id="a_node3"><a xlink:href="../../dc/d77/classSelectorBase.html" target="_top" xlink:title="Base class for all Selectors exposing the get method, so it can be used by display elements etc,...">
<polygon fill="#ffffff" stroke="#000000" points="0,-447 0,-515 89,-515 89,-447 0,-447"/>
<text text-anchor="middle" x="44.5" y="-503" font-family="Helvetica,sans-Serif" font-size="10.00" fill="#000000">SelectorBase</text>
<polyline fill="none" stroke="#000000" points="0,-496 89,-496 "/>
<text text-anchor="start" x="8" y="-484" font-family="Helvetica,sans-Serif" font-size="10.00" fill="#000000"># setting</text>
<polyline fill="none" stroke="#000000" points="0,-477 89,-477 "/>
<text text-anchor="start" x="8" y="-465" font-family="Helvetica,sans-Serif" font-size="10.00" fill="#000000">+ get()</text>
<text text-anchor="start" x="8" y="-454" font-family="Helvetica,sans-Serif" font-size="10.00" fill="#000000"># SelectorBase()</text>
</a>
</g>
</g>
<!-- Node3&#45;&gt;Node2 -->
<g id="edge2" class="edge">
<title>Node3&#45;&gt;Node2</title>
<path fill="none" stroke="#191970" d="M62.4071,-437.6889C72.2028,-415.2462 85.0609,-387.6589 98.5,-364 109.5889,-344.4786 122.7951,-324.0849 135.4901,-305.5503"/>
<polygon fill="none" stroke="#191970" points="59.1524,-436.3975 58.4036,-446.9658 65.5795,-439.1711 59.1524,-436.3975"/>
</g>
<!-- Node4 -->
<g id="node4" class="node">
<title>Node4</title>
<g id="a_node4"><a xlink:href="../../d1/d55/classAH_1_1Updatable.html" target="_top" xlink:title=" ">
<polygon fill="#ffffff" stroke="#000000" points="107.5,-375.5 107.5,-586.5 189.5,-586.5 189.5,-375.5 107.5,-375.5"/>
<text text-anchor="middle" x="148.5" y="-574.5" font-family="Helvetica,sans-Serif" font-size="10.00" fill="#000000">Updatable&lt;&gt;</text>
<polyline fill="none" stroke="#000000" points="107.5,-567.5 189.5,-567.5 "/>
<text text-anchor="middle" x="148.5" y="-555.5" font-family="Helvetica,sans-Serif" font-size="10.00" fill="#000000"> </text>
<polyline fill="none" stroke="#000000" points="107.5,-548.5 189.5,-548.5 "/>
<text text-anchor="start" x="115.5" y="-536.5" font-family="Helvetica,sans-Serif" font-size="10.00" fill="#000000">+ ~Updatable()</text>
<text text-anchor="start" x="115.5" y="-525.5" font-family="Helvetica,sans-Serif" font-size="10.00" fill="#000000"># Updatable()</text>
<text text-anchor="start" x="115.5" y="-514.5" font-family="Helvetica,sans-Serif" font-size="10.00" fill="#000000">* begin()</text>
<text text-anchor="start" x="115.5" y="-503.5" font-family="Helvetica,sans-Serif" font-size="10.00" fill="#000000">* update()</text>
<text text-anchor="start" x="115.5" y="-492.5" font-family="Helvetica,sans-Serif" font-size="10.00" fill="#000000">* beginAll()</text>
<text text-anchor="start" x="115.5" y="-481.5" font-family="Helvetica,sans-Serif" font-size="10.00" fill="#000000">* updateAll()</text>
<text text-anchor="start" x="115.5" y="-470.5" font-family="Helvetica,sans-Serif" font-size="10.00" fill="#000000">* enable()</text>
<text text-anchor="start" x="115.5" y="-459.5" font-family="Helvetica,sans-Serif" font-size="10.00" fill="#000000">* disable()</text>
<text text-anchor="start" x="115.5" y="-448.5" font-family="Helvetica,sans-Serif" font-size="10.00" fill="#000000">* isEnabled()</text>
<text text-anchor="start" x="115.5" y="-437.5" font-family="Helvetica,sans-Serif" font-size="10.00" fill="#000000">* enable()</text>
<text text-anchor="start" x="115.5" y="-426.5" font-family="Helvetica,sans-Serif" font-size="10.00" fill="#000000">* enable()</text>
<text text-anchor="start" x="115.5" y="-415.5" font-family="Helvetica,sans-Serif" font-size="10.00" fill="#000000">* enable()</text>
<text text-anchor="start" x="115.5" y="-404.5" font-family="Helvetica,sans-Serif" font-size="10.00" fill="#000000">* disable()</text>
<text text-anchor="start" x="115.5" y="-393.5" font-family="Helvetica,sans-Serif" font-size="10.00" fill="#000000">* disable()</text>
<text text-anchor="start" x="115.5" y="-382.5" font-family="Helvetica,sans-Serif" font-size="10.00" fill="#000000">* disable()</text>
</a>
</g>
</g>
<!-- Node4&#45;&gt;Node2 -->
<g id="edge3" class="edge">
<title>Node4&#45;&gt;Node2</title>
<path fill="none" stroke="#191970" d="M165.6698,-365.3425C168.7017,-344.9191 171.7651,-324.2835 174.5149,-305.7604"/>
<polygon fill="none" stroke="#191970" points="162.1919,-364.9358 164.1854,-375.3414 169.116,-365.9638 162.1919,-364.9358"/>
</g>
<!-- Node5 -->
<g id="node5" class="node">
<title>Node5</title>
<g id="a_node5"><a xlink:href="../../d4/d23/classDoublyLinkable.html" target="_top" xlink:title=" ">
<polygon fill="#ffffff" stroke="#000000" points="55,-1230.5 55,-1309.5 192,-1309.5 192,-1230.5 55,-1230.5"/>
<text text-anchor="start" x="63" y="-1297.5" font-family="Helvetica,sans-Serif" font-size="10.00" fill="#000000">DoublyLinkable&lt; Updatable</text>
<text text-anchor="middle" x="123.5" y="-1286.5" font-family="Helvetica,sans-Serif" font-size="10.00" fill="#000000">&lt; NormalUpdatable &gt; &gt;</text>
<polyline fill="none" stroke="#000000" points="55,-1279.5 192,-1279.5 "/>
<text text-anchor="start" x="63" y="-1267.5" font-family="Helvetica,sans-Serif" font-size="10.00" fill="#000000"># next</text>
<text text-anchor="start" x="63" y="-1256.5" font-family="Helvetica,sans-Serif" font-size="10.00" fill="#000000"># previous</text>
<polyline fill="none" stroke="#000000" points="55,-1249.5 192,-1249.5 "/>
<text text-anchor="start" x="63" y="-1237.5" font-family="Helvetica,sans-Serif" font-size="10.00" fill="#000000"># ~DoublyLinkable()</text>
</a>
</g>
</g>
<!-- Node5&#45;&gt;Node4 -->
<g id="edge4" class="edge">
<title>Node5&#45;&gt;Node4</title>
<path fill="none" stroke="#191970" d="M122.4054,-1220.3987C120.4328,-1114.571 117.5983,-858.8453 130.5,-645 131.6385,-626.1298 133.3863,-606.0889 135.3537,-586.7352"/>
<polygon fill="none" stroke="#191970" points="118.9073,-1220.5343 122.599,-1230.4651 125.906,-1220.3996 118.9073,-1220.5343"/>
</g>
<!-- Node7 -->
<g id="node7" class="node">
<title>Node7</title>
<g id="a_node7"><a xlink:href="../../d1/d55/classAH_1_1Updatable.html" target="_top" xlink:title=" ">
<polygon fill="#ffffff" stroke="#000000" points="140,-981.5 140,-1192.5 295,-1192.5 295,-981.5 140,-981.5"/>
<text text-anchor="middle" x="217.5" y="-1180.5" font-family="Helvetica,sans-Serif" font-size="10.00" fill="#000000">Updatable&lt; NormalUpdatable &gt;</text>
<polyline fill="none" stroke="#000000" points="140,-1173.5 295,-1173.5 "/>
<text text-anchor="middle" x="217.5" y="-1161.5" font-family="Helvetica,sans-Serif" font-size="10.00" fill="#000000"> </text>
<polyline fill="none" stroke="#000000" points="140,-1154.5 295,-1154.5 "/>
<text text-anchor="start" x="148" y="-1142.5" font-family="Helvetica,sans-Serif" font-size="10.00" fill="#000000">+ ~Updatable()</text>
<text text-anchor="start" x="148" y="-1131.5" font-family="Helvetica,sans-Serif" font-size="10.00" fill="#000000"># Updatable()</text>
<text text-anchor="start" x="148" y="-1120.5" font-family="Helvetica,sans-Serif" font-size="10.00" fill="#000000">* begin()</text>
<text text-anchor="start" x="148" y="-1109.5" font-family="Helvetica,sans-Serif" font-size="10.00" fill="#000000">* update()</text>
<text text-anchor="start" x="148" y="-1098.5" font-family="Helvetica,sans-Serif" font-size="10.00" fill="#000000">* beginAll()</text>
<text text-anchor="start" x="148" y="-1087.5" font-family="Helvetica,sans-Serif" font-size="10.00" fill="#000000">* updateAll()</text>
<text text-anchor="start" x="148" y="-1076.5" font-family="Helvetica,sans-Serif" font-size="10.00" fill="#000000">* enable()</text>
<text text-anchor="start" x="148" y="-1065.5" font-family="Helvetica,sans-Serif" font-size="10.00" fill="#000000">* disable()</text>
<text text-anchor="start" x="148" y="-1054.5" font-family="Helvetica,sans-Serif" font-size="10.00" fill="#000000">* isEnabled()</text>
<text text-anchor="start" x="148" y="-1043.5" font-family="Helvetica,sans-Serif" font-size="10.00" fill="#000000">* enable()</text>
<text text-anchor="start" x="148" y="-1032.5" font-family="Helvetica,sans-Serif" font-size="10.00" fill="#000000">* enable()</text>
<text text-anchor="start" x="148" y="-1021.5" font-family="Helvetica,sans-Serif" font-size="10.00" fill="#000000">* enable()</text>
<text text-anchor="start" x="148" y="-1010.5" font-family="Helvetica,sans-Serif" font-size="10.00" fill="#000000">* disable()</text>
<text text-anchor="start" x="148" y="-999.5" font-family="Helvetica,sans-Serif" font-size="10.00" fill="#000000">* disable()</text>
<text text-anchor="start" x="148" y="-988.5" font-family="Helvetica,sans-Serif" font-size="10.00" fill="#000000">* disable()</text>
</a>
</g>
</g>
<!-- Node5&#45;&gt;Node7 -->
<g id="edge7" class="edge">
<title>Node5&#45;&gt;Node7</title>
<path fill="none" stroke="#191970" d="M148.5591,-1221.2147C153.1693,-1212.2396 158.1426,-1202.5575 163.2325,-1192.6485"/>
<polygon fill="none" stroke="#191970" points="145.3524,-1219.7974 143.8966,-1230.2917 151.579,-1222.9958 145.3524,-1219.7974"/>
</g>
<!-- Node6 -->
<g id="node6" class="node">
<title>Node6</title>
<g id="a_node6"><a xlink:href="../../dd/d16/classDoublyLinkedList.html" target="_top" xlink:title=" ">
<polygon fill="#ffffff" stroke="#000000" points="139.5,-645.5 139.5,-922.5 309.5,-922.5 309.5,-645.5 139.5,-645.5"/>
<text text-anchor="start" x="147.5" y="-910.5" font-family="Helvetica,sans-Serif" font-size="10.00" fill="#000000">DoublyLinkedList&lt; AH</text>
<text text-anchor="middle" x="224.5" y="-899.5" font-family="Helvetica,sans-Serif" font-size="10.00" fill="#000000">::Updatable&lt; NormalUpdatable &gt; &gt;</text>
<polyline fill="none" stroke="#000000" points="139.5,-892.5 309.5,-892.5 "/>
<text text-anchor="middle" x="224.5" y="-880.5" font-family="Helvetica,sans-Serif" font-size="10.00" fill="#000000"> </text>
<polyline fill="none" stroke="#000000" points="139.5,-873.5 309.5,-873.5 "/>
<text text-anchor="start" x="147.5" y="-861.5" font-family="Helvetica,sans-Serif" font-size="10.00" fill="#000000">+ append()</text>
<text text-anchor="start" x="147.5" y="-850.5" font-family="Helvetica,sans-Serif" font-size="10.00" fill="#000000">+ append()</text>
<text text-anchor="start" x="147.5" y="-839.5" font-family="Helvetica,sans-Serif" font-size="10.00" fill="#000000">+ insertBefore()</text>
<text text-anchor="start" x="147.5" y="-828.5" font-family="Helvetica,sans-Serif" font-size="10.00" fill="#000000">+ insertBefore()</text>
<text text-anchor="start" x="147.5" y="-817.5" font-family="Helvetica,sans-Serif" font-size="10.00" fill="#000000">+ insertSorted()</text>
<text text-anchor="start" x="147.5" y="-806.5" font-family="Helvetica,sans-Serif" font-size="10.00" fill="#000000">+ insertSorted()</text>
<text text-anchor="start" x="147.5" y="-795.5" font-family="Helvetica,sans-Serif" font-size="10.00" fill="#000000">+ remove()</text>
<text text-anchor="start" x="147.5" y="-784.5" font-family="Helvetica,sans-Serif" font-size="10.00" fill="#000000">+ remove()</text>
<text text-anchor="start" x="147.5" y="-773.5" font-family="Helvetica,sans-Serif" font-size="10.00" fill="#000000">+ moveDown()</text>
<text text-anchor="start" x="147.5" y="-762.5" font-family="Helvetica,sans-Serif" font-size="10.00" fill="#000000">+ couldContain()</text>
<text text-anchor="start" x="147.5" y="-751.5" font-family="Helvetica,sans-Serif" font-size="10.00" fill="#000000">+ begin()</text>
<text text-anchor="start" x="147.5" y="-740.5" font-family="Helvetica,sans-Serif" font-size="10.00" fill="#000000">+ begin()</text>
<text text-anchor="start" x="147.5" y="-729.5" font-family="Helvetica,sans-Serif" font-size="10.00" fill="#000000">+ end()</text>
<text text-anchor="start" x="147.5" y="-718.5" font-family="Helvetica,sans-Serif" font-size="10.00" fill="#000000">+ end()</text>
<text text-anchor="start" x="147.5" y="-707.5" font-family="Helvetica,sans-Serif" font-size="10.00" fill="#000000">+ rbegin()</text>
<text text-anchor="start" x="147.5" y="-696.5" font-family="Helvetica,sans-Serif" font-size="10.00" fill="#000000">+ rbegin()</text>
<text text-anchor="start" x="147.5" y="-685.5" font-family="Helvetica,sans-Serif" font-size="10.00" fill="#000000">+ rend()</text>
<text text-anchor="start" x="147.5" y="-674.5" font-family="Helvetica,sans-Serif" font-size="10.00" fill="#000000">+ rend()</text>
<text text-anchor="start" x="147.5" y="-663.5" font-family="Helvetica,sans-Serif" font-size="10.00" fill="#000000">+ getFirst()</text>
<text text-anchor="start" x="147.5" y="-652.5" font-family="Helvetica,sans-Serif" font-size="10.00" fill="#000000">+ getLast()</text>
</a>
</g>
</g>
<!-- Node6&#45;&gt;Node4 -->
<g id="edge5" class="edge">
<title>Node6&#45;&gt;Node4</title>
<path fill="none" stroke="#404040" d="M189.7251,-645.3578C185.8391,-629.8651 181.9079,-614.1918 178.0954,-598.9922"/>
<polygon fill="none" stroke="#404040" points="177.9861,-598.556 172.6465,-593.7094 175.0665,-586.9165 180.4061,-591.7631 177.9861,-598.556"/>
<text text-anchor="middle" x="212.5" y="-619" font-family="Helvetica,sans-Serif" font-size="10.00" fill="#000000"> #updatables</text>
</g>
<!-- Node6&#45;&gt;Node7 -->
<g id="edge8" class="edge">
<title>Node6&#45;&gt;Node7</title>
<path fill="none" stroke="#404040" d="M222.3862,-922.7691C222.1155,-936.364 221.8198,-949.95 221.5,-963 221.4492,-965.0725 221.3966,-967.1645 221.3423,-969.2714"/>
<polygon fill="none" stroke="#404040" points="221.3369,-969.4771 225.1747,-975.5821 221.0153,-981.4728 217.1775,-975.3677 221.3369,-969.4771"/>
<text text-anchor="middle" x="250.5" y="-949.5" font-family="Helvetica,sans-Serif" font-size="10.00" fill="#000000"> #updatables</text>
</g>
<!-- Node7&#45;&gt;Node6 -->
<g id="edge6" class="edge">
<title>Node7&#45;&gt;Node6</title>
<path fill="none" stroke="#404040" d="M201.1082,-981.2461C200.4768,-975.0823 199.9308,-968.9667 199.5,-963 198.8327,-953.7577 198.652,-944.2658 198.8546,-934.7048"/>
<polygon fill="none" stroke="#404040" points="198.8598,-934.5625 195.0869,-928.4172 199.3083,-922.5709 203.0813,-928.7162 198.8598,-934.5625"/>
<text text-anchor="middle" x="210.5" y="-955" font-family="Helvetica,sans-Serif" font-size="10.00" fill="#000000"> &#45;last</text>
<text text-anchor="middle" x="210.5" y="-944" font-family="Helvetica,sans-Serif" font-size="10.00" fill="#000000">&#45;first</text>
</g>
<!-- Node8 -->
<g id="node8" class="node">
<title>Node8</title>
<g id="a_node8"><a xlink:href="../../d3/d8b/structEmptySelectorCallback.html" target="_top" xlink:title="A callback for the GenericSelector class that does nothing.">
<polygon fill="#ffffff" stroke="#000000" points="208,-441.5 208,-520.5 327,-520.5 327,-441.5 208,-441.5"/>
<text text-anchor="middle" x="267.5" y="-508.5" font-family="Helvetica,sans-Serif" font-size="10.00" fill="#000000">EmptySelectorCallback</text>
<polyline fill="none" stroke="#000000" points="208,-501.5 327,-501.5 "/>
<text text-anchor="middle" x="267.5" y="-489.5" font-family="Helvetica,sans-Serif" font-size="10.00" fill="#000000"> </text>
<polyline fill="none" stroke="#000000" points="208,-482.5 327,-482.5 "/>
<text text-anchor="start" x="216" y="-470.5" font-family="Helvetica,sans-Serif" font-size="10.00" fill="#000000">+ begin()</text>
<text text-anchor="start" x="216" y="-459.5" font-family="Helvetica,sans-Serif" font-size="10.00" fill="#000000">+ update()</text>
<text text-anchor="start" x="216" y="-448.5" font-family="Helvetica,sans-Serif" font-size="10.00" fill="#000000">+ update()</text>
</a>
</g>
</g>
<!-- Node8&#45;&gt;Node2 -->
<g id="edge9" class="edge">
<title>Node8&#45;&gt;Node2</title>
<path fill="none" stroke="#404040" d="M253.9799,-441.4985C242.5172,-408.008 225.7236,-358.9424 211.5183,-317.4392"/>
<polygon fill="none" stroke="#404040" points="211.4729,-317.3063 205.7455,-312.9249 207.587,-305.9529 213.3144,-310.3342 211.4729,-317.3063"/>
<text text-anchor="middle" x="244.5" y="-332.5" font-family="Helvetica,sans-Serif" font-size="10.00" fill="#000000"> +callback</text>
</g>
<!-- Node9 -->
<g id="node9" class="node">
<title>Node9</title>
<g id="a_node9"><a xlink:href="../../df/dc6/classAH_1_1IncrementDecrementButtons.html" target="_top" xlink:title="A class for buttons that increment and decrement some counter or setting.">
<polygon fill="#ffffff" stroke="#000000" points="316,-171.5 316,-305.5 473,-305.5 473,-171.5 316,-171.5"/>
<text text-anchor="middle" x="394.5" y="-293.5" font-family="Helvetica,sans-Serif" font-size="10.00" fill="#000000">IncrementDecrementButtons</text>
<polyline fill="none" stroke="#000000" points="316,-286.5 473,-286.5 "/>
<text text-anchor="start" x="324" y="-274.5" font-family="Helvetica,sans-Serif" font-size="10.00" fill="#000000">&#45; longPressState</text>
<text text-anchor="start" x="324" y="-263.5" font-family="Helvetica,sans-Serif" font-size="10.00" fill="#000000">&#45; longPressRepeat</text>
<text text-anchor="start" x="324" y="-252.5" font-family="Helvetica,sans-Serif" font-size="10.00" fill="#000000">&#45; state</text>
<polyline fill="none" stroke="#000000" points="316,-245.5 473,-245.5 "/>
<text text-anchor="start" x="324" y="-233.5" font-family="Helvetica,sans-Serif" font-size="10.00" fill="#000000">+ IncrementDecrementButtons()</text>
<text text-anchor="start" x="324" y="-222.5" font-family="Helvetica,sans-Serif" font-size="10.00" fill="#000000">+ begin()</text>
<text text-anchor="start" x="324" y="-211.5" font-family="Helvetica,sans-Serif" font-size="10.00" fill="#000000">+ update()</text>
<text text-anchor="start" x="324" y="-200.5" font-family="Helvetica,sans-Serif" font-size="10.00" fill="#000000">+ getState()</text>
<text text-anchor="start" x="324" y="-189.5" font-family="Helvetica,sans-Serif" font-size="10.00" fill="#000000">+ invert()</text>
<text text-anchor="start" x="324" y="-178.5" font-family="Helvetica,sans-Serif" font-size="10.00" fill="#000000"># updateImplementation()</text>
</a>
</g>
</g>
<!-- Node9&#45;&gt;Node1 -->
<g id="edge10" class="edge">
<title>Node9&#45;&gt;Node1</title>
<path fill="none" stroke="#404040" d="M344.9817,-171.2694C335.8662,-158.8933 326.3193,-145.9316 317.1164,-133.4369"/>
<polygon fill="none" stroke="#404040" points="316.941,-133.1986 310.162,-130.7398 309.8244,-123.5366 316.6034,-125.9954 316.941,-133.1986"/>
<text text-anchor="middle" x="349" y="-145" font-family="Helvetica,sans-Serif" font-size="10.00" fill="#000000"> &#45;buttons</text>
</g>
<!-- Node10 -->
<g id="node10" class="node">
<title>Node10</title>
<g id="a_node10"><a xlink:href="../../de/d0d/classAH_1_1Button.html" target="_top" xlink:title="A class for reading and debouncing buttons and switches.">
<polygon fill="#ffffff" stroke="#000000" points="345,-364.5 345,-597.5 468,-597.5 468,-364.5 345,-364.5"/>
<text text-anchor="middle" x="406.5" y="-585.5" font-family="Helvetica,sans-Serif" font-size="10.00" fill="#000000">Button</text>
<polyline fill="none" stroke="#000000" points="345,-578.5 468,-578.5 "/>
<text text-anchor="start" x="353" y="-566.5" font-family="Helvetica,sans-Serif" font-size="10.00" fill="#000000">&#45; pin</text>
<text text-anchor="start" x="353" y="-555.5" font-family="Helvetica,sans-Serif" font-size="10.00" fill="#000000">&#45; prevInput</text>
<text text-anchor="start" x="353" y="-544.5" font-family="Helvetica,sans-Serif" font-size="10.00" fill="#000000">&#45; debouncedState</text>
<text text-anchor="start" x="353" y="-533.5" font-family="Helvetica,sans-Serif" font-size="10.00" fill="#000000">&#45; prevBounceTime</text>
<text text-anchor="start" x="353" y="-522.5" font-family="Helvetica,sans-Serif" font-size="10.00" fill="#000000">&#45; invertState</text>
<text text-anchor="start" x="353" y="-511.5" font-family="Helvetica,sans-Serif" font-size="10.00" fill="#000000">&#45; debounceTime</text>
<polyline fill="none" stroke="#000000" points="345,-504.5 468,-504.5 "/>
<text text-anchor="start" x="353" y="-492.5" font-family="Helvetica,sans-Serif" font-size="10.00" fill="#000000">+ Button()</text>
<text text-anchor="start" x="353" y="-481.5" font-family="Helvetica,sans-Serif" font-size="10.00" fill="#000000">+ Button()</text>
<text text-anchor="start" x="353" y="-470.5" font-family="Helvetica,sans-Serif" font-size="10.00" fill="#000000">+ begin()</text>
<text text-anchor="start" x="353" y="-459.5" font-family="Helvetica,sans-Serif" font-size="10.00" fill="#000000">+ invert()</text>
<text text-anchor="start" x="353" y="-448.5" font-family="Helvetica,sans-Serif" font-size="10.00" fill="#000000">+ update()</text>
<text text-anchor="start" x="353" y="-437.5" font-family="Helvetica,sans-Serif" font-size="10.00" fill="#000000">+ getState()</text>
<text text-anchor="start" x="353" y="-426.5" font-family="Helvetica,sans-Serif" font-size="10.00" fill="#000000">+ previousBounceTime()</text>
<text text-anchor="start" x="353" y="-415.5" font-family="Helvetica,sans-Serif" font-size="10.00" fill="#000000">+ stableTime()</text>
<text text-anchor="start" x="353" y="-404.5" font-family="Helvetica,sans-Serif" font-size="10.00" fill="#000000">+ stableTime()</text>
<text text-anchor="start" x="353" y="-393.5" font-family="Helvetica,sans-Serif" font-size="10.00" fill="#000000">+ getName()</text>
<text text-anchor="start" x="353" y="-382.5" font-family="Helvetica,sans-Serif" font-size="10.00" fill="#000000">+ setDebounceTime()</text>
<text text-anchor="start" x="353" y="-371.5" font-family="Helvetica,sans-Serif" font-size="10.00" fill="#000000">+ getDebounceTime()</text>
</a>
</g>
</g>
<!-- Node10&#45;&gt;Node9 -->
<g id="edge11" class="edge">
<title>Node10&#45;&gt;Node9</title>
<path fill="none" stroke="#404040" d="M400.7285,-364.3669C399.9498,-348.6311 399.166,-332.7915 398.4296,-317.9102"/>
<polygon fill="none" stroke="#404040" points="398.4165,-317.6439 394.1248,-311.849 397.8233,-305.6586 402.115,-311.4535 398.4165,-317.6439"/>
<text text-anchor="middle" x="441" y="-338" font-family="Helvetica,sans-Serif" font-size="10.00" fill="#000000"> &#45;decrementButton</text>
<text text-anchor="middle" x="441" y="-327" font-family="Helvetica,sans-Serif" font-size="10.00" fill="#000000">&#45;incrementButton</text>
</g>
</g>
</svg>
