<?xml version="1.0" encoding="UTF-8" standalone="no"?>
<!DOCTYPE svg PUBLIC "-//W3C//DTD SVG 1.1//EN"
 "http://www.w3.org/Graphics/SVG/1.1/DTD/svg11.dtd">
<!-- Generated by graphviz version 2.43.0 (0)
 -->
<!-- Title: SelectorDisplay.hpp Pages: 1 -->
<svg width="1494pt" height="823pt"
 viewBox="0.00 0.00 1493.50 823.00" xmlns="http://www.w3.org/2000/svg" xmlns:xlink="http://www.w3.org/1999/xlink">
<g id="graph0" class="graph" transform="scale(1 1) rotate(0) translate(4 819)">
<title>SelectorDisplay.hpp</title>
<polygon fill="white" stroke="transparent" points="-4,4 -4,-819 1489.5,-819 1489.5,4 -4,4"/>
<!-- Node1 -->
<g id="node1" class="node">
<title>Node1</title>
<g id="a_node1"><a xlink:title=" ">
<polygon fill="#bfbfbf" stroke="black" points="286,-795.5 286,-814.5 399,-814.5 399,-795.5 286,-795.5"/>
<text text-anchor="middle" x="342.5" y="-802.5" font-family="Helvetica,sans-Serif" font-size="10.00">SelectorDisplay.hpp</text>
</a>
</g>
</g>
<!-- Node2 -->
<g id="node2" class="node">
<title>Node2</title>
<g id="a_node2"><a xlink:href="../../d4/d57/Bank_8hpp.html" target="_top" xlink:title=" ">
<polygon fill="white" stroke="black" points="295,-739.5 295,-758.5 390,-758.5 390,-739.5 295,-739.5"/>
<text text-anchor="middle" x="342.5" y="-746.5" font-family="Helvetica,sans-Serif" font-size="10.00">Banks/Bank.hpp</text>
</a>
</g>
</g>
<!-- Node1&#45;&gt;Node2 -->
<g id="edge1" class="edge">
<title>Node1&#45;&gt;Node2</title>
<path fill="none" stroke="midnightblue" d="M342.5,-795.08C342.5,-788.01 342.5,-777.86 342.5,-768.99"/>
<polygon fill="midnightblue" stroke="midnightblue" points="346,-768.75 342.5,-758.75 339,-768.75 346,-768.75"/>
</g>
<!-- Node32 -->
<g id="node32" class="node">
<title>Node32</title>
<g id="a_node32"><a xlink:href="../../d6/dd2/DisplayElement_8hpp.html" target="_top" xlink:title=" ">
<polygon fill="white" stroke="black" points="122,-739.5 122,-758.5 277,-758.5 277,-739.5 122,-739.5"/>
<text text-anchor="middle" x="199.5" y="-746.5" font-family="Helvetica,sans-Serif" font-size="10.00">Display/DisplayElement.hpp</text>
</a>
</g>
</g>
<!-- Node1&#45;&gt;Node32 -->
<g id="edge67" class="edge">
<title>Node1&#45;&gt;Node32</title>
<path fill="none" stroke="midnightblue" d="M319.84,-795.44C296.1,-786.48 258.59,-772.31 231.76,-762.18"/>
<polygon fill="midnightblue" stroke="midnightblue" points="232.64,-758.77 222.05,-758.52 230.17,-765.32 232.64,-758.77"/>
</g>
<!-- Node35 -->
<g id="node35" class="node">
<title>Node35</title>
<g id="a_node35"><a xlink:href="../../d6/d16/Selector_8hpp.html" target="_top" xlink:title=" ">
<polygon fill="white" stroke="black" points="415,-739.5 415,-758.5 540,-758.5 540,-739.5 415,-739.5"/>
<text text-anchor="middle" x="477.5" y="-746.5" font-family="Helvetica,sans-Serif" font-size="10.00">Selectors/Selector.hpp</text>
</a>
</g>
</g>
<!-- Node1&#45;&gt;Node35 -->
<g id="edge73" class="edge">
<title>Node1&#45;&gt;Node35</title>
<path fill="none" stroke="midnightblue" d="M363.89,-795.44C386.21,-786.52 421.4,-772.44 446.71,-762.32"/>
<polygon fill="midnightblue" stroke="midnightblue" points="448.22,-765.48 456.21,-758.52 445.62,-758.98 448.22,-765.48"/>
</g>
<!-- Node3 -->
<g id="node3" class="node">
<title>Node3</title>
<g id="a_node3"><a xlink:href="../../de/dd1/LinkedList_8hpp.html" target="_top" xlink:title=" ">
<polygon fill="white" stroke="black" points="93,-448.5 93,-467.5 252,-467.5 252,-448.5 93,-448.5"/>
<text text-anchor="middle" x="172.5" y="-455.5" font-family="Helvetica,sans-Serif" font-size="10.00">AH/Containers/LinkedList.hpp</text>
</a>
</g>
</g>
<!-- Node2&#45;&gt;Node3 -->
<g id="edge2" class="edge">
<title>Node2&#45;&gt;Node3</title>
<path fill="none" stroke="midnightblue" d="M319.05,-739.35C302.09,-732.02 279.73,-719.97 265.5,-703 245.71,-679.4 241.5,-668.8 241.5,-638 241.5,-638 241.5,-638 241.5,-574.5 241.5,-533.9 209.7,-495.2 189.27,-474.52"/>
<polygon fill="midnightblue" stroke="midnightblue" points="191.7,-471.99 182.09,-467.52 186.81,-477 191.7,-471.99"/>
</g>
<!-- Node5 -->
<g id="node5" class="node">
<title>Node5</title>
<g id="a_node5"><a xlink:href="../../df/dee/Debug_8hpp.html" target="_top" xlink:title=" ">
<polygon fill="white" stroke="black" points="271,-392.5 271,-411.5 392,-411.5 392,-392.5 271,-392.5"/>
<text text-anchor="middle" x="331.5" y="-399.5" font-family="Helvetica,sans-Serif" font-size="10.00">AH/Debug/Debug.hpp</text>
</a>
</g>
</g>
<!-- Node2&#45;&gt;Node5 -->
<g id="edge38" class="edge">
<title>Node2&#45;&gt;Node5</title>
<path fill="none" stroke="midnightblue" d="M333.2,-739.28C315.68,-721.85 279.5,-680.69 279.5,-638 279.5,-638 279.5,-638 279.5,-513 279.5,-477.12 302.39,-440.42 317.8,-419.79"/>
<polygon fill="midnightblue" stroke="midnightblue" points="320.68,-421.79 324.05,-411.74 315.15,-417.5 320.68,-421.79"/>
</g>
<!-- Node25 -->
<g id="node25" class="node">
<title>Node25</title>
<g id="a_node25"><a xlink:href="../../d1/d93/Error_8hpp.html" target="_top" xlink:title=" ">
<polygon fill="white" stroke="black" points="383.5,-448.5 383.5,-467.5 487.5,-467.5 487.5,-448.5 383.5,-448.5"/>
<text text-anchor="middle" x="435.5" y="-455.5" font-family="Helvetica,sans-Serif" font-size="10.00">AH/Error/Error.hpp</text>
</a>
</g>
</g>
<!-- Node2&#45;&gt;Node25 -->
<g id="edge39" class="edge">
<title>Node2&#45;&gt;Node25</title>
<path fill="none" stroke="midnightblue" d="M345.28,-739.35C358.12,-699.46 411.73,-532.86 429.64,-477.2"/>
<polygon fill="midnightblue" stroke="midnightblue" points="433,-478.21 432.73,-467.62 426.33,-476.06 433,-478.21"/>
</g>
<!-- Node26 -->
<g id="node26" class="node">
<title>Node26</title>
<g id="a_node26"><a xlink:href="../../d9/d46/Selectable_8hpp.html" target="_top" xlink:title=" ">
<polygon fill="white" stroke="black" points="409,-683.5 409,-702.5 546,-702.5 546,-683.5 409,-683.5"/>
<text text-anchor="middle" x="477.5" y="-690.5" font-family="Helvetica,sans-Serif" font-size="10.00">Selectors/Selectable.hpp</text>
</a>
</g>
</g>
<!-- Node2&#45;&gt;Node26 -->
<g id="edge42" class="edge">
<title>Node2&#45;&gt;Node26</title>
<path fill="none" stroke="midnightblue" d="M363.89,-739.44C386.21,-730.52 421.4,-716.44 446.71,-706.32"/>
<polygon fill="midnightblue" stroke="midnightblue" points="448.22,-709.48 456.21,-702.52 445.62,-702.98 448.22,-709.48"/>
</g>
<!-- Node4 -->
<g id="node4" class="node">
<title>Node4</title>
<g id="a_node4"><a xlink:href="../../d1/d65/Warnings_8hpp.html" target="_top" xlink:title=" ">
<polygon fill="white" stroke="black" points="407,-0.5 407,-19.5 550,-19.5 550,-0.5 407,-0.5"/>
<text text-anchor="middle" x="478.5" y="-7.5" font-family="Helvetica,sans-Serif" font-size="10.00">AH/Settings/Warnings.hpp</text>
</a>
</g>
</g>
<!-- Node3&#45;&gt;Node4 -->
<g id="edge3" class="edge">
<title>Node3&#45;&gt;Node4</title>
<path fill="none" stroke="midnightblue" d="M157.88,-448.48C132.16,-432.27 81.5,-394.34 81.5,-347 81.5,-347 81.5,-347 81.5,-121 81.5,-76.55 116.98,-74.26 157.5,-56 198.95,-37.32 315.97,-24.29 396.64,-17.22"/>
<polygon fill="midnightblue" stroke="midnightblue" points="397.12,-20.7 406.78,-16.35 396.52,-13.72 397.12,-20.7"/>
</g>
<!-- Node3&#45;&gt;Node5 -->
<g id="edge4" class="edge">
<title>Node3&#45;&gt;Node5</title>
<path fill="none" stroke="midnightblue" d="M197.69,-448.44C224.44,-439.36 266.9,-424.94 296.81,-414.78"/>
<polygon fill="midnightblue" stroke="midnightblue" points="298.08,-418.05 306.42,-411.52 295.83,-411.42 298.08,-418.05"/>
</g>
<!-- Node9 -->
<g id="node9" class="node">
<title>Node9</title>
<g id="a_node9"><a xlink:href="../../d7/d79/MinMaxFix_8hpp.html" target="_top" xlink:title=" ">
<polygon fill="white" stroke="black" points="295.5,-112.5 295.5,-131.5 431.5,-131.5 431.5,-112.5 295.5,-112.5"/>
<text text-anchor="middle" x="363.5" y="-119.5" font-family="Helvetica,sans-Serif" font-size="10.00">AH/Math/MinMaxFix.hpp</text>
</a>
</g>
</g>
<!-- Node3&#45;&gt;Node9 -->
<g id="edge35" class="edge">
<title>Node3&#45;&gt;Node9</title>
<path fill="none" stroke="midnightblue" d="M167.62,-448.37C162.94,-439.55 156.19,-425.3 153.5,-412 151.74,-403.29 152.3,-400.81 153.5,-392 167.4,-289.64 143.38,-241.96 215.5,-168 233.96,-149.07 260.1,-138.05 285.29,-131.65"/>
<polygon fill="midnightblue" stroke="midnightblue" points="286.3,-135.01 295.25,-129.34 284.72,-128.19 286.3,-135.01"/>
</g>
<!-- Node23 -->
<g id="node23" class="node">
<title>Node23</title>
<g id="a_node23"><a xlink:title=" ">
<polygon fill="white" stroke="#bfbfbf" points="0,-392.5 0,-411.5 53,-411.5 53,-392.5 0,-392.5"/>
<text text-anchor="middle" x="26.5" y="-399.5" font-family="Helvetica,sans-Serif" font-size="10.00">stdlib.h</text>
</a>
</g>
</g>
<!-- Node3&#45;&gt;Node23 -->
<g id="edge36" class="edge">
<title>Node3&#45;&gt;Node23</title>
<path fill="none" stroke="midnightblue" d="M149.37,-448.44C125.02,-439.44 86.49,-425.19 59.08,-415.05"/>
<polygon fill="midnightblue" stroke="midnightblue" points="60.12,-411.7 49.53,-411.52 57.69,-418.27 60.12,-411.7"/>
</g>
<!-- Node24 -->
<g id="node24" class="node">
<title>Node24</title>
<g id="a_node24"><a xlink:title=" ">
<polygon fill="white" stroke="#bfbfbf" points="162.5,-392.5 162.5,-411.5 252.5,-411.5 252.5,-392.5 162.5,-392.5"/>
<text text-anchor="middle" x="207.5" y="-399.5" font-family="Helvetica,sans-Serif" font-size="10.00">AH/STL/iterator</text>
</a>
</g>
</g>
<!-- Node3&#45;&gt;Node24 -->
<g id="edge37" class="edge">
<title>Node3&#45;&gt;Node24</title>
<path fill="none" stroke="midnightblue" d="M178.28,-448.08C183.17,-440.53 190.33,-429.49 196.33,-420.23"/>
<polygon fill="midnightblue" stroke="midnightblue" points="199.33,-422.05 201.83,-411.75 193.45,-418.24 199.33,-422.05"/>
</g>
<!-- Node5&#45;&gt;Node4 -->
<g id="edge5" class="edge">
<title>Node5&#45;&gt;Node4</title>
<path fill="none" stroke="midnightblue" d="M299,-392.37C277.19,-385.33 248.85,-373.63 228.5,-356 180.68,-314.57 153.5,-298.27 153.5,-235 153.5,-235 153.5,-235 153.5,-177 153.5,-122.26 137.03,-93.93 176.5,-56 207.14,-26.56 317.82,-16.35 396.29,-12.82"/>
<polygon fill="midnightblue" stroke="midnightblue" points="396.81,-16.3 406.66,-12.39 396.52,-9.31 396.81,-16.3"/>
</g>
<!-- Node6 -->
<g id="node6" class="node">
<title>Node6</title>
<g id="a_node6"><a xlink:href="../../dd/d80/PrintStream_8hpp.html" target="_top" xlink:title=" ">
<polygon fill="white" stroke="black" points="301,-224.5 301,-243.5 474,-243.5 474,-224.5 301,-224.5"/>
<text text-anchor="middle" x="387.5" y="-231.5" font-family="Helvetica,sans-Serif" font-size="10.00">AH/PrintStream/PrintStream.hpp</text>
</a>
</g>
</g>
<!-- Node5&#45;&gt;Node6 -->
<g id="edge6" class="edge">
<title>Node5&#45;&gt;Node6</title>
<path fill="none" stroke="midnightblue" d="M334.51,-392.08C343.36,-365.83 369.44,-288.55 381.39,-253.12"/>
<polygon fill="midnightblue" stroke="midnightblue" points="384.73,-254.16 384.61,-243.57 378.1,-251.92 384.73,-254.16"/>
</g>
<!-- Node14 -->
<g id="node14" class="node">
<title>Node14</title>
<g id="a_node14"><a xlink:href="../../de/dd1/AH_2Settings_2SettingsWrapper_8hpp.html" target="_top" xlink:title=" ">
<polygon fill="white" stroke="black" points="843.5,-336.5 843.5,-355.5 1021.5,-355.5 1021.5,-336.5 843.5,-336.5"/>
<text text-anchor="middle" x="932.5" y="-343.5" font-family="Helvetica,sans-Serif" font-size="10.00">AH/Settings/SettingsWrapper.hpp</text>
</a>
</g>
</g>
<!-- Node5&#45;&gt;Node14 -->
<g id="edge19" class="edge">
<title>Node5&#45;&gt;Node14</title>
<path fill="none" stroke="midnightblue" d="M392,-395.17C495.63,-385.6 707.82,-366.51 833.34,-355.45"/>
<polygon fill="midnightblue" stroke="midnightblue" points="833.69,-358.94 843.34,-354.57 833.07,-351.96 833.69,-358.94"/>
</g>
<!-- Node22 -->
<g id="node22" class="node">
<title>Node22</title>
<g id="a_node22"><a xlink:href="../../d7/d52/DebugVal_8hpp.html" target="_top" xlink:title=" ">
<polygon fill="white" stroke="black" points="237.5,-336.5 237.5,-355.5 321.5,-355.5 321.5,-336.5 237.5,-336.5"/>
<text text-anchor="middle" x="279.5" y="-343.5" font-family="Helvetica,sans-Serif" font-size="10.00">DebugVal.hpp</text>
</a>
</g>
</g>
<!-- Node5&#45;&gt;Node22 -->
<g id="edge34" class="edge">
<title>Node5&#45;&gt;Node22</title>
<path fill="none" stroke="midnightblue" d="M322.91,-392.08C315.34,-384.22 304.12,-372.57 294.99,-363.08"/>
<polygon fill="midnightblue" stroke="midnightblue" points="297.38,-360.53 287.93,-355.75 292.34,-365.38 297.38,-360.53"/>
</g>
<!-- Node6&#45;&gt;Node4 -->
<g id="edge8" class="edge">
<title>Node6&#45;&gt;Node4</title>
<path fill="none" stroke="midnightblue" d="M370.34,-224.5C334.46,-205.54 257.15,-157.87 286.5,-112 307.08,-79.84 330.55,-93.47 364.5,-76 396.73,-59.41 432.92,-38.34 455.71,-24.76"/>
<polygon fill="midnightblue" stroke="midnightblue" points="457.54,-27.75 464.32,-19.61 453.94,-21.74 457.54,-27.75"/>
</g>
<!-- Node7 -->
<g id="node7" class="node">
<title>Node7</title>
<g id="a_node7"><a xlink:href="../../d6/db0/AH_2Settings_2NamespaceSettings_8hpp.html" target="_top" xlink:title=" ">
<polygon fill="white" stroke="black" points="950,-56.5 950,-75.5 1145,-75.5 1145,-56.5 950,-56.5"/>
<text text-anchor="middle" x="1047.5" y="-63.5" font-family="Helvetica,sans-Serif" font-size="10.00">AH/Settings/NamespaceSettings.hpp</text>
</a>
</g>
</g>
<!-- Node6&#45;&gt;Node7 -->
<g id="edge7" class="edge">
<title>Node6&#45;&gt;Node7</title>
<path fill="none" stroke="midnightblue" d="M378.9,-224.08C366.98,-210.61 348.39,-184.88 362.5,-168 381.6,-145.16 781.44,-97.18 961.24,-76.65"/>
<polygon fill="midnightblue" stroke="midnightblue" points="961.66,-80.12 971.2,-75.51 960.86,-73.17 961.66,-80.12"/>
</g>
<!-- Node8 -->
<g id="node8" class="node">
<title>Node8</title>
<g id="a_node8"><a xlink:href="../../d6/ddf/Arduino-Wrapper_8h.html" target="_top" xlink:title=" ">
<polygon fill="white" stroke="black" points="567.5,-168.5 567.5,-187.5 691.5,-187.5 691.5,-168.5 567.5,-168.5"/>
<text text-anchor="middle" x="629.5" y="-175.5" font-family="Helvetica,sans-Serif" font-size="10.00">AH/Arduino&#45;Wrapper.h</text>
</a>
</g>
</g>
<!-- Node6&#45;&gt;Node8 -->
<g id="edge9" class="edge">
<title>Node6&#45;&gt;Node8</title>
<path fill="none" stroke="midnightblue" d="M425.85,-224.44C467.97,-215.04 535.71,-199.93 581.37,-189.74"/>
<polygon fill="midnightblue" stroke="midnightblue" points="582.34,-193.11 591.33,-187.52 580.81,-186.28 582.34,-193.11"/>
</g>
<!-- Node13 -->
<g id="node13" class="node">
<title>Node13</title>
<g id="a_node13"><a xlink:title=" ">
<polygon fill="white" stroke="#bfbfbf" points="371.5,-168.5 371.5,-187.5 549.5,-187.5 549.5,-168.5 371.5,-168.5"/>
<text text-anchor="middle" x="460.5" y="-175.5" font-family="Helvetica,sans-Serif" font-size="10.00">Settings/NamespaceSettings.hpp</text>
</a>
</g>
</g>
<!-- Node6&#45;&gt;Node13 -->
<g id="edge18" class="edge">
<title>Node6&#45;&gt;Node13</title>
<path fill="none" stroke="midnightblue" d="M399.23,-224.32C410.34,-216.11 427.24,-203.6 440.48,-193.81"/>
<polygon fill="midnightblue" stroke="midnightblue" points="442.6,-196.59 448.56,-187.83 438.44,-190.97 442.6,-196.59"/>
</g>
<!-- Node8&#45;&gt;Node9 -->
<g id="edge10" class="edge">
<title>Node8&#45;&gt;Node9</title>
<path fill="none" stroke="midnightblue" d="M587.35,-168.44C540.75,-158.98 465.66,-143.74 415.45,-133.55"/>
<polygon fill="midnightblue" stroke="midnightblue" points="415.95,-130.08 405.45,-131.52 414.56,-136.94 415.95,-130.08"/>
</g>
<!-- Node11 -->
<g id="node11" class="node">
<title>Node11</title>
<g id="a_node11"><a xlink:title=" ">
<polygon fill="white" stroke="#bfbfbf" points="164,-0.5 164,-19.5 227,-19.5 227,-0.5 164,-0.5"/>
<text text-anchor="middle" x="195.5" y="-7.5" font-family="Helvetica,sans-Serif" font-size="10.00">Arduino.h</text>
</a>
</g>
</g>
<!-- Node8&#45;&gt;Node11 -->
<g id="edge17" class="edge">
<title>Node8&#45;&gt;Node11</title>
<path fill="none" stroke="midnightblue" d="M567.3,-169.11C470.26,-156.76 293.15,-134.06 286.5,-132 234.1,-115.75 205.17,-122.77 176.5,-76 167.41,-61.18 175.16,-41.79 183.33,-28.06"/>
<polygon fill="midnightblue" stroke="midnightblue" points="186.33,-29.87 188.85,-19.58 180.46,-26.05 186.33,-29.87"/>
</g>
<!-- Node12 -->
<g id="node12" class="node">
<title>Node12</title>
<g id="a_node12"><a xlink:title=" ">
<polygon fill="white" stroke="#bfbfbf" points="682,-112.5 682,-131.5 789,-131.5 789,-112.5 682,-112.5"/>
<text text-anchor="middle" x="735.5" y="-119.5" font-family="Helvetica,sans-Serif" font-size="10.00">AH/STL/type_traits</text>
</a>
</g>
</g>
<!-- Node8&#45;&gt;Node12 -->
<g id="edge16" class="edge">
<title>Node8&#45;&gt;Node12</title>
<path fill="none" stroke="midnightblue" d="M646.53,-168.32C663.53,-159.66 689.88,-146.24 709.49,-136.25"/>
<polygon fill="midnightblue" stroke="midnightblue" points="711.19,-139.31 718.51,-131.65 708.01,-133.08 711.19,-139.31"/>
</g>
<!-- Node9&#45;&gt;Node4 -->
<g id="edge11" class="edge">
<title>Node9&#45;&gt;Node4</title>
<path fill="none" stroke="midnightblue" d="M372.52,-112.37C391.84,-93.89 437.42,-50.29 462.04,-26.74"/>
<polygon fill="midnightblue" stroke="midnightblue" points="464.71,-29.03 469.52,-19.59 459.87,-23.97 464.71,-29.03"/>
</g>
<!-- Node9&#45;&gt;Node7 -->
<g id="edge15" class="edge">
<title>Node9&#45;&gt;Node7</title>
<path fill="none" stroke="midnightblue" d="M431.59,-115.62C550.63,-106.23 797.45,-86.74 939.85,-75.5"/>
<polygon fill="midnightblue" stroke="midnightblue" points="940.23,-78.98 949.92,-74.7 939.68,-72 940.23,-78.98"/>
</g>
<!-- Node10 -->
<g id="node10" class="node">
<title>Node10</title>
<g id="a_node10"><a xlink:href="../../d6/d3b/FixArduinoMacros_8hpp.html" target="_top" xlink:title=" ">
<polygon fill="white" stroke="black" points="185.5,-56.5 185.5,-75.5 355.5,-75.5 355.5,-56.5 185.5,-56.5"/>
<text text-anchor="middle" x="270.5" y="-63.5" font-family="Helvetica,sans-Serif" font-size="10.00">AH/Math/FixArduinoMacros.hpp</text>
</a>
</g>
</g>
<!-- Node9&#45;&gt;Node10 -->
<g id="edge12" class="edge">
<title>Node9&#45;&gt;Node10</title>
<path fill="none" stroke="midnightblue" d="M348.56,-112.32C333.91,-103.82 311.37,-90.73 294.26,-80.8"/>
<polygon fill="midnightblue" stroke="midnightblue" points="295.81,-77.65 285.4,-75.65 292.3,-83.7 295.81,-77.65"/>
</g>
<!-- Node10&#45;&gt;Node4 -->
<g id="edge13" class="edge">
<title>Node10&#45;&gt;Node4</title>
<path fill="none" stroke="midnightblue" d="M303.46,-56.44C339.29,-47.14 396.66,-32.25 435.89,-22.06"/>
<polygon fill="midnightblue" stroke="midnightblue" points="436.9,-25.42 445.7,-19.52 435.14,-18.64 436.9,-25.42"/>
</g>
<!-- Node10&#45;&gt;Node11 -->
<g id="edge14" class="edge">
<title>Node10&#45;&gt;Node11</title>
<path fill="none" stroke="midnightblue" d="M258.45,-56.32C247.04,-48.11 229.67,-35.6 216.07,-25.81"/>
<polygon fill="midnightblue" stroke="midnightblue" points="217.93,-22.84 207.77,-19.83 213.84,-28.52 217.93,-22.84"/>
</g>
<!-- Node14&#45;&gt;Node4 -->
<g id="edge20" class="edge">
<title>Node14&#45;&gt;Node4</title>
<path fill="none" stroke="midnightblue" d="M892.19,-336.38C872.23,-329.89 849.82,-318.77 837.5,-300 807.98,-255.01 833.5,-232.81 833.5,-179 833.5,-179 833.5,-179 833.5,-121 833.5,-64.12 665.11,-33.41 560.28,-19.81"/>
<polygon fill="midnightblue" stroke="midnightblue" points="560.7,-16.33 550.34,-18.54 559.82,-23.28 560.7,-16.33"/>
</g>
<!-- Node14&#45;&gt;Node5 -->
<g id="edge33" class="edge">
<title>Node14&#45;&gt;Node5</title>
<path fill="none" stroke="midnightblue" d="M843.31,-355.47C723.18,-366.48 511.96,-385.44 402.17,-395.05"/>
<polygon fill="midnightblue" stroke="midnightblue" points="401.84,-391.56 392.19,-395.92 402.45,-398.54 401.84,-391.56"/>
</g>
<!-- Node14&#45;&gt;Node7 -->
<g id="edge21" class="edge">
<title>Node14&#45;&gt;Node7</title>
<path fill="none" stroke="midnightblue" d="M967.59,-336.39C988.04,-329.67 1012.81,-318.31 1028.5,-300 1048.08,-277.14 1047.5,-265.1 1047.5,-235 1047.5,-235 1047.5,-235 1047.5,-177 1047.5,-144.95 1047.5,-107.64 1047.5,-85.75"/>
<polygon fill="midnightblue" stroke="midnightblue" points="1051,-85.56 1047.5,-75.56 1044,-85.56 1051,-85.56"/>
</g>
<!-- Node15 -->
<g id="node15" class="node">
<title>Node15</title>
<g id="a_node15"><a xlink:href="../../d5/d4f/AH_2Settings_2Settings_8hpp.html" target="_top" xlink:title="All user settings and debugging options can be changed here.">
<polygon fill="white" stroke="black" points="1076,-280.5 1076,-299.5 1153,-299.5 1153,-280.5 1076,-280.5"/>
<text text-anchor="middle" x="1114.5" y="-287.5" font-family="Helvetica,sans-Serif" font-size="10.00">Settings.hpp</text>
</a>
</g>
</g>
<!-- Node14&#45;&gt;Node15 -->
<g id="edge22" class="edge">
<title>Node14&#45;&gt;Node15</title>
<path fill="none" stroke="midnightblue" d="M961.34,-336.44C992.36,-327.24 1041.83,-312.56 1076.12,-302.39"/>
<polygon fill="midnightblue" stroke="midnightblue" points="1077.21,-305.72 1085.8,-299.52 1075.21,-299.01 1077.21,-305.72"/>
</g>
<!-- Node21 -->
<g id="node21" class="node">
<title>Node21</title>
<g id="a_node21"><a xlink:href="../../d9/d98/TeensyUSBTypes_8hpp.html" target="_top" xlink:title=" ">
<polygon fill="white" stroke="black" points="846,-280.5 846,-299.5 1019,-299.5 1019,-280.5 846,-280.5"/>
<text text-anchor="middle" x="932.5" y="-287.5" font-family="Helvetica,sans-Serif" font-size="10.00">AH/Teensy/TeensyUSBTypes.hpp</text>
</a>
</g>
</g>
<!-- Node14&#45;&gt;Node21 -->
<g id="edge32" class="edge">
<title>Node14&#45;&gt;Node21</title>
<path fill="none" stroke="midnightblue" d="M932.5,-336.08C932.5,-329.01 932.5,-318.86 932.5,-309.99"/>
<polygon fill="midnightblue" stroke="midnightblue" points="936,-309.75 932.5,-299.75 929,-309.75 936,-309.75"/>
</g>
<!-- Node16 -->
<g id="node16" class="node">
<title>Node16</title>
<g id="a_node16"><a xlink:href="../../dc/d50/Frequency_8hpp.html" target="_top" xlink:title=" ">
<polygon fill="white" stroke="black" points="1129.5,-112.5 1129.5,-131.5 1263.5,-131.5 1263.5,-112.5 1129.5,-112.5"/>
<text text-anchor="middle" x="1196.5" y="-119.5" font-family="Helvetica,sans-Serif" font-size="10.00">AH/Types/Frequency.hpp</text>
</a>
</g>
</g>
<!-- Node15&#45;&gt;Node16 -->
<g id="edge23" class="edge">
<title>Node15&#45;&gt;Node16</title>
<path fill="none" stroke="midnightblue" d="M1119.21,-280.43C1124.13,-271.42 1132.02,-256.8 1138.5,-244 1156.92,-207.61 1177.27,-164.39 1188.3,-140.71"/>
<polygon fill="midnightblue" stroke="midnightblue" points="1191.51,-142.11 1192.55,-131.57 1185.16,-139.17 1191.51,-142.11"/>
</g>
<!-- Node17 -->
<g id="node17" class="node">
<title>Node17</title>
<g id="a_node17"><a xlink:href="../../d7/d7c/ADCConfig_8hpp.html" target="_top" xlink:title="This file contains the platform&#45;specific ADC resolutions.">
<polygon fill="white" stroke="black" points="862,-224.5 862,-243.5 1019,-243.5 1019,-224.5 862,-224.5"/>
<text text-anchor="middle" x="940.5" y="-231.5" font-family="Helvetica,sans-Serif" font-size="10.00">AH/Hardware/ADCConfig.hpp</text>
</a>
</g>
</g>
<!-- Node15&#45;&gt;Node17 -->
<g id="edge26" class="edge">
<title>Node15&#45;&gt;Node17</title>
<path fill="none" stroke="midnightblue" d="M1086.93,-280.44C1057.4,-271.28 1010.38,-256.69 977.62,-246.52"/>
<polygon fill="midnightblue" stroke="midnightblue" points="978.53,-243.14 967.94,-243.52 976.46,-249.82 978.53,-243.14"/>
</g>
<!-- Node18 -->
<g id="node18" class="node">
<title>Node18</title>
<g id="a_node18"><a xlink:title=" ">
<polygon fill="white" stroke="#bfbfbf" points="1076,-224.5 1076,-243.5 1129,-243.5 1129,-224.5 1076,-224.5"/>
<text text-anchor="middle" x="1102.5" y="-231.5" font-family="Helvetica,sans-Serif" font-size="10.00">limits.h</text>
</a>
</g>
</g>
<!-- Node15&#45;&gt;Node18 -->
<g id="edge29" class="edge">
<title>Node15&#45;&gt;Node18</title>
<path fill="none" stroke="midnightblue" d="M1112.52,-280.08C1110.93,-272.93 1108.64,-262.64 1106.65,-253.69"/>
<polygon fill="midnightblue" stroke="midnightblue" points="1110.03,-252.75 1104.44,-243.75 1103.2,-254.27 1110.03,-252.75"/>
</g>
<!-- Node19 -->
<g id="node19" class="node">
<title>Node19</title>
<g id="a_node19"><a xlink:title=" ">
<polygon fill="white" stroke="#bfbfbf" points="1185.5,-224.5 1185.5,-243.5 1241.5,-243.5 1241.5,-224.5 1185.5,-224.5"/>
<text text-anchor="middle" x="1213.5" y="-231.5" font-family="Helvetica,sans-Serif" font-size="10.00">stddef.h</text>
</a>
</g>
</g>
<!-- Node15&#45;&gt;Node19 -->
<g id="edge30" class="edge">
<title>Node15&#45;&gt;Node19</title>
<path fill="none" stroke="midnightblue" d="M1130.41,-280.32C1146.14,-271.74 1170.44,-258.49 1188.71,-248.52"/>
<polygon fill="midnightblue" stroke="midnightblue" points="1190.53,-251.52 1197.63,-243.65 1187.18,-245.37 1190.53,-251.52"/>
</g>
<!-- Node20 -->
<g id="node20" class="node">
<title>Node20</title>
<g id="a_node20"><a xlink:title=" ">
<polygon fill="white" stroke="#bfbfbf" points="1411,-224.5 1411,-243.5 1464,-243.5 1464,-224.5 1411,-224.5"/>
<text text-anchor="middle" x="1437.5" y="-231.5" font-family="Helvetica,sans-Serif" font-size="10.00">stdint.h</text>
</a>
</g>
</g>
<!-- Node15&#45;&gt;Node20 -->
<g id="edge31" class="edge">
<title>Node15&#45;&gt;Node20</title>
<path fill="none" stroke="midnightblue" d="M1153.14,-282.54C1215.98,-272.03 1339.48,-251.39 1400.95,-241.11"/>
<polygon fill="midnightblue" stroke="midnightblue" points="1401.68,-244.54 1410.97,-239.44 1400.53,-237.63 1401.68,-244.54"/>
</g>
<!-- Node16&#45;&gt;Node4 -->
<g id="edge24" class="edge">
<title>Node16&#45;&gt;Node4</title>
<path fill="none" stroke="midnightblue" d="M1193.79,-112.39C1188.72,-97.86 1176.27,-68.81 1154.5,-56 1104.42,-26.54 728.94,-15.75 560.2,-12.36"/>
<polygon fill="midnightblue" stroke="midnightblue" points="560.19,-8.86 550.12,-12.16 560.05,-15.86 560.19,-8.86"/>
</g>
<!-- Node16&#45;&gt;Node7 -->
<g id="edge25" class="edge">
<title>Node16&#45;&gt;Node7</title>
<path fill="none" stroke="midnightblue" d="M1172.89,-112.44C1148.04,-103.44 1108.73,-89.19 1080.75,-79.05"/>
<polygon fill="midnightblue" stroke="midnightblue" points="1081.59,-75.63 1071,-75.52 1079.21,-82.21 1081.59,-75.63"/>
</g>
<!-- Node17&#45;&gt;Node4 -->
<g id="edge27" class="edge">
<title>Node17&#45;&gt;Node4</title>
<path fill="none" stroke="midnightblue" d="M938.83,-224.1C932.77,-194.43 908.92,-98.4 847.5,-56 802.4,-24.87 654.77,-15.24 560.48,-12.28"/>
<polygon fill="midnightblue" stroke="midnightblue" points="560.49,-8.78 550.39,-11.98 560.28,-15.78 560.49,-8.78"/>
</g>
<!-- Node17&#45;&gt;Node8 -->
<g id="edge28" class="edge">
<title>Node17&#45;&gt;Node8</title>
<path fill="none" stroke="midnightblue" d="M891.22,-224.44C836.17,-214.89 747.1,-199.42 688.42,-189.23"/>
<polygon fill="midnightblue" stroke="midnightblue" points="689,-185.78 678.55,-187.52 687.8,-192.68 689,-185.78"/>
</g>
<!-- Node25&#45;&gt;Node4 -->
<g id="edge40" class="edge">
<title>Node25&#45;&gt;Node4</title>
<path fill="none" stroke="midnightblue" d="M431.84,-448.13C426.27,-435.17 414.91,-410.59 401.5,-392 344.12,-312.49 232.7,-318.6 258.5,-224 266.1,-196.13 268.29,-185.2 291.5,-168 346.24,-127.44 390.73,-178.53 440.5,-132 469.22,-105.15 476.36,-56.88 478.06,-30.14"/>
<polygon fill="midnightblue" stroke="midnightblue" points="481.57,-29.96 478.5,-19.82 474.57,-29.66 481.57,-29.96"/>
</g>
<!-- Node25&#45;&gt;Node5 -->
<g id="edge41" class="edge">
<title>Node25&#45;&gt;Node5</title>
<path fill="none" stroke="midnightblue" d="M418.79,-448.32C402.19,-439.7 376.5,-426.36 357.28,-416.39"/>
<polygon fill="midnightblue" stroke="midnightblue" points="358.66,-413.16 348.17,-411.65 355.43,-419.37 358.66,-413.16"/>
</g>
<!-- Node26&#45;&gt;Node12 -->
<g id="edge44" class="edge">
<title>Node26&#45;&gt;Node12</title>
<path fill="none" stroke="midnightblue" d="M476.52,-683.36C473.76,-655.93 467.71,-568.83 493.5,-504 548.1,-366.76 632.69,-375.22 700.5,-244 718.01,-210.12 727.9,-166.25 732.43,-141.72"/>
<polygon fill="midnightblue" stroke="midnightblue" points="735.92,-142.09 734.19,-131.64 729.03,-140.89 735.92,-142.09"/>
</g>
<!-- Node26&#45;&gt;Node20 -->
<g id="edge66" class="edge">
<title>Node26&#45;&gt;Node20</title>
<path fill="none" stroke="midnightblue" d="M546.39,-691.35C773.69,-688.31 1485.5,-671.23 1485.5,-576.5 1485.5,-576.5 1485.5,-576.5 1485.5,-345 1485.5,-309.58 1464.34,-272.71 1450.12,-251.92"/>
<polygon fill="midnightblue" stroke="midnightblue" points="1452.82,-249.68 1444.17,-243.56 1447.12,-253.74 1452.82,-249.68"/>
</g>
<!-- Node26&#45;&gt;Node25 -->
<g id="edge43" class="edge">
<title>Node26&#45;&gt;Node25</title>
<path fill="none" stroke="midnightblue" d="M473.23,-683.26C469.07,-674.35 462.88,-660.03 459.5,-647 443.84,-586.6 438.21,-512.52 436.34,-478.17"/>
<polygon fill="midnightblue" stroke="midnightblue" points="439.82,-477.58 435.83,-467.77 432.83,-477.93 439.82,-477.58"/>
</g>
<!-- Node27 -->
<g id="node27" class="node">
<title>Node27</title>
<g id="a_node27"><a xlink:href="../../d0/d4e/Def_8hpp.html" target="_top" xlink:title=" ">
<polygon fill="white" stroke="black" points="647.5,-627.5 647.5,-646.5 721.5,-646.5 721.5,-627.5 647.5,-627.5"/>
<text text-anchor="middle" x="684.5" y="-634.5" font-family="Helvetica,sans-Serif" font-size="10.00">Def/Def.hpp</text>
</a>
</g>
</g>
<!-- Node26&#45;&gt;Node27 -->
<g id="edge45" class="edge">
<title>Node26&#45;&gt;Node27</title>
<path fill="none" stroke="midnightblue" d="M510.3,-683.44C545.88,-674.16 602.81,-659.31 641.85,-649.13"/>
<polygon fill="midnightblue" stroke="midnightblue" points="643.06,-652.43 651.85,-646.52 641.29,-645.65 643.06,-652.43"/>
</g>
<!-- Node27&#45;&gt;Node13 -->
<g id="edge63" class="edge">
<title>Node27&#45;&gt;Node13</title>
<path fill="none" stroke="midnightblue" d="M691.65,-627.36C698.27,-618.76 707.66,-604.87 711.5,-591 715.18,-577.72 715.46,-573.2 711.5,-560 663.44,-399.7 523.75,-244.48 476.4,-195.14"/>
<polygon fill="midnightblue" stroke="midnightblue" points="478.63,-192.41 469.15,-187.66 473.6,-197.28 478.63,-192.41"/>
</g>
<!-- Node27&#45;&gt;Node19 -->
<g id="edge64" class="edge">
<title>Node27&#45;&gt;Node19</title>
<path fill="none" stroke="midnightblue" d="M721.57,-632.78C753.86,-628.24 800.26,-617.3 831.5,-591 864.65,-563.09 846.36,-536.07 875.5,-504 958.25,-412.92 1007.69,-425.11 1109.5,-356 1144.51,-332.23 1160.29,-333.22 1186.5,-300 1197.37,-286.22 1204.54,-267.45 1208.74,-253.62"/>
<polygon fill="midnightblue" stroke="midnightblue" points="1212.17,-254.35 1211.49,-243.78 1205.43,-252.47 1212.17,-254.35"/>
</g>
<!-- Node27&#45;&gt;Node20 -->
<g id="edge65" class="edge">
<title>Node27&#45;&gt;Node20</title>
<path fill="none" stroke="midnightblue" d="M721.88,-635.82C861.98,-634.84 1350.8,-628.75 1408.5,-591 1440.27,-570.21 1447.5,-552.97 1447.5,-515 1447.5,-515 1447.5,-515 1447.5,-345 1447.5,-312.82 1443.2,-275.55 1440.24,-253.7"/>
<polygon fill="midnightblue" stroke="midnightblue" points="1443.67,-252.95 1438.81,-243.53 1436.74,-253.92 1443.67,-252.95"/>
</g>
<!-- Node28 -->
<g id="node28" class="node">
<title>Node28</title>
<g id="a_node28"><a xlink:href="../../d7/d42/Channel_8hpp.html" target="_top" xlink:title=" ">
<polygon fill="white" stroke="black" points="531,-224.5 531,-243.5 608,-243.5 608,-224.5 531,-224.5"/>
<text text-anchor="middle" x="569.5" y="-231.5" font-family="Helvetica,sans-Serif" font-size="10.00">Channel.hpp</text>
</a>
</g>
</g>
<!-- Node27&#45;&gt;Node28 -->
<g id="edge46" class="edge">
<title>Node27&#45;&gt;Node28</title>
<path fill="none" stroke="midnightblue" d="M681.99,-627.25C667.56,-576.91 595.02,-323.98 574.76,-253.35"/>
<polygon fill="midnightblue" stroke="midnightblue" points="578.1,-252.28 571.98,-243.63 571.37,-254.21 578.1,-252.28"/>
</g>
<!-- Node29 -->
<g id="node29" class="node">
<title>Node29</title>
<g id="a_node29"><a xlink:href="../../d2/dbc/Cable_8hpp.html" target="_top" xlink:title=" ">
<polygon fill="white" stroke="black" points="626,-224.5 626,-243.5 691,-243.5 691,-224.5 626,-224.5"/>
<text text-anchor="middle" x="658.5" y="-231.5" font-family="Helvetica,sans-Serif" font-size="10.00">Cable.hpp</text>
</a>
</g>
</g>
<!-- Node27&#45;&gt;Node29 -->
<g id="edge49" class="edge">
<title>Node27&#45;&gt;Node29</title>
<path fill="none" stroke="midnightblue" d="M686.83,-627.27C691.9,-607.46 703.5,-557.53 703.5,-515 703.5,-515 703.5,-515 703.5,-457 703.5,-380.05 677.21,-291.03 664.82,-253.35"/>
<polygon fill="midnightblue" stroke="midnightblue" points="668.1,-252.12 661.59,-243.75 661.46,-254.35 668.1,-252.12"/>
</g>
<!-- Node30 -->
<g id="node30" class="node">
<title>Node30</title>
<g id="a_node30"><a xlink:href="../../de/d76/Array_8hpp.html" target="_top" xlink:title=" ">
<polygon fill="white" stroke="black" points="502,-504.5 502,-523.5 637,-523.5 637,-504.5 502,-504.5"/>
<text text-anchor="middle" x="569.5" y="-511.5" font-family="Helvetica,sans-Serif" font-size="10.00">AH/Containers/Array.hpp</text>
</a>
</g>
</g>
<!-- Node27&#45;&gt;Node30 -->
<g id="edge52" class="edge">
<title>Node27&#45;&gt;Node30</title>
<path fill="none" stroke="midnightblue" d="M676.23,-627.3C657.08,-607.15 609.47,-557.06 584.83,-531.12"/>
<polygon fill="midnightblue" stroke="midnightblue" points="587.12,-528.46 577.7,-523.62 582.05,-533.28 587.12,-528.46"/>
</g>
<!-- Node31 -->
<g id="node31" class="node">
<title>Node31</title>
<g id="a_node31"><a xlink:href="../../d4/d35/Hardware-Types_8hpp.html" target="_top" xlink:title=" ">
<polygon fill="white" stroke="black" points="1268,-560.5 1268,-590.5 1399,-590.5 1399,-560.5 1268,-560.5"/>
<text text-anchor="start" x="1276" y="-578.5" font-family="Helvetica,sans-Serif" font-size="10.00">AH/Hardware/Hardware</text>
<text text-anchor="middle" x="1333.5" y="-567.5" font-family="Helvetica,sans-Serif" font-size="10.00">&#45;Types.hpp</text>
</a>
</g>
</g>
<!-- Node27&#45;&gt;Node31 -->
<g id="edge58" class="edge">
<title>Node27&#45;&gt;Node31</title>
<path fill="none" stroke="midnightblue" d="M721.72,-632.59C825.25,-623.1 1118.14,-596.24 1257.72,-583.45"/>
<polygon fill="midnightblue" stroke="midnightblue" points="1258.26,-586.91 1267.9,-582.51 1257.63,-579.94 1258.26,-586.91"/>
</g>
<!-- Node28&#45;&gt;Node8 -->
<g id="edge47" class="edge">
<title>Node28&#45;&gt;Node8</title>
<path fill="none" stroke="midnightblue" d="M579.14,-224.32C588.01,-216.34 601.37,-204.31 612.11,-194.65"/>
<polygon fill="midnightblue" stroke="midnightblue" points="614.59,-197.13 619.68,-187.83 609.91,-191.92 614.59,-197.13"/>
</g>
<!-- Node28&#45;&gt;Node13 -->
<g id="edge48" class="edge">
<title>Node28&#45;&gt;Node13</title>
<path fill="none" stroke="midnightblue" d="M551.99,-224.32C534.43,-215.62 507.17,-202.12 486.97,-192.11"/>
<polygon fill="midnightblue" stroke="midnightblue" points="488.48,-188.96 477.97,-187.65 485.38,-195.23 488.48,-188.96"/>
</g>
<!-- Node29&#45;&gt;Node8 -->
<g id="edge50" class="edge">
<title>Node29&#45;&gt;Node8</title>
<path fill="none" stroke="midnightblue" d="M653.71,-224.08C649.74,-216.69 643.97,-205.95 639.07,-196.81"/>
<polygon fill="midnightblue" stroke="midnightblue" points="642.01,-194.91 634.2,-187.75 635.85,-198.22 642.01,-194.91"/>
</g>
<!-- Node29&#45;&gt;Node13 -->
<g id="edge51" class="edge">
<title>Node29&#45;&gt;Node13</title>
<path fill="none" stroke="midnightblue" d="M627.13,-224.44C593.24,-215.2 539.1,-200.44 501.78,-190.26"/>
<polygon fill="midnightblue" stroke="midnightblue" points="502.3,-186.77 491.73,-187.52 500.45,-193.52 502.3,-186.77"/>
</g>
<!-- Node30&#45;&gt;Node4 -->
<g id="edge53" class="edge">
<title>Node30&#45;&gt;Node4</title>
<path fill="none" stroke="midnightblue" d="M559.9,-504.5C512.75,-462.63 307.28,-278.96 292.5,-244 275.74,-204.36 315.48,-189.94 352.5,-168 396.39,-141.99 424.44,-167.06 461.5,-132 489.28,-105.72 486.37,-56.46 482.21,-29.61"/>
<polygon fill="midnightblue" stroke="midnightblue" points="485.63,-28.84 480.44,-19.61 478.74,-30.06 485.63,-28.84"/>
</g>
<!-- Node30&#45;&gt;Node12 -->
<g id="edge56" class="edge">
<title>Node30&#45;&gt;Node12</title>
<path fill="none" stroke="midnightblue" d="M614.69,-504.5C665.65,-491.99 741.5,-463.26 741.5,-403 741.5,-403 741.5,-403 741.5,-345 741.5,-269.88 738.02,-180.51 736.36,-142.09"/>
<polygon fill="midnightblue" stroke="midnightblue" points="739.85,-141.72 735.91,-131.88 732.86,-142.02 739.85,-141.72"/>
</g>
<!-- Node30&#45;&gt;Node19 -->
<g id="edge57" class="edge">
<title>Node30&#45;&gt;Node19</title>
<path fill="none" stroke="midnightblue" d="M612.85,-504.43C650.88,-496.46 707.44,-483.5 755.5,-468 941.74,-407.92 1007.11,-418.95 1162.5,-300 1179.53,-286.97 1194.06,-266.99 1203.21,-252.62"/>
<polygon fill="midnightblue" stroke="midnightblue" points="1206.41,-254.08 1208.64,-243.73 1200.44,-250.43 1206.41,-254.08"/>
</g>
<!-- Node30&#45;&gt;Node24 -->
<g id="edge55" class="edge">
<title>Node30&#45;&gt;Node24</title>
<path fill="none" stroke="midnightblue" d="M524.09,-504.46C484.25,-496.5 424.97,-483.56 374.5,-468 324.92,-452.72 269.08,-429.77 236.16,-415.62"/>
<polygon fill="midnightblue" stroke="midnightblue" points="237.28,-412.29 226.72,-411.53 234.5,-418.72 237.28,-412.29"/>
</g>
<!-- Node30&#45;&gt;Node25 -->
<g id="edge54" class="edge">
<title>Node30&#45;&gt;Node25</title>
<path fill="none" stroke="midnightblue" d="M548.27,-504.44C526.12,-495.52 491.18,-481.44 466.06,-471.32"/>
<polygon fill="midnightblue" stroke="midnightblue" points="467.22,-468.01 456.63,-467.52 464.6,-474.5 467.22,-468.01"/>
</g>
<!-- Node31&#45;&gt;Node4 -->
<g id="edge59" class="edge">
<title>Node31&#45;&gt;Node4</title>
<path fill="none" stroke="midnightblue" d="M1341.37,-560.41C1352.5,-539.13 1371.5,-497.21 1371.5,-459 1371.5,-459 1371.5,-459 1371.5,-121 1371.5,-56.8 1304.5,-72.68 1242.5,-56 1115.82,-21.92 730,-13.64 560.19,-11.64"/>
<polygon fill="midnightblue" stroke="midnightblue" points="560.1,-8.14 550.06,-11.52 560.02,-15.14 560.1,-8.14"/>
</g>
<!-- Node31&#45;&gt;Node7 -->
<g id="edge61" class="edge">
<title>Node31&#45;&gt;Node7</title>
<path fill="none" stroke="midnightblue" d="M1333.5,-560.28C1333.5,-538.48 1333.5,-495.49 1333.5,-459 1333.5,-459 1333.5,-459 1333.5,-345 1333.5,-211.12 1225.3,-215.31 1120.5,-132 1100.51,-116.11 1078.8,-96.44 1064.3,-82.93"/>
<polygon fill="midnightblue" stroke="midnightblue" points="1066.35,-80.05 1056.66,-75.76 1061.55,-85.15 1066.35,-80.05"/>
</g>
<!-- Node31&#45;&gt;Node20 -->
<g id="edge62" class="edge">
<title>Node31&#45;&gt;Node20</title>
<path fill="none" stroke="midnightblue" d="M1351.9,-560.23C1362.9,-550.91 1376.44,-537.92 1385.5,-524 1402.3,-498.19 1409.5,-489.8 1409.5,-459 1409.5,-459 1409.5,-459 1409.5,-345 1409.5,-311.79 1421.63,-274.63 1429.93,-253.12"/>
<polygon fill="midnightblue" stroke="midnightblue" points="1433.25,-254.23 1433.72,-243.65 1426.75,-251.63 1433.25,-254.23"/>
</g>
<!-- Node31&#45;&gt;Node30 -->
<g id="edge60" class="edge">
<title>Node31&#45;&gt;Node30</title>
<path fill="none" stroke="midnightblue" d="M1267.7,-569.38C1127.06,-558.42 797.75,-532.78 647.14,-521.05"/>
<polygon fill="midnightblue" stroke="midnightblue" points="647.29,-517.55 637.05,-520.26 646.75,-524.53 647.29,-517.55"/>
</g>
<!-- Node32&#45;&gt;Node3 -->
<g id="edge68" class="edge">
<title>Node32&#45;&gt;Node3</title>
<path fill="none" stroke="midnightblue" d="M200.02,-739.45C201.11,-720.95 203.5,-675.84 203.5,-638 203.5,-638 203.5,-638 203.5,-574.5 203.5,-539.01 189.68,-499.42 180.49,-477.03"/>
<polygon fill="midnightblue" stroke="midnightblue" points="183.69,-475.6 176.55,-467.77 177.25,-478.34 183.69,-475.6"/>
</g>
<!-- Node33 -->
<g id="node33" class="node">
<title>Node33</title>
<g id="a_node33"><a xlink:href="../../dc/d77/DisplayInterface_8hpp.html" target="_top" xlink:title=" ">
<polygon fill="white" stroke="black" points="17.5,-683.5 17.5,-702.5 175.5,-702.5 175.5,-683.5 17.5,-683.5"/>
<text text-anchor="middle" x="96.5" y="-690.5" font-family="Helvetica,sans-Serif" font-size="10.00">Display/DisplayInterface.hpp</text>
</a>
</g>
</g>
<!-- Node32&#45;&gt;Node33 -->
<g id="edge69" class="edge">
<title>Node32&#45;&gt;Node33</title>
<path fill="none" stroke="midnightblue" d="M182.95,-739.32C166.51,-730.7 141.07,-717.36 122.03,-707.39"/>
<polygon fill="midnightblue" stroke="midnightblue" points="123.49,-704.2 113.01,-702.65 120.24,-710.4 123.49,-704.2"/>
</g>
<!-- Node33&#45;&gt;Node3 -->
<g id="edge70" class="edge">
<title>Node33&#45;&gt;Node3</title>
<path fill="none" stroke="midnightblue" d="M98.96,-683.13C102.48,-670.59 109.2,-646.96 115.5,-627 132.76,-572.33 155.05,-508.34 165.94,-477.49"/>
<polygon fill="midnightblue" stroke="midnightblue" points="169.37,-478.3 169.4,-467.7 162.77,-475.96 169.37,-478.3"/>
</g>
<!-- Node33&#45;&gt;Node27 -->
<g id="edge71" class="edge">
<title>Node33&#45;&gt;Node27</title>
<path fill="none" stroke="midnightblue" d="M175.8,-684.72C299.93,-673.32 536.34,-651.61 637.1,-642.35"/>
<polygon fill="midnightblue" stroke="midnightblue" points="637.64,-645.82 647.28,-641.42 637,-638.85 637.64,-645.82"/>
</g>
<!-- Node34 -->
<g id="node34" class="node">
<title>Node34</title>
<g id="a_node34"><a xlink:title=" ">
<polygon fill="white" stroke="#bfbfbf" points="124.5,-627.5 124.5,-646.5 172.5,-646.5 172.5,-627.5 124.5,-627.5"/>
<text text-anchor="middle" x="148.5" y="-634.5" font-family="Helvetica,sans-Serif" font-size="10.00">Print.h</text>
</a>
</g>
</g>
<!-- Node33&#45;&gt;Node34 -->
<g id="edge72" class="edge">
<title>Node33&#45;&gt;Node34</title>
<path fill="none" stroke="midnightblue" d="M105.09,-683.08C112.66,-675.22 123.88,-663.57 133.01,-654.08"/>
<polygon fill="midnightblue" stroke="midnightblue" points="135.66,-656.38 140.07,-646.75 130.62,-651.53 135.66,-656.38"/>
</g>
<!-- Node35&#45;&gt;Node5 -->
<g id="edge84" class="edge">
<title>Node35&#45;&gt;Node5</title>
<path fill="none" stroke="midnightblue" d="M452.31,-739.41C435.17,-732.29 413.34,-720.46 400.5,-703 334.86,-613.72 330.28,-472.26 330.92,-421.71"/>
<polygon fill="midnightblue" stroke="midnightblue" points="334.42,-421.7 331.13,-411.62 327.42,-421.55 334.42,-421.7"/>
</g>
<!-- Node35&#45;&gt;Node26 -->
<g id="edge74" class="edge">
<title>Node35&#45;&gt;Node26</title>
<path fill="none" stroke="midnightblue" d="M477.5,-739.08C477.5,-732.01 477.5,-721.86 477.5,-712.99"/>
<polygon fill="midnightblue" stroke="midnightblue" points="481,-712.75 477.5,-702.75 474,-712.75 481,-712.75"/>
</g>
<!-- Node35&#45;&gt;Node27 -->
<g id="edge85" class="edge">
<title>Node35&#45;&gt;Node27</title>
<path fill="none" stroke="midnightblue" d="M493.74,-739.37C529.72,-720.25 616.32,-674.23 659.36,-651.36"/>
<polygon fill="midnightblue" stroke="midnightblue" points="661.14,-654.37 668.33,-646.59 657.86,-648.19 661.14,-654.37"/>
</g>
<!-- Node36 -->
<g id="node36" class="node">
<title>Node36</title>
<g id="a_node36"><a xlink:href="../../d4/d93/Updatable_8hpp.html" target="_top" xlink:title=" ">
<polygon fill="white" stroke="black" points="884,-504.5 884,-523.5 1045,-523.5 1045,-504.5 884,-504.5"/>
<text text-anchor="middle" x="964.5" y="-511.5" font-family="Helvetica,sans-Serif" font-size="10.00">AH/Containers/Updatable.hpp</text>
</a>
</g>
</g>
<!-- Node35&#45;&gt;Node36 -->
<g id="edge75" class="edge">
<title>Node35&#45;&gt;Node36</title>
<path fill="none" stroke="midnightblue" d="M507.16,-739.48C574.5,-719.43 742.89,-665.31 869.5,-591 899.36,-573.48 929.92,-547.24 948.05,-530.63"/>
<polygon fill="midnightblue" stroke="midnightblue" points="950.52,-533.11 955.46,-523.74 945.75,-527.99 950.52,-533.11"/>
</g>
<!-- Node36&#45;&gt;Node3 -->
<g id="edge78" class="edge">
<title>Node36&#45;&gt;Node3</title>
<path fill="none" stroke="midnightblue" d="M883.83,-507.5C734.82,-497.34 417.47,-475.7 262.04,-465.1"/>
<polygon fill="midnightblue" stroke="midnightblue" points="262.25,-461.61 252.04,-464.42 261.78,-468.6 262.25,-461.61"/>
</g>
<!-- Node36&#45;&gt;Node4 -->
<g id="edge76" class="edge">
<title>Node36&#45;&gt;Node4</title>
<path fill="none" stroke="midnightblue" d="M1045.15,-511.06C1125.9,-507.45 1242.87,-497.19 1276.5,-468 1299.23,-448.27 1295.5,-433.1 1295.5,-403 1295.5,-403 1295.5,-403 1295.5,-345 1295.5,-271.03 1307.5,-252.97 1307.5,-179 1307.5,-179 1307.5,-179 1307.5,-121 1307.5,-56.4 1239.86,-72.85 1177.5,-56 1063.35,-25.15 719.22,-15.2 560.42,-12.2"/>
<polygon fill="midnightblue" stroke="midnightblue" points="560.3,-8.7 550.24,-12.01 560.17,-15.7 560.3,-8.7"/>
</g>
<!-- Node36&#45;&gt;Node12 -->
<g id="edge80" class="edge">
<title>Node36&#45;&gt;Node12</title>
<path fill="none" stroke="midnightblue" d="M955.9,-504.5C933.48,-481.99 872.4,-418.27 834.5,-356 810.86,-317.16 760.77,-188.93 742.42,-141.15"/>
<polygon fill="midnightblue" stroke="midnightblue" points="745.59,-139.62 738.74,-131.53 739.05,-142.12 745.59,-139.62"/>
</g>
<!-- Node36&#45;&gt;Node14 -->
<g id="edge82" class="edge">
<title>Node36&#45;&gt;Node14</title>
<path fill="none" stroke="midnightblue" d="M962.78,-504.08C957.74,-477.95 942.95,-401.21 936.08,-365.58"/>
<polygon fill="midnightblue" stroke="midnightblue" points="939.48,-364.72 934.15,-355.57 932.61,-366.05 939.48,-364.72"/>
</g>
<!-- Node36&#45;&gt;Node19 -->
<g id="edge83" class="edge">
<title>Node36&#45;&gt;Node19</title>
<path fill="none" stroke="midnightblue" d="M970.47,-504.35C980.21,-490.79 1000.73,-464.37 1023.5,-448 1106.23,-388.52 1177.75,-441.29 1233.5,-356 1254.29,-324.2 1236.38,-277.95 1223.62,-252.84"/>
<polygon fill="midnightblue" stroke="midnightblue" points="1226.57,-250.92 1218.76,-243.76 1220.4,-254.23 1226.57,-250.92"/>
</g>
<!-- Node36&#45;&gt;Node25 -->
<g id="edge79" class="edge">
<title>Node36&#45;&gt;Node25</title>
<path fill="none" stroke="midnightblue" d="M883.87,-504.77C777.82,-493.94 593.74,-475.15 497.76,-465.36"/>
<polygon fill="midnightblue" stroke="midnightblue" points="497.93,-461.85 487.62,-464.32 497.22,-468.82 497.93,-461.85"/>
</g>
<!-- Node37 -->
<g id="node37" class="node">
<title>Node37</title>
<g id="a_node37"><a xlink:href="../../d4/dba/CRTP_8hpp.html" target="_top" xlink:title=" ">
<polygon fill="white" stroke="black" points="1133.5,-448.5 1133.5,-467.5 1267.5,-467.5 1267.5,-448.5 1133.5,-448.5"/>
<text text-anchor="middle" x="1200.5" y="-455.5" font-family="Helvetica,sans-Serif" font-size="10.00">AH/Containers/CRTP.hpp</text>
</a>
</g>
</g>
<!-- Node36&#45;&gt;Node37 -->
<g id="edge77" class="edge">
<title>Node36&#45;&gt;Node37</title>
<path fill="none" stroke="midnightblue" d="M1001.89,-504.44C1042.89,-495.06 1108.75,-479.99 1153.28,-469.8"/>
<polygon fill="midnightblue" stroke="midnightblue" points="1154.31,-473.16 1163.28,-467.52 1152.75,-466.34 1154.31,-473.16"/>
</g>
<!-- Node38 -->
<g id="node38" class="node">
<title>Node38</title>
<g id="a_node38"><a xlink:title=" ">
<polygon fill="white" stroke="#bfbfbf" points="1032,-448.5 1032,-467.5 1115,-467.5 1115,-448.5 1032,-448.5"/>
<text text-anchor="middle" x="1073.5" y="-455.5" font-family="Helvetica,sans-Serif" font-size="10.00">AH/STL/utility</text>
</a>
</g>
</g>
<!-- Node36&#45;&gt;Node38 -->
<g id="edge81" class="edge">
<title>Node36&#45;&gt;Node38</title>
<path fill="none" stroke="midnightblue" d="M982.01,-504.32C999.57,-495.62 1026.83,-482.12 1047.03,-472.11"/>
<polygon fill="midnightblue" stroke="midnightblue" points="1048.62,-475.23 1056.03,-467.65 1045.52,-468.96 1048.62,-475.23"/>
</g>
</g>
</svg>
