<?xml version="1.0" encoding="UTF-8" standalone="no"?>
<!DOCTYPE svg PUBLIC "-//W3C//DTD SVG 1.1//EN"
 "http://www.w3.org/Graphics/SVG/1.1/DTD/svg11.dtd">
<!-- Generated by graphviz version 2.43.0 (0)
 -->
<!-- Title: src Pages: 1 -->
<svg width="730pt" height="724pt"
 viewBox="0.00 0.00 730.00 724.00" xmlns="http://www.w3.org/2000/svg" xmlns:xlink="http://www.w3.org/1999/xlink">
<g id="graph0" class="graph" transform="scale(1 1) rotate(0) translate(4 720)">
<title>src</title>
<polygon fill="white" stroke="transparent" points="-4,4 -4,-720 726,-720 726,4 -4,4"/>
<g id="clust1" class="cluster">
<title>clusterdir_68267d1309a1af8e8297ef4c3efbcdba</title>
<g id="a_clust1"><a xlink:href="dir_68267d1309a1af8e8297ef4c3efbcdba.html" target="_top">
<polygon fill="#eeeeff" stroke="black" points="8,-8 8,-708 714,-708 714,-8 8,-8"/>
</a>
</g>
</g>
<!-- dir_68267d1309a1af8e8297ef4c3efbcdba -->
<g id="node1" class="node">
<title>dir_68267d1309a1af8e8297ef4c3efbcdba</title>
<text text-anchor="middle" x="121" y="-679.5" font-family="Helvetica,sans-Serif" font-size="10.00">src</text>
</g>
<!-- dir_c64386e93f356b78d4612c7b7741707c -->
<g id="node3" class="node">
<title>dir_c64386e93f356b78d4612c7b7741707c</title>
<g id="a_node3"><a xlink:href="dir_c64386e93f356b78d4612c7b7741707c.html" target="_top" xlink:title="Audio">
<polygon fill="white" stroke="black" points="98,-628 44,-628 44,-592 98,-592 98,-628"/>
<text text-anchor="middle" x="71" y="-607.5" font-family="Helvetica,sans-Serif" font-size="10.00">Audio</text>
</a>
</g>
</g>
<!-- dir_68267d1309a1af8e8297ef4c3efbcdba&#45;&gt;dir_c64386e93f356b78d4612c7b7741707c -->
<g id="edge18" class="edge">
<title>dir_68267d1309a1af8e8297ef4c3efbcdba&#45;&gt;dir_c64386e93f356b78d4612c7b7741707c</title>
<path fill="none" stroke="black" d="M108.64,-663.7C102.77,-655.47 95.63,-645.48 89.16,-636.42"/>
<polygon fill="black" stroke="black" points="91.88,-634.21 83.22,-628.1 86.18,-638.28 91.88,-634.21"/>
<g id="a_edge18&#45;headlabel"><a xlink:href="dir_000002_000018.html" target="_top" xlink:title="3">
<text text-anchor="middle" x="96.28" y="-632.98" font-family="Helvetica,sans-Serif" font-size="10.00">3</text>
</a>
</g>
</g>
<!-- dir_15b6432dff6a6d357bf70f8fbf2cdf14 -->
<g id="node2" class="node">
<title>dir_15b6432dff6a6d357bf70f8fbf2cdf14</title>
<g id="a_node2"><a xlink:href="dir_15b6432dff6a6d357bf70f8fbf2cdf14.html" target="_top" xlink:title="AH">
<polygon fill="white" stroke="red" points="267,-52 213,-52 213,-16 267,-16 267,-52"/>
<text text-anchor="middle" x="240" y="-31.5" font-family="Helvetica,sans-Serif" font-size="10.00">AH</text>
</a>
</g>
</g>
<!-- dir_c64386e93f356b78d4612c7b7741707c&#45;&gt;dir_15b6432dff6a6d357bf70f8fbf2cdf14 -->
<g id="edge39" class="edge">
<title>dir_c64386e93f356b78d4612c7b7741707c&#45;&gt;dir_15b6432dff6a6d357bf70f8fbf2cdf14</title>
<path fill="none" stroke="black" d="M59.81,-591.87C43.99,-565.96 17,-514.74 17,-467 17,-467 17,-467 17,-249 17,-246.48 99.12,-89.68 101,-88 129.95,-62.24 172.71,-48.47 203.15,-41.49"/>
<polygon fill="black" stroke="black" points="203.93,-44.9 212.96,-39.37 202.45,-38.06 203.93,-44.9"/>
<g id="a_edge39&#45;headlabel"><a xlink:href="dir_000018_000003.html" target="_top" xlink:title="4">
<text text-anchor="middle" x="201.01" y="-45.93" font-family="Helvetica,sans-Serif" font-size="10.00">4</text>
</a>
</g>
</g>
<!-- dir_c90f87021e89d05236fc514cb49c4dcf -->
<g id="node6" class="node">
<title>dir_c90f87021e89d05236fc514cb49c4dcf</title>
<g id="a_node6"><a xlink:href="dir_c90f87021e89d05236fc514cb49c4dcf.html" target="_top" xlink:title="Def">
<polygon fill="white" stroke="black" points="244,-124 190,-124 190,-88 244,-88 244,-124"/>
<text text-anchor="middle" x="217" y="-103.5" font-family="Helvetica,sans-Serif" font-size="10.00">Def</text>
</a>
</g>
</g>
<!-- dir_c64386e93f356b78d4612c7b7741707c&#45;&gt;dir_c90f87021e89d05236fc514cb49c4dcf -->
<g id="edge41" class="edge">
<title>dir_c64386e93f356b78d4612c7b7741707c&#45;&gt;dir_c90f87021e89d05236fc514cb49c4dcf</title>
<path fill="none" stroke="black" d="M64.52,-591.79C55.17,-565.36 39,-512.99 39,-467 39,-467 39,-467 39,-393 39,-282.77 45.26,-237.15 124,-160 140.16,-144.16 161.99,-131.4 180.44,-122.37"/>
<polygon fill="black" stroke="black" points="182.18,-125.42 189.73,-117.99 179.19,-119.09 182.18,-125.42"/>
<g id="a_edge41&#45;headlabel"><a xlink:href="dir_000018_000021.html" target="_top" xlink:title="2">
<text text-anchor="middle" x="180.14" y="-127.02" font-family="Helvetica,sans-Serif" font-size="10.00">2</text>
</a>
</g>
</g>
<!-- dir_4b65e0e927a600dbbefc4f76cc5a7f7c -->
<g id="node10" class="node">
<title>dir_4b65e0e927a600dbbefc4f76cc5a7f7c</title>
<g id="a_node10"><a xlink:href="dir_4b65e0e927a600dbbefc4f76cc5a7f7c.html" target="_top" xlink:title="MIDI_Inputs">
<polygon fill="white" stroke="red" points="177,-556 103,-556 103,-520 177,-520 177,-556"/>
<text text-anchor="middle" x="140" y="-535.5" font-family="Helvetica,sans-Serif" font-size="10.00">MIDI_Inputs</text>
</a>
</g>
</g>
<!-- dir_c64386e93f356b78d4612c7b7741707c&#45;&gt;dir_4b65e0e927a600dbbefc4f76cc5a7f7c -->
<g id="edge40" class="edge">
<title>dir_c64386e93f356b78d4612c7b7741707c&#45;&gt;dir_4b65e0e927a600dbbefc4f76cc5a7f7c</title>
<path fill="none" stroke="black" d="M88.06,-591.7C96.5,-583.14 106.82,-572.66 116.04,-563.3"/>
<polygon fill="black" stroke="black" points="118.61,-565.68 123.14,-556.1 113.63,-560.77 118.61,-565.68"/>
<g id="a_edge40&#45;headlabel"><a xlink:href="dir_000018_000030.html" target="_top" xlink:title="1">
<text text-anchor="middle" x="118.11" y="-567.74" font-family="Helvetica,sans-Serif" font-size="10.00">1</text>
</a>
</g>
</g>
<!-- dir_96809ae32da64306a703eb7e36380126 -->
<g id="node4" class="node">
<title>dir_96809ae32da64306a703eb7e36380126</title>
<g id="a_node4"><a xlink:href="dir_96809ae32da64306a703eb7e36380126.html" target="_top" xlink:title="Banks">
<polygon fill="white" stroke="black" points="208,-484 154,-484 154,-448 208,-448 208,-484"/>
<text text-anchor="middle" x="181" y="-463.5" font-family="Helvetica,sans-Serif" font-size="10.00">Banks</text>
</a>
</g>
</g>
<!-- dir_96809ae32da64306a703eb7e36380126&#45;&gt;dir_15b6432dff6a6d357bf70f8fbf2cdf14 -->
<g id="edge28" class="edge">
<title>dir_96809ae32da64306a703eb7e36380126&#45;&gt;dir_15b6432dff6a6d357bf70f8fbf2cdf14</title>
<path fill="none" stroke="black" d="M168.54,-447.7C161.98,-437.73 154.4,-424.69 150,-412 113.27,-306.01 127.51,-271.85 136,-160 138.45,-127.72 128.66,-114.68 147,-88 160.39,-68.52 183.43,-55.32 203.23,-46.96"/>
<polygon fill="black" stroke="black" points="204.62,-50.17 212.63,-43.24 202.04,-43.66 204.62,-50.17"/>
<g id="a_edge28&#45;headlabel"><a xlink:href="dir_000019_000003.html" target="_top" xlink:title="3">
<text text-anchor="middle" x="202.32" y="-51.63" font-family="Helvetica,sans-Serif" font-size="10.00">3</text>
</a>
</g>
</g>
<!-- dir_96809ae32da64306a703eb7e36380126&#45;&gt;dir_c90f87021e89d05236fc514cb49c4dcf -->
<g id="edge30" class="edge">
<title>dir_96809ae32da64306a703eb7e36380126&#45;&gt;dir_c90f87021e89d05236fc514cb49c4dcf</title>
<path fill="none" stroke="black" d="M174.58,-447.88C160.91,-409.12 131.59,-311.78 149,-232 157.16,-194.6 180.36,-156.67 197.4,-132.56"/>
<polygon fill="black" stroke="black" points="200.33,-134.48 203.36,-124.33 194.66,-130.38 200.33,-134.48"/>
<g id="a_edge30&#45;headlabel"><a xlink:href="dir_000019_000021.html" target="_top" xlink:title="2">
<text text-anchor="middle" x="200.52" y="-136.56" font-family="Helvetica,sans-Serif" font-size="10.00">2</text>
</a>
</g>
</g>
<!-- dir_ab77b90ed5338b1b1a87b678e21cf0af -->
<g id="node15" class="node">
<title>dir_ab77b90ed5338b1b1a87b678e21cf0af</title>
<g id="a_node15"><a xlink:href="dir_ab77b90ed5338b1b1a87b678e21cf0af.html" target="_top" xlink:title="Selectors">
<polygon fill="white" stroke="red" points="262,-412 200,-412 200,-376 262,-376 262,-412"/>
<text text-anchor="middle" x="231" y="-391.5" font-family="Helvetica,sans-Serif" font-size="10.00">Selectors</text>
</a>
</g>
</g>
<!-- dir_96809ae32da64306a703eb7e36380126&#45;&gt;dir_ab77b90ed5338b1b1a87b678e21cf0af -->
<g id="edge29" class="edge">
<title>dir_96809ae32da64306a703eb7e36380126&#45;&gt;dir_ab77b90ed5338b1b1a87b678e21cf0af</title>
<path fill="none" stroke="black" d="M187.44,-447.7C192.52,-439.39 199.55,-429.28 206.54,-420.14"/>
<polygon fill="black" stroke="black" points="209.43,-422.12 212.89,-412.1 203.94,-417.78 209.43,-422.12"/>
<g id="a_edge29&#45;headlabel"><a xlink:href="dir_000019_000049.html" target="_top" xlink:title="1">
<text text-anchor="middle" x="209.43" y="-424.2" font-family="Helvetica,sans-Serif" font-size="10.00">1</text>
</a>
</g>
</g>
<!-- dir_0674f0083f2092f390ac2eb0a6bbcc00 -->
<g id="node5" class="node">
<title>dir_0674f0083f2092f390ac2eb0a6bbcc00</title>
<g id="a_node5"><a xlink:href="dir_0674f0083f2092f390ac2eb0a6bbcc00.html" target="_top" xlink:title="Control_Surface">
<polygon fill="white" stroke="black" points="394,-340 300,-340 300,-304 394,-304 394,-340"/>
<text text-anchor="middle" x="347" y="-319.5" font-family="Helvetica,sans-Serif" font-size="10.00">Control_Surface</text>
</a>
</g>
</g>
<!-- dir_0674f0083f2092f390ac2eb0a6bbcc00&#45;&gt;dir_15b6432dff6a6d357bf70f8fbf2cdf14 -->
<g id="edge1" class="edge">
<title>dir_0674f0083f2092f390ac2eb0a6bbcc00&#45;&gt;dir_15b6432dff6a6d357bf70f8fbf2cdf14</title>
<path fill="none" stroke="black" d="M394.37,-318.86C501.88,-311.85 750.83,-282.33 695,-160 674.73,-115.57 656.43,-108.27 612,-88 552.65,-60.92 359.01,-43.81 277.11,-37.61"/>
<polygon fill="black" stroke="black" points="277.24,-34.11 267.01,-36.86 276.72,-41.09 277.24,-34.11"/>
<g id="a_edge1&#45;headlabel"><a xlink:href="dir_000020_000003.html" target="_top" xlink:title="7">
<text text-anchor="middle" x="281.04" y="-29.05" font-family="Helvetica,sans-Serif" font-size="10.00">7</text>
</a>
</g>
</g>
<!-- dir_8b29354ea792f14f229ba6ab36888b3c -->
<g id="node7" class="node">
<title>dir_8b29354ea792f14f229ba6ab36888b3c</title>
<g id="a_node7"><a xlink:href="dir_8b29354ea792f14f229ba6ab36888b3c.html" target="_top" xlink:title="Display">
<polygon fill="white" stroke="red" points="212,-268 158,-268 158,-232 212,-232 212,-268"/>
<text text-anchor="middle" x="185" y="-247.5" font-family="Helvetica,sans-Serif" font-size="10.00">Display</text>
</a>
</g>
</g>
<!-- dir_0674f0083f2092f390ac2eb0a6bbcc00&#45;&gt;dir_8b29354ea792f14f229ba6ab36888b3c -->
<g id="edge5" class="edge">
<title>dir_0674f0083f2092f390ac2eb0a6bbcc00&#45;&gt;dir_8b29354ea792f14f229ba6ab36888b3c</title>
<path fill="none" stroke="black" d="M307.37,-303.88C281.12,-292.53 246.95,-277.77 221.4,-266.73"/>
<polygon fill="black" stroke="black" points="222.62,-263.44 212.06,-262.69 219.85,-269.87 222.62,-263.44"/>
<g id="a_edge5&#45;headlabel"><a xlink:href="dir_000020_000022.html" target="_top" xlink:title="2">
<text text-anchor="middle" x="227.05" y="-259.76" font-family="Helvetica,sans-Serif" font-size="10.00">2</text>
</a>
</g>
</g>
<!-- dir_d1912c7983f599f589f0119eae45b817 -->
<g id="node9" class="node">
<title>dir_d1912c7983f599f589f0119eae45b817</title>
<g id="a_node9"><a xlink:href="dir_d1912c7983f599f589f0119eae45b817.html" target="_top" xlink:title="MIDI_Constants">
<polygon fill="white" stroke="red" points="425.5,-196 332.5,-196 332.5,-160 425.5,-160 425.5,-196"/>
<text text-anchor="middle" x="379" y="-175.5" font-family="Helvetica,sans-Serif" font-size="10.00">MIDI_Constants</text>
</a>
</g>
</g>
<!-- dir_0674f0083f2092f390ac2eb0a6bbcc00&#45;&gt;dir_d1912c7983f599f589f0119eae45b817 -->
<g id="edge7" class="edge">
<title>dir_0674f0083f2092f390ac2eb0a6bbcc00&#45;&gt;dir_d1912c7983f599f589f0119eae45b817</title>
<path fill="none" stroke="black" d="M355.61,-303.76C360.31,-293.6 365.81,-280.35 369,-268 374.24,-247.71 376.73,-224.11 377.92,-206.32"/>
<polygon fill="black" stroke="black" points="381.42,-206.51 378.49,-196.32 374.43,-206.11 381.42,-206.51"/>
<g id="a_edge7&#45;headlabel"><a xlink:href="dir_000020_000028.html" target="_top" xlink:title="1">
<text text-anchor="middle" x="384.05" y="-207.76" font-family="Helvetica,sans-Serif" font-size="10.00">1</text>
</a>
</g>
</g>
<!-- dir_0674f0083f2092f390ac2eb0a6bbcc00&#45;&gt;dir_4b65e0e927a600dbbefc4f76cc5a7f7c -->
<g id="edge3" class="edge">
<title>dir_0674f0083f2092f390ac2eb0a6bbcc00&#45;&gt;dir_4b65e0e927a600dbbefc4f76cc5a7f7c</title>
<path fill="none" stroke="black" d="M337.45,-340.3C319.36,-371.89 277.46,-439.71 228,-484 214.91,-495.72 198.85,-506.28 184.06,-514.82"/>
<polygon fill="black" stroke="black" points="182.06,-511.93 175.05,-519.87 185.48,-518.03 182.06,-511.93"/>
<g id="a_edge3&#45;headlabel"><a xlink:href="dir_000020_000030.html" target="_top" xlink:title="1">
<text text-anchor="middle" x="183.81" y="-505.19" font-family="Helvetica,sans-Serif" font-size="10.00">1</text>
</a>
</g>
</g>
<!-- dir_6a6436ad46e42aad24bc1ce93af4f420 -->
<g id="node11" class="node">
<title>dir_6a6436ad46e42aad24bc1ce93af4f420</title>
<g id="a_node11"><a xlink:href="dir_6a6436ad46e42aad24bc1ce93af4f420.html" target="_top" xlink:title="MIDI_Interfaces">
<polygon fill="white" stroke="red" points="616.5,-268 523.5,-268 523.5,-232 616.5,-232 616.5,-268"/>
<text text-anchor="middle" x="570" y="-247.5" font-family="Helvetica,sans-Serif" font-size="10.00">MIDI_Interfaces</text>
</a>
</g>
</g>
<!-- dir_0674f0083f2092f390ac2eb0a6bbcc00&#45;&gt;dir_6a6436ad46e42aad24bc1ce93af4f420 -->
<g id="edge4" class="edge">
<title>dir_0674f0083f2092f390ac2eb0a6bbcc00&#45;&gt;dir_6a6436ad46e42aad24bc1ce93af4f420</title>
<path fill="none" stroke="black" d="M394.02,-306.24C428.98,-295.27 476.81,-280.25 513.79,-268.64"/>
<polygon fill="black" stroke="black" points="514.93,-271.95 523.43,-265.62 512.84,-265.28 514.93,-271.95"/>
<g id="a_edge4&#45;headlabel"><a xlink:href="dir_000020_000034.html" target="_top" xlink:title="1">
<text text-anchor="middle" x="512.35" y="-273.24" font-family="Helvetica,sans-Serif" font-size="10.00">1</text>
</a>
</g>
</g>
<!-- dir_2203ff04ab105d4802e644d41d784e20 -->
<g id="node12" class="node">
<title>dir_2203ff04ab105d4802e644d41d784e20</title>
<g id="a_node12"><a xlink:href="dir_2203ff04ab105d4802e644d41d784e20.html" target="_top" xlink:title="MIDI_Outputs">
<polygon fill="white" stroke="red" points="359.5,-268 276.5,-268 276.5,-232 359.5,-232 359.5,-268"/>
<text text-anchor="middle" x="318" y="-247.5" font-family="Helvetica,sans-Serif" font-size="10.00">MIDI_Outputs</text>
</a>
</g>
</g>
<!-- dir_0674f0083f2092f390ac2eb0a6bbcc00&#45;&gt;dir_2203ff04ab105d4802e644d41d784e20 -->
<g id="edge2" class="edge">
<title>dir_0674f0083f2092f390ac2eb0a6bbcc00&#45;&gt;dir_2203ff04ab105d4802e644d41d784e20</title>
<path fill="none" stroke="black" d="M339.83,-303.7C336.57,-295.81 332.63,-286.3 329,-277.55"/>
<polygon fill="black" stroke="black" points="332.15,-276 325.09,-268.1 325.68,-278.68 332.15,-276"/>
<g id="a_edge2&#45;headlabel"><a xlink:href="dir_000020_000042.html" target="_top" xlink:title="1">
<text text-anchor="middle" x="336.15" y="-275.74" font-family="Helvetica,sans-Serif" font-size="10.00">1</text>
</a>
</g>
</g>
<!-- dir_0674f0083f2092f390ac2eb0a6bbcc00&#45;&gt;dir_ab77b90ed5338b1b1a87b678e21cf0af -->
<g id="edge6" class="edge">
<title>dir_0674f0083f2092f390ac2eb0a6bbcc00&#45;&gt;dir_ab77b90ed5338b1b1a87b678e21cf0af</title>
<path fill="none" stroke="black" d="M324.64,-340.04C309.48,-349.82 289.14,-362.15 271.25,-372.46"/>
<polygon fill="black" stroke="black" points="269.11,-369.65 262.16,-377.64 272.58,-375.73 269.11,-369.65"/>
<g id="a_edge6&#45;headlabel"><a xlink:href="dir_000020_000049.html" target="_top" xlink:title="1">
<text text-anchor="middle" x="270.83" y="-362.9" font-family="Helvetica,sans-Serif" font-size="10.00">1</text>
</a>
</g>
</g>
<!-- dir_c90f87021e89d05236fc514cb49c4dcf&#45;&gt;dir_15b6432dff6a6d357bf70f8fbf2cdf14 -->
<g id="edge42" class="edge">
<title>dir_c90f87021e89d05236fc514cb49c4dcf&#45;&gt;dir_15b6432dff6a6d357bf70f8fbf2cdf14</title>
<path fill="none" stroke="black" d="M222.69,-87.7C225.25,-79.9 228.33,-70.51 231.18,-61.83"/>
<polygon fill="black" stroke="black" points="234.58,-62.7 234.38,-52.1 227.93,-60.51 234.58,-62.7"/>
<g id="a_edge42&#45;headlabel"><a xlink:href="dir_000021_000003.html" target="_top" xlink:title="6">
<text text-anchor="middle" x="236.16" y="-64.5" font-family="Helvetica,sans-Serif" font-size="10.00">6</text>
</a>
</g>
</g>
<!-- dir_8b29354ea792f14f229ba6ab36888b3c&#45;&gt;dir_15b6432dff6a6d357bf70f8fbf2cdf14 -->
<g id="edge23" class="edge">
<title>dir_8b29354ea792f14f229ba6ab36888b3c&#45;&gt;dir_15b6432dff6a6d357bf70f8fbf2cdf14</title>
<path fill="none" stroke="black" d="M179.9,-231.61C171.91,-201.02 159.48,-136.26 181,-88 186.17,-76.41 195.27,-66.29 204.79,-58.09"/>
<polygon fill="black" stroke="black" points="207.2,-60.65 212.82,-51.66 202.83,-55.18 207.2,-60.65"/>
<g id="a_edge23&#45;headlabel"><a xlink:href="dir_000022_000003.html" target="_top" xlink:title="4">
<text text-anchor="middle" x="206.17" y="-62.61" font-family="Helvetica,sans-Serif" font-size="10.00">4</text>
</a>
</g>
</g>
<!-- dir_8b29354ea792f14f229ba6ab36888b3c&#45;&gt;dir_96809ae32da64306a703eb7e36380126 -->
<g id="edge25" class="edge">
<title>dir_8b29354ea792f14f229ba6ab36888b3c&#45;&gt;dir_96809ae32da64306a703eb7e36380126</title>
<path fill="none" stroke="black" d="M184.68,-268.23C183.98,-305.32 182.35,-392.98 181.51,-437.71"/>
<polygon fill="black" stroke="black" points="178.01,-437.79 181.32,-447.85 185.01,-437.92 178.01,-437.79"/>
<g id="a_edge25&#45;headlabel"><a xlink:href="dir_000022_000019.html" target="_top" xlink:title="2">
<text text-anchor="middle" x="175.24" y="-431.64" font-family="Helvetica,sans-Serif" font-size="10.00">2</text>
</a>
</g>
</g>
<!-- dir_8b29354ea792f14f229ba6ab36888b3c&#45;&gt;dir_c90f87021e89d05236fc514cb49c4dcf -->
<g id="edge27" class="edge">
<title>dir_8b29354ea792f14f229ba6ab36888b3c&#45;&gt;dir_c90f87021e89d05236fc514cb49c4dcf</title>
<path fill="none" stroke="black" d="M184.53,-231.96C184.45,-213.82 185.51,-184.42 192,-160 194.43,-150.86 198.39,-141.36 202.45,-132.98"/>
<polygon fill="black" stroke="black" points="205.58,-134.56 207.01,-124.06 199.34,-131.38 205.58,-134.56"/>
<g id="a_edge27&#45;headlabel"><a xlink:href="dir_000022_000021.html" target="_top" xlink:title="1">
<text text-anchor="middle" x="206.47" y="-136.55" font-family="Helvetica,sans-Serif" font-size="10.00">1</text>
</a>
</g>
</g>
<!-- dir_8b29354ea792f14f229ba6ab36888b3c&#45;&gt;dir_4b65e0e927a600dbbefc4f76cc5a7f7c -->
<g id="edge24" class="edge">
<title>dir_8b29354ea792f14f229ba6ab36888b3c&#45;&gt;dir_4b65e0e927a600dbbefc4f76cc5a7f7c</title>
<path fill="none" stroke="black" d="M180.62,-268.25C172.16,-302.34 153.66,-380.85 145,-448 142.35,-468.59 141.1,-492.04 140.52,-509.7"/>
<polygon fill="black" stroke="black" points="137.01,-509.78 140.23,-519.87 144.01,-509.97 137.01,-509.78"/>
<g id="a_edge24&#45;headlabel"><a xlink:href="dir_000022_000030.html" target="_top" xlink:title="5">
<text text-anchor="middle" x="134.27" y="-503.6" font-family="Helvetica,sans-Serif" font-size="10.00">5</text>
</a>
</g>
</g>
<!-- dir_8b29354ea792f14f229ba6ab36888b3c&#45;&gt;dir_ab77b90ed5338b1b1a87b678e21cf0af -->
<g id="edge26" class="edge">
<title>dir_8b29354ea792f14f229ba6ab36888b3c&#45;&gt;dir_ab77b90ed5338b1b1a87b678e21cf0af</title>
<path fill="none" stroke="black" d="M190.57,-268.19C198.45,-292.53 212.95,-337.28 222.27,-366.06"/>
<polygon fill="black" stroke="black" points="219.04,-367.44 225.45,-375.87 225.7,-365.28 219.04,-367.44"/>
<g id="a_edge26&#45;headlabel"><a xlink:href="dir_000022_000049.html" target="_top" xlink:title="1">
<text text-anchor="middle" x="215.23" y="-362.39" font-family="Helvetica,sans-Serif" font-size="10.00">1</text>
</a>
</g>
</g>
<!-- dir_c0f85d8ffdd378c4053eb6a83fbfb7be -->
<g id="node8" class="node">
<title>dir_c0f85d8ffdd378c4053eb6a83fbfb7be</title>
<g id="a_node8"><a xlink:href="dir_c0f85d8ffdd378c4053eb6a83fbfb7be.html" target="_top" xlink:title="Doxygen">
<polygon fill="white" stroke="black" points="76,-700 16,-700 16,-664 76,-664 76,-700"/>
<text text-anchor="middle" x="46" y="-679.5" font-family="Helvetica,sans-Serif" font-size="10.00">Doxygen</text>
</a>
</g>
</g>
<!-- dir_d1912c7983f599f589f0119eae45b817&#45;&gt;dir_15b6432dff6a6d357bf70f8fbf2cdf14 -->
<g id="edge43" class="edge">
<title>dir_d1912c7983f599f589f0119eae45b817&#45;&gt;dir_15b6432dff6a6d357bf70f8fbf2cdf14</title>
<path fill="none" stroke="black" d="M362.23,-159.87C337.71,-134.82 291.93,-88.05 263.89,-59.41"/>
<polygon fill="black" stroke="black" points="266.32,-56.89 256.83,-52.19 261.32,-61.78 266.32,-56.89"/>
<g id="a_edge43&#45;headlabel"><a xlink:href="dir_000028_000003.html" target="_top" xlink:title="1">
<text text-anchor="middle" x="270.87" y="-54.97" font-family="Helvetica,sans-Serif" font-size="10.00">1</text>
</a>
</g>
</g>
<!-- dir_d1912c7983f599f589f0119eae45b817&#45;&gt;dir_c90f87021e89d05236fc514cb49c4dcf -->
<g id="edge44" class="edge">
<title>dir_d1912c7983f599f589f0119eae45b817&#45;&gt;dir_c90f87021e89d05236fc514cb49c4dcf</title>
<path fill="none" stroke="black" d="M339.37,-159.88C313.12,-148.53 278.95,-133.77 253.4,-122.73"/>
<polygon fill="black" stroke="black" points="254.62,-119.44 244.06,-118.69 251.85,-125.87 254.62,-119.44"/>
<g id="a_edge44&#45;headlabel"><a xlink:href="dir_000028_000021.html" target="_top" xlink:title="2">
<text text-anchor="middle" x="259.05" y="-115.76" font-family="Helvetica,sans-Serif" font-size="10.00">2</text>
</a>
</g>
</g>
<!-- dir_4b65e0e927a600dbbefc4f76cc5a7f7c&#45;&gt;dir_15b6432dff6a6d357bf70f8fbf2cdf14 -->
<g id="edge14" class="edge">
<title>dir_4b65e0e927a600dbbefc4f76cc5a7f7c&#45;&gt;dir_15b6432dff6a6d357bf70f8fbf2cdf14</title>
<path fill="none" stroke="black" d="M115.76,-519.79C104.55,-510.5 92.16,-498.06 85,-484 34.17,-384.18 57.04,-341.42 81,-232 95.49,-165.82 86.01,-138.66 131,-88 149.95,-66.66 179.41,-53.06 202.93,-44.98"/>
<polygon fill="black" stroke="black" points="204.17,-48.26 212.6,-41.85 202.01,-41.6 204.17,-48.26"/>
<g id="a_edge14&#45;headlabel"><a xlink:href="dir_000030_000003.html" target="_top" xlink:title="16">
<text text-anchor="middle" x="201.62" y="-49.57" font-family="Helvetica,sans-Serif" font-size="10.00">16</text>
</a>
</g>
</g>
<!-- dir_4b65e0e927a600dbbefc4f76cc5a7f7c&#45;&gt;dir_96809ae32da64306a703eb7e36380126 -->
<g id="edge15" class="edge">
<title>dir_4b65e0e927a600dbbefc4f76cc5a7f7c&#45;&gt;dir_96809ae32da64306a703eb7e36380126</title>
<path fill="none" stroke="black" d="M150.13,-519.7C154.85,-511.64 160.56,-501.89 165.78,-492.98"/>
<polygon fill="black" stroke="black" points="168.95,-494.5 170.98,-484.1 162.91,-490.96 168.95,-494.5"/>
<g id="a_edge15&#45;headlabel"><a xlink:href="dir_000030_000019.html" target="_top" xlink:title="3">
<text text-anchor="middle" x="169.58" y="-496.54" font-family="Helvetica,sans-Serif" font-size="10.00">3</text>
</a>
</g>
</g>
<!-- dir_4b65e0e927a600dbbefc4f76cc5a7f7c&#45;&gt;dir_c90f87021e89d05236fc514cb49c4dcf -->
<g id="edge17" class="edge">
<title>dir_4b65e0e927a600dbbefc4f76cc5a7f7c&#45;&gt;dir_c90f87021e89d05236fc514cb49c4dcf</title>
<path fill="none" stroke="black" d="M127.06,-519.66C109.16,-493.88 79,-443.3 79,-395 79,-395 79,-395 79,-321 79,-241.49 108.93,-223.34 157,-160 165.16,-149.25 175.75,-139.04 185.76,-130.5"/>
<polygon fill="black" stroke="black" points="188.12,-133.09 193.61,-124.03 183.67,-127.69 188.12,-133.09"/>
<g id="a_edge17&#45;headlabel"><a xlink:href="dir_000030_000021.html" target="_top" xlink:title="2">
<text text-anchor="middle" x="187.16" y="-135.06" font-family="Helvetica,sans-Serif" font-size="10.00">2</text>
</a>
</g>
</g>
<!-- dir_9c9f4aef8027530753ea2ed5df8d4f38 -->
<g id="node13" class="node">
<title>dir_9c9f4aef8027530753ea2ed5df8d4f38</title>
<g id="a_node13"><a xlink:href="dir_9c9f4aef8027530753ea2ed5df8d4f38.html" target="_top" xlink:title="MIDI_Parsers">
<polygon fill="white" stroke="black" points="686,-196 606,-196 606,-160 686,-160 686,-196"/>
<text text-anchor="middle" x="646" y="-175.5" font-family="Helvetica,sans-Serif" font-size="10.00">MIDI_Parsers</text>
</a>
</g>
</g>
<!-- dir_4b65e0e927a600dbbefc4f76cc5a7f7c&#45;&gt;dir_9c9f4aef8027530753ea2ed5df8d4f38 -->
<g id="edge16" class="edge">
<title>dir_4b65e0e927a600dbbefc4f76cc5a7f7c&#45;&gt;dir_9c9f4aef8027530753ea2ed5df8d4f38</title>
<path fill="none" stroke="black" d="M177.17,-534.49C293.05,-525.67 640,-491.22 640,-395 640,-395 640,-395 640,-321 640,-280.96 642.41,-234.63 644.18,-206.07"/>
<polygon fill="black" stroke="black" points="647.67,-206.24 644.81,-196.04 640.69,-205.8 647.67,-206.24"/>
<g id="a_edge16&#45;headlabel"><a xlink:href="dir_000030_000047.html" target="_top" xlink:title="1">
<text text-anchor="middle" x="650.28" y="-207.51" font-family="Helvetica,sans-Serif" font-size="10.00">1</text>
</a>
</g>
</g>
<!-- dir_6a6436ad46e42aad24bc1ce93af4f420&#45;&gt;dir_15b6432dff6a6d357bf70f8fbf2cdf14 -->
<g id="edge19" class="edge">
<title>dir_6a6436ad46e42aad24bc1ce93af4f420&#45;&gt;dir_15b6432dff6a6d357bf70f8fbf2cdf14</title>
<path fill="none" stroke="black" d="M574.14,-231.85C577.73,-213.08 580.7,-182.65 569,-160 544.04,-111.66 519.51,-110.56 470,-88 405.87,-58.77 324.09,-44.89 277.33,-38.93"/>
<polygon fill="black" stroke="black" points="277.69,-35.45 267.34,-37.71 276.85,-42.4 277.69,-35.45"/>
<g id="a_edge19&#45;headlabel"><a xlink:href="dir_000034_000003.html" target="_top" xlink:title="24">
<text text-anchor="middle" x="281.61" y="-30.57" font-family="Helvetica,sans-Serif" font-size="10.00">24</text>
</a>
</g>
</g>
<!-- dir_6a6436ad46e42aad24bc1ce93af4f420&#45;&gt;dir_c90f87021e89d05236fc514cb49c4dcf -->
<g id="edge21" class="edge">
<title>dir_6a6436ad46e42aad24bc1ce93af4f420&#45;&gt;dir_c90f87021e89d05236fc514cb49c4dcf</title>
<path fill="none" stroke="black" d="M572.95,-231.65C575.29,-211.53 575.57,-178.75 557,-160 515.21,-117.8 333.25,-109.18 254.05,-107.44"/>
<polygon fill="black" stroke="black" points="254.09,-103.94 244.03,-107.24 253.96,-110.93 254.09,-103.94"/>
<g id="a_edge21&#45;headlabel"><a xlink:href="dir_000034_000021.html" target="_top" xlink:title="2">
<text text-anchor="middle" x="257.74" y="-98.67" font-family="Helvetica,sans-Serif" font-size="10.00">2</text>
</a>
</g>
</g>
<!-- dir_6a6436ad46e42aad24bc1ce93af4f420&#45;&gt;dir_9c9f4aef8027530753ea2ed5df8d4f38 -->
<g id="edge20" class="edge">
<title>dir_6a6436ad46e42aad24bc1ce93af4f420&#45;&gt;dir_9c9f4aef8027530753ea2ed5df8d4f38</title>
<path fill="none" stroke="black" d="M588.79,-231.7C598.17,-223.05 609.68,-212.45 619.91,-203.03"/>
<polygon fill="black" stroke="black" points="622.45,-205.45 627.43,-196.1 617.7,-200.3 622.45,-205.45"/>
<g id="a_edge20&#45;headlabel"><a xlink:href="dir_000034_000047.html" target="_top" xlink:title="17">
<text text-anchor="middle" x="621.72" y="-207.48" font-family="Helvetica,sans-Serif" font-size="10.00">17</text>
</a>
</g>
</g>
<!-- dir_2203ff04ab105d4802e644d41d784e20&#45;&gt;dir_15b6432dff6a6d357bf70f8fbf2cdf14 -->
<g id="edge8" class="edge">
<title>dir_2203ff04ab105d4802e644d41d784e20&#45;&gt;dir_15b6432dff6a6d357bf70f8fbf2cdf14</title>
<path fill="none" stroke="black" d="M359.61,-241.93C386.1,-235.05 418.44,-221.68 435,-196 443.67,-182.55 442.68,-174.04 435,-160 401.48,-98.7 323.63,-63.03 277.07,-46.43"/>
<polygon fill="black" stroke="black" points="277.95,-43.04 267.36,-43.09 275.67,-49.65 277.95,-43.04"/>
<g id="a_edge8&#45;headlabel"><a xlink:href="dir_000042_000003.html" target="_top" xlink:title="27">
<text text-anchor="middle" x="282.28" y="-39.02" font-family="Helvetica,sans-Serif" font-size="10.00">27</text>
</a>
</g>
</g>
<!-- dir_2203ff04ab105d4802e644d41d784e20&#45;&gt;dir_96809ae32da64306a703eb7e36380126 -->
<g id="edge9" class="edge">
<title>dir_2203ff04ab105d4802e644d41d784e20&#45;&gt;dir_96809ae32da64306a703eb7e36380126</title>
<path fill="none" stroke="black" d="M307.69,-268.11C302,-278.23 295.25,-291.48 291,-304 275.31,-350.23 299,-372.01 271,-412 258.01,-430.55 236.27,-443.62 217.41,-452.13"/>
<polygon fill="black" stroke="black" points="216,-448.93 208.16,-456.07 218.73,-455.38 216,-448.93"/>
<g id="a_edge9&#45;headlabel"><a xlink:href="dir_000042_000019.html" target="_top" xlink:title="39">
<text text-anchor="middle" x="218.19" y="-442.42" font-family="Helvetica,sans-Serif" font-size="10.00">39</text>
</a>
</g>
</g>
<!-- dir_2203ff04ab105d4802e644d41d784e20&#45;&gt;dir_c90f87021e89d05236fc514cb49c4dcf -->
<g id="edge10" class="edge">
<title>dir_2203ff04ab105d4802e644d41d784e20&#45;&gt;dir_c90f87021e89d05236fc514cb49c4dcf</title>
<path fill="none" stroke="black" d="M319.13,-231.73C319.52,-212.59 317.53,-181.57 303,-160 291.18,-142.45 271.4,-129.67 253.78,-121.06"/>
<polygon fill="black" stroke="black" points="254.84,-117.69 244.29,-116.7 251.92,-124.06 254.84,-117.69"/>
<g id="a_edge10&#45;headlabel"><a xlink:href="dir_000042_000021.html" target="_top" xlink:title="27">
<text text-anchor="middle" x="259.29" y="-114.11" font-family="Helvetica,sans-Serif" font-size="10.00">27</text>
</a>
</g>
</g>
<!-- dir_2203ff04ab105d4802e644d41d784e20&#45;&gt;dir_d1912c7983f599f589f0119eae45b817 -->
<g id="edge11" class="edge">
<title>dir_2203ff04ab105d4802e644d41d784e20&#45;&gt;dir_d1912c7983f599f589f0119eae45b817</title>
<path fill="none" stroke="black" d="M333.08,-231.7C340.39,-223.3 349.31,-213.07 357.34,-203.86"/>
<polygon fill="black" stroke="black" points="360.16,-205.94 364.09,-196.1 354.89,-201.34 360.16,-205.94"/>
<g id="a_edge11&#45;headlabel"><a xlink:href="dir_000042_000028.html" target="_top" xlink:title="2">
<text text-anchor="middle" x="359.94" y="-208.02" font-family="Helvetica,sans-Serif" font-size="10.00">2</text>
</a>
</g>
</g>
<!-- dir_f5601f71f9b8dfdd9adc4acfaf93276a -->
<g id="node14" class="node">
<title>dir_f5601f71f9b8dfdd9adc4acfaf93276a</title>
<g id="a_node14"><a xlink:href="dir_f5601f71f9b8dfdd9adc4acfaf93276a.html" target="_top" xlink:title="MIDI_Senders">
<polygon fill="white" stroke="black" points="547.5,-196 464.5,-196 464.5,-160 547.5,-160 547.5,-196"/>
<text text-anchor="middle" x="506" y="-175.5" font-family="Helvetica,sans-Serif" font-size="10.00">MIDI_Senders</text>
</a>
</g>
</g>
<!-- dir_2203ff04ab105d4802e644d41d784e20&#45;&gt;dir_f5601f71f9b8dfdd9adc4acfaf93276a -->
<g id="edge12" class="edge">
<title>dir_2203ff04ab105d4802e644d41d784e20&#45;&gt;dir_f5601f71f9b8dfdd9adc4acfaf93276a</title>
<path fill="none" stroke="black" d="M359.72,-233.46C387.84,-223 425.09,-209.12 454.97,-198"/>
<polygon fill="black" stroke="black" points="456.24,-201.26 464.39,-194.49 453.8,-194.7 456.24,-201.26"/>
<g id="a_edge12&#45;headlabel"><a xlink:href="dir_000042_000048.html" target="_top" xlink:title="50">
<text text-anchor="middle" x="453.87" y="-202.68" font-family="Helvetica,sans-Serif" font-size="10.00">50</text>
</a>
</g>
</g>
<!-- dir_fa6aac357b09690b09adfbf9999fddaa -->
<g id="node17" class="node">
<title>dir_fa6aac357b09690b09adfbf9999fddaa</title>
<g id="a_node17"><a xlink:href="dir_fa6aac357b09690b09adfbf9999fddaa.html" target="_top" xlink:title="Submodules">
<polygon fill="white" stroke="red" points="293.5,-196 216.5,-196 216.5,-160 293.5,-160 293.5,-196"/>
<text text-anchor="middle" x="255" y="-175.5" font-family="Helvetica,sans-Serif" font-size="10.00">Submodules</text>
</a>
</g>
</g>
<!-- dir_2203ff04ab105d4802e644d41d784e20&#45;&gt;dir_fa6aac357b09690b09adfbf9999fddaa -->
<g id="edge13" class="edge">
<title>dir_2203ff04ab105d4802e644d41d784e20&#45;&gt;dir_fa6aac357b09690b09adfbf9999fddaa</title>
<path fill="none" stroke="black" d="M302.43,-231.7C294.8,-223.22 285.48,-212.86 277.12,-203.58"/>
<polygon fill="black" stroke="black" points="279.69,-201.2 270.39,-196.1 274.48,-205.88 279.69,-201.2"/>
<g id="a_edge13&#45;headlabel"><a xlink:href="dir_000042_000052.html" target="_top" xlink:title="4">
<text text-anchor="middle" x="284.2" y="-199.47" font-family="Helvetica,sans-Serif" font-size="10.00">4</text>
</a>
</g>
</g>
<!-- dir_9c9f4aef8027530753ea2ed5df8d4f38&#45;&gt;dir_15b6432dff6a6d357bf70f8fbf2cdf14 -->
<g id="edge31" class="edge">
<title>dir_9c9f4aef8027530753ea2ed5df8d4f38&#45;&gt;dir_15b6432dff6a6d357bf70f8fbf2cdf14</title>
<path fill="none" stroke="black" d="M640.6,-159.75C633.18,-139.08 617.72,-105.13 592,-88 540.86,-53.95 356.83,-40.82 277.18,-36.65"/>
<polygon fill="black" stroke="black" points="277.27,-33.15 267.1,-36.15 276.92,-40.15 277.27,-33.15"/>
<g id="a_edge31&#45;headlabel"><a xlink:href="dir_000047_000003.html" target="_top" xlink:title="6">
<text text-anchor="middle" x="281" y="-28" font-family="Helvetica,sans-Serif" font-size="10.00">6</text>
</a>
</g>
</g>
<!-- dir_9c9f4aef8027530753ea2ed5df8d4f38&#45;&gt;dir_c90f87021e89d05236fc514cb49c4dcf -->
<g id="edge32" class="edge">
<title>dir_9c9f4aef8027530753ea2ed5df8d4f38&#45;&gt;dir_c90f87021e89d05236fc514cb49c4dcf</title>
<path fill="none" stroke="black" d="M605.79,-167.17C594.87,-164.66 583.01,-162.08 572,-160 456.87,-138.22 319.35,-119.84 254.44,-111.62"/>
<polygon fill="black" stroke="black" points="254.65,-108.12 244.29,-110.34 253.77,-115.06 254.65,-108.12"/>
<g id="a_edge32&#45;headlabel"><a xlink:href="dir_000047_000021.html" target="_top" xlink:title="4">
<text text-anchor="middle" x="258.57" y="-103.25" font-family="Helvetica,sans-Serif" font-size="10.00">4</text>
</a>
</g>
</g>
<!-- dir_f5601f71f9b8dfdd9adc4acfaf93276a&#45;&gt;dir_15b6432dff6a6d357bf70f8fbf2cdf14 -->
<g id="edge46" class="edge">
<title>dir_f5601f71f9b8dfdd9adc4acfaf93276a&#45;&gt;dir_15b6432dff6a6d357bf70f8fbf2cdf14</title>
<path fill="none" stroke="black" d="M499.79,-159.79C491.57,-139.5 475.11,-106.24 450,-88 398.18,-50.36 322.34,-39.34 277.39,-36.19"/>
<polygon fill="black" stroke="black" points="277.4,-32.68 267.21,-35.57 276.98,-39.67 277.4,-32.68"/>
<g id="a_edge46&#45;headlabel"><a xlink:href="dir_000048_000003.html" target="_top" xlink:title="3">
<text text-anchor="middle" x="281.16" y="-27.56" font-family="Helvetica,sans-Serif" font-size="10.00">3</text>
</a>
</g>
</g>
<!-- dir_f5601f71f9b8dfdd9adc4acfaf93276a&#45;&gt;dir_0674f0083f2092f390ac2eb0a6bbcc00 -->
<g id="edge45" class="edge">
<title>dir_f5601f71f9b8dfdd9adc4acfaf93276a&#45;&gt;dir_0674f0083f2092f390ac2eb0a6bbcc00</title>
<path fill="none" stroke="black" d="M486.75,-196.19C458.54,-221.39 405.85,-268.45 373.84,-297.03"/>
<polygon fill="black" stroke="black" points="371.31,-294.6 366.18,-303.87 375.97,-299.82 371.31,-294.6"/>
<g id="a_edge45&#45;headlabel"><a xlink:href="dir_000048_000020.html" target="_top" xlink:title="6">
<text text-anchor="middle" x="372.1" y="-287.59" font-family="Helvetica,sans-Serif" font-size="10.00">6</text>
</a>
</g>
</g>
<!-- dir_ab77b90ed5338b1b1a87b678e21cf0af&#45;&gt;dir_15b6432dff6a6d357bf70f8fbf2cdf14 -->
<g id="edge34" class="edge">
<title>dir_ab77b90ed5338b1b1a87b678e21cf0af&#45;&gt;dir_15b6432dff6a6d357bf70f8fbf2cdf14</title>
<path fill="none" stroke="black" d="M214.78,-375.67C194.78,-352.98 161.85,-311.02 149,-268 134.75,-220.29 135.53,-141.28 167,-88 175.69,-73.29 190.23,-61.49 204.06,-52.79"/>
<polygon fill="black" stroke="black" points="206.15,-55.63 212.97,-47.53 202.58,-49.6 206.15,-55.63"/>
<g id="a_edge34&#45;headlabel"><a xlink:href="dir_000049_000003.html" target="_top" xlink:title="9">
<text text-anchor="middle" x="204.49" y="-57.4" font-family="Helvetica,sans-Serif" font-size="10.00">9</text>
</a>
</g>
</g>
<!-- dir_ab77b90ed5338b1b1a87b678e21cf0af&#45;&gt;dir_96809ae32da64306a703eb7e36380126 -->
<g id="edge36" class="edge">
<title>dir_ab77b90ed5338b1b1a87b678e21cf0af&#45;&gt;dir_96809ae32da64306a703eb7e36380126</title>
<path fill="none" stroke="black" d="M224.68,-412.1C219.63,-420.38 212.62,-430.49 205.63,-439.64"/>
<polygon fill="black" stroke="black" points="202.72,-437.68 199.28,-447.7 208.22,-442.01 202.72,-437.68"/>
<g id="a_edge36&#45;headlabel"><a xlink:href="dir_000049_000019.html" target="_top" xlink:title="1">
<text text-anchor="middle" x="202.72" y="-430.6" font-family="Helvetica,sans-Serif" font-size="10.00">1</text>
</a>
</g>
</g>
<!-- dir_ab77b90ed5338b1b1a87b678e21cf0af&#45;&gt;dir_0674f0083f2092f390ac2eb0a6bbcc00 -->
<g id="edge33" class="edge">
<title>dir_ab77b90ed5338b1b1a87b678e21cf0af&#45;&gt;dir_0674f0083f2092f390ac2eb0a6bbcc00</title>
<path fill="none" stroke="black" d="M253.48,-375.88C267.82,-366.64 286.75,-355.13 303.86,-345.21"/>
<polygon fill="black" stroke="black" points="305.68,-348.2 312.61,-340.19 302.19,-342.13 305.68,-348.2"/>
<g id="a_edge33&#45;headlabel"><a xlink:href="dir_000049_000020.html" target="_top" xlink:title="2">
<text text-anchor="middle" x="303.97" y="-349.95" font-family="Helvetica,sans-Serif" font-size="10.00">2</text>
</a>
</g>
</g>
<!-- dir_ab77b90ed5338b1b1a87b678e21cf0af&#45;&gt;dir_c90f87021e89d05236fc514cb49c4dcf -->
<g id="edge37" class="edge">
<title>dir_ab77b90ed5338b1b1a87b678e21cf0af&#45;&gt;dir_c90f87021e89d05236fc514cb49c4dcf</title>
<path fill="none" stroke="black" d="M231.52,-375.87C232.07,-346.22 231.68,-283.56 221,-232 217.55,-215.34 210.93,-212.76 208,-196 205.24,-180.24 206.66,-175.94 208,-160 208.72,-151.5 210.07,-142.31 211.51,-134.01"/>
<polygon fill="black" stroke="black" points="214.97,-134.56 213.35,-124.09 208.09,-133.29 214.97,-134.56"/>
<g id="a_edge37&#45;headlabel"><a xlink:href="dir_000049_000021.html" target="_top" xlink:title="7">
<text text-anchor="middle" x="217.11" y="-136.11" font-family="Helvetica,sans-Serif" font-size="10.00">7</text>
</a>
</g>
</g>
<!-- dir_ab77b90ed5338b1b1a87b678e21cf0af&#45;&gt;dir_4b65e0e927a600dbbefc4f76cc5a7f7c -->
<g id="edge35" class="edge">
<title>dir_ab77b90ed5338b1b1a87b678e21cf0af&#45;&gt;dir_4b65e0e927a600dbbefc4f76cc5a7f7c</title>
<path fill="none" stroke="black" d="M232.16,-412.12C232.61,-431.13 230.84,-462.03 217,-484 209.28,-496.27 197.57,-506.42 185.6,-514.45"/>
<polygon fill="black" stroke="black" points="183.49,-511.64 176.89,-519.92 187.22,-517.57 183.49,-511.64"/>
<g id="a_edge35&#45;headlabel"><a xlink:href="dir_000049_000030.html" target="_top" xlink:title="2">
<text text-anchor="middle" x="185.03" y="-504.82" font-family="Helvetica,sans-Serif" font-size="10.00">2</text>
</a>
</g>
</g>
<!-- dir_ab77b90ed5338b1b1a87b678e21cf0af&#45;&gt;dir_fa6aac357b09690b09adfbf9999fddaa -->
<g id="edge38" class="edge">
<title>dir_ab77b90ed5338b1b1a87b678e21cf0af&#45;&gt;dir_fa6aac357b09690b09adfbf9999fddaa</title>
<path fill="none" stroke="black" d="M232.92,-375.85C237.07,-338.83 246.9,-251.18 251.93,-206.39"/>
<polygon fill="black" stroke="black" points="255.43,-206.56 253.07,-196.23 248.47,-205.78 255.43,-206.56"/>
<g id="a_edge38&#45;headlabel"><a xlink:href="dir_000049_000052.html" target="_top" xlink:title="1">
<text text-anchor="middle" x="257.85" y="-207.95" font-family="Helvetica,sans-Serif" font-size="10.00">1</text>
</a>
</g>
</g>
<!-- dir_87225e6cbcb4cf5309991212c88ac25b -->
<g id="node16" class="node">
<title>dir_87225e6cbcb4cf5309991212c88ac25b</title>
<g id="a_node16"><a xlink:href="dir_87225e6cbcb4cf5309991212c88ac25b.html" target="_top" xlink:title="Settings">
<polygon fill="white" stroke="black" points="72,-124 16,-124 16,-88 72,-88 72,-124"/>
<text text-anchor="middle" x="44" y="-103.5" font-family="Helvetica,sans-Serif" font-size="10.00">Settings</text>
</a>
</g>
</g>
<!-- dir_87225e6cbcb4cf5309991212c88ac25b&#45;&gt;dir_15b6432dff6a6d357bf70f8fbf2cdf14 -->
<g id="edge22" class="edge">
<title>dir_87225e6cbcb4cf5309991212c88ac25b&#45;&gt;dir_15b6432dff6a6d357bf70f8fbf2cdf14</title>
<path fill="none" stroke="black" d="M72.39,-93.27C76.92,-91.47 81.58,-89.65 86,-88 125.79,-73.11 171.92,-57.45 203.24,-47.04"/>
<polygon fill="black" stroke="black" points="204.47,-50.32 212.86,-43.86 202.27,-43.68 204.47,-50.32"/>
<g id="a_edge22&#45;headlabel"><a xlink:href="dir_000051_000003.html" target="_top" xlink:title="1">
<text text-anchor="middle" x="201.95" y="-51.65" font-family="Helvetica,sans-Serif" font-size="10.00">1</text>
</a>
</g>
</g>
<!-- dir_fa6aac357b09690b09adfbf9999fddaa&#45;&gt;dir_15b6432dff6a6d357bf70f8fbf2cdf14 -->
<g id="edge47" class="edge">
<title>dir_fa6aac357b09690b09adfbf9999fddaa&#45;&gt;dir_15b6432dff6a6d357bf70f8fbf2cdf14</title>
<path fill="none" stroke="black" d="M255.72,-159.85C256.21,-141.87 256.28,-112.82 253,-88 251.86,-79.41 249.88,-70.2 247.8,-61.91"/>
<polygon fill="black" stroke="black" points="251.12,-60.77 245.17,-52.01 244.36,-62.57 251.12,-60.77"/>
<g id="a_edge47&#45;headlabel"><a xlink:href="dir_000052_000003.html" target="_top" xlink:title="2">
<text text-anchor="middle" x="254.79" y="-61.02" font-family="Helvetica,sans-Serif" font-size="10.00">2</text>
</a>
</g>
</g>
</g>
</svg>
