<?xml version="1.0" encoding="UTF-8" standalone="no"?>
<!DOCTYPE svg PUBLIC "-//W3C//DTD SVG 1.1//EN"
 "http://www.w3.org/Graphics/SVG/1.1/DTD/svg11.dtd">
<!-- Generated by graphviz version 2.43.0 (0)
 -->
<!-- Title: BLEMIDI Pages: 1 -->
<svg width="171pt" height="295pt"
 viewBox="0.00 0.00 171.00 295.00" xmlns="http://www.w3.org/2000/svg" xmlns:xlink="http://www.w3.org/1999/xlink">
<g id="graph0" class="graph" transform="scale(1 1) rotate(0) translate(4 291)">
<title>BLEMIDI</title>
<polygon fill="white" stroke="transparent" points="-4,4 -4,-291 167,-291 167,4 -4,4"/>
<g id="clust1" class="cluster">
<title>clusterdir_6a6436ad46e42aad24bc1ce93af4f420</title>
<g id="a_clust1"><a xlink:href="dir_6a6436ad46e42aad24bc1ce93af4f420.html" target="_top" xlink:title="MIDI_Interfaces">
<polygon fill="#ddddee" stroke="black" points="62,-208 62,-279 155,-279 155,-208 62,-208"/>
<text text-anchor="middle" x="108.5" y="-267" font-family="Helvetica,sans-Serif" font-size="10.00">MIDI_Interfaces</text>
</a>
</g>
</g>
<!-- dir_522ee7a08c8e28e6dc0c6f85802b0793 -->
<g id="node1" class="node">
<title>dir_522ee7a08c8e28e6dc0c6f85802b0793</title>
<g id="a_node1"><a xlink:href="dir_522ee7a08c8e28e6dc0c6f85802b0793.html" target="_top" xlink:title="BLEMIDI">
<polygon fill="#eeeeff" stroke="black" points="136.5,-252 79.5,-252 79.5,-216 136.5,-216 136.5,-252"/>
<text text-anchor="middle" x="108" y="-231.5" font-family="Helvetica,sans-Serif" font-size="10.00">BLEMIDI</text>
</a>
</g>
</g>
<!-- dir_9c9f4aef8027530753ea2ed5df8d4f38 -->
<g id="node2" class="node">
<title>dir_9c9f4aef8027530753ea2ed5df8d4f38</title>
<g id="a_node2"><a xlink:href="dir_9c9f4aef8027530753ea2ed5df8d4f38.html" target="_top" xlink:title="MIDI_Parsers">
<polygon fill="none" stroke="black" points="80,-180 0,-180 0,-144 80,-144 80,-180"/>
<text text-anchor="middle" x="40" y="-159.5" font-family="Helvetica,sans-Serif" font-size="10.00">MIDI_Parsers</text>
</a>
</g>
</g>
<!-- dir_522ee7a08c8e28e6dc0c6f85802b0793&#45;&gt;dir_9c9f4aef8027530753ea2ed5df8d4f38 -->
<g id="edge4" class="edge">
<title>dir_522ee7a08c8e28e6dc0c6f85802b0793&#45;&gt;dir_9c9f4aef8027530753ea2ed5df8d4f38</title>
<path fill="none" stroke="black" d="M91.19,-215.7C82.87,-207.14 72.69,-196.66 63.61,-187.3"/>
<polygon fill="black" stroke="black" points="66.09,-184.84 56.62,-180.1 61.07,-189.72 66.09,-184.84"/>
<g id="a_edge4&#45;headlabel"><a xlink:href="dir_000011_000039.html" target="_top" xlink:title="1">
<text text-anchor="middle" x="70.64" y="-182.94" font-family="Helvetica,sans-Serif" font-size="10.00">1</text>
</a>
</g>
</g>
<!-- dir_15b6432dff6a6d357bf70f8fbf2cdf14 -->
<g id="node3" class="node">
<title>dir_15b6432dff6a6d357bf70f8fbf2cdf14</title>
<g id="a_node3"><a xlink:href="dir_15b6432dff6a6d357bf70f8fbf2cdf14.html" target="_top" xlink:title="AH">
<polygon fill="white" stroke="red" points="120,-36 66,-36 66,0 120,0 120,-36"/>
<text text-anchor="middle" x="93" y="-15.5" font-family="Helvetica,sans-Serif" font-size="10.00">AH</text>
</a>
</g>
</g>
<!-- dir_522ee7a08c8e28e6dc0c6f85802b0793&#45;&gt;dir_15b6432dff6a6d357bf70f8fbf2cdf14 -->
<g id="edge5" class="edge">
<title>dir_522ee7a08c8e28e6dc0c6f85802b0793&#45;&gt;dir_15b6432dff6a6d357bf70f8fbf2cdf14</title>
<path fill="none" stroke="black" d="M114.95,-215.68C125.95,-185.74 144.58,-122.65 129,-72 125.99,-62.22 120.49,-52.62 114.68,-44.33"/>
<polygon fill="black" stroke="black" points="117.41,-42.13 108.61,-36.23 111.81,-46.33 117.41,-42.13"/>
<g id="a_edge5&#45;headlabel"><a xlink:href="dir_000011_000001.html" target="_top" xlink:title="1">
<text text-anchor="middle" x="121.83" y="-40.8" font-family="Helvetica,sans-Serif" font-size="10.00">1</text>
</a>
</g>
</g>
<!-- dir_c90f87021e89d05236fc514cb49c4dcf -->
<g id="node4" class="node">
<title>dir_c90f87021e89d05236fc514cb49c4dcf</title>
<g id="a_node4"><a xlink:href="dir_c90f87021e89d05236fc514cb49c4dcf.html" target="_top" xlink:title="Def">
<polygon fill="none" stroke="black" points="120,-108 66,-108 66,-72 120,-72 120,-108"/>
<text text-anchor="middle" x="93" y="-87.5" font-family="Helvetica,sans-Serif" font-size="10.00">Def</text>
</a>
</g>
</g>
<!-- dir_522ee7a08c8e28e6dc0c6f85802b0793&#45;&gt;dir_c90f87021e89d05236fc514cb49c4dcf -->
<g id="edge6" class="edge">
<title>dir_522ee7a08c8e28e6dc0c6f85802b0793&#45;&gt;dir_c90f87021e89d05236fc514cb49c4dcf</title>
<path fill="none" stroke="black" d="M106.19,-215.87C103.63,-191.67 98.94,-147.21 95.89,-118.39"/>
<polygon fill="black" stroke="black" points="99.35,-117.77 94.82,-108.19 92.39,-118.5 99.35,-117.77"/>
<g id="a_edge6&#45;headlabel"><a xlink:href="dir_000011_000014.html" target="_top" xlink:title="1">
<text text-anchor="middle" x="102.55" y="-118.54" font-family="Helvetica,sans-Serif" font-size="10.00">1</text>
</a>
</g>
</g>
<!-- dir_9c9f4aef8027530753ea2ed5df8d4f38&#45;&gt;dir_15b6432dff6a6d357bf70f8fbf2cdf14 -->
<g id="edge1" class="edge">
<title>dir_9c9f4aef8027530753ea2ed5df8d4f38&#45;&gt;dir_15b6432dff6a6d357bf70f8fbf2cdf14</title>
<path fill="none" stroke="black" d="M41.22,-143.68C42.98,-125.29 47.19,-95.69 57,-72 60.98,-62.39 66.86,-52.73 72.71,-44.34"/>
<polygon fill="black" stroke="black" points="75.65,-46.24 78.73,-36.1 70,-42.11 75.65,-46.24"/>
<g id="a_edge1&#45;headlabel"><a xlink:href="dir_000039_000001.html" target="_top" xlink:title="2">
<text text-anchor="middle" x="75.83" y="-48.32" font-family="Helvetica,sans-Serif" font-size="10.00">2</text>
</a>
</g>
</g>
<!-- dir_9c9f4aef8027530753ea2ed5df8d4f38&#45;&gt;dir_c90f87021e89d05236fc514cb49c4dcf -->
<g id="edge2" class="edge">
<title>dir_9c9f4aef8027530753ea2ed5df8d4f38&#45;&gt;dir_c90f87021e89d05236fc514cb49c4dcf</title>
<path fill="none" stroke="black" d="M53.1,-143.7C59.39,-135.39 67.05,-125.28 73.96,-116.14"/>
<polygon fill="black" stroke="black" points="76.8,-118.19 80.05,-108.1 71.22,-113.96 76.8,-118.19"/>
<g id="a_edge2&#45;headlabel"><a xlink:href="dir_000039_000014.html" target="_top" xlink:title="4">
<text text-anchor="middle" x="76.9" y="-120.27" font-family="Helvetica,sans-Serif" font-size="10.00">4</text>
</a>
</g>
</g>
<!-- dir_c90f87021e89d05236fc514cb49c4dcf&#45;&gt;dir_15b6432dff6a6d357bf70f8fbf2cdf14 -->
<g id="edge3" class="edge">
<title>dir_c90f87021e89d05236fc514cb49c4dcf&#45;&gt;dir_15b6432dff6a6d357bf70f8fbf2cdf14</title>
<path fill="none" stroke="black" d="M93,-71.7C93,-63.98 93,-54.71 93,-46.11"/>
<polygon fill="black" stroke="black" points="96.5,-46.1 93,-36.1 89.5,-46.1 96.5,-46.1"/>
<g id="a_edge3&#45;headlabel"><a xlink:href="dir_000014_000001.html" target="_top" xlink:title="2">
<text text-anchor="middle" x="99.34" y="-47.2" font-family="Helvetica,sans-Serif" font-size="10.00">2</text>
</a>
</g>
</g>
</g>
</svg>
