<?xml version="1.0" encoding="UTF-8" standalone="no"?>
<!DOCTYPE svg PUBLIC "-//W3C//DTD SVG 1.1//EN"
 "http://www.w3.org/Graphics/SVG/1.1/DTD/svg11.dtd">
<!-- Generated by graphviz version 2.40.1 (20161225.0304)
 -->
<!-- Title: CCPotentiometer Pages: 1 -->
<svg width="922pt" height="971pt"
 viewBox="0.00 0.00 921.50 971.00" xmlns="http://www.w3.org/2000/svg" xmlns:xlink="http://www.w3.org/1999/xlink">
<g id="graph0" class="graph" transform="scale(1 1) rotate(0) translate(4 967)">
<title>CCPotentiometer</title>
<polygon fill="#ffffff" stroke="transparent" points="-4,4 -4,-967 917.5,-967 917.5,4 -4,4"/>
<!-- Node1 -->
<g id="node1" class="node">
<title>Node1</title>
<g id="a_node1"><a xlink:title="A class of MIDIOutputElements that read the analog input from a potentiometer or fader,...">
<polygon fill="#bfbfbf" stroke="#000000" points="611.5,-.5 611.5,-57.5 718.5,-57.5 718.5,-.5 611.5,-.5"/>
<text text-anchor="middle" x="665" y="-45.5" font-family="Helvetica,sans-Serif" font-size="10.00" fill="#000000">CCPotentiometer</text>
<polyline fill="none" stroke="#000000" points="611.5,-38.5 718.5,-38.5 "/>
<text text-anchor="middle" x="665" y="-26.5" font-family="Helvetica,sans-Serif" font-size="10.00" fill="#000000"> </text>
<polyline fill="none" stroke="#000000" points="611.5,-19.5 718.5,-19.5 "/>
<text text-anchor="start" x="619.5" y="-7.5" font-family="Helvetica,sans-Serif" font-size="10.00" fill="#000000">+ CCPotentiometer()</text>
</a>
</g>
</g>
<!-- Node2 -->
<g id="node2" class="node">
<title>Node2</title>
<g id="a_node2"><a xlink:href="../../d0/dd2/classMIDIFilteredAnalogAddressable.html" target="_top" xlink:title=" ">
<polygon fill="#ffffff" stroke="#000000" points="580.5,-95.5 580.5,-229.5 749.5,-229.5 749.5,-95.5 580.5,-95.5"/>
<text text-anchor="start" x="588.5" y="-217.5" font-family="Helvetica,sans-Serif" font-size="10.00" fill="#000000">MIDIFilteredAnalogAddressable</text>
<text text-anchor="middle" x="665" y="-206.5" font-family="Helvetica,sans-Serif" font-size="10.00" fill="#000000">&lt; ContinuousCCSender &gt;</text>
<polyline fill="none" stroke="#000000" points="580.5,-199.5 749.5,-199.5 "/>
<text text-anchor="middle" x="665" y="-187.5" font-family="Helvetica,sans-Serif" font-size="10.00" fill="#000000"> </text>
<polyline fill="none" stroke="#000000" points="580.5,-180.5 749.5,-180.5 "/>
<text text-anchor="start" x="588.5" y="-168.5" font-family="Helvetica,sans-Serif" font-size="10.00" fill="#000000">+ begin()</text>
<text text-anchor="start" x="588.5" y="-157.5" font-family="Helvetica,sans-Serif" font-size="10.00" fill="#000000">+ update()</text>
<text text-anchor="start" x="588.5" y="-146.5" font-family="Helvetica,sans-Serif" font-size="10.00" fill="#000000">+ map()</text>
<text text-anchor="start" x="588.5" y="-135.5" font-family="Helvetica,sans-Serif" font-size="10.00" fill="#000000">+ invert()</text>
<text text-anchor="start" x="588.5" y="-124.5" font-family="Helvetica,sans-Serif" font-size="10.00" fill="#000000">+ getRawValue()</text>
<text text-anchor="start" x="588.5" y="-113.5" font-family="Helvetica,sans-Serif" font-size="10.00" fill="#000000">+ getValue()</text>
<text text-anchor="start" x="588.5" y="-102.5" font-family="Helvetica,sans-Serif" font-size="10.00" fill="#000000"># MIDIFilteredAnalogAddressable()</text>
</a>
</g>
</g>
<!-- Node2&#45;&gt;Node1 -->
<g id="edge1" class="edge">
<title>Node2&#45;&gt;Node1</title>
<path fill="none" stroke="#191970" d="M665,-85.154C665,-75.434 665,-66.0216 665,-57.7698"/>
<polygon fill="none" stroke="#191970" points="661.5001,-85.3589 665,-95.3589 668.5001,-85.3589 661.5001,-85.3589"/>
</g>
<!-- Node3 -->
<g id="node3" class="node">
<title>Node3</title>
<g id="a_node3"><a xlink:href="../../d1/d55/classAH_1_1Updatable.html" target="_top" xlink:title=" ">
<polygon fill="#ffffff" stroke="#000000" points="0,-376.5 0,-466.5 104,-466.5 104,-376.5 0,-376.5"/>
<text text-anchor="middle" x="52" y="-454.5" font-family="Helvetica,sans-Serif" font-size="10.00" fill="#000000">MIDIOutputElement</text>
<polyline fill="none" stroke="#000000" points="0,-447.5 104,-447.5 "/>
<text text-anchor="middle" x="52" y="-435.5" font-family="Helvetica,sans-Serif" font-size="10.00" fill="#000000"> </text>
<polyline fill="none" stroke="#000000" points="0,-428.5 104,-428.5 "/>
<text text-anchor="start" x="8" y="-416.5" font-family="Helvetica,sans-Serif" font-size="10.00" fill="#000000">* begin()</text>
<text text-anchor="start" x="8" y="-405.5" font-family="Helvetica,sans-Serif" font-size="10.00" fill="#000000">* update()</text>
<text text-anchor="start" x="8" y="-394.5" font-family="Helvetica,sans-Serif" font-size="10.00" fill="#000000">* beginAll()</text>
<text text-anchor="start" x="8" y="-383.5" font-family="Helvetica,sans-Serif" font-size="10.00" fill="#000000">* updateAll()</text>
</a>
</g>
</g>
<!-- Node3&#45;&gt;Node2 -->
<g id="edge2" class="edge">
<title>Node3&#45;&gt;Node2</title>
<path fill="none" stroke="#191970" d="M62.099,-366.5894C70.5765,-335.8413 85.8547,-299.31 113,-277 183.4617,-219.0895 443.9004,-184.8121 580.3529,-170.4507"/>
<polygon fill="none" stroke="#191970" points="58.6916,-365.7864 59.5791,-376.344 65.4691,-367.5373 58.6916,-365.7864"/>
</g>
<!-- Node4 -->
<g id="node4" class="node">
<title>Node4</title>
<g id="a_node4"><a xlink:href="../../d8/d1a/classAH_1_1UpdatableCRTP.html" target="_top" xlink:title=" ">
<polygon fill="#ffffff" stroke="#000000" points="214,-624.5 214,-813.5 356,-813.5 356,-624.5 214,-624.5"/>
<text text-anchor="start" x="222" y="-801.5" font-family="Helvetica,sans-Serif" font-size="10.00" fill="#000000">UpdatableCRTP&lt; Updatable</text>
<text text-anchor="middle" x="285" y="-790.5" font-family="Helvetica,sans-Serif" font-size="10.00" fill="#000000">&lt; NormalUpdatable &gt; &gt;</text>
<polyline fill="none" stroke="#000000" points="214,-783.5 356,-783.5 "/>
<text text-anchor="middle" x="285" y="-771.5" font-family="Helvetica,sans-Serif" font-size="10.00" fill="#000000"> </text>
<polyline fill="none" stroke="#000000" points="214,-764.5 356,-764.5 "/>
<text text-anchor="start" x="222" y="-752.5" font-family="Helvetica,sans-Serif" font-size="10.00" fill="#000000">+ ~UpdatableCRTP()</text>
<text text-anchor="start" x="222" y="-741.5" font-family="Helvetica,sans-Serif" font-size="10.00" fill="#000000"># UpdatableCRTP()</text>
<text text-anchor="start" x="222" y="-730.5" font-family="Helvetica,sans-Serif" font-size="10.00" fill="#000000">* enable()</text>
<text text-anchor="start" x="222" y="-719.5" font-family="Helvetica,sans-Serif" font-size="10.00" fill="#000000">* disable()</text>
<text text-anchor="start" x="222" y="-708.5" font-family="Helvetica,sans-Serif" font-size="10.00" fill="#000000">* isEnabled()</text>
<text text-anchor="start" x="222" y="-697.5" font-family="Helvetica,sans-Serif" font-size="10.00" fill="#000000">* enable()</text>
<text text-anchor="start" x="222" y="-686.5" font-family="Helvetica,sans-Serif" font-size="10.00" fill="#000000">* enable()</text>
<text text-anchor="start" x="222" y="-675.5" font-family="Helvetica,sans-Serif" font-size="10.00" fill="#000000">* enable()</text>
<text text-anchor="start" x="222" y="-664.5" font-family="Helvetica,sans-Serif" font-size="10.00" fill="#000000">* disable()</text>
<text text-anchor="start" x="222" y="-653.5" font-family="Helvetica,sans-Serif" font-size="10.00" fill="#000000">* disable()</text>
<text text-anchor="start" x="222" y="-642.5" font-family="Helvetica,sans-Serif" font-size="10.00" fill="#000000">* disable()</text>
<text text-anchor="start" x="222" y="-631.5" font-family="Helvetica,sans-Serif" font-size="10.00" fill="#000000">* applyToAll()</text>
</a>
</g>
</g>
<!-- Node4&#45;&gt;Node3 -->
<g id="edge3" class="edge">
<title>Node4&#45;&gt;Node3</title>
<path fill="none" stroke="#191970" d="M205.701,-661.1288C173.7676,-634.8331 138.5325,-601.642 113,-566 91.3541,-535.7835 75.4489,-496.7079 65.3165,-466.8113"/>
<polygon fill="none" stroke="#191970" points="203.7729,-664.0719 213.7406,-667.6628 208.1878,-658.6397 203.7729,-664.0719"/>
</g>
<!-- Node5 -->
<g id="node5" class="node">
<title>Node5</title>
<g id="a_node5"><a xlink:href="../../d4/d23/classDoublyLinkable.html" target="_top" xlink:title=" ">
<polygon fill="#ffffff" stroke="#000000" points="122.5,-387.5 122.5,-455.5 331.5,-455.5 331.5,-387.5 122.5,-387.5"/>
<text text-anchor="start" x="130.5" y="-443.5" font-family="Helvetica,sans-Serif" font-size="10.00" fill="#000000">DoublyLinkable&lt; Updatable</text>
<text text-anchor="middle" x="227" y="-432.5" font-family="Helvetica,sans-Serif" font-size="10.00" fill="#000000">CRTP&lt; Updatable&lt; NormalUpdatable &gt; &gt; &gt;</text>
<polyline fill="none" stroke="#000000" points="122.5,-425.5 331.5,-425.5 "/>
<text text-anchor="middle" x="227" y="-413.5" font-family="Helvetica,sans-Serif" font-size="10.00" fill="#000000"> </text>
<polyline fill="none" stroke="#000000" points="122.5,-406.5 331.5,-406.5 "/>
<text text-anchor="start" x="130.5" y="-394.5" font-family="Helvetica,sans-Serif" font-size="10.00" fill="#000000"># ~DoublyLinkable()</text>
</a>
</g>
</g>
<!-- Node4&#45;&gt;Node5 -->
<g id="edge5" class="edge">
<title>Node4&#45;&gt;Node5</title>
<path fill="none" stroke="#404040" d="M229.7875,-624.4845C227.5225,-618.3493 225.5565,-612.1602 224,-606 212.4012,-560.0965 215.1946,-505.7019 219.6284,-467.9197"/>
<polygon fill="none" stroke="#404040" points="219.6584,-467.6833 216.4496,-461.2255 221.1764,-455.7797 224.3853,-462.2375 219.6584,-467.6833"/>
<text text-anchor="middle" x="245.5" y="-598" font-family="Helvetica,sans-Serif" font-size="10.00" fill="#000000"> #next</text>
<text text-anchor="middle" x="245.5" y="-587" font-family="Helvetica,sans-Serif" font-size="10.00" fill="#000000">#previous</text>
</g>
<!-- Node6 -->
<g id="node6" class="node">
<title>Node6</title>
<g id="a_node6"><a xlink:href="../../dd/d16/classDoublyLinkedList.html" target="_top" xlink:title=" ">
<polygon fill="#ffffff" stroke="#000000" points="350,-277.5 350,-565.5 498,-565.5 498,-277.5 350,-277.5"/>
<text text-anchor="start" x="358" y="-553.5" font-family="Helvetica,sans-Serif" font-size="10.00" fill="#000000">DoublyLinkedList&lt; AH</text>
<text text-anchor="start" x="358" y="-542.5" font-family="Helvetica,sans-Serif" font-size="10.00" fill="#000000">::UpdatableCRTP&lt; Updatable</text>
<text text-anchor="middle" x="424" y="-531.5" font-family="Helvetica,sans-Serif" font-size="10.00" fill="#000000">&lt; NormalUpdatable &gt; &gt; &gt;</text>
<polyline fill="none" stroke="#000000" points="350,-524.5 498,-524.5 "/>
<text text-anchor="middle" x="424" y="-512.5" font-family="Helvetica,sans-Serif" font-size="10.00" fill="#000000"> </text>
<polyline fill="none" stroke="#000000" points="350,-505.5 498,-505.5 "/>
<text text-anchor="start" x="358" y="-493.5" font-family="Helvetica,sans-Serif" font-size="10.00" fill="#000000">+ append()</text>
<text text-anchor="start" x="358" y="-482.5" font-family="Helvetica,sans-Serif" font-size="10.00" fill="#000000">+ append()</text>
<text text-anchor="start" x="358" y="-471.5" font-family="Helvetica,sans-Serif" font-size="10.00" fill="#000000">+ insertBefore()</text>
<text text-anchor="start" x="358" y="-460.5" font-family="Helvetica,sans-Serif" font-size="10.00" fill="#000000">+ insertBefore()</text>
<text text-anchor="start" x="358" y="-449.5" font-family="Helvetica,sans-Serif" font-size="10.00" fill="#000000">+ insertSorted()</text>
<text text-anchor="start" x="358" y="-438.5" font-family="Helvetica,sans-Serif" font-size="10.00" fill="#000000">+ insertSorted()</text>
<text text-anchor="start" x="358" y="-427.5" font-family="Helvetica,sans-Serif" font-size="10.00" fill="#000000">+ remove()</text>
<text text-anchor="start" x="358" y="-416.5" font-family="Helvetica,sans-Serif" font-size="10.00" fill="#000000">+ remove()</text>
<text text-anchor="start" x="358" y="-405.5" font-family="Helvetica,sans-Serif" font-size="10.00" fill="#000000">+ moveDown()</text>
<text text-anchor="start" x="358" y="-394.5" font-family="Helvetica,sans-Serif" font-size="10.00" fill="#000000">+ couldContain()</text>
<text text-anchor="start" x="358" y="-383.5" font-family="Helvetica,sans-Serif" font-size="10.00" fill="#000000">+ begin()</text>
<text text-anchor="start" x="358" y="-372.5" font-family="Helvetica,sans-Serif" font-size="10.00" fill="#000000">+ begin()</text>
<text text-anchor="start" x="358" y="-361.5" font-family="Helvetica,sans-Serif" font-size="10.00" fill="#000000">+ end()</text>
<text text-anchor="start" x="358" y="-350.5" font-family="Helvetica,sans-Serif" font-size="10.00" fill="#000000">+ end()</text>
<text text-anchor="start" x="358" y="-339.5" font-family="Helvetica,sans-Serif" font-size="10.00" fill="#000000">+ rbegin()</text>
<text text-anchor="start" x="358" y="-328.5" font-family="Helvetica,sans-Serif" font-size="10.00" fill="#000000">+ rbegin()</text>
<text text-anchor="start" x="358" y="-317.5" font-family="Helvetica,sans-Serif" font-size="10.00" fill="#000000">+ rend()</text>
<text text-anchor="start" x="358" y="-306.5" font-family="Helvetica,sans-Serif" font-size="10.00" fill="#000000">+ rend()</text>
<text text-anchor="start" x="358" y="-295.5" font-family="Helvetica,sans-Serif" font-size="10.00" fill="#000000">+ getFirst()</text>
<text text-anchor="start" x="358" y="-284.5" font-family="Helvetica,sans-Serif" font-size="10.00" fill="#000000">+ getLast()</text>
</a>
</g>
</g>
<!-- Node4&#45;&gt;Node6 -->
<g id="edge7" class="edge">
<title>Node4&#45;&gt;Node6</title>
<path fill="none" stroke="#404040" d="M304.2111,-624.2298C308.9466,-610.2498 314.7956,-596.3966 322,-584 327.6848,-574.2182 333.0993,-574.9655 340,-566 340.9458,-564.7712 341.8887,-563.5307 342.8284,-562.2797"/>
<polygon fill="none" stroke="#404040" points="342.8933,-562.1908 343.1982,-554.9861 349.9659,-552.4965 349.661,-559.7012 342.8933,-562.1908"/>
<text text-anchor="middle" x="333" y="-598" font-family="Helvetica,sans-Serif" font-size="10.00" fill="#000000"> &#45;last</text>
<text text-anchor="middle" x="333" y="-587" font-family="Helvetica,sans-Serif" font-size="10.00" fill="#000000">&#45;first</text>
</g>
<!-- Node5&#45;&gt;Node4 -->
<g id="edge4" class="edge">
<title>Node5&#45;&gt;Node4</title>
<path fill="none" stroke="#191970" d="M240.926,-465.3165C250.7342,-497.7718 263.4204,-543.2457 271,-584 273.4127,-596.9729 275.4398,-610.7302 277.1345,-624.3078"/>
<polygon fill="none" stroke="#191970" points="244.2518,-464.2233 237.9834,-455.6818 237.5571,-466.2681 244.2518,-464.2233"/>
</g>
<!-- Node6&#45;&gt;Node4 -->
<g id="edge6" class="edge">
<title>Node6&#45;&gt;Node4</title>
<path fill="none" stroke="#404040" d="M366.5058,-565.7567C360.4693,-579.4544 354.2491,-593.0526 348,-606 346.7644,-608.5601 345.4969,-611.1433 344.2038,-613.741"/>
<polygon fill="none" stroke="#404040" points="344.1855,-613.7772 345.04,-620.9375 338.7592,-624.4802 337.9047,-617.3199 344.1855,-613.7772"/>
<text text-anchor="middle" x="386" y="-592.5" font-family="Helvetica,sans-Serif" font-size="10.00" fill="#000000"> #updatables</text>
</g>
<!-- Node7 -->
<g id="node7" class="node">
<title>Node7</title>
<g id="a_node7"><a xlink:href="../../d3/d6e/classAH_1_1FilteredAnalog.html" target="_top" xlink:title=" ">
<polygon fill="#ffffff" stroke="#000000" points="516.5,-349 516.5,-494 635.5,-494 635.5,-349 516.5,-349"/>
<text text-anchor="start" x="524.5" y="-482" font-family="Helvetica,sans-Serif" font-size="10.00" fill="#000000">FilteredAnalog&lt; Sender</text>
<text text-anchor="middle" x="576" y="-471" font-family="Helvetica,sans-Serif" font-size="10.00" fill="#000000">::precision()&gt;</text>
<polyline fill="none" stroke="#000000" points="516.5,-464 635.5,-464 "/>
<text text-anchor="middle" x="576" y="-452" font-family="Helvetica,sans-Serif" font-size="10.00" fill="#000000"> </text>
<polyline fill="none" stroke="#000000" points="516.5,-445 635.5,-445 "/>
<text text-anchor="start" x="524.5" y="-433" font-family="Helvetica,sans-Serif" font-size="10.00" fill="#000000">+ FilteredAnalog()</text>
<text text-anchor="start" x="524.5" y="-422" font-family="Helvetica,sans-Serif" font-size="10.00" fill="#000000">+ map()</text>
<text text-anchor="start" x="524.5" y="-411" font-family="Helvetica,sans-Serif" font-size="10.00" fill="#000000">+ invert()</text>
<text text-anchor="start" x="524.5" y="-400" font-family="Helvetica,sans-Serif" font-size="10.00" fill="#000000">+ update()</text>
<text text-anchor="start" x="524.5" y="-389" font-family="Helvetica,sans-Serif" font-size="10.00" fill="#000000">+ getValue()</text>
<text text-anchor="start" x="524.5" y="-378" font-family="Helvetica,sans-Serif" font-size="10.00" fill="#000000">+ getFloatValue()</text>
<text text-anchor="start" x="524.5" y="-367" font-family="Helvetica,sans-Serif" font-size="10.00" fill="#000000">+ getRawValue()</text>
<text text-anchor="start" x="524.5" y="-356" font-family="Helvetica,sans-Serif" font-size="10.00" fill="#000000">+ setupADC()</text>
</a>
</g>
</g>
<!-- Node7&#45;&gt;Node2 -->
<g id="edge8" class="edge">
<title>Node7&#45;&gt;Node2</title>
<path fill="none" stroke="#404040" d="M583.9891,-348.8421C589.0545,-317.0881 597.1665,-279.8925 610,-248 610.9523,-245.6335 611.9724,-243.2616 613.0495,-240.8926"/>
<polygon fill="none" stroke="#404040" points="613.1787,-240.6293 612.2321,-233.4806 618.4669,-229.8573 619.4135,-237.006 613.1787,-240.6293"/>
<text text-anchor="middle" x="643" y="-251" font-family="Helvetica,sans-Serif" font-size="10.00" fill="#000000"> &#45;filteredAnalog</text>
</g>
<!-- Node8 -->
<g id="node8" class="node">
<title>Node8</title>
<g id="a_node8"><a xlink:href="../../d7/d40/classEMA.html" target="_top" xlink:title=" ">
<polygon fill="#ffffff" stroke="#000000" points="383.5,-668.5 383.5,-769.5 528.5,-769.5 528.5,-668.5 383.5,-668.5"/>
<text text-anchor="start" x="391.5" y="-757.5" font-family="Helvetica,sans-Serif" font-size="10.00" fill="#000000">EMA&lt; ANALOG_FILTER</text>
<text text-anchor="start" x="391.5" y="-746.5" font-family="Helvetica,sans-Serif" font-size="10.00" fill="#000000">_SHIFT_FACTOR, ANALOG</text>
<text text-anchor="middle" x="456" y="-735.5" font-family="Helvetica,sans-Serif" font-size="10.00" fill="#000000">_FILTER_TYPE &gt;</text>
<polyline fill="none" stroke="#000000" points="383.5,-728.5 528.5,-728.5 "/>
<text text-anchor="start" x="391.5" y="-716.5" font-family="Helvetica,sans-Serif" font-size="10.00" fill="#000000">&#45; filtered</text>
<text text-anchor="start" x="391.5" y="-705.5" font-family="Helvetica,sans-Serif" font-size="10.00" fill="#000000">&#45; fixedPointAHalf</text>
<polyline fill="none" stroke="#000000" points="383.5,-698.5 528.5,-698.5 "/>
<text text-anchor="start" x="391.5" y="-686.5" font-family="Helvetica,sans-Serif" font-size="10.00" fill="#000000">+ filter()</text>
<text text-anchor="start" x="391.5" y="-675.5" font-family="Helvetica,sans-Serif" font-size="10.00" fill="#000000">+ operator()()</text>
</a>
</g>
</g>
<!-- Node8&#45;&gt;Node7 -->
<g id="edge9" class="edge">
<title>Node8&#45;&gt;Node7</title>
<path fill="none" stroke="#404040" d="M476.4924,-668.196C494.4845,-623.5905 521.0088,-557.8324 542.1489,-505.4225"/>
<polygon fill="none" stroke="#404040" points="542.2209,-505.2438 540.7558,-498.1831 546.7099,-494.115 548.175,-501.1757 542.2209,-505.2438"/>
<text text-anchor="middle" x="521.5" y="-592.5" font-family="Helvetica,sans-Serif" font-size="10.00" fill="#000000"> &#45;filter</text>
</g>
<!-- Node9 -->
<g id="node9" class="node">
<title>Node9</title>
<g id="a_node9"><a xlink:title=" ">
<polygon fill="#ffffff" stroke="#bfbfbf" points="547,-690.5 547,-747.5 585,-747.5 585,-690.5 547,-690.5"/>
<text text-anchor="middle" x="566" y="-735.5" font-family="Helvetica,sans-Serif" font-size="10.00" fill="#000000">pin_t</text>
<polyline fill="none" stroke="#bfbfbf" points="547,-728.5 585,-728.5 "/>
<text text-anchor="middle" x="566" y="-716.5" font-family="Helvetica,sans-Serif" font-size="10.00" fill="#000000"> </text>
<polyline fill="none" stroke="#bfbfbf" points="547,-709.5 585,-709.5 "/>
<text text-anchor="middle" x="566" y="-697.5" font-family="Helvetica,sans-Serif" font-size="10.00" fill="#000000"> </text>
</a>
</g>
</g>
<!-- Node9&#45;&gt;Node7 -->
<g id="edge10" class="edge">
<title>Node9&#45;&gt;Node7</title>
<path fill="none" stroke="#404040" d="M565.8144,-690.2868C565.732,-662.952 565.8496,-620.6626 567,-584 567.792,-558.7595 569.128,-531.3366 570.5315,-506.3315"/>
<polygon fill="none" stroke="#404040" points="570.5361,-506.251 566.8866,-500.0316 571.2239,-494.2707 574.8734,-500.4901 570.5361,-506.251"/>
<text text-anchor="middle" x="591.5" y="-592.5" font-family="Helvetica,sans-Serif" font-size="10.00" fill="#000000"> &#45;analogPin</text>
</g>
<!-- Node10 -->
<g id="node10" class="node">
<title>Node10</title>
<g id="a_node10"><a xlink:href="../../d2/dcb/classHysteresis.html" target="_top" xlink:title=" ">
<polygon fill="#ffffff" stroke="#000000" points="685.5,-652 685.5,-786 876.5,-786 876.5,-652 685.5,-652"/>
<text text-anchor="start" x="693.5" y="-774" font-family="Helvetica,sans-Serif" font-size="10.00" fill="#000000">Hysteresis&lt; ADC_BITS</text>
<text text-anchor="start" x="693.5" y="-763" font-family="Helvetica,sans-Serif" font-size="10.00" fill="#000000">+min(sizeof(ANALOG_FILTER</text>
<text text-anchor="start" x="693.5" y="-752" font-family="Helvetica,sans-Serif" font-size="10.00" fill="#000000">_TYPE) *CHAR_BIT &#45; ADC_BITS</text>
<text text-anchor="start" x="693.5" y="-741" font-family="Helvetica,sans-Serif" font-size="10.00" fill="#000000"> &#45; ANALOG_FILTER_SHIFT_FACTOR,</text>
<text text-anchor="start" x="693.5" y="-730" font-family="Helvetica,sans-Serif" font-size="10.00" fill="#000000"> sizeof(analog_t) *CHAR_BIT </text>
<text text-anchor="start" x="693.5" y="-719" font-family="Helvetica,sans-Serif" font-size="10.00" fill="#000000">&#45; ADC_BITS) &#45; Precision, analog</text>
<text text-anchor="middle" x="781" y="-708" font-family="Helvetica,sans-Serif" font-size="10.00" fill="#000000">_t, analog_t &gt;</text>
<polyline fill="none" stroke="#000000" points="685.5,-701 876.5,-701 "/>
<text text-anchor="middle" x="781" y="-689" font-family="Helvetica,sans-Serif" font-size="10.00" fill="#000000"> </text>
<polyline fill="none" stroke="#000000" points="685.5,-682 876.5,-682 "/>
<text text-anchor="start" x="693.5" y="-670" font-family="Helvetica,sans-Serif" font-size="10.00" fill="#000000">+ update()</text>
<text text-anchor="start" x="693.5" y="-659" font-family="Helvetica,sans-Serif" font-size="10.00" fill="#000000">+ getValue()</text>
</a>
</g>
</g>
<!-- Node10&#45;&gt;Node7 -->
<g id="edge11" class="edge">
<title>Node10&#45;&gt;Node7</title>
<path fill="none" stroke="#404040" d="M713.9852,-651.9211C690.4611,-626.3263 664.9513,-596.0528 645,-566 632.4878,-547.1528 620.9582,-525.687 611.0509,-505.1717"/>
<polygon fill="none" stroke="#404040" points="611.0029,-505.0701 604.8208,-501.3577 605.87,-494.2233 612.0521,-497.9357 611.0029,-505.0701"/>
<text text-anchor="middle" x="697" y="-592.5" font-family="Helvetica,sans-Serif" font-size="10.00" fill="#000000"> &#45;hysteresis</text>
</g>
<!-- Node11 -->
<g id="node11" class="node">
<title>Node11</title>
<g id="a_node11"><a xlink:title=" ">
<polygon fill="#ffffff" stroke="#bfbfbf" points="619.5,-905.5 619.5,-962.5 672.5,-962.5 672.5,-905.5 619.5,-905.5"/>
<text text-anchor="middle" x="646" y="-950.5" font-family="Helvetica,sans-Serif" font-size="10.00" fill="#000000">analog_t</text>
<polyline fill="none" stroke="#bfbfbf" points="619.5,-943.5 672.5,-943.5 "/>
<text text-anchor="middle" x="646" y="-931.5" font-family="Helvetica,sans-Serif" font-size="10.00" fill="#000000"> </text>
<polyline fill="none" stroke="#bfbfbf" points="619.5,-924.5 672.5,-924.5 "/>
<text text-anchor="middle" x="646" y="-912.5" font-family="Helvetica,sans-Serif" font-size="10.00" fill="#000000"> </text>
</a>
</g>
</g>
<!-- Node11&#45;&gt;Node7 -->
<g id="edge13" class="edge">
<title>Node11&#45;&gt;Node7</title>
<path fill="none" stroke="#404040" d="M644.1311,-905.4694C639.322,-833.4698 626.1832,-645.7536 616,-584 611.7763,-558.3863 605.6282,-530.857 599.4137,-505.8693"/>
<polygon fill="none" stroke="#404040" points="599.4063,-505.8399 594.057,-501.0041 596.4634,-494.2063 601.8127,-499.0422 599.4063,-505.8399"/>
<text text-anchor="middle" x="656.5" y="-716.5" font-family="Helvetica,sans-Serif" font-size="10.00" fill="#000000"> &#45;mapFn</text>
</g>
<!-- Node11&#45;&gt;Node10 -->
<g id="edge12" class="edge">
<title>Node11&#45;&gt;Node10</title>
<path fill="none" stroke="#404040" d="M663.927,-905.4497C681.3004,-877.7809 708.4387,-834.5606 732.2138,-796.6965"/>
<polygon fill="none" stroke="#404040" points="732.4383,-796.339 732.2413,-789.1306 738.8195,-786.1763 739.0165,-793.3847 732.4383,-796.339"/>
<text text-anchor="middle" x="732" y="-879" font-family="Helvetica,sans-Serif" font-size="10.00" fill="#000000"> &#45;max_in</text>
<text text-anchor="middle" x="732" y="-868" font-family="Helvetica,sans-Serif" font-size="10.00" fill="#000000">&#45;max_out</text>
<text text-anchor="middle" x="732" y="-857" font-family="Helvetica,sans-Serif" font-size="10.00" fill="#000000">&#45;offset</text>
<text text-anchor="middle" x="732" y="-846" font-family="Helvetica,sans-Serif" font-size="10.00" fill="#000000">&#45;prevLevel</text>
<text text-anchor="middle" x="732" y="-835" font-family="Helvetica,sans-Serif" font-size="10.00" fill="#000000">&#45;margin</text>
</g>
<!-- Node12 -->
<g id="node12" class="node">
<title>Node12</title>
<g id="a_node12"><a xlink:href="../../da/d07/classContinuousCCSender.html" target="_top" xlink:title=" ">
<polygon fill="#ffffff" stroke="#000000" points="654,-387.5 654,-455.5 766,-455.5 766,-387.5 654,-387.5"/>
<text text-anchor="middle" x="710" y="-443.5" font-family="Helvetica,sans-Serif" font-size="10.00" fill="#000000">ContinuousCCSender</text>
<polyline fill="none" stroke="#000000" points="654,-436.5 766,-436.5 "/>
<text text-anchor="middle" x="710" y="-424.5" font-family="Helvetica,sans-Serif" font-size="10.00" fill="#000000"> </text>
<polyline fill="none" stroke="#000000" points="654,-417.5 766,-417.5 "/>
<text text-anchor="start" x="662" y="-405.5" font-family="Helvetica,sans-Serif" font-size="10.00" fill="#000000">+ send()</text>
<text text-anchor="start" x="662" y="-394.5" font-family="Helvetica,sans-Serif" font-size="10.00" fill="#000000">+ precision()</text>
</a>
</g>
</g>
<!-- Node12&#45;&gt;Node2 -->
<g id="edge14" class="edge">
<title>Node12&#45;&gt;Node2</title>
<path fill="none" stroke="#404040" d="M704.0708,-387.3739C697.6683,-350.5242 687.249,-290.5551 678.7797,-241.8101"/>
<polygon fill="none" stroke="#404040" points="678.7264,-241.5029 673.7584,-236.2762 676.6722,-229.68 681.6403,-234.9067 678.7264,-241.5029"/>
<text text-anchor="middle" x="699.5" y="-251" font-family="Helvetica,sans-Serif" font-size="10.00" fill="#000000"> +sender</text>
</g>
<!-- Node13 -->
<g id="node13" class="node">
<title>Node13</title>
<g id="a_node13"><a xlink:href="../../d7/d0f/classMIDIAddress.html" target="_top" xlink:title="A type&#45;safe utility class for saving a MIDI address consisting of a 7&#45;bit address,...">
<polygon fill="#ffffff" stroke="#000000" points="784.5,-288.5 784.5,-554.5 913.5,-554.5 913.5,-288.5 784.5,-288.5"/>
<text text-anchor="middle" x="849" y="-542.5" font-family="Helvetica,sans-Serif" font-size="10.00" fill="#000000">MIDIAddress</text>
<polyline fill="none" stroke="#000000" points="784.5,-535.5 913.5,-535.5 "/>
<text text-anchor="start" x="792.5" y="-523.5" font-family="Helvetica,sans-Serif" font-size="10.00" fill="#000000">&#45; addresses</text>
<polyline fill="none" stroke="#000000" points="784.5,-516.5 913.5,-516.5 "/>
<text text-anchor="start" x="792.5" y="-504.5" font-family="Helvetica,sans-Serif" font-size="10.00" fill="#000000">* MIDIAddress()</text>
<text text-anchor="start" x="792.5" y="-493.5" font-family="Helvetica,sans-Serif" font-size="10.00" fill="#000000">* MIDIAddress()</text>
<text text-anchor="start" x="792.5" y="-482.5" font-family="Helvetica,sans-Serif" font-size="10.00" fill="#000000">* MIDIAddress()</text>
<text text-anchor="start" x="792.5" y="-471.5" font-family="Helvetica,sans-Serif" font-size="10.00" fill="#000000">* MIDIAddress()</text>
<text text-anchor="start" x="792.5" y="-460.5" font-family="Helvetica,sans-Serif" font-size="10.00" fill="#000000">* MIDIAddress()</text>
<text text-anchor="start" x="792.5" y="-449.5" font-family="Helvetica,sans-Serif" font-size="10.00" fill="#000000">* invalid()</text>
<text text-anchor="start" x="792.5" y="-438.5" font-family="Helvetica,sans-Serif" font-size="10.00" fill="#000000">* operator+=()</text>
<text text-anchor="start" x="792.5" y="-427.5" font-family="Helvetica,sans-Serif" font-size="10.00" fill="#000000">* operator&#45;=()</text>
<text text-anchor="start" x="792.5" y="-416.5" font-family="Helvetica,sans-Serif" font-size="10.00" fill="#000000">* operator+()</text>
<text text-anchor="start" x="792.5" y="-405.5" font-family="Helvetica,sans-Serif" font-size="10.00" fill="#000000">* operator&#45;()</text>
<text text-anchor="start" x="792.5" y="-394.5" font-family="Helvetica,sans-Serif" font-size="10.00" fill="#000000">* getAddress()</text>
<text text-anchor="start" x="792.5" y="-383.5" font-family="Helvetica,sans-Serif" font-size="10.00" fill="#000000">* getChannel()</text>
<text text-anchor="start" x="792.5" y="-372.5" font-family="Helvetica,sans-Serif" font-size="10.00" fill="#000000">* getRawChannel()</text>
<text text-anchor="start" x="792.5" y="-361.5" font-family="Helvetica,sans-Serif" font-size="10.00" fill="#000000">* getCableNumber()</text>
<text text-anchor="start" x="792.5" y="-350.5" font-family="Helvetica,sans-Serif" font-size="10.00" fill="#000000">* operator==()</text>
<text text-anchor="start" x="792.5" y="-339.5" font-family="Helvetica,sans-Serif" font-size="10.00" fill="#000000">* operator!=()</text>
<text text-anchor="start" x="792.5" y="-328.5" font-family="Helvetica,sans-Serif" font-size="10.00" fill="#000000">* isValid()</text>
<text text-anchor="start" x="792.5" y="-317.5" font-family="Helvetica,sans-Serif" font-size="10.00" fill="#000000">* operator bool()</text>
<text text-anchor="start" x="792.5" y="-306.5" font-family="Helvetica,sans-Serif" font-size="10.00" fill="#000000">* matchSingle()</text>
<text text-anchor="start" x="792.5" y="-295.5" font-family="Helvetica,sans-Serif" font-size="10.00" fill="#000000">* matchAddressInRange()</text>
</a>
</g>
</g>
<!-- Node13&#45;&gt;Node2 -->
<g id="edge15" class="edge">
<title>Node13&#45;&gt;Node2</title>
<path fill="none" stroke="#404040" d="M784.3913,-290.846C781.3241,-286.1072 778.1904,-281.4753 775,-277 765.6648,-263.9051 754.8717,-250.8322 743.77,-238.4513"/>
<polygon fill="none" stroke="#404040" points="743.7454,-238.4244 736.7446,-236.6953 735.6481,-229.568 742.6489,-231.2971 743.7454,-238.4244"/>
<text text-anchor="middle" x="779.5" y="-251" font-family="Helvetica,sans-Serif" font-size="10.00" fill="#000000"> &#45;address</text>
</g>
</g>
</svg>
