<?xml version="1.0" encoding="UTF-8" standalone="no"?>
<!DOCTYPE svg PUBLIC "-//W3C//DTD SVG 1.1//EN"
 "http://www.w3.org/Graphics/SVG/1.1/DTD/svg11.dtd">
<!-- Generated by graphviz version 2.43.0 (0)
 -->
<!-- Title: PluggableUSBMIDI.hpp Pages: 1 -->
<svg width="1356pt" height="252pt"
 viewBox="0.00 0.00 1355.88 252.00" xmlns="http://www.w3.org/2000/svg" xmlns:xlink="http://www.w3.org/1999/xlink">
<g id="graph0" class="graph" transform="scale(1 1) rotate(0) translate(4 248)">
<title>PluggableUSBMIDI.hpp</title>
<polygon fill="white" stroke="transparent" points="-4,4 -4,-248 1351.88,-248 1351.88,4 -4,4"/>
<!-- Node1 -->
<g id="node1" class="node">
<title>Node1</title>
<g id="a_node1"><a xlink:title=" ">
<polygon fill="#bfbfbf" stroke="black" points="583.88,-224.5 583.88,-243.5 711.88,-243.5 711.88,-224.5 583.88,-224.5"/>
<text text-anchor="middle" x="647.88" y="-231.5" font-family="Helvetica,sans-Serif" font-size="10.00">PluggableUSBMIDI.hpp</text>
</a>
</g>
</g>
<!-- Node2 -->
<g id="node2" class="node">
<title>Node2</title>
<g id="a_node2"><a xlink:href="../../d6/ddf/Arduino-Wrapper_8h.html" target="_top" xlink:title=" ">
<polygon fill="white" stroke="black" points="179.88,-168.5 179.88,-187.5 303.88,-187.5 303.88,-168.5 179.88,-168.5"/>
<text text-anchor="middle" x="241.88" y="-175.5" font-family="Helvetica,sans-Serif" font-size="10.00">AH/Arduino&#45;Wrapper.h</text>
</a>
</g>
</g>
<!-- Node1&#45;&gt;Node2 -->
<g id="edge1" class="edge">
<title>Node1&#45;&gt;Node2</title>
<path fill="none" stroke="midnightblue" d="M583.54,-224.44C510.15,-214.68 390.42,-198.76 313.94,-188.59"/>
<polygon fill="midnightblue" stroke="midnightblue" points="314.28,-185.1 303.91,-187.25 313.36,-192.04 314.28,-185.1"/>
</g>
<!-- Node4 -->
<g id="node4" class="node">
<title>Node4</title>
<g id="a_node4"><a xlink:href="../../d1/d65/Warnings_8hpp.html" target="_top" xlink:title=" ">
<polygon fill="white" stroke="black" points="353.38,-0.5 353.38,-19.5 496.38,-19.5 496.38,-0.5 353.38,-0.5"/>
<text text-anchor="middle" x="424.88" y="-7.5" font-family="Helvetica,sans-Serif" font-size="10.00">AH/Settings/Warnings.hpp</text>
</a>
</g>
</g>
<!-- Node1&#45;&gt;Node4 -->
<g id="edge16" class="edge">
<title>Node1&#45;&gt;Node4</title>
<path fill="none" stroke="midnightblue" d="M583.58,-230.01C549.41,-225.19 508.99,-213.87 481.88,-188 436.78,-144.96 427.28,-66.14 425.34,-30.01"/>
<polygon fill="midnightblue" stroke="midnightblue" points="428.83,-29.73 424.94,-19.88 421.84,-30.01 428.83,-29.73"/>
</g>
<!-- Node9 -->
<g id="node9" class="node">
<title>Node9</title>
<g id="a_node9"><a xlink:title=" ">
<polygon fill="white" stroke="#bfbfbf" points="490.88,-168.5 490.88,-187.5 540.88,-187.5 540.88,-168.5 490.88,-168.5"/>
<text text-anchor="middle" x="515.88" y="-175.5" font-family="Helvetica,sans-Serif" font-size="10.00">atomic</text>
</a>
</g>
</g>
<!-- Node1&#45;&gt;Node9 -->
<g id="edge10" class="edge">
<title>Node1&#45;&gt;Node9</title>
<path fill="none" stroke="midnightblue" d="M626.96,-224.44C605.14,-215.52 570.73,-201.44 545.98,-191.32"/>
<polygon fill="midnightblue" stroke="midnightblue" points="547.27,-188.06 536.69,-187.52 544.62,-194.54 547.27,-188.06"/>
</g>
<!-- Node10 -->
<g id="node10" class="node">
<title>Node10</title>
<g id="a_node10"><a xlink:title=" ">
<polygon fill="white" stroke="#bfbfbf" points="558.88,-168.5 558.88,-187.5 608.88,-187.5 608.88,-168.5 558.88,-168.5"/>
<text text-anchor="middle" x="583.88" y="-175.5" font-family="Helvetica,sans-Serif" font-size="10.00">cstdint</text>
</a>
</g>
</g>
<!-- Node1&#45;&gt;Node10 -->
<g id="edge11" class="edge">
<title>Node1&#45;&gt;Node10</title>
<path fill="none" stroke="midnightblue" d="M637.59,-224.32C628.04,-216.26 613.6,-204.08 602.09,-194.37"/>
<polygon fill="midnightblue" stroke="midnightblue" points="604.25,-191.61 594.35,-187.83 599.73,-196.96 604.25,-191.61"/>
</g>
<!-- Node11 -->
<g id="node11" class="node">
<title>Node11</title>
<g id="a_node11"><a xlink:title=" ">
<polygon fill="white" stroke="#bfbfbf" points="627.38,-168.5 627.38,-187.5 668.38,-187.5 668.38,-168.5 627.38,-168.5"/>
<text text-anchor="middle" x="647.88" y="-175.5" font-family="Helvetica,sans-Serif" font-size="10.00">tuple</text>
</a>
</g>
</g>
<!-- Node1&#45;&gt;Node11 -->
<g id="edge12" class="edge">
<title>Node1&#45;&gt;Node11</title>
<path fill="none" stroke="midnightblue" d="M647.88,-224.08C647.88,-217.01 647.88,-206.86 647.88,-197.99"/>
<polygon fill="midnightblue" stroke="midnightblue" points="651.38,-197.75 647.88,-187.75 644.38,-197.75 651.38,-197.75"/>
</g>
<!-- Node12 -->
<g id="node12" class="node">
<title>Node12</title>
<g id="a_node12"><a xlink:title=" ">
<polygon fill="white" stroke="#bfbfbf" points="686.38,-168.5 686.38,-187.5 837.38,-187.5 837.38,-168.5 686.38,-168.5"/>
<text text-anchor="middle" x="761.88" y="-175.5" font-family="Helvetica,sans-Serif" font-size="10.00">USB/PluggableUSBDevice.h</text>
</a>
</g>
</g>
<!-- Node1&#45;&gt;Node12 -->
<g id="edge13" class="edge">
<title>Node1&#45;&gt;Node12</title>
<path fill="none" stroke="midnightblue" d="M665.94,-224.44C684.45,-215.68 713.46,-201.94 734.73,-191.86"/>
<polygon fill="midnightblue" stroke="midnightblue" points="736.36,-194.96 743.9,-187.52 733.36,-188.63 736.36,-194.96"/>
</g>
<!-- Node13 -->
<g id="node13" class="node">
<title>Node13</title>
<g id="a_node13"><a xlink:title=" ">
<polygon fill="white" stroke="#bfbfbf" points="855.88,-168.5 855.88,-187.5 989.88,-187.5 989.88,-168.5 855.88,-168.5"/>
<text text-anchor="middle" x="922.88" y="-175.5" font-family="Helvetica,sans-Serif" font-size="10.00">mbed/drivers/Timeout.h</text>
</a>
</g>
</g>
<!-- Node1&#45;&gt;Node13 -->
<g id="edge14" class="edge">
<title>Node1&#45;&gt;Node13</title>
<path fill="none" stroke="midnightblue" d="M691.45,-224.44C739.73,-214.96 817.59,-199.67 869.49,-189.48"/>
<polygon fill="midnightblue" stroke="midnightblue" points="870.37,-192.88 879.51,-187.52 869.02,-186.01 870.37,-192.88"/>
</g>
<!-- Node14 -->
<g id="node14" class="node">
<title>Node14</title>
<g id="a_node14"><a xlink:title=" ">
<polygon fill="white" stroke="#bfbfbf" points="1008.38,-168.5 1008.38,-187.5 1151.38,-187.5 1151.38,-168.5 1008.38,-168.5"/>
<text text-anchor="middle" x="1079.88" y="-175.5" font-family="Helvetica,sans-Serif" font-size="10.00">mbed/platform/Callback.h</text>
</a>
</g>
</g>
<!-- Node1&#45;&gt;Node14 -->
<g id="edge15" class="edge">
<title>Node1&#45;&gt;Node14</title>
<path fill="none" stroke="midnightblue" d="M712.08,-224.97C789.25,-215.33 918.68,-199.15 1001.62,-188.78"/>
<polygon fill="midnightblue" stroke="midnightblue" points="1002.26,-192.23 1011.75,-187.52 1001.39,-185.28 1002.26,-192.23"/>
</g>
<!-- Node15 -->
<g id="node15" class="node">
<title>Node15</title>
<g id="a_node15"><a xlink:title=" ">
<polygon fill="white" stroke="#bfbfbf" points="1169.88,-168.5 1169.88,-187.5 1347.88,-187.5 1347.88,-168.5 1169.88,-168.5"/>
<text text-anchor="middle" x="1258.88" y="-175.5" font-family="Helvetica,sans-Serif" font-size="10.00">Settings/NamespaceSettings.hpp</text>
</a>
</g>
</g>
<!-- Node1&#45;&gt;Node15 -->
<g id="edge17" class="edge">
<title>Node1&#45;&gt;Node15</title>
<path fill="none" stroke="midnightblue" d="M712.27,-227.44C807.57,-219.18 992.09,-203.13 1159.68,-188.1"/>
<polygon fill="midnightblue" stroke="midnightblue" points="1160.03,-191.59 1169.68,-187.21 1159.41,-184.61 1160.03,-191.59"/>
</g>
<!-- Node3 -->
<g id="node3" class="node">
<title>Node3</title>
<g id="a_node3"><a xlink:href="../../d7/d79/MinMaxFix_8hpp.html" target="_top" xlink:title=" ">
<polygon fill="white" stroke="black" points="243.88,-112.5 243.88,-131.5 379.88,-131.5 379.88,-112.5 243.88,-112.5"/>
<text text-anchor="middle" x="311.88" y="-119.5" font-family="Helvetica,sans-Serif" font-size="10.00">AH/Math/MinMaxFix.hpp</text>
</a>
</g>
</g>
<!-- Node2&#45;&gt;Node3 -->
<g id="edge2" class="edge">
<title>Node2&#45;&gt;Node3</title>
<path fill="none" stroke="midnightblue" d="M253.12,-168.32C263.67,-160.18 279.68,-147.84 292.32,-138.09"/>
<polygon fill="midnightblue" stroke="midnightblue" points="294.64,-140.71 300.42,-131.83 290.37,-135.17 294.64,-140.71"/>
</g>
<!-- Node6 -->
<g id="node6" class="node">
<title>Node6</title>
<g id="a_node6"><a xlink:title=" ">
<polygon fill="white" stroke="#bfbfbf" points="113.38,-0.5 113.38,-19.5 176.38,-19.5 176.38,-0.5 113.38,-0.5"/>
<text text-anchor="middle" x="144.88" y="-7.5" font-family="Helvetica,sans-Serif" font-size="10.00">Arduino.h</text>
</a>
</g>
</g>
<!-- Node2&#45;&gt;Node6 -->
<g id="edge9" class="edge">
<title>Node2&#45;&gt;Node6</title>
<path fill="none" stroke="midnightblue" d="M179.71,-170.48C122.47,-160.71 41.12,-136.41 4.88,-76 -19,-36.21 53.5,-20.51 102.9,-14.51"/>
<polygon fill="midnightblue" stroke="midnightblue" points="103.5,-17.97 113.05,-13.38 102.72,-11.01 103.5,-17.97"/>
</g>
<!-- Node8 -->
<g id="node8" class="node">
<title>Node8</title>
<g id="a_node8"><a xlink:title=" ">
<polygon fill="white" stroke="#bfbfbf" points="118.38,-112.5 118.38,-131.5 225.38,-131.5 225.38,-112.5 118.38,-112.5"/>
<text text-anchor="middle" x="171.88" y="-119.5" font-family="Helvetica,sans-Serif" font-size="10.00">AH/STL/type_traits</text>
</a>
</g>
</g>
<!-- Node2&#45;&gt;Node8 -->
<g id="edge8" class="edge">
<title>Node2&#45;&gt;Node8</title>
<path fill="none" stroke="midnightblue" d="M230.63,-168.32C220.08,-160.18 204.08,-147.84 191.43,-138.09"/>
<polygon fill="midnightblue" stroke="midnightblue" points="193.38,-135.17 183.33,-131.83 189.11,-140.71 193.38,-135.17"/>
</g>
<!-- Node3&#45;&gt;Node4 -->
<g id="edge3" class="edge">
<title>Node3&#45;&gt;Node4</title>
<path fill="none" stroke="midnightblue" d="M345.79,-112.36C365.9,-105.59 390.41,-94.2 405.88,-76 416.93,-62.99 421.56,-43.83 423.49,-29.68"/>
<polygon fill="midnightblue" stroke="midnightblue" points="426.98,-29.93 424.54,-19.62 420.02,-29.21 426.98,-29.93"/>
</g>
<!-- Node5 -->
<g id="node5" class="node">
<title>Node5</title>
<g id="a_node5"><a xlink:href="../../d6/d3b/FixArduinoMacros_8hpp.html" target="_top" xlink:title=" ">
<polygon fill="white" stroke="black" points="226.88,-56.5 226.88,-75.5 396.88,-75.5 396.88,-56.5 226.88,-56.5"/>
<text text-anchor="middle" x="311.88" y="-63.5" font-family="Helvetica,sans-Serif" font-size="10.00">AH/Math/FixArduinoMacros.hpp</text>
</a>
</g>
</g>
<!-- Node3&#45;&gt;Node5 -->
<g id="edge4" class="edge">
<title>Node3&#45;&gt;Node5</title>
<path fill="none" stroke="midnightblue" d="M311.88,-112.08C311.88,-105.01 311.88,-94.86 311.88,-85.99"/>
<polygon fill="midnightblue" stroke="midnightblue" points="315.38,-85.75 311.88,-75.75 308.38,-85.75 315.38,-85.75"/>
</g>
<!-- Node7 -->
<g id="node7" class="node">
<title>Node7</title>
<g id="a_node7"><a xlink:href="../../d6/db0/AH_2Settings_2NamespaceSettings_8hpp.html" target="_top" xlink:title=" ">
<polygon fill="white" stroke="black" points="13.38,-56.5 13.38,-75.5 208.38,-75.5 208.38,-56.5 13.38,-56.5"/>
<text text-anchor="middle" x="110.88" y="-63.5" font-family="Helvetica,sans-Serif" font-size="10.00">AH/Settings/NamespaceSettings.hpp</text>
</a>
</g>
</g>
<!-- Node3&#45;&gt;Node7 -->
<g id="edge7" class="edge">
<title>Node3&#45;&gt;Node7</title>
<path fill="none" stroke="midnightblue" d="M280.03,-112.44C245.48,-103.16 190.19,-88.31 152.29,-78.13"/>
<polygon fill="midnightblue" stroke="midnightblue" points="153.14,-74.73 142.58,-75.52 151.33,-81.49 153.14,-74.73"/>
</g>
<!-- Node5&#45;&gt;Node4 -->
<g id="edge5" class="edge">
<title>Node5&#45;&gt;Node4</title>
<path fill="none" stroke="midnightblue" d="M329.78,-56.44C348.13,-47.68 376.88,-33.94 397.97,-23.86"/>
<polygon fill="midnightblue" stroke="midnightblue" points="399.54,-26.99 407.05,-19.52 396.52,-20.67 399.54,-26.99"/>
</g>
<!-- Node5&#45;&gt;Node6 -->
<g id="edge6" class="edge">
<title>Node5&#45;&gt;Node6</title>
<path fill="none" stroke="midnightblue" d="M285.41,-56.44C257.2,-47.32 212.34,-32.81 180.91,-22.65"/>
<polygon fill="midnightblue" stroke="midnightblue" points="181.81,-19.26 171.21,-19.52 179.65,-25.92 181.81,-19.26"/>
</g>
</g>
</svg>
