<?xml version="1.0" encoding="UTF-8" standalone="no"?>
<!DOCTYPE svg PUBLIC "-//W3C//DTD SVG 1.1//EN"
 "http://www.w3.org/Graphics/SVG/1.1/DTD/svg11.dtd">
<!-- Generated by graphviz version 2.40.1 (20161225.0304)
 -->
<!-- Title: NoteButtons&lt; NumButtons &gt; Pages: 1 -->
<svg width="152pt" height="739pt"
 viewBox="0.00 0.00 152.00 739.00" xmlns="http://www.w3.org/2000/svg" xmlns:xlink="http://www.w3.org/1999/xlink">
<g id="graph0" class="graph" transform="scale(1 1) rotate(0) translate(4 735)">
<title>NoteButtons&lt; NumButtons &gt;</title>
<polygon fill="#ffffff" stroke="transparent" points="-4,4 -4,-735 148,-735 148,4 -4,4"/>
<!-- Node1 -->
<g id="node1" class="node">
<title>Node1</title>
<g id="a_node1"><a xlink:title="A class of MIDIOutputElements that read the input of a collection of momentary push buttons or switch...">
<polygon fill="#bfbfbf" stroke="#000000" points="0,-.5 0,-79.5 144,-79.5 144,-.5 0,-.5"/>
<text text-anchor="middle" x="72" y="-67.5" font-family="Helvetica,sans-Serif" font-size="10.00" fill="#000000">NoteButtons&lt; NumButtons &gt;</text>
<polyline fill="none" stroke="#000000" points="0,-60.5 144,-60.5 "/>
<text text-anchor="middle" x="72" y="-48.5" font-family="Helvetica,sans-Serif" font-size="10.00" fill="#000000"> </text>
<polyline fill="none" stroke="#000000" points="0,-41.5 144,-41.5 "/>
<text text-anchor="start" x="8" y="-29.5" font-family="Helvetica,sans-Serif" font-size="10.00" fill="#000000">+ NoteButtons()</text>
<text text-anchor="start" x="8" y="-18.5" font-family="Helvetica,sans-Serif" font-size="10.00" fill="#000000">+ setVelocity()</text>
<text text-anchor="start" x="8" y="-7.5" font-family="Helvetica,sans-Serif" font-size="10.00" fill="#000000">+ getVelocity()</text>
</a>
</g>
</g>
<!-- Node2 -->
<g id="node2" class="node">
<title>Node2</title>
<g id="a_node2"><a xlink:href="../../d2/d87/classMIDIButtons.html" target="_top" xlink:title=" ">
<polygon fill="#ffffff" stroke="#000000" points="7,-116.5 7,-261.5 137,-261.5 137,-116.5 7,-116.5"/>
<text text-anchor="start" x="15" y="-249.5" font-family="Helvetica,sans-Serif" font-size="10.00" fill="#000000">MIDIButtons&lt; DigitalNote</text>
<text text-anchor="middle" x="72" y="-238.5" font-family="Helvetica,sans-Serif" font-size="10.00" fill="#000000">Sender, NumButtons &gt;</text>
<polyline fill="none" stroke="#000000" points="7,-231.5 137,-231.5 "/>
<text text-anchor="start" x="15" y="-219.5" font-family="Helvetica,sans-Serif" font-size="10.00" fill="#000000">+ sender</text>
<text text-anchor="start" x="15" y="-208.5" font-family="Helvetica,sans-Serif" font-size="10.00" fill="#000000">&#45; buttons</text>
<text text-anchor="start" x="15" y="-197.5" font-family="Helvetica,sans-Serif" font-size="10.00" fill="#000000">&#45; baseAddress</text>
<text text-anchor="start" x="15" y="-186.5" font-family="Helvetica,sans-Serif" font-size="10.00" fill="#000000">&#45; incrementAddress</text>
<polyline fill="none" stroke="#000000" points="7,-179.5 137,-179.5 "/>
<text text-anchor="start" x="15" y="-167.5" font-family="Helvetica,sans-Serif" font-size="10.00" fill="#000000">+ begin()</text>
<text text-anchor="start" x="15" y="-156.5" font-family="Helvetica,sans-Serif" font-size="10.00" fill="#000000">+ update()</text>
<text text-anchor="start" x="15" y="-145.5" font-family="Helvetica,sans-Serif" font-size="10.00" fill="#000000">+ getButtonState()</text>
<text text-anchor="start" x="15" y="-134.5" font-family="Helvetica,sans-Serif" font-size="10.00" fill="#000000">+ invert()</text>
<text text-anchor="start" x="15" y="-123.5" font-family="Helvetica,sans-Serif" font-size="10.00" fill="#000000"># MIDIButtons()</text>
</a>
</g>
</g>
<!-- Node2&#45;&gt;Node1 -->
<g id="edge1" class="edge">
<title>Node2&#45;&gt;Node1</title>
<path fill="none" stroke="#191970" d="M72,-105.9585C72,-96.8854 72,-87.9835 72,-79.8008"/>
<polygon fill="none" stroke="#191970" points="68.5001,-106.2459 72,-116.246 75.5001,-106.246 68.5001,-106.2459"/>
</g>
<!-- Node3 -->
<g id="node3" class="node">
<title>Node3</title>
<g id="a_node3"><a xlink:href="../../d1/d55/classAH_1_1Updatable.html" target="_top" xlink:title=" ">
<polygon fill="#ffffff" stroke="#000000" points="20,-298.5 20,-388.5 124,-388.5 124,-298.5 20,-298.5"/>
<text text-anchor="middle" x="72" y="-376.5" font-family="Helvetica,sans-Serif" font-size="10.00" fill="#000000">MIDIOutputElement</text>
<polyline fill="none" stroke="#000000" points="20,-369.5 124,-369.5 "/>
<text text-anchor="middle" x="72" y="-357.5" font-family="Helvetica,sans-Serif" font-size="10.00" fill="#000000"> </text>
<polyline fill="none" stroke="#000000" points="20,-350.5 124,-350.5 "/>
<text text-anchor="start" x="28" y="-338.5" font-family="Helvetica,sans-Serif" font-size="10.00" fill="#000000">* begin()</text>
<text text-anchor="start" x="28" y="-327.5" font-family="Helvetica,sans-Serif" font-size="10.00" fill="#000000">* update()</text>
<text text-anchor="start" x="28" y="-316.5" font-family="Helvetica,sans-Serif" font-size="10.00" fill="#000000">* beginAll()</text>
<text text-anchor="start" x="28" y="-305.5" font-family="Helvetica,sans-Serif" font-size="10.00" fill="#000000">* updateAll()</text>
</a>
</g>
</g>
<!-- Node3&#45;&gt;Node2 -->
<g id="edge2" class="edge">
<title>Node3&#45;&gt;Node2</title>
<path fill="none" stroke="#191970" d="M72,-288.1753C72,-279.61 72,-270.6527 72,-261.7745"/>
<polygon fill="none" stroke="#191970" points="68.5001,-288.3968 72,-298.3969 75.5001,-288.3969 68.5001,-288.3968"/>
</g>
<!-- Node4 -->
<g id="node4" class="node">
<title>Node4</title>
<g id="a_node4"><a xlink:href="../../d8/d1a/classAH_1_1UpdatableCRTP.html" target="_top" xlink:title=" ">
<polygon fill="#ffffff" stroke="#000000" points="1,-425.5 1,-614.5 143,-614.5 143,-425.5 1,-425.5"/>
<text text-anchor="start" x="9" y="-602.5" font-family="Helvetica,sans-Serif" font-size="10.00" fill="#000000">UpdatableCRTP&lt; Updatable</text>
<text text-anchor="middle" x="72" y="-591.5" font-family="Helvetica,sans-Serif" font-size="10.00" fill="#000000">&lt; NormalUpdatable &gt; &gt;</text>
<polyline fill="none" stroke="#000000" points="1,-584.5 143,-584.5 "/>
<text text-anchor="start" x="9" y="-572.5" font-family="Helvetica,sans-Serif" font-size="10.00" fill="#000000"># updatables</text>
<polyline fill="none" stroke="#000000" points="1,-565.5 143,-565.5 "/>
<text text-anchor="start" x="9" y="-553.5" font-family="Helvetica,sans-Serif" font-size="10.00" fill="#000000">+ ~UpdatableCRTP()</text>
<text text-anchor="start" x="9" y="-542.5" font-family="Helvetica,sans-Serif" font-size="10.00" fill="#000000"># UpdatableCRTP()</text>
<text text-anchor="start" x="9" y="-531.5" font-family="Helvetica,sans-Serif" font-size="10.00" fill="#000000">* enable()</text>
<text text-anchor="start" x="9" y="-520.5" font-family="Helvetica,sans-Serif" font-size="10.00" fill="#000000">* disable()</text>
<text text-anchor="start" x="9" y="-509.5" font-family="Helvetica,sans-Serif" font-size="10.00" fill="#000000">* isEnabled()</text>
<text text-anchor="start" x="9" y="-498.5" font-family="Helvetica,sans-Serif" font-size="10.00" fill="#000000">* enable()</text>
<text text-anchor="start" x="9" y="-487.5" font-family="Helvetica,sans-Serif" font-size="10.00" fill="#000000">* enable()</text>
<text text-anchor="start" x="9" y="-476.5" font-family="Helvetica,sans-Serif" font-size="10.00" fill="#000000">* enable()</text>
<text text-anchor="start" x="9" y="-465.5" font-family="Helvetica,sans-Serif" font-size="10.00" fill="#000000">* disable()</text>
<text text-anchor="start" x="9" y="-454.5" font-family="Helvetica,sans-Serif" font-size="10.00" fill="#000000">* disable()</text>
<text text-anchor="start" x="9" y="-443.5" font-family="Helvetica,sans-Serif" font-size="10.00" fill="#000000">* disable()</text>
<text text-anchor="start" x="9" y="-432.5" font-family="Helvetica,sans-Serif" font-size="10.00" fill="#000000">* applyToAll()</text>
</a>
</g>
</g>
<!-- Node4&#45;&gt;Node3 -->
<g id="edge3" class="edge">
<title>Node4&#45;&gt;Node3</title>
<path fill="none" stroke="#191970" d="M72,-415.1839C72,-405.9415 72,-396.9505 72,-388.6363"/>
<polygon fill="none" stroke="#191970" points="68.5001,-415.2915 72,-425.2915 75.5001,-415.2915 68.5001,-415.2915"/>
</g>
<!-- Node5 -->
<g id="node5" class="node">
<title>Node5</title>
<g id="a_node5"><a xlink:href="../../d4/d23/classDoublyLinkable.html" target="_top" xlink:title=" ">
<polygon fill="#ffffff" stroke="#000000" points="3.5,-651.5 3.5,-730.5 140.5,-730.5 140.5,-651.5 3.5,-651.5"/>
<text text-anchor="start" x="11.5" y="-718.5" font-family="Helvetica,sans-Serif" font-size="10.00" fill="#000000">DoublyLinkable&lt; Updatable</text>
<text text-anchor="middle" x="72" y="-707.5" font-family="Helvetica,sans-Serif" font-size="10.00" fill="#000000">&lt; NormalUpdatable &gt; &gt;</text>
<polyline fill="none" stroke="#000000" points="3.5,-700.5 140.5,-700.5 "/>
<text text-anchor="start" x="11.5" y="-688.5" font-family="Helvetica,sans-Serif" font-size="10.00" fill="#000000"># next</text>
<text text-anchor="start" x="11.5" y="-677.5" font-family="Helvetica,sans-Serif" font-size="10.00" fill="#000000"># previous</text>
<polyline fill="none" stroke="#000000" points="3.5,-670.5 140.5,-670.5 "/>
<text text-anchor="start" x="11.5" y="-658.5" font-family="Helvetica,sans-Serif" font-size="10.00" fill="#000000"># ~DoublyLinkable()</text>
</a>
</g>
</g>
<!-- Node5&#45;&gt;Node4 -->
<g id="edge4" class="edge">
<title>Node5&#45;&gt;Node4</title>
<path fill="none" stroke="#191970" d="M72,-641.33C72,-632.868 72,-623.8344 72,-614.6585"/>
<polygon fill="none" stroke="#191970" points="68.5001,-641.3393 72,-651.3394 75.5001,-641.3394 68.5001,-641.3393"/>
</g>
</g>
</svg>
