<?xml version="1.0" encoding="UTF-8" standalone="no"?>
<!DOCTYPE svg PUBLIC "-//W3C//DTD SVG 1.1//EN"
 "http://www.w3.org/Graphics/SVG/1.1/DTD/svg11.dtd">
<!-- Generated by graphviz version 2.40.1 (20161225.0304)
 -->
<!-- Title: TimeDisplay Pages: 1 -->
<svg width="280pt" height="678pt"
 viewBox="0.00 0.00 279.50 678.00" xmlns="http://www.w3.org/2000/svg" xmlns:xlink="http://www.w3.org/1999/xlink">
<g id="graph0" class="graph" transform="scale(1 1) rotate(0) translate(4 674)">
<title>TimeDisplay</title>
<polygon fill="#ffffff" stroke="transparent" points="-4,4 -4,-674 275.5,-674 275.5,4 -4,4"/>
<!-- Node1 -->
<g id="node1" class="node">
<title>Node1</title>
<g id="a_node1"><a xlink:title=" ">
<polygon fill="#bfbfbf" stroke="#000000" points="143.5,-.5 143.5,-101.5 229.5,-101.5 229.5,-.5 143.5,-.5"/>
<text text-anchor="middle" x="186.5" y="-89.5" font-family="Helvetica,sans-Serif" font-size="10.00" fill="#000000">TimeDisplay</text>
<polyline fill="none" stroke="#000000" points="143.5,-82.5 229.5,-82.5 "/>
<text text-anchor="middle" x="186.5" y="-70.5" font-family="Helvetica,sans-Serif" font-size="10.00" fill="#000000"> </text>
<polyline fill="none" stroke="#000000" points="143.5,-63.5 229.5,-63.5 "/>
<text text-anchor="start" x="151.5" y="-51.5" font-family="Helvetica,sans-Serif" font-size="10.00" fill="#000000">+ TimeDisplay()</text>
<text text-anchor="start" x="151.5" y="-40.5" font-family="Helvetica,sans-Serif" font-size="10.00" fill="#000000">+ print()</text>
<text text-anchor="start" x="151.5" y="-29.5" font-family="Helvetica,sans-Serif" font-size="10.00" fill="#000000">+ getBars()</text>
<text text-anchor="start" x="151.5" y="-18.5" font-family="Helvetica,sans-Serif" font-size="10.00" fill="#000000">+ getBeats()</text>
<text text-anchor="start" x="151.5" y="-7.5" font-family="Helvetica,sans-Serif" font-size="10.00" fill="#000000">+ getFrames()</text>
</a>
</g>
</g>
<!-- Node2 -->
<g id="node2" class="node">
<title>Node2</title>
<g id="a_node2"><a xlink:href="../../d5/d54/classMCU_1_1SevenSegmentDisplay.html" target="_top" xlink:title=" ">
<polygon fill="#ffffff" stroke="#000000" points="121,-138.5 121,-316.5 252,-316.5 252,-138.5 121,-138.5"/>
<text text-anchor="start" x="129" y="-304.5" font-family="Helvetica,sans-Serif" font-size="10.00" fill="#000000">SevenSegmentDisplay</text>
<text text-anchor="middle" x="186.5" y="-293.5" font-family="Helvetica,sans-Serif" font-size="10.00" fill="#000000">&lt; TimeDisplayLength &gt;</text>
<polyline fill="none" stroke="#000000" points="121,-286.5 252,-286.5 "/>
<text text-anchor="start" x="129" y="-274.5" font-family="Helvetica,sans-Serif" font-size="10.00" fill="#000000">&#45; text</text>
<polyline fill="none" stroke="#000000" points="121,-267.5 252,-267.5 "/>
<text text-anchor="start" x="129" y="-255.5" font-family="Helvetica,sans-Serif" font-size="10.00" fill="#000000">+ SevenSegmentDisplay()</text>
<text text-anchor="start" x="129" y="-244.5" font-family="Helvetica,sans-Serif" font-size="10.00" fill="#000000">+ fillWithSpaces()</text>
<text text-anchor="start" x="129" y="-233.5" font-family="Helvetica,sans-Serif" font-size="10.00" fill="#000000">+ reset()</text>
<text text-anchor="start" x="129" y="-222.5" font-family="Helvetica,sans-Serif" font-size="10.00" fill="#000000">+ getText()</text>
<text text-anchor="start" x="129" y="-211.5" font-family="Helvetica,sans-Serif" font-size="10.00" fill="#000000">+ getCharacterAt()</text>
<text text-anchor="start" x="129" y="-200.5" font-family="Helvetica,sans-Serif" font-size="10.00" fill="#000000">+ getDecimalPoints()</text>
<text text-anchor="start" x="129" y="-189.5" font-family="Helvetica,sans-Serif" font-size="10.00" fill="#000000">+ getDecimalPointAt()</text>
<text text-anchor="start" x="129" y="-178.5" font-family="Helvetica,sans-Serif" font-size="10.00" fill="#000000">+ printTo()</text>
<text text-anchor="start" x="129" y="-167.5" font-family="Helvetica,sans-Serif" font-size="10.00" fill="#000000">&#45; updateImpl()</text>
<text text-anchor="start" x="129" y="-156.5" font-family="Helvetica,sans-Serif" font-size="10.00" fill="#000000">&#45; match()</text>
<text text-anchor="start" x="129" y="-145.5" font-family="Helvetica,sans-Serif" font-size="10.00" fill="#000000">&#45; getRangeIndex()</text>
</a>
</g>
</g>
<!-- Node2&#45;&gt;Node1 -->
<g id="edge1" class="edge">
<title>Node2&#45;&gt;Node1</title>
<path fill="none" stroke="#191970" d="M186.5,-128.3944C186.5,-119.1453 186.5,-110.0577 186.5,-101.5464"/>
<polygon fill="none" stroke="#191970" points="183.0001,-128.4743 186.5,-138.4744 190.0001,-128.4744 183.0001,-128.4743"/>
</g>
<!-- Node3 -->
<g id="node3" class="node">
<title>Node3</title>
<g id="a_node3"><a xlink:href="../../d3/d96/classMIDIInputElementCC.html" target="_top" xlink:title="Class for objects that listen for incoming MIDI Controller Change events.">
<polygon fill="#ffffff" stroke="#000000" points="64.5,-353.5 64.5,-476.5 196.5,-476.5 196.5,-353.5 64.5,-353.5"/>
<text text-anchor="middle" x="130.5" y="-464.5" font-family="Helvetica,sans-Serif" font-size="10.00" fill="#000000">MIDIInputElementCC</text>
<polyline fill="none" stroke="#000000" points="64.5,-457.5 196.5,-457.5 "/>
<text text-anchor="start" x="72.5" y="-445.5" font-family="Helvetica,sans-Serif" font-size="10.00" fill="#000000">&#45; elements</text>
<polyline fill="none" stroke="#000000" points="64.5,-438.5 196.5,-438.5 "/>
<text text-anchor="start" x="72.5" y="-426.5" font-family="Helvetica,sans-Serif" font-size="10.00" fill="#000000">+ MIDIInputElementCC()</text>
<text text-anchor="start" x="72.5" y="-415.5" font-family="Helvetica,sans-Serif" font-size="10.00" fill="#000000">+ ~MIDIInputElementCC()</text>
<text text-anchor="start" x="72.5" y="-404.5" font-family="Helvetica,sans-Serif" font-size="10.00" fill="#000000">+ beginAll()</text>
<text text-anchor="start" x="72.5" y="-393.5" font-family="Helvetica,sans-Serif" font-size="10.00" fill="#000000">+ updateAll()</text>
<text text-anchor="start" x="72.5" y="-382.5" font-family="Helvetica,sans-Serif" font-size="10.00" fill="#000000">+ resetAll()</text>
<text text-anchor="start" x="72.5" y="-371.5" font-family="Helvetica,sans-Serif" font-size="10.00" fill="#000000">+ updateAllWith()</text>
<text text-anchor="start" x="72.5" y="-360.5" font-family="Helvetica,sans-Serif" font-size="10.00" fill="#000000">&#45; moveDown()</text>
</a>
</g>
</g>
<!-- Node3&#45;&gt;Node2 -->
<g id="edge2" class="edge">
<title>Node3&#45;&gt;Node2</title>
<path fill="none" stroke="#191970" d="M151.8365,-343.561C154.4608,-334.7742 157.168,-325.7098 159.8585,-316.7015"/>
<polygon fill="none" stroke="#191970" points="148.4223,-342.7624 148.9141,-353.3458 155.1295,-344.7657 148.4223,-342.7624"/>
</g>
<!-- Node4 -->
<g id="node4" class="node">
<title>Node4</title>
<g id="a_node4"><a xlink:href="../../d9/db1/classMIDIInputElement.html" target="_top" xlink:title="A class for objects that listen for incoming MIDI events.">
<polygon fill="#ffffff" stroke="#000000" points="0,-513.5 0,-669.5 117,-669.5 117,-513.5 0,-513.5"/>
<text text-anchor="middle" x="58.5" y="-657.5" font-family="Helvetica,sans-Serif" font-size="10.00" fill="#000000">MIDIInputElement</text>
<polyline fill="none" stroke="#000000" points="0,-650.5 117,-650.5 "/>
<text text-anchor="start" x="8" y="-638.5" font-family="Helvetica,sans-Serif" font-size="10.00" fill="#000000"># address</text>
<polyline fill="none" stroke="#000000" points="0,-631.5 117,-631.5 "/>
<text text-anchor="start" x="8" y="-619.5" font-family="Helvetica,sans-Serif" font-size="10.00" fill="#000000">+ ~MIDIInputElement()</text>
<text text-anchor="start" x="8" y="-608.5" font-family="Helvetica,sans-Serif" font-size="10.00" fill="#000000">+ begin()</text>
<text text-anchor="start" x="8" y="-597.5" font-family="Helvetica,sans-Serif" font-size="10.00" fill="#000000">+ reset()</text>
<text text-anchor="start" x="8" y="-586.5" font-family="Helvetica,sans-Serif" font-size="10.00" fill="#000000">+ update()</text>
<text text-anchor="start" x="8" y="-575.5" font-family="Helvetica,sans-Serif" font-size="10.00" fill="#000000">+ updateWith()</text>
<text text-anchor="start" x="8" y="-564.5" font-family="Helvetica,sans-Serif" font-size="10.00" fill="#000000"># MIDIInputElement()</text>
<text text-anchor="start" x="8" y="-553.5" font-family="Helvetica,sans-Serif" font-size="10.00" fill="#000000"># MIDIInputElement()</text>
<text text-anchor="start" x="8" y="-542.5" font-family="Helvetica,sans-Serif" font-size="10.00" fill="#000000">&#45; updateImpl()</text>
<text text-anchor="start" x="8" y="-531.5" font-family="Helvetica,sans-Serif" font-size="10.00" fill="#000000">&#45; getTarget()</text>
<text text-anchor="start" x="8" y="-520.5" font-family="Helvetica,sans-Serif" font-size="10.00" fill="#000000">&#45; match()</text>
</a>
</g>
</g>
<!-- Node4&#45;&gt;Node3 -->
<g id="edge3" class="edge">
<title>Node4&#45;&gt;Node3</title>
<path fill="none" stroke="#191970" d="M94.2786,-503.7927C98.0132,-494.6378 101.751,-485.4751 105.3311,-476.6987"/>
<polygon fill="none" stroke="#191970" points="90.9311,-502.7325 90.3947,-513.3138 97.4126,-505.3765 90.9311,-502.7325"/>
</g>
<!-- Node5 -->
<g id="node5" class="node">
<title>Node5</title>
<g id="a_node5"><a xlink:href="../../d4/d23/classDoublyLinkable.html" target="_top" xlink:title=" ">
<polygon fill="#ffffff" stroke="#000000" points="135.5,-552 135.5,-631 271.5,-631 271.5,-552 135.5,-552"/>
<text text-anchor="start" x="143.5" y="-619" font-family="Helvetica,sans-Serif" font-size="10.00" fill="#000000">DoublyLinkable&lt; MIDIInput</text>
<text text-anchor="middle" x="203.5" y="-608" font-family="Helvetica,sans-Serif" font-size="10.00" fill="#000000">ElementCC &gt;</text>
<polyline fill="none" stroke="#000000" points="135.5,-601 271.5,-601 "/>
<text text-anchor="start" x="143.5" y="-589" font-family="Helvetica,sans-Serif" font-size="10.00" fill="#000000"># next</text>
<text text-anchor="start" x="143.5" y="-578" font-family="Helvetica,sans-Serif" font-size="10.00" fill="#000000"># previous</text>
<polyline fill="none" stroke="#000000" points="135.5,-571 271.5,-571 "/>
<text text-anchor="start" x="143.5" y="-559" font-family="Helvetica,sans-Serif" font-size="10.00" fill="#000000"># ~DoublyLinkable()</text>
</a>
</g>
</g>
<!-- Node5&#45;&gt;Node3 -->
<g id="edge4" class="edge">
<title>Node5&#45;&gt;Node3</title>
<path fill="none" stroke="#191970" d="M183.2303,-542.4918C174.799,-522.1066 164.9169,-498.2134 156.0006,-476.6556"/>
<polygon fill="none" stroke="#191970" points="180.0611,-543.9869 187.1174,-551.89 186.5296,-541.3114 180.0611,-543.9869"/>
</g>
<!-- Node6 -->
<g id="node6" class="node">
<title>Node6</title>
<g id="a_node6"><a xlink:title=" ">
<polygon fill="#ffffff" stroke="#bfbfbf" points="215,-386.5 215,-443.5 270,-443.5 270,-386.5 215,-386.5"/>
<text text-anchor="middle" x="242.5" y="-431.5" font-family="Helvetica,sans-Serif" font-size="10.00" fill="#000000">Printable</text>
<polyline fill="none" stroke="#bfbfbf" points="215,-424.5 270,-424.5 "/>
<text text-anchor="middle" x="242.5" y="-412.5" font-family="Helvetica,sans-Serif" font-size="10.00" fill="#000000"> </text>
<polyline fill="none" stroke="#bfbfbf" points="215,-405.5 270,-405.5 "/>
<text text-anchor="middle" x="242.5" y="-393.5" font-family="Helvetica,sans-Serif" font-size="10.00" fill="#000000"> </text>
</a>
</g>
</g>
<!-- Node6&#45;&gt;Node2 -->
<g id="edge5" class="edge">
<title>Node6&#45;&gt;Node2</title>
<path fill="none" stroke="#191970" d="M230.9543,-376.3426C225.7507,-358.9199 219.372,-337.5626 213.0884,-316.5236"/>
<polygon fill="none" stroke="#191970" points="227.6573,-377.5339 233.8727,-386.114 234.3645,-375.5306 227.6573,-377.5339"/>
</g>
</g>
</svg>
