<?xml version="1.0" encoding="UTF-8" standalone="no"?>
<!DOCTYPE svg PUBLIC "-//W3C//DTD SVG 1.1//EN"
 "http://www.w3.org/Graphics/SVG/1.1/DTD/svg11.dtd">
<!-- Generated by graphviz version 2.40.1 (20161225.0304)
 -->
<!-- Title: Selectable.hpp Pages: 1 -->
<svg width="1239pt" height="711pt"
 viewBox="0.00 0.00 1239.00 711.00" xmlns="http://www.w3.org/2000/svg" xmlns:xlink="http://www.w3.org/1999/xlink">
<g id="graph0" class="graph" transform="scale(1 1) rotate(0) translate(4 707)">
<title>Selectable.hpp</title>
<polygon fill="#ffffff" stroke="transparent" points="-4,4 -4,-707 1235,-707 1235,4 -4,4"/>
<!-- Node1 -->
<g id="node1" class="node">
<title>Node1</title>
<g id="a_node1"><a xlink:title=" ">
<polygon fill="#bfbfbf" stroke="#000000" points="759.5,-683.5 759.5,-702.5 840.5,-702.5 840.5,-683.5 759.5,-683.5"/>
<text text-anchor="middle" x="800" y="-690.5" font-family="Helvetica,sans-Serif" font-size="10.00" fill="#000000">Selectable.hpp</text>
</a>
</g>
</g>
<!-- Node2 -->
<g id="node2" class="node">
<title>Node2</title>
<g id="a_node2"><a xlink:href="../../d1/d93/Error_8hpp.html" target="_top" xlink:title=" ">
<polygon fill="#ffffff" stroke="#000000" points="515,-448.5 515,-467.5 613,-467.5 613,-448.5 515,-448.5"/>
<text text-anchor="middle" x="564" y="-455.5" font-family="Helvetica,sans-Serif" font-size="10.00" fill="#000000">AH/Error/Error.hpp</text>
</a>
</g>
</g>
<!-- Node1&#45;&gt;Node2 -->
<g id="edge1" class="edge">
<title>Node1&#45;&gt;Node2</title>
<path fill="none" stroke="#191970" d="M790.4562,-683.4967C754.5067,-647.6995 626.9675,-520.7007 580.8208,-474.7495"/>
<polygon fill="#191970" stroke="#191970" points="583.2183,-472.1975 573.6625,-467.6216 578.279,-477.1578 583.2183,-472.1975"/>
</g>
<!-- Node11 -->
<g id="node11" class="node">
<title>Node11</title>
<g id="a_node11"><a xlink:title=" ">
<polygon fill="#ffffff" stroke="#bfbfbf" points="431.5,-112.5 431.5,-131.5 532.5,-131.5 532.5,-112.5 431.5,-112.5"/>
<text text-anchor="middle" x="482" y="-119.5" font-family="Helvetica,sans-Serif" font-size="10.00" fill="#000000">AH/STL/type_traits</text>
</a>
</g>
</g>
<!-- Node1&#45;&gt;Node11 -->
<g id="edge32" class="edge">
<title>Node1&#45;&gt;Node11</title>
<path fill="none" stroke="#191970" d="M759.4647,-689.9685C617.6017,-678.8249 152,-637.5265 152,-575.5 152,-575.5 152,-575.5 152,-290 152,-157.695 399.9207,-195.7634 415,-188 437.086,-176.6294 456.5844,-155.4632 468.7703,-140.1605"/>
<polygon fill="#191970" stroke="#191970" points="471.7603,-142.0128 475.0644,-131.9464 466.204,-137.7552 471.7603,-142.0128"/>
</g>
<!-- Node18 -->
<g id="node18" class="node">
<title>Node18</title>
<g id="a_node18"><a xlink:title=" ">
<polygon fill="#ffffff" stroke="#bfbfbf" points="1130.5,-224.5 1130.5,-243.5 1179.5,-243.5 1179.5,-224.5 1130.5,-224.5"/>
<text text-anchor="middle" x="1155" y="-231.5" font-family="Helvetica,sans-Serif" font-size="10.00" fill="#000000">stdint.h</text>
</a>
</g>
</g>
<!-- Node1&#45;&gt;Node18 -->
<g id="edge51" class="edge">
<title>Node1&#45;&gt;Node18</title>
<path fill="none" stroke="#191970" d="M840.5474,-690.6102C947.8389,-683.1848 1231,-655.9656 1231,-575.5 1231,-575.5 1231,-575.5 1231,-346 1231,-306.2361 1197.7929,-270.1042 1175.2792,-250.177"/>
<polygon fill="#191970" stroke="#191970" points="1177.4317,-247.4128 1167.5499,-243.5918 1172.8921,-252.7412 1177.4317,-247.4128"/>
</g>
<!-- Node21 -->
<g id="node21" class="node">
<title>Node21</title>
<g id="a_node21"><a xlink:href="../../d0/d4e/Def_8hpp.html" target="_top" xlink:title=" ">
<polygon fill="#ffffff" stroke="#000000" points="900,-627.5 900,-646.5 970,-646.5 970,-627.5 900,-627.5"/>
<text text-anchor="middle" x="935" y="-634.5" font-family="Helvetica,sans-Serif" font-size="10.00" fill="#000000">Def/Def.hpp</text>
</a>
</g>
</g>
<!-- Node1&#45;&gt;Node21 -->
<g id="edge33" class="edge">
<title>Node1&#45;&gt;Node21</title>
<path fill="none" stroke="#191970" d="M823.2073,-683.3733C845.1699,-674.2629 878.3332,-660.5062 902.8401,-650.3404"/>
<polygon fill="#191970" stroke="#191970" points="904.1997,-653.5657 912.0955,-646.5011 901.5176,-647.0999 904.1997,-653.5657"/>
</g>
<!-- Node3 -->
<g id="node3" class="node">
<title>Node3</title>
<g id="a_node3"><a xlink:href="../../d1/d65/Warnings_8hpp.html" target="_top" xlink:title=" ">
<polygon fill="#ffffff" stroke="#000000" points="532.5,-.5 532.5,-19.5 665.5,-19.5 665.5,-.5 532.5,-.5"/>
<text text-anchor="middle" x="599" y="-7.5" font-family="Helvetica,sans-Serif" font-size="10.00" fill="#000000">AH/Settings/Warnings.hpp</text>
</a>
</g>
</g>
<!-- Node2&#45;&gt;Node3 -->
<g id="edge2" class="edge">
<title>Node2&#45;&gt;Node3</title>
<path fill="none" stroke="#191970" d="M573.7763,-448.3399C606.9248,-414.5051 713,-296.9412 713,-178 713,-178 713,-178 713,-122 713,-75.4628 664.0617,-41.828 630.3136,-24.1659"/>
<polygon fill="#191970" stroke="#191970" points="631.7576,-20.9746 621.251,-19.6105 628.6138,-27.2289 631.7576,-20.9746"/>
</g>
<!-- Node4 -->
<g id="node4" class="node">
<title>Node4</title>
<g id="a_node4"><a xlink:href="../../df/dee/Debug_8hpp.html" target="_top" xlink:title=" ">
<polygon fill="#ffffff" stroke="#000000" points="432.5,-392.5 432.5,-411.5 545.5,-411.5 545.5,-392.5 432.5,-392.5"/>
<text text-anchor="middle" x="489" y="-399.5" font-family="Helvetica,sans-Serif" font-size="10.00" fill="#000000">AH/Debug/Debug.hpp</text>
</a>
</g>
</g>
<!-- Node2&#45;&gt;Node4 -->
<g id="edge3" class="edge">
<title>Node2&#45;&gt;Node4</title>
<path fill="none" stroke="#191970" d="M550.936,-448.2455C539.6438,-439.814 523.1155,-427.4729 509.9729,-417.6598"/>
<polygon fill="#191970" stroke="#191970" points="512.0211,-414.8211 501.9143,-411.6427 507.8331,-420.4301 512.0211,-414.8211"/>
</g>
<!-- Node4&#45;&gt;Node3 -->
<g id="edge4" class="edge">
<title>Node4&#45;&gt;Node3</title>
<path fill="none" stroke="#191970" d="M496.7351,-392.4718C513.4718,-371.8755 554.3349,-321.698 589,-280 626.9068,-234.4026 675,-237.2963 675,-178 675,-178 675,-178 675,-122 675,-82.2361 641.7929,-46.1042 619.2792,-26.177"/>
<polygon fill="#191970" stroke="#191970" points="621.4317,-23.4128 611.5499,-19.5918 616.8921,-28.7412 621.4317,-23.4128"/>
</g>
<!-- Node5 -->
<g id="node5" class="node">
<title>Node5</title>
<g id="a_node5"><a xlink:href="../../dd/d80/PrintStream_8hpp.html" target="_top" xlink:title=" ">
<polygon fill="#ffffff" stroke="#000000" points="450.5,-224.5 450.5,-243.5 609.5,-243.5 609.5,-224.5 450.5,-224.5"/>
<text text-anchor="middle" x="530" y="-231.5" font-family="Helvetica,sans-Serif" font-size="10.00" fill="#000000">AH/PrintStream/PrintStream.hpp</text>
</a>
</g>
</g>
<!-- Node4&#45;&gt;Node5 -->
<g id="edge5" class="edge">
<title>Node4&#45;&gt;Node5</title>
<path fill="none" stroke="#191970" d="M493.6974,-392.3478C497.9833,-383.1872 504.2095,-368.9353 508,-356 518.3451,-320.6967 524.6834,-278.1476 527.7536,-253.7673"/>
<polygon fill="#191970" stroke="#191970" points="531.2509,-253.9982 528.9692,-243.652 524.3009,-253.1629 531.2509,-253.9982"/>
</g>
<!-- Node12 -->
<g id="node12" class="node">
<title>Node12</title>
<g id="a_node12"><a xlink:href="../../de/dd1/AH_2Settings_2SettingsWrapper_8hpp.html" target="_top" xlink:title=" ">
<polygon fill="#ffffff" stroke="#000000" points="229,-336.5 229,-355.5 393,-355.5 393,-336.5 229,-336.5"/>
<text text-anchor="middle" x="311" y="-343.5" font-family="Helvetica,sans-Serif" font-size="10.00" fill="#000000">AH/Settings/SettingsWrapper.hpp</text>
</a>
</g>
</g>
<!-- Node4&#45;&gt;Node12 -->
<g id="edge16" class="edge">
<title>Node4&#45;&gt;Node12</title>
<path fill="none" stroke="#191970" d="M453.1587,-392.3733C421.7383,-383.0613 376.5393,-368.8953 345.5202,-358.671"/>
<polygon fill="#191970" stroke="#191970" points="346.5762,-355.3338 335.9827,-355.5011 344.3684,-361.9765 346.5762,-355.3338"/>
</g>
<!-- Node20 -->
<g id="node20" class="node">
<title>Node20</title>
<g id="a_node20"><a xlink:href="../../d7/d52/DebugVal_8hpp.html" target="_top" xlink:title=" ">
<polygon fill="#ffffff" stroke="#000000" points="421,-336.5 421,-355.5 499,-355.5 499,-336.5 421,-336.5"/>
<text text-anchor="middle" x="460" y="-343.5" font-family="Helvetica,sans-Serif" font-size="10.00" fill="#000000">DebugVal.hpp</text>
</a>
</g>
</g>
<!-- Node4&#45;&gt;Node20 -->
<g id="edge31" class="edge">
<title>Node4&#45;&gt;Node20</title>
<path fill="none" stroke="#191970" d="M483.9486,-392.2455C479.9981,-384.617 474.3903,-373.7881 469.5942,-364.5267"/>
<polygon fill="#191970" stroke="#191970" points="472.7001,-362.9131 464.9935,-355.6427 466.4841,-366.1321 472.7001,-362.9131"/>
</g>
<!-- Node5&#45;&gt;Node3 -->
<g id="edge6" class="edge">
<title>Node5&#45;&gt;Node3</title>
<path fill="none" stroke="#191970" d="M543.396,-224.28C553.8386,-215.911 567.7453,-202.858 575,-188 600.6903,-135.3846 601.6056,-64.1896 600.2688,-29.9784"/>
<polygon fill="#191970" stroke="#191970" points="603.7586,-29.6863 599.7616,-19.8744 596.7674,-30.0373 603.7586,-29.6863"/>
</g>
<!-- Node6 -->
<g id="node6" class="node">
<title>Node6</title>
<g id="a_node6"><a xlink:href="../../d6/ddf/Arduino-Wrapper_8h.html" target="_top" xlink:title=" ">
<polygon fill="#ffffff" stroke="#000000" points="291.5,-168.5 291.5,-187.5 406.5,-187.5 406.5,-168.5 291.5,-168.5"/>
<text text-anchor="middle" x="349" y="-175.5" font-family="Helvetica,sans-Serif" font-size="10.00" fill="#000000">AH/Arduino&#45;Wrapper.h</text>
</a>
</g>
</g>
<!-- Node5&#45;&gt;Node6 -->
<g id="edge7" class="edge">
<title>Node5&#45;&gt;Node6</title>
<path fill="none" stroke="#191970" d="M498.885,-224.3733C468.6571,-215.021 422.604,-200.7725 389.5261,-190.5385"/>
<polygon fill="#191970" stroke="#191970" points="390.2967,-187.1133 379.709,-187.5011 388.2277,-193.8005 390.2967,-187.1133"/>
</g>
<!-- Node7 -->
<g id="node7" class="node">
<title>Node7</title>
<g id="a_node7"><a xlink:href="../../d7/d79/MinMaxFix_8hpp.html" target="_top" xlink:title=" ">
<polygon fill="#ffffff" stroke="#000000" points="288.5,-112.5 288.5,-131.5 413.5,-131.5 413.5,-112.5 288.5,-112.5"/>
<text text-anchor="middle" x="351" y="-119.5" font-family="Helvetica,sans-Serif" font-size="10.00" fill="#000000">AH/Math/MinMaxFix.hpp</text>
</a>
</g>
</g>
<!-- Node6&#45;&gt;Node7 -->
<g id="edge8" class="edge">
<title>Node6&#45;&gt;Node7</title>
<path fill="none" stroke="#191970" d="M349.3484,-168.2455C349.6093,-160.9382 349.9752,-150.6944 350.2963,-141.7046"/>
<polygon fill="#191970" stroke="#191970" points="353.7964,-141.7613 350.6556,-131.6427 346.8008,-141.5113 353.7964,-141.7613"/>
</g>
<!-- Node9 -->
<g id="node9" class="node">
<title>Node9</title>
<g id="a_node9"><a xlink:title=" ">
<polygon fill="#ffffff" stroke="#bfbfbf" points="199,-.5 199,-19.5 257,-19.5 257,-.5 199,-.5"/>
<text text-anchor="middle" x="228" y="-7.5" font-family="Helvetica,sans-Serif" font-size="10.00" fill="#000000">Arduino.h</text>
</a>
</g>
</g>
<!-- Node6&#45;&gt;Node9 -->
<g id="edge15" class="edge">
<title>Node6&#45;&gt;Node9</title>
<path fill="none" stroke="#191970" d="M291.4176,-175.8636C224.3335,-172.0226 119.5254,-161.366 95,-132 76.0768,-109.342 105.0696,-73.043 123,-56 141.3886,-38.5215 167.4996,-27.0438 189.0825,-19.9247"/>
<polygon fill="#191970" stroke="#191970" points="190.1262,-23.2656 198.6363,-16.9546 188.048,-16.5812 190.1262,-23.2656"/>
</g>
<!-- Node6&#45;&gt;Node11 -->
<g id="edge14" class="edge">
<title>Node6&#45;&gt;Node11</title>
<path fill="none" stroke="#191970" d="M371.8635,-168.3733C393.405,-159.3032 425.8838,-145.6279 449.9956,-135.4755"/>
<polygon fill="#191970" stroke="#191970" points="451.5767,-138.6075 459.4348,-131.5011 448.8603,-132.156 451.5767,-138.6075"/>
</g>
<!-- Node7&#45;&gt;Node3 -->
<g id="edge9" class="edge">
<title>Node7&#45;&gt;Node3</title>
<path fill="none" stroke="#191970" d="M395.9046,-112.4578C427.1546,-104.8782 469.2773,-92.7567 504,-76 532.2612,-62.3615 561.415,-40.7838 579.8432,-26.0396"/>
<polygon fill="#191970" stroke="#191970" points="582.1994,-28.6346 587.7454,-19.6073 577.7804,-23.2057 582.1994,-28.6346"/>
</g>
<!-- Node8 -->
<g id="node8" class="node">
<title>Node8</title>
<g id="a_node8"><a xlink:href="../../d6/d3b/FixArduinoMacros_8hpp.html" target="_top" xlink:title=" ">
<polygon fill="#ffffff" stroke="#000000" points="339,-56.5 339,-75.5 495,-75.5 495,-56.5 339,-56.5"/>
<text text-anchor="middle" x="417" y="-63.5" font-family="Helvetica,sans-Serif" font-size="10.00" fill="#000000">AH/Math/FixArduinoMacros.hpp</text>
</a>
</g>
</g>
<!-- Node7&#45;&gt;Node8 -->
<g id="edge10" class="edge">
<title>Node7&#45;&gt;Node8</title>
<path fill="none" stroke="#191970" d="M362.4963,-112.2455C372.2442,-103.9746 386.4259,-91.9416 397.8798,-82.2232"/>
<polygon fill="#191970" stroke="#191970" points="400.2747,-84.7813 405.6354,-75.6427 395.7459,-79.4437 400.2747,-84.7813"/>
</g>
<!-- Node10 -->
<g id="node10" class="node">
<title>Node10</title>
<g id="a_node10"><a xlink:href="../../d6/db0/AH_2Settings_2NamespaceSettings_8hpp.html" target="_top" xlink:title=" ">
<polygon fill="#ffffff" stroke="#000000" points="141,-56.5 141,-75.5 321,-75.5 321,-56.5 141,-56.5"/>
<text text-anchor="middle" x="231" y="-63.5" font-family="Helvetica,sans-Serif" font-size="10.00" fill="#000000">AH/Settings/NamespaceSettings.hpp</text>
</a>
</g>
</g>
<!-- Node7&#45;&gt;Node10 -->
<g id="edge13" class="edge">
<title>Node7&#45;&gt;Node10</title>
<path fill="none" stroke="#191970" d="M330.3713,-112.3733C311.1081,-103.3838 282.1514,-89.8706 260.4581,-79.7471"/>
<polygon fill="#191970" stroke="#191970" points="261.9015,-76.5584 251.3595,-75.5011 258.9413,-82.9017 261.9015,-76.5584"/>
</g>
<!-- Node8&#45;&gt;Node3 -->
<g id="edge11" class="edge">
<title>Node8&#45;&gt;Node3</title>
<path fill="none" stroke="#191970" d="M448.2869,-56.3733C478.6818,-47.021 524.9893,-32.7725 558.25,-22.5385"/>
<polygon fill="#191970" stroke="#191970" points="559.5929,-25.7873 568.1214,-19.5011 557.5342,-19.0968 559.5929,-25.7873"/>
</g>
<!-- Node8&#45;&gt;Node9 -->
<g id="edge12" class="edge">
<title>Node8&#45;&gt;Node9</title>
<path fill="none" stroke="#191970" d="M384.5097,-56.3733C351.9453,-46.7245 301.7918,-31.8642 267.0743,-21.5776"/>
<polygon fill="#191970" stroke="#191970" points="267.8585,-18.1596 257.2762,-18.6744 265.8698,-24.8712 267.8585,-18.1596"/>
</g>
<!-- Node12&#45;&gt;Node3 -->
<g id="edge17" class="edge">
<title>Node12&#45;&gt;Node3</title>
<path fill="none" stroke="#191970" d="M248.4386,-336.4902C157.6215,-320.8946 0,-286.2944 0,-234 0,-234 0,-234 0,-122 0,-59.9606 63.63,-74.0025 123,-56 195.5929,-33.988 407.0834,-19.9627 522.1914,-13.7377"/>
<polygon fill="#191970" stroke="#191970" points="522.5448,-17.2239 532.3438,-13.1954 522.1714,-10.2339 522.5448,-17.2239"/>
</g>
<!-- Node12&#45;&gt;Node4 -->
<g id="edge30" class="edge">
<title>Node12&#45;&gt;Node4</title>
<path fill="none" stroke="#191970" d="M346.4173,-355.5011C377.7129,-364.7691 422.9131,-378.9309 454.0595,-389.1905"/>
<polygon fill="#191970" stroke="#191970" points="453.0493,-392.5429 463.6427,-392.3733 455.2556,-385.8997 453.0493,-392.5429"/>
</g>
<!-- Node12&#45;&gt;Node10 -->
<g id="edge18" class="edge">
<title>Node12&#45;&gt;Node10</title>
<path fill="none" stroke="#191970" d="M278.1044,-336.3609C256.7445,-328.9219 229.2212,-317.0021 209,-300 139.9347,-241.9293 121.5022,-218.2546 95,-132 86.2681,-103.581 111.8943,-87.3896 143.1811,-78.169"/>
<polygon fill="#191970" stroke="#191970" points="144.2883,-81.4958 153.0407,-75.5254 142.4754,-74.7346 144.2883,-81.4958"/>
</g>
<!-- Node13 -->
<g id="node13" class="node">
<title>Node13</title>
<g id="a_node13"><a xlink:href="../../d5/d4f/AH_2Settings_2Settings_8hpp.html" target="_top" xlink:title="All user settings and debugging options can be changed here.">
<polygon fill="#ffffff" stroke="#000000" points="404.5,-280.5 404.5,-299.5 475.5,-299.5 475.5,-280.5 404.5,-280.5"/>
<text text-anchor="middle" x="440" y="-287.5" font-family="Helvetica,sans-Serif" font-size="10.00" fill="#000000">Settings.hpp</text>
</a>
</g>
</g>
<!-- Node12&#45;&gt;Node13 -->
<g id="edge19" class="edge">
<title>Node12&#45;&gt;Node13</title>
<path fill="none" stroke="#191970" d="M333.1759,-336.3733C353.9766,-327.3435 385.2917,-313.7494 408.6458,-303.6111"/>
<polygon fill="#191970" stroke="#191970" points="410.3343,-306.6938 418.1135,-299.5011 407.5468,-300.2727 410.3343,-306.6938"/>
</g>
<!-- Node19 -->
<g id="node19" class="node">
<title>Node19</title>
<g id="a_node19"><a xlink:href="../../d9/d98/TeensyUSBTypes_8hpp.html" target="_top" xlink:title=" ">
<polygon fill="#ffffff" stroke="#000000" points="218,-280.5 218,-299.5 386,-299.5 386,-280.5 218,-280.5"/>
<text text-anchor="middle" x="302" y="-287.5" font-family="Helvetica,sans-Serif" font-size="10.00" fill="#000000">AH/Teensy/TeensyUSBTypes.hpp</text>
</a>
</g>
</g>
<!-- Node12&#45;&gt;Node19 -->
<g id="edge29" class="edge">
<title>Node12&#45;&gt;Node19</title>
<path fill="none" stroke="#191970" d="M309.4323,-336.2455C308.2579,-328.9382 306.6116,-318.6944 305.1668,-309.7046"/>
<polygon fill="#191970" stroke="#191970" points="308.5922,-308.9606 303.5497,-299.6427 301.6809,-310.0714 308.5922,-308.9606"/>
</g>
<!-- Node14 -->
<g id="node14" class="node">
<title>Node14</title>
<g id="a_node14"><a xlink:href="../../dc/d50/Frequency_8hpp.html" target="_top" xlink:title=" ">
<polygon fill="#ffffff" stroke="#000000" points="104,-112.5 104,-131.5 232,-131.5 232,-112.5 104,-112.5"/>
<text text-anchor="middle" x="168" y="-119.5" font-family="Helvetica,sans-Serif" font-size="10.00" fill="#000000">AH/Types/Frequency.hpp</text>
</a>
</g>
</g>
<!-- Node13&#45;&gt;Node14 -->
<g id="edge20" class="edge">
<title>Node13&#45;&gt;Node14</title>
<path fill="none" stroke="#191970" d="M404.1577,-281.9419C401.0626,-281.2743 397.9775,-280.6189 395,-280 312.561,-262.8655 272.3644,-299.4502 209,-244 179.132,-217.8625 170.9733,-169.2621 168.7771,-141.9537"/>
<polygon fill="#191970" stroke="#191970" points="172.2532,-141.4514 168.1551,-131.6812 165.266,-141.8745 172.2532,-141.4514"/>
</g>
<!-- Node15 -->
<g id="node15" class="node">
<title>Node15</title>
<g id="a_node15"><a xlink:href="../../d7/d7c/ADCConfig_8hpp.html" target="_top" xlink:title="This file contains the platform&#45;specific ADC resolutions. By default, the library automatically selec...">
<polygon fill="#ffffff" stroke="#000000" points="284,-224.5 284,-243.5 432,-243.5 432,-224.5 284,-224.5"/>
<text text-anchor="middle" x="358" y="-231.5" font-family="Helvetica,sans-Serif" font-size="10.00" fill="#000000">AH/Hardware/ADCConfig.hpp</text>
</a>
</g>
</g>
<!-- Node13&#45;&gt;Node15 -->
<g id="edge23" class="edge">
<title>Node13&#45;&gt;Node15</title>
<path fill="none" stroke="#191970" d="M425.7167,-280.2455C413.253,-271.7337 394.9549,-259.2375 380.5208,-249.3801"/>
<polygon fill="#191970" stroke="#191970" points="382.3515,-246.392 372.1196,-243.6427 378.4038,-252.1726 382.3515,-246.392"/>
</g>
<!-- Node16 -->
<g id="node16" class="node">
<title>Node16</title>
<g id="a_node16"><a xlink:title=" ">
<polygon fill="#ffffff" stroke="#bfbfbf" points="218,-224.5 218,-243.5 266,-243.5 266,-224.5 218,-224.5"/>
<text text-anchor="middle" x="242" y="-231.5" font-family="Helvetica,sans-Serif" font-size="10.00" fill="#000000">limits.h</text>
</a>
</g>
</g>
<!-- Node13&#45;&gt;Node16 -->
<g id="edge26" class="edge">
<title>Node13&#45;&gt;Node16</title>
<path fill="none" stroke="#191970" d="M404.851,-280.4456C373.4275,-271.8495 325.8835,-258.7109 275.8361,-244.2021"/>
<polygon fill="#191970" stroke="#191970" points="276.7116,-240.8118 266.132,-241.3806 274.7572,-247.5334 276.7116,-240.8118"/>
</g>
<!-- Node17 -->
<g id="node17" class="node">
<title>Node17</title>
<g id="a_node17"><a xlink:title=" ">
<polygon fill="#ffffff" stroke="#bfbfbf" points="741,-224.5 741,-243.5 793,-243.5 793,-224.5 741,-224.5"/>
<text text-anchor="middle" x="767" y="-231.5" font-family="Helvetica,sans-Serif" font-size="10.00" fill="#000000">stddef.h</text>
</a>
</g>
</g>
<!-- Node13&#45;&gt;Node17 -->
<g id="edge27" class="edge">
<title>Node13&#45;&gt;Node17</title>
<path fill="none" stroke="#191970" d="M475.6172,-283.9004C538.3375,-273.1593 667.8086,-250.9869 730.8822,-240.1853"/>
<polygon fill="#191970" stroke="#191970" points="731.5101,-243.6288 740.7758,-238.491 730.3285,-236.7293 731.5101,-243.6288"/>
</g>
<!-- Node13&#45;&gt;Node18 -->
<g id="edge28" class="edge">
<title>Node13&#45;&gt;Node18</title>
<path fill="none" stroke="#191970" d="M475.947,-287.1846C598.5465,-277.5824 999.3313,-246.1922 1120.1913,-236.7263"/>
<polygon fill="#191970" stroke="#191970" points="1120.6579,-240.2005 1130.3541,-235.9303 1120.1113,-233.2219 1120.6579,-240.2005"/>
</g>
<!-- Node14&#45;&gt;Node3 -->
<g id="edge21" class="edge">
<title>Node14&#45;&gt;Node3</title>
<path fill="none" stroke="#191970" d="M155.9302,-112.3773C140.1623,-98.6815 116.3103,-73.311 132,-56 157.6429,-27.7072 396.1906,-16.1835 522.052,-12.0415"/>
<polygon fill="#191970" stroke="#191970" points="522.5099,-15.5287 532.3924,-11.7095 522.2852,-8.5323 522.5099,-15.5287"/>
</g>
<!-- Node14&#45;&gt;Node10 -->
<g id="edge22" class="edge">
<title>Node14&#45;&gt;Node10</title>
<path fill="none" stroke="#191970" d="M178.9738,-112.2455C188.1882,-104.0549 201.5532,-92.1749 212.4297,-82.5069"/>
<polygon fill="#191970" stroke="#191970" points="215.0032,-84.9023 220.152,-75.6427 210.3526,-79.6704 215.0032,-84.9023"/>
</g>
<!-- Node15&#45;&gt;Node3 -->
<g id="edge24" class="edge">
<title>Node15&#45;&gt;Node3</title>
<path fill="none" stroke="#191970" d="M387.5439,-224.3913C427.3062,-210.0937 498.0025,-179.6714 541,-132 568.6257,-101.3714 585.6682,-55.245 593.6301,-29.3714"/>
<polygon fill="#191970" stroke="#191970" points="597.0322,-30.2079 596.4908,-19.6269 590.3156,-28.2361 597.0322,-30.2079"/>
</g>
<!-- Node15&#45;&gt;Node6 -->
<g id="edge25" class="edge">
<title>Node15&#45;&gt;Node6</title>
<path fill="none" stroke="#191970" d="M356.4323,-224.2455C355.2579,-216.9382 353.6116,-206.6944 352.1668,-197.7046"/>
<polygon fill="#191970" stroke="#191970" points="355.5922,-196.9606 350.5497,-187.6427 348.6809,-198.0714 355.5922,-196.9606"/>
</g>
<!-- Node21&#45;&gt;Node17 -->
<g id="edge49" class="edge">
<title>Node21&#45;&gt;Node17</title>
<path fill="none" stroke="#191970" d="M935,-627.4309C935,-606.738 935,-556.2813 935,-514 935,-514 935,-514 935,-458 935,-362.7526 836.5843,-282.0853 790.4039,-249.4761"/>
<polygon fill="#191970" stroke="#191970" points="792.1253,-246.4113 781.9089,-243.605 788.1454,-252.1699 792.1253,-246.4113"/>
</g>
<!-- Node21&#45;&gt;Node18 -->
<g id="edge50" class="edge">
<title>Node21&#45;&gt;Node18</title>
<path fill="none" stroke="#191970" d="M970.2463,-630.1354C1002.3342,-623.0472 1050.4434,-610.2853 1089,-591 1140.4368,-565.2723 1193,-571.5122 1193,-514 1193,-514 1193,-514 1193,-346 1193,-311.6118 1176.7366,-274.2832 1165.489,-252.5791"/>
<polygon fill="#191970" stroke="#191970" points="1168.431,-250.6605 1160.607,-243.5166 1162.2683,-253.9804 1168.431,-250.6605"/>
</g>
<!-- Node22 -->
<g id="node22" class="node">
<title>Node22</title>
<g id="a_node22"><a xlink:href="../../d7/d42/Channel_8hpp.html" target="_top" xlink:title=" ">
<polygon fill="#ffffff" stroke="#000000" points="1009.5,-566 1009.5,-585 1080.5,-585 1080.5,-566 1009.5,-566"/>
<text text-anchor="middle" x="1045" y="-573" font-family="Helvetica,sans-Serif" font-size="10.00" fill="#000000">Channel.hpp</text>
</a>
</g>
</g>
<!-- Node21&#45;&gt;Node22 -->
<g id="edge34" class="edge">
<title>Node21&#45;&gt;Node22</title>
<path fill="none" stroke="#191970" d="M952.1875,-627.3906C970.1082,-617.3713 998.4095,-601.5483 1019.0523,-590.0071"/>
<polygon fill="#191970" stroke="#191970" points="1020.9128,-592.9769 1027.9332,-585.0419 1017.4967,-586.867 1020.9128,-592.9769"/>
</g>
<!-- Node23 -->
<g id="node23" class="node">
<title>Node23</title>
<g id="a_node23"><a xlink:title=" ">
<polygon fill="#ffffff" stroke="#bfbfbf" points="963.5,-504.5 963.5,-523.5 1126.5,-523.5 1126.5,-504.5 963.5,-504.5"/>
<text text-anchor="middle" x="1045" y="-511.5" font-family="Helvetica,sans-Serif" font-size="10.00" fill="#000000">Settings/NamespaceSettings.hpp</text>
</a>
</g>
</g>
<!-- Node21&#45;&gt;Node23 -->
<g id="edge48" class="edge">
<title>Node21&#45;&gt;Node23</title>
<path fill="none" stroke="#191970" d="M942.7853,-627.3239C954.7657,-612.5393 978.5839,-583.5608 1000,-560 1008.9752,-550.126 1019.3708,-539.4526 1027.9078,-530.875"/>
<polygon fill="#191970" stroke="#191970" points="1030.5229,-533.21 1035.1313,-523.6699 1025.5795,-528.2539 1030.5229,-533.21"/>
</g>
<!-- Node24 -->
<g id="node24" class="node">
<title>Node24</title>
<g id="a_node24"><a xlink:href="../../de/d76/Array_8hpp.html" target="_top" xlink:title=" ">
<polygon fill="#ffffff" stroke="#000000" points="694,-504.5 694,-523.5 820,-523.5 820,-504.5 694,-504.5"/>
<text text-anchor="middle" x="757" y="-511.5" font-family="Helvetica,sans-Serif" font-size="10.00" fill="#000000">AH/Containers/Array.hpp</text>
</a>
</g>
</g>
<!-- Node21&#45;&gt;Node24 -->
<g id="edge37" class="edge">
<title>Node21&#45;&gt;Node24</title>
<path fill="none" stroke="#191970" d="M899.6843,-631.0127C858.2486,-623.288 793.025,-608.7146 776,-591 761.3643,-575.7714 757.4463,-551.1458 756.6567,-533.8528"/>
<polygon fill="#191970" stroke="#191970" points="760.1545,-533.6678 756.5084,-523.7201 753.1552,-533.7703 760.1545,-533.6678"/>
</g>
<!-- Node26 -->
<g id="node26" class="node">
<title>Node26</title>
<g id="a_node26"><a xlink:href="../../d4/d35/Hardware-Types_8hpp.html" target="_top" xlink:title=" ">
<polygon fill="#ffffff" stroke="#000000" points="785.5,-560.5 785.5,-590.5 906.5,-590.5 906.5,-560.5 785.5,-560.5"/>
<text text-anchor="start" x="793.5" y="-578.5" font-family="Helvetica,sans-Serif" font-size="10.00" fill="#000000">AH/Hardware/Hardware</text>
<text text-anchor="middle" x="846" y="-567.5" font-family="Helvetica,sans-Serif" font-size="10.00" fill="#000000">&#45;Types.hpp</text>
</a>
</g>
</g>
<!-- Node21&#45;&gt;Node26 -->
<g id="edge43" class="edge">
<title>Node21&#45;&gt;Node26</title>
<path fill="none" stroke="#191970" d="M921.0938,-627.3906C909.1602,-619.1444 891.5374,-606.9669 876.3623,-596.4807"/>
<polygon fill="#191970" stroke="#191970" points="877.9885,-593.3501 867.7718,-590.5446 874.0091,-599.1089 877.9885,-593.3501"/>
</g>
<!-- Node22&#45;&gt;Node18 -->
<g id="edge35" class="edge">
<title>Node22&#45;&gt;Node18</title>
<path fill="none" stroke="#191970" d="M1073.1713,-565.853C1093.1237,-557.6535 1119.0727,-543.995 1135,-524 1154.097,-500.0258 1155,-488.6506 1155,-458 1155,-458 1155,-458 1155,-346 1155,-313.7116 1155,-276.1872 1155,-253.8048"/>
<polygon fill="#191970" stroke="#191970" points="1158.5001,-253.5883 1155,-243.5884 1151.5001,-253.5884 1158.5001,-253.5883"/>
</g>
<!-- Node22&#45;&gt;Node23 -->
<g id="edge36" class="edge">
<title>Node22&#45;&gt;Node23</title>
<path fill="none" stroke="#191970" d="M1045,-565.8906C1045,-557.3657 1045,-544.6392 1045,-533.9235"/>
<polygon fill="#191970" stroke="#191970" points="1048.5001,-533.7448 1045,-523.7449 1041.5001,-533.7449 1048.5001,-533.7448"/>
</g>
<!-- Node24&#45;&gt;Node2 -->
<g id="edge39" class="edge">
<title>Node24&#45;&gt;Node2</title>
<path fill="none" stroke="#191970" d="M723.8221,-504.3733C691.4513,-494.9807 642.0602,-480.6496 606.7576,-470.4064"/>
<polygon fill="#191970" stroke="#191970" points="607.3242,-466.9264 596.7449,-467.5011 605.3735,-473.6492 607.3242,-466.9264"/>
</g>
<!-- Node24&#45;&gt;Node3 -->
<g id="edge38" class="edge">
<title>Node24&#45;&gt;Node3</title>
<path fill="none" stroke="#191970" d="M767.2827,-504.2781C785.374,-486.067 821,-444.7748 821,-402 821,-402 821,-402 821,-122 821,-55.2081 739.9075,-28.2407 675.7447,-17.357"/>
<polygon fill="#191970" stroke="#191970" points="676.033,-13.859 665.6073,-15.7447 674.9334,-20.7721 676.033,-13.859"/>
</g>
<!-- Node24&#45;&gt;Node11 -->
<g id="edge41" class="edge">
<title>Node24&#45;&gt;Node11</title>
<path fill="none" stroke="#191970" d="M719.6046,-504.4732C699.3159,-497.5026 675.3236,-486.0407 660,-468 640.239,-444.7351 641,-432.5246 641,-402 641,-402 641,-402 641,-346 641,-290.8226 647.1605,-270.8424 618,-224 592.4856,-183.0146 544.0498,-152.7609 512.4024,-136.2583"/>
<polygon fill="#191970" stroke="#191970" points="513.6665,-132.9753 503.1637,-131.5816 510.505,-139.2207 513.6665,-132.9753"/>
</g>
<!-- Node24&#45;&gt;Node17 -->
<g id="edge42" class="edge">
<title>Node24&#45;&gt;Node17</title>
<path fill="none" stroke="#191970" d="M760.8364,-504.2883C768.0687,-485.0769 783,-440.7253 783,-402 783,-402 783,-402 783,-346 783,-313.2342 776.2061,-275.6134 771.4725,-253.3778"/>
<polygon fill="#191970" stroke="#191970" points="774.8698,-252.5307 769.2924,-243.5228 768.0351,-254.0428 774.8698,-252.5307"/>
</g>
<!-- Node25 -->
<g id="node25" class="node">
<title>Node25</title>
<g id="a_node25"><a xlink:title=" ">
<polygon fill="#ffffff" stroke="#bfbfbf" points="669.5,-448.5 669.5,-467.5 754.5,-467.5 754.5,-448.5 669.5,-448.5"/>
<text text-anchor="middle" x="712" y="-455.5" font-family="Helvetica,sans-Serif" font-size="10.00" fill="#000000">AH/STL/iterator</text>
</a>
</g>
</g>
<!-- Node24&#45;&gt;Node25 -->
<g id="edge40" class="edge">
<title>Node24&#45;&gt;Node25</title>
<path fill="none" stroke="#191970" d="M749.1616,-504.2455C742.838,-496.3761 733.7776,-485.101 726.1864,-475.6542"/>
<polygon fill="#191970" stroke="#191970" points="728.7408,-473.2454 719.7486,-467.6427 723.2842,-477.6302 728.7408,-473.2454"/>
</g>
<!-- Node26&#45;&gt;Node3 -->
<g id="edge44" class="edge">
<title>Node26&#45;&gt;Node3</title>
<path fill="none" stroke="#191970" d="M848.757,-560.3491C852.573,-538.025 859,-494.9428 859,-458 859,-458 859,-458 859,-402 859,-325.4471 897,-310.5529 897,-234 897,-234 897,-234 897,-122 897,-72.3971 852.186,-76.4613 807,-56 765.6923,-37.2949 716.2403,-25.9554 675.9208,-19.2167"/>
<polygon fill="#191970" stroke="#191970" points="676.3063,-15.7338 665.8773,-17.601 675.1944,-22.645 676.3063,-15.7338"/>
</g>
<!-- Node26&#45;&gt;Node10 -->
<g id="edge46" class="edge">
<title>Node26&#45;&gt;Node10</title>
<path fill="none" stroke="#191970" d="M785.4746,-572.1407C610.0967,-561.6064 114,-525.8142 114,-458 114,-458 114,-458 114,-290 114,-258.7875 120.4984,-249.8441 138,-224 172.4172,-173.1772 215.9227,-188.0235 241,-132 247.5755,-117.3101 244.074,-99.1354 239.4936,-85.5797"/>
<polygon fill="#191970" stroke="#191970" points="242.6115,-83.9354 235.7607,-75.8535 236.0762,-86.4436 242.6115,-83.9354"/>
</g>
<!-- Node26&#45;&gt;Node18 -->
<g id="edge47" class="edge">
<title>Node26&#45;&gt;Node18</title>
<path fill="none" stroke="#191970" d="M859.676,-560.3855C910.1056,-504.6519 1085.4987,-310.8114 1139.2312,-251.4274"/>
<polygon fill="#191970" stroke="#191970" points="1142.1326,-253.4373 1146.2468,-243.6739 1136.942,-248.7407 1142.1326,-253.4373"/>
</g>
<!-- Node26&#45;&gt;Node24 -->
<g id="edge45" class="edge">
<title>Node26&#45;&gt;Node24</title>
<path fill="none" stroke="#191970" d="M824,-560.2977C810.4032,-550.9022 793.0034,-538.8787 779.3433,-529.4395"/>
<polygon fill="#191970" stroke="#191970" points="781.2009,-526.4688 770.9842,-523.6633 777.2215,-532.2276 781.2009,-526.4688"/>
</g>
</g>
</svg>
