<?xml version="1.0" encoding="UTF-8" standalone="no"?>
<!DOCTYPE svg PUBLIC "-//W3C//DTD SVG 1.1//EN"
 "http://www.w3.org/Graphics/SVG/1.1/DTD/svg11.dtd">
<!-- Generated by graphviz version 2.40.1 (20161225.0304)
 -->
<!-- Title: SwitchSelectorLED Pages: 1 -->
<svg width="371pt" height="1219pt"
 viewBox="0.00 0.00 371.00 1219.00" xmlns="http://www.w3.org/2000/svg" xmlns:xlink="http://www.w3.org/1999/xlink">
<g id="graph0" class="graph" transform="scale(1 1) rotate(0) translate(4 1215)">
<title>SwitchSelectorLED</title>
<polygon fill="#ffffff" stroke="transparent" points="-4,4 -4,-1215 367,-1215 367,4 -4,4"/>
<!-- Node1 -->
<g id="node1" class="node">
<title>Node1</title>
<g id="a_node1"><a xlink:title="Selector that selects one of two settings, based on the state of a toggle or momentary switch....">
<polygon fill="#bfbfbf" stroke="#000000" points="166,-.5 166,-57.5 283,-57.5 283,-.5 166,-.5"/>
<text text-anchor="middle" x="224.5" y="-45.5" font-family="Helvetica,sans-Serif" font-size="10.00" fill="#000000">SwitchSelectorLED</text>
<polyline fill="none" stroke="#000000" points="166,-38.5 283,-38.5 "/>
<text text-anchor="middle" x="224.5" y="-26.5" font-family="Helvetica,sans-Serif" font-size="10.00" fill="#000000"> </text>
<polyline fill="none" stroke="#000000" points="166,-19.5 283,-19.5 "/>
<text text-anchor="start" x="174" y="-7.5" font-family="Helvetica,sans-Serif" font-size="10.00" fill="#000000">+ SwitchSelectorLED()</text>
</a>
</g>
</g>
<!-- Node2 -->
<g id="node2" class="node">
<title>Node2</title>
<g id="a_node2"><a xlink:href="../../d2/d1c/classGenericSwitchSelector.html" target="_top" xlink:title=" ">
<polygon fill="#ffffff" stroke="#000000" points="147,-95.5 147,-207.5 302,-207.5 302,-95.5 147,-95.5"/>
<text text-anchor="start" x="155" y="-195.5" font-family="Helvetica,sans-Serif" font-size="10.00" fill="#000000">GenericSwitchSelector</text>
<text text-anchor="middle" x="224.5" y="-184.5" font-family="Helvetica,sans-Serif" font-size="10.00" fill="#000000">&lt; SelectorSingleLEDCallback &gt;</text>
<polyline fill="none" stroke="#000000" points="147,-177.5 302,-177.5 "/>
<text text-anchor="middle" x="224.5" y="-165.5" font-family="Helvetica,sans-Serif" font-size="10.00" fill="#000000"> </text>
<polyline fill="none" stroke="#000000" points="147,-158.5 302,-158.5 "/>
<text text-anchor="start" x="155" y="-146.5" font-family="Helvetica,sans-Serif" font-size="10.00" fill="#000000">+ GenericSwitchSelector()</text>
<text text-anchor="start" x="155" y="-135.5" font-family="Helvetica,sans-Serif" font-size="10.00" fill="#000000">+ begin()</text>
<text text-anchor="start" x="155" y="-124.5" font-family="Helvetica,sans-Serif" font-size="10.00" fill="#000000">+ update()</text>
<text text-anchor="start" x="155" y="-113.5" font-family="Helvetica,sans-Serif" font-size="10.00" fill="#000000">+ getButtonState()</text>
<text text-anchor="start" x="155" y="-102.5" font-family="Helvetica,sans-Serif" font-size="10.00" fill="#000000">+ invert()</text>
</a>
</g>
</g>
<!-- Node2&#45;&gt;Node1 -->
<g id="edge1" class="edge">
<title>Node2&#45;&gt;Node1</title>
<path fill="none" stroke="#191970" d="M224.5,-85.1308C224.5,-75.4223 224.5,-65.8865 224.5,-57.5083"/>
<polygon fill="none" stroke="#191970" points="221.0001,-85.2694 224.5,-95.2694 228.0001,-85.2694 221.0001,-85.2694"/>
</g>
<!-- Node3 -->
<g id="node3" class="node">
<title>Node3</title>
<g id="a_node3"><a xlink:href="../../d0/d04/classGenericSelector.html" target="_top" xlink:title=" ">
<polygon fill="#ffffff" stroke="#000000" points="73,-305 73,-439 222,-439 222,-305 73,-305"/>
<text text-anchor="start" x="81" y="-427" font-family="Helvetica,sans-Serif" font-size="10.00" fill="#000000">GenericSelector&lt; 2,</text>
<text text-anchor="middle" x="147.5" y="-416" font-family="Helvetica,sans-Serif" font-size="10.00" fill="#000000"> SelectorSingleLEDCallback &gt;</text>
<polyline fill="none" stroke="#000000" points="73,-409 222,-409 "/>
<text text-anchor="start" x="81" y="-397" font-family="Helvetica,sans-Serif" font-size="10.00" fill="#000000">&#45; selectable</text>
<polyline fill="none" stroke="#000000" points="73,-390 222,-390 "/>
<text text-anchor="start" x="81" y="-378" font-family="Helvetica,sans-Serif" font-size="10.00" fill="#000000">+ GenericSelector()</text>
<text text-anchor="start" x="81" y="-367" font-family="Helvetica,sans-Serif" font-size="10.00" fill="#000000">+ begin()</text>
<text text-anchor="start" x="81" y="-356" font-family="Helvetica,sans-Serif" font-size="10.00" fill="#000000">+ update()</text>
<text text-anchor="start" x="81" y="-345" font-family="Helvetica,sans-Serif" font-size="10.00" fill="#000000">+ reset()</text>
<text text-anchor="start" x="81" y="-334" font-family="Helvetica,sans-Serif" font-size="10.00" fill="#000000">+ set()</text>
<text text-anchor="start" x="81" y="-323" font-family="Helvetica,sans-Serif" font-size="10.00" fill="#000000">+ increment()</text>
<text text-anchor="start" x="81" y="-312" font-family="Helvetica,sans-Serif" font-size="10.00" fill="#000000">+ decrement()</text>
</a>
</g>
</g>
<!-- Node3&#45;&gt;Node2 -->
<g id="edge2" class="edge">
<title>Node3&#45;&gt;Node2</title>
<path fill="none" stroke="#191970" d="M174.2732,-295.3314C184.3185,-266.5653 195.5412,-234.4274 204.8262,-207.8387"/>
<polygon fill="none" stroke="#191970" points="170.9087,-294.3498 170.9162,-304.9446 177.5174,-296.6576 170.9087,-294.3498"/>
</g>
<!-- Node4 -->
<g id="node4" class="node">
<title>Node4</title>
<g id="a_node4"><a xlink:href="../../dc/d77/classSelectorBase.html" target="_top" xlink:title="Base class for all Selectors exposing the get method, so it can be used by display elements etc,...">
<polygon fill="#ffffff" stroke="#000000" points="4,-547.5 4,-615.5 93,-615.5 93,-547.5 4,-547.5"/>
<text text-anchor="middle" x="48.5" y="-603.5" font-family="Helvetica,sans-Serif" font-size="10.00" fill="#000000">SelectorBase</text>
<polyline fill="none" stroke="#000000" points="4,-596.5 93,-596.5 "/>
<text text-anchor="start" x="12" y="-584.5" font-family="Helvetica,sans-Serif" font-size="10.00" fill="#000000"># setting</text>
<polyline fill="none" stroke="#000000" points="4,-577.5 93,-577.5 "/>
<text text-anchor="start" x="12" y="-565.5" font-family="Helvetica,sans-Serif" font-size="10.00" fill="#000000">+ get()</text>
<text text-anchor="start" x="12" y="-554.5" font-family="Helvetica,sans-Serif" font-size="10.00" fill="#000000"># SelectorBase()</text>
</a>
</g>
</g>
<!-- Node4&#45;&gt;Node3 -->
<g id="edge3" class="edge">
<title>Node4&#45;&gt;Node3</title>
<path fill="none" stroke="#191970" d="M69.0238,-538.0684C82.5219,-509.5041 100.4569,-471.5509 115.7737,-439.138"/>
<polygon fill="none" stroke="#191970" points="65.7345,-536.8372 64.6264,-547.3739 72.0634,-539.828 65.7345,-536.8372"/>
</g>
<!-- Node5 -->
<g id="node5" class="node">
<title>Node5</title>
<g id="a_node5"><a xlink:href="../../d1/d55/classAH_1_1Updatable.html" target="_top" xlink:title=" ">
<polygon fill="#ffffff" stroke="#000000" points="111,-536.5 111,-626.5 184,-626.5 184,-536.5 111,-536.5"/>
<text text-anchor="middle" x="147.5" y="-614.5" font-family="Helvetica,sans-Serif" font-size="10.00" fill="#000000">Updatable&lt;&gt;</text>
<polyline fill="none" stroke="#000000" points="111,-607.5 184,-607.5 "/>
<text text-anchor="middle" x="147.5" y="-595.5" font-family="Helvetica,sans-Serif" font-size="10.00" fill="#000000"> </text>
<polyline fill="none" stroke="#000000" points="111,-588.5 184,-588.5 "/>
<text text-anchor="start" x="119" y="-576.5" font-family="Helvetica,sans-Serif" font-size="10.00" fill="#000000">* begin()</text>
<text text-anchor="start" x="119" y="-565.5" font-family="Helvetica,sans-Serif" font-size="10.00" fill="#000000">* update()</text>
<text text-anchor="start" x="119" y="-554.5" font-family="Helvetica,sans-Serif" font-size="10.00" fill="#000000">* beginAll()</text>
<text text-anchor="start" x="119" y="-543.5" font-family="Helvetica,sans-Serif" font-size="10.00" fill="#000000">* updateAll()</text>
</a>
</g>
</g>
<!-- Node5&#45;&gt;Node3 -->
<g id="edge4" class="edge">
<title>Node5&#45;&gt;Node3</title>
<path fill="none" stroke="#191970" d="M147.5,-525.9821C147.5,-499.2839 147.5,-467.0624 147.5,-439.0096"/>
<polygon fill="none" stroke="#191970" points="144.0001,-526.2995 147.5,-536.2995 151.0001,-526.2996 144.0001,-526.2995"/>
</g>
<!-- Node6 -->
<g id="node6" class="node">
<title>Node6</title>
<g id="a_node6"><a xlink:href="../../d8/d1a/classAH_1_1UpdatableCRTP.html" target="_top" xlink:title=" ">
<polygon fill="#ffffff" stroke="#000000" points="76.5,-674.5 76.5,-863.5 218.5,-863.5 218.5,-674.5 76.5,-674.5"/>
<text text-anchor="start" x="84.5" y="-851.5" font-family="Helvetica,sans-Serif" font-size="10.00" fill="#000000">UpdatableCRTP&lt; Updatable</text>
<text text-anchor="middle" x="147.5" y="-840.5" font-family="Helvetica,sans-Serif" font-size="10.00" fill="#000000">&lt; NormalUpdatable &gt; &gt;</text>
<polyline fill="none" stroke="#000000" points="76.5,-833.5 218.5,-833.5 "/>
<text text-anchor="middle" x="147.5" y="-821.5" font-family="Helvetica,sans-Serif" font-size="10.00" fill="#000000"> </text>
<polyline fill="none" stroke="#000000" points="76.5,-814.5 218.5,-814.5 "/>
<text text-anchor="start" x="84.5" y="-802.5" font-family="Helvetica,sans-Serif" font-size="10.00" fill="#000000">+ ~UpdatableCRTP()</text>
<text text-anchor="start" x="84.5" y="-791.5" font-family="Helvetica,sans-Serif" font-size="10.00" fill="#000000"># UpdatableCRTP()</text>
<text text-anchor="start" x="84.5" y="-780.5" font-family="Helvetica,sans-Serif" font-size="10.00" fill="#000000">* enable()</text>
<text text-anchor="start" x="84.5" y="-769.5" font-family="Helvetica,sans-Serif" font-size="10.00" fill="#000000">* disable()</text>
<text text-anchor="start" x="84.5" y="-758.5" font-family="Helvetica,sans-Serif" font-size="10.00" fill="#000000">* isEnabled()</text>
<text text-anchor="start" x="84.5" y="-747.5" font-family="Helvetica,sans-Serif" font-size="10.00" fill="#000000">* enable()</text>
<text text-anchor="start" x="84.5" y="-736.5" font-family="Helvetica,sans-Serif" font-size="10.00" fill="#000000">* enable()</text>
<text text-anchor="start" x="84.5" y="-725.5" font-family="Helvetica,sans-Serif" font-size="10.00" fill="#000000">* enable()</text>
<text text-anchor="start" x="84.5" y="-714.5" font-family="Helvetica,sans-Serif" font-size="10.00" fill="#000000">* disable()</text>
<text text-anchor="start" x="84.5" y="-703.5" font-family="Helvetica,sans-Serif" font-size="10.00" fill="#000000">* disable()</text>
<text text-anchor="start" x="84.5" y="-692.5" font-family="Helvetica,sans-Serif" font-size="10.00" fill="#000000">* disable()</text>
<text text-anchor="start" x="84.5" y="-681.5" font-family="Helvetica,sans-Serif" font-size="10.00" fill="#000000">* applyToAll()</text>
</a>
</g>
</g>
<!-- Node6&#45;&gt;Node5 -->
<g id="edge5" class="edge">
<title>Node6&#45;&gt;Node5</title>
<path fill="none" stroke="#191970" d="M147.5,-664.3537C147.5,-651.2331 147.5,-638.401 147.5,-626.9044"/>
<polygon fill="none" stroke="#191970" points="144.0001,-664.426 147.5,-674.426 151.0001,-664.4261 144.0001,-664.426"/>
</g>
<!-- Node7 -->
<g id="node7" class="node">
<title>Node7</title>
<g id="a_node7"><a xlink:href="../../d4/d23/classDoublyLinkable.html" target="_top" xlink:title=" ">
<polygon fill="#ffffff" stroke="#000000" points="0,-1021.5 0,-1100.5 137,-1100.5 137,-1021.5 0,-1021.5"/>
<text text-anchor="start" x="8" y="-1088.5" font-family="Helvetica,sans-Serif" font-size="10.00" fill="#000000">DoublyLinkable&lt; Updatable</text>
<text text-anchor="middle" x="68.5" y="-1077.5" font-family="Helvetica,sans-Serif" font-size="10.00" fill="#000000">&lt; NormalUpdatable &gt; &gt;</text>
<polyline fill="none" stroke="#000000" points="0,-1070.5 137,-1070.5 "/>
<text text-anchor="start" x="8" y="-1058.5" font-family="Helvetica,sans-Serif" font-size="10.00" fill="#000000"># next</text>
<text text-anchor="start" x="8" y="-1047.5" font-family="Helvetica,sans-Serif" font-size="10.00" fill="#000000"># previous</text>
<polyline fill="none" stroke="#000000" points="0,-1040.5 137,-1040.5 "/>
<text text-anchor="start" x="8" y="-1028.5" font-family="Helvetica,sans-Serif" font-size="10.00" fill="#000000"># ~DoublyLinkable()</text>
</a>
</g>
</g>
<!-- Node7&#45;&gt;Node6 -->
<g id="edge6" class="edge">
<title>Node7&#45;&gt;Node6</title>
<path fill="none" stroke="#191970" d="M81.9051,-1011.4522C92.8269,-971.0829 108.5654,-912.9102 121.8884,-863.6658"/>
<polygon fill="none" stroke="#191970" points="78.4696,-1010.7486 79.2365,-1021.3157 85.2267,-1012.5768 78.4696,-1010.7486"/>
</g>
<!-- Node8 -->
<g id="node8" class="node">
<title>Node8</title>
<g id="a_node8"><a xlink:href="../../dd/d16/classDoublyLinkedList.html" target="_top" xlink:title=" ">
<polygon fill="#ffffff" stroke="#000000" points="155,-911.5 155,-1210.5 300,-1210.5 300,-911.5 155,-911.5"/>
<text text-anchor="start" x="163" y="-1198.5" font-family="Helvetica,sans-Serif" font-size="10.00" fill="#000000">DoublyLinkedList&lt; Updatable</text>
<text text-anchor="middle" x="227.5" y="-1187.5" font-family="Helvetica,sans-Serif" font-size="10.00" fill="#000000">&lt; NormalUpdatable &gt; &gt;</text>
<polyline fill="none" stroke="#000000" points="155,-1180.5 300,-1180.5 "/>
<text text-anchor="start" x="163" y="-1168.5" font-family="Helvetica,sans-Serif" font-size="10.00" fill="#000000">&#45; first</text>
<text text-anchor="start" x="163" y="-1157.5" font-family="Helvetica,sans-Serif" font-size="10.00" fill="#000000">&#45; last</text>
<polyline fill="none" stroke="#000000" points="155,-1150.5 300,-1150.5 "/>
<text text-anchor="start" x="163" y="-1138.5" font-family="Helvetica,sans-Serif" font-size="10.00" fill="#000000">+ append()</text>
<text text-anchor="start" x="163" y="-1127.5" font-family="Helvetica,sans-Serif" font-size="10.00" fill="#000000">+ append()</text>
<text text-anchor="start" x="163" y="-1116.5" font-family="Helvetica,sans-Serif" font-size="10.00" fill="#000000">+ insertBefore()</text>
<text text-anchor="start" x="163" y="-1105.5" font-family="Helvetica,sans-Serif" font-size="10.00" fill="#000000">+ insertBefore()</text>
<text text-anchor="start" x="163" y="-1094.5" font-family="Helvetica,sans-Serif" font-size="10.00" fill="#000000">+ insertSorted()</text>
<text text-anchor="start" x="163" y="-1083.5" font-family="Helvetica,sans-Serif" font-size="10.00" fill="#000000">+ insertSorted()</text>
<text text-anchor="start" x="163" y="-1072.5" font-family="Helvetica,sans-Serif" font-size="10.00" fill="#000000">+ remove()</text>
<text text-anchor="start" x="163" y="-1061.5" font-family="Helvetica,sans-Serif" font-size="10.00" fill="#000000">+ remove()</text>
<text text-anchor="start" x="163" y="-1050.5" font-family="Helvetica,sans-Serif" font-size="10.00" fill="#000000">+ moveDown()</text>
<text text-anchor="start" x="163" y="-1039.5" font-family="Helvetica,sans-Serif" font-size="10.00" fill="#000000">+ couldContain()</text>
<text text-anchor="start" x="163" y="-1028.5" font-family="Helvetica,sans-Serif" font-size="10.00" fill="#000000">+ couldContain()</text>
<text text-anchor="start" x="163" y="-1017.5" font-family="Helvetica,sans-Serif" font-size="10.00" fill="#000000">+ begin()</text>
<text text-anchor="start" x="163" y="-1006.5" font-family="Helvetica,sans-Serif" font-size="10.00" fill="#000000">+ begin()</text>
<text text-anchor="start" x="163" y="-995.5" font-family="Helvetica,sans-Serif" font-size="10.00" fill="#000000">+ end()</text>
<text text-anchor="start" x="163" y="-984.5" font-family="Helvetica,sans-Serif" font-size="10.00" fill="#000000">+ end()</text>
<text text-anchor="start" x="163" y="-973.5" font-family="Helvetica,sans-Serif" font-size="10.00" fill="#000000">+ rbegin()</text>
<text text-anchor="start" x="163" y="-962.5" font-family="Helvetica,sans-Serif" font-size="10.00" fill="#000000">+ rbegin()</text>
<text text-anchor="start" x="163" y="-951.5" font-family="Helvetica,sans-Serif" font-size="10.00" fill="#000000">+ rend()</text>
<text text-anchor="start" x="163" y="-940.5" font-family="Helvetica,sans-Serif" font-size="10.00" fill="#000000">+ rend()</text>
<text text-anchor="start" x="163" y="-929.5" font-family="Helvetica,sans-Serif" font-size="10.00" fill="#000000">+ getFirst()</text>
<text text-anchor="start" x="163" y="-918.5" font-family="Helvetica,sans-Serif" font-size="10.00" fill="#000000">+ getLast()</text>
</a>
</g>
</g>
<!-- Node8&#45;&gt;Node6 -->
<g id="edge7" class="edge">
<title>Node8&#45;&gt;Node6</title>
<path fill="none" stroke="#404040" d="M186.4454,-911.1508C183.171,-899.1991 179.906,-887.2819 176.7383,-875.7197"/>
<polygon fill="none" stroke="#404040" points="176.647,-875.3862 171.2037,-870.6564 173.4761,-863.8127 178.9194,-868.5425 176.647,-875.3862"/>
<text text-anchor="middle" x="208.5" y="-885" font-family="Helvetica,sans-Serif" font-size="10.00" fill="#000000"> #updatables</text>
</g>
<!-- Node9 -->
<g id="node9" class="node">
<title>Node9</title>
<g id="a_node9"><a xlink:href="../../d9/d15/classSelectorSingleLEDCallback.html" target="_top" xlink:title=" ">
<polygon fill="#ffffff" stroke="#000000" points="202.5,-536.5 202.5,-626.5 354.5,-626.5 354.5,-536.5 202.5,-536.5"/>
<text text-anchor="middle" x="278.5" y="-614.5" font-family="Helvetica,sans-Serif" font-size="10.00" fill="#000000">SelectorSingleLEDCallback</text>
<polyline fill="none" stroke="#000000" points="202.5,-607.5 354.5,-607.5 "/>
<text text-anchor="middle" x="278.5" y="-595.5" font-family="Helvetica,sans-Serif" font-size="10.00" fill="#000000"> </text>
<polyline fill="none" stroke="#000000" points="202.5,-588.5 354.5,-588.5 "/>
<text text-anchor="start" x="210.5" y="-576.5" font-family="Helvetica,sans-Serif" font-size="10.00" fill="#000000">+ SelectorSingleLEDCallback()</text>
<text text-anchor="start" x="210.5" y="-565.5" font-family="Helvetica,sans-Serif" font-size="10.00" fill="#000000">+ begin()</text>
<text text-anchor="start" x="210.5" y="-554.5" font-family="Helvetica,sans-Serif" font-size="10.00" fill="#000000">+ update()</text>
<text text-anchor="start" x="210.5" y="-543.5" font-family="Helvetica,sans-Serif" font-size="10.00" fill="#000000">+ update()</text>
</a>
</g>
</g>
<!-- Node9&#45;&gt;Node3 -->
<g id="edge8" class="edge">
<title>Node9&#45;&gt;Node3</title>
<path fill="none" stroke="#404040" d="M250.2362,-536.2995C234.3575,-510.9057 214.1069,-478.5202 195.7892,-449.2259"/>
<polygon fill="none" stroke="#404040" points="195.7632,-449.1842 189.1905,-446.2176 189.401,-439.0096 195.9736,-441.9761 195.7632,-449.1842"/>
<text text-anchor="middle" x="259.5" y="-510" font-family="Helvetica,sans-Serif" font-size="10.00" fill="#000000"> +callback</text>
</g>
<!-- Node10 -->
<g id="node10" class="node">
<title>Node10</title>
<g id="a_node10"><a xlink:title=" ">
<polygon fill="#ffffff" stroke="#bfbfbf" points="259.5,-740.5 259.5,-797.5 297.5,-797.5 297.5,-740.5 259.5,-740.5"/>
<text text-anchor="middle" x="278.5" y="-785.5" font-family="Helvetica,sans-Serif" font-size="10.00" fill="#000000">pin_t</text>
<polyline fill="none" stroke="#bfbfbf" points="259.5,-778.5 297.5,-778.5 "/>
<text text-anchor="middle" x="278.5" y="-766.5" font-family="Helvetica,sans-Serif" font-size="10.00" fill="#000000"> </text>
<polyline fill="none" stroke="#bfbfbf" points="259.5,-759.5 297.5,-759.5 "/>
<text text-anchor="middle" x="278.5" y="-747.5" font-family="Helvetica,sans-Serif" font-size="10.00" fill="#000000"> </text>
</a>
</g>
</g>
<!-- Node10&#45;&gt;Node9 -->
<g id="edge9" class="edge">
<title>Node10&#45;&gt;Node9</title>
<path fill="none" stroke="#404040" d="M278.5,-740.114C278.5,-713.3341 278.5,-672.7038 278.5,-639.2704"/>
<polygon fill="none" stroke="#404040" points="278.5001,-638.853 274.5,-632.8531 278.5,-626.853 282.5,-632.853 278.5001,-638.853"/>
<text text-anchor="middle" x="295.5" y="-648" font-family="Helvetica,sans-Serif" font-size="10.00" fill="#000000"> &#45;ledPin</text>
</g>
<!-- Node11 -->
<g id="node11" class="node">
<title>Node11</title>
<g id="a_node11"><a xlink:href="../../de/d0d/classAH_1_1Button.html" target="_top" xlink:title="A class for reading and debouncing buttons and switches.">
<polygon fill="#ffffff" stroke="#000000" points="240,-255.5 240,-488.5 363,-488.5 363,-255.5 240,-255.5"/>
<text text-anchor="middle" x="301.5" y="-476.5" font-family="Helvetica,sans-Serif" font-size="10.00" fill="#000000">Button</text>
<polyline fill="none" stroke="#000000" points="240,-469.5 363,-469.5 "/>
<text text-anchor="start" x="248" y="-457.5" font-family="Helvetica,sans-Serif" font-size="10.00" fill="#000000">&#45; pin</text>
<text text-anchor="start" x="248" y="-446.5" font-family="Helvetica,sans-Serif" font-size="10.00" fill="#000000">&#45; prevInput</text>
<text text-anchor="start" x="248" y="-435.5" font-family="Helvetica,sans-Serif" font-size="10.00" fill="#000000">&#45; debouncedState</text>
<text text-anchor="start" x="248" y="-424.5" font-family="Helvetica,sans-Serif" font-size="10.00" fill="#000000">&#45; prevBounceTime</text>
<text text-anchor="start" x="248" y="-413.5" font-family="Helvetica,sans-Serif" font-size="10.00" fill="#000000">&#45; invertState</text>
<text text-anchor="start" x="248" y="-402.5" font-family="Helvetica,sans-Serif" font-size="10.00" fill="#000000">&#45; debounceTime</text>
<polyline fill="none" stroke="#000000" points="240,-395.5 363,-395.5 "/>
<text text-anchor="start" x="248" y="-383.5" font-family="Helvetica,sans-Serif" font-size="10.00" fill="#000000">+ Button()</text>
<text text-anchor="start" x="248" y="-372.5" font-family="Helvetica,sans-Serif" font-size="10.00" fill="#000000">+ Button()</text>
<text text-anchor="start" x="248" y="-361.5" font-family="Helvetica,sans-Serif" font-size="10.00" fill="#000000">+ begin()</text>
<text text-anchor="start" x="248" y="-350.5" font-family="Helvetica,sans-Serif" font-size="10.00" fill="#000000">+ invert()</text>
<text text-anchor="start" x="248" y="-339.5" font-family="Helvetica,sans-Serif" font-size="10.00" fill="#000000">+ update()</text>
<text text-anchor="start" x="248" y="-328.5" font-family="Helvetica,sans-Serif" font-size="10.00" fill="#000000">+ getState()</text>
<text text-anchor="start" x="248" y="-317.5" font-family="Helvetica,sans-Serif" font-size="10.00" fill="#000000">+ previousBounceTime()</text>
<text text-anchor="start" x="248" y="-306.5" font-family="Helvetica,sans-Serif" font-size="10.00" fill="#000000">+ stableTime()</text>
<text text-anchor="start" x="248" y="-295.5" font-family="Helvetica,sans-Serif" font-size="10.00" fill="#000000">+ stableTime()</text>
<text text-anchor="start" x="248" y="-284.5" font-family="Helvetica,sans-Serif" font-size="10.00" fill="#000000">+ getName()</text>
<text text-anchor="start" x="248" y="-273.5" font-family="Helvetica,sans-Serif" font-size="10.00" fill="#000000">+ setDebounceTime()</text>
<text text-anchor="start" x="248" y="-262.5" font-family="Helvetica,sans-Serif" font-size="10.00" fill="#000000">+ getDebounceTime()</text>
</a>
</g>
</g>
<!-- Node11&#45;&gt;Node2 -->
<g id="edge10" class="edge">
<title>Node11&#45;&gt;Node2</title>
<path fill="none" stroke="#404040" d="M260.7453,-255.2933C256.3894,-242.8196 252.0721,-230.4564 248.0175,-218.8454"/>
<polygon fill="none" stroke="#404040" points="248.015,-218.8381 242.2605,-214.4923 244.0587,-207.509 249.8132,-211.8548 248.015,-218.8381"/>
<text text-anchor="middle" x="271.5" y="-229" font-family="Helvetica,sans-Serif" font-size="10.00" fill="#000000"> &#45;button</text>
</g>
</g>
</svg>
