<?xml version="1.0" encoding="UTF-8" standalone="no"?>
<!DOCTYPE svg PUBLIC "-//W3C//DTD SVG 1.1//EN"
 "http://www.w3.org/Graphics/SVG/1.1/DTD/svg11.dtd">
<!-- Generated by graphviz version 2.43.0 (0)
 -->
<!-- Title: GenericProgramChangeSelector&lt; N, Callback &gt; Pages: 1 -->
<svg width="435pt" height="915pt"
 viewBox="0.00 0.00 435.00 915.00" xmlns="http://www.w3.org/2000/svg" xmlns:xlink="http://www.w3.org/1999/xlink">
<g id="graph0" class="graph" transform="scale(1 1) rotate(0) translate(4 911)">
<title>GenericProgramChangeSelector&lt; N, Callback &gt;</title>
<polygon fill="white" stroke="transparent" points="-4,4 -4,-911 431,-911 431,4 -4,4"/>
<!-- Node1 -->
<g id="node1" class="node">
<title>Node1</title>
<g id="a_node1"><a xlink:title=" ">
<polygon fill="#bfbfbf" stroke="black" points="147,-0.5 147,-101.5 338,-101.5 338,-0.5 147,-0.5"/>
<text text-anchor="start" x="155" y="-89.5" font-family="Helvetica,sans-Serif" font-size="10.00">GenericProgramChangeSelector</text>
<text text-anchor="middle" x="242.5" y="-78.5" font-family="Helvetica,sans-Serif" font-size="10.00">&lt; N, Callback &gt;</text>
<polyline fill="none" stroke="black" points="147,-71.5 338,-71.5 "/>
<text text-anchor="middle" x="242.5" y="-59.5" font-family="Helvetica,sans-Serif" font-size="10.00"> </text>
<polyline fill="none" stroke="black" points="147,-52.5 338,-52.5 "/>
<text text-anchor="start" x="155" y="-40.5" font-family="Helvetica,sans-Serif" font-size="10.00">+ GenericProgramChangeSelector()</text>
<text text-anchor="start" x="155" y="-29.5" font-family="Helvetica,sans-Serif" font-size="10.00">+ begin()</text>
<text text-anchor="start" x="155" y="-18.5" font-family="Helvetica,sans-Serif" font-size="10.00">+ reset()</text>
<text text-anchor="start" x="155" y="-7.5" font-family="Helvetica,sans-Serif" font-size="10.00">+ handleUpdate()</text>
</a>
</g>
</g>
<!-- Node2 -->
<g id="node2" class="node">
<title>Node2</title>
<g id="a_node2"><a xlink:href="../../d0/d04/classGenericSelector.html" target="_top" xlink:title=" ">
<polygon fill="white" stroke="black" points="79.5,-138.5 79.5,-283.5 223.5,-283.5 223.5,-138.5 79.5,-138.5"/>
<text text-anchor="start" x="87.5" y="-271.5" font-family="Helvetica,sans-Serif" font-size="10.00">GenericSelector&lt; N,</text>
<text text-anchor="middle" x="151.5" y="-260.5" font-family="Helvetica,sans-Serif" font-size="10.00"> EmptySelectorCallback &gt;</text>
<polyline fill="none" stroke="black" points="79.5,-253.5 223.5,-253.5 "/>
<text text-anchor="start" x="87.5" y="-241.5" font-family="Helvetica,sans-Serif" font-size="10.00">+ callback</text>
<text text-anchor="start" x="87.5" y="-230.5" font-family="Helvetica,sans-Serif" font-size="10.00">&#45; selectable</text>
<polyline fill="none" stroke="black" points="79.5,-223.5 223.5,-223.5 "/>
<text text-anchor="start" x="87.5" y="-211.5" font-family="Helvetica,sans-Serif" font-size="10.00">+ GenericSelector()</text>
<text text-anchor="start" x="87.5" y="-200.5" font-family="Helvetica,sans-Serif" font-size="10.00">+ begin()</text>
<text text-anchor="start" x="87.5" y="-189.5" font-family="Helvetica,sans-Serif" font-size="10.00">+ update()</text>
<text text-anchor="start" x="87.5" y="-178.5" font-family="Helvetica,sans-Serif" font-size="10.00">+ reset()</text>
<text text-anchor="start" x="87.5" y="-167.5" font-family="Helvetica,sans-Serif" font-size="10.00">+ set()</text>
<text text-anchor="start" x="87.5" y="-156.5" font-family="Helvetica,sans-Serif" font-size="10.00">+ increment()</text>
<text text-anchor="start" x="87.5" y="-145.5" font-family="Helvetica,sans-Serif" font-size="10.00">+ decrement()</text>
</a>
</g>
</g>
<!-- Node2&#45;&gt;Node1 -->
<g id="edge1" class="edge">
<title>Node2&#45;&gt;Node1</title>
<path fill="none" stroke="midnightblue" d="M197.78,-129.65C203.27,-120.11 208.75,-110.6 213.89,-101.67"/>
<polygon fill="none" stroke="midnightblue" points="194.7,-127.98 192.74,-138.4 200.76,-131.48 194.7,-127.98"/>
</g>
<!-- Node3 -->
<g id="node3" class="node">
<title>Node3</title>
<g id="a_node3"><a xlink:href="../../dc/d77/classSelectorBase.html" target="_top" xlink:title="Base class for all Selectors exposing the get method, so it can be used by display elements etc,...">
<polygon fill="white" stroke="black" points="0,-364.5 0,-432.5 99,-432.5 99,-364.5 0,-364.5"/>
<text text-anchor="middle" x="49.5" y="-420.5" font-family="Helvetica,sans-Serif" font-size="10.00">SelectorBase</text>
<polyline fill="none" stroke="black" points="0,-413.5 99,-413.5 "/>
<text text-anchor="start" x="8" y="-401.5" font-family="Helvetica,sans-Serif" font-size="10.00"># setting</text>
<polyline fill="none" stroke="black" points="0,-394.5 99,-394.5 "/>
<text text-anchor="start" x="8" y="-382.5" font-family="Helvetica,sans-Serif" font-size="10.00">+ get()</text>
<text text-anchor="start" x="8" y="-371.5" font-family="Helvetica,sans-Serif" font-size="10.00"># SelectorBase()</text>
</a>
</g>
</g>
<!-- Node3&#45;&gt;Node2 -->
<g id="edge2" class="edge">
<title>Node3&#45;&gt;Node2</title>
<path fill="none" stroke="midnightblue" d="M72.71,-355.29C84.35,-334.12 98.77,-307.9 112.08,-283.69"/>
<polygon fill="none" stroke="midnightblue" points="69.49,-353.89 67.74,-364.34 75.62,-357.26 69.49,-353.89"/>
</g>
<!-- Node4 -->
<g id="node4" class="node">
<title>Node4</title>
<g id="a_node4"><a xlink:href="../../d1/d55/classAH_1_1Updatable.html" target="_top" xlink:title="A super class for object that have to be updated regularly.">
<polygon fill="white" stroke="black" points="117,-353.5 117,-443.5 212,-443.5 212,-353.5 117,-353.5"/>
<text text-anchor="middle" x="164.5" y="-431.5" font-family="Helvetica,sans-Serif" font-size="10.00">Updatable&lt; T &gt;</text>
<polyline fill="none" stroke="black" points="117,-424.5 212,-424.5 "/>
<text text-anchor="middle" x="164.5" y="-412.5" font-family="Helvetica,sans-Serif" font-size="10.00"> </text>
<polyline fill="none" stroke="black" points="117,-405.5 212,-405.5 "/>
<text text-anchor="start" x="125" y="-393.5" font-family="Helvetica,sans-Serif" font-size="10.00">* begin()</text>
<text text-anchor="start" x="125" y="-382.5" font-family="Helvetica,sans-Serif" font-size="10.00">* update()</text>
<text text-anchor="start" x="125" y="-371.5" font-family="Helvetica,sans-Serif" font-size="10.00">* beginAll()</text>
<text text-anchor="start" x="125" y="-360.5" font-family="Helvetica,sans-Serif" font-size="10.00">* updateAll()</text>
</a>
</g>
</g>
<!-- Node4&#45;&gt;Node2 -->
<g id="edge3" class="edge">
<title>Node4&#45;&gt;Node2</title>
<path fill="none" stroke="midnightblue" d="M160.68,-343.02C159.38,-324.42 157.9,-303.33 156.52,-283.59"/>
<polygon fill="none" stroke="midnightblue" points="157.2,-343.34 161.39,-353.07 164.18,-342.85 157.2,-343.34"/>
</g>
<!-- Node5 -->
<g id="node5" class="node">
<title>Node5</title>
<g id="a_node5"><a xlink:href="../../d8/d1a/classAH_1_1UpdatableCRTP.html" target="_top" xlink:title=" ">
<polygon fill="white" stroke="black" points="88,-513.5 88,-746.5 241,-746.5 241,-513.5 88,-513.5"/>
<text text-anchor="start" x="96" y="-734.5" font-family="Helvetica,sans-Serif" font-size="10.00">UpdatableCRTP&lt; Updatable</text>
<text text-anchor="middle" x="164.5" y="-723.5" font-family="Helvetica,sans-Serif" font-size="10.00">&lt; NormalUpdatable &gt; &gt;</text>
<polyline fill="none" stroke="black" points="88,-716.5 241,-716.5 "/>
<text text-anchor="start" x="96" y="-704.5" font-family="Helvetica,sans-Serif" font-size="10.00"># updatables</text>
<polyline fill="none" stroke="black" points="88,-697.5 241,-697.5 "/>
<text text-anchor="start" x="96" y="-685.5" font-family="Helvetica,sans-Serif" font-size="10.00">+ ~UpdatableCRTP()</text>
<text text-anchor="start" x="96" y="-674.5" font-family="Helvetica,sans-Serif" font-size="10.00"># UpdatableCRTP()</text>
<text text-anchor="start" x="96" y="-663.5" font-family="Helvetica,sans-Serif" font-size="10.00"># UpdatableCRTP()</text>
<text text-anchor="start" x="96" y="-652.5" font-family="Helvetica,sans-Serif" font-size="10.00"># UpdatableCRTP()</text>
<text text-anchor="start" x="96" y="-641.5" font-family="Helvetica,sans-Serif" font-size="10.00"># operator=()</text>
<text text-anchor="start" x="96" y="-630.5" font-family="Helvetica,sans-Serif" font-size="10.00"># operator=()</text>
<text text-anchor="start" x="96" y="-619.5" font-family="Helvetica,sans-Serif" font-size="10.00">* enable()</text>
<text text-anchor="start" x="96" y="-608.5" font-family="Helvetica,sans-Serif" font-size="10.00">* disable()</text>
<text text-anchor="start" x="96" y="-597.5" font-family="Helvetica,sans-Serif" font-size="10.00">* isEnabled()</text>
<text text-anchor="start" x="96" y="-586.5" font-family="Helvetica,sans-Serif" font-size="10.00">* moveDown()</text>
<text text-anchor="start" x="96" y="-575.5" font-family="Helvetica,sans-Serif" font-size="10.00">* enable()</text>
<text text-anchor="start" x="96" y="-564.5" font-family="Helvetica,sans-Serif" font-size="10.00">* enable()</text>
<text text-anchor="start" x="96" y="-553.5" font-family="Helvetica,sans-Serif" font-size="10.00">* enable()</text>
<text text-anchor="start" x="96" y="-542.5" font-family="Helvetica,sans-Serif" font-size="10.00">* disable()</text>
<text text-anchor="start" x="96" y="-531.5" font-family="Helvetica,sans-Serif" font-size="10.00">* disable()</text>
<text text-anchor="start" x="96" y="-520.5" font-family="Helvetica,sans-Serif" font-size="10.00">* disable()</text>
</a>
</g>
</g>
<!-- Node5&#45;&gt;Node4 -->
<g id="edge4" class="edge">
<title>Node5&#45;&gt;Node4</title>
<path fill="none" stroke="midnightblue" d="M164.5,-503.07C164.5,-481.71 164.5,-460.88 164.5,-443.56"/>
<polygon fill="none" stroke="midnightblue" points="161,-503.24 164.5,-513.24 168,-503.24 161,-503.24"/>
</g>
<!-- Node6 -->
<g id="node6" class="node">
<title>Node6</title>
<g id="a_node6"><a xlink:href="../../d4/d23/classDoublyLinkable.html" target="_top" xlink:title="A class that can be inherited from to allow inserting into a DoublyLinkedList.">
<polygon fill="white" stroke="black" points="179.5,-783.5 179.5,-906.5 319.5,-906.5 319.5,-783.5 179.5,-783.5"/>
<text text-anchor="middle" x="249.5" y="-894.5" font-family="Helvetica,sans-Serif" font-size="10.00">DoublyLinkable&lt; Node &gt;</text>
<polyline fill="none" stroke="black" points="179.5,-887.5 319.5,-887.5 "/>
<text text-anchor="start" x="187.5" y="-875.5" font-family="Helvetica,sans-Serif" font-size="10.00"># next</text>
<text text-anchor="start" x="187.5" y="-864.5" font-family="Helvetica,sans-Serif" font-size="10.00"># previous</text>
<polyline fill="none" stroke="black" points="179.5,-857.5 319.5,-857.5 "/>
<text text-anchor="start" x="187.5" y="-845.5" font-family="Helvetica,sans-Serif" font-size="10.00"># ~DoublyLinkable()</text>
<text text-anchor="start" x="187.5" y="-834.5" font-family="Helvetica,sans-Serif" font-size="10.00"># DoublyLinkable()</text>
<text text-anchor="start" x="187.5" y="-823.5" font-family="Helvetica,sans-Serif" font-size="10.00"># DoublyLinkable()</text>
<text text-anchor="start" x="187.5" y="-812.5" font-family="Helvetica,sans-Serif" font-size="10.00"># operator=()</text>
<text text-anchor="start" x="187.5" y="-801.5" font-family="Helvetica,sans-Serif" font-size="10.00"># DoublyLinkable()</text>
<text text-anchor="start" x="187.5" y="-790.5" font-family="Helvetica,sans-Serif" font-size="10.00"># operator=()</text>
</a>
</g>
</g>
<!-- Node6&#45;&gt;Node5 -->
<g id="edge5" class="edge">
<title>Node6&#45;&gt;Node5</title>
<path fill="none" stroke="midnightblue" d="M221.51,-773.86C218,-765.07 214.34,-755.89 210.64,-746.62"/>
<polygon fill="none" stroke="midnightblue" points="218.3,-775.26 225.26,-783.25 224.8,-772.66 218.3,-775.26"/>
</g>
<!-- Node9 -->
<g id="node9" class="node">
<title>Node9</title>
<g id="a_node9"><a xlink:href="../../d8/d1a/classAH_1_1UpdatableCRTP.html" target="_top" xlink:title=" ">
<polygon fill="white" stroke="black" points="259.5,-513.5 259.5,-746.5 409.5,-746.5 409.5,-513.5 259.5,-513.5"/>
<text text-anchor="start" x="267.5" y="-734.5" font-family="Helvetica,sans-Serif" font-size="10.00">UpdatableCRTP&lt; MIDIInput</text>
<text text-anchor="middle" x="334.5" y="-723.5" font-family="Helvetica,sans-Serif" font-size="10.00">Element&lt; Type &gt; &gt;</text>
<polyline fill="none" stroke="black" points="259.5,-716.5 409.5,-716.5 "/>
<text text-anchor="start" x="267.5" y="-704.5" font-family="Helvetica,sans-Serif" font-size="10.00"># updatables</text>
<polyline fill="none" stroke="black" points="259.5,-697.5 409.5,-697.5 "/>
<text text-anchor="start" x="267.5" y="-685.5" font-family="Helvetica,sans-Serif" font-size="10.00">+ ~UpdatableCRTP()</text>
<text text-anchor="start" x="267.5" y="-674.5" font-family="Helvetica,sans-Serif" font-size="10.00"># UpdatableCRTP()</text>
<text text-anchor="start" x="267.5" y="-663.5" font-family="Helvetica,sans-Serif" font-size="10.00"># UpdatableCRTP()</text>
<text text-anchor="start" x="267.5" y="-652.5" font-family="Helvetica,sans-Serif" font-size="10.00"># UpdatableCRTP()</text>
<text text-anchor="start" x="267.5" y="-641.5" font-family="Helvetica,sans-Serif" font-size="10.00"># operator=()</text>
<text text-anchor="start" x="267.5" y="-630.5" font-family="Helvetica,sans-Serif" font-size="10.00"># operator=()</text>
<text text-anchor="start" x="267.5" y="-619.5" font-family="Helvetica,sans-Serif" font-size="10.00">* enable()</text>
<text text-anchor="start" x="267.5" y="-608.5" font-family="Helvetica,sans-Serif" font-size="10.00">* disable()</text>
<text text-anchor="start" x="267.5" y="-597.5" font-family="Helvetica,sans-Serif" font-size="10.00">* isEnabled()</text>
<text text-anchor="start" x="267.5" y="-586.5" font-family="Helvetica,sans-Serif" font-size="10.00">* moveDown()</text>
<text text-anchor="start" x="267.5" y="-575.5" font-family="Helvetica,sans-Serif" font-size="10.00">* enable()</text>
<text text-anchor="start" x="267.5" y="-564.5" font-family="Helvetica,sans-Serif" font-size="10.00">* enable()</text>
<text text-anchor="start" x="267.5" y="-553.5" font-family="Helvetica,sans-Serif" font-size="10.00">* enable()</text>
<text text-anchor="start" x="267.5" y="-542.5" font-family="Helvetica,sans-Serif" font-size="10.00">* disable()</text>
<text text-anchor="start" x="267.5" y="-531.5" font-family="Helvetica,sans-Serif" font-size="10.00">* disable()</text>
<text text-anchor="start" x="267.5" y="-520.5" font-family="Helvetica,sans-Serif" font-size="10.00">* disable()</text>
</a>
</g>
</g>
<!-- Node6&#45;&gt;Node9 -->
<g id="edge9" class="edge">
<title>Node6&#45;&gt;Node9</title>
<path fill="none" stroke="midnightblue" d="M277.49,-773.86C281,-765.07 284.66,-755.89 288.36,-746.62"/>
<polygon fill="none" stroke="midnightblue" points="274.2,-772.66 273.74,-783.25 280.7,-775.26 274.2,-772.66"/>
</g>
<!-- Node7 -->
<g id="node7" class="node">
<title>Node7</title>
<g id="a_node7"><a xlink:href="../../d5/dae/classMatchingMIDIInputElement.html" target="_top" xlink:title=" ">
<polygon fill="white" stroke="black" points="242,-160.5 242,-261.5 427,-261.5 427,-160.5 242,-160.5"/>
<text text-anchor="start" x="250" y="-249.5" font-family="Helvetica,sans-Serif" font-size="10.00">MatchingMIDIInputElement</text>
<text text-anchor="start" x="250" y="-238.5" font-family="Helvetica,sans-Serif" font-size="10.00">&lt; MIDIMessageType::PROGRAM</text>
<text text-anchor="middle" x="334.5" y="-227.5" font-family="Helvetica,sans-Serif" font-size="10.00">_CHANGE, OneByteMIDIMatcher &gt;</text>
<polyline fill="none" stroke="black" points="242,-220.5 427,-220.5 "/>
<text text-anchor="start" x="250" y="-208.5" font-family="Helvetica,sans-Serif" font-size="10.00"># matcher</text>
<polyline fill="none" stroke="black" points="242,-201.5 427,-201.5 "/>
<text text-anchor="start" x="250" y="-189.5" font-family="Helvetica,sans-Serif" font-size="10.00">+ updateWith()</text>
<text text-anchor="start" x="250" y="-178.5" font-family="Helvetica,sans-Serif" font-size="10.00">+ handleUpdate()</text>
<text text-anchor="start" x="250" y="-167.5" font-family="Helvetica,sans-Serif" font-size="10.00"># MatchingMIDIInputElement()</text>
</a>
</g>
</g>
<!-- Node7&#45;&gt;Node1 -->
<g id="edge6" class="edge">
<title>Node7&#45;&gt;Node1</title>
<path fill="none" stroke="midnightblue" d="M300.43,-151.49C290.89,-135.11 280.62,-117.47 271.41,-101.65"/>
<polygon fill="none" stroke="midnightblue" points="297.59,-153.56 305.64,-160.44 303.64,-150.04 297.59,-153.56"/>
</g>
<!-- Node8 -->
<g id="node8" class="node">
<title>Node8</title>
<g id="a_node8"><a xlink:href="../../d9/db1/classMIDIInputElement.html" target="_top" xlink:title="A class for objects that listen for incoming MIDI events.">
<polygon fill="white" stroke="black" points="260,-320.5 260,-476.5 409,-476.5 409,-320.5 260,-320.5"/>
<text text-anchor="middle" x="334.5" y="-464.5" font-family="Helvetica,sans-Serif" font-size="10.00">MIDIInputElement&lt; Type &gt;</text>
<polyline fill="none" stroke="black" points="260,-457.5 409,-457.5 "/>
<text text-anchor="middle" x="334.5" y="-445.5" font-family="Helvetica,sans-Serif" font-size="10.00"> </text>
<polyline fill="none" stroke="black" points="260,-438.5 409,-438.5 "/>
<text text-anchor="start" x="268" y="-426.5" font-family="Helvetica,sans-Serif" font-size="10.00">+ ~MIDIInputElement()</text>
<text text-anchor="start" x="268" y="-415.5" font-family="Helvetica,sans-Serif" font-size="10.00">+ begin()</text>
<text text-anchor="start" x="268" y="-404.5" font-family="Helvetica,sans-Serif" font-size="10.00">+ reset()</text>
<text text-anchor="start" x="268" y="-393.5" font-family="Helvetica,sans-Serif" font-size="10.00">+ update()</text>
<text text-anchor="start" x="268" y="-382.5" font-family="Helvetica,sans-Serif" font-size="10.00">+ updateWith()</text>
<text text-anchor="start" x="268" y="-371.5" font-family="Helvetica,sans-Serif" font-size="10.00">+ updateAllWith()</text>
<text text-anchor="start" x="268" y="-360.5" font-family="Helvetica,sans-Serif" font-size="10.00">+ updateAll()</text>
<text text-anchor="start" x="268" y="-349.5" font-family="Helvetica,sans-Serif" font-size="10.00">+ beginAll()</text>
<text text-anchor="start" x="268" y="-338.5" font-family="Helvetica,sans-Serif" font-size="10.00">+ resetAll()</text>
<text text-anchor="start" x="268" y="-327.5" font-family="Helvetica,sans-Serif" font-size="10.00"># MIDIInputElement()</text>
</a>
</g>
</g>
<!-- Node8&#45;&gt;Node7 -->
<g id="edge7" class="edge">
<title>Node8&#45;&gt;Node7</title>
<path fill="none" stroke="midnightblue" d="M334.5,-310.11C334.5,-293.43 334.5,-276.52 334.5,-261.55"/>
<polygon fill="none" stroke="midnightblue" points="331,-310.44 334.5,-320.44 338,-310.44 331,-310.44"/>
</g>
<!-- Node9&#45;&gt;Node8 -->
<g id="edge8" class="edge">
<title>Node9&#45;&gt;Node8</title>
<path fill="none" stroke="midnightblue" d="M334.5,-503.11C334.5,-494.17 334.5,-485.31 334.5,-476.77"/>
<polygon fill="none" stroke="midnightblue" points="331,-503.24 334.5,-513.24 338,-503.24 331,-503.24"/>
</g>
</g>
</svg>
