<?xml version="1.0" encoding="UTF-8" standalone="no"?>
<!DOCTYPE svg PUBLIC "-//W3C//DTD SVG 1.1//EN"
 "http://www.w3.org/Graphics/SVG/1.1/DTD/svg11.dtd">
<!-- Generated by graphviz version 2.40.1 (20161225.0304)
 -->
<!-- Title: ShiftRegisterOutBase.ipp Pages: 1 -->
<svg width="1338pt" height="879pt"
 viewBox="0.00 0.00 1338.02 879.00" xmlns="http://www.w3.org/2000/svg" xmlns:xlink="http://www.w3.org/1999/xlink">
<g id="graph0" class="graph" transform="scale(1 1) rotate(0) translate(4 875)">
<title>ShiftRegisterOutBase.ipp</title>
<polygon fill="#ffffff" stroke="transparent" points="-4,4 -4,-875 1334.0242,-875 1334.0242,4 -4,4"/>
<!-- Node1 -->
<g id="node1" class="node">
<title>Node1</title>
<g id="a_node1"><a xlink:title=" ">
<polygon fill="#bfbfbf" stroke="#000000" points="979.0242,-851.5 979.0242,-870.5 1107.0242,-870.5 1107.0242,-851.5 979.0242,-851.5"/>
<text text-anchor="middle" x="1043.0242" y="-858.5" font-family="Helvetica,sans-Serif" font-size="10.00" fill="#000000">ShiftRegisterOutBase.ipp</text>
</a>
</g>
</g>
<!-- Node2 -->
<g id="node2" class="node">
<title>Node2</title>
<g id="a_node2"><a xlink:href="../../dd/ddf/ExtendedInputOutput_8hpp.html" target="_top" xlink:title=" ">
<polygon fill="#ffffff" stroke="#000000" points="1050.0242,-627.5 1050.0242,-646.5 1178.0242,-646.5 1178.0242,-627.5 1050.0242,-627.5"/>
<text text-anchor="middle" x="1114.0242" y="-634.5" font-family="Helvetica,sans-Serif" font-size="10.00" fill="#000000">ExtendedInputOutput.hpp</text>
</a>
</g>
</g>
<!-- Node1&#45;&gt;Node2 -->
<g id="edge1" class="edge">
<title>Node1&#45;&gt;Node2</title>
<path fill="none" stroke="#191970" d="M1071.4622,-851.3621C1087.952,-844.1374 1107.3232,-832.4529 1117.0242,-815 1145.4777,-763.8097 1130.1647,-690.8754 1120.2877,-656.4343"/>
<polygon fill="#191970" stroke="#191970" points="1123.5824,-655.2375 1117.3343,-646.6811 1116.8828,-657.2663 1123.5824,-655.2375"/>
</g>
<!-- Node25 -->
<g id="node25" class="node">
<title>Node25</title>
<g id="a_node25"><a xlink:href="../../d8/d93/ShiftRegisterOutBase_8hpp.html" target="_top" xlink:title=" ">
<polygon fill="#ffffff" stroke="#000000" points="977.5242,-795.5 977.5242,-814.5 1108.5242,-814.5 1108.5242,-795.5 977.5242,-795.5"/>
<text text-anchor="middle" x="1043.0242" y="-802.5" font-family="Helvetica,sans-Serif" font-size="10.00" fill="#000000">ShiftRegisterOutBase.hpp</text>
</a>
</g>
</g>
<!-- Node1&#45;&gt;Node25 -->
<g id="edge45" class="edge">
<title>Node1&#45;&gt;Node25</title>
<path fill="none" stroke="#191970" d="M1037.7573,-851.2455C1036.3463,-843.9382 1035.9421,-833.6944 1036.5447,-824.7046"/>
<polygon fill="#191970" stroke="#191970" points="1040.0353,-824.9945 1037.779,-814.6427 1033.0873,-824.1421 1040.0353,-824.9945"/>
</g>
<!-- Node34 -->
<g id="node34" class="node">
<title>Node34</title>
<g id="a_node34"><a xlink:href="../../d1/d1f/ShiftRegisterOutRGB_8hpp.html" target="_top" xlink:title=" ">
<polygon fill="#ffffff" stroke="#000000" points="906.0242,-392.5 906.0242,-411.5 1036.0242,-411.5 1036.0242,-392.5 906.0242,-392.5"/>
<text text-anchor="middle" x="971.0242" y="-399.5" font-family="Helvetica,sans-Serif" font-size="10.00" fill="#000000">ShiftRegisterOutRGB.hpp</text>
</a>
</g>
</g>
<!-- Node1&#45;&gt;Node34 -->
<g id="edge71" class="edge">
<title>Node1&#45;&gt;Node34</title>
<path fill="none" stroke="#191970" d="M1018.0458,-851.382C1001.5857,-843.8314 980.7888,-831.7749 968.0242,-815 949.5398,-790.7084 949.0242,-779.5246 949.0242,-749 949.0242,-749 949.0242,-749 949.0242,-514 949.0242,-481.1132 958.2702,-443.7958 964.7741,-421.6138"/>
<polygon fill="#191970" stroke="#191970" points="968.2094,-422.3474 967.778,-411.7614 961.5137,-420.3059 968.2094,-422.3474"/>
</g>
<!-- Node3 -->
<g id="node3" class="node">
<title>Node3</title>
<g id="a_node3"><a xlink:href="../../d1/d65/Warnings_8hpp.html" target="_top" xlink:title=" ">
<polygon fill="#ffffff" stroke="#000000" points="320.5242,-.5 320.5242,-19.5 453.5242,-19.5 453.5242,-.5 320.5242,-.5"/>
<text text-anchor="middle" x="387.0242" y="-7.5" font-family="Helvetica,sans-Serif" font-size="10.00" fill="#000000">AH/Settings/Warnings.hpp</text>
</a>
</g>
</g>
<!-- Node2&#45;&gt;Node3 -->
<g id="edge2" class="edge">
<title>Node2&#45;&gt;Node3</title>
<path fill="none" stroke="#191970" d="M1156.6596,-627.4687C1209.3193,-612.8853 1292.0242,-579.5475 1292.0242,-514 1292.0242,-514 1292.0242,-514 1292.0242,-122 1292.0242,-44.254 1205.8217,-73.2967 1130.0242,-56 1005.112,-27.4956 628.001,-15.5514 464.275,-11.614"/>
<polygon fill="#191970" stroke="#191970" points="463.8842,-8.1039 453.8042,-11.3662 463.7185,-15.1019 463.8842,-8.1039"/>
</g>
<!-- Node4 -->
<g id="node4" class="node">
<title>Node4</title>
<g id="a_node4"><a xlink:href="../../d6/db0/AH_2Settings_2NamespaceSettings_8hpp.html" target="_top" xlink:title=" ">
<polygon fill="#ffffff" stroke="#000000" points="877.0242,-56.5 877.0242,-75.5 1057.0242,-75.5 1057.0242,-56.5 877.0242,-56.5"/>
<text text-anchor="middle" x="967.0242" y="-63.5" font-family="Helvetica,sans-Serif" font-size="10.00" fill="#000000">AH/Settings/NamespaceSettings.hpp</text>
</a>
</g>
</g>
<!-- Node2&#45;&gt;Node4 -->
<g id="edge3" class="edge">
<title>Node2&#45;&gt;Node4</title>
<path fill="none" stroke="#191970" d="M1141.0176,-627.4113C1181.6999,-611.028 1254.0242,-573.5308 1254.0242,-514 1254.0242,-514 1254.0242,-514 1254.0242,-234 1254.0242,-136.9502 1130.2845,-94.9169 1045.3048,-77.4933"/>
<polygon fill="#191970" stroke="#191970" points="1045.8919,-74.0417 1035.4032,-75.5375 1044.5354,-80.909 1045.8919,-74.0417"/>
</g>
<!-- Node5 -->
<g id="node5" class="node">
<title>Node5</title>
<g id="a_node5"><a xlink:href="../../d6/ddf/Arduino-Wrapper_8h.html" target="_top" xlink:title=" ">
<polygon fill="#ffffff" stroke="#000000" points="747.5242,-168.5 747.5242,-187.5 862.5242,-187.5 862.5242,-168.5 747.5242,-168.5"/>
<text text-anchor="middle" x="805.0242" y="-175.5" font-family="Helvetica,sans-Serif" font-size="10.00" fill="#000000">AH/Arduino&#45;Wrapper.h</text>
</a>
</g>
</g>
<!-- Node2&#45;&gt;Node5 -->
<g id="edge4" class="edge">
<title>Node2&#45;&gt;Node5</title>
<path fill="none" stroke="#191970" d="M1110.1991,-627.2083C1102.8107,-607.8371 1086.6356,-563.109 1079.0242,-524 1063.8575,-446.0706 1064.0242,-425.3915 1064.0242,-346 1064.0242,-346 1064.0242,-346 1064.0242,-290 1064.0242,-259.08 1065.2623,-244.397 1042.0242,-224 1017.2575,-202.2614 933.4977,-189.8728 872.5612,-183.5498"/>
<polygon fill="#191970" stroke="#191970" points="872.9104,-180.0673 862.6105,-182.5496 872.2103,-187.0322 872.9104,-180.0673"/>
</g>
<!-- Node10 -->
<g id="node10" class="node">
<title>Node10</title>
<g id="a_node10"><a xlink:href="../../d4/d35/Hardware-Types_8hpp.html" target="_top" xlink:title=" ">
<polygon fill="#ffffff" stroke="#000000" points="707.5242,-560.5 707.5242,-590.5 828.5242,-590.5 828.5242,-560.5 707.5242,-560.5"/>
<text text-anchor="start" x="715.5242" y="-578.5" font-family="Helvetica,sans-Serif" font-size="10.00" fill="#000000">AH/Hardware/Hardware</text>
<text text-anchor="middle" x="768.0242" y="-567.5" font-family="Helvetica,sans-Serif" font-size="10.00" fill="#000000">&#45;Types.hpp</text>
</a>
</g>
</g>
<!-- Node2&#45;&gt;Node10 -->
<g id="edge13" class="edge">
<title>Node2&#45;&gt;Node10</title>
<path fill="none" stroke="#191970" d="M1060.3413,-627.4581C1000.6708,-616.8519 904.076,-599.6826 838.3938,-588.0079"/>
<polygon fill="#191970" stroke="#191970" points="838.9902,-584.5591 828.532,-586.255 837.7651,-591.4511 838.9902,-584.5591"/>
</g>
<!-- Node6 -->
<g id="node6" class="node">
<title>Node6</title>
<g id="a_node6"><a xlink:href="../../d7/d79/MinMaxFix_8hpp.html" target="_top" xlink:title=" ">
<polygon fill="#ffffff" stroke="#000000" points="775.5242,-112.5 775.5242,-131.5 900.5242,-131.5 900.5242,-112.5 775.5242,-112.5"/>
<text text-anchor="middle" x="838.0242" y="-119.5" font-family="Helvetica,sans-Serif" font-size="10.00" fill="#000000">AH/Math/MinMaxFix.hpp</text>
</a>
</g>
</g>
<!-- Node5&#45;&gt;Node6 -->
<g id="edge5" class="edge">
<title>Node5&#45;&gt;Node6</title>
<path fill="none" stroke="#191970" d="M810.7723,-168.2455C815.2677,-160.617 821.649,-149.7881 827.1066,-140.5267"/>
<polygon fill="#191970" stroke="#191970" points="830.2803,-142.035 832.3419,-131.6427 824.2495,-138.4811 830.2803,-142.035"/>
</g>
<!-- Node8 -->
<g id="node8" class="node">
<title>Node8</title>
<g id="a_node8"><a xlink:title=" ">
<polygon fill="#ffffff" stroke="#bfbfbf" points="1042.0242,-.5 1042.0242,-19.5 1100.0242,-19.5 1100.0242,-.5 1042.0242,-.5"/>
<text text-anchor="middle" x="1071.0242" y="-7.5" font-family="Helvetica,sans-Serif" font-size="10.00" fill="#000000">Arduino.h</text>
</a>
</g>
</g>
<!-- Node5&#45;&gt;Node8 -->
<g id="edge12" class="edge">
<title>Node5&#45;&gt;Node8</title>
<path fill="none" stroke="#191970" d="M862.6977,-172.9205C923.9458,-164.1799 1018.3563,-140.4352 1066.0242,-76 1075.7308,-62.8791 1076.2058,-44.0017 1074.705,-29.7941"/>
<polygon fill="#191970" stroke="#191970" points="1078.1247,-28.9895 1073.2163,-19.6003 1071.1981,-30.0011 1078.1247,-28.9895"/>
</g>
<!-- Node9 -->
<g id="node9" class="node">
<title>Node9</title>
<g id="a_node9"><a xlink:title=" ">
<polygon fill="#ffffff" stroke="#bfbfbf" points="656.5242,-112.5 656.5242,-131.5 757.5242,-131.5 757.5242,-112.5 656.5242,-112.5"/>
<text text-anchor="middle" x="707.0242" y="-119.5" font-family="Helvetica,sans-Serif" font-size="10.00" fill="#000000">AH/STL/type_traits</text>
</a>
</g>
</g>
<!-- Node5&#45;&gt;Node9 -->
<g id="edge11" class="edge">
<title>Node5&#45;&gt;Node9</title>
<path fill="none" stroke="#191970" d="M787.9539,-168.2455C772.7771,-159.5731 750.3621,-146.7645 732.9679,-136.825"/>
<polygon fill="#191970" stroke="#191970" points="734.3178,-133.5653 723.8988,-131.6427 730.8448,-139.643 734.3178,-133.5653"/>
</g>
<!-- Node6&#45;&gt;Node3 -->
<g id="edge6" class="edge">
<title>Node6&#45;&gt;Node3</title>
<path fill="none" stroke="#191970" d="M799.5722,-112.4509C717.5275,-92.0762 525.4626,-44.3794 435.3331,-21.9969"/>
<polygon fill="#191970" stroke="#191970" points="435.9276,-18.5383 425.3788,-19.5249 434.2405,-25.3319 435.9276,-18.5383"/>
</g>
<!-- Node6&#45;&gt;Node4 -->
<g id="edge10" class="edge">
<title>Node6&#45;&gt;Node4</title>
<path fill="none" stroke="#191970" d="M860.2001,-112.3733C881.0008,-103.3435 912.3158,-89.7494 935.67,-79.6111"/>
<polygon fill="#191970" stroke="#191970" points="937.3584,-82.6938 945.1376,-75.5011 934.5709,-76.2727 937.3584,-82.6938"/>
</g>
<!-- Node7 -->
<g id="node7" class="node">
<title>Node7</title>
<g id="a_node7"><a xlink:href="../../d6/d3b/FixArduinoMacros_8hpp.html" target="_top" xlink:title=" ">
<polygon fill="#ffffff" stroke="#000000" points="703.0242,-56.5 703.0242,-75.5 859.0242,-75.5 859.0242,-56.5 703.0242,-56.5"/>
<text text-anchor="middle" x="781.0242" y="-63.5" font-family="Helvetica,sans-Serif" font-size="10.00" fill="#000000">AH/Math/FixArduinoMacros.hpp</text>
</a>
</g>
</g>
<!-- Node6&#45;&gt;Node7 -->
<g id="edge7" class="edge">
<title>Node6&#45;&gt;Node7</title>
<path fill="none" stroke="#191970" d="M828.0955,-112.2455C819.8404,-104.1352 807.9032,-92.4075 798.1159,-82.7919"/>
<polygon fill="#191970" stroke="#191970" points="800.4253,-80.1542 790.839,-75.6427 795.5195,-85.1476 800.4253,-80.1542"/>
</g>
<!-- Node7&#45;&gt;Node3 -->
<g id="edge8" class="edge">
<title>Node7&#45;&gt;Node3</title>
<path fill="none" stroke="#191970" d="M713.7408,-56.4369C644.3642,-46.5763 536.3503,-31.224 463.7087,-20.8993"/>
<polygon fill="#191970" stroke="#191970" points="464.0941,-17.419 453.7011,-19.4769 463.109,-24.3494 464.0941,-17.419"/>
</g>
<!-- Node7&#45;&gt;Node8 -->
<g id="edge9" class="edge">
<title>Node7&#45;&gt;Node8</title>
<path fill="none" stroke="#191970" d="M830.5474,-56.4369C887.5722,-45.4252 980.0625,-27.565 1032.1542,-17.5059"/>
<polygon fill="#191970" stroke="#191970" points="1032.8565,-20.9351 1042.0114,-15.6025 1031.5292,-14.062 1032.8565,-20.9351"/>
</g>
<!-- Node10&#45;&gt;Node3 -->
<g id="edge14" class="edge">
<title>Node10&#45;&gt;Node3</title>
<path fill="none" stroke="#191970" d="M707.3874,-560.9719C552.7887,-522.1744 156.0242,-410.8332 156.0242,-290 156.0242,-290 156.0242,-290 156.0242,-122 156.0242,-87.2309 169.7548,-76.2418 198.0242,-56 217.2095,-42.2627 271.7687,-29.8158 317.3648,-21.3441"/>
<polygon fill="#191970" stroke="#191970" points="318.029,-24.7808 327.2394,-19.5446 316.7739,-17.8943 318.029,-24.7808"/>
</g>
<!-- Node10&#45;&gt;Node4 -->
<g id="edge43" class="edge">
<title>Node10&#45;&gt;Node4</title>
<path fill="none" stroke="#191970" d="M775.8323,-560.3736C801.9882,-509.2217 887.7516,-337.552 939.0242,-188 951.0707,-152.8625 959.5133,-110.2578 963.794,-85.8222"/>
<polygon fill="#191970" stroke="#191970" points="967.2924,-86.1258 965.5125,-75.6816 960.3908,-84.9562 967.2924,-86.1258"/>
</g>
<!-- Node11 -->
<g id="node11" class="node">
<title>Node11</title>
<g id="a_node11"><a xlink:href="../../de/d76/Array_8hpp.html" target="_top" xlink:title=" ">
<polygon fill="#ffffff" stroke="#000000" points="218.0242,-504.5 218.0242,-523.5 344.0242,-523.5 344.0242,-504.5 218.0242,-504.5"/>
<text text-anchor="middle" x="281.0242" y="-511.5" font-family="Helvetica,sans-Serif" font-size="10.00" fill="#000000">AH/Containers/Array.hpp</text>
</a>
</g>
</g>
<!-- Node10&#45;&gt;Node11 -->
<g id="edge15" class="edge">
<title>Node10&#45;&gt;Node11</title>
<path fill="none" stroke="#191970" d="M707.2318,-567.9447C627.1734,-557.9764 482.0234,-539.8396 358.0242,-524 356.7455,-523.8367 355.4549,-523.6716 354.1551,-523.5051"/>
<polygon fill="#191970" stroke="#191970" points="354.418,-520.0102 344.0535,-522.2075 353.526,-526.9531 354.418,-520.0102"/>
</g>
<!-- Node21 -->
<g id="node21" class="node">
<title>Node21</title>
<g id="a_node21"><a xlink:title=" ">
<polygon fill="#ffffff" stroke="#bfbfbf" points="984.5242,-224.5 984.5242,-243.5 1033.5242,-243.5 1033.5242,-224.5 984.5242,-224.5"/>
<text text-anchor="middle" x="1009.0242" y="-231.5" font-family="Helvetica,sans-Serif" font-size="10.00" fill="#000000">stdint.h</text>
</a>
</g>
</g>
<!-- Node10&#45;&gt;Node21 -->
<g id="edge44" class="edge">
<title>Node10&#45;&gt;Node21</title>
<path fill="none" stroke="#191970" d="M805.7621,-560.3018C822.6019,-551.8386 841.4395,-539.7847 854.0242,-524 892.4881,-475.7555 857.4487,-439.337 897.0242,-392 918.7063,-366.0655 941.8474,-381.5129 964.0242,-356 989.9556,-326.1676 1001.4658,-280.0734 1006.1512,-253.9168"/>
<polygon fill="#191970" stroke="#191970" points="1009.6569,-254.164 1007.8076,-243.7318 1002.7477,-253.0403 1009.6569,-254.164"/>
</g>
<!-- Node11&#45;&gt;Node3 -->
<g id="edge16" class="edge">
<title>Node11&#45;&gt;Node3</title>
<path fill="none" stroke="#191970" d="M238.6233,-504.4558C190.3272,-490.7844 118.0242,-460.5413 118.0242,-402 118.0242,-402 118.0242,-402 118.0242,-122 118.0242,-90.7875 118.2283,-76.1985 142.0242,-56 166.9886,-34.8096 248.0467,-22.598 310.1597,-16.1544"/>
<polygon fill="#191970" stroke="#191970" points="310.7441,-19.6134 320.3442,-15.1313 310.0444,-12.6484 310.7441,-19.6134"/>
</g>
<!-- Node11&#45;&gt;Node9 -->
<g id="edge41" class="edge">
<title>Node11&#45;&gt;Node9</title>
<path fill="none" stroke="#191970" d="M263.9675,-504.377C251.7153,-496.4014 236.1533,-483.8248 229.0242,-468 225.3731,-459.8956 226.7235,-456.586 229.0242,-448 251.3402,-364.7193 266.8809,-342.7356 326.0242,-280 357.057,-247.0822 370.4311,-243.9705 411.0242,-224 495.1649,-182.6054 600.3276,-150.6798 659.9664,-134.26"/>
<polygon fill="#191970" stroke="#191970" points="661.1192,-137.5736 669.8469,-131.5672 659.2785,-130.8199 661.1192,-137.5736"/>
</g>
<!-- Node12 -->
<g id="node12" class="node">
<title>Node12</title>
<g id="a_node12"><a xlink:href="../../d1/d93/Error_8hpp.html" target="_top" xlink:title=" ">
<polygon fill="#ffffff" stroke="#000000" points="418.0242,-448.5 418.0242,-467.5 516.0242,-467.5 516.0242,-448.5 418.0242,-448.5"/>
<text text-anchor="middle" x="467.0242" y="-455.5" font-family="Helvetica,sans-Serif" font-size="10.00" fill="#000000">AH/Error/Error.hpp</text>
</a>
</g>
</g>
<!-- Node11&#45;&gt;Node12 -->
<g id="edge17" class="edge">
<title>Node11&#45;&gt;Node12</title>
<path fill="none" stroke="#191970" d="M312.9987,-504.3733C344.1955,-494.9807 391.7951,-480.6496 425.8174,-470.4064"/>
<polygon fill="#191970" stroke="#191970" points="426.9005,-473.7355 435.4669,-467.5011 424.8824,-467.0327 426.9005,-473.7355"/>
</g>
<!-- Node20 -->
<g id="node20" class="node">
<title>Node20</title>
<g id="a_node20"><a xlink:title=" ">
<polygon fill="#ffffff" stroke="#bfbfbf" points="435.0242,-224.5 435.0242,-243.5 487.0242,-243.5 487.0242,-224.5 435.0242,-224.5"/>
<text text-anchor="middle" x="461.0242" y="-231.5" font-family="Helvetica,sans-Serif" font-size="10.00" fill="#000000">stddef.h</text>
</a>
</g>
</g>
<!-- Node11&#45;&gt;Node20 -->
<g id="edge42" class="edge">
<title>Node11&#45;&gt;Node20</title>
<path fill="none" stroke="#191970" d="M344.0519,-511.45C453.0668,-506.3869 667.4052,-493.3055 690.0242,-468 810.0086,-333.7645 556.4062,-363.0778 547.0242,-356 515.8659,-332.4942 526.0938,-311.4826 503.0242,-280 495.5646,-269.8201 486.1778,-259.362 478.1712,-250.9949"/>
<polygon fill="#191970" stroke="#191970" points="480.5207,-248.3915 471.0256,-243.6909 475.5169,-253.2867 480.5207,-248.3915"/>
</g>
<!-- Node24 -->
<g id="node24" class="node">
<title>Node24</title>
<g id="a_node24"><a xlink:title=" ">
<polygon fill="#ffffff" stroke="#bfbfbf" points="238.5242,-448.5 238.5242,-467.5 323.5242,-467.5 323.5242,-448.5 238.5242,-448.5"/>
<text text-anchor="middle" x="281.0242" y="-455.5" font-family="Helvetica,sans-Serif" font-size="10.00" fill="#000000">AH/STL/iterator</text>
</a>
</g>
</g>
<!-- Node11&#45;&gt;Node24 -->
<g id="edge40" class="edge">
<title>Node11&#45;&gt;Node24</title>
<path fill="none" stroke="#191970" d="M281.0242,-504.2455C281.0242,-496.9382 281.0242,-486.6944 281.0242,-477.7046"/>
<polygon fill="#191970" stroke="#191970" points="284.5243,-477.6426 281.0242,-467.6427 277.5243,-477.6427 284.5243,-477.6426"/>
</g>
<!-- Node12&#45;&gt;Node3 -->
<g id="edge18" class="edge">
<title>Node12&#45;&gt;Node3</title>
<path fill="none" stroke="#191970" d="M440.1902,-448.407C379.2319,-426.4187 234.3282,-372.9699 218.0242,-356 196.3996,-333.4923 194.0242,-321.2125 194.0242,-290 194.0242,-290 194.0242,-290 194.0242,-122 194.0242,-90.7875 195.0567,-77.1357 218.0242,-56 233.3206,-41.9235 280.485,-29.7617 321.1135,-21.4846"/>
<polygon fill="#191970" stroke="#191970" points="321.8828,-24.9003 331.0084,-19.5176 320.5179,-18.0346 321.8828,-24.9003"/>
</g>
<!-- Node13 -->
<g id="node13" class="node">
<title>Node13</title>
<g id="a_node13"><a xlink:href="../../df/dee/Debug_8hpp.html" target="_top" xlink:title=" ">
<polygon fill="#ffffff" stroke="#000000" points="436.5242,-392.5 436.5242,-411.5 549.5242,-411.5 549.5242,-392.5 436.5242,-392.5"/>
<text text-anchor="middle" x="493.0242" y="-399.5" font-family="Helvetica,sans-Serif" font-size="10.00" fill="#000000">AH/Debug/Debug.hpp</text>
</a>
</g>
</g>
<!-- Node12&#45;&gt;Node13 -->
<g id="edge19" class="edge">
<title>Node12&#45;&gt;Node13</title>
<path fill="none" stroke="#191970" d="M471.553,-448.2455C475.0575,-440.6973 480.0168,-430.0158 484.2864,-420.8197"/>
<polygon fill="#191970" stroke="#191970" points="487.5106,-422.1867 488.5472,-411.6427 481.1615,-419.2389 487.5106,-422.1867"/>
</g>
<!-- Node13&#45;&gt;Node3 -->
<g id="edge20" class="edge">
<title>Node13&#45;&gt;Node3</title>
<path fill="none" stroke="#191970" d="M458.6691,-392.4424C396.1158,-374.0153 270.0242,-331.6992 270.0242,-290 270.0242,-290 270.0242,-290 270.0242,-122 270.0242,-74.9642 319.977,-41.5778 354.6031,-24.0853"/>
<polygon fill="#191970" stroke="#191970" points="356.4367,-27.0861 363.9087,-19.5748 353.3835,-20.787 356.4367,-27.0861"/>
</g>
<!-- Node14 -->
<g id="node14" class="node">
<title>Node14</title>
<g id="a_node14"><a xlink:href="../../dd/d80/PrintStream_8hpp.html" target="_top" xlink:title=" ">
<polygon fill="#ffffff" stroke="#000000" points="335.5242,-280.5 335.5242,-299.5 494.5242,-299.5 494.5242,-280.5 335.5242,-280.5"/>
<text text-anchor="middle" x="415.0242" y="-287.5" font-family="Helvetica,sans-Serif" font-size="10.00" fill="#000000">AH/PrintStream/PrintStream.hpp</text>
</a>
</g>
</g>
<!-- Node13&#45;&gt;Node14 -->
<g id="edge21" class="edge">
<title>Node13&#45;&gt;Node14</title>
<path fill="none" stroke="#191970" d="M491.5345,-392.286C489.084,-378.703 483.2067,-353.7143 471.0242,-336 462.7545,-323.9753 450.4823,-313.4037 439.5322,-305.4371"/>
<polygon fill="#191970" stroke="#191970" points="441.3508,-302.4393 431.1357,-299.6284 437.3683,-308.196 441.3508,-302.4393"/>
</g>
<!-- Node15 -->
<g id="node15" class="node">
<title>Node15</title>
<g id="a_node15"><a xlink:href="../../de/dd1/AH_2Settings_2SettingsWrapper_8hpp.html" target="_top" xlink:title=" ">
<polygon fill="#ffffff" stroke="#000000" points="556.0242,-336.5 556.0242,-355.5 720.0242,-355.5 720.0242,-336.5 556.0242,-336.5"/>
<text text-anchor="middle" x="638.0242" y="-343.5" font-family="Helvetica,sans-Serif" font-size="10.00" fill="#000000">AH/Settings/SettingsWrapper.hpp</text>
</a>
</g>
</g>
<!-- Node13&#45;&gt;Node15 -->
<g id="edge24" class="edge">
<title>Node13&#45;&gt;Node15</title>
<path fill="none" stroke="#191970" d="M512.7085,-392.3733C534.8051,-383.1419 570.8758,-369.1402 598.7317,-358.9375"/>
<polygon fill="#191970" stroke="#191970" points="599.9985,-362.2012 608.2058,-355.5011 597.6116,-355.6207 599.9985,-362.2012"/>
</g>
<!-- Node23 -->
<g id="node23" class="node">
<title>Node23</title>
<g id="a_node23"><a xlink:href="../../d7/d52/DebugVal_8hpp.html" target="_top" xlink:title=" ">
<polygon fill="#ffffff" stroke="#000000" points="384.0242,-336.5 384.0242,-355.5 462.0242,-355.5 462.0242,-336.5 384.0242,-336.5"/>
<text text-anchor="middle" x="423.0242" y="-343.5" font-family="Helvetica,sans-Serif" font-size="10.00" fill="#000000">DebugVal.hpp</text>
</a>
</g>
</g>
<!-- Node13&#45;&gt;Node23 -->
<g id="edge39" class="edge">
<title>Node13&#45;&gt;Node23</title>
<path fill="none" stroke="#191970" d="M480.8311,-392.2455C470.3921,-383.8943 455.1587,-371.7076 442.9502,-361.9408"/>
<polygon fill="#191970" stroke="#191970" points="445.0727,-359.1566 435.0775,-355.6427 440.6998,-364.6227 445.0727,-359.1566"/>
</g>
<!-- Node14&#45;&gt;Node3 -->
<g id="edge22" class="edge">
<title>Node14&#45;&gt;Node3</title>
<path fill="none" stroke="#191970" d="M407.8859,-280.3839C394.7378,-261.6891 368.0242,-218.6982 368.0242,-178 368.0242,-178 368.0242,-178 368.0242,-122 368.0242,-89.2688 376.0094,-51.9052 381.6264,-29.6716"/>
<polygon fill="#191970" stroke="#191970" points="385.0657,-30.3545 384.2206,-19.7934 378.2953,-28.5763 385.0657,-30.3545"/>
</g>
<!-- Node14&#45;&gt;Node5 -->
<g id="edge23" class="edge">
<title>Node14&#45;&gt;Node5</title>
<path fill="none" stroke="#191970" d="M413.4206,-280.3073C411.6321,-265.8074 410.7467,-238.6142 426.0242,-224 448.0706,-202.9106 634.4499,-188.3624 737.377,-181.8553"/>
<polygon fill="#191970" stroke="#191970" points="737.6098,-185.3476 747.3726,-181.232 737.1741,-178.3612 737.6098,-185.3476"/>
</g>
<!-- Node15&#45;&gt;Node3 -->
<g id="edge25" class="edge">
<title>Node15&#45;&gt;Node3</title>
<path fill="none" stroke="#191970" d="M623.6862,-336.2538C611.2495,-327.4756 593.0863,-313.857 579.0242,-300 490.2862,-212.5569 419.8698,-77.6911 395.8831,-28.6433"/>
<polygon fill="#191970" stroke="#191970" points="398.9809,-27.0095 391.4794,-19.5276 392.6778,-30.0544 398.9809,-27.0095"/>
</g>
<!-- Node15&#45;&gt;Node4 -->
<g id="edge26" class="edge">
<title>Node15&#45;&gt;Node4</title>
<path fill="none" stroke="#191970" d="M718.2611,-336.4925C770.9256,-328.8637 833.8381,-316.6691 855.0242,-300 891.628,-271.2002 942.1908,-136.2005 960.2656,-85.3982"/>
<polygon fill="#191970" stroke="#191970" points="963.678,-86.2453 963.7013,-75.6505 957.0761,-83.9183 963.678,-86.2453"/>
</g>
<!-- Node15&#45;&gt;Node13 -->
<g id="edge38" class="edge">
<title>Node15&#45;&gt;Node13</title>
<path fill="none" stroke="#191970" d="M618.6403,-355.5011C596.6712,-364.6889 560.6273,-378.686 532.6971,-388.9231"/>
<polygon fill="#191970" stroke="#191970" points="531.3982,-385.6711 523.1926,-392.3733 533.7867,-392.251 531.3982,-385.6711"/>
</g>
<!-- Node16 -->
<g id="node16" class="node">
<title>Node16</title>
<g id="a_node16"><a xlink:href="../../d5/d4f/AH_2Settings_2Settings_8hpp.html" target="_top" xlink:title="All user settings and debugging options can be changed here.">
<polygon fill="#ffffff" stroke="#000000" points="588.5242,-280.5 588.5242,-299.5 659.5242,-299.5 659.5242,-280.5 588.5242,-280.5"/>
<text text-anchor="middle" x="624.0242" y="-287.5" font-family="Helvetica,sans-Serif" font-size="10.00" fill="#000000">Settings.hpp</text>
</a>
</g>
</g>
<!-- Node15&#45;&gt;Node16 -->
<g id="edge27" class="edge">
<title>Node15&#45;&gt;Node16</title>
<path fill="none" stroke="#191970" d="M635.5855,-336.2455C633.7386,-328.8579 631.1414,-318.4689 628.8763,-309.4087"/>
<polygon fill="#191970" stroke="#191970" points="632.2558,-308.4952 626.4348,-299.6427 625.4648,-310.193 632.2558,-308.4952"/>
</g>
<!-- Node22 -->
<g id="node22" class="node">
<title>Node22</title>
<g id="a_node22"><a xlink:href="../../d9/d98/TeensyUSBTypes_8hpp.html" target="_top" xlink:title=" ">
<polygon fill="#ffffff" stroke="#000000" points="678.0242,-280.5 678.0242,-299.5 846.0242,-299.5 846.0242,-280.5 678.0242,-280.5"/>
<text text-anchor="middle" x="762.0242" y="-287.5" font-family="Helvetica,sans-Serif" font-size="10.00" fill="#000000">AH/Teensy/TeensyUSBTypes.hpp</text>
</a>
</g>
</g>
<!-- Node15&#45;&gt;Node22 -->
<g id="edge37" class="edge">
<title>Node15&#45;&gt;Node22</title>
<path fill="none" stroke="#191970" d="M659.3405,-336.3733C679.2457,-327.3838 709.1677,-313.8706 731.5842,-303.7471"/>
<polygon fill="#191970" stroke="#191970" points="733.3128,-306.8068 740.986,-299.5011 730.4317,-300.4272 733.3128,-306.8068"/>
</g>
<!-- Node17 -->
<g id="node17" class="node">
<title>Node17</title>
<g id="a_node17"><a xlink:href="../../dc/d50/Frequency_8hpp.html" target="_top" xlink:title=" ">
<polygon fill="#ffffff" stroke="#000000" points="510.0242,-112.5 510.0242,-131.5 638.0242,-131.5 638.0242,-112.5 510.0242,-112.5"/>
<text text-anchor="middle" x="574.0242" y="-119.5" font-family="Helvetica,sans-Serif" font-size="10.00" fill="#000000">AH/Types/Frequency.hpp</text>
</a>
</g>
</g>
<!-- Node16&#45;&gt;Node17 -->
<g id="edge28" class="edge">
<title>Node16&#45;&gt;Node17</title>
<path fill="none" stroke="#191970" d="M651.6826,-280.3765C678.1243,-269.4363 712.2892,-249.709 700.0242,-224 680.256,-182.5635 634.5205,-152.5189 603.9374,-136.1728"/>
<polygon fill="#191970" stroke="#191970" points="605.4687,-133.0245 594.978,-131.5422 602.2546,-139.243 605.4687,-133.0245"/>
</g>
<!-- Node18 -->
<g id="node18" class="node">
<title>Node18</title>
<g id="a_node18"><a xlink:href="../../d7/d7c/ADCConfig_8hpp.html" target="_top" xlink:title="This file contains the platform&#45;specific ADC resolutions. By default, the library automatically selec...">
<polygon fill="#ffffff" stroke="#000000" points="543.0242,-224.5 543.0242,-243.5 691.0242,-243.5 691.0242,-224.5 543.0242,-224.5"/>
<text text-anchor="middle" x="617.0242" y="-231.5" font-family="Helvetica,sans-Serif" font-size="10.00" fill="#000000">AH/Hardware/ADCConfig.hpp</text>
</a>
</g>
</g>
<!-- Node16&#45;&gt;Node18 -->
<g id="edge31" class="edge">
<title>Node16&#45;&gt;Node18</title>
<path fill="none" stroke="#191970" d="M622.8049,-280.2455C621.8914,-272.9382 620.611,-262.6944 619.4872,-253.7046"/>
<polygon fill="#191970" stroke="#191970" points="622.9429,-253.1313 618.2295,-243.6427 615.997,-253.9996 622.9429,-253.1313"/>
</g>
<!-- Node19 -->
<g id="node19" class="node">
<title>Node19</title>
<g id="a_node19"><a xlink:title=" ">
<polygon fill="#ffffff" stroke="#bfbfbf" points="747.0242,-224.5 747.0242,-243.5 795.0242,-243.5 795.0242,-224.5 747.0242,-224.5"/>
<text text-anchor="middle" x="771.0242" y="-231.5" font-family="Helvetica,sans-Serif" font-size="10.00" fill="#000000">limits.h</text>
</a>
</g>
</g>
<!-- Node16&#45;&gt;Node19 -->
<g id="edge34" class="edge">
<title>Node16&#45;&gt;Node19</title>
<path fill="none" stroke="#191970" d="M649.2944,-280.3733C673.567,-271.1265 710.4037,-257.0935 737.1972,-246.8865"/>
<polygon fill="#191970" stroke="#191970" points="738.4733,-250.1458 746.5722,-243.315 735.9813,-243.6043 738.4733,-250.1458"/>
</g>
<!-- Node16&#45;&gt;Node20 -->
<g id="edge35" class="edge">
<title>Node16&#45;&gt;Node20</title>
<path fill="none" stroke="#191970" d="M596.0035,-280.3733C568.5257,-270.933 526.5272,-256.5041 496.6827,-246.2508"/>
<polygon fill="#191970" stroke="#191970" points="497.6607,-242.8861 487.0661,-242.9469 495.3863,-249.5063 497.6607,-242.8861"/>
</g>
<!-- Node16&#45;&gt;Node21 -->
<g id="edge36" class="edge">
<title>Node16&#45;&gt;Node21</title>
<path fill="none" stroke="#191970" d="M659.8308,-281.7577C662.9337,-281.1302 666.0303,-280.5342 669.0242,-280 779.8893,-260.2182 912.4437,-244.5658 974.1832,-237.7329"/>
<polygon fill="#191970" stroke="#191970" points="974.6112,-241.207 984.1694,-236.6364 973.8471,-234.2488 974.6112,-241.207"/>
</g>
<!-- Node17&#45;&gt;Node3 -->
<g id="edge29" class="edge">
<title>Node17&#45;&gt;Node3</title>
<path fill="none" stroke="#191970" d="M564.6762,-112.4216C550.7408,-98.5517 523.232,-72.7112 496.0242,-56 474.0167,-42.4829 447.3314,-31.1466 425.873,-23.1099"/>
<polygon fill="#191970" stroke="#191970" points="427.011,-19.7994 416.4171,-19.6535 424.6078,-26.3739 427.011,-19.7994"/>
</g>
<!-- Node17&#45;&gt;Node4 -->
<g id="edge30" class="edge">
<title>Node17&#45;&gt;Node4</title>
<path fill="none" stroke="#191970" d="M638.0411,-112.878C706.9041,-103.0654 816.4001,-87.463 889.9437,-76.9835"/>
<polygon fill="#191970" stroke="#191970" points="890.6682,-80.4157 900.0744,-75.5399 889.6807,-73.4857 890.6682,-80.4157"/>
</g>
<!-- Node18&#45;&gt;Node3 -->
<g id="edge32" class="edge">
<title>Node18&#45;&gt;Node3</title>
<path fill="none" stroke="#191970" d="M605.1612,-224.2315C583.7781,-206.4803 537.5938,-167.4799 501.0242,-132 464.174,-96.2479 423.7454,-51.5685 402.3292,-27.4285"/>
<polygon fill="#191970" stroke="#191970" points="404.8283,-24.9709 395.584,-19.7947 399.5827,-29.606 404.8283,-24.9709"/>
</g>
<!-- Node18&#45;&gt;Node5 -->
<g id="edge33" class="edge">
<title>Node18&#45;&gt;Node5</title>
<path fill="none" stroke="#191970" d="M649.3425,-224.3733C680.8747,-214.9807 728.9862,-200.6496 763.3743,-190.4064"/>
<polygon fill="#191970" stroke="#191970" points="764.5429,-193.7103 773.1275,-187.5011 762.5445,-187.0016 764.5429,-193.7103"/>
</g>
<!-- Node25&#45;&gt;Node1 -->
<g id="edge70" class="edge">
<title>Node25&#45;&gt;Node1</title>
<path fill="none" stroke="#191970" d="M1048.2693,-814.6427C1049.6906,-821.9199 1050.1051,-832.155 1049.5128,-841.1575"/>
<polygon fill="#191970" stroke="#191970" points="1046.0189,-840.8972 1048.291,-851.2455 1052.9681,-841.739 1046.0189,-840.8972"/>
</g>
<!-- Node25&#45;&gt;Node2 -->
<g id="edge47" class="edge">
<title>Node25&#45;&gt;Node2</title>
<path fill="none" stroke="#191970" d="M1047.0449,-795.4862C1058.3655,-768.6994 1090.6717,-692.2565 1105.8977,-656.2289"/>
<polygon fill="#191970" stroke="#191970" points="1109.2017,-657.4016 1109.8707,-646.8279 1102.7539,-654.6766 1109.2017,-657.4016"/>
</g>
<!-- Node25&#45;&gt;Node3 -->
<g id="edge46" class="edge">
<title>Node25&#45;&gt;Node3</title>
<path fill="none" stroke="#191970" d="M1096.3341,-795.483C1179.3323,-779.1299 1330.0242,-742.6083 1330.0242,-693 1330.0242,-693 1330.0242,-693 1330.0242,-122 1330.0242,-62.297 1270.3252,-72.7641 1213.0242,-56 1142.3851,-35.3337 655.3045,-18.2709 463.9579,-12.2905"/>
<polygon fill="#191970" stroke="#191970" points="463.805,-8.7842 453.701,-11.9717 463.5874,-15.7808 463.805,-8.7842"/>
</g>
<!-- Node26 -->
<g id="node26" class="node">
<title>Node26</title>
<g id="a_node26"><a xlink:href="../../d2/d05/StaticSizeExtendedIOElement_8hpp.html" target="_top" xlink:title=" ">
<polygon fill="#ffffff" stroke="#000000" points="361.0242,-739.5 361.0242,-758.5 529.0242,-758.5 529.0242,-739.5 361.0242,-739.5"/>
<text text-anchor="middle" x="445.0242" y="-746.5" font-family="Helvetica,sans-Serif" font-size="10.00" fill="#000000">StaticSizeExtendedIOElement.hpp</text>
</a>
</g>
</g>
<!-- Node25&#45;&gt;Node26 -->
<g id="edge48" class="edge">
<title>Node25&#45;&gt;Node26</title>
<path fill="none" stroke="#191970" d="M977.3171,-798.8468C871.0774,-788.898 661.1893,-769.2429 539.113,-757.811"/>
<polygon fill="#191970" stroke="#191970" points="539.3127,-754.3145 529.0299,-756.8668 538.66,-761.284 539.3127,-754.3145"/>
</g>
<!-- Node33 -->
<g id="node33" class="node">
<title>Node33</title>
<g id="a_node33"><a xlink:href="../../d1/d40/BitArray_8hpp.html" target="_top" xlink:title=" ">
<polygon fill="#ffffff" stroke="#000000" points="1088.0242,-504.5 1088.0242,-523.5 1226.0242,-523.5 1226.0242,-504.5 1088.0242,-504.5"/>
<text text-anchor="middle" x="1157.0242" y="-511.5" font-family="Helvetica,sans-Serif" font-size="10.00" fill="#000000">AH/Containers/BitArray.hpp</text>
</a>
</g>
</g>
<!-- Node25&#45;&gt;Node33 -->
<g id="edge65" class="edge">
<title>Node25&#45;&gt;Node33</title>
<path fill="none" stroke="#191970" d="M1039.9255,-795.2275C1034.084,-775.9094 1022.0242,-731.3796 1022.0242,-693 1022.0242,-693 1022.0242,-693 1022.0242,-637 1022.0242,-582.696 1082.4488,-545.9996 1122.4473,-527.6569"/>
<polygon fill="#191970" stroke="#191970" points="1123.8988,-530.8421 1131.6317,-523.5996 1121.0702,-524.439 1123.8988,-530.8421"/>
</g>
<!-- Node26&#45;&gt;Node3 -->
<g id="edge49" class="edge">
<title>Node26&#45;&gt;Node3</title>
<path fill="none" stroke="#191970" d="M360.7999,-744.9037C231.7898,-736.2962 .0242,-710.5918 .0242,-637 .0242,-637 .0242,-637 .0242,-514 .0242,-437.4471 38.0242,-422.5529 38.0242,-346 38.0242,-346 38.0242,-346 38.0242,-122 38.0242,-84.3794 58.4549,-74.8296 91.0242,-56 127.252,-35.0552 234.9056,-22.2653 309.8669,-15.6544"/>
<polygon fill="#191970" stroke="#191970" points="310.554,-19.1083 320.2164,-14.7624 309.9528,-12.1341 310.554,-19.1083"/>
</g>
<!-- Node27 -->
<g id="node27" class="node">
<title>Node27</title>
<g id="a_node27"><a xlink:href="../../d4/d57/ExtendedIOElement_8hpp.html" target="_top" xlink:title=" ">
<polygon fill="#ffffff" stroke="#000000" points="546.5242,-683.5 546.5242,-702.5 669.5242,-702.5 669.5242,-683.5 546.5242,-683.5"/>
<text text-anchor="middle" x="608.0242" y="-690.5" font-family="Helvetica,sans-Serif" font-size="10.00" fill="#000000">ExtendedIOElement.hpp</text>
</a>
</g>
</g>
<!-- Node26&#45;&gt;Node27 -->
<g id="edge50" class="edge">
<title>Node26&#45;&gt;Node27</title>
<path fill="none" stroke="#191970" d="M473.0449,-739.3733C500.032,-730.1016 541.0259,-716.0178 570.7553,-705.804"/>
<polygon fill="#191970" stroke="#191970" points="572.0489,-709.0605 580.3691,-702.5011 569.7744,-702.4403 572.0489,-709.0605"/>
</g>
<!-- Node31 -->
<g id="node31" class="node">
<title>Node31</title>
<g id="a_node31"><a xlink:href="../../d5/db6/ArrayHelpers_8hpp.html" target="_top" xlink:title=" ">
<polygon fill="#ffffff" stroke="#000000" points="201.0242,-566 201.0242,-585 361.0242,-585 361.0242,-566 201.0242,-566"/>
<text text-anchor="middle" x="281.0242" y="-573" font-family="Helvetica,sans-Serif" font-size="10.00" fill="#000000">AH/Containers/ArrayHelpers.hpp</text>
</a>
</g>
</g>
<!-- Node26&#45;&gt;Node31 -->
<g id="edge60" class="edge">
<title>Node26&#45;&gt;Node31</title>
<path fill="none" stroke="#191970" d="M435.9732,-739.4248C409.3787,-711.2897 331.2141,-628.5973 297.1741,-592.5855"/>
<polygon fill="#191970" stroke="#191970" points="299.6622,-590.1225 290.2493,-585.2595 294.5751,-594.9311 299.6622,-590.1225"/>
</g>
<!-- Node27&#45;&gt;Node2 -->
<g id="edge52" class="edge">
<title>Node27&#45;&gt;Node2</title>
<path fill="none" stroke="#191970" d="M669.5638,-686.1893C762.7597,-675.8751 939.4268,-656.323 1039.6764,-645.2282"/>
<polygon fill="#191970" stroke="#191970" points="1040.174,-648.6946 1049.7283,-644.1157 1039.404,-641.7371 1040.174,-648.6946"/>
</g>
<!-- Node27&#45;&gt;Node3 -->
<g id="edge51" class="edge">
<title>Node27&#45;&gt;Node3</title>
<path fill="none" stroke="#191970" d="M546.4826,-686.7457C399.0931,-670.9398 38.0242,-626.9668 38.0242,-575.5 38.0242,-575.5 38.0242,-575.5 38.0242,-514 38.0242,-437.4471 .0242,-422.5529 .0242,-346 .0242,-346 .0242,-346 .0242,-122 .0242,-90.7875 -.3624,-75.4812 24.0242,-56 45.9471,-38.4869 210.5159,-23.2366 310.3899,-15.4677"/>
<polygon fill="#191970" stroke="#191970" points="310.7407,-18.9511 320.4426,-14.6939 310.2034,-11.9717 310.7407,-18.9511"/>
</g>
<!-- Node27&#45;&gt;Node10 -->
<g id="edge59" class="edge">
<title>Node27&#45;&gt;Node10</title>
<path fill="none" stroke="#191970" d="M621.1176,-683.3845C646.7813,-664.5377 704.2353,-622.345 739.2033,-596.6654"/>
<polygon fill="#191970" stroke="#191970" points="741.5875,-599.2568 747.5759,-590.5167 737.4442,-593.6148 741.5875,-599.2568"/>
</g>
<!-- Node28 -->
<g id="node28" class="node">
<title>Node28</title>
<g id="a_node28"><a xlink:href="../../de/dd1/LinkedList_8hpp.html" target="_top" xlink:title=" ">
<polygon fill="#ffffff" stroke="#000000" points="534.5242,-448.5 534.5242,-467.5 681.5242,-467.5 681.5242,-448.5 534.5242,-448.5"/>
<text text-anchor="middle" x="608.0242" y="-455.5" font-family="Helvetica,sans-Serif" font-size="10.00" fill="#000000">AH/Containers/LinkedList.hpp</text>
</a>
</g>
</g>
<!-- Node27&#45;&gt;Node28 -->
<g id="edge53" class="edge">
<title>Node27&#45;&gt;Node28</title>
<path fill="none" stroke="#191970" d="M608.0242,-683.4967C608.0242,-648.4391 608.0242,-525.9096 608.0242,-477.7"/>
<polygon fill="#191970" stroke="#191970" points="611.5243,-477.6216 608.0242,-467.6216 604.5243,-477.6216 611.5243,-477.6216"/>
</g>
<!-- Node28&#45;&gt;Node3 -->
<g id="edge54" class="edge">
<title>Node28&#45;&gt;Node3</title>
<path fill="none" stroke="#191970" d="M558.7586,-448.4765C521.8618,-440.6288 470.4771,-428.1706 427.0242,-412 374.8655,-392.5897 361.947,-385.9254 315.0242,-356 275.2875,-330.6576 232.0242,-337.13 232.0242,-290 232.0242,-290 232.0242,-290 232.0242,-122 232.0242,-68.4908 293.4627,-37.9645 338.9782,-22.6916"/>
<polygon fill="#191970" stroke="#191970" points="340.2548,-25.9579 348.7095,-19.5729 338.1184,-19.2918 340.2548,-25.9579"/>
</g>
<!-- Node28&#45;&gt;Node6 -->
<g id="edge56" class="edge">
<title>Node28&#45;&gt;Node6</title>
<path fill="none" stroke="#191970" d="M638.1718,-448.4172C691.9668,-429.5834 803.6633,-382.2554 855.0242,-300 886.3237,-249.8733 889.1167,-224.2584 871.0242,-168 867.6296,-157.4445 860.8184,-147.2592 854.2611,-139.1676"/>
<polygon fill="#191970" stroke="#191970" points="856.8673,-136.8307 847.6734,-131.5654 851.5772,-141.4149 856.8673,-136.8307"/>
</g>
<!-- Node28&#45;&gt;Node13 -->
<g id="edge55" class="edge">
<title>Node28&#45;&gt;Node13</title>
<path fill="none" stroke="#191970" d="M588.255,-448.3733C569.8772,-439.4241 542.2929,-425.9917 521.5349,-415.8835"/>
<polygon fill="#191970" stroke="#191970" points="523.0584,-412.7325 512.5354,-411.5011 519.9937,-419.026 523.0584,-412.7325"/>
</g>
<!-- Node29 -->
<g id="node29" class="node">
<title>Node29</title>
<g id="a_node29"><a xlink:title=" ">
<polygon fill="#ffffff" stroke="#bfbfbf" points="568.0242,-392.5 568.0242,-411.5 616.0242,-411.5 616.0242,-392.5 568.0242,-392.5"/>
<text text-anchor="middle" x="592.0242" y="-399.5" font-family="Helvetica,sans-Serif" font-size="10.00" fill="#000000">stdlib.h</text>
</a>
</g>
</g>
<!-- Node28&#45;&gt;Node29 -->
<g id="edge57" class="edge">
<title>Node28&#45;&gt;Node29</title>
<path fill="none" stroke="#191970" d="M605.2372,-448.2455C603.1264,-440.8579 600.1581,-430.4689 597.5695,-421.4087"/>
<polygon fill="#191970" stroke="#191970" points="600.8918,-420.2964 594.7792,-411.6427 594.1612,-422.2195 600.8918,-420.2964"/>
</g>
<!-- Node30 -->
<g id="node30" class="node">
<title>Node30</title>
<g id="a_node30"><a xlink:title=" ">
<polygon fill="#ffffff" stroke="#bfbfbf" points="634.5242,-392.5 634.5242,-411.5 681.5242,-411.5 681.5242,-392.5 634.5242,-392.5"/>
<text text-anchor="middle" x="658.0242" y="-399.5" font-family="Helvetica,sans-Serif" font-size="10.00" fill="#000000">iterator</text>
</a>
</g>
</g>
<!-- Node28&#45;&gt;Node30 -->
<g id="edge58" class="edge">
<title>Node28&#45;&gt;Node30</title>
<path fill="none" stroke="#191970" d="M616.7335,-448.2455C623.8315,-440.2958 634.0326,-428.8706 642.5192,-419.3656"/>
<polygon fill="#191970" stroke="#191970" points="645.3652,-421.4331 649.4146,-411.6427 640.1437,-416.771 645.3652,-421.4331"/>
</g>
<!-- Node31&#45;&gt;Node3 -->
<g id="edge61" class="edge">
<title>Node31&#45;&gt;Node3</title>
<path fill="none" stroke="#191970" d="M223.7707,-565.9553C176.1211,-556.9059 113.2412,-542.0324 95.0242,-524 73.3304,-502.526 76.0242,-488.5246 76.0242,-458 76.0242,-458 76.0242,-458 76.0242,-122 76.0242,-86.4973 91.1691,-75.2124 121.0242,-56 151.6224,-36.3093 242.9662,-23.5818 310.1066,-16.6147"/>
<polygon fill="#191970" stroke="#191970" points="310.6477,-20.0778 320.2437,-15.5871 309.9416,-13.1135 310.6477,-20.0778"/>
</g>
<!-- Node31&#45;&gt;Node11 -->
<g id="edge62" class="edge">
<title>Node31&#45;&gt;Node11</title>
<path fill="none" stroke="#191970" d="M281.0242,-565.8906C281.0242,-557.3657 281.0242,-544.6392 281.0242,-533.9235"/>
<polygon fill="#191970" stroke="#191970" points="284.5243,-533.7448 281.0242,-523.7449 277.5243,-533.7449 284.5243,-533.7448"/>
</g>
<!-- Node31&#45;&gt;Node14 -->
<g id="edge64" class="edge">
<title>Node31&#45;&gt;Node14</title>
<path fill="none" stroke="#191970" d="M303.1634,-565.8489C319.8046,-557.3567 341.6193,-543.3234 353.0242,-524 395.7839,-451.5518 341.0195,-412.9469 375.0242,-336 379.8367,-325.1099 388.1443,-314.9078 395.9456,-306.8919"/>
<polygon fill="#191970" stroke="#191970" points="398.6705,-309.126 403.4301,-299.6604 393.8065,-304.0919 398.6705,-309.126"/>
</g>
<!-- Node32 -->
<g id="node32" class="node">
<title>Node32</title>
<g id="a_node32"><a xlink:title=" ">
<polygon fill="#ffffff" stroke="#bfbfbf" points="104.5242,-504.5 104.5242,-523.5 199.5242,-523.5 199.5242,-504.5 104.5242,-504.5"/>
<text text-anchor="middle" x="152.0242" y="-511.5" font-family="Helvetica,sans-Serif" font-size="10.00" fill="#000000">AH/STL/algorithm</text>
</a>
</g>
</g>
<!-- Node31&#45;&gt;Node32 -->
<g id="edge63" class="edge">
<title>Node31&#45;&gt;Node32</title>
<path fill="none" stroke="#191970" d="M260.8679,-565.8906C239.4732,-555.6908 205.4622,-539.4763 181.154,-527.8875"/>
<polygon fill="#191970" stroke="#191970" points="182.5718,-524.686 172.0389,-523.5419 179.5593,-531.0047 182.5718,-524.686"/>
</g>
<!-- Node33&#45;&gt;Node3 -->
<g id="edge66" class="edge">
<title>Node33&#45;&gt;Node3</title>
<path fill="none" stroke="#191970" d="M1166.2429,-504.4119C1182.8367,-486.0983 1216.0242,-444.1966 1216.0242,-402 1216.0242,-402 1216.0242,-402 1216.0242,-234 1216.0242,-138.838 1183.5409,-95.6315 1097.0242,-56 1040.6567,-30.1792 635.996,-16.5657 464.0255,-11.8937"/>
<polygon fill="#191970" stroke="#191970" points="463.8729,-8.3884 453.7825,-11.6185 463.6849,-15.3859 463.8729,-8.3884"/>
</g>
<!-- Node33&#45;&gt;Node4 -->
<g id="edge68" class="edge">
<title>Node33&#45;&gt;Node4</title>
<path fill="none" stroke="#191970" d="M1154.5885,-504.4856C1149.8878,-485.2608 1140.0242,-440.351 1140.0242,-402 1140.0242,-402 1140.0242,-402 1140.0242,-346 1140.0242,-230.0758 1031.3779,-122.0414 986.2838,-82.1939"/>
<polygon fill="#191970" stroke="#191970" points="988.4895,-79.4738 978.6438,-75.5605 983.9001,-84.7595 988.4895,-79.4738"/>
</g>
<!-- Node33&#45;&gt;Node12 -->
<g id="edge67" class="edge">
<title>Node33&#45;&gt;Node12</title>
<path fill="none" stroke="#191970" d="M1087.6043,-511.177C972.849,-506.0195 736.2227,-493.3125 526.3115,-468.0531"/>
<polygon fill="#191970" stroke="#191970" points="526.6858,-464.5729 516.3365,-466.8408 525.8411,-471.5218 526.6858,-464.5729"/>
</g>
<!-- Node33&#45;&gt;Node21 -->
<g id="edge69" class="edge">
<title>Node33&#45;&gt;Node21</title>
<path fill="none" stroke="#191970" d="M1148.4304,-504.2985C1132.9617,-485.796 1102.0242,-443.5919 1102.0242,-402 1102.0242,-402 1102.0242,-402 1102.0242,-346 1102.0242,-303.3531 1061.6196,-268.267 1034.0745,-249.3028"/>
<polygon fill="#191970" stroke="#191970" points="1035.9205,-246.3273 1025.6507,-243.7229 1032.0548,-252.1632 1035.9205,-246.3273"/>
</g>
<!-- Node34&#45;&gt;Node3 -->
<g id="edge72" class="edge">
<title>Node34&#45;&gt;Node3</title>
<path fill="none" stroke="#191970" d="M987.7537,-392.4405C1023.0573,-371.1674 1104.434,-316.0571 1135.0242,-244 1169.805,-162.0716 1145.9824,-95.098 1066.0242,-56 1013.0667,-30.1049 630.0231,-16.6282 463.7323,-11.9452"/>
<polygon fill="#191970" stroke="#191970" points="463.6709,-8.4422 453.5774,-11.6626 463.4761,-15.4395 463.6709,-8.4422"/>
</g>
<!-- Node34&#45;&gt;Node15 -->
<g id="edge74" class="edge">
<title>Node34&#45;&gt;Node15</title>
<path fill="none" stroke="#191970" d="M914.1578,-392.4369C856.0899,-382.6717 765.9957,-367.5207 704.6275,-357.2006"/>
<polygon fill="#191970" stroke="#191970" points="705.098,-353.7306 694.656,-355.5237 703.9371,-360.6337 705.098,-353.7306"/>
</g>
<!-- Node34&#45;&gt;Node21 -->
<g id="edge73" class="edge">
<title>Node34&#45;&gt;Node21</title>
<path fill="none" stroke="#191970" d="M979.9006,-392.2607C987.296,-383.487 997.3479,-369.8711 1002.0242,-356 1013.6673,-321.4632 1012.8361,-278.3391 1011.0296,-253.706"/>
<polygon fill="#191970" stroke="#191970" points="1014.4955,-253.1611 1010.1435,-243.5013 1007.5217,-253.7666 1014.4955,-253.1611"/>
</g>
</g>
</svg>
