<?xml version="1.0" encoding="UTF-8" standalone="no"?>
<!DOCTYPE svg PUBLIC "-//W3C//DTD SVG 1.1//EN"
 "http://www.w3.org/Graphics/SVG/1.1/DTD/svg11.dtd">
<!-- Generated by graphviz version 2.43.0 (0)
 -->
<!-- Title: SwitchSelectorLED Pages: 1 -->
<svg width="431pt" height="1057pt"
 viewBox="0.00 0.00 430.50 1057.00" xmlns="http://www.w3.org/2000/svg" xmlns:xlink="http://www.w3.org/1999/xlink">
<g id="graph0" class="graph" transform="scale(1 1) rotate(0) translate(4 1053)">
<title>SwitchSelectorLED</title>
<polygon fill="white" stroke="transparent" points="-4,4 -4,-1053 426.5,-1053 426.5,4 -4,4"/>
<!-- Node1 -->
<g id="node1" class="node">
<title>Node1</title>
<g id="a_node1"><a xlink:title="Selector that selects one of two settings, based on the state of a toggle or momentary switch....">
<polygon fill="#bfbfbf" stroke="black" points="132.5,-0.5 132.5,-57.5 258.5,-57.5 258.5,-0.5 132.5,-0.5"/>
<text text-anchor="middle" x="195.5" y="-45.5" font-family="Helvetica,sans-Serif" font-size="10.00">SwitchSelectorLED</text>
<polyline fill="none" stroke="black" points="132.5,-38.5 258.5,-38.5 "/>
<text text-anchor="middle" x="195.5" y="-26.5" font-family="Helvetica,sans-Serif" font-size="10.00"> </text>
<polyline fill="none" stroke="black" points="132.5,-19.5 258.5,-19.5 "/>
<text text-anchor="start" x="140.5" y="-7.5" font-family="Helvetica,sans-Serif" font-size="10.00">+ SwitchSelectorLED()</text>
</a>
</g>
</g>
<!-- Node2 -->
<g id="node2" class="node">
<title>Node2</title>
<g id="a_node2"><a xlink:href="../../d2/d1c/classGenericSwitchSelector.html" target="_top" xlink:title=" ">
<polygon fill="white" stroke="black" points="110.5,-95.5 110.5,-207.5 280.5,-207.5 280.5,-95.5 110.5,-95.5"/>
<text text-anchor="start" x="118.5" y="-195.5" font-family="Helvetica,sans-Serif" font-size="10.00">GenericSwitchSelector</text>
<text text-anchor="middle" x="195.5" y="-184.5" font-family="Helvetica,sans-Serif" font-size="10.00">&lt; SelectorSingleLEDCallback &gt;</text>
<polyline fill="none" stroke="black" points="110.5,-177.5 280.5,-177.5 "/>
<text text-anchor="start" x="118.5" y="-165.5" font-family="Helvetica,sans-Serif" font-size="10.00">&#45; button</text>
<polyline fill="none" stroke="black" points="110.5,-158.5 280.5,-158.5 "/>
<text text-anchor="start" x="118.5" y="-146.5" font-family="Helvetica,sans-Serif" font-size="10.00">+ GenericSwitchSelector()</text>
<text text-anchor="start" x="118.5" y="-135.5" font-family="Helvetica,sans-Serif" font-size="10.00">+ begin()</text>
<text text-anchor="start" x="118.5" y="-124.5" font-family="Helvetica,sans-Serif" font-size="10.00">+ update()</text>
<text text-anchor="start" x="118.5" y="-113.5" font-family="Helvetica,sans-Serif" font-size="10.00">+ getButtonState()</text>
<text text-anchor="start" x="118.5" y="-102.5" font-family="Helvetica,sans-Serif" font-size="10.00">+ invert()</text>
</a>
</g>
</g>
<!-- Node2&#45;&gt;Node1 -->
<g id="edge1" class="edge">
<title>Node2&#45;&gt;Node1</title>
<path fill="none" stroke="midnightblue" d="M195.5,-85.12C195.5,-75.48 195.5,-66.01 195.5,-57.72"/>
<polygon fill="none" stroke="midnightblue" points="192,-85.19 195.5,-95.19 199,-85.19 192,-85.19"/>
</g>
<!-- Node3 -->
<g id="node3" class="node">
<title>Node3</title>
<g id="a_node3"><a xlink:href="../../d0/d04/classGenericSelector.html" target="_top" xlink:title=" ">
<polygon fill="white" stroke="black" points="137.5,-245.5 137.5,-379.5 253.5,-379.5 253.5,-245.5 137.5,-245.5"/>
<text text-anchor="start" x="145.5" y="-367.5" font-family="Helvetica,sans-Serif" font-size="10.00">GenericSelector&lt; N,</text>
<text text-anchor="middle" x="195.5" y="-356.5" font-family="Helvetica,sans-Serif" font-size="10.00"> Callback &gt;</text>
<polyline fill="none" stroke="black" points="137.5,-349.5 253.5,-349.5 "/>
<text text-anchor="start" x="145.5" y="-337.5" font-family="Helvetica,sans-Serif" font-size="10.00">&#45; selectable</text>
<polyline fill="none" stroke="black" points="137.5,-330.5 253.5,-330.5 "/>
<text text-anchor="start" x="145.5" y="-318.5" font-family="Helvetica,sans-Serif" font-size="10.00">+ GenericSelector()</text>
<text text-anchor="start" x="145.5" y="-307.5" font-family="Helvetica,sans-Serif" font-size="10.00">+ begin()</text>
<text text-anchor="start" x="145.5" y="-296.5" font-family="Helvetica,sans-Serif" font-size="10.00">+ update()</text>
<text text-anchor="start" x="145.5" y="-285.5" font-family="Helvetica,sans-Serif" font-size="10.00">+ reset()</text>
<text text-anchor="start" x="145.5" y="-274.5" font-family="Helvetica,sans-Serif" font-size="10.00">+ set()</text>
<text text-anchor="start" x="145.5" y="-263.5" font-family="Helvetica,sans-Serif" font-size="10.00">+ increment()</text>
<text text-anchor="start" x="145.5" y="-252.5" font-family="Helvetica,sans-Serif" font-size="10.00">+ decrement()</text>
</a>
</g>
</g>
<!-- Node3&#45;&gt;Node2 -->
<g id="edge2" class="edge">
<title>Node3&#45;&gt;Node2</title>
<path fill="none" stroke="midnightblue" d="M195.5,-235.16C195.5,-225.99 195.5,-216.78 195.5,-207.99"/>
<polygon fill="none" stroke="midnightblue" points="192,-235.45 195.5,-245.45 199,-235.45 192,-235.45"/>
</g>
<!-- Node4 -->
<g id="node4" class="node">
<title>Node4</title>
<g id="a_node4"><a xlink:href="../../dc/d77/classSelectorBase.html" target="_top" xlink:title="Base class for all Selectors exposing the get method, so it can be used by display elements etc,...">
<polygon fill="white" stroke="black" points="0,-438.5 0,-506.5 99,-506.5 99,-438.5 0,-438.5"/>
<text text-anchor="middle" x="49.5" y="-494.5" font-family="Helvetica,sans-Serif" font-size="10.00">SelectorBase</text>
<polyline fill="none" stroke="black" points="0,-487.5 99,-487.5 "/>
<text text-anchor="start" x="8" y="-475.5" font-family="Helvetica,sans-Serif" font-size="10.00"># setting</text>
<polyline fill="none" stroke="black" points="0,-468.5 99,-468.5 "/>
<text text-anchor="start" x="8" y="-456.5" font-family="Helvetica,sans-Serif" font-size="10.00">+ get()</text>
<text text-anchor="start" x="8" y="-445.5" font-family="Helvetica,sans-Serif" font-size="10.00"># SelectorBase()</text>
</a>
</g>
</g>
<!-- Node4&#45;&gt;Node3 -->
<g id="edge3" class="edge">
<title>Node4&#45;&gt;Node3</title>
<path fill="none" stroke="midnightblue" d="M86.92,-431C102.22,-414.45 120.27,-394.92 137.21,-376.58"/>
<polygon fill="none" stroke="midnightblue" points="84.32,-428.66 80.11,-438.38 89.46,-433.41 84.32,-428.66"/>
</g>
<!-- Node5 -->
<g id="node5" class="node">
<title>Node5</title>
<g id="a_node5"><a xlink:href="../../d1/d55/classAH_1_1Updatable.html" target="_top" xlink:title="A super class for object that have to be updated regularly.">
<polygon fill="white" stroke="black" points="117,-427.5 117,-517.5 274,-517.5 274,-427.5 117,-427.5"/>
<text text-anchor="middle" x="195.5" y="-505.5" font-family="Helvetica,sans-Serif" font-size="10.00">Updatable&lt; T, ThreadSafe &gt;</text>
<polyline fill="none" stroke="black" points="117,-498.5 274,-498.5 "/>
<text text-anchor="middle" x="195.5" y="-486.5" font-family="Helvetica,sans-Serif" font-size="10.00"> </text>
<polyline fill="none" stroke="black" points="117,-479.5 274,-479.5 "/>
<text text-anchor="start" x="125" y="-467.5" font-family="Helvetica,sans-Serif" font-size="10.00">* begin()</text>
<text text-anchor="start" x="125" y="-456.5" font-family="Helvetica,sans-Serif" font-size="10.00">* update()</text>
<text text-anchor="start" x="125" y="-445.5" font-family="Helvetica,sans-Serif" font-size="10.00">* beginAll()</text>
<text text-anchor="start" x="125" y="-434.5" font-family="Helvetica,sans-Serif" font-size="10.00">* updateAll()</text>
</a>
</g>
</g>
<!-- Node5&#45;&gt;Node3 -->
<g id="edge4" class="edge">
<title>Node5&#45;&gt;Node3</title>
<path fill="none" stroke="midnightblue" d="M195.5,-417.15C195.5,-405.1 195.5,-392.2 195.5,-379.74"/>
<polygon fill="none" stroke="midnightblue" points="192,-417.49 195.5,-427.49 199,-417.49 192,-417.49"/>
</g>
<!-- Node6 -->
<g id="node6" class="node">
<title>Node6</title>
<g id="a_node6"><a xlink:href="../../d8/d1a/classAH_1_1UpdatableCRTP.html" target="_top" xlink:title=" ">
<polygon fill="white" stroke="black" points="119,-555.5 119,-887.5 272,-887.5 272,-555.5 119,-555.5"/>
<text text-anchor="start" x="127" y="-875.5" font-family="Helvetica,sans-Serif" font-size="10.00">UpdatableCRTP&lt; Updatable</text>
<text text-anchor="start" x="127" y="-864.5" font-family="Helvetica,sans-Serif" font-size="10.00">&lt; NormalUpdatable, false</text>
<text text-anchor="middle" x="195.5" y="-853.5" font-family="Helvetica,sans-Serif" font-size="10.00"> &gt;, false &gt;</text>
<polyline fill="none" stroke="black" points="119,-846.5 272,-846.5 "/>
<text text-anchor="start" x="127" y="-834.5" font-family="Helvetica,sans-Serif" font-size="10.00"># updatables</text>
<text text-anchor="start" x="127" y="-823.5" font-family="Helvetica,sans-Serif" font-size="10.00"># mutex</text>
<polyline fill="none" stroke="black" points="119,-816.5 272,-816.5 "/>
<text text-anchor="start" x="127" y="-804.5" font-family="Helvetica,sans-Serif" font-size="10.00">+ ~UpdatableCRTP()</text>
<text text-anchor="start" x="127" y="-793.5" font-family="Helvetica,sans-Serif" font-size="10.00">+ getMutex()</text>
<text text-anchor="start" x="127" y="-782.5" font-family="Helvetica,sans-Serif" font-size="10.00"># UpdatableCRTP()</text>
<text text-anchor="start" x="127" y="-771.5" font-family="Helvetica,sans-Serif" font-size="10.00"># UpdatableCRTP()</text>
<text text-anchor="start" x="127" y="-760.5" font-family="Helvetica,sans-Serif" font-size="10.00"># UpdatableCRTP()</text>
<text text-anchor="start" x="127" y="-749.5" font-family="Helvetica,sans-Serif" font-size="10.00"># operator=()</text>
<text text-anchor="start" x="127" y="-738.5" font-family="Helvetica,sans-Serif" font-size="10.00"># operator=()</text>
<text text-anchor="start" x="127" y="-727.5" font-family="Helvetica,sans-Serif" font-size="10.00">* method</text>
<text text-anchor="start" x="127" y="-716.5" font-family="Helvetica,sans-Serif" font-size="10.00">* args</text>
<text text-anchor="start" x="127" y="-705.5" font-family="Helvetica,sans-Serif" font-size="10.00">* enable()</text>
<text text-anchor="start" x="127" y="-694.5" font-family="Helvetica,sans-Serif" font-size="10.00">* enable()</text>
<text text-anchor="start" x="127" y="-683.5" font-family="Helvetica,sans-Serif" font-size="10.00">* disable()</text>
<text text-anchor="start" x="127" y="-672.5" font-family="Helvetica,sans-Serif" font-size="10.00">* disable()</text>
<text text-anchor="start" x="127" y="-661.5" font-family="Helvetica,sans-Serif" font-size="10.00">* isEnabled()</text>
<text text-anchor="start" x="127" y="-650.5" font-family="Helvetica,sans-Serif" font-size="10.00">* isEnabled()</text>
<text text-anchor="start" x="127" y="-639.5" font-family="Helvetica,sans-Serif" font-size="10.00">* moveDown()</text>
<text text-anchor="start" x="127" y="-628.5" font-family="Helvetica,sans-Serif" font-size="10.00">* moveDown()</text>
<text text-anchor="start" x="127" y="-617.5" font-family="Helvetica,sans-Serif" font-size="10.00">* enable()</text>
<text text-anchor="start" x="127" y="-606.5" font-family="Helvetica,sans-Serif" font-size="10.00">* enable()</text>
<text text-anchor="start" x="127" y="-595.5" font-family="Helvetica,sans-Serif" font-size="10.00">* enable()</text>
<text text-anchor="start" x="127" y="-584.5" font-family="Helvetica,sans-Serif" font-size="10.00">* disable()</text>
<text text-anchor="start" x="127" y="-573.5" font-family="Helvetica,sans-Serif" font-size="10.00">* disable()</text>
<text text-anchor="start" x="127" y="-562.5" font-family="Helvetica,sans-Serif" font-size="10.00">* disable()</text>
</a>
</g>
</g>
<!-- Node6&#45;&gt;Node5 -->
<g id="edge5" class="edge">
<title>Node6&#45;&gt;Node5</title>
<path fill="none" stroke="midnightblue" d="M195.5,-545.37C195.5,-535.51 195.5,-526.18 195.5,-517.71"/>
<polygon fill="none" stroke="midnightblue" points="192,-545.4 195.5,-555.4 199,-545.4 192,-545.4"/>
</g>
<!-- Node7 -->
<g id="node7" class="node">
<title>Node7</title>
<g id="a_node7"><a xlink:href="../../d4/d23/classDoublyLinkable.html" target="_top" xlink:title="A class that can be inherited from to allow inserting into a DoublyLinkedList.">
<polygon fill="white" stroke="black" points="125.5,-925.5 125.5,-1048.5 265.5,-1048.5 265.5,-925.5 125.5,-925.5"/>
<text text-anchor="middle" x="195.5" y="-1036.5" font-family="Helvetica,sans-Serif" font-size="10.00">DoublyLinkable&lt; Node &gt;</text>
<polyline fill="none" stroke="black" points="125.5,-1029.5 265.5,-1029.5 "/>
<text text-anchor="start" x="133.5" y="-1017.5" font-family="Helvetica,sans-Serif" font-size="10.00"># next</text>
<text text-anchor="start" x="133.5" y="-1006.5" font-family="Helvetica,sans-Serif" font-size="10.00"># previous</text>
<polyline fill="none" stroke="black" points="125.5,-999.5 265.5,-999.5 "/>
<text text-anchor="start" x="133.5" y="-987.5" font-family="Helvetica,sans-Serif" font-size="10.00"># ~DoublyLinkable()</text>
<text text-anchor="start" x="133.5" y="-976.5" font-family="Helvetica,sans-Serif" font-size="10.00"># DoublyLinkable()</text>
<text text-anchor="start" x="133.5" y="-965.5" font-family="Helvetica,sans-Serif" font-size="10.00"># DoublyLinkable()</text>
<text text-anchor="start" x="133.5" y="-954.5" font-family="Helvetica,sans-Serif" font-size="10.00"># operator=()</text>
<text text-anchor="start" x="133.5" y="-943.5" font-family="Helvetica,sans-Serif" font-size="10.00"># DoublyLinkable()</text>
<text text-anchor="start" x="133.5" y="-932.5" font-family="Helvetica,sans-Serif" font-size="10.00"># operator=()</text>
</a>
</g>
</g>
<!-- Node7&#45;&gt;Node6 -->
<g id="edge6" class="edge">
<title>Node7&#45;&gt;Node6</title>
<path fill="none" stroke="midnightblue" d="M195.5,-915.17C195.5,-906.42 195.5,-897.21 195.5,-887.76"/>
<polygon fill="none" stroke="midnightblue" points="192,-915.22 195.5,-925.22 199,-915.22 192,-915.22"/>
</g>
<!-- Node8 -->
<g id="node8" class="node">
<title>Node8</title>
<g id="a_node8"><a xlink:href="../../d3/d8b/structEmptySelectorCallback.html" target="_top" xlink:title="A callback for the GenericSelector class that does nothing.">
<polygon fill="white" stroke="black" points="292.5,-433 292.5,-512 422.5,-512 422.5,-433 292.5,-433"/>
<text text-anchor="middle" x="357.5" y="-500" font-family="Helvetica,sans-Serif" font-size="10.00">EmptySelectorCallback</text>
<polyline fill="none" stroke="black" points="292.5,-493 422.5,-493 "/>
<text text-anchor="middle" x="357.5" y="-481" font-family="Helvetica,sans-Serif" font-size="10.00"> </text>
<polyline fill="none" stroke="black" points="292.5,-474 422.5,-474 "/>
<text text-anchor="start" x="300.5" y="-462" font-family="Helvetica,sans-Serif" font-size="10.00">+ begin()</text>
<text text-anchor="start" x="300.5" y="-451" font-family="Helvetica,sans-Serif" font-size="10.00">+ update()</text>
<text text-anchor="start" x="300.5" y="-440" font-family="Helvetica,sans-Serif" font-size="10.00">+ update()</text>
</a>
</g>
</g>
<!-- Node8&#45;&gt;Node3 -->
<g id="edge7" class="edge">
<title>Node8&#45;&gt;Node3</title>
<path fill="none" stroke="#404040" d="M317.87,-432.85C301.21,-416.6 281.36,-397.24 262.55,-378.89"/>
<polygon fill="none" stroke="#404040" points="262.3,-378.65 255.21,-377.32 253.71,-370.27 260.79,-371.59 262.3,-378.65"/>
<text text-anchor="middle" x="317.5" y="-401" font-family="Helvetica,sans-Serif" font-size="10.00"> +callback</text>
</g>
</g>
</svg>
