<?xml version="1.0" encoding="UTF-8" standalone="no"?>
<!DOCTYPE svg PUBLIC "-//W3C//DTD SVG 1.1//EN"
 "http://www.w3.org/Graphics/SVG/1.1/DTD/svg11.dtd">
<!-- Generated by graphviz version 2.40.1 (20161225.0304)
 -->
<!-- Title: CCRotaryEncoder.hpp Pages: 1 -->
<svg width="2354pt" height="1046pt"
 viewBox="0.00 0.00 2354.00 1046.00" xmlns="http://www.w3.org/2000/svg" xmlns:xlink="http://www.w3.org/1999/xlink">
<g id="graph0" class="graph" transform="scale(1 1) rotate(0) translate(4 1042)">
<title>CCRotaryEncoder.hpp</title>
<polygon fill="#ffffff" stroke="transparent" points="-4,4 -4,-1042 2350,-1042 2350,4 -4,4"/>
<!-- Node1 -->
<g id="node1" class="node">
<title>Node1</title>
<g id="a_node1"><a xlink:title=" ">
<polygon fill="#bfbfbf" stroke="#000000" points="1744,-1018.5 1744,-1037.5 1860,-1037.5 1860,-1018.5 1744,-1018.5"/>
<text text-anchor="middle" x="1802" y="-1025.5" font-family="Helvetica,sans-Serif" font-size="10.00" fill="#000000">CCRotaryEncoder.hpp</text>
</a>
</g>
</g>
<!-- Node2 -->
<g id="node2" class="node">
<title>Node2</title>
<g id="a_node2"><a xlink:href="../../d0/dcc/BankAddresses_8hpp.html" target="_top" xlink:title=" ">
<polygon fill="#ffffff" stroke="#000000" points="1902.5,-957 1902.5,-976 2037.5,-976 2037.5,-957 1902.5,-957"/>
<text text-anchor="middle" x="1970" y="-964" font-family="Helvetica,sans-Serif" font-size="10.00" fill="#000000">Banks/BankAddresses.hpp</text>
</a>
</g>
</g>
<!-- Node1&#45;&gt;Node2 -->
<g id="edge1" class="edge">
<title>Node1&#45;&gt;Node2</title>
<path fill="none" stroke="#191970" d="M1828.25,-1018.3906C1856.7293,-1007.9652 1902.3743,-991.2559 1934.1457,-979.6252"/>
<polygon fill="#191970" stroke="#191970" points="1935.7469,-982.7663 1943.9343,-976.0419 1933.3406,-976.1929 1935.7469,-982.7663"/>
</g>
<!-- Node37 -->
<g id="node37" class="node">
<title>Node37</title>
<g id="a_node37"><a xlink:href="../../da/dd5/Bankable_2Abstract_2MIDIRotaryEncoder_8hpp.html" target="_top" xlink:title=" ">
<polygon fill="#ffffff" stroke="#000000" points="1719.5,-951.5 1719.5,-981.5 1884.5,-981.5 1884.5,-951.5 1719.5,-951.5"/>
<text text-anchor="start" x="1727.5" y="-969.5" font-family="Helvetica,sans-Serif" font-size="10.00" fill="#000000">MIDI_Outputs/Bankable</text>
<text text-anchor="middle" x="1802" y="-958.5" font-family="Helvetica,sans-Serif" font-size="10.00" fill="#000000">/Abstract/MIDIRotaryEncoder.hpp</text>
</a>
</g>
</g>
<!-- Node1&#45;&gt;Node37 -->
<g id="edge74" class="edge">
<title>Node1&#45;&gt;Node37</title>
<path fill="none" stroke="#191970" d="M1802,-1018.3906C1802,-1011.2234 1802,-1001.0862 1802,-991.671"/>
<polygon fill="#191970" stroke="#191970" points="1805.5001,-991.5446 1802,-981.5446 1798.5001,-991.5446 1805.5001,-991.5446"/>
</g>
<!-- Node43 -->
<g id="node43" class="node">
<title>Node43</title>
<g id="a_node43"><a xlink:href="../../d9/d24/RelativeCCSender_8hpp.html" target="_top" xlink:title=" ">
<polygon fill="#ffffff" stroke="#000000" points="956.5,-895.5 956.5,-914.5 1139.5,-914.5 1139.5,-895.5 956.5,-895.5"/>
<text text-anchor="middle" x="1048" y="-902.5" font-family="Helvetica,sans-Serif" font-size="10.00" fill="#000000">MIDI_Senders/RelativeCCSender.hpp</text>
</a>
</g>
</g>
<!-- Node1&#45;&gt;Node43 -->
<g id="edge89" class="edge">
<title>Node1&#45;&gt;Node43</title>
<path fill="none" stroke="#191970" d="M1743.7749,-1018.5017C1606.5663,-996.1189 1263.4763,-940.1506 1116.5403,-916.181"/>
<polygon fill="#191970" stroke="#191970" points="1116.7385,-912.6671 1106.3054,-914.5114 1115.6115,-919.5758 1116.7385,-912.6671"/>
</g>
<!-- Node3 -->
<g id="node3" class="node">
<title>Node3</title>
<g id="a_node3"><a xlink:href="../../d0/dd4/BankableAddresses_8hpp.html" target="_top" xlink:title=" ">
<polygon fill="#ffffff" stroke="#000000" points="1910,-895.5 1910,-914.5 2032,-914.5 2032,-895.5 1910,-895.5"/>
<text text-anchor="middle" x="1971" y="-902.5" font-family="Helvetica,sans-Serif" font-size="10.00" fill="#000000">BankableAddresses.hpp</text>
</a>
</g>
</g>
<!-- Node2&#45;&gt;Node3 -->
<g id="edge2" class="edge">
<title>Node2&#45;&gt;Node3</title>
<path fill="none" stroke="#191970" d="M1970.1563,-956.8906C1970.2949,-948.3657 1970.5018,-935.6392 1970.676,-924.9235"/>
<polygon fill="#191970" stroke="#191970" points="1974.1784,-924.8005 1970.8415,-914.7449 1967.1793,-924.6866 1974.1784,-924.8005"/>
</g>
<!-- Node4 -->
<g id="node4" class="node">
<title>Node4</title>
<g id="a_node4"><a xlink:href="../../d4/d57/Bank_8hpp.html" target="_top" xlink:title=" ">
<polygon fill="#ffffff" stroke="#000000" points="2028,-834 2028,-853 2086,-853 2086,-834 2028,-834"/>
<text text-anchor="middle" x="2057" y="-841" font-family="Helvetica,sans-Serif" font-size="10.00" fill="#000000">Bank.hpp</text>
</a>
</g>
</g>
<!-- Node3&#45;&gt;Node4 -->
<g id="edge3" class="edge">
<title>Node3&#45;&gt;Node4</title>
<path fill="none" stroke="#191970" d="M1984.4375,-895.3906C1998.0695,-885.6421 2019.3846,-870.3994 2035.3922,-858.9521"/>
<polygon fill="#191970" stroke="#191970" points="2037.5586,-861.7057 2043.6569,-853.0419 2033.4868,-856.0118 2037.5586,-861.7057"/>
</g>
<!-- Node35 -->
<g id="node35" class="node">
<title>Node35</title>
<g id="a_node35"><a xlink:href="../../dd/d1f/BankConfig_8hpp.html" target="_top" xlink:title=" ">
<polygon fill="#ffffff" stroke="#000000" points="2020,-705.5 2020,-724.5 2106,-724.5 2106,-705.5 2020,-705.5"/>
<text text-anchor="middle" x="2063" y="-712.5" font-family="Helvetica,sans-Serif" font-size="10.00" fill="#000000">BankConfig.hpp</text>
</a>
</g>
</g>
<!-- Node3&#45;&gt;Node35 -->
<g id="edge72" class="edge">
<title>Node3&#45;&gt;Node35</title>
<path fill="none" stroke="#191970" d="M1967.9851,-895.315C1960.9373,-870.6849 1945.9439,-804.532 1973,-761 1982.5241,-745.6761 1998.9162,-735.2411 2015.1228,-728.2398"/>
<polygon fill="#191970" stroke="#191970" points="2016.5734,-731.4301 2024.5903,-724.5033 2014.0036,-724.9188 2016.5734,-731.4301"/>
</g>
<!-- Node36 -->
<g id="node36" class="node">
<title>Node36</title>
<g id="a_node36"><a xlink:href="../../db/dd6/MIDIAddress_8hpp.html" target="_top" xlink:title=" ">
<polygon fill="#ffffff" stroke="#000000" points="1776,-705.5 1776,-724.5 1888,-724.5 1888,-705.5 1776,-705.5"/>
<text text-anchor="middle" x="1832" y="-712.5" font-family="Helvetica,sans-Serif" font-size="10.00" fill="#000000">Def/MIDIAddress.hpp</text>
</a>
</g>
</g>
<!-- Node3&#45;&gt;Node36 -->
<g id="edge73" class="edge">
<title>Node3&#45;&gt;Node36</title>
<path fill="none" stroke="#191970" d="M1963.9159,-895.3167C1941.8925,-865.2127 1874.3696,-772.9153 1845.4137,-733.3353"/>
<polygon fill="#191970" stroke="#191970" points="1847.9658,-730.8959 1839.2365,-724.8917 1842.3162,-735.0291 1847.9658,-730.8959"/>
</g>
<!-- Node5 -->
<g id="node5" class="node">
<title>Node5</title>
<g id="a_node5"><a xlink:href="../../df/dee/Debug_8hpp.html" target="_top" xlink:title=" ">
<polygon fill="#ffffff" stroke="#000000" points="1984.5,-392.5 1984.5,-411.5 2097.5,-411.5 2097.5,-392.5 1984.5,-392.5"/>
<text text-anchor="middle" x="2041" y="-399.5" font-family="Helvetica,sans-Serif" font-size="10.00" fill="#000000">AH/Debug/Debug.hpp</text>
</a>
</g>
</g>
<!-- Node4&#45;&gt;Node5 -->
<g id="edge4" class="edge">
<title>Node4&#45;&gt;Node5</title>
<path fill="none" stroke="#191970" d="M2086.1512,-842.1887C2162.4146,-837.235 2360.2506,-813.8631 2335,-705 2306.2567,-581.0785 2307.0213,-529.0836 2209,-448 2192.7476,-434.5559 2144.323,-422.1047 2103.6143,-413.5563"/>
<polygon fill="#191970" stroke="#191970" points="2104.2244,-410.1086 2093.7244,-411.523 2102.8147,-416.9652 2104.2244,-410.1086"/>
</g>
<!-- Node23 -->
<g id="node23" class="node">
<title>Node23</title>
<g id="a_node23"><a xlink:href="../../d1/d93/Error_8hpp.html" target="_top" xlink:title=" ">
<polygon fill="#ffffff" stroke="#000000" points="1810,-448.5 1810,-467.5 1908,-467.5 1908,-448.5 1810,-448.5"/>
<text text-anchor="middle" x="1859" y="-455.5" font-family="Helvetica,sans-Serif" font-size="10.00" fill="#000000">AH/Error/Error.hpp</text>
</a>
</g>
</g>
<!-- Node4&#45;&gt;Node23 -->
<g id="edge33" class="edge">
<title>Node4&#45;&gt;Node23</title>
<path fill="none" stroke="#191970" d="M2086.3204,-834.0618C2105.6179,-826.1469 2129.3841,-812.7469 2141,-792 2160.7152,-756.7871 2138.415,-737.8691 2115,-705 2043.3169,-604.3737 1927.3397,-510.1839 1880.0681,-473.8186"/>
<polygon fill="#191970" stroke="#191970" points="1882.1401,-470.9971 1872.0671,-467.7128 1877.8934,-476.5618 1882.1401,-470.9971"/>
</g>
<!-- Node24 -->
<g id="node24" class="node">
<title>Node24</title>
<g id="a_node24"><a xlink:href="../../de/dd1/LinkedList_8hpp.html" target="_top" xlink:title=" ">
<polygon fill="#ffffff" stroke="#000000" points="872.5,-644 872.5,-663 1019.5,-663 1019.5,-644 872.5,-644"/>
<text text-anchor="middle" x="946" y="-651" font-family="Helvetica,sans-Serif" font-size="10.00" fill="#000000">AH/Containers/LinkedList.hpp</text>
</a>
</g>
</g>
<!-- Node4&#45;&gt;Node24 -->
<g id="edge36" class="edge">
<title>Node4&#45;&gt;Node24</title>
<path fill="none" stroke="#191970" d="M2037.8935,-833.9469C2020.1191,-824.5766 1993.3862,-809.2194 1973,-792 1933.777,-758.8698 1943.2512,-727.2907 1897,-705 1817.6445,-666.7548 1192.867,-675.2756 1105,-669 1080.5515,-667.2539 1054.0344,-664.8661 1029.7905,-662.4878"/>
<polygon fill="#191970" stroke="#191970" points="1029.8491,-658.9765 1019.5521,-661.4711 1029.1573,-665.9423 1029.8491,-658.9765"/>
</g>
<!-- Node27 -->
<g id="node27" class="node">
<title>Node27</title>
<g id="a_node27"><a xlink:href="../../d9/d46/Selectable_8hpp.html" target="_top" xlink:title=" ">
<polygon fill="#ffffff" stroke="#000000" points="2200.5,-705.5 2200.5,-724.5 2325.5,-724.5 2325.5,-705.5 2200.5,-705.5"/>
<text text-anchor="middle" x="2263" y="-712.5" font-family="Helvetica,sans-Serif" font-size="10.00" fill="#000000">Selectors/Selectable.hpp</text>
</a>
</g>
</g>
<!-- Node4&#45;&gt;Node27 -->
<g id="edge42" class="edge">
<title>Node4&#45;&gt;Node27</title>
<path fill="none" stroke="#191970" d="M2085.1238,-833.835C2109.5884,-824.8063 2145.4898,-810.0314 2174,-792 2201.6016,-774.5432 2229.4326,-748.8667 2246.4458,-732.0408"/>
<polygon fill="#191970" stroke="#191970" points="2249.3095,-734.1248 2253.8803,-724.5666 2244.3466,-729.1882 2249.3095,-734.1248"/>
</g>
<!-- Node34 -->
<g id="node34" class="node">
<title>Node34</title>
<g id="a_node34"><a xlink:href="../../de/d6e/BankableMIDIInput_8hpp.html" target="_top" xlink:title=" ">
<polygon fill="#ffffff" stroke="#000000" points="1982,-767 1982,-786 2132,-786 2132,-767 1982,-767"/>
<text text-anchor="middle" x="2057" y="-774" font-family="Helvetica,sans-Serif" font-size="10.00" fill="#000000">Banks/BankableMIDIInput.hpp</text>
</a>
</g>
</g>
<!-- Node4&#45;&gt;Node34 -->
<g id="edge64" class="edge">
<title>Node4&#45;&gt;Node34</title>
<path fill="none" stroke="#191970" d="M2052.0994,-833.9005C2050.2106,-824.149 2049.7686,-808.7597 2050.7734,-796.3695"/>
<polygon fill="#191970" stroke="#191970" points="2054.2923,-796.4478 2052.1029,-786.0817 2047.35,-795.5506 2054.2923,-796.4478"/>
</g>
<!-- Node6 -->
<g id="node6" class="node">
<title>Node6</title>
<g id="a_node6"><a xlink:href="../../d1/d65/Warnings_8hpp.html" target="_top" xlink:title=" ">
<polygon fill="#ffffff" stroke="#000000" points="922.5,-.5 922.5,-19.5 1055.5,-19.5 1055.5,-.5 922.5,-.5"/>
<text text-anchor="middle" x="989" y="-7.5" font-family="Helvetica,sans-Serif" font-size="10.00" fill="#000000">AH/Settings/Warnings.hpp</text>
</a>
</g>
</g>
<!-- Node5&#45;&gt;Node6 -->
<g id="edge5" class="edge">
<title>Node5&#45;&gt;Node6</title>
<path fill="none" stroke="#191970" d="M2058.7798,-392.4616C2097.499,-370.251 2186,-311.056 2186,-234 2186,-234 2186,-234 2186,-122 2186,-23.3173 2071.1885,-73.1074 1974,-56 1799.9941,-25.3709 1266.2303,-14.2289 1065.9723,-11.0616"/>
<polygon fill="#191970" stroke="#191970" points="1065.8862,-7.5599 1055.8328,-10.9035 1065.777,-14.559 1065.8862,-7.5599"/>
</g>
<!-- Node7 -->
<g id="node7" class="node">
<title>Node7</title>
<g id="a_node7"><a xlink:href="../../dd/d80/PrintStream_8hpp.html" target="_top" xlink:title=" ">
<polygon fill="#ffffff" stroke="#000000" points="1961.5,-224.5 1961.5,-243.5 2120.5,-243.5 2120.5,-224.5 1961.5,-224.5"/>
<text text-anchor="middle" x="2041" y="-231.5" font-family="Helvetica,sans-Serif" font-size="10.00" fill="#000000">AH/PrintStream/PrintStream.hpp</text>
</a>
</g>
</g>
<!-- Node5&#45;&gt;Node7 -->
<g id="edge6" class="edge">
<title>Node5&#45;&gt;Node7</title>
<path fill="none" stroke="#191970" d="M2041,-392.4862C2041,-365.9293 2041,-290.5651 2041,-254.1655"/>
<polygon fill="#191970" stroke="#191970" points="2044.5001,-253.8278 2041,-243.8279 2037.5001,-253.8279 2044.5001,-253.8278"/>
</g>
<!-- Node14 -->
<g id="node14" class="node">
<title>Node14</title>
<g id="a_node14"><a xlink:href="../../de/dd1/AH_2Settings_2SettingsWrapper_8hpp.html" target="_top" xlink:title=" ">
<polygon fill="#ffffff" stroke="#000000" points="1178,-336.5 1178,-355.5 1342,-355.5 1342,-336.5 1178,-336.5"/>
<text text-anchor="middle" x="1260" y="-343.5" font-family="Helvetica,sans-Serif" font-size="10.00" fill="#000000">AH/Settings/SettingsWrapper.hpp</text>
</a>
</g>
</g>
<!-- Node5&#45;&gt;Node14 -->
<g id="edge17" class="edge">
<title>Node5&#45;&gt;Node14</title>
<path fill="none" stroke="#191970" d="M1984.319,-398.1949C1850.7043,-388.8875 1515.3252,-364.8641 1352.0731,-352.934"/>
<polygon fill="#191970" stroke="#191970" points="1352.2775,-349.4397 1342.0488,-352.2008 1351.7668,-356.4211 1352.2775,-349.4397"/>
</g>
<!-- Node22 -->
<g id="node22" class="node">
<title>Node22</title>
<g id="a_node22"><a xlink:href="../../d7/d52/DebugVal_8hpp.html" target="_top" xlink:title=" ">
<polygon fill="#ffffff" stroke="#000000" points="2202,-336.5 2202,-355.5 2280,-355.5 2280,-336.5 2202,-336.5"/>
<text text-anchor="middle" x="2241" y="-343.5" font-family="Helvetica,sans-Serif" font-size="10.00" fill="#000000">DebugVal.hpp</text>
</a>
</g>
</g>
<!-- Node5&#45;&gt;Node22 -->
<g id="edge32" class="edge">
<title>Node5&#45;&gt;Node22</title>
<path fill="none" stroke="#191970" d="M2075.3812,-392.3733C2109.0701,-382.9404 2160.5482,-368.5265 2197.1618,-358.2747"/>
<polygon fill="#191970" stroke="#191970" points="2198.3815,-361.5679 2207.0674,-355.5011 2196.494,-354.8271 2198.3815,-361.5679"/>
</g>
<!-- Node7&#45;&gt;Node6 -->
<g id="edge7" class="edge">
<title>Node7&#45;&gt;Node6</title>
<path fill="none" stroke="#191970" d="M2039.3886,-224.4431C2033.6178,-193.5684 2010.8728,-96.1782 1948,-56 1911.0586,-32.393 1286.9961,-16.5169 1065.895,-11.6109"/>
<polygon fill="#191970" stroke="#191970" points="1065.7496,-8.107 1055.6749,-11.3856 1065.5953,-15.1053 1065.7496,-8.107"/>
</g>
<!-- Node8 -->
<g id="node8" class="node">
<title>Node8</title>
<g id="a_node8"><a xlink:href="../../d6/ddf/Arduino-Wrapper_8h.html" target="_top" xlink:title=" ">
<polygon fill="#ffffff" stroke="#000000" points="459.5,-168.5 459.5,-187.5 574.5,-187.5 574.5,-168.5 459.5,-168.5"/>
<text text-anchor="middle" x="517" y="-175.5" font-family="Helvetica,sans-Serif" font-size="10.00" fill="#000000">AH/Arduino&#45;Wrapper.h</text>
</a>
</g>
</g>
<!-- Node7&#45;&gt;Node8 -->
<g id="edge8" class="edge">
<title>Node7&#45;&gt;Node8</title>
<path fill="none" stroke="#191970" d="M1961.4753,-231.0778C1694.6229,-221.2722 833.8984,-189.6446 585.0016,-180.4987"/>
<polygon fill="#191970" stroke="#191970" points="584.7806,-176.9884 574.6588,-180.1187 584.5235,-183.9836 584.7806,-176.9884"/>
</g>
<!-- Node9 -->
<g id="node9" class="node">
<title>Node9</title>
<g id="a_node9"><a xlink:href="../../d7/d79/MinMaxFix_8hpp.html" target="_top" xlink:title=" ">
<polygon fill="#ffffff" stroke="#000000" points="297.5,-112.5 297.5,-131.5 422.5,-131.5 422.5,-112.5 297.5,-112.5"/>
<text text-anchor="middle" x="360" y="-119.5" font-family="Helvetica,sans-Serif" font-size="10.00" fill="#000000">AH/Math/MinMaxFix.hpp</text>
</a>
</g>
</g>
<!-- Node8&#45;&gt;Node9 -->
<g id="edge9" class="edge">
<title>Node8&#45;&gt;Node9</title>
<path fill="none" stroke="#191970" d="M490.0107,-168.3733C464.1301,-159.1419 424.8752,-145.1402 396.2711,-134.9375"/>
<polygon fill="#191970" stroke="#191970" points="397.2317,-131.5642 386.6371,-131.5011 394.88,-138.1573 397.2317,-131.5642"/>
</g>
<!-- Node11 -->
<g id="node11" class="node">
<title>Node11</title>
<g id="a_node11"><a xlink:title=" ">
<polygon fill="#ffffff" stroke="#bfbfbf" points="126,-.5 126,-19.5 184,-19.5 184,-.5 126,-.5"/>
<text text-anchor="middle" x="155" y="-7.5" font-family="Helvetica,sans-Serif" font-size="10.00" fill="#000000">Arduino.h</text>
</a>
</g>
</g>
<!-- Node8&#45;&gt;Node11 -->
<g id="edge16" class="edge">
<title>Node8&#45;&gt;Node11</title>
<path fill="none" stroke="#191970" d="M459.3824,-173.4242C411.7638,-168.0228 343.2526,-156.4513 288,-132 234.9976,-108.5444 189.1499,-55.287 167.791,-27.5429"/>
<polygon fill="#191970" stroke="#191970" points="170.5488,-25.3867 161.7387,-19.5017 164.9559,-29.5963 170.5488,-25.3867"/>
</g>
<!-- Node13 -->
<g id="node13" class="node">
<title>Node13</title>
<g id="a_node13"><a xlink:title=" ">
<polygon fill="#ffffff" stroke="#bfbfbf" points="783.5,-112.5 783.5,-131.5 884.5,-131.5 884.5,-112.5 783.5,-112.5"/>
<text text-anchor="middle" x="834" y="-119.5" font-family="Helvetica,sans-Serif" font-size="10.00" fill="#000000">AH/STL/type_traits</text>
</a>
</g>
</g>
<!-- Node8&#45;&gt;Node13 -->
<g id="edge15" class="edge">
<title>Node8&#45;&gt;Node13</title>
<path fill="none" stroke="#191970" d="M571.1341,-168.4369C627.2683,-158.5204 714.8419,-143.05 773.292,-132.7244"/>
<polygon fill="#191970" stroke="#191970" points="774.2536,-136.1089 783.4922,-130.9225 773.0358,-129.2156 774.2536,-136.1089"/>
</g>
<!-- Node9&#45;&gt;Node6 -->
<g id="edge10" class="edge">
<title>Node9&#45;&gt;Node6</title>
<path fill="none" stroke="#191970" d="M366.0375,-112.2493C375.9985,-97.1471 397.4418,-68.5358 424,-56 467.0761,-35.6675 768.1416,-19.7794 912.3437,-13.2424"/>
<polygon fill="#191970" stroke="#191970" points="912.6168,-16.7337 922.4495,-12.7879 912.3023,-9.7408 912.6168,-16.7337"/>
</g>
<!-- Node10 -->
<g id="node10" class="node">
<title>Node10</title>
<g id="a_node10"><a xlink:href="../../d6/d3b/FixArduinoMacros_8hpp.html" target="_top" xlink:title=" ">
<polygon fill="#ffffff" stroke="#000000" points="221,-56.5 221,-75.5 377,-75.5 377,-56.5 221,-56.5"/>
<text text-anchor="middle" x="299" y="-63.5" font-family="Helvetica,sans-Serif" font-size="10.00" fill="#000000">AH/Math/FixArduinoMacros.hpp</text>
</a>
</g>
</g>
<!-- Node9&#45;&gt;Node10 -->
<g id="edge11" class="edge">
<title>Node9&#45;&gt;Node10</title>
<path fill="none" stroke="#191970" d="M349.3746,-112.2455C340.4527,-104.0549 327.512,-92.1749 316.9808,-82.5069"/>
<polygon fill="#191970" stroke="#191970" points="319.2371,-79.8271 309.5036,-75.6427 314.5032,-84.9837 319.2371,-79.8271"/>
</g>
<!-- Node12 -->
<g id="node12" class="node">
<title>Node12</title>
<g id="a_node12"><a xlink:href="../../d6/db0/AH_2Settings_2NamespaceSettings_8hpp.html" target="_top" xlink:title=" ">
<polygon fill="#ffffff" stroke="#000000" points="433,-56.5 433,-75.5 613,-75.5 613,-56.5 433,-56.5"/>
<text text-anchor="middle" x="523" y="-63.5" font-family="Helvetica,sans-Serif" font-size="10.00" fill="#000000">AH/Settings/NamespaceSettings.hpp</text>
</a>
</g>
</g>
<!-- Node9&#45;&gt;Node12 -->
<g id="edge14" class="edge">
<title>Node9&#45;&gt;Node12</title>
<path fill="none" stroke="#191970" d="M388.0207,-112.3733C415.0078,-103.1016 456.0017,-89.0178 485.7311,-78.804"/>
<polygon fill="#191970" stroke="#191970" points="487.0248,-82.0605 495.3449,-75.5011 484.7503,-75.4403 487.0248,-82.0605"/>
</g>
<!-- Node10&#45;&gt;Node6 -->
<g id="edge12" class="edge">
<title>Node10&#45;&gt;Node6</title>
<path fill="none" stroke="#191970" d="M377.2798,-57.3217C381.9206,-56.86 386.5207,-56.4156 391,-56 577.9449,-38.6541 798.2036,-22.923 912.109,-15.1369"/>
<polygon fill="#191970" stroke="#191970" points="912.3892,-18.6261 922.1279,-14.4539 911.9129,-11.6423 912.3892,-18.6261"/>
</g>
<!-- Node10&#45;&gt;Node11 -->
<g id="edge13" class="edge">
<title>Node10&#45;&gt;Node11</title>
<path fill="none" stroke="#191970" d="M274.2455,-56.3733C250.7151,-47.2226 215.1313,-33.3844 188.9574,-23.2057"/>
<polygon fill="#191970" stroke="#191970" points="190.0201,-19.8636 179.4315,-19.5011 187.4829,-26.3877 190.0201,-19.8636"/>
</g>
<!-- Node14&#45;&gt;Node5 -->
<g id="edge31" class="edge">
<title>Node14&#45;&gt;Node5</title>
<path fill="none" stroke="#191970" d="M1342.1518,-351.586C1497.4087,-362.4755 1830.9182,-386.3928 1973.8268,-396.8899"/>
<polygon fill="#191970" stroke="#191970" points="1973.962,-400.4092 1984.1918,-397.6524 1974.4755,-393.4281 1973.962,-400.4092"/>
</g>
<!-- Node14&#45;&gt;Node6 -->
<g id="edge18" class="edge">
<title>Node14&#45;&gt;Node6</title>
<path fill="none" stroke="#191970" d="M1313.0324,-336.3891C1366.1279,-323.3494 1440,-294.3611 1440,-234 1440,-234 1440,-234 1440,-122 1440,-45.8068 1194.478,-21.0768 1065.7415,-13.3469"/>
<polygon fill="#191970" stroke="#191970" points="1065.7325,-9.8406 1055.5466,-12.7556 1065.3271,-16.8289 1065.7325,-9.8406"/>
</g>
<!-- Node14&#45;&gt;Node12 -->
<g id="edge19" class="edge">
<title>Node14&#45;&gt;Node12</title>
<path fill="none" stroke="#191970" d="M1177.8705,-339.8726C1110.5349,-333.4141 1021.8086,-321.166 993,-300 962.4045,-277.5212 971.7475,-257.562 954,-224 927.5033,-173.8925 939.8493,-143.9059 893,-112 871.0592,-97.0576 725.3187,-82.3775 623.4419,-73.7587"/>
<polygon fill="#191970" stroke="#191970" points="623.6741,-70.266 613.4166,-72.918 623.0892,-77.2415 623.6741,-70.266"/>
</g>
<!-- Node15 -->
<g id="node15" class="node">
<title>Node15</title>
<g id="a_node15"><a xlink:href="../../d5/d4f/AH_2Settings_2Settings_8hpp.html" target="_top" xlink:title="All user settings and debugging options can be changed here.">
<polygon fill="#ffffff" stroke="#000000" points="1002.5,-280.5 1002.5,-299.5 1073.5,-299.5 1073.5,-280.5 1002.5,-280.5"/>
<text text-anchor="middle" x="1038" y="-287.5" font-family="Helvetica,sans-Serif" font-size="10.00" fill="#000000">Settings.hpp</text>
</a>
</g>
</g>
<!-- Node14&#45;&gt;Node15 -->
<g id="edge20" class="edge">
<title>Node14&#45;&gt;Node15</title>
<path fill="none" stroke="#191970" d="M1222.0891,-336.4369C1183.6485,-326.7402 1124.1554,-311.7329 1083.2655,-301.4183"/>
<polygon fill="#191970" stroke="#191970" points="1084.1051,-298.0205 1073.5527,-298.9682 1082.3929,-304.8079 1084.1051,-298.0205"/>
</g>
<!-- Node21 -->
<g id="node21" class="node">
<title>Node21</title>
<g id="a_node21"><a xlink:href="../../d9/d98/TeensyUSBTypes_8hpp.html" target="_top" xlink:title=" ">
<polygon fill="#ffffff" stroke="#000000" points="1206,-280.5 1206,-299.5 1374,-299.5 1374,-280.5 1206,-280.5"/>
<text text-anchor="middle" x="1290" y="-287.5" font-family="Helvetica,sans-Serif" font-size="10.00" fill="#000000">AH/Teensy/TeensyUSBTypes.hpp</text>
</a>
</g>
</g>
<!-- Node14&#45;&gt;Node21 -->
<g id="edge30" class="edge">
<title>Node14&#45;&gt;Node21</title>
<path fill="none" stroke="#191970" d="M1265.2256,-336.2455C1269.3123,-328.617 1275.1135,-317.7881 1280.075,-308.5267"/>
<polygon fill="#191970" stroke="#191970" points="1283.1972,-310.1103 1284.8343,-299.6427 1277.0268,-306.8047 1283.1972,-310.1103"/>
</g>
<!-- Node16 -->
<g id="node16" class="node">
<title>Node16</title>
<g id="a_node16"><a xlink:href="../../dc/d50/Frequency_8hpp.html" target="_top" xlink:title=" ">
<polygon fill="#ffffff" stroke="#000000" points="1093,-112.5 1093,-131.5 1221,-131.5 1221,-112.5 1093,-112.5"/>
<text text-anchor="middle" x="1157" y="-119.5" font-family="Helvetica,sans-Serif" font-size="10.00" fill="#000000">AH/Types/Frequency.hpp</text>
</a>
</g>
</g>
<!-- Node15&#45;&gt;Node16 -->
<g id="edge21" class="edge">
<title>Node15&#45;&gt;Node16</title>
<path fill="none" stroke="#191970" d="M1073.5704,-282.013C1117.8249,-271.7206 1188.5195,-253.9689 1196,-244 1219.9966,-212.0208 1191.047,-164.7811 1171.687,-139.4922"/>
<polygon fill="#191970" stroke="#191970" points="1174.309,-137.1662 1165.3416,-131.5237 1168.833,-141.5268 1174.309,-137.1662"/>
</g>
<!-- Node17 -->
<g id="node17" class="node">
<title>Node17</title>
<g id="a_node17"><a xlink:href="../../d7/d7c/ADCConfig_8hpp.html" target="_top" xlink:title="This file contains the platform&#45;specific ADC resolutions. By default, the library automatically selec...">
<polygon fill="#ffffff" stroke="#000000" points="1039,-224.5 1039,-243.5 1187,-243.5 1187,-224.5 1039,-224.5"/>
<text text-anchor="middle" x="1113" y="-231.5" font-family="Helvetica,sans-Serif" font-size="10.00" fill="#000000">AH/Hardware/ADCConfig.hpp</text>
</a>
</g>
</g>
<!-- Node15&#45;&gt;Node17 -->
<g id="edge24" class="edge">
<title>Node15&#45;&gt;Node17</title>
<path fill="none" stroke="#191970" d="M1051.064,-280.2455C1062.3562,-271.814 1078.8845,-259.4729 1092.0271,-249.6598"/>
<polygon fill="#191970" stroke="#191970" points="1094.1669,-252.4301 1100.0857,-243.6427 1089.9789,-246.8211 1094.1669,-252.4301"/>
</g>
<!-- Node18 -->
<g id="node18" class="node">
<title>Node18</title>
<g id="a_node18"><a xlink:title=" ">
<polygon fill="#ffffff" stroke="#bfbfbf" points="897,-224.5 897,-243.5 945,-243.5 945,-224.5 897,-224.5"/>
<text text-anchor="middle" x="921" y="-231.5" font-family="Helvetica,sans-Serif" font-size="10.00" fill="#000000">limits.h</text>
</a>
</g>
</g>
<!-- Node15&#45;&gt;Node18 -->
<g id="edge27" class="edge">
<title>Node15&#45;&gt;Node18</title>
<path fill="none" stroke="#191970" d="M1017.887,-280.3733C999.1897,-271.4241 971.1256,-257.9917 950.0066,-247.8835"/>
<polygon fill="#191970" stroke="#191970" points="951.3817,-244.6614 940.8506,-243.5011 948.3595,-250.9755 951.3817,-244.6614"/>
</g>
<!-- Node19 -->
<g id="node19" class="node">
<title>Node19</title>
<g id="a_node19"><a xlink:title=" ">
<polygon fill="#ffffff" stroke="#bfbfbf" points="1243,-224.5 1243,-243.5 1295,-243.5 1295,-224.5 1243,-224.5"/>
<text text-anchor="middle" x="1269" y="-231.5" font-family="Helvetica,sans-Serif" font-size="10.00" fill="#000000">stddef.h</text>
</a>
</g>
</g>
<!-- Node15&#45;&gt;Node19 -->
<g id="edge28" class="edge">
<title>Node15&#45;&gt;Node19</title>
<path fill="none" stroke="#191970" d="M1073.5764,-281.5289C1111.9523,-272.3686 1174.8408,-257.2914 1229,-244 1230.2513,-243.6929 1231.5245,-243.3796 1232.8101,-243.0624"/>
<polygon fill="#191970" stroke="#191970" points="1233.8947,-246.3995 1242.758,-240.5949 1232.2095,-239.6053 1233.8947,-246.3995"/>
</g>
<!-- Node20 -->
<g id="node20" class="node">
<title>Node20</title>
<g id="a_node20"><a xlink:title=" ">
<polygon fill="#ffffff" stroke="#bfbfbf" points="1575.5,-224.5 1575.5,-243.5 1624.5,-243.5 1624.5,-224.5 1575.5,-224.5"/>
<text text-anchor="middle" x="1600" y="-231.5" font-family="Helvetica,sans-Serif" font-size="10.00" fill="#000000">stdint.h</text>
</a>
</g>
</g>
<!-- Node15&#45;&gt;Node20 -->
<g id="edge29" class="edge">
<title>Node15&#45;&gt;Node20</title>
<path fill="none" stroke="#191970" d="M1073.6984,-282.3741C1078.4925,-281.4927 1083.3564,-280.671 1088,-280 1266.5492,-254.201 1482.3528,-240.4641 1565.2561,-235.8258"/>
<polygon fill="#191970" stroke="#191970" points="1565.5851,-239.3131 1575.3774,-235.2681 1565.1999,-232.3237 1565.5851,-239.3131"/>
</g>
<!-- Node16&#45;&gt;Node6 -->
<g id="edge22" class="edge">
<title>Node16&#45;&gt;Node6</title>
<path fill="none" stroke="#191970" d="M1147.0092,-112.2258C1132.7262,-98.5714 1105.2832,-73.4984 1079,-56 1060.5135,-43.6924 1038.3085,-32.311 1020.58,-23.9482"/>
<polygon fill="#191970" stroke="#191970" points="1021.7886,-20.6509 1011.2435,-19.6261 1018.8479,-27.0033 1021.7886,-20.6509"/>
</g>
<!-- Node16&#45;&gt;Node12 -->
<g id="edge23" class="edge">
<title>Node16&#45;&gt;Node12</title>
<path fill="none" stroke="#191970" d="M1092.7197,-116.3222C982.0366,-106.5458 754.7105,-86.4665 623.1322,-74.8445"/>
<polygon fill="#191970" stroke="#191970" points="623.3164,-71.3472 613.0472,-73.9537 622.7005,-78.3201 623.3164,-71.3472"/>
</g>
<!-- Node17&#45;&gt;Node6 -->
<g id="edge25" class="edge">
<title>Node17&#45;&gt;Node6</title>
<path fill="none" stroke="#191970" d="M1110.7761,-224.3604C1103.9741,-196.3198 1081.4156,-113.1586 1041,-56 1032.8453,-44.467 1021.2599,-33.8536 1011.0936,-25.7346"/>
<polygon fill="#191970" stroke="#191970" points="1013.0625,-22.834 1002.9941,-19.5358 1008.8082,-28.3929 1013.0625,-22.834"/>
</g>
<!-- Node17&#45;&gt;Node8 -->
<g id="edge26" class="edge">
<title>Node17&#45;&gt;Node8</title>
<path fill="none" stroke="#191970" d="M1038.7213,-227.0208C922.0687,-216.0601 697.6318,-194.9721 584.9923,-184.3885"/>
<polygon fill="#191970" stroke="#191970" points="585.0601,-180.8796 574.7765,-183.4287 584.4052,-187.8489 585.0601,-180.8796"/>
</g>
<!-- Node23&#45;&gt;Node5 -->
<g id="edge35" class="edge">
<title>Node23&#45;&gt;Node5</title>
<path fill="none" stroke="#191970" d="M1890.2869,-448.3733C1920.6818,-439.021 1966.9893,-424.7725 2000.25,-414.5385"/>
<polygon fill="#191970" stroke="#191970" points="2001.5929,-417.7873 2010.1214,-411.5011 1999.5342,-411.0968 2001.5929,-417.7873"/>
</g>
<!-- Node23&#45;&gt;Node6 -->
<g id="edge34" class="edge">
<title>Node23&#45;&gt;Node6</title>
<path fill="none" stroke="#191970" d="M1871.3847,-448.3714C1892.6868,-430.6205 1934,-390.4628 1934,-346 1934,-346 1934,-346 1934,-122 1934,-90.7875 1935.1105,-74.5388 1910,-56 1876.2803,-31.1051 1281.2554,-16.1549 1065.953,-11.5406"/>
<polygon fill="#191970" stroke="#191970" points="1065.7567,-8.0358 1055.6845,-11.3222 1065.6078,-15.0342 1065.7567,-8.0358"/>
</g>
<!-- Node24&#45;&gt;Node5 -->
<g id="edge38" class="edge">
<title>Node24&#45;&gt;Node5</title>
<path fill="none" stroke="#191970" d="M950.7396,-643.8281C959.8414,-626.3322 981.5089,-589.5266 1011,-571 1040.1048,-552.716 1279.1763,-510.1116 1313,-504 1555.111,-460.253 1845.4124,-424.5512 1974.03,-409.5856"/>
<polygon fill="#191970" stroke="#191970" points="1974.5892,-413.0443 1984.1195,-408.4156 1973.7828,-406.0909 1974.5892,-413.0443"/>
</g>
<!-- Node24&#45;&gt;Node6 -->
<g id="edge37" class="edge">
<title>Node24&#45;&gt;Node6</title>
<path fill="none" stroke="#191970" d="M935.9056,-643.9536C926.5155,-634.3593 913.086,-618.6424 907,-602 849.2282,-444.0199 851.2118,-388.14 888,-224 905.3289,-146.6829 953.8739,-64.4005 976.7636,-28.5189"/>
<polygon fill="#191970" stroke="#191970" points="979.995,-29.968 982.4921,-19.6716 974.1191,-26.1634 979.995,-29.968"/>
</g>
<!-- Node24&#45;&gt;Node9 -->
<g id="edge39" class="edge">
<title>Node24&#45;&gt;Node9</title>
<path fill="none" stroke="#191970" d="M923.7836,-643.9435C833.3865,-604.3639 498,-450.4777 498,-346 498,-346 498,-346 498,-290 498,-219.79 425.1423,-162.9135 385.3044,-137.0618"/>
<polygon fill="#191970" stroke="#191970" points="386.97,-133.9742 376.646,-131.5938 383.2322,-139.8927 386.97,-133.9742"/>
</g>
<!-- Node25 -->
<g id="node25" class="node">
<title>Node25</title>
<g id="a_node25"><a xlink:title=" ">
<polygon fill="#ffffff" stroke="#bfbfbf" points="1020,-577 1020,-596 1068,-596 1068,-577 1020,-577"/>
<text text-anchor="middle" x="1044" y="-584" font-family="Helvetica,sans-Serif" font-size="10.00" fill="#000000">stdlib.h</text>
</a>
</g>
</g>
<!-- Node24&#45;&gt;Node25 -->
<g id="edge40" class="edge">
<title>Node24&#45;&gt;Node25</title>
<path fill="none" stroke="#191970" d="M960.041,-643.9005C976.1238,-632.9052 1002.6906,-614.7422 1021.6316,-601.7927"/>
<polygon fill="#191970" stroke="#191970" points="1023.7052,-604.6148 1029.985,-596.0817 1019.7545,-598.8362 1023.7052,-604.6148"/>
</g>
<!-- Node26 -->
<g id="node26" class="node">
<title>Node26</title>
<g id="a_node26"><a xlink:title=" ">
<polygon fill="#ffffff" stroke="#bfbfbf" points="916.5,-577 916.5,-596 963.5,-596 963.5,-577 916.5,-577"/>
<text text-anchor="middle" x="940" y="-584" font-family="Helvetica,sans-Serif" font-size="10.00" fill="#000000">iterator</text>
</a>
</g>
</g>
<!-- Node24&#45;&gt;Node26 -->
<g id="edge41" class="edge">
<title>Node24&#45;&gt;Node26</title>
<path fill="none" stroke="#191970" d="M945.1403,-643.9005C944.2671,-634.149 942.8889,-618.7597 941.7794,-606.3695"/>
<polygon fill="#191970" stroke="#191970" points="945.2361,-605.7296 940.8581,-596.0817 938.2641,-606.354 945.2361,-605.7296"/>
</g>
<!-- Node27&#45;&gt;Node13 -->
<g id="edge44" class="edge">
<title>Node27&#45;&gt;Node13</title>
<path fill="none" stroke="#191970" d="M2270.3657,-705.4435C2290.6789,-678.1018 2346,-596.5649 2346,-519.5 2346,-519.5 2346,-519.5 2346,-402 2346,-277.2599 2247.5498,-262.8078 2129,-224 2010.8648,-185.328 1135.7083,-137.6128 895.0758,-125.1138"/>
<polygon fill="#191970" stroke="#191970" points="894.9369,-121.602 884.7692,-124.5798 894.5747,-128.5926 894.9369,-121.602"/>
</g>
<!-- Node27&#45;&gt;Node20 -->
<g id="edge63" class="edge">
<title>Node27&#45;&gt;Node20</title>
<path fill="none" stroke="#191970" d="M2265.9526,-705.3036C2275.9639,-671.5373 2308,-555.8412 2308,-458 2308,-458 2308,-458 2308,-402 2308,-371.4754 2311.974,-356.0984 2289,-336 2263.9398,-314.0765 1771.8469,-254.3582 1635.0271,-238.1219"/>
<polygon fill="#191970" stroke="#191970" points="1635.0516,-234.6004 1624.7093,-236.9001 1634.2283,-241.5519 1635.0516,-234.6004"/>
</g>
<!-- Node27&#45;&gt;Node23 -->
<g id="edge43" class="edge">
<title>Node27&#45;&gt;Node23</title>
<path fill="none" stroke="#191970" d="M2251.4408,-705.4018C2212.8618,-673.6797 2084.2835,-570.4517 1966,-504 1943.3243,-491.2608 1916.4222,-479.7101 1895.2656,-471.3697"/>
<polygon fill="#191970" stroke="#191970" points="1896.2748,-468.0072 1885.6858,-467.6567 1893.7451,-474.5341 1896.2748,-468.0072"/>
</g>
<!-- Node28 -->
<g id="node28" class="node">
<title>Node28</title>
<g id="a_node28"><a xlink:href="../../d0/d4e/Def_8hpp.html" target="_top" xlink:title=" ">
<polygon fill="#ffffff" stroke="#000000" points="1839,-644 1839,-663 1909,-663 1909,-644 1839,-644"/>
<text text-anchor="middle" x="1874" y="-651" font-family="Helvetica,sans-Serif" font-size="10.00" fill="#000000">Def/Def.hpp</text>
</a>
</g>
</g>
<!-- Node27&#45;&gt;Node28 -->
<g id="edge45" class="edge">
<title>Node27&#45;&gt;Node28</title>
<path fill="none" stroke="#191970" d="M2202.6456,-705.4581C2124.3953,-693.0869 1989.6653,-671.7864 1919.4872,-660.6914"/>
<polygon fill="#191970" stroke="#191970" points="1919.6301,-657.1706 1909.2062,-659.066 1918.537,-664.0847 1919.6301,-657.1706"/>
</g>
<!-- Node28&#45;&gt;Node19 -->
<g id="edge61" class="edge">
<title>Node28&#45;&gt;Node19</title>
<path fill="none" stroke="#191970" d="M1890.2058,-643.9141C1947.5275,-609.4575 2135.2987,-491.6204 2098,-448 2064.5219,-408.8478 1919.0832,-424.0562 1869,-412 1685.7601,-367.8897 1647.4964,-330.8097 1466,-280 1410.4264,-264.4422 1345.0327,-249.905 1305.3207,-241.4878"/>
<polygon fill="#191970" stroke="#191970" points="1305.8216,-238.0166 1295.3151,-239.3815 1304.3796,-244.8664 1305.8216,-238.0166"/>
</g>
<!-- Node28&#45;&gt;Node20 -->
<g id="edge62" class="edge">
<title>Node28&#45;&gt;Node20</title>
<path fill="none" stroke="#191970" d="M1909.2659,-649.6805C1945.5791,-644.2508 2002.3132,-631.4503 2042,-602 2099.6119,-559.248 2111.0925,-536.6275 2132,-468 2134.5905,-459.497 2137.7298,-454.7957 2132,-448 2070.9591,-375.6045 2011.3563,-443.3457 1922,-412 1801.1376,-369.6021 1672.0577,-284.4153 1621.7858,-249.4831"/>
<polygon fill="#191970" stroke="#191970" points="1623.535,-246.4353 1613.3358,-243.567 1619.5202,-252.1695 1623.535,-246.4353"/>
</g>
<!-- Node29 -->
<g id="node29" class="node">
<title>Node29</title>
<g id="a_node29"><a xlink:href="../../d7/d42/Channel_8hpp.html" target="_top" xlink:title=" ">
<polygon fill="#ffffff" stroke="#000000" points="2132.5,-510 2132.5,-529 2203.5,-529 2203.5,-510 2132.5,-510"/>
<text text-anchor="middle" x="2168" y="-517" font-family="Helvetica,sans-Serif" font-size="10.00" fill="#000000">Channel.hpp</text>
</a>
</g>
</g>
<!-- Node28&#45;&gt;Node29 -->
<g id="edge46" class="edge">
<title>Node28&#45;&gt;Node29</title>
<path fill="none" stroke="#191970" d="M1909.1184,-650.1701C1951.7594,-644.9382 2024.8122,-632.0823 2080,-602 2110.4557,-585.3989 2138.3395,-555.7442 2154.2303,-536.8767"/>
<polygon fill="#191970" stroke="#191970" points="2157.0135,-539.0025 2160.6537,-529.0526 2151.6032,-534.5607 2157.0135,-539.0025"/>
</g>
<!-- Node30 -->
<g id="node30" class="node">
<title>Node30</title>
<g id="a_node30"><a xlink:title=" ">
<polygon fill="#ffffff" stroke="#bfbfbf" points="1926.5,-448.5 1926.5,-467.5 2089.5,-467.5 2089.5,-448.5 1926.5,-448.5"/>
<text text-anchor="middle" x="2008" y="-455.5" font-family="Helvetica,sans-Serif" font-size="10.00" fill="#000000">Settings/NamespaceSettings.hpp</text>
</a>
</g>
</g>
<!-- Node28&#45;&gt;Node30 -->
<g id="edge60" class="edge">
<title>Node28&#45;&gt;Node30</title>
<path fill="none" stroke="#191970" d="M1880.6451,-643.8051C1901.8101,-612.9263 1967.8754,-516.54 1995.5786,-476.1222"/>
<polygon fill="#191970" stroke="#191970" points="1998.5481,-477.9806 2001.3148,-467.7534 1992.7742,-474.023 1998.5481,-477.9806"/>
</g>
<!-- Node31 -->
<g id="node31" class="node">
<title>Node31</title>
<g id="a_node31"><a xlink:href="../../de/d76/Array_8hpp.html" target="_top" xlink:title=" ">
<polygon fill="#ffffff" stroke="#000000" points="977,-510 977,-529 1103,-529 1103,-510 977,-510"/>
<text text-anchor="middle" x="1040" y="-517" font-family="Helvetica,sans-Serif" font-size="10.00" fill="#000000">AH/Containers/Array.hpp</text>
</a>
</g>
</g>
<!-- Node28&#45;&gt;Node31 -->
<g id="edge49" class="edge">
<title>Node28&#45;&gt;Node31</title>
<path fill="none" stroke="#191970" d="M1838.9618,-647.8704C1712.698,-627.5834 1279.5069,-557.9819 1109.3804,-530.6475"/>
<polygon fill="#191970" stroke="#191970" points="1109.717,-527.1567 1099.2883,-529.0259 1108.6064,-534.0681 1109.717,-527.1567"/>
</g>
<!-- Node33 -->
<g id="node33" class="node">
<title>Node33</title>
<g id="a_node33"><a xlink:href="../../d4/d35/Hardware-Types_8hpp.html" target="_top" xlink:title=" ">
<polygon fill="#ffffff" stroke="#000000" points="554.5,-571.5 554.5,-601.5 675.5,-601.5 675.5,-571.5 554.5,-571.5"/>
<text text-anchor="start" x="562.5" y="-589.5" font-family="Helvetica,sans-Serif" font-size="10.00" fill="#000000">AH/Hardware/Hardware</text>
<text text-anchor="middle" x="615" y="-578.5" font-family="Helvetica,sans-Serif" font-size="10.00" fill="#000000">&#45;Types.hpp</text>
</a>
</g>
</g>
<!-- Node28&#45;&gt;Node33 -->
<g id="edge55" class="edge">
<title>Node28&#45;&gt;Node33</title>
<path fill="none" stroke="#191970" d="M1838.7874,-648.3638C1813.7864,-644.9058 1779.4002,-640.5305 1749,-638 1375.7269,-606.9283 1281.1348,-619.9276 907,-602 831.5395,-598.3841 745.1381,-593.7344 686.0156,-590.4746"/>
<polygon fill="#191970" stroke="#191970" points="685.8473,-586.9601 675.6694,-589.903 685.4611,-593.9494 685.8473,-586.9601"/>
</g>
<!-- Node29&#45;&gt;Node20 -->
<g id="edge47" class="edge">
<title>Node29&#45;&gt;Node20</title>
<path fill="none" stroke="#191970" d="M2171.8543,-509.8817C2177.1888,-494.8158 2184.6168,-465.5623 2170,-448 2113.6218,-380.2608 2058.3726,-440.5677 1975,-412 1854.2731,-370.6328 1836.4291,-332.2541 1720,-280 1691.554,-267.2333 1658.4058,-254.6973 1634.1656,-245.9446"/>
<polygon fill="#191970" stroke="#191970" points="1635.2838,-242.6274 1624.6893,-242.5515 1632.9241,-249.2177 1635.2838,-242.6274"/>
</g>
<!-- Node29&#45;&gt;Node30 -->
<g id="edge48" class="edge">
<title>Node29&#45;&gt;Node30</title>
<path fill="none" stroke="#191970" d="M2143,-509.8906C2115.9942,-499.5103 2072.7815,-482.9004 2042.5406,-471.2766"/>
<polygon fill="#191970" stroke="#191970" points="2043.4144,-467.8628 2032.8244,-467.5419 2040.9029,-474.3968 2043.4144,-467.8628"/>
</g>
<!-- Node31&#45;&gt;Node6 -->
<g id="edge50" class="edge">
<title>Node31&#45;&gt;Node6</title>
<path fill="none" stroke="#191970" d="M1037.207,-509.9887C1028.4726,-479.6855 1001.7387,-382.5479 993,-300 992.0642,-291.1605 992.7002,-288.8838 993,-280 995.2235,-214.1097 1000.7765,-197.8903 1003,-132 1004.1392,-98.2414 1007.9715,-89.4099 1003,-56 1001.6673,-47.0439 998.9506,-37.419 996.2619,-29.3"/>
<polygon fill="#191970" stroke="#191970" points="999.4936,-27.9402 992.8624,-19.6772 992.8933,-30.272 999.4936,-27.9402"/>
</g>
<!-- Node31&#45;&gt;Node13 -->
<g id="edge53" class="edge">
<title>Node31&#45;&gt;Node13</title>
<path fill="none" stroke="#191970" d="M1028.8257,-509.9646C1017.6971,-500.134 1000.5128,-484.0225 988,-468 916.7363,-376.7481 895.0422,-352.6373 855,-244 842.2951,-209.5306 837.194,-166.7018 835.2068,-142.0436"/>
<polygon fill="#191970" stroke="#191970" points="838.679,-141.5275 834.4791,-131.8007 831.6966,-142.0237 838.679,-141.5275"/>
</g>
<!-- Node31&#45;&gt;Node19 -->
<g id="edge54" class="edge">
<title>Node31&#45;&gt;Node19</title>
<path fill="none" stroke="#191970" d="M1041.2408,-509.7764C1043.3447,-495.564 1048.4534,-468.5734 1059,-448 1081.0399,-405.0062 1160.8636,-312.0684 1197,-280 1210.6516,-267.8852 1227.8137,-256.7892 1241.9579,-248.5315"/>
<polygon fill="#191970" stroke="#191970" points="1243.7865,-251.518 1250.7495,-243.5326 1240.3265,-245.4329 1243.7865,-251.518"/>
</g>
<!-- Node31&#45;&gt;Node23 -->
<g id="edge51" class="edge">
<title>Node31&#45;&gt;Node23</title>
<path fill="none" stroke="#191970" d="M1103.2445,-514.7509C1257.1363,-503.1949 1649.465,-473.7343 1799.455,-462.4713"/>
<polygon fill="#191970" stroke="#191970" points="1800.119,-465.9314 1809.8289,-461.6923 1799.5948,-458.9511 1800.119,-465.9314"/>
</g>
<!-- Node32 -->
<g id="node32" class="node">
<title>Node32</title>
<g id="a_node32"><a xlink:title=" ">
<polygon fill="#ffffff" stroke="#bfbfbf" points="1068.5,-448.5 1068.5,-467.5 1153.5,-467.5 1153.5,-448.5 1068.5,-448.5"/>
<text text-anchor="middle" x="1111" y="-455.5" font-family="Helvetica,sans-Serif" font-size="10.00" fill="#000000">AH/STL/iterator</text>
</a>
</g>
</g>
<!-- Node31&#45;&gt;Node32 -->
<g id="edge52" class="edge">
<title>Node31&#45;&gt;Node32</title>
<path fill="none" stroke="#191970" d="M1051.0938,-509.8906C1061.9715,-500.4683 1078.7748,-485.9134 1091.82,-474.6137"/>
<polygon fill="#191970" stroke="#191970" points="1094.4827,-476.9377 1099.7498,-467.7449 1089.8996,-471.6466 1094.4827,-476.9377"/>
</g>
<!-- Node33&#45;&gt;Node6 -->
<g id="edge56" class="edge">
<title>Node33&#45;&gt;Node6</title>
<path fill="none" stroke="#191970" d="M613.5012,-571.4187C609.9308,-534.6432 600.9977,-437.4007 598,-356 596.7569,-322.2451 593.1087,-313.4218 598,-280 613.0475,-177.1817 586.2363,-123.7813 665,-56 683.4521,-40.1207 822.4274,-24.8849 912.2719,-16.5487"/>
<polygon fill="#191970" stroke="#191970" points="912.7928,-20.0157 922.4309,-15.616 912.1528,-13.045 912.7928,-20.0157"/>
</g>
<!-- Node33&#45;&gt;Node12 -->
<g id="edge58" class="edge">
<title>Node33&#45;&gt;Node12</title>
<path fill="none" stroke="#191970" d="M597.8582,-571.34C574.6236,-549.0235 536,-504.8762 536,-458 536,-458 536,-458 536,-346 536,-264.1775 604.4981,-246.9477 583,-168 574.1528,-135.5103 552.0405,-102.8132 537.2749,-83.4916"/>
<polygon fill="#191970" stroke="#191970" points="540.0103,-81.3078 531.0817,-75.6041 534.5046,-85.6308 540.0103,-81.3078"/>
</g>
<!-- Node33&#45;&gt;Node20 -->
<g id="edge59" class="edge">
<title>Node33&#45;&gt;Node20</title>
<path fill="none" stroke="#191970" d="M666.6239,-571.3993C716.3237,-553.3081 784,-517.7107 784,-458 784,-458 784,-458 784,-402 784,-354.1508 1150.1088,-289.5269 1197,-280 1331.5622,-252.661 1494.941,-240.282 1565.171,-235.9343"/>
<polygon fill="#191970" stroke="#191970" points="1565.4627,-239.4232 1575.2338,-235.3274 1565.0412,-232.4359 1565.4627,-239.4232"/>
</g>
<!-- Node33&#45;&gt;Node31 -->
<g id="edge57" class="edge">
<title>Node33&#45;&gt;Node31</title>
<path fill="none" stroke="#191970" d="M675.8921,-576.9005C753.5599,-564.6564 887.6081,-543.5241 969.5864,-530.6005"/>
<polygon fill="#191970" stroke="#191970" points="970.2315,-534.0421 979.5645,-529.0275 969.1414,-527.1275 970.2315,-534.0421"/>
</g>
<!-- Node34&#45;&gt;Node4 -->
<g id="edge65" class="edge">
<title>Node34&#45;&gt;Node4</title>
<path fill="none" stroke="#191970" d="M2061.8971,-786.0817C2063.7877,-795.8263 2064.2315,-811.214 2063.2285,-823.6079"/>
<polygon fill="#191970" stroke="#191970" points="2059.709,-823.5349 2061.9006,-833.9005 2066.6514,-824.4306 2059.709,-823.5349"/>
</g>
<!-- Node34&#45;&gt;Node5 -->
<g id="edge70" class="edge">
<title>Node34&#45;&gt;Node5</title>
<path fill="none" stroke="#191970" d="M2069.3161,-766.8243C2110.2012,-733.4533 2237.482,-618.8958 2213,-504 2207.3197,-477.342 2208.3635,-466.1174 2188,-448 2165.8472,-428.2907 2135.3065,-417.0251 2107.8002,-410.5862"/>
<polygon fill="#191970" stroke="#191970" points="2108.339,-407.1219 2097.8248,-408.4257 2106.8573,-413.9633 2108.339,-407.1219"/>
</g>
<!-- Node34&#45;&gt;Node24 -->
<g id="edge71" class="edge">
<title>Node34&#45;&gt;Node24</title>
<path fill="none" stroke="#191970" d="M2048.8811,-766.8185C2034.5299,-750.5197 2002.883,-718.0999 1968,-705 1878.1542,-671.2595 1200.741,-675.6584 1105,-669 1080.5482,-667.2995 1054.0301,-664.9259 1029.7864,-662.5465"/>
<polygon fill="#191970" stroke="#191970" points="1029.8454,-659.0352 1019.5481,-661.5284 1029.1526,-666.0009 1029.8454,-659.0352"/>
</g>
<!-- Node34&#45;&gt;Node35 -->
<g id="edge66" class="edge">
<title>Node34&#45;&gt;Node35</title>
<path fill="none" stroke="#191970" d="M2057.9375,-766.8906C2058.7692,-758.3657 2060.0108,-745.6392 2061.0562,-734.9235"/>
<polygon fill="#191970" stroke="#191970" points="2064.5617,-735.0375 2062.0493,-724.7449 2057.5947,-734.3577 2064.5617,-735.0375"/>
</g>
<!-- Node34&#45;&gt;Node36 -->
<g id="edge68" class="edge">
<title>Node34&#45;&gt;Node36</title>
<path fill="none" stroke="#191970" d="M2021.8438,-766.8906C1982.7111,-756.1944 1919.379,-738.8836 1876.7418,-727.2294"/>
<polygon fill="#191970" stroke="#191970" points="1877.4784,-723.8024 1866.9094,-724.5419 1875.6327,-730.5547 1877.4784,-723.8024"/>
</g>
<!-- Node35&#45;&gt;Node28 -->
<g id="edge67" class="edge">
<title>Node35&#45;&gt;Node28</title>
<path fill="none" stroke="#191970" d="M2033.4688,-705.3906C2001.0134,-694.8298 1948.7419,-677.8208 1912.9514,-666.1747"/>
<polygon fill="#191970" stroke="#191970" points="1913.9161,-662.808 1903.3239,-663.0419 1911.7501,-669.4645 1913.9161,-662.808"/>
</g>
<!-- Node36&#45;&gt;Node28 -->
<g id="edge69" class="edge">
<title>Node36&#45;&gt;Node28</title>
<path fill="none" stroke="#191970" d="M1838.5625,-705.3906C1844.6908,-696.417 1853.9985,-682.7879 1861.5372,-671.7491"/>
<polygon fill="#191970" stroke="#191970" points="1864.5956,-673.4768 1867.345,-663.2449 1858.815,-669.529 1864.5956,-673.4768"/>
</g>
<!-- Node37&#45;&gt;Node3 -->
<g id="edge75" class="edge">
<title>Node37&#45;&gt;Node3</title>
<path fill="none" stroke="#191970" d="M1843.3421,-951.4554C1871.5401,-941.194 1908.5031,-927.7429 1935.3943,-917.9571"/>
<polygon fill="#191970" stroke="#191970" points="1936.6108,-921.239 1944.811,-914.5303 1934.217,-914.6611 1936.6108,-921.239"/>
</g>
<!-- Node37&#45;&gt;Node28 -->
<g id="edge76" class="edge">
<title>Node37&#45;&gt;Node28</title>
<path fill="none" stroke="#191970" d="M1805.2454,-951.4991C1808.58,-936.8832 1814.2311,-914.1313 1821,-895 1848.6055,-816.9774 1879.731,-805.9405 1897,-725 1900.935,-706.5565 1893.0833,-686.1322 1885.5065,-671.8515"/>
<polygon fill="#191970" stroke="#191970" points="1888.4664,-669.9773 1880.4533,-663.0462 1882.3952,-673.4616 1888.4664,-669.9773"/>
</g>
<!-- Node38 -->
<g id="node38" class="node">
<title>Node38</title>
<g id="a_node38"><a xlink:title=" ">
<polygon fill="#ffffff" stroke="#bfbfbf" points="1830.5,-895.5 1830.5,-914.5 1891.5,-914.5 1891.5,-895.5 1830.5,-895.5"/>
<text text-anchor="middle" x="1861" y="-902.5" font-family="Helvetica,sans-Serif" font-size="10.00" fill="#000000">Encoder.h</text>
</a>
</g>
</g>
<!-- Node37&#45;&gt;Node38 -->
<g id="edge77" class="edge">
<title>Node37&#45;&gt;Node38</title>
<path fill="none" stroke="#191970" d="M1816.5843,-951.2977C1825.03,-942.4941 1835.6892,-931.3833 1844.4484,-922.2529"/>
<polygon fill="#191970" stroke="#191970" points="1847.1561,-924.4862 1851.5534,-914.8469 1842.1048,-919.6402 1847.1561,-924.4862"/>
</g>
<!-- Node39 -->
<g id="node39" class="node">
<title>Node39</title>
<g id="a_node39"><a xlink:href="../../d1/d41/MIDIOutputElement_8hpp.html" target="_top" xlink:title=" ">
<polygon fill="#ffffff" stroke="#000000" points="1685.5,-761.5 1685.5,-791.5 1810.5,-791.5 1810.5,-761.5 1685.5,-761.5"/>
<text text-anchor="start" x="1693.5" y="-779.5" font-family="Helvetica,sans-Serif" font-size="10.00" fill="#000000">MIDI_Outputs/Abstract</text>
<text text-anchor="middle" x="1748" y="-768.5" font-family="Helvetica,sans-Serif" font-size="10.00" fill="#000000">/MIDIOutputElement.hpp</text>
</a>
</g>
</g>
<!-- Node37&#45;&gt;Node39 -->
<g id="edge78" class="edge">
<title>Node37&#45;&gt;Node39</title>
<path fill="none" stroke="#191970" d="M1797.6722,-951.2727C1788.3676,-918.5343 1766.3854,-841.1895 1755.0427,-801.2799"/>
<polygon fill="#191970" stroke="#191970" points="1758.374,-800.1983 1752.2734,-791.5361 1751.6407,-802.112 1758.374,-800.1983"/>
</g>
<!-- Node39&#45;&gt;Node28 -->
<g id="edge87" class="edge">
<title>Node39&#45;&gt;Node28</title>
<path fill="none" stroke="#191970" d="M1748.4182,-761.4353C1749.6034,-745.709 1753.6579,-721.1336 1767,-705 1782.8369,-685.8496 1807.4824,-673.3155 1829.1303,-665.4129"/>
<polygon fill="#191970" stroke="#191970" points="1830.4922,-668.6462 1838.8233,-662.1007 1828.2287,-662.0223 1830.4922,-668.6462"/>
</g>
<!-- Node39&#45;&gt;Node36 -->
<g id="edge88" class="edge">
<title>Node39&#45;&gt;Node36</title>
<path fill="none" stroke="#191970" d="M1768.7641,-761.2977C1781.3958,-752.0495 1797.5053,-740.2551 1810.3031,-730.8853"/>
<polygon fill="#191970" stroke="#191970" points="1812.5495,-733.5784 1818.5505,-724.8469 1808.4143,-727.9303 1812.5495,-733.5784"/>
</g>
<!-- Node40 -->
<g id="node40" class="node">
<title>Node40</title>
<g id="a_node40"><a xlink:href="../../d4/d93/Updatable_8hpp.html" target="_top" xlink:title=" ">
<polygon fill="#ffffff" stroke="#000000" points="1106.5,-705.5 1106.5,-724.5 1253.5,-724.5 1253.5,-705.5 1106.5,-705.5"/>
<text text-anchor="middle" x="1180" y="-712.5" font-family="Helvetica,sans-Serif" font-size="10.00" fill="#000000">AH/Containers/Updatable.hpp</text>
</a>
</g>
</g>
<!-- Node39&#45;&gt;Node40 -->
<g id="edge79" class="edge">
<title>Node39&#45;&gt;Node40</title>
<path fill="none" stroke="#191970" d="M1685.1225,-764.8046C1676.6927,-763.4186 1668.1471,-762.1061 1660,-761 1521.7349,-742.2278 1360.0382,-728.4003 1264.0332,-721.0364"/>
<polygon fill="#191970" stroke="#191970" points="1264.0416,-717.527 1253.8046,-720.2573 1263.5099,-724.5068 1264.0416,-717.527"/>
</g>
<!-- Node40&#45;&gt;Node6 -->
<g id="edge80" class="edge">
<title>Node40&#45;&gt;Node6</title>
<path fill="none" stroke="#191970" d="M1107.4381,-705.453C1015.2999,-693.1897 867.6148,-673.0022 863,-669 785.6531,-601.9207 847.2179,-537.7762 798,-448 756.0532,-371.4867 699.6124,-381.7111 669,-300 647.5548,-242.758 742.7771,-86.0643 796,-56 831.3641,-36.0237 875.0963,-24.6906 911.9854,-18.2765"/>
<polygon fill="#191970" stroke="#191970" points="912.8977,-21.6735 922.1959,-16.5948 911.76,-14.7666 912.8977,-21.6735"/>
</g>
<!-- Node40&#45;&gt;Node14 -->
<g id="edge85" class="edge">
<title>Node40&#45;&gt;Node14</title>
<path fill="none" stroke="#191970" d="M1151.1892,-705.4613C1134.481,-698.274 1114.8485,-686.5938 1105,-669 1098.2702,-656.9776 1101.6482,-651.3639 1105,-638 1125.8486,-554.8752 1155.8716,-543.7239 1196,-468 1215.4032,-431.3854 1237.8559,-388.4531 1250.3439,-364.5237"/>
<polygon fill="#191970" stroke="#191970" points="1253.5263,-365.9906 1255.0479,-355.5056 1247.3199,-362.7532 1253.5263,-365.9906"/>
</g>
<!-- Node40&#45;&gt;Node19 -->
<g id="edge86" class="edge">
<title>Node40&#45;&gt;Node19</title>
<path fill="none" stroke="#191970" d="M1150.3236,-705.4484C1132.5131,-698.2071 1110.8835,-686.4737 1098,-669 1071.5655,-633.1473 1106.7533,-604.1503 1077,-571 1042.9225,-533.0318 997.8879,-576.347 968,-535 959.9286,-523.834 962.9949,-516.8365 968,-504 1017.1346,-377.986 1065.4393,-360.674 1174,-280 1192.1613,-266.504 1214.9041,-255.3255 1233.5838,-247.3686"/>
<polygon fill="#191970" stroke="#191970" points="1235.0292,-250.5585 1242.9359,-243.5061 1232.3571,-244.0885 1235.0292,-250.5585"/>
</g>
<!-- Node40&#45;&gt;Node23 -->
<g id="edge83" class="edge">
<title>Node40&#45;&gt;Node23</title>
<path fill="none" stroke="#191970" d="M1201.0734,-705.4493C1217.0386,-697.4326 1238.7541,-684.7695 1254,-669 1312.8166,-608.1633 1277.7208,-549.6046 1349,-504 1358.4081,-497.9807 1667.4827,-473.0528 1799.8223,-462.6219"/>
<polygon fill="#191970" stroke="#191970" points="1800.1027,-466.1108 1809.7972,-461.8368 1799.5534,-459.1324 1800.1027,-466.1108"/>
</g>
<!-- Node40&#45;&gt;Node24 -->
<g id="edge82" class="edge">
<title>Node40&#45;&gt;Node24</title>
<path fill="none" stroke="#191970" d="M1143.6942,-705.4581C1102.8781,-694.7308 1036.5162,-677.2895 992.077,-665.61"/>
<polygon fill="#191970" stroke="#191970" points="992.9522,-662.2212 982.3909,-663.0643 991.1728,-668.9913 992.9522,-662.2212"/>
</g>
<!-- Node41 -->
<g id="node41" class="node">
<title>Node41</title>
<g id="a_node41"><a xlink:href="../../d8/db4/AH_2Containers_2CRTP_8hpp.html" target="_top" xlink:title=" ">
<polygon fill="#ffffff" stroke="#000000" points="1114.5,-644 1114.5,-663 1245.5,-663 1245.5,-644 1114.5,-644"/>
<text text-anchor="middle" x="1180" y="-651" font-family="Helvetica,sans-Serif" font-size="10.00" fill="#000000">AH/Containers/CRTP.hpp</text>
</a>
</g>
</g>
<!-- Node40&#45;&gt;Node41 -->
<g id="edge81" class="edge">
<title>Node40&#45;&gt;Node41</title>
<path fill="none" stroke="#191970" d="M1180,-705.3906C1180,-696.8657 1180,-684.1392 1180,-673.4235"/>
<polygon fill="#191970" stroke="#191970" points="1183.5001,-673.2448 1180,-663.2449 1176.5001,-673.2449 1183.5001,-673.2448"/>
</g>
<!-- Node42 -->
<g id="node42" class="node">
<title>Node42</title>
<g id="a_node42"><a xlink:title=" ">
<polygon fill="#ffffff" stroke="#bfbfbf" points="1358,-510 1358,-529 1436,-529 1436,-510 1358,-510"/>
<text text-anchor="middle" x="1397" y="-517" font-family="Helvetica,sans-Serif" font-size="10.00" fill="#000000">AH/STL/utility</text>
</a>
</g>
</g>
<!-- Node40&#45;&gt;Node42 -->
<g id="edge84" class="edge">
<title>Node40&#45;&gt;Node42</title>
<path fill="none" stroke="#191970" d="M1214.892,-705.4423C1237.3944,-698.066 1266.3847,-686.1858 1288,-669 1334.9626,-631.6612 1371.4217,-569.2217 1387.7037,-538.1875"/>
<polygon fill="#191970" stroke="#191970" points="1390.8195,-539.7819 1392.2688,-529.2867 1384.5909,-536.5873 1390.8195,-539.7819"/>
</g>
<!-- Node43&#45;&gt;Node11 -->
<g id="edge153" class="edge">
<title>Node43&#45;&gt;Node11</title>
<path fill="none" stroke="#191970" d="M956.3733,-903.3135C701.021,-897.4058 0,-872.4498 0,-776.5 0,-776.5 0,-776.5 0,-122 0,-64.7792 70.2574,-33.8402 116.1698,-19.731"/>
<polygon fill="#191970" stroke="#191970" points="117.2348,-23.0661 125.8457,-16.8933 115.2648,-16.349 117.2348,-23.0661"/>
</g>
<!-- Node44 -->
<g id="node44" class="node">
<title>Node44</title>
<g id="a_node44"><a xlink:href="../../d3/d37/Control__Surface__Class_8hpp.html" target="_top" xlink:title=" ">
<polygon fill="#ffffff" stroke="#000000" points="987,-828.5 987,-858.5 1109,-858.5 1109,-828.5 987,-828.5"/>
<text text-anchor="start" x="995" y="-846.5" font-family="Helvetica,sans-Serif" font-size="10.00" fill="#000000">Control_Surface/Control</text>
<text text-anchor="middle" x="1048" y="-835.5" font-family="Helvetica,sans-Serif" font-size="10.00" fill="#000000">_Surface_Class.hpp</text>
</a>
</g>
</g>
<!-- Node43&#45;&gt;Node44 -->
<g id="edge90" class="edge">
<title>Node43&#45;&gt;Node44</title>
<path fill="none" stroke="#191970" d="M1048,-895.3906C1048,-888.2234 1048,-878.0862 1048,-868.671"/>
<polygon fill="#191970" stroke="#191970" points="1051.5001,-868.5446 1048,-858.5446 1044.5001,-868.5446 1051.5001,-868.5446"/>
</g>
<!-- Node44&#45;&gt;Node40 -->
<g id="edge91" class="edge">
<title>Node44&#45;&gt;Node40</title>
<path fill="none" stroke="#191970" d="M1063.6605,-828.2548C1088.5401,-804.0349 1136.9164,-756.9413 1162.7548,-731.788"/>
<polygon fill="#191970" stroke="#191970" points="1165.275,-734.2192 1169.999,-724.7358 1160.3922,-729.2033 1165.275,-734.2192"/>
</g>
<!-- Node45 -->
<g id="node45" class="node">
<title>Node45</title>
<g id="a_node45"><a xlink:href="../../d8/df3/FilteredAnalog_8hpp.html" target="_top" xlink:title=" ">
<polygon fill="#ffffff" stroke="#000000" points="446,-705.5 446,-724.5 606,-724.5 606,-705.5 446,-705.5"/>
<text text-anchor="middle" x="526" y="-712.5" font-family="Helvetica,sans-Serif" font-size="10.00" fill="#000000">AH/Hardware/FilteredAnalog.hpp</text>
</a>
</g>
</g>
<!-- Node44&#45;&gt;Node45 -->
<g id="edge92" class="edge">
<title>Node44&#45;&gt;Node45</title>
<path fill="none" stroke="#191970" d="M986.8419,-828.4448C882.0292,-802.6432 670.163,-750.4884 574.6463,-726.9752"/>
<polygon fill="#191970" stroke="#191970" points="575.2262,-723.5135 564.6795,-724.5217 573.5529,-730.3106 575.2262,-723.5135"/>
</g>
<!-- Node50 -->
<g id="node50" class="node">
<title>Node50</title>
<g id="a_node50"><a xlink:href="../../d1/dd0/MillisMicrosTimer_8hpp.html" target="_top" xlink:title=" ">
<polygon fill="#ffffff" stroke="#000000" points="145.5,-224.5 145.5,-243.5 306.5,-243.5 306.5,-224.5 145.5,-224.5"/>
<text text-anchor="middle" x="226" y="-231.5" font-family="Helvetica,sans-Serif" font-size="10.00" fill="#000000">AH/Timing/MillisMicrosTimer.hpp</text>
</a>
</g>
</g>
<!-- Node44&#45;&gt;Node50 -->
<g id="edge113" class="edge">
<title>Node44&#45;&gt;Node50</title>
<path fill="none" stroke="#191970" d="M986.7179,-842.1862C767.8927,-836.6945 38,-811.1689 38,-715 38,-715 38,-715 38,-346 38,-312.1521 49.532,-301.098 76,-280 96.7781,-263.4375 123.5017,-252.8181 148.6225,-246.0174"/>
<polygon fill="#191970" stroke="#191970" points="149.6913,-249.3572 158.5239,-243.5061 147.9704,-242.5721 149.6913,-249.3572"/>
</g>
<!-- Node51 -->
<g id="node51" class="node">
<title>Node51</title>
<g id="a_node51"><a xlink:href="../../d6/dd2/DisplayElement_8hpp.html" target="_top" xlink:title=" ">
<polygon fill="#ffffff" stroke="#000000" points="880,-767 880,-786 1020,-786 1020,-767 880,-767"/>
<text text-anchor="middle" x="950" y="-774" font-family="Helvetica,sans-Serif" font-size="10.00" fill="#000000">Display/DisplayElement.hpp</text>
</a>
</g>
</g>
<!-- Node44&#45;&gt;Node51 -->
<g id="edge117" class="edge">
<title>Node44&#45;&gt;Node51</title>
<path fill="none" stroke="#191970" d="M1025.7623,-828.2967C1009.7522,-817.351 988.2437,-802.6462 972.2344,-791.701"/>
<polygon fill="#191970" stroke="#191970" points="974.2064,-788.8095 963.9759,-786.055 970.2557,-794.5881 974.2064,-788.8095"/>
</g>
<!-- Node52 -->
<g id="node52" class="node">
<title>Node52</title>
<g id="a_node52"><a xlink:href="../../dc/d77/DisplayInterface_8hpp.html" target="_top" xlink:title=" ">
<polygon fill="#ffffff" stroke="#000000" points="945.5,-705.5 945.5,-724.5 1088.5,-724.5 1088.5,-705.5 945.5,-705.5"/>
<text text-anchor="middle" x="1017" y="-712.5" font-family="Helvetica,sans-Serif" font-size="10.00" fill="#000000">Display/DisplayInterface.hpp</text>
</a>
</g>
</g>
<!-- Node44&#45;&gt;Node52 -->
<g id="edge123" class="edge">
<title>Node44&#45;&gt;Node52</title>
<path fill="none" stroke="#191970" d="M1044.6291,-828.2634C1040.9288,-811.6834 1034.7477,-784.4092 1029,-761 1026.8653,-752.3059 1024.3853,-742.721 1022.2358,-734.5611"/>
<polygon fill="#191970" stroke="#191970" points="1025.6063,-733.6166 1019.6573,-724.8497 1018.8407,-735.413 1025.6063,-733.6166"/>
</g>
<!-- Node54 -->
<g id="node54" class="node">
<title>Node54</title>
<g id="a_node54"><a xlink:href="../../d6/d04/MIDI__Interface_8hpp.html" target="_top" xlink:title=" ">
<polygon fill="#ffffff" stroke="#000000" points="1539,-761.5 1539,-791.5 1651,-791.5 1651,-761.5 1539,-761.5"/>
<text text-anchor="start" x="1547" y="-779.5" font-family="Helvetica,sans-Serif" font-size="10.00" fill="#000000">MIDI_Interfaces/MIDI</text>
<text text-anchor="middle" x="1595" y="-768.5" font-family="Helvetica,sans-Serif" font-size="10.00" fill="#000000">_Interface.hpp</text>
</a>
</g>
</g>
<!-- Node44&#45;&gt;Node54 -->
<g id="edge124" class="edge">
<title>Node44&#45;&gt;Node54</title>
<path fill="none" stroke="#191970" d="M1109.1556,-836.0093C1212.7285,-823.323 1421.7994,-797.7147 1528.733,-784.6168"/>
<polygon fill="#191970" stroke="#191970" points="1529.2554,-788.0791 1538.7556,-783.3892 1528.4043,-781.131 1529.2554,-788.0791"/>
</g>
<!-- Node59 -->
<g id="node59" class="node">
<title>Node59</title>
<g id="a_node59"><a xlink:title=" ">
<polygon fill="#ffffff" stroke="#bfbfbf" points="1340.5,-644 1340.5,-663 1487.5,-663 1487.5,-644 1340.5,-644"/>
<text text-anchor="middle" x="1414" y="-651" font-family="Helvetica,sans-Serif" font-size="10.00" fill="#000000">Settings/SettingsWrapper.hpp</text>
</a>
</g>
</g>
<!-- Node44&#45;&gt;Node59 -->
<g id="edge152" class="edge">
<title>Node44&#45;&gt;Node59</title>
<path fill="none" stroke="#191970" d="M1077.0253,-828.4322C1145.9977,-792.6269 1318.9788,-702.8279 1386.4455,-667.8043"/>
<polygon fill="#191970" stroke="#191970" points="1388.3463,-670.7611 1395.609,-663.0472 1385.121,-664.5483 1388.3463,-670.7611"/>
</g>
<!-- Node45&#45;&gt;Node6 -->
<g id="edge93" class="edge">
<title>Node45&#45;&gt;Node6</title>
<path fill="none" stroke="#191970" d="M551.8581,-705.4369C589.0328,-690.1066 656.1624,-656.1335 684,-602 760.8978,-452.4631 624.2345,-386.355 668,-224 682.4338,-170.4554 692.4068,-158.2538 723,-112 740.6142,-85.3692 740.7723,-72.6765 768,-56 791.9896,-41.3067 858.576,-28.6266 912.4381,-20.3227"/>
<polygon fill="#191970" stroke="#191970" points="912.9711,-23.7819 922.3341,-18.8236 911.9226,-16.8609 912.9711,-23.7819"/>
</g>
<!-- Node45&#45;&gt;Node9 -->
<g id="edge111" class="edge">
<title>Node45&#45;&gt;Node9</title>
<path fill="none" stroke="#191970" d="M445.8084,-708.6082C316.4342,-696.0613 76,-662.5175 76,-586.5 76,-586.5 76,-586.5 76,-346 76,-315.4754 72.1796,-300.2727 95,-280 169.0714,-214.1978 238.5745,-307.0526 315,-244 346.0696,-218.367 355.6895,-169.2042 358.6668,-141.7604"/>
<polygon fill="#191970" stroke="#191970" points="362.1553,-142.0436 359.5578,-131.7721 355.183,-141.4215 362.1553,-142.0436"/>
</g>
<!-- Node45&#45;&gt;Node14 -->
<g id="edge112" class="edge">
<title>Node45&#45;&gt;Node14</title>
<path fill="none" stroke="#191970" d="M593.4295,-705.4687C631.2419,-698.5151 678.5853,-687.0713 718,-669 739.4161,-659.1809 740.642,-649.8581 761,-638 822.6927,-602.0655 838.8366,-592.2375 907,-571 995.3179,-543.483 1032.8707,-582.9144 1112,-535 1146.2947,-514.2339 1197.0071,-423.3483 1222,-392 1229.5552,-382.5236 1238.1419,-372.1008 1245.239,-363.5761"/>
<polygon fill="#191970" stroke="#191970" points="1248.0193,-365.7072 1251.7463,-355.7895 1242.648,-361.2184 1248.0193,-365.7072"/>
</g>
<!-- Node45&#45;&gt;Node33 -->
<g id="edge105" class="edge">
<title>Node45&#45;&gt;Node33</title>
<path fill="none" stroke="#191970" d="M532.6895,-705.3416C546.5511,-685.328 578.7632,-638.8194 598.5299,-610.2799"/>
<polygon fill="#191970" stroke="#191970" points="601.6547,-611.9152 604.4713,-601.7016 595.9002,-607.9296 601.6547,-611.9152"/>
</g>
<!-- Node46 -->
<g id="node46" class="node">
<title>Node46</title>
<g id="a_node46"><a xlink:href="../../d3/df0/EMA_8hpp.html" target="_top" xlink:title=" ">
<polygon fill="#ffffff" stroke="#000000" points="104,-280.5 104,-299.5 208,-299.5 208,-280.5 104,-280.5"/>
<text text-anchor="middle" x="156" y="-287.5" font-family="Helvetica,sans-Serif" font-size="10.00" fill="#000000">AH/Filters/EMA.hpp</text>
</a>
</g>
</g>
<!-- Node45&#45;&gt;Node46 -->
<g id="edge94" class="edge">
<title>Node45&#45;&gt;Node46</title>
<path fill="none" stroke="#191970" d="M460.3515,-705.4615C404.776,-696.6598 329.9742,-682.8881 303,-669 255.0468,-644.3105 214,-640.4359 214,-586.5 214,-586.5 214,-586.5 214,-402 214,-365.0488 188.798,-328.1465 171.6192,-307.2847"/>
<polygon fill="#191970" stroke="#191970" points="174.2216,-304.9426 165.0625,-299.6171 168.9015,-309.4919 174.2216,-304.9426"/>
</g>
<!-- Node47 -->
<g id="node47" class="node">
<title>Node47</title>
<g id="a_node47"><a xlink:href="../../d3/d09/Hysteresis_8hpp.html" target="_top" xlink:title=" ">
<polygon fill="#ffffff" stroke="#000000" points="226,-280.5 226,-299.5 356,-299.5 356,-280.5 226,-280.5"/>
<text text-anchor="middle" x="291" y="-287.5" font-family="Helvetica,sans-Serif" font-size="10.00" fill="#000000">AH/Filters/Hysteresis.hpp</text>
</a>
</g>
</g>
<!-- Node45&#45;&gt;Node47 -->
<g id="edge97" class="edge">
<title>Node45&#45;&gt;Node47</title>
<path fill="none" stroke="#191970" d="M453.0448,-705.4788C404.8321,-697.81 347.2782,-685.5726 329,-669 300.3145,-642.9913 301,-625.2209 301,-586.5 301,-586.5 301,-586.5 301,-402 301,-369.5831 296.7925,-332.0969 293.8359,-309.7572"/>
<polygon fill="#191970" stroke="#191970" points="297.2637,-308.992 292.4328,-299.5627 290.3291,-309.9466 297.2637,-308.992"/>
</g>
<!-- Node48 -->
<g id="node48" class="node">
<title>Node48</title>
<g id="a_node48"><a xlink:href="../../dd/ddf/ExtendedInputOutput_8hpp.html" target="_top" xlink:title=" ">
<polygon fill="#ffffff" stroke="#000000" points="338,-638.5 338,-668.5 498,-668.5 498,-638.5 338,-638.5"/>
<text text-anchor="start" x="346" y="-656.5" font-family="Helvetica,sans-Serif" font-size="10.00" fill="#000000">AH/Hardware/ExtendedInput</text>
<text text-anchor="middle" x="418" y="-645.5" font-family="Helvetica,sans-Serif" font-size="10.00" fill="#000000">Output/ExtendedInputOutput.hpp</text>
</a>
</g>
</g>
<!-- Node45&#45;&gt;Node48 -->
<g id="edge100" class="edge">
<title>Node45&#45;&gt;Node48</title>
<path fill="none" stroke="#191970" d="M509.125,-705.3906C494.2378,-696.9132 472.0543,-684.2809 453.3025,-673.6028"/>
<polygon fill="#191970" stroke="#191970" points="454.8416,-670.4516 444.4198,-668.5446 451.3777,-676.5345 454.8416,-670.4516"/>
</g>
<!-- Node49 -->
<g id="node49" class="node">
<title>Node49</title>
<g id="a_node49"><a xlink:href="../../d5/dee/IncreaseBitDepth_8hpp.html" target="_top" xlink:title=" ">
<polygon fill="#ffffff" stroke="#000000" points="678.5,-280.5 678.5,-299.5 831.5,-299.5 831.5,-280.5 678.5,-280.5"/>
<text text-anchor="middle" x="755" y="-287.5" font-family="Helvetica,sans-Serif" font-size="10.00" fill="#000000">AH/Math/IncreaseBitDepth.hpp</text>
</a>
</g>
</g>
<!-- Node45&#45;&gt;Node49 -->
<g id="edge106" class="edge">
<title>Node45&#45;&gt;Node49</title>
<path fill="none" stroke="#191970" d="M525.6332,-705.4873C525.0574,-681.7982 525.6095,-618.6476 545,-571 591.4872,-456.7686 695.8284,-347.4315 737.4095,-306.7211"/>
<polygon fill="#191970" stroke="#191970" points="740.1041,-308.9838 744.8531,-299.5129 735.2345,-303.9551 740.1041,-308.9838"/>
</g>
<!-- Node46&#45;&gt;Node6 -->
<g id="edge95" class="edge">
<title>Node46&#45;&gt;Node6</title>
<path fill="none" stroke="#191970" d="M133.5538,-280.4443C100.0867,-264.5115 41,-229.1402 41,-178 41,-178 41,-178 41,-122 41,-87.6999 51.5502,-73.5841 81,-56 116.4178,-34.8525 699.6232,-17.5653 912.233,-11.9384"/>
<polygon fill="#191970" stroke="#191970" points="912.4722,-15.4334 922.3766,-11.6714 912.2879,-8.4358 912.4722,-15.4334"/>
</g>
<!-- Node46&#45;&gt;Node20 -->
<g id="edge96" class="edge">
<title>Node46&#45;&gt;Node20</title>
<path fill="none" stroke="#191970" d="M208.185,-280.9894C211.1623,-280.6174 214.1163,-280.2829 217,-280 698.0662,-232.8022 820.8942,-260.1605 1304,-244 1398.4281,-240.8413 1509.7991,-237.0651 1565.1414,-235.1852"/>
<polygon fill="#191970" stroke="#191970" points="1565.5658,-238.6729 1575.4412,-234.8352 1565.328,-231.6769 1565.5658,-238.6729"/>
</g>
<!-- Node47&#45;&gt;Node6 -->
<g id="edge98" class="edge">
<title>Node47&#45;&gt;Node6</title>
<path fill="none" stroke="#191970" d="M225.846,-280.7281C179.0418,-272.8613 121.1372,-260.2638 103,-244 79.762,-223.1622 79,-209.2125 79,-178 79,-178 79,-178 79,-122 79,-90.7875 77.9078,-74.5635 103,-56 135.2687,-32.1273 702.5833,-16.6297 912.085,-11.6988"/>
<polygon fill="#191970" stroke="#191970" points="912.4696,-15.1909 922.3851,-11.4582 912.306,-8.1928 912.4696,-15.1909"/>
</g>
<!-- Node47&#45;&gt;Node20 -->
<g id="edge99" class="edge">
<title>Node47&#45;&gt;Node20</title>
<path fill="none" stroke="#191970" d="M356.3614,-287.2038C591.3939,-277.1489 1389.0272,-243.0256 1565.3214,-235.4836"/>
<polygon fill="#191970" stroke="#191970" points="1565.4965,-238.9794 1575.3377,-235.0551 1565.1972,-231.9858 1565.4965,-238.9794"/>
</g>
<!-- Node48&#45;&gt;Node6 -->
<g id="edge101" class="edge">
<title>Node48&#45;&gt;Node6</title>
<path fill="none" stroke="#191970" d="M411.4445,-638.1433C401.5645,-613.5657 384,-563.662 384,-519.5 384,-519.5 384,-519.5 384,-346 384,-315.4754 387.8838,-300.2011 365,-280 287.7618,-211.8166 213.2382,-312.1834 136,-244 113.1162,-223.7989 117,-208.5246 117,-178 117,-178 117,-178 117,-122 117,-76.2481 153.4605,-72.8412 196,-56 261.3598,-30.1244 725.6517,-16.2864 911.9426,-11.7253"/>
<polygon fill="#191970" stroke="#191970" points="912.2935,-15.2179 922.2057,-11.4766 912.1238,-8.22 912.2935,-15.2179"/>
</g>
<!-- Node48&#45;&gt;Node8 -->
<g id="edge103" class="edge">
<title>Node48&#45;&gt;Node8</title>
<path fill="none" stroke="#191970" d="M426.098,-638.3087C438.3027,-613.9578 460,-564.3589 460,-519.5 460,-519.5 460,-519.5 460,-290 460,-253.1826 484.7675,-216.2377 501.6501,-195.3313"/>
<polygon fill="#191970" stroke="#191970" points="504.3511,-197.5574 508.0938,-187.6456 498.9869,-193.06 504.3511,-197.5574"/>
</g>
<!-- Node48&#45;&gt;Node12 -->
<g id="edge102" class="edge">
<title>Node48&#45;&gt;Node12</title>
<path fill="none" stroke="#191970" d="M418.7524,-638.2315C419.9111,-613.3625 422,-562.5574 422,-519.5 422,-519.5 422,-519.5 422,-346 422,-265.9161 419.6567,-242.1129 450,-168 463.5121,-134.9969 489.6102,-102.4773 506.662,-83.3284"/>
<polygon fill="#191970" stroke="#191970" points="509.421,-85.4971 513.5677,-75.7475 504.2461,-80.7832 509.421,-85.4971"/>
</g>
<!-- Node48&#45;&gt;Node33 -->
<g id="edge104" class="edge">
<title>Node48&#45;&gt;Node33</title>
<path fill="none" stroke="#191970" d="M462.2106,-638.4639C491.3842,-628.5419 529.7978,-615.4774 560.8091,-604.9304"/>
<polygon fill="#191970" stroke="#191970" points="562.2561,-608.1352 570.5965,-601.6017 560.0021,-601.508 562.2561,-608.1352"/>
</g>
<!-- Node49&#45;&gt;Node6 -->
<g id="edge107" class="edge">
<title>Node49&#45;&gt;Node6</title>
<path fill="none" stroke="#191970" d="M755,-280.4116C755,-261.0538 755,-215.9167 755,-178 755,-178 755,-178 755,-122 755,-80.897 873.9524,-41.4709 942.2353,-22.225"/>
<polygon fill="#191970" stroke="#191970" points="943.2237,-25.583 951.922,-19.5341 941.35,-18.8384 943.2237,-25.583"/>
</g>
<!-- Node49&#45;&gt;Node13 -->
<g id="edge108" class="edge">
<title>Node49&#45;&gt;Node13</title>
<path fill="none" stroke="#191970" d="M759.4737,-280.4862C772.0699,-253.6994 808.0163,-177.2565 824.9578,-141.2289"/>
<polygon fill="#191970" stroke="#191970" points="828.2904,-142.3667 829.3786,-131.8279 821.9558,-139.3879 828.2904,-142.3667"/>
</g>
<!-- Node49&#45;&gt;Node18 -->
<g id="edge109" class="edge">
<title>Node49&#45;&gt;Node18</title>
<path fill="none" stroke="#191970" d="M783.5364,-280.3733C812.2695,-270.6802 856.5934,-255.7275 887.1003,-245.436"/>
<polygon fill="#191970" stroke="#191970" points="888.5174,-248.6519 896.874,-242.1389 886.2798,-242.0191 888.5174,-248.6519"/>
</g>
<!-- Node49&#45;&gt;Node19 -->
<g id="edge110" class="edge">
<title>Node49&#45;&gt;Node19</title>
<path fill="none" stroke="#191970" d="M831.5658,-282.7682C919.59,-274.279 1068.372,-259.3939 1196,-244 1207.8625,-242.5692 1220.7869,-240.8512 1232.4191,-239.2461"/>
<polygon fill="#191970" stroke="#191970" points="1233.2507,-242.664 1242.6709,-237.8152 1232.283,-235.7312 1233.2507,-242.664"/>
</g>
<!-- Node50&#45;&gt;Node6 -->
<g id="edge114" class="edge">
<title>Node50&#45;&gt;Node6</title>
<path fill="none" stroke="#191970" d="M220.9068,-224.2708C206.1068,-194.5095 166.9256,-103.8218 212,-56 235.7768,-30.7739 720.7737,-16.4311 912.2301,-11.7339"/>
<polygon fill="#191970" stroke="#191970" points="912.583,-15.2264 922.495,-11.4844 912.4129,-8.2285 912.583,-15.2264"/>
</g>
<!-- Node50&#45;&gt;Node8 -->
<g id="edge115" class="edge">
<title>Node50&#45;&gt;Node8</title>
<path fill="none" stroke="#191970" d="M275.694,-224.4369C326.0196,-214.7522 403.8723,-199.7703 457.4651,-189.4569"/>
<polygon fill="#191970" stroke="#191970" points="458.3525,-192.8504 467.5109,-187.5237 457.0297,-185.9765 458.3525,-192.8504"/>
</g>
<!-- Node50&#45;&gt;Node12 -->
<g id="edge116" class="edge">
<title>Node50&#45;&gt;Node12</title>
<path fill="none" stroke="#191970" d="M227.9235,-224.2159C233.0797,-200.7509 249.5161,-141.0713 288,-112 309.4304,-95.8112 369.0923,-84.2459 422.9342,-76.7609"/>
<polygon fill="#191970" stroke="#191970" points="423.4693,-80.2205 432.9094,-75.4106 422.5302,-73.2837 423.4693,-80.2205"/>
</g>
<!-- Node51&#45;&gt;Node24 -->
<g id="edge122" class="edge">
<title>Node51&#45;&gt;Node24</title>
<path fill="none" stroke="#191970" d="M946.5269,-766.7863C943.065,-756.5493 937.9862,-739.878 936,-725 933.6474,-707.3776 936.9719,-687.333 940.4046,-672.9604"/>
<polygon fill="#191970" stroke="#191970" points="943.8106,-673.7698 942.9585,-663.2092 937.039,-671.9962 943.8106,-673.7698"/>
</g>
<!-- Node51&#45;&gt;Node52 -->
<g id="edge118" class="edge">
<title>Node51&#45;&gt;Node52</title>
<path fill="none" stroke="#191970" d="M960.4688,-766.8906C970.7337,-757.4683 986.5903,-742.9134 998.9006,-731.6137"/>
<polygon fill="#191970" stroke="#191970" points="1001.3834,-734.0856 1006.3837,-724.7449 996.6499,-728.9287 1001.3834,-734.0856"/>
</g>
<!-- Node52&#45;&gt;Node24 -->
<g id="edge119" class="edge">
<title>Node52&#45;&gt;Node24</title>
<path fill="none" stroke="#191970" d="M1005.9063,-705.3906C995.0285,-695.9683 978.2252,-681.4134 965.18,-670.1137"/>
<polygon fill="#191970" stroke="#191970" points="967.1004,-667.1466 957.2502,-663.2449 962.5173,-672.4377 967.1004,-667.1466"/>
</g>
<!-- Node52&#45;&gt;Node28 -->
<g id="edge120" class="edge">
<title>Node52&#45;&gt;Node28</title>
<path fill="none" stroke="#191970" d="M1088.503,-705.8133C1091.3711,-705.5237 1094.2119,-705.2509 1097,-705 1386.0509,-678.9858 1459.9363,-694.8719 1749,-669 1775.4672,-666.6311 1804.9725,-663.0187 1828.6681,-659.8771"/>
<polygon fill="#191970" stroke="#191970" points="1829.3325,-663.3193 1838.7773,-658.5188 1828.4003,-656.3817 1829.3325,-663.3193"/>
</g>
<!-- Node53 -->
<g id="node53" class="node">
<title>Node53</title>
<g id="a_node53"><a xlink:title=" ">
<polygon fill="#ffffff" stroke="#bfbfbf" points="770.5,-644 770.5,-663 815.5,-663 815.5,-644 770.5,-644"/>
<text text-anchor="middle" x="793" y="-651" font-family="Helvetica,sans-Serif" font-size="10.00" fill="#000000">Print.h</text>
</a>
</g>
</g>
<!-- Node52&#45;&gt;Node53 -->
<g id="edge121" class="edge">
<title>Node52&#45;&gt;Node53</title>
<path fill="none" stroke="#191970" d="M969.5467,-705.4651C931.3996,-697.291 876.6679,-684.4111 830,-669 827.9044,-668.308 825.7608,-667.5498 823.613,-666.7524"/>
<polygon fill="#191970" stroke="#191970" points="824.8941,-663.4954 814.307,-663.0894 822.3302,-670.0089 824.8941,-663.4954"/>
</g>
<!-- Node54&#45;&gt;Node28 -->
<g id="edge140" class="edge">
<title>Node54&#45;&gt;Node28</title>
<path fill="none" stroke="#191970" d="M1627.5851,-761.4953C1659.4649,-746.8766 1709.4412,-724.1227 1753,-705 1782.9485,-691.8523 1817.2713,-677.2917 1841.6935,-667.017"/>
<polygon fill="#191970" stroke="#191970" points="1843.3228,-670.1289 1851.1869,-663.0291 1840.6118,-663.6752 1843.3228,-670.1289"/>
</g>
<!-- Node54&#45;&gt;Node36 -->
<g id="edge141" class="edge">
<title>Node54&#45;&gt;Node36</title>
<path fill="none" stroke="#191970" d="M1651.1657,-761.9254C1692.0034,-751.3282 1746.6485,-737.1482 1785.1443,-727.1588"/>
<polygon fill="#191970" stroke="#191970" points="1786.2559,-730.4863 1795.0562,-724.5867 1784.4976,-723.7107 1786.2559,-730.4863"/>
</g>
<!-- Node54&#45;&gt;Node40 -->
<g id="edge139" class="edge">
<title>Node54&#45;&gt;Node40</title>
<path fill="none" stroke="#191970" d="M1538.5994,-768.1418C1464.9582,-757.2287 1335.8608,-738.0974 1254.3071,-726.0118"/>
<polygon fill="#191970" stroke="#191970" points="1254.517,-722.5047 1244.112,-724.5009 1253.4908,-729.4291 1254.517,-722.5047"/>
</g>
<!-- Node55 -->
<g id="node55" class="node">
<title>Node55</title>
<g id="a_node55"><a xlink:href="../../dd/ddf/MIDI__Pipes_8hpp.html" target="_top" xlink:title=" ">
<polygon fill="#ffffff" stroke="#000000" points="1690.5,-577 1690.5,-596 1777.5,-596 1777.5,-577 1690.5,-577"/>
<text text-anchor="middle" x="1734" y="-584" font-family="Helvetica,sans-Serif" font-size="10.00" fill="#000000">MIDI_Pipes.hpp</text>
</a>
</g>
</g>
<!-- Node54&#45;&gt;Node55 -->
<g id="edge125" class="edge">
<title>Node54&#45;&gt;Node55</title>
<path fill="none" stroke="#191970" d="M1619.002,-761.4869C1660.4777,-735.2964 1741.8386,-682.7326 1749,-669 1759.4662,-648.9301 1751.6856,-622.8063 1743.9621,-605.386"/>
<polygon fill="#191970" stroke="#191970" points="1747.0526,-603.7368 1739.5596,-596.2465 1740.7462,-606.7747 1747.0526,-603.7368"/>
</g>
<!-- Node58 -->
<g id="node58" class="node">
<title>Node58</title>
<g id="a_node58"><a xlink:href="../../d7/d2d/MIDI__Parser_8hpp.html" target="_top" xlink:title=" ">
<polygon fill="#ffffff" stroke="#000000" points="1372.5,-705.5 1372.5,-724.5 1527.5,-724.5 1527.5,-705.5 1372.5,-705.5"/>
<text text-anchor="middle" x="1450" y="-712.5" font-family="Helvetica,sans-Serif" font-size="10.00" fill="#000000">MIDI_Parsers/MIDI_Parser.hpp</text>
</a>
</g>
</g>
<!-- Node54&#45;&gt;Node58 -->
<g id="edge142" class="edge">
<title>Node54&#45;&gt;Node58</title>
<path fill="none" stroke="#191970" d="M1559.529,-761.4554C1535.7598,-751.374 1504.732,-738.2139 1481.7715,-728.4755"/>
<polygon fill="#191970" stroke="#191970" points="1483.0427,-725.2129 1472.4699,-724.5303 1480.3094,-731.6572 1483.0427,-725.2129"/>
</g>
<!-- Node60 -->
<g id="node60" class="node">
<title>Node60</title>
<g id="a_node60"><a xlink:href="../../d6/d38/MIDI__Interface_8ipp.html" target="_top" xlink:title=" ">
<polygon fill="#ffffff" stroke="#000000" points="1546,-705.5 1546,-724.5 1644,-724.5 1644,-705.5 1546,-705.5"/>
<text text-anchor="middle" x="1595" y="-712.5" font-family="Helvetica,sans-Serif" font-size="10.00" fill="#000000">MIDI_Interface.ipp</text>
</a>
</g>
</g>
<!-- Node54&#45;&gt;Node60 -->
<g id="edge149" class="edge">
<title>Node54&#45;&gt;Node60</title>
<path fill="none" stroke="#191970" d="M1589.0843,-761.2977C1588.1446,-753.2945 1587.9987,-743.3843 1588.6466,-734.7889"/>
<polygon fill="#191970" stroke="#191970" points="1592.1218,-735.2044 1589.8917,-724.8469 1585.176,-734.3345 1592.1218,-735.2044"/>
</g>
<!-- Node55&#45;&gt;Node6 -->
<g id="edge132" class="edge">
<title>Node55&#45;&gt;Node6</title>
<path fill="none" stroke="#191970" d="M1720.771,-576.7654C1709.3781,-567.4868 1693.7387,-552.3805 1687,-535 1682.0194,-522.154 1685.5693,-517.7033 1687,-504 1699.7355,-382.0181 1744,-356.6449 1744,-234 1744,-234 1744,-234 1744,-122 1744,-53.9395 1257.7328,-22.9859 1065.6913,-13.4152"/>
<polygon fill="#191970" stroke="#191970" points="1065.83,-9.9179 1055.67,-12.9219 1065.4858,-16.9094 1065.83,-9.9179"/>
</g>
<!-- Node55&#45;&gt;Node30 -->
<g id="edge138" class="edge">
<title>Node55&#45;&gt;Node30</title>
<path fill="none" stroke="#191970" d="M1754.5945,-576.8416C1802.6142,-554.3215 1922.1657,-498.2544 1978.1692,-471.99"/>
<polygon fill="#191970" stroke="#191970" points="1979.9726,-475.0101 1987.5403,-467.5952 1977.0003,-468.6724 1979.9726,-475.0101"/>
</g>
<!-- Node55&#45;&gt;Node42 -->
<g id="edge131" class="edge">
<title>Node55&#45;&gt;Node42</title>
<path fill="none" stroke="#191970" d="M1690.0337,-580.5665C1633.0428,-572.4427 1530.796,-556.3915 1445,-535 1441.3888,-534.0996 1437.6537,-533.071 1433.9354,-531.9815"/>
<polygon fill="#191970" stroke="#191970" points="1434.8153,-528.5905 1424.2285,-529.0018 1432.7611,-535.2823 1434.8153,-528.5905"/>
</g>
<!-- Node56 -->
<g id="node56" class="node">
<title>Node56</title>
<g id="a_node56"><a xlink:href="../../d1/d40/BitArray_8hpp.html" target="_top" xlink:title=" ">
<polygon fill="#ffffff" stroke="#000000" points="1696,-510 1696,-529 1834,-529 1834,-510 1696,-510"/>
<text text-anchor="middle" x="1765" y="-517" font-family="Helvetica,sans-Serif" font-size="10.00" fill="#000000">AH/Containers/BitArray.hpp</text>
</a>
</g>
</g>
<!-- Node55&#45;&gt;Node56 -->
<g id="edge126" class="edge">
<title>Node55&#45;&gt;Node56</title>
<path fill="none" stroke="#191970" d="M1738.4415,-576.9005C1743.0916,-566.8505 1750.5123,-550.8122 1756.3291,-538.2403"/>
<polygon fill="#191970" stroke="#191970" points="1759.5439,-539.627 1760.5667,-529.0817 1753.191,-536.6876 1759.5439,-539.627"/>
</g>
<!-- Node57 -->
<g id="node57" class="node">
<title>Node57</title>
<g id="a_node57"><a xlink:href="../../dc/d40/MIDI__MessageTypes_8hpp.html" target="_top" xlink:title=" ">
<polygon fill="#ffffff" stroke="#000000" points="1454.5,-504.5 1454.5,-534.5 1601.5,-534.5 1601.5,-504.5 1454.5,-504.5"/>
<text text-anchor="start" x="1462.5" y="-522.5" font-family="Helvetica,sans-Serif" font-size="10.00" fill="#000000">MIDI_Parsers/MIDI_Message</text>
<text text-anchor="middle" x="1528" y="-511.5" font-family="Helvetica,sans-Serif" font-size="10.00" fill="#000000">Types.hpp</text>
</a>
</g>
</g>
<!-- Node55&#45;&gt;Node57 -->
<g id="edge133" class="edge">
<title>Node55&#45;&gt;Node57</title>
<path fill="none" stroke="#191970" d="M1704.4852,-576.9005C1673.1018,-566.6933 1622.7265,-550.3091 1583.8139,-537.6531"/>
<polygon fill="#191970" stroke="#191970" points="1584.7785,-534.2864 1574.1863,-534.5218 1582.6134,-540.9432 1584.7785,-534.2864"/>
</g>
<!-- Node56&#45;&gt;Node6 -->
<g id="edge127" class="edge">
<title>Node56&#45;&gt;Node6</title>
<path fill="none" stroke="#191970" d="M1769.6624,-509.9346C1792.9986,-461.986 1896,-249.4742 1896,-234 1896,-234 1896,-234 1896,-122 1896,-54.0131 1823.8239,-73.0129 1758,-56 1628.787,-22.6035 1233.6853,-13.3212 1065.7838,-10.8518"/>
<polygon fill="#191970" stroke="#191970" points="1065.59,-7.3488 1055.541,-10.7055 1065.4899,-14.348 1065.59,-7.3488"/>
</g>
<!-- Node56&#45;&gt;Node12 -->
<g id="edge129" class="edge">
<title>Node56&#45;&gt;Node12</title>
<path fill="none" stroke="#191970" d="M1764.1567,-509.8681C1759.8627,-467.3324 1736.388,-295.2827 1633,-224 1599.9437,-201.2087 958.783,-117.4287 919,-112 818.5454,-98.2923 703.3939,-85.2105 623.2557,-76.5266"/>
<polygon fill="#191970" stroke="#191970" points="623.4874,-73.0313 613.1693,-75.4368 622.7354,-79.9908 623.4874,-73.0313"/>
</g>
<!-- Node56&#45;&gt;Node20 -->
<g id="edge130" class="edge">
<title>Node56&#45;&gt;Node20</title>
<path fill="none" stroke="#191970" d="M1757.785,-509.9403C1750.3275,-499.8289 1738.5947,-483.2587 1730,-468 1684.9069,-387.9433 1695.5852,-356.0358 1644,-280 1636.7796,-269.3572 1627.0311,-258.8847 1618.5452,-250.6269"/>
<polygon fill="#191970" stroke="#191970" points="1620.8953,-248.0323 1611.2157,-243.7245 1616.0962,-253.1283 1620.8953,-248.0323"/>
</g>
<!-- Node56&#45;&gt;Node23 -->
<g id="edge128" class="edge">
<title>Node56&#45;&gt;Node23</title>
<path fill="none" stroke="#191970" d="M1779.6875,-509.8906C1794.7256,-500.0519 1818.3176,-484.6167 1835.8667,-473.1351"/>
<polygon fill="#191970" stroke="#191970" points="1837.9637,-475.9457 1844.4156,-467.5419 1834.1313,-470.088 1837.9637,-475.9457"/>
</g>
<!-- Node57&#45;&gt;Node6 -->
<g id="edge134" class="edge">
<title>Node57&#45;&gt;Node6</title>
<path fill="none" stroke="#191970" d="M1525.4551,-504.3404C1521.9326,-482.0054 1516,-438.9097 1516,-402 1516,-402 1516,-402 1516,-122 1516,-61.5213 1454.6083,-74.4108 1397,-56 1337.1815,-36.8828 1166.4268,-22.2901 1065.7829,-15.05"/>
<polygon fill="#191970" stroke="#191970" points="1065.8922,-11.549 1055.6689,-14.3302 1065.3952,-18.5313 1065.8922,-11.549"/>
</g>
<!-- Node57&#45;&gt;Node19 -->
<g id="edge136" class="edge">
<title>Node57&#45;&gt;Node19</title>
<path fill="none" stroke="#191970" d="M1516.9034,-504.4131C1502.173,-482.8534 1478,-441.4616 1478,-402 1478,-402 1478,-402 1478,-346 1478,-268.5249 1365.0447,-244.4315 1305.2139,-237.1038"/>
<polygon fill="#191970" stroke="#191970" points="1305.3767,-233.6 1295.0474,-235.9573 1304.5922,-240.5559 1305.3767,-233.6"/>
</g>
<!-- Node57&#45;&gt;Node20 -->
<g id="edge137" class="edge">
<title>Node57&#45;&gt;Node20</title>
<path fill="none" stroke="#191970" d="M1533.6416,-504.1544C1541.2884,-481.9438 1554,-439.398 1554,-402 1554,-402 1554,-402 1554,-346 1554,-310.66 1573.8391,-273.4332 1587.4597,-252.0395"/>
<polygon fill="#191970" stroke="#191970" points="1590.4179,-253.9114 1593.0136,-243.6394 1584.5788,-250.0507 1590.4179,-253.9114"/>
</g>
<!-- Node57&#45;&gt;Node30 -->
<g id="edge135" class="edge">
<title>Node57&#45;&gt;Node30</title>
<path fill="none" stroke="#191970" d="M1601.6859,-510.059C1688.4425,-498.9433 1832.2409,-480.5191 1923.4551,-468.8323"/>
<polygon fill="#191970" stroke="#191970" points="1924.0117,-472.2897 1933.4858,-467.5471 1923.1221,-465.3465 1924.0117,-472.2897"/>
</g>
<!-- Node58&#45;&gt;Node19 -->
<g id="edge143" class="edge">
<title>Node58&#45;&gt;Node19</title>
<path fill="none" stroke="#191970" d="M1472.1066,-705.4742C1486.6331,-697.902 1504.4737,-685.7828 1513,-669 1519.2405,-656.7165 1519.6658,-650.0579 1513,-638 1471.3574,-562.6721 1390.6426,-610.3279 1349,-535 1293.6829,-434.936 1446.9571,-374.7749 1383,-280 1365.7155,-254.387 1331.5188,-243.0319 1305.0678,-237.9999"/>
<polygon fill="#191970" stroke="#191970" points="1305.4425,-234.5139 1295.0013,-236.3116 1304.2847,-241.4175 1305.4425,-234.5139"/>
</g>
<!-- Node58&#45;&gt;Node20 -->
<g id="edge144" class="edge">
<title>Node58&#45;&gt;Node20</title>
<path fill="none" stroke="#191970" d="M1494.3601,-705.4558C1529.8413,-696.9074 1575.6311,-683.5107 1588,-669 1693.8494,-544.8221 1629.6384,-320.5563 1606.9735,-253.4674"/>
<polygon fill="#191970" stroke="#191970" points="1610.1936,-252.0703 1603.611,-243.7686 1603.5798,-254.3633 1610.1936,-252.0703"/>
</g>
<!-- Node58&#45;&gt;Node25 -->
<g id="edge145" class="edge">
<title>Node58&#45;&gt;Node25</title>
<path fill="none" stroke="#191970" d="M1463.0788,-705.4764C1482.6177,-690.1334 1515.1827,-659.4924 1496,-638 1482.0635,-622.3854 1181.2387,-597.3148 1078.2361,-589.1576"/>
<polygon fill="#191970" stroke="#191970" points="1078.3094,-585.6526 1068.0653,-588.3563 1077.7595,-592.631 1078.3094,-585.6526"/>
</g>
<!-- Node58&#45;&gt;Node28 -->
<g id="edge146" class="edge">
<title>Node58&#45;&gt;Node28</title>
<path fill="none" stroke="#191970" d="M1515.7848,-705.4581C1602.7588,-692.8428 1753.748,-670.9422 1828.8656,-660.0466"/>
<polygon fill="#191970" stroke="#191970" points="1829.5529,-663.4836 1838.9469,-658.5844 1828.548,-656.5561 1829.5529,-663.4836"/>
</g>
<!-- Node58&#45;&gt;Node57 -->
<g id="edge148" class="edge">
<title>Node58&#45;&gt;Node57</title>
<path fill="none" stroke="#191970" d="M1487.0228,-705.4827C1517.95,-696.6952 1558.4777,-682.9323 1568,-669 1594.4931,-630.2371 1566.1783,-574.7327 1545.5363,-543.4051"/>
<polygon fill="#191970" stroke="#191970" points="1548.2389,-541.1565 1539.7078,-534.8739 1542.459,-545.1053 1548.2389,-541.1565"/>
</g>
<!-- Node58&#45;&gt;Node59 -->
<g id="edge147" class="edge">
<title>Node58&#45;&gt;Node59</title>
<path fill="none" stroke="#191970" d="M1444.375,-705.3906C1439.1747,-696.5068 1431.3034,-683.0601 1424.8767,-672.0811"/>
<polygon fill="#191970" stroke="#191970" points="1427.7767,-670.1069 1419.7043,-663.2449 1421.7356,-673.6432 1427.7767,-670.1069"/>
</g>
<!-- Node60&#45;&gt;Node54 -->
<g id="edge150" class="edge">
<title>Node60&#45;&gt;Node54</title>
<path fill="none" stroke="#191970" d="M1600.1083,-724.8469C1601.4704,-731.9883 1601.9849,-741.9858 1601.6519,-751.2849"/>
<polygon fill="#191970" stroke="#191970" points="1598.1584,-751.068 1600.9157,-761.2977 1605.1396,-751.5813 1598.1584,-751.068"/>
</g>
<!-- Node61 -->
<g id="node61" class="node">
<title>Node61</title>
<g id="a_node61"><a xlink:href="../../d6/d0b/Def_2CRTP_8hpp.html" target="_top" xlink:title=" ">
<polygon fill="#ffffff" stroke="#000000" points="1658,-644 1658,-663 1740,-663 1740,-644 1658,-644"/>
<text text-anchor="middle" x="1699" y="-651" font-family="Helvetica,sans-Serif" font-size="10.00" fill="#000000">Def/CRTP.hpp</text>
</a>
</g>
</g>
<!-- Node60&#45;&gt;Node61 -->
<g id="edge151" class="edge">
<title>Node60&#45;&gt;Node61</title>
<path fill="none" stroke="#191970" d="M1611.25,-705.3906C1628.1169,-695.4165 1654.7099,-679.6908 1674.2035,-668.1633"/>
<polygon fill="#191970" stroke="#191970" points="1676.038,-671.1447 1682.8641,-663.0419 1672.4749,-665.1194 1676.038,-671.1447"/>
</g>
</g>
</svg>
