<?xml version="1.0" encoding="UTF-8" standalone="no"?>
<!DOCTYPE svg PUBLIC "-//W3C//DTD SVG 1.1//EN"
 "http://www.w3.org/Graphics/SVG/1.1/DTD/svg11.dtd">
<!-- Generated by graphviz version 2.43.0 (0)
 -->
<!-- Title: UniquePtr.hpp Pages: 1 -->
<svg width="344pt" height="207pt"
 viewBox="0.00 0.00 343.50 207.00" xmlns="http://www.w3.org/2000/svg" xmlns:xlink="http://www.w3.org/1999/xlink">
<g id="graph0" class="graph" transform="scale(1 1) rotate(0) translate(4 203)">
<title>UniquePtr.hpp</title>
<polygon fill="white" stroke="transparent" points="-4,4 -4,-203 339.5,-203 339.5,4 -4,4"/>
<!-- Node1 -->
<g id="node1" class="node">
<title>Node1</title>
<g id="a_node1"><a xlink:title=" ">
<polygon fill="#bfbfbf" stroke="black" points="124.5,-179.5 124.5,-198.5 209.5,-198.5 209.5,-179.5 124.5,-179.5"/>
<text text-anchor="middle" x="167" y="-186.5" font-family="Helvetica,sans-Serif" font-size="10.00">UniquePtr.hpp</text>
</a>
</g>
</g>
<!-- Node2 -->
<g id="node2" class="node">
<title>Node2</title>
<g id="a_node2"><a xlink:href="../../dd/d31/Abstract_2MIDIChordButton_8hpp.html" target="_top" xlink:title=" ">
<polygon fill="white" stroke="black" points="0,-123.5 0,-142.5 158,-142.5 158,-123.5 0,-123.5"/>
<text text-anchor="middle" x="79" y="-130.5" font-family="Helvetica,sans-Serif" font-size="10.00">AH/Containers/UniquePtr.hpp</text>
</a>
</g>
</g>
<!-- Node1&#45;&gt;Node2 -->
<g id="edge1" class="edge">
<title>Node1&#45;&gt;Node2</title>
<path fill="none" stroke="midnightblue" d="M144.02,-173.9C127.89,-164 106.82,-151.07 93.1,-142.65"/>
<polygon fill="midnightblue" stroke="midnightblue" points="142.51,-177.08 152.86,-179.32 146.17,-171.11 142.51,-177.08"/>
</g>
<!-- Node5 -->
<g id="node5" class="node">
<title>Node5</title>
<g id="a_node5"><a xlink:href="../../dc/d34/Bankable_2Abstract_2MIDIChordButton_8hpp.html" target="_top" xlink:title=" ">
<polygon fill="white" stroke="black" points="176,-123.5 176,-142.5 334,-142.5 334,-123.5 176,-123.5"/>
<text text-anchor="middle" x="255" y="-130.5" font-family="Helvetica,sans-Serif" font-size="10.00">AH/Containers/UniquePtr.hpp</text>
</a>
</g>
</g>
<!-- Node1&#45;&gt;Node5 -->
<g id="edge4" class="edge">
<title>Node1&#45;&gt;Node5</title>
<path fill="none" stroke="midnightblue" d="M189.98,-173.9C206.11,-164 227.18,-151.07 240.9,-142.65"/>
<polygon fill="midnightblue" stroke="midnightblue" points="187.83,-171.11 181.14,-179.32 191.49,-177.08 187.83,-171.11"/>
</g>
<!-- Node3 -->
<g id="node3" class="node">
<title>Node3</title>
<g id="a_node3"><a xlink:href="../../df/de2/NoteChordButton_8hpp.html" target="_top" xlink:title=" ">
<polygon fill="white" stroke="black" points="21,-56.5 21,-86.5 147,-86.5 147,-56.5 21,-56.5"/>
<text text-anchor="start" x="29" y="-74.5" font-family="Helvetica,sans-Serif" font-size="10.00">MIDI_Outputs/Abstract</text>
<text text-anchor="middle" x="84" y="-63.5" font-family="Helvetica,sans-Serif" font-size="10.00">/MIDIChordButton.hpp</text>
</a>
</g>
</g>
<!-- Node2&#45;&gt;Node3 -->
<g id="edge2" class="edge">
<title>Node2&#45;&gt;Node3</title>
<path fill="none" stroke="midnightblue" d="M80.58,-113.23C81.3,-104.59 82.15,-94.5 82.82,-86.52"/>
<polygon fill="midnightblue" stroke="midnightblue" points="77.07,-113.22 79.72,-123.48 84.04,-113.8 77.07,-113.22"/>
</g>
<!-- Node4 -->
<g id="node4" class="node">
<title>Node4</title>
<g id="a_node4"><a xlink:href="../../db/dbf/Control__Surface_8h.html" target="_top" xlink:title="The main header file that includes all Control&#45;Surface header files.">
<polygon fill="white" stroke="black" points="70.5,-0.5 70.5,-19.5 261.5,-19.5 261.5,-0.5 70.5,-0.5"/>
<text text-anchor="middle" x="166" y="-7.5" font-family="Helvetica,sans-Serif" font-size="10.00">MIDI_Outputs/NoteChordButton.hpp</text>
</a>
</g>
</g>
<!-- Node3&#45;&gt;Node4 -->
<g id="edge3" class="edge">
<title>Node3&#45;&gt;Node4</title>
<path fill="none" stroke="midnightblue" d="M111.59,-50.48C126.03,-40 142.97,-27.71 154.07,-19.66"/>
<polygon fill="midnightblue" stroke="midnightblue" points="109.47,-47.69 103.43,-56.4 113.58,-53.36 109.47,-47.69"/>
</g>
<!-- Node6 -->
<g id="node6" class="node">
<title>Node6</title>
<g id="a_node6"><a xlink:href="../../de/de3/Bankable_2NoteChordButton_8hpp.html" target="_top" xlink:title=" ">
<polygon fill="white" stroke="black" points="168.5,-56.5 168.5,-86.5 335.5,-86.5 335.5,-56.5 168.5,-56.5"/>
<text text-anchor="start" x="176.5" y="-74.5" font-family="Helvetica,sans-Serif" font-size="10.00">MIDI_Outputs/Bankable</text>
<text text-anchor="middle" x="252" y="-63.5" font-family="Helvetica,sans-Serif" font-size="10.00">/Abstract/MIDIChordButton.hpp</text>
</a>
</g>
</g>
<!-- Node5&#45;&gt;Node6 -->
<g id="edge5" class="edge">
<title>Node5&#45;&gt;Node6</title>
<path fill="none" stroke="midnightblue" d="M254.05,-113.23C253.62,-104.59 253.11,-94.5 252.71,-86.52"/>
<polygon fill="midnightblue" stroke="midnightblue" points="250.57,-113.66 254.57,-123.48 257.56,-113.31 250.57,-113.66"/>
</g>
<!-- Node6&#45;&gt;Node4 -->
<g id="edge6" class="edge">
<title>Node6&#45;&gt;Node4</title>
<path fill="none" stroke="midnightblue" d="M223.07,-50.48C207.92,-40 190.15,-27.71 178.51,-19.66"/>
<polygon fill="midnightblue" stroke="midnightblue" points="221.4,-53.59 231.62,-56.4 225.39,-47.83 221.4,-53.59"/>
</g>
</g>
</svg>
