<?xml version="1.0" encoding="UTF-8" standalone="no"?>
<!DOCTYPE svg PUBLIC "-//W3C//DTD SVG 1.1//EN"
 "http://www.w3.org/Graphics/SVG/1.1/DTD/svg11.dtd">
<!-- Generated by graphviz version 2.43.0 (0)
 -->
<!-- Title: USBMIDI_Arduino_mbed.hpp Pages: 1 -->
<svg width="1523pt" height="588pt"
 viewBox="0.00 0.00 1523.00 588.00" xmlns="http://www.w3.org/2000/svg" xmlns:xlink="http://www.w3.org/1999/xlink">
<g id="graph0" class="graph" transform="scale(1 1) rotate(0) translate(4 584)">
<title>USBMIDI_Arduino_mbed.hpp</title>
<polygon fill="white" stroke="transparent" points="-4,4 -4,-584 1519,-584 1519,4 -4,4"/>
<!-- Node1 -->
<g id="node1" class="node">
<title>Node1</title>
<g id="a_node1"><a xlink:title=" ">
<polygon fill="#bfbfbf" stroke="black" points="742,-560.5 742,-579.5 898,-579.5 898,-560.5 742,-560.5"/>
<text text-anchor="middle" x="820" y="-567.5" font-family="Helvetica,sans-Serif" font-size="10.00">USBMIDI_Arduino_mbed.hpp</text>
</a>
</g>
</g>
<!-- Node2 -->
<g id="node2" class="node">
<title>Node2</title>
<g id="a_node2"><a xlink:href="../../de/d76/Array_8hpp.html" target="_top" xlink:title=" ">
<polygon fill="white" stroke="black" points="704.5,-504.5 704.5,-523.5 839.5,-523.5 839.5,-504.5 704.5,-504.5"/>
<text text-anchor="middle" x="772" y="-511.5" font-family="Helvetica,sans-Serif" font-size="10.00">AH/Containers/Array.hpp</text>
</a>
</g>
</g>
<!-- Node1&#45;&gt;Node2 -->
<g id="edge1" class="edge">
<title>Node1&#45;&gt;Node2</title>
<path fill="none" stroke="midnightblue" d="M812.07,-560.08C805.15,-552.3 794.93,-540.8 786.55,-531.37"/>
<polygon fill="midnightblue" stroke="midnightblue" points="789.04,-528.9 779.78,-523.75 783.81,-533.55 789.04,-528.9"/>
</g>
<!-- Node13 -->
<g id="node13" class="node">
<title>Node13</title>
<g id="a_node13"><a xlink:title=" ">
<polygon fill="white" stroke="#bfbfbf" points="693,-168.5 693,-187.5 871,-187.5 871,-168.5 693,-168.5"/>
<text text-anchor="middle" x="782" y="-175.5" font-family="Helvetica,sans-Serif" font-size="10.00">Settings/NamespaceSettings.hpp</text>
</a>
</g>
</g>
<!-- Node1&#45;&gt;Node13 -->
<g id="edge38" class="edge">
<title>Node1&#45;&gt;Node13</title>
<path fill="none" stroke="midnightblue" d="M827.67,-560.46C834.78,-551.93 844.85,-538.09 849,-524 858.54,-491.6 858.28,-480.48 849,-448 819.65,-345.31 751.35,-346.69 722,-244 719.56,-235.45 718.02,-231.95 722,-224 728.73,-210.54 741.61,-200.07 753.71,-192.62"/>
<polygon fill="midnightblue" stroke="midnightblue" points="755.73,-195.5 762.7,-187.52 752.28,-189.41 755.73,-195.5"/>
</g>
<!-- Node23 -->
<g id="node23" class="node">
<title>Node23</title>
<g id="a_node23"><a xlink:href="../../dd/dbf/PluggableUSBMIDI_8hpp.html" target="_top" xlink:title=" ">
<polygon fill="white" stroke="black" points="399.5,-224.5 399.5,-243.5 558.5,-243.5 558.5,-224.5 399.5,-224.5"/>
<text text-anchor="middle" x="479" y="-231.5" font-family="Helvetica,sans-Serif" font-size="10.00">mbed/PluggableUSBMIDI.hpp</text>
</a>
</g>
</g>
<!-- Node1&#45;&gt;Node23 -->
<g id="edge39" class="edge">
<title>Node1&#45;&gt;Node23</title>
<path fill="none" stroke="midnightblue" d="M741.75,-564.1C673.39,-555.07 585,-529.72 585,-459 585,-459 585,-459 585,-345 585,-299.81 538.05,-266.05 506.64,-248.52"/>
<polygon fill="midnightblue" stroke="midnightblue" points="507.93,-245.24 497.46,-243.61 504.63,-251.41 507.93,-245.24"/>
</g>
<!-- Node30 -->
<g id="node30" class="node">
<title>Node30</title>
<g id="a_node30"><a xlink:title=" ">
<polygon fill="white" stroke="#bfbfbf" points="896,-504.5 896,-523.5 946,-523.5 946,-504.5 896,-504.5"/>
<text text-anchor="middle" x="921" y="-511.5" font-family="Helvetica,sans-Serif" font-size="10.00">cstring</text>
</a>
</g>
</g>
<!-- Node1&#45;&gt;Node30 -->
<g id="edge49" class="edge">
<title>Node1&#45;&gt;Node30</title>
<path fill="none" stroke="midnightblue" d="M836.23,-560.32C852.35,-551.7 877.3,-538.36 895.96,-528.39"/>
<polygon fill="midnightblue" stroke="midnightblue" points="897.64,-531.46 904.81,-523.65 894.34,-525.28 897.64,-531.46"/>
</g>
<!-- Node3 -->
<g id="node3" class="node">
<title>Node3</title>
<g id="a_node3"><a xlink:href="../../d1/d65/Warnings_8hpp.html" target="_top" xlink:title=" ">
<polygon fill="white" stroke="black" points="1139.5,-0.5 1139.5,-19.5 1282.5,-19.5 1282.5,-0.5 1139.5,-0.5"/>
<text text-anchor="middle" x="1211" y="-7.5" font-family="Helvetica,sans-Serif" font-size="10.00">AH/Settings/Warnings.hpp</text>
</a>
</g>
</g>
<!-- Node2&#45;&gt;Node3 -->
<g id="edge2" class="edge">
<title>Node2&#45;&gt;Node3</title>
<path fill="none" stroke="midnightblue" d="M839.76,-507.62C986.51,-495.94 1321.09,-469.24 1327,-468 1413.52,-449.84 1515,-491.41 1515,-403 1515,-403 1515,-403 1515,-121 1515,-85.09 1497.53,-74.9 1467,-56 1438.41,-38.3 1356.35,-25.96 1292.77,-18.73"/>
<polygon fill="midnightblue" stroke="midnightblue" points="1293.06,-15.24 1282.73,-17.62 1292.28,-22.2 1293.06,-15.24"/>
</g>
<!-- Node4 -->
<g id="node4" class="node">
<title>Node4</title>
<g id="a_node4"><a xlink:href="../../d1/d93/Error_8hpp.html" target="_top" xlink:title=" ">
<polygon fill="white" stroke="black" points="1214,-448.5 1214,-467.5 1318,-467.5 1318,-448.5 1214,-448.5"/>
<text text-anchor="middle" x="1266" y="-455.5" font-family="Helvetica,sans-Serif" font-size="10.00">AH/Error/Error.hpp</text>
</a>
</g>
</g>
<!-- Node2&#45;&gt;Node4 -->
<g id="edge3" class="edge">
<title>Node2&#45;&gt;Node4</title>
<path fill="none" stroke="midnightblue" d="M839.65,-505.6C935.8,-495.09 1110.62,-475.99 1203.73,-465.81"/>
<polygon fill="midnightblue" stroke="midnightblue" points="1204.28,-469.27 1213.84,-464.7 1203.52,-462.31 1204.28,-469.27"/>
</g>
<!-- Node12 -->
<g id="node12" class="node">
<title>Node12</title>
<g id="a_node12"><a xlink:title=" ">
<polygon fill="white" stroke="#bfbfbf" points="655.5,-112.5 655.5,-131.5 762.5,-131.5 762.5,-112.5 655.5,-112.5"/>
<text text-anchor="middle" x="709" y="-119.5" font-family="Helvetica,sans-Serif" font-size="10.00">AH/STL/type_traits</text>
</a>
</g>
</g>
<!-- Node2&#45;&gt;Node12 -->
<g id="edge36" class="edge">
<title>Node2&#45;&gt;Node12</title>
<path fill="none" stroke="midnightblue" d="M753.36,-504.44C722.71,-488.93 665,-453.09 665,-403 665,-403 665,-403 665,-233 665,-198.04 684.4,-161.01 697.43,-140.07"/>
<polygon fill="midnightblue" stroke="midnightblue" points="700.39,-141.95 702.88,-131.65 694.51,-138.15 700.39,-141.95"/>
</g>
<!-- Node19 -->
<g id="node19" class="node">
<title>Node19</title>
<g id="a_node19"><a xlink:title=" ">
<polygon fill="white" stroke="#bfbfbf" points="923,-224.5 923,-243.5 979,-243.5 979,-224.5 923,-224.5"/>
<text text-anchor="middle" x="951" y="-231.5" font-family="Helvetica,sans-Serif" font-size="10.00">stddef.h</text>
</a>
</g>
</g>
<!-- Node2&#45;&gt;Node19 -->
<g id="edge37" class="edge">
<title>Node2&#45;&gt;Node19</title>
<path fill="none" stroke="midnightblue" d="M762.77,-504.31C750.84,-491.97 732.56,-468.59 741,-448 779.62,-353.83 882.2,-279 928.16,-249.1"/>
<polygon fill="midnightblue" stroke="midnightblue" points="930.28,-251.9 936.82,-243.57 926.51,-246 930.28,-251.9"/>
</g>
<!-- Node22 -->
<g id="node22" class="node">
<title>Node22</title>
<g id="a_node22"><a xlink:title=" ">
<polygon fill="white" stroke="#bfbfbf" points="750,-448.5 750,-467.5 840,-467.5 840,-448.5 750,-448.5"/>
<text text-anchor="middle" x="795" y="-455.5" font-family="Helvetica,sans-Serif" font-size="10.00">AH/STL/iterator</text>
</a>
</g>
</g>
<!-- Node2&#45;&gt;Node22 -->
<g id="edge35" class="edge">
<title>Node2&#45;&gt;Node22</title>
<path fill="none" stroke="midnightblue" d="M775.8,-504.08C778.91,-496.77 783.42,-486.18 787.29,-477.1"/>
<polygon fill="midnightblue" stroke="midnightblue" points="790.57,-478.32 791.27,-467.75 784.13,-475.58 790.57,-478.32"/>
</g>
<!-- Node4&#45;&gt;Node3 -->
<g id="edge4" class="edge">
<title>Node4&#45;&gt;Node3</title>
<path fill="none" stroke="midnightblue" d="M1318.16,-452.35C1380.64,-443.58 1477,-418.47 1477,-347 1477,-347 1477,-347 1477,-121 1477,-40.29 1371.14,-17.64 1292.98,-11.91"/>
<polygon fill="midnightblue" stroke="midnightblue" points="1292.84,-8.39 1282.63,-11.24 1292.38,-15.38 1292.84,-8.39"/>
</g>
<!-- Node5 -->
<g id="node5" class="node">
<title>Node5</title>
<g id="a_node5"><a xlink:href="../../df/dee/Debug_8hpp.html" target="_top" xlink:title=" ">
<polygon fill="white" stroke="black" points="1205.5,-392.5 1205.5,-411.5 1326.5,-411.5 1326.5,-392.5 1205.5,-392.5"/>
<text text-anchor="middle" x="1266" y="-399.5" font-family="Helvetica,sans-Serif" font-size="10.00">AH/Debug/Debug.hpp</text>
</a>
</g>
</g>
<!-- Node4&#45;&gt;Node5 -->
<g id="edge5" class="edge">
<title>Node4&#45;&gt;Node5</title>
<path fill="none" stroke="midnightblue" d="M1266,-448.08C1266,-441.01 1266,-430.86 1266,-421.99"/>
<polygon fill="midnightblue" stroke="midnightblue" points="1269.5,-421.75 1266,-411.75 1262.5,-421.75 1269.5,-421.75"/>
</g>
<!-- Node5&#45;&gt;Node3 -->
<g id="edge6" class="edge">
<title>Node5&#45;&gt;Node3</title>
<path fill="none" stroke="midnightblue" d="M1311.91,-392.47C1363.16,-379.99 1439,-351.33 1439,-291 1439,-291 1439,-291 1439,-121 1439,-53.91 1357.92,-27.71 1292.46,-17.5"/>
<polygon fill="midnightblue" stroke="midnightblue" points="1292.92,-14.03 1282.52,-16.05 1291.91,-20.96 1292.92,-14.03"/>
</g>
<!-- Node6 -->
<g id="node6" class="node">
<title>Node6</title>
<g id="a_node6"><a xlink:href="../../dd/d80/PrintStream_8hpp.html" target="_top" xlink:title=" ">
<polygon fill="white" stroke="black" points="731.5,-224.5 731.5,-243.5 904.5,-243.5 904.5,-224.5 731.5,-224.5"/>
<text text-anchor="middle" x="818" y="-231.5" font-family="Helvetica,sans-Serif" font-size="10.00">AH/PrintStream/PrintStream.hpp</text>
</a>
</g>
</g>
<!-- Node5&#45;&gt;Node6 -->
<g id="edge7" class="edge">
<title>Node5&#45;&gt;Node6</title>
<path fill="none" stroke="midnightblue" d="M1242.86,-392.42C1168.66,-364.93 936.56,-278.93 850.52,-247.05"/>
<polygon fill="midnightblue" stroke="midnightblue" points="851.6,-243.72 841,-243.52 849.17,-250.28 851.6,-243.72"/>
</g>
<!-- Node14 -->
<g id="node14" class="node">
<title>Node14</title>
<g id="a_node14"><a xlink:href="../../de/dd1/AH_2Settings_2SettingsWrapper_8hpp.html" target="_top" xlink:title=" ">
<polygon fill="white" stroke="black" points="1177,-336.5 1177,-355.5 1355,-355.5 1355,-336.5 1177,-336.5"/>
<text text-anchor="middle" x="1266" y="-343.5" font-family="Helvetica,sans-Serif" font-size="10.00">AH/Settings/SettingsWrapper.hpp</text>
</a>
</g>
</g>
<!-- Node5&#45;&gt;Node14 -->
<g id="edge20" class="edge">
<title>Node5&#45;&gt;Node14</title>
<path fill="none" stroke="midnightblue" d="M1260.83,-392.08C1259.32,-384.93 1258.89,-374.64 1259.54,-365.69"/>
<polygon fill="midnightblue" stroke="midnightblue" points="1263.02,-366.13 1260.87,-355.75 1256.08,-365.2 1263.02,-366.13"/>
</g>
<!-- Node6&#45;&gt;Node3 -->
<g id="edge9" class="edge">
<title>Node6&#45;&gt;Node3</title>
<path fill="none" stroke="midnightblue" d="M885.22,-224.47C936.13,-216.87 1000.82,-204.41 1022,-188 1074.01,-147.71 1039.85,-99.74 1089,-56 1107.36,-39.66 1132.18,-29.08 1154.63,-22.31"/>
<polygon fill="midnightblue" stroke="midnightblue" points="1155.74,-25.64 1164.42,-19.55 1153.84,-18.9 1155.74,-25.64"/>
</g>
<!-- Node7 -->
<g id="node7" class="node">
<title>Node7</title>
<g id="a_node7"><a xlink:href="../../d6/db0/AH_2Settings_2NamespaceSettings_8hpp.html" target="_top" xlink:title=" ">
<polygon fill="white" stroke="black" points="1113.5,-56.5 1113.5,-75.5 1308.5,-75.5 1308.5,-56.5 1113.5,-56.5"/>
<text text-anchor="middle" x="1211" y="-63.5" font-family="Helvetica,sans-Serif" font-size="10.00">AH/Settings/NamespaceSettings.hpp</text>
</a>
</g>
</g>
<!-- Node6&#45;&gt;Node7 -->
<g id="edge8" class="edge">
<title>Node6&#45;&gt;Node7</title>
<path fill="none" stroke="midnightblue" d="M884.6,-224.49C945.67,-216.01 1031.15,-202.23 1062,-188 1118.25,-162.05 1171.37,-109.99 1196.25,-83.42"/>
<polygon fill="midnightblue" stroke="midnightblue" points="1199.11,-85.48 1203.3,-75.75 1193.96,-80.74 1199.11,-85.48"/>
</g>
<!-- Node8 -->
<g id="node8" class="node">
<title>Node8</title>
<g id="a_node8"><a xlink:href="../../d6/ddf/Arduino-Wrapper_8h.html" target="_top" xlink:title=" ">
<polygon fill="white" stroke="black" points="889,-168.5 889,-187.5 1013,-187.5 1013,-168.5 889,-168.5"/>
<text text-anchor="middle" x="951" y="-175.5" font-family="Helvetica,sans-Serif" font-size="10.00">AH/Arduino&#45;Wrapper.h</text>
</a>
</g>
</g>
<!-- Node6&#45;&gt;Node8 -->
<g id="edge10" class="edge">
<title>Node6&#45;&gt;Node8</title>
<path fill="none" stroke="midnightblue" d="M839.07,-224.44C861.06,-215.52 895.73,-201.44 920.66,-191.32"/>
<polygon fill="midnightblue" stroke="midnightblue" points="922.08,-194.52 930.02,-187.52 919.44,-188.04 922.08,-194.52"/>
</g>
<!-- Node6&#45;&gt;Node13 -->
<g id="edge19" class="edge">
<title>Node6&#45;&gt;Node13</title>
<path fill="none" stroke="midnightblue" d="M812.06,-224.08C807.02,-216.53 799.66,-205.49 793.49,-196.23"/>
<polygon fill="midnightblue" stroke="midnightblue" points="796.29,-194.13 787.83,-187.75 790.47,-198.01 796.29,-194.13"/>
</g>
<!-- Node9 -->
<g id="node9" class="node">
<title>Node9</title>
<g id="a_node9"><a xlink:href="../../d7/d79/MinMaxFix_8hpp.html" target="_top" xlink:title=" ">
<polygon fill="white" stroke="black" points="884,-112.5 884,-131.5 1020,-131.5 1020,-112.5 884,-112.5"/>
<text text-anchor="middle" x="952" y="-119.5" font-family="Helvetica,sans-Serif" font-size="10.00">AH/Math/MinMaxFix.hpp</text>
</a>
</g>
</g>
<!-- Node8&#45;&gt;Node9 -->
<g id="edge11" class="edge">
<title>Node8&#45;&gt;Node9</title>
<path fill="none" stroke="midnightblue" d="M951.17,-168.08C951.3,-161.01 951.48,-150.86 951.65,-141.99"/>
<polygon fill="midnightblue" stroke="midnightblue" points="955.15,-141.81 951.84,-131.75 948.15,-141.68 955.15,-141.81"/>
</g>
<!-- Node11 -->
<g id="node11" class="node">
<title>Node11</title>
<g id="a_node11"><a xlink:title=" ">
<polygon fill="white" stroke="#bfbfbf" points="790.5,-0.5 790.5,-19.5 853.5,-19.5 853.5,-0.5 790.5,-0.5"/>
<text text-anchor="middle" x="822" y="-7.5" font-family="Helvetica,sans-Serif" font-size="10.00">Arduino.h</text>
</a>
</g>
</g>
<!-- Node8&#45;&gt;Node11 -->
<g id="edge18" class="edge">
<title>Node8&#45;&gt;Node11</title>
<path fill="none" stroke="midnightblue" d="M924.93,-168.44C889.38,-155.14 827.33,-125.74 803,-76 795.52,-60.7 802.59,-41.91 810.13,-28.47"/>
<polygon fill="midnightblue" stroke="midnightblue" points="813.24,-30.11 815.51,-19.76 807.28,-26.43 813.24,-30.11"/>
</g>
<!-- Node8&#45;&gt;Node12 -->
<g id="edge17" class="edge">
<title>Node8&#45;&gt;Node12</title>
<path fill="none" stroke="midnightblue" d="M912.65,-168.44C870.53,-159.04 802.79,-143.93 757.13,-133.74"/>
<polygon fill="midnightblue" stroke="midnightblue" points="757.69,-130.28 747.17,-131.52 756.16,-137.11 757.69,-130.28"/>
</g>
<!-- Node9&#45;&gt;Node3 -->
<g id="edge12" class="edge">
<title>Node9&#45;&gt;Node3</title>
<path fill="none" stroke="midnightblue" d="M960.25,-112.44C974.15,-98.51 1003.72,-70.99 1034,-56 1067.74,-39.3 1108.25,-28.41 1142,-21.54"/>
<polygon fill="midnightblue" stroke="midnightblue" points="1143.1,-24.89 1152.24,-19.53 1141.75,-18.02 1143.1,-24.89"/>
</g>
<!-- Node9&#45;&gt;Node7 -->
<g id="edge16" class="edge">
<title>Node9&#45;&gt;Node7</title>
<path fill="none" stroke="midnightblue" d="M993.04,-112.44C1038.32,-103 1111.23,-87.8 1160.11,-77.61"/>
<polygon fill="midnightblue" stroke="midnightblue" points="1161.08,-80.98 1170.15,-75.52 1159.65,-74.13 1161.08,-80.98"/>
</g>
<!-- Node10 -->
<g id="node10" class="node">
<title>Node10</title>
<g id="a_node10"><a xlink:href="../../d6/d3b/FixArduinoMacros_8hpp.html" target="_top" xlink:title=" ">
<polygon fill="white" stroke="black" points="812,-56.5 812,-75.5 982,-75.5 982,-56.5 812,-56.5"/>
<text text-anchor="middle" x="897" y="-63.5" font-family="Helvetica,sans-Serif" font-size="10.00">AH/Math/FixArduinoMacros.hpp</text>
</a>
</g>
</g>
<!-- Node9&#45;&gt;Node10 -->
<g id="edge13" class="edge">
<title>Node9&#45;&gt;Node10</title>
<path fill="none" stroke="midnightblue" d="M942.92,-112.08C934.83,-104.14 922.8,-92.34 913.09,-82.8"/>
<polygon fill="midnightblue" stroke="midnightblue" points="915.5,-80.26 905.91,-75.75 910.6,-85.25 915.5,-80.26"/>
</g>
<!-- Node10&#45;&gt;Node3 -->
<g id="edge14" class="edge">
<title>Node10&#45;&gt;Node3</title>
<path fill="none" stroke="midnightblue" d="M946.75,-56.44C1002.33,-46.89 1092.26,-31.42 1151.52,-21.23"/>
<polygon fill="midnightblue" stroke="midnightblue" points="1152.22,-24.66 1161.48,-19.52 1151.03,-17.76 1152.22,-24.66"/>
</g>
<!-- Node10&#45;&gt;Node11 -->
<g id="edge15" class="edge">
<title>Node10&#45;&gt;Node11</title>
<path fill="none" stroke="midnightblue" d="M884.95,-56.32C873.54,-48.11 856.17,-35.6 842.57,-25.81"/>
<polygon fill="midnightblue" stroke="midnightblue" points="844.43,-22.84 834.27,-19.83 840.34,-28.52 844.43,-22.84"/>
</g>
<!-- Node14&#45;&gt;Node3 -->
<g id="edge21" class="edge">
<title>Node14&#45;&gt;Node3</title>
<path fill="none" stroke="midnightblue" d="M1293.65,-336.42C1333.14,-322.23 1401,-289.87 1401,-235 1401,-235 1401,-235 1401,-121 1401,-62.69 1333.15,-34.79 1278.54,-21.78"/>
<polygon fill="midnightblue" stroke="midnightblue" points="1279.05,-18.3 1268.52,-19.52 1277.51,-25.13 1279.05,-18.3"/>
</g>
<!-- Node14&#45;&gt;Node5 -->
<g id="edge34" class="edge">
<title>Node14&#45;&gt;Node5</title>
<path fill="none" stroke="midnightblue" d="M1271.13,-355.75C1272.66,-362.86 1273.1,-373.14 1272.47,-382.1"/>
<polygon fill="midnightblue" stroke="midnightblue" points="1268.99,-381.71 1271.17,-392.08 1275.93,-382.62 1268.99,-381.71"/>
</g>
<!-- Node14&#45;&gt;Node7 -->
<g id="edge22" class="edge">
<title>Node14&#45;&gt;Node7</title>
<path fill="none" stroke="midnightblue" d="M1278.78,-336.37C1289.39,-328.36 1303.73,-315.38 1310,-300 1315.49,-286.54 1315.44,-247.57 1306,-224 1286.28,-174.76 1254.84,-178.86 1230,-132 1222.26,-117.39 1217.29,-99.22 1214.38,-85.81"/>
<polygon fill="midnightblue" stroke="midnightblue" points="1217.78,-84.97 1212.41,-75.84 1210.92,-86.33 1217.78,-84.97"/>
</g>
<!-- Node15 -->
<g id="node15" class="node">
<title>Node15</title>
<g id="a_node15"><a xlink:href="../../d5/d4f/AH_2Settings_2Settings_8hpp.html" target="_top" xlink:title="All user settings and debugging options can be changed here.">
<polygon fill="white" stroke="black" points="1032.5,-280.5 1032.5,-299.5 1109.5,-299.5 1109.5,-280.5 1032.5,-280.5"/>
<text text-anchor="middle" x="1071" y="-287.5" font-family="Helvetica,sans-Serif" font-size="10.00">Settings.hpp</text>
</a>
</g>
</g>
<!-- Node14&#45;&gt;Node15 -->
<g id="edge23" class="edge">
<title>Node14&#45;&gt;Node15</title>
<path fill="none" stroke="midnightblue" d="M1235.1,-336.44C1201.73,-327.2 1148.41,-312.44 1111.65,-302.26"/>
<polygon fill="midnightblue" stroke="midnightblue" points="1112.33,-298.81 1101.75,-299.52 1110.46,-305.56 1112.33,-298.81"/>
</g>
<!-- Node21 -->
<g id="node21" class="node">
<title>Node21</title>
<g id="a_node21"><a xlink:href="../../d9/d98/TeensyUSBTypes_8hpp.html" target="_top" xlink:title=" ">
<polygon fill="white" stroke="black" points="1127.5,-280.5 1127.5,-299.5 1300.5,-299.5 1300.5,-280.5 1127.5,-280.5"/>
<text text-anchor="middle" x="1214" y="-287.5" font-family="Helvetica,sans-Serif" font-size="10.00">AH/Teensy/TeensyUSBTypes.hpp</text>
</a>
</g>
</g>
<!-- Node14&#45;&gt;Node21 -->
<g id="edge33" class="edge">
<title>Node14&#45;&gt;Node21</title>
<path fill="none" stroke="midnightblue" d="M1257.41,-336.08C1249.84,-328.22 1238.62,-316.57 1229.49,-307.08"/>
<polygon fill="midnightblue" stroke="midnightblue" points="1231.88,-304.53 1222.43,-299.75 1226.84,-309.38 1231.88,-304.53"/>
</g>
<!-- Node16 -->
<g id="node16" class="node">
<title>Node16</title>
<g id="a_node16"><a xlink:href="../../dc/d50/Frequency_8hpp.html" target="_top" xlink:title=" ">
<polygon fill="white" stroke="black" points="1239,-112.5 1239,-131.5 1373,-131.5 1373,-112.5 1239,-112.5"/>
<text text-anchor="middle" x="1306" y="-119.5" font-family="Helvetica,sans-Serif" font-size="10.00">AH/Types/Frequency.hpp</text>
</a>
</g>
</g>
<!-- Node15&#45;&gt;Node16 -->
<g id="edge24" class="edge">
<title>Node15&#45;&gt;Node16</title>
<path fill="none" stroke="midnightblue" d="M1109.65,-281.76C1176.15,-269.28 1305.21,-244.95 1306,-244 1330.01,-214.96 1320.37,-167.21 1312.45,-141.23"/>
<polygon fill="midnightblue" stroke="midnightblue" points="1315.72,-139.95 1309.27,-131.54 1309.07,-142.13 1315.72,-139.95"/>
</g>
<!-- Node17 -->
<g id="node17" class="node">
<title>Node17</title>
<g id="a_node17"><a xlink:href="../../d7/d7c/ADCConfig_8hpp.html" target="_top" xlink:title="This file contains the platform&#45;specific ADC resolutions.">
<polygon fill="white" stroke="black" points="997.5,-224.5 997.5,-243.5 1154.5,-243.5 1154.5,-224.5 997.5,-224.5"/>
<text text-anchor="middle" x="1076" y="-231.5" font-family="Helvetica,sans-Serif" font-size="10.00">AH/Hardware/ADCConfig.hpp</text>
</a>
</g>
</g>
<!-- Node15&#45;&gt;Node17 -->
<g id="edge27" class="edge">
<title>Node15&#45;&gt;Node17</title>
<path fill="none" stroke="midnightblue" d="M1071.83,-280.08C1072.48,-273.01 1073.42,-262.86 1074.24,-253.99"/>
<polygon fill="midnightblue" stroke="midnightblue" points="1077.75,-254.03 1075.19,-243.75 1070.78,-253.39 1077.75,-254.03"/>
</g>
<!-- Node18 -->
<g id="node18" class="node">
<title>Node18</title>
<g id="a_node18"><a xlink:title=" ">
<polygon fill="white" stroke="#bfbfbf" points="1172.5,-224.5 1172.5,-243.5 1225.5,-243.5 1225.5,-224.5 1172.5,-224.5"/>
<text text-anchor="middle" x="1199" y="-231.5" font-family="Helvetica,sans-Serif" font-size="10.00">limits.h</text>
</a>
</g>
</g>
<!-- Node15&#45;&gt;Node18 -->
<g id="edge30" class="edge">
<title>Node15&#45;&gt;Node18</title>
<path fill="none" stroke="midnightblue" d="M1091.28,-280.44C1112.35,-271.56 1145.52,-257.56 1169.49,-247.45"/>
<polygon fill="midnightblue" stroke="midnightblue" points="1170.96,-250.63 1178.81,-243.52 1168.24,-244.18 1170.96,-250.63"/>
</g>
<!-- Node15&#45;&gt;Node19 -->
<g id="edge31" class="edge">
<title>Node15&#45;&gt;Node19</title>
<path fill="none" stroke="midnightblue" d="M1051.99,-280.44C1032.41,-271.64 1001.69,-257.81 979.27,-247.72"/>
<polygon fill="midnightblue" stroke="midnightblue" points="980.48,-244.43 969.93,-243.52 977.61,-250.81 980.48,-244.43"/>
</g>
<!-- Node20 -->
<g id="node20" class="node">
<title>Node20</title>
<g id="a_node20"><a xlink:title=" ">
<polygon fill="white" stroke="#bfbfbf" points="1243.5,-224.5 1243.5,-243.5 1296.5,-243.5 1296.5,-224.5 1243.5,-224.5"/>
<text text-anchor="middle" x="1270" y="-231.5" font-family="Helvetica,sans-Serif" font-size="10.00">stdint.h</text>
</a>
</g>
</g>
<!-- Node15&#45;&gt;Node20 -->
<g id="edge32" class="edge">
<title>Node15&#45;&gt;Node20</title>
<path fill="none" stroke="midnightblue" d="M1102.53,-280.44C1138.09,-270.79 1195.85,-255.12 1233.38,-244.94"/>
<polygon fill="midnightblue" stroke="midnightblue" points="1234.66,-248.22 1243.39,-242.22 1232.82,-241.46 1234.66,-248.22"/>
</g>
<!-- Node16&#45;&gt;Node3 -->
<g id="edge25" class="edge">
<title>Node16&#45;&gt;Node3</title>
<path fill="none" stroke="midnightblue" d="M1311.33,-112.21C1318.62,-98.91 1329.56,-73.4 1318,-56 1307.22,-39.78 1289.34,-29.39 1271.24,-22.75"/>
<polygon fill="midnightblue" stroke="midnightblue" points="1272.1,-19.34 1261.51,-19.51 1269.9,-25.99 1272.1,-19.34"/>
</g>
<!-- Node16&#45;&gt;Node7 -->
<g id="edge26" class="edge">
<title>Node16&#45;&gt;Node7</title>
<path fill="none" stroke="midnightblue" d="M1290.74,-112.32C1275.78,-103.82 1252.75,-90.73 1235.27,-80.8"/>
<polygon fill="midnightblue" stroke="midnightblue" points="1236.65,-77.55 1226.23,-75.65 1233.19,-83.64 1236.65,-77.55"/>
</g>
<!-- Node17&#45;&gt;Node3 -->
<g id="edge28" class="edge">
<title>Node17&#45;&gt;Node3</title>
<path fill="none" stroke="midnightblue" d="M1074.71,-224.11C1071.16,-196.05 1064.03,-108.16 1105,-56 1117.67,-39.87 1137.22,-29.44 1156.09,-22.73"/>
<polygon fill="midnightblue" stroke="midnightblue" points="1157.43,-25.98 1165.85,-19.55 1155.26,-19.32 1157.43,-25.98"/>
</g>
<!-- Node17&#45;&gt;Node8 -->
<g id="edge29" class="edge">
<title>Node17&#45;&gt;Node8</title>
<path fill="none" stroke="midnightblue" d="M1056.19,-224.44C1035.71,-215.6 1003.52,-201.69 980.14,-191.59"/>
<polygon fill="midnightblue" stroke="midnightblue" points="981.28,-188.27 970.71,-187.52 978.51,-194.7 981.28,-188.27"/>
</g>
<!-- Node23&#45;&gt;Node3 -->
<g id="edge47" class="edge">
<title>Node23&#45;&gt;Node3</title>
<path fill="none" stroke="midnightblue" d="M529.7,-224.45C555.26,-218 585.35,-206.89 607,-188 635.61,-163.04 617.45,-137.02 646,-112 716.73,-50.01 990.38,-24.52 1129.21,-15.41"/>
<polygon fill="midnightblue" stroke="midnightblue" points="1129.62,-18.89 1139.38,-14.76 1129.17,-11.91 1129.62,-18.89"/>
</g>
<!-- Node23&#45;&gt;Node8 -->
<g id="edge40" class="edge">
<title>Node23&#45;&gt;Node8</title>
<path fill="none" stroke="midnightblue" d="M557.79,-224.5C636.39,-215.93 760.89,-202.17 878.41,-188.18"/>
<polygon fill="midnightblue" stroke="midnightblue" points="879.15,-191.61 888.67,-186.95 878.32,-184.66 879.15,-191.61"/>
</g>
<!-- Node23&#45;&gt;Node13 -->
<g id="edge48" class="edge">
<title>Node23&#45;&gt;Node13</title>
<path fill="none" stroke="midnightblue" d="M527.01,-224.44C580.53,-214.9 667.07,-199.48 724.24,-189.29"/>
<polygon fill="midnightblue" stroke="midnightblue" points="724.98,-192.72 734.21,-187.52 723.75,-185.83 724.98,-192.72"/>
</g>
<!-- Node24 -->
<g id="node24" class="node">
<title>Node24</title>
<g id="a_node24"><a xlink:title=" ">
<polygon fill="white" stroke="#bfbfbf" points="0,-168.5 0,-187.5 50,-187.5 50,-168.5 0,-168.5"/>
<text text-anchor="middle" x="25" y="-175.5" font-family="Helvetica,sans-Serif" font-size="10.00">atomic</text>
</a>
</g>
</g>
<!-- Node23&#45;&gt;Node24 -->
<g id="edge41" class="edge">
<title>Node23&#45;&gt;Node24</title>
<path fill="none" stroke="midnightblue" d="M399.13,-228.07C316.49,-222.15 183.6,-210.33 60.16,-187.96"/>
<polygon fill="midnightblue" stroke="midnightblue" points="60.62,-184.48 50.15,-186.11 59.36,-191.37 60.62,-184.48"/>
</g>
<!-- Node25 -->
<g id="node25" class="node">
<title>Node25</title>
<g id="a_node25"><a xlink:title=" ">
<polygon fill="white" stroke="#bfbfbf" points="68,-168.5 68,-187.5 118,-187.5 118,-168.5 68,-168.5"/>
<text text-anchor="middle" x="93" y="-175.5" font-family="Helvetica,sans-Serif" font-size="10.00">cstdint</text>
</a>
</g>
</g>
<!-- Node23&#45;&gt;Node25 -->
<g id="edge42" class="edge">
<title>Node23&#45;&gt;Node25</title>
<path fill="none" stroke="midnightblue" d="M399.19,-225.82C329.84,-218.89 226.58,-206.91 128,-187.97"/>
<polygon fill="midnightblue" stroke="midnightblue" points="128.65,-184.53 118.17,-186.06 127.31,-191.4 128.65,-184.53"/>
</g>
<!-- Node26 -->
<g id="node26" class="node">
<title>Node26</title>
<g id="a_node26"><a xlink:title=" ">
<polygon fill="white" stroke="#bfbfbf" points="136.5,-168.5 136.5,-187.5 177.5,-187.5 177.5,-168.5 136.5,-168.5"/>
<text text-anchor="middle" x="157" y="-175.5" font-family="Helvetica,sans-Serif" font-size="10.00">tuple</text>
</a>
</g>
</g>
<!-- Node23&#45;&gt;Node26 -->
<g id="edge43" class="edge">
<title>Node23&#45;&gt;Node26</title>
<path fill="none" stroke="midnightblue" d="M403.14,-224.49C346.08,-217.37 265.87,-205.82 187.81,-188.16"/>
<polygon fill="midnightblue" stroke="midnightblue" points="188.34,-184.69 177.81,-185.86 186.77,-191.52 188.34,-184.69"/>
</g>
<!-- Node27 -->
<g id="node27" class="node">
<title>Node27</title>
<g id="a_node27"><a xlink:title=" ">
<polygon fill="white" stroke="#bfbfbf" points="195.5,-168.5 195.5,-187.5 346.5,-187.5 346.5,-168.5 195.5,-168.5"/>
<text text-anchor="middle" x="271" y="-175.5" font-family="Helvetica,sans-Serif" font-size="10.00">USB/PluggableUSBDevice.h</text>
</a>
</g>
</g>
<!-- Node23&#45;&gt;Node27 -->
<g id="edge44" class="edge">
<title>Node23&#45;&gt;Node27</title>
<path fill="none" stroke="midnightblue" d="M446.04,-224.44C410.21,-215.14 352.84,-200.25 313.61,-190.06"/>
<polygon fill="midnightblue" stroke="midnightblue" points="314.36,-186.64 303.8,-187.52 312.6,-193.42 314.36,-186.64"/>
</g>
<!-- Node28 -->
<g id="node28" class="node">
<title>Node28</title>
<g id="a_node28"><a xlink:title=" ">
<polygon fill="white" stroke="#bfbfbf" points="364.5,-168.5 364.5,-187.5 467.5,-187.5 467.5,-168.5 364.5,-168.5"/>
<text text-anchor="middle" x="416" y="-175.5" font-family="Helvetica,sans-Serif" font-size="10.00">drivers/Timeout.h</text>
</a>
</g>
</g>
<!-- Node23&#45;&gt;Node28 -->
<g id="edge45" class="edge">
<title>Node23&#45;&gt;Node28</title>
<path fill="none" stroke="midnightblue" d="M468.88,-224.32C459.47,-216.26 445.26,-204.08 433.93,-194.37"/>
<polygon fill="midnightblue" stroke="midnightblue" points="436.18,-191.68 426.31,-187.83 431.62,-197 436.18,-191.68"/>
</g>
<!-- Node29 -->
<g id="node29" class="node">
<title>Node29</title>
<g id="a_node29"><a xlink:title=" ">
<polygon fill="white" stroke="#bfbfbf" points="485.5,-168.5 485.5,-187.5 598.5,-187.5 598.5,-168.5 485.5,-168.5"/>
<text text-anchor="middle" x="542" y="-175.5" font-family="Helvetica,sans-Serif" font-size="10.00">platform/Callback.h</text>
</a>
</g>
</g>
<!-- Node23&#45;&gt;Node29 -->
<g id="edge46" class="edge">
<title>Node23&#45;&gt;Node29</title>
<path fill="none" stroke="midnightblue" d="M489.12,-224.32C498.53,-216.26 512.74,-204.08 524.07,-194.37"/>
<polygon fill="midnightblue" stroke="midnightblue" points="526.38,-197 531.69,-187.83 521.82,-191.68 526.38,-197"/>
</g>
</g>
</svg>
