<?xml version="1.0" encoding="UTF-8" standalone="no"?>
<!DOCTYPE svg PUBLIC "-//W3C//DTD SVG 1.1//EN"
 "http://www.w3.org/Graphics/SVG/1.1/DTD/svg11.dtd">
<!-- Generated by graphviz version 2.40.1 (20161225.0304)
 -->
<!-- Title: CCSmartPotentiometer.hpp Pages: 1 -->
<svg width="2323pt" height="1057pt"
 viewBox="0.00 0.00 2323.00 1057.00" xmlns="http://www.w3.org/2000/svg" xmlns:xlink="http://www.w3.org/1999/xlink">
<g id="graph0" class="graph" transform="scale(1 1) rotate(0) translate(4 1053)">
<title>CCSmartPotentiometer.hpp</title>
<polygon fill="#ffffff" stroke="transparent" points="-4,4 -4,-1053 2319,-1053 2319,4 -4,4"/>
<!-- Node1 -->
<g id="node1" class="node">
<title>Node1</title>
<g id="a_node1"><a xlink:title=" ">
<polygon fill="#bfbfbf" stroke="#000000" points="761.5,-1029.5 761.5,-1048.5 898.5,-1048.5 898.5,-1029.5 761.5,-1029.5"/>
<text text-anchor="middle" x="830" y="-1036.5" font-family="Helvetica,sans-Serif" font-size="10.00" fill="#000000">CCSmartPotentiometer.hpp</text>
</a>
</g>
</g>
<!-- Node2 -->
<g id="node2" class="node">
<title>Node2</title>
<g id="a_node2"><a xlink:href="../../d0/dcc/BankAddresses_8hpp.html" target="_top" xlink:title=" ">
<polygon fill="#ffffff" stroke="#000000" points="606.5,-962.5 606.5,-981.5 741.5,-981.5 741.5,-962.5 606.5,-962.5"/>
<text text-anchor="middle" x="674" y="-969.5" font-family="Helvetica,sans-Serif" font-size="10.00" fill="#000000">Banks/BankAddresses.hpp</text>
</a>
</g>
</g>
<!-- Node1&#45;&gt;Node2 -->
<g id="edge1" class="edge">
<title>Node1&#45;&gt;Node2</title>
<path fill="none" stroke="#191970" d="M807.649,-1029.4005C780.8895,-1017.9077 735.8965,-998.5838 705.5911,-985.568"/>
<polygon fill="#191970" stroke="#191970" points="706.8792,-982.3121 696.3095,-981.5817 704.1167,-988.744 706.8792,-982.3121"/>
</g>
<!-- Node37 -->
<g id="node37" class="node">
<title>Node37</title>
<g id="a_node37"><a xlink:href="../../db/dbc/SmartMIDIFilteredAnalog_8hpp.html" target="_top" xlink:title=" ">
<polygon fill="#ffffff" stroke="#000000" points="760,-951.5 760,-992.5 900,-992.5 900,-951.5 760,-951.5"/>
<text text-anchor="start" x="768" y="-980.5" font-family="Helvetica,sans-Serif" font-size="10.00" fill="#000000">MIDI_Outputs/Bankable</text>
<text text-anchor="start" x="768" y="-969.5" font-family="Helvetica,sans-Serif" font-size="10.00" fill="#000000">/Abstract/SmartMIDIFiltered</text>
<text text-anchor="middle" x="830" y="-958.5" font-family="Helvetica,sans-Serif" font-size="10.00" fill="#000000">Analog.hpp</text>
</a>
</g>
</g>
<!-- Node1&#45;&gt;Node37 -->
<g id="edge74" class="edge">
<title>Node1&#45;&gt;Node37</title>
<path fill="none" stroke="#191970" d="M830,-1029.4005C830,-1022.3854 830,-1012.4526 830,-1002.8177"/>
<polygon fill="#191970" stroke="#191970" points="833.5001,-1002.6317 830,-992.6318 826.5001,-1002.6318 833.5001,-1002.6317"/>
</g>
<!-- Node46 -->
<g id="node46" class="node">
<title>Node46</title>
<g id="a_node46"><a xlink:href="../../db/dd1/ContinuousCCSender_8hpp.html" target="_top" xlink:title=" ">
<polygon fill="#ffffff" stroke="#000000" points="1177.5,-895.5 1177.5,-914.5 1374.5,-914.5 1374.5,-895.5 1177.5,-895.5"/>
<text text-anchor="middle" x="1276" y="-902.5" font-family="Helvetica,sans-Serif" font-size="10.00" fill="#000000">MIDI_Senders/ContinuousCCSender.hpp</text>
</a>
</g>
</g>
<!-- Node1&#45;&gt;Node46 -->
<g id="edge102" class="edge">
<title>Node1&#45;&gt;Node46</title>
<path fill="none" stroke="#191970" d="M861.7177,-1029.4705C940.6668,-1005.7503 1145.9889,-944.0616 1234.4523,-917.483"/>
<polygon fill="#191970" stroke="#191970" points="1235.5757,-920.8001 1244.1457,-914.5706 1233.5614,-914.0961 1235.5757,-920.8001"/>
</g>
<!-- Node3 -->
<g id="node3" class="node">
<title>Node3</title>
<g id="a_node3"><a xlink:href="../../d0/dd4/BankableAddresses_8hpp.html" target="_top" xlink:title=" ">
<polygon fill="#ffffff" stroke="#000000" points="627,-895.5 627,-914.5 749,-914.5 749,-895.5 627,-895.5"/>
<text text-anchor="middle" x="688" y="-902.5" font-family="Helvetica,sans-Serif" font-size="10.00" fill="#000000">BankableAddresses.hpp</text>
</a>
</g>
</g>
<!-- Node2&#45;&gt;Node3 -->
<g id="edge2" class="edge">
<title>Node2&#45;&gt;Node3</title>
<path fill="none" stroke="#191970" d="M676.0059,-962.4005C678.0643,-952.5495 681.3249,-936.9451 683.9272,-924.4912"/>
<polygon fill="#191970" stroke="#191970" points="687.3784,-925.0862 685.9979,-914.5817 680.5264,-923.6543 687.3784,-925.0862"/>
</g>
<!-- Node4 -->
<g id="node4" class="node">
<title>Node4</title>
<g id="a_node4"><a xlink:href="../../d4/d57/Bank_8hpp.html" target="_top" xlink:title=" ">
<polygon fill="#ffffff" stroke="#000000" points="374,-834 374,-853 432,-853 432,-834 374,-834"/>
<text text-anchor="middle" x="403" y="-841" font-family="Helvetica,sans-Serif" font-size="10.00" fill="#000000">Bank.hpp</text>
</a>
</g>
</g>
<!-- Node3&#45;&gt;Node4 -->
<g id="edge3" class="edge">
<title>Node3&#45;&gt;Node4</title>
<path fill="none" stroke="#191970" d="M643.7815,-895.4581C588.5215,-883.5336 494.816,-863.3129 442.0762,-851.9322"/>
<polygon fill="#191970" stroke="#191970" points="442.6113,-848.4672 432.098,-849.779 441.1347,-855.3097 442.6113,-848.4672"/>
</g>
<!-- Node35 -->
<g id="node35" class="node">
<title>Node35</title>
<g id="a_node35"><a xlink:href="../../dd/d1f/BankConfig_8hpp.html" target="_top" xlink:title=" ">
<polygon fill="#ffffff" stroke="#000000" points="713,-705.5 713,-724.5 799,-724.5 799,-705.5 713,-705.5"/>
<text text-anchor="middle" x="756" y="-712.5" font-family="Helvetica,sans-Serif" font-size="10.00" fill="#000000">BankConfig.hpp</text>
</a>
</g>
</g>
<!-- Node3&#45;&gt;Node35 -->
<g id="edge72" class="edge">
<title>Node3&#45;&gt;Node35</title>
<path fill="none" stroke="#191970" d="M690.5725,-895.4071C696.9409,-872.0524 714.3549,-810.5223 734,-761 737.6203,-751.8739 742.2328,-742.0216 746.2984,-733.7852"/>
<polygon fill="#191970" stroke="#191970" points="749.5038,-735.202 750.8828,-724.6973 743.2539,-732.0492 749.5038,-735.202"/>
</g>
<!-- Node36 -->
<g id="node36" class="node">
<title>Node36</title>
<g id="a_node36"><a xlink:href="../../db/dd6/MIDIAddress_8hpp.html" target="_top" xlink:title=" ">
<polygon fill="#ffffff" stroke="#000000" points="817,-705.5 817,-724.5 929,-724.5 929,-705.5 817,-705.5"/>
<text text-anchor="middle" x="873" y="-712.5" font-family="Helvetica,sans-Serif" font-size="10.00" fill="#000000">Def/MIDIAddress.hpp</text>
</a>
</g>
</g>
<!-- Node3&#45;&gt;Node36 -->
<g id="edge73" class="edge">
<title>Node3&#45;&gt;Node36</title>
<path fill="none" stroke="#191970" d="M695.7859,-895.4884C715.3417,-871.8019 768.5058,-808.6567 818,-761 828.8963,-750.5083 841.8404,-739.6124 852.4333,-731.06"/>
<polygon fill="#191970" stroke="#191970" points="854.7031,-733.7266 860.3404,-724.756 850.3393,-728.2532 854.7031,-733.7266"/>
</g>
<!-- Node5 -->
<g id="node5" class="node">
<title>Node5</title>
<g id="a_node5"><a xlink:href="../../df/dee/Debug_8hpp.html" target="_top" xlink:title=" ">
<polygon fill="#ffffff" stroke="#000000" points="125.5,-392.5 125.5,-411.5 238.5,-411.5 238.5,-392.5 125.5,-392.5"/>
<text text-anchor="middle" x="182" y="-399.5" font-family="Helvetica,sans-Serif" font-size="10.00" fill="#000000">AH/Debug/Debug.hpp</text>
</a>
</g>
</g>
<!-- Node4&#45;&gt;Node5 -->
<g id="edge4" class="edge">
<title>Node4&#45;&gt;Node5</title>
<path fill="none" stroke="#191970" d="M373.6926,-840.5684C280.9554,-830.4911 0,-793.4846 0,-715 0,-715 0,-715 0,-586.5 0,-501.5745 98.9406,-441.5826 150.9215,-415.9246"/>
<polygon fill="#191970" stroke="#191970" points="152.5523,-419.0241 160.0465,-411.535 149.5177,-412.716 152.5523,-419.0241"/>
</g>
<!-- Node23 -->
<g id="node23" class="node">
<title>Node23</title>
<g id="a_node23"><a xlink:href="../../d1/d93/Error_8hpp.html" target="_top" xlink:title=" ">
<polygon fill="#ffffff" stroke="#000000" points="359,-448.5 359,-467.5 457,-467.5 457,-448.5 359,-448.5"/>
<text text-anchor="middle" x="408" y="-455.5" font-family="Helvetica,sans-Serif" font-size="10.00" fill="#000000">AH/Error/Error.hpp</text>
</a>
</g>
</g>
<!-- Node4&#45;&gt;Node23 -->
<g id="edge33" class="edge">
<title>Node4&#45;&gt;Node23</title>
<path fill="none" stroke="#191970" d="M373.8172,-834.5141C352.3421,-826.5214 323.8866,-812.8302 306,-792 259.7053,-738.0864 239.3646,-705.0167 263,-638 288.1001,-566.8303 354.5736,-503.0861 388.0875,-474.2654"/>
<polygon fill="#191970" stroke="#191970" points="390.4711,-476.8336 395.8526,-467.7073 385.9544,-471.4857 390.4711,-476.8336"/>
</g>
<!-- Node24 -->
<g id="node24" class="node">
<title>Node24</title>
<g id="a_node24"><a xlink:href="../../de/dd1/LinkedList_8hpp.html" target="_top" xlink:title=" ">
<polygon fill="#ffffff" stroke="#000000" points="271.5,-644 271.5,-663 418.5,-663 418.5,-644 271.5,-644"/>
<text text-anchor="middle" x="345" y="-651" font-family="Helvetica,sans-Serif" font-size="10.00" fill="#000000">AH/Containers/LinkedList.hpp</text>
</a>
</g>
</g>
<!-- Node4&#45;&gt;Node24 -->
<g id="edge36" class="edge">
<title>Node4&#45;&gt;Node24</title>
<path fill="none" stroke="#191970" d="M373.6796,-834.0618C354.3821,-826.1469 330.6159,-812.7469 319,-792 297.3913,-753.4052 319.2724,-700.2447 333.9929,-672.3422"/>
<polygon fill="#191970" stroke="#191970" points="337.2276,-673.7247 338.9984,-663.2789 331.1,-670.3405 337.2276,-673.7247"/>
</g>
<!-- Node27 -->
<g id="node27" class="node">
<title>Node27</title>
<g id="a_node27"><a xlink:href="../../d9/d46/Selectable_8hpp.html" target="_top" xlink:title=" ">
<polygon fill="#ffffff" stroke="#000000" points="569.5,-705.5 569.5,-724.5 694.5,-724.5 694.5,-705.5 569.5,-705.5"/>
<text text-anchor="middle" x="632" y="-712.5" font-family="Helvetica,sans-Serif" font-size="10.00" fill="#000000">Selectors/Selectable.hpp</text>
</a>
</g>
</g>
<!-- Node4&#45;&gt;Node27 -->
<g id="edge42" class="edge">
<title>Node4&#45;&gt;Node27</title>
<path fill="none" stroke="#191970" d="M420.2122,-833.8416C460.0131,-811.508 558.6117,-756.1807 605.8947,-729.6486"/>
<polygon fill="#191970" stroke="#191970" points="607.8923,-732.5411 614.9004,-724.5952 604.4668,-726.4365 607.8923,-732.5411"/>
</g>
<!-- Node34 -->
<g id="node34" class="node">
<title>Node34</title>
<g id="a_node34"><a xlink:href="../../de/d6e/BankableMIDIInput_8hpp.html" target="_top" xlink:title=" ">
<polygon fill="#ffffff" stroke="#000000" points="328,-767 328,-786 478,-786 478,-767 328,-767"/>
<text text-anchor="middle" x="403" y="-774" font-family="Helvetica,sans-Serif" font-size="10.00" fill="#000000">Banks/BankableMIDIInput.hpp</text>
</a>
</g>
</g>
<!-- Node4&#45;&gt;Node34 -->
<g id="edge64" class="edge">
<title>Node4&#45;&gt;Node34</title>
<path fill="none" stroke="#191970" d="M398.0994,-833.9005C396.2106,-824.149 395.7686,-808.7597 396.7734,-796.3695"/>
<polygon fill="#191970" stroke="#191970" points="400.2923,-796.4478 398.1029,-786.0817 393.35,-795.5506 400.2923,-796.4478"/>
</g>
<!-- Node6 -->
<g id="node6" class="node">
<title>Node6</title>
<g id="a_node6"><a xlink:href="../../d1/d65/Warnings_8hpp.html" target="_top" xlink:title=" ">
<polygon fill="#ffffff" stroke="#000000" points="858.5,-.5 858.5,-19.5 991.5,-19.5 991.5,-.5 858.5,-.5"/>
<text text-anchor="middle" x="925" y="-7.5" font-family="Helvetica,sans-Serif" font-size="10.00" fill="#000000">AH/Settings/Warnings.hpp</text>
</a>
</g>
</g>
<!-- Node5&#45;&gt;Node6 -->
<g id="edge5" class="edge">
<title>Node5&#45;&gt;Node6</title>
<path fill="none" stroke="#191970" d="M174.5286,-392.4445C140.4709,-347.7019 5.6209,-156.8522 101,-56 126.4466,-29.0932 648.3899,-15.6415 848.1539,-11.4635"/>
<polygon fill="#191970" stroke="#191970" points="848.3519,-14.9603 858.2773,-11.254 848.207,-7.9618 848.3519,-14.9603"/>
</g>
<!-- Node7 -->
<g id="node7" class="node">
<title>Node7</title>
<g id="a_node7"><a xlink:href="../../dd/d80/PrintStream_8hpp.html" target="_top" xlink:title=" ">
<polygon fill="#ffffff" stroke="#000000" points="112.5,-224.5 112.5,-243.5 271.5,-243.5 271.5,-224.5 112.5,-224.5"/>
<text text-anchor="middle" x="192" y="-231.5" font-family="Helvetica,sans-Serif" font-size="10.00" fill="#000000">AH/PrintStream/PrintStream.hpp</text>
</a>
</g>
</g>
<!-- Node5&#45;&gt;Node7 -->
<g id="edge6" class="edge">
<title>Node5&#45;&gt;Node7</title>
<path fill="none" stroke="#191970" d="M182.151,-392.1538C182.3828,-379.2499 182.9178,-355.9173 184,-336 185.5612,-307.2668 188.3502,-274.053 190.1878,-253.5356"/>
<polygon fill="#191970" stroke="#191970" points="193.6755,-253.8286 191.0969,-243.5523 186.7043,-253.1937 193.6755,-253.8286"/>
</g>
<!-- Node14 -->
<g id="node14" class="node">
<title>Node14</title>
<g id="a_node14"><a xlink:href="../../de/dd1/AH_2Settings_2SettingsWrapper_8hpp.html" target="_top" xlink:title=" ">
<polygon fill="#ffffff" stroke="#000000" points="403,-336.5 403,-355.5 567,-355.5 567,-336.5 403,-336.5"/>
<text text-anchor="middle" x="485" y="-343.5" font-family="Helvetica,sans-Serif" font-size="10.00" fill="#000000">AH/Settings/SettingsWrapper.hpp</text>
</a>
</g>
</g>
<!-- Node5&#45;&gt;Node14 -->
<g id="edge17" class="edge">
<title>Node5&#45;&gt;Node14</title>
<path fill="none" stroke="#191970" d="M228.5137,-392.4369C279.2175,-382.712 360.6312,-367.6456 418.1568,-357.3285"/>
<polygon fill="#191970" stroke="#191970" points="419.0208,-360.7296 428.2484,-355.5237 417.7884,-353.8389 419.0208,-360.7296"/>
</g>
<!-- Node22 -->
<g id="node22" class="node">
<title>Node22</title>
<g id="a_node22"><a xlink:href="../../d7/d52/DebugVal_8hpp.html" target="_top" xlink:title=" ">
<polygon fill="#ffffff" stroke="#000000" points="193,-336.5 193,-355.5 271,-355.5 271,-336.5 193,-336.5"/>
<text text-anchor="middle" x="232" y="-343.5" font-family="Helvetica,sans-Serif" font-size="10.00" fill="#000000">DebugVal.hpp</text>
</a>
</g>
</g>
<!-- Node5&#45;&gt;Node22 -->
<g id="edge32" class="edge">
<title>Node5&#45;&gt;Node22</title>
<path fill="none" stroke="#191970" d="M190.7093,-392.2455C197.8073,-384.2958 208.0084,-372.8706 216.495,-363.3656"/>
<polygon fill="#191970" stroke="#191970" points="219.3411,-365.4331 223.3905,-355.6427 214.1195,-360.771 219.3411,-365.4331"/>
</g>
<!-- Node7&#45;&gt;Node6 -->
<g id="edge7" class="edge">
<title>Node7&#45;&gt;Node6</title>
<path fill="none" stroke="#191970" d="M193.7341,-224.0687C199.7572,-192.9089 222.9017,-96.733 285,-56 331.0856,-25.7705 688.4002,-14.7888 848.2009,-11.3613"/>
<polygon fill="#191970" stroke="#191970" points="848.5114,-14.8556 858.4356,-11.1463 848.3643,-7.8572 848.5114,-14.8556"/>
</g>
<!-- Node8 -->
<g id="node8" class="node">
<title>Node8</title>
<g id="a_node8"><a xlink:href="../../d6/ddf/Arduino-Wrapper_8h.html" target="_top" xlink:title=" ">
<polygon fill="#ffffff" stroke="#000000" points="701.5,-168.5 701.5,-187.5 816.5,-187.5 816.5,-168.5 701.5,-168.5"/>
<text text-anchor="middle" x="759" y="-175.5" font-family="Helvetica,sans-Serif" font-size="10.00" fill="#000000">AH/Arduino&#45;Wrapper.h</text>
</a>
</g>
</g>
<!-- Node7&#45;&gt;Node8 -->
<g id="edge8" class="edge">
<title>Node7&#45;&gt;Node8</title>
<path fill="none" stroke="#191970" d="M271.7351,-226.1249C383.76,-215.0607 585.7927,-195.1069 691.0608,-184.71"/>
<polygon fill="#191970" stroke="#191970" points="691.6406,-188.1699 701.2481,-183.7039 690.9525,-181.2038 691.6406,-188.1699"/>
</g>
<!-- Node9 -->
<g id="node9" class="node">
<title>Node9</title>
<g id="a_node9"><a xlink:href="../../d7/d79/MinMaxFix_8hpp.html" target="_top" xlink:title=" ">
<polygon fill="#ffffff" stroke="#000000" points="687.5,-112.5 687.5,-131.5 812.5,-131.5 812.5,-112.5 687.5,-112.5"/>
<text text-anchor="middle" x="750" y="-119.5" font-family="Helvetica,sans-Serif" font-size="10.00" fill="#000000">AH/Math/MinMaxFix.hpp</text>
</a>
</g>
</g>
<!-- Node8&#45;&gt;Node9 -->
<g id="edge9" class="edge">
<title>Node8&#45;&gt;Node9</title>
<path fill="none" stroke="#191970" d="M757.4323,-168.2455C756.2579,-160.9382 754.6116,-150.6944 753.1668,-141.7046"/>
<polygon fill="#191970" stroke="#191970" points="756.5922,-140.9606 751.5497,-131.6427 749.6809,-142.0714 756.5922,-140.9606"/>
</g>
<!-- Node11 -->
<g id="node11" class="node">
<title>Node11</title>
<g id="a_node11"><a xlink:title=" ">
<polygon fill="#ffffff" stroke="#bfbfbf" points="361,-.5 361,-19.5 419,-19.5 419,-.5 361,-.5"/>
<text text-anchor="middle" x="390" y="-7.5" font-family="Helvetica,sans-Serif" font-size="10.00" fill="#000000">Arduino.h</text>
</a>
</g>
</g>
<!-- Node8&#45;&gt;Node11 -->
<g id="edge16" class="edge">
<title>Node8&#45;&gt;Node11</title>
<path fill="none" stroke="#191970" d="M738.1037,-168.4862C676.0923,-140.2534 492.9217,-56.8587 420.227,-23.7619"/>
<polygon fill="#191970" stroke="#191970" points="421.6759,-20.5759 411.1245,-19.6177 418.7753,-26.9467 421.6759,-20.5759"/>
</g>
<!-- Node13 -->
<g id="node13" class="node">
<title>Node13</title>
<g id="a_node13"><a xlink:title=" ">
<polygon fill="#ffffff" stroke="#bfbfbf" points="1089.5,-112.5 1089.5,-131.5 1190.5,-131.5 1190.5,-112.5 1089.5,-112.5"/>
<text text-anchor="middle" x="1140" y="-119.5" font-family="Helvetica,sans-Serif" font-size="10.00" fill="#000000">AH/STL/type_traits</text>
</a>
</g>
</g>
<!-- Node8&#45;&gt;Node13 -->
<g id="edge15" class="edge">
<title>Node8&#45;&gt;Node13</title>
<path fill="none" stroke="#191970" d="M816.7565,-170.1275C878.9293,-161.5622 981.0057,-147.2374 1079.1753,-132.1001"/>
<polygon fill="#191970" stroke="#191970" points="1079.9267,-135.5256 1089.2741,-130.5379 1078.8565,-128.6079 1079.9267,-135.5256"/>
</g>
<!-- Node9&#45;&gt;Node6 -->
<g id="edge10" class="edge">
<title>Node9&#45;&gt;Node6</title>
<path fill="none" stroke="#191970" d="M766.9262,-112.4389C782.8547,-103.3426 807.2884,-89.1342 828,-76 854.254,-59.3511 883.6812,-39.0947 903.1662,-25.4501"/>
<polygon fill="#191970" stroke="#191970" points="905.2031,-28.2966 911.372,-19.683 901.178,-22.5696 905.2031,-28.2966"/>
</g>
<!-- Node10 -->
<g id="node10" class="node">
<title>Node10</title>
<g id="a_node10"><a xlink:href="../../d6/d3b/FixArduinoMacros_8hpp.html" target="_top" xlink:title=" ">
<polygon fill="#ffffff" stroke="#000000" points="663,-56.5 663,-75.5 819,-75.5 819,-56.5 663,-56.5"/>
<text text-anchor="middle" x="741" y="-63.5" font-family="Helvetica,sans-Serif" font-size="10.00" fill="#000000">AH/Math/FixArduinoMacros.hpp</text>
</a>
</g>
</g>
<!-- Node9&#45;&gt;Node10 -->
<g id="edge11" class="edge">
<title>Node9&#45;&gt;Node10</title>
<path fill="none" stroke="#191970" d="M748.4323,-112.2455C747.2579,-104.9382 745.6116,-94.6944 744.1668,-85.7046"/>
<polygon fill="#191970" stroke="#191970" points="747.5922,-84.9606 742.5497,-75.6427 740.6809,-86.0714 747.5922,-84.9606"/>
</g>
<!-- Node12 -->
<g id="node12" class="node">
<title>Node12</title>
<g id="a_node12"><a xlink:href="../../d6/db0/AH_2Settings_2NamespaceSettings_8hpp.html" target="_top" xlink:title=" ">
<polygon fill="#ffffff" stroke="#000000" points="1129,-56.5 1129,-75.5 1309,-75.5 1309,-56.5 1129,-56.5"/>
<text text-anchor="middle" x="1219" y="-63.5" font-family="Helvetica,sans-Serif" font-size="10.00" fill="#000000">AH/Settings/NamespaceSettings.hpp</text>
</a>
</g>
</g>
<!-- Node9&#45;&gt;Node12 -->
<g id="edge14" class="edge">
<title>Node9&#45;&gt;Node12</title>
<path fill="none" stroke="#191970" d="M812.7648,-114.5057C894.1656,-104.7862 1036.6808,-87.7695 1129.4326,-76.6946"/>
<polygon fill="#191970" stroke="#191970" points="1129.8535,-80.1693 1139.3679,-75.5083 1129.0235,-73.2187 1129.8535,-80.1693"/>
</g>
<!-- Node10&#45;&gt;Node6 -->
<g id="edge12" class="edge">
<title>Node10&#45;&gt;Node6</title>
<path fill="none" stroke="#191970" d="M772.6307,-56.3733C803.3596,-47.021 850.176,-32.7725 883.8022,-22.5385"/>
<polygon fill="#191970" stroke="#191970" points="885.2344,-25.7612 893.782,-19.5011 883.1962,-19.0644 885.2344,-25.7612"/>
</g>
<!-- Node10&#45;&gt;Node11 -->
<g id="edge13" class="edge">
<title>Node10&#45;&gt;Node11</title>
<path fill="none" stroke="#191970" d="M681.0598,-56.4369C609.0588,-44.9495 490.3437,-26.0093 429.1568,-16.2472"/>
<polygon fill="#191970" stroke="#191970" points="429.5619,-12.7677 419.1353,-14.6484 428.459,-19.6803 429.5619,-12.7677"/>
</g>
<!-- Node14&#45;&gt;Node5 -->
<g id="edge31" class="edge">
<title>Node14&#45;&gt;Node5</title>
<path fill="none" stroke="#191970" d="M438.5742,-355.5462C387.8389,-365.2778 306.2806,-380.3709 248.7145,-390.6946"/>
<polygon fill="#191970" stroke="#191970" points="247.8445,-387.2946 238.6168,-392.5004 249.0768,-394.1853 247.8445,-387.2946"/>
</g>
<!-- Node14&#45;&gt;Node6 -->
<g id="edge18" class="edge">
<title>Node14&#45;&gt;Node6</title>
<path fill="none" stroke="#191970" d="M469.8409,-336.4621C457.9005,-328.1988 441.7024,-315.1991 432,-300 415.5757,-274.2708 413,-264.5246 413,-234 413,-234 413,-234 413,-122 413,-77.9874 705.4615,-36.5272 848.3073,-18.9018"/>
<polygon fill="#191970" stroke="#191970" points="848.8274,-22.3643 858.3276,-17.6742 847.9762,-15.4163 848.8274,-22.3643"/>
</g>
<!-- Node14&#45;&gt;Node12 -->
<g id="edge19" class="edge">
<title>Node14&#45;&gt;Node12</title>
<path fill="none" stroke="#191970" d="M528.4467,-336.4433C631.3837,-313.6369 882.5501,-256.9607 896,-244 939.9604,-201.6385 888.3152,-152.4958 934,-112 960.9895,-88.076 1047.7103,-76.513 1118.4707,-70.9739"/>
<polygon fill="#191970" stroke="#191970" points="1119.076,-74.4384 1128.7859,-70.1996 1118.552,-67.4581 1119.076,-74.4384"/>
</g>
<!-- Node15 -->
<g id="node15" class="node">
<title>Node15</title>
<g id="a_node15"><a xlink:href="../../d5/d4f/AH_2Settings_2Settings_8hpp.html" target="_top" xlink:title="All user settings and debugging options can be changed here.">
<polygon fill="#ffffff" stroke="#000000" points="817.5,-280.5 817.5,-299.5 888.5,-299.5 888.5,-280.5 817.5,-280.5"/>
<text text-anchor="middle" x="853" y="-287.5" font-family="Helvetica,sans-Serif" font-size="10.00" fill="#000000">Settings.hpp</text>
</a>
</g>
</g>
<!-- Node14&#45;&gt;Node15 -->
<g id="edge20" class="edge">
<title>Node14&#45;&gt;Node15</title>
<path fill="none" stroke="#191970" d="M547.8433,-336.4369C621.5,-325.2283 741.7855,-306.9239 807.1725,-296.9738"/>
<polygon fill="#191970" stroke="#191970" points="807.8202,-300.4156 817.1798,-295.4509 806.767,-293.4952 807.8202,-300.4156"/>
</g>
<!-- Node21 -->
<g id="node21" class="node">
<title>Node21</title>
<g id="a_node21"><a xlink:href="../../d9/d98/TeensyUSBTypes_8hpp.html" target="_top" xlink:title=" ">
<polygon fill="#ffffff" stroke="#000000" points="441,-280.5 441,-299.5 609,-299.5 609,-280.5 441,-280.5"/>
<text text-anchor="middle" x="525" y="-287.5" font-family="Helvetica,sans-Serif" font-size="10.00" fill="#000000">AH/Teensy/TeensyUSBTypes.hpp</text>
</a>
</g>
</g>
<!-- Node14&#45;&gt;Node21 -->
<g id="edge30" class="edge">
<title>Node14&#45;&gt;Node21</title>
<path fill="none" stroke="#191970" d="M491.9675,-336.2455C497.5311,-328.4564 505.478,-317.3308 512.1829,-307.9439"/>
<polygon fill="#191970" stroke="#191970" points="515.148,-309.8144 518.1124,-299.6427 509.4519,-305.7457 515.148,-309.8144"/>
</g>
<!-- Node16 -->
<g id="node16" class="node">
<title>Node16</title>
<g id="a_node16"><a xlink:href="../../dc/d50/Frequency_8hpp.html" target="_top" xlink:title=" ">
<polygon fill="#ffffff" stroke="#000000" points="943,-112.5 943,-131.5 1071,-131.5 1071,-112.5 943,-112.5"/>
<text text-anchor="middle" x="1007" y="-119.5" font-family="Helvetica,sans-Serif" font-size="10.00" fill="#000000">AH/Types/Frequency.hpp</text>
</a>
</g>
</g>
<!-- Node15&#45;&gt;Node16 -->
<g id="edge21" class="edge">
<title>Node15&#45;&gt;Node16</title>
<path fill="none" stroke="#191970" d="M874.4464,-280.3638C890.7374,-272.3012 912.9936,-259.6179 929,-244 960.787,-212.9845 985.8472,-166.6778 998.3274,-140.954"/>
<polygon fill="#191970" stroke="#191970" points="1001.6455,-142.1242 1002.7542,-131.5875 995.3168,-139.1331 1001.6455,-142.1242"/>
</g>
<!-- Node17 -->
<g id="node17" class="node">
<title>Node17</title>
<g id="a_node17"><a xlink:href="../../d7/d7c/ADCConfig_8hpp.html" target="_top" xlink:title="This file contains the platform&#45;specific ADC resolutions. By default, the library automatically selec...">
<polygon fill="#ffffff" stroke="#000000" points="739,-224.5 739,-243.5 887,-243.5 887,-224.5 739,-224.5"/>
<text text-anchor="middle" x="813" y="-231.5" font-family="Helvetica,sans-Serif" font-size="10.00" fill="#000000">AH/Hardware/ADCConfig.hpp</text>
</a>
</g>
</g>
<!-- Node15&#45;&gt;Node17 -->
<g id="edge24" class="edge">
<title>Node15&#45;&gt;Node17</title>
<path fill="none" stroke="#191970" d="M846.0325,-280.2455C840.4689,-272.4564 832.522,-261.3308 825.8171,-251.9439"/>
<polygon fill="#191970" stroke="#191970" points="828.5481,-249.7457 819.8876,-243.6427 822.852,-253.8144 828.5481,-249.7457"/>
</g>
<!-- Node18 -->
<g id="node18" class="node">
<title>Node18</title>
<g id="a_node18"><a xlink:title=" ">
<polygon fill="#ffffff" stroke="#bfbfbf" points="1165,-224.5 1165,-243.5 1213,-243.5 1213,-224.5 1165,-224.5"/>
<text text-anchor="middle" x="1189" y="-231.5" font-family="Helvetica,sans-Serif" font-size="10.00" fill="#000000">limits.h</text>
</a>
</g>
</g>
<!-- Node15&#45;&gt;Node18 -->
<g id="edge27" class="edge">
<title>Node15&#45;&gt;Node18</title>
<path fill="none" stroke="#191970" d="M888.6398,-284.06C953.7546,-273.2076 1091.1142,-250.3143 1154.9967,-239.6672"/>
<polygon fill="#191970" stroke="#191970" points="1155.6689,-243.1036 1164.9574,-238.0071 1154.518,-236.1988 1155.6689,-243.1036"/>
</g>
<!-- Node19 -->
<g id="node19" class="node">
<title>Node19</title>
<g id="a_node19"><a xlink:title=" ">
<polygon fill="#ffffff" stroke="#bfbfbf" points="1019,-224.5 1019,-243.5 1071,-243.5 1071,-224.5 1019,-224.5"/>
<text text-anchor="middle" x="1045" y="-231.5" font-family="Helvetica,sans-Serif" font-size="10.00" fill="#000000">stddef.h</text>
</a>
</g>
</g>
<!-- Node15&#45;&gt;Node19 -->
<g id="edge28" class="edge">
<title>Node15&#45;&gt;Node19</title>
<path fill="none" stroke="#191970" d="M886.006,-280.3733C920.2584,-270.383 973.6664,-254.8056 1008.9904,-244.5028"/>
<polygon fill="#191970" stroke="#191970" points="1010.2667,-247.7765 1018.8867,-241.6164 1008.3066,-241.0565 1010.2667,-247.7765"/>
</g>
<!-- Node20 -->
<g id="node20" class="node">
<title>Node20</title>
<g id="a_node20"><a xlink:title=" ">
<polygon fill="#ffffff" stroke="#bfbfbf" points="1269.5,-224.5 1269.5,-243.5 1318.5,-243.5 1318.5,-224.5 1269.5,-224.5"/>
<text text-anchor="middle" x="1294" y="-231.5" font-family="Helvetica,sans-Serif" font-size="10.00" fill="#000000">stdint.h</text>
</a>
</g>
</g>
<!-- Node15&#45;&gt;Node20 -->
<g id="edge29" class="edge">
<title>Node15&#45;&gt;Node20</title>
<path fill="none" stroke="#191970" d="M888.6425,-285.7248C954.514,-277.7864 1099.7503,-260.1087 1222,-244 1234.1932,-242.3933 1247.5369,-240.5608 1259.3882,-238.9071"/>
<polygon fill="#191970" stroke="#191970" points="1259.9352,-242.3647 1269.3524,-237.5101 1258.9633,-235.4325 1259.9352,-242.3647"/>
</g>
<!-- Node16&#45;&gt;Node6 -->
<g id="edge22" class="edge">
<title>Node16&#45;&gt;Node6</title>
<path fill="none" stroke="#191970" d="M1000.0087,-112.4509C986.2716,-93.688 955.5704,-51.7548 938.0014,-27.758"/>
<polygon fill="#191970" stroke="#191970" points="940.705,-25.5259 931.9736,-19.5249 935.057,-29.6611 940.705,-25.5259"/>
</g>
<!-- Node16&#45;&gt;Node12 -->
<g id="edge23" class="edge">
<title>Node16&#45;&gt;Node12</title>
<path fill="none" stroke="#191970" d="M1043.4441,-112.3733C1079.3069,-102.9001 1134.1878,-88.4032 1173.0282,-78.1435"/>
<polygon fill="#191970" stroke="#191970" points="1174.257,-81.439 1183.0315,-75.5011 1172.4692,-74.6712 1174.257,-81.439"/>
</g>
<!-- Node17&#45;&gt;Node6 -->
<g id="edge25" class="edge">
<title>Node17&#45;&gt;Node6</title>
<path fill="none" stroke="#191970" d="M817.8125,-224.375C834.9011,-190.1979 892.8553,-74.2894 915.6659,-28.6683"/>
<polygon fill="#191970" stroke="#191970" points="918.8637,-30.0987 920.2054,-19.5891 912.6027,-26.9682 918.8637,-30.0987"/>
</g>
<!-- Node17&#45;&gt;Node8 -->
<g id="edge26" class="edge">
<title>Node17&#45;&gt;Node8</title>
<path fill="none" stroke="#191970" d="M803.5939,-224.2455C795.8507,-216.2155 784.688,-204.6394 775.4682,-195.0781"/>
<polygon fill="#191970" stroke="#191970" points="777.7591,-192.4117 768.2983,-187.6427 772.7202,-197.2706 777.7591,-192.4117"/>
</g>
<!-- Node23&#45;&gt;Node5 -->
<g id="edge35" class="edge">
<title>Node23&#45;&gt;Node5</title>
<path fill="none" stroke="#191970" d="M369.406,-448.4369C330.9716,-438.9133 271.864,-424.2672 230.329,-413.9753"/>
<polygon fill="#191970" stroke="#191970" points="230.9831,-410.5316 220.4348,-411.5237 229.2994,-417.3261 230.9831,-410.5316"/>
</g>
<!-- Node23&#45;&gt;Node6 -->
<g id="edge34" class="edge">
<title>Node23&#45;&gt;Node6</title>
<path fill="none" stroke="#191970" d="M400.6692,-448.3825C382.5288,-423.5935 337,-354.912 337,-290 337,-290 337,-290 337,-122 337,-41.3643 427.6914,-75.2325 506,-56 623.2915,-27.1933 763.4971,-16.4106 848.3222,-12.3849"/>
<polygon fill="#191970" stroke="#191970" points="848.5565,-15.878 858.387,-11.9267 848.2381,-8.8852 848.5565,-15.878"/>
</g>
<!-- Node24&#45;&gt;Node5 -->
<g id="edge38" class="edge">
<title>Node24&#45;&gt;Node5</title>
<path fill="none" stroke="#191970" d="M316.9148,-643.9499C296.6071,-635.7314 269.8786,-622.0066 253,-602 206.7241,-547.1482 189.7651,-459.989 184.3001,-421.4355"/>
<polygon fill="#191970" stroke="#191970" points="187.7701,-420.9776 183.0005,-411.517 180.8294,-421.887 187.7701,-420.9776"/>
</g>
<!-- Node24&#45;&gt;Node6 -->
<g id="edge37" class="edge">
<title>Node24&#45;&gt;Node6</title>
<path fill="none" stroke="#191970" d="M334.4806,-643.8782C313.1899,-623.2948 267,-572.5287 267,-519.5 267,-519.5 267,-519.5 267,-458 267,-381.9909 299,-366.0091 299,-290 299,-290 299,-290 299,-122 299,-83.8166 320.1002,-73.5721 354,-56 396.8168,-33.8057 702.561,-18.8358 848.2142,-12.8842"/>
<polygon fill="#191970" stroke="#191970" points="848.5685,-16.3729 858.4188,-12.4713 848.2854,-9.3786 848.5685,-16.3729"/>
</g>
<!-- Node24&#45;&gt;Node9 -->
<g id="edge39" class="edge">
<title>Node24&#45;&gt;Node9</title>
<path fill="none" stroke="#191970" d="M339.934,-643.7144C329.1705,-621.986 305,-567.8137 305,-519.5 305,-519.5 305,-519.5 305,-458 305,-261.8756 583.7009,-165.7371 699.9819,-134.161"/>
<polygon fill="#191970" stroke="#191970" points="700.9635,-137.5216 709.7244,-131.5637 699.1602,-130.7578 700.9635,-137.5216"/>
</g>
<!-- Node25 -->
<g id="node25" class="node">
<title>Node25</title>
<g id="a_node25"><a xlink:title=" ">
<polygon fill="#ffffff" stroke="#bfbfbf" points="821,-577 821,-596 869,-596 869,-577 821,-577"/>
<text text-anchor="middle" x="845" y="-584" font-family="Helvetica,sans-Serif" font-size="10.00" fill="#000000">stdlib.h</text>
</a>
</g>
</g>
<!-- Node24&#45;&gt;Node25 -->
<g id="edge40" class="edge">
<title>Node24&#45;&gt;Node25</title>
<path fill="none" stroke="#191970" d="M416.1068,-643.9717C525.2521,-629.3462 729.9291,-601.9195 810.8357,-591.078"/>
<polygon fill="#191970" stroke="#191970" points="811.5184,-594.5179 820.965,-589.7207 810.5887,-587.5799 811.5184,-594.5179"/>
</g>
<!-- Node26 -->
<g id="node26" class="node">
<title>Node26</title>
<g id="a_node26"><a xlink:title=" ">
<polygon fill="#ffffff" stroke="#bfbfbf" points="371.5,-577 371.5,-596 418.5,-596 418.5,-577 371.5,-577"/>
<text text-anchor="middle" x="395" y="-584" font-family="Helvetica,sans-Serif" font-size="10.00" fill="#000000">iterator</text>
</a>
</g>
</g>
<!-- Node24&#45;&gt;Node26 -->
<g id="edge41" class="edge">
<title>Node24&#45;&gt;Node26</title>
<path fill="none" stroke="#191970" d="M352.1638,-643.9005C359.8866,-633.552 372.3476,-616.8542 381.8437,-604.1295"/>
<polygon fill="#191970" stroke="#191970" points="384.6736,-606.1893 387.8495,-596.0817 379.0636,-602.0027 384.6736,-606.1893"/>
</g>
<!-- Node27&#45;&gt;Node13 -->
<g id="edge44" class="edge">
<title>Node27&#45;&gt;Node13</title>
<path fill="none" stroke="#191970" d="M640.8811,-705.2379C648.8179,-696.2318 660.4759,-682.2836 669,-669 704.9605,-612.9605 711.8453,-597.0494 736,-535 778.7648,-425.1444 727.5699,-365.2421 809,-280 843.6586,-243.719 870.0162,-264.0755 916,-244 991.6783,-210.9605 1075.9582,-161.322 1116.1545,-136.7969"/>
<polygon fill="#191970" stroke="#191970" points="1118.0263,-139.7548 1124.7204,-131.5426 1114.3661,-133.7879 1118.0263,-139.7548"/>
</g>
<!-- Node27&#45;&gt;Node20 -->
<g id="edge63" class="edge">
<title>Node27&#45;&gt;Node20</title>
<path fill="none" stroke="#191970" d="M676.6875,-705.4586C748.7555,-690.2229 895.2004,-659.8909 1020,-638 1124.5067,-619.6687 1152.245,-624.1943 1256,-602 1269.6416,-599.0819 1489.5536,-546.1026 1498,-535 1570.2466,-440.0334 1504.051,-358.2882 1414,-280 1400.8387,-268.5579 1359.0033,-253.9367 1328.4217,-244.2859"/>
<polygon fill="#191970" stroke="#191970" points="1329.1279,-240.8403 1318.5397,-241.2153 1327.0507,-247.525 1329.1279,-240.8403"/>
</g>
<!-- Node27&#45;&gt;Node23 -->
<g id="edge43" class="edge">
<title>Node27&#45;&gt;Node23</title>
<path fill="none" stroke="#191970" d="M639.1549,-705.322C649.3236,-690.2869 665.5124,-660.6888 654,-638 629.956,-590.6136 492.2542,-506.8058 434.0092,-472.8785"/>
<polygon fill="#191970" stroke="#191970" points="435.4612,-469.6748 425.0537,-467.691 431.9525,-475.732 435.4612,-469.6748"/>
</g>
<!-- Node28 -->
<g id="node28" class="node">
<title>Node28</title>
<g id="a_node28"><a xlink:href="../../d0/d4e/Def_8hpp.html" target="_top" xlink:title=" ">
<polygon fill="#ffffff" stroke="#000000" points="1029,-644 1029,-663 1099,-663 1099,-644 1029,-644"/>
<text text-anchor="middle" x="1064" y="-651" font-family="Helvetica,sans-Serif" font-size="10.00" fill="#000000">Def/Def.hpp</text>
</a>
</g>
</g>
<!-- Node27&#45;&gt;Node28 -->
<g id="edge45" class="edge">
<title>Node27&#45;&gt;Node28</title>
<path fill="none" stroke="#191970" d="M694.8174,-706.1896C697.9214,-705.7812 700.9955,-705.3825 704,-705 842.0312,-687.4279 878.9351,-698.1157 1015,-669 1018.9603,-668.1526 1023.0566,-667.1184 1027.1163,-665.9902"/>
<polygon fill="#191970" stroke="#191970" points="1028.4437,-669.2472 1037.0337,-663.0455 1026.4511,-662.5368 1028.4437,-669.2472"/>
</g>
<!-- Node28&#45;&gt;Node19 -->
<g id="edge61" class="edge">
<title>Node28&#45;&gt;Node19</title>
<path fill="none" stroke="#191970" d="M1028.8782,-645.7822C978.8431,-632.6874 888.8123,-600.8573 850,-535 783.8767,-422.8009 955.977,-293.0104 1021.1656,-249.2731"/>
<polygon fill="#191970" stroke="#191970" points="1023.2078,-252.1187 1029.6185,-243.6835 1019.3467,-246.2799 1023.2078,-252.1187"/>
</g>
<!-- Node28&#45;&gt;Node20 -->
<g id="edge62" class="edge">
<title>Node28&#45;&gt;Node20</title>
<path fill="none" stroke="#191970" d="M1089.9904,-643.8842C1096.1715,-641.7825 1102.7791,-639.6853 1109,-638 1210.1089,-610.609 1504.1169,-617.2403 1569,-535 1644.4021,-439.4266 1574.2328,-341.2031 1469,-280 1415.7119,-249.0078 1392.5711,-259.9499 1328.5965,-243.9815"/>
<polygon fill="#191970" stroke="#191970" points="1329.414,-240.5775 1318.8529,-241.422 1327.6355,-247.3479 1329.414,-240.5775"/>
</g>
<!-- Node29 -->
<g id="node29" class="node">
<title>Node29</title>
<g id="a_node29"><a xlink:href="../../d7/d42/Channel_8hpp.html" target="_top" xlink:title=" ">
<polygon fill="#ffffff" stroke="#000000" points="1137.5,-510 1137.5,-529 1208.5,-529 1208.5,-510 1137.5,-510"/>
<text text-anchor="middle" x="1173" y="-517" font-family="Helvetica,sans-Serif" font-size="10.00" fill="#000000">Channel.hpp</text>
</a>
</g>
</g>
<!-- Node28&#45;&gt;Node29 -->
<g id="edge46" class="edge">
<title>Node28&#45;&gt;Node29</title>
<path fill="none" stroke="#191970" d="M1069.1502,-643.8044C1077.8776,-627.8052 1096.6223,-595.2359 1117,-571 1127.7025,-558.2712 1141.4233,-545.6058 1152.6046,-536.0203"/>
<polygon fill="#191970" stroke="#191970" points="1155.1558,-538.4487 1160.5681,-529.3405 1150.6572,-533.0856 1155.1558,-538.4487"/>
</g>
<!-- Node30 -->
<g id="node30" class="node">
<title>Node30</title>
<g id="a_node30"><a xlink:title=" ">
<polygon fill="#ffffff" stroke="#bfbfbf" points="1201.5,-448.5 1201.5,-467.5 1364.5,-467.5 1364.5,-448.5 1201.5,-448.5"/>
<text text-anchor="middle" x="1283" y="-455.5" font-family="Helvetica,sans-Serif" font-size="10.00" fill="#000000">Settings/NamespaceSettings.hpp</text>
</a>
</g>
</g>
<!-- Node28&#45;&gt;Node30 -->
<g id="edge60" class="edge">
<title>Node28&#45;&gt;Node30</title>
<path fill="none" stroke="#191970" d="M1073.7704,-643.9537C1094.6919,-623.5535 1142.6077,-577.0671 1151,-571 1178.395,-551.1952 1191.7442,-556.292 1218,-535 1239.3245,-517.707 1258.9315,-492.6788 1270.9128,-475.8983"/>
<polygon fill="#191970" stroke="#191970" points="1273.9014,-477.7314 1276.747,-467.5258 1268.1582,-473.7293 1273.9014,-477.7314"/>
</g>
<!-- Node31 -->
<g id="node31" class="node">
<title>Node31</title>
<g id="a_node31"><a xlink:href="../../de/d76/Array_8hpp.html" target="_top" xlink:title=" ">
<polygon fill="#ffffff" stroke="#000000" points="993,-510 993,-529 1119,-529 1119,-510 993,-510"/>
<text text-anchor="middle" x="1056" y="-517" font-family="Helvetica,sans-Serif" font-size="10.00" fill="#000000">AH/Containers/Array.hpp</text>
</a>
</g>
</g>
<!-- Node28&#45;&gt;Node31 -->
<g id="edge49" class="edge">
<title>Node28&#45;&gt;Node31</title>
<path fill="none" stroke="#191970" d="M1063.4247,-643.8631C1062.1216,-622.0364 1058.923,-568.4605 1057.1796,-539.2589"/>
<polygon fill="#191970" stroke="#191970" points="1060.66,-538.8232 1056.5701,-529.0496 1053.6724,-539.2405 1060.66,-538.8232"/>
</g>
<!-- Node33 -->
<g id="node33" class="node">
<title>Node33</title>
<g id="a_node33"><a xlink:href="../../d4/d35/Hardware-Types_8hpp.html" target="_top" xlink:title=" ">
<polygon fill="#ffffff" stroke="#000000" points="1735.5,-571.5 1735.5,-601.5 1856.5,-601.5 1856.5,-571.5 1735.5,-571.5"/>
<text text-anchor="start" x="1743.5" y="-589.5" font-family="Helvetica,sans-Serif" font-size="10.00" fill="#000000">AH/Hardware/Hardware</text>
<text text-anchor="middle" x="1796" y="-578.5" font-family="Helvetica,sans-Serif" font-size="10.00" fill="#000000">&#45;Types.hpp</text>
</a>
</g>
</g>
<!-- Node28&#45;&gt;Node33 -->
<g id="edge55" class="edge">
<title>Node28&#45;&gt;Node33</title>
<path fill="none" stroke="#191970" d="M1087.9693,-643.9703C1094.678,-641.6545 1102.0402,-639.4345 1109,-638 1225.3011,-614.0284 1574.4938,-596.2603 1725.3324,-589.494"/>
<polygon fill="#191970" stroke="#191970" points="1725.5761,-592.9867 1735.4104,-589.045 1725.2646,-585.9936 1725.5761,-592.9867"/>
</g>
<!-- Node29&#45;&gt;Node20 -->
<g id="edge47" class="edge">
<title>Node29&#45;&gt;Node20</title>
<path fill="none" stroke="#191970" d="M1175.2065,-509.6191C1178.4467,-495.6678 1184.9851,-469.4981 1193,-448 1220.8106,-373.4048 1264.3898,-289.1216 1283.9302,-252.5592"/>
<polygon fill="#191970" stroke="#191970" points="1287.1161,-254.0246 1288.7711,-243.5598 1280.9514,-250.7085 1287.1161,-254.0246"/>
</g>
<!-- Node29&#45;&gt;Node30 -->
<g id="edge48" class="edge">
<title>Node29&#45;&gt;Node30</title>
<path fill="none" stroke="#191970" d="M1190.1875,-509.8906C1208.1082,-499.8713 1236.4095,-484.0483 1257.0523,-472.5071"/>
<polygon fill="#191970" stroke="#191970" points="1258.9128,-475.4769 1265.9332,-467.5419 1255.4967,-469.367 1258.9128,-475.4769"/>
</g>
<!-- Node31&#45;&gt;Node6 -->
<g id="edge50" class="edge">
<title>Node31&#45;&gt;Node6</title>
<path fill="none" stroke="#191970" d="M1063.6334,-509.8689C1071.567,-499.6993 1084.1742,-483.0822 1094,-468 1122.4428,-424.3415 1352.6369,-94.9275 1318,-56 1297.4022,-32.8506 1110.6172,-19.4824 1002.1356,-13.6071"/>
<polygon fill="#191970" stroke="#191970" points="1002.062,-10.0983 991.8901,-13.0618 1001.6899,-17.0884 1002.062,-10.0983"/>
</g>
<!-- Node31&#45;&gt;Node13 -->
<g id="edge53" class="edge">
<title>Node31&#45;&gt;Node13</title>
<path fill="none" stroke="#191970" d="M1060.8954,-509.8723C1065.8768,-499.7054 1073.4883,-483.0906 1078,-468 1114.2356,-346.7995 1132.4401,-195.0201 1138.0559,-141.6489"/>
<polygon fill="#191970" stroke="#191970" points="1141.554,-141.8455 1139.0909,-131.541 1134.5904,-141.1324 1141.554,-141.8455"/>
</g>
<!-- Node31&#45;&gt;Node19 -->
<g id="edge54" class="edge">
<title>Node31&#45;&gt;Node19</title>
<path fill="none" stroke="#191970" d="M1028.0963,-509.9563C1009.4026,-501.934 986.2306,-488.4488 975,-468 934.1989,-393.7089 999.7867,-292.7747 1030.502,-252.0934"/>
<polygon fill="#191970" stroke="#191970" points="1033.4626,-253.9864 1036.8115,-243.9347 1027.9253,-249.704 1033.4626,-253.9864"/>
</g>
<!-- Node31&#45;&gt;Node23 -->
<g id="edge51" class="edge">
<title>Node31&#45;&gt;Node23</title>
<path fill="none" stroke="#191970" d="M992.9621,-510.0136C977.6161,-507.8712 961.2351,-505.7234 946,-504 772.3663,-484.3586 566.3517,-468.932 467.1697,-461.9958"/>
<polygon fill="#191970" stroke="#191970" points="467.2662,-458.4942 457.0473,-461.2915 466.7802,-465.4773 467.2662,-458.4942"/>
</g>
<!-- Node32 -->
<g id="node32" class="node">
<title>Node32</title>
<g id="a_node32"><a xlink:title=" ">
<polygon fill="#ffffff" stroke="#bfbfbf" points="983.5,-448.5 983.5,-467.5 1068.5,-467.5 1068.5,-448.5 983.5,-448.5"/>
<text text-anchor="middle" x="1026" y="-455.5" font-family="Helvetica,sans-Serif" font-size="10.00" fill="#000000">AH/STL/iterator</text>
</a>
</g>
</g>
<!-- Node31&#45;&gt;Node32 -->
<g id="edge52" class="edge">
<title>Node31&#45;&gt;Node32</title>
<path fill="none" stroke="#191970" d="M1051.3125,-509.8906C1047.0227,-501.0965 1040.5518,-487.8312 1035.2266,-476.9145"/>
<polygon fill="#191970" stroke="#191970" points="1038.2836,-475.1981 1030.7536,-467.7449 1031.9922,-478.2671 1038.2836,-475.1981"/>
</g>
<!-- Node33&#45;&gt;Node6 -->
<g id="edge56" class="edge">
<title>Node33&#45;&gt;Node6</title>
<path fill="none" stroke="#191970" d="M1856.58,-582.3046C1932.5604,-573.3712 2053,-545.4226 2053,-458 2053,-458 2053,-458 2053,-122 2053,-61.9095 1992.7876,-72.4759 1935,-56 1846.3096,-30.7133 1222.5365,-15.9426 1002.0108,-11.464"/>
<polygon fill="#191970" stroke="#191970" points="1001.8866,-7.9609 991.8181,-11.2585 1001.7455,-14.9595 1001.8866,-7.9609"/>
</g>
<!-- Node33&#45;&gt;Node12 -->
<g id="edge58" class="edge">
<title>Node33&#45;&gt;Node12</title>
<path fill="none" stroke="#191970" d="M1802.531,-571.2816C1823.4965,-519.8128 1882.6653,-351.4908 1793,-280 1670.7303,-182.5133 1566.6391,-339.7439 1443,-244 1393.5223,-205.6854 1440.3723,-154.0198 1394,-112 1378.2139,-97.6956 1330.0355,-85.6367 1288.218,-77.4589"/>
<polygon fill="#191970" stroke="#191970" points="1288.7819,-74.0034 1278.3032,-75.5677 1287.4704,-80.8794 1288.7819,-74.0034"/>
</g>
<!-- Node33&#45;&gt;Node20 -->
<g id="edge59" class="edge">
<title>Node33&#45;&gt;Node20</title>
<path fill="none" stroke="#191970" d="M1794.6008,-571.2293C1789.1029,-514.8091 1767.038,-319.3463 1722,-280 1662.9508,-228.4132 1448.8852,-253.0499 1371,-244 1357.1589,-242.3917 1341.9414,-240.4519 1328.7157,-238.7104"/>
<polygon fill="#191970" stroke="#191970" points="1328.9742,-235.214 1318.6003,-237.3664 1328.0522,-242.1531 1328.9742,-235.214"/>
</g>
<!-- Node33&#45;&gt;Node31 -->
<g id="edge57" class="edge">
<title>Node33&#45;&gt;Node31</title>
<path fill="none" stroke="#191970" d="M1735.4634,-584.5053C1617.9949,-580.0434 1351.1514,-567.0177 1129,-535 1121.5994,-533.9334 1113.8255,-532.5599 1106.2229,-531.0722"/>
<polygon fill="#191970" stroke="#191970" points="1106.8701,-527.6323 1096.3729,-529.0669 1105.4736,-534.4916 1106.8701,-527.6323"/>
</g>
<!-- Node34&#45;&gt;Node4 -->
<g id="edge65" class="edge">
<title>Node34&#45;&gt;Node4</title>
<path fill="none" stroke="#191970" d="M407.8971,-786.0817C409.7877,-795.8263 410.2315,-811.214 409.2285,-823.6079"/>
<polygon fill="#191970" stroke="#191970" points="405.709,-823.5349 407.9006,-833.9005 412.6514,-824.4306 405.709,-823.5349"/>
</g>
<!-- Node34&#45;&gt;Node5 -->
<g id="edge70" class="edge">
<title>Node34&#45;&gt;Node5</title>
<path fill="none" stroke="#191970" d="M327.863,-770.4846C231.4446,-761.9907 74.4489,-745.2383 57,-725 -26.1111,-628.6027 113.6819,-470.7858 164.5814,-419.0263"/>
<polygon fill="#191970" stroke="#191970" points="167.3515,-421.2054 171.9394,-411.6554 162.3974,-416.2599 167.3515,-421.2054"/>
</g>
<!-- Node34&#45;&gt;Node24 -->
<g id="edge71" class="edge">
<title>Node34&#45;&gt;Node24</title>
<path fill="none" stroke="#191970" d="M393.0487,-766.7751C383.6671,-757.0484 369.9012,-741.2364 362,-725 353.9917,-708.5436 349.6206,-688.0817 347.3249,-673.2692"/>
<polygon fill="#191970" stroke="#191970" points="350.7711,-672.6365 345.9481,-663.203 343.8356,-673.5851 350.7711,-672.6365"/>
</g>
<!-- Node34&#45;&gt;Node35 -->
<g id="edge66" class="edge">
<title>Node34&#45;&gt;Node35</title>
<path fill="none" stroke="#191970" d="M460.7657,-766.9783C519.2752,-757.2523 612.6463,-741.5081 703.0177,-725.1525"/>
<polygon fill="#191970" stroke="#191970" points="703.6681,-728.5917 712.8825,-723.3625 702.4183,-721.7042 703.6681,-728.5917"/>
</g>
<!-- Node34&#45;&gt;Node36 -->
<g id="edge68" class="edge">
<title>Node34&#45;&gt;Node36</title>
<path fill="none" stroke="#191970" d="M478.0953,-767.5472C557.2351,-757.9767 685.7972,-742.0467 806.8074,-725.1396"/>
<polygon fill="#191970" stroke="#191970" points="807.5767,-728.566 816.9939,-723.7115 806.6048,-721.6338 807.5767,-728.566"/>
</g>
<!-- Node35&#45;&gt;Node28 -->
<g id="edge67" class="edge">
<title>Node35&#45;&gt;Node28</title>
<path fill="none" stroke="#191970" d="M799.1191,-706.6466C802.1235,-706.0834 805.1063,-705.5298 808,-705 899.854,-688.182 924.2796,-691.1315 1015,-669 1018.684,-668.1013 1022.4953,-667.0738 1026.2901,-665.985"/>
<polygon fill="#191970" stroke="#191970" points="1027.6289,-669.2373 1036.1977,-663.0062 1025.6134,-662.5337 1027.6289,-669.2373"/>
</g>
<!-- Node36&#45;&gt;Node28 -->
<g id="edge69" class="edge">
<title>Node36&#45;&gt;Node28</title>
<path fill="none" stroke="#191970" d="M902.8438,-705.3906C935.6425,-694.8298 988.4672,-677.8208 1024.6364,-666.1747"/>
<polygon fill="#191970" stroke="#191970" points="1025.9198,-669.4385 1034.3658,-663.0419 1023.7743,-662.7753 1025.9198,-669.4385"/>
</g>
<!-- Node37&#45;&gt;Node3 -->
<g id="edge89" class="edge">
<title>Node37&#45;&gt;Node3</title>
<path fill="none" stroke="#191970" d="M786.2366,-951.3511C763.9669,-940.8435 737.4834,-928.3478 717.6288,-918.9798"/>
<polygon fill="#191970" stroke="#191970" points="718.9995,-915.7565 708.4621,-914.6546 716.0124,-922.0872 718.9995,-915.7565"/>
</g>
<!-- Node37&#45;&gt;Node28 -->
<g id="edge90" class="edge">
<title>Node37&#45;&gt;Node28</title>
<path fill="none" stroke="#191970" d="M893.3214,-951.3776C939.8523,-931.7881 995,-897.236 995,-843.5 995,-843.5 995,-843.5 995,-776.5 995,-743.5024 998.7005,-733.6909 1015,-705 1022.504,-691.7913 1034.1205,-679.3781 1044.1597,-670.0492"/>
<polygon fill="#191970" stroke="#191970" points="1046.6269,-672.5387 1051.7642,-663.2727 1041.9698,-667.3127 1046.6269,-672.5387"/>
</g>
<!-- Node38 -->
<g id="node38" class="node">
<title>Node38</title>
<g id="a_node38"><a xlink:href="../../d1/d40/BitArray_8hpp.html" target="_top" xlink:title=" ">
<polygon fill="#ffffff" stroke="#000000" points="589,-510 589,-529 727,-529 727,-510 589,-510"/>
<text text-anchor="middle" x="658" y="-517" font-family="Helvetica,sans-Serif" font-size="10.00" fill="#000000">AH/Containers/BitArray.hpp</text>
</a>
</g>
</g>
<!-- Node37&#45;&gt;Node38 -->
<g id="edge75" class="edge">
<title>Node37&#45;&gt;Node38</title>
<path fill="none" stroke="#191970" d="M759.8131,-953.242C756.8372,-952.4785 753.8899,-951.7284 751,-951 579.987,-907.8983 516.1401,-949.8839 365,-859 282.8628,-809.6091 279.0408,-763.4916 263,-669 260.6941,-655.4166 256.5128,-650.155 263,-638 275.5945,-614.4016 338.1748,-580.9607 363,-571 432.6725,-543.045 517.6021,-530.2412 578.411,-524.3904"/>
<polygon fill="#191970" stroke="#191970" points="579.0773,-527.844 588.7148,-523.4433 578.4364,-520.8734 579.0773,-527.844"/>
</g>
<!-- Node39 -->
<g id="node39" class="node">
<title>Node39</title>
<g id="a_node39"><a xlink:href="../../d4/db3/Button_8hpp.html" target="_top" xlink:title=" ">
<polygon fill="#ffffff" stroke="#000000" points="66,-705.5 66,-724.5 192,-724.5 192,-705.5 66,-705.5"/>
<text text-anchor="middle" x="129" y="-712.5" font-family="Helvetica,sans-Serif" font-size="10.00" fill="#000000">AH/Hardware/Button.hpp</text>
</a>
</g>
</g>
<!-- Node37&#45;&gt;Node39 -->
<g id="edge80" class="edge">
<title>Node37&#45;&gt;Node39</title>
<path fill="none" stroke="#191970" d="M759.9416,-952.6243C756.9305,-952.0299 753.9407,-951.484 751,-951 691.5558,-941.2159 258.8128,-950.308 210,-915 150.0709,-871.6512 134.4015,-776.2048 130.3686,-734.8047"/>
<polygon fill="#191970" stroke="#191970" points="133.8403,-734.3198 129.5126,-724.6491 126.865,-734.9078 133.8403,-734.3198"/>
</g>
<!-- Node41 -->
<g id="node41" class="node">
<title>Node41</title>
<g id="a_node41"><a xlink:title=" ">
<polygon fill="#ffffff" stroke="#bfbfbf" points="767.5,-895.5 767.5,-914.5 862.5,-914.5 862.5,-895.5 767.5,-895.5"/>
<text text-anchor="middle" x="815" y="-902.5" font-family="Helvetica,sans-Serif" font-size="10.00" fill="#000000">AH/STL/algorithm</text>
</a>
</g>
</g>
<!-- Node37&#45;&gt;Node41 -->
<g id="edge88" class="edge">
<title>Node37&#45;&gt;Node41</title>
<path fill="none" stroke="#191970" d="M825.3361,-951.168C823.4465,-942.7278 821.2752,-933.0293 819.412,-924.7068"/>
<polygon fill="#191970" stroke="#191970" points="822.7899,-923.7742 817.1897,-914.7805 815.959,-925.3036 822.7899,-923.7742"/>
</g>
<!-- Node42 -->
<g id="node42" class="node">
<title>Node42</title>
<g id="a_node42"><a xlink:href="../../d1/d41/MIDIOutputElement_8hpp.html" target="_top" xlink:title=" ">
<polygon fill="#ffffff" stroke="#000000" points="826.5,-761.5 826.5,-791.5 951.5,-791.5 951.5,-761.5 826.5,-761.5"/>
<text text-anchor="start" x="834.5" y="-779.5" font-family="Helvetica,sans-Serif" font-size="10.00" fill="#000000">MIDI_Outputs/Abstract</text>
<text text-anchor="middle" x="889" y="-768.5" font-family="Helvetica,sans-Serif" font-size="10.00" fill="#000000">/MIDIOutputElement.hpp</text>
</a>
</g>
</g>
<!-- Node37&#45;&gt;Node42 -->
<g id="edge91" class="edge">
<title>Node37&#45;&gt;Node42</title>
<path fill="none" stroke="#191970" d="M849.2161,-951.3913C857.6123,-941.1947 866.7299,-928.2492 872,-915 886.8605,-877.6401 889.5978,-830.5089 889.6851,-801.979"/>
<polygon fill="#191970" stroke="#191970" points="893.1825,-801.6386 889.6019,-791.6672 886.1827,-801.6951 893.1825,-801.6386"/>
</g>
<!-- Node38&#45;&gt;Node6 -->
<g id="edge76" class="edge">
<title>Node38&#45;&gt;Node6</title>
<path fill="none" stroke="#191970" d="M655.08,-509.8555C649.3098,-489.9152 637,-442.6162 637,-402 637,-402 637,-402 637,-346 637,-271.328 635,-252.672 635,-178 635,-178 635,-178 635,-122 635,-91.4754 631.2399,-76.3404 654,-56 682.0644,-30.9191 778.4361,-19.2817 848.2805,-14.0433"/>
<polygon fill="#191970" stroke="#191970" points="848.6589,-17.5252 858.3816,-13.316 848.1561,-10.5433 848.6589,-17.5252"/>
</g>
<!-- Node38&#45;&gt;Node12 -->
<g id="edge78" class="edge">
<title>Node38&#45;&gt;Node12</title>
<path fill="none" stroke="#191970" d="M674.7932,-509.9611C733.0852,-476.5588 931.2413,-360.5649 1080,-244 1137.4244,-199.0032 1161.8627,-194.1918 1200,-132 1208.7547,-117.7233 1213.6222,-99.2456 1216.2326,-85.474"/>
<polygon fill="#191970" stroke="#191970" points="1219.6852,-86.0473 1217.8733,-75.6085 1212.7801,-84.8988 1219.6852,-86.0473"/>
</g>
<!-- Node38&#45;&gt;Node20 -->
<g id="edge79" class="edge">
<title>Node38&#45;&gt;Node20</title>
<path fill="none" stroke="#191970" d="M679.5253,-509.8373C774.0979,-467.3837 1152.9349,-297.324 1263.5382,-247.6743"/>
<polygon fill="#191970" stroke="#191970" points="1265.1148,-250.8031 1272.8044,-243.5147 1262.248,-244.417 1265.1148,-250.8031"/>
</g>
<!-- Node38&#45;&gt;Node23 -->
<g id="edge77" class="edge">
<title>Node38&#45;&gt;Node23</title>
<path fill="none" stroke="#191970" d="M619.2118,-509.9581C575.4216,-499.1857 504.1091,-481.6428 456.6304,-469.9631"/>
<polygon fill="#191970" stroke="#191970" points="457.4258,-466.5545 446.8792,-467.5643 455.7536,-473.3518 457.4258,-466.5545"/>
</g>
<!-- Node39&#45;&gt;Node6 -->
<g id="edge81" class="edge">
<title>Node39&#45;&gt;Node6</title>
<path fill="none" stroke="#191970" d="M121.7514,-705.3323C94.6738,-668.227 1,-530.5717 1,-402 1,-402 1,-402 1,-122 1,-75.2171 39.3181,-72.7491 83,-56 153.2513,-29.0634 653.6261,-15.7255 848.033,-11.5159"/>
<polygon fill="#191970" stroke="#191970" points="848.2476,-15.0122 858.1703,-11.2987 848.0976,-8.0138 848.2476,-15.0122"/>
</g>
<!-- Node39&#45;&gt;Node14 -->
<g id="edge87" class="edge">
<title>Node39&#45;&gt;Node14</title>
<path fill="none" stroke="#191970" d="M135.8969,-705.0913C161.5988,-668.5369 255.2088,-538.6763 350,-448 386.0096,-413.5535 433.5758,-379.9697 461.57,-361.2312"/>
<polygon fill="#191970" stroke="#191970" points="463.5318,-364.13 469.9319,-355.6867 459.6634,-358.296 463.5318,-364.13"/>
</g>
<!-- Node40 -->
<g id="node40" class="node">
<title>Node40</title>
<g id="a_node40"><a xlink:href="../../dd/ddf/ExtendedInputOutput_8hpp.html" target="_top" xlink:title=" ">
<polygon fill="#ffffff" stroke="#000000" points="1827,-638.5 1827,-668.5 1987,-668.5 1987,-638.5 1827,-638.5"/>
<text text-anchor="start" x="1835" y="-656.5" font-family="Helvetica,sans-Serif" font-size="10.00" fill="#000000">AH/Hardware/ExtendedInput</text>
<text text-anchor="middle" x="1907" y="-645.5" font-family="Helvetica,sans-Serif" font-size="10.00" fill="#000000">Output/ExtendedInputOutput.hpp</text>
</a>
</g>
</g>
<!-- Node39&#45;&gt;Node40 -->
<g id="edge82" class="edge">
<title>Node39&#45;&gt;Node40</title>
<path fill="none" stroke="#191970" d="M192.1128,-712.4899C246.2123,-710.3733 326.2268,-707.326 396,-705 943.4851,-686.7488 1080.702,-692.1949 1628,-669 1691.0817,-666.3265 1762.1346,-662.3652 1816.7491,-659.1165"/>
<polygon fill="#191970" stroke="#191970" points="1816.9767,-662.6092 1826.75,-658.5186 1816.5589,-655.6217 1816.9767,-662.6092"/>
</g>
<!-- Node40&#45;&gt;Node6 -->
<g id="edge84" class="edge">
<title>Node40&#45;&gt;Node6</title>
<path fill="none" stroke="#191970" d="M1956.5159,-638.379C2057.3376,-604.1756 2277,-510.7514 2277,-346 2277,-346 2277,-346 2277,-122 2277,-36.7918 2180.5878,-72.5387 2097,-56 1990.2898,-34.8863 1245.1774,-16.9708 1001.7453,-11.6246"/>
<polygon fill="#191970" stroke="#191970" points="1001.6437,-8.1217 991.5695,-11.4021 1001.4906,-15.12 1001.6437,-8.1217"/>
</g>
<!-- Node40&#45;&gt;Node8 -->
<g id="edge85" class="edge">
<title>Node40&#45;&gt;Node8</title>
<path fill="none" stroke="#191970" d="M1826.766,-643.3873C1603.1051,-615.173 988.6624,-537.4895 984,-535 946.141,-514.7853 745.0709,-284.1847 730,-244 723.7269,-227.2735 733.4642,-208.6816 743.3086,-195.5041"/>
<polygon fill="#191970" stroke="#191970" points="746.0542,-197.6752 749.6261,-187.7006 740.6136,-193.2706 746.0542,-197.6752"/>
</g>
<!-- Node40&#45;&gt;Node12 -->
<g id="edge83" class="edge">
<title>Node40&#45;&gt;Node12</title>
<path fill="none" stroke="#191970" d="M1902.5703,-638.3845C1883.4968,-574.3618 1806.4664,-326.6834 1743,-280 1626.9988,-194.6741 1552.6727,-302.3017 1421,-244 1336.3245,-206.5076 1261.7283,-120.4389 1232.3241,-83.4346"/>
<polygon fill="#191970" stroke="#191970" points="1235.0598,-81.2511 1226.1417,-75.5311 1229.5463,-85.564 1235.0598,-81.2511"/>
</g>
<!-- Node40&#45;&gt;Node33 -->
<g id="edge86" class="edge">
<title>Node40&#45;&gt;Node33</title>
<path fill="none" stroke="#191970" d="M1882.0894,-638.4639C1866.7729,-629.2188 1846.9361,-617.2452 1830.1651,-607.1222"/>
<polygon fill="#191970" stroke="#191970" points="1831.5815,-603.889 1821.2115,-601.7177 1827.9641,-609.8819 1831.5815,-603.889"/>
</g>
<!-- Node42&#45;&gt;Node28 -->
<g id="edge100" class="edge">
<title>Node42&#45;&gt;Node28</title>
<path fill="none" stroke="#191970" d="M907.2453,-761.3968C925.5044,-746.5048 954.6005,-723.3729 981,-705 999.9083,-691.8407 1022.1206,-678.1458 1038.8063,-668.1891"/>
<polygon fill="#191970" stroke="#191970" points="1040.6306,-671.1765 1047.4514,-663.0693 1037.0636,-665.1535 1040.6306,-671.1765"/>
</g>
<!-- Node42&#45;&gt;Node36 -->
<g id="edge101" class="edge">
<title>Node42&#45;&gt;Node36</title>
<path fill="none" stroke="#191970" d="M885.0449,-761.2977C882.9628,-753.2945 880.3845,-743.3843 878.1483,-734.7889"/>
<polygon fill="#191970" stroke="#191970" points="881.4669,-733.6435 875.5618,-724.8469 874.6924,-735.406 881.4669,-733.6435"/>
</g>
<!-- Node43 -->
<g id="node43" class="node">
<title>Node43</title>
<g id="a_node43"><a xlink:href="../../d4/d93/Updatable_8hpp.html" target="_top" xlink:title=" ">
<polygon fill="#ffffff" stroke="#000000" points="404.5,-705.5 404.5,-724.5 551.5,-724.5 551.5,-705.5 404.5,-705.5"/>
<text text-anchor="middle" x="478" y="-712.5" font-family="Helvetica,sans-Serif" font-size="10.00" fill="#000000">AH/Containers/Updatable.hpp</text>
</a>
</g>
</g>
<!-- Node42&#45;&gt;Node43 -->
<g id="edge92" class="edge">
<title>Node42&#45;&gt;Node43</title>
<path fill="none" stroke="#191970" d="M826.1089,-764.8827C818.3338,-763.5297 810.4893,-762.2045 803,-761 721.022,-747.8157 627.0796,-734.738 561.3483,-725.9165"/>
<polygon fill="#191970" stroke="#191970" points="561.4232,-722.3954 551.0473,-724.5378 560.4946,-729.3335 561.4232,-722.3954"/>
</g>
<!-- Node43&#45;&gt;Node6 -->
<g id="edge93" class="edge">
<title>Node43&#45;&gt;Node6</title>
<path fill="none" stroke="#191970" d="M404.0929,-707.8106C361.2938,-701.5731 307.2961,-690.0654 263,-669 167.2195,-623.4508 77,-625.5596 77,-519.5 77,-519.5 77,-519.5 77,-346 77,-194.0669 121.1166,-121.9287 258,-56 310.048,-30.9316 684.5193,-17.0338 848.4639,-12.093"/>
<polygon fill="#191970" stroke="#191970" points="848.5886,-15.5909 858.4798,-11.7944 848.3799,-8.5941 848.5886,-15.5909"/>
</g>
<!-- Node43&#45;&gt;Node14 -->
<g id="edge98" class="edge">
<title>Node43&#45;&gt;Node14</title>
<path fill="none" stroke="#191970" d="M478.8866,-705.3379C480.7702,-683.9468 485,-630.9608 485,-586.5 485,-586.5 485,-586.5 485,-458 485,-425.7116 485,-388.1872 485,-365.8048"/>
<polygon fill="#191970" stroke="#191970" points="488.5001,-365.5883 485,-355.5884 481.5001,-365.5884 488.5001,-365.5883"/>
</g>
<!-- Node43&#45;&gt;Node19 -->
<g id="edge99" class="edge">
<title>Node43&#45;&gt;Node19</title>
<path fill="none" stroke="#191970" d="M548.6353,-705.4397C591.6628,-698.0052 640.8258,-686.06 654,-669 703.1226,-605.3885 540.4983,-573.9934 580,-504 674.6678,-336.2572 781.8876,-372.1989 951,-280 972.0554,-268.5208 996.3874,-256.6502 1015.02,-247.8436"/>
<polygon fill="#191970" stroke="#191970" points="1016.6316,-250.9535 1024.1965,-243.5358 1013.657,-244.617 1016.6316,-250.9535"/>
</g>
<!-- Node43&#45;&gt;Node23 -->
<g id="edge96" class="edge">
<title>Node43&#45;&gt;Node23</title>
<path fill="none" stroke="#191970" d="M475.3414,-705.2391C465.0112,-667.3126 427.418,-529.2919 413.3564,-477.6658"/>
<polygon fill="#191970" stroke="#191970" points="416.6663,-476.4993 410.6613,-467.7706 409.9123,-478.339 416.6663,-476.4993"/>
</g>
<!-- Node43&#45;&gt;Node24 -->
<g id="edge95" class="edge">
<title>Node43&#45;&gt;Node24</title>
<path fill="none" stroke="#191970" d="M457.2188,-705.3906C435.1606,-695.1908 400.095,-678.9763 375.0331,-667.3875"/>
<polygon fill="#191970" stroke="#191970" points="376.1809,-664.0622 365.6353,-663.0419 373.2429,-670.4158 376.1809,-664.0622"/>
</g>
<!-- Node44 -->
<g id="node44" class="node">
<title>Node44</title>
<g id="a_node44"><a xlink:href="../../d8/db4/AH_2Containers_2CRTP_8hpp.html" target="_top" xlink:title=" ">
<polygon fill="#ffffff" stroke="#000000" points="513.5,-644 513.5,-663 644.5,-663 644.5,-644 513.5,-644"/>
<text text-anchor="middle" x="579" y="-651" font-family="Helvetica,sans-Serif" font-size="10.00" fill="#000000">AH/Containers/CRTP.hpp</text>
</a>
</g>
</g>
<!-- Node43&#45;&gt;Node44 -->
<g id="edge94" class="edge">
<title>Node43&#45;&gt;Node44</title>
<path fill="none" stroke="#191970" d="M493.7813,-705.3906C510.0875,-695.4616 535.754,-679.833 554.6614,-668.3201"/>
<polygon fill="#191970" stroke="#191970" points="556.6087,-671.2322 563.3296,-663.0419 552.9681,-665.2533 556.6087,-671.2322"/>
</g>
<!-- Node45 -->
<g id="node45" class="node">
<title>Node45</title>
<g id="a_node45"><a xlink:title=" ">
<polygon fill="#ffffff" stroke="#bfbfbf" points="859,-510 859,-529 937,-529 937,-510 859,-510"/>
<text text-anchor="middle" x="898" y="-517" font-family="Helvetica,sans-Serif" font-size="10.00" fill="#000000">AH/STL/utility</text>
</a>
</g>
</g>
<!-- Node43&#45;&gt;Node45 -->
<g id="edge97" class="edge">
<title>Node43&#45;&gt;Node45</title>
<path fill="none" stroke="#191970" d="M534.764,-705.4432C587.0636,-696.1097 660.4543,-681.5223 687,-669 750.8467,-638.8818 753.8256,-610.9905 812,-571 831.3607,-557.691 854.2178,-544.0971 871.4996,-534.2199"/>
<polygon fill="#191970" stroke="#191970" points="873.4925,-537.1137 880.4694,-529.1404 870.0431,-531.0225 873.4925,-537.1137"/>
</g>
<!-- Node47 -->
<g id="node47" class="node">
<title>Node47</title>
<g id="a_node47"><a xlink:href="../../d5/dee/IncreaseBitDepth_8hpp.html" target="_top" xlink:title=" ">
<polygon fill="#ffffff" stroke="#000000" points="1559.5,-280.5 1559.5,-299.5 1712.5,-299.5 1712.5,-280.5 1559.5,-280.5"/>
<text text-anchor="middle" x="1636" y="-287.5" font-family="Helvetica,sans-Serif" font-size="10.00" fill="#000000">AH/Math/IncreaseBitDepth.hpp</text>
</a>
</g>
</g>
<!-- Node46&#45;&gt;Node47 -->
<g id="edge103" class="edge">
<title>Node46&#45;&gt;Node47</title>
<path fill="none" stroke="#191970" d="M1362.7384,-895.4599C1482.7966,-879.8014 1685,-843.4861 1685,-776.5 1685,-776.5 1685,-776.5 1685,-715 1685,-557.654 1651.4448,-369.6841 1639.87,-309.5249"/>
<polygon fill="#191970" stroke="#191970" points="1643.2701,-308.6736 1637.9209,-299.5283 1636.3994,-310.0134 1643.2701,-308.6736"/>
</g>
<!-- Node48 -->
<g id="node48" class="node">
<title>Node48</title>
<g id="a_node48"><a xlink:href="../../d3/d37/Control__Surface__Class_8hpp.html" target="_top" xlink:title=" ">
<polygon fill="#ffffff" stroke="#000000" points="1215,-828.5 1215,-858.5 1337,-858.5 1337,-828.5 1215,-828.5"/>
<text text-anchor="start" x="1223" y="-846.5" font-family="Helvetica,sans-Serif" font-size="10.00" fill="#000000">Control_Surface/Control</text>
<text text-anchor="middle" x="1276" y="-835.5" font-family="Helvetica,sans-Serif" font-size="10.00" fill="#000000">_Surface_Class.hpp</text>
</a>
</g>
</g>
<!-- Node46&#45;&gt;Node48 -->
<g id="edge108" class="edge">
<title>Node46&#45;&gt;Node48</title>
<path fill="none" stroke="#191970" d="M1276,-895.3906C1276,-888.2234 1276,-878.0862 1276,-868.671"/>
<polygon fill="#191970" stroke="#191970" points="1279.5001,-868.5446 1276,-858.5446 1272.5001,-868.5446 1279.5001,-868.5446"/>
</g>
<!-- Node47&#45;&gt;Node6 -->
<g id="edge104" class="edge">
<title>Node47&#45;&gt;Node6</title>
<path fill="none" stroke="#191970" d="M1636.7164,-280.4181C1638.0989,-261.0718 1641,-215.9544 1641,-178 1641,-178 1641,-178 1641,-122 1641,-64.2222 1584.124,-73.3094 1529,-56 1432.8281,-25.8012 1141.9922,-15.0355 1001.9653,-11.5327"/>
<polygon fill="#191970" stroke="#191970" points="1001.824,-8.0283 991.7415,-11.2832 1001.6531,-15.0262 1001.824,-8.0283"/>
</g>
<!-- Node47&#45;&gt;Node13 -->
<g id="edge105" class="edge">
<title>Node47&#45;&gt;Node13</title>
<path fill="none" stroke="#191970" d="M1566.7575,-280.4909C1500.7352,-270.9713 1406.2985,-256.0468 1371,-244 1349.6979,-236.7299 1222.5271,-167.3734 1166.4893,-136.5921"/>
<polygon fill="#191970" stroke="#191970" points="1167.9614,-133.4074 1157.5122,-131.6567 1164.589,-139.5415 1167.9614,-133.4074"/>
</g>
<!-- Node47&#45;&gt;Node18 -->
<g id="edge106" class="edge">
<title>Node47&#45;&gt;Node18</title>
<path fill="none" stroke="#191970" d="M1559.4658,-280.974C1483.6491,-271.9472 1364.2485,-257.5017 1261,-244 1248.7085,-242.3926 1235.2493,-240.5465 1223.3281,-238.8815"/>
<polygon fill="#191970" stroke="#191970" points="1223.7054,-235.4002 1213.3158,-237.4755 1222.7319,-242.3322 1223.7054,-235.4002"/>
</g>
<!-- Node47&#45;&gt;Node19 -->
<g id="edge107" class="edge">
<title>Node47&#45;&gt;Node19</title>
<path fill="none" stroke="#191970" d="M1559.343,-282.7364C1430.6287,-270.5401 1175.885,-246.402 1081.3909,-237.4482"/>
<polygon fill="#191970" stroke="#191970" points="1081.4817,-233.9412 1071.1961,-236.4822 1080.8213,-240.91 1081.4817,-233.9412"/>
</g>
<!-- Node48&#45;&gt;Node43 -->
<g id="edge109" class="edge">
<title>Node48&#45;&gt;Node43</title>
<path fill="none" stroke="#191970" d="M1214.9507,-838.8001C1126.8756,-831.5299 959.226,-815.8565 818,-792 711.7875,-774.0581 588.9224,-743.8463 523.8965,-727.0974"/>
<polygon fill="#191970" stroke="#191970" points="524.5261,-723.6451 513.9682,-724.5288 522.7728,-730.422 524.5261,-723.6451"/>
</g>
<!-- Node49 -->
<g id="node49" class="node">
<title>Node49</title>
<g id="a_node49"><a xlink:href="../../d8/df3/FilteredAnalog_8hpp.html" target="_top" xlink:title=" ">
<polygon fill="#ffffff" stroke="#000000" points="1719,-705.5 1719,-724.5 1879,-724.5 1879,-705.5 1719,-705.5"/>
<text text-anchor="middle" x="1799" y="-712.5" font-family="Helvetica,sans-Serif" font-size="10.00" fill="#000000">AH/Hardware/FilteredAnalog.hpp</text>
</a>
</g>
</g>
<!-- Node48&#45;&gt;Node49 -->
<g id="edge110" class="edge">
<title>Node48&#45;&gt;Node49</title>
<path fill="none" stroke="#191970" d="M1337.2654,-838.7216C1398.722,-832.6005 1495.4129,-819.3237 1575,-792 1602.6449,-782.509 1605.8627,-771.8575 1633,-761 1669.2342,-746.5029 1711.6634,-734.8324 1744.5558,-726.874"/>
<polygon fill="#191970" stroke="#191970" points="1745.5208,-730.2422 1754.4402,-724.5243 1743.9018,-723.432 1745.5208,-730.2422"/>
</g>
<!-- Node52 -->
<g id="node52" class="node">
<title>Node52</title>
<g id="a_node52"><a xlink:href="../../d1/dd0/MillisMicrosTimer_8hpp.html" target="_top" xlink:title=" ">
<polygon fill="#ffffff" stroke="#000000" points="1451.5,-224.5 1451.5,-243.5 1612.5,-243.5 1612.5,-224.5 1451.5,-224.5"/>
<text text-anchor="middle" x="1532" y="-231.5" font-family="Helvetica,sans-Serif" font-size="10.00" fill="#000000">AH/Timing/MillisMicrosTimer.hpp</text>
</a>
</g>
</g>
<!-- Node48&#45;&gt;Node52 -->
<g id="edge123" class="edge">
<title>Node48&#45;&gt;Node52</title>
<path fill="none" stroke="#191970" d="M1337.1513,-836.0504C1405.8081,-827.2789 1520.3887,-811.416 1618,-792 1925.366,-730.8615 2239,-771.3875 2239,-458 2239,-458 2239,-458 2239,-346 2239,-315.4754 2243.7614,-299.1611 2220,-280 2197.1212,-261.5506 1804.36,-244.3334 1622.7562,-237.3179"/>
<polygon fill="#191970" stroke="#191970" points="1622.8136,-233.8176 1612.6866,-236.931 1622.5448,-240.8124 1622.8136,-233.8176"/>
</g>
<!-- Node53 -->
<g id="node53" class="node">
<title>Node53</title>
<g id="a_node53"><a xlink:href="../../d6/dd2/DisplayElement_8hpp.html" target="_top" xlink:title=" ">
<polygon fill="#ffffff" stroke="#000000" points="1024,-767 1024,-786 1164,-786 1164,-767 1024,-767"/>
<text text-anchor="middle" x="1094" y="-774" font-family="Helvetica,sans-Serif" font-size="10.00" fill="#000000">Display/DisplayElement.hpp</text>
</a>
</g>
</g>
<!-- Node48&#45;&gt;Node53 -->
<g id="edge127" class="edge">
<title>Node48&#45;&gt;Node53</title>
<path fill="none" stroke="#191970" d="M1235.1556,-828.4639C1203.4238,-816.7824 1159.8593,-800.7449 1129.5534,-789.5884"/>
<polygon fill="#191970" stroke="#191970" points="1130.4138,-786.1755 1119.8203,-786.0053 1127.9955,-792.7445 1130.4138,-786.1755"/>
</g>
<!-- Node54 -->
<g id="node54" class="node">
<title>Node54</title>
<g id="a_node54"><a xlink:href="../../dc/d77/DisplayInterface_8hpp.html" target="_top" xlink:title=" ">
<polygon fill="#ffffff" stroke="#000000" points="1023.5,-705.5 1023.5,-724.5 1166.5,-724.5 1166.5,-705.5 1023.5,-705.5"/>
<text text-anchor="middle" x="1095" y="-712.5" font-family="Helvetica,sans-Serif" font-size="10.00" fill="#000000">Display/DisplayInterface.hpp</text>
</a>
</g>
</g>
<!-- Node48&#45;&gt;Node54 -->
<g id="edge133" class="edge">
<title>Node48&#45;&gt;Node54</title>
<path fill="none" stroke="#191970" d="M1256.887,-828.473C1243.907,-818.2393 1226.3723,-804.3591 1211,-792 1194.0133,-778.343 1190.8828,-773.4606 1173,-761 1156.657,-749.6123 1137.3845,-738.2288 1122.0858,-729.6348"/>
<polygon fill="#191970" stroke="#191970" points="1123.5778,-726.46 1113.1354,-724.6693 1120.1818,-732.5812 1123.5778,-726.46"/>
</g>
<!-- Node56 -->
<g id="node56" class="node">
<title>Node56</title>
<g id="a_node56"><a xlink:href="../../d6/d04/MIDI__Interface_8hpp.html" target="_top" xlink:title=" ">
<polygon fill="#ffffff" stroke="#000000" points="1220,-761.5 1220,-791.5 1332,-791.5 1332,-761.5 1220,-761.5"/>
<text text-anchor="start" x="1228" y="-779.5" font-family="Helvetica,sans-Serif" font-size="10.00" fill="#000000">MIDI_Interfaces/MIDI</text>
<text text-anchor="middle" x="1276" y="-768.5" font-family="Helvetica,sans-Serif" font-size="10.00" fill="#000000">_Interface.hpp</text>
</a>
</g>
</g>
<!-- Node48&#45;&gt;Node56 -->
<g id="edge134" class="edge">
<title>Node48&#45;&gt;Node56</title>
<path fill="none" stroke="#191970" d="M1276,-828.2967C1276,-820.5013 1276,-810.7991 1276,-801.9064"/>
<polygon fill="#191970" stroke="#191970" points="1279.5001,-801.6431 1276,-791.6432 1272.5001,-801.6432 1279.5001,-801.6431"/>
</g>
<!-- Node60 -->
<g id="node60" class="node">
<title>Node60</title>
<g id="a_node60"><a xlink:title=" ">
<polygon fill="#ffffff" stroke="#bfbfbf" points="1471.5,-644 1471.5,-663 1618.5,-663 1618.5,-644 1471.5,-644"/>
<text text-anchor="middle" x="1545" y="-651" font-family="Helvetica,sans-Serif" font-size="10.00" fill="#000000">Settings/SettingsWrapper.hpp</text>
</a>
</g>
</g>
<!-- Node48&#45;&gt;Node60 -->
<g id="edge158" class="edge">
<title>Node48&#45;&gt;Node60</title>
<path fill="none" stroke="#191970" d="M1337.1826,-834.9889C1400.2193,-822.654 1495.6158,-793.2649 1542,-725 1552.2261,-709.95 1551.7337,-688.7193 1549.4397,-673.3051"/>
<polygon fill="#191970" stroke="#191970" points="1552.8453,-672.4738 1547.5785,-663.2808 1545.9629,-673.7517 1552.8453,-672.4738"/>
</g>
<!-- Node49&#45;&gt;Node6 -->
<g id="edge111" class="edge">
<title>Node49&#45;&gt;Node6</title>
<path fill="none" stroke="#191970" d="M1879.0588,-711.5723C2023.9936,-703.1673 2315,-675.242 2315,-586.5 2315,-586.5 2315,-586.5 2315,-122 2315,-59.1759 2250.6952,-72.2159 2190,-56 2075.7387,-25.4729 1259.1762,-13.7594 1002.2115,-10.8046"/>
<polygon fill="#191970" stroke="#191970" points="1001.8909,-7.3008 991.8517,-10.6868 1001.8113,-14.3004 1001.8909,-7.3008"/>
</g>
<!-- Node49&#45;&gt;Node9 -->
<g id="edge121" class="edge">
<title>Node49&#45;&gt;Node9</title>
<path fill="none" stroke="#191970" d="M1785.7101,-705.2582C1759.5462,-686.2868 1701.9148,-645.5756 1679,-638 1455.6761,-564.1699 1383.7922,-635.6484 1151,-602 1117.0894,-597.0985 876.5888,-556.6099 850,-535 718.6404,-428.2382 728.6913,-353.4677 693,-188 691.1258,-179.3109 689.1665,-176.0198 693,-168 699.1448,-155.1449 710.8299,-144.7306 722.0285,-137.0832"/>
<polygon fill="#191970" stroke="#191970" points="724.2041,-139.8488 730.79,-131.5495 720.4661,-133.9304 724.2041,-139.8488"/>
</g>
<!-- Node49&#45;&gt;Node14 -->
<g id="edge122" class="edge">
<title>Node49&#45;&gt;Node14</title>
<path fill="none" stroke="#191970" d="M1780.0395,-705.4099C1742.33,-686.5134 1658.8972,-645.6323 1628,-638 1374.2483,-575.3176 1300.3528,-634.4825 1041,-602 967.8287,-592.8357 950.8693,-582.3175 878,-571 812.0865,-560.7628 634.5729,-573.356 580,-535 549.7448,-513.7355 508.2982,-408.9577 491.9934,-365.2265"/>
<polygon fill="#191970" stroke="#191970" points="495.2372,-363.9067 488.4934,-355.7353 488.6695,-366.3287 495.2372,-363.9067"/>
</g>
<!-- Node49&#45;&gt;Node33 -->
<g id="edge119" class="edge">
<title>Node49&#45;&gt;Node33</title>
<path fill="none" stroke="#191970" d="M1798.7745,-705.3416C1798.3154,-685.6745 1797.2589,-640.4221 1796.5902,-611.7784"/>
<polygon fill="#191970" stroke="#191970" points="1800.0874,-611.6172 1796.3549,-601.7016 1793.0894,-611.7806 1800.0874,-611.6172"/>
</g>
<!-- Node49&#45;&gt;Node40 -->
<g id="edge118" class="edge">
<title>Node49&#45;&gt;Node40</title>
<path fill="none" stroke="#191970" d="M1815.875,-705.3906C1830.7622,-696.9132 1852.9457,-684.2809 1871.6975,-673.6028"/>
<polygon fill="#191970" stroke="#191970" points="1873.6223,-676.5345 1880.5802,-668.5446 1870.1584,-670.4516 1873.6223,-676.5345"/>
</g>
<!-- Node49&#45;&gt;Node47 -->
<g id="edge120" class="edge">
<title>Node49&#45;&gt;Node47</title>
<path fill="none" stroke="#191970" d="M1791.0366,-705.434C1775.9736,-686.8046 1743.3569,-643.8098 1727,-602 1683.2322,-490.1252 1732.8823,-443.37 1679,-336 1673.3689,-324.779 1664.1364,-314.3682 1655.6669,-306.2989"/>
<polygon fill="#191970" stroke="#191970" points="1657.9988,-303.6887 1648.2287,-299.5905 1653.3106,-308.887 1657.9988,-303.6887"/>
</g>
<!-- Node50 -->
<g id="node50" class="node">
<title>Node50</title>
<g id="a_node50"><a xlink:href="../../d3/df0/EMA_8hpp.html" target="_top" xlink:title=" ">
<polygon fill="#ffffff" stroke="#000000" points="1921,-280.5 1921,-299.5 2025,-299.5 2025,-280.5 1921,-280.5"/>
<text text-anchor="middle" x="1973" y="-287.5" font-family="Helvetica,sans-Serif" font-size="10.00" fill="#000000">AH/Filters/EMA.hpp</text>
</a>
</g>
</g>
<!-- Node49&#45;&gt;Node50 -->
<g id="edge112" class="edge">
<title>Node49&#45;&gt;Node50</title>
<path fill="none" stroke="#191970" d="M1876.1176,-705.4662C1923.7892,-698.0136 1979.0142,-686.0375 1996,-669 2022.5655,-642.3537 2015,-624.1265 2015,-586.5 2015,-586.5 2015,-586.5 2015,-402 2015,-367.2434 1997.0481,-330.0613 1984.6174,-308.4811"/>
<polygon fill="#191970" stroke="#191970" points="1987.5177,-306.5116 1979.3789,-299.7285 1981.5113,-310.1065 1987.5177,-306.5116"/>
</g>
<!-- Node51 -->
<g id="node51" class="node">
<title>Node51</title>
<g id="a_node51"><a xlink:href="../../d3/d09/Hysteresis_8hpp.html" target="_top" xlink:title=" ">
<polygon fill="#ffffff" stroke="#000000" points="2081,-280.5 2081,-299.5 2211,-299.5 2211,-280.5 2081,-280.5"/>
<text text-anchor="middle" x="2146" y="-287.5" font-family="Helvetica,sans-Serif" font-size="10.00" fill="#000000">AH/Filters/Hysteresis.hpp</text>
</a>
</g>
</g>
<!-- Node49&#45;&gt;Node51 -->
<g id="edge115" class="edge">
<title>Node49&#45;&gt;Node51</title>
<path fill="none" stroke="#191970" d="M1865.34,-705.4794C1970.33,-688.5249 2163,-648.9092 2163,-586.5 2163,-586.5 2163,-586.5 2163,-402 2163,-369.192 2155.7815,-331.584 2150.752,-309.3624"/>
<polygon fill="#191970" stroke="#191970" points="2154.1324,-308.4474 2148.4357,-299.5144 2147.3184,-310.0502 2154.1324,-308.4474"/>
</g>
<!-- Node50&#45;&gt;Node6 -->
<g id="edge113" class="edge">
<title>Node50&#45;&gt;Node6</title>
<path fill="none" stroke="#191970" d="M1969.9014,-280.2275C1964.0599,-260.9094 1952,-216.3796 1952,-178 1952,-178 1952,-178 1952,-122 1952,-86.4973 1937.9919,-73.319 1907,-56 1867.7032,-34.04 1226.0344,-17.0293 1001.6964,-11.7283"/>
<polygon fill="#191970" stroke="#191970" points="1001.7316,-8.2282 991.6521,-11.4922 1001.567,-15.2263 1001.7316,-8.2282"/>
</g>
<!-- Node50&#45;&gt;Node20 -->
<g id="edge114" class="edge">
<title>Node50&#45;&gt;Node20</title>
<path fill="none" stroke="#191970" d="M1920.8475,-285.6988C1788.0287,-274.7446 1439.6841,-246.0152 1328.5798,-236.8519"/>
<polygon fill="#191970" stroke="#191970" points="1328.8375,-233.3614 1318.5836,-236.0275 1328.2621,-240.3377 1328.8375,-233.3614"/>
</g>
<!-- Node51&#45;&gt;Node6 -->
<g id="edge116" class="edge">
<title>Node51&#45;&gt;Node6</title>
<path fill="none" stroke="#191970" d="M2142.0161,-280.3019C2134.5056,-261.1145 2119,-216.8029 2119,-178 2119,-178 2119,-178 2119,-122 2119,-84.6561 2100.2629,-72.9749 2067,-56 2019.6329,-31.8273 1250.5779,-15.8788 1001.9041,-11.3342"/>
<polygon fill="#191970" stroke="#191970" points="1001.9285,-7.8342 991.8665,-11.1518 1001.8012,-14.833 1001.9285,-7.8342"/>
</g>
<!-- Node51&#45;&gt;Node20 -->
<g id="edge117" class="edge">
<title>Node51&#45;&gt;Node20</title>
<path fill="none" stroke="#191970" d="M2080.8794,-283.8729C2065.5131,-282.5138 2049.1843,-281.1401 2034,-280 1771.5851,-260.2967 1705.616,-260.8109 1443,-244 1403.7701,-241.4888 1358.7421,-238.4443 1328.5457,-236.3792"/>
<polygon fill="#191970" stroke="#191970" points="1328.7331,-232.8839 1318.5172,-235.692 1328.2545,-239.8675 1328.7331,-232.8839"/>
</g>
<!-- Node52&#45;&gt;Node6 -->
<g id="edge124" class="edge">
<title>Node52&#45;&gt;Node6</title>
<path fill="none" stroke="#191970" d="M1534.2796,-224.4848C1540.822,-194.5603 1556.2451,-101.649 1508,-56 1471.9987,-21.9359 1151.737,-13.0744 1001.7979,-10.7869"/>
<polygon fill="#191970" stroke="#191970" points="1001.788,-7.2865 991.7378,-10.6395 1001.6853,-14.2858 1001.788,-7.2865"/>
</g>
<!-- Node52&#45;&gt;Node8 -->
<g id="edge125" class="edge">
<title>Node52&#45;&gt;Node8</title>
<path fill="none" stroke="#191970" d="M1451.463,-228.1655C1298.6776,-217.097 969.3222,-193.2368 826.904,-182.9193"/>
<polygon fill="#191970" stroke="#191970" points="826.7956,-179.4024 816.5688,-182.1706 826.2898,-186.3841 826.7956,-179.4024"/>
</g>
<!-- Node52&#45;&gt;Node12 -->
<g id="edge126" class="edge">
<title>Node52&#45;&gt;Node12</title>
<path fill="none" stroke="#191970" d="M1527.0164,-224.2047C1514.5236,-200.7149 1479.4413,-140.9845 1432,-112 1409.3008,-98.1318 1347.2672,-85.6192 1295.9628,-77.1577"/>
<polygon fill="#191970" stroke="#191970" points="1296.291,-73.6653 1285.8598,-75.5202 1295.171,-80.5751 1296.291,-73.6653"/>
</g>
<!-- Node53&#45;&gt;Node24 -->
<g id="edge132" class="edge">
<title>Node53&#45;&gt;Node24</title>
<path fill="none" stroke="#191970" d="M1023.6665,-767.6063C1003.4573,-765.2401 981.3745,-762.8351 961,-761 898.3485,-755.3572 450.9791,-755.5671 396,-725 375.2527,-713.465 360.8781,-689.5157 352.7984,-672.518"/>
<polygon fill="#191970" stroke="#191970" points="355.8337,-670.7287 348.5805,-663.006 349.4347,-673.5663 355.8337,-670.7287"/>
</g>
<!-- Node53&#45;&gt;Node54 -->
<g id="edge128" class="edge">
<title>Node53&#45;&gt;Node54</title>
<path fill="none" stroke="#191970" d="M1094.1563,-766.8906C1094.2949,-758.3657 1094.5018,-745.6392 1094.676,-734.9235"/>
<polygon fill="#191970" stroke="#191970" points="1098.1784,-734.8005 1094.8415,-724.7449 1091.1793,-734.6866 1098.1784,-734.8005"/>
</g>
<!-- Node54&#45;&gt;Node24 -->
<g id="edge129" class="edge">
<title>Node54&#45;&gt;Node24</title>
<path fill="none" stroke="#191970" d="M1023.2152,-709.8396C912.1045,-701.7536 691.7908,-685.3279 505,-669 480.1983,-666.832 453.2527,-664.2928 428.6692,-661.9043"/>
<polygon fill="#191970" stroke="#191970" points="428.947,-658.4149 418.6543,-660.927 428.267,-665.3818 428.947,-658.4149"/>
</g>
<!-- Node54&#45;&gt;Node28 -->
<g id="edge130" class="edge">
<title>Node54&#45;&gt;Node28</title>
<path fill="none" stroke="#191970" d="M1090.1563,-705.3906C1085.7234,-696.5965 1079.0369,-683.3312 1073.5341,-672.4145"/>
<polygon fill="#191970" stroke="#191970" points="1076.5386,-670.5992 1068.912,-663.2449 1070.2878,-673.75 1076.5386,-670.5992"/>
</g>
<!-- Node55 -->
<g id="node55" class="node">
<title>Node55</title>
<g id="a_node55"><a xlink:title=" ">
<polygon fill="#ffffff" stroke="#bfbfbf" points="1117.5,-644 1117.5,-663 1162.5,-663 1162.5,-644 1117.5,-644"/>
<text text-anchor="middle" x="1140" y="-651" font-family="Helvetica,sans-Serif" font-size="10.00" fill="#000000">Print.h</text>
</a>
</g>
</g>
<!-- Node54&#45;&gt;Node55 -->
<g id="edge131" class="edge">
<title>Node54&#45;&gt;Node55</title>
<path fill="none" stroke="#191970" d="M1102.0313,-705.3906C1108.663,-696.3273 1118.7696,-682.5149 1126.8887,-671.4188"/>
<polygon fill="#191970" stroke="#191970" points="1129.7891,-673.382 1132.8696,-663.2449 1124.1399,-669.2484 1129.7891,-673.382"/>
</g>
<!-- Node56&#45;&gt;Node28 -->
<g id="edge146" class="edge">
<title>Node56&#45;&gt;Node28</title>
<path fill="none" stroke="#191970" d="M1257.1853,-761.3945C1237.6092,-746.081 1205.7188,-722.2477 1176,-705 1150.6853,-690.3082 1120.4536,-676.6159 1097.7833,-667.0482"/>
<polygon fill="#191970" stroke="#191970" points="1098.8332,-663.6942 1088.2561,-663.0818 1096.1427,-670.1565 1098.8332,-663.6942"/>
</g>
<!-- Node56&#45;&gt;Node36 -->
<g id="edge147" class="edge">
<title>Node56&#45;&gt;Node36</title>
<path fill="none" stroke="#191970" d="M1219.9646,-767.9487C1146.4856,-756.7354 1017.7474,-737.0892 939.4406,-725.1392"/>
<polygon fill="#191970" stroke="#191970" points="939.6213,-721.6263 929.2077,-723.5776 938.5652,-728.5462 939.6213,-721.6263"/>
</g>
<!-- Node56&#45;&gt;Node43 -->
<g id="edge145" class="edge">
<title>Node56&#45;&gt;Node43</title>
<path fill="none" stroke="#191970" d="M1219.9883,-767.1288C1204.7786,-764.8418 1188.2876,-762.5966 1173,-761 905.3118,-733.0433 834.1135,-748.9086 561.9255,-725.0256"/>
<polygon fill="#191970" stroke="#191970" points="562.0119,-721.5196 551.7416,-724.1218 561.3931,-728.4922 562.0119,-721.5196"/>
</g>
<!-- Node57 -->
<g id="node57" class="node">
<title>Node57</title>
<g id="a_node57"><a xlink:href="../../dd/ddf/MIDI__Pipes_8hpp.html" target="_top" xlink:title=" ">
<polygon fill="#ffffff" stroke="#000000" points="1159.5,-577 1159.5,-596 1246.5,-596 1246.5,-577 1159.5,-577"/>
<text text-anchor="middle" x="1203" y="-584" font-family="Helvetica,sans-Serif" font-size="10.00" fill="#000000">MIDI_Pipes.hpp</text>
</a>
</g>
</g>
<!-- Node56&#45;&gt;Node57 -->
<g id="edge135" class="edge">
<title>Node56&#45;&gt;Node57</title>
<path fill="none" stroke="#191970" d="M1268.8592,-761.3026C1264.1596,-751.1139 1257.9797,-737.3512 1253,-725 1236.113,-683.1146 1218.7223,-633.0827 1209.5648,-606.094"/>
<polygon fill="#191970" stroke="#191970" points="1212.7846,-604.6889 1206.2714,-596.3325 1206.1519,-606.9267 1212.7846,-604.6889"/>
</g>
<!-- Node59 -->
<g id="node59" class="node">
<title>Node59</title>
<g id="a_node59"><a xlink:href="../../d7/d2d/MIDI__Parser_8hpp.html" target="_top" xlink:title=" ">
<polygon fill="#ffffff" stroke="#000000" points="1261.5,-705.5 1261.5,-724.5 1416.5,-724.5 1416.5,-705.5 1261.5,-705.5"/>
<text text-anchor="middle" x="1339" y="-712.5" font-family="Helvetica,sans-Serif" font-size="10.00" fill="#000000">MIDI_Parsers/MIDI_Parser.hpp</text>
</a>
</g>
</g>
<!-- Node56&#45;&gt;Node59 -->
<g id="edge148" class="edge">
<title>Node56&#45;&gt;Node59</title>
<path fill="none" stroke="#191970" d="M1291.573,-761.2977C1300.6825,-752.4052 1312.2034,-741.1586 1321.6091,-731.9769"/>
<polygon fill="#191970" stroke="#191970" points="1324.202,-734.3368 1328.9129,-724.8469 1319.3122,-729.3278 1324.202,-734.3368"/>
</g>
<!-- Node61 -->
<g id="node61" class="node">
<title>Node61</title>
<g id="a_node61"><a xlink:href="../../d6/d38/MIDI__Interface_8ipp.html" target="_top" xlink:title=" ">
<polygon fill="#ffffff" stroke="#000000" points="1435,-705.5 1435,-724.5 1533,-724.5 1533,-705.5 1435,-705.5"/>
<text text-anchor="middle" x="1484" y="-712.5" font-family="Helvetica,sans-Serif" font-size="10.00" fill="#000000">MIDI_Interface.ipp</text>
</a>
</g>
</g>
<!-- Node56&#45;&gt;Node61 -->
<g id="edge155" class="edge">
<title>Node56&#45;&gt;Node61</title>
<path fill="none" stroke="#191970" d="M1320.9854,-761.4554C1355.2031,-750.9689 1402.0579,-737.1515 1436.8074,-727.3187"/>
<polygon fill="#191970" stroke="#191970" points="1438.0417,-730.6074 1446.7204,-724.5303 1436.1462,-723.8689 1438.0417,-730.6074"/>
</g>
<!-- Node57&#45;&gt;Node6 -->
<g id="edge138" class="edge">
<title>Node57&#45;&gt;Node6</title>
<path fill="none" stroke="#191970" d="M1230.5132,-576.942C1237.4645,-574.7643 1244.9564,-572.6183 1252,-571 1359.692,-546.2569 1396.2301,-578.0425 1498,-535 1662.6469,-465.3644 1817,-468.7672 1817,-290 1817,-290 1817,-290 1817,-122 1817,-40.1396 1217.9337,-17.2312 1001.6845,-11.6285"/>
<polygon fill="#191970" stroke="#191970" points="1001.7658,-8.1295 991.6802,-11.3746 1001.5881,-15.1272 1001.7658,-8.1295"/>
</g>
<!-- Node57&#45;&gt;Node30 -->
<g id="edge144" class="edge">
<title>Node57&#45;&gt;Node30</title>
<path fill="none" stroke="#191970" d="M1214.1209,-576.7752C1224.7117,-567.0487 1240.5457,-551.2368 1251,-535 1262.7163,-516.8033 1271.6615,-493.5999 1277.0765,-477.4432"/>
<polygon fill="#191970" stroke="#191970" points="1280.534,-478.1228 1280.252,-467.5317 1273.8677,-475.987 1280.534,-478.1228"/>
</g>
<!-- Node57&#45;&gt;Node38 -->
<g id="edge136" class="edge">
<title>Node57&#45;&gt;Node38</title>
<path fill="none" stroke="#191970" d="M1159.3216,-581.1304C1067.5281,-569.8457 853.4805,-543.5315 736.9708,-529.2083"/>
<polygon fill="#191970" stroke="#191970" points="737.39,-525.7336 727.0376,-527.9872 736.5358,-532.6813 737.39,-525.7336"/>
</g>
<!-- Node57&#45;&gt;Node45 -->
<g id="edge137" class="edge">
<title>Node57&#45;&gt;Node45</title>
<path fill="none" stroke="#191970" d="M1159.0488,-578.6619C1108.5664,-569.3949 1023.3808,-552.9472 951,-535 946.9698,-534.0007 942.7861,-532.8958 938.6164,-531.7497"/>
<polygon fill="#191970" stroke="#191970" points="939.5658,-528.381 928.9909,-529.031 937.663,-535.1175 939.5658,-528.381"/>
</g>
<!-- Node58 -->
<g id="node58" class="node">
<title>Node58</title>
<g id="a_node58"><a xlink:href="../../dc/d40/MIDI__MessageTypes_8hpp.html" target="_top" xlink:title=" ">
<polygon fill="#ffffff" stroke="#000000" points="1341.5,-504.5 1341.5,-534.5 1488.5,-534.5 1488.5,-504.5 1341.5,-504.5"/>
<text text-anchor="start" x="1349.5" y="-522.5" font-family="Helvetica,sans-Serif" font-size="10.00" fill="#000000">MIDI_Parsers/MIDI_Message</text>
<text text-anchor="middle" x="1415" y="-511.5" font-family="Helvetica,sans-Serif" font-size="10.00" fill="#000000">Types.hpp</text>
</a>
</g>
</g>
<!-- Node57&#45;&gt;Node58 -->
<g id="edge139" class="edge">
<title>Node57&#45;&gt;Node58</title>
<path fill="none" stroke="#191970" d="M1233.3744,-576.9005C1265.7403,-566.6717 1317.7342,-550.2397 1357.8149,-537.5727"/>
<polygon fill="#191970" stroke="#191970" points="1358.988,-540.8726 1367.4684,-534.5218 1356.8786,-534.198 1358.988,-540.8726"/>
</g>
<!-- Node58&#45;&gt;Node6 -->
<g id="edge140" class="edge">
<title>Node58&#45;&gt;Node6</title>
<path fill="none" stroke="#191970" d="M1488.6399,-508.4553C1622.7228,-486.2573 1893,-430.973 1893,-346 1893,-346 1893,-346 1893,-122 1893,-81.7538 1867.5203,-72.9121 1831,-56 1756.8204,-21.6484 1207.0443,-12.7598 1001.8954,-10.6271"/>
<polygon fill="#191970" stroke="#191970" points="1001.8391,-7.1265 991.8041,-10.5248 1001.7681,-14.1261 1001.8391,-7.1265"/>
</g>
<!-- Node58&#45;&gt;Node19 -->
<g id="edge142" class="edge">
<title>Node58&#45;&gt;Node19</title>
<path fill="none" stroke="#191970" d="M1417.025,-504.2447C1418.2706,-488.8119 1417.9224,-464.8853 1407,-448 1328.7954,-327.1008 1156.2336,-265.4702 1081.1174,-243.5431"/>
<polygon fill="#191970" stroke="#191970" points="1081.7614,-240.0873 1071.1849,-240.7106 1079.8416,-246.8189 1081.7614,-240.0873"/>
</g>
<!-- Node58&#45;&gt;Node20 -->
<g id="edge143" class="edge">
<title>Node58&#45;&gt;Node20</title>
<path fill="none" stroke="#191970" d="M1426.7909,-504.2379C1433.5746,-494.4664 1441.4394,-481.1862 1445,-468 1447.3172,-459.4185 1446.3291,-456.789 1445,-448 1433.3131,-370.7171 1444.4209,-338.8653 1393,-280 1383.9191,-269.6044 1353.1199,-256.146 1328.2579,-246.4759"/>
<polygon fill="#191970" stroke="#191970" points="1329.3263,-243.1375 1318.7356,-242.8413 1326.83,-249.6773 1329.3263,-243.1375"/>
</g>
<!-- Node58&#45;&gt;Node30 -->
<g id="edge141" class="edge">
<title>Node58&#45;&gt;Node30</title>
<path fill="none" stroke="#191970" d="M1382.7092,-504.4554C1361.3608,-494.509 1333.5804,-481.5659 1312.7667,-471.8686"/>
<polygon fill="#191970" stroke="#191970" points="1313.9979,-468.581 1303.4553,-467.5303 1311.0416,-474.9262 1313.9979,-468.581"/>
</g>
<!-- Node59&#45;&gt;Node19 -->
<g id="edge149" class="edge">
<title>Node59&#45;&gt;Node19</title>
<path fill="none" stroke="#191970" d="M1334.0415,-705.4444C1329.622,-696.352 1323.4805,-682.1462 1321,-669 1312.1113,-621.8919 1311.6532,-546.0471 1333,-504 1343.9776,-482.3773 1363.9987,-490.0912 1374,-468 1377.6661,-459.9023 1378.2385,-455.8133 1374,-448 1356.8631,-416.41 1144.5201,-291.5426 1070.3594,-248.5982"/>
<polygon fill="#191970" stroke="#191970" points="1072.0376,-245.5256 1061.6283,-243.5513 1068.5344,-251.586 1072.0376,-245.5256"/>
</g>
<!-- Node59&#45;&gt;Node20 -->
<g id="edge150" class="edge">
<title>Node59&#45;&gt;Node20</title>
<path fill="none" stroke="#191970" d="M1339.3804,-705.253C1340.5007,-689.3169 1344.8887,-657.5093 1362,-638 1435.8547,-553.7951 1517.0153,-618.2002 1592,-535 1618.7014,-505.3731 1617.8619,-487.6964 1614,-448 1605.2142,-357.69 1579.7505,-319.3694 1498,-280 1431.2713,-247.8648 1405.0492,-261.6472 1328.8764,-243.986"/>
<polygon fill="#191970" stroke="#191970" points="1329.3653,-240.503 1318.8215,-241.5413 1327.7115,-247.3049 1329.3653,-240.503"/>
</g>
<!-- Node59&#45;&gt;Node25 -->
<g id="edge151" class="edge">
<title>Node59&#45;&gt;Node25</title>
<path fill="none" stroke="#191970" d="M1322.5942,-705.3406C1293.3972,-688.6368 1230.0247,-654.5583 1172,-638 1047.5317,-602.4808 1008.2316,-634.7265 883,-602 880.3762,-601.3143 877.6926,-600.4899 875.0249,-599.5831"/>
<polygon fill="#191970" stroke="#191970" points="876.1615,-596.2714 865.5692,-596.0394 873.7049,-602.8262 876.1615,-596.2714"/>
</g>
<!-- Node59&#45;&gt;Node28 -->
<g id="edge152" class="edge">
<title>Node59&#45;&gt;Node28</title>
<path fill="none" stroke="#191970" d="M1279.883,-705.4303C1233.1239,-697.3215 1166.3847,-684.5459 1109,-669 1105.9868,-668.1837 1102.8828,-667.2707 1099.7805,-666.3074"/>
<polygon fill="#191970" stroke="#191970" points="1100.5828,-662.8877 1089.9904,-663.1158 1098.4131,-669.543 1100.5828,-662.8877"/>
</g>
<!-- Node59&#45;&gt;Node58 -->
<g id="edge154" class="edge">
<title>Node59&#45;&gt;Node58</title>
<path fill="none" stroke="#191970" d="M1335.0774,-705.2674C1329.6748,-690.409 1321.4247,-661.3354 1329,-638 1341.3569,-599.9352 1371.0414,-563.8711 1392.0673,-541.7435"/>
<polygon fill="#191970" stroke="#191970" points="1394.6339,-544.1247 1399.1007,-534.5175 1389.6177,-539.2422 1394.6339,-544.1247"/>
</g>
<!-- Node59&#45;&gt;Node60 -->
<g id="edge153" class="edge">
<title>Node59&#45;&gt;Node60</title>
<path fill="none" stroke="#191970" d="M1371.1875,-705.3906C1406.7133,-694.7846 1464.0226,-677.6753 1503.0441,-666.0257"/>
<polygon fill="#191970" stroke="#191970" points="1504.4577,-669.2564 1513.0385,-663.0419 1502.4552,-662.5489 1504.4577,-669.2564"/>
</g>
<!-- Node61&#45;&gt;Node56 -->
<g id="edge156" class="edge">
<title>Node61&#45;&gt;Node56</title>
<path fill="none" stroke="#191970" d="M1456.6566,-724.5798C1427.5513,-733.714 1380.652,-747.6909 1341.8923,-758.8429"/>
<polygon fill="#191970" stroke="#191970" points="1340.8778,-755.4926 1332.2292,-761.6126 1342.8065,-762.2217 1340.8778,-755.4926"/>
</g>
<!-- Node62 -->
<g id="node62" class="node">
<title>Node62</title>
<g id="a_node62"><a xlink:href="../../d6/d0b/Def_2CRTP_8hpp.html" target="_top" xlink:title=" ">
<polygon fill="#ffffff" stroke="#000000" points="1371,-644 1371,-663 1453,-663 1453,-644 1371,-644"/>
<text text-anchor="middle" x="1412" y="-651" font-family="Helvetica,sans-Serif" font-size="10.00" fill="#000000">Def/CRTP.hpp</text>
</a>
</g>
</g>
<!-- Node61&#45;&gt;Node62 -->
<g id="edge157" class="edge">
<title>Node61&#45;&gt;Node62</title>
<path fill="none" stroke="#191970" d="M1472.75,-705.3906C1461.614,-695.8786 1444.354,-681.1357 1431.0732,-669.7917"/>
<polygon fill="#191970" stroke="#191970" points="1433.2856,-667.0784 1423.4086,-663.2449 1428.7392,-672.4011 1433.2856,-667.0784"/>
</g>
</g>
</svg>
