<?xml version="1.0" encoding="UTF-8" standalone="no"?>
<!DOCTYPE svg PUBLIC "-//W3C//DTD SVG 1.1//EN"
 "http://www.w3.org/Graphics/SVG/1.1/DTD/svg11.dtd">
<!-- Generated by graphviz version 2.43.0 (0)
 -->
<!-- Title: NoteButtonLatched&lt; NumBanks &gt; Pages: 1 -->
<svg width="880pt" height="1384pt"
 viewBox="0.00 0.00 879.50 1384.00" xmlns="http://www.w3.org/2000/svg" xmlns:xlink="http://www.w3.org/1999/xlink">
<g id="graph0" class="graph" transform="scale(1 1) rotate(0) translate(4 1380)">
<title>NoteButtonLatched&lt; NumBanks &gt;</title>
<polygon fill="white" stroke="transparent" points="-4,4 -4,-1380 875.5,-1380 875.5,4 -4,4"/>
<!-- Node1 -->
<g id="node1" class="node">
<title>Node1</title>
<g id="a_node1"><a xlink:title="A class of MIDIOutputElements that read the input of a momentary push button, and send out MIDI Note ...">
<polygon fill="#bfbfbf" stroke="black" points="393,-0.5 393,-90.5 522,-90.5 522,-0.5 393,-0.5"/>
<text text-anchor="start" x="401" y="-78.5" font-family="Helvetica,sans-Serif" font-size="10.00">NoteButtonLatched&lt;</text>
<text text-anchor="middle" x="457.5" y="-67.5" font-family="Helvetica,sans-Serif" font-size="10.00"> NumBanks &gt;</text>
<polyline fill="none" stroke="black" points="393,-60.5 522,-60.5 "/>
<text text-anchor="middle" x="457.5" y="-48.5" font-family="Helvetica,sans-Serif" font-size="10.00"> </text>
<polyline fill="none" stroke="black" points="393,-41.5 522,-41.5 "/>
<text text-anchor="start" x="401" y="-29.5" font-family="Helvetica,sans-Serif" font-size="10.00">+ NoteButtonLatched()</text>
<text text-anchor="start" x="401" y="-18.5" font-family="Helvetica,sans-Serif" font-size="10.00">+ setVelocity()</text>
<text text-anchor="start" x="401" y="-7.5" font-family="Helvetica,sans-Serif" font-size="10.00">+ getVelocity()</text>
</a>
</g>
</g>
<!-- Node2 -->
<g id="node2" class="node">
<title>Node2</title>
<g id="a_node2"><a xlink:href="../../df/dca/classBankable_1_1MIDIButtonLatched.html" target="_top" xlink:title=" ">
<polygon fill="white" stroke="black" points="382,-128.5 382,-273.5 533,-273.5 533,-128.5 382,-128.5"/>
<text text-anchor="start" x="390" y="-261.5" font-family="Helvetica,sans-Serif" font-size="10.00">MIDIButtonLatched&lt;</text>
<text text-anchor="start" x="390" y="-250.5" font-family="Helvetica,sans-Serif" font-size="10.00"> NumBanks, SingleAddress,</text>
<text text-anchor="middle" x="457.5" y="-239.5" font-family="Helvetica,sans-Serif" font-size="10.00"> DigitalNoteSender &gt;</text>
<polyline fill="none" stroke="black" points="382,-232.5 533,-232.5 "/>
<text text-anchor="middle" x="457.5" y="-220.5" font-family="Helvetica,sans-Serif" font-size="10.00"> </text>
<polyline fill="none" stroke="black" points="382,-213.5 533,-213.5 "/>
<text text-anchor="start" x="390" y="-201.5" font-family="Helvetica,sans-Serif" font-size="10.00">+ begin()</text>
<text text-anchor="start" x="390" y="-190.5" font-family="Helvetica,sans-Serif" font-size="10.00">+ update()</text>
<text text-anchor="start" x="390" y="-179.5" font-family="Helvetica,sans-Serif" font-size="10.00">+ toggleState()</text>
<text text-anchor="start" x="390" y="-168.5" font-family="Helvetica,sans-Serif" font-size="10.00">+ getState()</text>
<text text-anchor="start" x="390" y="-157.5" font-family="Helvetica,sans-Serif" font-size="10.00">+ setState()</text>
<text text-anchor="start" x="390" y="-146.5" font-family="Helvetica,sans-Serif" font-size="10.00">+ getButtonState()</text>
<text text-anchor="start" x="390" y="-135.5" font-family="Helvetica,sans-Serif" font-size="10.00"># MIDIButtonLatched()</text>
</a>
</g>
</g>
<!-- Node2&#45;&gt;Node1 -->
<g id="edge1" class="edge">
<title>Node2&#45;&gt;Node1</title>
<path fill="none" stroke="midnightblue" d="M457.5,-117.98C457.5,-108.59 457.5,-99.3 457.5,-90.68"/>
<polygon fill="none" stroke="midnightblue" points="454,-118.19 457.5,-128.19 461,-118.19 454,-118.19"/>
</g>
<!-- Node3 -->
<g id="node3" class="node">
<title>Node3</title>
<g id="a_node3"><a xlink:href="../../d1/d55/classAH_1_1Updatable.html" target="_top" xlink:title=" ">
<polygon fill="white" stroke="black" points="107,-393 107,-483 220,-483 220,-393 107,-393"/>
<text text-anchor="middle" x="163.5" y="-471" font-family="Helvetica,sans-Serif" font-size="10.00">MIDIOutputElement</text>
<polyline fill="none" stroke="black" points="107,-464 220,-464 "/>
<text text-anchor="middle" x="163.5" y="-452" font-family="Helvetica,sans-Serif" font-size="10.00"> </text>
<polyline fill="none" stroke="black" points="107,-445 220,-445 "/>
<text text-anchor="start" x="115" y="-433" font-family="Helvetica,sans-Serif" font-size="10.00">* begin()</text>
<text text-anchor="start" x="115" y="-422" font-family="Helvetica,sans-Serif" font-size="10.00">* update()</text>
<text text-anchor="start" x="115" y="-411" font-family="Helvetica,sans-Serif" font-size="10.00">* beginAll()</text>
<text text-anchor="start" x="115" y="-400" font-family="Helvetica,sans-Serif" font-size="10.00">* updateAll()</text>
</a>
</g>
</g>
<!-- Node3&#45;&gt;Node2 -->
<g id="edge2" class="edge">
<title>Node3&#45;&gt;Node2</title>
<path fill="none" stroke="midnightblue" d="M185.7,-383.74C196.56,-362.33 211.26,-338.59 229.5,-321 272.89,-279.16 333.92,-248.35 381.92,-228.58"/>
<polygon fill="none" stroke="midnightblue" points="182.54,-382.24 181.28,-392.76 188.83,-385.32 182.54,-382.24"/>
</g>
<!-- Node4 -->
<g id="node4" class="node">
<title>Node4</title>
<g id="a_node4"><a xlink:href="../../d8/d1a/classAH_1_1UpdatableCRTP.html" target="_top" xlink:title=" ">
<polygon fill="white" stroke="black" points="87,-641 87,-830 240,-830 240,-641 87,-641"/>
<text text-anchor="start" x="95" y="-818" font-family="Helvetica,sans-Serif" font-size="10.00">UpdatableCRTP&lt; Updatable</text>
<text text-anchor="middle" x="163.5" y="-807" font-family="Helvetica,sans-Serif" font-size="10.00">&lt; NormalUpdatable &gt; &gt;</text>
<polyline fill="none" stroke="black" points="87,-800 240,-800 "/>
<text text-anchor="middle" x="163.5" y="-788" font-family="Helvetica,sans-Serif" font-size="10.00"> </text>
<polyline fill="none" stroke="black" points="87,-781 240,-781 "/>
<text text-anchor="start" x="95" y="-769" font-family="Helvetica,sans-Serif" font-size="10.00">+ ~UpdatableCRTP()</text>
<text text-anchor="start" x="95" y="-758" font-family="Helvetica,sans-Serif" font-size="10.00"># UpdatableCRTP()</text>
<text text-anchor="start" x="95" y="-747" font-family="Helvetica,sans-Serif" font-size="10.00">* enable()</text>
<text text-anchor="start" x="95" y="-736" font-family="Helvetica,sans-Serif" font-size="10.00">* disable()</text>
<text text-anchor="start" x="95" y="-725" font-family="Helvetica,sans-Serif" font-size="10.00">* isEnabled()</text>
<text text-anchor="start" x="95" y="-714" font-family="Helvetica,sans-Serif" font-size="10.00">* enable()</text>
<text text-anchor="start" x="95" y="-703" font-family="Helvetica,sans-Serif" font-size="10.00">* enable()</text>
<text text-anchor="start" x="95" y="-692" font-family="Helvetica,sans-Serif" font-size="10.00">* enable()</text>
<text text-anchor="start" x="95" y="-681" font-family="Helvetica,sans-Serif" font-size="10.00">* disable()</text>
<text text-anchor="start" x="95" y="-670" font-family="Helvetica,sans-Serif" font-size="10.00">* disable()</text>
<text text-anchor="start" x="95" y="-659" font-family="Helvetica,sans-Serif" font-size="10.00">* disable()</text>
<text text-anchor="start" x="95" y="-648" font-family="Helvetica,sans-Serif" font-size="10.00">* applyToAll()</text>
</a>
</g>
</g>
<!-- Node4&#45;&gt;Node3 -->
<g id="edge3" class="edge">
<title>Node4&#45;&gt;Node3</title>
<path fill="none" stroke="midnightblue" d="M163.5,-630.59C163.5,-580.04 163.5,-521.95 163.5,-483.11"/>
<polygon fill="none" stroke="midnightblue" points="160,-630.6 163.5,-640.6 167,-630.6 160,-630.6"/>
</g>
<!-- Node5 -->
<g id="node5" class="node">
<title>Node5</title>
<g id="a_node5"><a xlink:href="../../d4/d23/classDoublyLinkable.html" target="_top" xlink:title=" ">
<polygon fill="white" stroke="black" points="0,-1026.5 0,-1105.5 153,-1105.5 153,-1026.5 0,-1026.5"/>
<text text-anchor="start" x="8" y="-1093.5" font-family="Helvetica,sans-Serif" font-size="10.00">DoublyLinkable&lt; Updatable</text>
<text text-anchor="middle" x="76.5" y="-1082.5" font-family="Helvetica,sans-Serif" font-size="10.00">&lt; NormalUpdatable &gt; &gt;</text>
<polyline fill="none" stroke="black" points="0,-1075.5 153,-1075.5 "/>
<text text-anchor="start" x="8" y="-1063.5" font-family="Helvetica,sans-Serif" font-size="10.00"># next</text>
<text text-anchor="start" x="8" y="-1052.5" font-family="Helvetica,sans-Serif" font-size="10.00"># previous</text>
<polyline fill="none" stroke="black" points="0,-1045.5 153,-1045.5 "/>
<text text-anchor="start" x="8" y="-1033.5" font-family="Helvetica,sans-Serif" font-size="10.00"># ~DoublyLinkable()</text>
</a>
</g>
</g>
<!-- Node5&#45;&gt;Node4 -->
<g id="edge4" class="edge">
<title>Node5&#45;&gt;Node4</title>
<path fill="none" stroke="midnightblue" d="M89.3,-1016.66C102.25,-967.78 122.59,-890.97 138.7,-830.12"/>
<polygon fill="none" stroke="midnightblue" points="85.91,-1015.79 86.74,-1026.35 92.68,-1017.58 85.91,-1015.79"/>
</g>
<!-- Node6 -->
<g id="node6" class="node">
<title>Node6</title>
<g id="a_node6"><a xlink:href="../../dd/d16/classDoublyLinkedList.html" target="_top" xlink:title=" ">
<polygon fill="white" stroke="black" points="171,-916.5 171,-1215.5 332,-1215.5 332,-916.5 171,-916.5"/>
<text text-anchor="start" x="179" y="-1203.5" font-family="Helvetica,sans-Serif" font-size="10.00">DoublyLinkedList&lt; Updatable</text>
<text text-anchor="middle" x="251.5" y="-1192.5" font-family="Helvetica,sans-Serif" font-size="10.00">&lt; NormalUpdatable &gt; &gt;</text>
<polyline fill="none" stroke="black" points="171,-1185.5 332,-1185.5 "/>
<text text-anchor="start" x="179" y="-1173.5" font-family="Helvetica,sans-Serif" font-size="10.00">&#45; first</text>
<text text-anchor="start" x="179" y="-1162.5" font-family="Helvetica,sans-Serif" font-size="10.00">&#45; last</text>
<polyline fill="none" stroke="black" points="171,-1155.5 332,-1155.5 "/>
<text text-anchor="start" x="179" y="-1143.5" font-family="Helvetica,sans-Serif" font-size="10.00">+ append()</text>
<text text-anchor="start" x="179" y="-1132.5" font-family="Helvetica,sans-Serif" font-size="10.00">+ append()</text>
<text text-anchor="start" x="179" y="-1121.5" font-family="Helvetica,sans-Serif" font-size="10.00">+ insertBefore()</text>
<text text-anchor="start" x="179" y="-1110.5" font-family="Helvetica,sans-Serif" font-size="10.00">+ insertBefore()</text>
<text text-anchor="start" x="179" y="-1099.5" font-family="Helvetica,sans-Serif" font-size="10.00">+ insertSorted()</text>
<text text-anchor="start" x="179" y="-1088.5" font-family="Helvetica,sans-Serif" font-size="10.00">+ insertSorted()</text>
<text text-anchor="start" x="179" y="-1077.5" font-family="Helvetica,sans-Serif" font-size="10.00">+ remove()</text>
<text text-anchor="start" x="179" y="-1066.5" font-family="Helvetica,sans-Serif" font-size="10.00">+ remove()</text>
<text text-anchor="start" x="179" y="-1055.5" font-family="Helvetica,sans-Serif" font-size="10.00">+ moveDown()</text>
<text text-anchor="start" x="179" y="-1044.5" font-family="Helvetica,sans-Serif" font-size="10.00">+ couldContain()</text>
<text text-anchor="start" x="179" y="-1033.5" font-family="Helvetica,sans-Serif" font-size="10.00">+ couldContain()</text>
<text text-anchor="start" x="179" y="-1022.5" font-family="Helvetica,sans-Serif" font-size="10.00">+ begin()</text>
<text text-anchor="start" x="179" y="-1011.5" font-family="Helvetica,sans-Serif" font-size="10.00">+ begin()</text>
<text text-anchor="start" x="179" y="-1000.5" font-family="Helvetica,sans-Serif" font-size="10.00">+ end()</text>
<text text-anchor="start" x="179" y="-989.5" font-family="Helvetica,sans-Serif" font-size="10.00">+ end()</text>
<text text-anchor="start" x="179" y="-978.5" font-family="Helvetica,sans-Serif" font-size="10.00">+ rbegin()</text>
<text text-anchor="start" x="179" y="-967.5" font-family="Helvetica,sans-Serif" font-size="10.00">+ rbegin()</text>
<text text-anchor="start" x="179" y="-956.5" font-family="Helvetica,sans-Serif" font-size="10.00">+ rend()</text>
<text text-anchor="start" x="179" y="-945.5" font-family="Helvetica,sans-Serif" font-size="10.00">+ rend()</text>
<text text-anchor="start" x="179" y="-934.5" font-family="Helvetica,sans-Serif" font-size="10.00">+ getFirst()</text>
<text text-anchor="start" x="179" y="-923.5" font-family="Helvetica,sans-Serif" font-size="10.00">+ getLast()</text>
</a>
</g>
</g>
<!-- Node6&#45;&gt;Node4 -->
<g id="edge5" class="edge">
<title>Node6&#45;&gt;Node4</title>
<path fill="none" stroke="#404040" d="M211.62,-916.13C204.93,-891.15 198.11,-865.69 191.79,-842.1"/>
<polygon fill="none" stroke="#404040" points="191.73,-841.9 186.32,-837.14 188.63,-830.31 194.05,-835.07 191.73,-841.9"/>
<text text-anchor="middle" x="238.5" y="-890" font-family="Helvetica,sans-Serif" font-size="10.00"> #updatables</text>
</g>
<!-- Node7 -->
<g id="node7" class="node">
<title>Node7</title>
<g id="a_node7"><a xlink:href="../../d6/da4/classAH_1_1BitArray.html" target="_top" xlink:title=" ">
<polygon fill="white" stroke="black" points="238.5,-354.5 238.5,-521.5 370.5,-521.5 370.5,-354.5 238.5,-354.5"/>
<text text-anchor="middle" x="304.5" y="-509.5" font-family="Helvetica,sans-Serif" font-size="10.00">BitArray&lt; NumBanks &gt;</text>
<polyline fill="none" stroke="black" points="238.5,-502.5 370.5,-502.5 "/>
<text text-anchor="start" x="246.5" y="-490.5" font-family="Helvetica,sans-Serif" font-size="10.00">&#45; buffer</text>
<text text-anchor="start" x="246.5" y="-479.5" font-family="Helvetica,sans-Serif" font-size="10.00">&#45; bufferLength</text>
<polyline fill="none" stroke="black" points="238.5,-472.5 370.5,-472.5 "/>
<text text-anchor="start" x="246.5" y="-460.5" font-family="Helvetica,sans-Serif" font-size="10.00">+ get()</text>
<text text-anchor="start" x="246.5" y="-449.5" font-family="Helvetica,sans-Serif" font-size="10.00">+ set()</text>
<text text-anchor="start" x="246.5" y="-438.5" font-family="Helvetica,sans-Serif" font-size="10.00">+ set()</text>
<text text-anchor="start" x="246.5" y="-427.5" font-family="Helvetica,sans-Serif" font-size="10.00">+ clear()</text>
<text text-anchor="start" x="246.5" y="-416.5" font-family="Helvetica,sans-Serif" font-size="10.00">+ safeIndex()</text>
<text text-anchor="start" x="246.5" y="-405.5" font-family="Helvetica,sans-Serif" font-size="10.00">+ getByte()</text>
<text text-anchor="start" x="246.5" y="-394.5" font-family="Helvetica,sans-Serif" font-size="10.00">+ getBufferLength()</text>
<text text-anchor="start" x="246.5" y="-383.5" font-family="Helvetica,sans-Serif" font-size="10.00">&#45; getBufferIndex()</text>
<text text-anchor="start" x="246.5" y="-372.5" font-family="Helvetica,sans-Serif" font-size="10.00">&#45; getBufferBit()</text>
<text text-anchor="start" x="246.5" y="-361.5" font-family="Helvetica,sans-Serif" font-size="10.00">&#45; getBufferMask()</text>
</a>
</g>
</g>
<!-- Node7&#45;&gt;Node2 -->
<g id="edge6" class="edge">
<title>Node7&#45;&gt;Node2</title>
<path fill="none" stroke="#404040" d="M357.9,-354.26C365.15,-343.08 372.5,-331.75 379.5,-321 387.29,-309.03 395.54,-296.4 403.65,-284.02"/>
<polygon fill="none" stroke="#404040" points="403.83,-283.73 403.77,-276.52 410.41,-273.69 410.47,-280.9 403.83,-283.73"/>
<text text-anchor="middle" x="416" y="-295" font-family="Helvetica,sans-Serif" font-size="10.00"> &#45;states</text>
</g>
<!-- Node8 -->
<g id="node8" class="node">
<title>Node8</title>
<g id="a_node8"><a xlink:href="../../de/d0d/classAH_1_1Button.html" target="_top" xlink:title="A class for reading and debouncing buttons and switches.">
<polygon fill="white" stroke="black" points="388.5,-321.5 388.5,-554.5 526.5,-554.5 526.5,-321.5 388.5,-321.5"/>
<text text-anchor="middle" x="457.5" y="-542.5" font-family="Helvetica,sans-Serif" font-size="10.00">Button</text>
<polyline fill="none" stroke="black" points="388.5,-535.5 526.5,-535.5 "/>
<text text-anchor="start" x="396.5" y="-523.5" font-family="Helvetica,sans-Serif" font-size="10.00">&#45; pin</text>
<text text-anchor="start" x="396.5" y="-512.5" font-family="Helvetica,sans-Serif" font-size="10.00">&#45; prevInput</text>
<text text-anchor="start" x="396.5" y="-501.5" font-family="Helvetica,sans-Serif" font-size="10.00">&#45; debouncedState</text>
<text text-anchor="start" x="396.5" y="-490.5" font-family="Helvetica,sans-Serif" font-size="10.00">&#45; prevBounceTime</text>
<text text-anchor="start" x="396.5" y="-479.5" font-family="Helvetica,sans-Serif" font-size="10.00">&#45; invertState</text>
<text text-anchor="start" x="396.5" y="-468.5" font-family="Helvetica,sans-Serif" font-size="10.00">&#45; debounceTime</text>
<polyline fill="none" stroke="black" points="388.5,-461.5 526.5,-461.5 "/>
<text text-anchor="start" x="396.5" y="-449.5" font-family="Helvetica,sans-Serif" font-size="10.00">+ Button()</text>
<text text-anchor="start" x="396.5" y="-438.5" font-family="Helvetica,sans-Serif" font-size="10.00">+ Button()</text>
<text text-anchor="start" x="396.5" y="-427.5" font-family="Helvetica,sans-Serif" font-size="10.00">+ begin()</text>
<text text-anchor="start" x="396.5" y="-416.5" font-family="Helvetica,sans-Serif" font-size="10.00">+ invert()</text>
<text text-anchor="start" x="396.5" y="-405.5" font-family="Helvetica,sans-Serif" font-size="10.00">+ update()</text>
<text text-anchor="start" x="396.5" y="-394.5" font-family="Helvetica,sans-Serif" font-size="10.00">+ getState()</text>
<text text-anchor="start" x="396.5" y="-383.5" font-family="Helvetica,sans-Serif" font-size="10.00">+ previousBounceTime()</text>
<text text-anchor="start" x="396.5" y="-372.5" font-family="Helvetica,sans-Serif" font-size="10.00">+ stableTime()</text>
<text text-anchor="start" x="396.5" y="-361.5" font-family="Helvetica,sans-Serif" font-size="10.00">+ stableTime()</text>
<text text-anchor="start" x="396.5" y="-350.5" font-family="Helvetica,sans-Serif" font-size="10.00">+ getName()</text>
<text text-anchor="start" x="396.5" y="-339.5" font-family="Helvetica,sans-Serif" font-size="10.00">+ setDebounceTime()</text>
<text text-anchor="start" x="396.5" y="-328.5" font-family="Helvetica,sans-Serif" font-size="10.00">+ getDebounceTime()</text>
</a>
</g>
</g>
<!-- Node8&#45;&gt;Node2 -->
<g id="edge7" class="edge">
<title>Node8&#45;&gt;Node2</title>
<path fill="none" stroke="#404040" d="M457.5,-321.22C457.5,-309.31 457.5,-297.37 457.5,-285.91"/>
<polygon fill="none" stroke="#404040" points="457.5,-285.67 453.5,-279.67 457.5,-273.67 461.5,-279.67 457.5,-285.67"/>
<text text-anchor="middle" x="477" y="-295" font-family="Helvetica,sans-Serif" font-size="10.00"> &#45;button</text>
</g>
<!-- Node9 -->
<g id="node9" class="node">
<title>Node9</title>
<g id="a_node9"><a xlink:href="../../dc/dd4/classDigitalNoteSender.html" target="_top" xlink:title="Class that sends MIDI note on and off messages.">
<polygon fill="white" stroke="black" points="545,-387.5 545,-488.5 670,-488.5 670,-387.5 545,-387.5"/>
<text text-anchor="middle" x="607.5" y="-476.5" font-family="Helvetica,sans-Serif" font-size="10.00">DigitalNoteSender</text>
<polyline fill="none" stroke="black" points="545,-469.5 670,-469.5 "/>
<text text-anchor="start" x="553" y="-457.5" font-family="Helvetica,sans-Serif" font-size="10.00">&#45; velocity</text>
<polyline fill="none" stroke="black" points="545,-450.5 670,-450.5 "/>
<text text-anchor="start" x="553" y="-438.5" font-family="Helvetica,sans-Serif" font-size="10.00">+ DigitalNoteSender()</text>
<text text-anchor="start" x="553" y="-427.5" font-family="Helvetica,sans-Serif" font-size="10.00">+ sendOn()</text>
<text text-anchor="start" x="553" y="-416.5" font-family="Helvetica,sans-Serif" font-size="10.00">+ sendOff()</text>
<text text-anchor="start" x="553" y="-405.5" font-family="Helvetica,sans-Serif" font-size="10.00">+ setVelocity()</text>
<text text-anchor="start" x="553" y="-394.5" font-family="Helvetica,sans-Serif" font-size="10.00">+ getVelocity()</text>
</a>
</g>
</g>
<!-- Node9&#45;&gt;Node2 -->
<g id="edge8" class="edge">
<title>Node9&#45;&gt;Node2</title>
<path fill="none" stroke="#404040" d="M577.11,-387.44C564.37,-366.82 549.33,-342.68 535.5,-321 527.82,-308.96 519.63,-296.29 511.55,-283.89"/>
<polygon fill="none" stroke="#404040" points="511.37,-283.6 504.74,-280.76 504.81,-273.55 511.44,-276.39 511.37,-283.6"/>
<text text-anchor="middle" x="546" y="-295" font-family="Helvetica,sans-Serif" font-size="10.00"> +sender</text>
</g>
<!-- Node10 -->
<g id="node10" class="node">
<title>Node10</title>
<g id="a_node10"><a xlink:href="../../df/de5/classBankable_1_1SingleAddress.html" target="_top" xlink:title=" ">
<polygon fill="white" stroke="black" points="688,-398.5 688,-477.5 809,-477.5 809,-398.5 688,-398.5"/>
<text text-anchor="middle" x="748.5" y="-465.5" font-family="Helvetica,sans-Serif" font-size="10.00">SingleAddress</text>
<polyline fill="none" stroke="black" points="688,-458.5 809,-458.5 "/>
<text text-anchor="middle" x="748.5" y="-446.5" font-family="Helvetica,sans-Serif" font-size="10.00"> </text>
<polyline fill="none" stroke="black" points="688,-439.5 809,-439.5 "/>
<text text-anchor="start" x="696" y="-427.5" font-family="Helvetica,sans-Serif" font-size="10.00">+ SingleAddress()</text>
<text text-anchor="start" x="696" y="-416.5" font-family="Helvetica,sans-Serif" font-size="10.00">+ getBaseAddress()</text>
<text text-anchor="start" x="696" y="-405.5" font-family="Helvetica,sans-Serif" font-size="10.00">+ getActiveAddress()</text>
</a>
</g>
</g>
<!-- Node10&#45;&gt;Node2 -->
<g id="edge9" class="edge">
<title>Node10&#45;&gt;Node2</title>
<path fill="none" stroke="#404040" d="M731.78,-398.43C719.71,-373.96 701.5,-342.9 678.5,-321 640.02,-284.36 588.07,-255.63 544.21,-235.59"/>
<polygon fill="none" stroke="#404040" points="544.19,-235.58 537.08,-236.78 533.24,-230.68 540.35,-229.48 544.19,-235.58"/>
<text text-anchor="middle" x="676.5" y="-295" font-family="Helvetica,sans-Serif" font-size="10.00"> &#45;address</text>
</g>
<!-- Node11 -->
<g id="node11" class="node">
<title>Node11</title>
<g id="a_node11"><a xlink:href="../../d2/d97/classOutputBankableMIDIAddress.html" target="_top" xlink:title="A base class for all MIDIOutputElements that can be banked.">
<polygon fill="white" stroke="black" points="536,-696 536,-775 711,-775 711,-696 536,-696"/>
<text text-anchor="middle" x="623.5" y="-763" font-family="Helvetica,sans-Serif" font-size="10.00">OutputBankableMIDIAddress</text>
<polyline fill="none" stroke="black" points="536,-756 711,-756 "/>
<text text-anchor="start" x="544" y="-744" font-family="Helvetica,sans-Serif" font-size="10.00">&#45; type</text>
<polyline fill="none" stroke="black" points="536,-737 711,-737 "/>
<text text-anchor="start" x="544" y="-725" font-family="Helvetica,sans-Serif" font-size="10.00">+ OutputBankableMIDIAddress()</text>
<text text-anchor="start" x="544" y="-714" font-family="Helvetica,sans-Serif" font-size="10.00">+ OutputBankableMIDIAddress()</text>
<text text-anchor="start" x="544" y="-703" font-family="Helvetica,sans-Serif" font-size="10.00">+ getAddressOffset()</text>
</a>
</g>
</g>
<!-- Node11&#45;&gt;Node10 -->
<g id="edge10" class="edge">
<title>Node11&#45;&gt;Node10</title>
<path fill="none" stroke="midnightblue" d="M643.8,-686.52C668.42,-628.3 709.46,-531.29 732.15,-477.64"/>
<polygon fill="none" stroke="midnightblue" points="640.51,-685.3 639.84,-695.87 646.96,-688.02 640.51,-685.3"/>
</g>
<!-- Node12 -->
<g id="node12" class="node">
<title>Node12</title>
<g id="a_node12"><a xlink:href="../../d2/d4e/classOutputBankableMIDIAddress__Base.html" target="_top" xlink:title=" ">
<polygon fill="white" stroke="black" points="521.5,-1010 521.5,-1122 725.5,-1122 725.5,-1010 521.5,-1010"/>
<text text-anchor="middle" x="623.5" y="-1110" font-family="Helvetica,sans-Serif" font-size="10.00">OutputBankableMIDIAddress_Base</text>
<polyline fill="none" stroke="black" points="521.5,-1103 725.5,-1103 "/>
<text text-anchor="start" x="529.5" y="-1091" font-family="Helvetica,sans-Serif" font-size="10.00">&#45; lockedSetting</text>
<text text-anchor="start" x="529.5" y="-1080" font-family="Helvetica,sans-Serif" font-size="10.00">&#45; UNLOCKED</text>
<polyline fill="none" stroke="black" points="521.5,-1073 725.5,-1073 "/>
<text text-anchor="start" x="529.5" y="-1061" font-family="Helvetica,sans-Serif" font-size="10.00">+ getRawBankSetting()</text>
<text text-anchor="start" x="529.5" y="-1050" font-family="Helvetica,sans-Serif" font-size="10.00">+ getSelection()</text>
<text text-anchor="start" x="529.5" y="-1039" font-family="Helvetica,sans-Serif" font-size="10.00">+ lock()</text>
<text text-anchor="start" x="529.5" y="-1028" font-family="Helvetica,sans-Serif" font-size="10.00">+ unlock()</text>
<text text-anchor="start" x="529.5" y="-1017" font-family="Helvetica,sans-Serif" font-size="10.00"># OutputBankableMIDIAddress_Base()</text>
</a>
</g>
</g>
<!-- Node12&#45;&gt;Node11 -->
<g id="edge11" class="edge">
<title>Node12&#45;&gt;Node11</title>
<path fill="none" stroke="midnightblue" d="M623.5,-999.6C623.5,-932.47 623.5,-830.28 623.5,-775.09"/>
<polygon fill="none" stroke="midnightblue" points="620,-999.65 623.5,-1009.65 627,-999.65 620,-999.65"/>
</g>
<!-- Node13 -->
<g id="node13" class="node">
<title>Node13</title>
<g id="a_node13"><a xlink:href="../../d9/d36/classOutputBank.html" target="_top" xlink:title="A class for changing the address of BankableMIDIOutputs.">
<polygon fill="white" stroke="black" points="562.5,-1263.5 562.5,-1375.5 684.5,-1375.5 684.5,-1263.5 562.5,-1263.5"/>
<text text-anchor="middle" x="623.5" y="-1363.5" font-family="Helvetica,sans-Serif" font-size="10.00">OutputBank</text>
<polyline fill="none" stroke="black" points="562.5,-1356.5 684.5,-1356.5 "/>
<text text-anchor="start" x="570.5" y="-1344.5" font-family="Helvetica,sans-Serif" font-size="10.00">&#45; tracksPerBank</text>
<text text-anchor="start" x="570.5" y="-1333.5" font-family="Helvetica,sans-Serif" font-size="10.00">&#45; bankSetting</text>
<polyline fill="none" stroke="black" points="562.5,-1326.5 684.5,-1326.5 "/>
<text text-anchor="start" x="570.5" y="-1314.5" font-family="Helvetica,sans-Serif" font-size="10.00">+ OutputBank()</text>
<text text-anchor="start" x="570.5" y="-1303.5" font-family="Helvetica,sans-Serif" font-size="10.00">+ select()</text>
<text text-anchor="start" x="570.5" y="-1292.5" font-family="Helvetica,sans-Serif" font-size="10.00">+ getSelection()</text>
<text text-anchor="start" x="570.5" y="-1281.5" font-family="Helvetica,sans-Serif" font-size="10.00">+ getTracksPerBank()</text>
<text text-anchor="start" x="570.5" y="-1270.5" font-family="Helvetica,sans-Serif" font-size="10.00">+ getOffset()</text>
</a>
</g>
</g>
<!-- Node13&#45;&gt;Node12 -->
<g id="edge12" class="edge">
<title>Node13&#45;&gt;Node12</title>
<path fill="none" stroke="#404040" d="M623.5,-1263.31C623.5,-1225.31 623.5,-1174.59 623.5,-1134.23"/>
<polygon fill="none" stroke="#404040" points="623.5,-1134.06 619.5,-1128.06 623.5,-1122.06 627.5,-1128.06 623.5,-1134.06"/>
<text text-anchor="middle" x="641.5" y="-1237" font-family="Helvetica,sans-Serif" font-size="10.00"> #bank</text>
</g>
<!-- Node14 -->
<g id="node14" class="node">
<title>Node14</title>
<g id="a_node14"><a xlink:href="../../d7/d0f/classMIDIAddress.html" target="_top" xlink:title="A type&#45;safe utility class for saving a MIDI address consisting of a 7&#45;bit address,...">
<polygon fill="white" stroke="black" points="729.5,-602.5 729.5,-868.5 871.5,-868.5 871.5,-602.5 729.5,-602.5"/>
<text text-anchor="middle" x="800.5" y="-856.5" font-family="Helvetica,sans-Serif" font-size="10.00">MIDIAddress</text>
<polyline fill="none" stroke="black" points="729.5,-849.5 871.5,-849.5 "/>
<text text-anchor="start" x="737.5" y="-837.5" font-family="Helvetica,sans-Serif" font-size="10.00">&#45; addresses</text>
<polyline fill="none" stroke="black" points="729.5,-830.5 871.5,-830.5 "/>
<text text-anchor="start" x="737.5" y="-818.5" font-family="Helvetica,sans-Serif" font-size="10.00">* MIDIAddress()</text>
<text text-anchor="start" x="737.5" y="-807.5" font-family="Helvetica,sans-Serif" font-size="10.00">* MIDIAddress()</text>
<text text-anchor="start" x="737.5" y="-796.5" font-family="Helvetica,sans-Serif" font-size="10.00">* MIDIAddress()</text>
<text text-anchor="start" x="737.5" y="-785.5" font-family="Helvetica,sans-Serif" font-size="10.00">* MIDIAddress()</text>
<text text-anchor="start" x="737.5" y="-774.5" font-family="Helvetica,sans-Serif" font-size="10.00">* MIDIAddress()</text>
<text text-anchor="start" x="737.5" y="-763.5" font-family="Helvetica,sans-Serif" font-size="10.00">* invalid()</text>
<text text-anchor="start" x="737.5" y="-752.5" font-family="Helvetica,sans-Serif" font-size="10.00">* operator+=()</text>
<text text-anchor="start" x="737.5" y="-741.5" font-family="Helvetica,sans-Serif" font-size="10.00">* operator&#45;=()</text>
<text text-anchor="start" x="737.5" y="-730.5" font-family="Helvetica,sans-Serif" font-size="10.00">* operator+()</text>
<text text-anchor="start" x="737.5" y="-719.5" font-family="Helvetica,sans-Serif" font-size="10.00">* operator&#45;()</text>
<text text-anchor="start" x="737.5" y="-708.5" font-family="Helvetica,sans-Serif" font-size="10.00">* getAddress()</text>
<text text-anchor="start" x="737.5" y="-697.5" font-family="Helvetica,sans-Serif" font-size="10.00">* getChannel()</text>
<text text-anchor="start" x="737.5" y="-686.5" font-family="Helvetica,sans-Serif" font-size="10.00">* getRawChannel()</text>
<text text-anchor="start" x="737.5" y="-675.5" font-family="Helvetica,sans-Serif" font-size="10.00">* getCableNumber()</text>
<text text-anchor="start" x="737.5" y="-664.5" font-family="Helvetica,sans-Serif" font-size="10.00">* operator==()</text>
<text text-anchor="start" x="737.5" y="-653.5" font-family="Helvetica,sans-Serif" font-size="10.00">* operator!=()</text>
<text text-anchor="start" x="737.5" y="-642.5" font-family="Helvetica,sans-Serif" font-size="10.00">* isValid()</text>
<text text-anchor="start" x="737.5" y="-631.5" font-family="Helvetica,sans-Serif" font-size="10.00">* operator bool()</text>
<text text-anchor="start" x="737.5" y="-620.5" font-family="Helvetica,sans-Serif" font-size="10.00">* matchSingle()</text>
<text text-anchor="start" x="737.5" y="-609.5" font-family="Helvetica,sans-Serif" font-size="10.00">* matchAddressInRange()</text>
</a>
</g>
</g>
<!-- Node14&#45;&gt;Node10 -->
<g id="edge13" class="edge">
<title>Node14&#45;&gt;Node10</title>
<path fill="none" stroke="#404040" d="M777.24,-602.31C770.2,-562.29 762.88,-520.73 757.4,-489.55"/>
<polygon fill="none" stroke="#404040" points="757.39,-489.53 752.41,-484.31 755.31,-477.71 760.29,-482.93 757.39,-489.53"/>
<text text-anchor="middle" x="796.5" y="-576" font-family="Helvetica,sans-Serif" font-size="10.00"> &#45;address</text>
</g>
</g>
</svg>
