<?xml version="1.0" encoding="UTF-8" standalone="no"?>
<!DOCTYPE svg PUBLIC "-//W3C//DTD SVG 1.1//EN"
 "http://www.w3.org/Graphics/SVG/1.1/DTD/svg11.dtd">
<!-- Generated by graphviz version 2.43.0 (0)
 -->
<!-- Title: CCAbsoluteEncoder&lt; NumBanks &gt; Pages: 1 -->
<svg width="318pt" height="1017pt"
 viewBox="0.00 0.00 317.50 1017.00" xmlns="http://www.w3.org/2000/svg" xmlns:xlink="http://www.w3.org/1999/xlink">
<g id="graph0" class="graph" transform="scale(1 1) rotate(0) translate(4 1013)">
<title>CCAbsoluteEncoder&lt; NumBanks &gt;</title>
<polygon fill="white" stroke="transparent" points="-4,4 -4,-1013 313.5,-1013 313.5,4 -4,4"/>
<!-- Node1 -->
<g id="node1" class="node">
<title>Node1</title>
<g id="a_node1"><a xlink:title="A class of MIDIOutputElements that read the input of a quadrature (rotary) encoder and send out absol...">
<polygon fill="#bfbfbf" stroke="black" points="88,-0.5 88,-68.5 219,-68.5 219,-0.5 88,-0.5"/>
<text text-anchor="start" x="96" y="-56.5" font-family="Helvetica,sans-Serif" font-size="10.00">CCAbsoluteEncoder&lt;</text>
<text text-anchor="middle" x="153.5" y="-45.5" font-family="Helvetica,sans-Serif" font-size="10.00"> NumBanks &gt;</text>
<polyline fill="none" stroke="black" points="88,-38.5 219,-38.5 "/>
<text text-anchor="middle" x="153.5" y="-26.5" font-family="Helvetica,sans-Serif" font-size="10.00"> </text>
<polyline fill="none" stroke="black" points="88,-19.5 219,-19.5 "/>
<text text-anchor="start" x="96" y="-7.5" font-family="Helvetica,sans-Serif" font-size="10.00">+ CCAbsoluteEncoder()</text>
</a>
</g>
</g>
<!-- Node2 -->
<g id="node2" class="node">
<title>Node2</title>
<g id="a_node2"><a xlink:href="../../df/db5/classBankable_1_1GenericMIDIAbsoluteEncoder.html" target="_top" xlink:title="An abstract class for rotary encoders that send absolute MIDI events.">
<polygon fill="white" stroke="black" points="65,-106.5 65,-350.5 242,-350.5 242,-106.5 65,-106.5"/>
<text text-anchor="start" x="73" y="-338.5" font-family="Helvetica,sans-Serif" font-size="10.00">MIDIAbsoluteEncoder</text>
<text text-anchor="start" x="73" y="-327.5" font-family="Helvetica,sans-Serif" font-size="10.00">&lt; NumBanks, SingleAddress,</text>
<text text-anchor="middle" x="153.5" y="-316.5" font-family="Helvetica,sans-Serif" font-size="10.00"> ContinuousCCSender &gt;</text>
<polyline fill="none" stroke="black" points="65,-309.5 242,-309.5 "/>
<text text-anchor="start" x="73" y="-297.5" font-family="Helvetica,sans-Serif" font-size="10.00">+ sender</text>
<text text-anchor="start" x="73" y="-286.5" font-family="Helvetica,sans-Serif" font-size="10.00">&#45; encoder</text>
<text text-anchor="start" x="73" y="-275.5" font-family="Helvetica,sans-Serif" font-size="10.00">&#45; address</text>
<text text-anchor="start" x="73" y="-264.5" font-family="Helvetica,sans-Serif" font-size="10.00">&#45; speedMultiply</text>
<text text-anchor="start" x="73" y="-253.5" font-family="Helvetica,sans-Serif" font-size="10.00">&#45; pulsesPerStep</text>
<text text-anchor="start" x="73" y="-242.5" font-family="Helvetica,sans-Serif" font-size="10.00">&#45; remainder</text>
<text text-anchor="start" x="73" y="-231.5" font-family="Helvetica,sans-Serif" font-size="10.00">&#45; deltaOffset</text>
<text text-anchor="start" x="73" y="-220.5" font-family="Helvetica,sans-Serif" font-size="10.00">&#45; maxValue</text>
<polyline fill="none" stroke="black" points="65,-213.5 242,-213.5 "/>
<text text-anchor="start" x="73" y="-201.5" font-family="Helvetica,sans-Serif" font-size="10.00">+ GenericMIDIAbsoluteEncoder()</text>
<text text-anchor="start" x="73" y="-190.5" font-family="Helvetica,sans-Serif" font-size="10.00">+ begin()</text>
<text text-anchor="start" x="73" y="-179.5" font-family="Helvetica,sans-Serif" font-size="10.00">+ update()</text>
<text text-anchor="start" x="73" y="-168.5" font-family="Helvetica,sans-Serif" font-size="10.00">+ getValue()</text>
<text text-anchor="start" x="73" y="-157.5" font-family="Helvetica,sans-Serif" font-size="10.00">+ getValue()</text>
<text text-anchor="start" x="73" y="-146.5" font-family="Helvetica,sans-Serif" font-size="10.00">+ setValue()</text>
<text text-anchor="start" x="73" y="-135.5" font-family="Helvetica,sans-Serif" font-size="10.00">+ setValue()</text>
<text text-anchor="start" x="73" y="-124.5" font-family="Helvetica,sans-Serif" font-size="10.00">+ setSpeedMultiply()</text>
<text text-anchor="start" x="73" y="-113.5" font-family="Helvetica,sans-Serif" font-size="10.00">+ getSpeedMultiply()</text>
</a>
</g>
</g>
<!-- Node2&#45;&gt;Node1 -->
<g id="edge1" class="edge">
<title>Node2&#45;&gt;Node1</title>
<path fill="none" stroke="midnightblue" d="M153.5,-96.27C153.5,-86.27 153.5,-76.87 153.5,-68.58"/>
<polygon fill="none" stroke="midnightblue" points="150,-96.45 153.5,-106.45 157,-96.45 150,-96.45"/>
</g>
<!-- Node3 -->
<g id="node3" class="node">
<title>Node3</title>
<g id="a_node3"><a xlink:href="../../d1/d55/classAH_1_1Updatable.html" target="_top" xlink:title="A super class for object that have to be updated regularly.">
<polygon fill="white" stroke="black" points="20,-442.5 20,-532.5 133,-532.5 133,-442.5 20,-442.5"/>
<text text-anchor="middle" x="76.5" y="-520.5" font-family="Helvetica,sans-Serif" font-size="10.00">MIDIOutputElement</text>
<polyline fill="none" stroke="black" points="20,-513.5 133,-513.5 "/>
<text text-anchor="middle" x="76.5" y="-501.5" font-family="Helvetica,sans-Serif" font-size="10.00"> </text>
<polyline fill="none" stroke="black" points="20,-494.5 133,-494.5 "/>
<text text-anchor="start" x="28" y="-482.5" font-family="Helvetica,sans-Serif" font-size="10.00">* begin()</text>
<text text-anchor="start" x="28" y="-471.5" font-family="Helvetica,sans-Serif" font-size="10.00">* update()</text>
<text text-anchor="start" x="28" y="-460.5" font-family="Helvetica,sans-Serif" font-size="10.00">* beginAll()</text>
<text text-anchor="start" x="28" y="-449.5" font-family="Helvetica,sans-Serif" font-size="10.00">* updateAll()</text>
</a>
</g>
</g>
<!-- Node3&#45;&gt;Node2 -->
<g id="edge2" class="edge">
<title>Node3&#45;&gt;Node2</title>
<path fill="none" stroke="midnightblue" d="M92.61,-432.73C99.79,-408.77 108.56,-379.49 117.19,-350.7"/>
<polygon fill="none" stroke="midnightblue" points="89.25,-431.74 89.74,-442.32 95.96,-433.75 89.25,-431.74"/>
</g>
<!-- Node4 -->
<g id="node4" class="node">
<title>Node4</title>
<g id="a_node4"><a xlink:href="../../d8/d1a/classAH_1_1UpdatableCRTP.html" target="_top" xlink:title=" ">
<polygon fill="white" stroke="black" points="0,-614.5 0,-847.5 153,-847.5 153,-614.5 0,-614.5"/>
<text text-anchor="start" x="8" y="-835.5" font-family="Helvetica,sans-Serif" font-size="10.00">UpdatableCRTP&lt; Updatable</text>
<text text-anchor="middle" x="76.5" y="-824.5" font-family="Helvetica,sans-Serif" font-size="10.00">&lt; NormalUpdatable &gt; &gt;</text>
<polyline fill="none" stroke="black" points="0,-817.5 153,-817.5 "/>
<text text-anchor="start" x="8" y="-805.5" font-family="Helvetica,sans-Serif" font-size="10.00"># updatables</text>
<polyline fill="none" stroke="black" points="0,-798.5 153,-798.5 "/>
<text text-anchor="start" x="8" y="-786.5" font-family="Helvetica,sans-Serif" font-size="10.00">+ ~UpdatableCRTP()</text>
<text text-anchor="start" x="8" y="-775.5" font-family="Helvetica,sans-Serif" font-size="10.00"># UpdatableCRTP()</text>
<text text-anchor="start" x="8" y="-764.5" font-family="Helvetica,sans-Serif" font-size="10.00"># UpdatableCRTP()</text>
<text text-anchor="start" x="8" y="-753.5" font-family="Helvetica,sans-Serif" font-size="10.00"># UpdatableCRTP()</text>
<text text-anchor="start" x="8" y="-742.5" font-family="Helvetica,sans-Serif" font-size="10.00"># operator=()</text>
<text text-anchor="start" x="8" y="-731.5" font-family="Helvetica,sans-Serif" font-size="10.00"># operator=()</text>
<text text-anchor="start" x="8" y="-720.5" font-family="Helvetica,sans-Serif" font-size="10.00">* enable()</text>
<text text-anchor="start" x="8" y="-709.5" font-family="Helvetica,sans-Serif" font-size="10.00">* disable()</text>
<text text-anchor="start" x="8" y="-698.5" font-family="Helvetica,sans-Serif" font-size="10.00">* isEnabled()</text>
<text text-anchor="start" x="8" y="-687.5" font-family="Helvetica,sans-Serif" font-size="10.00">* moveDown()</text>
<text text-anchor="start" x="8" y="-676.5" font-family="Helvetica,sans-Serif" font-size="10.00">* enable()</text>
<text text-anchor="start" x="8" y="-665.5" font-family="Helvetica,sans-Serif" font-size="10.00">* enable()</text>
<text text-anchor="start" x="8" y="-654.5" font-family="Helvetica,sans-Serif" font-size="10.00">* enable()</text>
<text text-anchor="start" x="8" y="-643.5" font-family="Helvetica,sans-Serif" font-size="10.00">* disable()</text>
<text text-anchor="start" x="8" y="-632.5" font-family="Helvetica,sans-Serif" font-size="10.00">* disable()</text>
<text text-anchor="start" x="8" y="-621.5" font-family="Helvetica,sans-Serif" font-size="10.00">* disable()</text>
</a>
</g>
</g>
<!-- Node4&#45;&gt;Node3 -->
<g id="edge3" class="edge">
<title>Node4&#45;&gt;Node3</title>
<path fill="none" stroke="midnightblue" d="M76.5,-603.98C76.5,-578.34 76.5,-553.01 76.5,-532.64"/>
<polygon fill="none" stroke="midnightblue" points="73,-604.2 76.5,-614.2 80,-604.2 73,-604.2"/>
</g>
<!-- Node5 -->
<g id="node5" class="node">
<title>Node5</title>
<g id="a_node5"><a xlink:href="../../d4/d23/classDoublyLinkable.html" target="_top" xlink:title="A class that can be inherited from to allow inserting into a DoublyLinkedList.">
<polygon fill="white" stroke="black" points="6.5,-885.5 6.5,-1008.5 146.5,-1008.5 146.5,-885.5 6.5,-885.5"/>
<text text-anchor="middle" x="76.5" y="-996.5" font-family="Helvetica,sans-Serif" font-size="10.00">DoublyLinkable&lt; Node &gt;</text>
<polyline fill="none" stroke="black" points="6.5,-989.5 146.5,-989.5 "/>
<text text-anchor="start" x="14.5" y="-977.5" font-family="Helvetica,sans-Serif" font-size="10.00"># next</text>
<text text-anchor="start" x="14.5" y="-966.5" font-family="Helvetica,sans-Serif" font-size="10.00"># previous</text>
<polyline fill="none" stroke="black" points="6.5,-959.5 146.5,-959.5 "/>
<text text-anchor="start" x="14.5" y="-947.5" font-family="Helvetica,sans-Serif" font-size="10.00"># ~DoublyLinkable()</text>
<text text-anchor="start" x="14.5" y="-936.5" font-family="Helvetica,sans-Serif" font-size="10.00"># DoublyLinkable()</text>
<text text-anchor="start" x="14.5" y="-925.5" font-family="Helvetica,sans-Serif" font-size="10.00"># DoublyLinkable()</text>
<text text-anchor="start" x="14.5" y="-914.5" font-family="Helvetica,sans-Serif" font-size="10.00"># operator=()</text>
<text text-anchor="start" x="14.5" y="-903.5" font-family="Helvetica,sans-Serif" font-size="10.00"># DoublyLinkable()</text>
<text text-anchor="start" x="14.5" y="-892.5" font-family="Helvetica,sans-Serif" font-size="10.00"># operator=()</text>
</a>
</g>
</g>
<!-- Node5&#45;&gt;Node4 -->
<g id="edge4" class="edge">
<title>Node5&#45;&gt;Node4</title>
<path fill="none" stroke="midnightblue" d="M76.5,-875.03C76.5,-866.17 76.5,-856.94 76.5,-847.61"/>
<polygon fill="none" stroke="midnightblue" points="73,-875.25 76.5,-885.25 80,-875.25 73,-875.25"/>
</g>
<!-- Node6 -->
<g id="node6" class="node">
<title>Node6</title>
<g id="a_node6"><a xlink:href="../../d0/d32/structAH_1_1Array.html" target="_top" xlink:title=" ">
<polygon fill="white" stroke="black" points="151.5,-398.5 151.5,-576.5 309.5,-576.5 309.5,-398.5 151.5,-398.5"/>
<text text-anchor="middle" x="230.5" y="-564.5" font-family="Helvetica,sans-Serif" font-size="10.00">Array&lt; int16_t, NumBanks &gt;</text>
<polyline fill="none" stroke="black" points="151.5,-557.5 309.5,-557.5 "/>
<text text-anchor="start" x="159.5" y="-545.5" font-family="Helvetica,sans-Serif" font-size="10.00">+ data</text>
<text text-anchor="start" x="159.5" y="-534.5" font-family="Helvetica,sans-Serif" font-size="10.00">+ length</text>
<polyline fill="none" stroke="black" points="151.5,-527.5 309.5,-527.5 "/>
<text text-anchor="start" x="159.5" y="-515.5" font-family="Helvetica,sans-Serif" font-size="10.00">+ operator[]()</text>
<text text-anchor="start" x="159.5" y="-504.5" font-family="Helvetica,sans-Serif" font-size="10.00">+ operator[]()</text>
<text text-anchor="start" x="159.5" y="-493.5" font-family="Helvetica,sans-Serif" font-size="10.00">+ begin()</text>
<text text-anchor="start" x="159.5" y="-482.5" font-family="Helvetica,sans-Serif" font-size="10.00">+ begin()</text>
<text text-anchor="start" x="159.5" y="-471.5" font-family="Helvetica,sans-Serif" font-size="10.00">+ end()</text>
<text text-anchor="start" x="159.5" y="-460.5" font-family="Helvetica,sans-Serif" font-size="10.00">+ end()</text>
<text text-anchor="start" x="159.5" y="-449.5" font-family="Helvetica,sans-Serif" font-size="10.00">+ operator==()</text>
<text text-anchor="start" x="159.5" y="-438.5" font-family="Helvetica,sans-Serif" font-size="10.00">+ operator!=()</text>
<text text-anchor="start" x="159.5" y="-427.5" font-family="Helvetica,sans-Serif" font-size="10.00">+ slice()</text>
<text text-anchor="start" x="159.5" y="-416.5" font-family="Helvetica,sans-Serif" font-size="10.00">+ slice()</text>
<text text-anchor="start" x="159.5" y="-405.5" font-family="Helvetica,sans-Serif" font-size="10.00">+ cslice()</text>
</a>
</g>
</g>
<!-- Node6&#45;&gt;Node2 -->
<g id="edge5" class="edge">
<title>Node6&#45;&gt;Node2</title>
<path fill="none" stroke="#404040" d="M204.11,-398.41C200.61,-386.74 196.97,-374.58 193.3,-362.36"/>
<polygon fill="none" stroke="#404040" points="193.24,-362.13 187.68,-357.53 189.79,-350.64 195.35,-355.24 193.24,-362.13"/>
<text text-anchor="middle" x="216" y="-372" font-family="Helvetica,sans-Serif" font-size="10.00"> &#45;values</text>
</g>
</g>
</svg>
