<?xml version="1.0" encoding="UTF-8" standalone="no"?>
<!DOCTYPE svg PUBLIC "-//W3C//DTD SVG 1.1//EN"
 "http://www.w3.org/Graphics/SVG/1.1/DTD/svg11.dtd">
<!-- Generated by graphviz version 2.43.0 (0)
 -->
<!-- Title: SwitchSelector.hpp Pages: 1 -->
<svg width="1613pt" height="834pt"
 viewBox="0.00 0.00 1613.00 834.00" xmlns="http://www.w3.org/2000/svg" xmlns:xlink="http://www.w3.org/1999/xlink">
<g id="graph0" class="graph" transform="scale(1 1) rotate(0) translate(4 830)">
<title>SwitchSelector.hpp</title>
<polygon fill="white" stroke="transparent" points="-4,4 -4,-830 1609,-830 1609,4 -4,4"/>
<!-- Node1 -->
<g id="node1" class="node">
<title>Node1</title>
<g id="a_node1"><a xlink:title=" ">
<polygon fill="#bfbfbf" stroke="black" points="804.5,-806.5 804.5,-825.5 913.5,-825.5 913.5,-806.5 804.5,-806.5"/>
<text text-anchor="middle" x="859" y="-813.5" font-family="Helvetica,sans-Serif" font-size="10.00">SwitchSelector.hpp</text>
</a>
</g>
</g>
<!-- Node2 -->
<g id="node2" class="node">
<title>Node2</title>
<g id="a_node2"><a xlink:href="../../d6/d16/Selector_8hpp.html" target="_top" xlink:title=" ">
<polygon fill="white" stroke="black" points="787.5,-750.5 787.5,-769.5 864.5,-769.5 864.5,-750.5 787.5,-750.5"/>
<text text-anchor="middle" x="826" y="-757.5" font-family="Helvetica,sans-Serif" font-size="10.00">Selector.hpp</text>
</a>
</g>
</g>
<!-- Node1&#45;&gt;Node2 -->
<g id="edge1" class="edge">
<title>Node1&#45;&gt;Node2</title>
<path fill="none" stroke="midnightblue" d="M853.55,-806.08C848.99,-798.61 842.33,-787.72 836.71,-778.52"/>
<polygon fill="midnightblue" stroke="midnightblue" points="839.55,-776.46 831.35,-769.75 833.58,-780.11 839.55,-776.46"/>
</g>
<!-- Node35 -->
<g id="node35" class="node">
<title>Node35</title>
<g id="a_node35"><a xlink:href="../../d4/db3/Button_8hpp.html" target="_top" xlink:title=" ">
<polygon fill="white" stroke="black" points="1075.5,-694.5 1075.5,-713.5 1212.5,-713.5 1212.5,-694.5 1075.5,-694.5"/>
<text text-anchor="middle" x="1144" y="-701.5" font-family="Helvetica,sans-Serif" font-size="10.00">AH/Hardware/Button.hpp</text>
</a>
</g>
</g>
<!-- Node1&#45;&gt;Node35 -->
<g id="edge73" class="edge">
<title>Node1&#45;&gt;Node35</title>
<path fill="none" stroke="midnightblue" d="M881.36,-806.37C931.73,-786.93 1054.16,-739.67 1112.32,-717.23"/>
<polygon fill="midnightblue" stroke="midnightblue" points="1113.67,-720.46 1121.74,-713.59 1111.15,-713.93 1113.67,-720.46"/>
</g>
<!-- Node3 -->
<g id="node3" class="node">
<title>Node3</title>
<g id="a_node3"><a xlink:href="../../d9/d46/Selectable_8hpp.html" target="_top" xlink:title=" ">
<polygon fill="white" stroke="black" points="781.5,-694.5 781.5,-713.5 870.5,-713.5 870.5,-694.5 781.5,-694.5"/>
<text text-anchor="middle" x="826" y="-701.5" font-family="Helvetica,sans-Serif" font-size="10.00">Selectable.hpp</text>
</a>
</g>
</g>
<!-- Node2&#45;&gt;Node3 -->
<g id="edge2" class="edge">
<title>Node2&#45;&gt;Node3</title>
<path fill="none" stroke="midnightblue" d="M826,-750.08C826,-743.01 826,-732.86 826,-723.99"/>
<polygon fill="midnightblue" stroke="midnightblue" points="829.5,-723.75 826,-713.75 822.5,-723.75 829.5,-723.75"/>
</g>
<!-- Node6 -->
<g id="node6" class="node">
<title>Node6</title>
<g id="a_node6"><a xlink:href="../../df/dee/Debug_8hpp.html" target="_top" xlink:title=" ">
<polygon fill="white" stroke="black" points="338.5,-392.5 338.5,-411.5 459.5,-411.5 459.5,-392.5 338.5,-392.5"/>
<text text-anchor="middle" x="399" y="-399.5" font-family="Helvetica,sans-Serif" font-size="10.00">AH/Debug/Debug.hpp</text>
</a>
</g>
</g>
<!-- Node2&#45;&gt;Node6 -->
<g id="edge71" class="edge">
<title>Node2&#45;&gt;Node6</title>
<path fill="none" stroke="midnightblue" d="M787.26,-757.17C633.68,-749.4 76,-716.21 76,-643.5 76,-643.5 76,-643.5 76,-513 76,-474.58 99.45,-466.73 133,-448 165.67,-429.76 261.2,-416.75 328.38,-409.56"/>
<polygon fill="midnightblue" stroke="midnightblue" points="328.91,-413.02 338.49,-408.5 328.18,-406.06 328.91,-413.02"/>
</g>
<!-- Node24 -->
<g id="node24" class="node">
<title>Node24</title>
<g id="a_node24"><a xlink:href="../../d0/d4e/Def_8hpp.html" target="_top" xlink:title=" ">
<polygon fill="white" stroke="black" points="1149,-633 1149,-652 1223,-652 1223,-633 1149,-633"/>
<text text-anchor="middle" x="1186" y="-640" font-family="Helvetica,sans-Serif" font-size="10.00">Def/Def.hpp</text>
</a>
</g>
</g>
<!-- Node2&#45;&gt;Node24 -->
<g id="edge72" class="edge">
<title>Node2&#45;&gt;Node24</title>
<path fill="none" stroke="midnightblue" d="M852.76,-750.41C916.42,-729.99 1076.91,-678.5 1149.43,-655.23"/>
<polygon fill="midnightblue" stroke="midnightblue" points="1150.61,-658.53 1159.06,-652.14 1148.47,-651.87 1150.61,-658.53"/>
</g>
<!-- Node29 -->
<g id="node29" class="node">
<title>Node29</title>
<g id="a_node29"><a xlink:href="../../d4/d93/Updatable_8hpp.html" target="_top" xlink:title=" ">
<polygon fill="white" stroke="black" points="457.5,-504.5 457.5,-523.5 618.5,-523.5 618.5,-504.5 457.5,-504.5"/>
<text text-anchor="middle" x="538" y="-511.5" font-family="Helvetica,sans-Serif" font-size="10.00">AH/Containers/Updatable.hpp</text>
</a>
</g>
</g>
<!-- Node2&#45;&gt;Node29 -->
<g id="edge56" class="edge">
<title>Node2&#45;&gt;Node29</title>
<path fill="none" stroke="midnightblue" d="M815.75,-750.32C773.23,-714.3 610.44,-576.37 555.91,-530.18"/>
<polygon fill="midnightblue" stroke="midnightblue" points="558.02,-527.37 548.13,-523.58 553.49,-532.71 558.02,-527.37"/>
</g>
<!-- Node4 -->
<g id="node4" class="node">
<title>Node4</title>
<g id="a_node4"><a xlink:href="../../d1/d93/Error_8hpp.html" target="_top" xlink:title=" ">
<polygon fill="white" stroke="black" points="555,-448.5 555,-467.5 659,-467.5 659,-448.5 555,-448.5"/>
<text text-anchor="middle" x="607" y="-455.5" font-family="Helvetica,sans-Serif" font-size="10.00">AH/Error/Error.hpp</text>
</a>
</g>
</g>
<!-- Node3&#45;&gt;Node4 -->
<g id="edge3" class="edge">
<title>Node3&#45;&gt;Node4</title>
<path fill="none" stroke="midnightblue" d="M818.21,-694.32C786.08,-658.52 663.61,-522.07 621.4,-475.04"/>
<polygon fill="midnightblue" stroke="midnightblue" points="623.99,-472.68 614.7,-467.58 618.78,-477.36 623.99,-472.68"/>
</g>
<!-- Node13 -->
<g id="node13" class="node">
<title>Node13</title>
<g id="a_node13"><a xlink:title=" ">
<polygon fill="white" stroke="#bfbfbf" points="128.5,-112.5 128.5,-131.5 235.5,-131.5 235.5,-112.5 128.5,-112.5"/>
<text text-anchor="middle" x="182" y="-119.5" font-family="Helvetica,sans-Serif" font-size="10.00">AH/STL/type_traits</text>
</a>
</g>
</g>
<!-- Node3&#45;&gt;Node13 -->
<g id="edge36" class="edge">
<title>Node3&#45;&gt;Node13</title>
<path fill="none" stroke="midnightblue" d="M781.3,-696.78C609.33,-671.64 0,-570.73 0,-403 0,-403 0,-403 0,-233 0,-175.42 67.54,-147.17 120.33,-133.89"/>
<polygon fill="midnightblue" stroke="midnightblue" points="121.42,-137.23 130.33,-131.5 119.79,-130.42 121.42,-137.23"/>
</g>
<!-- Node21 -->
<g id="node21" class="node">
<title>Node21</title>
<g id="a_node21"><a xlink:title=" ">
<polygon fill="white" stroke="#bfbfbf" points="1362.5,-224.5 1362.5,-243.5 1415.5,-243.5 1415.5,-224.5 1362.5,-224.5"/>
<text text-anchor="middle" x="1389" y="-231.5" font-family="Helvetica,sans-Serif" font-size="10.00">stdint.h</text>
</a>
</g>
</g>
<!-- Node3&#45;&gt;Node21 -->
<g id="edge55" class="edge">
<title>Node3&#45;&gt;Node21</title>
<path fill="none" stroke="midnightblue" d="M870.76,-700.28C969.99,-693.94 1202.1,-677.23 1232,-658 1375.87,-565.48 1388.53,-323.02 1389.15,-253.74"/>
<polygon fill="midnightblue" stroke="midnightblue" points="1392.65,-253.52 1389.15,-243.51 1385.65,-253.51 1392.65,-253.52"/>
</g>
<!-- Node3&#45;&gt;Node24 -->
<g id="edge37" class="edge">
<title>Node3&#45;&gt;Node24</title>
<path fill="none" stroke="midnightblue" d="M870.5,-695.64C938.77,-684.36 1068.75,-662.88 1138.67,-651.32"/>
<polygon fill="midnightblue" stroke="midnightblue" points="1139.65,-654.71 1148.95,-649.62 1138.51,-647.8 1139.65,-654.71"/>
</g>
<!-- Node5 -->
<g id="node5" class="node">
<title>Node5</title>
<g id="a_node5"><a xlink:href="../../d1/d65/Warnings_8hpp.html" target="_top" xlink:title=" ">
<polygon fill="white" stroke="black" points="628.5,-0.5 628.5,-19.5 771.5,-19.5 771.5,-0.5 628.5,-0.5"/>
<text text-anchor="middle" x="700" y="-7.5" font-family="Helvetica,sans-Serif" font-size="10.00">AH/Settings/Warnings.hpp</text>
</a>
</g>
</g>
<!-- Node4&#45;&gt;Node5 -->
<g id="edge4" class="edge">
<title>Node4&#45;&gt;Node5</title>
<path fill="none" stroke="midnightblue" d="M554.85,-449.3C472.84,-437.18 321.8,-414.7 310,-412 214.77,-390.18 100,-444.7 100,-347 100,-347 100,-347 100,-177 100,-117.17 106.98,-85.56 159,-56 197.9,-33.9 476.7,-19.83 618.14,-14.03"/>
<polygon fill="midnightblue" stroke="midnightblue" points="618.65,-17.51 628.5,-13.61 618.36,-10.52 618.65,-17.51"/>
</g>
<!-- Node4&#45;&gt;Node6 -->
<g id="edge5" class="edge">
<title>Node4&#45;&gt;Node6</title>
<path fill="none" stroke="midnightblue" d="M574.04,-448.44C538.21,-439.14 480.84,-424.25 441.61,-414.06"/>
<polygon fill="midnightblue" stroke="midnightblue" points="442.36,-410.64 431.8,-411.52 440.6,-417.42 442.36,-410.64"/>
</g>
<!-- Node6&#45;&gt;Node5 -->
<g id="edge6" class="edge">
<title>Node6&#45;&gt;Node5</title>
<path fill="none" stroke="midnightblue" d="M377.92,-392.48C362.21,-385.08 341.4,-372.89 329,-356 278.09,-286.66 241.8,-243.51 283,-168 347.29,-50.15 516.05,-19.93 618.09,-12.69"/>
<polygon fill="midnightblue" stroke="midnightblue" points="618.61,-16.17 628.36,-12.03 618.15,-9.18 618.61,-16.17"/>
</g>
<!-- Node7 -->
<g id="node7" class="node">
<title>Node7</title>
<g id="a_node7"><a xlink:href="../../dd/d80/PrintStream_8hpp.html" target="_top" xlink:title=" ">
<polygon fill="white" stroke="black" points="357.5,-280.5 357.5,-299.5 530.5,-299.5 530.5,-280.5 357.5,-280.5"/>
<text text-anchor="middle" x="444" y="-287.5" font-family="Helvetica,sans-Serif" font-size="10.00">AH/PrintStream/PrintStream.hpp</text>
</a>
</g>
</g>
<!-- Node6&#45;&gt;Node7 -->
<g id="edge7" class="edge">
<title>Node6&#45;&gt;Node7</title>
<path fill="none" stroke="midnightblue" d="M406.84,-392.38C414.21,-383.79 424.99,-369.9 431,-356 437.35,-341.29 440.64,-323.36 442.32,-310.06"/>
<polygon fill="midnightblue" stroke="midnightblue" points="445.84,-310.07 443.42,-299.76 438.88,-309.33 445.84,-310.07"/>
</g>
<!-- Node15 -->
<g id="node15" class="node">
<title>Node15</title>
<g id="a_node15"><a xlink:href="../../de/dd1/AH_2Settings_2SettingsWrapper_8hpp.html" target="_top" xlink:title=" ">
<polygon fill="white" stroke="black" points="762,-336.5 762,-355.5 940,-355.5 940,-336.5 762,-336.5"/>
<text text-anchor="middle" x="851" y="-343.5" font-family="Helvetica,sans-Serif" font-size="10.00">AH/Settings/SettingsWrapper.hpp</text>
</a>
</g>
</g>
<!-- Node6&#45;&gt;Node15 -->
<g id="edge20" class="edge">
<title>Node6&#45;&gt;Node15</title>
<path fill="none" stroke="midnightblue" d="M456.32,-392.46C457.56,-392.3 458.78,-392.15 460,-392 562.49,-379.38 680.54,-365.58 759.95,-356.64"/>
<polygon fill="midnightblue" stroke="midnightblue" points="760.37,-360.11 769.92,-355.52 759.59,-353.16 760.37,-360.11"/>
</g>
<!-- Node23 -->
<g id="node23" class="node">
<title>Node23</title>
<g id="a_node23"><a xlink:href="../../d7/d52/DebugVal_8hpp.html" target="_top" xlink:title=" ">
<polygon fill="white" stroke="black" points="338,-336.5 338,-355.5 422,-355.5 422,-336.5 338,-336.5"/>
<text text-anchor="middle" x="380" y="-343.5" font-family="Helvetica,sans-Serif" font-size="10.00">DebugVal.hpp</text>
</a>
</g>
</g>
<!-- Node6&#45;&gt;Node23 -->
<g id="edge35" class="edge">
<title>Node6&#45;&gt;Node23</title>
<path fill="none" stroke="midnightblue" d="M395.86,-392.08C393.32,-384.85 389.64,-374.41 386.47,-365.4"/>
<polygon fill="midnightblue" stroke="midnightblue" points="389.7,-364.02 383.08,-355.75 383.1,-366.35 389.7,-364.02"/>
</g>
<!-- Node7&#45;&gt;Node5 -->
<g id="edge9" class="edge">
<title>Node7&#45;&gt;Node5</title>
<path fill="none" stroke="midnightblue" d="M444,-280.44C444,-261.94 444,-216.81 444,-179 444,-179 444,-179 444,-121 444,-43.96 543.08,-20.2 617.96,-13.25"/>
<polygon fill="midnightblue" stroke="midnightblue" points="618.68,-16.7 628.35,-12.37 618.09,-9.72 618.68,-16.7"/>
</g>
<!-- Node8 -->
<g id="node8" class="node">
<title>Node8</title>
<g id="a_node8"><a xlink:href="../../d6/db0/AH_2Settings_2NamespaceSettings_8hpp.html" target="_top" xlink:title=" ">
<polygon fill="white" stroke="black" points="766.5,-56.5 766.5,-75.5 961.5,-75.5 961.5,-56.5 766.5,-56.5"/>
<text text-anchor="middle" x="864" y="-63.5" font-family="Helvetica,sans-Serif" font-size="10.00">AH/Settings/NamespaceSettings.hpp</text>
</a>
</g>
</g>
<!-- Node7&#45;&gt;Node8 -->
<g id="edge8" class="edge">
<title>Node7&#45;&gt;Node8</title>
<path fill="none" stroke="midnightblue" d="M530.57,-286.36C617.49,-282.17 744.06,-271.43 784,-244 838.41,-206.63 856.39,-122.92 861.83,-85.59"/>
<polygon fill="midnightblue" stroke="midnightblue" points="865.31,-85.96 863.15,-75.59 858.37,-85.05 865.31,-85.96"/>
</g>
<!-- Node9 -->
<g id="node9" class="node">
<title>Node9</title>
<g id="a_node9"><a xlink:href="../../d6/ddf/Arduino-Wrapper_8h.html" target="_top" xlink:title=" ">
<polygon fill="white" stroke="black" points="292,-168.5 292,-187.5 416,-187.5 416,-168.5 292,-168.5"/>
<text text-anchor="middle" x="354" y="-175.5" font-family="Helvetica,sans-Serif" font-size="10.00">AH/Arduino&#45;Wrapper.h</text>
</a>
</g>
</g>
<!-- Node7&#45;&gt;Node9 -->
<g id="edge10" class="edge">
<title>Node7&#45;&gt;Node9</title>
<path fill="none" stroke="midnightblue" d="M436.94,-280.37C421.95,-262.05 386.77,-219.05 367.39,-195.36"/>
<polygon fill="midnightblue" stroke="midnightblue" points="370.07,-193.11 361.03,-187.59 364.65,-197.55 370.07,-193.11"/>
</g>
<!-- Node14 -->
<g id="node14" class="node">
<title>Node14</title>
<g id="a_node14"><a xlink:title=" ">
<polygon fill="white" stroke="#bfbfbf" points="1167,-224.5 1167,-243.5 1345,-243.5 1345,-224.5 1167,-224.5"/>
<text text-anchor="middle" x="1256" y="-231.5" font-family="Helvetica,sans-Serif" font-size="10.00">Settings/NamespaceSettings.hpp</text>
</a>
</g>
</g>
<!-- Node7&#45;&gt;Node14 -->
<g id="edge19" class="edge">
<title>Node7&#45;&gt;Node14</title>
<path fill="none" stroke="midnightblue" d="M530.51,-283.25C682.36,-273.15 995.94,-252.29 1156.5,-241.62"/>
<polygon fill="midnightblue" stroke="midnightblue" points="1157.11,-245.08 1166.85,-240.93 1156.64,-238.1 1157.11,-245.08"/>
</g>
<!-- Node10 -->
<g id="node10" class="node">
<title>Node10</title>
<g id="a_node10"><a xlink:href="../../d7/d79/MinMaxFix_8hpp.html" target="_top" xlink:title=" ">
<polygon fill="white" stroke="black" points="472,-112.5 472,-131.5 608,-131.5 608,-112.5 472,-112.5"/>
<text text-anchor="middle" x="540" y="-119.5" font-family="Helvetica,sans-Serif" font-size="10.00">AH/Math/MinMaxFix.hpp</text>
</a>
</g>
</g>
<!-- Node9&#45;&gt;Node10 -->
<g id="edge11" class="edge">
<title>Node9&#45;&gt;Node10</title>
<path fill="none" stroke="midnightblue" d="M383.47,-168.44C415.17,-159.24 465.73,-144.56 500.77,-134.39"/>
<polygon fill="midnightblue" stroke="midnightblue" points="502.04,-137.67 510.67,-131.52 500.09,-130.94 502.04,-137.67"/>
</g>
<!-- Node12 -->
<g id="node12" class="node">
<title>Node12</title>
<g id="a_node12"><a xlink:title=" ">
<polygon fill="white" stroke="#bfbfbf" points="146.5,-0.5 146.5,-19.5 209.5,-19.5 209.5,-0.5 146.5,-0.5"/>
<text text-anchor="middle" x="178" y="-7.5" font-family="Helvetica,sans-Serif" font-size="10.00">Arduino.h</text>
</a>
</g>
</g>
<!-- Node9&#45;&gt;Node12 -->
<g id="edge18" class="edge">
<title>Node9&#45;&gt;Node12</title>
<path fill="none" stroke="midnightblue" d="M340.78,-168.4C320.44,-155.36 280.05,-130.18 244,-112 207.37,-93.52 181.66,-110.2 159,-76 149.4,-61.51 157.23,-42.07 165.56,-28.23"/>
<polygon fill="midnightblue" stroke="midnightblue" points="168.61,-29.96 171.19,-19.68 162.77,-26.11 168.61,-29.96"/>
</g>
<!-- Node9&#45;&gt;Node13 -->
<g id="edge17" class="edge">
<title>Node9&#45;&gt;Node13</title>
<path fill="none" stroke="midnightblue" d="M326.75,-168.44C297.56,-159.28 251.08,-144.69 218.69,-134.52"/>
<polygon fill="midnightblue" stroke="midnightblue" points="219.72,-131.17 209.13,-131.52 217.62,-137.85 219.72,-131.17"/>
</g>
<!-- Node10&#45;&gt;Node5 -->
<g id="edge12" class="edge">
<title>Node10&#45;&gt;Node5</title>
<path fill="none" stroke="midnightblue" d="M549.99,-112.29C565.07,-99.32 594.8,-74.48 622,-56 638.92,-44.5 658.92,-33 674.43,-24.51"/>
<polygon fill="midnightblue" stroke="midnightblue" points="676.31,-27.47 683.44,-19.63 672.98,-21.31 676.31,-27.47"/>
</g>
<!-- Node10&#45;&gt;Node8 -->
<g id="edge16" class="edge">
<title>Node10&#45;&gt;Node8</title>
<path fill="none" stroke="midnightblue" d="M591.34,-112.44C648.81,-102.87 741.87,-87.36 803,-77.17"/>
<polygon fill="midnightblue" stroke="midnightblue" points="803.61,-80.61 812.9,-75.52 802.46,-73.71 803.61,-80.61"/>
</g>
<!-- Node11 -->
<g id="node11" class="node">
<title>Node11</title>
<g id="a_node11"><a xlink:href="../../d6/d3b/FixArduinoMacros_8hpp.html" target="_top" xlink:title=" ">
<polygon fill="white" stroke="black" points="168,-56.5 168,-75.5 338,-75.5 338,-56.5 168,-56.5"/>
<text text-anchor="middle" x="253" y="-63.5" font-family="Helvetica,sans-Serif" font-size="10.00">AH/Math/FixArduinoMacros.hpp</text>
</a>
</g>
</g>
<!-- Node10&#45;&gt;Node11 -->
<g id="edge13" class="edge">
<title>Node10&#45;&gt;Node11</title>
<path fill="none" stroke="midnightblue" d="M494.52,-112.44C444.04,-102.94 362.54,-87.61 308.38,-77.42"/>
<polygon fill="midnightblue" stroke="midnightblue" points="308.74,-73.93 298.26,-75.52 307.44,-80.81 308.74,-73.93"/>
</g>
<!-- Node11&#45;&gt;Node5 -->
<g id="edge14" class="edge">
<title>Node11&#45;&gt;Node5</title>
<path fill="none" stroke="midnightblue" d="M323.83,-56.44C404.26,-46.73 535.22,-30.91 619.47,-20.73"/>
<polygon fill="midnightblue" stroke="midnightblue" points="619.99,-24.19 629.5,-19.52 619.16,-17.24 619.99,-24.19"/>
</g>
<!-- Node11&#45;&gt;Node12 -->
<g id="edge15" class="edge">
<title>Node11&#45;&gt;Node12</title>
<path fill="none" stroke="midnightblue" d="M240.95,-56.32C229.54,-48.11 212.17,-35.6 198.57,-25.81"/>
<polygon fill="midnightblue" stroke="midnightblue" points="200.43,-22.84 190.27,-19.83 196.34,-28.52 200.43,-22.84"/>
</g>
<!-- Node15&#45;&gt;Node5 -->
<g id="edge21" class="edge">
<title>Node15&#45;&gt;Node5</title>
<path fill="none" stroke="midnightblue" d="M877.7,-336.47C896.4,-329.31 920.85,-317.43 937,-300 976.78,-257.06 989,-237.53 989,-179 989,-179 989,-179 989,-121 989,-91.02 993.29,-76.05 971,-56 943.71,-31.45 851.26,-20.15 781.88,-15.05"/>
<polygon fill="midnightblue" stroke="midnightblue" points="782.04,-11.55 771.82,-14.34 781.54,-18.53 782.04,-11.55"/>
</g>
<!-- Node15&#45;&gt;Node6 -->
<g id="edge34" class="edge">
<title>Node15&#45;&gt;Node6</title>
<path fill="none" stroke="midnightblue" d="M783.42,-355.52C708.67,-364.4 584.87,-378.84 478,-392 475.21,-392.34 472.35,-392.7 469.46,-393.06"/>
<polygon fill="midnightblue" stroke="midnightblue" points="469.02,-389.59 459.54,-394.3 469.89,-396.53 469.02,-389.59"/>
</g>
<!-- Node15&#45;&gt;Node8 -->
<g id="edge22" class="edge">
<title>Node15&#45;&gt;Node8</title>
<path fill="none" stroke="midnightblue" d="M874.79,-336.5C890.72,-329.41 910.46,-317.61 920,-300 959.99,-226.17 902.12,-123.94 875.84,-83.97"/>
<polygon fill="midnightblue" stroke="midnightblue" points="878.69,-81.94 870.19,-75.61 872.88,-85.85 878.69,-81.94"/>
</g>
<!-- Node16 -->
<g id="node16" class="node">
<title>Node16</title>
<g id="a_node16"><a xlink:href="../../d5/d4f/AH_2Settings_2Settings_8hpp.html" target="_top" xlink:title="All user settings and debugging options can be changed here.">
<polygon fill="white" stroke="black" points="833.5,-280.5 833.5,-299.5 910.5,-299.5 910.5,-280.5 833.5,-280.5"/>
<text text-anchor="middle" x="872" y="-287.5" font-family="Helvetica,sans-Serif" font-size="10.00">Settings.hpp</text>
</a>
</g>
</g>
<!-- Node15&#45;&gt;Node16 -->
<g id="edge23" class="edge">
<title>Node15&#45;&gt;Node16</title>
<path fill="none" stroke="midnightblue" d="M854.47,-336.08C857.31,-328.77 861.43,-318.18 864.96,-309.1"/>
<polygon fill="midnightblue" stroke="midnightblue" points="868.23,-310.34 868.6,-299.75 861.71,-307.8 868.23,-310.34"/>
</g>
<!-- Node22 -->
<g id="node22" class="node">
<title>Node22</title>
<g id="a_node22"><a xlink:href="../../d9/d98/TeensyUSBTypes_8hpp.html" target="_top" xlink:title=" ">
<polygon fill="white" stroke="black" points="642.5,-280.5 642.5,-299.5 815.5,-299.5 815.5,-280.5 642.5,-280.5"/>
<text text-anchor="middle" x="729" y="-287.5" font-family="Helvetica,sans-Serif" font-size="10.00">AH/Teensy/TeensyUSBTypes.hpp</text>
</a>
</g>
</g>
<!-- Node15&#45;&gt;Node22 -->
<g id="edge33" class="edge">
<title>Node15&#45;&gt;Node22</title>
<path fill="none" stroke="midnightblue" d="M831.67,-336.44C811.68,-327.6 780.26,-313.69 757.44,-303.59"/>
<polygon fill="midnightblue" stroke="midnightblue" points="758.8,-300.36 748.24,-299.52 755.97,-306.76 758.8,-300.36"/>
</g>
<!-- Node17 -->
<g id="node17" class="node">
<title>Node17</title>
<g id="a_node17"><a xlink:href="../../dc/d50/Frequency_8hpp.html" target="_top" xlink:title=" ">
<polygon fill="white" stroke="black" points="702,-112.5 702,-131.5 836,-131.5 836,-112.5 702,-112.5"/>
<text text-anchor="middle" x="769" y="-119.5" font-family="Helvetica,sans-Serif" font-size="10.00">AH/Types/Frequency.hpp</text>
</a>
</g>
</g>
<!-- Node16&#45;&gt;Node17 -->
<g id="edge24" class="edge">
<title>Node16&#45;&gt;Node17</title>
<path fill="none" stroke="midnightblue" d="M879.11,-280.33C888.61,-267.62 903.24,-243.35 894,-224 874.14,-182.43 827.89,-152.46 797.56,-136.43"/>
<polygon fill="midnightblue" stroke="midnightblue" points="798.83,-133.14 788.33,-131.72 795.64,-139.38 798.83,-133.14"/>
</g>
<!-- Node18 -->
<g id="node18" class="node">
<title>Node18</title>
<g id="a_node18"><a xlink:href="../../d7/d7c/ADCConfig_8hpp.html" target="_top" xlink:title="This file contains the platform&#45;specific ADC resolutions. By default, the library automatically selec...">
<polygon fill="white" stroke="black" points="617.5,-224.5 617.5,-243.5 774.5,-243.5 774.5,-224.5 617.5,-224.5"/>
<text text-anchor="middle" x="696" y="-231.5" font-family="Helvetica,sans-Serif" font-size="10.00">AH/Hardware/ADCConfig.hpp</text>
</a>
</g>
</g>
<!-- Node16&#45;&gt;Node18 -->
<g id="edge27" class="edge">
<title>Node16&#45;&gt;Node18</title>
<path fill="none" stroke="midnightblue" d="M844.11,-280.44C814.25,-271.28 766.69,-256.69 733.54,-246.52"/>
<polygon fill="midnightblue" stroke="midnightblue" points="734.34,-243.1 723.76,-243.52 732.29,-249.8 734.34,-243.1"/>
</g>
<!-- Node19 -->
<g id="node19" class="node">
<title>Node19</title>
<g id="a_node19"><a xlink:title=" ">
<polygon fill="white" stroke="#bfbfbf" points="831.5,-224.5 831.5,-243.5 884.5,-243.5 884.5,-224.5 831.5,-224.5"/>
<text text-anchor="middle" x="858" y="-231.5" font-family="Helvetica,sans-Serif" font-size="10.00">limits.h</text>
</a>
</g>
</g>
<!-- Node16&#45;&gt;Node19 -->
<g id="edge30" class="edge">
<title>Node16&#45;&gt;Node19</title>
<path fill="none" stroke="midnightblue" d="M869.69,-280.08C867.83,-272.93 865.16,-262.64 862.85,-253.69"/>
<polygon fill="midnightblue" stroke="midnightblue" points="866.17,-252.55 860.27,-243.75 859.39,-254.31 866.17,-252.55"/>
</g>
<!-- Node20 -->
<g id="node20" class="node">
<title>Node20</title>
<g id="a_node20"><a xlink:title=" ">
<polygon fill="white" stroke="#bfbfbf" points="1055,-224.5 1055,-243.5 1111,-243.5 1111,-224.5 1055,-224.5"/>
<text text-anchor="middle" x="1083" y="-231.5" font-family="Helvetica,sans-Serif" font-size="10.00">stddef.h</text>
</a>
</g>
</g>
<!-- Node16&#45;&gt;Node20 -->
<g id="edge31" class="edge">
<title>Node16&#45;&gt;Node20</title>
<path fill="none" stroke="midnightblue" d="M905.43,-280.44C943.38,-270.73 1005.16,-254.92 1044.93,-244.74"/>
<polygon fill="midnightblue" stroke="midnightblue" points="1045.97,-248.09 1054.79,-242.22 1044.23,-241.31 1045.97,-248.09"/>
</g>
<!-- Node16&#45;&gt;Node21 -->
<g id="edge32" class="edge">
<title>Node16&#45;&gt;Node21</title>
<path fill="none" stroke="midnightblue" d="M910.7,-287.47C991.28,-283.84 1183,-272.88 1352.25,-244.06"/>
<polygon fill="midnightblue" stroke="midnightblue" points="1353.08,-247.47 1362.34,-242.32 1351.89,-240.57 1353.08,-247.47"/>
</g>
<!-- Node17&#45;&gt;Node5 -->
<g id="edge25" class="edge">
<title>Node17&#45;&gt;Node5</title>
<path fill="none" stroke="midnightblue" d="M763.59,-112.37C752.25,-94.3 725.83,-52.18 710.86,-28.31"/>
<polygon fill="midnightblue" stroke="midnightblue" points="713.67,-26.2 705.39,-19.59 707.74,-29.92 713.67,-26.2"/>
</g>
<!-- Node17&#45;&gt;Node8 -->
<g id="edge26" class="edge">
<title>Node17&#45;&gt;Node8</title>
<path fill="none" stroke="midnightblue" d="M784.26,-112.32C799.22,-103.82 822.25,-90.73 839.73,-80.8"/>
<polygon fill="midnightblue" stroke="midnightblue" points="841.81,-83.64 848.77,-75.65 838.35,-77.55 841.81,-83.64"/>
</g>
<!-- Node18&#45;&gt;Node5 -->
<g id="edge28" class="edge">
<title>Node18&#45;&gt;Node5</title>
<path fill="none" stroke="midnightblue" d="M695.44,-224.49C694.22,-204.73 691.54,-154.21 693,-112 694,-83.23 696.58,-49.94 698.32,-29.68"/>
<polygon fill="midnightblue" stroke="midnightblue" points="701.81,-29.9 699.2,-19.64 694.84,-29.29 701.81,-29.9"/>
</g>
<!-- Node18&#45;&gt;Node9 -->
<g id="edge29" class="edge">
<title>Node18&#45;&gt;Node9</title>
<path fill="none" stroke="midnightblue" d="M641.81,-224.44C581.02,-214.85 482.51,-199.29 417.99,-189.1"/>
<polygon fill="midnightblue" stroke="midnightblue" points="418.36,-185.62 407.94,-187.52 417.27,-192.53 418.36,-185.62"/>
</g>
<!-- Node24&#45;&gt;Node14 -->
<g id="edge52" class="edge">
<title>Node24&#45;&gt;Node14</title>
<path fill="none" stroke="midnightblue" d="M1188.18,-632.98C1193.17,-612.69 1205,-559.86 1205,-515 1205,-515 1205,-515 1205,-345 1205,-309.24 1227.45,-272.51 1242.56,-251.84"/>
<polygon fill="midnightblue" stroke="midnightblue" points="1245.43,-253.85 1248.69,-243.77 1239.86,-249.61 1245.43,-253.85"/>
</g>
<!-- Node24&#45;&gt;Node20 -->
<g id="edge53" class="edge">
<title>Node24&#45;&gt;Node20</title>
<path fill="none" stroke="midnightblue" d="M1184.57,-632.95C1177.73,-592.65 1146.77,-417.89 1102,-280 1099.05,-270.93 1095.03,-261.14 1091.44,-253.01"/>
<polygon fill="midnightblue" stroke="midnightblue" points="1094.57,-251.45 1087.24,-243.79 1088.2,-254.35 1094.57,-251.45"/>
</g>
<!-- Node24&#45;&gt;Node21 -->
<g id="edge54" class="edge">
<title>Node24&#45;&gt;Node21</title>
<path fill="none" stroke="midnightblue" d="M1200.95,-632.87C1215.11,-624.01 1236.07,-608.98 1249,-591 1334.92,-471.46 1300.61,-413.34 1363,-280 1367.4,-270.6 1373.09,-260.57 1378.03,-252.36"/>
<polygon fill="midnightblue" stroke="midnightblue" points="1381.09,-254.07 1383.35,-243.72 1375.13,-250.4 1381.09,-254.07"/>
</g>
<!-- Node25 -->
<g id="node25" class="node">
<title>Node25</title>
<g id="a_node25"><a xlink:href="../../d7/d42/Channel_8hpp.html" target="_top" xlink:title=" ">
<polygon fill="white" stroke="black" points="1233.5,-280.5 1233.5,-299.5 1310.5,-299.5 1310.5,-280.5 1233.5,-280.5"/>
<text text-anchor="middle" x="1272" y="-287.5" font-family="Helvetica,sans-Serif" font-size="10.00">Channel.hpp</text>
</a>
</g>
</g>
<!-- Node24&#45;&gt;Node25 -->
<g id="edge38" class="edge">
<title>Node24&#45;&gt;Node25</title>
<path fill="none" stroke="midnightblue" d="M1194.61,-632.86C1212.91,-613.53 1254,-564.62 1254,-515 1254,-515 1254,-515 1254,-401 1254,-368.54 1261.73,-331.38 1267.06,-309.63"/>
<polygon fill="midnightblue" stroke="midnightblue" points="1270.49,-310.32 1269.57,-299.76 1263.71,-308.59 1270.49,-310.32"/>
</g>
<!-- Node26 -->
<g id="node26" class="node">
<title>Node26</title>
<g id="a_node26"><a xlink:href="../../de/d76/Array_8hpp.html" target="_top" xlink:title=" ">
<polygon fill="white" stroke="black" points="1003.5,-504.5 1003.5,-523.5 1138.5,-523.5 1138.5,-504.5 1003.5,-504.5"/>
<text text-anchor="middle" x="1071" y="-511.5" font-family="Helvetica,sans-Serif" font-size="10.00">AH/Containers/Array.hpp</text>
</a>
</g>
</g>
<!-- Node24&#45;&gt;Node26 -->
<g id="edge41" class="edge">
<title>Node24&#45;&gt;Node26</title>
<path fill="none" stroke="midnightblue" d="M1178.1,-632.81C1159.06,-611.86 1110.41,-558.35 1085.78,-531.25"/>
<polygon fill="midnightblue" stroke="midnightblue" points="1088.28,-528.8 1078.96,-523.76 1083.1,-533.51 1088.28,-528.8"/>
</g>
<!-- Node28 -->
<g id="node28" class="node">
<title>Node28</title>
<g id="a_node28"><a xlink:href="../../d4/d35/Hardware-Types_8hpp.html" target="_top" xlink:title=" ">
<polygon fill="white" stroke="black" points="1369.5,-560.5 1369.5,-590.5 1500.5,-590.5 1500.5,-560.5 1369.5,-560.5"/>
<text text-anchor="start" x="1377.5" y="-578.5" font-family="Helvetica,sans-Serif" font-size="10.00">AH/Hardware/Hardware</text>
<text text-anchor="middle" x="1435" y="-567.5" font-family="Helvetica,sans-Serif" font-size="10.00">&#45;Types.hpp</text>
</a>
</g>
</g>
<!-- Node24&#45;&gt;Node28 -->
<g id="edge47" class="edge">
<title>Node24&#45;&gt;Node28</title>
<path fill="none" stroke="midnightblue" d="M1218.81,-632.94C1257.48,-622.84 1322.63,-605.83 1371.33,-593.12"/>
<polygon fill="midnightblue" stroke="midnightblue" points="1372.35,-596.47 1381.14,-590.56 1370.58,-589.7 1372.35,-596.47"/>
</g>
<!-- Node25&#45;&gt;Node14 -->
<g id="edge40" class="edge">
<title>Node25&#45;&gt;Node14</title>
<path fill="none" stroke="midnightblue" d="M1269.36,-280.08C1267.21,-272.85 1264.12,-262.41 1261.45,-253.4"/>
<polygon fill="midnightblue" stroke="midnightblue" points="1264.79,-252.34 1258.59,-243.75 1258.08,-254.33 1264.79,-252.34"/>
</g>
<!-- Node25&#45;&gt;Node21 -->
<g id="edge39" class="edge">
<title>Node25&#45;&gt;Node21</title>
<path fill="none" stroke="midnightblue" d="M1290.54,-280.44C1309.62,-271.64 1339.57,-257.81 1361.44,-247.72"/>
<polygon fill="midnightblue" stroke="midnightblue" points="1362.93,-250.88 1370.55,-243.52 1360,-244.53 1362.93,-250.88"/>
</g>
<!-- Node26&#45;&gt;Node4 -->
<g id="edge43" class="edge">
<title>Node26&#45;&gt;Node4</title>
<path fill="none" stroke="midnightblue" d="M1003.34,-505.83C924.1,-497.32 788.93,-482.46 673,-468 671.74,-467.84 670.47,-467.68 669.19,-467.52"/>
<polygon fill="midnightblue" stroke="midnightblue" points="669.59,-464.04 659.22,-466.23 668.69,-470.99 669.59,-464.04"/>
</g>
<!-- Node26&#45;&gt;Node5 -->
<g id="edge42" class="edge">
<title>Node26&#45;&gt;Node5</title>
<path fill="none" stroke="midnightblue" d="M1077.99,-504.28C1084.55,-495.61 1094.05,-481.67 1099,-468 1143.11,-346.06 1139,-308.67 1139,-179 1139,-179 1139,-179 1139,-121 1139,-48.13 908.56,-23.11 781.59,-14.85"/>
<polygon fill="midnightblue" stroke="midnightblue" points="781.71,-11.36 771.51,-14.22 781.27,-18.34 781.71,-11.36"/>
</g>
<!-- Node26&#45;&gt;Node13 -->
<g id="edge45" class="edge">
<title>Node26&#45;&gt;Node13</title>
<path fill="none" stroke="midnightblue" d="M1003.2,-511.91C928.73,-509.05 806.38,-499.44 706,-468 687.79,-462.29 686.26,-453.55 668,-448 595.73,-426.02 388.3,-460.03 330,-412 306.67,-392.78 310,-377.23 310,-347 310,-347 310,-347 310,-289 310,-220.56 240.92,-163.09 204.26,-137.41"/>
<polygon fill="midnightblue" stroke="midnightblue" points="205.93,-134.31 195.7,-131.58 201.99,-140.1 205.93,-134.31"/>
</g>
<!-- Node26&#45;&gt;Node20 -->
<g id="edge46" class="edge">
<title>Node26&#45;&gt;Node20</title>
<path fill="none" stroke="midnightblue" d="M1073.7,-504.26C1079.16,-485.77 1091,-441.24 1091,-403 1091,-403 1091,-403 1091,-345 1091,-312.86 1087.56,-275.58 1085.19,-253.72"/>
<polygon fill="midnightblue" stroke="midnightblue" points="1088.64,-253.09 1084.05,-243.54 1081.69,-253.87 1088.64,-253.09"/>
</g>
<!-- Node27 -->
<g id="node27" class="node">
<title>Node27</title>
<g id="a_node27"><a xlink:title=" ">
<polygon fill="white" stroke="#bfbfbf" points="859,-392.5 859,-411.5 949,-411.5 949,-392.5 859,-392.5"/>
<text text-anchor="middle" x="904" y="-399.5" font-family="Helvetica,sans-Serif" font-size="10.00">AH/STL/iterator</text>
</a>
</g>
</g>
<!-- Node26&#45;&gt;Node27 -->
<g id="edge44" class="edge">
<title>Node26&#45;&gt;Node27</title>
<path fill="none" stroke="midnightblue" d="M1057.9,-504.37C1029.24,-485.49 960.76,-440.38 925.61,-417.24"/>
<polygon fill="midnightblue" stroke="midnightblue" points="927.32,-414.17 917.04,-411.59 923.47,-420.02 927.32,-414.17"/>
</g>
<!-- Node28&#45;&gt;Node5 -->
<g id="edge48" class="edge">
<title>Node28&#45;&gt;Node5</title>
<path fill="none" stroke="midnightblue" d="M1447.15,-560.26C1463.62,-539.46 1491,-498.89 1491,-459 1491,-459 1491,-459 1491,-121 1491,-49.96 984.08,-22.17 781.86,-13.9"/>
<polygon fill="midnightblue" stroke="midnightblue" points="781.72,-10.4 771.59,-13.49 781.44,-17.39 781.72,-10.4"/>
</g>
<!-- Node28&#45;&gt;Node8 -->
<g id="edge50" class="edge">
<title>Node28&#45;&gt;Node8</title>
<path fill="none" stroke="midnightblue" d="M1438.64,-560.39C1443.9,-538.73 1453,-495.94 1453,-459 1453,-459 1453,-459 1453,-289 1453,-257.54 1448.68,-244.7 1425,-224 1297.07,-112.14 1095.39,-79.48 971.89,-70.25"/>
<polygon fill="midnightblue" stroke="midnightblue" points="971.89,-66.74 961.67,-69.53 971.39,-73.72 971.89,-66.74"/>
</g>
<!-- Node28&#45;&gt;Node21 -->
<g id="edge51" class="edge">
<title>Node28&#45;&gt;Node21</title>
<path fill="none" stroke="midnightblue" d="M1430.95,-560.41C1425.11,-538.79 1415,-496.04 1415,-459 1415,-459 1415,-459 1415,-345 1415,-311.93 1403.73,-274.73 1396.03,-253.17"/>
<polygon fill="midnightblue" stroke="midnightblue" points="1399.27,-251.83 1392.51,-243.68 1392.71,-254.27 1399.27,-251.83"/>
</g>
<!-- Node28&#45;&gt;Node26 -->
<g id="edge49" class="edge">
<title>Node28&#45;&gt;Node26</title>
<path fill="none" stroke="midnightblue" d="M1369.08,-563.72C1302.09,-552.77 1199.08,-535.94 1133.38,-525.2"/>
<polygon fill="midnightblue" stroke="midnightblue" points="1133.61,-521.69 1123.17,-523.53 1132.48,-528.6 1133.61,-521.69"/>
</g>
<!-- Node29&#45;&gt;Node4 -->
<g id="edge66" class="edge">
<title>Node29&#45;&gt;Node4</title>
<path fill="none" stroke="midnightblue" d="M549.09,-504.32C559.49,-496.18 575.26,-483.84 587.72,-474.09"/>
<polygon fill="midnightblue" stroke="midnightblue" points="589.99,-476.75 595.71,-467.83 585.68,-471.24 589.99,-476.75"/>
</g>
<!-- Node29&#45;&gt;Node5 -->
<g id="edge57" class="edge">
<title>Node29&#45;&gt;Node5</title>
<path fill="none" stroke="midnightblue" d="M618.65,-510.85C754.66,-505.02 1015,-483.36 1015,-403 1015,-403 1015,-403 1015,-345 1015,-216.15 1084.96,-145.22 992,-56 962.6,-27.79 857.24,-17.26 781.52,-13.33"/>
<polygon fill="midnightblue" stroke="midnightblue" points="781.66,-9.84 771.51,-12.84 781.32,-16.83 781.66,-9.84"/>
</g>
<!-- Node29&#45;&gt;Node13 -->
<g id="edge67" class="edge">
<title>Node29&#45;&gt;Node13</title>
<path fill="none" stroke="midnightblue" d="M457.26,-509.71C345.3,-504.3 154.2,-491.69 133,-468 89.23,-419.1 154.84,-205.31 175.87,-141.22"/>
<polygon fill="midnightblue" stroke="midnightblue" points="179.22,-142.26 179.05,-131.66 172.57,-140.05 179.22,-142.26"/>
</g>
<!-- Node29&#45;&gt;Node15 -->
<g id="edge69" class="edge">
<title>Node29&#45;&gt;Node15</title>
<path fill="none" stroke="midnightblue" d="M618.68,-508.01C715.14,-501.2 865.81,-487.57 883,-468 904.21,-443.85 851.78,-416.58 850,-412 844.25,-397.21 845.12,-379.05 847.07,-365.69"/>
<polygon fill="midnightblue" stroke="midnightblue" points="850.53,-366.24 848.84,-355.78 843.64,-365.01 850.53,-366.24"/>
</g>
<!-- Node29&#45;&gt;Node20 -->
<g id="edge70" class="edge">
<title>Node29&#45;&gt;Node20</title>
<path fill="none" stroke="midnightblue" d="M618.83,-508.79C709.72,-503.04 850.89,-490.74 899,-468 994.97,-422.62 1055.62,-299.45 1075.66,-253.03"/>
<polygon fill="midnightblue" stroke="midnightblue" points="1078.95,-254.22 1079.6,-243.65 1072.5,-251.51 1078.95,-254.22"/>
</g>
<!-- Node30 -->
<g id="node30" class="node">
<title>Node30</title>
<g id="a_node30"><a xlink:href="../../d8/db4/AH_2Containers_2CRTP_8hpp.html" target="_top" xlink:title=" ">
<polygon fill="white" stroke="black" points="403,-448.5 403,-467.5 537,-467.5 537,-448.5 403,-448.5"/>
<text text-anchor="middle" x="470" y="-455.5" font-family="Helvetica,sans-Serif" font-size="10.00">AH/Containers/CRTP.hpp</text>
</a>
</g>
</g>
<!-- Node29&#45;&gt;Node30 -->
<g id="edge58" class="edge">
<title>Node29&#45;&gt;Node30</title>
<path fill="none" stroke="midnightblue" d="M527.07,-504.32C516.83,-496.18 501.28,-483.84 489,-474.09"/>
<polygon fill="midnightblue" stroke="midnightblue" points="491.13,-471.31 481.12,-467.83 486.78,-476.79 491.13,-471.31"/>
</g>
<!-- Node31 -->
<g id="node31" class="node">
<title>Node31</title>
<g id="a_node31"><a xlink:href="../../de/dd1/LinkedList_8hpp.html" target="_top" xlink:title=" ">
<polygon fill="white" stroke="black" points="714.5,-448.5 714.5,-467.5 873.5,-467.5 873.5,-448.5 714.5,-448.5"/>
<text text-anchor="middle" x="794" y="-455.5" font-family="Helvetica,sans-Serif" font-size="10.00">AH/Containers/LinkedList.hpp</text>
</a>
</g>
</g>
<!-- Node29&#45;&gt;Node31 -->
<g id="edge59" class="edge">
<title>Node29&#45;&gt;Node31</title>
<path fill="none" stroke="midnightblue" d="M578.56,-504.44C623.32,-495 695.38,-479.8 743.7,-469.61"/>
<polygon fill="midnightblue" stroke="midnightblue" points="744.56,-473.01 753.63,-467.52 743.12,-466.16 744.56,-473.01"/>
</g>
<!-- Node33 -->
<g id="node33" class="node">
<title>Node33</title>
<g id="a_node33"><a xlink:href="../../d4/d84/Mutex_8hpp.html" target="_top" xlink:title=" ">
<polygon fill="white" stroke="black" points="142.5,-448.5 142.5,-467.5 283.5,-467.5 283.5,-448.5 142.5,-448.5"/>
<text text-anchor="middle" x="213" y="-455.5" font-family="Helvetica,sans-Serif" font-size="10.00">AH/Containers/Mutex.hpp</text>
</a>
</g>
</g>
<!-- Node29&#45;&gt;Node33 -->
<g id="edge65" class="edge">
<title>Node29&#45;&gt;Node33</title>
<path fill="none" stroke="midnightblue" d="M486.5,-504.44C428.86,-494.87 335.51,-479.36 274.19,-469.17"/>
<polygon fill="midnightblue" stroke="midnightblue" points="274.69,-465.7 264.26,-467.52 273.55,-472.61 274.69,-465.7"/>
</g>
<!-- Node34 -->
<g id="node34" class="node">
<title>Node34</title>
<g id="a_node34"><a xlink:title=" ">
<polygon fill="white" stroke="#bfbfbf" points="301.5,-448.5 301.5,-467.5 384.5,-467.5 384.5,-448.5 301.5,-448.5"/>
<text text-anchor="middle" x="343" y="-455.5" font-family="Helvetica,sans-Serif" font-size="10.00">AH/STL/utility</text>
</a>
</g>
</g>
<!-- Node29&#45;&gt;Node34 -->
<g id="edge68" class="edge">
<title>Node29&#45;&gt;Node34</title>
<path fill="none" stroke="midnightblue" d="M507.1,-504.44C473.73,-495.2 420.41,-480.44 383.65,-470.26"/>
<polygon fill="midnightblue" stroke="midnightblue" points="384.33,-466.81 373.75,-467.52 382.46,-473.56 384.33,-466.81"/>
</g>
<!-- Node31&#45;&gt;Node5 -->
<g id="edge60" class="edge">
<title>Node31&#45;&gt;Node5</title>
<path fill="none" stroke="midnightblue" d="M780.02,-448.4C740.67,-423.11 630.38,-344.36 609,-244 590.9,-159.07 656.6,-64.65 686.23,-27.39"/>
<polygon fill="midnightblue" stroke="midnightblue" points="689,-29.53 692.6,-19.57 683.57,-25.12 689,-29.53"/>
</g>
<!-- Node31&#45;&gt;Node6 -->
<g id="edge61" class="edge">
<title>Node31&#45;&gt;Node6</title>
<path fill="none" stroke="midnightblue" d="M731.41,-448.44C660.25,-438.72 544.33,-422.87 469.89,-412.69"/>
<polygon fill="midnightblue" stroke="midnightblue" points="470.06,-409.18 459.68,-411.29 469.11,-416.12 470.06,-409.18"/>
</g>
<!-- Node31&#45;&gt;Node10 -->
<g id="edge62" class="edge">
<title>Node31&#45;&gt;Node10</title>
<path fill="none" stroke="midnightblue" d="M714.35,-449.43C662.37,-442.78 600.95,-431.11 583,-412 546.12,-372.74 540.84,-199.73 540.11,-141.9"/>
<polygon fill="midnightblue" stroke="midnightblue" points="543.61,-141.64 540.01,-131.67 536.61,-141.7 543.61,-141.64"/>
</g>
<!-- Node31&#45;&gt;Node27 -->
<g id="edge64" class="edge">
<title>Node31&#45;&gt;Node27</title>
<path fill="none" stroke="midnightblue" d="M811.67,-448.32C829.39,-439.62 856.9,-426.12 877.29,-416.11"/>
<polygon fill="midnightblue" stroke="midnightblue" points="878.94,-419.2 886.37,-411.65 875.85,-412.92 878.94,-419.2"/>
</g>
<!-- Node32 -->
<g id="node32" class="node">
<title>Node32</title>
<g id="a_node32"><a xlink:title=" ">
<polygon fill="white" stroke="#bfbfbf" points="477.5,-392.5 477.5,-411.5 530.5,-411.5 530.5,-392.5 477.5,-392.5"/>
<text text-anchor="middle" x="504" y="-399.5" font-family="Helvetica,sans-Serif" font-size="10.00">stdlib.h</text>
</a>
</g>
</g>
<!-- Node31&#45;&gt;Node32 -->
<g id="edge63" class="edge">
<title>Node31&#45;&gt;Node32</title>
<path fill="none" stroke="midnightblue" d="M743.82,-448.5C693.46,-439.83 613.71,-425.74 545,-412 543.71,-411.74 542.41,-411.48 541.09,-411.21"/>
<polygon fill="midnightblue" stroke="midnightblue" points="541.38,-407.69 530.88,-409.05 539.94,-414.54 541.38,-407.69"/>
</g>
<!-- Node35&#45;&gt;Node5 -->
<g id="edge74" class="edge">
<title>Node35&#45;&gt;Node5</title>
<path fill="none" stroke="midnightblue" d="M1212.5,-702.67C1314.35,-701 1499.67,-693.06 1555,-658 1590.9,-635.25 1605,-619 1605,-576.5 1605,-576.5 1605,-576.5 1605,-121 1605,-47.12 1523.92,-72.9 1452,-56 1326.68,-26.56 949.44,-15.79 781.81,-12.38"/>
<polygon fill="midnightblue" stroke="midnightblue" points="781.87,-8.88 771.8,-12.18 781.73,-15.88 781.87,-8.88"/>
</g>
<!-- Node35&#45;&gt;Node15 -->
<g id="edge80" class="edge">
<title>Node35&#45;&gt;Node15</title>
<path fill="none" stroke="midnightblue" d="M1134.37,-694.33C1108.03,-670.09 1034.12,-598.45 995,-524 966.66,-470.06 998.31,-437.69 958,-392 943.8,-375.91 922.89,-365.41 903.32,-358.65"/>
<polygon fill="midnightblue" stroke="midnightblue" points="904.14,-355.24 893.55,-355.53 902.02,-361.91 904.14,-355.24"/>
</g>
<!-- Node36 -->
<g id="node36" class="node">
<title>Node36</title>
<g id="a_node36"><a xlink:href="../../dd/ddf/ExtendedInputOutput_8hpp.html" target="_top" xlink:title=" ">
<polygon fill="white" stroke="black" points="1368.5,-627.5 1368.5,-657.5 1545.5,-657.5 1545.5,-627.5 1368.5,-627.5"/>
<text text-anchor="start" x="1376.5" y="-645.5" font-family="Helvetica,sans-Serif" font-size="10.00">AH/Hardware/ExtendedInput</text>
<text text-anchor="middle" x="1457" y="-634.5" font-family="Helvetica,sans-Serif" font-size="10.00">Output/ExtendedInputOutput.hpp</text>
</a>
</g>
</g>
<!-- Node35&#45;&gt;Node36 -->
<g id="edge75" class="edge">
<title>Node35&#45;&gt;Node36</title>
<path fill="none" stroke="midnightblue" d="M1188.85,-694.48C1236.78,-685.36 1313.89,-670.71 1373.14,-659.44"/>
<polygon fill="midnightblue" stroke="midnightblue" points="1374.06,-662.83 1383.23,-657.52 1372.75,-655.95 1374.06,-662.83"/>
</g>
<!-- Node36&#45;&gt;Node5 -->
<g id="edge77" class="edge">
<title>Node36&#45;&gt;Node5</title>
<path fill="none" stroke="midnightblue" d="M1484.66,-627.39C1499.85,-618.56 1518.17,-606.02 1531,-591 1555.28,-562.59 1567,-552.38 1567,-515 1567,-515 1567,-515 1567,-121 1567,-42.31 997.63,-18.92 781.7,-12.88"/>
<polygon fill="midnightblue" stroke="midnightblue" points="781.78,-9.38 771.69,-12.6 781.59,-16.38 781.78,-9.38"/>
</g>
<!-- Node36&#45;&gt;Node8 -->
<g id="edge76" class="edge">
<title>Node36&#45;&gt;Node8</title>
<path fill="none" stroke="midnightblue" d="M1476.58,-627.43C1487.94,-618.27 1501.62,-605.39 1510,-591 1527.52,-560.91 1529,-549.82 1529,-515 1529,-515 1529,-515 1529,-233 1529,-119.59 1160.3,-83.03 971.97,-71.76"/>
<polygon fill="midnightblue" stroke="midnightblue" points="971.95,-68.25 961.77,-71.16 971.54,-75.24 971.95,-68.25"/>
</g>
<!-- Node36&#45;&gt;Node9 -->
<g id="edge78" class="edge">
<title>Node36&#45;&gt;Node9</title>
<path fill="none" stroke="midnightblue" d="M1368.29,-633.16C1076.29,-605.31 161.31,-514.61 119,-468 26.68,-366.28 249.36,-234.39 327.86,-192.43"/>
<polygon fill="midnightblue" stroke="midnightblue" points="329.89,-195.32 337.1,-187.55 326.62,-189.13 329.89,-195.32"/>
</g>
<!-- Node36&#45;&gt;Node28 -->
<g id="edge79" class="edge">
<title>Node36&#45;&gt;Node28</title>
<path fill="none" stroke="midnightblue" d="M1452.23,-627.4C1449.55,-619.47 1446.13,-609.38 1443.05,-600.27"/>
<polygon fill="midnightblue" stroke="midnightblue" points="1446.29,-598.93 1439.76,-590.58 1439.66,-601.17 1446.29,-598.93"/>
</g>
</g>
</svg>
