<?xml version="1.0" encoding="UTF-8" standalone="no"?>
<!DOCTYPE svg PUBLIC "-//W3C//DTD SVG 1.1//EN"
 "http://www.w3.org/Graphics/SVG/1.1/DTD/svg11.dtd">
<!-- Generated by graphviz version 2.43.0 (0)
 -->
<!-- Title: AudioVULEDs&lt; N &gt; Pages: 1 -->
<svg width="532pt" height="713pt"
 viewBox="0.00 0.00 531.50 713.00" xmlns="http://www.w3.org/2000/svg" xmlns:xlink="http://www.w3.org/1999/xlink">
<g id="graph0" class="graph" transform="scale(1 1) rotate(0) translate(4 709)">
<title>AudioVULEDs&lt; N &gt;</title>
<polygon fill="white" stroke="transparent" points="-4,4 -4,-709 527.5,-709 527.5,4 -4,4"/>
<!-- Node1 -->
<g id="node1" class="node">
<title>Node1</title>
<g id="a_node1"><a xlink:title="A VU meter that reads from an Audio stream using the AudioAnalyzePeak class, and displays it on an LE...">
<polygon fill="#bfbfbf" stroke="black" points="239,-0.5 239,-123.5 352,-123.5 352,-0.5 239,-0.5"/>
<text text-anchor="middle" x="295.5" y="-111.5" font-family="Helvetica,sans-Serif" font-size="10.00">AudioVULEDs&lt; N &gt;</text>
<polyline fill="none" stroke="black" points="239,-104.5 352,-104.5 "/>
<text text-anchor="start" x="247" y="-92.5" font-family="Helvetica,sans-Serif" font-size="10.00">&#45; vuleds</text>
<text text-anchor="start" x="247" y="-81.5" font-family="Helvetica,sans-Serif" font-size="10.00">&#45; previousValue</text>
<polyline fill="none" stroke="black" points="239,-74.5 352,-74.5 "/>
<text text-anchor="start" x="247" y="-62.5" font-family="Helvetica,sans-Serif" font-size="10.00">+ AudioVULEDs()</text>
<text text-anchor="start" x="247" y="-51.5" font-family="Helvetica,sans-Serif" font-size="10.00">+ begin()</text>
<text text-anchor="start" x="247" y="-40.5" font-family="Helvetica,sans-Serif" font-size="10.00">+ update()</text>
<text text-anchor="start" x="247" y="-29.5" font-family="Helvetica,sans-Serif" font-size="10.00">+ setMode()</text>
<text text-anchor="start" x="247" y="-18.5" font-family="Helvetica,sans-Serif" font-size="10.00">+ dotMode()</text>
<text text-anchor="start" x="247" y="-7.5" font-family="Helvetica,sans-Serif" font-size="10.00">+ barMode()</text>
</a>
</g>
</g>
<!-- Node2 -->
<g id="node2" class="node">
<title>Node2</title>
<g id="a_node2"><a xlink:href="../../d4/dce/classAudioVU.html" target="_top" xlink:title="A VU meter that reads from an Audio stream using the Analyzer class.">
<polygon fill="white" stroke="black" points="177,-161.5 177,-273.5 280,-273.5 280,-161.5 177,-161.5"/>
<text text-anchor="middle" x="228.5" y="-261.5" font-family="Helvetica,sans-Serif" font-size="10.00">AudioVU</text>
<polyline fill="none" stroke="black" points="177,-254.5 280,-254.5 "/>
<text text-anchor="start" x="185" y="-242.5" font-family="Helvetica,sans-Serif" font-size="10.00">&#45; gain</text>
<polyline fill="none" stroke="black" points="177,-235.5 280,-235.5 "/>
<text text-anchor="start" x="185" y="-223.5" font-family="Helvetica,sans-Serif" font-size="10.00">+ AudioVU()</text>
<text text-anchor="start" x="185" y="-212.5" font-family="Helvetica,sans-Serif" font-size="10.00">+ AudioVU()</text>
<text text-anchor="start" x="185" y="-201.5" font-family="Helvetica,sans-Serif" font-size="10.00">+ getValue()</text>
<text text-anchor="start" x="185" y="-190.5" font-family="Helvetica,sans-Serif" font-size="10.00">+ getFloatValue()</text>
<text text-anchor="start" x="185" y="-179.5" font-family="Helvetica,sans-Serif" font-size="10.00">+ getOverload()</text>
<text text-anchor="start" x="185" y="-168.5" font-family="Helvetica,sans-Serif" font-size="10.00">+ setGain()</text>
</a>
</g>
</g>
<!-- Node2&#45;&gt;Node1 -->
<g id="edge1" class="edge">
<title>Node2&#45;&gt;Node1</title>
<path fill="none" stroke="midnightblue" d="M256.74,-151.81C260.83,-142.44 265.03,-132.82 269.08,-123.53"/>
<polygon fill="none" stroke="midnightblue" points="253.48,-150.52 252.69,-161.08 259.9,-153.32 253.48,-150.52"/>
</g>
<!-- Node3 -->
<g id="node3" class="node">
<title>Node3</title>
<g id="a_node3"><a xlink:href="../../dc/d25/classInterfaces_1_1MCU_1_1IVU.html" target="_top" xlink:title="An abstract interface for VU meters.">
<polygon fill="white" stroke="black" points="0,-360 0,-505 103,-505 103,-360 0,-360"/>
<text text-anchor="middle" x="51.5" y="-493" font-family="Helvetica,sans-Serif" font-size="10.00">IVU</text>
<polyline fill="none" stroke="black" points="0,-486 103,-486 "/>
<text text-anchor="start" x="8" y="-474" font-family="Helvetica,sans-Serif" font-size="10.00"># max</text>
<text text-anchor="start" x="8" y="-463" font-family="Helvetica,sans-Serif" font-size="10.00"># alwaysDirty</text>
<text text-anchor="start" x="8" y="-452" font-family="Helvetica,sans-Serif" font-size="10.00"># dirty</text>
<polyline fill="none" stroke="black" points="0,-445 103,-445 "/>
<text text-anchor="start" x="8" y="-433" font-family="Helvetica,sans-Serif" font-size="10.00">+ IVU()</text>
<text text-anchor="start" x="8" y="-422" font-family="Helvetica,sans-Serif" font-size="10.00">+ getValue()</text>
<text text-anchor="start" x="8" y="-411" font-family="Helvetica,sans-Serif" font-size="10.00">+ getOverload()</text>
<text text-anchor="start" x="8" y="-400" font-family="Helvetica,sans-Serif" font-size="10.00">+ getFloatValue()</text>
<text text-anchor="start" x="8" y="-389" font-family="Helvetica,sans-Serif" font-size="10.00">+ getMax()</text>
<text text-anchor="start" x="8" y="-378" font-family="Helvetica,sans-Serif" font-size="10.00">* getDirty()</text>
<text text-anchor="start" x="8" y="-367" font-family="Helvetica,sans-Serif" font-size="10.00">* clearDirty()</text>
</a>
</g>
</g>
<!-- Node3&#45;&gt;Node2 -->
<g id="edge2" class="edge">
<title>Node3&#45;&gt;Node2</title>
<path fill="none" stroke="midnightblue" d="M91.57,-351.09C98.03,-340.6 105.06,-330.28 112.5,-321 131.16,-297.72 155.45,-275.36 176.97,-257.5"/>
<polygon fill="none" stroke="midnightblue" points="88.42,-349.55 86.29,-359.93 94.42,-353.14 88.42,-349.55"/>
</g>
<!-- Node4 -->
<g id="node4" class="node">
<title>Node4</title>
<g id="a_node4"><a xlink:href="../../d0/d49/classMovingCoilBallistics.html" target="_top" xlink:title=" ">
<polygon fill="white" stroke="black" points="121.5,-360 121.5,-505 255.5,-505 255.5,-360 121.5,-360"/>
<text text-anchor="middle" x="188.5" y="-493" font-family="Helvetica,sans-Serif" font-size="10.00">MovingCoilBallistics</text>
<polyline fill="none" stroke="black" points="121.5,-486 255.5,-486 "/>
<text text-anchor="start" x="129.5" y="-474" font-family="Helvetica,sans-Serif" font-size="10.00">&#45; springConstant</text>
<text text-anchor="start" x="129.5" y="-463" font-family="Helvetica,sans-Serif" font-size="10.00">&#45; friction</text>
<text text-anchor="start" x="129.5" y="-452" font-family="Helvetica,sans-Serif" font-size="10.00">&#45; Ts</text>
<text text-anchor="start" x="129.5" y="-441" font-family="Helvetica,sans-Serif" font-size="10.00">&#45; x</text>
<text text-anchor="start" x="129.5" y="-430" font-family="Helvetica,sans-Serif" font-size="10.00">&#45; x_dot</text>
<polyline fill="none" stroke="black" points="121.5,-423 255.5,-423 "/>
<text text-anchor="start" x="129.5" y="-411" font-family="Helvetica,sans-Serif" font-size="10.00">+ MovingCoilBallistics()</text>
<text text-anchor="start" x="129.5" y="-400" font-family="Helvetica,sans-Serif" font-size="10.00">+ operator()()</text>
<text text-anchor="start" x="129.5" y="-389" font-family="Helvetica,sans-Serif" font-size="10.00">+ officialVU()</text>
<text text-anchor="start" x="129.5" y="-378" font-family="Helvetica,sans-Serif" font-size="10.00">+ responsiveVU()</text>
<text text-anchor="start" x="129.5" y="-367" font-family="Helvetica,sans-Serif" font-size="10.00">+ noOvershoot()</text>
</a>
</g>
</g>
<!-- Node4&#45;&gt;Node2 -->
<g id="edge3" class="edge">
<title>Node4&#45;&gt;Node2</title>
<path fill="none" stroke="#404040" d="M201.93,-359.98C206.43,-336 211.44,-309.36 215.88,-285.72"/>
<polygon fill="none" stroke="#404040" points="215.93,-285.46 213.1,-278.82 218.14,-273.66 220.96,-280.3 215.93,-285.46"/>
<text text-anchor="middle" x="239" y="-295" font-family="Helvetica,sans-Serif" font-size="10.00"> &#45;ballistics</text>
</g>
<!-- Node5 -->
<g id="node5" class="node">
<title>Node5</title>
<g id="a_node5"><a xlink:href="../../d0/d18/classAudioVU_1_1Analyzer.html" target="_top" xlink:title="The AudioAnalyzePeak and AudioAnalyzeRMS classes don&#39;t implement a common interface,...">
<polygon fill="white" stroke="black" points="273.5,-382 273.5,-483 353.5,-483 353.5,-382 273.5,-382"/>
<text text-anchor="middle" x="313.5" y="-471" font-family="Helvetica,sans-Serif" font-size="10.00">Analyzer</text>
<polyline fill="none" stroke="black" points="273.5,-464 353.5,-464 "/>
<text text-anchor="start" x="281.5" y="-452" font-family="Helvetica,sans-Serif" font-size="10.00">&#45; type</text>
<text text-anchor="start" x="281.5" y="-441" font-family="Helvetica,sans-Serif" font-size="10.00">&#45; analyzer</text>
<polyline fill="none" stroke="black" points="273.5,-434 353.5,-434 "/>
<text text-anchor="start" x="281.5" y="-422" font-family="Helvetica,sans-Serif" font-size="10.00">+ Analyzer()</text>
<text text-anchor="start" x="281.5" y="-411" font-family="Helvetica,sans-Serif" font-size="10.00">+ Analyzer()</text>
<text text-anchor="start" x="281.5" y="-400" font-family="Helvetica,sans-Serif" font-size="10.00">+ read()</text>
<text text-anchor="start" x="281.5" y="-389" font-family="Helvetica,sans-Serif" font-size="10.00">+ available()</text>
</a>
</g>
</g>
<!-- Node5&#45;&gt;Node2 -->
<g id="edge4" class="edge">
<title>Node5&#45;&gt;Node2</title>
<path fill="none" stroke="#404040" d="M299.96,-381.94C291.97,-354.91 280.99,-321.12 268.5,-292 267.45,-289.56 266.35,-287.09 265.21,-284.62"/>
<polygon fill="none" stroke="#404040" points="265.18,-284.55 258.97,-280.88 259.97,-273.74 266.18,-277.41 265.18,-284.55"/>
<text text-anchor="middle" x="288" y="-295" font-family="Helvetica,sans-Serif" font-size="10.00"> &#45;level</text>
</g>
<!-- Node6 -->
<g id="node6" class="node">
<title>Node6</title>
<g id="a_node6"><a xlink:href="../../d1/d55/classAH_1_1Updatable.html" target="_top" xlink:title=" ">
<polygon fill="white" stroke="black" points="318,-172.5 318,-262.5 449,-262.5 449,-172.5 318,-172.5"/>
<text text-anchor="middle" x="383.5" y="-250.5" font-family="Helvetica,sans-Serif" font-size="10.00">Updatable&lt; AudioVU &gt;</text>
<polyline fill="none" stroke="black" points="318,-243.5 449,-243.5 "/>
<text text-anchor="middle" x="383.5" y="-231.5" font-family="Helvetica,sans-Serif" font-size="10.00"> </text>
<polyline fill="none" stroke="black" points="318,-224.5 449,-224.5 "/>
<text text-anchor="start" x="326" y="-212.5" font-family="Helvetica,sans-Serif" font-size="10.00">* begin()</text>
<text text-anchor="start" x="326" y="-201.5" font-family="Helvetica,sans-Serif" font-size="10.00">* update()</text>
<text text-anchor="start" x="326" y="-190.5" font-family="Helvetica,sans-Serif" font-size="10.00">* beginAll()</text>
<text text-anchor="start" x="326" y="-179.5" font-family="Helvetica,sans-Serif" font-size="10.00">* updateAll()</text>
</a>
</g>
</g>
<!-- Node6&#45;&gt;Node1 -->
<g id="edge5" class="edge">
<title>Node6&#45;&gt;Node1</title>
<path fill="none" stroke="midnightblue" d="M353.05,-163.39C345.69,-150.55 337.77,-136.73 330.23,-123.57"/>
<polygon fill="none" stroke="midnightblue" points="350.04,-165.17 358.05,-172.1 356.11,-161.69 350.04,-165.17"/>
</g>
<!-- Node7 -->
<g id="node7" class="node">
<title>Node7</title>
<g id="a_node7"><a xlink:href="../../d8/d1a/classAH_1_1UpdatableCRTP.html" target="_top" xlink:title="A super class for object that have to be updated regularly.">
<polygon fill="white" stroke="black" points="371.5,-321.5 371.5,-543.5 523.5,-543.5 523.5,-321.5 371.5,-321.5"/>
<text text-anchor="middle" x="447.5" y="-531.5" font-family="Helvetica,sans-Serif" font-size="10.00">UpdatableCRTP&lt; Derived &gt;</text>
<polyline fill="none" stroke="black" points="371.5,-524.5 523.5,-524.5 "/>
<text text-anchor="start" x="379.5" y="-512.5" font-family="Helvetica,sans-Serif" font-size="10.00"># updatables</text>
<polyline fill="none" stroke="black" points="371.5,-505.5 523.5,-505.5 "/>
<text text-anchor="start" x="379.5" y="-493.5" font-family="Helvetica,sans-Serif" font-size="10.00">+ ~UpdatableCRTP()</text>
<text text-anchor="start" x="379.5" y="-482.5" font-family="Helvetica,sans-Serif" font-size="10.00"># UpdatableCRTP()</text>
<text text-anchor="start" x="379.5" y="-471.5" font-family="Helvetica,sans-Serif" font-size="10.00"># UpdatableCRTP()</text>
<text text-anchor="start" x="379.5" y="-460.5" font-family="Helvetica,sans-Serif" font-size="10.00"># operator=()</text>
<text text-anchor="start" x="379.5" y="-449.5" font-family="Helvetica,sans-Serif" font-size="10.00"># UpdatableCRTP()</text>
<text text-anchor="start" x="379.5" y="-438.5" font-family="Helvetica,sans-Serif" font-size="10.00"># operator=()</text>
<text text-anchor="start" x="379.5" y="-427.5" font-family="Helvetica,sans-Serif" font-size="10.00">* enable()</text>
<text text-anchor="start" x="379.5" y="-416.5" font-family="Helvetica,sans-Serif" font-size="10.00">* disable()</text>
<text text-anchor="start" x="379.5" y="-405.5" font-family="Helvetica,sans-Serif" font-size="10.00">* isEnabled()</text>
<text text-anchor="start" x="379.5" y="-394.5" font-family="Helvetica,sans-Serif" font-size="10.00">* moveDown()</text>
<text text-anchor="start" x="379.5" y="-383.5" font-family="Helvetica,sans-Serif" font-size="10.00">* enable()</text>
<text text-anchor="start" x="379.5" y="-372.5" font-family="Helvetica,sans-Serif" font-size="10.00">* enable()</text>
<text text-anchor="start" x="379.5" y="-361.5" font-family="Helvetica,sans-Serif" font-size="10.00">* enable()</text>
<text text-anchor="start" x="379.5" y="-350.5" font-family="Helvetica,sans-Serif" font-size="10.00">* disable()</text>
<text text-anchor="start" x="379.5" y="-339.5" font-family="Helvetica,sans-Serif" font-size="10.00">* disable()</text>
<text text-anchor="start" x="379.5" y="-328.5" font-family="Helvetica,sans-Serif" font-size="10.00">* disable()</text>
</a>
</g>
</g>
<!-- Node7&#45;&gt;Node6 -->
<g id="edge6" class="edge">
<title>Node7&#45;&gt;Node6</title>
<path fill="none" stroke="midnightblue" d="M411.45,-311.53C406.21,-294.09 401.12,-277.13 396.75,-262.58"/>
<polygon fill="none" stroke="midnightblue" points="408.15,-312.69 414.38,-321.26 414.85,-310.67 408.15,-312.69"/>
</g>
<!-- Node8 -->
<g id="node8" class="node">
<title>Node8</title>
<g id="a_node8"><a xlink:href="../../d4/d23/classDoublyLinkable.html" target="_top" xlink:title=" ">
<polygon fill="white" stroke="black" points="371.5,-581.5 371.5,-704.5 523.5,-704.5 523.5,-581.5 371.5,-581.5"/>
<text text-anchor="middle" x="447.5" y="-692.5" font-family="Helvetica,sans-Serif" font-size="10.00">DoublyLinkable&lt; Derived &gt;</text>
<polyline fill="none" stroke="black" points="371.5,-685.5 523.5,-685.5 "/>
<text text-anchor="start" x="379.5" y="-673.5" font-family="Helvetica,sans-Serif" font-size="10.00"># next</text>
<text text-anchor="start" x="379.5" y="-662.5" font-family="Helvetica,sans-Serif" font-size="10.00"># previous</text>
<polyline fill="none" stroke="black" points="371.5,-655.5 523.5,-655.5 "/>
<text text-anchor="start" x="379.5" y="-643.5" font-family="Helvetica,sans-Serif" font-size="10.00"># ~DoublyLinkable()</text>
<text text-anchor="start" x="379.5" y="-632.5" font-family="Helvetica,sans-Serif" font-size="10.00"># DoublyLinkable()</text>
<text text-anchor="start" x="379.5" y="-621.5" font-family="Helvetica,sans-Serif" font-size="10.00"># DoublyLinkable()</text>
<text text-anchor="start" x="379.5" y="-610.5" font-family="Helvetica,sans-Serif" font-size="10.00"># DoublyLinkable()</text>
<text text-anchor="start" x="379.5" y="-599.5" font-family="Helvetica,sans-Serif" font-size="10.00"># operator=()</text>
<text text-anchor="start" x="379.5" y="-588.5" font-family="Helvetica,sans-Serif" font-size="10.00"># operator=()</text>
</a>
</g>
</g>
<!-- Node8&#45;&gt;Node7 -->
<g id="edge7" class="edge">
<title>Node8&#45;&gt;Node7</title>
<path fill="none" stroke="midnightblue" d="M447.5,-571.17C447.5,-562.28 447.5,-553.04 447.5,-543.73"/>
<polygon fill="none" stroke="midnightblue" points="444,-571.41 447.5,-581.41 451,-571.41 444,-571.41"/>
</g>
</g>
</svg>
