<?xml version="1.0" encoding="UTF-8" standalone="no"?>
<!DOCTYPE svg PUBLIC "-//W3C//DTD SVG 1.1//EN"
 "http://www.w3.org/Graphics/SVG/1.1/DTD/svg11.dtd">
<!-- Generated by graphviz version 2.40.1 (20161225.0304)
 -->
<!-- Title: AudioVULEDs&lt; N &gt; Pages: 1 -->
<svg width="538pt" height="749pt"
 viewBox="0.00 0.00 537.50 749.00" xmlns="http://www.w3.org/2000/svg" xmlns:xlink="http://www.w3.org/1999/xlink">
<g id="graph0" class="graph" transform="scale(1 1) rotate(0) translate(4 745)">
<title>AudioVULEDs&lt; N &gt;</title>
<polygon fill="#ffffff" stroke="transparent" points="-4,4 -4,-745 533.5,-745 533.5,4 -4,4"/>
<!-- Node1 -->
<g id="node1" class="node">
<title>Node1</title>
<g id="a_node1"><a xlink:title="A VU meter that reads from an Audio stream using the AudioAnalyzePeak class, and displays it on an LE...">
<polygon fill="#bfbfbf" stroke="#000000" points="117,-77.5 117,-200.5 223,-200.5 223,-77.5 117,-77.5"/>
<text text-anchor="middle" x="170" y="-188.5" font-family="Helvetica,sans-Serif" font-size="10.00" fill="#000000">AudioVULEDs&lt; N &gt;</text>
<polyline fill="none" stroke="#000000" points="117,-181.5 223,-181.5 "/>
<text text-anchor="start" x="125" y="-169.5" font-family="Helvetica,sans-Serif" font-size="10.00" fill="#000000">&#45; vuleds</text>
<text text-anchor="start" x="125" y="-158.5" font-family="Helvetica,sans-Serif" font-size="10.00" fill="#000000">&#45; previousValue</text>
<polyline fill="none" stroke="#000000" points="117,-151.5 223,-151.5 "/>
<text text-anchor="start" x="125" y="-139.5" font-family="Helvetica,sans-Serif" font-size="10.00" fill="#000000">+ AudioVULEDs()</text>
<text text-anchor="start" x="125" y="-128.5" font-family="Helvetica,sans-Serif" font-size="10.00" fill="#000000">+ begin()</text>
<text text-anchor="start" x="125" y="-117.5" font-family="Helvetica,sans-Serif" font-size="10.00" fill="#000000">+ update()</text>
<text text-anchor="start" x="125" y="-106.5" font-family="Helvetica,sans-Serif" font-size="10.00" fill="#000000">+ setMode()</text>
<text text-anchor="start" x="125" y="-95.5" font-family="Helvetica,sans-Serif" font-size="10.00" fill="#000000">+ dotMode()</text>
<text text-anchor="start" x="125" y="-84.5" font-family="Helvetica,sans-Serif" font-size="10.00" fill="#000000">+ barMode()</text>
</a>
</g>
</g>
<!-- Node2 -->
<g id="node2" class="node">
<title>Node2</title>
<g id="a_node2"><a xlink:href="../../d4/dce/classAudioVU.html" target="_top" xlink:title="A VU meter that reads from an Audio stream using the Analyzer class.">
<polygon fill="#ffffff" stroke="#000000" points="124,-386 124,-498 216,-498 216,-386 124,-386"/>
<text text-anchor="middle" x="170" y="-486" font-family="Helvetica,sans-Serif" font-size="10.00" fill="#000000">AudioVU</text>
<polyline fill="none" stroke="#000000" points="124,-479 216,-479 "/>
<text text-anchor="start" x="132" y="-467" font-family="Helvetica,sans-Serif" font-size="10.00" fill="#000000">&#45; gain</text>
<polyline fill="none" stroke="#000000" points="124,-460 216,-460 "/>
<text text-anchor="start" x="132" y="-448" font-family="Helvetica,sans-Serif" font-size="10.00" fill="#000000">+ AudioVU()</text>
<text text-anchor="start" x="132" y="-437" font-family="Helvetica,sans-Serif" font-size="10.00" fill="#000000">+ AudioVU()</text>
<text text-anchor="start" x="132" y="-426" font-family="Helvetica,sans-Serif" font-size="10.00" fill="#000000">+ getValue()</text>
<text text-anchor="start" x="132" y="-415" font-family="Helvetica,sans-Serif" font-size="10.00" fill="#000000">+ getFloatValue()</text>
<text text-anchor="start" x="132" y="-404" font-family="Helvetica,sans-Serif" font-size="10.00" fill="#000000">+ getOverload()</text>
<text text-anchor="start" x="132" y="-393" font-family="Helvetica,sans-Serif" font-size="10.00" fill="#000000">+ setGain()</text>
</a>
</g>
</g>
<!-- Node2&#45;&gt;Node1 -->
<g id="edge1" class="edge">
<title>Node2&#45;&gt;Node1</title>
<path fill="none" stroke="#191970" d="M170,-375.5777C170,-323.4915 170,-251.5522 170,-200.7146"/>
<polygon fill="none" stroke="#191970" points="166.5001,-375.7181 170,-385.7181 173.5001,-375.7182 166.5001,-375.7181"/>
</g>
<!-- Node3 -->
<g id="node3" class="node">
<title>Node3</title>
<g id="a_node3"><a xlink:href="../../d2/de9/classIVU.html" target="_top" xlink:title="An abstract interface for VU meters.">
<polygon fill="#ffffff" stroke="#000000" points="0,-617.5 0,-718.5 92,-718.5 92,-617.5 0,-617.5"/>
<text text-anchor="middle" x="46" y="-706.5" font-family="Helvetica,sans-Serif" font-size="10.00" fill="#000000">IVU</text>
<polyline fill="none" stroke="#000000" points="0,-699.5 92,-699.5 "/>
<text text-anchor="start" x="8" y="-687.5" font-family="Helvetica,sans-Serif" font-size="10.00" fill="#000000"># max</text>
<polyline fill="none" stroke="#000000" points="0,-680.5 92,-680.5 "/>
<text text-anchor="start" x="8" y="-668.5" font-family="Helvetica,sans-Serif" font-size="10.00" fill="#000000">+ IVU()</text>
<text text-anchor="start" x="8" y="-657.5" font-family="Helvetica,sans-Serif" font-size="10.00" fill="#000000">+ getValue()</text>
<text text-anchor="start" x="8" y="-646.5" font-family="Helvetica,sans-Serif" font-size="10.00" fill="#000000">+ getOverload()</text>
<text text-anchor="start" x="8" y="-635.5" font-family="Helvetica,sans-Serif" font-size="10.00" fill="#000000">+ getFloatValue()</text>
<text text-anchor="start" x="8" y="-624.5" font-family="Helvetica,sans-Serif" font-size="10.00" fill="#000000">+ getMax()</text>
</a>
</g>
</g>
<!-- Node3&#45;&gt;Node2 -->
<g id="edge2" class="edge">
<title>Node3&#45;&gt;Node2</title>
<path fill="none" stroke="#191970" d="M78.7322,-608.3429C97.4644,-574.2019 120.8225,-531.63 139.2189,-498.1011"/>
<polygon fill="none" stroke="#191970" points="75.5698,-606.8305 73.828,-617.2812 81.7068,-610.1977 75.5698,-606.8305"/>
</g>
<!-- Node4 -->
<g id="node4" class="node">
<title>Node4</title>
<g id="a_node4"><a xlink:href="../../d0/d49/classMovingCoilBallistics.html" target="_top" xlink:title=" ">
<polygon fill="#ffffff" stroke="#000000" points="110,-595.5 110,-740.5 230,-740.5 230,-595.5 110,-595.5"/>
<text text-anchor="middle" x="170" y="-728.5" font-family="Helvetica,sans-Serif" font-size="10.00" fill="#000000">MovingCoilBallistics</text>
<polyline fill="none" stroke="#000000" points="110,-721.5 230,-721.5 "/>
<text text-anchor="start" x="118" y="-709.5" font-family="Helvetica,sans-Serif" font-size="10.00" fill="#000000">&#45; springConstant</text>
<text text-anchor="start" x="118" y="-698.5" font-family="Helvetica,sans-Serif" font-size="10.00" fill="#000000">&#45; friction</text>
<text text-anchor="start" x="118" y="-687.5" font-family="Helvetica,sans-Serif" font-size="10.00" fill="#000000">&#45; Ts</text>
<text text-anchor="start" x="118" y="-676.5" font-family="Helvetica,sans-Serif" font-size="10.00" fill="#000000">&#45; x</text>
<text text-anchor="start" x="118" y="-665.5" font-family="Helvetica,sans-Serif" font-size="10.00" fill="#000000">&#45; x_dot</text>
<polyline fill="none" stroke="#000000" points="110,-658.5 230,-658.5 "/>
<text text-anchor="start" x="118" y="-646.5" font-family="Helvetica,sans-Serif" font-size="10.00" fill="#000000">+ MovingCoilBallistics()</text>
<text text-anchor="start" x="118" y="-635.5" font-family="Helvetica,sans-Serif" font-size="10.00" fill="#000000">+ operator()()</text>
<text text-anchor="start" x="118" y="-624.5" font-family="Helvetica,sans-Serif" font-size="10.00" fill="#000000">+ officialVU()</text>
<text text-anchor="start" x="118" y="-613.5" font-family="Helvetica,sans-Serif" font-size="10.00" fill="#000000">+ responsiveVU()</text>
<text text-anchor="start" x="118" y="-602.5" font-family="Helvetica,sans-Serif" font-size="10.00" fill="#000000">+ noOvershoot()</text>
</a>
</g>
</g>
<!-- Node4&#45;&gt;Node2 -->
<g id="edge3" class="edge">
<title>Node4&#45;&gt;Node2</title>
<path fill="none" stroke="#404040" d="M170,-595.2482C170,-567.9447 170,-537.0352 170,-510.1633"/>
<polygon fill="none" stroke="#404040" points="170.0001,-510.1283 166,-504.1283 170,-498.1283 174,-504.1283 170.0001,-510.1283"/>
<text text-anchor="middle" x="192.5" y="-569" font-family="Helvetica,sans-Serif" font-size="10.00" fill="#000000"> &#45;ballistics</text>
</g>
<!-- Node5 -->
<g id="node5" class="node">
<title>Node5</title>
<g id="a_node5"><a xlink:href="../../d0/d18/classAudioVU_1_1Analyzer.html" target="_top" xlink:title="The AudioAnalyzePeak and AudioAnalyzeRMS classes don&#39;t implement a common interface,...">
<polygon fill="#ffffff" stroke="#000000" points="248,-617.5 248,-718.5 318,-718.5 318,-617.5 248,-617.5"/>
<text text-anchor="middle" x="283" y="-706.5" font-family="Helvetica,sans-Serif" font-size="10.00" fill="#000000">Analyzer</text>
<polyline fill="none" stroke="#000000" points="248,-699.5 318,-699.5 "/>
<text text-anchor="start" x="256" y="-687.5" font-family="Helvetica,sans-Serif" font-size="10.00" fill="#000000">&#45; type</text>
<text text-anchor="start" x="256" y="-676.5" font-family="Helvetica,sans-Serif" font-size="10.00" fill="#000000">&#45; analyzer</text>
<polyline fill="none" stroke="#000000" points="248,-669.5 318,-669.5 "/>
<text text-anchor="start" x="256" y="-657.5" font-family="Helvetica,sans-Serif" font-size="10.00" fill="#000000">+ Analyzer()</text>
<text text-anchor="start" x="256" y="-646.5" font-family="Helvetica,sans-Serif" font-size="10.00" fill="#000000">+ Analyzer()</text>
<text text-anchor="start" x="256" y="-635.5" font-family="Helvetica,sans-Serif" font-size="10.00" fill="#000000">+ read()</text>
<text text-anchor="start" x="256" y="-624.5" font-family="Helvetica,sans-Serif" font-size="10.00" fill="#000000">+ available()</text>
</a>
</g>
</g>
<!-- Node5&#45;&gt;Node2 -->
<g id="edge4" class="edge">
<title>Node5&#45;&gt;Node2</title>
<path fill="none" stroke="#404040" d="M257.6406,-617.2812C241.6698,-585.3396 220.8714,-543.7429 203.5439,-509.0878"/>
<polygon fill="none" stroke="#404040" points="203.4172,-508.8342 197.1561,-505.2565 198.0505,-498.1011 204.3116,-501.6788 203.4172,-508.8342"/>
<text text-anchor="middle" x="250.5" y="-569" font-family="Helvetica,sans-Serif" font-size="10.00" fill="#000000"> &#45;level</text>
</g>
<!-- Node6 -->
<g id="node6" class="node">
<title>Node6</title>
<g id="a_node6"><a xlink:href="../../d1/d55/classAH_1_1Updatable.html" target="_top" xlink:title=" ">
<polygon fill="#ffffff" stroke="#000000" points="309,-336.5 309,-547.5 427,-547.5 427,-336.5 309,-336.5"/>
<text text-anchor="middle" x="368" y="-535.5" font-family="Helvetica,sans-Serif" font-size="10.00" fill="#000000">Updatable&lt; AudioVU &gt;</text>
<polyline fill="none" stroke="#000000" points="309,-528.5 427,-528.5 "/>
<text text-anchor="middle" x="368" y="-516.5" font-family="Helvetica,sans-Serif" font-size="10.00" fill="#000000"> </text>
<polyline fill="none" stroke="#000000" points="309,-509.5 427,-509.5 "/>
<text text-anchor="start" x="317" y="-497.5" font-family="Helvetica,sans-Serif" font-size="10.00" fill="#000000">+ ~Updatable()</text>
<text text-anchor="start" x="317" y="-486.5" font-family="Helvetica,sans-Serif" font-size="10.00" fill="#000000"># Updatable()</text>
<text text-anchor="start" x="317" y="-475.5" font-family="Helvetica,sans-Serif" font-size="10.00" fill="#000000">* begin()</text>
<text text-anchor="start" x="317" y="-464.5" font-family="Helvetica,sans-Serif" font-size="10.00" fill="#000000">* update()</text>
<text text-anchor="start" x="317" y="-453.5" font-family="Helvetica,sans-Serif" font-size="10.00" fill="#000000">* beginAll()</text>
<text text-anchor="start" x="317" y="-442.5" font-family="Helvetica,sans-Serif" font-size="10.00" fill="#000000">* updateAll()</text>
<text text-anchor="start" x="317" y="-431.5" font-family="Helvetica,sans-Serif" font-size="10.00" fill="#000000">* enable()</text>
<text text-anchor="start" x="317" y="-420.5" font-family="Helvetica,sans-Serif" font-size="10.00" fill="#000000">* disable()</text>
<text text-anchor="start" x="317" y="-409.5" font-family="Helvetica,sans-Serif" font-size="10.00" fill="#000000">* isEnabled()</text>
<text text-anchor="start" x="317" y="-398.5" font-family="Helvetica,sans-Serif" font-size="10.00" fill="#000000">* enable()</text>
<text text-anchor="start" x="317" y="-387.5" font-family="Helvetica,sans-Serif" font-size="10.00" fill="#000000">* enable()</text>
<text text-anchor="start" x="317" y="-376.5" font-family="Helvetica,sans-Serif" font-size="10.00" fill="#000000">* enable()</text>
<text text-anchor="start" x="317" y="-365.5" font-family="Helvetica,sans-Serif" font-size="10.00" fill="#000000">* disable()</text>
<text text-anchor="start" x="317" y="-354.5" font-family="Helvetica,sans-Serif" font-size="10.00" fill="#000000">* disable()</text>
<text text-anchor="start" x="317" y="-343.5" font-family="Helvetica,sans-Serif" font-size="10.00" fill="#000000">* disable()</text>
</a>
</g>
</g>
<!-- Node6&#45;&gt;Node1 -->
<g id="edge5" class="edge">
<title>Node6&#45;&gt;Node1</title>
<path fill="none" stroke="#191970" d="M302.0774,-371.1924C278.1946,-343.414 252.1627,-310.4515 232,-278 217.0091,-253.8723 203.6755,-225.4977 193.2507,-200.6973"/>
<polygon fill="none" stroke="#191970" points="299.5535,-373.6242 308.7499,-378.8851 304.8415,-369.0375 299.5535,-373.6242"/>
</g>
<!-- Node7 -->
<g id="node7" class="node">
<title>Node7</title>
<g id="a_node7"><a xlink:href="../../d4/d23/classDoublyLinkable.html" target="_top" xlink:title=" ">
<polygon fill="#ffffff" stroke="#000000" points="241.5,-105 241.5,-173 378.5,-173 378.5,-105 241.5,-105"/>
<text text-anchor="start" x="249.5" y="-161" font-family="Helvetica,sans-Serif" font-size="10.00" fill="#000000">DoublyLinkable&lt; Updatable</text>
<text text-anchor="middle" x="310" y="-150" font-family="Helvetica,sans-Serif" font-size="10.00" fill="#000000">&lt; AudioVU &gt; &gt;</text>
<polyline fill="none" stroke="#000000" points="241.5,-143 378.5,-143 "/>
<text text-anchor="middle" x="310" y="-131" font-family="Helvetica,sans-Serif" font-size="10.00" fill="#000000"> </text>
<polyline fill="none" stroke="#000000" points="241.5,-124 378.5,-124 "/>
<text text-anchor="start" x="249.5" y="-112" font-family="Helvetica,sans-Serif" font-size="10.00" fill="#000000"># ~DoublyLinkable()</text>
</a>
</g>
</g>
<!-- Node6&#45;&gt;Node7 -->
<g id="edge7" class="edge">
<title>Node6&#45;&gt;Node7</title>
<path fill="none" stroke="#404040" d="M312.1827,-336.2898C310.1691,-330.1961 308.4135,-324.0756 307,-318 296.7308,-273.8604 299.1327,-221.9332 303.1031,-185.4086"/>
<polygon fill="none" stroke="#404040" points="303.1413,-185.0862 299.8758,-178.6568 304.5547,-173.1697 307.8202,-179.5991 303.1413,-185.0862"/>
<text text-anchor="middle" x="328.5" y="-310" font-family="Helvetica,sans-Serif" font-size="10.00" fill="#000000"> #next</text>
<text text-anchor="middle" x="328.5" y="-299" font-family="Helvetica,sans-Serif" font-size="10.00" fill="#000000">#previous</text>
</g>
<!-- Node8 -->
<g id="node8" class="node">
<title>Node8</title>
<g id="a_node8"><a xlink:href="../../dd/d16/classDoublyLinkedList.html" target="_top" xlink:title=" ">
<polygon fill="#ffffff" stroke="#000000" points="396.5,-.5 396.5,-277.5 529.5,-277.5 529.5,-.5 396.5,-.5"/>
<text text-anchor="start" x="404.5" y="-265.5" font-family="Helvetica,sans-Serif" font-size="10.00" fill="#000000">DoublyLinkedList&lt; AH</text>
<text text-anchor="middle" x="463" y="-254.5" font-family="Helvetica,sans-Serif" font-size="10.00" fill="#000000">::Updatable&lt; AudioVU &gt; &gt;</text>
<polyline fill="none" stroke="#000000" points="396.5,-247.5 529.5,-247.5 "/>
<text text-anchor="middle" x="463" y="-235.5" font-family="Helvetica,sans-Serif" font-size="10.00" fill="#000000"> </text>
<polyline fill="none" stroke="#000000" points="396.5,-228.5 529.5,-228.5 "/>
<text text-anchor="start" x="404.5" y="-216.5" font-family="Helvetica,sans-Serif" font-size="10.00" fill="#000000">+ append()</text>
<text text-anchor="start" x="404.5" y="-205.5" font-family="Helvetica,sans-Serif" font-size="10.00" fill="#000000">+ append()</text>
<text text-anchor="start" x="404.5" y="-194.5" font-family="Helvetica,sans-Serif" font-size="10.00" fill="#000000">+ insertBefore()</text>
<text text-anchor="start" x="404.5" y="-183.5" font-family="Helvetica,sans-Serif" font-size="10.00" fill="#000000">+ insertBefore()</text>
<text text-anchor="start" x="404.5" y="-172.5" font-family="Helvetica,sans-Serif" font-size="10.00" fill="#000000">+ insertSorted()</text>
<text text-anchor="start" x="404.5" y="-161.5" font-family="Helvetica,sans-Serif" font-size="10.00" fill="#000000">+ insertSorted()</text>
<text text-anchor="start" x="404.5" y="-150.5" font-family="Helvetica,sans-Serif" font-size="10.00" fill="#000000">+ remove()</text>
<text text-anchor="start" x="404.5" y="-139.5" font-family="Helvetica,sans-Serif" font-size="10.00" fill="#000000">+ remove()</text>
<text text-anchor="start" x="404.5" y="-128.5" font-family="Helvetica,sans-Serif" font-size="10.00" fill="#000000">+ moveDown()</text>
<text text-anchor="start" x="404.5" y="-117.5" font-family="Helvetica,sans-Serif" font-size="10.00" fill="#000000">+ couldContain()</text>
<text text-anchor="start" x="404.5" y="-106.5" font-family="Helvetica,sans-Serif" font-size="10.00" fill="#000000">+ begin()</text>
<text text-anchor="start" x="404.5" y="-95.5" font-family="Helvetica,sans-Serif" font-size="10.00" fill="#000000">+ begin()</text>
<text text-anchor="start" x="404.5" y="-84.5" font-family="Helvetica,sans-Serif" font-size="10.00" fill="#000000">+ end()</text>
<text text-anchor="start" x="404.5" y="-73.5" font-family="Helvetica,sans-Serif" font-size="10.00" fill="#000000">+ end()</text>
<text text-anchor="start" x="404.5" y="-62.5" font-family="Helvetica,sans-Serif" font-size="10.00" fill="#000000">+ rbegin()</text>
<text text-anchor="start" x="404.5" y="-51.5" font-family="Helvetica,sans-Serif" font-size="10.00" fill="#000000">+ rbegin()</text>
<text text-anchor="start" x="404.5" y="-40.5" font-family="Helvetica,sans-Serif" font-size="10.00" fill="#000000">+ rend()</text>
<text text-anchor="start" x="404.5" y="-29.5" font-family="Helvetica,sans-Serif" font-size="10.00" fill="#000000">+ rend()</text>
<text text-anchor="start" x="404.5" y="-18.5" font-family="Helvetica,sans-Serif" font-size="10.00" fill="#000000">+ getFirst()</text>
<text text-anchor="start" x="404.5" y="-7.5" font-family="Helvetica,sans-Serif" font-size="10.00" fill="#000000">+ getLast()</text>
</a>
</g>
</g>
<!-- Node6&#45;&gt;Node8 -->
<g id="edge9" class="edge">
<title>Node6&#45;&gt;Node8</title>
<path fill="none" stroke="#404040" d="M396.9565,-336.1265C400.8869,-322.5872 404.9604,-308.943 409,-296 409.7085,-293.73 410.4274,-291.4433 411.1553,-289.1432"/>
<polygon fill="none" stroke="#404040" points="411.2081,-288.9777 409.2258,-282.0444 414.8634,-277.5479 416.8457,-284.4812 411.2081,-288.9777"/>
<text text-anchor="middle" x="420" y="-310" font-family="Helvetica,sans-Serif" font-size="10.00" fill="#000000"> &#45;last</text>
<text text-anchor="middle" x="420" y="-299" font-family="Helvetica,sans-Serif" font-size="10.00" fill="#000000">&#45;first</text>
</g>
<!-- Node7&#45;&gt;Node6 -->
<g id="edge6" class="edge">
<title>Node7&#45;&gt;Node6</title>
<path fill="none" stroke="#191970" d="M324.5627,-182.8907C334.3596,-214.1036 346.7633,-257.2056 354,-296 356.4281,-309.0165 358.4474,-322.7689 360.1239,-336.4213"/>
<polygon fill="none" stroke="#191970" points="327.8462,-181.6663 321.4834,-173.1949 321.1746,-183.7853 327.8462,-181.6663"/>
</g>
<!-- Node8&#45;&gt;Node6 -->
<g id="edge8" class="edge">
<title>Node8&#45;&gt;Node6</title>
<path fill="none" stroke="#404040" d="M446.0812,-277.929C442.9825,-291.623 439.3223,-305.1839 435,-318 433.9547,-321.0993 432.836,-324.2131 431.6542,-327.3313"/>
<polygon fill="none" stroke="#404040" points="431.5913,-327.488 433.0667,-334.5466 427.1186,-338.6234 425.6432,-331.5648 431.5913,-327.488"/>
<text text-anchor="middle" x="468" y="-304.5" font-family="Helvetica,sans-Serif" font-size="10.00" fill="#000000"> #updatables</text>
</g>
</g>
</svg>
