<?xml version="1.0" encoding="UTF-8" standalone="no"?>
<!DOCTYPE svg PUBLIC "-//W3C//DTD SVG 1.1//EN"
 "http://www.w3.org/Graphics/SVG/1.1/DTD/svg11.dtd">
<!-- Generated by graphviz version 2.43.0 (0)
 -->
<!-- Title: GenericEncoderSelector&lt; N, Callback &gt; Pages: 1 -->
<svg width="435pt" height="1005pt"
 viewBox="0.00 0.00 435.00 1005.00" xmlns="http://www.w3.org/2000/svg" xmlns:xlink="http://www.w3.org/1999/xlink">
<g id="graph0" class="graph" transform="scale(1 1) rotate(0) translate(4 1001)">
<title>GenericEncoderSelector&lt; N, Callback &gt;</title>
<polygon fill="white" stroke="transparent" points="-4,4 -4,-1001 431,-1001 431,4 -4,4"/>
<!-- Node1 -->
<g id="node1" class="node">
<title>Node1</title>
<g id="a_node1"><a xlink:title=" ">
<polygon fill="#bfbfbf" stroke="black" points="230.5,-0.5 230.5,-123.5 382.5,-123.5 382.5,-0.5 230.5,-0.5"/>
<text text-anchor="start" x="238.5" y="-111.5" font-family="Helvetica,sans-Serif" font-size="10.00">GenericEncoderSelector</text>
<text text-anchor="middle" x="306.5" y="-100.5" font-family="Helvetica,sans-Serif" font-size="10.00">&lt; N, Callback &gt;</text>
<polyline fill="none" stroke="black" points="230.5,-93.5 382.5,-93.5 "/>
<text text-anchor="start" x="238.5" y="-81.5" font-family="Helvetica,sans-Serif" font-size="10.00">&#45; pulsesPerStep</text>
<text text-anchor="start" x="238.5" y="-70.5" font-family="Helvetica,sans-Serif" font-size="10.00">&#45; wrap</text>
<text text-anchor="start" x="238.5" y="-59.5" font-family="Helvetica,sans-Serif" font-size="10.00">&#45; previousPosition</text>
<text text-anchor="start" x="238.5" y="-48.5" font-family="Helvetica,sans-Serif" font-size="10.00">&#45; previousSwitchState</text>
<polyline fill="none" stroke="black" points="230.5,-41.5 382.5,-41.5 "/>
<text text-anchor="start" x="238.5" y="-29.5" font-family="Helvetica,sans-Serif" font-size="10.00">+ GenericEncoderSelector()</text>
<text text-anchor="start" x="238.5" y="-18.5" font-family="Helvetica,sans-Serif" font-size="10.00">+ begin()</text>
<text text-anchor="start" x="238.5" y="-7.5" font-family="Helvetica,sans-Serif" font-size="10.00">+ update()</text>
</a>
</g>
</g>
<!-- Node2 -->
<g id="node2" class="node">
<title>Node2</title>
<g id="a_node2"><a xlink:href="../../d0/d04/classGenericSelector.html" target="_top" xlink:title=" ">
<polygon fill="white" stroke="black" points="83.5,-210 83.5,-355 227.5,-355 227.5,-210 83.5,-210"/>
<text text-anchor="start" x="91.5" y="-343" font-family="Helvetica,sans-Serif" font-size="10.00">GenericSelector&lt; N,</text>
<text text-anchor="middle" x="155.5" y="-332" font-family="Helvetica,sans-Serif" font-size="10.00"> EmptySelectorCallback &gt;</text>
<polyline fill="none" stroke="black" points="83.5,-325 227.5,-325 "/>
<text text-anchor="start" x="91.5" y="-313" font-family="Helvetica,sans-Serif" font-size="10.00">+ callback</text>
<text text-anchor="start" x="91.5" y="-302" font-family="Helvetica,sans-Serif" font-size="10.00">&#45; selectable</text>
<polyline fill="none" stroke="black" points="83.5,-295 227.5,-295 "/>
<text text-anchor="start" x="91.5" y="-283" font-family="Helvetica,sans-Serif" font-size="10.00">+ GenericSelector()</text>
<text text-anchor="start" x="91.5" y="-272" font-family="Helvetica,sans-Serif" font-size="10.00">+ begin()</text>
<text text-anchor="start" x="91.5" y="-261" font-family="Helvetica,sans-Serif" font-size="10.00">+ update()</text>
<text text-anchor="start" x="91.5" y="-250" font-family="Helvetica,sans-Serif" font-size="10.00">+ reset()</text>
<text text-anchor="start" x="91.5" y="-239" font-family="Helvetica,sans-Serif" font-size="10.00">+ set()</text>
<text text-anchor="start" x="91.5" y="-228" font-family="Helvetica,sans-Serif" font-size="10.00">+ increment()</text>
<text text-anchor="start" x="91.5" y="-217" font-family="Helvetica,sans-Serif" font-size="10.00">+ decrement()</text>
</a>
</g>
</g>
<!-- Node2&#45;&gt;Node1 -->
<g id="edge1" class="edge">
<title>Node2&#45;&gt;Node1</title>
<path fill="none" stroke="midnightblue" d="M210.66,-201.69C228.44,-175.95 247.86,-147.85 264.54,-123.72"/>
<polygon fill="none" stroke="midnightblue" points="207.75,-199.74 204.94,-209.95 213.51,-203.72 207.75,-199.74"/>
</g>
<!-- Node3 -->
<g id="node3" class="node">
<title>Node3</title>
<g id="a_node3"><a xlink:href="../../dc/d77/classSelectorBase.html" target="_top" xlink:title="Base class for all Selectors exposing the get method, so it can be used by display elements etc,...">
<polygon fill="white" stroke="black" points="0,-474.5 0,-542.5 99,-542.5 99,-474.5 0,-474.5"/>
<text text-anchor="middle" x="49.5" y="-530.5" font-family="Helvetica,sans-Serif" font-size="10.00">SelectorBase</text>
<polyline fill="none" stroke="black" points="0,-523.5 99,-523.5 "/>
<text text-anchor="start" x="8" y="-511.5" font-family="Helvetica,sans-Serif" font-size="10.00"># setting</text>
<polyline fill="none" stroke="black" points="0,-504.5 99,-504.5 "/>
<text text-anchor="start" x="8" y="-492.5" font-family="Helvetica,sans-Serif" font-size="10.00">+ get()</text>
<text text-anchor="start" x="8" y="-481.5" font-family="Helvetica,sans-Serif" font-size="10.00"># SelectorBase()</text>
</a>
</g>
</g>
<!-- Node3&#45;&gt;Node2 -->
<g id="edge2" class="edge">
<title>Node3&#45;&gt;Node2</title>
<path fill="none" stroke="midnightblue" d="M69.5,-465.23C84.17,-434.24 104.43,-391.43 121.6,-355.14"/>
<polygon fill="none" stroke="midnightblue" points="66.25,-463.91 65.14,-474.45 72.58,-466.91 66.25,-463.91"/>
</g>
<!-- Node4 -->
<g id="node4" class="node">
<title>Node4</title>
<g id="a_node4"><a xlink:href="../../d1/d55/classAH_1_1Updatable.html" target="_top" xlink:title="A super class for object that have to be updated regularly.">
<polygon fill="white" stroke="black" points="117,-463.5 117,-553.5 212,-553.5 212,-463.5 117,-463.5"/>
<text text-anchor="middle" x="164.5" y="-541.5" font-family="Helvetica,sans-Serif" font-size="10.00">Updatable&lt; T &gt;</text>
<polyline fill="none" stroke="black" points="117,-534.5 212,-534.5 "/>
<text text-anchor="middle" x="164.5" y="-522.5" font-family="Helvetica,sans-Serif" font-size="10.00"> </text>
<polyline fill="none" stroke="black" points="117,-515.5 212,-515.5 "/>
<text text-anchor="start" x="125" y="-503.5" font-family="Helvetica,sans-Serif" font-size="10.00">* begin()</text>
<text text-anchor="start" x="125" y="-492.5" font-family="Helvetica,sans-Serif" font-size="10.00">* update()</text>
<text text-anchor="start" x="125" y="-481.5" font-family="Helvetica,sans-Serif" font-size="10.00">* beginAll()</text>
<text text-anchor="start" x="125" y="-470.5" font-family="Helvetica,sans-Serif" font-size="10.00">* updateAll()</text>
</a>
</g>
</g>
<!-- Node4&#45;&gt;Node2 -->
<g id="edge3" class="edge">
<title>Node4&#45;&gt;Node2</title>
<path fill="none" stroke="midnightblue" d="M162.32,-453.18C161.14,-423.81 159.66,-387.15 158.39,-355.44"/>
<polygon fill="none" stroke="midnightblue" points="158.82,-453.39 162.72,-463.24 165.82,-453.11 158.82,-453.39"/>
</g>
<!-- Node5 -->
<g id="node5" class="node">
<title>Node5</title>
<g id="a_node5"><a xlink:href="../../d8/d1a/classAH_1_1UpdatableCRTP.html" target="_top" xlink:title=" ">
<polygon fill="white" stroke="black" points="88,-602.5 88,-835.5 241,-835.5 241,-602.5 88,-602.5"/>
<text text-anchor="start" x="96" y="-823.5" font-family="Helvetica,sans-Serif" font-size="10.00">UpdatableCRTP&lt; Updatable</text>
<text text-anchor="middle" x="164.5" y="-812.5" font-family="Helvetica,sans-Serif" font-size="10.00">&lt; NormalUpdatable &gt; &gt;</text>
<polyline fill="none" stroke="black" points="88,-805.5 241,-805.5 "/>
<text text-anchor="start" x="96" y="-793.5" font-family="Helvetica,sans-Serif" font-size="10.00"># updatables</text>
<polyline fill="none" stroke="black" points="88,-786.5 241,-786.5 "/>
<text text-anchor="start" x="96" y="-774.5" font-family="Helvetica,sans-Serif" font-size="10.00">+ ~UpdatableCRTP()</text>
<text text-anchor="start" x="96" y="-763.5" font-family="Helvetica,sans-Serif" font-size="10.00"># UpdatableCRTP()</text>
<text text-anchor="start" x="96" y="-752.5" font-family="Helvetica,sans-Serif" font-size="10.00"># UpdatableCRTP()</text>
<text text-anchor="start" x="96" y="-741.5" font-family="Helvetica,sans-Serif" font-size="10.00"># UpdatableCRTP()</text>
<text text-anchor="start" x="96" y="-730.5" font-family="Helvetica,sans-Serif" font-size="10.00"># operator=()</text>
<text text-anchor="start" x="96" y="-719.5" font-family="Helvetica,sans-Serif" font-size="10.00"># operator=()</text>
<text text-anchor="start" x="96" y="-708.5" font-family="Helvetica,sans-Serif" font-size="10.00">* enable()</text>
<text text-anchor="start" x="96" y="-697.5" font-family="Helvetica,sans-Serif" font-size="10.00">* disable()</text>
<text text-anchor="start" x="96" y="-686.5" font-family="Helvetica,sans-Serif" font-size="10.00">* isEnabled()</text>
<text text-anchor="start" x="96" y="-675.5" font-family="Helvetica,sans-Serif" font-size="10.00">* moveDown()</text>
<text text-anchor="start" x="96" y="-664.5" font-family="Helvetica,sans-Serif" font-size="10.00">* enable()</text>
<text text-anchor="start" x="96" y="-653.5" font-family="Helvetica,sans-Serif" font-size="10.00">* enable()</text>
<text text-anchor="start" x="96" y="-642.5" font-family="Helvetica,sans-Serif" font-size="10.00">* enable()</text>
<text text-anchor="start" x="96" y="-631.5" font-family="Helvetica,sans-Serif" font-size="10.00">* disable()</text>
<text text-anchor="start" x="96" y="-620.5" font-family="Helvetica,sans-Serif" font-size="10.00">* disable()</text>
<text text-anchor="start" x="96" y="-609.5" font-family="Helvetica,sans-Serif" font-size="10.00">* disable()</text>
</a>
</g>
</g>
<!-- Node5&#45;&gt;Node4 -->
<g id="edge4" class="edge">
<title>Node5&#45;&gt;Node4</title>
<path fill="none" stroke="midnightblue" d="M164.5,-592.4C164.5,-578.68 164.5,-565.48 164.5,-553.79"/>
<polygon fill="none" stroke="midnightblue" points="161,-592.47 164.5,-602.47 168,-592.47 161,-592.47"/>
</g>
<!-- Node6 -->
<g id="node6" class="node">
<title>Node6</title>
<g id="a_node6"><a xlink:href="../../d4/d23/classDoublyLinkable.html" target="_top" xlink:title="A class that can be inherited from to allow inserting into a DoublyLinkedList.">
<polygon fill="white" stroke="black" points="94.5,-873.5 94.5,-996.5 234.5,-996.5 234.5,-873.5 94.5,-873.5"/>
<text text-anchor="middle" x="164.5" y="-984.5" font-family="Helvetica,sans-Serif" font-size="10.00">DoublyLinkable&lt; Node &gt;</text>
<polyline fill="none" stroke="black" points="94.5,-977.5 234.5,-977.5 "/>
<text text-anchor="start" x="102.5" y="-965.5" font-family="Helvetica,sans-Serif" font-size="10.00"># next</text>
<text text-anchor="start" x="102.5" y="-954.5" font-family="Helvetica,sans-Serif" font-size="10.00"># previous</text>
<polyline fill="none" stroke="black" points="94.5,-947.5 234.5,-947.5 "/>
<text text-anchor="start" x="102.5" y="-935.5" font-family="Helvetica,sans-Serif" font-size="10.00"># ~DoublyLinkable()</text>
<text text-anchor="start" x="102.5" y="-924.5" font-family="Helvetica,sans-Serif" font-size="10.00"># DoublyLinkable()</text>
<text text-anchor="start" x="102.5" y="-913.5" font-family="Helvetica,sans-Serif" font-size="10.00"># DoublyLinkable()</text>
<text text-anchor="start" x="102.5" y="-902.5" font-family="Helvetica,sans-Serif" font-size="10.00"># operator=()</text>
<text text-anchor="start" x="102.5" y="-891.5" font-family="Helvetica,sans-Serif" font-size="10.00"># DoublyLinkable()</text>
<text text-anchor="start" x="102.5" y="-880.5" font-family="Helvetica,sans-Serif" font-size="10.00"># operator=()</text>
</a>
</g>
</g>
<!-- Node6&#45;&gt;Node5 -->
<g id="edge5" class="edge">
<title>Node6&#45;&gt;Node5</title>
<path fill="none" stroke="midnightblue" d="M164.5,-863.03C164.5,-854.17 164.5,-844.94 164.5,-835.61"/>
<polygon fill="none" stroke="midnightblue" points="161,-863.25 164.5,-873.25 168,-863.25 161,-863.25"/>
</g>
<!-- Node7 -->
<g id="node7" class="node">
<title>Node7</title>
<g id="a_node7"><a xlink:href="../../d0/d3b/classEncoder.html" target="_top" xlink:title="Class for reading quadrature encoders, based on http://www.pjrc.com/teensy/td_libs_Encoder....">
<polygon fill="white" stroke="black" points="245.5,-171.5 245.5,-393.5 367.5,-393.5 367.5,-171.5 245.5,-171.5"/>
<text text-anchor="middle" x="306.5" y="-381.5" font-family="Helvetica,sans-Serif" font-size="10.00">Encoder</text>
<polyline fill="none" stroke="black" points="245.5,-374.5 367.5,-374.5 "/>
<text text-anchor="start" x="253.5" y="-362.5" font-family="Helvetica,sans-Serif" font-size="10.00">&#45; pin1</text>
<text text-anchor="start" x="253.5" y="-351.5" font-family="Helvetica,sans-Serif" font-size="10.00">&#45; pin2</text>
<text text-anchor="start" x="253.5" y="-340.5" font-family="Helvetica,sans-Serif" font-size="10.00">&#45; interrupts_in_use</text>
<polyline fill="none" stroke="black" points="245.5,-333.5 367.5,-333.5 "/>
<text text-anchor="start" x="253.5" y="-321.5" font-family="Helvetica,sans-Serif" font-size="10.00">+ Encoder()</text>
<text text-anchor="start" x="253.5" y="-310.5" font-family="Helvetica,sans-Serif" font-size="10.00">+ Encoder()</text>
<text text-anchor="start" x="253.5" y="-299.5" font-family="Helvetica,sans-Serif" font-size="10.00">+ operator=()</text>
<text text-anchor="start" x="253.5" y="-288.5" font-family="Helvetica,sans-Serif" font-size="10.00">+ Encoder()</text>
<text text-anchor="start" x="253.5" y="-277.5" font-family="Helvetica,sans-Serif" font-size="10.00">+ operator=()</text>
<text text-anchor="start" x="253.5" y="-266.5" font-family="Helvetica,sans-Serif" font-size="10.00">+ ~Encoder()</text>
<text text-anchor="start" x="253.5" y="-255.5" font-family="Helvetica,sans-Serif" font-size="10.00">+ begin()</text>
<text text-anchor="start" x="253.5" y="-244.5" font-family="Helvetica,sans-Serif" font-size="10.00">+ end()</text>
<text text-anchor="start" x="253.5" y="-233.5" font-family="Helvetica,sans-Serif" font-size="10.00">+ read()</text>
<text text-anchor="start" x="253.5" y="-222.5" font-family="Helvetica,sans-Serif" font-size="10.00">+ readAndReset()</text>
<text text-anchor="start" x="253.5" y="-211.5" font-family="Helvetica,sans-Serif" font-size="10.00">+ write()</text>
<text text-anchor="start" x="253.5" y="-200.5" font-family="Helvetica,sans-Serif" font-size="10.00">+ update()</text>
<text text-anchor="start" x="253.5" y="-189.5" font-family="Helvetica,sans-Serif" font-size="10.00">&#45; attachInterruptCtx()</text>
<text text-anchor="start" x="253.5" y="-178.5" font-family="Helvetica,sans-Serif" font-size="10.00">&#45; detachInterruptCtx()</text>
</a>
</g>
</g>
<!-- Node7&#45;&gt;Node1 -->
<g id="edge6" class="edge">
<title>Node7&#45;&gt;Node1</title>
<path fill="none" stroke="#404040" d="M306.5,-171.29C306.5,-159.22 306.5,-147.16 306.5,-135.71"/>
<polygon fill="none" stroke="#404040" points="306.5,-135.55 302.5,-129.55 306.5,-123.55 310.5,-129.55 306.5,-135.55"/>
<text text-anchor="middle" x="329.5" y="-145" font-family="Helvetica,sans-Serif" font-size="10.00"> &#45;encoder</text>
</g>
<!-- Node8 -->
<g id="node8" class="node">
<title>Node8</title>
<g id="a_node8"><a xlink:href="../../db/de4/Encoder_8h.html#d9/d08/structEncoder__internal__state__t" target="_top" xlink:title="All the data needed by interrupts is consolidated into this ugly struct to facilitate assembly langua...">
<polygon fill="white" stroke="black" points="238,-452.5 238,-564.5 375,-564.5 375,-452.5 238,-452.5"/>
<text text-anchor="middle" x="306.5" y="-552.5" font-family="Helvetica,sans-Serif" font-size="10.00">Encoder_internal_state_t</text>
<polyline fill="none" stroke="black" points="238,-545.5 375,-545.5 "/>
<text text-anchor="start" x="246" y="-533.5" font-family="Helvetica,sans-Serif" font-size="10.00">+ pin1_register</text>
<text text-anchor="start" x="246" y="-522.5" font-family="Helvetica,sans-Serif" font-size="10.00">+ pin2_register</text>
<text text-anchor="start" x="246" y="-511.5" font-family="Helvetica,sans-Serif" font-size="10.00">+ pin1_bitmask</text>
<text text-anchor="start" x="246" y="-500.5" font-family="Helvetica,sans-Serif" font-size="10.00">+ pin2_bitmask</text>
<text text-anchor="start" x="246" y="-489.5" font-family="Helvetica,sans-Serif" font-size="10.00">+ state</text>
<text text-anchor="start" x="246" y="-478.5" font-family="Helvetica,sans-Serif" font-size="10.00">+ position</text>
<polyline fill="none" stroke="black" points="238,-471.5 375,-471.5 "/>
<text text-anchor="middle" x="306.5" y="-459.5" font-family="Helvetica,sans-Serif" font-size="10.00"> </text>
</a>
</g>
</g>
<!-- Node8&#45;&gt;Node7 -->
<g id="edge7" class="edge">
<title>Node8&#45;&gt;Node7</title>
<path fill="none" stroke="#404040" d="M306.5,-452.42C306.5,-438.17 306.5,-422.25 306.5,-406.04"/>
<polygon fill="none" stroke="#404040" points="306.5,-405.6 302.5,-399.6 306.5,-393.6 310.5,-399.6 306.5,-405.6"/>
<text text-anchor="middle" x="344.5" y="-426" font-family="Helvetica,sans-Serif" font-size="10.00"> +interruptArgs</text>
<text text-anchor="middle" x="344.5" y="-415" font-family="Helvetica,sans-Serif" font-size="10.00">&#45;encoder</text>
</g>
<!-- Node9 -->
<g id="node9" class="node">
<title>Node9</title>
<g id="a_node9"><a xlink:title=" ">
<polygon fill="white" stroke="#bfbfbf" points="386,-254 386,-311 427,-311 427,-254 386,-254"/>
<text text-anchor="middle" x="406.5" y="-299" font-family="Helvetica,sans-Serif" font-size="10.00">pin_t</text>
<polyline fill="none" stroke="#bfbfbf" points="386,-292 427,-292 "/>
<text text-anchor="middle" x="406.5" y="-280" font-family="Helvetica,sans-Serif" font-size="10.00"> </text>
<polyline fill="none" stroke="#bfbfbf" points="386,-273 427,-273 "/>
<text text-anchor="middle" x="406.5" y="-261" font-family="Helvetica,sans-Serif" font-size="10.00"> </text>
</a>
</g>
</g>
<!-- Node9&#45;&gt;Node1 -->
<g id="edge8" class="edge">
<title>Node9&#45;&gt;Node1</title>
<path fill="none" stroke="#404040" d="M401.49,-253.9C396.76,-231.04 388.58,-198.04 376.5,-171 370.97,-158.61 364.12,-146.03 356.9,-134.03"/>
<polygon fill="none" stroke="#404040" points="356.79,-133.87 350.23,-130.87 350.47,-123.67 357.03,-126.66 356.79,-133.87"/>
<text text-anchor="middle" x="393.5" y="-145" font-family="Helvetica,sans-Serif" font-size="10.00"> &#45;switchPin</text>
</g>
</g>
</svg>
