<?xml version="1.0" encoding="UTF-8" standalone="no"?>
<!DOCTYPE svg PUBLIC "-//W3C//DTD SVG 1.1//EN"
 "http://www.w3.org/Graphics/SVG/1.1/DTD/svg11.dtd">
<!-- Generated by graphviz version 2.40.1 (20161225.0304)
 -->
<!-- Title: ProgramChangeSender.hpp Pages: 1 -->
<svg width="278pt" height="140pt"
 viewBox="0.00 0.00 278.00 140.00" xmlns="http://www.w3.org/2000/svg" xmlns:xlink="http://www.w3.org/1999/xlink">
<g id="graph0" class="graph" transform="scale(1 1) rotate(0) translate(4 136)">
<title>ProgramChangeSender.hpp</title>
<polygon fill="#ffffff" stroke="transparent" points="-4,4 -4,-136 274,-136 274,4 -4,4"/>
<!-- Node1 -->
<g id="node1" class="node">
<title>Node1</title>
<g id="a_node1"><a xlink:title=" ">
<polygon fill="#bfbfbf" stroke="#000000" points="66.5,-112.5 66.5,-131.5 203.5,-131.5 203.5,-112.5 66.5,-112.5"/>
<text text-anchor="middle" x="135" y="-119.5" font-family="Helvetica,sans-Serif" font-size="10.00" fill="#000000">ProgramChangeSender.hpp</text>
</a>
</g>
</g>
<!-- Node2 -->
<g id="node2" class="node">
<title>Node2</title>
<g id="a_node2"><a xlink:href="../../d0/d52/Bankable_2PCButton_8hpp.html" target="_top" xlink:title=" ">
<polygon fill="#ffffff" stroke="#000000" points="0,-56.5 0,-75.5 78,-75.5 78,-56.5 0,-56.5"/>
<text text-anchor="middle" x="39" y="-63.5" font-family="Helvetica,sans-Serif" font-size="10.00" fill="#000000">PCButton.hpp</text>
</a>
</g>
</g>
<!-- Node1&#45;&gt;Node2 -->
<g id="edge1" class="edge">
<title>Node1&#45;&gt;Node2</title>
<path fill="none" stroke="#191970" d="M109.3654,-107.0465C92.2841,-97.0824 70.336,-84.2794 55.5303,-75.6427"/>
<polygon fill="#191970" stroke="#191970" points="107.8767,-110.23 118.2781,-112.2455 111.4038,-104.1836 107.8767,-110.23"/>
</g>
<!-- Node4 -->
<g id="node4" class="node">
<title>Node4</title>
<g id="a_node4"><a xlink:href="../../df/de2/ManyAddresses_2PCButton_8hpp.html" target="_top" xlink:title=" ">
<polygon fill="#ffffff" stroke="#000000" points="96,-56.5 96,-75.5 174,-75.5 174,-56.5 96,-56.5"/>
<text text-anchor="middle" x="135" y="-63.5" font-family="Helvetica,sans-Serif" font-size="10.00" fill="#000000">PCButton.hpp</text>
</a>
</g>
</g>
<!-- Node1&#45;&gt;Node4 -->
<g id="edge3" class="edge">
<title>Node1&#45;&gt;Node4</title>
<path fill="none" stroke="#191970" d="M135,-102.1575C135,-93.155 135,-82.9199 135,-75.6427"/>
<polygon fill="#191970" stroke="#191970" points="131.5001,-102.2455 135,-112.2455 138.5001,-102.2456 131.5001,-102.2455"/>
</g>
<!-- Node5 -->
<g id="node5" class="node">
<title>Node5</title>
<g id="a_node5"><a xlink:href="../../d2/dbf/PCButton_8hpp.html" target="_top" xlink:title=" ">
<polygon fill="#ffffff" stroke="#000000" points="192,-56.5 192,-75.5 270,-75.5 270,-56.5 192,-56.5"/>
<text text-anchor="middle" x="231" y="-63.5" font-family="Helvetica,sans-Serif" font-size="10.00" fill="#000000">PCButton.hpp</text>
</a>
</g>
</g>
<!-- Node1&#45;&gt;Node5 -->
<g id="edge5" class="edge">
<title>Node1&#45;&gt;Node5</title>
<path fill="none" stroke="#191970" d="M160.6346,-107.0465C177.7159,-97.0824 199.664,-84.2794 214.4697,-75.6427"/>
<polygon fill="#191970" stroke="#191970" points="158.5962,-104.1836 151.7219,-112.2455 162.1233,-110.23 158.5962,-104.1836"/>
</g>
<!-- Node3 -->
<g id="node3" class="node">
<title>Node3</title>
<g id="a_node3"><a xlink:href="../../db/dbf/Control__Surface_8h.html" target="_top" xlink:title="The main header file that includes all Control&#45;Surface header files.">
<polygon fill="#ffffff" stroke="#000000" points="87.5,-.5 87.5,-19.5 182.5,-19.5 182.5,-.5 87.5,-.5"/>
<text text-anchor="middle" x="135" y="-7.5" font-family="Helvetica,sans-Serif" font-size="10.00" fill="#000000">Control_Surface.h</text>
</a>
</g>
</g>
<!-- Node2&#45;&gt;Node3 -->
<g id="edge2" class="edge">
<title>Node2&#45;&gt;Node3</title>
<path fill="none" stroke="#191970" d="M64.6346,-51.0465C81.7159,-41.0824 103.664,-28.2794 118.4697,-19.6427"/>
<polygon fill="#191970" stroke="#191970" points="62.5962,-48.1836 55.7219,-56.2455 66.1233,-54.23 62.5962,-48.1836"/>
</g>
<!-- Node4&#45;&gt;Node3 -->
<g id="edge4" class="edge">
<title>Node4&#45;&gt;Node3</title>
<path fill="none" stroke="#191970" d="M135,-46.1575C135,-37.155 135,-26.9199 135,-19.6427"/>
<polygon fill="#191970" stroke="#191970" points="131.5001,-46.2455 135,-56.2455 138.5001,-46.2456 131.5001,-46.2455"/>
</g>
<!-- Node5&#45;&gt;Node3 -->
<g id="edge6" class="edge">
<title>Node5&#45;&gt;Node3</title>
<path fill="none" stroke="#191970" d="M205.3654,-51.0465C188.2841,-41.0824 166.336,-28.2794 151.5303,-19.6427"/>
<polygon fill="#191970" stroke="#191970" points="203.8767,-54.23 214.2781,-56.2455 207.4038,-48.1836 203.8767,-54.23"/>
</g>
</g>
</svg>
