<?xml version="1.0" encoding="UTF-8" standalone="no"?>
<!DOCTYPE svg PUBLIC "-//W3C//DTD SVG 1.1//EN"
 "http://www.w3.org/Graphics/SVG/1.1/DTD/svg11.dtd">
<!-- Generated by graphviz version 2.40.1 (20161225.0304)
 -->
<!-- Title: MIDI_Interface Pages: 1 -->
<svg width="720pt" height="1955pt"
 viewBox="0.00 0.00 720.20 1955.00" xmlns="http://www.w3.org/2000/svg" xmlns:xlink="http://www.w3.org/1999/xlink">
<g id="graph0" class="graph" transform="scale(1 1) rotate(0) translate(4 1951)">
<title>MIDI_Interface</title>
<polygon fill="#ffffff" stroke="transparent" points="-4,4 -4,-1951 716.2025,-1951 716.2025,4 -4,4"/>
<!-- Node1 -->
<g id="node1" class="node">
<title>Node1</title>
<g id="a_node1"><a xlink:title="An abstract class for MIDI interfaces.">
<polygon fill="#bfbfbf" stroke="#000000" points="123.5,-270.5 123.5,-492.5 233.5,-492.5 233.5,-270.5 123.5,-270.5"/>
<text text-anchor="middle" x="178.5" y="-480.5" font-family="Helvetica,sans-Serif" font-size="10.00" fill="#000000">MIDI_Interface</text>
<polyline fill="none" stroke="#000000" points="123.5,-473.5 233.5,-473.5 "/>
<text text-anchor="middle" x="178.5" y="-461.5" font-family="Helvetica,sans-Serif" font-size="10.00" fill="#000000"> </text>
<polyline fill="none" stroke="#000000" points="123.5,-454.5 233.5,-454.5 "/>
<text text-anchor="start" x="131.5" y="-442.5" font-family="Helvetica,sans-Serif" font-size="10.00" fill="#000000">+ ~MIDI_Interface()</text>
<text text-anchor="start" x="131.5" y="-431.5" font-family="Helvetica,sans-Serif" font-size="10.00" fill="#000000">+ begin()</text>
<text text-anchor="start" x="131.5" y="-420.5" font-family="Helvetica,sans-Serif" font-size="10.00" fill="#000000">+ update()</text>
<text text-anchor="start" x="131.5" y="-409.5" font-family="Helvetica,sans-Serif" font-size="10.00" fill="#000000"># MIDI_Interface()</text>
<text text-anchor="start" x="131.5" y="-398.5" font-family="Helvetica,sans-Serif" font-size="10.00" fill="#000000"># MIDI_Interface()</text>
<text text-anchor="start" x="131.5" y="-387.5" font-family="Helvetica,sans-Serif" font-size="10.00" fill="#000000"># sendImpl()</text>
<text text-anchor="start" x="131.5" y="-376.5" font-family="Helvetica,sans-Serif" font-size="10.00" fill="#000000"># sendImpl()</text>
<text text-anchor="start" x="131.5" y="-365.5" font-family="Helvetica,sans-Serif" font-size="10.00" fill="#000000"># sendImpl()</text>
<text text-anchor="start" x="131.5" y="-354.5" font-family="Helvetica,sans-Serif" font-size="10.00" fill="#000000"># sendImpl()</text>
<text text-anchor="start" x="131.5" y="-343.5" font-family="Helvetica,sans-Serif" font-size="10.00" fill="#000000"># sinkMIDIfromPipe()</text>
<text text-anchor="start" x="131.5" y="-332.5" font-family="Helvetica,sans-Serif" font-size="10.00" fill="#000000"># sinkMIDIfromPipe()</text>
<text text-anchor="start" x="131.5" y="-321.5" font-family="Helvetica,sans-Serif" font-size="10.00" fill="#000000"># sinkMIDIfromPipe()</text>
<text text-anchor="start" x="131.5" y="-310.5" font-family="Helvetica,sans-Serif" font-size="10.00" fill="#000000">* setAsDefault()</text>
<text text-anchor="start" x="131.5" y="-299.5" font-family="Helvetica,sans-Serif" font-size="10.00" fill="#000000">* getDefault()</text>
<text text-anchor="start" x="131.5" y="-288.5" font-family="Helvetica,sans-Serif" font-size="10.00" fill="#000000">* setCallbacks()</text>
<text text-anchor="start" x="131.5" y="-277.5" font-family="Helvetica,sans-Serif" font-size="10.00" fill="#000000">* setCallbacks()</text>
</a>
</g>
</g>
<!-- Node1&#45;&gt;Node1 -->
<g id="edge21" class="edge">
<title>Node1&#45;&gt;Node1</title>
<path fill="none" stroke="#404040" d="M233.5733,-411.4927C244.0741,-407.9038 251.5,-397.9063 251.5,-381.5 251.5,-371.2461 248.5992,-363.4956 243.86,-358.2485"/>
<polygon fill="none" stroke="#404040" points="243.6102,-358.0848 236.3993,-358.1417 233.5733,-351.5073 240.7842,-351.4504 243.6102,-358.0848"/>
<text text-anchor="middle" x="303" y="-379" font-family="Helvetica,sans-Serif" font-size="10.00" fill="#000000"> &#45;DefaultMIDI_Interface</text>
</g>
<!-- Node2 -->
<g id="node2" class="node">
<title>Node2</title>
<g id="a_node2"><a xlink:href="../../d0/dc3/structTrueMIDI__SinkSource.html" target="_top" xlink:title="A struct that is both a TrueMIDI_Sink and a TrueMIDI_Source.">
<polygon fill="#ffffff" stroke="#000000" points="7,-678 7,-735 120,-735 120,-678 7,-678"/>
<text text-anchor="middle" x="63.5" y="-723" font-family="Helvetica,sans-Serif" font-size="10.00" fill="#000000">TrueMIDI_SinkSource</text>
<polyline fill="none" stroke="#000000" points="7,-716 120,-716 "/>
<text text-anchor="middle" x="63.5" y="-704" font-family="Helvetica,sans-Serif" font-size="10.00" fill="#000000"> </text>
<polyline fill="none" stroke="#000000" points="7,-697 120,-697 "/>
<text text-anchor="middle" x="63.5" y="-685" font-family="Helvetica,sans-Serif" font-size="10.00" fill="#000000"> </text>
</a>
</g>
</g>
<!-- Node2&#45;&gt;Node1 -->
<g id="edge1" class="edge">
<title>Node2&#45;&gt;Node1</title>
<path fill="none" stroke="#191970" d="M76.965,-668.4467C92.1703,-625.4751 117.6103,-553.5797 139.2207,-492.5068"/>
<polygon fill="none" stroke="#191970" points="73.641,-667.3485 73.6047,-677.9433 80.2401,-669.6836 73.641,-667.3485"/>
</g>
<!-- Node3 -->
<g id="node3" class="node">
<title>Node3</title>
<g id="a_node3"><a xlink:href="../../d5/dc1/structTrueMIDI__Sink.html" target="_top" xlink:title="A MIDI_Sink that is not a MIDI_Pipe.">
<polygon fill="#ffffff" stroke="#000000" points="0,-1213.5 0,-1270.5 83,-1270.5 83,-1213.5 0,-1213.5"/>
<text text-anchor="middle" x="41.5" y="-1258.5" font-family="Helvetica,sans-Serif" font-size="10.00" fill="#000000">TrueMIDI_Sink</text>
<polyline fill="none" stroke="#000000" points="0,-1251.5 83,-1251.5 "/>
<text text-anchor="middle" x="41.5" y="-1239.5" font-family="Helvetica,sans-Serif" font-size="10.00" fill="#000000"> </text>
<polyline fill="none" stroke="#000000" points="0,-1232.5 83,-1232.5 "/>
<text text-anchor="middle" x="41.5" y="-1220.5" font-family="Helvetica,sans-Serif" font-size="10.00" fill="#000000"> </text>
</a>
</g>
</g>
<!-- Node3&#45;&gt;Node2 -->
<g id="edge2" class="edge">
<title>Node3&#45;&gt;Node2</title>
<path fill="none" stroke="#191970" d="M43.103,-1202.9821C47.3182,-1100.3795 58.6414,-824.7615 62.3247,-735.1074"/>
<polygon fill="none" stroke="#191970" points="39.5963,-1203.0739 42.6828,-1213.2092 46.5904,-1203.3613 39.5963,-1203.0739"/>
</g>
<!-- Node4 -->
<g id="node4" class="node">
<title>Node4</title>
<g id="a_node4"><a xlink:href="../../d9/db6/classMIDI__Sink.html" target="_top" xlink:title="Class that can receive MIDI messages from a MIDI pipe.">
<polygon fill="#ffffff" stroke="#000000" points="3.5,-1724.5 3.5,-1946.5 169.5,-1946.5 169.5,-1724.5 3.5,-1724.5"/>
<text text-anchor="middle" x="86.5" y="-1934.5" font-family="Helvetica,sans-Serif" font-size="10.00" fill="#000000">MIDI_Sink</text>
<polyline fill="none" stroke="#000000" points="3.5,-1927.5 169.5,-1927.5 "/>
<text text-anchor="middle" x="86.5" y="-1915.5" font-family="Helvetica,sans-Serif" font-size="10.00" fill="#000000"> </text>
<polyline fill="none" stroke="#000000" points="3.5,-1908.5 169.5,-1908.5 "/>
<text text-anchor="start" x="11.5" y="-1896.5" font-family="Helvetica,sans-Serif" font-size="10.00" fill="#000000">+ MIDI_Sink()</text>
<text text-anchor="start" x="11.5" y="-1885.5" font-family="Helvetica,sans-Serif" font-size="10.00" fill="#000000">+ MIDI_Sink()</text>
<text text-anchor="start" x="11.5" y="-1874.5" font-family="Helvetica,sans-Serif" font-size="10.00" fill="#000000">+ operator=()</text>
<text text-anchor="start" x="11.5" y="-1863.5" font-family="Helvetica,sans-Serif" font-size="10.00" fill="#000000">+ MIDI_Sink()</text>
<text text-anchor="start" x="11.5" y="-1852.5" font-family="Helvetica,sans-Serif" font-size="10.00" fill="#000000">+ operator=()</text>
<text text-anchor="start" x="11.5" y="-1841.5" font-family="Helvetica,sans-Serif" font-size="10.00" fill="#000000">+ ~MIDI_Sink()</text>
<text text-anchor="start" x="11.5" y="-1830.5" font-family="Helvetica,sans-Serif" font-size="10.00" fill="#000000">&#45; lockDownstream()</text>
<text text-anchor="start" x="11.5" y="-1819.5" font-family="Helvetica,sans-Serif" font-size="10.00" fill="#000000">&#45; getFinalSink()</text>
<text text-anchor="start" x="11.5" y="-1808.5" font-family="Helvetica,sans-Serif" font-size="10.00" fill="#000000">&#45; disconnectSourcePipesShallow()</text>
<text text-anchor="start" x="11.5" y="-1797.5" font-family="Helvetica,sans-Serif" font-size="10.00" fill="#000000">* sinkMIDIfromPipe()</text>
<text text-anchor="start" x="11.5" y="-1786.5" font-family="Helvetica,sans-Serif" font-size="10.00" fill="#000000">* sinkMIDIfromPipe()</text>
<text text-anchor="start" x="11.5" y="-1775.5" font-family="Helvetica,sans-Serif" font-size="10.00" fill="#000000">* sinkMIDIfromPipe()</text>
<text text-anchor="start" x="11.5" y="-1764.5" font-family="Helvetica,sans-Serif" font-size="10.00" fill="#000000">* connectSourcePipe()</text>
<text text-anchor="start" x="11.5" y="-1753.5" font-family="Helvetica,sans-Serif" font-size="10.00" fill="#000000">* disconnectSourcePipes()</text>
<text text-anchor="start" x="11.5" y="-1742.5" font-family="Helvetica,sans-Serif" font-size="10.00" fill="#000000">* disconnect()</text>
<text text-anchor="start" x="11.5" y="-1731.5" font-family="Helvetica,sans-Serif" font-size="10.00" fill="#000000">* hasSourcePipe()</text>
</a>
</g>
</g>
<!-- Node4&#45;&gt;Node3 -->
<g id="edge3" class="edge">
<title>Node4&#45;&gt;Node3</title>
<path fill="none" stroke="#191970" d="M77.303,-1714.2016C66.604,-1573.0939 49.6434,-1349.4018 43.669,-1270.6062"/>
<polygon fill="none" stroke="#191970" points="73.8161,-1714.5088 78.0623,-1724.2155 80.7961,-1713.9795 73.8161,-1714.5088"/>
</g>
<!-- Node5 -->
<g id="node5" class="node">
<title>Node5</title>
<g id="a_node5"><a xlink:href="../../df/d72/classMIDI__Pipe.html" target="_top" xlink:title="Class that routes MIDI messages from a MIDI_Source to a MIDI_Sink.">
<polygon fill="#ffffff" stroke="#000000" points="104.5,-1289.5 104.5,-1676.5 220.5,-1676.5 220.5,-1289.5 104.5,-1289.5"/>
<text text-anchor="middle" x="162.5" y="-1664.5" font-family="Helvetica,sans-Serif" font-size="10.00" fill="#000000">MIDI_Pipe</text>
<polyline fill="none" stroke="#000000" points="104.5,-1657.5 220.5,-1657.5 "/>
<text text-anchor="middle" x="162.5" y="-1645.5" font-family="Helvetica,sans-Serif" font-size="10.00" fill="#000000"> </text>
<polyline fill="none" stroke="#000000" points="104.5,-1638.5 220.5,-1638.5 "/>
<text text-anchor="start" x="112.5" y="-1626.5" font-family="Helvetica,sans-Serif" font-size="10.00" fill="#000000">+ MIDI_Pipe()</text>
<text text-anchor="start" x="112.5" y="-1615.5" font-family="Helvetica,sans-Serif" font-size="10.00" fill="#000000">+ MIDI_Pipe()</text>
<text text-anchor="start" x="112.5" y="-1604.5" font-family="Helvetica,sans-Serif" font-size="10.00" fill="#000000">+ operator=()</text>
<text text-anchor="start" x="112.5" y="-1593.5" font-family="Helvetica,sans-Serif" font-size="10.00" fill="#000000">+ MIDI_Pipe()</text>
<text text-anchor="start" x="112.5" y="-1582.5" font-family="Helvetica,sans-Serif" font-size="10.00" fill="#000000">+ operator=()</text>
<text text-anchor="start" x="112.5" y="-1571.5" font-family="Helvetica,sans-Serif" font-size="10.00" fill="#000000">+ ~MIDI_Pipe()</text>
<text text-anchor="start" x="112.5" y="-1560.5" font-family="Helvetica,sans-Serif" font-size="10.00" fill="#000000">+ hasSink()</text>
<text text-anchor="start" x="112.5" y="-1549.5" font-family="Helvetica,sans-Serif" font-size="10.00" fill="#000000">+ hasSource()</text>
<text text-anchor="start" x="112.5" y="-1538.5" font-family="Helvetica,sans-Serif" font-size="10.00" fill="#000000">+ hasThroughOut()</text>
<text text-anchor="start" x="112.5" y="-1527.5" font-family="Helvetica,sans-Serif" font-size="10.00" fill="#000000">+ hasThroughIn()</text>
<text text-anchor="start" x="112.5" y="-1516.5" font-family="Helvetica,sans-Serif" font-size="10.00" fill="#000000">+ disconnect()</text>
<text text-anchor="start" x="112.5" y="-1505.5" font-family="Helvetica,sans-Serif" font-size="10.00" fill="#000000">+ getFinalSink()</text>
<text text-anchor="start" x="112.5" y="-1494.5" font-family="Helvetica,sans-Serif" font-size="10.00" fill="#000000">+ getInitialSource()</text>
<text text-anchor="start" x="112.5" y="-1483.5" font-family="Helvetica,sans-Serif" font-size="10.00" fill="#000000">+ disconnect()</text>
<text text-anchor="start" x="112.5" y="-1472.5" font-family="Helvetica,sans-Serif" font-size="10.00" fill="#000000">+ disconnect()</text>
<text text-anchor="start" x="112.5" y="-1461.5" font-family="Helvetica,sans-Serif" font-size="10.00" fill="#000000">+ exclusive()</text>
<text text-anchor="start" x="112.5" y="-1450.5" font-family="Helvetica,sans-Serif" font-size="10.00" fill="#000000">+ isLocked()</text>
<text text-anchor="start" x="112.5" y="-1439.5" font-family="Helvetica,sans-Serif" font-size="10.00" fill="#000000">+ isAvailableForWrite()</text>
<text text-anchor="start" x="112.5" y="-1428.5" font-family="Helvetica,sans-Serif" font-size="10.00" fill="#000000"># pipeMIDI()</text>
<text text-anchor="start" x="112.5" y="-1417.5" font-family="Helvetica,sans-Serif" font-size="10.00" fill="#000000"># pipeMIDI()</text>
<text text-anchor="start" x="112.5" y="-1406.5" font-family="Helvetica,sans-Serif" font-size="10.00" fill="#000000"># pipeMIDI()</text>
<text text-anchor="start" x="112.5" y="-1395.5" font-family="Helvetica,sans-Serif" font-size="10.00" fill="#000000">&#45; connectSink()</text>
<text text-anchor="start" x="112.5" y="-1384.5" font-family="Helvetica,sans-Serif" font-size="10.00" fill="#000000">&#45; disconnectSink()</text>
<text text-anchor="start" x="112.5" y="-1373.5" font-family="Helvetica,sans-Serif" font-size="10.00" fill="#000000">&#45; connectSource()</text>
<text text-anchor="start" x="112.5" y="-1362.5" font-family="Helvetica,sans-Serif" font-size="10.00" fill="#000000">&#45; disconnectSource()</text>
<text text-anchor="start" x="112.5" y="-1351.5" font-family="Helvetica,sans-Serif" font-size="10.00" fill="#000000">&#45; sinkMIDIfromPipe()</text>
<text text-anchor="start" x="112.5" y="-1340.5" font-family="Helvetica,sans-Serif" font-size="10.00" fill="#000000">&#45; sinkMIDIfromPipe()</text>
<text text-anchor="start" x="112.5" y="-1329.5" font-family="Helvetica,sans-Serif" font-size="10.00" fill="#000000">&#45; sinkMIDIfromPipe()</text>
<text text-anchor="start" x="112.5" y="-1318.5" font-family="Helvetica,sans-Serif" font-size="10.00" fill="#000000">&#45; lockDownstream()</text>
<text text-anchor="start" x="112.5" y="-1307.5" font-family="Helvetica,sans-Serif" font-size="10.00" fill="#000000">&#45; lockUpstream()</text>
<text text-anchor="start" x="112.5" y="-1296.5" font-family="Helvetica,sans-Serif" font-size="10.00" fill="#000000">&#45; lockSelf()</text>
</a>
</g>
</g>
<!-- Node4&#45;&gt;Node5 -->
<g id="edge5" class="edge">
<title>Node4&#45;&gt;Node5</title>
<path fill="none" stroke="#8b1a1a" d="M92.4171,-1714.1211C93.3124,-1707.6349 94.3343,-1701.2278 95.5,-1695 97.9856,-1681.7207 101.0439,-1668.1097 104.4719,-1654.506"/>
<polygon fill="none" stroke="#8b1a1a" points="88.904,-1714.0024 91.112,-1724.3646 95.8479,-1714.8872 88.904,-1714.0024"/>
</g>
<!-- Node4&#45;&gt;Node5 -->
<g id="edge8" class="edge">
<title>Node4&#45;&gt;Node5</title>
<path fill="none" stroke="#404040" d="M105.6741,-1724.1762C107.5678,-1714.295 109.5228,-1704.458 111.5,-1695 111.9524,-1692.8361 112.4107,-1690.6606 112.8743,-1688.4751"/>
<polygon fill="none" stroke="#404040" points="112.8829,-1688.4348 110.2319,-1681.7286 115.4026,-1676.7022 118.0536,-1683.4084 112.8829,-1688.4348"/>
<text text-anchor="middle" x="124" y="-1698" font-family="Helvetica,sans-Serif" font-size="10.00" fill="#000000"> &#45;sink</text>
</g>
<!-- Node5&#45;&gt;Node4 -->
<g id="edge4" class="edge">
<title>Node5&#45;&gt;Node4</title>
<path fill="none" stroke="#404040" d="M146.9468,-1676.7019C145.0385,-1686.6583 142.8989,-1696.4743 140.5,-1706 139.9549,-1708.1647 139.3796,-1710.3403 138.7769,-1712.5234"/>
<polygon fill="none" stroke="#404040" points="138.7127,-1712.741 140.8472,-1719.6289 135.3101,-1724.2485 133.1756,-1717.3605 138.7127,-1712.741"/>
<text text-anchor="middle" x="171.5" y="-1698" font-family="Helvetica,sans-Serif" font-size="10.00" fill="#000000"> #sourcePipe</text>
</g>
<!-- Node5&#45;&gt;Node5 -->
<g id="edge10" class="edge">
<title>Node5&#45;&gt;Node5</title>
<path fill="none" stroke="#404040" d="M220.8117,-1521.1245C231.2258,-1516.1691 238.5,-1503.4609 238.5,-1483 238.5,-1469.5725 235.3673,-1459.4839 230.2702,-1452.7341"/>
<polygon fill="none" stroke="#404040" points="230.0417,-1452.5442 222.8705,-1451.7865 220.8117,-1444.8755 227.9829,-1445.6332 230.0417,-1452.5442"/>
<text text-anchor="middle" x="264.5" y="-1486" font-family="Helvetica,sans-Serif" font-size="10.00" fill="#000000"> &#45;throughIn</text>
<text text-anchor="middle" x="264.5" y="-1475" font-family="Helvetica,sans-Serif" font-size="10.00" fill="#000000">&#45;throughOut</text>
</g>
<!-- Node6 -->
<g id="node6" class="node">
<title>Node6</title>
<g id="a_node6"><a xlink:href="../../df/d5b/classMIDI__Source.html" target="_top" xlink:title="Class that can send MIDI messages to a MIDI pipe.">
<polygon fill="#ffffff" stroke="#000000" points="85,-961.5 85,-1194.5 240,-1194.5 240,-961.5 85,-961.5"/>
<text text-anchor="middle" x="162.5" y="-1182.5" font-family="Helvetica,sans-Serif" font-size="10.00" fill="#000000">MIDI_Source</text>
<polyline fill="none" stroke="#000000" points="85,-1175.5 240,-1175.5 "/>
<text text-anchor="middle" x="162.5" y="-1163.5" font-family="Helvetica,sans-Serif" font-size="10.00" fill="#000000"> </text>
<polyline fill="none" stroke="#000000" points="85,-1156.5 240,-1156.5 "/>
<text text-anchor="start" x="93" y="-1144.5" font-family="Helvetica,sans-Serif" font-size="10.00" fill="#000000">+ MIDI_Source()</text>
<text text-anchor="start" x="93" y="-1133.5" font-family="Helvetica,sans-Serif" font-size="10.00" fill="#000000">+ MIDI_Source()</text>
<text text-anchor="start" x="93" y="-1122.5" font-family="Helvetica,sans-Serif" font-size="10.00" fill="#000000">+ operator=()</text>
<text text-anchor="start" x="93" y="-1111.5" font-family="Helvetica,sans-Serif" font-size="10.00" fill="#000000">+ MIDI_Source()</text>
<text text-anchor="start" x="93" y="-1100.5" font-family="Helvetica,sans-Serif" font-size="10.00" fill="#000000">+ operator=()</text>
<text text-anchor="start" x="93" y="-1089.5" font-family="Helvetica,sans-Serif" font-size="10.00" fill="#000000">+ ~MIDI_Source()</text>
<text text-anchor="start" x="93" y="-1078.5" font-family="Helvetica,sans-Serif" font-size="10.00" fill="#000000">&#45; getInitialSource()</text>
<text text-anchor="start" x="93" y="-1067.5" font-family="Helvetica,sans-Serif" font-size="10.00" fill="#000000">&#45; disconnectSinkPipesShallow()</text>
<text text-anchor="start" x="93" y="-1056.5" font-family="Helvetica,sans-Serif" font-size="10.00" fill="#000000">* sourceMIDItoPipe()</text>
<text text-anchor="start" x="93" y="-1045.5" font-family="Helvetica,sans-Serif" font-size="10.00" fill="#000000">* sourceMIDItoPipe()</text>
<text text-anchor="start" x="93" y="-1034.5" font-family="Helvetica,sans-Serif" font-size="10.00" fill="#000000">* sourceMIDItoPipe()</text>
<text text-anchor="start" x="93" y="-1023.5" font-family="Helvetica,sans-Serif" font-size="10.00" fill="#000000">* exclusive()</text>
<text text-anchor="start" x="93" y="-1012.5" font-family="Helvetica,sans-Serif" font-size="10.00" fill="#000000">* canWrite()</text>
<text text-anchor="start" x="93" y="-1001.5" font-family="Helvetica,sans-Serif" font-size="10.00" fill="#000000">* connectSinkPipe()</text>
<text text-anchor="start" x="93" y="-990.5" font-family="Helvetica,sans-Serif" font-size="10.00" fill="#000000">* disconnectSinkPipes()</text>
<text text-anchor="start" x="93" y="-979.5" font-family="Helvetica,sans-Serif" font-size="10.00" fill="#000000">* disconnect()</text>
<text text-anchor="start" x="93" y="-968.5" font-family="Helvetica,sans-Serif" font-size="10.00" fill="#000000">* hasSinkPipe()</text>
</a>
</g>
</g>
<!-- Node5&#45;&gt;Node6 -->
<g id="edge7" class="edge">
<title>Node5&#45;&gt;Node6</title>
<path fill="none" stroke="#404040" d="M109.6042,-1289.4753C107.5782,-1263.7681 108.0635,-1237.7525 112.5,-1213 112.8882,-1210.8339 113.3089,-1208.6572 113.7593,-1206.473"/>
<polygon fill="none" stroke="#404040" points="113.7668,-1206.4399 111.2019,-1199.7004 116.4365,-1194.7407 119.0014,-1201.4802 113.7668,-1206.4399"/>
<text text-anchor="middle" x="135.5" y="-1239.5" font-family="Helvetica,sans-Serif" font-size="10.00" fill="#000000"> #sinkPipe</text>
</g>
<!-- Node6&#45;&gt;Node5 -->
<g id="edge6" class="edge">
<title>Node6&#45;&gt;Node5</title>
<path fill="none" stroke="#8b1a1a" d="M162.5,-1204.7142C162.5,-1231.6299 162.5,-1260.633 162.5,-1289.3964"/>
<polygon fill="none" stroke="#8b1a1a" points="166.0001,-1204.5055 162.5,-1194.5056 159.0001,-1204.5056 166.0001,-1204.5055"/>
</g>
<!-- Node6&#45;&gt;Node5 -->
<g id="edge11" class="edge">
<title>Node6&#45;&gt;Node5</title>
<path fill="none" stroke="#404040" d="M175.3562,-1194.6543C175.8023,-1200.8548 176.1897,-1206.9994 176.5,-1213 177.5789,-1233.8632 177.8595,-1255.6331 177.5867,-1277.3639"/>
<polygon fill="none" stroke="#404040" points="177.5857,-1277.4283 181.4822,-1283.496 177.3798,-1289.4265 173.4833,-1283.3588 177.5857,-1277.4283"/>
<text text-anchor="middle" x="196.5" y="-1239.5" font-family="Helvetica,sans-Serif" font-size="10.00" fill="#000000"> &#45;source</text>
</g>
<!-- Node8 -->
<g id="node8" class="node">
<title>Node8</title>
<g id="a_node8"><a xlink:href="../../d2/dcd/structTrueMIDI__Source.html" target="_top" xlink:title="A MIDI_Source that is not a MIDI_Pipe.">
<polygon fill="#ffffff" stroke="#000000" points="97.5,-866.5 97.5,-923.5 191.5,-923.5 191.5,-866.5 97.5,-866.5"/>
<text text-anchor="middle" x="144.5" y="-911.5" font-family="Helvetica,sans-Serif" font-size="10.00" fill="#000000">TrueMIDI_Source</text>
<polyline fill="none" stroke="#000000" points="97.5,-904.5 191.5,-904.5 "/>
<text text-anchor="middle" x="144.5" y="-892.5" font-family="Helvetica,sans-Serif" font-size="10.00" fill="#000000"> </text>
<polyline fill="none" stroke="#000000" points="97.5,-885.5 191.5,-885.5 "/>
<text text-anchor="middle" x="144.5" y="-873.5" font-family="Helvetica,sans-Serif" font-size="10.00" fill="#000000"> </text>
</a>
</g>
</g>
<!-- Node6&#45;&gt;Node8 -->
<g id="edge13" class="edge">
<title>Node6&#45;&gt;Node8</title>
<path fill="none" stroke="#191970" d="M150.0152,-951.071C149.0264,-941.0187 148.104,-931.641 147.3073,-923.5411"/>
<polygon fill="none" stroke="#191970" points="146.5617,-951.7166 151.0239,-961.3259 153.5281,-951.0313 146.5617,-951.7166"/>
</g>
<!-- Node7 -->
<g id="node7" class="node">
<title>Node7</title>
<g id="a_node7"><a xlink:href="../../d6/da4/classAH_1_1BitArray.html" target="_top" xlink:title=" ">
<polygon fill="#ffffff" stroke="#000000" points="193,-1752 193,-1919 294,-1919 294,-1752 193,-1752"/>
<text text-anchor="middle" x="243.5" y="-1907" font-family="Helvetica,sans-Serif" font-size="10.00" fill="#000000">BitArray&lt; 16 &gt;</text>
<polyline fill="none" stroke="#000000" points="193,-1900 294,-1900 "/>
<text text-anchor="start" x="201" y="-1888" font-family="Helvetica,sans-Serif" font-size="10.00" fill="#000000">&#45; buffer</text>
<text text-anchor="start" x="201" y="-1877" font-family="Helvetica,sans-Serif" font-size="10.00" fill="#000000">&#45; bufferLength</text>
<polyline fill="none" stroke="#000000" points="193,-1870 294,-1870 "/>
<text text-anchor="start" x="201" y="-1858" font-family="Helvetica,sans-Serif" font-size="10.00" fill="#000000">+ get()</text>
<text text-anchor="start" x="201" y="-1847" font-family="Helvetica,sans-Serif" font-size="10.00" fill="#000000">+ set()</text>
<text text-anchor="start" x="201" y="-1836" font-family="Helvetica,sans-Serif" font-size="10.00" fill="#000000">+ set()</text>
<text text-anchor="start" x="201" y="-1825" font-family="Helvetica,sans-Serif" font-size="10.00" fill="#000000">+ clear()</text>
<text text-anchor="start" x="201" y="-1814" font-family="Helvetica,sans-Serif" font-size="10.00" fill="#000000">+ safeIndex()</text>
<text text-anchor="start" x="201" y="-1803" font-family="Helvetica,sans-Serif" font-size="10.00" fill="#000000">+ getByte()</text>
<text text-anchor="start" x="201" y="-1792" font-family="Helvetica,sans-Serif" font-size="10.00" fill="#000000">+ getBufferLength()</text>
<text text-anchor="start" x="201" y="-1781" font-family="Helvetica,sans-Serif" font-size="10.00" fill="#000000">&#45; getBufferIndex()</text>
<text text-anchor="start" x="201" y="-1770" font-family="Helvetica,sans-Serif" font-size="10.00" fill="#000000">&#45; getBufferBit()</text>
<text text-anchor="start" x="201" y="-1759" font-family="Helvetica,sans-Serif" font-size="10.00" fill="#000000">&#45; getBufferMask()</text>
</a>
</g>
</g>
<!-- Node7&#45;&gt;Node5 -->
<g id="edge9" class="edge">
<title>Node7&#45;&gt;Node5</title>
<path fill="none" stroke="#404040" d="M224.3041,-1751.9624C219.8024,-1732.3715 214.8097,-1710.6441 209.6696,-1688.2753"/>
<polygon fill="none" stroke="#404040" points="209.6576,-1688.2225 204.4154,-1683.2707 206.9701,-1676.5273 212.2123,-1681.4791 209.6576,-1688.2225"/>
<text text-anchor="middle" x="228.5" y="-1698" font-family="Helvetica,sans-Serif" font-size="10.00" fill="#000000"> &#45;locks</text>
</g>
<!-- Node8&#45;&gt;Node2 -->
<g id="edge12" class="edge">
<title>Node8&#45;&gt;Node2</title>
<path fill="none" stroke="#191970" d="M128.2378,-857.1552C112.7542,-821.1224 89.7937,-767.6898 75.785,-735.0891"/>
<polygon fill="none" stroke="#191970" points="125.0341,-858.5651 132.1978,-866.3709 131.4655,-855.8014 125.0341,-858.5651"/>
</g>
<!-- Node9 -->
<g id="node9" class="node">
<title>Node9</title>
<g id="a_node9"><a xlink:href="../../d6/d72/classMIDI__Sender.html" target="_top" xlink:title=" ">
<polygon fill="#ffffff" stroke="#000000" points="138.5,-584.5 138.5,-828.5 296.5,-828.5 296.5,-584.5 138.5,-584.5"/>
<text text-anchor="middle" x="217.5" y="-816.5" font-family="Helvetica,sans-Serif" font-size="10.00" fill="#000000">MIDI_Sender&lt; MIDI_Interface &gt;</text>
<polyline fill="none" stroke="#000000" points="138.5,-809.5 296.5,-809.5 "/>
<text text-anchor="middle" x="217.5" y="-797.5" font-family="Helvetica,sans-Serif" font-size="10.00" fill="#000000"> </text>
<polyline fill="none" stroke="#000000" points="138.5,-790.5 296.5,-790.5 "/>
<text text-anchor="start" x="146.5" y="-778.5" font-family="Helvetica,sans-Serif" font-size="10.00" fill="#000000">* send()</text>
<text text-anchor="start" x="146.5" y="-767.5" font-family="Helvetica,sans-Serif" font-size="10.00" fill="#000000">* send()</text>
<text text-anchor="start" x="146.5" y="-756.5" font-family="Helvetica,sans-Serif" font-size="10.00" fill="#000000">* send()</text>
<text text-anchor="start" x="146.5" y="-745.5" font-family="Helvetica,sans-Serif" font-size="10.00" fill="#000000">* send()</text>
<text text-anchor="start" x="146.5" y="-734.5" font-family="Helvetica,sans-Serif" font-size="10.00" fill="#000000">* send()</text>
<text text-anchor="start" x="146.5" y="-723.5" font-family="Helvetica,sans-Serif" font-size="10.00" fill="#000000">* send()</text>
<text text-anchor="start" x="146.5" y="-712.5" font-family="Helvetica,sans-Serif" font-size="10.00" fill="#000000">* send()</text>
<text text-anchor="start" x="146.5" y="-701.5" font-family="Helvetica,sans-Serif" font-size="10.00" fill="#000000">* sendOnCable()</text>
<text text-anchor="start" x="146.5" y="-690.5" font-family="Helvetica,sans-Serif" font-size="10.00" fill="#000000">* sendOnCable()</text>
<text text-anchor="start" x="146.5" y="-679.5" font-family="Helvetica,sans-Serif" font-size="10.00" fill="#000000">* sendOnCable()</text>
<text text-anchor="start" x="146.5" y="-668.5" font-family="Helvetica,sans-Serif" font-size="10.00" fill="#000000">* sendNoteOn()</text>
<text text-anchor="start" x="146.5" y="-657.5" font-family="Helvetica,sans-Serif" font-size="10.00" fill="#000000">* sendNoteOff()</text>
<text text-anchor="start" x="146.5" y="-646.5" font-family="Helvetica,sans-Serif" font-size="10.00" fill="#000000">* sendKP()</text>
<text text-anchor="start" x="146.5" y="-635.5" font-family="Helvetica,sans-Serif" font-size="10.00" fill="#000000">* sendCC()</text>
<text text-anchor="start" x="146.5" y="-624.5" font-family="Helvetica,sans-Serif" font-size="10.00" fill="#000000">* sendPC()</text>
<text text-anchor="start" x="146.5" y="-613.5" font-family="Helvetica,sans-Serif" font-size="10.00" fill="#000000">* sendPC()</text>
<text text-anchor="start" x="146.5" y="-602.5" font-family="Helvetica,sans-Serif" font-size="10.00" fill="#000000">* sendCP()</text>
<text text-anchor="start" x="146.5" y="-591.5" font-family="Helvetica,sans-Serif" font-size="10.00" fill="#000000">* sendPB()</text>
</a>
</g>
</g>
<!-- Node9&#45;&gt;Node1 -->
<g id="edge14" class="edge">
<title>Node9&#45;&gt;Node1</title>
<path fill="none" stroke="#191970" d="M201.5777,-573.8138C198.3393,-546.8273 194.9646,-518.7048 191.8275,-492.5626"/>
<polygon fill="none" stroke="#191970" points="198.1447,-574.5828 202.8113,-584.0945 205.0949,-573.7487 198.1447,-574.5828"/>
</g>
<!-- Node10 -->
<g id="node10" class="node">
<title>Node10</title>
<g id="a_node10"><a xlink:href="../../d1/d55/classAH_1_1Updatable.html" target="_top" xlink:title=" ">
<polygon fill="#ffffff" stroke="#000000" points="437.5,-661.5 437.5,-751.5 581.5,-751.5 581.5,-661.5 437.5,-661.5"/>
<text text-anchor="middle" x="509.5" y="-739.5" font-family="Helvetica,sans-Serif" font-size="10.00" fill="#000000">Updatable&lt; MIDI_Interface &gt;</text>
<polyline fill="none" stroke="#000000" points="437.5,-732.5 581.5,-732.5 "/>
<text text-anchor="middle" x="509.5" y="-720.5" font-family="Helvetica,sans-Serif" font-size="10.00" fill="#000000"> </text>
<polyline fill="none" stroke="#000000" points="437.5,-713.5 581.5,-713.5 "/>
<text text-anchor="start" x="445.5" y="-701.5" font-family="Helvetica,sans-Serif" font-size="10.00" fill="#000000">* begin()</text>
<text text-anchor="start" x="445.5" y="-690.5" font-family="Helvetica,sans-Serif" font-size="10.00" fill="#000000">* update()</text>
<text text-anchor="start" x="445.5" y="-679.5" font-family="Helvetica,sans-Serif" font-size="10.00" fill="#000000">* beginAll()</text>
<text text-anchor="start" x="445.5" y="-668.5" font-family="Helvetica,sans-Serif" font-size="10.00" fill="#000000">* updateAll()</text>
</a>
</g>
</g>
<!-- Node10&#45;&gt;Node1 -->
<g id="edge15" class="edge">
<title>Node10&#45;&gt;Node1</title>
<path fill="none" stroke="#191970" d="M456.2283,-654.1939C395.1908,-594.2628 295.6469,-496.5234 233.7796,-435.7776"/>
<polygon fill="none" stroke="#191970" points="453.8883,-656.8014 463.4759,-661.3101 458.7925,-651.8066 453.8883,-656.8014"/>
</g>
<!-- Node12 -->
<g id="node12" class="node">
<title>Node12</title>
<g id="a_node12"><a xlink:href="../../d4/d23/classDoublyLinkable.html" target="_top" xlink:title=" ">
<polygon fill="#ffffff" stroke="#000000" points="373,-347.5 373,-415.5 510,-415.5 510,-347.5 373,-347.5"/>
<text text-anchor="start" x="381" y="-403.5" font-family="Helvetica,sans-Serif" font-size="10.00" fill="#000000">DoublyLinkable&lt; Updatable</text>
<text text-anchor="middle" x="441.5" y="-392.5" font-family="Helvetica,sans-Serif" font-size="10.00" fill="#000000">&lt; MIDI_Interface &gt; &gt;</text>
<polyline fill="none" stroke="#000000" points="373,-385.5 510,-385.5 "/>
<text text-anchor="middle" x="441.5" y="-373.5" font-family="Helvetica,sans-Serif" font-size="10.00" fill="#000000"> </text>
<polyline fill="none" stroke="#000000" points="373,-366.5 510,-366.5 "/>
<text text-anchor="start" x="381" y="-354.5" font-family="Helvetica,sans-Serif" font-size="10.00" fill="#000000"># ~DoublyLinkable()</text>
</a>
</g>
</g>
<!-- Node10&#45;&gt;Node12 -->
<g id="edge18" class="edge">
<title>Node10&#45;&gt;Node12</title>
<path fill="none" stroke="#404040" d="M500.0449,-661.3101C487.1468,-599.6649 464.1579,-489.7916 451.156,-427.6501"/>
<polygon fill="none" stroke="#404040" points="451.1524,-427.6323 446.0083,-422.5787 448.6947,-415.8867 453.8388,-420.9403 451.1524,-427.6323"/>
<text text-anchor="middle" x="502" y="-558" font-family="Helvetica,sans-Serif" font-size="10.00" fill="#000000"> #next</text>
<text text-anchor="middle" x="502" y="-547" font-family="Helvetica,sans-Serif" font-size="10.00" fill="#000000">#previous</text>
</g>
<!-- Node13 -->
<g id="node13" class="node">
<title>Node13</title>
<g id="a_node13"><a xlink:href="../../dd/d16/classDoublyLinkedList.html" target="_top" xlink:title=" ">
<polygon fill="#ffffff" stroke="#000000" points="528,-237.5 528,-525.5 673,-525.5 673,-237.5 528,-237.5"/>
<text text-anchor="start" x="536" y="-513.5" font-family="Helvetica,sans-Serif" font-size="10.00" fill="#000000">DoublyLinkedList&lt; Updatable</text>
<text text-anchor="middle" x="600.5" y="-502.5" font-family="Helvetica,sans-Serif" font-size="10.00" fill="#000000">&lt; MIDI_Interface &gt; &gt;</text>
<polyline fill="none" stroke="#000000" points="528,-495.5 673,-495.5 "/>
<text text-anchor="middle" x="600.5" y="-483.5" font-family="Helvetica,sans-Serif" font-size="10.00" fill="#000000"> </text>
<polyline fill="none" stroke="#000000" points="528,-476.5 673,-476.5 "/>
<text text-anchor="start" x="536" y="-464.5" font-family="Helvetica,sans-Serif" font-size="10.00" fill="#000000">+ append()</text>
<text text-anchor="start" x="536" y="-453.5" font-family="Helvetica,sans-Serif" font-size="10.00" fill="#000000">+ append()</text>
<text text-anchor="start" x="536" y="-442.5" font-family="Helvetica,sans-Serif" font-size="10.00" fill="#000000">+ insertBefore()</text>
<text text-anchor="start" x="536" y="-431.5" font-family="Helvetica,sans-Serif" font-size="10.00" fill="#000000">+ insertBefore()</text>
<text text-anchor="start" x="536" y="-420.5" font-family="Helvetica,sans-Serif" font-size="10.00" fill="#000000">+ insertSorted()</text>
<text text-anchor="start" x="536" y="-409.5" font-family="Helvetica,sans-Serif" font-size="10.00" fill="#000000">+ insertSorted()</text>
<text text-anchor="start" x="536" y="-398.5" font-family="Helvetica,sans-Serif" font-size="10.00" fill="#000000">+ remove()</text>
<text text-anchor="start" x="536" y="-387.5" font-family="Helvetica,sans-Serif" font-size="10.00" fill="#000000">+ remove()</text>
<text text-anchor="start" x="536" y="-376.5" font-family="Helvetica,sans-Serif" font-size="10.00" fill="#000000">+ moveDown()</text>
<text text-anchor="start" x="536" y="-365.5" font-family="Helvetica,sans-Serif" font-size="10.00" fill="#000000">+ couldContain()</text>
<text text-anchor="start" x="536" y="-354.5" font-family="Helvetica,sans-Serif" font-size="10.00" fill="#000000">+ couldContain()</text>
<text text-anchor="start" x="536" y="-343.5" font-family="Helvetica,sans-Serif" font-size="10.00" fill="#000000">+ begin()</text>
<text text-anchor="start" x="536" y="-332.5" font-family="Helvetica,sans-Serif" font-size="10.00" fill="#000000">+ begin()</text>
<text text-anchor="start" x="536" y="-321.5" font-family="Helvetica,sans-Serif" font-size="10.00" fill="#000000">+ end()</text>
<text text-anchor="start" x="536" y="-310.5" font-family="Helvetica,sans-Serif" font-size="10.00" fill="#000000">+ end()</text>
<text text-anchor="start" x="536" y="-299.5" font-family="Helvetica,sans-Serif" font-size="10.00" fill="#000000">+ rbegin()</text>
<text text-anchor="start" x="536" y="-288.5" font-family="Helvetica,sans-Serif" font-size="10.00" fill="#000000">+ rbegin()</text>
<text text-anchor="start" x="536" y="-277.5" font-family="Helvetica,sans-Serif" font-size="10.00" fill="#000000">+ rend()</text>
<text text-anchor="start" x="536" y="-266.5" font-family="Helvetica,sans-Serif" font-size="10.00" fill="#000000">+ rend()</text>
<text text-anchor="start" x="536" y="-255.5" font-family="Helvetica,sans-Serif" font-size="10.00" fill="#000000">+ getFirst()</text>
<text text-anchor="start" x="536" y="-244.5" font-family="Helvetica,sans-Serif" font-size="10.00" fill="#000000">+ getLast()</text>
</a>
</g>
</g>
<!-- Node10&#45;&gt;Node13 -->
<g id="edge20" class="edge">
<title>Node10&#45;&gt;Node13</title>
<path fill="none" stroke="#404040" d="M522.1532,-661.3101C531.2731,-628.7389 544.1629,-582.7039 556.8593,-537.3595"/>
<polygon fill="none" stroke="#404040" points="556.9323,-537.0985 554.6983,-530.2422 560.168,-525.543 562.402,-532.3993 556.9323,-537.0985"/>
<text text-anchor="middle" x="566.5" y="-558" font-family="Helvetica,sans-Serif" font-size="10.00" fill="#000000"> &#45;last</text>
<text text-anchor="middle" x="566.5" y="-547" font-family="Helvetica,sans-Serif" font-size="10.00" fill="#000000">&#45;first</text>
</g>
<!-- Node11 -->
<g id="node11" class="node">
<title>Node11</title>
<g id="a_node11"><a xlink:href="../../d8/d1a/classAH_1_1UpdatableCRTP.html" target="_top" xlink:title=" ">
<polygon fill="#ffffff" stroke="#000000" points="529.5,-.5 529.5,-189.5 671.5,-189.5 671.5,-.5 529.5,-.5"/>
<text text-anchor="start" x="537.5" y="-177.5" font-family="Helvetica,sans-Serif" font-size="10.00" fill="#000000">UpdatableCRTP&lt; Updatable</text>
<text text-anchor="middle" x="600.5" y="-166.5" font-family="Helvetica,sans-Serif" font-size="10.00" fill="#000000">&lt; MIDI_Interface &gt; &gt;</text>
<polyline fill="none" stroke="#000000" points="529.5,-159.5 671.5,-159.5 "/>
<text text-anchor="middle" x="600.5" y="-147.5" font-family="Helvetica,sans-Serif" font-size="10.00" fill="#000000"> </text>
<polyline fill="none" stroke="#000000" points="529.5,-140.5 671.5,-140.5 "/>
<text text-anchor="start" x="537.5" y="-128.5" font-family="Helvetica,sans-Serif" font-size="10.00" fill="#000000">+ ~UpdatableCRTP()</text>
<text text-anchor="start" x="537.5" y="-117.5" font-family="Helvetica,sans-Serif" font-size="10.00" fill="#000000"># UpdatableCRTP()</text>
<text text-anchor="start" x="537.5" y="-106.5" font-family="Helvetica,sans-Serif" font-size="10.00" fill="#000000">* enable()</text>
<text text-anchor="start" x="537.5" y="-95.5" font-family="Helvetica,sans-Serif" font-size="10.00" fill="#000000">* disable()</text>
<text text-anchor="start" x="537.5" y="-84.5" font-family="Helvetica,sans-Serif" font-size="10.00" fill="#000000">* isEnabled()</text>
<text text-anchor="start" x="537.5" y="-73.5" font-family="Helvetica,sans-Serif" font-size="10.00" fill="#000000">* enable()</text>
<text text-anchor="start" x="537.5" y="-62.5" font-family="Helvetica,sans-Serif" font-size="10.00" fill="#000000">* enable()</text>
<text text-anchor="start" x="537.5" y="-51.5" font-family="Helvetica,sans-Serif" font-size="10.00" fill="#000000">* enable()</text>
<text text-anchor="start" x="537.5" y="-40.5" font-family="Helvetica,sans-Serif" font-size="10.00" fill="#000000">* disable()</text>
<text text-anchor="start" x="537.5" y="-29.5" font-family="Helvetica,sans-Serif" font-size="10.00" fill="#000000">* disable()</text>
<text text-anchor="start" x="537.5" y="-18.5" font-family="Helvetica,sans-Serif" font-size="10.00" fill="#000000">* disable()</text>
<text text-anchor="start" x="537.5" y="-7.5" font-family="Helvetica,sans-Serif" font-size="10.00" fill="#000000">* applyToAll()</text>
</a>
</g>
</g>
<!-- Node11&#45;&gt;Node10 -->
<g id="edge16" class="edge">
<title>Node11&#45;&gt;Node10</title>
<path fill="none" stroke="#191970" d="M667.7597,-199.2425C673.3496,-211.5909 678.1379,-224.3206 681.5,-237 714.4205,-361.154 729.2196,-406.7489 681.5,-526 659.4682,-581.0574 611.7579,-628.8799 572.1628,-661.4432"/>
<polygon fill="none" stroke="#191970" points="670.774,-197.429 663.3391,-189.881 664.4442,-200.4181 670.774,-197.429"/>
</g>
<!-- Node12&#45;&gt;Node11 -->
<g id="edge17" class="edge">
<title>Node12&#45;&gt;Node11</title>
<path fill="none" stroke="#191970" d="M463.9447,-338.4584C479.1049,-309.6167 499.7056,-270.8664 518.5,-237 526.9955,-221.6915 536.1417,-205.5431 545.1355,-189.8418"/>
<polygon fill="none" stroke="#191970" points="460.7708,-336.9745 459.2229,-347.4556 466.9691,-340.2274 460.7708,-336.9745"/>
</g>
<!-- Node13&#45;&gt;Node11 -->
<g id="edge19" class="edge">
<title>Node13&#45;&gt;Node11</title>
<path fill="none" stroke="#404040" d="M600.5,-237.4106C600.5,-225.5403 600.5,-213.6776 600.5,-202.1487"/>
<polygon fill="none" stroke="#404040" points="600.5001,-201.7849 596.5,-195.785 600.5,-189.7849 604.5,-195.7849 600.5001,-201.7849"/>
<text text-anchor="middle" x="628.5" y="-211" font-family="Helvetica,sans-Serif" font-size="10.00" fill="#000000"> #updatables</text>
</g>
</g>
</svg>
