<?xml version="1.0" encoding="UTF-8" standalone="no"?>
<!DOCTYPE svg PUBLIC "-//W3C//DTD SVG 1.1//EN"
 "http://www.w3.org/Graphics/SVG/1.1/DTD/svg11.dtd">
<!-- Generated by graphviz version 2.43.0 (0)
 -->
<!-- Title: MIDI_Interface Pages: 1 -->
<svg width="783pt" height="1955pt"
 viewBox="0.00 0.00 783.35 1955.00" xmlns="http://www.w3.org/2000/svg" xmlns:xlink="http://www.w3.org/1999/xlink">
<g id="graph0" class="graph" transform="scale(1 1) rotate(0) translate(4 1951)">
<title>MIDI_Interface</title>
<polygon fill="white" stroke="transparent" points="-4,4 -4,-1951 779.35,-1951 779.35,4 -4,4"/>
<!-- Node1 -->
<g id="node1" class="node">
<title>Node1</title>
<g id="a_node1"><a xlink:title="An abstract class for MIDI interfaces.">
<polygon fill="#bfbfbf" stroke="black" points="128.5,-270.5 128.5,-492.5 250.5,-492.5 250.5,-270.5 128.5,-270.5"/>
<text text-anchor="middle" x="189.5" y="-480.5" font-family="Helvetica,sans-Serif" font-size="10.00">MIDI_Interface</text>
<polyline fill="none" stroke="black" points="128.5,-473.5 250.5,-473.5 "/>
<text text-anchor="middle" x="189.5" y="-461.5" font-family="Helvetica,sans-Serif" font-size="10.00"> </text>
<polyline fill="none" stroke="black" points="128.5,-454.5 250.5,-454.5 "/>
<text text-anchor="start" x="136.5" y="-442.5" font-family="Helvetica,sans-Serif" font-size="10.00">+ ~MIDI_Interface()</text>
<text text-anchor="start" x="136.5" y="-431.5" font-family="Helvetica,sans-Serif" font-size="10.00">+ begin()</text>
<text text-anchor="start" x="136.5" y="-420.5" font-family="Helvetica,sans-Serif" font-size="10.00">+ update()</text>
<text text-anchor="start" x="136.5" y="-409.5" font-family="Helvetica,sans-Serif" font-size="10.00"># MIDI_Interface()</text>
<text text-anchor="start" x="136.5" y="-398.5" font-family="Helvetica,sans-Serif" font-size="10.00"># MIDI_Interface()</text>
<text text-anchor="start" x="136.5" y="-387.5" font-family="Helvetica,sans-Serif" font-size="10.00"># sendImpl()</text>
<text text-anchor="start" x="136.5" y="-376.5" font-family="Helvetica,sans-Serif" font-size="10.00"># sendImpl()</text>
<text text-anchor="start" x="136.5" y="-365.5" font-family="Helvetica,sans-Serif" font-size="10.00"># sendImpl()</text>
<text text-anchor="start" x="136.5" y="-354.5" font-family="Helvetica,sans-Serif" font-size="10.00"># sendImpl()</text>
<text text-anchor="start" x="136.5" y="-343.5" font-family="Helvetica,sans-Serif" font-size="10.00"># sinkMIDIfromPipe()</text>
<text text-anchor="start" x="136.5" y="-332.5" font-family="Helvetica,sans-Serif" font-size="10.00"># sinkMIDIfromPipe()</text>
<text text-anchor="start" x="136.5" y="-321.5" font-family="Helvetica,sans-Serif" font-size="10.00"># sinkMIDIfromPipe()</text>
<text text-anchor="start" x="136.5" y="-310.5" font-family="Helvetica,sans-Serif" font-size="10.00">* setAsDefault()</text>
<text text-anchor="start" x="136.5" y="-299.5" font-family="Helvetica,sans-Serif" font-size="10.00">* getDefault()</text>
<text text-anchor="start" x="136.5" y="-288.5" font-family="Helvetica,sans-Serif" font-size="10.00">* setCallbacks()</text>
<text text-anchor="start" x="136.5" y="-277.5" font-family="Helvetica,sans-Serif" font-size="10.00">* setCallbacks()</text>
</a>
</g>
</g>
<!-- Node1&#45;&gt;Node1 -->
<g id="edge21" class="edge">
<title>Node1&#45;&gt;Node1</title>
<path fill="none" stroke="#404040" d="M250.78,-410.91C261.25,-406.89 268.5,-397.09 268.5,-381.5 268.5,-371.76 265.67,-364.28 260.99,-359.05"/>
<polygon fill="none" stroke="#404040" points="260.69,-358.85 253.48,-358.78 250.78,-352.09 257.99,-352.17 260.69,-358.85"/>
<text text-anchor="middle" x="326" y="-379" font-family="Helvetica,sans-Serif" font-size="10.00"> &#45;DefaultMIDI_Interface</text>
</g>
<!-- Node2 -->
<g id="node2" class="node">
<title>Node2</title>
<g id="a_node2"><a xlink:href="../../d0/dc3/structTrueMIDI__SinkSource.html" target="_top" xlink:title="A struct that is both a TrueMIDI_Sink and a TrueMIDI_Source.">
<polygon fill="white" stroke="black" points="7,-678 7,-735 126,-735 126,-678 7,-678"/>
<text text-anchor="middle" x="66.5" y="-723" font-family="Helvetica,sans-Serif" font-size="10.00">TrueMIDI_SinkSource</text>
<polyline fill="none" stroke="black" points="7,-716 126,-716 "/>
<text text-anchor="middle" x="66.5" y="-704" font-family="Helvetica,sans-Serif" font-size="10.00"> </text>
<polyline fill="none" stroke="black" points="7,-697 126,-697 "/>
<text text-anchor="middle" x="66.5" y="-685" font-family="Helvetica,sans-Serif" font-size="10.00"> </text>
</a>
</g>
</g>
<!-- Node2&#45;&gt;Node1 -->
<g id="edge1" class="edge">
<title>Node2&#45;&gt;Node1</title>
<path fill="none" stroke="midnightblue" d="M80.57,-668.56C96.8,-625.93 124.24,-553.87 147.52,-492.73"/>
<polygon fill="none" stroke="midnightblue" points="77.27,-667.37 76.99,-677.96 83.82,-669.86 77.27,-667.37"/>
</g>
<!-- Node3 -->
<g id="node3" class="node">
<title>Node3</title>
<g id="a_node3"><a xlink:href="../../d5/dc1/structTrueMIDI__Sink.html" target="_top" xlink:title="A MIDI_Sink that is not a MIDI_Pipe.">
<polygon fill="white" stroke="black" points="0.5,-1213.5 0.5,-1270.5 86.5,-1270.5 86.5,-1213.5 0.5,-1213.5"/>
<text text-anchor="middle" x="43.5" y="-1258.5" font-family="Helvetica,sans-Serif" font-size="10.00">TrueMIDI_Sink</text>
<polyline fill="none" stroke="black" points="0.5,-1251.5 86.5,-1251.5 "/>
<text text-anchor="middle" x="43.5" y="-1239.5" font-family="Helvetica,sans-Serif" font-size="10.00"> </text>
<polyline fill="none" stroke="black" points="0.5,-1232.5 86.5,-1232.5 "/>
<text text-anchor="middle" x="43.5" y="-1220.5" font-family="Helvetica,sans-Serif" font-size="10.00"> </text>
</a>
</g>
</g>
<!-- Node3&#45;&gt;Node2 -->
<g id="edge2" class="edge">
<title>Node3&#45;&gt;Node2</title>
<path fill="none" stroke="midnightblue" d="M45.12,-1203.34C49.5,-1101.8 61.48,-824.05 65.31,-735.22"/>
<polygon fill="none" stroke="midnightblue" points="41.62,-1203.3 44.69,-1213.44 48.62,-1203.6 41.62,-1203.3"/>
</g>
<!-- Node4 -->
<g id="node4" class="node">
<title>Node4</title>
<g id="a_node4"><a xlink:href="../../d9/db6/classMIDI__Sink.html" target="_top" xlink:title="Class that can receive MIDI messages from a MIDI pipe.">
<polygon fill="white" stroke="black" points="0,-1724.5 0,-1946.5 181,-1946.5 181,-1724.5 0,-1724.5"/>
<text text-anchor="middle" x="90.5" y="-1934.5" font-family="Helvetica,sans-Serif" font-size="10.00">MIDI_Sink</text>
<polyline fill="none" stroke="black" points="0,-1927.5 181,-1927.5 "/>
<text text-anchor="middle" x="90.5" y="-1915.5" font-family="Helvetica,sans-Serif" font-size="10.00"> </text>
<polyline fill="none" stroke="black" points="0,-1908.5 181,-1908.5 "/>
<text text-anchor="start" x="8" y="-1896.5" font-family="Helvetica,sans-Serif" font-size="10.00">+ MIDI_Sink()</text>
<text text-anchor="start" x="8" y="-1885.5" font-family="Helvetica,sans-Serif" font-size="10.00">+ MIDI_Sink()</text>
<text text-anchor="start" x="8" y="-1874.5" font-family="Helvetica,sans-Serif" font-size="10.00">+ operator=()</text>
<text text-anchor="start" x="8" y="-1863.5" font-family="Helvetica,sans-Serif" font-size="10.00">+ MIDI_Sink()</text>
<text text-anchor="start" x="8" y="-1852.5" font-family="Helvetica,sans-Serif" font-size="10.00">+ operator=()</text>
<text text-anchor="start" x="8" y="-1841.5" font-family="Helvetica,sans-Serif" font-size="10.00">+ ~MIDI_Sink()</text>
<text text-anchor="start" x="8" y="-1830.5" font-family="Helvetica,sans-Serif" font-size="10.00">&#45; lockDownstream()</text>
<text text-anchor="start" x="8" y="-1819.5" font-family="Helvetica,sans-Serif" font-size="10.00">&#45; getFinalSink()</text>
<text text-anchor="start" x="8" y="-1808.5" font-family="Helvetica,sans-Serif" font-size="10.00">&#45; disconnectSourcePipesShallow()</text>
<text text-anchor="start" x="8" y="-1797.5" font-family="Helvetica,sans-Serif" font-size="10.00">* sinkMIDIfromPipe()</text>
<text text-anchor="start" x="8" y="-1786.5" font-family="Helvetica,sans-Serif" font-size="10.00">* sinkMIDIfromPipe()</text>
<text text-anchor="start" x="8" y="-1775.5" font-family="Helvetica,sans-Serif" font-size="10.00">* sinkMIDIfromPipe()</text>
<text text-anchor="start" x="8" y="-1764.5" font-family="Helvetica,sans-Serif" font-size="10.00">* connectSourcePipe()</text>
<text text-anchor="start" x="8" y="-1753.5" font-family="Helvetica,sans-Serif" font-size="10.00">* disconnectSourcePipes()</text>
<text text-anchor="start" x="8" y="-1742.5" font-family="Helvetica,sans-Serif" font-size="10.00">* disconnect()</text>
<text text-anchor="start" x="8" y="-1731.5" font-family="Helvetica,sans-Serif" font-size="10.00">* hasSourcePipe()</text>
</a>
</g>
</g>
<!-- Node4&#45;&gt;Node3 -->
<g id="edge3" class="edge">
<title>Node4&#45;&gt;Node3</title>
<path fill="none" stroke="midnightblue" d="M80.95,-1714.27C69.74,-1573.21 51.9,-1348.66 45.7,-1270.72"/>
<polygon fill="none" stroke="midnightblue" points="77.46,-1714.59 81.74,-1724.28 84.44,-1714.04 77.46,-1714.59"/>
</g>
<!-- Node5 -->
<g id="node5" class="node">
<title>Node5</title>
<g id="a_node5"><a xlink:href="../../df/d72/classMIDI__Pipe.html" target="_top" xlink:title="Class that routes MIDI messages from a MIDI_Source to a MIDI_Sink.">
<polygon fill="white" stroke="black" points="105.5,-1289.5 105.5,-1676.5 235.5,-1676.5 235.5,-1289.5 105.5,-1289.5"/>
<text text-anchor="middle" x="170.5" y="-1664.5" font-family="Helvetica,sans-Serif" font-size="10.00">MIDI_Pipe</text>
<polyline fill="none" stroke="black" points="105.5,-1657.5 235.5,-1657.5 "/>
<text text-anchor="middle" x="170.5" y="-1645.5" font-family="Helvetica,sans-Serif" font-size="10.00"> </text>
<polyline fill="none" stroke="black" points="105.5,-1638.5 235.5,-1638.5 "/>
<text text-anchor="start" x="113.5" y="-1626.5" font-family="Helvetica,sans-Serif" font-size="10.00">+ MIDI_Pipe()</text>
<text text-anchor="start" x="113.5" y="-1615.5" font-family="Helvetica,sans-Serif" font-size="10.00">+ MIDI_Pipe()</text>
<text text-anchor="start" x="113.5" y="-1604.5" font-family="Helvetica,sans-Serif" font-size="10.00">+ operator=()</text>
<text text-anchor="start" x="113.5" y="-1593.5" font-family="Helvetica,sans-Serif" font-size="10.00">+ MIDI_Pipe()</text>
<text text-anchor="start" x="113.5" y="-1582.5" font-family="Helvetica,sans-Serif" font-size="10.00">+ operator=()</text>
<text text-anchor="start" x="113.5" y="-1571.5" font-family="Helvetica,sans-Serif" font-size="10.00">+ ~MIDI_Pipe()</text>
<text text-anchor="start" x="113.5" y="-1560.5" font-family="Helvetica,sans-Serif" font-size="10.00">+ hasSink()</text>
<text text-anchor="start" x="113.5" y="-1549.5" font-family="Helvetica,sans-Serif" font-size="10.00">+ hasSource()</text>
<text text-anchor="start" x="113.5" y="-1538.5" font-family="Helvetica,sans-Serif" font-size="10.00">+ hasThroughOut()</text>
<text text-anchor="start" x="113.5" y="-1527.5" font-family="Helvetica,sans-Serif" font-size="10.00">+ hasThroughIn()</text>
<text text-anchor="start" x="113.5" y="-1516.5" font-family="Helvetica,sans-Serif" font-size="10.00">+ disconnect()</text>
<text text-anchor="start" x="113.5" y="-1505.5" font-family="Helvetica,sans-Serif" font-size="10.00">+ getFinalSink()</text>
<text text-anchor="start" x="113.5" y="-1494.5" font-family="Helvetica,sans-Serif" font-size="10.00">+ getInitialSource()</text>
<text text-anchor="start" x="113.5" y="-1483.5" font-family="Helvetica,sans-Serif" font-size="10.00">+ disconnect()</text>
<text text-anchor="start" x="113.5" y="-1472.5" font-family="Helvetica,sans-Serif" font-size="10.00">+ disconnect()</text>
<text text-anchor="start" x="113.5" y="-1461.5" font-family="Helvetica,sans-Serif" font-size="10.00">+ exclusive()</text>
<text text-anchor="start" x="113.5" y="-1450.5" font-family="Helvetica,sans-Serif" font-size="10.00">+ isLocked()</text>
<text text-anchor="start" x="113.5" y="-1439.5" font-family="Helvetica,sans-Serif" font-size="10.00">+ isAvailableForWrite()</text>
<text text-anchor="start" x="113.5" y="-1428.5" font-family="Helvetica,sans-Serif" font-size="10.00"># pipeMIDI()</text>
<text text-anchor="start" x="113.5" y="-1417.5" font-family="Helvetica,sans-Serif" font-size="10.00"># pipeMIDI()</text>
<text text-anchor="start" x="113.5" y="-1406.5" font-family="Helvetica,sans-Serif" font-size="10.00"># pipeMIDI()</text>
<text text-anchor="start" x="113.5" y="-1395.5" font-family="Helvetica,sans-Serif" font-size="10.00">&#45; connectSink()</text>
<text text-anchor="start" x="113.5" y="-1384.5" font-family="Helvetica,sans-Serif" font-size="10.00">&#45; disconnectSink()</text>
<text text-anchor="start" x="113.5" y="-1373.5" font-family="Helvetica,sans-Serif" font-size="10.00">&#45; connectSource()</text>
<text text-anchor="start" x="113.5" y="-1362.5" font-family="Helvetica,sans-Serif" font-size="10.00">&#45; disconnectSource()</text>
<text text-anchor="start" x="113.5" y="-1351.5" font-family="Helvetica,sans-Serif" font-size="10.00">&#45; sinkMIDIfromPipe()</text>
<text text-anchor="start" x="113.5" y="-1340.5" font-family="Helvetica,sans-Serif" font-size="10.00">&#45; sinkMIDIfromPipe()</text>
<text text-anchor="start" x="113.5" y="-1329.5" font-family="Helvetica,sans-Serif" font-size="10.00">&#45; sinkMIDIfromPipe()</text>
<text text-anchor="start" x="113.5" y="-1318.5" font-family="Helvetica,sans-Serif" font-size="10.00">&#45; lockDownstream()</text>
<text text-anchor="start" x="113.5" y="-1307.5" font-family="Helvetica,sans-Serif" font-size="10.00">&#45; lockUpstream()</text>
<text text-anchor="start" x="113.5" y="-1296.5" font-family="Helvetica,sans-Serif" font-size="10.00">&#45; lockSelf()</text>
</a>
</g>
</g>
<!-- Node4&#45;&gt;Node5 -->
<g id="edge5" class="edge">
<title>Node4&#45;&gt;Node5</title>
<path fill="none" stroke="#8b1a1a" d="M97.21,-1714.21C98.17,-1707.69 99.26,-1701.25 100.5,-1695 101.98,-1687.52 103.66,-1679.94 105.48,-1672.32"/>
<polygon fill="none" stroke="#8b1a1a" points="93.69,-1714.12 95.81,-1724.5 100.62,-1715.06 93.69,-1714.12"/>
</g>
<!-- Node4&#45;&gt;Node5 -->
<g id="edge8" class="edge">
<title>Node4&#45;&gt;Node5</title>
<path fill="none" stroke="#404040" d="M110.33,-1724.33C112.33,-1714.39 114.4,-1704.5 116.5,-1695 116.98,-1692.84 117.46,-1690.68 117.95,-1688.5"/>
<polygon fill="none" stroke="#404040" points="117.95,-1688.47 115.38,-1681.73 120.61,-1676.77 123.18,-1683.51 117.95,-1688.47"/>
<text text-anchor="middle" x="130.5" y="-1698" font-family="Helvetica,sans-Serif" font-size="10.00"> &#45;sink</text>
</g>
<!-- Node5&#45;&gt;Node4 -->
<g id="edge4" class="edge">
<title>Node5&#45;&gt;Node4</title>
<path fill="none" stroke="#404040" d="M155.32,-1676.63C153.31,-1686.62 151.05,-1696.46 148.5,-1706 147.92,-1708.17 147.31,-1710.34 146.67,-1712.53"/>
<polygon fill="none" stroke="#404040" points="146.58,-1712.79 148.59,-1719.72 142.97,-1724.24 140.96,-1717.31 146.58,-1712.79"/>
<text text-anchor="middle" x="183" y="-1698" font-family="Helvetica,sans-Serif" font-size="10.00"> #sourcePipe</text>
</g>
<!-- Node5&#45;&gt;Node5 -->
<g id="edge10" class="edge">
<title>Node5&#45;&gt;Node5</title>
<path fill="none" stroke="#404040" d="M235.57,-1520.47C246.2,-1515.11 253.5,-1502.62 253.5,-1483 253.5,-1470.13 250.36,-1460.32 245.19,-1453.59"/>
<polygon fill="none" stroke="#404040" points="244.77,-1453.23 237.6,-1452.45 235.57,-1445.53 242.74,-1446.32 244.77,-1453.23"/>
<text text-anchor="middle" x="283" y="-1486" font-family="Helvetica,sans-Serif" font-size="10.00"> &#45;throughIn</text>
<text text-anchor="middle" x="283" y="-1475" font-family="Helvetica,sans-Serif" font-size="10.00">&#45;throughOut</text>
</g>
<!-- Node6 -->
<g id="node6" class="node">
<title>Node6</title>
<g id="a_node6"><a xlink:href="../../df/d5b/classMIDI__Source.html" target="_top" xlink:title="Class that can send MIDI messages to a MIDI pipe.">
<polygon fill="white" stroke="black" points="87,-961.5 87,-1194.5 256,-1194.5 256,-961.5 87,-961.5"/>
<text text-anchor="middle" x="171.5" y="-1182.5" font-family="Helvetica,sans-Serif" font-size="10.00">MIDI_Source</text>
<polyline fill="none" stroke="black" points="87,-1175.5 256,-1175.5 "/>
<text text-anchor="middle" x="171.5" y="-1163.5" font-family="Helvetica,sans-Serif" font-size="10.00"> </text>
<polyline fill="none" stroke="black" points="87,-1156.5 256,-1156.5 "/>
<text text-anchor="start" x="95" y="-1144.5" font-family="Helvetica,sans-Serif" font-size="10.00">+ MIDI_Source()</text>
<text text-anchor="start" x="95" y="-1133.5" font-family="Helvetica,sans-Serif" font-size="10.00">+ MIDI_Source()</text>
<text text-anchor="start" x="95" y="-1122.5" font-family="Helvetica,sans-Serif" font-size="10.00">+ operator=()</text>
<text text-anchor="start" x="95" y="-1111.5" font-family="Helvetica,sans-Serif" font-size="10.00">+ MIDI_Source()</text>
<text text-anchor="start" x="95" y="-1100.5" font-family="Helvetica,sans-Serif" font-size="10.00">+ operator=()</text>
<text text-anchor="start" x="95" y="-1089.5" font-family="Helvetica,sans-Serif" font-size="10.00">+ ~MIDI_Source()</text>
<text text-anchor="start" x="95" y="-1078.5" font-family="Helvetica,sans-Serif" font-size="10.00">&#45; getInitialSource()</text>
<text text-anchor="start" x="95" y="-1067.5" font-family="Helvetica,sans-Serif" font-size="10.00">&#45; disconnectSinkPipesShallow()</text>
<text text-anchor="start" x="95" y="-1056.5" font-family="Helvetica,sans-Serif" font-size="10.00">* sourceMIDItoPipe()</text>
<text text-anchor="start" x="95" y="-1045.5" font-family="Helvetica,sans-Serif" font-size="10.00">* sourceMIDItoPipe()</text>
<text text-anchor="start" x="95" y="-1034.5" font-family="Helvetica,sans-Serif" font-size="10.00">* sourceMIDItoPipe()</text>
<text text-anchor="start" x="95" y="-1023.5" font-family="Helvetica,sans-Serif" font-size="10.00">* exclusive()</text>
<text text-anchor="start" x="95" y="-1012.5" font-family="Helvetica,sans-Serif" font-size="10.00">* canWrite()</text>
<text text-anchor="start" x="95" y="-1001.5" font-family="Helvetica,sans-Serif" font-size="10.00">* connectSinkPipe()</text>
<text text-anchor="start" x="95" y="-990.5" font-family="Helvetica,sans-Serif" font-size="10.00">* disconnectSinkPipes()</text>
<text text-anchor="start" x="95" y="-979.5" font-family="Helvetica,sans-Serif" font-size="10.00">* disconnect()</text>
<text text-anchor="start" x="95" y="-968.5" font-family="Helvetica,sans-Serif" font-size="10.00">* hasSinkPipe()</text>
</a>
</g>
</g>
<!-- Node5&#45;&gt;Node6 -->
<g id="edge7" class="edge">
<title>Node5&#45;&gt;Node6</title>
<path fill="none" stroke="#404040" d="M111.15,-1289.18C108.9,-1263.57 109.47,-1237.66 114.5,-1213 114.94,-1210.82 115.43,-1208.63 115.94,-1206.43"/>
<polygon fill="none" stroke="#404040" points="115.98,-1206.28 113.62,-1199.46 119,-1194.66 121.36,-1201.48 115.98,-1206.28"/>
<text text-anchor="middle" x="141" y="-1239.5" font-family="Helvetica,sans-Serif" font-size="10.00"> #sinkPipe</text>
</g>
<!-- Node6&#45;&gt;Node5 -->
<g id="edge6" class="edge">
<title>Node6&#45;&gt;Node5</title>
<path fill="none" stroke="#8b1a1a" d="M171.19,-1204.84C171.12,-1231.69 171.05,-1260.64 170.98,-1289.35"/>
<polygon fill="none" stroke="#8b1a1a" points="174.69,-1204.66 171.21,-1194.65 167.69,-1204.64 174.69,-1204.66"/>
</g>
<!-- Node6&#45;&gt;Node5 -->
<g id="edge11" class="edge">
<title>Node6&#45;&gt;Node5</title>
<path fill="none" stroke="#404040" d="M184.36,-1194.79C184.8,-1200.94 185.19,-1207.04 185.5,-1213 186.58,-1233.79 186.84,-1255.48 186.52,-1277.13"/>
<polygon fill="none" stroke="#404040" points="186.51,-1277.15 190.4,-1283.23 186.28,-1289.15 182.4,-1283.07 186.51,-1277.15"/>
<text text-anchor="middle" x="207.5" y="-1239.5" font-family="Helvetica,sans-Serif" font-size="10.00"> &#45;source</text>
</g>
<!-- Node8 -->
<g id="node8" class="node">
<title>Node8</title>
<g id="a_node8"><a xlink:href="../../d2/dcd/structTrueMIDI__Source.html" target="_top" xlink:title="A MIDI_Source that is not a MIDI_Pipe.">
<polygon fill="white" stroke="black" points="102.5,-866.5 102.5,-923.5 200.5,-923.5 200.5,-866.5 102.5,-866.5"/>
<text text-anchor="middle" x="151.5" y="-911.5" font-family="Helvetica,sans-Serif" font-size="10.00">TrueMIDI_Source</text>
<polyline fill="none" stroke="black" points="102.5,-904.5 200.5,-904.5 "/>
<text text-anchor="middle" x="151.5" y="-892.5" font-family="Helvetica,sans-Serif" font-size="10.00"> </text>
<polyline fill="none" stroke="black" points="102.5,-885.5 200.5,-885.5 "/>
<text text-anchor="middle" x="151.5" y="-873.5" font-family="Helvetica,sans-Serif" font-size="10.00"> </text>
</a>
</g>
</g>
<!-- Node6&#45;&gt;Node8 -->
<g id="edge13" class="edge">
<title>Node6&#45;&gt;Node8</title>
<path fill="none" stroke="midnightblue" d="M157.59,-951.14C156.49,-941.13 155.46,-931.81 154.57,-923.79"/>
<polygon fill="none" stroke="midnightblue" points="154.14,-951.79 158.72,-961.35 161.1,-951.02 154.14,-951.79"/>
</g>
<!-- Node7 -->
<g id="node7" class="node">
<title>Node7</title>
<g id="a_node7"><a xlink:href="../../d6/da4/classAH_1_1BitArray.html" target="_top" xlink:title=" ">
<polygon fill="white" stroke="black" points="202,-1752 202,-1919 315,-1919 315,-1752 202,-1752"/>
<text text-anchor="middle" x="258.5" y="-1907" font-family="Helvetica,sans-Serif" font-size="10.00">BitArray&lt; 16 &gt;</text>
<polyline fill="none" stroke="black" points="202,-1900 315,-1900 "/>
<text text-anchor="start" x="210" y="-1888" font-family="Helvetica,sans-Serif" font-size="10.00">&#45; buffer</text>
<text text-anchor="start" x="210" y="-1877" font-family="Helvetica,sans-Serif" font-size="10.00">&#45; bufferLength</text>
<polyline fill="none" stroke="black" points="202,-1870 315,-1870 "/>
<text text-anchor="start" x="210" y="-1858" font-family="Helvetica,sans-Serif" font-size="10.00">+ get()</text>
<text text-anchor="start" x="210" y="-1847" font-family="Helvetica,sans-Serif" font-size="10.00">+ set()</text>
<text text-anchor="start" x="210" y="-1836" font-family="Helvetica,sans-Serif" font-size="10.00">+ set()</text>
<text text-anchor="start" x="210" y="-1825" font-family="Helvetica,sans-Serif" font-size="10.00">+ clear()</text>
<text text-anchor="start" x="210" y="-1814" font-family="Helvetica,sans-Serif" font-size="10.00">+ safeIndex()</text>
<text text-anchor="start" x="210" y="-1803" font-family="Helvetica,sans-Serif" font-size="10.00">+ getByte()</text>
<text text-anchor="start" x="210" y="-1792" font-family="Helvetica,sans-Serif" font-size="10.00">+ getBufferLength()</text>
<text text-anchor="start" x="210" y="-1781" font-family="Helvetica,sans-Serif" font-size="10.00">&#45; getBufferIndex()</text>
<text text-anchor="start" x="210" y="-1770" font-family="Helvetica,sans-Serif" font-size="10.00">&#45; getBufferBit()</text>
<text text-anchor="start" x="210" y="-1759" font-family="Helvetica,sans-Serif" font-size="10.00">&#45; getBufferMask()</text>
</a>
</g>
</g>
<!-- Node7&#45;&gt;Node5 -->
<g id="edge9" class="edge">
<title>Node7&#45;&gt;Node5</title>
<path fill="none" stroke="#404040" d="M237.76,-1751.88C232.87,-1732.41 227.44,-1710.79 221.85,-1688.52"/>
<polygon fill="none" stroke="#404040" points="221.84,-1688.47 216.49,-1683.62 218.91,-1676.83 224.25,-1681.67 221.84,-1688.47"/>
<text text-anchor="middle" x="242" y="-1698" font-family="Helvetica,sans-Serif" font-size="10.00"> &#45;locks</text>
</g>
<!-- Node8&#45;&gt;Node2 -->
<g id="edge12" class="edge">
<title>Node8&#45;&gt;Node2</title>
<path fill="none" stroke="midnightblue" d="M134.78,-857.32C118.42,-821.42 93.87,-767.55 79.09,-735.13"/>
<polygon fill="none" stroke="midnightblue" points="131.63,-858.83 138.96,-866.48 138,-855.93 131.63,-858.83"/>
</g>
<!-- Node9 -->
<g id="node9" class="node">
<title>Node9</title>
<g id="a_node9"><a xlink:href="../../d6/d72/classMIDI__Sender.html" target="_top" xlink:title=" ">
<polygon fill="white" stroke="black" points="144.5,-584.5 144.5,-828.5 316.5,-828.5 316.5,-584.5 144.5,-584.5"/>
<text text-anchor="middle" x="230.5" y="-816.5" font-family="Helvetica,sans-Serif" font-size="10.00">MIDI_Sender&lt; MIDI_Interface &gt;</text>
<polyline fill="none" stroke="black" points="144.5,-809.5 316.5,-809.5 "/>
<text text-anchor="middle" x="230.5" y="-797.5" font-family="Helvetica,sans-Serif" font-size="10.00"> </text>
<polyline fill="none" stroke="black" points="144.5,-790.5 316.5,-790.5 "/>
<text text-anchor="start" x="152.5" y="-778.5" font-family="Helvetica,sans-Serif" font-size="10.00">* send()</text>
<text text-anchor="start" x="152.5" y="-767.5" font-family="Helvetica,sans-Serif" font-size="10.00">* send()</text>
<text text-anchor="start" x="152.5" y="-756.5" font-family="Helvetica,sans-Serif" font-size="10.00">* send()</text>
<text text-anchor="start" x="152.5" y="-745.5" font-family="Helvetica,sans-Serif" font-size="10.00">* send()</text>
<text text-anchor="start" x="152.5" y="-734.5" font-family="Helvetica,sans-Serif" font-size="10.00">* send()</text>
<text text-anchor="start" x="152.5" y="-723.5" font-family="Helvetica,sans-Serif" font-size="10.00">* send()</text>
<text text-anchor="start" x="152.5" y="-712.5" font-family="Helvetica,sans-Serif" font-size="10.00">* send()</text>
<text text-anchor="start" x="152.5" y="-701.5" font-family="Helvetica,sans-Serif" font-size="10.00">* sendOnCable()</text>
<text text-anchor="start" x="152.5" y="-690.5" font-family="Helvetica,sans-Serif" font-size="10.00">* sendOnCable()</text>
<text text-anchor="start" x="152.5" y="-679.5" font-family="Helvetica,sans-Serif" font-size="10.00">* sendOnCable()</text>
<text text-anchor="start" x="152.5" y="-668.5" font-family="Helvetica,sans-Serif" font-size="10.00">* sendNoteOn()</text>
<text text-anchor="start" x="152.5" y="-657.5" font-family="Helvetica,sans-Serif" font-size="10.00">* sendNoteOff()</text>
<text text-anchor="start" x="152.5" y="-646.5" font-family="Helvetica,sans-Serif" font-size="10.00">* sendKP()</text>
<text text-anchor="start" x="152.5" y="-635.5" font-family="Helvetica,sans-Serif" font-size="10.00">* sendCC()</text>
<text text-anchor="start" x="152.5" y="-624.5" font-family="Helvetica,sans-Serif" font-size="10.00">* sendPC()</text>
<text text-anchor="start" x="152.5" y="-613.5" font-family="Helvetica,sans-Serif" font-size="10.00">* sendPC()</text>
<text text-anchor="start" x="152.5" y="-602.5" font-family="Helvetica,sans-Serif" font-size="10.00">* sendCP()</text>
<text text-anchor="start" x="152.5" y="-591.5" font-family="Helvetica,sans-Serif" font-size="10.00">* sendPB()</text>
</a>
</g>
</g>
<!-- Node9&#45;&gt;Node1 -->
<g id="edge14" class="edge">
<title>Node9&#45;&gt;Node1</title>
<path fill="none" stroke="midnightblue" d="M213.86,-574.37C210.41,-547.25 206.82,-518.94 203.48,-492.66"/>
<polygon fill="none" stroke="midnightblue" points="210.38,-574.83 215.12,-584.31 217.33,-573.95 210.38,-574.83"/>
</g>
<!-- Node10 -->
<g id="node10" class="node">
<title>Node10</title>
<g id="a_node10"><a xlink:href="../../d1/d55/classAH_1_1Updatable.html" target="_top" xlink:title=" ">
<polygon fill="white" stroke="black" points="473,-661.5 473,-751.5 634,-751.5 634,-661.5 473,-661.5"/>
<text text-anchor="middle" x="553.5" y="-739.5" font-family="Helvetica,sans-Serif" font-size="10.00">Updatable&lt; MIDI_Interface &gt;</text>
<polyline fill="none" stroke="black" points="473,-732.5 634,-732.5 "/>
<text text-anchor="middle" x="553.5" y="-720.5" font-family="Helvetica,sans-Serif" font-size="10.00"> </text>
<polyline fill="none" stroke="black" points="473,-713.5 634,-713.5 "/>
<text text-anchor="start" x="481" y="-701.5" font-family="Helvetica,sans-Serif" font-size="10.00">* begin()</text>
<text text-anchor="start" x="481" y="-690.5" font-family="Helvetica,sans-Serif" font-size="10.00">* update()</text>
<text text-anchor="start" x="481" y="-679.5" font-family="Helvetica,sans-Serif" font-size="10.00">* beginAll()</text>
<text text-anchor="start" x="481" y="-668.5" font-family="Helvetica,sans-Serif" font-size="10.00">* updateAll()</text>
</a>
</g>
</g>
<!-- Node10&#45;&gt;Node1 -->
<g id="edge15" class="edge">
<title>Node10&#45;&gt;Node1</title>
<path fill="none" stroke="midnightblue" d="M496.11,-654.57C429.19,-595.19 319.03,-497.44 250.57,-436.69"/>
<polygon fill="none" stroke="midnightblue" points="493.85,-657.25 503.65,-661.27 498.49,-652.01 493.85,-657.25"/>
</g>
<!-- Node12 -->
<g id="node12" class="node">
<title>Node12</title>
<g id="a_node12"><a xlink:href="../../d4/d23/classDoublyLinkable.html" target="_top" xlink:title=" ">
<polygon fill="white" stroke="black" points="402,-347.5 402,-415.5 555,-415.5 555,-347.5 402,-347.5"/>
<text text-anchor="start" x="410" y="-403.5" font-family="Helvetica,sans-Serif" font-size="10.00">DoublyLinkable&lt; Updatable</text>
<text text-anchor="middle" x="478.5" y="-392.5" font-family="Helvetica,sans-Serif" font-size="10.00">&lt; MIDI_Interface &gt; &gt;</text>
<polyline fill="none" stroke="black" points="402,-385.5 555,-385.5 "/>
<text text-anchor="middle" x="478.5" y="-373.5" font-family="Helvetica,sans-Serif" font-size="10.00"> </text>
<polyline fill="none" stroke="black" points="402,-366.5 555,-366.5 "/>
<text text-anchor="start" x="410" y="-354.5" font-family="Helvetica,sans-Serif" font-size="10.00"># ~DoublyLinkable()</text>
</a>
</g>
</g>
<!-- Node10&#45;&gt;Node12 -->
<g id="edge18" class="edge">
<title>Node10&#45;&gt;Node12</title>
<path fill="none" stroke="#404040" d="M543.23,-661.27C528.97,-599.88 503.33,-489.44 488.97,-427.6"/>
<polygon fill="none" stroke="#404040" points="488.97,-427.59 483.72,-422.65 486.26,-415.9 491.51,-420.84 488.97,-427.59"/>
<text text-anchor="middle" x="546" y="-558" font-family="Helvetica,sans-Serif" font-size="10.00"> #next</text>
<text text-anchor="middle" x="546" y="-547" font-family="Helvetica,sans-Serif" font-size="10.00">#previous</text>
</g>
<!-- Node13 -->
<g id="node13" class="node">
<title>Node13</title>
<g id="a_node13"><a xlink:href="../../dd/d16/classDoublyLinkedList.html" target="_top" xlink:title=" ">
<polygon fill="white" stroke="black" points="573,-237.5 573,-525.5 734,-525.5 734,-237.5 573,-237.5"/>
<text text-anchor="start" x="581" y="-513.5" font-family="Helvetica,sans-Serif" font-size="10.00">DoublyLinkedList&lt; Updatable</text>
<text text-anchor="middle" x="653.5" y="-502.5" font-family="Helvetica,sans-Serif" font-size="10.00">&lt; MIDI_Interface &gt; &gt;</text>
<polyline fill="none" stroke="black" points="573,-495.5 734,-495.5 "/>
<text text-anchor="middle" x="653.5" y="-483.5" font-family="Helvetica,sans-Serif" font-size="10.00"> </text>
<polyline fill="none" stroke="black" points="573,-476.5 734,-476.5 "/>
<text text-anchor="start" x="581" y="-464.5" font-family="Helvetica,sans-Serif" font-size="10.00">+ append()</text>
<text text-anchor="start" x="581" y="-453.5" font-family="Helvetica,sans-Serif" font-size="10.00">+ append()</text>
<text text-anchor="start" x="581" y="-442.5" font-family="Helvetica,sans-Serif" font-size="10.00">+ insertBefore()</text>
<text text-anchor="start" x="581" y="-431.5" font-family="Helvetica,sans-Serif" font-size="10.00">+ insertBefore()</text>
<text text-anchor="start" x="581" y="-420.5" font-family="Helvetica,sans-Serif" font-size="10.00">+ insertSorted()</text>
<text text-anchor="start" x="581" y="-409.5" font-family="Helvetica,sans-Serif" font-size="10.00">+ insertSorted()</text>
<text text-anchor="start" x="581" y="-398.5" font-family="Helvetica,sans-Serif" font-size="10.00">+ remove()</text>
<text text-anchor="start" x="581" y="-387.5" font-family="Helvetica,sans-Serif" font-size="10.00">+ remove()</text>
<text text-anchor="start" x="581" y="-376.5" font-family="Helvetica,sans-Serif" font-size="10.00">+ moveDown()</text>
<text text-anchor="start" x="581" y="-365.5" font-family="Helvetica,sans-Serif" font-size="10.00">+ couldContain()</text>
<text text-anchor="start" x="581" y="-354.5" font-family="Helvetica,sans-Serif" font-size="10.00">+ couldContain()</text>
<text text-anchor="start" x="581" y="-343.5" font-family="Helvetica,sans-Serif" font-size="10.00">+ begin()</text>
<text text-anchor="start" x="581" y="-332.5" font-family="Helvetica,sans-Serif" font-size="10.00">+ begin()</text>
<text text-anchor="start" x="581" y="-321.5" font-family="Helvetica,sans-Serif" font-size="10.00">+ end()</text>
<text text-anchor="start" x="581" y="-310.5" font-family="Helvetica,sans-Serif" font-size="10.00">+ end()</text>
<text text-anchor="start" x="581" y="-299.5" font-family="Helvetica,sans-Serif" font-size="10.00">+ rbegin()</text>
<text text-anchor="start" x="581" y="-288.5" font-family="Helvetica,sans-Serif" font-size="10.00">+ rbegin()</text>
<text text-anchor="start" x="581" y="-277.5" font-family="Helvetica,sans-Serif" font-size="10.00">+ rend()</text>
<text text-anchor="start" x="581" y="-266.5" font-family="Helvetica,sans-Serif" font-size="10.00">+ rend()</text>
<text text-anchor="start" x="581" y="-255.5" font-family="Helvetica,sans-Serif" font-size="10.00">+ getFirst()</text>
<text text-anchor="start" x="581" y="-244.5" font-family="Helvetica,sans-Serif" font-size="10.00">+ getLast()</text>
</a>
</g>
</g>
<!-- Node10&#45;&gt;Node13 -->
<g id="edge20" class="edge">
<title>Node10&#45;&gt;Node13</title>
<path fill="none" stroke="#404040" d="M567.19,-661.27C577.25,-628.77 591.57,-582.54 605.65,-537.04"/>
<polygon fill="none" stroke="#404040" points="605.68,-536.97 603.63,-530.05 609.23,-525.5 611.27,-532.42 605.68,-536.97"/>
<text text-anchor="middle" x="616" y="-558" font-family="Helvetica,sans-Serif" font-size="10.00"> &#45;last</text>
<text text-anchor="middle" x="616" y="-547" font-family="Helvetica,sans-Serif" font-size="10.00">&#45;first</text>
</g>
<!-- Node11 -->
<g id="node11" class="node">
<title>Node11</title>
<g id="a_node11"><a xlink:href="../../d8/d1a/classAH_1_1UpdatableCRTP.html" target="_top" xlink:title=" ">
<polygon fill="white" stroke="black" points="577,-0.5 577,-189.5 730,-189.5 730,-0.5 577,-0.5"/>
<text text-anchor="start" x="585" y="-177.5" font-family="Helvetica,sans-Serif" font-size="10.00">UpdatableCRTP&lt; Updatable</text>
<text text-anchor="middle" x="653.5" y="-166.5" font-family="Helvetica,sans-Serif" font-size="10.00">&lt; MIDI_Interface &gt; &gt;</text>
<polyline fill="none" stroke="black" points="577,-159.5 730,-159.5 "/>
<text text-anchor="middle" x="653.5" y="-147.5" font-family="Helvetica,sans-Serif" font-size="10.00"> </text>
<polyline fill="none" stroke="black" points="577,-140.5 730,-140.5 "/>
<text text-anchor="start" x="585" y="-128.5" font-family="Helvetica,sans-Serif" font-size="10.00">+ ~UpdatableCRTP()</text>
<text text-anchor="start" x="585" y="-117.5" font-family="Helvetica,sans-Serif" font-size="10.00"># UpdatableCRTP()</text>
<text text-anchor="start" x="585" y="-106.5" font-family="Helvetica,sans-Serif" font-size="10.00">* enable()</text>
<text text-anchor="start" x="585" y="-95.5" font-family="Helvetica,sans-Serif" font-size="10.00">* disable()</text>
<text text-anchor="start" x="585" y="-84.5" font-family="Helvetica,sans-Serif" font-size="10.00">* isEnabled()</text>
<text text-anchor="start" x="585" y="-73.5" font-family="Helvetica,sans-Serif" font-size="10.00">* enable()</text>
<text text-anchor="start" x="585" y="-62.5" font-family="Helvetica,sans-Serif" font-size="10.00">* enable()</text>
<text text-anchor="start" x="585" y="-51.5" font-family="Helvetica,sans-Serif" font-size="10.00">* enable()</text>
<text text-anchor="start" x="585" y="-40.5" font-family="Helvetica,sans-Serif" font-size="10.00">* disable()</text>
<text text-anchor="start" x="585" y="-29.5" font-family="Helvetica,sans-Serif" font-size="10.00">* disable()</text>
<text text-anchor="start" x="585" y="-18.5" font-family="Helvetica,sans-Serif" font-size="10.00">* disable()</text>
<text text-anchor="start" x="585" y="-7.5" font-family="Helvetica,sans-Serif" font-size="10.00">* applyToAll()</text>
</a>
</g>
</g>
<!-- Node11&#45;&gt;Node10 -->
<g id="edge16" class="edge">
<title>Node11&#45;&gt;Node10</title>
<path fill="none" stroke="midnightblue" d="M727.18,-198.62C733.4,-211.09 738.75,-224.02 742.5,-237 778.18,-360.39 793.18,-407.98 742.5,-526 718.22,-582.55 666.39,-629.68 623.15,-661.43"/>
<polygon fill="none" stroke="midnightblue" points="730.22,-196.88 722.49,-189.62 724.01,-200.11 730.22,-196.88"/>
</g>
<!-- Node12&#45;&gt;Node11 -->
<g id="edge17" class="edge">
<title>Node12&#45;&gt;Node11</title>
<path fill="none" stroke="midnightblue" d="M503,-338.31C519.78,-309.6 542.69,-270.83 563.5,-237 572.93,-221.66 583.08,-205.49 593.03,-189.77"/>
<polygon fill="none" stroke="midnightblue" points="499.79,-336.85 497.77,-347.25 505.84,-340.38 499.79,-336.85"/>
</g>
<!-- Node13&#45;&gt;Node11 -->
<g id="edge19" class="edge">
<title>Node13&#45;&gt;Node11</title>
<path fill="none" stroke="#404040" d="M653.5,-237.42C653.5,-225.4 653.5,-213.39 653.5,-201.74"/>
<polygon fill="none" stroke="#404040" points="653.5,-201.73 649.5,-195.73 653.5,-189.73 657.5,-195.73 653.5,-201.73"/>
<text text-anchor="middle" x="686.5" y="-211" font-family="Helvetica,sans-Serif" font-size="10.00"> #updatables</text>
</g>
</g>
</svg>
