<?xml version="1.0" encoding="UTF-8" standalone="no"?>
<!DOCTYPE svg PUBLIC "-//W3C//DTD SVG 1.1//EN"
 "http://www.w3.org/Graphics/SVG/1.1/DTD/svg11.dtd">
<!-- Generated by graphviz version 2.43.0 (0)
 -->
<!-- Title: MIDI_Interface Pages: 1 -->
<svg width="1064pt" height="2005pt"
 viewBox="0.00 0.00 1064.00 2005.00" xmlns="http://www.w3.org/2000/svg" xmlns:xlink="http://www.w3.org/1999/xlink">
<g id="graph0" class="graph" transform="scale(1 1) rotate(0) translate(4 2001)">
<title>MIDI_Interface</title>
<polygon fill="white" stroke="transparent" points="-4,4 -4,-2001 1060,-2001 1060,4 -4,4"/>
<!-- Node1 -->
<g id="node1" class="node">
<title>Node1</title>
<g id="a_node1"><a xlink:title="An abstract class for MIDI interfaces.">
<polygon fill="#bfbfbf" stroke="black" points="538,-0.5 538,-321.5 702,-321.5 702,-0.5 538,-0.5"/>
<text text-anchor="middle" x="620" y="-309.5" font-family="Helvetica,sans-Serif" font-size="10.00">MIDI_Interface</text>
<polyline fill="none" stroke="black" points="538,-302.5 702,-302.5 "/>
<text text-anchor="middle" x="620" y="-290.5" font-family="Helvetica,sans-Serif" font-size="10.00"> </text>
<polyline fill="none" stroke="black" points="538,-283.5 702,-283.5 "/>
<text text-anchor="start" x="546" y="-271.5" font-family="Helvetica,sans-Serif" font-size="10.00">+ ~MIDI_Interface()</text>
<text text-anchor="start" x="546" y="-260.5" font-family="Helvetica,sans-Serif" font-size="10.00">+ begin()</text>
<text text-anchor="start" x="546" y="-249.5" font-family="Helvetica,sans-Serif" font-size="10.00">+ update()</text>
<text text-anchor="start" x="546" y="-238.5" font-family="Helvetica,sans-Serif" font-size="10.00">+ updateIncoming()</text>
<text text-anchor="start" x="546" y="-227.5" font-family="Helvetica,sans-Serif" font-size="10.00">+ dispatchIncoming()</text>
<text text-anchor="start" x="546" y="-216.5" font-family="Helvetica,sans-Serif" font-size="10.00">+ handleStall()</text>
<text text-anchor="start" x="546" y="-205.5" font-family="Helvetica,sans-Serif" font-size="10.00"># MIDI_Interface()</text>
<text text-anchor="start" x="546" y="-194.5" font-family="Helvetica,sans-Serif" font-size="10.00"># MIDI_Interface()</text>
<text text-anchor="start" x="546" y="-183.5" font-family="Helvetica,sans-Serif" font-size="10.00"># sendChannelMessageImpl()</text>
<text text-anchor="start" x="546" y="-172.5" font-family="Helvetica,sans-Serif" font-size="10.00"># sendSysCommonImpl()</text>
<text text-anchor="start" x="546" y="-161.5" font-family="Helvetica,sans-Serif" font-size="10.00"># sendSysExImpl()</text>
<text text-anchor="start" x="546" y="-150.5" font-family="Helvetica,sans-Serif" font-size="10.00"># sendRealTimeImpl()</text>
<text text-anchor="start" x="546" y="-139.5" font-family="Helvetica,sans-Serif" font-size="10.00"># sendNowImpl()</text>
<text text-anchor="start" x="546" y="-128.5" font-family="Helvetica,sans-Serif" font-size="10.00"># sinkMIDIfromPipe()</text>
<text text-anchor="start" x="546" y="-117.5" font-family="Helvetica,sans-Serif" font-size="10.00"># sinkMIDIfromPipe()</text>
<text text-anchor="start" x="546" y="-106.5" font-family="Helvetica,sans-Serif" font-size="10.00"># sinkMIDIfromPipe()</text>
<text text-anchor="start" x="546" y="-95.5" font-family="Helvetica,sans-Serif" font-size="10.00"># sinkMIDIfromPipe()</text>
<text text-anchor="start" x="546" y="-84.5" font-family="Helvetica,sans-Serif" font-size="10.00"># onChannelMessage()</text>
<text text-anchor="start" x="546" y="-73.5" font-family="Helvetica,sans-Serif" font-size="10.00"># onSysExMessage()</text>
<text text-anchor="start" x="546" y="-62.5" font-family="Helvetica,sans-Serif" font-size="10.00"># onSysCommonMessage()</text>
<text text-anchor="start" x="546" y="-51.5" font-family="Helvetica,sans-Serif" font-size="10.00"># onRealTimeMessage()</text>
<text text-anchor="start" x="546" y="-40.5" font-family="Helvetica,sans-Serif" font-size="10.00">* setAsDefault()</text>
<text text-anchor="start" x="546" y="-29.5" font-family="Helvetica,sans-Serif" font-size="10.00">* getDefault()</text>
<text text-anchor="start" x="546" y="-18.5" font-family="Helvetica,sans-Serif" font-size="10.00">* setCallbacks()</text>
<text text-anchor="start" x="546" y="-7.5" font-family="Helvetica,sans-Serif" font-size="10.00">* setCallbacks()</text>
</a>
</g>
</g>
<!-- Node1&#45;&gt;Node1 -->
<g id="edge20" class="edge">
<title>Node1&#45;&gt;Node1</title>
<path fill="none" stroke="#404040" d="M702.38,-191.24C712.99,-185.99 720,-175.91 720,-161 720,-151.45 717.12,-143.88 712.27,-138.29"/>
<polygon fill="none" stroke="#404040" points="711.93,-138.03 704.73,-137.58 702.38,-130.76 709.58,-131.22 711.93,-138.03"/>
<text text-anchor="middle" x="777.5" y="-158.5" font-family="Helvetica,sans-Serif" font-size="10.00"> &#45;DefaultMIDI_Interface</text>
</g>
<!-- Node2 -->
<g id="node2" class="node">
<title>Node2</title>
<g id="a_node2"><a xlink:href="../../d0/dc3/structTrueMIDI__SinkSource.html" target="_top" xlink:title="A struct that is both a TrueMIDI_Sink and a TrueMIDI_Source.">
<polygon fill="white" stroke="black" points="396.5,-578.5 396.5,-635.5 515.5,-635.5 515.5,-578.5 396.5,-578.5"/>
<text text-anchor="middle" x="456" y="-623.5" font-family="Helvetica,sans-Serif" font-size="10.00">TrueMIDI_SinkSource</text>
<polyline fill="none" stroke="black" points="396.5,-616.5 515.5,-616.5 "/>
<text text-anchor="middle" x="456" y="-604.5" font-family="Helvetica,sans-Serif" font-size="10.00"> </text>
<polyline fill="none" stroke="black" points="396.5,-597.5 515.5,-597.5 "/>
<text text-anchor="middle" x="456" y="-585.5" font-family="Helvetica,sans-Serif" font-size="10.00"> </text>
</a>
</g>
</g>
<!-- Node2&#45;&gt;Node1 -->
<g id="edge1" class="edge">
<title>Node2&#45;&gt;Node1</title>
<path fill="none" stroke="midnightblue" d="M465.12,-568.41C476.99,-521.2 499.27,-438.02 525,-369 530.77,-353.53 537.18,-337.6 543.87,-321.77"/>
<polygon fill="none" stroke="midnightblue" points="461.7,-567.65 462.68,-578.2 468.49,-569.35 461.7,-567.65"/>
</g>
<!-- Node3 -->
<g id="node3" class="node">
<title>Node3</title>
<g id="a_node3"><a xlink:href="../../d9/db6/classMIDI__Sink.html" target="_top" xlink:title="Receives MIDI messages from a MIDI pipe.">
<polygon fill="white" stroke="black" points="62.5,-915.5 62.5,-1192.5 243.5,-1192.5 243.5,-915.5 62.5,-915.5"/>
<text text-anchor="middle" x="153" y="-1180.5" font-family="Helvetica,sans-Serif" font-size="10.00">TrueMIDI_Sink</text>
<polyline fill="none" stroke="black" points="62.5,-1173.5 243.5,-1173.5 "/>
<text text-anchor="middle" x="153" y="-1161.5" font-family="Helvetica,sans-Serif" font-size="10.00"> </text>
<polyline fill="none" stroke="black" points="62.5,-1154.5 243.5,-1154.5 "/>
<text text-anchor="start" x="70.5" y="-1142.5" font-family="Helvetica,sans-Serif" font-size="10.00">+ MIDI_Sink()</text>
<text text-anchor="start" x="70.5" y="-1131.5" font-family="Helvetica,sans-Serif" font-size="10.00">+ MIDI_Sink()</text>
<text text-anchor="start" x="70.5" y="-1120.5" font-family="Helvetica,sans-Serif" font-size="10.00">+ operator=()</text>
<text text-anchor="start" x="70.5" y="-1109.5" font-family="Helvetica,sans-Serif" font-size="10.00">+ MIDI_Sink()</text>
<text text-anchor="start" x="70.5" y="-1098.5" font-family="Helvetica,sans-Serif" font-size="10.00">+ operator=()</text>
<text text-anchor="start" x="70.5" y="-1087.5" font-family="Helvetica,sans-Serif" font-size="10.00">+ ~MIDI_Sink()</text>
<text text-anchor="start" x="70.5" y="-1076.5" font-family="Helvetica,sans-Serif" font-size="10.00">+ swap()</text>
<text text-anchor="start" x="70.5" y="-1065.5" font-family="Helvetica,sans-Serif" font-size="10.00">&#45; stallDownstream()</text>
<text text-anchor="start" x="70.5" y="-1054.5" font-family="Helvetica,sans-Serif" font-size="10.00">&#45; unstallDownstream()</text>
<text text-anchor="start" x="70.5" y="-1043.5" font-family="Helvetica,sans-Serif" font-size="10.00">&#45; getFinalSink()</text>
<text text-anchor="start" x="70.5" y="-1032.5" font-family="Helvetica,sans-Serif" font-size="10.00">&#45; disconnectSourcePipesShallow()</text>
<text text-anchor="start" x="70.5" y="-1021.5" font-family="Helvetica,sans-Serif" font-size="10.00">* sinkMIDIfromPipe()</text>
<text text-anchor="start" x="70.5" y="-1010.5" font-family="Helvetica,sans-Serif" font-size="10.00">* sinkMIDIfromPipe()</text>
<text text-anchor="start" x="70.5" y="-999.5" font-family="Helvetica,sans-Serif" font-size="10.00">* sinkMIDIfromPipe()</text>
<text text-anchor="start" x="70.5" y="-988.5" font-family="Helvetica,sans-Serif" font-size="10.00">* sinkMIDIfromPipe()</text>
<text text-anchor="start" x="70.5" y="-977.5" font-family="Helvetica,sans-Serif" font-size="10.00">* connectSourcePipe()</text>
<text text-anchor="start" x="70.5" y="-966.5" font-family="Helvetica,sans-Serif" font-size="10.00">* disconnectSourcePipes()</text>
<text text-anchor="start" x="70.5" y="-955.5" font-family="Helvetica,sans-Serif" font-size="10.00">* disconnect()</text>
<text text-anchor="start" x="70.5" y="-944.5" font-family="Helvetica,sans-Serif" font-size="10.00">* disconnect()</text>
<text text-anchor="start" x="70.5" y="-933.5" font-family="Helvetica,sans-Serif" font-size="10.00">* hasSourcePipe()</text>
<text text-anchor="start" x="70.5" y="-922.5" font-family="Helvetica,sans-Serif" font-size="10.00">* getSourcePipe()</text>
</a>
</g>
</g>
<!-- Node3&#45;&gt;Node2 -->
<g id="edge2" class="edge">
<title>Node3&#45;&gt;Node2</title>
<path fill="none" stroke="midnightblue" d="M236.06,-906.89C241.36,-898.41 246.69,-890.06 252,-882 313.49,-788.64 395.03,-684.21 433.76,-635.63"/>
<polygon fill="none" stroke="midnightblue" points="233.08,-905.07 230.79,-915.41 239.03,-908.75 233.08,-905.07"/>
</g>
<!-- Node4 -->
<g id="node4" class="node">
<title>Node4</title>
<g id="a_node4"><a xlink:href="../../df/d72/classMIDI__Pipe.html" target="_top" xlink:title="Class that routes MIDI messages from a MIDI_Source to a MIDI_Sink.">
<polygon fill="white" stroke="black" points="302,-1273.5 302,-1847.5 484,-1847.5 484,-1273.5 302,-1273.5"/>
<text text-anchor="middle" x="393" y="-1835.5" font-family="Helvetica,sans-Serif" font-size="10.00">MIDI_Pipe</text>
<polyline fill="none" stroke="black" points="302,-1828.5 484,-1828.5 "/>
<text text-anchor="middle" x="393" y="-1816.5" font-family="Helvetica,sans-Serif" font-size="10.00"> </text>
<polyline fill="none" stroke="black" points="302,-1809.5 484,-1809.5 "/>
<text text-anchor="start" x="310" y="-1797.5" font-family="Helvetica,sans-Serif" font-size="10.00">+ MIDI_Pipe()</text>
<text text-anchor="start" x="310" y="-1786.5" font-family="Helvetica,sans-Serif" font-size="10.00">+ MIDI_Pipe()</text>
<text text-anchor="start" x="310" y="-1775.5" font-family="Helvetica,sans-Serif" font-size="10.00">+ operator=()</text>
<text text-anchor="start" x="310" y="-1764.5" font-family="Helvetica,sans-Serif" font-size="10.00">+ MIDI_Pipe()</text>
<text text-anchor="start" x="310" y="-1753.5" font-family="Helvetica,sans-Serif" font-size="10.00">+ operator=()</text>
<text text-anchor="start" x="310" y="-1742.5" font-family="Helvetica,sans-Serif" font-size="10.00">+ ~MIDI_Pipe()</text>
<text text-anchor="start" x="310" y="-1731.5" font-family="Helvetica,sans-Serif" font-size="10.00"># sourceMIDItoSink()</text>
<text text-anchor="start" x="310" y="-1720.5" font-family="Helvetica,sans-Serif" font-size="10.00"># acceptMIDIfromSource()</text>
<text text-anchor="start" x="310" y="-1709.5" font-family="Helvetica,sans-Serif" font-size="10.00">&#45; sinkMIDIfromPipe()</text>
<text text-anchor="start" x="310" y="-1698.5" font-family="Helvetica,sans-Serif" font-size="10.00">&#45; sinkMIDIfromPipe()</text>
<text text-anchor="start" x="310" y="-1687.5" font-family="Helvetica,sans-Serif" font-size="10.00">&#45; sinkMIDIfromPipe()</text>
<text text-anchor="start" x="310" y="-1676.5" font-family="Helvetica,sans-Serif" font-size="10.00">&#45; sinkMIDIfromPipe()</text>
<text text-anchor="start" x="310" y="-1665.5" font-family="Helvetica,sans-Serif" font-size="10.00">* isStalled()</text>
<text text-anchor="start" x="310" y="-1654.5" font-family="Helvetica,sans-Serif" font-size="10.00">* getSinkStaller()</text>
<text text-anchor="start" x="310" y="-1643.5" font-family="Helvetica,sans-Serif" font-size="10.00">* getSinkStallerName()</text>
<text text-anchor="start" x="310" y="-1632.5" font-family="Helvetica,sans-Serif" font-size="10.00">* getThroughStaller()</text>
<text text-anchor="start" x="310" y="-1621.5" font-family="Helvetica,sans-Serif" font-size="10.00">* getThroughStallerName()</text>
<text text-anchor="start" x="310" y="-1610.5" font-family="Helvetica,sans-Serif" font-size="10.00">* getStaller()</text>
<text text-anchor="start" x="310" y="-1599.5" font-family="Helvetica,sans-Serif" font-size="10.00">* getStallerName()</text>
<text text-anchor="start" x="310" y="-1588.5" font-family="Helvetica,sans-Serif" font-size="10.00">* sinkIsUnstalledOrStalledBy()</text>
<text text-anchor="start" x="310" y="-1577.5" font-family="Helvetica,sans-Serif" font-size="10.00">* throughIsUnstalledOrStalledBy()</text>
<text text-anchor="start" x="310" y="-1566.5" font-family="Helvetica,sans-Serif" font-size="10.00">* handleStallers()</text>
<text text-anchor="start" x="310" y="-1555.5" font-family="Helvetica,sans-Serif" font-size="10.00">* hasSink()</text>
<text text-anchor="start" x="310" y="-1544.5" font-family="Helvetica,sans-Serif" font-size="10.00">* hasSource()</text>
<text text-anchor="start" x="310" y="-1533.5" font-family="Helvetica,sans-Serif" font-size="10.00">* hasThroughOut()</text>
<text text-anchor="start" x="310" y="-1522.5" font-family="Helvetica,sans-Serif" font-size="10.00">* hasThroughIn()</text>
<text text-anchor="start" x="310" y="-1511.5" font-family="Helvetica,sans-Serif" font-size="10.00">* disconnect()</text>
<text text-anchor="start" x="310" y="-1500.5" font-family="Helvetica,sans-Serif" font-size="10.00">* disconnect()</text>
<text text-anchor="start" x="310" y="-1489.5" font-family="Helvetica,sans-Serif" font-size="10.00">* disconnect()</text>
<text text-anchor="start" x="310" y="-1478.5" font-family="Helvetica,sans-Serif" font-size="10.00">* disconnect()</text>
<text text-anchor="start" x="310" y="-1467.5" font-family="Helvetica,sans-Serif" font-size="10.00">* getSource()</text>
<text text-anchor="start" x="310" y="-1456.5" font-family="Helvetica,sans-Serif" font-size="10.00">* getSink()</text>
<text text-anchor="start" x="310" y="-1445.5" font-family="Helvetica,sans-Serif" font-size="10.00">* getThroughOut()</text>
<text text-anchor="start" x="310" y="-1434.5" font-family="Helvetica,sans-Serif" font-size="10.00">* getThroughIn()</text>
<text text-anchor="start" x="310" y="-1423.5" font-family="Helvetica,sans-Serif" font-size="10.00">* getFinalSink()</text>
<text text-anchor="start" x="310" y="-1412.5" font-family="Helvetica,sans-Serif" font-size="10.00">* getInitialSource()</text>
<text text-anchor="start" x="310" y="-1401.5" font-family="Helvetica,sans-Serif" font-size="10.00">* mapForwardMIDI()</text>
<text text-anchor="start" x="310" y="-1390.5" font-family="Helvetica,sans-Serif" font-size="10.00">* mapForwardMIDI()</text>
<text text-anchor="start" x="310" y="-1379.5" font-family="Helvetica,sans-Serif" font-size="10.00">* mapForwardMIDI()</text>
<text text-anchor="start" x="310" y="-1368.5" font-family="Helvetica,sans-Serif" font-size="10.00">* mapForwardMIDI()</text>
<text text-anchor="start" x="310" y="-1357.5" font-family="Helvetica,sans-Serif" font-size="10.00">* connectSink()</text>
<text text-anchor="start" x="310" y="-1346.5" font-family="Helvetica,sans-Serif" font-size="10.00">* disconnectSink()</text>
<text text-anchor="start" x="310" y="-1335.5" font-family="Helvetica,sans-Serif" font-size="10.00">* connectSource()</text>
<text text-anchor="start" x="310" y="-1324.5" font-family="Helvetica,sans-Serif" font-size="10.00">* disconnectSource()</text>
<text text-anchor="start" x="310" y="-1313.5" font-family="Helvetica,sans-Serif" font-size="10.00">* stallDownstream()</text>
<text text-anchor="start" x="310" y="-1302.5" font-family="Helvetica,sans-Serif" font-size="10.00">* unstallDownstream()</text>
<text text-anchor="start" x="310" y="-1291.5" font-family="Helvetica,sans-Serif" font-size="10.00">* stallUpstream()</text>
<text text-anchor="start" x="310" y="-1280.5" font-family="Helvetica,sans-Serif" font-size="10.00">* unstallUpstream()</text>
</a>
</g>
</g>
<!-- Node4&#45;&gt;Node3 -->
<g id="edge3" class="edge">
<title>Node4&#45;&gt;Node3</title>
<path fill="none" stroke="#404040" d="M301.97,-1399.9C277.05,-1353.77 250.9,-1302.92 229,-1255 221.53,-1238.65 214.17,-1221.33 207.14,-1204"/>
<polygon fill="none" stroke="#404040" points="207.04,-1203.75 201.09,-1199.67 202.57,-1192.62 208.52,-1196.69 207.04,-1203.75"/>
<text text-anchor="middle" x="261.5" y="-1247" font-family="Helvetica,sans-Serif" font-size="10.00"> #sourcePipe</text>
</g>
<!-- Node4&#45;&gt;Node4 -->
<g id="edge10" class="edge">
<title>Node4&#45;&gt;Node4</title>
<path fill="none" stroke="#404040" d="M484.04,-1610.45C494.9,-1601.37 502,-1584.72 502,-1560.5 502,-1542.9 498.25,-1529.3 492.04,-1519.7"/>
<polygon fill="none" stroke="#404040" points="491.94,-1519.58 484.98,-1517.7 484.04,-1510.55 491,-1512.43 491.94,-1519.58"/>
<text text-anchor="middle" x="531.5" y="-1563.5" font-family="Helvetica,sans-Serif" font-size="10.00"> &#45;throughIn</text>
<text text-anchor="middle" x="531.5" y="-1552.5" font-family="Helvetica,sans-Serif" font-size="10.00">&#45;throughOut</text>
</g>
<!-- Node5 -->
<g id="node5" class="node">
<title>Node5</title>
<g id="a_node5"><a xlink:href="../../d9/db6/classMIDI__Sink.html" target="_top" xlink:title="Receives MIDI messages from a MIDI pipe.">
<polygon fill="white" stroke="black" points="261.5,-915.5 261.5,-1192.5 442.5,-1192.5 442.5,-915.5 261.5,-915.5"/>
<text text-anchor="middle" x="352" y="-1180.5" font-family="Helvetica,sans-Serif" font-size="10.00">MIDI_Sink</text>
<polyline fill="none" stroke="black" points="261.5,-1173.5 442.5,-1173.5 "/>
<text text-anchor="middle" x="352" y="-1161.5" font-family="Helvetica,sans-Serif" font-size="10.00"> </text>
<polyline fill="none" stroke="black" points="261.5,-1154.5 442.5,-1154.5 "/>
<text text-anchor="start" x="269.5" y="-1142.5" font-family="Helvetica,sans-Serif" font-size="10.00">+ MIDI_Sink()</text>
<text text-anchor="start" x="269.5" y="-1131.5" font-family="Helvetica,sans-Serif" font-size="10.00">+ MIDI_Sink()</text>
<text text-anchor="start" x="269.5" y="-1120.5" font-family="Helvetica,sans-Serif" font-size="10.00">+ operator=()</text>
<text text-anchor="start" x="269.5" y="-1109.5" font-family="Helvetica,sans-Serif" font-size="10.00">+ MIDI_Sink()</text>
<text text-anchor="start" x="269.5" y="-1098.5" font-family="Helvetica,sans-Serif" font-size="10.00">+ operator=()</text>
<text text-anchor="start" x="269.5" y="-1087.5" font-family="Helvetica,sans-Serif" font-size="10.00">+ ~MIDI_Sink()</text>
<text text-anchor="start" x="269.5" y="-1076.5" font-family="Helvetica,sans-Serif" font-size="10.00">+ swap()</text>
<text text-anchor="start" x="269.5" y="-1065.5" font-family="Helvetica,sans-Serif" font-size="10.00">&#45; stallDownstream()</text>
<text text-anchor="start" x="269.5" y="-1054.5" font-family="Helvetica,sans-Serif" font-size="10.00">&#45; unstallDownstream()</text>
<text text-anchor="start" x="269.5" y="-1043.5" font-family="Helvetica,sans-Serif" font-size="10.00">&#45; getFinalSink()</text>
<text text-anchor="start" x="269.5" y="-1032.5" font-family="Helvetica,sans-Serif" font-size="10.00">&#45; disconnectSourcePipesShallow()</text>
<text text-anchor="start" x="269.5" y="-1021.5" font-family="Helvetica,sans-Serif" font-size="10.00">* sinkMIDIfromPipe()</text>
<text text-anchor="start" x="269.5" y="-1010.5" font-family="Helvetica,sans-Serif" font-size="10.00">* sinkMIDIfromPipe()</text>
<text text-anchor="start" x="269.5" y="-999.5" font-family="Helvetica,sans-Serif" font-size="10.00">* sinkMIDIfromPipe()</text>
<text text-anchor="start" x="269.5" y="-988.5" font-family="Helvetica,sans-Serif" font-size="10.00">* sinkMIDIfromPipe()</text>
<text text-anchor="start" x="269.5" y="-977.5" font-family="Helvetica,sans-Serif" font-size="10.00">* connectSourcePipe()</text>
<text text-anchor="start" x="269.5" y="-966.5" font-family="Helvetica,sans-Serif" font-size="10.00">* disconnectSourcePipes()</text>
<text text-anchor="start" x="269.5" y="-955.5" font-family="Helvetica,sans-Serif" font-size="10.00">* disconnect()</text>
<text text-anchor="start" x="269.5" y="-944.5" font-family="Helvetica,sans-Serif" font-size="10.00">* disconnect()</text>
<text text-anchor="start" x="269.5" y="-933.5" font-family="Helvetica,sans-Serif" font-size="10.00">* hasSourcePipe()</text>
<text text-anchor="start" x="269.5" y="-922.5" font-family="Helvetica,sans-Serif" font-size="10.00">* getSourcePipe()</text>
</a>
</g>
</g>
<!-- Node4&#45;&gt;Node5 -->
<g id="edge5" class="edge">
<title>Node4&#45;&gt;Node5</title>
<path fill="none" stroke="#404040" d="M301.93,-1337.3C296.55,-1306.29 294.79,-1274.58 299,-1244 300.77,-1231.14 303.18,-1217.92 306.02,-1204.74"/>
<polygon fill="none" stroke="#404040" points="306.1,-1204.36 303.51,-1197.63 308.73,-1192.65 311.32,-1199.38 306.1,-1204.36"/>
<text text-anchor="middle" x="331.5" y="-1247" font-family="Helvetica,sans-Serif" font-size="10.00"> #sourcePipe</text>
</g>
<!-- Node6 -->
<g id="node6" class="node">
<title>Node6</title>
<g id="a_node6"><a xlink:href="../../df/d5b/classMIDI__Source.html" target="_top" xlink:title="Class that can send MIDI messages to a MIDI pipe.">
<polygon fill="white" stroke="black" points="460.5,-882.5 460.5,-1225.5 629.5,-1225.5 629.5,-882.5 460.5,-882.5"/>
<text text-anchor="middle" x="545" y="-1213.5" font-family="Helvetica,sans-Serif" font-size="10.00">MIDI_Source</text>
<polyline fill="none" stroke="black" points="460.5,-1206.5 629.5,-1206.5 "/>
<text text-anchor="middle" x="545" y="-1194.5" font-family="Helvetica,sans-Serif" font-size="10.00"> </text>
<polyline fill="none" stroke="black" points="460.5,-1187.5 629.5,-1187.5 "/>
<text text-anchor="start" x="468.5" y="-1175.5" font-family="Helvetica,sans-Serif" font-size="10.00">+ MIDI_Source()</text>
<text text-anchor="start" x="468.5" y="-1164.5" font-family="Helvetica,sans-Serif" font-size="10.00">+ MIDI_Source()</text>
<text text-anchor="start" x="468.5" y="-1153.5" font-family="Helvetica,sans-Serif" font-size="10.00">+ operator=()</text>
<text text-anchor="start" x="468.5" y="-1142.5" font-family="Helvetica,sans-Serif" font-size="10.00">+ MIDI_Source()</text>
<text text-anchor="start" x="468.5" y="-1131.5" font-family="Helvetica,sans-Serif" font-size="10.00">+ operator=()</text>
<text text-anchor="start" x="468.5" y="-1120.5" font-family="Helvetica,sans-Serif" font-size="10.00">+ ~MIDI_Source()</text>
<text text-anchor="start" x="468.5" y="-1109.5" font-family="Helvetica,sans-Serif" font-size="10.00">+ swap()</text>
<text text-anchor="start" x="468.5" y="-1098.5" font-family="Helvetica,sans-Serif" font-size="10.00">&#45; stallUpstream()</text>
<text text-anchor="start" x="468.5" y="-1087.5" font-family="Helvetica,sans-Serif" font-size="10.00">&#45; unstallUpstream()</text>
<text text-anchor="start" x="468.5" y="-1076.5" font-family="Helvetica,sans-Serif" font-size="10.00">&#45; getInitialSource()</text>
<text text-anchor="start" x="468.5" y="-1065.5" font-family="Helvetica,sans-Serif" font-size="10.00">&#45; disconnectSinkPipesShallow()</text>
<text text-anchor="start" x="468.5" y="-1054.5" font-family="Helvetica,sans-Serif" font-size="10.00">* sourceMIDItoPipe()</text>
<text text-anchor="start" x="468.5" y="-1043.5" font-family="Helvetica,sans-Serif" font-size="10.00">* sourceMIDItoPipe()</text>
<text text-anchor="start" x="468.5" y="-1032.5" font-family="Helvetica,sans-Serif" font-size="10.00">* sourceMIDItoPipe()</text>
<text text-anchor="start" x="468.5" y="-1021.5" font-family="Helvetica,sans-Serif" font-size="10.00">* sourceMIDItoPipe()</text>
<text text-anchor="start" x="468.5" y="-1010.5" font-family="Helvetica,sans-Serif" font-size="10.00">* stall()</text>
<text text-anchor="start" x="468.5" y="-999.5" font-family="Helvetica,sans-Serif" font-size="10.00">* unstall()</text>
<text text-anchor="start" x="468.5" y="-988.5" font-family="Helvetica,sans-Serif" font-size="10.00">* isStalled()</text>
<text text-anchor="start" x="468.5" y="-977.5" font-family="Helvetica,sans-Serif" font-size="10.00">* getStaller()</text>
<text text-anchor="start" x="468.5" y="-966.5" font-family="Helvetica,sans-Serif" font-size="10.00">* getStallerName()</text>
<text text-anchor="start" x="468.5" y="-955.5" font-family="Helvetica,sans-Serif" font-size="10.00">* handleStallers()</text>
<text text-anchor="start" x="468.5" y="-944.5" font-family="Helvetica,sans-Serif" font-size="10.00">* connectSinkPipe()</text>
<text text-anchor="start" x="468.5" y="-933.5" font-family="Helvetica,sans-Serif" font-size="10.00">* disconnectSinkPipes()</text>
<text text-anchor="start" x="468.5" y="-922.5" font-family="Helvetica,sans-Serif" font-size="10.00">* disconnect()</text>
<text text-anchor="start" x="468.5" y="-911.5" font-family="Helvetica,sans-Serif" font-size="10.00">* disconnect()</text>
<text text-anchor="start" x="468.5" y="-900.5" font-family="Helvetica,sans-Serif" font-size="10.00">* hasSinkPipe()</text>
<text text-anchor="start" x="468.5" y="-889.5" font-family="Helvetica,sans-Serif" font-size="10.00">* getSinkPipe()</text>
</a>
</g>
</g>
<!-- Node4&#45;&gt;Node6 -->
<g id="edge7" class="edge">
<title>Node4&#45;&gt;Node6</title>
<path fill="none" stroke="#404040" d="M431.85,-1273.34C434.69,-1263.38 437.73,-1253.57 441,-1244 443.96,-1235.34 446.57,-1234.01 451,-1226 452.22,-1223.8 453.44,-1221.58 454.67,-1219.35"/>
<polygon fill="none" stroke="#404040" points="454.68,-1219.33 454.08,-1212.15 460.48,-1208.83 461.08,-1216.01 454.68,-1219.33"/>
<text text-anchor="middle" x="467.5" y="-1247" font-family="Helvetica,sans-Serif" font-size="10.00"> #sinkPipe</text>
</g>
<!-- Node8 -->
<g id="node8" class="node">
<title>Node8</title>
<g id="a_node8"><a xlink:href="../../df/d5b/classMIDI__Source.html" target="_top" xlink:title="Class that can send MIDI messages to a MIDI pipe.">
<polygon fill="white" stroke="black" points="647.5,-882.5 647.5,-1225.5 816.5,-1225.5 816.5,-882.5 647.5,-882.5"/>
<text text-anchor="middle" x="732" y="-1213.5" font-family="Helvetica,sans-Serif" font-size="10.00">TrueMIDI_Source</text>
<polyline fill="none" stroke="black" points="647.5,-1206.5 816.5,-1206.5 "/>
<text text-anchor="middle" x="732" y="-1194.5" font-family="Helvetica,sans-Serif" font-size="10.00"> </text>
<polyline fill="none" stroke="black" points="647.5,-1187.5 816.5,-1187.5 "/>
<text text-anchor="start" x="655.5" y="-1175.5" font-family="Helvetica,sans-Serif" font-size="10.00">+ MIDI_Source()</text>
<text text-anchor="start" x="655.5" y="-1164.5" font-family="Helvetica,sans-Serif" font-size="10.00">+ MIDI_Source()</text>
<text text-anchor="start" x="655.5" y="-1153.5" font-family="Helvetica,sans-Serif" font-size="10.00">+ operator=()</text>
<text text-anchor="start" x="655.5" y="-1142.5" font-family="Helvetica,sans-Serif" font-size="10.00">+ MIDI_Source()</text>
<text text-anchor="start" x="655.5" y="-1131.5" font-family="Helvetica,sans-Serif" font-size="10.00">+ operator=()</text>
<text text-anchor="start" x="655.5" y="-1120.5" font-family="Helvetica,sans-Serif" font-size="10.00">+ ~MIDI_Source()</text>
<text text-anchor="start" x="655.5" y="-1109.5" font-family="Helvetica,sans-Serif" font-size="10.00">+ swap()</text>
<text text-anchor="start" x="655.5" y="-1098.5" font-family="Helvetica,sans-Serif" font-size="10.00">&#45; stallUpstream()</text>
<text text-anchor="start" x="655.5" y="-1087.5" font-family="Helvetica,sans-Serif" font-size="10.00">&#45; unstallUpstream()</text>
<text text-anchor="start" x="655.5" y="-1076.5" font-family="Helvetica,sans-Serif" font-size="10.00">&#45; getInitialSource()</text>
<text text-anchor="start" x="655.5" y="-1065.5" font-family="Helvetica,sans-Serif" font-size="10.00">&#45; disconnectSinkPipesShallow()</text>
<text text-anchor="start" x="655.5" y="-1054.5" font-family="Helvetica,sans-Serif" font-size="10.00">* sourceMIDItoPipe()</text>
<text text-anchor="start" x="655.5" y="-1043.5" font-family="Helvetica,sans-Serif" font-size="10.00">* sourceMIDItoPipe()</text>
<text text-anchor="start" x="655.5" y="-1032.5" font-family="Helvetica,sans-Serif" font-size="10.00">* sourceMIDItoPipe()</text>
<text text-anchor="start" x="655.5" y="-1021.5" font-family="Helvetica,sans-Serif" font-size="10.00">* sourceMIDItoPipe()</text>
<text text-anchor="start" x="655.5" y="-1010.5" font-family="Helvetica,sans-Serif" font-size="10.00">* stall()</text>
<text text-anchor="start" x="655.5" y="-999.5" font-family="Helvetica,sans-Serif" font-size="10.00">* unstall()</text>
<text text-anchor="start" x="655.5" y="-988.5" font-family="Helvetica,sans-Serif" font-size="10.00">* isStalled()</text>
<text text-anchor="start" x="655.5" y="-977.5" font-family="Helvetica,sans-Serif" font-size="10.00">* getStaller()</text>
<text text-anchor="start" x="655.5" y="-966.5" font-family="Helvetica,sans-Serif" font-size="10.00">* getStallerName()</text>
<text text-anchor="start" x="655.5" y="-955.5" font-family="Helvetica,sans-Serif" font-size="10.00">* handleStallers()</text>
<text text-anchor="start" x="655.5" y="-944.5" font-family="Helvetica,sans-Serif" font-size="10.00">* connectSinkPipe()</text>
<text text-anchor="start" x="655.5" y="-933.5" font-family="Helvetica,sans-Serif" font-size="10.00">* disconnectSinkPipes()</text>
<text text-anchor="start" x="655.5" y="-922.5" font-family="Helvetica,sans-Serif" font-size="10.00">* disconnect()</text>
<text text-anchor="start" x="655.5" y="-911.5" font-family="Helvetica,sans-Serif" font-size="10.00">* disconnect()</text>
<text text-anchor="start" x="655.5" y="-900.5" font-family="Helvetica,sans-Serif" font-size="10.00">* hasSinkPipe()</text>
<text text-anchor="start" x="655.5" y="-889.5" font-family="Helvetica,sans-Serif" font-size="10.00">* getSinkPipe()</text>
</a>
</g>
</g>
<!-- Node4&#45;&gt;Node8 -->
<g id="edge13" class="edge">
<title>Node4&#45;&gt;Node8</title>
<path fill="none" stroke="#404040" d="M484.17,-1443.3C532.04,-1380.39 590.45,-1300.49 638,-1226 638.97,-1224.48 639.94,-1222.96 640.91,-1221.42"/>
<polygon fill="none" stroke="#404040" points="640.96,-1221.34 640.73,-1214.13 647.29,-1211.14 647.52,-1218.35 640.96,-1221.34"/>
<text text-anchor="middle" x="652.5" y="-1247" font-family="Helvetica,sans-Serif" font-size="10.00"> #sinkPipe</text>
</g>
<!-- Node5&#45;&gt;Node4 -->
<g id="edge4" class="edge">
<title>Node5&#45;&gt;Node4</title>
<path fill="none" stroke="#8b1a1a" d="M364.02,-1202.92C365.85,-1225.36 367.78,-1249.14 369.74,-1273.35"/>
<polygon fill="none" stroke="#8b1a1a" points="367.49,-1202.39 363.19,-1192.71 360.51,-1202.96 367.49,-1202.39"/>
</g>
<!-- Node5&#45;&gt;Node4 -->
<g id="edge8" class="edge">
<title>Node5&#45;&gt;Node4</title>
<path fill="none" stroke="#404040" d="M366.32,-1192.5C367.98,-1209.83 369.58,-1227.32 371,-1244 371.47,-1249.54 371.94,-1255.13 372.4,-1260.76"/>
<polygon fill="none" stroke="#404040" points="372.44,-1261.19 376.91,-1266.85 373.42,-1273.15 368.94,-1267.5 372.44,-1261.19"/>
<text text-anchor="middle" x="386" y="-1247" font-family="Helvetica,sans-Serif" font-size="10.00"> &#45;sink</text>
</g>
<!-- Node6&#45;&gt;Node4 -->
<g id="edge6" class="edge">
<title>Node6&#45;&gt;Node4</title>
<path fill="none" stroke="#8b1a1a" d="M503.52,-1235.32C501.71,-1241.98 499.86,-1248.55 498,-1255 493.61,-1270.18 488.91,-1285.71 484.03,-1301.34"/>
<polygon fill="none" stroke="#8b1a1a" points="506.94,-1236.08 506.16,-1225.52 500.18,-1234.26 506.94,-1236.08"/>
</g>
<!-- Node6&#45;&gt;Node4 -->
<g id="edge9" class="edge">
<title>Node6&#45;&gt;Node4</title>
<path fill="none" stroke="#404040" d="M521.19,-1225.76C518.98,-1235.7 516.59,-1245.51 514,-1255 506.74,-1281.65 497.88,-1309.15 488.28,-1336.22"/>
<polygon fill="none" stroke="#404040" points="488.19,-1336.49 489.92,-1343.49 484.13,-1347.78 482.39,-1340.79 488.19,-1336.49"/>
<text text-anchor="middle" x="537" y="-1247" font-family="Helvetica,sans-Serif" font-size="10.00"> &#45;source</text>
</g>
<!-- Node7 -->
<g id="node7" class="node">
<title>Node7</title>
<g id="a_node7"><a xlink:href="../../d4/d48/structMIDIStaller.html" target="_top" xlink:title="Struct that can cause a MIDI_Pipe to be stalled.">
<polygon fill="white" stroke="black" points="0,-1906.5 0,-1996.5 100,-1996.5 100,-1906.5 0,-1906.5"/>
<text text-anchor="middle" x="50" y="-1984.5" font-family="Helvetica,sans-Serif" font-size="10.00">MIDIStaller</text>
<polyline fill="none" stroke="black" points="0,-1977.5 100,-1977.5 "/>
<text text-anchor="middle" x="50" y="-1965.5" font-family="Helvetica,sans-Serif" font-size="10.00"> </text>
<polyline fill="none" stroke="black" points="0,-1958.5 100,-1958.5 "/>
<text text-anchor="start" x="8" y="-1946.5" font-family="Helvetica,sans-Serif" font-size="10.00">+ ~MIDIStaller()</text>
<text text-anchor="start" x="8" y="-1935.5" font-family="Helvetica,sans-Serif" font-size="10.00">+ getName()</text>
<text text-anchor="start" x="8" y="-1924.5" font-family="Helvetica,sans-Serif" font-size="10.00">+ handleStall()</text>
<text text-anchor="start" x="8" y="-1913.5" font-family="Helvetica,sans-Serif" font-size="10.00">+ getNameNull()</text>
</a>
</g>
</g>
<!-- Node7&#45;&gt;Node1 -->
<g id="edge18" class="edge">
<title>Node7&#45;&gt;Node1</title>
<path fill="none" stroke="darkgreen" d="M46.36,-1896.32C41.64,-1821.18 34,-1681.09 34,-1561.5 34,-1561.5 34,-1561.5 34,-606 34,-356.14 376.63,-228.79 537.9,-182.68"/>
<polygon fill="none" stroke="darkgreen" points="42.88,-1896.72 47.01,-1906.48 49.87,-1896.28 42.88,-1896.72"/>
</g>
<!-- Node7&#45;&gt;Node4 -->
<g id="edge11" class="edge">
<title>Node7&#45;&gt;Node4</title>
<path fill="none" stroke="#404040" d="M89.01,-1906.26C138.45,-1850.19 225.44,-1751.53 293.73,-1674.08"/>
<polygon fill="none" stroke="#404040" points="294.03,-1673.74 295,-1666.6 301.97,-1664.74 301,-1671.89 294.03,-1673.74"/>
<text text-anchor="middle" x="164" y="-1880" font-family="Helvetica,sans-Serif" font-size="10.00"> &#45;sink_staller</text>
<text text-anchor="middle" x="164" y="-1869" font-family="Helvetica,sans-Serif" font-size="10.00">&#45;through_staller</text>
</g>
<!-- Node8&#45;&gt;Node2 -->
<g id="edge12" class="edge">
<title>Node8&#45;&gt;Node2</title>
<path fill="none" stroke="midnightblue" d="M639.82,-883.54C639.22,-883.02 638.61,-882.51 638,-882 597.32,-848.27 561.74,-882.98 525,-845 468.54,-786.63 457.86,-684.81 456.12,-635.85"/>
<polygon fill="none" stroke="midnightblue" points="637.75,-886.38 647.5,-890.52 642.46,-881.2 637.75,-886.38"/>
</g>
<!-- Node9 -->
<g id="node9" class="node">
<title>Node9</title>
<g id="a_node9"><a xlink:href="../../d6/d72/classMIDI__Sender.html" target="_top" xlink:title=" ">
<polygon fill="white" stroke="black" points="534,-369.5 534,-844.5 706,-844.5 706,-369.5 534,-369.5"/>
<text text-anchor="middle" x="620" y="-832.5" font-family="Helvetica,sans-Serif" font-size="10.00">MIDI_Sender&lt; MIDI_Interface &gt;</text>
<polyline fill="none" stroke="black" points="534,-825.5 706,-825.5 "/>
<text text-anchor="middle" x="620" y="-813.5" font-family="Helvetica,sans-Serif" font-size="10.00"> </text>
<polyline fill="none" stroke="black" points="534,-806.5 706,-806.5 "/>
<text text-anchor="start" x="542" y="-794.5" font-family="Helvetica,sans-Serif" font-size="10.00">* send()</text>
<text text-anchor="start" x="542" y="-783.5" font-family="Helvetica,sans-Serif" font-size="10.00">* sendChannelMessage()</text>
<text text-anchor="start" x="542" y="-772.5" font-family="Helvetica,sans-Serif" font-size="10.00">* sendChannelMessage()</text>
<text text-anchor="start" x="542" y="-761.5" font-family="Helvetica,sans-Serif" font-size="10.00">* sendNoteOn()</text>
<text text-anchor="start" x="542" y="-750.5" font-family="Helvetica,sans-Serif" font-size="10.00">* sendNoteOff()</text>
<text text-anchor="start" x="542" y="-739.5" font-family="Helvetica,sans-Serif" font-size="10.00">* sendKeyPressure()</text>
<text text-anchor="start" x="542" y="-728.5" font-family="Helvetica,sans-Serif" font-size="10.00">* sendControlChange()</text>
<text text-anchor="start" x="542" y="-717.5" font-family="Helvetica,sans-Serif" font-size="10.00">* sendProgramChange()</text>
<text text-anchor="start" x="542" y="-706.5" font-family="Helvetica,sans-Serif" font-size="10.00">* sendProgramChange()</text>
<text text-anchor="start" x="542" y="-695.5" font-family="Helvetica,sans-Serif" font-size="10.00">* sendChannelPressure()</text>
<text text-anchor="start" x="542" y="-684.5" font-family="Helvetica,sans-Serif" font-size="10.00">* sendPitchBend()</text>
<text text-anchor="start" x="542" y="-673.5" font-family="Helvetica,sans-Serif" font-size="10.00">* send()</text>
<text text-anchor="start" x="542" y="-662.5" font-family="Helvetica,sans-Serif" font-size="10.00">* sendSysCommon()</text>
<text text-anchor="start" x="542" y="-651.5" font-family="Helvetica,sans-Serif" font-size="10.00">* sendSysCommon()</text>
<text text-anchor="start" x="542" y="-640.5" font-family="Helvetica,sans-Serif" font-size="10.00">* sendSysCommon()</text>
<text text-anchor="start" x="542" y="-629.5" font-family="Helvetica,sans-Serif" font-size="10.00">* sendMTCQuarterFrame()</text>
<text text-anchor="start" x="542" y="-618.5" font-family="Helvetica,sans-Serif" font-size="10.00">* sendMTCQuarterFrame()</text>
<text text-anchor="start" x="542" y="-607.5" font-family="Helvetica,sans-Serif" font-size="10.00">* sendSongPositionPointer()</text>
<text text-anchor="start" x="542" y="-596.5" font-family="Helvetica,sans-Serif" font-size="10.00">* sendSongSelect()</text>
<text text-anchor="start" x="542" y="-585.5" font-family="Helvetica,sans-Serif" font-size="10.00">* sendTuneRequest()</text>
<text text-anchor="start" x="542" y="-574.5" font-family="Helvetica,sans-Serif" font-size="10.00">* send()</text>
<text text-anchor="start" x="542" y="-563.5" font-family="Helvetica,sans-Serif" font-size="10.00">* sendSysEx()</text>
<text text-anchor="start" x="542" y="-552.5" font-family="Helvetica,sans-Serif" font-size="10.00">* sendSysEx()</text>
<text text-anchor="start" x="542" y="-541.5" font-family="Helvetica,sans-Serif" font-size="10.00">* send()</text>
<text text-anchor="start" x="542" y="-530.5" font-family="Helvetica,sans-Serif" font-size="10.00">* sendRealTime()</text>
<text text-anchor="start" x="542" y="-519.5" font-family="Helvetica,sans-Serif" font-size="10.00">* sendRealTime()</text>
<text text-anchor="start" x="542" y="-508.5" font-family="Helvetica,sans-Serif" font-size="10.00">* sendTimingClock()</text>
<text text-anchor="start" x="542" y="-497.5" font-family="Helvetica,sans-Serif" font-size="10.00">* sendStart()</text>
<text text-anchor="start" x="542" y="-486.5" font-family="Helvetica,sans-Serif" font-size="10.00">* sendContinue()</text>
<text text-anchor="start" x="542" y="-475.5" font-family="Helvetica,sans-Serif" font-size="10.00">* sendStop()</text>
<text text-anchor="start" x="542" y="-464.5" font-family="Helvetica,sans-Serif" font-size="10.00">* sendActiveSensing()</text>
<text text-anchor="start" x="542" y="-453.5" font-family="Helvetica,sans-Serif" font-size="10.00">* sendSystemReset()</text>
<text text-anchor="start" x="542" y="-442.5" font-family="Helvetica,sans-Serif" font-size="10.00">* sendNow()</text>
<text text-anchor="start" x="542" y="-431.5" font-family="Helvetica,sans-Serif" font-size="10.00">* sendKP()</text>
<text text-anchor="start" x="542" y="-420.5" font-family="Helvetica,sans-Serif" font-size="10.00">* sendCC()</text>
<text text-anchor="start" x="542" y="-409.5" font-family="Helvetica,sans-Serif" font-size="10.00">* sendPC()</text>
<text text-anchor="start" x="542" y="-398.5" font-family="Helvetica,sans-Serif" font-size="10.00">* sendPC()</text>
<text text-anchor="start" x="542" y="-387.5" font-family="Helvetica,sans-Serif" font-size="10.00">* sendCP()</text>
<text text-anchor="start" x="542" y="-376.5" font-family="Helvetica,sans-Serif" font-size="10.00">* sendPB()</text>
</a>
</g>
</g>
<!-- Node9&#45;&gt;Node1 -->
<g id="edge14" class="edge">
<title>Node9&#45;&gt;Node1</title>
<path fill="none" stroke="midnightblue" d="M620,-359.18C620,-346.5 620,-333.92 620,-321.62"/>
<polygon fill="none" stroke="midnightblue" points="616.5,-359.38 620,-369.38 623.5,-359.38 616.5,-359.38"/>
</g>
<!-- Node10 -->
<g id="node10" class="node">
<title>Node10</title>
<g id="a_node10"><a xlink:href="../../d1/d55/classAH_1_1Updatable.html" target="_top" xlink:title=" ">
<polygon fill="white" stroke="black" points="724.5,-562 724.5,-652 885.5,-652 885.5,-562 724.5,-562"/>
<text text-anchor="middle" x="805" y="-640" font-family="Helvetica,sans-Serif" font-size="10.00">Updatable&lt; MIDI_Interface &gt;</text>
<polyline fill="none" stroke="black" points="724.5,-633 885.5,-633 "/>
<text text-anchor="middle" x="805" y="-621" font-family="Helvetica,sans-Serif" font-size="10.00"> </text>
<polyline fill="none" stroke="black" points="724.5,-614 885.5,-614 "/>
<text text-anchor="start" x="732.5" y="-602" font-family="Helvetica,sans-Serif" font-size="10.00">* begin()</text>
<text text-anchor="start" x="732.5" y="-591" font-family="Helvetica,sans-Serif" font-size="10.00">* update()</text>
<text text-anchor="start" x="732.5" y="-580" font-family="Helvetica,sans-Serif" font-size="10.00">* beginAll()</text>
<text text-anchor="start" x="732.5" y="-569" font-family="Helvetica,sans-Serif" font-size="10.00">* updateAll()</text>
</a>
</g>
</g>
<!-- Node10&#45;&gt;Node1 -->
<g id="edge15" class="edge">
<title>Node10&#45;&gt;Node1</title>
<path fill="none" stroke="midnightblue" d="M785.8,-552.35C768.23,-504.04 741.08,-431.29 715,-369 708.55,-353.59 701.64,-337.63 694.59,-321.72"/>
<polygon fill="none" stroke="midnightblue" points="782.59,-553.76 789.29,-561.97 789.17,-551.38 782.59,-553.76"/>
</g>
<!-- Node11 -->
<g id="node11" class="node">
<title>Node11</title>
<g id="a_node11"><a xlink:href="../../d8/d1a/classAH_1_1UpdatableCRTP.html" target="_top" xlink:title="A super class for object that have to be updated regularly.">
<polygon fill="white" stroke="black" points="835,-943 835,-1165 987,-1165 987,-943 835,-943"/>
<text text-anchor="middle" x="911" y="-1153" font-family="Helvetica,sans-Serif" font-size="10.00">UpdatableCRTP&lt; Derived &gt;</text>
<polyline fill="none" stroke="black" points="835,-1146 987,-1146 "/>
<text text-anchor="start" x="843" y="-1134" font-family="Helvetica,sans-Serif" font-size="10.00"># updatables</text>
<polyline fill="none" stroke="black" points="835,-1127 987,-1127 "/>
<text text-anchor="start" x="843" y="-1115" font-family="Helvetica,sans-Serif" font-size="10.00">+ ~UpdatableCRTP()</text>
<text text-anchor="start" x="843" y="-1104" font-family="Helvetica,sans-Serif" font-size="10.00"># UpdatableCRTP()</text>
<text text-anchor="start" x="843" y="-1093" font-family="Helvetica,sans-Serif" font-size="10.00"># UpdatableCRTP()</text>
<text text-anchor="start" x="843" y="-1082" font-family="Helvetica,sans-Serif" font-size="10.00"># operator=()</text>
<text text-anchor="start" x="843" y="-1071" font-family="Helvetica,sans-Serif" font-size="10.00"># UpdatableCRTP()</text>
<text text-anchor="start" x="843" y="-1060" font-family="Helvetica,sans-Serif" font-size="10.00"># operator=()</text>
<text text-anchor="start" x="843" y="-1049" font-family="Helvetica,sans-Serif" font-size="10.00">* enable()</text>
<text text-anchor="start" x="843" y="-1038" font-family="Helvetica,sans-Serif" font-size="10.00">* disable()</text>
<text text-anchor="start" x="843" y="-1027" font-family="Helvetica,sans-Serif" font-size="10.00">* isEnabled()</text>
<text text-anchor="start" x="843" y="-1016" font-family="Helvetica,sans-Serif" font-size="10.00">* moveDown()</text>
<text text-anchor="start" x="843" y="-1005" font-family="Helvetica,sans-Serif" font-size="10.00">* enable()</text>
<text text-anchor="start" x="843" y="-994" font-family="Helvetica,sans-Serif" font-size="10.00">* enable()</text>
<text text-anchor="start" x="843" y="-983" font-family="Helvetica,sans-Serif" font-size="10.00">* enable()</text>
<text text-anchor="start" x="843" y="-972" font-family="Helvetica,sans-Serif" font-size="10.00">* disable()</text>
<text text-anchor="start" x="843" y="-961" font-family="Helvetica,sans-Serif" font-size="10.00">* disable()</text>
<text text-anchor="start" x="843" y="-950" font-family="Helvetica,sans-Serif" font-size="10.00">* disable()</text>
</a>
</g>
</g>
<!-- Node11&#45;&gt;Node10 -->
<g id="edge16" class="edge">
<title>Node11&#45;&gt;Node10</title>
<path fill="none" stroke="midnightblue" d="M882.48,-933.26C860.35,-840.37 830.93,-716.87 815.49,-652.03"/>
<polygon fill="none" stroke="midnightblue" points="879.08,-934.08 884.8,-943 885.89,-932.46 879.08,-934.08"/>
</g>
<!-- Node12 -->
<g id="node12" class="node">
<title>Node12</title>
<g id="a_node12"><a xlink:href="../../d4/d23/classDoublyLinkable.html" target="_top" xlink:title=" ">
<polygon fill="white" stroke="black" points="835,-1499 835,-1622 987,-1622 987,-1499 835,-1499"/>
<text text-anchor="middle" x="911" y="-1610" font-family="Helvetica,sans-Serif" font-size="10.00">DoublyLinkable&lt; Derived &gt;</text>
<polyline fill="none" stroke="black" points="835,-1603 987,-1603 "/>
<text text-anchor="start" x="843" y="-1591" font-family="Helvetica,sans-Serif" font-size="10.00"># next</text>
<text text-anchor="start" x="843" y="-1580" font-family="Helvetica,sans-Serif" font-size="10.00"># previous</text>
<polyline fill="none" stroke="black" points="835,-1573 987,-1573 "/>
<text text-anchor="start" x="843" y="-1561" font-family="Helvetica,sans-Serif" font-size="10.00"># ~DoublyLinkable()</text>
<text text-anchor="start" x="843" y="-1550" font-family="Helvetica,sans-Serif" font-size="10.00"># DoublyLinkable()</text>
<text text-anchor="start" x="843" y="-1539" font-family="Helvetica,sans-Serif" font-size="10.00"># DoublyLinkable()</text>
<text text-anchor="start" x="843" y="-1528" font-family="Helvetica,sans-Serif" font-size="10.00"># DoublyLinkable()</text>
<text text-anchor="start" x="843" y="-1517" font-family="Helvetica,sans-Serif" font-size="10.00"># operator=()</text>
<text text-anchor="start" x="843" y="-1506" font-family="Helvetica,sans-Serif" font-size="10.00"># operator=()</text>
</a>
</g>
</g>
<!-- Node12&#45;&gt;Node11 -->
<g id="edge17" class="edge">
<title>Node12&#45;&gt;Node11</title>
<path fill="none" stroke="midnightblue" d="M911,-1488.69C911,-1404.73 911,-1263.78 911,-1165.44"/>
<polygon fill="none" stroke="midnightblue" points="907.5,-1488.9 911,-1498.9 914.5,-1488.9 907.5,-1488.9"/>
</g>
<!-- Node13 -->
<g id="node13" class="node">
<title>Node13</title>
<g id="a_node13"><a xlink:href="../../de/d55/classMIDI__Callbacks.html" target="_top" xlink:title="A class for callbacks from MIDI input.">
<polygon fill="white" stroke="black" points="904,-556.5 904,-657.5 1056,-657.5 1056,-556.5 904,-556.5"/>
<text text-anchor="middle" x="980" y="-645.5" font-family="Helvetica,sans-Serif" font-size="10.00">MIDI_Callbacks</text>
<polyline fill="none" stroke="black" points="904,-638.5 1056,-638.5 "/>
<text text-anchor="middle" x="980" y="-626.5" font-family="Helvetica,sans-Serif" font-size="10.00"> </text>
<polyline fill="none" stroke="black" points="904,-619.5 1056,-619.5 "/>
<text text-anchor="start" x="912" y="-607.5" font-family="Helvetica,sans-Serif" font-size="10.00">+ onChannelMessage()</text>
<text text-anchor="start" x="912" y="-596.5" font-family="Helvetica,sans-Serif" font-size="10.00">+ onSysExMessage()</text>
<text text-anchor="start" x="912" y="-585.5" font-family="Helvetica,sans-Serif" font-size="10.00">+ onSysCommonMessage()</text>
<text text-anchor="start" x="912" y="-574.5" font-family="Helvetica,sans-Serif" font-size="10.00">+ onRealTimeMessage()</text>
<text text-anchor="start" x="912" y="-563.5" font-family="Helvetica,sans-Serif" font-size="10.00">+ ~MIDI_Callbacks()</text>
</a>
</g>
</g>
<!-- Node13&#45;&gt;Node1 -->
<g id="edge19" class="edge">
<title>Node13&#45;&gt;Node1</title>
<path fill="none" stroke="#404040" d="M970.92,-556.19C959.74,-505.28 936.87,-425.84 895,-369 846.77,-303.53 772.11,-249.17 712.75,-212.62"/>
<polygon fill="none" stroke="#404040" points="712.48,-212.46 705.28,-212.76 702.23,-206.22 709.43,-205.92 712.48,-212.46"/>
<text text-anchor="middle" x="903.5" y="-343" font-family="Helvetica,sans-Serif" font-size="10.00"> &#45;callbacks</text>
</g>
</g>
</svg>
