<?xml version="1.0" encoding="UTF-8" standalone="no"?>
<!DOCTYPE svg PUBLIC "-//W3C//DTD SVG 1.1//EN"
 "http://www.w3.org/Graphics/SVG/1.1/DTD/svg11.dtd">
<!-- Generated by graphviz version 2.43.0 (0)
 -->
<!-- Title: IVU Pages: 1 -->
<svg width="410pt" height="540pt"
 viewBox="0.00 0.00 410.00 540.00" xmlns="http://www.w3.org/2000/svg" xmlns:xlink="http://www.w3.org/1999/xlink">
<g id="graph0" class="graph" transform="scale(1 1) rotate(0) translate(4 536)">
<title>IVU</title>
<polygon fill="white" stroke="transparent" points="-4,4 -4,-536 406,-536 406,4 -4,4"/>
<!-- Node1 -->
<g id="node1" class="node">
<title>Node1</title>
<g id="a_node1"><a xlink:title="An abstract interface for VU meters.">
<polygon fill="#bfbfbf" stroke="black" points="146,-386.5 146,-531.5 249,-531.5 249,-386.5 146,-386.5"/>
<text text-anchor="middle" x="197.5" y="-519.5" font-family="Helvetica,sans-Serif" font-size="10.00">IVU</text>
<polyline fill="none" stroke="black" points="146,-512.5 249,-512.5 "/>
<text text-anchor="start" x="154" y="-500.5" font-family="Helvetica,sans-Serif" font-size="10.00"># max</text>
<text text-anchor="start" x="154" y="-489.5" font-family="Helvetica,sans-Serif" font-size="10.00"># alwaysDirty</text>
<text text-anchor="start" x="154" y="-478.5" font-family="Helvetica,sans-Serif" font-size="10.00"># dirty</text>
<polyline fill="none" stroke="black" points="146,-471.5 249,-471.5 "/>
<text text-anchor="start" x="154" y="-459.5" font-family="Helvetica,sans-Serif" font-size="10.00">+ IVU()</text>
<text text-anchor="start" x="154" y="-448.5" font-family="Helvetica,sans-Serif" font-size="10.00">+ getValue()</text>
<text text-anchor="start" x="154" y="-437.5" font-family="Helvetica,sans-Serif" font-size="10.00">+ getOverload()</text>
<text text-anchor="start" x="154" y="-426.5" font-family="Helvetica,sans-Serif" font-size="10.00">+ getFloatValue()</text>
<text text-anchor="start" x="154" y="-415.5" font-family="Helvetica,sans-Serif" font-size="10.00">+ getMax()</text>
<text text-anchor="start" x="154" y="-404.5" font-family="Helvetica,sans-Serif" font-size="10.00">* getDirty()</text>
<text text-anchor="start" x="154" y="-393.5" font-family="Helvetica,sans-Serif" font-size="10.00">* clearDirty()</text>
</a>
</g>
</g>
<!-- Node2 -->
<g id="node2" class="node">
<title>Node2</title>
<g id="a_node2"><a xlink:href="../../d4/dce/classAudioVU.html" target="_top" xlink:title="A VU meter that reads from an Audio stream using the Analyzer class.">
<polygon fill="white" stroke="black" points="5,-188 5,-322 108,-322 108,-188 5,-188"/>
<text text-anchor="middle" x="56.5" y="-310" font-family="Helvetica,sans-Serif" font-size="10.00">AudioVU</text>
<polyline fill="none" stroke="black" points="5,-303 108,-303 "/>
<text text-anchor="start" x="13" y="-291" font-family="Helvetica,sans-Serif" font-size="10.00">&#45; ballistics</text>
<text text-anchor="start" x="13" y="-280" font-family="Helvetica,sans-Serif" font-size="10.00">&#45; level</text>
<text text-anchor="start" x="13" y="-269" font-family="Helvetica,sans-Serif" font-size="10.00">&#45; gain</text>
<polyline fill="none" stroke="black" points="5,-262 108,-262 "/>
<text text-anchor="start" x="13" y="-250" font-family="Helvetica,sans-Serif" font-size="10.00">+ AudioVU()</text>
<text text-anchor="start" x="13" y="-239" font-family="Helvetica,sans-Serif" font-size="10.00">+ AudioVU()</text>
<text text-anchor="start" x="13" y="-228" font-family="Helvetica,sans-Serif" font-size="10.00">+ getValue()</text>
<text text-anchor="start" x="13" y="-217" font-family="Helvetica,sans-Serif" font-size="10.00">+ getFloatValue()</text>
<text text-anchor="start" x="13" y="-206" font-family="Helvetica,sans-Serif" font-size="10.00">+ getOverload()</text>
<text text-anchor="start" x="13" y="-195" font-family="Helvetica,sans-Serif" font-size="10.00">+ setGain()</text>
</a>
</g>
</g>
<!-- Node1&#45;&gt;Node2 -->
<g id="edge1" class="edge">
<title>Node1&#45;&gt;Node2</title>
<path fill="none" stroke="midnightblue" d="M139.85,-382.64C131.88,-371.78 123.89,-360.67 116.5,-350 110.33,-341.09 103.98,-331.58 97.84,-322.15"/>
<polygon fill="none" stroke="midnightblue" points="137.18,-384.91 145.94,-390.88 142.81,-380.75 137.18,-384.91"/>
</g>
<!-- Node4 -->
<g id="node4" class="node">
<title>Node4</title>
<g id="a_node4"><a xlink:href="../../d0/d43/classMCU_1_1Bankable_1_1VU.html" target="_top" xlink:title="A MIDI input element that represents a Mackie Control Universal VU meter.">
<polygon fill="white" stroke="black" points="126,-160.5 126,-349.5 269,-349.5 269,-160.5 126,-160.5"/>
<text text-anchor="middle" x="197.5" y="-337.5" font-family="Helvetica,sans-Serif" font-size="10.00">VU&lt; BankSize &gt;</text>
<polyline fill="none" stroke="black" points="126,-330.5 269,-330.5 "/>
<text text-anchor="start" x="134" y="-318.5" font-family="Helvetica,sans-Serif" font-size="10.00">&#45; states</text>
<text text-anchor="start" x="134" y="-307.5" font-family="Helvetica,sans-Serif" font-size="10.00">&#45; decayTimer</text>
<polyline fill="none" stroke="black" points="126,-300.5 269,-300.5 "/>
<text text-anchor="start" x="134" y="-288.5" font-family="Helvetica,sans-Serif" font-size="10.00">+ VU()</text>
<text text-anchor="start" x="134" y="-277.5" font-family="Helvetica,sans-Serif" font-size="10.00">+ VU()</text>
<text text-anchor="start" x="134" y="-266.5" font-family="Helvetica,sans-Serif" font-size="10.00">+ reset()</text>
<text text-anchor="start" x="134" y="-255.5" font-family="Helvetica,sans-Serif" font-size="10.00">+ update()</text>
<text text-anchor="start" x="134" y="-244.5" font-family="Helvetica,sans-Serif" font-size="10.00"># handleUpdate()</text>
<text text-anchor="start" x="134" y="-233.5" font-family="Helvetica,sans-Serif" font-size="10.00"># onBankSettingChange()</text>
<text text-anchor="start" x="134" y="-222.5" font-family="Helvetica,sans-Serif" font-size="10.00">* getValue()</text>
<text text-anchor="start" x="134" y="-211.5" font-family="Helvetica,sans-Serif" font-size="10.00">* getOverload()</text>
<text text-anchor="start" x="134" y="-200.5" font-family="Helvetica,sans-Serif" font-size="10.00">* getFloatValue()</text>
<text text-anchor="start" x="134" y="-189.5" font-family="Helvetica,sans-Serif" font-size="10.00">* getValue()</text>
<text text-anchor="start" x="134" y="-178.5" font-family="Helvetica,sans-Serif" font-size="10.00">* getOverload()</text>
<text text-anchor="start" x="134" y="-167.5" font-family="Helvetica,sans-Serif" font-size="10.00">* getFloatValue()</text>
</a>
</g>
</g>
<!-- Node1&#45;&gt;Node4 -->
<g id="edge3" class="edge">
<title>Node1&#45;&gt;Node4</title>
<path fill="none" stroke="midnightblue" d="M197.5,-376.32C197.5,-367.55 197.5,-358.58 197.5,-349.69"/>
<polygon fill="none" stroke="midnightblue" points="194,-376.5 197.5,-386.5 201,-376.5 194,-376.5"/>
</g>
<!-- Node6 -->
<g id="node6" class="node">
<title>Node6</title>
<g id="a_node6"><a xlink:href="../../d8/d4c/classMCU_1_1VU.html" target="_top" xlink:title="A MIDI input element that represents a Mackie Control Universal VU meter.">
<polygon fill="white" stroke="black" points="287.5,-188 287.5,-322 391.5,-322 391.5,-188 287.5,-188"/>
<text text-anchor="middle" x="339.5" y="-310" font-family="Helvetica,sans-Serif" font-size="10.00">VU</text>
<polyline fill="none" stroke="black" points="287.5,-303 391.5,-303 "/>
<text text-anchor="start" x="295.5" y="-291" font-family="Helvetica,sans-Serif" font-size="10.00">&#45; state</text>
<text text-anchor="start" x="295.5" y="-280" font-family="Helvetica,sans-Serif" font-size="10.00">&#45; decayTimer</text>
<polyline fill="none" stroke="black" points="287.5,-273 391.5,-273 "/>
<text text-anchor="start" x="295.5" y="-261" font-family="Helvetica,sans-Serif" font-size="10.00">+ VU()</text>
<text text-anchor="start" x="295.5" y="-250" font-family="Helvetica,sans-Serif" font-size="10.00">+ VU()</text>
<text text-anchor="start" x="295.5" y="-239" font-family="Helvetica,sans-Serif" font-size="10.00">+ reset()</text>
<text text-anchor="start" x="295.5" y="-228" font-family="Helvetica,sans-Serif" font-size="10.00">+ update()</text>
<text text-anchor="start" x="295.5" y="-217" font-family="Helvetica,sans-Serif" font-size="10.00"># handleUpdate()</text>
<text text-anchor="start" x="295.5" y="-206" font-family="Helvetica,sans-Serif" font-size="10.00">* getValue()</text>
<text text-anchor="start" x="295.5" y="-195" font-family="Helvetica,sans-Serif" font-size="10.00">* getOverload()</text>
</a>
</g>
</g>
<!-- Node1&#45;&gt;Node6 -->
<g id="edge5" class="edge">
<title>Node1&#45;&gt;Node6</title>
<path fill="none" stroke="midnightblue" d="M255.25,-382.35C263.18,-371.58 271.12,-360.57 278.5,-350 284.74,-341.07 291.16,-331.55 297.4,-322.12"/>
<polygon fill="none" stroke="midnightblue" points="252.33,-380.41 249.2,-390.53 257.96,-384.57 252.33,-380.41"/>
</g>
<!-- Node3 -->
<g id="node3" class="node">
<title>Node3</title>
<g id="a_node3"><a xlink:href="../../d9/dbf/classAudioVULEDs.html" target="_top" xlink:title="A VU meter that reads from an Audio stream using the AudioAnalyzePeak class, and displays it on an LE...">
<polygon fill="white" stroke="black" points="0,-0.5 0,-123.5 113,-123.5 113,-0.5 0,-0.5"/>
<text text-anchor="middle" x="56.5" y="-111.5" font-family="Helvetica,sans-Serif" font-size="10.00">AudioVULEDs&lt; N &gt;</text>
<polyline fill="none" stroke="black" points="0,-104.5 113,-104.5 "/>
<text text-anchor="start" x="8" y="-92.5" font-family="Helvetica,sans-Serif" font-size="10.00">&#45; vuleds</text>
<text text-anchor="start" x="8" y="-81.5" font-family="Helvetica,sans-Serif" font-size="10.00">&#45; previousValue</text>
<polyline fill="none" stroke="black" points="0,-74.5 113,-74.5 "/>
<text text-anchor="start" x="8" y="-62.5" font-family="Helvetica,sans-Serif" font-size="10.00">+ AudioVULEDs()</text>
<text text-anchor="start" x="8" y="-51.5" font-family="Helvetica,sans-Serif" font-size="10.00">+ begin()</text>
<text text-anchor="start" x="8" y="-40.5" font-family="Helvetica,sans-Serif" font-size="10.00">+ update()</text>
<text text-anchor="start" x="8" y="-29.5" font-family="Helvetica,sans-Serif" font-size="10.00">+ setMode()</text>
<text text-anchor="start" x="8" y="-18.5" font-family="Helvetica,sans-Serif" font-size="10.00">+ dotMode()</text>
<text text-anchor="start" x="8" y="-7.5" font-family="Helvetica,sans-Serif" font-size="10.00">+ barMode()</text>
</a>
</g>
</g>
<!-- Node2&#45;&gt;Node3 -->
<g id="edge2" class="edge">
<title>Node2&#45;&gt;Node3</title>
<path fill="none" stroke="midnightblue" d="M56.5,-177.6C56.5,-159.69 56.5,-140.83 56.5,-123.71"/>
<polygon fill="none" stroke="midnightblue" points="53,-177.73 56.5,-187.73 60,-177.73 53,-177.73"/>
</g>
<!-- Node5 -->
<g id="node5" class="node">
<title>Node5</title>
<g id="a_node5"><a xlink:href="../../db/d17/classMCU_1_1Bankable_1_1VULEDs.html" target="_top" xlink:title="A MIDI input element that represents a Mackie Control Universal VU meter and displays its value using...">
<polygon fill="white" stroke="black" points="136.5,-0.5 136.5,-123.5 258.5,-123.5 258.5,-0.5 136.5,-0.5"/>
<text text-anchor="middle" x="197.5" y="-111.5" font-family="Helvetica,sans-Serif" font-size="10.00">VULEDs&lt; BankSize &gt;</text>
<polyline fill="none" stroke="black" points="136.5,-104.5 258.5,-104.5 "/>
<text text-anchor="middle" x="197.5" y="-92.5" font-family="Helvetica,sans-Serif" font-size="10.00"> </text>
<polyline fill="none" stroke="black" points="136.5,-85.5 258.5,-85.5 "/>
<text text-anchor="start" x="144.5" y="-73.5" font-family="Helvetica,sans-Serif" font-size="10.00">+ VULEDs()</text>
<text text-anchor="start" x="144.5" y="-62.5" font-family="Helvetica,sans-Serif" font-size="10.00">+ VULEDs()</text>
<text text-anchor="start" x="144.5" y="-51.5" font-family="Helvetica,sans-Serif" font-size="10.00">+ begin()</text>
<text text-anchor="start" x="144.5" y="-40.5" font-family="Helvetica,sans-Serif" font-size="10.00">+ reset()</text>
<text text-anchor="start" x="144.5" y="-29.5" font-family="Helvetica,sans-Serif" font-size="10.00">+ update()</text>
<text text-anchor="start" x="144.5" y="-18.5" font-family="Helvetica,sans-Serif" font-size="10.00"># handleUpdate()</text>
<text text-anchor="start" x="144.5" y="-7.5" font-family="Helvetica,sans-Serif" font-size="10.00"># updateDisplay()</text>
</a>
</g>
</g>
<!-- Node4&#45;&gt;Node5 -->
<g id="edge4" class="edge">
<title>Node4&#45;&gt;Node5</title>
<path fill="none" stroke="midnightblue" d="M197.5,-150.23C197.5,-141.19 197.5,-132.26 197.5,-123.75"/>
<polygon fill="none" stroke="midnightblue" points="194,-150.46 197.5,-160.46 201,-150.46 194,-150.46"/>
</g>
<!-- Node7 -->
<g id="node7" class="node">
<title>Node7</title>
<g id="a_node7"><a xlink:href="../../df/d36/classMCU_1_1VULEDs.html" target="_top" xlink:title="A MIDI input element that represents a Mackie Control Universal VU meter and displays its value using...">
<polygon fill="white" stroke="black" points="277,-0.5 277,-123.5 402,-123.5 402,-0.5 277,-0.5"/>
<text text-anchor="middle" x="339.5" y="-111.5" font-family="Helvetica,sans-Serif" font-size="10.00">VULEDs&lt; NumLEDs &gt;</text>
<polyline fill="none" stroke="black" points="277,-104.5 402,-104.5 "/>
<text text-anchor="middle" x="339.5" y="-92.5" font-family="Helvetica,sans-Serif" font-size="10.00"> </text>
<polyline fill="none" stroke="black" points="277,-85.5 402,-85.5 "/>
<text text-anchor="start" x="285" y="-73.5" font-family="Helvetica,sans-Serif" font-size="10.00">+ VULEDs()</text>
<text text-anchor="start" x="285" y="-62.5" font-family="Helvetica,sans-Serif" font-size="10.00">+ VULEDs()</text>
<text text-anchor="start" x="285" y="-51.5" font-family="Helvetica,sans-Serif" font-size="10.00">+ begin()</text>
<text text-anchor="start" x="285" y="-40.5" font-family="Helvetica,sans-Serif" font-size="10.00">+ reset()</text>
<text text-anchor="start" x="285" y="-29.5" font-family="Helvetica,sans-Serif" font-size="10.00">+ update()</text>
<text text-anchor="start" x="285" y="-18.5" font-family="Helvetica,sans-Serif" font-size="10.00"># handleUpdate()</text>
<text text-anchor="start" x="285" y="-7.5" font-family="Helvetica,sans-Serif" font-size="10.00"># updateDisplay()</text>
</a>
</g>
</g>
<!-- Node6&#45;&gt;Node7 -->
<g id="edge6" class="edge">
<title>Node6&#45;&gt;Node7</title>
<path fill="none" stroke="midnightblue" d="M339.5,-177.6C339.5,-159.69 339.5,-140.83 339.5,-123.71"/>
<polygon fill="none" stroke="midnightblue" points="336,-177.73 339.5,-187.73 343,-177.73 336,-177.73"/>
</g>
</g>
</svg>
