<?xml version="1.0" encoding="UTF-8" standalone="no"?>
<!DOCTYPE svg PUBLIC "-//W3C//DTD SVG 1.1//EN"
 "http://www.w3.org/Graphics/SVG/1.1/DTD/svg11.dtd">
<!-- Generated by graphviz version 2.40.1 (20161225.0304)
 -->
<!-- Title: CCRotaryEncoder&lt; N &gt; Pages: 1 -->
<svg width="595pt" height="1307pt"
 viewBox="0.00 0.00 595.00 1307.00" xmlns="http://www.w3.org/2000/svg" xmlns:xlink="http://www.w3.org/1999/xlink">
<g id="graph0" class="graph" transform="scale(1 1) rotate(0) translate(4 1303)">
<title>CCRotaryEncoder&lt; N &gt;</title>
<polygon fill="#ffffff" stroke="transparent" points="-4,4 -4,-1303 591,-1303 591,4 -4,4"/>
<!-- Node1 -->
<g id="node1" class="node">
<title>Node1</title>
<g id="a_node1"><a xlink:title="A class of MIDIOutputElements that read the input of a quadrature (rotary) encoder and send out relat...">
<polygon fill="#bfbfbf" stroke="#000000" points="189.5,-.5 189.5,-57.5 311.5,-57.5 311.5,-.5 189.5,-.5"/>
<text text-anchor="middle" x="250.5" y="-45.5" font-family="Helvetica,sans-Serif" font-size="10.00" fill="#000000">CCRotaryEncoder&lt; N &gt;</text>
<polyline fill="none" stroke="#000000" points="189.5,-38.5 311.5,-38.5 "/>
<text text-anchor="middle" x="250.5" y="-26.5" font-family="Helvetica,sans-Serif" font-size="10.00" fill="#000000"> </text>
<polyline fill="none" stroke="#000000" points="189.5,-19.5 311.5,-19.5 "/>
<text text-anchor="start" x="197.5" y="-7.5" font-family="Helvetica,sans-Serif" font-size="10.00" fill="#000000">+ CCRotaryEncoder()</text>
</a>
</g>
</g>
<!-- Node2 -->
<g id="node2" class="node">
<title>Node2</title>
<g id="a_node2"><a xlink:href="../../dc/dd5/classBankable_1_1MIDIRotaryEncoder.html" target="_top" xlink:title=" ">
<polygon fill="#ffffff" stroke="#000000" points="191,-95.5 191,-229.5 310,-229.5 310,-95.5 191,-95.5"/>
<text text-anchor="start" x="199" y="-217.5" font-family="Helvetica,sans-Serif" font-size="10.00" fill="#000000">MIDIRotaryEncoder&lt;</text>
<text text-anchor="start" x="199" y="-206.5" font-family="Helvetica,sans-Serif" font-size="10.00" fill="#000000"> ManyAddresses&lt; N &gt;,</text>
<text text-anchor="middle" x="250.5" y="-195.5" font-family="Helvetica,sans-Serif" font-size="10.00" fill="#000000"> RelativeCCSender &gt;</text>
<polyline fill="none" stroke="#000000" points="191,-188.5 310,-188.5 "/>
<text text-anchor="start" x="199" y="-176.5" font-family="Helvetica,sans-Serif" font-size="10.00" fill="#000000">&#45; encoder</text>
<text text-anchor="start" x="199" y="-165.5" font-family="Helvetica,sans-Serif" font-size="10.00" fill="#000000">&#45; speedMultiply</text>
<text text-anchor="start" x="199" y="-154.5" font-family="Helvetica,sans-Serif" font-size="10.00" fill="#000000">&#45; pulsesPerStep</text>
<text text-anchor="start" x="199" y="-143.5" font-family="Helvetica,sans-Serif" font-size="10.00" fill="#000000">&#45; previousPosition</text>
<polyline fill="none" stroke="#000000" points="191,-136.5 310,-136.5 "/>
<text text-anchor="start" x="199" y="-124.5" font-family="Helvetica,sans-Serif" font-size="10.00" fill="#000000">+ begin()</text>
<text text-anchor="start" x="199" y="-113.5" font-family="Helvetica,sans-Serif" font-size="10.00" fill="#000000">+ update()</text>
<text text-anchor="start" x="199" y="-102.5" font-family="Helvetica,sans-Serif" font-size="10.00" fill="#000000"># MIDIRotaryEncoder()</text>
</a>
</g>
</g>
<!-- Node2&#45;&gt;Node1 -->
<g id="edge1" class="edge">
<title>Node2&#45;&gt;Node1</title>
<path fill="none" stroke="#191970" d="M250.5,-85.154C250.5,-75.434 250.5,-66.0216 250.5,-57.7698"/>
<polygon fill="none" stroke="#191970" points="247.0001,-85.3589 250.5,-95.3589 254.0001,-85.3589 247.0001,-85.3589"/>
</g>
<!-- Node3 -->
<g id="node3" class="node">
<title>Node3</title>
<g id="a_node3"><a xlink:href="../../d1/d55/classAH_1_1Updatable.html" target="_top" xlink:title=" ">
<polygon fill="#ffffff" stroke="#000000" points="60.5,-277.5 60.5,-488.5 164.5,-488.5 164.5,-277.5 60.5,-277.5"/>
<text text-anchor="middle" x="112.5" y="-476.5" font-family="Helvetica,sans-Serif" font-size="10.00" fill="#000000">MIDIOutputElement</text>
<polyline fill="none" stroke="#000000" points="60.5,-469.5 164.5,-469.5 "/>
<text text-anchor="middle" x="112.5" y="-457.5" font-family="Helvetica,sans-Serif" font-size="10.00" fill="#000000"> </text>
<polyline fill="none" stroke="#000000" points="60.5,-450.5 164.5,-450.5 "/>
<text text-anchor="start" x="68.5" y="-438.5" font-family="Helvetica,sans-Serif" font-size="10.00" fill="#000000">+ ~Updatable()</text>
<text text-anchor="start" x="68.5" y="-427.5" font-family="Helvetica,sans-Serif" font-size="10.00" fill="#000000"># Updatable()</text>
<text text-anchor="start" x="68.5" y="-416.5" font-family="Helvetica,sans-Serif" font-size="10.00" fill="#000000">* begin()</text>
<text text-anchor="start" x="68.5" y="-405.5" font-family="Helvetica,sans-Serif" font-size="10.00" fill="#000000">* update()</text>
<text text-anchor="start" x="68.5" y="-394.5" font-family="Helvetica,sans-Serif" font-size="10.00" fill="#000000">* beginAll()</text>
<text text-anchor="start" x="68.5" y="-383.5" font-family="Helvetica,sans-Serif" font-size="10.00" fill="#000000">* updateAll()</text>
<text text-anchor="start" x="68.5" y="-372.5" font-family="Helvetica,sans-Serif" font-size="10.00" fill="#000000">* enable()</text>
<text text-anchor="start" x="68.5" y="-361.5" font-family="Helvetica,sans-Serif" font-size="10.00" fill="#000000">* disable()</text>
<text text-anchor="start" x="68.5" y="-350.5" font-family="Helvetica,sans-Serif" font-size="10.00" fill="#000000">* isEnabled()</text>
<text text-anchor="start" x="68.5" y="-339.5" font-family="Helvetica,sans-Serif" font-size="10.00" fill="#000000">* enable()</text>
<text text-anchor="start" x="68.5" y="-328.5" font-family="Helvetica,sans-Serif" font-size="10.00" fill="#000000">* enable()</text>
<text text-anchor="start" x="68.5" y="-317.5" font-family="Helvetica,sans-Serif" font-size="10.00" fill="#000000">* enable()</text>
<text text-anchor="start" x="68.5" y="-306.5" font-family="Helvetica,sans-Serif" font-size="10.00" fill="#000000">* disable()</text>
<text text-anchor="start" x="68.5" y="-295.5" font-family="Helvetica,sans-Serif" font-size="10.00" fill="#000000">* disable()</text>
<text text-anchor="start" x="68.5" y="-284.5" font-family="Helvetica,sans-Serif" font-size="10.00" fill="#000000">* disable()</text>
</a>
</g>
</g>
<!-- Node3&#45;&gt;Node2 -->
<g id="edge2" class="edge">
<title>Node3&#45;&gt;Node2</title>
<path fill="none" stroke="#191970" d="M169.8582,-282.8879C171.0766,-280.9046 172.2914,-278.9402 173.5,-277 183.1261,-261.5469 193.8231,-245.1776 204.1067,-229.7982"/>
<polygon fill="none" stroke="#191970" points="166.7119,-281.3253 164.5016,-291.6871 172.6912,-284.9653 166.7119,-281.3253"/>
</g>
<!-- Node4 -->
<g id="node4" class="node">
<title>Node4</title>
<g id="a_node4"><a xlink:href="../../d4/d23/classDoublyLinkable.html" target="_top" xlink:title=" ">
<polygon fill="#ffffff" stroke="#000000" points="0,-1203 0,-1282 137,-1282 137,-1203 0,-1203"/>
<text text-anchor="start" x="8" y="-1270" font-family="Helvetica,sans-Serif" font-size="10.00" fill="#000000">DoublyLinkable&lt; Updatable</text>
<text text-anchor="middle" x="68.5" y="-1259" font-family="Helvetica,sans-Serif" font-size="10.00" fill="#000000">&lt; NormalUpdatable &gt; &gt;</text>
<polyline fill="none" stroke="#000000" points="0,-1252 137,-1252 "/>
<text text-anchor="start" x="8" y="-1240" font-family="Helvetica,sans-Serif" font-size="10.00" fill="#000000"># next</text>
<text text-anchor="start" x="8" y="-1229" font-family="Helvetica,sans-Serif" font-size="10.00" fill="#000000"># previous</text>
<polyline fill="none" stroke="#000000" points="0,-1222 137,-1222 "/>
<text text-anchor="start" x="8" y="-1210" font-family="Helvetica,sans-Serif" font-size="10.00" fill="#000000"># ~DoublyLinkable()</text>
</a>
</g>
</g>
<!-- Node4&#45;&gt;Node3 -->
<g id="edge3" class="edge">
<title>Node4&#45;&gt;Node3</title>
<path fill="none" stroke="#191970" d="M62.0199,-1192.674C48.2044,-1076.586 20.2564,-779.4699 60.5,-536 63.0621,-520.4997 66.9915,-504.4595 71.5675,-488.8573"/>
<polygon fill="none" stroke="#191970" points="58.555,-1193.1762 63.2299,-1202.6839 65.5044,-1192.3361 58.555,-1193.1762"/>
</g>
<!-- Node6 -->
<g id="node6" class="node">
<title>Node6</title>
<g id="a_node6"><a xlink:href="../../d1/d55/classAH_1_1Updatable.html" target="_top" xlink:title=" ">
<polygon fill="#ffffff" stroke="#000000" points="70,-900 70,-1111 225,-1111 225,-900 70,-900"/>
<text text-anchor="middle" x="147.5" y="-1099" font-family="Helvetica,sans-Serif" font-size="10.00" fill="#000000">Updatable&lt; NormalUpdatable &gt;</text>
<polyline fill="none" stroke="#000000" points="70,-1092 225,-1092 "/>
<text text-anchor="middle" x="147.5" y="-1080" font-family="Helvetica,sans-Serif" font-size="10.00" fill="#000000"> </text>
<polyline fill="none" stroke="#000000" points="70,-1073 225,-1073 "/>
<text text-anchor="start" x="78" y="-1061" font-family="Helvetica,sans-Serif" font-size="10.00" fill="#000000">+ ~Updatable()</text>
<text text-anchor="start" x="78" y="-1050" font-family="Helvetica,sans-Serif" font-size="10.00" fill="#000000"># Updatable()</text>
<text text-anchor="start" x="78" y="-1039" font-family="Helvetica,sans-Serif" font-size="10.00" fill="#000000">* begin()</text>
<text text-anchor="start" x="78" y="-1028" font-family="Helvetica,sans-Serif" font-size="10.00" fill="#000000">* update()</text>
<text text-anchor="start" x="78" y="-1017" font-family="Helvetica,sans-Serif" font-size="10.00" fill="#000000">* beginAll()</text>
<text text-anchor="start" x="78" y="-1006" font-family="Helvetica,sans-Serif" font-size="10.00" fill="#000000">* updateAll()</text>
<text text-anchor="start" x="78" y="-995" font-family="Helvetica,sans-Serif" font-size="10.00" fill="#000000">* enable()</text>
<text text-anchor="start" x="78" y="-984" font-family="Helvetica,sans-Serif" font-size="10.00" fill="#000000">* disable()</text>
<text text-anchor="start" x="78" y="-973" font-family="Helvetica,sans-Serif" font-size="10.00" fill="#000000">* isEnabled()</text>
<text text-anchor="start" x="78" y="-962" font-family="Helvetica,sans-Serif" font-size="10.00" fill="#000000">* enable()</text>
<text text-anchor="start" x="78" y="-951" font-family="Helvetica,sans-Serif" font-size="10.00" fill="#000000">* enable()</text>
<text text-anchor="start" x="78" y="-940" font-family="Helvetica,sans-Serif" font-size="10.00" fill="#000000">* enable()</text>
<text text-anchor="start" x="78" y="-929" font-family="Helvetica,sans-Serif" font-size="10.00" fill="#000000">* disable()</text>
<text text-anchor="start" x="78" y="-918" font-family="Helvetica,sans-Serif" font-size="10.00" fill="#000000">* disable()</text>
<text text-anchor="start" x="78" y="-907" font-family="Helvetica,sans-Serif" font-size="10.00" fill="#000000">* disable()</text>
</a>
</g>
</g>
<!-- Node4&#45;&gt;Node6 -->
<g id="edge6" class="edge">
<title>Node4&#45;&gt;Node6</title>
<path fill="none" stroke="#191970" d="M84.9006,-1193.2981C92.8697,-1169.3909 102.7727,-1139.6819 112.333,-1111.0011"/>
<polygon fill="none" stroke="#191970" points="81.5648,-1192.2379 81.7228,-1202.8315 88.2056,-1194.4515 81.5648,-1192.2379"/>
</g>
<!-- Node5 -->
<g id="node5" class="node">
<title>Node5</title>
<g id="a_node5"><a xlink:href="../../dd/d16/classDoublyLinkedList.html" target="_top" xlink:title=" ">
<polygon fill="#ffffff" stroke="#000000" points="69.5,-536.5 69.5,-813.5 239.5,-813.5 239.5,-536.5 69.5,-536.5"/>
<text text-anchor="start" x="77.5" y="-801.5" font-family="Helvetica,sans-Serif" font-size="10.00" fill="#000000">DoublyLinkedList&lt; AH</text>
<text text-anchor="middle" x="154.5" y="-790.5" font-family="Helvetica,sans-Serif" font-size="10.00" fill="#000000">::Updatable&lt; NormalUpdatable &gt; &gt;</text>
<polyline fill="none" stroke="#000000" points="69.5,-783.5 239.5,-783.5 "/>
<text text-anchor="middle" x="154.5" y="-771.5" font-family="Helvetica,sans-Serif" font-size="10.00" fill="#000000"> </text>
<polyline fill="none" stroke="#000000" points="69.5,-764.5 239.5,-764.5 "/>
<text text-anchor="start" x="77.5" y="-752.5" font-family="Helvetica,sans-Serif" font-size="10.00" fill="#000000">+ append()</text>
<text text-anchor="start" x="77.5" y="-741.5" font-family="Helvetica,sans-Serif" font-size="10.00" fill="#000000">+ append()</text>
<text text-anchor="start" x="77.5" y="-730.5" font-family="Helvetica,sans-Serif" font-size="10.00" fill="#000000">+ insertBefore()</text>
<text text-anchor="start" x="77.5" y="-719.5" font-family="Helvetica,sans-Serif" font-size="10.00" fill="#000000">+ insertBefore()</text>
<text text-anchor="start" x="77.5" y="-708.5" font-family="Helvetica,sans-Serif" font-size="10.00" fill="#000000">+ insertSorted()</text>
<text text-anchor="start" x="77.5" y="-697.5" font-family="Helvetica,sans-Serif" font-size="10.00" fill="#000000">+ insertSorted()</text>
<text text-anchor="start" x="77.5" y="-686.5" font-family="Helvetica,sans-Serif" font-size="10.00" fill="#000000">+ remove()</text>
<text text-anchor="start" x="77.5" y="-675.5" font-family="Helvetica,sans-Serif" font-size="10.00" fill="#000000">+ remove()</text>
<text text-anchor="start" x="77.5" y="-664.5" font-family="Helvetica,sans-Serif" font-size="10.00" fill="#000000">+ moveDown()</text>
<text text-anchor="start" x="77.5" y="-653.5" font-family="Helvetica,sans-Serif" font-size="10.00" fill="#000000">+ couldContain()</text>
<text text-anchor="start" x="77.5" y="-642.5" font-family="Helvetica,sans-Serif" font-size="10.00" fill="#000000">+ begin()</text>
<text text-anchor="start" x="77.5" y="-631.5" font-family="Helvetica,sans-Serif" font-size="10.00" fill="#000000">+ begin()</text>
<text text-anchor="start" x="77.5" y="-620.5" font-family="Helvetica,sans-Serif" font-size="10.00" fill="#000000">+ end()</text>
<text text-anchor="start" x="77.5" y="-609.5" font-family="Helvetica,sans-Serif" font-size="10.00" fill="#000000">+ end()</text>
<text text-anchor="start" x="77.5" y="-598.5" font-family="Helvetica,sans-Serif" font-size="10.00" fill="#000000">+ rbegin()</text>
<text text-anchor="start" x="77.5" y="-587.5" font-family="Helvetica,sans-Serif" font-size="10.00" fill="#000000">+ rbegin()</text>
<text text-anchor="start" x="77.5" y="-576.5" font-family="Helvetica,sans-Serif" font-size="10.00" fill="#000000">+ rend()</text>
<text text-anchor="start" x="77.5" y="-565.5" font-family="Helvetica,sans-Serif" font-size="10.00" fill="#000000">+ rend()</text>
<text text-anchor="start" x="77.5" y="-554.5" font-family="Helvetica,sans-Serif" font-size="10.00" fill="#000000">+ getFirst()</text>
<text text-anchor="start" x="77.5" y="-543.5" font-family="Helvetica,sans-Serif" font-size="10.00" fill="#000000">+ getLast()</text>
</a>
</g>
</g>
<!-- Node5&#45;&gt;Node3 -->
<g id="edge4" class="edge">
<title>Node5&#45;&gt;Node3</title>
<path fill="none" stroke="#404040" d="M134.5455,-536.2688C132.8333,-524.3646 131.1117,-512.3958 129.4266,-500.6801"/>
<polygon fill="none" stroke="#404040" points="129.3941,-500.4537 124.5806,-495.0843 127.6856,-488.5759 132.4991,-493.9453 129.3941,-500.4537"/>
<text text-anchor="middle" x="159.5" y="-510" font-family="Helvetica,sans-Serif" font-size="10.00" fill="#000000"> #updatables</text>
</g>
<!-- Node5&#45;&gt;Node6 -->
<g id="edge7" class="edge">
<title>Node5&#45;&gt;Node6</title>
<path fill="none" stroke="#404040" d="M152.3062,-813.7672C152.0516,-827.3625 151.7816,-840.9491 151.5,-854 151.2645,-864.9146 151.0002,-876.2709 150.7227,-887.6392"/>
<polygon fill="none" stroke="#404040" points="150.7148,-887.9629 154.5647,-894.0603 150.4171,-899.9592 146.5672,-893.8619 150.7148,-887.9629"/>
<text text-anchor="middle" x="180.5" y="-840.5" font-family="Helvetica,sans-Serif" font-size="10.00" fill="#000000"> #updatables</text>
</g>
<!-- Node6&#45;&gt;Node5 -->
<g id="edge5" class="edge">
<title>Node6&#45;&gt;Node5</title>
<path fill="none" stroke="#404040" d="M133.3121,-899.689C131.7309,-884.3852 130.3765,-868.8068 129.5,-854 128.9524,-844.7499 128.8638,-835.2519 129.1357,-825.6863"/>
<polygon fill="none" stroke="#404040" points="129.1421,-825.536 125.4075,-819.3673 129.6653,-813.5474 133.3999,-819.7161 129.1421,-825.536"/>
<text text-anchor="middle" x="140.5" y="-846" font-family="Helvetica,sans-Serif" font-size="10.00" fill="#000000"> &#45;last</text>
<text text-anchor="middle" x="140.5" y="-835" font-family="Helvetica,sans-Serif" font-size="10.00" fill="#000000">&#45;first</text>
</g>
<!-- Node7 -->
<g id="node7" class="node">
<title>Node7</title>
<g id="a_node7"><a xlink:href="../../d3/dd0/classRelativeCCSender.html" target="_top" xlink:title=" ">
<polygon fill="#ffffff" stroke="#000000" points="183,-327 183,-439 318,-439 318,-327 183,-327"/>
<text text-anchor="middle" x="250.5" y="-427" font-family="Helvetica,sans-Serif" font-size="10.00" fill="#000000">RelativeCCSender</text>
<polyline fill="none" stroke="#000000" points="183,-420 318,-420 "/>
<text text-anchor="start" x="191" y="-408" font-family="Helvetica,sans-Serif" font-size="10.00" fill="#000000">&#45; mode</text>
<polyline fill="none" stroke="#000000" points="183,-401 318,-401 "/>
<text text-anchor="start" x="191" y="-389" font-family="Helvetica,sans-Serif" font-size="10.00" fill="#000000">+ toTwosComplement7bit()</text>
<text text-anchor="start" x="191" y="-378" font-family="Helvetica,sans-Serif" font-size="10.00" fill="#000000">+ toBinaryOffset7bit()</text>
<text text-anchor="start" x="191" y="-367" font-family="Helvetica,sans-Serif" font-size="10.00" fill="#000000">+ toSignedMagnitude7bit()</text>
<text text-anchor="start" x="191" y="-356" font-family="Helvetica,sans-Serif" font-size="10.00" fill="#000000">+ mapRelativeCC()</text>
<text text-anchor="start" x="191" y="-345" font-family="Helvetica,sans-Serif" font-size="10.00" fill="#000000">+ send()</text>
<text text-anchor="start" x="191" y="-334" font-family="Helvetica,sans-Serif" font-size="10.00" fill="#000000">+ setMode()</text>
</a>
</g>
</g>
<!-- Node7&#45;&gt;Node2 -->
<g id="edge8" class="edge">
<title>Node7&#45;&gt;Node2</title>
<path fill="none" stroke="#404040" d="M250.5,-326.788C250.5,-301.0019 250.5,-269.9761 250.5,-241.8644"/>
<polygon fill="none" stroke="#404040" points="250.5001,-241.6022 246.5,-235.6022 250.5,-229.6022 254.5,-235.6022 250.5001,-241.6022"/>
<text text-anchor="middle" x="270" y="-251" font-family="Helvetica,sans-Serif" font-size="10.00" fill="#000000"> +sender</text>
</g>
<!-- Node8 -->
<g id="node8" class="node">
<title>Node8</title>
<g id="a_node8"><a xlink:href="../../d8/d58/classBankable_1_1ManyAddresses_1_1ManyAddresses.html" target="_top" xlink:title=" ">
<polygon fill="#ffffff" stroke="#000000" points="336,-349 336,-417 449,-417 449,-349 336,-349"/>
<text text-anchor="middle" x="392.5" y="-405" font-family="Helvetica,sans-Serif" font-size="10.00" fill="#000000">ManyAddresses&lt; N &gt;</text>
<polyline fill="none" stroke="#000000" points="336,-398 449,-398 "/>
<text text-anchor="middle" x="392.5" y="-386" font-family="Helvetica,sans-Serif" font-size="10.00" fill="#000000"> </text>
<polyline fill="none" stroke="#000000" points="336,-379 449,-379 "/>
<text text-anchor="start" x="344" y="-367" font-family="Helvetica,sans-Serif" font-size="10.00" fill="#000000">+ ManyAddresses()</text>
<text text-anchor="start" x="344" y="-356" font-family="Helvetica,sans-Serif" font-size="10.00" fill="#000000">+ getActiveAddress()</text>
</a>
</g>
</g>
<!-- Node8&#45;&gt;Node2 -->
<g id="edge9" class="edge">
<title>Node8&#45;&gt;Node2</title>
<path fill="none" stroke="#404040" d="M371.6458,-348.9481C358.7819,-328.0837 341.8594,-300.8868 326.5,-277 318.7878,-265.0061 310.5344,-252.3717 302.4127,-240.0497"/>
<polygon fill="none" stroke="#404040" points="302.2514,-239.8055 295.6065,-237.0046 295.6363,-229.7935 302.2812,-232.5945 302.2514,-239.8055"/>
<text text-anchor="middle" x="335" y="-251" font-family="Helvetica,sans-Serif" font-size="10.00" fill="#000000"> &#45;address</text>
</g>
<!-- Node9 -->
<g id="node9" class="node">
<title>Node9</title>
<g id="a_node9"><a xlink:href="../../d1/d2f/classManyAddressesMIDIOutput.html" target="_top" xlink:title="A base class for all MIDIOutputElements that can have one of many addresses.">
<polygon fill="#ffffff" stroke="#000000" points="291,-646.5 291,-703.5 444,-703.5 444,-646.5 291,-646.5"/>
<text text-anchor="middle" x="367.5" y="-691.5" font-family="Helvetica,sans-Serif" font-size="10.00" fill="#000000">ManyAddressesMIDIOutput</text>
<polyline fill="none" stroke="#000000" points="291,-684.5 444,-684.5 "/>
<text text-anchor="middle" x="367.5" y="-672.5" font-family="Helvetica,sans-Serif" font-size="10.00" fill="#000000"> </text>
<polyline fill="none" stroke="#000000" points="291,-665.5 444,-665.5 "/>
<text text-anchor="start" x="299" y="-653.5" font-family="Helvetica,sans-Serif" font-size="10.00" fill="#000000">+ ManyAddressesMIDIOutput()</text>
</a>
</g>
</g>
<!-- Node9&#45;&gt;Node8 -->
<g id="edge10" class="edge">
<title>Node9&#45;&gt;Node8</title>
<path fill="none" stroke="#191970" d="M370.8104,-636.334C375.7339,-578.8285 384.9068,-471.6887 389.5883,-417.0083"/>
<polygon fill="none" stroke="#191970" points="367.3085,-636.208 369.9426,-646.4702 374.283,-636.8052 367.3085,-636.208"/>
</g>
<!-- Node10 -->
<g id="node10" class="node">
<title>Node10</title>
<g id="a_node10"><a xlink:href="../../d4/d6e/classBankableMIDIOutput__Base.html" target="_top" xlink:title=" ">
<polygon fill="#ffffff" stroke="#000000" points="289.5,-949.5 289.5,-1061.5 439.5,-1061.5 439.5,-949.5 289.5,-949.5"/>
<text text-anchor="middle" x="364.5" y="-1049.5" font-family="Helvetica,sans-Serif" font-size="10.00" fill="#000000">BankableMIDIOutput_Base</text>
<polyline fill="none" stroke="#000000" points="289.5,-1042.5 439.5,-1042.5 "/>
<text text-anchor="start" x="297.5" y="-1030.5" font-family="Helvetica,sans-Serif" font-size="10.00" fill="#000000">&#45; lockedSetting</text>
<text text-anchor="start" x="297.5" y="-1019.5" font-family="Helvetica,sans-Serif" font-size="10.00" fill="#000000">&#45; UNLOCKED</text>
<polyline fill="none" stroke="#000000" points="289.5,-1012.5 439.5,-1012.5 "/>
<text text-anchor="start" x="297.5" y="-1000.5" font-family="Helvetica,sans-Serif" font-size="10.00" fill="#000000">+ getRawBankSetting()</text>
<text text-anchor="start" x="297.5" y="-989.5" font-family="Helvetica,sans-Serif" font-size="10.00" fill="#000000">+ getSelection()</text>
<text text-anchor="start" x="297.5" y="-978.5" font-family="Helvetica,sans-Serif" font-size="10.00" fill="#000000">+ lock()</text>
<text text-anchor="start" x="297.5" y="-967.5" font-family="Helvetica,sans-Serif" font-size="10.00" fill="#000000">+ unlock()</text>
<text text-anchor="start" x="297.5" y="-956.5" font-family="Helvetica,sans-Serif" font-size="10.00" fill="#000000"># BankableMIDIOutput_Base()</text>
</a>
</g>
</g>
<!-- Node10&#45;&gt;Node9 -->
<g id="edge11" class="edge">
<title>Node10&#45;&gt;Node9</title>
<path fill="none" stroke="#191970" d="M365.1025,-939.1285C365.7549,-867.2512 366.7657,-755.9004 367.2389,-703.765"/>
<polygon fill="none" stroke="#191970" points="361.5999,-939.4038 365.0089,-949.4352 368.5996,-939.4674 361.5999,-939.4038"/>
</g>
<!-- Node11 -->
<g id="node11" class="node">
<title>Node11</title>
<g id="a_node11"><a xlink:href="../../d9/d36/classOutputBank.html" target="_top" xlink:title="A class for changing the address of BankableMIDIOutputs.">
<polygon fill="#ffffff" stroke="#000000" points="308,-1186.5 308,-1298.5 421,-1298.5 421,-1186.5 308,-1186.5"/>
<text text-anchor="middle" x="364.5" y="-1286.5" font-family="Helvetica,sans-Serif" font-size="10.00" fill="#000000">OutputBank</text>
<polyline fill="none" stroke="#000000" points="308,-1279.5 421,-1279.5 "/>
<text text-anchor="start" x="316" y="-1267.5" font-family="Helvetica,sans-Serif" font-size="10.00" fill="#000000">&#45; tracksPerBank</text>
<text text-anchor="start" x="316" y="-1256.5" font-family="Helvetica,sans-Serif" font-size="10.00" fill="#000000">&#45; bankSetting</text>
<polyline fill="none" stroke="#000000" points="308,-1249.5 421,-1249.5 "/>
<text text-anchor="start" x="316" y="-1237.5" font-family="Helvetica,sans-Serif" font-size="10.00" fill="#000000">+ OutputBank()</text>
<text text-anchor="start" x="316" y="-1226.5" font-family="Helvetica,sans-Serif" font-size="10.00" fill="#000000">+ select()</text>
<text text-anchor="start" x="316" y="-1215.5" font-family="Helvetica,sans-Serif" font-size="10.00" fill="#000000">+ getSelection()</text>
<text text-anchor="start" x="316" y="-1204.5" font-family="Helvetica,sans-Serif" font-size="10.00" fill="#000000">+ getTracksPerBank()</text>
<text text-anchor="start" x="316" y="-1193.5" font-family="Helvetica,sans-Serif" font-size="10.00" fill="#000000">+ getOffset()</text>
</a>
</g>
</g>
<!-- Node11&#45;&gt;Node10 -->
<g id="edge12" class="edge">
<title>Node11&#45;&gt;Node10</title>
<path fill="none" stroke="#404040" d="M364.5,-1186.3343C364.5,-1152.6616 364.5,-1109.6015 364.5,-1073.9475"/>
<polygon fill="none" stroke="#404040" points="364.5001,-1073.6727 360.5,-1067.6728 364.5,-1061.6727 368.5,-1067.6727 364.5001,-1073.6727"/>
<text text-anchor="middle" x="379.5" y="-1160" font-family="Helvetica,sans-Serif" font-size="10.00" fill="#000000"> #bank</text>
</g>
<!-- Node12 -->
<g id="node12" class="node">
<title>Node12</title>
<g id="a_node12"><a xlink:href="../../d0/d32/structAH_1_1Array.html" target="_top" xlink:title=" ">
<polygon fill="#ffffff" stroke="#000000" points="466.5,-586 466.5,-764 576.5,-764 576.5,-586 466.5,-586"/>
<text text-anchor="start" x="474.5" y="-752" font-family="Helvetica,sans-Serif" font-size="10.00" fill="#000000">Array&lt; MIDIAddress,</text>
<text text-anchor="middle" x="521.5" y="-741" font-family="Helvetica,sans-Serif" font-size="10.00" fill="#000000"> NumBanks &gt;</text>
<polyline fill="none" stroke="#000000" points="466.5,-734 576.5,-734 "/>
<text text-anchor="start" x="474.5" y="-722" font-family="Helvetica,sans-Serif" font-size="10.00" fill="#000000">+ length</text>
<polyline fill="none" stroke="#000000" points="466.5,-715 576.5,-715 "/>
<text text-anchor="start" x="474.5" y="-703" font-family="Helvetica,sans-Serif" font-size="10.00" fill="#000000">+ operator[]()</text>
<text text-anchor="start" x="474.5" y="-692" font-family="Helvetica,sans-Serif" font-size="10.00" fill="#000000">+ operator[]()</text>
<text text-anchor="start" x="474.5" y="-681" font-family="Helvetica,sans-Serif" font-size="10.00" fill="#000000">+ begin()</text>
<text text-anchor="start" x="474.5" y="-670" font-family="Helvetica,sans-Serif" font-size="10.00" fill="#000000">+ begin()</text>
<text text-anchor="start" x="474.5" y="-659" font-family="Helvetica,sans-Serif" font-size="10.00" fill="#000000">+ end()</text>
<text text-anchor="start" x="474.5" y="-648" font-family="Helvetica,sans-Serif" font-size="10.00" fill="#000000">+ end()</text>
<text text-anchor="start" x="474.5" y="-637" font-family="Helvetica,sans-Serif" font-size="10.00" fill="#000000">+ operator==()</text>
<text text-anchor="start" x="474.5" y="-626" font-family="Helvetica,sans-Serif" font-size="10.00" fill="#000000">+ operator!=()</text>
<text text-anchor="start" x="474.5" y="-615" font-family="Helvetica,sans-Serif" font-size="10.00" fill="#000000">+ slice()</text>
<text text-anchor="start" x="474.5" y="-604" font-family="Helvetica,sans-Serif" font-size="10.00" fill="#000000">+ slice()</text>
<text text-anchor="start" x="474.5" y="-593" font-family="Helvetica,sans-Serif" font-size="10.00" fill="#000000">+ cslice()</text>
</a>
</g>
</g>
<!-- Node12&#45;&gt;Node8 -->
<g id="edge13" class="edge">
<title>Node12&#45;&gt;Node8</title>
<path fill="none" stroke="#404040" d="M482.0948,-585.8037C459.1353,-533.8333 431.1497,-470.4862 412.6314,-428.5687"/>
<polygon fill="none" stroke="#404040" points="412.5206,-428.3179 406.4371,-424.446 407.6713,-417.3413 413.7548,-421.2131 412.5206,-428.3179"/>
<text text-anchor="middle" x="475.5" y="-510" font-family="Helvetica,sans-Serif" font-size="10.00" fill="#000000"> &#45;addresses</text>
</g>
<!-- Node13 -->
<g id="node13" class="node">
<title>Node13</title>
<g id="a_node13"><a xlink:href="../../d7/d0f/classMIDIAddress.html" target="_top" xlink:title="A type&#45;safe utility class for saving a MIDI address consisting of a 7&#45;bit address,...">
<polygon fill="#ffffff" stroke="#000000" points="458,-872.5 458,-1138.5 587,-1138.5 587,-872.5 458,-872.5"/>
<text text-anchor="middle" x="522.5" y="-1126.5" font-family="Helvetica,sans-Serif" font-size="10.00" fill="#000000">MIDIAddress</text>
<polyline fill="none" stroke="#000000" points="458,-1119.5 587,-1119.5 "/>
<text text-anchor="start" x="466" y="-1107.5" font-family="Helvetica,sans-Serif" font-size="10.00" fill="#000000">&#45; addresses</text>
<polyline fill="none" stroke="#000000" points="458,-1100.5 587,-1100.5 "/>
<text text-anchor="start" x="466" y="-1088.5" font-family="Helvetica,sans-Serif" font-size="10.00" fill="#000000">* MIDIAddress()</text>
<text text-anchor="start" x="466" y="-1077.5" font-family="Helvetica,sans-Serif" font-size="10.00" fill="#000000">* MIDIAddress()</text>
<text text-anchor="start" x="466" y="-1066.5" font-family="Helvetica,sans-Serif" font-size="10.00" fill="#000000">* MIDIAddress()</text>
<text text-anchor="start" x="466" y="-1055.5" font-family="Helvetica,sans-Serif" font-size="10.00" fill="#000000">* MIDIAddress()</text>
<text text-anchor="start" x="466" y="-1044.5" font-family="Helvetica,sans-Serif" font-size="10.00" fill="#000000">* MIDIAddress()</text>
<text text-anchor="start" x="466" y="-1033.5" font-family="Helvetica,sans-Serif" font-size="10.00" fill="#000000">* invalid()</text>
<text text-anchor="start" x="466" y="-1022.5" font-family="Helvetica,sans-Serif" font-size="10.00" fill="#000000">* operator+=()</text>
<text text-anchor="start" x="466" y="-1011.5" font-family="Helvetica,sans-Serif" font-size="10.00" fill="#000000">* operator&#45;=()</text>
<text text-anchor="start" x="466" y="-1000.5" font-family="Helvetica,sans-Serif" font-size="10.00" fill="#000000">* operator+()</text>
<text text-anchor="start" x="466" y="-989.5" font-family="Helvetica,sans-Serif" font-size="10.00" fill="#000000">* operator&#45;()</text>
<text text-anchor="start" x="466" y="-978.5" font-family="Helvetica,sans-Serif" font-size="10.00" fill="#000000">* getAddress()</text>
<text text-anchor="start" x="466" y="-967.5" font-family="Helvetica,sans-Serif" font-size="10.00" fill="#000000">* getChannel()</text>
<text text-anchor="start" x="466" y="-956.5" font-family="Helvetica,sans-Serif" font-size="10.00" fill="#000000">* getRawChannel()</text>
<text text-anchor="start" x="466" y="-945.5" font-family="Helvetica,sans-Serif" font-size="10.00" fill="#000000">* getCableNumber()</text>
<text text-anchor="start" x="466" y="-934.5" font-family="Helvetica,sans-Serif" font-size="10.00" fill="#000000">* operator==()</text>
<text text-anchor="start" x="466" y="-923.5" font-family="Helvetica,sans-Serif" font-size="10.00" fill="#000000">* operator!=()</text>
<text text-anchor="start" x="466" y="-912.5" font-family="Helvetica,sans-Serif" font-size="10.00" fill="#000000">* isValid()</text>
<text text-anchor="start" x="466" y="-901.5" font-family="Helvetica,sans-Serif" font-size="10.00" fill="#000000">* operator bool()</text>
<text text-anchor="start" x="466" y="-890.5" font-family="Helvetica,sans-Serif" font-size="10.00" fill="#000000">* matchSingle()</text>
<text text-anchor="start" x="466" y="-879.5" font-family="Helvetica,sans-Serif" font-size="10.00" fill="#000000">* matchAddressInRange()</text>
</a>
</g>
</g>
<!-- Node13&#45;&gt;Node12 -->
<g id="edge14" class="edge">
<title>Node13&#45;&gt;Node12</title>
<path fill="none" stroke="#404040" d="M522.0961,-872.0257C521.9999,-840.2191 521.8987,-806.7805 521.8076,-776.6661"/>
<polygon fill="none" stroke="#404040" points="521.807,-776.421 517.7888,-770.4331 521.7706,-764.421 525.7887,-770.4089 521.807,-776.421"/>
<text text-anchor="middle" x="535.5" y="-840.5" font-family="Helvetica,sans-Serif" font-size="10.00" fill="#000000"> +data</text>
</g>
</g>
</svg>
