<?xml version="1.0" encoding="UTF-8" standalone="no"?>
<!DOCTYPE svg PUBLIC "-//W3C//DTD SVG 1.1//EN"
 "http://www.w3.org/Graphics/SVG/1.1/DTD/svg11.dtd">
<!-- Generated by graphviz version 2.43.0 (0)
 -->
<!-- Title: PluggableUSBMIDI::Reading Pages: 1 -->
<svg width="414pt" height="325pt"
 viewBox="0.00 0.00 414.00 325.00" xmlns="http://www.w3.org/2000/svg" xmlns:xlink="http://www.w3.org/1999/xlink">
<g id="graph0" class="graph" transform="scale(1 1) rotate(0) translate(4 321)">
<title>PluggableUSBMIDI::Reading</title>
<!-- Node1 -->
<g id="Node000001" class="node">
<title>Node1</title>
<g id="a_Node000001"><a xlink:title="State for reading incoming USB&#45;MIDI data.">
<polygon fill="#999999" stroke="transparent" points="221.5,-49 74.5,-49 74.5,0 221.5,0 221.5,-49"/>
<text text-anchor="start" x="80" y="-36.5" font-family="Helvetica,sans-Serif" font-size="10.00">PluggableUSBMIDI::Reading</text>
<text text-anchor="start" x="146.5" y="-21.5" font-family="Helvetica,sans-Serif" font-size="10.00"> </text>
<text text-anchor="start" x="146.5" y="-6.5" font-family="Helvetica,sans-Serif" font-size="10.00"> </text>
<polygon fill="#666666" stroke="#666666" points="75,-31.5 75,-31.5 222,-31.5 222,-31.5 75,-31.5"/>
<polygon fill="#666666" stroke="#666666" points="75,-16.5 75,-16.5 222,-16.5 222,-16.5 75,-16.5"/>
<polygon fill="none" stroke="#666666" points="74.5,0 74.5,-49 221.5,-49 221.5,0 74.5,0"/>
</a>
</g>
</g>
<!-- Node2 -->
<g id="Node000002" class="node">
<title>Node2</title>
<g id="a_Node000002"><a xlink:href="../../d8/d24/structPluggableUSBMIDI_1_1Reading_1_1Buffer.html" target="_top" xlink:title=" ">
<polygon fill="white" stroke="transparent" points="50,-257 0,-257 0,-178 50,-178 50,-257"/>
<text text-anchor="start" x="10" y="-244.5" font-family="Helvetica,sans-Serif" font-size="10.00">Buffer</text>
<text text-anchor="start" x="4" y="-229.5" font-family="Helvetica,sans-Serif" font-size="10.00">+</text>
<text text-anchor="start" x="17" y="-229.5" font-family="Helvetica,sans-Serif" font-size="10.00">size</text>
<text text-anchor="start" x="4" y="-214.5" font-family="Helvetica,sans-Serif" font-size="10.00">+</text>
<text text-anchor="start" x="17" y="-214.5" font-family="Helvetica,sans-Serif" font-size="10.00">index</text>
<text text-anchor="start" x="4" y="-199.5" font-family="Helvetica,sans-Serif" font-size="10.00">+</text>
<text text-anchor="start" x="17" y="-199.5" font-family="Helvetica,sans-Serif" font-size="10.00">buffer</text>
<text text-anchor="start" x="23" y="-184.5" font-family="Helvetica,sans-Serif" font-size="10.00"> </text>
<polygon fill="#666666" stroke="#666666" points="0,-239.5 0,-239.5 50,-239.5 50,-239.5 0,-239.5"/>
<polygon fill="#666666" stroke="#666666" points="0,-194.5 0,-194.5 15,-194.5 15,-194.5 0,-194.5"/>
<polygon fill="#666666" stroke="#666666" points="15,-194.5 15,-194.5 50,-194.5 50,-194.5 15,-194.5"/>
<polygon fill="none" stroke="#666666" points="0,-178 0,-257 50,-257 50,-178 0,-178"/>
</a>
</g>
</g>
<!-- Node2&#45;&gt;Node1 -->
<g id="edge1_Node000001_Node000002" class="edge">
<title>Node2&#45;&gt;Node1</title>
<g id="a_edge1_Node000001_Node000002"><a xlink:title=" ">
<path fill="none" stroke="#63b8ff" d="M35.19,-177.89C40.89,-159.21 48.9,-136.81 59,-118 72.49,-92.86 78.23,-87.58 98,-67 101.25,-63.62 104.76,-60.24 108.36,-56.96"/>
<polygon fill="none" stroke="#63b8ff" points="108.39,-56.94 110.26,-49.97 117.41,-49.03 115.54,-55.99 108.39,-56.94"/>
</a>
</g>
<text text-anchor="middle" x="121" y="-81" font-family="Helvetica,sans-Serif" font-size="10.00" fill="grey"> +buffers</text>
</g>
<!-- Node3 -->
<g id="Node000003" class="node">
<title>Node3</title>
<g id="a_Node000003"><a xlink:href="../../de/df5/classinterrupt__atomic.html" target="_top" xlink:title=" ">
<polygon fill="white" stroke="transparent" points="228,-317 68,-317 68,-118 228,-118 228,-317"/>
<text text-anchor="start" x="76" y="-304.5" font-family="Helvetica,sans-Serif" font-size="10.00">interrupt_atomic&lt; uint32_t &gt;</text>
<text text-anchor="start" x="74.5" y="-289.5" font-family="Helvetica,sans-Serif" font-size="10.00">&#45;</text>
<text text-anchor="start" x="85" y="-289.5" font-family="Helvetica,sans-Serif" font-size="10.00">value</text>
<text text-anchor="start" x="72" y="-274.5" font-family="Helvetica,sans-Serif" font-size="10.00">+</text>
<text text-anchor="start" x="85" y="-274.5" font-family="Helvetica,sans-Serif" font-size="10.00">interrupt_atomic()</text>
<text text-anchor="start" x="72" y="-259.5" font-family="Helvetica,sans-Serif" font-size="10.00">+</text>
<text text-anchor="start" x="85" y="-259.5" font-family="Helvetica,sans-Serif" font-size="10.00">interrupt_atomic()</text>
<text text-anchor="start" x="72" y="-244.5" font-family="Helvetica,sans-Serif" font-size="10.00">+</text>
<text text-anchor="start" x="85" y="-244.5" font-family="Helvetica,sans-Serif" font-size="10.00">load()</text>
<text text-anchor="start" x="72" y="-229.5" font-family="Helvetica,sans-Serif" font-size="10.00">+</text>
<text text-anchor="start" x="85" y="-229.5" font-family="Helvetica,sans-Serif" font-size="10.00">store()</text>
<text text-anchor="start" x="72" y="-214.5" font-family="Helvetica,sans-Serif" font-size="10.00">+</text>
<text text-anchor="start" x="85" y="-214.5" font-family="Helvetica,sans-Serif" font-size="10.00">exchange()</text>
<text text-anchor="start" x="72" y="-199.5" font-family="Helvetica,sans-Serif" font-size="10.00">+</text>
<text text-anchor="start" x="85" y="-199.5" font-family="Helvetica,sans-Serif" font-size="10.00">compare_exchange_strong()</text>
<text text-anchor="start" x="72" y="-184.5" font-family="Helvetica,sans-Serif" font-size="10.00">+</text>
<text text-anchor="start" x="85" y="-184.5" font-family="Helvetica,sans-Serif" font-size="10.00">compare_exchange_weak()</text>
<text text-anchor="start" x="72" y="-169.5" font-family="Helvetica,sans-Serif" font-size="10.00">+</text>
<text text-anchor="start" x="85" y="-169.5" font-family="Helvetica,sans-Serif" font-size="10.00">fetch_add()</text>
<text text-anchor="start" x="72" y="-154.5" font-family="Helvetica,sans-Serif" font-size="10.00">+</text>
<text text-anchor="start" x="85" y="-154.5" font-family="Helvetica,sans-Serif" font-size="10.00">fetch_sub()</text>
<text text-anchor="start" x="72" y="-139.5" font-family="Helvetica,sans-Serif" font-size="10.00">+</text>
<text text-anchor="start" x="85" y="-139.5" font-family="Helvetica,sans-Serif" font-size="10.00">after_load_fence()</text>
<text text-anchor="start" x="72" y="-124.5" font-family="Helvetica,sans-Serif" font-size="10.00">+</text>
<text text-anchor="start" x="85" y="-124.5" font-family="Helvetica,sans-Serif" font-size="10.00">before_store_fence()</text>
<polygon fill="#666666" stroke="#666666" points="68,-299.5 68,-299.5 228,-299.5 228,-299.5 68,-299.5"/>
<polygon fill="#666666" stroke="#666666" points="68,-284.5 68,-284.5 83,-284.5 83,-284.5 68,-284.5"/>
<polygon fill="#666666" stroke="#666666" points="83,-284.5 83,-284.5 228,-284.5 228,-284.5 83,-284.5"/>
<polygon fill="none" stroke="#666666" points="68,-118 68,-317 228,-317 228,-118 68,-118"/>
</a>
</g>
</g>
<!-- Node3&#45;&gt;Node1 -->
<g id="edge2_Node000001_Node000003" class="edge">
<title>Node3&#45;&gt;Node1</title>
<g id="a_edge2_Node000001_Node000003"><a xlink:title=" ">
<path fill="none" stroke="#63b8ff" d="M148,-117.92C148,-97.63 148,-77.51 148,-61.26"/>
<polygon fill="none" stroke="#63b8ff" points="148,-61.12 144,-55.12 148,-49.12 152,-55.12 148,-61.12"/>
</a>
</g>
<text text-anchor="middle" x="176.5" y="-92" font-family="Helvetica,sans-Serif" font-size="10.00" fill="grey"> +available</text>
<text text-anchor="middle" x="176.5" y="-81" font-family="Helvetica,sans-Serif" font-size="10.00" fill="grey">+read_idx</text>
<text text-anchor="middle" x="176.5" y="-70" font-family="Helvetica,sans-Serif" font-size="10.00" fill="grey">+write_idx</text>
</g>
<!-- Node4 -->
<g id="Node000004" class="node">
<title>Node4</title>
<g id="a_Node000004"><a xlink:href="../../de/df5/classinterrupt__atomic.html" target="_top" xlink:title=" ">
<polygon fill="white" stroke="transparent" points="406,-317 246,-317 246,-118 406,-118 406,-317"/>
<text text-anchor="start" x="263.5" y="-304.5" font-family="Helvetica,sans-Serif" font-size="10.00">interrupt_atomic&lt; bool &gt;</text>
<text text-anchor="start" x="252.5" y="-289.5" font-family="Helvetica,sans-Serif" font-size="10.00">&#45;</text>
<text text-anchor="start" x="263" y="-289.5" font-family="Helvetica,sans-Serif" font-size="10.00">value</text>
<text text-anchor="start" x="250" y="-274.5" font-family="Helvetica,sans-Serif" font-size="10.00">+</text>
<text text-anchor="start" x="263" y="-274.5" font-family="Helvetica,sans-Serif" font-size="10.00">interrupt_atomic()</text>
<text text-anchor="start" x="250" y="-259.5" font-family="Helvetica,sans-Serif" font-size="10.00">+</text>
<text text-anchor="start" x="263" y="-259.5" font-family="Helvetica,sans-Serif" font-size="10.00">interrupt_atomic()</text>
<text text-anchor="start" x="250" y="-244.5" font-family="Helvetica,sans-Serif" font-size="10.00">+</text>
<text text-anchor="start" x="263" y="-244.5" font-family="Helvetica,sans-Serif" font-size="10.00">load()</text>
<text text-anchor="start" x="250" y="-229.5" font-family="Helvetica,sans-Serif" font-size="10.00">+</text>
<text text-anchor="start" x="263" y="-229.5" font-family="Helvetica,sans-Serif" font-size="10.00">store()</text>
<text text-anchor="start" x="250" y="-214.5" font-family="Helvetica,sans-Serif" font-size="10.00">+</text>
<text text-anchor="start" x="263" y="-214.5" font-family="Helvetica,sans-Serif" font-size="10.00">exchange()</text>
<text text-anchor="start" x="250" y="-199.5" font-family="Helvetica,sans-Serif" font-size="10.00">+</text>
<text text-anchor="start" x="263" y="-199.5" font-family="Helvetica,sans-Serif" font-size="10.00">compare_exchange_strong()</text>
<text text-anchor="start" x="250" y="-184.5" font-family="Helvetica,sans-Serif" font-size="10.00">+</text>
<text text-anchor="start" x="263" y="-184.5" font-family="Helvetica,sans-Serif" font-size="10.00">compare_exchange_weak()</text>
<text text-anchor="start" x="250" y="-169.5" font-family="Helvetica,sans-Serif" font-size="10.00">+</text>
<text text-anchor="start" x="263" y="-169.5" font-family="Helvetica,sans-Serif" font-size="10.00">fetch_add()</text>
<text text-anchor="start" x="250" y="-154.5" font-family="Helvetica,sans-Serif" font-size="10.00">+</text>
<text text-anchor="start" x="263" y="-154.5" font-family="Helvetica,sans-Serif" font-size="10.00">fetch_sub()</text>
<text text-anchor="start" x="250" y="-139.5" font-family="Helvetica,sans-Serif" font-size="10.00">+</text>
<text text-anchor="start" x="263" y="-139.5" font-family="Helvetica,sans-Serif" font-size="10.00">after_load_fence()</text>
<text text-anchor="start" x="250" y="-124.5" font-family="Helvetica,sans-Serif" font-size="10.00">+</text>
<text text-anchor="start" x="263" y="-124.5" font-family="Helvetica,sans-Serif" font-size="10.00">before_store_fence()</text>
<polygon fill="#666666" stroke="#666666" points="246,-299.5 246,-299.5 406,-299.5 406,-299.5 246,-299.5"/>
<polygon fill="#666666" stroke="#666666" points="246,-284.5 246,-284.5 261,-284.5 261,-284.5 246,-284.5"/>
<polygon fill="#666666" stroke="#666666" points="261,-284.5 261,-284.5 406,-284.5 406,-284.5 261,-284.5"/>
<polygon fill="none" stroke="#666666" points="246,-118 246,-317 406,-317 406,-118 246,-118"/>
</a>
</g>
</g>
<!-- Node4&#45;&gt;Node1 -->
<g id="edge3_Node000001_Node000004" class="edge">
<title>Node4&#45;&gt;Node1</title>
<g id="a_edge3_Node000001_Node000004"><a xlink:title=" ">
<path fill="none" stroke="#63b8ff" d="M255.86,-117.81C241.29,-100.04 225.37,-82.31 209,-67 205.05,-63.31 200.75,-59.7 196.31,-56.26"/>
<polygon fill="none" stroke="#63b8ff" points="196.14,-56.13 188.93,-55.79 186.48,-49.01 193.68,-49.35 196.14,-56.13"/>
</a>
</g>
<text text-anchor="middle" x="261.5" y="-81" font-family="Helvetica,sans-Serif" font-size="10.00" fill="grey"> +reading</text>
</g>
</g>
</svg>
