<?xml version="1.0" encoding="UTF-8" standalone="no"?>
<!DOCTYPE svg PUBLIC "-//W3C//DTD SVG 1.1//EN"
 "http://www.w3.org/Graphics/SVG/1.1/DTD/svg11.dtd">
<!-- Generated by graphviz version 2.40.1 (20161225.0304)
 -->
<!-- Title: GenericVPotRing&lt; Callback &gt; Pages: 1 -->
<svg width="313pt" height="645pt"
 viewBox="0.00 0.00 312.50 645.00" xmlns="http://www.w3.org/2000/svg" xmlns:xlink="http://www.w3.org/1999/xlink">
<g id="graph0" class="graph" transform="scale(1 1) rotate(0) translate(4 641)">
<title>GenericVPotRing&lt; Callback &gt;</title>
<polygon fill="#ffffff" stroke="transparent" points="-4,4 -4,-641 308.5,-641 308.5,4 -4,4"/>
<!-- Node1 -->
<g id="node1" class="node">
<title>Node1</title>
<g id="a_node1"><a xlink:title="A class for MIDI input elements that represent Mackie Control Universal V&#45;Pots.">
<polygon fill="#bfbfbf" stroke="#000000" points="120,-.5 120,-57.5 269,-57.5 269,-.5 120,-.5"/>
<text text-anchor="middle" x="194.5" y="-45.5" font-family="Helvetica,sans-Serif" font-size="10.00" fill="#000000">GenericVPotRing&lt; Callback &gt;</text>
<polyline fill="none" stroke="#000000" points="120,-38.5 269,-38.5 "/>
<text text-anchor="middle" x="194.5" y="-26.5" font-family="Helvetica,sans-Serif" font-size="10.00" fill="#000000"> </text>
<polyline fill="none" stroke="#000000" points="120,-19.5 269,-19.5 "/>
<text text-anchor="start" x="128" y="-7.5" font-family="Helvetica,sans-Serif" font-size="10.00" fill="#000000">+ GenericVPotRing()</text>
</a>
</g>
</g>
<!-- Node2 -->
<g id="node2" class="node">
<title>Node2</title>
<g id="a_node2"><a xlink:href="../../db/dac/classMCU_1_1VPotRing__Base.html" target="_top" xlink:title=" ">
<polygon fill="#ffffff" stroke="#000000" points="116,-94.5 116,-250.5 273,-250.5 273,-94.5 116,-94.5"/>
<text text-anchor="start" x="124" y="-238.5" font-family="Helvetica,sans-Serif" font-size="10.00" fill="#000000">VPotRing_Base&lt; 1, VPotEmpty</text>
<text text-anchor="middle" x="194.5" y="-227.5" font-family="Helvetica,sans-Serif" font-size="10.00" fill="#000000">Callback &gt;</text>
<polyline fill="none" stroke="#000000" points="116,-220.5 273,-220.5 "/>
<text text-anchor="start" x="124" y="-208.5" font-family="Helvetica,sans-Serif" font-size="10.00" fill="#000000">+ callback</text>
<text text-anchor="start" x="124" y="-197.5" font-family="Helvetica,sans-Serif" font-size="10.00" fill="#000000">&#45; values</text>
<polyline fill="none" stroke="#000000" points="116,-190.5 273,-190.5 "/>
<text text-anchor="start" x="124" y="-178.5" font-family="Helvetica,sans-Serif" font-size="10.00" fill="#000000">+ begin()</text>
<text text-anchor="start" x="124" y="-167.5" font-family="Helvetica,sans-Serif" font-size="10.00" fill="#000000">+ reset()</text>
<text text-anchor="start" x="124" y="-156.5" font-family="Helvetica,sans-Serif" font-size="10.00" fill="#000000"># VPotRing_Base()</text>
<text text-anchor="start" x="124" y="-145.5" font-family="Helvetica,sans-Serif" font-size="10.00" fill="#000000"># sanitizeValue()</text>
<text text-anchor="start" x="124" y="-134.5" font-family="Helvetica,sans-Serif" font-size="10.00" fill="#000000">&#45; updateImpl()</text>
<text text-anchor="start" x="124" y="-123.5" font-family="Helvetica,sans-Serif" font-size="10.00" fill="#000000">&#45; getValue()</text>
<text text-anchor="start" x="124" y="-112.5" font-family="Helvetica,sans-Serif" font-size="10.00" fill="#000000">&#45; getSelection()</text>
<text text-anchor="start" x="124" y="-101.5" font-family="Helvetica,sans-Serif" font-size="10.00" fill="#000000">&#45; getBankIndex()</text>
</a>
</g>
</g>
<!-- Node2&#45;&gt;Node1 -->
<g id="edge1" class="edge">
<title>Node2&#45;&gt;Node1</title>
<path fill="none" stroke="#191970" d="M194.5,-84.3697C194.5,-74.8088 194.5,-65.6578 194.5,-57.6461"/>
<polygon fill="none" stroke="#191970" points="191.0001,-84.451 194.5,-94.4511 198.0001,-84.4511 191.0001,-84.451"/>
</g>
<!-- Node3 -->
<g id="node3" class="node">
<title>Node3</title>
<g id="a_node3"><a xlink:href="../../d3/d96/classMIDIInputElementCC.html" target="_top" xlink:title="Class for objects that listen for incoming MIDI Controller Change events.">
<polygon fill="#ffffff" stroke="#000000" points="64.5,-304 64.5,-427 196.5,-427 196.5,-304 64.5,-304"/>
<text text-anchor="middle" x="130.5" y="-415" font-family="Helvetica,sans-Serif" font-size="10.00" fill="#000000">MIDIInputElementCC</text>
<polyline fill="none" stroke="#000000" points="64.5,-408 196.5,-408 "/>
<text text-anchor="start" x="72.5" y="-396" font-family="Helvetica,sans-Serif" font-size="10.00" fill="#000000">&#45; elements</text>
<polyline fill="none" stroke="#000000" points="64.5,-389 196.5,-389 "/>
<text text-anchor="start" x="72.5" y="-377" font-family="Helvetica,sans-Serif" font-size="10.00" fill="#000000">+ MIDIInputElementCC()</text>
<text text-anchor="start" x="72.5" y="-366" font-family="Helvetica,sans-Serif" font-size="10.00" fill="#000000">+ ~MIDIInputElementCC()</text>
<text text-anchor="start" x="72.5" y="-355" font-family="Helvetica,sans-Serif" font-size="10.00" fill="#000000">+ beginAll()</text>
<text text-anchor="start" x="72.5" y="-344" font-family="Helvetica,sans-Serif" font-size="10.00" fill="#000000">+ updateAll()</text>
<text text-anchor="start" x="72.5" y="-333" font-family="Helvetica,sans-Serif" font-size="10.00" fill="#000000">+ resetAll()</text>
<text text-anchor="start" x="72.5" y="-322" font-family="Helvetica,sans-Serif" font-size="10.00" fill="#000000">+ updateAllWith()</text>
<text text-anchor="start" x="72.5" y="-311" font-family="Helvetica,sans-Serif" font-size="10.00" fill="#000000">&#45; moveDown()</text>
</a>
</g>
</g>
<!-- Node3&#45;&gt;Node2 -->
<g id="edge2" class="edge">
<title>Node3&#45;&gt;Node2</title>
<path fill="none" stroke="#191970" d="M154.1264,-294.2515C158.8168,-280.1071 163.7653,-265.1842 168.5289,-250.819"/>
<polygon fill="none" stroke="#191970" points="150.7514,-293.3096 150.926,-303.903 157.3957,-295.5129 150.7514,-293.3096"/>
</g>
<!-- Node4 -->
<g id="node4" class="node">
<title>Node4</title>
<g id="a_node4"><a xlink:href="../../d9/db1/classMIDIInputElement.html" target="_top" xlink:title="A class for objects that listen for incoming MIDI events.">
<polygon fill="#ffffff" stroke="#000000" points="0,-480.5 0,-636.5 117,-636.5 117,-480.5 0,-480.5"/>
<text text-anchor="middle" x="58.5" y="-624.5" font-family="Helvetica,sans-Serif" font-size="10.00" fill="#000000">MIDIInputElement</text>
<polyline fill="none" stroke="#000000" points="0,-617.5 117,-617.5 "/>
<text text-anchor="start" x="8" y="-605.5" font-family="Helvetica,sans-Serif" font-size="10.00" fill="#000000"># address</text>
<polyline fill="none" stroke="#000000" points="0,-598.5 117,-598.5 "/>
<text text-anchor="start" x="8" y="-586.5" font-family="Helvetica,sans-Serif" font-size="10.00" fill="#000000">+ ~MIDIInputElement()</text>
<text text-anchor="start" x="8" y="-575.5" font-family="Helvetica,sans-Serif" font-size="10.00" fill="#000000">+ begin()</text>
<text text-anchor="start" x="8" y="-564.5" font-family="Helvetica,sans-Serif" font-size="10.00" fill="#000000">+ reset()</text>
<text text-anchor="start" x="8" y="-553.5" font-family="Helvetica,sans-Serif" font-size="10.00" fill="#000000">+ update()</text>
<text text-anchor="start" x="8" y="-542.5" font-family="Helvetica,sans-Serif" font-size="10.00" fill="#000000">+ updateWith()</text>
<text text-anchor="start" x="8" y="-531.5" font-family="Helvetica,sans-Serif" font-size="10.00" fill="#000000"># MIDIInputElement()</text>
<text text-anchor="start" x="8" y="-520.5" font-family="Helvetica,sans-Serif" font-size="10.00" fill="#000000"># MIDIInputElement()</text>
<text text-anchor="start" x="8" y="-509.5" font-family="Helvetica,sans-Serif" font-size="10.00" fill="#000000">&#45; updateImpl()</text>
<text text-anchor="start" x="8" y="-498.5" font-family="Helvetica,sans-Serif" font-size="10.00" fill="#000000">&#45; getTarget()</text>
<text text-anchor="start" x="8" y="-487.5" font-family="Helvetica,sans-Serif" font-size="10.00" fill="#000000">&#45; match()</text>
</a>
</g>
</g>
<!-- Node4&#45;&gt;Node3 -->
<g id="edge3" class="edge">
<title>Node4&#45;&gt;Node3</title>
<path fill="none" stroke="#191970" d="M91.2578,-470.6908C96.7305,-456.0209 102.304,-441.0809 107.4668,-427.2418"/>
<polygon fill="none" stroke="#191970" points="87.8974,-469.6851 87.6814,-480.2777 94.4559,-472.1318 87.8974,-469.6851"/>
</g>
<!-- Node5 -->
<g id="node5" class="node">
<title>Node5</title>
<g id="a_node5"><a xlink:href="../../d4/d23/classDoublyLinkable.html" target="_top" xlink:title=" ">
<polygon fill="#ffffff" stroke="#000000" points="135.5,-519 135.5,-598 271.5,-598 271.5,-519 135.5,-519"/>
<text text-anchor="start" x="143.5" y="-586" font-family="Helvetica,sans-Serif" font-size="10.00" fill="#000000">DoublyLinkable&lt; MIDIInput</text>
<text text-anchor="middle" x="203.5" y="-575" font-family="Helvetica,sans-Serif" font-size="10.00" fill="#000000">ElementCC &gt;</text>
<polyline fill="none" stroke="#000000" points="135.5,-568 271.5,-568 "/>
<text text-anchor="start" x="143.5" y="-556" font-family="Helvetica,sans-Serif" font-size="10.00" fill="#000000"># next</text>
<text text-anchor="start" x="143.5" y="-545" font-family="Helvetica,sans-Serif" font-size="10.00" fill="#000000"># previous</text>
<polyline fill="none" stroke="#000000" points="135.5,-538 271.5,-538 "/>
<text text-anchor="start" x="143.5" y="-526" font-family="Helvetica,sans-Serif" font-size="10.00" fill="#000000"># ~DoublyLinkable()</text>
</a>
</g>
</g>
<!-- Node5&#45;&gt;Node3 -->
<g id="edge4" class="edge">
<title>Node5&#45;&gt;Node3</title>
<path fill="none" stroke="#191970" d="M184.9014,-509.3285C175.4312,-484.2907 163.824,-453.6031 153.767,-427.0141"/>
<polygon fill="none" stroke="#191970" points="181.7397,-510.8628 188.5512,-518.9778 188.287,-508.3863 181.7397,-510.8628"/>
</g>
<!-- Node6 -->
<g id="node6" class="node">
<title>Node6</title>
<g id="a_node6"><a xlink:href="../../da/d50/classMCU_1_1IVPotRing.html" target="_top" xlink:title=" ">
<polygon fill="#ffffff" stroke="#000000" points="214.5,-287.5 214.5,-443.5 304.5,-443.5 304.5,-287.5 214.5,-287.5"/>
<text text-anchor="middle" x="259.5" y="-431.5" font-family="Helvetica,sans-Serif" font-size="10.00" fill="#000000">IVPotRing</text>
<polyline fill="none" stroke="#000000" points="214.5,-424.5 304.5,-424.5 "/>
<text text-anchor="middle" x="259.5" y="-412.5" font-family="Helvetica,sans-Serif" font-size="10.00" fill="#000000"> </text>
<polyline fill="none" stroke="#000000" points="214.5,-405.5 304.5,-405.5 "/>
<text text-anchor="start" x="222.5" y="-393.5" font-family="Helvetica,sans-Serif" font-size="10.00" fill="#000000">+ getPosition()</text>
<text text-anchor="start" x="222.5" y="-382.5" font-family="Helvetica,sans-Serif" font-size="10.00" fill="#000000">+ getCenterLed()</text>
<text text-anchor="start" x="222.5" y="-371.5" font-family="Helvetica,sans-Serif" font-size="10.00" fill="#000000">+ getMode()</text>
<text text-anchor="start" x="222.5" y="-360.5" font-family="Helvetica,sans-Serif" font-size="10.00" fill="#000000">+ getStartOn()</text>
<text text-anchor="start" x="222.5" y="-349.5" font-family="Helvetica,sans-Serif" font-size="10.00" fill="#000000">+ getStartOff()</text>
<text text-anchor="start" x="222.5" y="-338.5" font-family="Helvetica,sans-Serif" font-size="10.00" fill="#000000"># IVPotRing()</text>
<text text-anchor="start" x="222.5" y="-327.5" font-family="Helvetica,sans-Serif" font-size="10.00" fill="#000000">&#45; getValue()</text>
<text text-anchor="start" x="222.5" y="-316.5" font-family="Helvetica,sans-Serif" font-size="10.00" fill="#000000">&#45; getPosition()</text>
<text text-anchor="start" x="222.5" y="-305.5" font-family="Helvetica,sans-Serif" font-size="10.00" fill="#000000">&#45; getCenterLed()</text>
<text text-anchor="start" x="222.5" y="-294.5" font-family="Helvetica,sans-Serif" font-size="10.00" fill="#000000">&#45; getMode()</text>
</a>
</g>
</g>
<!-- Node6&#45;&gt;Node2 -->
<g id="edge5" class="edge">
<title>Node6&#45;&gt;Node2</title>
<path fill="none" stroke="#191970" d="M229.8793,-277.5494C226.843,-268.534 223.773,-259.4182 220.7762,-250.5202"/>
<polygon fill="none" stroke="#191970" points="226.647,-278.9179 233.1557,-287.2777 233.2809,-276.6836 226.647,-278.9179"/>
</g>
</g>
</svg>
