<?xml version="1.0" encoding="UTF-8" standalone="no"?>
<!DOCTYPE svg PUBLIC "-//W3C//DTD SVG 1.1//EN"
 "http://www.w3.org/Graphics/SVG/1.1/DTD/svg11.dtd">
<!-- Generated by graphviz version 2.43.0 (0)
 -->
<!-- Title: ProgramChangeSelectorLEDs&lt; N &gt; Pages: 1 -->
<svg width="537pt" height="1013pt"
 viewBox="0.00 0.00 536.50 1013.00" xmlns="http://www.w3.org/2000/svg" xmlns:xlink="http://www.w3.org/1999/xlink">
<g id="graph0" class="graph" transform="scale(1 1) rotate(0) translate(4 1009)">
<title>ProgramChangeSelectorLEDs&lt; N &gt;</title>
<polygon fill="white" stroke="transparent" points="-4,4 -4,-1009 532.5,-1009 532.5,4 -4,4"/>
<!-- Node1 -->
<g id="node1" class="node">
<title>Node1</title>
<g id="a_node1"><a xlink:title="Selector that listens for MIDI Program Change events on a given MIDI Channel, and uses the program nu...">
<polygon fill="#bfbfbf" stroke="black" points="182.5,-0.5 182.5,-57.5 370.5,-57.5 370.5,-0.5 182.5,-0.5"/>
<text text-anchor="middle" x="276.5" y="-45.5" font-family="Helvetica,sans-Serif" font-size="10.00">ProgramChangeSelectorLEDs&lt; N &gt;</text>
<polyline fill="none" stroke="black" points="182.5,-38.5 370.5,-38.5 "/>
<text text-anchor="middle" x="276.5" y="-26.5" font-family="Helvetica,sans-Serif" font-size="10.00"> </text>
<polyline fill="none" stroke="black" points="182.5,-19.5 370.5,-19.5 "/>
<text text-anchor="start" x="190.5" y="-7.5" font-family="Helvetica,sans-Serif" font-size="10.00">+ ProgramChangeSelectorLEDs()</text>
</a>
</g>
</g>
<!-- Node2 -->
<g id="node2" class="node">
<title>Node2</title>
<g id="a_node2"><a xlink:href="../../d1/d0b/classGenericProgramChangeSelector.html" target="_top" xlink:title=" ">
<polygon fill="white" stroke="black" points="181,-95.5 181,-196.5 372,-196.5 372,-95.5 181,-95.5"/>
<text text-anchor="start" x="189" y="-184.5" font-family="Helvetica,sans-Serif" font-size="10.00">GenericProgramChangeSelector</text>
<text text-anchor="middle" x="276.5" y="-173.5" font-family="Helvetica,sans-Serif" font-size="10.00">&lt; N, SelectorLEDsCallback&lt; N &gt; &gt;</text>
<polyline fill="none" stroke="black" points="181,-166.5 372,-166.5 "/>
<text text-anchor="middle" x="276.5" y="-154.5" font-family="Helvetica,sans-Serif" font-size="10.00"> </text>
<polyline fill="none" stroke="black" points="181,-147.5 372,-147.5 "/>
<text text-anchor="start" x="189" y="-135.5" font-family="Helvetica,sans-Serif" font-size="10.00">+ GenericProgramChangeSelector()</text>
<text text-anchor="start" x="189" y="-124.5" font-family="Helvetica,sans-Serif" font-size="10.00">+ begin()</text>
<text text-anchor="start" x="189" y="-113.5" font-family="Helvetica,sans-Serif" font-size="10.00">+ reset()</text>
<text text-anchor="start" x="189" y="-102.5" font-family="Helvetica,sans-Serif" font-size="10.00">+ handleUpdate()</text>
</a>
</g>
</g>
<!-- Node2&#45;&gt;Node1 -->
<g id="edge1" class="edge">
<title>Node2&#45;&gt;Node1</title>
<path fill="none" stroke="midnightblue" d="M276.5,-85.22C276.5,-75.59 276.5,-66.06 276.5,-57.68"/>
<polygon fill="none" stroke="midnightblue" points="273,-85.23 276.5,-95.23 280,-85.23 273,-85.23"/>
</g>
<!-- Node3 -->
<g id="node3" class="node">
<title>Node3</title>
<g id="a_node3"><a xlink:href="../../d0/d04/classGenericSelector.html" target="_top" xlink:title=" ">
<polygon fill="white" stroke="black" points="134.5,-234.5 134.5,-368.5 250.5,-368.5 250.5,-234.5 134.5,-234.5"/>
<text text-anchor="start" x="142.5" y="-356.5" font-family="Helvetica,sans-Serif" font-size="10.00">GenericSelector&lt; N,</text>
<text text-anchor="middle" x="192.5" y="-345.5" font-family="Helvetica,sans-Serif" font-size="10.00"> Callback &gt;</text>
<polyline fill="none" stroke="black" points="134.5,-338.5 250.5,-338.5 "/>
<text text-anchor="start" x="142.5" y="-326.5" font-family="Helvetica,sans-Serif" font-size="10.00">&#45; selectable</text>
<polyline fill="none" stroke="black" points="134.5,-319.5 250.5,-319.5 "/>
<text text-anchor="start" x="142.5" y="-307.5" font-family="Helvetica,sans-Serif" font-size="10.00">+ GenericSelector()</text>
<text text-anchor="start" x="142.5" y="-296.5" font-family="Helvetica,sans-Serif" font-size="10.00">+ begin()</text>
<text text-anchor="start" x="142.5" y="-285.5" font-family="Helvetica,sans-Serif" font-size="10.00">+ update()</text>
<text text-anchor="start" x="142.5" y="-274.5" font-family="Helvetica,sans-Serif" font-size="10.00">+ reset()</text>
<text text-anchor="start" x="142.5" y="-263.5" font-family="Helvetica,sans-Serif" font-size="10.00">+ set()</text>
<text text-anchor="start" x="142.5" y="-252.5" font-family="Helvetica,sans-Serif" font-size="10.00">+ increment()</text>
<text text-anchor="start" x="142.5" y="-241.5" font-family="Helvetica,sans-Serif" font-size="10.00">+ decrement()</text>
</a>
</g>
</g>
<!-- Node3&#45;&gt;Node2 -->
<g id="edge2" class="edge">
<title>Node3&#45;&gt;Node2</title>
<path fill="none" stroke="midnightblue" d="M233.68,-225.25C238.95,-215.62 244.24,-205.96 249.21,-196.87"/>
<polygon fill="none" stroke="midnightblue" points="230.59,-223.61 228.86,-234.07 236.73,-226.97 230.59,-223.61"/>
</g>
<!-- Node4 -->
<g id="node4" class="node">
<title>Node4</title>
<g id="a_node4"><a xlink:href="../../dc/d77/classSelectorBase.html" target="_top" xlink:title="Base class for all Selectors exposing the get method, so it can be used by display elements etc,...">
<polygon fill="white" stroke="black" points="0,-460.5 0,-528.5 99,-528.5 99,-460.5 0,-460.5"/>
<text text-anchor="middle" x="49.5" y="-516.5" font-family="Helvetica,sans-Serif" font-size="10.00">SelectorBase</text>
<polyline fill="none" stroke="black" points="0,-509.5 99,-509.5 "/>
<text text-anchor="start" x="8" y="-497.5" font-family="Helvetica,sans-Serif" font-size="10.00"># setting</text>
<polyline fill="none" stroke="black" points="0,-490.5 99,-490.5 "/>
<text text-anchor="start" x="8" y="-478.5" font-family="Helvetica,sans-Serif" font-size="10.00">+ get()</text>
<text text-anchor="start" x="8" y="-467.5" font-family="Helvetica,sans-Serif" font-size="10.00"># SelectorBase()</text>
</a>
</g>
</g>
<!-- Node4&#45;&gt;Node3 -->
<g id="edge3" class="edge">
<title>Node4&#45;&gt;Node3</title>
<path fill="none" stroke="midnightblue" d="M80.63,-451.92C98.86,-427.57 122.3,-396.26 143.01,-368.6"/>
<polygon fill="none" stroke="midnightblue" points="77.6,-450.13 74.41,-460.23 83.2,-454.32 77.6,-450.13"/>
</g>
<!-- Node5 -->
<g id="node5" class="node">
<title>Node5</title>
<g id="a_node5"><a xlink:href="../../d1/d55/classAH_1_1Updatable.html" target="_top" xlink:title="A super class for object that have to be updated regularly.">
<polygon fill="white" stroke="black" points="117,-449.5 117,-539.5 212,-539.5 212,-449.5 117,-449.5"/>
<text text-anchor="middle" x="164.5" y="-527.5" font-family="Helvetica,sans-Serif" font-size="10.00">Updatable&lt; T &gt;</text>
<polyline fill="none" stroke="black" points="117,-520.5 212,-520.5 "/>
<text text-anchor="middle" x="164.5" y="-508.5" font-family="Helvetica,sans-Serif" font-size="10.00"> </text>
<polyline fill="none" stroke="black" points="117,-501.5 212,-501.5 "/>
<text text-anchor="start" x="125" y="-489.5" font-family="Helvetica,sans-Serif" font-size="10.00">* begin()</text>
<text text-anchor="start" x="125" y="-478.5" font-family="Helvetica,sans-Serif" font-size="10.00">* update()</text>
<text text-anchor="start" x="125" y="-467.5" font-family="Helvetica,sans-Serif" font-size="10.00">* beginAll()</text>
<text text-anchor="start" x="125" y="-456.5" font-family="Helvetica,sans-Serif" font-size="10.00">* updateAll()</text>
</a>
</g>
</g>
<!-- Node5&#45;&gt;Node3 -->
<g id="edge4" class="edge">
<title>Node5&#45;&gt;Node3</title>
<path fill="none" stroke="midnightblue" d="M172.48,-439.08C175.69,-417.15 179.43,-391.65 182.8,-368.67"/>
<polygon fill="none" stroke="midnightblue" points="168.98,-438.8 170.99,-449.2 175.91,-439.81 168.98,-438.8"/>
</g>
<!-- Node6 -->
<g id="node6" class="node">
<title>Node6</title>
<g id="a_node6"><a xlink:href="../../d8/d1a/classAH_1_1UpdatableCRTP.html" target="_top" xlink:title=" ">
<polygon fill="white" stroke="black" points="88,-610.5 88,-843.5 241,-843.5 241,-610.5 88,-610.5"/>
<text text-anchor="start" x="96" y="-831.5" font-family="Helvetica,sans-Serif" font-size="10.00">UpdatableCRTP&lt; Updatable</text>
<text text-anchor="middle" x="164.5" y="-820.5" font-family="Helvetica,sans-Serif" font-size="10.00">&lt; NormalUpdatable &gt; &gt;</text>
<polyline fill="none" stroke="black" points="88,-813.5 241,-813.5 "/>
<text text-anchor="start" x="96" y="-801.5" font-family="Helvetica,sans-Serif" font-size="10.00"># updatables</text>
<polyline fill="none" stroke="black" points="88,-794.5 241,-794.5 "/>
<text text-anchor="start" x="96" y="-782.5" font-family="Helvetica,sans-Serif" font-size="10.00">+ ~UpdatableCRTP()</text>
<text text-anchor="start" x="96" y="-771.5" font-family="Helvetica,sans-Serif" font-size="10.00"># UpdatableCRTP()</text>
<text text-anchor="start" x="96" y="-760.5" font-family="Helvetica,sans-Serif" font-size="10.00"># UpdatableCRTP()</text>
<text text-anchor="start" x="96" y="-749.5" font-family="Helvetica,sans-Serif" font-size="10.00"># UpdatableCRTP()</text>
<text text-anchor="start" x="96" y="-738.5" font-family="Helvetica,sans-Serif" font-size="10.00"># operator=()</text>
<text text-anchor="start" x="96" y="-727.5" font-family="Helvetica,sans-Serif" font-size="10.00"># operator=()</text>
<text text-anchor="start" x="96" y="-716.5" font-family="Helvetica,sans-Serif" font-size="10.00">* enable()</text>
<text text-anchor="start" x="96" y="-705.5" font-family="Helvetica,sans-Serif" font-size="10.00">* disable()</text>
<text text-anchor="start" x="96" y="-694.5" font-family="Helvetica,sans-Serif" font-size="10.00">* isEnabled()</text>
<text text-anchor="start" x="96" y="-683.5" font-family="Helvetica,sans-Serif" font-size="10.00">* moveDown()</text>
<text text-anchor="start" x="96" y="-672.5" font-family="Helvetica,sans-Serif" font-size="10.00">* enable()</text>
<text text-anchor="start" x="96" y="-661.5" font-family="Helvetica,sans-Serif" font-size="10.00">* enable()</text>
<text text-anchor="start" x="96" y="-650.5" font-family="Helvetica,sans-Serif" font-size="10.00">* enable()</text>
<text text-anchor="start" x="96" y="-639.5" font-family="Helvetica,sans-Serif" font-size="10.00">* disable()</text>
<text text-anchor="start" x="96" y="-628.5" font-family="Helvetica,sans-Serif" font-size="10.00">* disable()</text>
<text text-anchor="start" x="96" y="-617.5" font-family="Helvetica,sans-Serif" font-size="10.00">* disable()</text>
</a>
</g>
</g>
<!-- Node6&#45;&gt;Node5 -->
<g id="edge5" class="edge">
<title>Node6&#45;&gt;Node5</title>
<path fill="none" stroke="midnightblue" d="M164.5,-600.35C164.5,-578.52 164.5,-557.18 164.5,-539.52"/>
<polygon fill="none" stroke="midnightblue" points="161,-600.41 164.5,-610.41 168,-600.41 161,-600.41"/>
</g>
<!-- Node7 -->
<g id="node7" class="node">
<title>Node7</title>
<g id="a_node7"><a xlink:href="../../d4/d23/classDoublyLinkable.html" target="_top" xlink:title="A class that can be inherited from to allow inserting into a DoublyLinkedList.">
<polygon fill="white" stroke="black" points="94.5,-881.5 94.5,-1004.5 234.5,-1004.5 234.5,-881.5 94.5,-881.5"/>
<text text-anchor="middle" x="164.5" y="-992.5" font-family="Helvetica,sans-Serif" font-size="10.00">DoublyLinkable&lt; Node &gt;</text>
<polyline fill="none" stroke="black" points="94.5,-985.5 234.5,-985.5 "/>
<text text-anchor="start" x="102.5" y="-973.5" font-family="Helvetica,sans-Serif" font-size="10.00"># next</text>
<text text-anchor="start" x="102.5" y="-962.5" font-family="Helvetica,sans-Serif" font-size="10.00"># previous</text>
<polyline fill="none" stroke="black" points="94.5,-955.5 234.5,-955.5 "/>
<text text-anchor="start" x="102.5" y="-943.5" font-family="Helvetica,sans-Serif" font-size="10.00"># ~DoublyLinkable()</text>
<text text-anchor="start" x="102.5" y="-932.5" font-family="Helvetica,sans-Serif" font-size="10.00"># DoublyLinkable()</text>
<text text-anchor="start" x="102.5" y="-921.5" font-family="Helvetica,sans-Serif" font-size="10.00"># DoublyLinkable()</text>
<text text-anchor="start" x="102.5" y="-910.5" font-family="Helvetica,sans-Serif" font-size="10.00"># operator=()</text>
<text text-anchor="start" x="102.5" y="-899.5" font-family="Helvetica,sans-Serif" font-size="10.00"># DoublyLinkable()</text>
<text text-anchor="start" x="102.5" y="-888.5" font-family="Helvetica,sans-Serif" font-size="10.00"># operator=()</text>
</a>
</g>
</g>
<!-- Node7&#45;&gt;Node6 -->
<g id="edge6" class="edge">
<title>Node7&#45;&gt;Node6</title>
<path fill="none" stroke="midnightblue" d="M164.5,-871.03C164.5,-862.17 164.5,-852.94 164.5,-843.61"/>
<polygon fill="none" stroke="midnightblue" points="161,-871.25 164.5,-881.25 168,-871.25 161,-871.25"/>
</g>
<!-- Node8 -->
<g id="node8" class="node">
<title>Node8</title>
<g id="a_node8"><a xlink:href="../../d3/d8b/structEmptySelectorCallback.html" target="_top" xlink:title="A callback for the GenericSelector class that does nothing.">
<polygon fill="white" stroke="black" points="230.5,-455 230.5,-534 360.5,-534 360.5,-455 230.5,-455"/>
<text text-anchor="middle" x="295.5" y="-522" font-family="Helvetica,sans-Serif" font-size="10.00">EmptySelectorCallback</text>
<polyline fill="none" stroke="black" points="230.5,-515 360.5,-515 "/>
<text text-anchor="middle" x="295.5" y="-503" font-family="Helvetica,sans-Serif" font-size="10.00"> </text>
<polyline fill="none" stroke="black" points="230.5,-496 360.5,-496 "/>
<text text-anchor="start" x="238.5" y="-484" font-family="Helvetica,sans-Serif" font-size="10.00">+ begin()</text>
<text text-anchor="start" x="238.5" y="-473" font-family="Helvetica,sans-Serif" font-size="10.00">+ update()</text>
<text text-anchor="start" x="238.5" y="-462" font-family="Helvetica,sans-Serif" font-size="10.00">+ update()</text>
</a>
</g>
</g>
<!-- Node8&#45;&gt;Node3 -->
<g id="edge7" class="edge">
<title>Node8&#45;&gt;Node3</title>
<path fill="none" stroke="#404040" d="M274.66,-454.85C262.93,-433.1 247.87,-405.17 233.85,-379.17"/>
<polygon fill="none" stroke="#404040" points="233.82,-379.12 227.45,-375.74 228.12,-368.56 234.49,-371.94 233.82,-379.12"/>
<text text-anchor="middle" x="270.5" y="-390" font-family="Helvetica,sans-Serif" font-size="10.00"> +callback</text>
</g>
<!-- Node9 -->
<g id="node9" class="node">
<title>Node9</title>
<g id="a_node9"><a xlink:href="../../d5/dae/classMatchingMIDIInputElement.html" target="_top" xlink:title=" ">
<polygon fill="white" stroke="black" points="306,-251 306,-352 491,-352 491,-251 306,-251"/>
<text text-anchor="start" x="314" y="-340" font-family="Helvetica,sans-Serif" font-size="10.00">MatchingMIDIInputElement</text>
<text text-anchor="start" x="314" y="-329" font-family="Helvetica,sans-Serif" font-size="10.00">&lt; MIDIMessageType::PROGRAM</text>
<text text-anchor="middle" x="398.5" y="-318" font-family="Helvetica,sans-Serif" font-size="10.00">_CHANGE, OneByteMIDIMatcher &gt;</text>
<polyline fill="none" stroke="black" points="306,-311 491,-311 "/>
<text text-anchor="start" x="314" y="-299" font-family="Helvetica,sans-Serif" font-size="10.00"># matcher</text>
<polyline fill="none" stroke="black" points="306,-292 491,-292 "/>
<text text-anchor="start" x="314" y="-280" font-family="Helvetica,sans-Serif" font-size="10.00">+ updateWith()</text>
<text text-anchor="start" x="314" y="-269" font-family="Helvetica,sans-Serif" font-size="10.00">+ handleUpdate()</text>
<text text-anchor="start" x="314" y="-258" font-family="Helvetica,sans-Serif" font-size="10.00"># MatchingMIDIInputElement()</text>
</a>
</g>
</g>
<!-- Node9&#45;&gt;Node2 -->
<g id="edge8" class="edge">
<title>Node9&#45;&gt;Node2</title>
<path fill="none" stroke="midnightblue" d="M352.66,-242.82C340.57,-227.61 327.63,-211.33 315.91,-196.59"/>
<polygon fill="none" stroke="midnightblue" points="349.93,-245.01 358.89,-250.66 355.41,-240.66 349.93,-245.01"/>
</g>
<!-- Node10 -->
<g id="node10" class="node">
<title>Node10</title>
<g id="a_node10"><a xlink:href="../../d9/db1/classMIDIInputElement.html" target="_top" xlink:title="A class for objects that listen for incoming MIDI events.">
<polygon fill="white" stroke="black" points="379,-416.5 379,-572.5 528,-572.5 528,-416.5 379,-416.5"/>
<text text-anchor="middle" x="453.5" y="-560.5" font-family="Helvetica,sans-Serif" font-size="10.00">MIDIInputElement&lt; Type &gt;</text>
<polyline fill="none" stroke="black" points="379,-553.5 528,-553.5 "/>
<text text-anchor="middle" x="453.5" y="-541.5" font-family="Helvetica,sans-Serif" font-size="10.00"> </text>
<polyline fill="none" stroke="black" points="379,-534.5 528,-534.5 "/>
<text text-anchor="start" x="387" y="-522.5" font-family="Helvetica,sans-Serif" font-size="10.00">+ ~MIDIInputElement()</text>
<text text-anchor="start" x="387" y="-511.5" font-family="Helvetica,sans-Serif" font-size="10.00">+ begin()</text>
<text text-anchor="start" x="387" y="-500.5" font-family="Helvetica,sans-Serif" font-size="10.00">+ reset()</text>
<text text-anchor="start" x="387" y="-489.5" font-family="Helvetica,sans-Serif" font-size="10.00">+ update()</text>
<text text-anchor="start" x="387" y="-478.5" font-family="Helvetica,sans-Serif" font-size="10.00">+ updateWith()</text>
<text text-anchor="start" x="387" y="-467.5" font-family="Helvetica,sans-Serif" font-size="10.00">+ updateAllWith()</text>
<text text-anchor="start" x="387" y="-456.5" font-family="Helvetica,sans-Serif" font-size="10.00">+ updateAll()</text>
<text text-anchor="start" x="387" y="-445.5" font-family="Helvetica,sans-Serif" font-size="10.00">+ beginAll()</text>
<text text-anchor="start" x="387" y="-434.5" font-family="Helvetica,sans-Serif" font-size="10.00">+ resetAll()</text>
<text text-anchor="start" x="387" y="-423.5" font-family="Helvetica,sans-Serif" font-size="10.00"># MIDIInputElement()</text>
</a>
</g>
</g>
<!-- Node10&#45;&gt;Node9 -->
<g id="edge9" class="edge">
<title>Node10&#45;&gt;Node9</title>
<path fill="none" stroke="midnightblue" d="M428.49,-406.66C423.12,-387.99 417.61,-368.87 412.81,-352.2"/>
<polygon fill="none" stroke="midnightblue" points="425.16,-407.72 431.29,-416.36 431.88,-405.79 425.16,-407.72"/>
</g>
<!-- Node11 -->
<g id="node11" class="node">
<title>Node11</title>
<g id="a_node11"><a xlink:href="../../d8/d1a/classAH_1_1UpdatableCRTP.html" target="_top" xlink:title=" ">
<polygon fill="white" stroke="black" points="378.5,-610.5 378.5,-843.5 528.5,-843.5 528.5,-610.5 378.5,-610.5"/>
<text text-anchor="start" x="386.5" y="-831.5" font-family="Helvetica,sans-Serif" font-size="10.00">UpdatableCRTP&lt; MIDIInput</text>
<text text-anchor="middle" x="453.5" y="-820.5" font-family="Helvetica,sans-Serif" font-size="10.00">Element&lt; Type &gt; &gt;</text>
<polyline fill="none" stroke="black" points="378.5,-813.5 528.5,-813.5 "/>
<text text-anchor="start" x="386.5" y="-801.5" font-family="Helvetica,sans-Serif" font-size="10.00"># updatables</text>
<polyline fill="none" stroke="black" points="378.5,-794.5 528.5,-794.5 "/>
<text text-anchor="start" x="386.5" y="-782.5" font-family="Helvetica,sans-Serif" font-size="10.00">+ ~UpdatableCRTP()</text>
<text text-anchor="start" x="386.5" y="-771.5" font-family="Helvetica,sans-Serif" font-size="10.00"># UpdatableCRTP()</text>
<text text-anchor="start" x="386.5" y="-760.5" font-family="Helvetica,sans-Serif" font-size="10.00"># UpdatableCRTP()</text>
<text text-anchor="start" x="386.5" y="-749.5" font-family="Helvetica,sans-Serif" font-size="10.00"># UpdatableCRTP()</text>
<text text-anchor="start" x="386.5" y="-738.5" font-family="Helvetica,sans-Serif" font-size="10.00"># operator=()</text>
<text text-anchor="start" x="386.5" y="-727.5" font-family="Helvetica,sans-Serif" font-size="10.00"># operator=()</text>
<text text-anchor="start" x="386.5" y="-716.5" font-family="Helvetica,sans-Serif" font-size="10.00">* enable()</text>
<text text-anchor="start" x="386.5" y="-705.5" font-family="Helvetica,sans-Serif" font-size="10.00">* disable()</text>
<text text-anchor="start" x="386.5" y="-694.5" font-family="Helvetica,sans-Serif" font-size="10.00">* isEnabled()</text>
<text text-anchor="start" x="386.5" y="-683.5" font-family="Helvetica,sans-Serif" font-size="10.00">* moveDown()</text>
<text text-anchor="start" x="386.5" y="-672.5" font-family="Helvetica,sans-Serif" font-size="10.00">* enable()</text>
<text text-anchor="start" x="386.5" y="-661.5" font-family="Helvetica,sans-Serif" font-size="10.00">* enable()</text>
<text text-anchor="start" x="386.5" y="-650.5" font-family="Helvetica,sans-Serif" font-size="10.00">* enable()</text>
<text text-anchor="start" x="386.5" y="-639.5" font-family="Helvetica,sans-Serif" font-size="10.00">* disable()</text>
<text text-anchor="start" x="386.5" y="-628.5" font-family="Helvetica,sans-Serif" font-size="10.00">* disable()</text>
<text text-anchor="start" x="386.5" y="-617.5" font-family="Helvetica,sans-Serif" font-size="10.00">* disable()</text>
</a>
</g>
</g>
<!-- Node11&#45;&gt;Node10 -->
<g id="edge10" class="edge">
<title>Node11&#45;&gt;Node10</title>
<path fill="none" stroke="midnightblue" d="M453.5,-600.22C453.5,-590.85 453.5,-581.58 453.5,-572.65"/>
<polygon fill="none" stroke="midnightblue" points="450,-600.41 453.5,-610.41 457,-600.41 450,-600.41"/>
</g>
<!-- Node12 -->
<g id="node12" class="node">
<title>Node12</title>
<g id="a_node12"><a xlink:href="../../d4/d23/classDoublyLinkable.html" target="_top" xlink:title="A class that can be inherited from to allow inserting into a DoublyLinkedList.">
<polygon fill="white" stroke="black" points="383.5,-881.5 383.5,-1004.5 523.5,-1004.5 523.5,-881.5 383.5,-881.5"/>
<text text-anchor="middle" x="453.5" y="-992.5" font-family="Helvetica,sans-Serif" font-size="10.00">DoublyLinkable&lt; Node &gt;</text>
<polyline fill="none" stroke="black" points="383.5,-985.5 523.5,-985.5 "/>
<text text-anchor="start" x="391.5" y="-973.5" font-family="Helvetica,sans-Serif" font-size="10.00"># next</text>
<text text-anchor="start" x="391.5" y="-962.5" font-family="Helvetica,sans-Serif" font-size="10.00"># previous</text>
<polyline fill="none" stroke="black" points="383.5,-955.5 523.5,-955.5 "/>
<text text-anchor="start" x="391.5" y="-943.5" font-family="Helvetica,sans-Serif" font-size="10.00"># ~DoublyLinkable()</text>
<text text-anchor="start" x="391.5" y="-932.5" font-family="Helvetica,sans-Serif" font-size="10.00"># DoublyLinkable()</text>
<text text-anchor="start" x="391.5" y="-921.5" font-family="Helvetica,sans-Serif" font-size="10.00"># DoublyLinkable()</text>
<text text-anchor="start" x="391.5" y="-910.5" font-family="Helvetica,sans-Serif" font-size="10.00"># operator=()</text>
<text text-anchor="start" x="391.5" y="-899.5" font-family="Helvetica,sans-Serif" font-size="10.00"># DoublyLinkable()</text>
<text text-anchor="start" x="391.5" y="-888.5" font-family="Helvetica,sans-Serif" font-size="10.00"># operator=()</text>
</a>
</g>
</g>
<!-- Node12&#45;&gt;Node11 -->
<g id="edge11" class="edge">
<title>Node12&#45;&gt;Node11</title>
<path fill="none" stroke="midnightblue" d="M453.5,-871.03C453.5,-862.17 453.5,-852.94 453.5,-843.61"/>
<polygon fill="none" stroke="midnightblue" points="450,-871.25 453.5,-881.25 457,-871.25 450,-871.25"/>
</g>
</g>
</svg>
