<?xml version="1.0" encoding="UTF-8" standalone="no"?>
<!DOCTYPE svg PUBLIC "-//W3C//DTD SVG 1.1//EN"
 "http://www.w3.org/Graphics/SVG/1.1/DTD/svg11.dtd">
<!-- Generated by graphviz version 2.40.1 (20161225.0304)
 -->
<!-- Title: CCPotentiometer Pages: 1 -->
<svg width="1185pt" height="1263pt"
 viewBox="0.00 0.00 1184.50 1263.00" xmlns="http://www.w3.org/2000/svg" xmlns:xlink="http://www.w3.org/1999/xlink">
<g id="graph0" class="graph" transform="scale(1 1) rotate(0) translate(4 1259)">
<title>CCPotentiometer</title>
<polygon fill="#ffffff" stroke="transparent" points="-4,4 -4,-1259 1180.5,-1259 1180.5,4 -4,4"/>
<!-- Node1 -->
<g id="node1" class="node">
<title>Node1</title>
<g id="a_node1"><a xlink:title="A class of MIDIOutputElements that read the analog input from a potentiometer or fader,...">
<polygon fill="#bfbfbf" stroke="#000000" points="632.5,-.5 632.5,-57.5 739.5,-57.5 739.5,-.5 632.5,-.5"/>
<text text-anchor="middle" x="686" y="-45.5" font-family="Helvetica,sans-Serif" font-size="10.00" fill="#000000">CCPotentiometer</text>
<polyline fill="none" stroke="#000000" points="632.5,-38.5 739.5,-38.5 "/>
<text text-anchor="middle" x="686" y="-26.5" font-family="Helvetica,sans-Serif" font-size="10.00" fill="#000000"> </text>
<polyline fill="none" stroke="#000000" points="632.5,-19.5 739.5,-19.5 "/>
<text text-anchor="start" x="640.5" y="-7.5" font-family="Helvetica,sans-Serif" font-size="10.00" fill="#000000">+ CCPotentiometer()</text>
</a>
</g>
</g>
<!-- Node2 -->
<g id="node2" class="node">
<title>Node2</title>
<g id="a_node2"><a xlink:href="../../d1/d5a/classBankable_1_1MIDIFilteredAnalogAddressable.html" target="_top" xlink:title=" ">
<polygon fill="#ffffff" stroke="#000000" points="586.5,-95.5 586.5,-229.5 785.5,-229.5 785.5,-95.5 586.5,-95.5"/>
<text text-anchor="start" x="594.5" y="-217.5" font-family="Helvetica,sans-Serif" font-size="10.00" fill="#000000">MIDIFilteredAnalogAddressable</text>
<text text-anchor="middle" x="686" y="-206.5" font-family="Helvetica,sans-Serif" font-size="10.00" fill="#000000">&lt; SingleAddress, ContinuousCCSender &gt;</text>
<polyline fill="none" stroke="#000000" points="586.5,-199.5 785.5,-199.5 "/>
<text text-anchor="middle" x="686" y="-187.5" font-family="Helvetica,sans-Serif" font-size="10.00" fill="#000000"> </text>
<polyline fill="none" stroke="#000000" points="586.5,-180.5 785.5,-180.5 "/>
<text text-anchor="start" x="594.5" y="-168.5" font-family="Helvetica,sans-Serif" font-size="10.00" fill="#000000">+ begin()</text>
<text text-anchor="start" x="594.5" y="-157.5" font-family="Helvetica,sans-Serif" font-size="10.00" fill="#000000">+ update()</text>
<text text-anchor="start" x="594.5" y="-146.5" font-family="Helvetica,sans-Serif" font-size="10.00" fill="#000000">+ map()</text>
<text text-anchor="start" x="594.5" y="-135.5" font-family="Helvetica,sans-Serif" font-size="10.00" fill="#000000">+ invert()</text>
<text text-anchor="start" x="594.5" y="-124.5" font-family="Helvetica,sans-Serif" font-size="10.00" fill="#000000">+ getRawValue()</text>
<text text-anchor="start" x="594.5" y="-113.5" font-family="Helvetica,sans-Serif" font-size="10.00" fill="#000000">+ getValue()</text>
<text text-anchor="start" x="594.5" y="-102.5" font-family="Helvetica,sans-Serif" font-size="10.00" fill="#000000"># MIDIFilteredAnalogAddressable()</text>
</a>
</g>
</g>
<!-- Node2&#45;&gt;Node1 -->
<g id="edge1" class="edge">
<title>Node2&#45;&gt;Node1</title>
<path fill="none" stroke="#191970" d="M686,-85.154C686,-75.434 686,-66.0216 686,-57.7698"/>
<polygon fill="none" stroke="#191970" points="682.5001,-85.3589 686,-95.3589 689.5001,-85.3589 682.5001,-85.3589"/>
</g>
<!-- Node3 -->
<g id="node3" class="node">
<title>Node3</title>
<g id="a_node3"><a xlink:href="../../d1/d55/classAH_1_1Updatable.html" target="_top" xlink:title=" ">
<polygon fill="#ffffff" stroke="#000000" points="0,-376.5 0,-466.5 104,-466.5 104,-376.5 0,-376.5"/>
<text text-anchor="middle" x="52" y="-454.5" font-family="Helvetica,sans-Serif" font-size="10.00" fill="#000000">MIDIOutputElement</text>
<polyline fill="none" stroke="#000000" points="0,-447.5 104,-447.5 "/>
<text text-anchor="middle" x="52" y="-435.5" font-family="Helvetica,sans-Serif" font-size="10.00" fill="#000000"> </text>
<polyline fill="none" stroke="#000000" points="0,-428.5 104,-428.5 "/>
<text text-anchor="start" x="8" y="-416.5" font-family="Helvetica,sans-Serif" font-size="10.00" fill="#000000">* begin()</text>
<text text-anchor="start" x="8" y="-405.5" font-family="Helvetica,sans-Serif" font-size="10.00" fill="#000000">* update()</text>
<text text-anchor="start" x="8" y="-394.5" font-family="Helvetica,sans-Serif" font-size="10.00" fill="#000000">* beginAll()</text>
<text text-anchor="start" x="8" y="-383.5" font-family="Helvetica,sans-Serif" font-size="10.00" fill="#000000">* updateAll()</text>
</a>
</g>
</g>
<!-- Node3&#45;&gt;Node2 -->
<g id="edge2" class="edge">
<title>Node3&#45;&gt;Node2</title>
<path fill="none" stroke="#191970" d="M62.039,-366.5162C70.496,-335.7428 85.7734,-299.2108 113,-277 184.287,-218.8457 442.1878,-185.6204 586.4884,-171.1914"/>
<polygon fill="none" stroke="#191970" points="58.6292,-365.723 59.5264,-376.2797 65.4083,-367.4676 58.6292,-365.723"/>
</g>
<!-- Node4 -->
<g id="node4" class="node">
<title>Node4</title>
<g id="a_node4"><a xlink:href="../../d8/d1a/classAH_1_1UpdatableCRTP.html" target="_top" xlink:title=" ">
<polygon fill="#ffffff" stroke="#000000" points="203,-663 203,-852 345,-852 345,-663 203,-663"/>
<text text-anchor="start" x="211" y="-840" font-family="Helvetica,sans-Serif" font-size="10.00" fill="#000000">UpdatableCRTP&lt; Updatable</text>
<text text-anchor="middle" x="274" y="-829" font-family="Helvetica,sans-Serif" font-size="10.00" fill="#000000">&lt; NormalUpdatable &gt; &gt;</text>
<polyline fill="none" stroke="#000000" points="203,-822 345,-822 "/>
<text text-anchor="middle" x="274" y="-810" font-family="Helvetica,sans-Serif" font-size="10.00" fill="#000000"> </text>
<polyline fill="none" stroke="#000000" points="203,-803 345,-803 "/>
<text text-anchor="start" x="211" y="-791" font-family="Helvetica,sans-Serif" font-size="10.00" fill="#000000">+ ~UpdatableCRTP()</text>
<text text-anchor="start" x="211" y="-780" font-family="Helvetica,sans-Serif" font-size="10.00" fill="#000000"># UpdatableCRTP()</text>
<text text-anchor="start" x="211" y="-769" font-family="Helvetica,sans-Serif" font-size="10.00" fill="#000000">* enable()</text>
<text text-anchor="start" x="211" y="-758" font-family="Helvetica,sans-Serif" font-size="10.00" fill="#000000">* disable()</text>
<text text-anchor="start" x="211" y="-747" font-family="Helvetica,sans-Serif" font-size="10.00" fill="#000000">* isEnabled()</text>
<text text-anchor="start" x="211" y="-736" font-family="Helvetica,sans-Serif" font-size="10.00" fill="#000000">* enable()</text>
<text text-anchor="start" x="211" y="-725" font-family="Helvetica,sans-Serif" font-size="10.00" fill="#000000">* enable()</text>
<text text-anchor="start" x="211" y="-714" font-family="Helvetica,sans-Serif" font-size="10.00" fill="#000000">* enable()</text>
<text text-anchor="start" x="211" y="-703" font-family="Helvetica,sans-Serif" font-size="10.00" fill="#000000">* disable()</text>
<text text-anchor="start" x="211" y="-692" font-family="Helvetica,sans-Serif" font-size="10.00" fill="#000000">* disable()</text>
<text text-anchor="start" x="211" y="-681" font-family="Helvetica,sans-Serif" font-size="10.00" fill="#000000">* disable()</text>
<text text-anchor="start" x="211" y="-670" font-family="Helvetica,sans-Serif" font-size="10.00" fill="#000000">* applyToAll()</text>
</a>
</g>
</g>
<!-- Node4&#45;&gt;Node3 -->
<g id="edge3" class="edge">
<title>Node4&#45;&gt;Node3</title>
<path fill="none" stroke="#191970" d="M196.19,-676.0248C167.6657,-643.4692 136.6171,-604.5837 113,-566 93.8083,-534.6461 77.8943,-496.1766 67.138,-466.8154"/>
<polygon fill="none" stroke="#191970" points="193.7526,-678.5522 202.9965,-683.7291 198.9986,-673.9175 193.7526,-678.5522"/>
</g>
<!-- Node5 -->
<g id="node5" class="node">
<title>Node5</title>
<g id="a_node5"><a xlink:href="../../d4/d23/classDoublyLinkable.html" target="_top" xlink:title=" ">
<polygon fill="#ffffff" stroke="#000000" points="122.5,-387.5 122.5,-455.5 331.5,-455.5 331.5,-387.5 122.5,-387.5"/>
<text text-anchor="start" x="130.5" y="-443.5" font-family="Helvetica,sans-Serif" font-size="10.00" fill="#000000">DoublyLinkable&lt; Updatable</text>
<text text-anchor="middle" x="227" y="-432.5" font-family="Helvetica,sans-Serif" font-size="10.00" fill="#000000">CRTP&lt; Updatable&lt; NormalUpdatable &gt; &gt; &gt;</text>
<polyline fill="none" stroke="#000000" points="122.5,-425.5 331.5,-425.5 "/>
<text text-anchor="middle" x="227" y="-413.5" font-family="Helvetica,sans-Serif" font-size="10.00" fill="#000000"> </text>
<polyline fill="none" stroke="#000000" points="122.5,-406.5 331.5,-406.5 "/>
<text text-anchor="start" x="130.5" y="-394.5" font-family="Helvetica,sans-Serif" font-size="10.00" fill="#000000"># ~DoublyLinkable()</text>
</a>
</g>
</g>
<!-- Node4&#45;&gt;Node5 -->
<g id="edge5" class="edge">
<title>Node4&#45;&gt;Node5</title>
<path fill="none" stroke="#404040" d="M231.0102,-662.9096C224.3674,-644.3957 218.5436,-624.8639 215,-606 206.2683,-559.5172 211.5631,-505.4223 217.6308,-467.8762"/>
<polygon fill="none" stroke="#404040" points="217.6712,-467.6399 214.7426,-461.0503 219.699,-455.8125 222.6275,-462.4021 217.6712,-467.6399"/>
<text text-anchor="middle" x="236.5" y="-598" font-family="Helvetica,sans-Serif" font-size="10.00" fill="#000000"> #next</text>
<text text-anchor="middle" x="236.5" y="-587" font-family="Helvetica,sans-Serif" font-size="10.00" fill="#000000">#previous</text>
</g>
<!-- Node6 -->
<g id="node6" class="node">
<title>Node6</title>
<g id="a_node6"><a xlink:href="../../dd/d16/classDoublyLinkedList.html" target="_top" xlink:title=" ">
<polygon fill="#ffffff" stroke="#000000" points="350,-277.5 350,-565.5 498,-565.5 498,-277.5 350,-277.5"/>
<text text-anchor="start" x="358" y="-553.5" font-family="Helvetica,sans-Serif" font-size="10.00" fill="#000000">DoublyLinkedList&lt; AH</text>
<text text-anchor="start" x="358" y="-542.5" font-family="Helvetica,sans-Serif" font-size="10.00" fill="#000000">::UpdatableCRTP&lt; Updatable</text>
<text text-anchor="middle" x="424" y="-531.5" font-family="Helvetica,sans-Serif" font-size="10.00" fill="#000000">&lt; NormalUpdatable &gt; &gt; &gt;</text>
<polyline fill="none" stroke="#000000" points="350,-524.5 498,-524.5 "/>
<text text-anchor="middle" x="424" y="-512.5" font-family="Helvetica,sans-Serif" font-size="10.00" fill="#000000"> </text>
<polyline fill="none" stroke="#000000" points="350,-505.5 498,-505.5 "/>
<text text-anchor="start" x="358" y="-493.5" font-family="Helvetica,sans-Serif" font-size="10.00" fill="#000000">+ append()</text>
<text text-anchor="start" x="358" y="-482.5" font-family="Helvetica,sans-Serif" font-size="10.00" fill="#000000">+ append()</text>
<text text-anchor="start" x="358" y="-471.5" font-family="Helvetica,sans-Serif" font-size="10.00" fill="#000000">+ insertBefore()</text>
<text text-anchor="start" x="358" y="-460.5" font-family="Helvetica,sans-Serif" font-size="10.00" fill="#000000">+ insertBefore()</text>
<text text-anchor="start" x="358" y="-449.5" font-family="Helvetica,sans-Serif" font-size="10.00" fill="#000000">+ insertSorted()</text>
<text text-anchor="start" x="358" y="-438.5" font-family="Helvetica,sans-Serif" font-size="10.00" fill="#000000">+ insertSorted()</text>
<text text-anchor="start" x="358" y="-427.5" font-family="Helvetica,sans-Serif" font-size="10.00" fill="#000000">+ remove()</text>
<text text-anchor="start" x="358" y="-416.5" font-family="Helvetica,sans-Serif" font-size="10.00" fill="#000000">+ remove()</text>
<text text-anchor="start" x="358" y="-405.5" font-family="Helvetica,sans-Serif" font-size="10.00" fill="#000000">+ moveDown()</text>
<text text-anchor="start" x="358" y="-394.5" font-family="Helvetica,sans-Serif" font-size="10.00" fill="#000000">+ couldContain()</text>
<text text-anchor="start" x="358" y="-383.5" font-family="Helvetica,sans-Serif" font-size="10.00" fill="#000000">+ begin()</text>
<text text-anchor="start" x="358" y="-372.5" font-family="Helvetica,sans-Serif" font-size="10.00" fill="#000000">+ begin()</text>
<text text-anchor="start" x="358" y="-361.5" font-family="Helvetica,sans-Serif" font-size="10.00" fill="#000000">+ end()</text>
<text text-anchor="start" x="358" y="-350.5" font-family="Helvetica,sans-Serif" font-size="10.00" fill="#000000">+ end()</text>
<text text-anchor="start" x="358" y="-339.5" font-family="Helvetica,sans-Serif" font-size="10.00" fill="#000000">+ rbegin()</text>
<text text-anchor="start" x="358" y="-328.5" font-family="Helvetica,sans-Serif" font-size="10.00" fill="#000000">+ rbegin()</text>
<text text-anchor="start" x="358" y="-317.5" font-family="Helvetica,sans-Serif" font-size="10.00" fill="#000000">+ rend()</text>
<text text-anchor="start" x="358" y="-306.5" font-family="Helvetica,sans-Serif" font-size="10.00" fill="#000000">+ rend()</text>
<text text-anchor="start" x="358" y="-295.5" font-family="Helvetica,sans-Serif" font-size="10.00" fill="#000000">+ getFirst()</text>
<text text-anchor="start" x="358" y="-284.5" font-family="Helvetica,sans-Serif" font-size="10.00" fill="#000000">+ getLast()</text>
</a>
</g>
</g>
<!-- Node4&#45;&gt;Node6 -->
<g id="edge7" class="edge">
<title>Node4&#45;&gt;Node6</title>
<path fill="none" stroke="#404040" d="M287.6321,-662.7739C294.3184,-635.9395 304.2539,-607.6267 319,-584 325.5086,-573.5717 332.1339,-575.4464 340,-566 340.7311,-565.122 341.4596,-564.2368 342.1854,-563.3449"/>
<polygon fill="none" stroke="#404040" points="342.4565,-562.9985 343.0056,-555.8083 349.8539,-553.5497 349.3048,-560.7399 342.4565,-562.9985"/>
<text text-anchor="middle" x="330" y="-598" font-family="Helvetica,sans-Serif" font-size="10.00" fill="#000000"> &#45;last</text>
<text text-anchor="middle" x="330" y="-587" font-family="Helvetica,sans-Serif" font-size="10.00" fill="#000000">&#45;first</text>
</g>
<!-- Node5&#45;&gt;Node4 -->
<g id="edge4" class="edge">
<title>Node5&#45;&gt;Node4</title>
<path fill="none" stroke="#191970" d="M238.3548,-465.874C246.2284,-498.3675 256.289,-543.6487 262,-584 265.5965,-609.4112 268.1277,-637.0753 269.9044,-662.6947"/>
<polygon fill="none" stroke="#191970" points="241.6644,-464.6747 235.8835,-455.796 234.8658,-466.3418 241.6644,-464.6747"/>
</g>
<!-- Node6&#45;&gt;Node4 -->
<g id="edge6" class="edge">
<title>Node6&#45;&gt;Node4</title>
<path fill="none" stroke="#404040" d="M359.5853,-565.7889C346.7413,-594.5596 333.4745,-624.277 321.3329,-651.4742"/>
<polygon fill="none" stroke="#404040" points="321.2744,-651.6055 322.481,-658.715 316.3825,-662.5632 315.1759,-655.4537 321.2744,-651.6055"/>
<text text-anchor="middle" x="377" y="-592.5" font-family="Helvetica,sans-Serif" font-size="10.00" fill="#000000"> #updatables</text>
</g>
<!-- Node7 -->
<g id="node7" class="node">
<title>Node7</title>
<g id="a_node7"><a xlink:href="../../d3/d6e/classAH_1_1FilteredAnalog.html" target="_top" xlink:title=" ">
<polygon fill="#ffffff" stroke="#000000" points="537.5,-349 537.5,-494 656.5,-494 656.5,-349 537.5,-349"/>
<text text-anchor="start" x="545.5" y="-482" font-family="Helvetica,sans-Serif" font-size="10.00" fill="#000000">FilteredAnalog&lt; Sender</text>
<text text-anchor="middle" x="597" y="-471" font-family="Helvetica,sans-Serif" font-size="10.00" fill="#000000">::precision()&gt;</text>
<polyline fill="none" stroke="#000000" points="537.5,-464 656.5,-464 "/>
<text text-anchor="middle" x="597" y="-452" font-family="Helvetica,sans-Serif" font-size="10.00" fill="#000000"> </text>
<polyline fill="none" stroke="#000000" points="537.5,-445 656.5,-445 "/>
<text text-anchor="start" x="545.5" y="-433" font-family="Helvetica,sans-Serif" font-size="10.00" fill="#000000">+ FilteredAnalog()</text>
<text text-anchor="start" x="545.5" y="-422" font-family="Helvetica,sans-Serif" font-size="10.00" fill="#000000">+ map()</text>
<text text-anchor="start" x="545.5" y="-411" font-family="Helvetica,sans-Serif" font-size="10.00" fill="#000000">+ invert()</text>
<text text-anchor="start" x="545.5" y="-400" font-family="Helvetica,sans-Serif" font-size="10.00" fill="#000000">+ update()</text>
<text text-anchor="start" x="545.5" y="-389" font-family="Helvetica,sans-Serif" font-size="10.00" fill="#000000">+ getValue()</text>
<text text-anchor="start" x="545.5" y="-378" font-family="Helvetica,sans-Serif" font-size="10.00" fill="#000000">+ getFloatValue()</text>
<text text-anchor="start" x="545.5" y="-367" font-family="Helvetica,sans-Serif" font-size="10.00" fill="#000000">+ getRawValue()</text>
<text text-anchor="start" x="545.5" y="-356" font-family="Helvetica,sans-Serif" font-size="10.00" fill="#000000">+ setupADC()</text>
</a>
</g>
</g>
<!-- Node7&#45;&gt;Node2 -->
<g id="edge8" class="edge">
<title>Node7&#45;&gt;Node2</title>
<path fill="none" stroke="#404040" d="M605.6109,-348.8923C610.8969,-317.1476 619.1966,-279.9455 632,-248 632.944,-245.6447 633.9535,-243.2828 635.0182,-240.9226"/>
<polygon fill="none" stroke="#404040" points="635.1195,-240.7138 634.1437,-233.569 640.3636,-229.9203 641.3394,-237.0651 635.1195,-240.7138"/>
<text text-anchor="middle" x="665" y="-251" font-family="Helvetica,sans-Serif" font-size="10.00" fill="#000000"> &#45;filteredAnalog</text>
</g>
<!-- Node8 -->
<g id="node8" class="node">
<title>Node8</title>
<g id="a_node8"><a xlink:href="../../d7/d40/classEMA.html" target="_top" xlink:title=" ">
<polygon fill="#ffffff" stroke="#000000" points="363.5,-707 363.5,-808 508.5,-808 508.5,-707 363.5,-707"/>
<text text-anchor="start" x="371.5" y="-796" font-family="Helvetica,sans-Serif" font-size="10.00" fill="#000000">EMA&lt; ANALOG_FILTER</text>
<text text-anchor="start" x="371.5" y="-785" font-family="Helvetica,sans-Serif" font-size="10.00" fill="#000000">_SHIFT_FACTOR, ANALOG</text>
<text text-anchor="middle" x="436" y="-774" font-family="Helvetica,sans-Serif" font-size="10.00" fill="#000000">_FILTER_TYPE &gt;</text>
<polyline fill="none" stroke="#000000" points="363.5,-767 508.5,-767 "/>
<text text-anchor="start" x="371.5" y="-755" font-family="Helvetica,sans-Serif" font-size="10.00" fill="#000000">&#45; filtered</text>
<text text-anchor="start" x="371.5" y="-744" font-family="Helvetica,sans-Serif" font-size="10.00" fill="#000000">&#45; fixedPointAHalf</text>
<polyline fill="none" stroke="#000000" points="363.5,-737 508.5,-737 "/>
<text text-anchor="start" x="371.5" y="-725" font-family="Helvetica,sans-Serif" font-size="10.00" fill="#000000">+ filter()</text>
<text text-anchor="start" x="371.5" y="-714" font-family="Helvetica,sans-Serif" font-size="10.00" fill="#000000">+ operator()()</text>
</a>
</g>
</g>
<!-- Node8&#45;&gt;Node7 -->
<g id="edge9" class="edge">
<title>Node8&#45;&gt;Node7</title>
<path fill="none" stroke="#404040" d="M457.0422,-706.9736C471.8163,-672.1348 492.3672,-624.9142 512,-584 524.4741,-558.0044 538.7599,-530.065 552.0145,-504.8103"/>
<polygon fill="none" stroke="#404040" points="552.0298,-504.7812 551.2879,-497.6084 557.6237,-494.1647 558.3656,-501.3376 552.0298,-504.7812"/>
<text text-anchor="middle" x="524.5" y="-592.5" font-family="Helvetica,sans-Serif" font-size="10.00" fill="#000000"> &#45;filter</text>
</g>
<!-- Node9 -->
<g id="node9" class="node">
<title>Node9</title>
<g id="a_node9"><a xlink:title=" ">
<polygon fill="#ffffff" stroke="#bfbfbf" points="527,-729 527,-786 565,-786 565,-729 527,-729"/>
<text text-anchor="middle" x="546" y="-774" font-family="Helvetica,sans-Serif" font-size="10.00" fill="#000000">pin_t</text>
<polyline fill="none" stroke="#bfbfbf" points="527,-767 565,-767 "/>
<text text-anchor="middle" x="546" y="-755" font-family="Helvetica,sans-Serif" font-size="10.00" fill="#000000"> </text>
<polyline fill="none" stroke="#bfbfbf" points="527,-748 565,-748 "/>
<text text-anchor="middle" x="546" y="-736" font-family="Helvetica,sans-Serif" font-size="10.00" fill="#000000"> </text>
</a>
</g>
</g>
<!-- Node9&#45;&gt;Node7 -->
<g id="edge10" class="edge">
<title>Node9&#45;&gt;Node7</title>
<path fill="none" stroke="#404040" d="M542.4103,-728.726C538.8034,-694.1253 534.8438,-634.408 543,-584 547.2017,-558.0319 554.9504,-530.601 563.292,-505.8211"/>
<polygon fill="none" stroke="#404040" points="563.3667,-505.6049 561.547,-498.6272 567.2881,-494.2637 569.1078,-501.2414 563.3667,-505.6049"/>
<text text-anchor="middle" x="567.5" y="-592.5" font-family="Helvetica,sans-Serif" font-size="10.00" fill="#000000"> &#45;analogPin</text>
</g>
<!-- Node10 -->
<g id="node10" class="node">
<title>Node10</title>
<g id="a_node10"><a xlink:href="../../d2/dcb/classHysteresis.html" target="_top" xlink:title=" ">
<polygon fill="#ffffff" stroke="#000000" points="661.5,-690.5 661.5,-824.5 852.5,-824.5 852.5,-690.5 661.5,-690.5"/>
<text text-anchor="start" x="669.5" y="-812.5" font-family="Helvetica,sans-Serif" font-size="10.00" fill="#000000">Hysteresis&lt; ADC_BITS</text>
<text text-anchor="start" x="669.5" y="-801.5" font-family="Helvetica,sans-Serif" font-size="10.00" fill="#000000">+min(sizeof(ANALOG_FILTER</text>
<text text-anchor="start" x="669.5" y="-790.5" font-family="Helvetica,sans-Serif" font-size="10.00" fill="#000000">_TYPE) *CHAR_BIT &#45; ADC_BITS</text>
<text text-anchor="start" x="669.5" y="-779.5" font-family="Helvetica,sans-Serif" font-size="10.00" fill="#000000"> &#45; ANALOG_FILTER_SHIFT_FACTOR,</text>
<text text-anchor="start" x="669.5" y="-768.5" font-family="Helvetica,sans-Serif" font-size="10.00" fill="#000000"> sizeof(analog_t) *CHAR_BIT </text>
<text text-anchor="start" x="669.5" y="-757.5" font-family="Helvetica,sans-Serif" font-size="10.00" fill="#000000">&#45; ADC_BITS) &#45; Precision, analog</text>
<text text-anchor="middle" x="757" y="-746.5" font-family="Helvetica,sans-Serif" font-size="10.00" fill="#000000">_t, analog_t &gt;</text>
<polyline fill="none" stroke="#000000" points="661.5,-739.5 852.5,-739.5 "/>
<text text-anchor="middle" x="757" y="-727.5" font-family="Helvetica,sans-Serif" font-size="10.00" fill="#000000"> </text>
<polyline fill="none" stroke="#000000" points="661.5,-720.5 852.5,-720.5 "/>
<text text-anchor="start" x="669.5" y="-708.5" font-family="Helvetica,sans-Serif" font-size="10.00" fill="#000000">+ update()</text>
<text text-anchor="start" x="669.5" y="-697.5" font-family="Helvetica,sans-Serif" font-size="10.00" fill="#000000">+ getValue()</text>
</a>
</g>
</g>
<!-- Node10&#45;&gt;Node7 -->
<g id="edge11" class="edge">
<title>Node10&#45;&gt;Node7</title>
<path fill="none" stroke="#404040" d="M725.0062,-690.3129C699.6567,-637.079 664.1024,-562.415 636.8956,-505.2807"/>
<polygon fill="none" stroke="#404040" points="636.7303,-504.9334 630.5392,-501.236 631.571,-494.0991 637.7621,-497.7965 636.7303,-504.9334"/>
<text text-anchor="middle" x="708" y="-592.5" font-family="Helvetica,sans-Serif" font-size="10.00" fill="#000000"> &#45;hysteresis</text>
</g>
<!-- Node11 -->
<g id="node11" class="node">
<title>Node11</title>
<g id="a_node11"><a xlink:title=" ">
<polygon fill="#ffffff" stroke="#bfbfbf" points="625.5,-1010 625.5,-1067 678.5,-1067 678.5,-1010 625.5,-1010"/>
<text text-anchor="middle" x="652" y="-1055" font-family="Helvetica,sans-Serif" font-size="10.00" fill="#000000">analog_t</text>
<polyline fill="none" stroke="#bfbfbf" points="625.5,-1048 678.5,-1048 "/>
<text text-anchor="middle" x="652" y="-1036" font-family="Helvetica,sans-Serif" font-size="10.00" fill="#000000"> </text>
<polyline fill="none" stroke="#bfbfbf" points="625.5,-1029 678.5,-1029 "/>
<text text-anchor="middle" x="652" y="-1017" font-family="Helvetica,sans-Serif" font-size="10.00" fill="#000000"> </text>
</a>
</g>
</g>
<!-- Node11&#45;&gt;Node7 -->
<g id="edge13" class="edge">
<title>Node11&#45;&gt;Node7</title>
<path fill="none" stroke="#404040" d="M642.899,-1009.7472C634.0193,-980.2741 620.9989,-932.9469 615,-891 595.9162,-757.5576 593.97,-600.7516 594.9881,-506.353"/>
<polygon fill="none" stroke="#404040" points="594.9886,-506.3058 591.0636,-500.2565 595.1379,-494.3067 599.0629,-500.356 594.9886,-506.3058"/>
<text text-anchor="middle" x="633.5" y="-755" font-family="Helvetica,sans-Serif" font-size="10.00" fill="#000000"> &#45;mapFn</text>
</g>
<!-- Node11&#45;&gt;Node10 -->
<g id="edge12" class="edge">
<title>Node11&#45;&gt;Node10</title>
<path fill="none" stroke="#404040" d="M662.7434,-1009.7486C677.8846,-969.2278 706.0661,-893.8089 727.6844,-835.954"/>
<polygon fill="none" stroke="#404040" points="727.7144,-835.8737 726.0676,-828.8531 731.9148,-824.6328 733.5616,-831.6534 727.7144,-835.8737"/>
<text text-anchor="middle" x="722" y="-956" font-family="Helvetica,sans-Serif" font-size="10.00" fill="#000000"> &#45;max_in</text>
<text text-anchor="middle" x="722" y="-945" font-family="Helvetica,sans-Serif" font-size="10.00" fill="#000000">&#45;max_out</text>
<text text-anchor="middle" x="722" y="-934" font-family="Helvetica,sans-Serif" font-size="10.00" fill="#000000">&#45;offset</text>
<text text-anchor="middle" x="722" y="-923" font-family="Helvetica,sans-Serif" font-size="10.00" fill="#000000">&#45;prevLevel</text>
<text text-anchor="middle" x="722" y="-912" font-family="Helvetica,sans-Serif" font-size="10.00" fill="#000000">&#45;margin</text>
</g>
<!-- Node12 -->
<g id="node12" class="node">
<title>Node12</title>
<g id="a_node12"><a xlink:href="../../da/d07/classContinuousCCSender.html" target="_top" xlink:title=" ">
<polygon fill="#ffffff" stroke="#000000" points="675,-387.5 675,-455.5 787,-455.5 787,-387.5 675,-387.5"/>
<text text-anchor="middle" x="731" y="-443.5" font-family="Helvetica,sans-Serif" font-size="10.00" fill="#000000">ContinuousCCSender</text>
<polyline fill="none" stroke="#000000" points="675,-436.5 787,-436.5 "/>
<text text-anchor="middle" x="731" y="-424.5" font-family="Helvetica,sans-Serif" font-size="10.00" fill="#000000"> </text>
<polyline fill="none" stroke="#000000" points="675,-417.5 787,-417.5 "/>
<text text-anchor="start" x="683" y="-405.5" font-family="Helvetica,sans-Serif" font-size="10.00" fill="#000000">+ send()</text>
<text text-anchor="start" x="683" y="-394.5" font-family="Helvetica,sans-Serif" font-size="10.00" fill="#000000">+ precision()</text>
</a>
</g>
</g>
<!-- Node12&#45;&gt;Node2 -->
<g id="edge14" class="edge">
<title>Node12&#45;&gt;Node2</title>
<path fill="none" stroke="#404040" d="M725.0708,-387.3739C718.6683,-350.5242 708.249,-290.5551 699.7797,-241.8101"/>
<polygon fill="none" stroke="#404040" points="699.7264,-241.5029 694.7584,-236.2762 697.6722,-229.68 702.6403,-234.9067 699.7264,-241.5029"/>
<text text-anchor="middle" x="721.5" y="-251" font-family="Helvetica,sans-Serif" font-size="10.00" fill="#000000"> +sender</text>
</g>
<!-- Node13 -->
<g id="node13" class="node">
<title>Node13</title>
<g id="a_node13"><a xlink:href="../../df/de5/classBankable_1_1SingleAddress.html" target="_top" xlink:title=" ">
<polygon fill="#ffffff" stroke="#000000" points="895.5,-382 895.5,-461 1004.5,-461 1004.5,-382 895.5,-382"/>
<text text-anchor="middle" x="950" y="-449" font-family="Helvetica,sans-Serif" font-size="10.00" fill="#000000">SingleAddress</text>
<polyline fill="none" stroke="#000000" points="895.5,-442 1004.5,-442 "/>
<text text-anchor="middle" x="950" y="-430" font-family="Helvetica,sans-Serif" font-size="10.00" fill="#000000"> </text>
<polyline fill="none" stroke="#000000" points="895.5,-423 1004.5,-423 "/>
<text text-anchor="start" x="903.5" y="-411" font-family="Helvetica,sans-Serif" font-size="10.00" fill="#000000">+ SingleAddress()</text>
<text text-anchor="start" x="903.5" y="-400" font-family="Helvetica,sans-Serif" font-size="10.00" fill="#000000">+ getBaseAddress()</text>
<text text-anchor="start" x="903.5" y="-389" font-family="Helvetica,sans-Serif" font-size="10.00" fill="#000000">+ getActiveAddress()</text>
</a>
</g>
</g>
<!-- Node13&#45;&gt;Node2 -->
<g id="edge15" class="edge">
<title>Node13&#45;&gt;Node2</title>
<path fill="none" stroke="#404040" d="M909.6167,-381.8815C870.7948,-343.7949 811.1103,-285.2408 763.1646,-238.2032"/>
<polygon fill="none" stroke="#404040" points="762.9224,-237.9656 755.8381,-236.619 754.3564,-229.5618 761.4407,-230.9083 762.9224,-237.9656"/>
<text text-anchor="middle" x="799.5" y="-251" font-family="Helvetica,sans-Serif" font-size="10.00" fill="#000000"> &#45;address</text>
</g>
<!-- Node14 -->
<g id="node14" class="node">
<title>Node14</title>
<g id="a_node14"><a xlink:href="../../d2/d97/classOutputBankableMIDIAddress.html" target="_top" xlink:title="A base class for all MIDIOutputElements that can be banked.">
<polygon fill="#ffffff" stroke="#000000" points="870.5,-718 870.5,-797 1029.5,-797 1029.5,-718 870.5,-718"/>
<text text-anchor="middle" x="950" y="-785" font-family="Helvetica,sans-Serif" font-size="10.00" fill="#000000">OutputBankableMIDIAddress</text>
<polyline fill="none" stroke="#000000" points="870.5,-778 1029.5,-778 "/>
<text text-anchor="start" x="878.5" y="-766" font-family="Helvetica,sans-Serif" font-size="10.00" fill="#000000">&#45; type</text>
<polyline fill="none" stroke="#000000" points="870.5,-759 1029.5,-759 "/>
<text text-anchor="start" x="878.5" y="-747" font-family="Helvetica,sans-Serif" font-size="10.00" fill="#000000">+ OutputBankableMIDIAddress()</text>
<text text-anchor="start" x="878.5" y="-736" font-family="Helvetica,sans-Serif" font-size="10.00" fill="#000000">+ OutputBankableMIDIAddress()</text>
<text text-anchor="start" x="878.5" y="-725" font-family="Helvetica,sans-Serif" font-size="10.00" fill="#000000">+ getAddressOffset()</text>
</a>
</g>
</g>
<!-- Node14&#45;&gt;Node13 -->
<g id="edge16" class="edge">
<title>Node14&#45;&gt;Node13</title>
<path fill="none" stroke="#191970" d="M950,-707.654C950,-640.5603 950,-522.5464 950,-461.1412"/>
<polygon fill="none" stroke="#191970" points="946.5001,-707.9685 950,-717.9685 953.5001,-707.9685 946.5001,-707.9685"/>
</g>
<!-- Node15 -->
<g id="node15" class="node">
<title>Node15</title>
<g id="a_node15"><a xlink:href="../../d2/d4e/classOutputBankableMIDIAddress__Base.html" target="_top" xlink:title=" ">
<polygon fill="#ffffff" stroke="#000000" points="857,-982.5 857,-1094.5 1043,-1094.5 1043,-982.5 857,-982.5"/>
<text text-anchor="middle" x="950" y="-1082.5" font-family="Helvetica,sans-Serif" font-size="10.00" fill="#000000">OutputBankableMIDIAddress_Base</text>
<polyline fill="none" stroke="#000000" points="857,-1075.5 1043,-1075.5 "/>
<text text-anchor="start" x="865" y="-1063.5" font-family="Helvetica,sans-Serif" font-size="10.00" fill="#000000">&#45; lockedSetting</text>
<text text-anchor="start" x="865" y="-1052.5" font-family="Helvetica,sans-Serif" font-size="10.00" fill="#000000">&#45; UNLOCKED</text>
<polyline fill="none" stroke="#000000" points="857,-1045.5 1043,-1045.5 "/>
<text text-anchor="start" x="865" y="-1033.5" font-family="Helvetica,sans-Serif" font-size="10.00" fill="#000000">+ getRawBankSetting()</text>
<text text-anchor="start" x="865" y="-1022.5" font-family="Helvetica,sans-Serif" font-size="10.00" fill="#000000">+ getSelection()</text>
<text text-anchor="start" x="865" y="-1011.5" font-family="Helvetica,sans-Serif" font-size="10.00" fill="#000000">+ lock()</text>
<text text-anchor="start" x="865" y="-1000.5" font-family="Helvetica,sans-Serif" font-size="10.00" fill="#000000">+ unlock()</text>
<text text-anchor="start" x="865" y="-989.5" font-family="Helvetica,sans-Serif" font-size="10.00" fill="#000000"># OutputBankableMIDIAddress_Base()</text>
</a>
</g>
</g>
<!-- Node15&#45;&gt;Node14 -->
<g id="edge17" class="edge">
<title>Node15&#45;&gt;Node14</title>
<path fill="none" stroke="#191970" d="M950,-972.0765C950,-917.7402 950,-842.7024 950,-797.2783"/>
<polygon fill="none" stroke="#191970" points="946.5001,-972.3108 950,-982.3108 953.5001,-972.3109 946.5001,-972.3108"/>
</g>
<!-- Node16 -->
<g id="node16" class="node">
<title>Node16</title>
<g id="a_node16"><a xlink:href="../../d9/d36/classOutputBank.html" target="_top" xlink:title="A class for changing the address of BankableMIDIOutputs.">
<polygon fill="#ffffff" stroke="#000000" points="893.5,-1142.5 893.5,-1254.5 1006.5,-1254.5 1006.5,-1142.5 893.5,-1142.5"/>
<text text-anchor="middle" x="950" y="-1242.5" font-family="Helvetica,sans-Serif" font-size="10.00" fill="#000000">OutputBank</text>
<polyline fill="none" stroke="#000000" points="893.5,-1235.5 1006.5,-1235.5 "/>
<text text-anchor="start" x="901.5" y="-1223.5" font-family="Helvetica,sans-Serif" font-size="10.00" fill="#000000">&#45; tracksPerBank</text>
<text text-anchor="start" x="901.5" y="-1212.5" font-family="Helvetica,sans-Serif" font-size="10.00" fill="#000000">&#45; bankSetting</text>
<polyline fill="none" stroke="#000000" points="893.5,-1205.5 1006.5,-1205.5 "/>
<text text-anchor="start" x="901.5" y="-1193.5" font-family="Helvetica,sans-Serif" font-size="10.00" fill="#000000">+ OutputBank()</text>
<text text-anchor="start" x="901.5" y="-1182.5" font-family="Helvetica,sans-Serif" font-size="10.00" fill="#000000">+ select()</text>
<text text-anchor="start" x="901.5" y="-1171.5" font-family="Helvetica,sans-Serif" font-size="10.00" fill="#000000">+ getSelection()</text>
<text text-anchor="start" x="901.5" y="-1160.5" font-family="Helvetica,sans-Serif" font-size="10.00" fill="#000000">+ getTracksPerBank()</text>
<text text-anchor="start" x="901.5" y="-1149.5" font-family="Helvetica,sans-Serif" font-size="10.00" fill="#000000">+ getOffset()</text>
</a>
</g>
</g>
<!-- Node16&#45;&gt;Node15 -->
<g id="edge18" class="edge">
<title>Node16&#45;&gt;Node15</title>
<path fill="none" stroke="#404040" d="M950,-1142.09C950,-1130.6714 950,-1118.5488 950,-1106.7726"/>
<polygon fill="none" stroke="#404040" points="950.0001,-1106.6701 946,-1100.6701 950,-1094.6701 954,-1100.6701 950.0001,-1106.6701"/>
<text text-anchor="middle" x="965" y="-1116" font-family="Helvetica,sans-Serif" font-size="10.00" fill="#000000"> #bank</text>
</g>
<!-- Node17 -->
<g id="node17" class="node">
<title>Node17</title>
<g id="a_node17"><a xlink:href="../../d7/d0f/classMIDIAddress.html" target="_top" xlink:title="A type&#45;safe utility class for saving a MIDI address consisting of a 7&#45;bit address,...">
<polygon fill="#ffffff" stroke="#000000" points="1047.5,-624.5 1047.5,-890.5 1176.5,-890.5 1176.5,-624.5 1047.5,-624.5"/>
<text text-anchor="middle" x="1112" y="-878.5" font-family="Helvetica,sans-Serif" font-size="10.00" fill="#000000">MIDIAddress</text>
<polyline fill="none" stroke="#000000" points="1047.5,-871.5 1176.5,-871.5 "/>
<text text-anchor="start" x="1055.5" y="-859.5" font-family="Helvetica,sans-Serif" font-size="10.00" fill="#000000">&#45; addresses</text>
<polyline fill="none" stroke="#000000" points="1047.5,-852.5 1176.5,-852.5 "/>
<text text-anchor="start" x="1055.5" y="-840.5" font-family="Helvetica,sans-Serif" font-size="10.00" fill="#000000">* MIDIAddress()</text>
<text text-anchor="start" x="1055.5" y="-829.5" font-family="Helvetica,sans-Serif" font-size="10.00" fill="#000000">* MIDIAddress()</text>
<text text-anchor="start" x="1055.5" y="-818.5" font-family="Helvetica,sans-Serif" font-size="10.00" fill="#000000">* MIDIAddress()</text>
<text text-anchor="start" x="1055.5" y="-807.5" font-family="Helvetica,sans-Serif" font-size="10.00" fill="#000000">* MIDIAddress()</text>
<text text-anchor="start" x="1055.5" y="-796.5" font-family="Helvetica,sans-Serif" font-size="10.00" fill="#000000">* MIDIAddress()</text>
<text text-anchor="start" x="1055.5" y="-785.5" font-family="Helvetica,sans-Serif" font-size="10.00" fill="#000000">* invalid()</text>
<text text-anchor="start" x="1055.5" y="-774.5" font-family="Helvetica,sans-Serif" font-size="10.00" fill="#000000">* operator+=()</text>
<text text-anchor="start" x="1055.5" y="-763.5" font-family="Helvetica,sans-Serif" font-size="10.00" fill="#000000">* operator&#45;=()</text>
<text text-anchor="start" x="1055.5" y="-752.5" font-family="Helvetica,sans-Serif" font-size="10.00" fill="#000000">* operator+()</text>
<text text-anchor="start" x="1055.5" y="-741.5" font-family="Helvetica,sans-Serif" font-size="10.00" fill="#000000">* operator&#45;()</text>
<text text-anchor="start" x="1055.5" y="-730.5" font-family="Helvetica,sans-Serif" font-size="10.00" fill="#000000">* getAddress()</text>
<text text-anchor="start" x="1055.5" y="-719.5" font-family="Helvetica,sans-Serif" font-size="10.00" fill="#000000">* getChannel()</text>
<text text-anchor="start" x="1055.5" y="-708.5" font-family="Helvetica,sans-Serif" font-size="10.00" fill="#000000">* getRawChannel()</text>
<text text-anchor="start" x="1055.5" y="-697.5" font-family="Helvetica,sans-Serif" font-size="10.00" fill="#000000">* getCableNumber()</text>
<text text-anchor="start" x="1055.5" y="-686.5" font-family="Helvetica,sans-Serif" font-size="10.00" fill="#000000">* operator==()</text>
<text text-anchor="start" x="1055.5" y="-675.5" font-family="Helvetica,sans-Serif" font-size="10.00" fill="#000000">* operator!=()</text>
<text text-anchor="start" x="1055.5" y="-664.5" font-family="Helvetica,sans-Serif" font-size="10.00" fill="#000000">* isValid()</text>
<text text-anchor="start" x="1055.5" y="-653.5" font-family="Helvetica,sans-Serif" font-size="10.00" fill="#000000">* operator bool()</text>
<text text-anchor="start" x="1055.5" y="-642.5" font-family="Helvetica,sans-Serif" font-size="10.00" fill="#000000">* matchSingle()</text>
<text text-anchor="start" x="1055.5" y="-631.5" font-family="Helvetica,sans-Serif" font-size="10.00" fill="#000000">* matchAddressInRange()</text>
</a>
</g>
</g>
<!-- Node17&#45;&gt;Node13 -->
<g id="edge19" class="edge">
<title>Node17&#45;&gt;Node13</title>
<path fill="none" stroke="#404040" d="M1047.7406,-624.2213C1021.9823,-570.7967 993.8623,-512.4736 974.4248,-472.1588"/>
<polygon fill="none" stroke="#404040" points="974.3935,-472.0938 968.1846,-468.4264 969.1819,-461.2846 975.3908,-464.952 974.3935,-472.0938"/>
<text text-anchor="middle" x="1056.5" y="-592.5" font-family="Helvetica,sans-Serif" font-size="10.00" fill="#000000"> &#45;address</text>
</g>
</g>
</svg>
