<?xml version="1.0" encoding="UTF-8" standalone="no"?>
<!DOCTYPE svg PUBLIC "-//W3C//DTD SVG 1.1//EN"
 "http://www.w3.org/Graphics/SVG/1.1/DTD/svg11.dtd">
<!-- Generated by graphviz version 2.40.1 (20161225.0304)
 -->
<!-- Title: USBMIDI_Parser Pages: 1 -->
<svg width="129pt" height="303pt"
 viewBox="0.00 0.00 129.00 303.00" xmlns="http://www.w3.org/2000/svg" xmlns:xlink="http://www.w3.org/1999/xlink">
<g id="graph0" class="graph" transform="scale(1 1) rotate(0) translate(4 299)">
<title>USBMIDI_Parser</title>
<polygon fill="#ffffff" stroke="transparent" points="-4,4 -4,-299 125,-299 125,4 -4,4"/>
<!-- Node1 -->
<g id="node1" class="node">
<title>Node1</title>
<g id="a_node1"><a xlink:title=" ">
<polygon fill="#bfbfbf" stroke="#000000" points="11,-.5 11,-134.5 110,-134.5 110,-.5 11,-.5"/>
<text text-anchor="middle" x="60.5" y="-122.5" font-family="Helvetica,sans-Serif" font-size="10.00" fill="#000000">USBMIDI_Parser</text>
<polyline fill="none" stroke="#000000" points="11,-115.5 110,-115.5 "/>
<text text-anchor="start" x="19" y="-103.5" font-family="Helvetica,sans-Serif" font-size="10.00" fill="#000000"># CN</text>
<text text-anchor="start" x="19" y="-92.5" font-family="Helvetica,sans-Serif" font-size="10.00" fill="#000000">&#45; sysexbuffers</text>
<polyline fill="none" stroke="#000000" points="11,-85.5 110,-85.5 "/>
<text text-anchor="start" x="19" y="-73.5" font-family="Helvetica,sans-Serif" font-size="10.00" fill="#000000">+ parse()</text>
<text text-anchor="start" x="19" y="-62.5" font-family="Helvetica,sans-Serif" font-size="10.00" fill="#000000">+ getSysEx()</text>
<text text-anchor="start" x="19" y="-51.5" font-family="Helvetica,sans-Serif" font-size="10.00" fill="#000000">+ getCN()</text>
<text text-anchor="start" x="19" y="-40.5" font-family="Helvetica,sans-Serif" font-size="10.00" fill="#000000"># startSysEx()</text>
<text text-anchor="start" x="19" y="-29.5" font-family="Helvetica,sans-Serif" font-size="10.00" fill="#000000"># endSysEx()</text>
<text text-anchor="start" x="19" y="-18.5" font-family="Helvetica,sans-Serif" font-size="10.00" fill="#000000"># addSysExByte()</text>
<text text-anchor="start" x="19" y="-7.5" font-family="Helvetica,sans-Serif" font-size="10.00" fill="#000000"># receivingSysEx()</text>
</a>
</g>
</g>
<!-- Node2 -->
<g id="node2" class="node">
<title>Node2</title>
<g id="a_node2"><a xlink:href="../../df/d0c/classMIDI__Parser.html" target="_top" xlink:title=" ">
<polygon fill="#ffffff" stroke="#000000" points="0,-171.5 0,-294.5 121,-294.5 121,-171.5 0,-171.5"/>
<text text-anchor="middle" x="60.5" y="-282.5" font-family="Helvetica,sans-Serif" font-size="10.00" fill="#000000">MIDI_Parser</text>
<polyline fill="none" stroke="#000000" points="0,-275.5 121,-275.5 "/>
<text text-anchor="start" x="8" y="-263.5" font-family="Helvetica,sans-Serif" font-size="10.00" fill="#000000"># midimsg</text>
<polyline fill="none" stroke="#000000" points="0,-256.5 121,-256.5 "/>
<text text-anchor="start" x="8" y="-244.5" font-family="Helvetica,sans-Serif" font-size="10.00" fill="#000000">+ getChannelMessage()</text>
<text text-anchor="start" x="8" y="-233.5" font-family="Helvetica,sans-Serif" font-size="10.00" fill="#000000">+ getSysEx()</text>
<text text-anchor="start" x="8" y="-222.5" font-family="Helvetica,sans-Serif" font-size="10.00" fill="#000000">+ getSysExBuffer()</text>
<text text-anchor="start" x="8" y="-211.5" font-family="Helvetica,sans-Serif" font-size="10.00" fill="#000000">+ getSysExLength()</text>
<text text-anchor="start" x="8" y="-200.5" font-family="Helvetica,sans-Serif" font-size="10.00" fill="#000000">+ getCN()</text>
<text text-anchor="start" x="8" y="-189.5" font-family="Helvetica,sans-Serif" font-size="10.00" fill="#000000">+ isStatus()</text>
<text text-anchor="start" x="8" y="-178.5" font-family="Helvetica,sans-Serif" font-size="10.00" fill="#000000">+ isData()</text>
</a>
</g>
</g>
<!-- Node2&#45;&gt;Node1 -->
<g id="edge1" class="edge">
<title>Node2&#45;&gt;Node1</title>
<path fill="none" stroke="#191970" d="M60.5,-161.1682C60.5,-152.3885 60.5,-143.4419 60.5,-134.7332"/>
<polygon fill="none" stroke="#191970" points="57.0001,-161.3739 60.5,-171.3739 64.0001,-161.3739 57.0001,-161.3739"/>
</g>
</g>
</svg>
