<?xml version="1.0" encoding="UTF-8" standalone="no"?>
<!DOCTYPE svg PUBLIC "-//W3C//DTD SVG 1.1//EN"
 "http://www.w3.org/Graphics/SVG/1.1/DTD/svg11.dtd">
<!-- Generated by graphviz version 2.43.0 (0)
 -->
<!-- Title: CCRangeFastLED&lt; RangeLen, ColorMapper &gt; Pages: 1 -->
<svg width="745pt" height="1363pt"
 viewBox="0.00 0.00 744.50 1363.00" xmlns="http://www.w3.org/2000/svg" xmlns:xlink="http://www.w3.org/1999/xlink">
<g id="graph0" class="graph" transform="scale(1 1) rotate(0) translate(4 1359)">
<title>CCRangeFastLED&lt; RangeLen, ColorMapper &gt;</title>
<polygon fill="white" stroke="transparent" points="-4,4 -4,-1359 740.5,-1359 740.5,4 -4,4"/>
<!-- Node1 -->
<g id="node1" class="node">
<title>Node1</title>
<g id="a_node1"><a xlink:title=" ">
<polygon fill="#bfbfbf" stroke="black" points="380.5,-0.5 380.5,-112.5 541.5,-112.5 541.5,-0.5 380.5,-0.5"/>
<text text-anchor="start" x="388.5" y="-100.5" font-family="Helvetica,sans-Serif" font-size="10.00">CCRangeFastLED&lt; RangeLen,</text>
<text text-anchor="middle" x="461" y="-89.5" font-family="Helvetica,sans-Serif" font-size="10.00"> ColorMapper &gt;</text>
<polyline fill="none" stroke="black" points="380.5,-82.5 541.5,-82.5 "/>
<text text-anchor="middle" x="461" y="-70.5" font-family="Helvetica,sans-Serif" font-size="10.00"> </text>
<polyline fill="none" stroke="black" points="380.5,-63.5 541.5,-63.5 "/>
<text text-anchor="start" x="388.5" y="-51.5" font-family="Helvetica,sans-Serif" font-size="10.00">+ CCRangeFastLED()</text>
<text text-anchor="start" x="388.5" y="-40.5" font-family="Helvetica,sans-Serif" font-size="10.00">+ CCRangeFastLED()</text>
<text text-anchor="start" x="388.5" y="-29.5" font-family="Helvetica,sans-Serif" font-size="10.00">+ setBrightness()</text>
<text text-anchor="start" x="388.5" y="-18.5" font-family="Helvetica,sans-Serif" font-size="10.00">+ getBrightness()</text>
<text text-anchor="start" x="388.5" y="-7.5" font-family="Helvetica,sans-Serif" font-size="10.00">+ setLEDIndexPermuter()</text>
</a>
</g>
</g>
<!-- Node2 -->
<g id="node2" class="node">
<title>Node2</title>
<g id="a_node2"><a xlink:href="../../d5/d80/classGenericNoteCCRange.html" target="_top" xlink:title=" ">
<polygon fill="white" stroke="black" points="365.5,-150.5 365.5,-251.5 556.5,-251.5 556.5,-150.5 365.5,-150.5"/>
<text text-anchor="start" x="373.5" y="-239.5" font-family="Helvetica,sans-Serif" font-size="10.00">GenericNoteCCRange</text>
<text text-anchor="start" x="373.5" y="-228.5" font-family="Helvetica,sans-Serif" font-size="10.00">&lt; MIDIInputElementCC,</text>
<text text-anchor="start" x="373.5" y="-217.5" font-family="Helvetica,sans-Serif" font-size="10.00"> RangeLen, NoteCCFastLEDCallback</text>
<text text-anchor="middle" x="461" y="-206.5" font-family="Helvetica,sans-Serif" font-size="10.00">&lt; DefaultColorMapper &gt; &gt;</text>
<polyline fill="none" stroke="black" points="365.5,-199.5 556.5,-199.5 "/>
<text text-anchor="middle" x="461" y="-187.5" font-family="Helvetica,sans-Serif" font-size="10.00"> </text>
<polyline fill="none" stroke="black" points="365.5,-180.5 556.5,-180.5 "/>
<text text-anchor="start" x="373.5" y="-168.5" font-family="Helvetica,sans-Serif" font-size="10.00">+ GenericNoteCCRange()</text>
<text text-anchor="start" x="373.5" y="-157.5" font-family="Helvetica,sans-Serif" font-size="10.00">&#45; match()</text>
</a>
</g>
</g>
<!-- Node2&#45;&gt;Node1 -->
<g id="edge1" class="edge">
<title>Node2&#45;&gt;Node1</title>
<path fill="none" stroke="midnightblue" d="M461,-140.11C461,-131.1 461,-121.83 461,-112.91"/>
<polygon fill="none" stroke="midnightblue" points="457.5,-140.16 461,-150.16 464.5,-140.16 457.5,-140.16"/>
</g>
<!-- Node3 -->
<g id="node3" class="node">
<title>Node3</title>
<g id="a_node3"><a xlink:href="../../d2/df4/classNoteCCRange.html" target="_top" xlink:title=" ">
<polygon fill="white" stroke="black" points="351.5,-339 351.5,-539 570.5,-539 570.5,-339 351.5,-339"/>
<text text-anchor="start" x="359.5" y="-527" font-family="Helvetica,sans-Serif" font-size="10.00">NoteCCRange&lt; MIDIInputElement</text>
<text text-anchor="start" x="359.5" y="-516" font-family="Helvetica,sans-Serif" font-size="10.00">CC, RangeLen, 1, NoteCCFastLEDCallback</text>
<text text-anchor="middle" x="461" y="-505" font-family="Helvetica,sans-Serif" font-size="10.00">&lt; DefaultColorMapper &gt; &gt;</text>
<polyline fill="none" stroke="black" points="351.5,-498 570.5,-498 "/>
<text text-anchor="middle" x="461" y="-486" font-family="Helvetica,sans-Serif" font-size="10.00"> </text>
<polyline fill="none" stroke="black" points="351.5,-479 570.5,-479 "/>
<text text-anchor="start" x="359.5" y="-467" font-family="Helvetica,sans-Serif" font-size="10.00">+ NoteCCRange()</text>
<text text-anchor="start" x="359.5" y="-456" font-family="Helvetica,sans-Serif" font-size="10.00">+ getValue()</text>
<text text-anchor="start" x="359.5" y="-445" font-family="Helvetica,sans-Serif" font-size="10.00">+ getValue()</text>
<text text-anchor="start" x="359.5" y="-434" font-family="Helvetica,sans-Serif" font-size="10.00">+ getValue()</text>
<text text-anchor="start" x="359.5" y="-423" font-family="Helvetica,sans-Serif" font-size="10.00">+ begin()</text>
<text text-anchor="start" x="359.5" y="-412" font-family="Helvetica,sans-Serif" font-size="10.00">+ reset()</text>
<text text-anchor="start" x="359.5" y="-401" font-family="Helvetica,sans-Serif" font-size="10.00">+ length()</text>
<text text-anchor="start" x="359.5" y="-390" font-family="Helvetica,sans-Serif" font-size="10.00">&#45; updateImpl()</text>
<text text-anchor="start" x="359.5" y="-379" font-family="Helvetica,sans-Serif" font-size="10.00">&#45; getSelection()</text>
<text text-anchor="start" x="359.5" y="-368" font-family="Helvetica,sans-Serif" font-size="10.00">&#45; getBankIndex()</text>
<text text-anchor="start" x="359.5" y="-357" font-family="Helvetica,sans-Serif" font-size="10.00">&#45; getRangeIndex()</text>
<text text-anchor="start" x="359.5" y="-346" font-family="Helvetica,sans-Serif" font-size="10.00">&#45; getValueFromMIDIMessage()</text>
</a>
</g>
</g>
<!-- Node3&#45;&gt;Node2 -->
<g id="edge2" class="edge">
<title>Node3&#45;&gt;Node2</title>
<path fill="none" stroke="midnightblue" d="M461,-328.64C461,-301.66 461,-274.08 461,-251.57"/>
<polygon fill="none" stroke="midnightblue" points="457.5,-328.94 461,-338.94 464.5,-328.94 457.5,-328.94"/>
</g>
<!-- Node4 -->
<g id="node4" class="node">
<title>Node4</title>
<g id="a_node4"><a xlink:href="../../d3/d96/classMIDIInputElementCC.html" target="_top" xlink:title="Class for objects that listen for incoming MIDI Controller Change events.">
<polygon fill="white" stroke="black" points="121.5,-680.5 121.5,-803.5 266.5,-803.5 266.5,-680.5 121.5,-680.5"/>
<text text-anchor="middle" x="194" y="-791.5" font-family="Helvetica,sans-Serif" font-size="10.00">MIDIInputElementCC</text>
<polyline fill="none" stroke="black" points="121.5,-784.5 266.5,-784.5 "/>
<text text-anchor="middle" x="194" y="-772.5" font-family="Helvetica,sans-Serif" font-size="10.00"> </text>
<polyline fill="none" stroke="black" points="121.5,-765.5 266.5,-765.5 "/>
<text text-anchor="start" x="129.5" y="-753.5" font-family="Helvetica,sans-Serif" font-size="10.00">+ MIDIInputElementCC()</text>
<text text-anchor="start" x="129.5" y="-742.5" font-family="Helvetica,sans-Serif" font-size="10.00">+ ~MIDIInputElementCC()</text>
<text text-anchor="start" x="129.5" y="-731.5" font-family="Helvetica,sans-Serif" font-size="10.00">+ beginAll()</text>
<text text-anchor="start" x="129.5" y="-720.5" font-family="Helvetica,sans-Serif" font-size="10.00">+ updateAll()</text>
<text text-anchor="start" x="129.5" y="-709.5" font-family="Helvetica,sans-Serif" font-size="10.00">+ resetAll()</text>
<text text-anchor="start" x="129.5" y="-698.5" font-family="Helvetica,sans-Serif" font-size="10.00">+ updateAllWith()</text>
<text text-anchor="start" x="129.5" y="-687.5" font-family="Helvetica,sans-Serif" font-size="10.00">&#45; moveDown()</text>
</a>
</g>
</g>
<!-- Node4&#45;&gt;Node3 -->
<g id="edge3" class="edge">
<title>Node4&#45;&gt;Node3</title>
<path fill="none" stroke="midnightblue" d="M252.42,-672.78C260.25,-664.01 268.25,-655.23 276,-647 301.22,-620.24 309.99,-615.96 335,-589 349.63,-573.23 364.76,-556.12 379.23,-539.29"/>
<polygon fill="none" stroke="midnightblue" points="249.62,-670.66 245.6,-680.46 254.85,-675.31 249.62,-670.66"/>
</g>
<!-- Node7 -->
<g id="node7" class="node">
<title>Node7</title>
<g id="a_node7"><a xlink:href="../../d4/d23/classDoublyLinkable.html" target="_top" xlink:title=" ">
<polygon fill="white" stroke="black" points="0,-405 0,-473 150,-473 150,-405 0,-405"/>
<text text-anchor="start" x="8" y="-461" font-family="Helvetica,sans-Serif" font-size="10.00">DoublyLinkable&lt; MIDIInput</text>
<text text-anchor="middle" x="75" y="-450" font-family="Helvetica,sans-Serif" font-size="10.00">ElementCC &gt;</text>
<polyline fill="none" stroke="black" points="0,-443 150,-443 "/>
<text text-anchor="middle" x="75" y="-431" font-family="Helvetica,sans-Serif" font-size="10.00"> </text>
<polyline fill="none" stroke="black" points="0,-424 150,-424 "/>
<text text-anchor="start" x="8" y="-412" font-family="Helvetica,sans-Serif" font-size="10.00"># ~DoublyLinkable()</text>
</a>
</g>
</g>
<!-- Node4&#45;&gt;Node7 -->
<g id="edge7" class="edge">
<title>Node4&#45;&gt;Node7</title>
<path fill="none" stroke="#404040" d="M121.58,-680.21C107.8,-664.97 95.15,-647.6 87,-629 66.88,-583.08 66.47,-524.8 69.43,-485.18"/>
<polygon fill="none" stroke="#404040" points="69.45,-484.97 65.98,-478.65 70.49,-473.01 73.95,-479.34 69.45,-484.97"/>
<text text-anchor="middle" x="112.5" y="-621" font-family="Helvetica,sans-Serif" font-size="10.00"> #next</text>
<text text-anchor="middle" x="112.5" y="-610" font-family="Helvetica,sans-Serif" font-size="10.00">#previous</text>
</g>
<!-- Node8 -->
<g id="node8" class="node">
<title>Node8</title>
<g id="a_node8"><a xlink:href="../../dd/d16/classDoublyLinkedList.html" target="_top" xlink:title=" ">
<polygon fill="white" stroke="black" points="168,-289.5 168,-588.5 326,-588.5 326,-289.5 168,-289.5"/>
<text text-anchor="start" x="176" y="-576.5" font-family="Helvetica,sans-Serif" font-size="10.00">DoublyLinkedList&lt; MIDIInput</text>
<text text-anchor="middle" x="247" y="-565.5" font-family="Helvetica,sans-Serif" font-size="10.00">ElementCC &gt;</text>
<polyline fill="none" stroke="black" points="168,-558.5 326,-558.5 "/>
<text text-anchor="middle" x="247" y="-546.5" font-family="Helvetica,sans-Serif" font-size="10.00"> </text>
<polyline fill="none" stroke="black" points="168,-539.5 326,-539.5 "/>
<text text-anchor="start" x="176" y="-527.5" font-family="Helvetica,sans-Serif" font-size="10.00">+ append()</text>
<text text-anchor="start" x="176" y="-516.5" font-family="Helvetica,sans-Serif" font-size="10.00">+ append()</text>
<text text-anchor="start" x="176" y="-505.5" font-family="Helvetica,sans-Serif" font-size="10.00">+ insertBefore()</text>
<text text-anchor="start" x="176" y="-494.5" font-family="Helvetica,sans-Serif" font-size="10.00">+ insertBefore()</text>
<text text-anchor="start" x="176" y="-483.5" font-family="Helvetica,sans-Serif" font-size="10.00">+ insertSorted()</text>
<text text-anchor="start" x="176" y="-472.5" font-family="Helvetica,sans-Serif" font-size="10.00">+ insertSorted()</text>
<text text-anchor="start" x="176" y="-461.5" font-family="Helvetica,sans-Serif" font-size="10.00">+ remove()</text>
<text text-anchor="start" x="176" y="-450.5" font-family="Helvetica,sans-Serif" font-size="10.00">+ remove()</text>
<text text-anchor="start" x="176" y="-439.5" font-family="Helvetica,sans-Serif" font-size="10.00">+ moveDown()</text>
<text text-anchor="start" x="176" y="-428.5" font-family="Helvetica,sans-Serif" font-size="10.00">+ moveDown()</text>
<text text-anchor="start" x="176" y="-417.5" font-family="Helvetica,sans-Serif" font-size="10.00">+ couldContain()</text>
<text text-anchor="start" x="176" y="-406.5" font-family="Helvetica,sans-Serif" font-size="10.00">+ couldContain()</text>
<text text-anchor="start" x="176" y="-395.5" font-family="Helvetica,sans-Serif" font-size="10.00">+ begin()</text>
<text text-anchor="start" x="176" y="-384.5" font-family="Helvetica,sans-Serif" font-size="10.00">+ begin()</text>
<text text-anchor="start" x="176" y="-373.5" font-family="Helvetica,sans-Serif" font-size="10.00">+ end()</text>
<text text-anchor="start" x="176" y="-362.5" font-family="Helvetica,sans-Serif" font-size="10.00">+ end()</text>
<text text-anchor="start" x="176" y="-351.5" font-family="Helvetica,sans-Serif" font-size="10.00">+ rbegin()</text>
<text text-anchor="start" x="176" y="-340.5" font-family="Helvetica,sans-Serif" font-size="10.00">+ rbegin()</text>
<text text-anchor="start" x="176" y="-329.5" font-family="Helvetica,sans-Serif" font-size="10.00">+ rend()</text>
<text text-anchor="start" x="176" y="-318.5" font-family="Helvetica,sans-Serif" font-size="10.00">+ rend()</text>
<text text-anchor="start" x="176" y="-307.5" font-family="Helvetica,sans-Serif" font-size="10.00">+ getFirst()</text>
<text text-anchor="start" x="176" y="-296.5" font-family="Helvetica,sans-Serif" font-size="10.00">+ getLast()</text>
</a>
</g>
</g>
<!-- Node4&#45;&gt;Node8 -->
<g id="edge9" class="edge">
<title>Node4&#45;&gt;Node8</title>
<path fill="none" stroke="#404040" d="M192.72,-680.26C192.42,-663.64 192.15,-645.63 192,-629 191.91,-619.22 190.45,-616.65 192,-607 192.33,-604.93 192.69,-602.85 193.06,-600.76"/>
<polygon fill="none" stroke="#404040" points="193.11,-600.51 190.34,-593.85 195.42,-588.73 198.19,-595.39 193.11,-600.51"/>
<text text-anchor="middle" x="204.5" y="-621" font-family="Helvetica,sans-Serif" font-size="10.00"> &#45;last</text>
<text text-anchor="middle" x="204.5" y="-610" font-family="Helvetica,sans-Serif" font-size="10.00">&#45;first</text>
</g>
<!-- Node5 -->
<g id="node5" class="node">
<title>Node5</title>
<g id="a_node5"><a xlink:href="../../d9/db1/classMIDIInputElement.html" target="_top" xlink:title="A class for objects that listen for incoming MIDI events.">
<polygon fill="white" stroke="black" points="128.5,-884.5 128.5,-1040.5 259.5,-1040.5 259.5,-884.5 128.5,-884.5"/>
<text text-anchor="middle" x="194" y="-1028.5" font-family="Helvetica,sans-Serif" font-size="10.00">MIDIInputElement</text>
<polyline fill="none" stroke="black" points="128.5,-1021.5 259.5,-1021.5 "/>
<text text-anchor="middle" x="194" y="-1009.5" font-family="Helvetica,sans-Serif" font-size="10.00"> </text>
<polyline fill="none" stroke="black" points="128.5,-1002.5 259.5,-1002.5 "/>
<text text-anchor="start" x="136.5" y="-990.5" font-family="Helvetica,sans-Serif" font-size="10.00">+ ~MIDIInputElement()</text>
<text text-anchor="start" x="136.5" y="-979.5" font-family="Helvetica,sans-Serif" font-size="10.00">+ begin()</text>
<text text-anchor="start" x="136.5" y="-968.5" font-family="Helvetica,sans-Serif" font-size="10.00">+ reset()</text>
<text text-anchor="start" x="136.5" y="-957.5" font-family="Helvetica,sans-Serif" font-size="10.00">+ update()</text>
<text text-anchor="start" x="136.5" y="-946.5" font-family="Helvetica,sans-Serif" font-size="10.00">+ updateWith()</text>
<text text-anchor="start" x="136.5" y="-935.5" font-family="Helvetica,sans-Serif" font-size="10.00"># MIDIInputElement()</text>
<text text-anchor="start" x="136.5" y="-924.5" font-family="Helvetica,sans-Serif" font-size="10.00"># MIDIInputElement()</text>
<text text-anchor="start" x="136.5" y="-913.5" font-family="Helvetica,sans-Serif" font-size="10.00">&#45; updateImpl()</text>
<text text-anchor="start" x="136.5" y="-902.5" font-family="Helvetica,sans-Serif" font-size="10.00">&#45; getTarget()</text>
<text text-anchor="start" x="136.5" y="-891.5" font-family="Helvetica,sans-Serif" font-size="10.00">&#45; match()</text>
</a>
</g>
</g>
<!-- Node5&#45;&gt;Node4 -->
<g id="edge4" class="edge">
<title>Node5&#45;&gt;Node4</title>
<path fill="none" stroke="midnightblue" d="M194,-874.4C194,-850.66 194,-825.47 194,-803.57"/>
<polygon fill="none" stroke="midnightblue" points="190.5,-874.47 194,-884.47 197.5,-874.47 190.5,-874.47"/>
</g>
<!-- Node6 -->
<g id="node6" class="node">
<title>Node6</title>
<g id="a_node6"><a xlink:href="../../d7/d0f/classMIDIAddress.html" target="_top" xlink:title="A type&#45;safe utility class for saving a MIDI address consisting of a 7&#45;bit address,...">
<polygon fill="white" stroke="black" points="123,-1088.5 123,-1354.5 265,-1354.5 265,-1088.5 123,-1088.5"/>
<text text-anchor="middle" x="194" y="-1342.5" font-family="Helvetica,sans-Serif" font-size="10.00">MIDIAddress</text>
<polyline fill="none" stroke="black" points="123,-1335.5 265,-1335.5 "/>
<text text-anchor="start" x="131" y="-1323.5" font-family="Helvetica,sans-Serif" font-size="10.00">&#45; addresses</text>
<polyline fill="none" stroke="black" points="123,-1316.5 265,-1316.5 "/>
<text text-anchor="start" x="131" y="-1304.5" font-family="Helvetica,sans-Serif" font-size="10.00">* MIDIAddress()</text>
<text text-anchor="start" x="131" y="-1293.5" font-family="Helvetica,sans-Serif" font-size="10.00">* MIDIAddress()</text>
<text text-anchor="start" x="131" y="-1282.5" font-family="Helvetica,sans-Serif" font-size="10.00">* MIDIAddress()</text>
<text text-anchor="start" x="131" y="-1271.5" font-family="Helvetica,sans-Serif" font-size="10.00">* MIDIAddress()</text>
<text text-anchor="start" x="131" y="-1260.5" font-family="Helvetica,sans-Serif" font-size="10.00">* MIDIAddress()</text>
<text text-anchor="start" x="131" y="-1249.5" font-family="Helvetica,sans-Serif" font-size="10.00">* invalid()</text>
<text text-anchor="start" x="131" y="-1238.5" font-family="Helvetica,sans-Serif" font-size="10.00">* operator+=()</text>
<text text-anchor="start" x="131" y="-1227.5" font-family="Helvetica,sans-Serif" font-size="10.00">* operator&#45;=()</text>
<text text-anchor="start" x="131" y="-1216.5" font-family="Helvetica,sans-Serif" font-size="10.00">* operator+()</text>
<text text-anchor="start" x="131" y="-1205.5" font-family="Helvetica,sans-Serif" font-size="10.00">* operator&#45;()</text>
<text text-anchor="start" x="131" y="-1194.5" font-family="Helvetica,sans-Serif" font-size="10.00">* getAddress()</text>
<text text-anchor="start" x="131" y="-1183.5" font-family="Helvetica,sans-Serif" font-size="10.00">* getChannel()</text>
<text text-anchor="start" x="131" y="-1172.5" font-family="Helvetica,sans-Serif" font-size="10.00">* getRawChannel()</text>
<text text-anchor="start" x="131" y="-1161.5" font-family="Helvetica,sans-Serif" font-size="10.00">* getCableNumber()</text>
<text text-anchor="start" x="131" y="-1150.5" font-family="Helvetica,sans-Serif" font-size="10.00">* operator==()</text>
<text text-anchor="start" x="131" y="-1139.5" font-family="Helvetica,sans-Serif" font-size="10.00">* operator!=()</text>
<text text-anchor="start" x="131" y="-1128.5" font-family="Helvetica,sans-Serif" font-size="10.00">* isValid()</text>
<text text-anchor="start" x="131" y="-1117.5" font-family="Helvetica,sans-Serif" font-size="10.00">* operator bool()</text>
<text text-anchor="start" x="131" y="-1106.5" font-family="Helvetica,sans-Serif" font-size="10.00">* matchSingle()</text>
<text text-anchor="start" x="131" y="-1095.5" font-family="Helvetica,sans-Serif" font-size="10.00">* matchAddressInRange()</text>
</a>
</g>
</g>
<!-- Node6&#45;&gt;Node5 -->
<g id="edge5" class="edge">
<title>Node6&#45;&gt;Node5</title>
<path fill="none" stroke="#404040" d="M194,-1088.24C194,-1076.31 194,-1064.43 194,-1053.01"/>
<polygon fill="none" stroke="#404040" points="194,-1052.81 190,-1046.81 194,-1040.81 198,-1046.81 194,-1052.81"/>
<text text-anchor="middle" x="219" y="-1062" font-family="Helvetica,sans-Serif" font-size="10.00"> #address</text>
</g>
<!-- Node7&#45;&gt;Node4 -->
<g id="edge6" class="edge">
<title>Node7&#45;&gt;Node4</title>
<path fill="none" stroke="midnightblue" d="M92.31,-482.76C105.92,-516.47 125.3,-564.68 142,-607 151.43,-630.91 161.7,-657.27 170.59,-680.24"/>
<polygon fill="none" stroke="midnightblue" points="95.45,-481.19 88.46,-473.23 88.96,-483.81 95.45,-481.19"/>
</g>
<!-- Node8&#45;&gt;Node4 -->
<g id="edge8" class="edge">
<title>Node8&#45;&gt;Node4</title>
<path fill="none" stroke="#404040" d="M228,-588.54C225.81,-602.25 223.47,-615.9 221,-629 218.57,-641.87 215.62,-655.48 212.57,-668.61"/>
<polygon fill="none" stroke="#404040" points="212.52,-668.82 215.03,-675.58 209.75,-680.5 207.24,-673.74 212.52,-668.82"/>
<text text-anchor="middle" x="251.5" y="-615.5" font-family="Helvetica,sans-Serif" font-size="10.00"> &#45;elements</text>
</g>
<!-- Node9 -->
<g id="node9" class="node">
<title>Node9</title>
<g id="a_node9"><a xlink:href="../../d7/dab/classINoteCCValue.html" target="_top" xlink:title="Interface for NoteCCValue objects: provides getters for the velocity or controller values.">
<polygon fill="white" stroke="black" points="285,-697 285,-787 387,-787 387,-697 285,-697"/>
<text text-anchor="middle" x="336" y="-775" font-family="Helvetica,sans-Serif" font-size="10.00">INoteCCValue</text>
<polyline fill="none" stroke="black" points="285,-768 387,-768 "/>
<text text-anchor="start" x="293" y="-756" font-family="Helvetica,sans-Serif" font-size="10.00">&#45; rangeLength</text>
<polyline fill="none" stroke="black" points="285,-749 387,-749 "/>
<text text-anchor="start" x="293" y="-737" font-family="Helvetica,sans-Serif" font-size="10.00">+ length()</text>
<text text-anchor="start" x="293" y="-726" font-family="Helvetica,sans-Serif" font-size="10.00">+ getValue()</text>
<text text-anchor="start" x="293" y="-715" font-family="Helvetica,sans-Serif" font-size="10.00">+ getValue()</text>
<text text-anchor="start" x="293" y="-704" font-family="Helvetica,sans-Serif" font-size="10.00"># INoteCCValue()</text>
</a>
</g>
</g>
<!-- Node9&#45;&gt;Node3 -->
<g id="edge10" class="edge">
<title>Node9&#45;&gt;Node3</title>
<path fill="none" stroke="midnightblue" d="M358.16,-687.64C375.2,-646.62 399.21,-588.78 419.76,-539.31"/>
<polygon fill="none" stroke="midnightblue" points="354.91,-686.33 354.31,-696.91 361.38,-689.02 354.91,-686.33"/>
</g>
<!-- Node10 -->
<g id="node10" class="node">
<title>Node10</title>
<g id="a_node10"><a xlink:href="../../d8/d80/classNoteCCFastLEDCallback.html" target="_top" xlink:title=" ">
<polygon fill="white" stroke="black" points="405,-658.5 405,-825.5 557,-825.5 557,-658.5 405,-658.5"/>
<text text-anchor="start" x="413" y="-813.5" font-family="Helvetica,sans-Serif" font-size="10.00">NoteCCFastLEDCallback</text>
<text text-anchor="middle" x="481" y="-802.5" font-family="Helvetica,sans-Serif" font-size="10.00">&lt; DefaultColorMapper &gt;</text>
<polyline fill="none" stroke="black" points="405,-795.5 557,-795.5 "/>
<text text-anchor="start" x="413" y="-783.5" font-family="Helvetica,sans-Serif" font-size="10.00">&#45; ledcolors</text>
<text text-anchor="start" x="413" y="-772.5" font-family="Helvetica,sans-Serif" font-size="10.00">&#45; brightness</text>
<text text-anchor="start" x="413" y="-761.5" font-family="Helvetica,sans-Serif" font-size="10.00">&#45; ledIndexPermuter</text>
<polyline fill="none" stroke="black" points="405,-754.5 557,-754.5 "/>
<text text-anchor="start" x="413" y="-742.5" font-family="Helvetica,sans-Serif" font-size="10.00">+ NoteCCFastLEDCallback()</text>
<text text-anchor="start" x="413" y="-731.5" font-family="Helvetica,sans-Serif" font-size="10.00">+ NoteCCFastLEDCallback()</text>
<text text-anchor="start" x="413" y="-720.5" font-family="Helvetica,sans-Serif" font-size="10.00">+ setBrightness()</text>
<text text-anchor="start" x="413" y="-709.5" font-family="Helvetica,sans-Serif" font-size="10.00">+ getBrightness()</text>
<text text-anchor="start" x="413" y="-698.5" font-family="Helvetica,sans-Serif" font-size="10.00">+ setLEDIndexPermuter()</text>
<text text-anchor="start" x="413" y="-687.5" font-family="Helvetica,sans-Serif" font-size="10.00">+ begin()</text>
<text text-anchor="start" x="413" y="-676.5" font-family="Helvetica,sans-Serif" font-size="10.00">+ update()</text>
<text text-anchor="start" x="413" y="-665.5" font-family="Helvetica,sans-Serif" font-size="10.00">&#45; identityPermuter()</text>
</a>
</g>
</g>
<!-- Node10&#45;&gt;Node3 -->
<g id="edge11" class="edge">
<title>Node10&#45;&gt;Node3</title>
<path fill="none" stroke="#404040" d="M475.51,-658.35C473.32,-625.35 470.76,-586.84 468.4,-551.43"/>
<polygon fill="none" stroke="#404040" points="468.38,-551.02 463.99,-545.3 467.58,-539.04 471.97,-544.77 468.38,-551.02"/>
<text text-anchor="middle" x="500" y="-615.5" font-family="Helvetica,sans-Serif" font-size="10.00"> +callback</text>
</g>
<!-- Node11 -->
<g id="node11" class="node">
<title>Node11</title>
<g id="a_node11"><a xlink:href="../../de/d07/structSimpleNoteCCValueCallback.html" target="_top" xlink:title="A callback for NoteCCRange with an action that can be implemented by the user.">
<polygon fill="white" stroke="black" points="335.5,-917.5 335.5,-1007.5 510.5,-1007.5 510.5,-917.5 335.5,-917.5"/>
<text text-anchor="middle" x="423" y="-995.5" font-family="Helvetica,sans-Serif" font-size="10.00">SimpleNoteCCValueCallback</text>
<polyline fill="none" stroke="black" points="335.5,-988.5 510.5,-988.5 "/>
<text text-anchor="middle" x="423" y="-976.5" font-family="Helvetica,sans-Serif" font-size="10.00"> </text>
<polyline fill="none" stroke="black" points="335.5,-969.5 510.5,-969.5 "/>
<text text-anchor="start" x="343.5" y="-957.5" font-family="Helvetica,sans-Serif" font-size="10.00">+ begin()</text>
<text text-anchor="start" x="343.5" y="-946.5" font-family="Helvetica,sans-Serif" font-size="10.00">+ update()</text>
<text text-anchor="start" x="343.5" y="-935.5" font-family="Helvetica,sans-Serif" font-size="10.00">+ updateAll()</text>
<text text-anchor="start" x="343.5" y="-924.5" font-family="Helvetica,sans-Serif" font-size="10.00"># SimpleNoteCCValueCallback()</text>
</a>
</g>
</g>
<!-- Node11&#45;&gt;Node10 -->
<g id="edge12" class="edge">
<title>Node11&#45;&gt;Node10</title>
<path fill="none" stroke="midnightblue" d="M437.36,-907.4C443.91,-882.73 451.81,-852.98 459.07,-825.6"/>
<polygon fill="none" stroke="midnightblue" points="433.92,-906.72 434.74,-917.28 440.69,-908.52 433.92,-906.72"/>
</g>
<!-- Node12 -->
<g id="node12" class="node">
<title>Node12</title>
<g id="a_node12"><a xlink:href="../../d8/dc6/structDefaultColorMapper.html" target="_top" xlink:title="The default mapping from a 7&#45;bit MIDI value to an RGB color.">
<polygon fill="white" stroke="black" points="528.5,-934 528.5,-991 643.5,-991 643.5,-934 528.5,-934"/>
<text text-anchor="middle" x="586" y="-979" font-family="Helvetica,sans-Serif" font-size="10.00">DefaultColorMapper</text>
<polyline fill="none" stroke="black" points="528.5,-972 643.5,-972 "/>
<text text-anchor="middle" x="586" y="-960" font-family="Helvetica,sans-Serif" font-size="10.00"> </text>
<polyline fill="none" stroke="black" points="528.5,-953 643.5,-953 "/>
<text text-anchor="start" x="536.5" y="-941" font-family="Helvetica,sans-Serif" font-size="10.00">+ operator()()</text>
</a>
</g>
</g>
<!-- Node12&#45;&gt;Node10 -->
<g id="edge13" class="edge">
<title>Node12&#45;&gt;Node10</title>
<path fill="none" stroke="#404040" d="M572.7,-933.83C560.9,-909.27 542.96,-871.93 526.06,-836.77"/>
<polygon fill="none" stroke="#404040" points="526.06,-836.76 519.85,-833.09 520.86,-825.95 527.06,-829.62 526.06,-836.76"/>
<text text-anchor="middle" x="576.5" y="-858" font-family="Helvetica,sans-Serif" font-size="10.00"> +colormapper</text>
</g>
<!-- Node13 -->
<g id="node13" class="node">
<title>Node13</title>
<g id="a_node13"><a xlink:href="../../d0/d32/structAH_1_1Array.html" target="_top" xlink:title=" ">
<polygon fill="white" stroke="black" points="575.5,-647.5 575.5,-836.5 736.5,-836.5 736.5,-647.5 575.5,-647.5"/>
<text text-anchor="start" x="583.5" y="-824.5" font-family="Helvetica,sans-Serif" font-size="10.00">Array&lt; Array&lt; uint8</text>
<text text-anchor="middle" x="656" y="-813.5" font-family="Helvetica,sans-Serif" font-size="10.00">_t, RangeLen &gt;, NumBanks &gt;</text>
<polyline fill="none" stroke="black" points="575.5,-806.5 736.5,-806.5 "/>
<text text-anchor="start" x="583.5" y="-794.5" font-family="Helvetica,sans-Serif" font-size="10.00">+ data</text>
<text text-anchor="start" x="583.5" y="-783.5" font-family="Helvetica,sans-Serif" font-size="10.00">+ length</text>
<polyline fill="none" stroke="black" points="575.5,-776.5 736.5,-776.5 "/>
<text text-anchor="start" x="583.5" y="-764.5" font-family="Helvetica,sans-Serif" font-size="10.00">+ operator[]()</text>
<text text-anchor="start" x="583.5" y="-753.5" font-family="Helvetica,sans-Serif" font-size="10.00">+ operator[]()</text>
<text text-anchor="start" x="583.5" y="-742.5" font-family="Helvetica,sans-Serif" font-size="10.00">+ begin()</text>
<text text-anchor="start" x="583.5" y="-731.5" font-family="Helvetica,sans-Serif" font-size="10.00">+ begin()</text>
<text text-anchor="start" x="583.5" y="-720.5" font-family="Helvetica,sans-Serif" font-size="10.00">+ end()</text>
<text text-anchor="start" x="583.5" y="-709.5" font-family="Helvetica,sans-Serif" font-size="10.00">+ end()</text>
<text text-anchor="start" x="583.5" y="-698.5" font-family="Helvetica,sans-Serif" font-size="10.00">+ operator==()</text>
<text text-anchor="start" x="583.5" y="-687.5" font-family="Helvetica,sans-Serif" font-size="10.00">+ operator!=()</text>
<text text-anchor="start" x="583.5" y="-676.5" font-family="Helvetica,sans-Serif" font-size="10.00">+ slice()</text>
<text text-anchor="start" x="583.5" y="-665.5" font-family="Helvetica,sans-Serif" font-size="10.00">+ slice()</text>
<text text-anchor="start" x="583.5" y="-654.5" font-family="Helvetica,sans-Serif" font-size="10.00">+ cslice()</text>
</a>
</g>
</g>
<!-- Node13&#45;&gt;Node3 -->
<g id="edge14" class="edge">
<title>Node13&#45;&gt;Node3</title>
<path fill="none" stroke="#404040" d="M595.37,-647.41C575.24,-616.34 552.66,-581.48 531.83,-549.34"/>
<polygon fill="none" stroke="#404040" points="531.66,-549.07 525.04,-546.21 525.14,-539 531.76,-541.86 531.66,-549.07"/>
<text text-anchor="middle" x="601.5" y="-615.5" font-family="Helvetica,sans-Serif" font-size="10.00"> &#45;values</text>
</g>
</g>
</svg>
