<?xml version="1.0" encoding="UTF-8" standalone="no"?>
<!DOCTYPE svg PUBLIC "-//W3C//DTD SVG 1.1//EN"
 "http://www.w3.org/Graphics/SVG/1.1/DTD/svg11.dtd">
<!-- Generated by graphviz version 2.43.0 (0)
 -->
<!-- Title: OutputBank Pages: 1 -->
<svg width="324pt" height="397pt"
 viewBox="0.00 0.00 323.50 397.00" xmlns="http://www.w3.org/2000/svg" xmlns:xlink="http://www.w3.org/1999/xlink">
<g id="graph0" class="graph" transform="scale(1 1) rotate(0) translate(4 393)">
<title>OutputBank</title>
<polygon fill="white" stroke="transparent" points="-4,4 -4,-393 319.5,-393 319.5,4 -4,4"/>
<!-- Node1 -->
<g id="node1" class="node">
<title>Node1</title>
<g id="a_node1"><a xlink:title="A class for changing the address of BankableMIDIOutputs.">
<polygon fill="#bfbfbf" stroke="black" points="105,-276.5 105,-388.5 227,-388.5 227,-276.5 105,-276.5"/>
<text text-anchor="middle" x="166" y="-376.5" font-family="Helvetica,sans-Serif" font-size="10.00">OutputBank</text>
<polyline fill="none" stroke="black" points="105,-369.5 227,-369.5 "/>
<text text-anchor="start" x="113" y="-357.5" font-family="Helvetica,sans-Serif" font-size="10.00">&#45; tracksPerBank</text>
<text text-anchor="start" x="113" y="-346.5" font-family="Helvetica,sans-Serif" font-size="10.00">&#45; bankSetting</text>
<polyline fill="none" stroke="black" points="105,-339.5 227,-339.5 "/>
<text text-anchor="start" x="113" y="-327.5" font-family="Helvetica,sans-Serif" font-size="10.00">+ OutputBank()</text>
<text text-anchor="start" x="113" y="-316.5" font-family="Helvetica,sans-Serif" font-size="10.00">+ select()</text>
<text text-anchor="start" x="113" y="-305.5" font-family="Helvetica,sans-Serif" font-size="10.00">+ getSelection()</text>
<text text-anchor="start" x="113" y="-294.5" font-family="Helvetica,sans-Serif" font-size="10.00">+ getTracksPerBank()</text>
<text text-anchor="start" x="113" y="-283.5" font-family="Helvetica,sans-Serif" font-size="10.00">+ getOffset()</text>
</a>
</g>
</g>
<!-- Node2 -->
<g id="node2" class="node">
<title>Node2</title>
<g id="a_node2"><a xlink:href="../../db/dbd/classBank.html" target="_top" xlink:title=" ">
<polygon fill="white" stroke="black" points="0,-127.5 0,-239.5 166,-239.5 166,-127.5 0,-127.5"/>
<text text-anchor="start" x="8" y="-227.5" font-family="Helvetica,sans-Serif" font-size="10.00">Bank&lt; MAXIMUM_SEMITONES</text>
<text text-anchor="middle" x="83" y="-216.5" font-family="Helvetica,sans-Serif" font-size="10.00"> &#45; MINIMUM_SEMITONES+1 &gt;</text>
<polyline fill="none" stroke="black" points="0,-209.5 166,-209.5 "/>
<text text-anchor="start" x="8" y="-197.5" font-family="Helvetica,sans-Serif" font-size="10.00">&#45; inputBankables</text>
<polyline fill="none" stroke="black" points="0,-190.5 166,-190.5 "/>
<text text-anchor="start" x="8" y="-178.5" font-family="Helvetica,sans-Serif" font-size="10.00">+ Bank()</text>
<text text-anchor="start" x="8" y="-167.5" font-family="Helvetica,sans-Serif" font-size="10.00">+ select()</text>
<text text-anchor="start" x="8" y="-156.5" font-family="Helvetica,sans-Serif" font-size="10.00">+ add()</text>
<text text-anchor="start" x="8" y="-145.5" font-family="Helvetica,sans-Serif" font-size="10.00">+ remove()</text>
<text text-anchor="start" x="8" y="-134.5" font-family="Helvetica,sans-Serif" font-size="10.00">+ getNumberOfBanks()</text>
</a>
</g>
</g>
<!-- Node1&#45;&gt;Node2 -->
<g id="edge1" class="edge">
<title>Node1&#45;&gt;Node2</title>
<path fill="none" stroke="midnightblue" d="M129.92,-267.6C124.72,-258.4 119.41,-248.99 114.32,-239.96"/>
<polygon fill="none" stroke="midnightblue" points="126.89,-269.36 134.86,-276.34 132.99,-265.92 126.89,-269.36"/>
</g>
<!-- Node4 -->
<g id="node4" class="node">
<title>Node4</title>
<g id="a_node4"><a xlink:href="../../db/dbd/classBank.html" target="_top" xlink:title="A class that groups Bankable MIDI Output Elements and Bankable MIDI Input Elements,...">
<polygon fill="white" stroke="black" points="184.5,-133 184.5,-234 315.5,-234 315.5,-133 184.5,-133"/>
<text text-anchor="middle" x="250" y="-222" font-family="Helvetica,sans-Serif" font-size="10.00">Bank&lt; N &gt;</text>
<polyline fill="none" stroke="black" points="184.5,-215 315.5,-215 "/>
<text text-anchor="start" x="192.5" y="-203" font-family="Helvetica,sans-Serif" font-size="10.00">&#45; inputBankables</text>
<polyline fill="none" stroke="black" points="184.5,-196 315.5,-196 "/>
<text text-anchor="start" x="192.5" y="-184" font-family="Helvetica,sans-Serif" font-size="10.00">+ Bank()</text>
<text text-anchor="start" x="192.5" y="-173" font-family="Helvetica,sans-Serif" font-size="10.00">+ select()</text>
<text text-anchor="start" x="192.5" y="-162" font-family="Helvetica,sans-Serif" font-size="10.00">+ add()</text>
<text text-anchor="start" x="192.5" y="-151" font-family="Helvetica,sans-Serif" font-size="10.00">+ remove()</text>
<text text-anchor="start" x="192.5" y="-140" font-family="Helvetica,sans-Serif" font-size="10.00">+ getNumberOfBanks()</text>
</a>
</g>
</g>
<!-- Node1&#45;&gt;Node4 -->
<g id="edge3" class="edge">
<title>Node1&#45;&gt;Node4</title>
<path fill="none" stroke="midnightblue" d="M202.58,-267.48C208.96,-256.31 215.51,-244.86 221.63,-234.15"/>
<polygon fill="none" stroke="midnightblue" points="199.44,-265.93 197.52,-276.34 205.52,-269.4 199.44,-265.93"/>
</g>
<!-- Node3 -->
<g id="node3" class="node">
<title>Node3</title>
<g id="a_node3"><a xlink:href="../../da/db8/classTransposer.html" target="_top" xlink:title=" ">
<polygon fill="white" stroke="black" points="15,-0.5 15,-90.5 151,-90.5 151,-0.5 15,-0.5"/>
<text text-anchor="start" x="23" y="-78.5" font-family="Helvetica,sans-Serif" font-size="10.00">Transposer&lt; MINIMUM</text>
<text text-anchor="start" x="23" y="-67.5" font-family="Helvetica,sans-Serif" font-size="10.00">_SEMITONES, MAXIMUM</text>
<text text-anchor="middle" x="83" y="-56.5" font-family="Helvetica,sans-Serif" font-size="10.00">_SEMITONES &gt;</text>
<polyline fill="none" stroke="black" points="15,-49.5 151,-49.5 "/>
<text text-anchor="start" x="23" y="-37.5" font-family="Helvetica,sans-Serif" font-size="10.00">+ N</text>
<polyline fill="none" stroke="black" points="15,-30.5 151,-30.5 "/>
<text text-anchor="start" x="23" y="-18.5" font-family="Helvetica,sans-Serif" font-size="10.00">+ Transposer()</text>
<text text-anchor="start" x="23" y="-7.5" font-family="Helvetica,sans-Serif" font-size="10.00">+ getSelection()</text>
</a>
</g>
</g>
<!-- Node2&#45;&gt;Node3 -->
<g id="edge2" class="edge">
<title>Node2&#45;&gt;Node3</title>
<path fill="none" stroke="midnightblue" d="M83,-117.08C83,-108.07 83,-99.01 83,-90.51"/>
<polygon fill="none" stroke="midnightblue" points="79.5,-117.18 83,-127.18 86.5,-117.18 79.5,-117.18"/>
</g>
</g>
</svg>
