<?xml version="1.0" encoding="UTF-8" standalone="no"?>
<!DOCTYPE svg PUBLIC "-//W3C//DTD SVG 1.1//EN"
 "http://www.w3.org/Graphics/SVG/1.1/DTD/svg11.dtd">
<!-- Generated by graphviz version 2.40.1 (20161225.0304)
 -->
<!-- Title: DigitalCCSender.hpp Pages: 1 -->
<svg width="2284pt" height="923pt"
 viewBox="0.00 0.00 2284.05 923.00" xmlns="http://www.w3.org/2000/svg" xmlns:xlink="http://www.w3.org/1999/xlink">
<g id="graph0" class="graph" transform="scale(1 1) rotate(0) translate(4 919)">
<title>DigitalCCSender.hpp</title>
<polygon fill="#ffffff" stroke="transparent" points="-4,4 -4,-919 2280.0516,-919 2280.0516,4 -4,4"/>
<!-- Node1 -->
<g id="node1" class="node">
<title>Node1</title>
<g id="a_node1"><a xlink:title=" ">
<polygon fill="#bfbfbf" stroke="#000000" points="535.5,-895.5 535.5,-914.5 644.5,-914.5 644.5,-895.5 535.5,-895.5"/>
<text text-anchor="middle" x="590" y="-902.5" font-family="Helvetica,sans-Serif" font-size="10.00" fill="#000000">DigitalCCSender.hpp</text>
</a>
</g>
</g>
<!-- Node2 -->
<g id="node2" class="node">
<title>Node2</title>
<g id="a_node2"><a xlink:href="../../d3/d37/Control__Surface__Class_8hpp.html" target="_top" xlink:title=" ">
<polygon fill="#ffffff" stroke="#000000" points="529,-828.5 529,-858.5 651,-858.5 651,-828.5 529,-828.5"/>
<text text-anchor="start" x="537" y="-846.5" font-family="Helvetica,sans-Serif" font-size="10.00" fill="#000000">Control_Surface/Control</text>
<text text-anchor="middle" x="590" y="-835.5" font-family="Helvetica,sans-Serif" font-size="10.00" fill="#000000">_Surface_Class.hpp</text>
</a>
</g>
</g>
<!-- Node1&#45;&gt;Node2 -->
<g id="edge1" class="edge">
<title>Node1&#45;&gt;Node2</title>
<path fill="none" stroke="#191970" d="M590,-895.3906C590,-888.2234 590,-878.0862 590,-868.671"/>
<polygon fill="#191970" stroke="#191970" points="593.5001,-868.5446 590,-858.5446 586.5001,-868.5446 593.5001,-868.5446"/>
</g>
<!-- Node3 -->
<g id="node3" class="node">
<title>Node3</title>
<g id="a_node3"><a xlink:href="../../d4/d93/Updatable_8hpp.html" target="_top" xlink:title=" ">
<polygon fill="#ffffff" stroke="#000000" points="414.5,-510 414.5,-529 561.5,-529 561.5,-510 414.5,-510"/>
<text text-anchor="middle" x="488" y="-517" font-family="Helvetica,sans-Serif" font-size="10.00" fill="#000000">AH/Containers/Updatable.hpp</text>
</a>
</g>
</g>
<!-- Node2&#45;&gt;Node3 -->
<g id="edge2" class="edge">
<title>Node2&#45;&gt;Node3</title>
<path fill="none" stroke="#191970" d="M566.3428,-828.383C536.2109,-807.0676 488,-765.13 488,-715 488,-715 488,-715 488,-653.5 488,-612.9699 488,-565.5443 488,-539.3795"/>
<polygon fill="#191970" stroke="#191970" points="491.5001,-539.2517 488,-529.2517 484.5001,-539.2518 491.5001,-539.2517"/>
</g>
<!-- Node28 -->
<g id="node28" class="node">
<title>Node28</title>
<g id="a_node28"><a xlink:href="../../d8/df3/FilteredAnalog_8hpp.html" target="_top" xlink:title=" ">
<polygon fill="#ffffff" stroke="#000000" points="1690,-705.5 1690,-724.5 1850,-724.5 1850,-705.5 1690,-705.5"/>
<text text-anchor="middle" x="1770" y="-712.5" font-family="Helvetica,sans-Serif" font-size="10.00" fill="#000000">AH/Hardware/FilteredAnalog.hpp</text>
</a>
</g>
</g>
<!-- Node2&#45;&gt;Node28 -->
<g id="edge45" class="edge">
<title>Node2&#45;&gt;Node28</title>
<path fill="none" stroke="#191970" d="M651.1308,-837.1405C743.4121,-827.5165 923.7991,-808.6115 1077,-792 1293.4034,-768.5355 1547.7079,-740.0445 1679.9026,-725.165"/>
<polygon fill="#191970" stroke="#191970" points="1680.4373,-728.627 1689.9829,-724.0301 1679.6541,-721.671 1680.4373,-728.627"/>
</g>
<!-- Node36 -->
<g id="node36" class="node">
<title>Node36</title>
<g id="a_node36"><a xlink:href="../../d1/dd0/MillisMicrosTimer_8hpp.html" target="_top" xlink:title=" ">
<polygon fill="#ffffff" stroke="#000000" points="1701.5,-224.5 1701.5,-243.5 1862.5,-243.5 1862.5,-224.5 1701.5,-224.5"/>
<text text-anchor="middle" x="1782" y="-231.5" font-family="Helvetica,sans-Serif" font-size="10.00" fill="#000000">AH/Timing/MillisMicrosTimer.hpp</text>
</a>
</g>
</g>
<!-- Node2&#45;&gt;Node36 -->
<g id="edge75" class="edge">
<title>Node2&#45;&gt;Node36</title>
<path fill="none" stroke="#191970" d="M651.1008,-841.8411C943.5203,-833.5085 2186,-793.4859 2186,-715 2186,-715 2186,-715 2186,-346 2186,-315.4754 2190.2537,-299.7742 2167,-280 2145.0172,-261.3066 1979.7593,-247.0178 1873.0198,-239.6197"/>
<polygon fill="#191970" stroke="#191970" points="1873.0954,-236.1167 1862.8796,-238.9253 1872.6171,-243.1004 1873.0954,-236.1167"/>
</g>
<!-- Node37 -->
<g id="node37" class="node">
<title>Node37</title>
<g id="a_node37"><a xlink:href="../../d6/dd2/DisplayElement_8hpp.html" target="_top" xlink:title=" ">
<polygon fill="#ffffff" stroke="#000000" points="282,-767 282,-786 422,-786 422,-767 282,-767"/>
<text text-anchor="middle" x="352" y="-774" font-family="Helvetica,sans-Serif" font-size="10.00" fill="#000000">Display/DisplayElement.hpp</text>
</a>
</g>
</g>
<!-- Node2&#45;&gt;Node37 -->
<g id="edge79" class="edge">
<title>Node2&#45;&gt;Node37</title>
<path fill="none" stroke="#191970" d="M536.5882,-828.4639C494.0101,-816.4776 435.1409,-799.9052 395.4274,-788.7254"/>
<polygon fill="#191970" stroke="#191970" points="396.3394,-785.3461 385.765,-786.0053 394.4424,-792.0842 396.3394,-785.3461"/>
</g>
<!-- Node38 -->
<g id="node38" class="node">
<title>Node38</title>
<g id="a_node38"><a xlink:href="../../dc/d77/DisplayInterface_8hpp.html" target="_top" xlink:title=" ">
<polygon fill="#ffffff" stroke="#000000" points="298.5,-705.5 298.5,-724.5 441.5,-724.5 441.5,-705.5 298.5,-705.5"/>
<text text-anchor="middle" x="370" y="-712.5" font-family="Helvetica,sans-Serif" font-size="10.00" fill="#000000">Display/DisplayInterface.hpp</text>
</a>
</g>
</g>
<!-- Node2&#45;&gt;Node38 -->
<g id="edge93" class="edge">
<title>Node2&#45;&gt;Node38</title>
<path fill="none" stroke="#191970" d="M550.2769,-828.3992C527.3692,-819.074 498.3692,-806.199 474,-792 465.4174,-786.9993 419.056,-752.1573 391.2117,-731.0929"/>
<polygon fill="#191970" stroke="#191970" points="392.9783,-728.0404 382.8933,-724.7932 388.7522,-733.6207 392.9783,-728.0404"/>
</g>
<!-- Node43 -->
<g id="node43" class="node">
<title>Node43</title>
<g id="a_node43"><a xlink:href="../../d6/d04/MIDI__Interface_8hpp.html" target="_top" xlink:title=" ">
<polygon fill="#ffffff" stroke="#000000" points="956,-761.5 956,-791.5 1068,-791.5 1068,-761.5 956,-761.5"/>
<text text-anchor="start" x="964" y="-779.5" font-family="Helvetica,sans-Serif" font-size="10.00" fill="#000000">MIDI_Interfaces/MIDI</text>
<text text-anchor="middle" x="1012" y="-768.5" font-family="Helvetica,sans-Serif" font-size="10.00" fill="#000000">_Interface.hpp</text>
</a>
</g>
</g>
<!-- Node2&#45;&gt;Node43 -->
<g id="edge94" class="edge">
<title>Node2&#45;&gt;Node43</title>
<path fill="none" stroke="#191970" d="M651.3624,-833.7576C729.8429,-821.2975 865.226,-799.803 945.9141,-786.9923"/>
<polygon fill="#191970" stroke="#191970" points="946.6308,-790.4224 955.9583,-785.3976 945.5331,-783.509 946.6308,-790.4224"/>
</g>
<!-- Node49 -->
<g id="node49" class="node">
<title>Node49</title>
<g id="a_node49"><a xlink:title=" ">
<polygon fill="#ffffff" stroke="#bfbfbf" points="516.5,-644 516.5,-663 663.5,-663 663.5,-644 516.5,-644"/>
<text text-anchor="middle" x="590" y="-651" font-family="Helvetica,sans-Serif" font-size="10.00" fill="#000000">Settings/SettingsWrapper.hpp</text>
</a>
</g>
</g>
<!-- Node2&#45;&gt;Node49 -->
<g id="edge123" class="edge">
<title>Node2&#45;&gt;Node49</title>
<path fill="none" stroke="#191970" d="M590,-828.2727C590,-794.1167 590,-711.408 590,-673.313"/>
<polygon fill="#191970" stroke="#191970" points="593.5001,-673.0258 590,-663.0258 586.5001,-673.0259 593.5001,-673.0258"/>
</g>
<!-- Node4 -->
<g id="node4" class="node">
<title>Node4</title>
<g id="a_node4"><a xlink:href="../../d1/d65/Warnings_8hpp.html" target="_top" xlink:title=" ">
<polygon fill="#ffffff" stroke="#000000" points="1224.5,-.5 1224.5,-19.5 1357.5,-19.5 1357.5,-.5 1224.5,-.5"/>
<text text-anchor="middle" x="1291" y="-7.5" font-family="Helvetica,sans-Serif" font-size="10.00" fill="#000000">AH/Settings/Warnings.hpp</text>
</a>
</g>
</g>
<!-- Node3&#45;&gt;Node4 -->
<g id="edge3" class="edge">
<title>Node3&#45;&gt;Node4</title>
<path fill="none" stroke="#191970" d="M414.4205,-514.1965C307.3572,-505.834 118.7359,-488.4182 95,-468 71.8592,-448.0938 76,-432.5246 76,-402 76,-402 76,-402 76,-122 76,-39.2903 168.9946,-72.7035 250,-56 343.4099,-36.7387 989.3352,-17.9959 1214.1032,-11.9878"/>
<polygon fill="#191970" stroke="#191970" points="1214.2616,-15.485 1224.1648,-11.7199 1214.0752,-8.4874 1214.2616,-15.485"/>
</g>
<!-- Node5 -->
<g id="node5" class="node">
<title>Node5</title>
<g id="a_node5"><a xlink:href="../../d8/db4/AH_2Containers_2CRTP_8hpp.html" target="_top" xlink:title=" ">
<polygon fill="#ffffff" stroke="#000000" points="308.5,-448.5 308.5,-467.5 439.5,-467.5 439.5,-448.5 308.5,-448.5"/>
<text text-anchor="middle" x="374" y="-455.5" font-family="Helvetica,sans-Serif" font-size="10.00" fill="#000000">AH/Containers/CRTP.hpp</text>
</a>
</g>
</g>
<!-- Node3&#45;&gt;Node5 -->
<g id="edge4" class="edge">
<title>Node3&#45;&gt;Node5</title>
<path fill="none" stroke="#191970" d="M470.1875,-509.8906C451.5315,-499.8262 422.0203,-483.9057 400.6026,-472.3514"/>
<polygon fill="#191970" stroke="#191970" points="402.1502,-469.2095 391.6874,-467.5419 398.8266,-475.3702 402.1502,-469.2095"/>
</g>
<!-- Node6 -->
<g id="node6" class="node">
<title>Node6</title>
<g id="a_node6"><a xlink:href="../../de/dd1/LinkedList_8hpp.html" target="_top" xlink:title=" ">
<polygon fill="#ffffff" stroke="#000000" points="104.5,-448.5 104.5,-467.5 251.5,-467.5 251.5,-448.5 104.5,-448.5"/>
<text text-anchor="middle" x="178" y="-455.5" font-family="Helvetica,sans-Serif" font-size="10.00" fill="#000000">AH/Containers/LinkedList.hpp</text>
</a>
</g>
</g>
<!-- Node3&#45;&gt;Node6 -->
<g id="edge5" class="edge">
<title>Node3&#45;&gt;Node6</title>
<path fill="none" stroke="#191970" d="M439.9026,-509.9581C384.8408,-499.0345 294.6868,-481.1492 235.8409,-469.4749"/>
<polygon fill="#191970" stroke="#191970" points="236.4451,-466.0266 225.9551,-467.5137 235.0829,-472.8928 236.4451,-466.0266"/>
</g>
<!-- Node15 -->
<g id="node15" class="node">
<title>Node15</title>
<g id="a_node15"><a xlink:href="../../de/dd1/AH_2Settings_2SettingsWrapper_8hpp.html" target="_top" xlink:title=" ">
<polygon fill="#ffffff" stroke="#000000" points="567,-336.5 567,-355.5 731,-355.5 731,-336.5 567,-336.5"/>
<text text-anchor="middle" x="649" y="-343.5" font-family="Helvetica,sans-Serif" font-size="10.00" fill="#000000">AH/Settings/SettingsWrapper.hpp</text>
</a>
</g>
</g>
<!-- Node3&#45;&gt;Node15 -->
<g id="edge43" class="edge">
<title>Node3&#45;&gt;Node15</title>
<path fill="none" stroke="#191970" d="M485.9653,-509.9383C483.4187,-495.4563 480.6537,-467.577 492,-448 518.1087,-402.952 573.0141,-374.3431 610.4562,-359.2383"/>
<polygon fill="#191970" stroke="#191970" points="611.991,-362.3968 620.0425,-355.5103 609.4539,-355.8728 611.991,-362.3968"/>
</g>
<!-- Node20 -->
<g id="node20" class="node">
<title>Node20</title>
<g id="a_node20"><a xlink:title=" ">
<polygon fill="#ffffff" stroke="#bfbfbf" points="1027,-224.5 1027,-243.5 1079,-243.5 1079,-224.5 1027,-224.5"/>
<text text-anchor="middle" x="1053" y="-231.5" font-family="Helvetica,sans-Serif" font-size="10.00" fill="#000000">stddef.h</text>
</a>
</g>
</g>
<!-- Node3&#45;&gt;Node20 -->
<g id="edge44" class="edge">
<title>Node3&#45;&gt;Node20</title>
<path fill="none" stroke="#191970" d="M490.6238,-509.8254C495.1949,-494.6823 505.9941,-465.325 525,-448 534.8772,-438.9963 904.6539,-292.5703 1019.3963,-247.2571"/>
<polygon fill="#191970" stroke="#191970" points="1020.7479,-250.4864 1028.7639,-243.5586 1018.1772,-243.9755 1020.7479,-250.4864"/>
</g>
<!-- Node26 -->
<g id="node26" class="node">
<title>Node26</title>
<g id="a_node26"><a xlink:href="../../d1/d93/Error_8hpp.html" target="_top" xlink:title=" ">
<polygon fill="#ffffff" stroke="#000000" points="630,-448.5 630,-467.5 728,-467.5 728,-448.5 630,-448.5"/>
<text text-anchor="middle" x="679" y="-455.5" font-family="Helvetica,sans-Serif" font-size="10.00" fill="#000000">AH/Error/Error.hpp</text>
</a>
</g>
</g>
<!-- Node3&#45;&gt;Node26 -->
<g id="edge39" class="edge">
<title>Node3&#45;&gt;Node26</title>
<path fill="none" stroke="#191970" d="M517.8438,-509.8906C550.6425,-499.3298 603.4672,-482.3208 639.6364,-470.6747"/>
<polygon fill="#191970" stroke="#191970" points="640.9198,-473.9385 649.3658,-467.5419 638.7743,-467.2753 640.9198,-473.9385"/>
</g>
<!-- Node27 -->
<g id="node27" class="node">
<title>Node27</title>
<g id="a_node27"><a xlink:title=" ">
<polygon fill="#ffffff" stroke="#bfbfbf" points="534,-448.5 534,-467.5 612,-467.5 612,-448.5 534,-448.5"/>
<text text-anchor="middle" x="573" y="-455.5" font-family="Helvetica,sans-Serif" font-size="10.00" fill="#000000">AH/STL/utility</text>
</a>
</g>
</g>
<!-- Node3&#45;&gt;Node27 -->
<g id="edge42" class="edge">
<title>Node3&#45;&gt;Node27</title>
<path fill="none" stroke="#191970" d="M501.2813,-509.8906C514.7548,-500.1421 535.822,-484.8994 551.6435,-473.4521"/>
<polygon fill="#191970" stroke="#191970" points="553.7619,-476.2394 559.812,-467.5419 549.6586,-470.5682 553.7619,-476.2394"/>
</g>
<!-- Node6&#45;&gt;Node4 -->
<g id="edge6" class="edge">
<title>Node6&#45;&gt;Node4</title>
<path fill="none" stroke="#191970" d="M185.5939,-448.4565C199.5813,-429.8857 228,-387.0976 228,-346 228,-346 228,-346 228,-122 228,-50.789 304.7853,-72.7431 374,-56 454.4656,-36.5353 1008.204,-18.3695 1214.1088,-12.2125"/>
<polygon fill="#191970" stroke="#191970" points="1214.3442,-15.7071 1224.2356,-11.911 1214.1358,-8.7102 1214.3442,-15.7071"/>
</g>
<!-- Node7 -->
<g id="node7" class="node">
<title>Node7</title>
<g id="a_node7"><a xlink:href="../../df/dee/Debug_8hpp.html" target="_top" xlink:title=" ">
<polygon fill="#ffffff" stroke="#000000" points="385.5,-392.5 385.5,-411.5 498.5,-411.5 498.5,-392.5 385.5,-392.5"/>
<text text-anchor="middle" x="442" y="-399.5" font-family="Helvetica,sans-Serif" font-size="10.00" fill="#000000">AH/Debug/Debug.hpp</text>
</a>
</g>
</g>
<!-- Node6&#45;&gt;Node7 -->
<g id="edge7" class="edge">
<title>Node6&#45;&gt;Node7</title>
<path fill="none" stroke="#191970" d="M223.0833,-448.4369C268.4546,-438.8127 338.4886,-423.957 387.0766,-413.6504"/>
<polygon fill="#191970" stroke="#191970" points="388.0466,-417.0226 397.1027,-411.5237 386.5941,-410.175 388.0466,-417.0226"/>
</g>
<!-- Node10 -->
<g id="node10" class="node">
<title>Node10</title>
<g id="a_node10"><a xlink:href="../../d7/d79/MinMaxFix_8hpp.html" target="_top" xlink:title=" ">
<polygon fill="#ffffff" stroke="#000000" points="1519.5,-112.5 1519.5,-131.5 1644.5,-131.5 1644.5,-112.5 1519.5,-112.5"/>
<text text-anchor="middle" x="1582" y="-119.5" font-family="Helvetica,sans-Serif" font-size="10.00" fill="#000000">AH/Math/MinMaxFix.hpp</text>
</a>
</g>
</g>
<!-- Node6&#45;&gt;Node10 -->
<g id="edge36" class="edge">
<title>Node6&#45;&gt;Node10</title>
<path fill="none" stroke="#191970" d="M251.6846,-450.5718C514.1582,-423.8804 1390.5885,-332.6827 1441,-300 1498.5615,-262.6818 1475.0093,-218.9002 1521,-168 1531.6292,-156.2362 1545.6312,-145.4292 1557.5391,-137.2503"/>
<polygon fill="#191970" stroke="#191970" points="1559.7513,-139.9828 1566.1464,-131.5357 1555.8795,-134.151 1559.7513,-139.9828"/>
</g>
<!-- Node24 -->
<g id="node24" class="node">
<title>Node24</title>
<g id="a_node24"><a xlink:title=" ">
<polygon fill="#ffffff" stroke="#bfbfbf" points="256,-392.5 256,-411.5 304,-411.5 304,-392.5 256,-392.5"/>
<text text-anchor="middle" x="280" y="-399.5" font-family="Helvetica,sans-Serif" font-size="10.00" fill="#000000">stdlib.h</text>
</a>
</g>
</g>
<!-- Node6&#45;&gt;Node24 -->
<g id="edge37" class="edge">
<title>Node6&#45;&gt;Node24</title>
<path fill="none" stroke="#191970" d="M195.767,-448.2455C211.7095,-439.4928 235.3259,-426.527 253.4989,-416.5496"/>
<polygon fill="#191970" stroke="#191970" points="255.3552,-419.5233 262.4366,-411.6427 251.9863,-413.3873 255.3552,-419.5233"/>
</g>
<!-- Node25 -->
<g id="node25" class="node">
<title>Node25</title>
<g id="a_node25"><a xlink:title=" ">
<polygon fill="#ffffff" stroke="#bfbfbf" points="152.5,-392.5 152.5,-411.5 199.5,-411.5 199.5,-392.5 152.5,-392.5"/>
<text text-anchor="middle" x="176" y="-399.5" font-family="Helvetica,sans-Serif" font-size="10.00" fill="#000000">iterator</text>
</a>
</g>
</g>
<!-- Node6&#45;&gt;Node25 -->
<g id="edge38" class="edge">
<title>Node6&#45;&gt;Node25</title>
<path fill="none" stroke="#191970" d="M177.6516,-448.2455C177.3907,-440.9382 177.0248,-430.6944 176.7037,-421.7046"/>
<polygon fill="#191970" stroke="#191970" points="180.1992,-421.5113 176.3444,-411.6427 173.2036,-421.7613 180.1992,-421.5113"/>
</g>
<!-- Node7&#45;&gt;Node4 -->
<g id="edge8" class="edge">
<title>Node7&#45;&gt;Node4</title>
<path fill="none" stroke="#191970" d="M431.9181,-392.2882C423.3649,-383.5321 411.3457,-369.9266 404,-356 389.7591,-329.0009 385,-320.5246 385,-290 385,-290 385,-290 385,-122 385,-38.7283 995.6118,-16.6969 1214.2677,-11.4772"/>
<polygon fill="#191970" stroke="#191970" points="1214.4641,-14.9736 1224.3797,-11.2411 1214.3007,-7.9755 1214.4641,-14.9736"/>
</g>
<!-- Node8 -->
<g id="node8" class="node">
<title>Node8</title>
<g id="a_node8"><a xlink:href="../../dd/d80/PrintStream_8hpp.html" target="_top" xlink:title=" ">
<polygon fill="#ffffff" stroke="#000000" points="736.5,-224.5 736.5,-243.5 895.5,-243.5 895.5,-224.5 736.5,-224.5"/>
<text text-anchor="middle" x="816" y="-231.5" font-family="Helvetica,sans-Serif" font-size="10.00" fill="#000000">AH/PrintStream/PrintStream.hpp</text>
</a>
</g>
</g>
<!-- Node7&#45;&gt;Node8 -->
<g id="edge9" class="edge">
<title>Node7&#45;&gt;Node8</title>
<path fill="none" stroke="#191970" d="M455.2487,-392.183C467.237,-383.14 485.2247,-369.1685 500,-356 535.6611,-324.217 533.7932,-302.371 576,-280 602.4773,-265.9662 672.8162,-253.4132 730.5459,-244.9802"/>
<polygon fill="#191970" stroke="#191970" points="731.3958,-248.3941 740.7958,-243.5064 730.3994,-241.4654 731.3958,-248.3941"/>
</g>
<!-- Node7&#45;&gt;Node15 -->
<g id="edge20" class="edge">
<title>Node7&#45;&gt;Node15</title>
<path fill="none" stroke="#191970" d="M472.3425,-392.3733C505.6474,-382.8598 559.403,-368.2797 598.9386,-358.0127"/>
<polygon fill="#191970" stroke="#191970" points="599.8556,-361.3908 608.6625,-355.5011 598.1049,-354.6133 599.8556,-361.3908"/>
</g>
<!-- Node23 -->
<g id="node23" class="node">
<title>Node23</title>
<g id="a_node23"><a xlink:href="../../d7/d52/DebugVal_8hpp.html" target="_top" xlink:title=" ">
<polygon fill="#ffffff" stroke="#000000" points="413,-336.5 413,-355.5 491,-355.5 491,-336.5 413,-336.5"/>
<text text-anchor="middle" x="452" y="-343.5" font-family="Helvetica,sans-Serif" font-size="10.00" fill="#000000">DebugVal.hpp</text>
</a>
</g>
</g>
<!-- Node7&#45;&gt;Node23 -->
<g id="edge35" class="edge">
<title>Node7&#45;&gt;Node23</title>
<path fill="none" stroke="#191970" d="M443.7419,-392.2455C445.0467,-384.9382 446.876,-374.6944 448.4813,-365.7046"/>
<polygon fill="#191970" stroke="#191970" points="451.9656,-366.1022 450.2781,-355.6427 445.0746,-364.8717 451.9656,-366.1022"/>
</g>
<!-- Node8&#45;&gt;Node4 -->
<g id="edge10" class="edge">
<title>Node8&#45;&gt;Node4</title>
<path fill="none" stroke="#191970" d="M821.4466,-224.3977C834.3318,-202.3268 868.6533,-147.1824 909,-112 947.1005,-78.7764 960.308,-72.761 1008,-56 1075.4485,-32.2957 1156.2933,-20.7103 1214.2721,-15.1067"/>
<polygon fill="#191970" stroke="#191970" points="1214.8268,-18.5704 1224.4603,-14.1607 1214.1795,-11.6003 1214.8268,-18.5704"/>
</g>
<!-- Node9 -->
<g id="node9" class="node">
<title>Node9</title>
<g id="a_node9"><a xlink:href="../../d6/ddf/Arduino-Wrapper_8h.html" target="_top" xlink:title=" ">
<polygon fill="#ffffff" stroke="#000000" points="1529.5,-168.5 1529.5,-187.5 1644.5,-187.5 1644.5,-168.5 1529.5,-168.5"/>
<text text-anchor="middle" x="1587" y="-175.5" font-family="Helvetica,sans-Serif" font-size="10.00" fill="#000000">AH/Arduino&#45;Wrapper.h</text>
</a>
</g>
</g>
<!-- Node8&#45;&gt;Node9 -->
<g id="edge11" class="edge">
<title>Node8&#45;&gt;Node9</title>
<path fill="none" stroke="#191970" d="M895.6066,-228.2179C1047.6239,-217.1765 1376.7597,-193.2704 1519.1177,-182.9305"/>
<polygon fill="#191970" stroke="#191970" points="1519.7285,-186.3954 1529.4486,-182.1801 1519.2213,-179.4138 1519.7285,-186.3954"/>
</g>
<!-- Node9&#45;&gt;Node10 -->
<g id="edge12" class="edge">
<title>Node9&#45;&gt;Node10</title>
<path fill="none" stroke="#191970" d="M1586.1291,-168.2455C1585.4766,-160.9382 1584.562,-150.6944 1583.7593,-141.7046"/>
<polygon fill="#191970" stroke="#191970" points="1587.2365,-141.2918 1582.861,-131.6427 1580.2642,-141.9143 1587.2365,-141.2918"/>
</g>
<!-- Node12 -->
<g id="node12" class="node">
<title>Node12</title>
<g id="a_node12"><a xlink:title=" ">
<polygon fill="#ffffff" stroke="#bfbfbf" points="2173,-.5 2173,-19.5 2231,-19.5 2231,-.5 2173,-.5"/>
<text text-anchor="middle" x="2202" y="-7.5" font-family="Helvetica,sans-Serif" font-size="10.00" fill="#000000">Arduino.h</text>
</a>
</g>
</g>
<!-- Node9&#45;&gt;Node12 -->
<g id="edge19" class="edge">
<title>Node9&#45;&gt;Node12</title>
<path fill="none" stroke="#191970" d="M1644.7377,-173.1743C1796.4996,-159.91 2197.6169,-120.8867 2236,-76 2248.6516,-61.2047 2234.5412,-40.8949 2220.8425,-26.727"/>
<polygon fill="#191970" stroke="#191970" points="2223.0646,-24.0065 2213.4471,-19.5618 2218.1937,-29.0339 2223.0646,-24.0065"/>
</g>
<!-- Node14 -->
<g id="node14" class="node">
<title>Node14</title>
<g id="a_node14"><a xlink:title=" ">
<polygon fill="#ffffff" stroke="#bfbfbf" points="1400.5,-112.5 1400.5,-131.5 1501.5,-131.5 1501.5,-112.5 1400.5,-112.5"/>
<text text-anchor="middle" x="1451" y="-119.5" font-family="Helvetica,sans-Serif" font-size="10.00" fill="#000000">AH/STL/type_traits</text>
</a>
</g>
</g>
<!-- Node9&#45;&gt;Node14 -->
<g id="edge18" class="edge">
<title>Node9&#45;&gt;Node14</title>
<path fill="none" stroke="#191970" d="M1563.6208,-168.3733C1541.4955,-159.2629 1508.0866,-145.5062 1483.3981,-135.3404"/>
<polygon fill="#191970" stroke="#191970" points="1484.6536,-132.0723 1474.0742,-131.5011 1481.9883,-138.5451 1484.6536,-132.0723"/>
</g>
<!-- Node10&#45;&gt;Node4 -->
<g id="edge13" class="edge">
<title>Node10&#45;&gt;Node4</title>
<path fill="none" stroke="#191970" d="M1557.1895,-112.4509C1505.218,-92.4482 1384.8261,-46.1117 1325.4204,-23.2477"/>
<polygon fill="#191970" stroke="#191970" points="1326.3375,-19.8505 1315.7477,-19.5249 1323.8231,-26.3833 1326.3375,-19.8505"/>
</g>
<!-- Node11 -->
<g id="node11" class="node">
<title>Node11</title>
<g id="a_node11"><a xlink:href="../../d6/d3b/FixArduinoMacros_8hpp.html" target="_top" xlink:title=" ">
<polygon fill="#ffffff" stroke="#000000" points="2071,-56.5 2071,-75.5 2227,-75.5 2227,-56.5 2071,-56.5"/>
<text text-anchor="middle" x="2149" y="-63.5" font-family="Helvetica,sans-Serif" font-size="10.00" fill="#000000">AH/Math/FixArduinoMacros.hpp</text>
</a>
</g>
</g>
<!-- Node10&#45;&gt;Node11 -->
<g id="edge14" class="edge">
<title>Node10&#45;&gt;Node11</title>
<path fill="none" stroke="#191970" d="M1644.5728,-115.82C1745.6365,-105.8384 1945.1135,-86.1369 2060.6321,-74.7277"/>
<polygon fill="#191970" stroke="#191970" points="2061.2495,-78.1838 2070.8571,-73.7178 2060.5614,-71.2177 2061.2495,-78.1838"/>
</g>
<!-- Node13 -->
<g id="node13" class="node">
<title>Node13</title>
<g id="a_node13"><a xlink:href="../../d6/db0/AH_2Settings_2NamespaceSettings_8hpp.html" target="_top" xlink:title=" ">
<polygon fill="#ffffff" stroke="#000000" points="1017,-56.5 1017,-75.5 1197,-75.5 1197,-56.5 1017,-56.5"/>
<text text-anchor="middle" x="1107" y="-63.5" font-family="Helvetica,sans-Serif" font-size="10.00" fill="#000000">AH/Settings/NamespaceSettings.hpp</text>
</a>
</g>
</g>
<!-- Node10&#45;&gt;Node13 -->
<g id="edge17" class="edge">
<title>Node10&#45;&gt;Node13</title>
<path fill="none" stroke="#191970" d="M1519.2923,-113.0759C1516.4907,-112.7062 1513.7166,-112.3459 1511,-112 1407.3087,-98.7969 1288.4071,-85.4777 1206.5821,-76.5939"/>
<polygon fill="#191970" stroke="#191970" points="1206.8597,-73.1036 1196.5408,-75.5057 1206.1055,-80.0628 1206.8597,-73.1036"/>
</g>
<!-- Node11&#45;&gt;Node4 -->
<g id="edge15" class="edge">
<title>Node11&#45;&gt;Node4</title>
<path fill="none" stroke="#191970" d="M2070.7281,-57.2322C2066.0853,-56.7929 2061.4827,-56.378 2057,-56 1805.0963,-34.7584 1505.781,-19.7335 1367.7351,-13.3797"/>
<polygon fill="#191970" stroke="#191970" points="1367.8272,-9.8804 1357.6775,-12.919 1367.5069,-16.873 1367.8272,-9.8804"/>
</g>
<!-- Node11&#45;&gt;Node12 -->
<g id="edge16" class="edge">
<title>Node11&#45;&gt;Node12</title>
<path fill="none" stroke="#191970" d="M2158.2319,-56.2455C2165.8317,-48.2155 2176.7877,-36.6394 2185.8368,-27.0781"/>
<polygon fill="#191970" stroke="#191970" points="2188.5421,-29.3115 2192.8739,-19.6427 2183.458,-24.4998 2188.5421,-29.3115"/>
</g>
<!-- Node15&#45;&gt;Node4 -->
<g id="edge21" class="edge">
<title>Node15&#45;&gt;Node4</title>
<path fill="none" stroke="#191970" d="M625.0316,-336.3887C608.9549,-328.7773 588.5083,-316.6464 576,-300 557.6631,-275.5969 557,-264.5246 557,-234 557,-234 557,-234 557,-122 557,-68.7482 606.5854,-73.1501 657,-56 758.0737,-21.6167 1068.5166,-12.9304 1214.117,-10.7385"/>
<polygon fill="#191970" stroke="#191970" points="1214.3617,-14.2354 1224.3102,-10.5916 1214.2608,-7.2361 1214.3617,-14.2354"/>
</g>
<!-- Node15&#45;&gt;Node7 -->
<g id="edge34" class="edge">
<title>Node15&#45;&gt;Node7</title>
<path fill="none" stroke="#191970" d="M619.0971,-355.5011C585.9733,-364.9697 532.2459,-379.5462 492.5856,-389.8511"/>
<polygon fill="#191970" stroke="#191970" points="491.6327,-386.4823 482.8266,-392.3733 493.3843,-393.2596 491.6327,-386.4823"/>
</g>
<!-- Node15&#45;&gt;Node13 -->
<g id="edge22" class="edge">
<title>Node15&#45;&gt;Node13</title>
<path fill="none" stroke="#191970" d="M711.2291,-336.4932C768.783,-324.542 852.912,-298.5538 904,-244 946.1752,-198.9637 902.6147,-154.8598 947,-112 961.2192,-98.2696 1005.918,-86.0798 1044.4678,-77.704"/>
<polygon fill="#191970" stroke="#191970" points="1045.5714,-81.048 1054.629,-75.5515 1044.1207,-74.1999 1045.5714,-81.048"/>
</g>
<!-- Node16 -->
<g id="node16" class="node">
<title>Node16</title>
<g id="a_node16"><a xlink:href="../../d5/d4f/AH_2Settings_2Settings_8hpp.html" target="_top" xlink:title="All user settings and debugging options can be changed here.">
<polygon fill="#ffffff" stroke="#000000" points="1189.5,-280.5 1189.5,-299.5 1260.5,-299.5 1260.5,-280.5 1189.5,-280.5"/>
<text text-anchor="middle" x="1225" y="-287.5" font-family="Helvetica,sans-Serif" font-size="10.00" fill="#000000">Settings.hpp</text>
</a>
</g>
</g>
<!-- Node15&#45;&gt;Node16 -->
<g id="edge23" class="edge">
<title>Node15&#45;&gt;Node16</title>
<path fill="none" stroke="#191970" d="M731.2207,-338.0063C854.1819,-326.0518 1081.9005,-303.9124 1179.097,-294.4628"/>
<polygon fill="#191970" stroke="#191970" points="1179.5761,-297.9328 1189.1905,-293.4815 1178.8987,-290.9657 1179.5761,-297.9328"/>
</g>
<!-- Node22 -->
<g id="node22" class="node">
<title>Node22</title>
<g id="a_node22"><a xlink:href="../../d9/d98/TeensyUSBTypes_8hpp.html" target="_top" xlink:title=" ">
<polygon fill="#ffffff" stroke="#000000" points="585,-280.5 585,-299.5 753,-299.5 753,-280.5 585,-280.5"/>
<text text-anchor="middle" x="669" y="-287.5" font-family="Helvetica,sans-Serif" font-size="10.00" fill="#000000">AH/Teensy/TeensyUSBTypes.hpp</text>
</a>
</g>
</g>
<!-- Node15&#45;&gt;Node22 -->
<g id="edge33" class="edge">
<title>Node15&#45;&gt;Node22</title>
<path fill="none" stroke="#191970" d="M652.4837,-336.2455C655.1508,-328.7776 658.9133,-318.2427 662.1737,-309.1137"/>
<polygon fill="#191970" stroke="#191970" points="665.4889,-310.2373 665.5562,-299.6427 658.8967,-307.8829 665.4889,-310.2373"/>
</g>
<!-- Node17 -->
<g id="node17" class="node">
<title>Node17</title>
<g id="a_node17"><a xlink:href="../../dc/d50/Frequency_8hpp.html" target="_top" xlink:title=" ">
<polygon fill="#ffffff" stroke="#000000" points="1135,-112.5 1135,-131.5 1263,-131.5 1263,-112.5 1135,-112.5"/>
<text text-anchor="middle" x="1199" y="-119.5" font-family="Helvetica,sans-Serif" font-size="10.00" fill="#000000">AH/Types/Frequency.hpp</text>
</a>
</g>
</g>
<!-- Node16&#45;&gt;Node17 -->
<g id="edge24" class="edge">
<title>Node16&#45;&gt;Node17</title>
<path fill="none" stroke="#191970" d="M1203.8784,-280.4622C1189.7497,-272.8191 1172.2828,-260.6199 1164,-244 1146.6569,-209.2 1169.8515,-164.4103 1185.9396,-139.9364"/>
<polygon fill="#191970" stroke="#191970" points="1188.8794,-141.8384 1191.6583,-131.6145 1183.1102,-137.8739 1188.8794,-141.8384"/>
</g>
<!-- Node18 -->
<g id="node18" class="node">
<title>Node18</title>
<g id="a_node18"><a xlink:href="../../d7/d7c/ADCConfig_8hpp.html" target="_top" xlink:title="This file contains the platform&#45;specific ADC resolutions. By default, the library automatically selec...">
<polygon fill="#ffffff" stroke="#000000" points="1173,-224.5 1173,-243.5 1321,-243.5 1321,-224.5 1173,-224.5"/>
<text text-anchor="middle" x="1247" y="-231.5" font-family="Helvetica,sans-Serif" font-size="10.00" fill="#000000">AH/Hardware/ADCConfig.hpp</text>
</a>
</g>
</g>
<!-- Node16&#45;&gt;Node18 -->
<g id="edge27" class="edge">
<title>Node16&#45;&gt;Node18</title>
<path fill="none" stroke="#191970" d="M1228.8321,-280.2455C1231.7659,-272.7776 1235.9047,-262.2427 1239.491,-253.1137"/>
<polygon fill="#191970" stroke="#191970" points="1242.8129,-254.23 1243.2118,-243.6427 1236.2976,-251.6704 1242.8129,-254.23"/>
</g>
<!-- Node19 -->
<g id="node19" class="node">
<title>Node19</title>
<g id="a_node19"><a xlink:title=" ">
<polygon fill="#ffffff" stroke="#bfbfbf" points="1339,-224.5 1339,-243.5 1387,-243.5 1387,-224.5 1339,-224.5"/>
<text text-anchor="middle" x="1363" y="-231.5" font-family="Helvetica,sans-Serif" font-size="10.00" fill="#000000">limits.h</text>
</a>
</g>
</g>
<!-- Node16&#45;&gt;Node19 -->
<g id="edge30" class="edge">
<title>Node16&#45;&gt;Node19</title>
<path fill="none" stroke="#191970" d="M1248.723,-280.3733C1271.1737,-271.2629 1305.0739,-257.5062 1330.1255,-247.3404"/>
<polygon fill="#191970" stroke="#191970" points="1331.6365,-250.5045 1339.5865,-243.5011 1329.0043,-244.0182 1331.6365,-250.5045"/>
</g>
<!-- Node16&#45;&gt;Node20 -->
<g id="edge31" class="edge">
<title>Node16&#45;&gt;Node20</title>
<path fill="none" stroke="#191970" d="M1195.4321,-280.3733C1165.8778,-270.7509 1120.4039,-255.9455 1088.8192,-245.6621"/>
<polygon fill="#191970" stroke="#191970" points="1089.6825,-242.2624 1079.0902,-242.4945 1087.5154,-248.9185 1089.6825,-242.2624"/>
</g>
<!-- Node21 -->
<g id="node21" class="node">
<title>Node21</title>
<g id="a_node21"><a xlink:title=" ">
<polygon fill="#ffffff" stroke="#bfbfbf" points="1557.5,-224.5 1557.5,-243.5 1606.5,-243.5 1606.5,-224.5 1557.5,-224.5"/>
<text text-anchor="middle" x="1582" y="-231.5" font-family="Helvetica,sans-Serif" font-size="10.00" fill="#000000">stdint.h</text>
</a>
</g>
</g>
<!-- Node16&#45;&gt;Node21 -->
<g id="edge32" class="edge">
<title>Node16&#45;&gt;Node21</title>
<path fill="none" stroke="#191970" d="M1260.9711,-281.5858C1263.683,-281.0248 1266.3818,-280.4891 1269,-280 1369.382,-261.2459 1489.0553,-245.469 1547.0482,-238.2373"/>
<polygon fill="#191970" stroke="#191970" points="1547.6464,-241.69 1557.1405,-236.9876 1546.7861,-234.7431 1547.6464,-241.69"/>
</g>
<!-- Node17&#45;&gt;Node4 -->
<g id="edge25" class="edge">
<title>Node17&#45;&gt;Node4</title>
<path fill="none" stroke="#191970" d="M1206.8439,-112.4509C1222.3242,-93.6054 1257.0053,-51.3849 1276.6727,-27.4419"/>
<polygon fill="#191970" stroke="#191970" points="1279.5331,-29.4738 1283.176,-19.5249 1274.124,-25.0306 1279.5331,-29.4738"/>
</g>
<!-- Node17&#45;&gt;Node13 -->
<g id="edge26" class="edge">
<title>Node17&#45;&gt;Node13</title>
<path fill="none" stroke="#191970" d="M1182.9748,-112.2455C1168.8592,-103.6534 1148.0737,-91.0014 1131.8101,-81.1018"/>
<polygon fill="#191970" stroke="#191970" points="1133.2034,-77.8525 1122.8415,-75.6427 1129.5637,-83.8319 1133.2034,-77.8525"/>
</g>
<!-- Node18&#45;&gt;Node4 -->
<g id="edge28" class="edge">
<title>Node18&#45;&gt;Node4</title>
<path fill="none" stroke="#191970" d="M1249.6188,-224.4987C1254.5043,-206.5382 1265.1336,-166.3263 1272,-132 1279.1869,-96.0715 1285.247,-53.732 1288.481,-29.5602"/>
<polygon fill="#191970" stroke="#191970" points="1291.9648,-29.9114 1289.7981,-19.5405 1285.0245,-28.999 1291.9648,-29.9114"/>
</g>
<!-- Node18&#45;&gt;Node9 -->
<g id="edge29" class="edge">
<title>Node18&#45;&gt;Node9</title>
<path fill="none" stroke="#191970" d="M1305.0618,-224.4369C1364.4402,-214.6569 1456.6172,-199.4748 1519.2812,-189.1537"/>
<polygon fill="#191970" stroke="#191970" points="1520.1633,-192.5556 1529.4615,-187.4769 1519.0256,-185.6487 1520.1633,-192.5556"/>
</g>
<!-- Node26&#45;&gt;Node4 -->
<g id="edge40" class="edge">
<title>Node26&#45;&gt;Node4</title>
<path fill="none" stroke="#191970" d="M629.9665,-449.4579C626.9337,-448.9568 623.9262,-448.4672 621,-448 566.6591,-439.3244 419.7629,-445.3618 376,-412 350.5195,-392.5755 347,-378.0401 347,-346 347,-346 347,-346 347,-122 347,-64.2222 403.6991,-72.7357 459,-56 530.0754,-34.4904 1022.3576,-17.8931 1214.462,-12.1652"/>
<polygon fill="#191970" stroke="#191970" points="1214.5894,-15.6631 1224.4813,-11.8682 1214.3819,-8.6661 1214.5894,-15.6631"/>
</g>
<!-- Node26&#45;&gt;Node7 -->
<g id="edge41" class="edge">
<title>Node26&#45;&gt;Node7</title>
<path fill="none" stroke="#191970" d="M638.5275,-448.4369C598.052,-438.8731 535.7133,-424.1432 492.1297,-413.845"/>
<polygon fill="#191970" stroke="#191970" points="492.8424,-410.4171 482.3055,-411.5237 491.2327,-417.2295 492.8424,-410.4171"/>
</g>
<!-- Node28&#45;&gt;Node4 -->
<g id="edge46" class="edge">
<title>Node28&#45;&gt;Node4</title>
<path fill="none" stroke="#191970" d="M1849.1485,-705.4936C1915.3056,-696.7922 2003.98,-683.1512 2037,-669 2093.4974,-644.7872 2148,-647.9672 2148,-586.5 2148,-586.5 2148,-586.5 2148,-458 2148,-275.1026 2362.1449,-188.4346 2236,-56 2206.2211,-24.7363 1587.7226,-13.7961 1367.7866,-10.8858"/>
<polygon fill="#191970" stroke="#191970" points="1367.6634,-7.384 1357.6186,-10.7533 1367.5721,-14.3834 1367.6634,-7.384"/>
</g>
<!-- Node28&#45;&gt;Node10 -->
<g id="edge73" class="edge">
<title>Node28&#45;&gt;Node10</title>
<path fill="none" stroke="#191970" d="M1803.8209,-705.356C1822.7508,-698.2664 1845.2424,-686.7245 1859,-669 1882.0711,-639.2767 1878,-624.1265 1878,-586.5 1878,-586.5 1878,-586.5 1878,-458 1878,-367.4761 1848.719,-337.7393 1779,-280 1747.0871,-253.5707 1723.4152,-272.1399 1693,-244 1665.1322,-218.2169 1679.5491,-196.0825 1654,-168 1642.2086,-155.0393 1625.9691,-144.2454 1611.897,-136.3781"/>
<polygon fill="#191970" stroke="#191970" points="1613.5,-133.2664 1603.0312,-131.6375 1610.1993,-139.4393 1613.5,-133.2664"/>
</g>
<!-- Node28&#45;&gt;Node15 -->
<g id="edge74" class="edge">
<title>Node28&#45;&gt;Node15</title>
<path fill="none" stroke="#191970" d="M1689.8733,-713.1378C1564.9873,-709.4026 1316.5918,-698.6324 1108,-669 968.4422,-649.1745 905.5153,-693.1586 798,-602 741.8482,-554.3908 775.1333,-510.9723 737,-448 716.876,-414.7677 685.8161,-381.7164 666.4857,-362.6034"/>
<polygon fill="#191970" stroke="#191970" points="668.8298,-360.0008 659.223,-355.5331 663.9469,-365.0166 668.8298,-360.0008"/>
</g>
<!-- Node29 -->
<g id="node29" class="node">
<title>Node29</title>
<g id="a_node29"><a xlink:href="../../d3/df0/EMA_8hpp.html" target="_top" xlink:title=" ">
<polygon fill="#ffffff" stroke="#000000" points="1906,-280.5 1906,-299.5 2010,-299.5 2010,-280.5 1906,-280.5"/>
<text text-anchor="middle" x="1958" y="-287.5" font-family="Helvetica,sans-Serif" font-size="10.00" fill="#000000">AH/Filters/EMA.hpp</text>
</a>
</g>
</g>
<!-- Node28&#45;&gt;Node29 -->
<g id="edge47" class="edge">
<title>Node28&#45;&gt;Node29</title>
<path fill="none" stroke="#191970" d="M1811.4414,-705.4538C1890.4855,-686.0366 2055,-639.2834 2055,-586.5 2055,-586.5 2055,-586.5 2055,-402 2055,-358.5952 2012.8576,-323.7503 1984.1278,-305.0386"/>
<polygon fill="#191970" stroke="#191970" points="1985.6753,-301.8782 1975.3417,-299.5399 1981.9616,-307.8119 1985.6753,-301.8782"/>
</g>
<!-- Node30 -->
<g id="node30" class="node">
<title>Node30</title>
<g id="a_node30"><a xlink:href="../../d3/d09/Hysteresis_8hpp.html" target="_top" xlink:title=" ">
<polygon fill="#ffffff" stroke="#000000" points="2028,-280.5 2028,-299.5 2158,-299.5 2158,-280.5 2028,-280.5"/>
<text text-anchor="middle" x="2093" y="-287.5" font-family="Helvetica,sans-Serif" font-size="10.00" fill="#000000">AH/Filters/Hysteresis.hpp</text>
</a>
</g>
</g>
<!-- Node28&#45;&gt;Node30 -->
<g id="edge50" class="edge">
<title>Node28&#45;&gt;Node30</title>
<path fill="none" stroke="#191970" d="M1850.2299,-706.0106C1891.2861,-699.3662 1941.2686,-688.0429 1983,-669 2038.5962,-643.6302 2093,-647.6111 2093,-586.5 2093,-586.5 2093,-586.5 2093,-402 2093,-369.7116 2093,-332.1872 2093,-309.8048"/>
<polygon fill="#191970" stroke="#191970" points="2096.5001,-309.5883 2093,-299.5884 2089.5001,-309.5884 2096.5001,-309.5883"/>
</g>
<!-- Node31 -->
<g id="node31" class="node">
<title>Node31</title>
<g id="a_node31"><a xlink:href="../../dd/ddf/ExtendedInputOutput_8hpp.html" target="_top" xlink:title=" ">
<polygon fill="#ffffff" stroke="#000000" points="1690,-638.5 1690,-668.5 1850,-668.5 1850,-638.5 1690,-638.5"/>
<text text-anchor="start" x="1698" y="-656.5" font-family="Helvetica,sans-Serif" font-size="10.00" fill="#000000">AH/Hardware/ExtendedInput</text>
<text text-anchor="middle" x="1770" y="-645.5" font-family="Helvetica,sans-Serif" font-size="10.00" fill="#000000">Output/ExtendedInputOutput.hpp</text>
</a>
</g>
</g>
<!-- Node28&#45;&gt;Node31 -->
<g id="edge53" class="edge">
<title>Node28&#45;&gt;Node31</title>
<path fill="none" stroke="#191970" d="M1770,-705.3906C1770,-698.2234 1770,-688.0862 1770,-678.671"/>
<polygon fill="#191970" stroke="#191970" points="1773.5001,-678.5446 1770,-668.5446 1766.5001,-678.5446 1773.5001,-678.5446"/>
</g>
<!-- Node32 -->
<g id="node32" class="node">
<title>Node32</title>
<g id="a_node32"><a xlink:href="../../d4/d35/Hardware-Types_8hpp.html" target="_top" xlink:title=" ">
<polygon fill="#ffffff" stroke="#000000" points="1601.5,-571.5 1601.5,-601.5 1722.5,-601.5 1722.5,-571.5 1601.5,-571.5"/>
<text text-anchor="start" x="1609.5" y="-589.5" font-family="Helvetica,sans-Serif" font-size="10.00" fill="#000000">AH/Hardware/Hardware</text>
<text text-anchor="middle" x="1662" y="-578.5" font-family="Helvetica,sans-Serif" font-size="10.00" fill="#000000">&#45;Types.hpp</text>
</a>
</g>
</g>
<!-- Node28&#45;&gt;Node32 -->
<g id="edge67" class="edge">
<title>Node28&#45;&gt;Node32</title>
<path fill="none" stroke="#191970" d="M1736.1791,-705.356C1717.2492,-698.2664 1694.7576,-686.7245 1681,-669 1668.3872,-652.7505 1663.8865,-629.611 1662.3978,-611.9714"/>
<polygon fill="#191970" stroke="#191970" points="1665.8819,-611.5928 1661.8146,-601.8098 1658.8934,-611.994 1665.8819,-611.5928"/>
</g>
<!-- Node35 -->
<g id="node35" class="node">
<title>Node35</title>
<g id="a_node35"><a xlink:href="../../d5/dee/IncreaseBitDepth_8hpp.html" target="_top" xlink:title=" ">
<polygon fill="#ffffff" stroke="#000000" points="1278.5,-280.5 1278.5,-299.5 1431.5,-299.5 1431.5,-280.5 1278.5,-280.5"/>
<text text-anchor="middle" x="1355" y="-287.5" font-family="Helvetica,sans-Serif" font-size="10.00" fill="#000000">AH/Math/IncreaseBitDepth.hpp</text>
</a>
</g>
</g>
<!-- Node28&#45;&gt;Node35 -->
<g id="edge68" class="edge">
<title>Node28&#45;&gt;Node35</title>
<path fill="none" stroke="#191970" d="M1689.6858,-706.5936C1569.2923,-691.731 1356,-655.6429 1356,-586.5 1356,-586.5 1356,-586.5 1356,-402 1356,-369.7103 1355.5793,-332.1863 1355.2836,-309.8043"/>
<polygon fill="#191970" stroke="#191970" points="1358.7804,-309.5391 1355.1433,-299.5881 1351.781,-309.6353 1358.7804,-309.5391"/>
</g>
<!-- Node29&#45;&gt;Node4 -->
<g id="edge48" class="edge">
<title>Node29&#45;&gt;Node4</title>
<path fill="none" stroke="#191970" d="M1959.2895,-280.4324C1961.7781,-261.112 1967,-216.0389 1967,-178 1967,-178 1967,-178 1967,-122 1967,-90.7875 1967.9188,-74.7956 1943,-56 1898.0388,-22.087 1530.7413,-13.1088 1368.0584,-10.7867"/>
<polygon fill="#191970" stroke="#191970" points="1367.6915,-7.2814 1357.6442,-10.6432 1367.595,-14.2807 1367.6915,-7.2814"/>
</g>
<!-- Node29&#45;&gt;Node21 -->
<g id="edge49" class="edge">
<title>Node29&#45;&gt;Node21</title>
<path fill="none" stroke="#191970" d="M1905.7188,-282.2134C1827.7624,-270.6029 1683.1405,-249.0635 1616.8434,-239.1894"/>
<polygon fill="#191970" stroke="#191970" points="1617.3043,-235.7196 1606.8978,-237.7082 1616.2731,-242.6432 1617.3043,-235.7196"/>
</g>
<!-- Node30&#45;&gt;Node4 -->
<g id="edge51" class="edge">
<title>Node30&#45;&gt;Node4</title>
<path fill="none" stroke="#191970" d="M2077.6716,-280.3315C2052.459,-263.0999 2005,-224.4895 2005,-178 2005,-178 2005,-178 2005,-122 2005,-87.6999 1994.2946,-73.8415 1965,-56 1915.0528,-25.5803 1533.8193,-14.6387 1367.8262,-11.2891"/>
<polygon fill="#191970" stroke="#191970" points="1367.7553,-7.7871 1357.688,-11.0886 1367.6168,-14.7858 1367.7553,-7.7871"/>
</g>
<!-- Node30&#45;&gt;Node21 -->
<g id="edge52" class="edge">
<title>Node30&#45;&gt;Node21</title>
<path fill="none" stroke="#191970" d="M2027.6434,-281.0618C2024.7232,-280.696 2021.8317,-280.3403 2019,-280 1869.5629,-262.0417 1690.9029,-244.4416 1616.824,-237.3142"/>
<polygon fill="#191970" stroke="#191970" points="1616.9578,-233.8111 1606.6691,-236.3398 1616.2891,-240.7791 1616.9578,-233.8111"/>
</g>
<!-- Node31&#45;&gt;Node4 -->
<g id="edge55" class="edge">
<title>Node31&#45;&gt;Node4</title>
<path fill="none" stroke="#191970" d="M1850.1938,-643.6432C1922.3162,-629.7674 2017,-596.8257 2017,-519.5 2017,-519.5 2017,-519.5 2017,-402 2017,-316.0669 2195.0885,-361.2129 2167,-280 2125.6157,-160.3448 2102.9953,-115.0516 1991,-56 1936.9918,-27.5232 1538.0873,-15.4342 1367.7495,-11.5323"/>
<polygon fill="#191970" stroke="#191970" points="1367.6777,-8.0299 1357.6013,-11.3033 1367.5198,-15.0281 1367.6777,-8.0299"/>
</g>
<!-- Node31&#45;&gt;Node9 -->
<g id="edge56" class="edge">
<title>Node31&#45;&gt;Node9</title>
<path fill="none" stroke="#191970" d="M1776.1699,-638.107C1785.4688,-613.4798 1802,-563.5092 1802,-519.5 1802,-519.5 1802,-519.5 1802,-346 1802,-267.9332 1722.2101,-289.8138 1659,-244 1638.5701,-229.1927 1617.5652,-209.3013 1603.5557,-195.2383"/>
<polygon fill="#191970" stroke="#191970" points="1605.6747,-192.4006 1596.1727,-187.7143 1600.6784,-197.3033 1605.6747,-192.4006"/>
</g>
<!-- Node31&#45;&gt;Node13 -->
<g id="edge54" class="edge">
<title>Node31&#45;&gt;Node13</title>
<path fill="none" stroke="#191970" d="M1714.7078,-638.3994C1679.6601,-628.5845 1633.4663,-615.1996 1593,-602 1509.8627,-574.8816 1484.9829,-576.4831 1408,-535 1217.6147,-432.4086 1114.9561,-437.316 1018,-244 988.1731,-184.5296 1053.5739,-113.8136 1087.8184,-82.4182"/>
<polygon fill="#191970" stroke="#191970" points="1090.2654,-84.9254 1095.3886,-75.6516 1085.6004,-79.7064 1090.2654,-84.9254"/>
</g>
<!-- Node31&#45;&gt;Node32 -->
<g id="edge57" class="edge">
<title>Node31&#45;&gt;Node32</title>
<path fill="none" stroke="#191970" d="M1745.7627,-638.4639C1730.8601,-629.2188 1711.5594,-617.2452 1695.2417,-607.1222"/>
<polygon fill="#191970" stroke="#191970" points="1696.8728,-604.0153 1686.5301,-601.7177 1693.1826,-609.9636 1696.8728,-604.0153"/>
</g>
<!-- Node32&#45;&gt;Node4 -->
<g id="edge58" class="edge">
<title>Node32&#45;&gt;Node4</title>
<path fill="none" stroke="#191970" d="M1682.2133,-571.3035C1694.5911,-561.5568 1710.4159,-548.2795 1723,-535 1770.1407,-485.2543 1780.258,-470.4756 1816,-412 1846.1158,-362.7292 1929,-235.7457 1929,-178 1929,-178 1929,-178 1929,-122 1929,-36.3743 1831.4676,-75.1026 1748,-56 1616.5105,-25.9069 1459.2536,-15.4987 1367.6938,-11.9001"/>
<polygon fill="#191970" stroke="#191970" points="1367.8031,-8.4018 1357.6786,-11.5234 1367.54,-15.3969 1367.8031,-8.4018"/>
</g>
<!-- Node32&#45;&gt;Node13 -->
<g id="edge65" class="edge">
<title>Node32&#45;&gt;Node13</title>
<path fill="none" stroke="#191970" d="M1601.2544,-574.9892C1548.6055,-564.4121 1476.9208,-548.3922 1451,-535 1415.5911,-516.7058 1203.7425,-332.0119 1180,-300 1129.7335,-232.2258 1113.5403,-129.0607 1108.7936,-85.9859"/>
<polygon fill="#191970" stroke="#191970" points="1112.2668,-85.5433 1107.7791,-75.9459 1105.3022,-86.2471 1112.2668,-85.5433"/>
</g>
<!-- Node32&#45;&gt;Node21 -->
<g id="edge66" class="edge">
<title>Node32&#45;&gt;Node21</title>
<path fill="none" stroke="#191970" d="M1676.1939,-571.2802C1684.664,-561.5247 1695.0826,-548.2464 1702,-535 1718.5929,-503.2256 1726,-493.846 1726,-458 1726,-458 1726,-458 1726,-346 1726,-314.7875 1723.879,-302.2605 1702,-280 1689.7402,-267.5265 1647.4908,-253.0786 1616.5817,-243.7528"/>
<polygon fill="#191970" stroke="#191970" points="1617.1761,-240.2787 1606.5939,-240.7967 1615.1894,-246.9909 1617.1761,-240.2787"/>
</g>
<!-- Node33 -->
<g id="node33" class="node">
<title>Node33</title>
<g id="a_node33"><a xlink:href="../../de/d76/Array_8hpp.html" target="_top" xlink:title=" ">
<polygon fill="#ffffff" stroke="#000000" points="1460,-510 1460,-529 1586,-529 1586,-510 1460,-510"/>
<text text-anchor="middle" x="1523" y="-517" font-family="Helvetica,sans-Serif" font-size="10.00" fill="#000000">AH/Containers/Array.hpp</text>
</a>
</g>
</g>
<!-- Node32&#45;&gt;Node33 -->
<g id="edge59" class="edge">
<title>Node32&#45;&gt;Node33</title>
<path fill="none" stroke="#191970" d="M1630.8057,-571.4639C1607.2732,-560.1209 1575.2198,-544.6707 1552.1906,-533.5703"/>
<polygon fill="#191970" stroke="#191970" points="1553.4524,-530.2932 1542.9246,-529.1039 1550.413,-536.5989 1553.4524,-530.2932"/>
</g>
<!-- Node33&#45;&gt;Node4 -->
<g id="edge60" class="edge">
<title>Node33&#45;&gt;Node4</title>
<path fill="none" stroke="#191970" d="M1540.8466,-509.9987C1617.9061,-468.3748 1916.2543,-300.7808 1872,-224 1797.6175,-94.9469 1722.3817,-105.804 1582,-56 1511.9389,-31.144 1427.6328,-19.6844 1367.8396,-14.4216"/>
<polygon fill="#191970" stroke="#191970" points="1367.9743,-10.9207 1357.7158,-13.5691 1367.3868,-17.896 1367.9743,-10.9207"/>
</g>
<!-- Node33&#45;&gt;Node14 -->
<g id="edge63" class="edge">
<title>Node33&#45;&gt;Node14</title>
<path fill="none" stroke="#191970" d="M1531.4714,-509.6682C1539.3162,-499.8622 1550.4359,-483.9932 1555,-468 1557.4393,-459.4524 1556.3671,-456.7831 1555,-448 1536.2312,-327.413 1480.6164,-190.4367 1459.3752,-141.023"/>
<polygon fill="#191970" stroke="#191970" points="1462.4771,-139.3789 1455.2829,-131.6011 1456.0566,-142.1677 1462.4771,-139.3789"/>
</g>
<!-- Node33&#45;&gt;Node20 -->
<g id="edge64" class="edge">
<title>Node33&#45;&gt;Node20</title>
<path fill="none" stroke="#191970" d="M1505.9489,-509.96C1490.5037,-500.7076 1467.8107,-485.5247 1452,-468 1425.855,-439.0207 1437.4775,-417.5819 1408,-392 1325.4726,-320.3789 1279.2606,-345.6912 1180,-300 1144.5739,-283.6928 1104.8505,-262.5735 1079.4147,-248.6719"/>
<polygon fill="#191970" stroke="#191970" points="1080.8542,-245.4694 1070.4044,-243.7224 1077.484,-251.6047 1080.8542,-245.4694"/>
</g>
<!-- Node33&#45;&gt;Node26 -->
<g id="edge61" class="edge">
<title>Node33&#45;&gt;Node26</title>
<path fill="none" stroke="#191970" d="M1459.741,-514.0177C1423.7663,-510.9528 1377.8708,-507.1314 1337,-504 1116.161,-487.0798 853.4264,-469.4695 738.1585,-461.87"/>
<polygon fill="#191970" stroke="#191970" points="738.3384,-458.3744 728.1299,-461.2096 737.8783,-465.3593 738.3384,-458.3744"/>
</g>
<!-- Node34 -->
<g id="node34" class="node">
<title>Node34</title>
<g id="a_node34"><a xlink:title=" ">
<polygon fill="#ffffff" stroke="#bfbfbf" points="1460.5,-448.5 1460.5,-467.5 1545.5,-467.5 1545.5,-448.5 1460.5,-448.5"/>
<text text-anchor="middle" x="1503" y="-455.5" font-family="Helvetica,sans-Serif" font-size="10.00" fill="#000000">AH/STL/iterator</text>
</a>
</g>
</g>
<!-- Node33&#45;&gt;Node34 -->
<g id="edge62" class="edge">
<title>Node33&#45;&gt;Node34</title>
<path fill="none" stroke="#191970" d="M1519.875,-509.8906C1517.0735,-501.276 1512.8767,-488.3708 1509.3694,-477.5858"/>
<polygon fill="#191970" stroke="#191970" points="1512.5902,-476.1722 1506.1691,-467.7449 1505.9333,-478.3371 1512.5902,-476.1722"/>
</g>
<!-- Node35&#45;&gt;Node4 -->
<g id="edge69" class="edge">
<title>Node35&#45;&gt;Node4</title>
<path fill="none" stroke="#191970" d="M1383.1013,-280.443C1457.4631,-255.1496 1653.7413,-188.3616 1654,-188 1673.6541,-160.529 1674.3997,-138.9219 1654,-112 1619.5394,-66.5217 1463.6779,-35.6822 1367.7389,-20.6339"/>
<polygon fill="#191970" stroke="#191970" points="1368.2037,-17.1642 1357.7864,-19.0956 1367.1344,-24.0821 1368.2037,-17.1642"/>
</g>
<!-- Node35&#45;&gt;Node14 -->
<g id="edge70" class="edge">
<title>Node35&#45;&gt;Node14</title>
<path fill="none" stroke="#191970" d="M1365.0677,-280.4927C1374.015,-271.6581 1387.0299,-257.8186 1396,-244 1417.9285,-210.2186 1435.3782,-166.2475 1444.36,-141.3757"/>
<polygon fill="#191970" stroke="#191970" points="1447.7528,-142.2785 1447.7782,-131.6837 1441.1514,-139.9502 1447.7528,-142.2785"/>
</g>
<!-- Node35&#45;&gt;Node19 -->
<g id="edge71" class="edge">
<title>Node35&#45;&gt;Node19</title>
<path fill="none" stroke="#191970" d="M1356.3935,-280.2455C1357.4374,-272.9382 1358.9008,-262.6944 1360.1851,-253.7046"/>
<polygon fill="#191970" stroke="#191970" points="1363.673,-254.0372 1361.6225,-243.6427 1356.7434,-253.0472 1363.673,-254.0372"/>
</g>
<!-- Node35&#45;&gt;Node20 -->
<g id="edge72" class="edge">
<title>Node35&#45;&gt;Node20</title>
<path fill="none" stroke="#191970" d="M1303.4275,-280.4369C1242.4637,-269.1323 1142.5762,-250.6102 1089.2409,-240.7202"/>
<polygon fill="#191970" stroke="#191970" points="1089.6904,-237.2439 1079.2198,-238.862 1088.4141,-244.1266 1089.6904,-237.2439"/>
</g>
<!-- Node36&#45;&gt;Node4 -->
<g id="edge76" class="edge">
<title>Node36&#45;&gt;Node4</title>
<path fill="none" stroke="#191970" d="M1782.2526,-224.3142C1782.4663,-193.8832 1778.6011,-99.6334 1725,-56 1711.3502,-44.8885 1488.8213,-25.6693 1367.8623,-15.9685"/>
<polygon fill="#191970" stroke="#191970" points="1367.7994,-12.4525 1357.5525,-15.145 1367.242,-19.4302 1367.7994,-12.4525"/>
</g>
<!-- Node36&#45;&gt;Node9 -->
<g id="edge77" class="edge">
<title>Node36&#45;&gt;Node9</title>
<path fill="none" stroke="#191970" d="M1748.4783,-224.3733C1715.6317,-214.9404 1665.4405,-200.5265 1629.7422,-190.2747"/>
<polygon fill="#191970" stroke="#191970" points="1630.6619,-186.8974 1620.0843,-187.5011 1628.7297,-193.6255 1630.6619,-186.8974"/>
</g>
<!-- Node36&#45;&gt;Node13 -->
<g id="edge78" class="edge">
<title>Node36&#45;&gt;Node13</title>
<path fill="none" stroke="#191970" d="M1775.6176,-224.4769C1758.9486,-200.5178 1711.3956,-137.814 1654,-112 1614.4259,-94.2013 1354.2979,-78.4453 1207.4686,-70.8342"/>
<polygon fill="#191970" stroke="#191970" points="1207.264,-67.3191 1197.0973,-70.3003 1206.9041,-74.3098 1207.264,-67.3191"/>
</g>
<!-- Node37&#45;&gt;Node6 -->
<g id="edge92" class="edge">
<title>Node37&#45;&gt;Node6</title>
<path fill="none" stroke="#191970" d="M284.5473,-766.9839C182.3382,-750.644 0,-713.1367 0,-653.5 0,-653.5 0,-653.5 0,-586.5 0,-522.7648 75.9504,-487.4656 128.6276,-470.6479"/>
<polygon fill="#191970" stroke="#191970" points="129.9603,-473.9002 138.496,-467.6238 127.9094,-467.2074 129.9603,-473.9002"/>
</g>
<!-- Node37&#45;&gt;Node38 -->
<g id="edge80" class="edge">
<title>Node37&#45;&gt;Node38</title>
<path fill="none" stroke="#191970" d="M354.8125,-766.8906C357.3339,-758.276 361.111,-745.3708 364.2676,-734.5858"/>
<polygon fill="#191970" stroke="#191970" points="367.6979,-735.3254 367.1478,-724.7449 360.9797,-733.3591 367.6979,-735.3254"/>
</g>
<!-- Node38&#45;&gt;Node6 -->
<g id="edge81" class="edge">
<title>Node38&#45;&gt;Node6</title>
<path fill="none" stroke="#191970" d="M362.7078,-705.2391C334.0766,-666.9151 229.091,-526.3874 191.5005,-476.071"/>
<polygon fill="#191970" stroke="#191970" points="194.0884,-473.6871 185.2995,-467.7706 188.4806,-477.8766 194.0884,-473.6871"/>
</g>
<!-- Node39 -->
<g id="node39" class="node">
<title>Node39</title>
<g id="a_node39"><a xlink:href="../../d0/d4e/Def_8hpp.html" target="_top" xlink:title=" ">
<polygon fill="#ffffff" stroke="#000000" points="1117,-644 1117,-663 1187,-663 1187,-644 1117,-644"/>
<text text-anchor="middle" x="1152" y="-651" font-family="Helvetica,sans-Serif" font-size="10.00" fill="#000000">Def/Def.hpp</text>
</a>
</g>
</g>
<!-- Node38&#45;&gt;Node39 -->
<g id="edge82" class="edge">
<title>Node38&#45;&gt;Node39</title>
<path fill="none" stroke="#191970" d="M441.8183,-709.3519C600.4464,-696.8767 976.9185,-667.2692 1106.9248,-657.0449"/>
<polygon fill="#191970" stroke="#191970" points="1107.2408,-660.531 1116.9355,-656.2576 1106.6919,-653.5525 1107.2408,-660.531"/>
</g>
<!-- Node42 -->
<g id="node42" class="node">
<title>Node42</title>
<g id="a_node42"><a xlink:title=" ">
<polygon fill="#ffffff" stroke="#bfbfbf" points="347.5,-644 347.5,-663 392.5,-663 392.5,-644 347.5,-644"/>
<text text-anchor="middle" x="370" y="-651" font-family="Helvetica,sans-Serif" font-size="10.00" fill="#000000">Print.h</text>
</a>
</g>
</g>
<!-- Node38&#45;&gt;Node42 -->
<g id="edge91" class="edge">
<title>Node38&#45;&gt;Node42</title>
<path fill="none" stroke="#191970" d="M370,-705.3906C370,-696.8657 370,-684.1392 370,-673.4235"/>
<polygon fill="#191970" stroke="#191970" points="373.5001,-673.2448 370,-663.2449 366.5001,-673.2449 373.5001,-673.2448"/>
</g>
<!-- Node39&#45;&gt;Node20 -->
<g id="edge89" class="edge">
<title>Node39&#45;&gt;Node20</title>
<path fill="none" stroke="#191970" d="M1159.2059,-643.9563C1175.9467,-620.6321 1215.2164,-558.6453 1204,-504 1182.3244,-398.3983 1101.809,-292.4075 1068.0487,-251.5585"/>
<polygon fill="#191970" stroke="#191970" points="1070.6979,-249.2706 1061.5923,-243.8541 1065.3327,-253.7667 1070.6979,-249.2706"/>
</g>
<!-- Node39&#45;&gt;Node21 -->
<g id="edge90" class="edge">
<title>Node39&#45;&gt;Node21</title>
<path fill="none" stroke="#191970" d="M1182.9997,-643.986C1189.8947,-641.9464 1197.1813,-639.85 1204,-638 1247.3591,-626.2363 1561.3228,-564.7362 1595,-535 1642.9493,-492.6618 1650,-465.966 1650,-402 1650,-402 1650,-402 1650,-346 1650,-307.6435 1620.4993,-271.2254 1600.3598,-250.8326"/>
<polygon fill="#191970" stroke="#191970" points="1602.5311,-248.0616 1592.9254,-243.5917 1597.647,-253.0762 1602.5311,-248.0616"/>
</g>
<!-- Node39&#45;&gt;Node32 -->
<g id="edge87" class="edge">
<title>Node39&#45;&gt;Node32</title>
<path fill="none" stroke="#191970" d="M1187.073,-646.6175C1202.3712,-643.7417 1220.5378,-640.4961 1237,-638 1361.2807,-619.1558 1506.8425,-602.733 1591.3243,-593.7568"/>
<polygon fill="#191970" stroke="#191970" points="1591.7425,-597.2322 1601.3187,-592.6994 1591.0059,-590.271 1591.7425,-597.2322"/>
</g>
<!-- Node39&#45;&gt;Node33 -->
<g id="edge86" class="edge">
<title>Node39&#45;&gt;Node33</title>
<path fill="none" stroke="#191970" d="M1178.384,-643.9705C1243.6573,-620.3947 1412.777,-559.311 1487.0849,-532.472"/>
<polygon fill="#191970" stroke="#191970" points="1488.286,-535.7596 1496.5023,-529.0706 1485.908,-529.1759 1488.286,-535.7596"/>
</g>
<!-- Node40 -->
<g id="node40" class="node">
<title>Node40</title>
<g id="a_node40"><a xlink:href="../../d7/d42/Channel_8hpp.html" target="_top" xlink:title=" ">
<polygon fill="#ffffff" stroke="#000000" points="1256.5,-510 1256.5,-529 1327.5,-529 1327.5,-510 1256.5,-510"/>
<text text-anchor="middle" x="1292" y="-517" font-family="Helvetica,sans-Serif" font-size="10.00" fill="#000000">Channel.hpp</text>
</a>
</g>
</g>
<!-- Node39&#45;&gt;Node40 -->
<g id="edge83" class="edge">
<title>Node39&#45;&gt;Node40</title>
<path fill="none" stroke="#191970" d="M1175.9606,-643.8449C1195.4585,-635.101 1222.7963,-620.7273 1242,-602 1260.9318,-583.5378 1275.5305,-556.4667 1283.9396,-538.4288"/>
<polygon fill="#191970" stroke="#191970" points="1287.1717,-539.7747 1288.0622,-529.2173 1280.7824,-536.9151 1287.1717,-539.7747"/>
</g>
<!-- Node41 -->
<g id="node41" class="node">
<title>Node41</title>
<g id="a_node41"><a xlink:title=" ">
<polygon fill="#ffffff" stroke="#bfbfbf" points="898.5,-448.5 898.5,-467.5 1061.5,-467.5 1061.5,-448.5 898.5,-448.5"/>
<text text-anchor="middle" x="980" y="-455.5" font-family="Helvetica,sans-Serif" font-size="10.00" fill="#000000">Settings/NamespaceSettings.hpp</text>
</a>
</g>
</g>
<!-- Node39&#45;&gt;Node41 -->
<g id="edge88" class="edge">
<title>Node39&#45;&gt;Node41</title>
<path fill="none" stroke="#191970" d="M1134.2849,-643.883C1103.5187,-626.2973 1040.1426,-586.0238 1005,-535 993.0813,-517.6952 986.5573,-494.3419 983.1919,-477.9062"/>
<polygon fill="#191970" stroke="#191970" points="986.5838,-476.9978 981.3392,-467.7922 979.6984,-478.2592 986.5838,-476.9978"/>
</g>
<!-- Node40&#45;&gt;Node21 -->
<g id="edge84" class="edge">
<title>Node40&#45;&gt;Node21</title>
<path fill="none" stroke="#191970" d="M1307.2888,-509.8497C1350.4154,-481.9915 1474.7723,-397.1998 1550,-300 1561.0552,-285.7158 1569.6836,-266.9986 1575.1805,-253.1461"/>
<polygon fill="#191970" stroke="#191970" points="1578.5059,-254.247 1578.7619,-243.6553 1571.9567,-251.7756 1578.5059,-254.247"/>
</g>
<!-- Node40&#45;&gt;Node41 -->
<g id="edge85" class="edge">
<title>Node40&#45;&gt;Node41</title>
<path fill="none" stroke="#191970" d="M1256.2096,-512.4452C1202.9565,-501.9481 1102.2826,-482.1038 1038.3027,-469.4924"/>
<polygon fill="#191970" stroke="#191970" points="1038.8504,-466.033 1028.3623,-467.5329 1037.4966,-472.9009 1038.8504,-466.033"/>
</g>
<!-- Node43&#45;&gt;Node3 -->
<g id="edge109" class="edge">
<title>Node43&#45;&gt;Node3</title>
<path fill="none" stroke="#191970" d="M958.7021,-761.4953C928.3678,-752.2899 889.9634,-739.502 857,-725 720.9402,-665.1416 568.984,-571.226 511.6209,-534.7232"/>
<polygon fill="#191970" stroke="#191970" points="513.2505,-531.611 502.9392,-529.1764 509.4817,-537.5099 513.2505,-531.611"/>
</g>
<!-- Node43&#45;&gt;Node39 -->
<g id="edge110" class="edge">
<title>Node43&#45;&gt;Node39</title>
<path fill="none" stroke="#191970" d="M1026.0684,-761.3934C1040.1983,-746.4989 1062.8507,-723.365 1084,-705 1098.7679,-692.1763 1116.3966,-678.8772 1130.0039,-669.0063"/>
<polygon fill="#191970" stroke="#191970" points="1132.2124,-671.7294 1138.2946,-663.0543 1128.1301,-666.043 1132.2124,-671.7294"/>
</g>
<!-- Node44 -->
<g id="node44" class="node">
<title>Node44</title>
<g id="a_node44"><a xlink:href="../../dd/ddf/MIDI__Pipes_8hpp.html" target="_top" xlink:title=" ">
<polygon fill="#ffffff" stroke="#000000" points="807.5,-577 807.5,-596 894.5,-596 894.5,-577 807.5,-577"/>
<text text-anchor="middle" x="851" y="-584" font-family="Helvetica,sans-Serif" font-size="10.00" fill="#000000">MIDI_Pipes.hpp</text>
</a>
</g>
</g>
<!-- Node43&#45;&gt;Node44 -->
<g id="edge95" class="edge">
<title>Node43&#45;&gt;Node44</title>
<path fill="none" stroke="#191970" d="M955.9681,-769.6276C926.5952,-763.0514 892.5477,-750.1826 872,-725 844.1747,-690.8982 845.196,-635.7949 848.1843,-606.4266"/>
<polygon fill="#191970" stroke="#191970" points="851.6949,-606.5477 849.4155,-596.201 844.7451,-605.7109 851.6949,-606.5477"/>
</g>
<!-- Node47 -->
<g id="node47" class="node">
<title>Node47</title>
<g id="a_node47"><a xlink:href="../../db/dd6/MIDIAddress_8hpp.html" target="_top" xlink:title=" ">
<polygon fill="#ffffff" stroke="#000000" points="1093,-705.5 1093,-724.5 1205,-724.5 1205,-705.5 1093,-705.5"/>
<text text-anchor="middle" x="1149" y="-712.5" font-family="Helvetica,sans-Serif" font-size="10.00" fill="#000000">Def/MIDIAddress.hpp</text>
</a>
</g>
</g>
<!-- Node43&#45;&gt;Node47 -->
<g id="edge111" class="edge">
<title>Node43&#45;&gt;Node47</title>
<path fill="none" stroke="#191970" d="M1045.514,-761.4554C1067.7712,-751.464 1096.7647,-738.4487 1118.3985,-728.7372"/>
<polygon fill="#191970" stroke="#191970" points="1120.0803,-731.8187 1127.7699,-724.5303 1117.2135,-725.4327 1120.0803,-731.8187"/>
</g>
<!-- Node48 -->
<g id="node48" class="node">
<title>Node48</title>
<g id="a_node48"><a xlink:href="../../d7/d2d/MIDI__Parser_8hpp.html" target="_top" xlink:title=" ">
<polygon fill="#ffffff" stroke="#000000" points="881.5,-705.5 881.5,-724.5 1036.5,-724.5 1036.5,-705.5 881.5,-705.5"/>
<text text-anchor="middle" x="959" y="-712.5" font-family="Helvetica,sans-Serif" font-size="10.00" fill="#000000">MIDI_Parsers/MIDI_Parser.hpp</text>
</a>
</g>
</g>
<!-- Node43&#45;&gt;Node48 -->
<g id="edge113" class="edge">
<title>Node43&#45;&gt;Node48</title>
<path fill="none" stroke="#191970" d="M998.8989,-761.2977C991.3887,-752.5831 981.93,-741.6075 974.1073,-732.5302"/>
<polygon fill="#191970" stroke="#191970" points="976.6655,-730.1372 967.486,-724.8469 971.3629,-734.707 976.6655,-730.1372"/>
</g>
<!-- Node50 -->
<g id="node50" class="node">
<title>Node50</title>
<g id="a_node50"><a xlink:href="../../d6/d38/MIDI__Interface_8ipp.html" target="_top" xlink:title=" ">
<polygon fill="#ffffff" stroke="#000000" points="1223,-705.5 1223,-724.5 1321,-724.5 1321,-705.5 1223,-705.5"/>
<text text-anchor="middle" x="1272" y="-712.5" font-family="Helvetica,sans-Serif" font-size="10.00" fill="#000000">MIDI_Interface.ipp</text>
</a>
</g>
</g>
<!-- Node43&#45;&gt;Node50 -->
<g id="edge120" class="edge">
<title>Node43&#45;&gt;Node50</title>
<path fill="none" stroke="#191970" d="M1068.0966,-761.8474C1112.0627,-751.1351 1172.8284,-736.7931 1216.6147,-726.8115"/>
<polygon fill="#191970" stroke="#191970" points="1217.545,-730.1894 1226.5219,-724.562 1215.9951,-723.3631 1217.545,-730.1894"/>
</g>
<!-- Node44&#45;&gt;Node4 -->
<g id="edge102" class="edge">
<title>Node44&#45;&gt;Node4</title>
<path fill="none" stroke="#191970" d="M807.2896,-584.254C638.4211,-575.005 38,-536.5939 38,-458 38,-458 38,-458 38,-122 38,-83.2415 60.0738,-72.8042 95,-56 145.4137,-31.7443 957.637,-15.7412 1214.0626,-11.2743"/>
<polygon fill="#191970" stroke="#191970" points="1214.4641,-14.768 1224.402,-11.0952 1214.3428,-7.769 1214.4641,-14.768"/>
</g>
<!-- Node44&#45;&gt;Node27 -->
<g id="edge101" class="edge">
<title>Node44&#45;&gt;Node27</title>
<path fill="none" stroke="#191970" d="M830.1048,-576.8416C781.2833,-554.2748 659.5848,-498.0221 602.9142,-471.8273"/>
<polygon fill="#191970" stroke="#191970" points="604.3042,-468.614 593.7584,-467.5952 601.3671,-474.968 604.3042,-468.614"/>
</g>
<!-- Node44&#45;&gt;Node41 -->
<g id="edge108" class="edge">
<title>Node44&#45;&gt;Node41</title>
<path fill="none" stroke="#191970" d="M869.8589,-576.8973C886.6823,-567.7076 911.3168,-552.6576 929,-535 946.2888,-517.7362 961.0648,-493.7441 970.1943,-477.1496"/>
<polygon fill="#191970" stroke="#191970" points="973.5092,-478.3709 975.1209,-467.8993 967.3308,-475.0802 973.5092,-478.3709"/>
</g>
<!-- Node45 -->
<g id="node45" class="node">
<title>Node45</title>
<g id="a_node45"><a xlink:href="../../d1/d40/BitArray_8hpp.html" target="_top" xlink:title=" ">
<polygon fill="#ffffff" stroke="#000000" points="782,-510 782,-529 920,-529 920,-510 782,-510"/>
<text text-anchor="middle" x="851" y="-517" font-family="Helvetica,sans-Serif" font-size="10.00" fill="#000000">AH/Containers/BitArray.hpp</text>
</a>
</g>
</g>
<!-- Node44&#45;&gt;Node45 -->
<g id="edge96" class="edge">
<title>Node44&#45;&gt;Node45</title>
<path fill="none" stroke="#191970" d="M851,-576.9005C851,-567.149 851,-551.7597 851,-539.3695"/>
<polygon fill="#191970" stroke="#191970" points="854.5001,-539.0816 851,-529.0817 847.5001,-539.0817 854.5001,-539.0816"/>
</g>
<!-- Node46 -->
<g id="node46" class="node">
<title>Node46</title>
<g id="a_node46"><a xlink:href="../../dc/d40/MIDI__MessageTypes_8hpp.html" target="_top" xlink:title=" ">
<polygon fill="#ffffff" stroke="#000000" points="1014.5,-504.5 1014.5,-534.5 1161.5,-534.5 1161.5,-504.5 1014.5,-504.5"/>
<text text-anchor="start" x="1022.5" y="-522.5" font-family="Helvetica,sans-Serif" font-size="10.00" fill="#000000">MIDI_Parsers/MIDI_Message</text>
<text text-anchor="middle" x="1088" y="-511.5" font-family="Helvetica,sans-Serif" font-size="10.00" fill="#000000">Types.hpp</text>
</a>
</g>
</g>
<!-- Node44&#45;&gt;Node46 -->
<g id="edge103" class="edge">
<title>Node44&#45;&gt;Node46</title>
<path fill="none" stroke="#191970" d="M884.7046,-576.9717C921.1369,-566.6723 980.0253,-550.0245 1025.0675,-537.291"/>
<polygon fill="#191970" stroke="#191970" points="1026.0738,-540.6438 1034.7445,-534.5553 1024.1695,-533.9078 1026.0738,-540.6438"/>
</g>
<!-- Node45&#45;&gt;Node4 -->
<g id="edge97" class="edge">
<title>Node45&#45;&gt;Node4</title>
<path fill="none" stroke="#191970" d="M849.5203,-509.8292C843.8363,-475.3273 820.7092,-356.2798 762,-280 745.0778,-258.0133 729.9221,-264.2912 711,-244 687.6072,-218.9147 671,-212.3001 671,-178 671,-178 671,-178 671,-122 671,-56.4087 739.9417,-74.0519 803,-56 878.1223,-34.4945 1096.5997,-20.1712 1214.0943,-13.7928"/>
<polygon fill="#191970" stroke="#191970" points="1214.3063,-17.2865 1224.1043,-13.2553 1213.931,-10.2966 1214.3063,-17.2865"/>
</g>
<!-- Node45&#45;&gt;Node13 -->
<g id="edge99" class="edge">
<title>Node45&#45;&gt;Node13</title>
<path fill="none" stroke="#191970" d="M852.9288,-509.7255C855.7155,-495.9005 861.1757,-469.88 867,-448 877.1785,-409.7629 956.8288,-139.786 985,-112 1001.3514,-95.8722 1023.9053,-85.3027 1045.1767,-78.4189"/>
<polygon fill="#191970" stroke="#191970" points="1046.2682,-81.7455 1054.8329,-75.5088 1044.2483,-75.0433 1046.2682,-81.7455"/>
</g>
<!-- Node45&#45;&gt;Node21 -->
<g id="edge100" class="edge">
<title>Node45&#45;&gt;Node21</title>
<path fill="none" stroke="#191970" d="M853.0739,-509.9648C857.0499,-494.184 867.3441,-462.9012 889,-448 996.3589,-374.1273 1053.5262,-443.4242 1180,-412 1315.7011,-378.2832 1348.4766,-361.6075 1474,-300 1504.8961,-284.8361 1538.4132,-263.5221 1559.7791,-249.2597"/>
<polygon fill="#191970" stroke="#191970" points="1561.8135,-252.1094 1568.149,-243.6175 1557.9007,-246.305 1561.8135,-252.1094"/>
</g>
<!-- Node45&#45;&gt;Node26 -->
<g id="edge98" class="edge">
<title>Node45&#45;&gt;Node26</title>
<path fill="none" stroke="#191970" d="M824.125,-509.8906C794.8414,-499.42 747.831,-482.6111 715.2863,-470.9745"/>
<polygon fill="#191970" stroke="#191970" points="716.2809,-467.6131 705.6863,-467.5419 713.9241,-474.2045 716.2809,-467.6131"/>
</g>
<!-- Node46&#45;&gt;Node4 -->
<g id="edge104" class="edge">
<title>Node46&#45;&gt;Node4</title>
<path fill="none" stroke="#191970" d="M1087.4736,-504.4142C1086.2354,-488.8968 1082.2924,-464.7007 1070,-448 985.0988,-332.6519 919.4602,-350.8734 795,-280 765.284,-263.0783 748.3711,-270.6956 727,-244 707.9984,-220.2643 709,-208.4047 709,-178 709,-178 709,-178 709,-122 709,-71.1541 1055.9615,-32.0562 1214.0997,-16.8768"/>
<polygon fill="#191970" stroke="#191970" points="1214.614,-20.3438 1224.2372,-15.9117 1213.9505,-13.3753 1214.614,-20.3438"/>
</g>
<!-- Node46&#45;&gt;Node20 -->
<g id="edge106" class="edge">
<title>Node46&#45;&gt;Node20</title>
<path fill="none" stroke="#191970" d="M1096.2469,-504.3963C1103.1436,-489.7042 1110.8418,-466.8975 1104,-448 1096.9098,-428.4167 1084.3998,-430.045 1074,-412 1047.5312,-366.0731 1042.2532,-352.1944 1033,-300 1031.4483,-291.2476 1031.19,-288.7026 1033,-280 1034.9414,-270.6655 1038.8804,-260.9017 1042.7531,-252.783"/>
<polygon fill="#191970" stroke="#191970" points="1045.8903,-254.3353 1047.3055,-243.8354 1039.6514,-251.161 1045.8903,-254.3353"/>
</g>
<!-- Node46&#45;&gt;Node21 -->
<g id="edge107" class="edge">
<title>Node46&#45;&gt;Node21</title>
<path fill="none" stroke="#191970" d="M1125.1162,-504.4669C1201.3385,-472.7202 1379.4764,-393.9803 1512,-300 1532.273,-285.6233 1552.6277,-265.6619 1566.1202,-251.4648"/>
<polygon fill="#191970" stroke="#191970" points="1568.9553,-253.5568 1573.2189,-243.8577 1563.8374,-248.781 1568.9553,-253.5568"/>
</g>
<!-- Node46&#45;&gt;Node41 -->
<g id="edge105" class="edge">
<title>Node46&#45;&gt;Node41</title>
<path fill="none" stroke="#191970" d="M1061.5802,-504.4554C1044.5086,-494.734 1022.4098,-482.15 1005.5191,-472.5317"/>
<polygon fill="#191970" stroke="#191970" points="1007.158,-469.4373 996.7362,-467.5303 1003.6941,-475.5202 1007.158,-469.4373"/>
</g>
<!-- Node47&#45;&gt;Node39 -->
<g id="edge112" class="edge">
<title>Node47&#45;&gt;Node39</title>
<path fill="none" stroke="#191970" d="M1149.4688,-705.3906C1149.8846,-696.8657 1150.5054,-684.1392 1151.0281,-673.4235"/>
<polygon fill="#191970" stroke="#191970" points="1154.5332,-673.4035 1151.5246,-663.2449 1147.5415,-673.0624 1154.5332,-673.4035"/>
</g>
<!-- Node48&#45;&gt;Node20 -->
<g id="edge114" class="edge">
<title>Node48&#45;&gt;Node20</title>
<path fill="none" stroke="#191970" d="M979.0814,-705.4814C1023.5659,-683.1197 1129.6574,-622.4433 1170,-535 1175.7718,-522.4895 1172.7973,-517.4908 1170,-504 1159.1577,-451.7106 1087.9948,-304.7577 1062.2638,-252.628"/>
<polygon fill="#191970" stroke="#191970" points="1065.329,-250.9307 1057.7547,-243.5225 1059.056,-254.0371 1065.329,-250.9307"/>
</g>
<!-- Node48&#45;&gt;Node21 -->
<g id="edge115" class="edge">
<title>Node48&#45;&gt;Node21</title>
<path fill="none" stroke="#191970" d="M1036.6537,-708.9072C1084.2729,-703.0191 1145.5679,-691.4944 1196,-669 1216.8634,-659.6942 1216.0543,-647.119 1237,-638 1321.8159,-601.0744 1352.704,-626.1549 1442,-602 1524.803,-579.6015 1552.7956,-584.2886 1623,-535 1659.6539,-509.2663 1688,-502.7854 1688,-458 1688,-458 1688,-458 1688,-346 1688,-300.9213 1642.1435,-266.6897 1610.7528,-248.5376"/>
<polygon fill="#191970" stroke="#191970" points="1612.3786,-245.437 1601.9378,-243.6372 1608.9774,-251.5552 1612.3786,-245.437"/>
</g>
<!-- Node48&#45;&gt;Node24 -->
<g id="edge116" class="edge">
<title>Node48&#45;&gt;Node24</title>
<path fill="none" stroke="#191970" d="M918.0552,-705.4374C824.4121,-682.7743 588.5464,-621.1659 405,-535 354.5496,-511.316 332.4493,-512.5794 299,-468 288.9489,-454.6044 284.2075,-436.0409 281.9751,-422.0124"/>
<polygon fill="#191970" stroke="#191970" points="285.4235,-421.3876 280.6691,-411.9195 278.4814,-422.286 285.4235,-421.3876"/>
</g>
<!-- Node48&#45;&gt;Node39 -->
<g id="edge117" class="edge">
<title>Node48&#45;&gt;Node39</title>
<path fill="none" stroke="#191970" d="M989.1563,-705.3906C1022.2985,-694.8298 1075.6762,-677.8208 1112.2242,-666.1747"/>
<polygon fill="#191970" stroke="#191970" points="1113.5902,-669.4129 1122.0555,-663.0419 1111.4649,-662.7433 1113.5902,-669.4129"/>
</g>
<!-- Node48&#45;&gt;Node46 -->
<g id="edge119" class="edge">
<title>Node48&#45;&gt;Node46</title>
<path fill="none" stroke="#191970" d="M954.2517,-705.1497C942.9515,-680.1317 917.5261,-613.1437 947,-571 955.7602,-558.474 986.0976,-546.6141 1016.3984,-537.4399"/>
<polygon fill="#191970" stroke="#191970" points="1017.5997,-540.735 1026.2077,-534.5582 1015.6266,-534.0188 1017.5997,-540.735"/>
</g>
<!-- Node48&#45;&gt;Node49 -->
<g id="edge118" class="edge">
<title>Node48&#45;&gt;Node49</title>
<path fill="none" stroke="#191970" d="M901.7486,-705.4581C835.6656,-694.4443 727.1184,-676.3531 657.1203,-664.6867"/>
<polygon fill="#191970" stroke="#191970" points="657.5214,-661.2054 647.0821,-663.0137 656.3706,-668.1101 657.5214,-661.2054"/>
</g>
<!-- Node50&#45;&gt;Node43 -->
<g id="edge121" class="edge">
<title>Node50&#45;&gt;Node43</title>
<path fill="none" stroke="#191970" d="M1236.6607,-724.554C1195.9898,-734.6424 1128.5271,-750.6589 1078.0787,-762.2418"/>
<polygon fill="#191970" stroke="#191970" points="1077.1959,-758.8533 1068.2288,-764.4962 1078.7577,-765.6768 1077.1959,-758.8533"/>
</g>
<!-- Node51 -->
<g id="node51" class="node">
<title>Node51</title>
<g id="a_node51"><a xlink:href="../../d6/d0b/Def_2CRTP_8hpp.html" target="_top" xlink:title=" ">
<polygon fill="#ffffff" stroke="#000000" points="1246,-644 1246,-663 1328,-663 1328,-644 1246,-644"/>
<text text-anchor="middle" x="1287" y="-651" font-family="Helvetica,sans-Serif" font-size="10.00" fill="#000000">Def/CRTP.hpp</text>
</a>
</g>
</g>
<!-- Node50&#45;&gt;Node51 -->
<g id="edge122" class="edge">
<title>Node50&#45;&gt;Node51</title>
<path fill="none" stroke="#191970" d="M1274.3438,-705.3906C1276.4449,-696.776 1279.5925,-683.8708 1282.223,-673.0858"/>
<polygon fill="#191970" stroke="#191970" points="1285.6539,-673.7894 1284.6232,-663.2449 1278.8532,-672.1307 1285.6539,-673.7894"/>
</g>
</g>
</svg>
