<?xml version="1.0" encoding="UTF-8" standalone="no"?>
<!DOCTYPE svg PUBLIC "-//W3C//DTD SVG 1.1//EN"
 "http://www.w3.org/Graphics/SVG/1.1/DTD/svg11.dtd">
<!-- Generated by graphviz version 2.43.0 (0)
 -->
<!-- Title: NoteButtonMatrix&lt; NumBanks, nb_rows, nb_cols &gt; Pages: 1 -->
<svg width="530pt" height="1081pt"
 viewBox="0.00 0.00 530.00 1081.00" xmlns="http://www.w3.org/2000/svg" xmlns:xlink="http://www.w3.org/1999/xlink">
<g id="graph0" class="graph" transform="scale(1 1) rotate(0) translate(4 1077)">
<title>NoteButtonMatrix&lt; NumBanks, nb_rows, nb_cols &gt;</title>
<polygon fill="white" stroke="transparent" points="-4,4 -4,-1077 526,-1077 526,4 -4,4"/>
<!-- Node1 -->
<g id="node1" class="node">
<title>Node1</title>
<g id="a_node1"><a xlink:title="A class of MIDIOutputElements that read the input from a matrix of momentary push buttons or switches...">
<polygon fill="#bfbfbf" stroke="black" points="226,-0.5 226,-90.5 397,-90.5 397,-0.5 226,-0.5"/>
<text text-anchor="start" x="234" y="-78.5" font-family="Helvetica,sans-Serif" font-size="10.00">NoteButtonMatrix&lt; NumBanks,</text>
<text text-anchor="middle" x="311.5" y="-67.5" font-family="Helvetica,sans-Serif" font-size="10.00"> nb_rows, nb_cols &gt;</text>
<polyline fill="none" stroke="black" points="226,-60.5 397,-60.5 "/>
<text text-anchor="middle" x="311.5" y="-48.5" font-family="Helvetica,sans-Serif" font-size="10.00"> </text>
<polyline fill="none" stroke="black" points="226,-41.5 397,-41.5 "/>
<text text-anchor="start" x="234" y="-29.5" font-family="Helvetica,sans-Serif" font-size="10.00">+ NoteButtonMatrix()</text>
<text text-anchor="start" x="234" y="-18.5" font-family="Helvetica,sans-Serif" font-size="10.00">+ setVelocity()</text>
<text text-anchor="start" x="234" y="-7.5" font-family="Helvetica,sans-Serif" font-size="10.00">+ getVelocity()</text>
</a>
</g>
</g>
<!-- Node2 -->
<g id="node2" class="node">
<title>Node2</title>
<g id="a_node2"><a xlink:href="../../d3/d65/classBankable_1_1MIDIButtonMatrix.html" target="_top" xlink:title=" ">
<polygon fill="white" stroke="black" points="213,-128.5 213,-262.5 410,-262.5 410,-128.5 213,-128.5"/>
<text text-anchor="start" x="221" y="-250.5" font-family="Helvetica,sans-Serif" font-size="10.00">MIDIButtonMatrix&lt; ManyMatrix</text>
<text text-anchor="start" x="221" y="-239.5" font-family="Helvetica,sans-Serif" font-size="10.00">Addresses&lt; NumBanks, nb</text>
<text text-anchor="start" x="221" y="-228.5" font-family="Helvetica,sans-Serif" font-size="10.00">_rows, nb_cols &gt;, DigitalNoteSender,</text>
<text text-anchor="middle" x="311.5" y="-217.5" font-family="Helvetica,sans-Serif" font-size="10.00"> nb_rows, nb_cols &gt;</text>
<polyline fill="none" stroke="black" points="213,-210.5 410,-210.5 "/>
<text text-anchor="start" x="221" y="-198.5" font-family="Helvetica,sans-Serif" font-size="10.00">&#45; address</text>
<text text-anchor="start" x="221" y="-187.5" font-family="Helvetica,sans-Serif" font-size="10.00">&#45; activeButtons</text>
<polyline fill="none" stroke="black" points="213,-180.5 410,-180.5 "/>
<text text-anchor="start" x="221" y="-168.5" font-family="Helvetica,sans-Serif" font-size="10.00">+ begin()</text>
<text text-anchor="start" x="221" y="-157.5" font-family="Helvetica,sans-Serif" font-size="10.00">+ update()</text>
<text text-anchor="start" x="221" y="-146.5" font-family="Helvetica,sans-Serif" font-size="10.00"># MIDIButtonMatrix()</text>
<text text-anchor="start" x="221" y="-135.5" font-family="Helvetica,sans-Serif" font-size="10.00">&#45; onButtonChanged()</text>
</a>
</g>
</g>
<!-- Node2&#45;&gt;Node1 -->
<g id="edge1" class="edge">
<title>Node2&#45;&gt;Node1</title>
<path fill="none" stroke="midnightblue" d="M311.5,-118.07C311.5,-108.65 311.5,-99.28 311.5,-90.57"/>
<polygon fill="none" stroke="midnightblue" points="308,-118.29 311.5,-128.29 315,-118.29 308,-118.29"/>
</g>
<!-- Node3 -->
<g id="node3" class="node">
<title>Node3</title>
<g id="a_node3"><a xlink:href="../../d1/d55/classAH_1_1Updatable.html" target="_top" xlink:title=" ">
<polygon fill="white" stroke="black" points="112,-354.5 112,-444.5 225,-444.5 225,-354.5 112,-354.5"/>
<text text-anchor="middle" x="168.5" y="-432.5" font-family="Helvetica,sans-Serif" font-size="10.00">MIDIOutputElement</text>
<polyline fill="none" stroke="black" points="112,-425.5 225,-425.5 "/>
<text text-anchor="middle" x="168.5" y="-413.5" font-family="Helvetica,sans-Serif" font-size="10.00"> </text>
<polyline fill="none" stroke="black" points="112,-406.5 225,-406.5 "/>
<text text-anchor="start" x="120" y="-394.5" font-family="Helvetica,sans-Serif" font-size="10.00">* begin()</text>
<text text-anchor="start" x="120" y="-383.5" font-family="Helvetica,sans-Serif" font-size="10.00">* update()</text>
<text text-anchor="start" x="120" y="-372.5" font-family="Helvetica,sans-Serif" font-size="10.00">* beginAll()</text>
<text text-anchor="start" x="120" y="-361.5" font-family="Helvetica,sans-Serif" font-size="10.00">* updateAll()</text>
</a>
</g>
</g>
<!-- Node3&#45;&gt;Node2 -->
<g id="edge2" class="edge">
<title>Node3&#45;&gt;Node2</title>
<path fill="none" stroke="midnightblue" d="M205.83,-345.77C223.83,-320.34 245.61,-289.58 264.7,-262.6"/>
<polygon fill="none" stroke="midnightblue" points="202.8,-343.99 199.88,-354.17 208.52,-348.03 202.8,-343.99"/>
</g>
<!-- Node4 -->
<g id="node4" class="node">
<title>Node4</title>
<g id="a_node4"><a xlink:href="../../d8/d1a/classAH_1_1UpdatableCRTP.html" target="_top" xlink:title=" ">
<polygon fill="white" stroke="black" points="87,-536.5 87,-725.5 240,-725.5 240,-536.5 87,-536.5"/>
<text text-anchor="start" x="95" y="-713.5" font-family="Helvetica,sans-Serif" font-size="10.00">UpdatableCRTP&lt; Updatable</text>
<text text-anchor="middle" x="163.5" y="-702.5" font-family="Helvetica,sans-Serif" font-size="10.00">&lt; NormalUpdatable &gt; &gt;</text>
<polyline fill="none" stroke="black" points="87,-695.5 240,-695.5 "/>
<text text-anchor="middle" x="163.5" y="-683.5" font-family="Helvetica,sans-Serif" font-size="10.00"> </text>
<polyline fill="none" stroke="black" points="87,-676.5 240,-676.5 "/>
<text text-anchor="start" x="95" y="-664.5" font-family="Helvetica,sans-Serif" font-size="10.00">+ ~UpdatableCRTP()</text>
<text text-anchor="start" x="95" y="-653.5" font-family="Helvetica,sans-Serif" font-size="10.00"># UpdatableCRTP()</text>
<text text-anchor="start" x="95" y="-642.5" font-family="Helvetica,sans-Serif" font-size="10.00">* enable()</text>
<text text-anchor="start" x="95" y="-631.5" font-family="Helvetica,sans-Serif" font-size="10.00">* disable()</text>
<text text-anchor="start" x="95" y="-620.5" font-family="Helvetica,sans-Serif" font-size="10.00">* isEnabled()</text>
<text text-anchor="start" x="95" y="-609.5" font-family="Helvetica,sans-Serif" font-size="10.00">* enable()</text>
<text text-anchor="start" x="95" y="-598.5" font-family="Helvetica,sans-Serif" font-size="10.00">* enable()</text>
<text text-anchor="start" x="95" y="-587.5" font-family="Helvetica,sans-Serif" font-size="10.00">* enable()</text>
<text text-anchor="start" x="95" y="-576.5" font-family="Helvetica,sans-Serif" font-size="10.00">* disable()</text>
<text text-anchor="start" x="95" y="-565.5" font-family="Helvetica,sans-Serif" font-size="10.00">* disable()</text>
<text text-anchor="start" x="95" y="-554.5" font-family="Helvetica,sans-Serif" font-size="10.00">* disable()</text>
<text text-anchor="start" x="95" y="-543.5" font-family="Helvetica,sans-Serif" font-size="10.00">* applyToAll()</text>
</a>
</g>
</g>
<!-- Node4&#45;&gt;Node3 -->
<g id="edge3" class="edge">
<title>Node4&#45;&gt;Node3</title>
<path fill="none" stroke="midnightblue" d="M165.76,-526.22C166.39,-497.52 167.03,-467.89 167.54,-444.61"/>
<polygon fill="none" stroke="midnightblue" points="162.26,-526.25 165.54,-536.32 169.26,-526.4 162.26,-526.25"/>
</g>
<!-- Node5 -->
<g id="node5" class="node">
<title>Node5</title>
<g id="a_node5"><a xlink:href="../../d4/d23/classDoublyLinkable.html" target="_top" xlink:title=" ">
<polygon fill="white" stroke="black" points="0,-883.5 0,-962.5 153,-962.5 153,-883.5 0,-883.5"/>
<text text-anchor="start" x="8" y="-950.5" font-family="Helvetica,sans-Serif" font-size="10.00">DoublyLinkable&lt; Updatable</text>
<text text-anchor="middle" x="76.5" y="-939.5" font-family="Helvetica,sans-Serif" font-size="10.00">&lt; NormalUpdatable &gt; &gt;</text>
<polyline fill="none" stroke="black" points="0,-932.5 153,-932.5 "/>
<text text-anchor="start" x="8" y="-920.5" font-family="Helvetica,sans-Serif" font-size="10.00"># next</text>
<text text-anchor="start" x="8" y="-909.5" font-family="Helvetica,sans-Serif" font-size="10.00"># previous</text>
<polyline fill="none" stroke="black" points="0,-902.5 153,-902.5 "/>
<text text-anchor="start" x="8" y="-890.5" font-family="Helvetica,sans-Serif" font-size="10.00"># ~DoublyLinkable()</text>
</a>
</g>
</g>
<!-- Node5&#45;&gt;Node4 -->
<g id="edge4" class="edge">
<title>Node5&#45;&gt;Node4</title>
<path fill="none" stroke="midnightblue" d="M91,-873.68C103.06,-833.46 120.59,-775.02 135.39,-725.69"/>
<polygon fill="none" stroke="midnightblue" points="87.57,-872.91 88.05,-883.49 94.28,-874.92 87.57,-872.91"/>
</g>
<!-- Node6 -->
<g id="node6" class="node">
<title>Node6</title>
<g id="a_node6"><a xlink:href="../../dd/d16/classDoublyLinkedList.html" target="_top" xlink:title=" ">
<polygon fill="white" stroke="black" points="171,-773.5 171,-1072.5 332,-1072.5 332,-773.5 171,-773.5"/>
<text text-anchor="start" x="179" y="-1060.5" font-family="Helvetica,sans-Serif" font-size="10.00">DoublyLinkedList&lt; Updatable</text>
<text text-anchor="middle" x="251.5" y="-1049.5" font-family="Helvetica,sans-Serif" font-size="10.00">&lt; NormalUpdatable &gt; &gt;</text>
<polyline fill="none" stroke="black" points="171,-1042.5 332,-1042.5 "/>
<text text-anchor="start" x="179" y="-1030.5" font-family="Helvetica,sans-Serif" font-size="10.00">&#45; first</text>
<text text-anchor="start" x="179" y="-1019.5" font-family="Helvetica,sans-Serif" font-size="10.00">&#45; last</text>
<polyline fill="none" stroke="black" points="171,-1012.5 332,-1012.5 "/>
<text text-anchor="start" x="179" y="-1000.5" font-family="Helvetica,sans-Serif" font-size="10.00">+ append()</text>
<text text-anchor="start" x="179" y="-989.5" font-family="Helvetica,sans-Serif" font-size="10.00">+ append()</text>
<text text-anchor="start" x="179" y="-978.5" font-family="Helvetica,sans-Serif" font-size="10.00">+ insertBefore()</text>
<text text-anchor="start" x="179" y="-967.5" font-family="Helvetica,sans-Serif" font-size="10.00">+ insertBefore()</text>
<text text-anchor="start" x="179" y="-956.5" font-family="Helvetica,sans-Serif" font-size="10.00">+ insertSorted()</text>
<text text-anchor="start" x="179" y="-945.5" font-family="Helvetica,sans-Serif" font-size="10.00">+ insertSorted()</text>
<text text-anchor="start" x="179" y="-934.5" font-family="Helvetica,sans-Serif" font-size="10.00">+ remove()</text>
<text text-anchor="start" x="179" y="-923.5" font-family="Helvetica,sans-Serif" font-size="10.00">+ remove()</text>
<text text-anchor="start" x="179" y="-912.5" font-family="Helvetica,sans-Serif" font-size="10.00">+ moveDown()</text>
<text text-anchor="start" x="179" y="-901.5" font-family="Helvetica,sans-Serif" font-size="10.00">+ couldContain()</text>
<text text-anchor="start" x="179" y="-890.5" font-family="Helvetica,sans-Serif" font-size="10.00">+ couldContain()</text>
<text text-anchor="start" x="179" y="-879.5" font-family="Helvetica,sans-Serif" font-size="10.00">+ begin()</text>
<text text-anchor="start" x="179" y="-868.5" font-family="Helvetica,sans-Serif" font-size="10.00">+ begin()</text>
<text text-anchor="start" x="179" y="-857.5" font-family="Helvetica,sans-Serif" font-size="10.00">+ end()</text>
<text text-anchor="start" x="179" y="-846.5" font-family="Helvetica,sans-Serif" font-size="10.00">+ end()</text>
<text text-anchor="start" x="179" y="-835.5" font-family="Helvetica,sans-Serif" font-size="10.00">+ rbegin()</text>
<text text-anchor="start" x="179" y="-824.5" font-family="Helvetica,sans-Serif" font-size="10.00">+ rbegin()</text>
<text text-anchor="start" x="179" y="-813.5" font-family="Helvetica,sans-Serif" font-size="10.00">+ rend()</text>
<text text-anchor="start" x="179" y="-802.5" font-family="Helvetica,sans-Serif" font-size="10.00">+ rend()</text>
<text text-anchor="start" x="179" y="-791.5" font-family="Helvetica,sans-Serif" font-size="10.00">+ getFirst()</text>
<text text-anchor="start" x="179" y="-780.5" font-family="Helvetica,sans-Serif" font-size="10.00">+ getLast()</text>
</a>
</g>
</g>
<!-- Node6&#45;&gt;Node4 -->
<g id="edge5" class="edge">
<title>Node6&#45;&gt;Node4</title>
<path fill="none" stroke="#404040" d="M206.34,-773.18C202.67,-761.08 199.01,-749.01 195.46,-737.32"/>
<polygon fill="none" stroke="#404040" points="195.44,-737.25 189.87,-732.67 191.95,-725.77 197.52,-730.35 195.44,-737.25"/>
<text text-anchor="middle" x="233.5" y="-747" font-family="Helvetica,sans-Serif" font-size="10.00"> #updatables</text>
</g>
<!-- Node7 -->
<g id="node7" class="node">
<title>Node7</title>
<g id="a_node7"><a xlink:href="../../dd/d29/classAH_1_1ButtonMatrix.html" target="_top" xlink:title="A class that reads the states of a button matrix.">
<polygon fill="white" stroke="black" points="244,-310.5 244,-488.5 379,-488.5 379,-310.5 244,-310.5"/>
<text text-anchor="start" x="252" y="-476.5" font-family="Helvetica,sans-Serif" font-size="10.00">ButtonMatrix&lt; nb_rows,</text>
<text text-anchor="middle" x="311.5" y="-465.5" font-family="Helvetica,sans-Serif" font-size="10.00"> nb_cols &gt;</text>
<polyline fill="none" stroke="black" points="244,-458.5 379,-458.5 "/>
<text text-anchor="start" x="252" y="-446.5" font-family="Helvetica,sans-Serif" font-size="10.00">&#45; prevRefresh</text>
<text text-anchor="start" x="252" y="-435.5" font-family="Helvetica,sans-Serif" font-size="10.00">&#45; prevStates</text>
<polyline fill="none" stroke="black" points="244,-428.5 379,-428.5 "/>
<text text-anchor="start" x="252" y="-416.5" font-family="Helvetica,sans-Serif" font-size="10.00">+ ButtonMatrix()</text>
<text text-anchor="start" x="252" y="-405.5" font-family="Helvetica,sans-Serif" font-size="10.00">+ ~ButtonMatrix()</text>
<text text-anchor="start" x="252" y="-394.5" font-family="Helvetica,sans-Serif" font-size="10.00">+ begin()</text>
<text text-anchor="start" x="252" y="-383.5" font-family="Helvetica,sans-Serif" font-size="10.00">+ update()</text>
<text text-anchor="start" x="252" y="-372.5" font-family="Helvetica,sans-Serif" font-size="10.00">+ getPrevState()</text>
<text text-anchor="start" x="252" y="-361.5" font-family="Helvetica,sans-Serif" font-size="10.00">&#45; onButtonChanged()</text>
<text text-anchor="start" x="252" y="-350.5" font-family="Helvetica,sans-Serif" font-size="10.00">&#45; setPrevState()</text>
<text text-anchor="start" x="252" y="-339.5" font-family="Helvetica,sans-Serif" font-size="10.00">&#45; positionToBits()</text>
<text text-anchor="start" x="252" y="-328.5" font-family="Helvetica,sans-Serif" font-size="10.00">&#45; bitsToIndex()</text>
<text text-anchor="start" x="252" y="-317.5" font-family="Helvetica,sans-Serif" font-size="10.00">&#45; bitsToBitmask()</text>
</a>
</g>
</g>
<!-- Node7&#45;&gt;Node2 -->
<g id="edge6" class="edge">
<title>Node7&#45;&gt;Node2</title>
<path fill="none" stroke="midnightblue" d="M311.5,-300.28C311.5,-287.53 311.5,-274.71 311.5,-262.65"/>
<polygon fill="none" stroke="midnightblue" points="308,-300.49 311.5,-310.49 315,-300.49 308,-300.49"/>
</g>
<!-- Node8 -->
<g id="node8" class="node">
<title>Node8</title>
<g id="a_node8"><a xlink:href="../../d0/d32/structAH_1_1Array.html" target="_top" xlink:title=" ">
<polygon fill="white" stroke="black" points="258.5,-542 258.5,-720 364.5,-720 364.5,-542 258.5,-542"/>
<text text-anchor="middle" x="311.5" y="-708" font-family="Helvetica,sans-Serif" font-size="10.00">Array&lt; nb_rows &gt;</text>
<polyline fill="none" stroke="black" points="258.5,-701 364.5,-701 "/>
<text text-anchor="start" x="266.5" y="-689" font-family="Helvetica,sans-Serif" font-size="10.00">+ data</text>
<text text-anchor="start" x="266.5" y="-678" font-family="Helvetica,sans-Serif" font-size="10.00">+ length</text>
<polyline fill="none" stroke="black" points="258.5,-671 364.5,-671 "/>
<text text-anchor="start" x="266.5" y="-659" font-family="Helvetica,sans-Serif" font-size="10.00">+ operator[]()</text>
<text text-anchor="start" x="266.5" y="-648" font-family="Helvetica,sans-Serif" font-size="10.00">+ operator[]()</text>
<text text-anchor="start" x="266.5" y="-637" font-family="Helvetica,sans-Serif" font-size="10.00">+ begin()</text>
<text text-anchor="start" x="266.5" y="-626" font-family="Helvetica,sans-Serif" font-size="10.00">+ begin()</text>
<text text-anchor="start" x="266.5" y="-615" font-family="Helvetica,sans-Serif" font-size="10.00">+ end()</text>
<text text-anchor="start" x="266.5" y="-604" font-family="Helvetica,sans-Serif" font-size="10.00">+ end()</text>
<text text-anchor="start" x="266.5" y="-593" font-family="Helvetica,sans-Serif" font-size="10.00">+ operator==()</text>
<text text-anchor="start" x="266.5" y="-582" font-family="Helvetica,sans-Serif" font-size="10.00">+ operator!=()</text>
<text text-anchor="start" x="266.5" y="-571" font-family="Helvetica,sans-Serif" font-size="10.00">+ slice()</text>
<text text-anchor="start" x="266.5" y="-560" font-family="Helvetica,sans-Serif" font-size="10.00">+ slice()</text>
<text text-anchor="start" x="266.5" y="-549" font-family="Helvetica,sans-Serif" font-size="10.00">+ cslice()</text>
</a>
</g>
</g>
<!-- Node8&#45;&gt;Node7 -->
<g id="edge7" class="edge">
<title>Node8&#45;&gt;Node7</title>
<path fill="none" stroke="#404040" d="M311.5,-541.93C311.5,-528.57 311.5,-514.7 311.5,-501.11"/>
<polygon fill="none" stroke="#404040" points="311.5,-500.72 307.5,-494.72 311.5,-488.72 315.5,-494.72 311.5,-500.72"/>
<text text-anchor="middle" x="334.5" y="-510" font-family="Helvetica,sans-Serif" font-size="10.00"> &#45;rowPins</text>
</g>
<!-- Node9 -->
<g id="node9" class="node">
<title>Node9</title>
<g id="a_node9"><a xlink:href="../../d0/d32/structAH_1_1Array.html" target="_top" xlink:title=" ">
<polygon fill="white" stroke="black" points="382.5,-542 382.5,-720 484.5,-720 484.5,-542 382.5,-542"/>
<text text-anchor="middle" x="433.5" y="-708" font-family="Helvetica,sans-Serif" font-size="10.00">Array&lt; nb_cols &gt;</text>
<polyline fill="none" stroke="black" points="382.5,-701 484.5,-701 "/>
<text text-anchor="start" x="390.5" y="-689" font-family="Helvetica,sans-Serif" font-size="10.00">+ data</text>
<text text-anchor="start" x="390.5" y="-678" font-family="Helvetica,sans-Serif" font-size="10.00">+ length</text>
<polyline fill="none" stroke="black" points="382.5,-671 484.5,-671 "/>
<text text-anchor="start" x="390.5" y="-659" font-family="Helvetica,sans-Serif" font-size="10.00">+ operator[]()</text>
<text text-anchor="start" x="390.5" y="-648" font-family="Helvetica,sans-Serif" font-size="10.00">+ operator[]()</text>
<text text-anchor="start" x="390.5" y="-637" font-family="Helvetica,sans-Serif" font-size="10.00">+ begin()</text>
<text text-anchor="start" x="390.5" y="-626" font-family="Helvetica,sans-Serif" font-size="10.00">+ begin()</text>
<text text-anchor="start" x="390.5" y="-615" font-family="Helvetica,sans-Serif" font-size="10.00">+ end()</text>
<text text-anchor="start" x="390.5" y="-604" font-family="Helvetica,sans-Serif" font-size="10.00">+ end()</text>
<text text-anchor="start" x="390.5" y="-593" font-family="Helvetica,sans-Serif" font-size="10.00">+ operator==()</text>
<text text-anchor="start" x="390.5" y="-582" font-family="Helvetica,sans-Serif" font-size="10.00">+ operator!=()</text>
<text text-anchor="start" x="390.5" y="-571" font-family="Helvetica,sans-Serif" font-size="10.00">+ slice()</text>
<text text-anchor="start" x="390.5" y="-560" font-family="Helvetica,sans-Serif" font-size="10.00">+ slice()</text>
<text text-anchor="start" x="390.5" y="-549" font-family="Helvetica,sans-Serif" font-size="10.00">+ cslice()</text>
</a>
</g>
</g>
<!-- Node9&#45;&gt;Node7 -->
<g id="edge8" class="edge">
<title>Node9&#45;&gt;Node7</title>
<path fill="none" stroke="#404040" d="M386.68,-541.93C379.29,-528.02 371.61,-513.57 364.1,-499.44"/>
<polygon fill="none" stroke="#404040" points="364.03,-499.31 357.68,-495.89 358.4,-488.72 364.74,-492.14 364.03,-499.31"/>
<text text-anchor="middle" x="393.5" y="-510" font-family="Helvetica,sans-Serif" font-size="10.00"> &#45;colPins</text>
</g>
<!-- Node10 -->
<g id="node10" class="node">
<title>Node10</title>
<g id="a_node10"><a xlink:href="../../dc/dd4/classDigitalNoteSender.html" target="_top" xlink:title="Class that sends MIDI note on and off messages.">
<polygon fill="white" stroke="black" points="397,-349 397,-450 522,-450 522,-349 397,-349"/>
<text text-anchor="middle" x="459.5" y="-438" font-family="Helvetica,sans-Serif" font-size="10.00">DigitalNoteSender</text>
<polyline fill="none" stroke="black" points="397,-431 522,-431 "/>
<text text-anchor="start" x="405" y="-419" font-family="Helvetica,sans-Serif" font-size="10.00">&#45; velocity</text>
<polyline fill="none" stroke="black" points="397,-412 522,-412 "/>
<text text-anchor="start" x="405" y="-400" font-family="Helvetica,sans-Serif" font-size="10.00">+ DigitalNoteSender()</text>
<text text-anchor="start" x="405" y="-389" font-family="Helvetica,sans-Serif" font-size="10.00">+ sendOn()</text>
<text text-anchor="start" x="405" y="-378" font-family="Helvetica,sans-Serif" font-size="10.00">+ sendOff()</text>
<text text-anchor="start" x="405" y="-367" font-family="Helvetica,sans-Serif" font-size="10.00">+ setVelocity()</text>
<text text-anchor="start" x="405" y="-356" font-family="Helvetica,sans-Serif" font-size="10.00">+ getVelocity()</text>
</a>
</g>
</g>
<!-- Node10&#45;&gt;Node2 -->
<g id="edge9" class="edge">
<title>Node10&#45;&gt;Node2</title>
<path fill="none" stroke="#404040" d="M423.11,-348.83C406.33,-325.93 386.05,-298.25 367.4,-272.79"/>
<polygon fill="none" stroke="#404040" points="367.16,-272.47 360.39,-269.99 360.07,-262.79 366.84,-265.26 367.16,-272.47"/>
<text text-anchor="middle" x="404" y="-284" font-family="Helvetica,sans-Serif" font-size="10.00"> +sender</text>
</g>
</g>
</svg>
