<?xml version="1.0" encoding="UTF-8" standalone="no"?>
<!DOCTYPE svg PUBLIC "-//W3C//DTD SVG 1.1//EN"
 "http://www.w3.org/Graphics/SVG/1.1/DTD/svg11.dtd">
<!-- Generated by graphviz version 2.40.1 (20161225.0304)
 -->
<!-- Title: ProgramChanger.hpp Pages: 1 -->
<svg width="2416pt" height="923pt"
 viewBox="0.00 0.00 2416.00 923.00" xmlns="http://www.w3.org/2000/svg" xmlns:xlink="http://www.w3.org/1999/xlink">
<g id="graph0" class="graph" transform="scale(1 1) rotate(0) translate(4 919)">
<title>ProgramChanger.hpp</title>
<polygon fill="#ffffff" stroke="transparent" points="-4,4 -4,-919 2412,-919 2412,4 -4,4"/>
<!-- Node1 -->
<g id="node1" class="node">
<title>Node1</title>
<g id="a_node1"><a xlink:title=" ">
<polygon fill="#bfbfbf" stroke="#000000" points="500.5,-895.5 500.5,-914.5 609.5,-914.5 609.5,-895.5 500.5,-895.5"/>
<text text-anchor="middle" x="555" y="-902.5" font-family="Helvetica,sans-Serif" font-size="10.00" fill="#000000">ProgramChanger.hpp</text>
</a>
</g>
</g>
<!-- Node2 -->
<g id="node2" class="node">
<title>Node2</title>
<g id="a_node2"><a xlink:href="../../d3/d37/Control__Surface__Class_8hpp.html" target="_top" xlink:title=" ">
<polygon fill="#ffffff" stroke="#000000" points="1206,-828.5 1206,-858.5 1328,-858.5 1328,-828.5 1206,-828.5"/>
<text text-anchor="start" x="1214" y="-846.5" font-family="Helvetica,sans-Serif" font-size="10.00" fill="#000000">Control_Surface/Control</text>
<text text-anchor="middle" x="1267" y="-835.5" font-family="Helvetica,sans-Serif" font-size="10.00" fill="#000000">_Surface_Class.hpp</text>
</a>
</g>
</g>
<!-- Node1&#45;&gt;Node2 -->
<g id="edge1" class="edge">
<title>Node1&#45;&gt;Node2</title>
<path fill="none" stroke="#191970" d="M609.6872,-900.2763C736.9983,-889.2796 1053.1533,-861.9713 1195.5134,-849.6748"/>
<polygon fill="#191970" stroke="#191970" points="1196.2072,-853.1279 1205.8689,-848.7803 1195.6048,-846.1539 1196.2072,-853.1279"/>
</g>
<!-- Node37 -->
<g id="node37" class="node">
<title>Node37</title>
<g id="a_node37"><a xlink:href="../../d0/d4e/Def_8hpp.html" target="_top" xlink:title=" ">
<polygon fill="#ffffff" stroke="#000000" points="659,-644 659,-663 729,-663 729,-644 659,-644"/>
<text text-anchor="middle" x="694" y="-651" font-family="Helvetica,sans-Serif" font-size="10.00" fill="#000000">Def/Def.hpp</text>
</a>
</g>
</g>
<!-- Node1&#45;&gt;Node37 -->
<g id="edge122" class="edge">
<title>Node1&#45;&gt;Node37</title>
<path fill="none" stroke="#191970" d="M554.734,-895.1092C554.3958,-863.8626 557.2328,-765.7475 603,-705 616.0228,-687.7147 636.6518,-675.3598 654.9783,-667.0919"/>
<polygon fill="#191970" stroke="#191970" points="656.4613,-670.2647 664.2995,-663.1364 653.7268,-663.8209 656.4613,-670.2647"/>
</g>
<!-- Node51 -->
<g id="node51" class="node">
<title>Node51</title>
<g id="a_node51"><a xlink:href="../../d9/d46/Selectable_8hpp.html" target="_top" xlink:title=" ">
<polygon fill="#ffffff" stroke="#000000" points="401.5,-705.5 401.5,-724.5 526.5,-724.5 526.5,-705.5 401.5,-705.5"/>
<text text-anchor="middle" x="464" y="-712.5" font-family="Helvetica,sans-Serif" font-size="10.00" fill="#000000">Selectors/Selectable.hpp</text>
</a>
</g>
</g>
<!-- Node1&#45;&gt;Node51 -->
<g id="edge123" class="edge">
<title>Node1&#45;&gt;Node51</title>
<path fill="none" stroke="#191970" d="M550.3622,-895.3167C536.0352,-865.4033 492.2968,-774.0811 473.1446,-734.0931"/>
<polygon fill="#191970" stroke="#191970" points="476.2139,-732.3987 468.7376,-724.8917 469.9006,-735.4225 476.2139,-732.3987"/>
</g>
<!-- Node3 -->
<g id="node3" class="node">
<title>Node3</title>
<g id="a_node3"><a xlink:href="../../d4/d93/Updatable_8hpp.html" target="_top" xlink:title=" ">
<polygon fill="#ffffff" stroke="#000000" points="1022.5,-510 1022.5,-529 1169.5,-529 1169.5,-510 1022.5,-510"/>
<text text-anchor="middle" x="1096" y="-517" font-family="Helvetica,sans-Serif" font-size="10.00" fill="#000000">AH/Containers/Updatable.hpp</text>
</a>
</g>
</g>
<!-- Node2&#45;&gt;Node3 -->
<g id="edge2" class="edge">
<title>Node2&#45;&gt;Node3</title>
<path fill="none" stroke="#191970" d="M1265.5523,-828.4311C1263.4192,-802.8741 1260.3574,-749.471 1267,-705 1271.458,-675.1547 1292.3832,-664.5281 1278,-638 1248.0932,-582.8403 1180.1605,-549.3196 1136.2775,-532.6137"/>
<polygon fill="#191970" stroke="#191970" points="1137.3539,-529.2803 1126.7604,-529.1097 1134.9354,-535.8493 1137.3539,-529.2803"/>
</g>
<!-- Node26 -->
<g id="node26" class="node">
<title>Node26</title>
<g id="a_node26"><a xlink:href="../../d8/df3/FilteredAnalog_8hpp.html" target="_top" xlink:title=" ">
<polygon fill="#ffffff" stroke="#000000" points="1690,-705.5 1690,-724.5 1850,-724.5 1850,-705.5 1690,-705.5"/>
<text text-anchor="middle" x="1770" y="-712.5" font-family="Helvetica,sans-Serif" font-size="10.00" fill="#000000">AH/Hardware/FilteredAnalog.hpp</text>
</a>
</g>
</g>
<!-- Node2&#45;&gt;Node26 -->
<g id="edge43" class="edge">
<title>Node2&#45;&gt;Node26</title>
<path fill="none" stroke="#191970" d="M1326.1796,-828.3816C1427.1804,-802.5792 1630.8265,-750.5543 1722.8988,-727.0328"/>
<polygon fill="#191970" stroke="#191970" points="1723.9493,-730.3769 1732.7718,-724.5106 1722.2166,-723.5947 1723.9493,-730.3769"/>
</g>
<!-- Node34 -->
<g id="node34" class="node">
<title>Node34</title>
<g id="a_node34"><a xlink:href="../../d1/dd0/MillisMicrosTimer_8hpp.html" target="_top" xlink:title=" ">
<polygon fill="#ffffff" stroke="#000000" points="2180.5,-224.5 2180.5,-243.5 2341.5,-243.5 2341.5,-224.5 2180.5,-224.5"/>
<text text-anchor="middle" x="2261" y="-231.5" font-family="Helvetica,sans-Serif" font-size="10.00" fill="#000000">AH/Timing/MillisMicrosTimer.hpp</text>
</a>
</g>
</g>
<!-- Node2&#45;&gt;Node34 -->
<g id="edge73" class="edge">
<title>Node2&#45;&gt;Node34</title>
<path fill="none" stroke="#191970" d="M1328.0842,-842.5989C1554.3829,-838.4646 2332,-816.8483 2332,-715 2332,-715 2332,-715 2332,-346 2332,-307.2128 2301.2491,-270.9698 2280.2224,-250.7214"/>
<polygon fill="#191970" stroke="#191970" points="2282.4378,-248.0026 2272.7242,-243.7722 2277.6796,-253.1368 2282.4378,-248.0026"/>
</g>
<!-- Node35 -->
<g id="node35" class="node">
<title>Node35</title>
<g id="a_node35"><a xlink:href="../../d6/dd2/DisplayElement_8hpp.html" target="_top" xlink:title=" ">
<polygon fill="#ffffff" stroke="#000000" points="1314,-767 1314,-786 1454,-786 1454,-767 1314,-767"/>
<text text-anchor="middle" x="1384" y="-774" font-family="Helvetica,sans-Serif" font-size="10.00" fill="#000000">Display/DisplayElement.hpp</text>
</a>
</g>
</g>
<!-- Node2&#45;&gt;Node35 -->
<g id="edge77" class="edge">
<title>Node2&#45;&gt;Node35</title>
<path fill="none" stroke="#191970" d="M1293.2571,-828.4639C1312.7113,-817.3234 1339.0839,-802.2212 1358.3839,-791.1691"/>
<polygon fill="#191970" stroke="#191970" points="1360.2904,-794.1106 1367.229,-786.1039 1356.8118,-788.0361 1360.2904,-794.1106"/>
</g>
<!-- Node36 -->
<g id="node36" class="node">
<title>Node36</title>
<g id="a_node36"><a xlink:href="../../dc/d77/DisplayInterface_8hpp.html" target="_top" xlink:title=" ">
<polygon fill="#ffffff" stroke="#000000" points="1276.5,-705.5 1276.5,-724.5 1419.5,-724.5 1419.5,-705.5 1276.5,-705.5"/>
<text text-anchor="middle" x="1348" y="-712.5" font-family="Helvetica,sans-Serif" font-size="10.00" fill="#000000">Display/DisplayInterface.hpp</text>
</a>
</g>
</g>
<!-- Node2&#45;&gt;Node36 -->
<g id="edge91" class="edge">
<title>Node2&#45;&gt;Node36</title>
<path fill="none" stroke="#191970" d="M1272.2593,-828.4448C1278.6162,-811.3062 1290.3119,-782.858 1305,-761 1312.0233,-750.5483 1321.432,-740.1891 1329.6574,-731.9552"/>
<polygon fill="#191970" stroke="#191970" points="1332.3182,-734.2506 1337.0647,-724.7784 1327.4473,-729.2232 1332.3182,-734.2506"/>
</g>
<!-- Node41 -->
<g id="node41" class="node">
<title>Node41</title>
<g id="a_node41"><a xlink:href="../../d6/d04/MIDI__Interface_8hpp.html" target="_top" xlink:title=" ">
<polygon fill="#ffffff" stroke="#000000" points="864,-761.5 864,-791.5 976,-791.5 976,-761.5 864,-761.5"/>
<text text-anchor="start" x="872" y="-779.5" font-family="Helvetica,sans-Serif" font-size="10.00" fill="#000000">MIDI_Interfaces/MIDI</text>
<text text-anchor="middle" x="920" y="-768.5" font-family="Helvetica,sans-Serif" font-size="10.00" fill="#000000">_Interface.hpp</text>
</a>
</g>
</g>
<!-- Node2&#45;&gt;Node41 -->
<g id="edge92" class="edge">
<title>Node2&#45;&gt;Node41</title>
<path fill="none" stroke="#191970" d="M1205.7621,-831.676C1144.0777,-819.7657 1049.2157,-801.4494 985.916,-789.2273"/>
<polygon fill="#191970" stroke="#191970" points="986.5199,-785.7793 976.0377,-787.32 985.1928,-792.6524 986.5199,-785.7793"/>
</g>
<!-- Node48 -->
<g id="node48" class="node">
<title>Node48</title>
<g id="a_node48"><a xlink:title=" ">
<polygon fill="#ffffff" stroke="#bfbfbf" points="1021.5,-644 1021.5,-663 1168.5,-663 1168.5,-644 1021.5,-644"/>
<text text-anchor="middle" x="1095" y="-651" font-family="Helvetica,sans-Serif" font-size="10.00" fill="#000000">Settings/SettingsWrapper.hpp</text>
</a>
</g>
</g>
<!-- Node2&#45;&gt;Node48 -->
<g id="edge121" class="edge">
<title>Node2&#45;&gt;Node48</title>
<path fill="none" stroke="#191970" d="M1253.2153,-828.2727C1221.4955,-793.2334 1143.5198,-707.0974 1110.3428,-670.4484"/>
<polygon fill="#191970" stroke="#191970" points="1112.9293,-668.0904 1103.6234,-663.0258 1107.7399,-672.7883 1112.9293,-668.0904"/>
</g>
<!-- Node4 -->
<g id="node4" class="node">
<title>Node4</title>
<g id="a_node4"><a xlink:href="../../d1/d65/Warnings_8hpp.html" target="_top" xlink:title=" ">
<polygon fill="#ffffff" stroke="#000000" points="1225.5,-.5 1225.5,-19.5 1358.5,-19.5 1358.5,-.5 1225.5,-.5"/>
<text text-anchor="middle" x="1292" y="-7.5" font-family="Helvetica,sans-Serif" font-size="10.00" fill="#000000">AH/Settings/Warnings.hpp</text>
</a>
</g>
</g>
<!-- Node3&#45;&gt;Node4 -->
<g id="edge3" class="edge">
<title>Node3&#45;&gt;Node4</title>
<path fill="none" stroke="#191970" d="M1092.4671,-509.8812C1086.4919,-494.8146 1073.0499,-465.5602 1053,-448 1022.7518,-421.5078 1004.1436,-433.2369 970,-412 937.3338,-391.682 928.9595,-385.2733 904,-356 881.7457,-329.8994 864,-324.3001 864,-290 864,-290 864,-290 864,-122 864,-77.5978 898.5592,-74.333 939,-56 986.8317,-34.3166 1126.7299,-21.1498 1215.3742,-14.7482"/>
<polygon fill="#191970" stroke="#191970" points="1215.6593,-18.2369 1225.3866,-14.0381 1215.164,-11.2545 1215.6593,-18.2369"/>
</g>
<!-- Node5 -->
<g id="node5" class="node">
<title>Node5</title>
<g id="a_node5"><a xlink:href="../../de/dd1/LinkedList_8hpp.html" target="_top" xlink:title=" ">
<polygon fill="#ffffff" stroke="#000000" points="1307.5,-448.5 1307.5,-467.5 1454.5,-467.5 1454.5,-448.5 1307.5,-448.5"/>
<text text-anchor="middle" x="1381" y="-455.5" font-family="Helvetica,sans-Serif" font-size="10.00" fill="#000000">AH/Containers/LinkedList.hpp</text>
</a>
</g>
</g>
<!-- Node3&#45;&gt;Node5 -->
<g id="edge4" class="edge">
<title>Node3&#45;&gt;Node5</title>
<path fill="none" stroke="#191970" d="M1140.2185,-509.9581C1190.4527,-499.1181 1272.4573,-481.4224 1326.5772,-469.7439"/>
<polygon fill="#191970" stroke="#191970" points="1327.641,-473.095 1336.6777,-467.5643 1326.1644,-466.2524 1327.641,-473.095"/>
</g>
<!-- Node14 -->
<g id="node14" class="node">
<title>Node14</title>
<g id="a_node14"><a xlink:href="../../de/dd1/AH_2Settings_2SettingsWrapper_8hpp.html" target="_top" xlink:title=" ">
<polygon fill="#ffffff" stroke="#000000" points="1064,-336.5 1064,-355.5 1228,-355.5 1228,-336.5 1064,-336.5"/>
<text text-anchor="middle" x="1146" y="-343.5" font-family="Helvetica,sans-Serif" font-size="10.00" fill="#000000">AH/Settings/SettingsWrapper.hpp</text>
</a>
</g>
</g>
<!-- Node3&#45;&gt;Node14 -->
<g id="edge41" class="edge">
<title>Node3&#45;&gt;Node14</title>
<path fill="none" stroke="#191970" d="M1106.2459,-509.9656C1115.7971,-500.3802 1129.5137,-484.6698 1136,-468 1149.2388,-433.9762 1149.2127,-390.6766 1147.7631,-365.8725"/>
<polygon fill="#191970" stroke="#191970" points="1151.2314,-365.3091 1147.0143,-355.5897 1144.2499,-365.8175 1151.2314,-365.3091"/>
</g>
<!-- Node19 -->
<g id="node19" class="node">
<title>Node19</title>
<g id="a_node19"><a xlink:title=" ">
<polygon fill="#ffffff" stroke="#bfbfbf" points="762,-224.5 762,-243.5 814,-243.5 814,-224.5 762,-224.5"/>
<text text-anchor="middle" x="788" y="-231.5" font-family="Helvetica,sans-Serif" font-size="10.00" fill="#000000">stddef.h</text>
</a>
</g>
</g>
<!-- Node3&#45;&gt;Node19 -->
<g id="edge42" class="edge">
<title>Node3&#45;&gt;Node19</title>
<path fill="none" stroke="#191970" d="M1088.9611,-509.693C1077.4695,-494.3686 1053.2131,-464.7673 1026,-448 981.125,-420.3504 958.8067,-438.0772 913,-412 880.4432,-393.4659 872.8852,-385.6602 850,-356 836.5627,-338.5846 810.1269,-282.5347 796.5267,-252.8513"/>
<polygon fill="#191970" stroke="#191970" points="799.6241,-251.2077 792.2938,-243.5581 793.2538,-254.1093 799.6241,-251.2077"/>
</g>
<!-- Node25 -->
<g id="node25" class="node">
<title>Node25</title>
<g id="a_node25"><a xlink:href="../../d1/d93/Error_8hpp.html" target="_top" xlink:title=" ">
<polygon fill="#ffffff" stroke="#000000" points="664,-448.5 664,-467.5 762,-467.5 762,-448.5 664,-448.5"/>
<text text-anchor="middle" x="713" y="-455.5" font-family="Helvetica,sans-Serif" font-size="10.00" fill="#000000">AH/Error/Error.hpp</text>
</a>
</g>
</g>
<!-- Node3&#45;&gt;Node25 -->
<g id="edge38" class="edge">
<title>Node3&#45;&gt;Node25</title>
<path fill="none" stroke="#191970" d="M1046.4521,-509.9748C1035.4505,-507.9358 1023.8386,-505.8425 1013,-504 929.6426,-489.8297 832.9137,-475.3502 772.3281,-466.5168"/>
<polygon fill="#191970" stroke="#191970" points="772.5854,-463.0174 762.1858,-465.0415 771.5778,-469.9445 772.5854,-463.0174"/>
</g>
<!-- Node5&#45;&gt;Node4 -->
<g id="edge5" class="edge">
<title>Node5&#45;&gt;Node4</title>
<path fill="none" stroke="#191970" d="M1390.6982,-448.168C1402.1767,-435.2795 1418.7009,-411.9635 1410,-392 1386.0013,-336.9367 1342.4553,-351.171 1311,-300 1295.0149,-273.9956 1292,-264.5246 1292,-234 1292,-234 1292,-234 1292,-122 1292,-89.7116 1292,-52.1872 1292,-29.8048"/>
<polygon fill="#191970" stroke="#191970" points="1295.5001,-29.5883 1292,-19.5884 1288.5001,-29.5884 1295.5001,-29.5883"/>
</g>
<!-- Node6 -->
<g id="node6" class="node">
<title>Node6</title>
<g id="a_node6"><a xlink:href="../../df/dee/Debug_8hpp.html" target="_top" xlink:title=" ">
<polygon fill="#ffffff" stroke="#000000" points="979.5,-392.5 979.5,-411.5 1092.5,-411.5 1092.5,-392.5 979.5,-392.5"/>
<text text-anchor="middle" x="1036" y="-399.5" font-family="Helvetica,sans-Serif" font-size="10.00" fill="#000000">AH/Debug/Debug.hpp</text>
</a>
</g>
</g>
<!-- Node5&#45;&gt;Node6 -->
<g id="edge6" class="edge">
<title>Node5&#45;&gt;Node6</title>
<path fill="none" stroke="#191970" d="M1322.0844,-448.4369C1261.1605,-438.5478 1166.2088,-423.1353 1102.5976,-412.81"/>
<polygon fill="#191970" stroke="#191970" points="1103.0991,-409.3457 1092.6675,-411.1982 1101.9775,-416.2553 1103.0991,-409.3457"/>
</g>
<!-- Node9 -->
<g id="node9" class="node">
<title>Node9</title>
<g id="a_node9"><a xlink:href="../../d7/d79/MinMaxFix_8hpp.html" target="_top" xlink:title=" ">
<polygon fill="#ffffff" stroke="#000000" points="1995.5,-112.5 1995.5,-131.5 2120.5,-131.5 2120.5,-112.5 1995.5,-112.5"/>
<text text-anchor="middle" x="2058" y="-119.5" font-family="Helvetica,sans-Serif" font-size="10.00" fill="#000000">AH/Math/MinMaxFix.hpp</text>
</a>
</g>
</g>
<!-- Node5&#45;&gt;Node9 -->
<g id="edge35" class="edge">
<title>Node5&#45;&gt;Node9</title>
<path fill="none" stroke="#191970" d="M1418.8093,-448.4997C1503.3269,-426.7376 1713.3058,-369.74 1881,-300 1980.1198,-258.7785 2039.4108,-279.8357 2095,-188 2105.1014,-171.3121 2091.0334,-151.7764 2077.4373,-138.3121"/>
<polygon fill="#191970" stroke="#191970" points="2079.8061,-135.7355 2070.089,-131.5132 2075.0522,-140.8736 2079.8061,-135.7355"/>
</g>
<!-- Node23 -->
<g id="node23" class="node">
<title>Node23</title>
<g id="a_node23"><a xlink:title=" ">
<polygon fill="#ffffff" stroke="#bfbfbf" points="1288,-392.5 1288,-411.5 1336,-411.5 1336,-392.5 1288,-392.5"/>
<text text-anchor="middle" x="1312" y="-399.5" font-family="Helvetica,sans-Serif" font-size="10.00" fill="#000000">stdlib.h</text>
</a>
</g>
</g>
<!-- Node5&#45;&gt;Node23 -->
<g id="edge36" class="edge">
<title>Node5&#45;&gt;Node23</title>
<path fill="none" stroke="#191970" d="M1368.9811,-448.2455C1358.7902,-439.9746 1343.9638,-427.9416 1331.9893,-418.2232"/>
<polygon fill="#191970" stroke="#191970" points="1333.8514,-415.2268 1323.8812,-411.6427 1329.4402,-420.662 1333.8514,-415.2268"/>
</g>
<!-- Node24 -->
<g id="node24" class="node">
<title>Node24</title>
<g id="a_node24"><a xlink:title=" ">
<polygon fill="#ffffff" stroke="#bfbfbf" points="1354.5,-392.5 1354.5,-411.5 1401.5,-411.5 1401.5,-392.5 1354.5,-392.5"/>
<text text-anchor="middle" x="1378" y="-399.5" font-family="Helvetica,sans-Serif" font-size="10.00" fill="#000000">iterator</text>
</a>
</g>
</g>
<!-- Node5&#45;&gt;Node24 -->
<g id="edge37" class="edge">
<title>Node5&#45;&gt;Node24</title>
<path fill="none" stroke="#191970" d="M1380.4774,-448.2455C1380.086,-440.9382 1379.5372,-430.6944 1379.0556,-421.7046"/>
<polygon fill="#191970" stroke="#191970" points="1382.5466,-421.4411 1378.5166,-411.6427 1375.5566,-421.8156 1382.5466,-421.4411"/>
</g>
<!-- Node6&#45;&gt;Node4 -->
<g id="edge7" class="edge">
<title>Node6&#45;&gt;Node4</title>
<path fill="none" stroke="#191970" d="M985.7417,-392.4592C963.1304,-385.7745 937.8046,-374.5789 921,-356 900.5239,-333.3619 902,-320.5246 902,-290 902,-290 902,-290 902,-122 902,-57.4652 1101.7705,-27.936 1215.3585,-16.3619"/>
<polygon fill="#191970" stroke="#191970" points="1215.7956,-19.8358 1225.3997,-15.3626 1215.1022,-12.8702 1215.7956,-19.8358"/>
</g>
<!-- Node7 -->
<g id="node7" class="node">
<title>Node7</title>
<g id="a_node7"><a xlink:href="../../dd/d80/PrintStream_8hpp.html" target="_top" xlink:title=" ">
<polygon fill="#ffffff" stroke="#000000" points="1013.5,-224.5 1013.5,-243.5 1172.5,-243.5 1172.5,-224.5 1013.5,-224.5"/>
<text text-anchor="middle" x="1093" y="-231.5" font-family="Helvetica,sans-Serif" font-size="10.00" fill="#000000">AH/PrintStream/PrintStream.hpp</text>
</a>
</g>
</g>
<!-- Node6&#45;&gt;Node7 -->
<g id="edge8" class="edge">
<title>Node6&#45;&gt;Node7</title>
<path fill="none" stroke="#191970" d="M1033.9517,-392.3702C1031.0119,-379.3079 1025.0503,-355.3802 1017,-336 1009.9787,-319.0969 1001.5912,-317.7182 997,-300 994.7703,-291.3953 992.2635,-287.5218 997,-280 1006.714,-264.5737 1023.195,-254.2059 1039.786,-247.2886"/>
<polygon fill="#191970" stroke="#191970" points="1041.4052,-250.418 1049.5168,-243.6024 1038.9254,-243.8719 1041.4052,-250.418"/>
</g>
<!-- Node6&#45;&gt;Node14 -->
<g id="edge19" class="edge">
<title>Node6&#45;&gt;Node14</title>
<path fill="none" stroke="#191970" d="M1049.8937,-392.2455C1065.6809,-383.3322 1091.5483,-370.0497 1112.5569,-360.0035"/>
<polygon fill="#191970" stroke="#191970" points="1114.259,-363.0706 1121.8139,-355.6427 1111.2758,-356.7381 1114.259,-363.0706"/>
</g>
<!-- Node22 -->
<g id="node22" class="node">
<title>Node22</title>
<g id="a_node22"><a xlink:href="../../d7/d52/DebugVal_8hpp.html" target="_top" xlink:title=" ">
<polygon fill="#ffffff" stroke="#000000" points="930,-336.5 930,-355.5 1008,-355.5 1008,-336.5 930,-336.5"/>
<text text-anchor="middle" x="969" y="-343.5" font-family="Helvetica,sans-Serif" font-size="10.00" fill="#000000">DebugVal.hpp</text>
</a>
</g>
</g>
<!-- Node6&#45;&gt;Node22 -->
<g id="edge34" class="edge">
<title>Node6&#45;&gt;Node22</title>
<path fill="none" stroke="#191970" d="M1024.3295,-392.2455C1014.4339,-383.9746 1000.0373,-371.9416 988.4099,-362.2232"/>
<polygon fill="#191970" stroke="#191970" points="990.4542,-359.3703 980.5368,-355.6427 985.965,-364.7413 990.4542,-359.3703"/>
</g>
<!-- Node7&#45;&gt;Node4 -->
<g id="edge9" class="edge">
<title>Node7&#45;&gt;Node4</title>
<path fill="none" stroke="#191970" d="M1093.3572,-224.4183C1094.6315,-202.3906 1100.4492,-147.3309 1127,-112 1159.8732,-68.2559 1217.4849,-38.9509 1255.1903,-23.3778"/>
<polygon fill="#191970" stroke="#191970" points="1256.809,-26.4997 1264.7898,-19.5313 1254.2054,-20.002 1256.809,-26.4997"/>
</g>
<!-- Node8 -->
<g id="node8" class="node">
<title>Node8</title>
<g id="a_node8"><a xlink:href="../../d6/ddf/Arduino-Wrapper_8h.html" target="_top" xlink:title=" ">
<polygon fill="#ffffff" stroke="#000000" points="1970.5,-168.5 1970.5,-187.5 2085.5,-187.5 2085.5,-168.5 1970.5,-168.5"/>
<text text-anchor="middle" x="2028" y="-175.5" font-family="Helvetica,sans-Serif" font-size="10.00" fill="#000000">AH/Arduino&#45;Wrapper.h</text>
</a>
</g>
</g>
<!-- Node7&#45;&gt;Node8 -->
<g id="edge10" class="edge">
<title>Node7&#45;&gt;Node8</title>
<path fill="none" stroke="#191970" d="M1172.7176,-229.2255C1353.5108,-218.3972 1791.9966,-192.135 1960.4941,-182.0431"/>
<polygon fill="#191970" stroke="#191970" points="1960.7052,-185.5369 1970.4781,-181.4452 1960.2867,-178.5494 1960.7052,-185.5369"/>
</g>
<!-- Node8&#45;&gt;Node9 -->
<g id="edge11" class="edge">
<title>Node8&#45;&gt;Node9</title>
<path fill="none" stroke="#191970" d="M2033.2256,-168.2455C2037.3123,-160.617 2043.1135,-149.7881 2048.075,-140.5267"/>
<polygon fill="#191970" stroke="#191970" points="2051.1972,-142.1103 2052.8343,-131.6427 2045.0268,-138.8047 2051.1972,-142.1103"/>
</g>
<!-- Node11 -->
<g id="node11" class="node">
<title>Node11</title>
<g id="a_node11"><a xlink:title=" ">
<polygon fill="#ffffff" stroke="#bfbfbf" points="2269,-.5 2269,-19.5 2327,-19.5 2327,-.5 2269,-.5"/>
<text text-anchor="middle" x="2298" y="-7.5" font-family="Helvetica,sans-Serif" font-size="10.00" fill="#000000">Arduino.h</text>
</a>
</g>
</g>
<!-- Node8&#45;&gt;Node11 -->
<g id="edge18" class="edge">
<title>Node8&#45;&gt;Node11</title>
<path fill="none" stroke="#191970" d="M2073.0791,-168.4541C2146.0489,-151.9862 2284.7461,-116.1208 2313,-76 2322.7849,-62.1054 2316.7266,-42.8456 2309.6032,-28.7172"/>
<polygon fill="#191970" stroke="#191970" points="2312.6071,-26.9175 2304.683,-19.8848 2306.4919,-30.3241 2312.6071,-26.9175"/>
</g>
<!-- Node13 -->
<g id="node13" class="node">
<title>Node13</title>
<g id="a_node13"><a xlink:title=" ">
<polygon fill="#ffffff" stroke="#bfbfbf" points="1695.5,-112.5 1695.5,-131.5 1796.5,-131.5 1796.5,-112.5 1695.5,-112.5"/>
<text text-anchor="middle" x="1746" y="-119.5" font-family="Helvetica,sans-Serif" font-size="10.00" fill="#000000">AH/STL/type_traits</text>
</a>
</g>
</g>
<!-- Node8&#45;&gt;Node13 -->
<g id="edge17" class="edge">
<title>Node8&#45;&gt;Node13</title>
<path fill="none" stroke="#191970" d="M1979.8429,-168.4369C1931.1752,-158.7724 1855.9425,-143.8326 1804.0179,-133.5213"/>
<polygon fill="#191970" stroke="#191970" points="1804.4487,-130.0386 1793.9585,-131.5237 1803.0852,-136.9045 1804.4487,-130.0386"/>
</g>
<!-- Node9&#45;&gt;Node4 -->
<g id="edge12" class="edge">
<title>Node9&#45;&gt;Node4</title>
<path fill="none" stroke="#191970" d="M2047.3569,-112.4332C2029.8012,-97.3115 1993.0182,-68.3388 1956,-56 1901.5942,-37.8656 1532.2839,-20.1949 1369.1732,-13.1734"/>
<polygon fill="#191970" stroke="#191970" points="1368.8737,-9.6575 1358.7331,-12.7264 1368.5742,-16.6511 1368.8737,-9.6575"/>
</g>
<!-- Node10 -->
<g id="node10" class="node">
<title>Node10</title>
<g id="a_node10"><a xlink:href="../../d6/d3b/FixArduinoMacros_8hpp.html" target="_top" xlink:title=" ">
<polygon fill="#ffffff" stroke="#000000" points="2148,-56.5 2148,-75.5 2304,-75.5 2304,-56.5 2148,-56.5"/>
<text text-anchor="middle" x="2226" y="-63.5" font-family="Helvetica,sans-Serif" font-size="10.00" fill="#000000">AH/Math/FixArduinoMacros.hpp</text>
</a>
</g>
</g>
<!-- Node9&#45;&gt;Node10 -->
<g id="edge13" class="edge">
<title>Node9&#45;&gt;Node10</title>
<path fill="none" stroke="#191970" d="M2086.8802,-112.3733C2114.8161,-103.0613 2157.3142,-88.8953 2187.9869,-78.671"/>
<polygon fill="#191970" stroke="#191970" points="2189.1166,-81.9839 2197.4966,-75.5011 2186.903,-75.3431 2189.1166,-81.9839"/>
</g>
<!-- Node12 -->
<g id="node12" class="node">
<title>Node12</title>
<g id="a_node12"><a xlink:href="../../d6/db0/AH_2Settings_2NamespaceSettings_8hpp.html" target="_top" xlink:title=" ">
<polygon fill="#ffffff" stroke="#000000" points="1734,-56.5 1734,-75.5 1914,-75.5 1914,-56.5 1734,-56.5"/>
<text text-anchor="middle" x="1824" y="-63.5" font-family="Helvetica,sans-Serif" font-size="10.00" fill="#000000">AH/Settings/NamespaceSettings.hpp</text>
</a>
</g>
</g>
<!-- Node9&#45;&gt;Node12 -->
<g id="edge16" class="edge">
<title>Node9&#45;&gt;Node12</title>
<path fill="none" stroke="#191970" d="M2018.0398,-112.4369C1978.1608,-102.8932 1916.7861,-88.2052 1873.7672,-77.9101"/>
<polygon fill="#191970" stroke="#191970" points="1874.3354,-74.4473 1863.7953,-75.5237 1872.7061,-81.2551 1874.3354,-74.4473"/>
</g>
<!-- Node10&#45;&gt;Node4 -->
<g id="edge14" class="edge">
<title>Node10&#45;&gt;Node4</title>
<path fill="none" stroke="#191970" d="M2147.7305,-57.2034C2143.0871,-56.7714 2138.4837,-56.3659 2134,-56 1852.575,-33.0345 1517.2704,-18.5632 1369.0134,-12.8226"/>
<polygon fill="#191970" stroke="#191970" points="1368.7927,-9.3116 1358.6655,-12.4244 1368.5235,-16.3064 1368.7927,-9.3116"/>
</g>
<!-- Node10&#45;&gt;Node11 -->
<g id="edge15" class="edge">
<title>Node10&#45;&gt;Node11</title>
<path fill="none" stroke="#191970" d="M2238.5414,-56.2455C2249.2787,-47.8943 2264.9473,-35.7076 2277.5047,-25.9408"/>
<polygon fill="#191970" stroke="#191970" points="2279.8575,-28.5449 2285.6023,-19.6427 2275.5599,-23.0194 2279.8575,-28.5449"/>
</g>
<!-- Node14&#45;&gt;Node4 -->
<g id="edge20" class="edge">
<title>Node14&#45;&gt;Node4</title>
<path fill="none" stroke="#191970" d="M1098.5881,-336.4963C1060.5816,-327.9732 1011.3142,-314.5909 997,-300 975.6234,-278.2102 978,-264.5246 978,-234 978,-234 978,-234 978,-122 978,-71.2526 1125.3372,-37.4758 1218.1593,-21.232"/>
<polygon fill="#191970" stroke="#191970" points="1218.8168,-24.6704 1228.0789,-19.5262 1217.6304,-17.7716 1218.8168,-24.6704"/>
</g>
<!-- Node14&#45;&gt;Node6 -->
<g id="edge33" class="edge">
<title>Node14&#45;&gt;Node6</title>
<path fill="none" stroke="#191970" d="M1132.5544,-355.5011C1116.7528,-364.4482 1090.4546,-377.9559 1069.2039,-388.1109"/>
<polygon fill="#191970" stroke="#191970" points="1067.7079,-384.9466 1060.1517,-392.3733 1070.69,-391.2797 1067.7079,-384.9466"/>
</g>
<!-- Node14&#45;&gt;Node12 -->
<g id="edge21" class="edge">
<title>Node14&#45;&gt;Node12</title>
<path fill="none" stroke="#191970" d="M1228.0954,-343.731C1412.3525,-338.2385 1844.4549,-322.9656 1866,-300 1873.3974,-292.1149 1840.539,-140.3332 1828.3748,-85.5273"/>
<polygon fill="#191970" stroke="#191970" points="1831.7672,-84.6586 1826.1753,-75.6596 1824.9349,-86.1816 1831.7672,-84.6586"/>
</g>
<!-- Node15 -->
<g id="node15" class="node">
<title>Node15</title>
<g id="a_node15"><a xlink:href="../../d5/d4f/AH_2Settings_2Settings_8hpp.html" target="_top" xlink:title="All user settings and debugging options can be changed here.">
<polygon fill="#ffffff" stroke="#000000" points="1006.5,-280.5 1006.5,-299.5 1077.5,-299.5 1077.5,-280.5 1006.5,-280.5"/>
<text text-anchor="middle" x="1042" y="-287.5" font-family="Helvetica,sans-Serif" font-size="10.00" fill="#000000">Settings.hpp</text>
</a>
</g>
</g>
<!-- Node14&#45;&gt;Node15 -->
<g id="edge22" class="edge">
<title>Node14&#45;&gt;Node15</title>
<path fill="none" stroke="#191970" d="M1127.8846,-336.2455C1111.555,-327.4527 1087.329,-314.4079 1068.7661,-304.4125"/>
<polygon fill="#191970" stroke="#191970" points="1070.3719,-301.3021 1059.9078,-299.6427 1067.0532,-307.4654 1070.3719,-301.3021"/>
</g>
<!-- Node21 -->
<g id="node21" class="node">
<title>Node21</title>
<g id="a_node21"><a xlink:href="../../d9/d98/TeensyUSBTypes_8hpp.html" target="_top" xlink:title=" ">
<polygon fill="#ffffff" stroke="#000000" points="1096,-280.5 1096,-299.5 1264,-299.5 1264,-280.5 1096,-280.5"/>
<text text-anchor="middle" x="1180" y="-287.5" font-family="Helvetica,sans-Serif" font-size="10.00" fill="#000000">AH/Teensy/TeensyUSBTypes.hpp</text>
</a>
</g>
</g>
<!-- Node14&#45;&gt;Node21 -->
<g id="edge32" class="edge">
<title>Node14&#45;&gt;Node21</title>
<path fill="none" stroke="#191970" d="M1151.9223,-336.2455C1156.6027,-328.5367 1163.2673,-317.5598 1168.9289,-308.2348"/>
<polygon fill="#191970" stroke="#191970" points="1171.9475,-310.007 1174.1455,-299.6427 1165.9639,-306.3741 1171.9475,-310.007"/>
</g>
<!-- Node16 -->
<g id="node16" class="node">
<title>Node16</title>
<g id="a_node16"><a xlink:href="../../dc/d50/Frequency_8hpp.html" target="_top" xlink:title=" ">
<polygon fill="#ffffff" stroke="#000000" points="1136,-112.5 1136,-131.5 1264,-131.5 1264,-112.5 1136,-112.5"/>
<text text-anchor="middle" x="1200" y="-119.5" font-family="Helvetica,sans-Serif" font-size="10.00" fill="#000000">AH/Types/Frequency.hpp</text>
</a>
</g>
</g>
<!-- Node15&#45;&gt;Node16 -->
<g id="edge23" class="edge">
<title>Node15&#45;&gt;Node16</title>
<path fill="none" stroke="#191970" d="M1077.1896,-280.4151C1116.0494,-269.5136 1174.0785,-252.1701 1181,-244 1205.4906,-215.0914 1205.2203,-167.945 1202.7059,-141.5251"/>
<polygon fill="#191970" stroke="#191970" points="1206.1821,-141.1166 1201.5566,-131.5849 1199.2284,-141.9207 1206.1821,-141.1166"/>
</g>
<!-- Node17 -->
<g id="node17" class="node">
<title>Node17</title>
<g id="a_node17"><a xlink:href="../../d7/d7c/ADCConfig_8hpp.html" target="_top" xlink:title="This file contains the platform&#45;specific ADC resolutions. By default, the library automatically selec...">
<polygon fill="#ffffff" stroke="#000000" points="1320,-224.5 1320,-243.5 1468,-243.5 1468,-224.5 1320,-224.5"/>
<text text-anchor="middle" x="1394" y="-231.5" font-family="Helvetica,sans-Serif" font-size="10.00" fill="#000000">AH/Hardware/ADCConfig.hpp</text>
</a>
</g>
</g>
<!-- Node15&#45;&gt;Node17 -->
<g id="edge26" class="edge">
<title>Node15&#45;&gt;Node17</title>
<path fill="none" stroke="#191970" d="M1077.8151,-281.8041C1080.9161,-281.1665 1084.01,-280.5555 1087,-280 1162.2889,-266.0117 1248.5781,-253.3804 1310.4624,-244.909"/>
<polygon fill="#191970" stroke="#191970" points="1311.1284,-248.3507 1320.5646,-243.5334 1310.1838,-241.4148 1311.1284,-248.3507"/>
</g>
<!-- Node18 -->
<g id="node18" class="node">
<title>Node18</title>
<g id="a_node18"><a xlink:title=" ">
<polygon fill="#ffffff" stroke="#bfbfbf" points="1666,-224.5 1666,-243.5 1714,-243.5 1714,-224.5 1666,-224.5"/>
<text text-anchor="middle" x="1690" y="-231.5" font-family="Helvetica,sans-Serif" font-size="10.00" fill="#000000">limits.h</text>
</a>
</g>
</g>
<!-- Node15&#45;&gt;Node18 -->
<g id="edge29" class="edge">
<title>Node15&#45;&gt;Node18</title>
<path fill="none" stroke="#191970" d="M1077.7756,-281.5673C1080.8852,-280.981 1083.9918,-280.4467 1087,-280 1198.0594,-263.5099 1544.438,-242.4657 1655.417,-235.987"/>
<polygon fill="#191970" stroke="#191970" points="1655.9233,-239.4635 1665.7033,-235.3889 1655.517,-232.4753 1655.9233,-239.4635"/>
</g>
<!-- Node15&#45;&gt;Node19 -->
<g id="edge30" class="edge">
<title>Node15&#45;&gt;Node19</title>
<path fill="none" stroke="#191970" d="M1006.4149,-282.1545C958.2066,-271.5259 872.6137,-252.655 824.1271,-241.965"/>
<polygon fill="#191970" stroke="#191970" points="824.6017,-238.4857 814.0826,-239.7505 823.0945,-245.3215 824.6017,-238.4857"/>
</g>
<!-- Node20 -->
<g id="node20" class="node">
<title>Node20</title>
<g id="a_node20"><a xlink:title=" ">
<polygon fill="#ffffff" stroke="#bfbfbf" points="402.5,-224.5 402.5,-243.5 451.5,-243.5 451.5,-224.5 402.5,-224.5"/>
<text text-anchor="middle" x="427" y="-231.5" font-family="Helvetica,sans-Serif" font-size="10.00" fill="#000000">stdint.h</text>
</a>
</g>
</g>
<!-- Node15&#45;&gt;Node20 -->
<g id="edge31" class="edge">
<title>Node15&#45;&gt;Node20</title>
<path fill="none" stroke="#191970" d="M1006.2767,-286.7472C897.2377,-276.8184 569.5928,-246.9841 461.7993,-237.1687"/>
<polygon fill="#191970" stroke="#191970" points="462.0546,-233.6776 451.7784,-236.2562 461.4198,-240.6487 462.0546,-233.6776"/>
</g>
<!-- Node16&#45;&gt;Node4 -->
<g id="edge24" class="edge">
<title>Node16&#45;&gt;Node4</title>
<path fill="none" stroke="#191970" d="M1207.8439,-112.4509C1223.3242,-93.6054 1258.0053,-51.3849 1277.6727,-27.4419"/>
<polygon fill="#191970" stroke="#191970" points="1280.5331,-29.4738 1284.176,-19.5249 1275.124,-25.0306 1280.5331,-29.4738"/>
</g>
<!-- Node16&#45;&gt;Node12 -->
<g id="edge25" class="edge">
<title>Node16&#45;&gt;Node12</title>
<path fill="none" stroke="#191970" d="M1264.1373,-116.2441C1372.8439,-106.4884 1594.0542,-86.6362 1723.4957,-75.0196"/>
<polygon fill="#191970" stroke="#191970" points="1724.1589,-78.4743 1733.806,-74.0943 1723.5331,-71.5023 1724.1589,-78.4743"/>
</g>
<!-- Node17&#45;&gt;Node4 -->
<g id="edge27" class="edge">
<title>Node17&#45;&gt;Node4</title>
<path fill="none" stroke="#191970" d="M1389.6172,-224.375C1374.0871,-190.2697 1321.4962,-74.7761 1300.6321,-28.9567"/>
<polygon fill="#191970" stroke="#191970" points="1303.696,-27.2396 1296.3665,-19.5891 1297.3254,-30.1405 1303.696,-27.2396"/>
</g>
<!-- Node17&#45;&gt;Node8 -->
<g id="edge28" class="edge">
<title>Node17&#45;&gt;Node8</title>
<path fill="none" stroke="#191970" d="M1468.2802,-227.439C1592.5117,-216.4658 1840.5711,-194.5552 1960.2812,-183.9815"/>
<polygon fill="#191970" stroke="#191970" points="1960.7618,-187.4527 1970.415,-183.0864 1960.1458,-180.4799 1960.7618,-187.4527"/>
</g>
<!-- Node25&#45;&gt;Node4 -->
<g id="edge39" class="edge">
<title>Node25&#45;&gt;Node4</title>
<path fill="none" stroke="#191970" d="M699.808,-448.2587C669.6013,-424.7211 598,-361.398 598,-290 598,-290 598,-290 598,-122 598,-81.7538 623.6673,-73.3115 660,-56 708.9855,-32.6599 1057.8387,-17.9738 1215.2629,-12.4655"/>
<polygon fill="#191970" stroke="#191970" points="1215.4774,-15.9602 1225.3502,-12.1159 1215.2349,-8.9644 1215.4774,-15.9602"/>
</g>
<!-- Node25&#45;&gt;Node6 -->
<g id="edge40" class="edge">
<title>Node25&#45;&gt;Node6</title>
<path fill="none" stroke="#191970" d="M762.0567,-449.4948C817.893,-439.8142 909.3282,-423.9617 971.0448,-413.2616"/>
<polygon fill="#191970" stroke="#191970" points="971.8094,-416.6813 981.0645,-411.5244 970.6136,-409.7842 971.8094,-416.6813"/>
</g>
<!-- Node26&#45;&gt;Node4 -->
<g id="edge44" class="edge">
<title>Node26&#45;&gt;Node4</title>
<path fill="none" stroke="#191970" d="M1850.05,-711.9026C1943.5452,-707.1068 2091.5974,-695.5017 2140,-669 2303.6164,-579.4158 2408,-532.5359 2408,-346 2408,-346 2408,-346 2408,-122 2408,-79.5631 2378.0282,-72.6641 2339,-56 2250.6268,-18.2667 1595.1328,-11.4845 1368.6823,-10.2664"/>
<polygon fill="#191970" stroke="#191970" points="1368.5667,-6.7659 1358.5487,-10.2141 1368.5305,-13.7658 1368.5667,-6.7659"/>
</g>
<!-- Node26&#45;&gt;Node9 -->
<g id="edge71" class="edge">
<title>Node26&#45;&gt;Node9</title>
<path fill="none" stroke="#191970" d="M1850.2865,-712.7223C1937.696,-708.779 2070.4562,-698.0569 2111,-669 2144.2806,-645.1485 2152,-627.445 2152,-586.5 2152,-586.5 2152,-586.5 2152,-234 2152,-191.1654 2111.161,-156.139 2083.3197,-137.2374"/>
<polygon fill="#191970" stroke="#191970" points="2085.092,-134.2145 2074.8053,-131.6776 2081.2647,-140.0756 2085.092,-134.2145"/>
</g>
<!-- Node26&#45;&gt;Node14 -->
<g id="edge72" class="edge">
<title>Node26&#45;&gt;Node14</title>
<path fill="none" stroke="#191970" d="M1689.9505,-709.9992C1623.5847,-704.2396 1536.0559,-692.3839 1510,-669 1481.5801,-643.4945 1486,-624.6867 1486,-586.5 1486,-586.5 1486,-586.5 1486,-458 1486,-413.2632 1450.403,-411.2089 1410,-392 1380.0875,-377.7787 1301.7831,-365.147 1238.1693,-356.736"/>
<polygon fill="#191970" stroke="#191970" points="1238.4641,-353.2449 1228.0955,-355.4227 1237.5591,-360.1862 1238.4641,-353.2449"/>
</g>
<!-- Node27 -->
<g id="node27" class="node">
<title>Node27</title>
<g id="a_node27"><a xlink:href="../../d3/df0/EMA_8hpp.html" target="_top" xlink:title=" ">
<polygon fill="#ffffff" stroke="#000000" points="1320,-280.5 1320,-299.5 1424,-299.5 1424,-280.5 1320,-280.5"/>
<text text-anchor="middle" x="1372" y="-287.5" font-family="Helvetica,sans-Serif" font-size="10.00" fill="#000000">AH/Filters/EMA.hpp</text>
</a>
</g>
</g>
<!-- Node26&#45;&gt;Node27 -->
<g id="edge45" class="edge">
<title>Node26&#45;&gt;Node27</title>
<path fill="none" stroke="#191970" d="M1689.7908,-706.454C1618.0032,-693.8341 1524,-662.7511 1524,-586.5 1524,-586.5 1524,-586.5 1524,-402 1524,-348.8635 1463.0521,-318.1127 1418.3436,-302.7035"/>
<polygon fill="#191970" stroke="#191970" points="1419.388,-299.3626 1408.795,-299.5566 1417.1969,-306.0108 1419.388,-299.3626"/>
</g>
<!-- Node28 -->
<g id="node28" class="node">
<title>Node28</title>
<g id="a_node28"><a xlink:href="../../d3/d09/Hysteresis_8hpp.html" target="_top" xlink:title=" ">
<polygon fill="#ffffff" stroke="#000000" points="1442,-280.5 1442,-299.5 1572,-299.5 1572,-280.5 1442,-280.5"/>
<text text-anchor="middle" x="1507" y="-287.5" font-family="Helvetica,sans-Serif" font-size="10.00" fill="#000000">AH/Filters/Hysteresis.hpp</text>
</a>
</g>
</g>
<!-- Node26&#45;&gt;Node28 -->
<g id="edge48" class="edge">
<title>Node26&#45;&gt;Node28</title>
<path fill="none" stroke="#191970" d="M1770.4904,-705.3945C1771.3346,-681.4938 1771.2539,-617.8982 1750,-571 1696.0031,-451.8523 1575.0361,-345.1166 1527.1102,-305.9143"/>
<polygon fill="#191970" stroke="#191970" points="1529.274,-303.1629 1519.2978,-299.5954 1524.8718,-308.6054 1529.274,-303.1629"/>
</g>
<!-- Node29 -->
<g id="node29" class="node">
<title>Node29</title>
<g id="a_node29"><a xlink:href="../../dd/ddf/ExtendedInputOutput_8hpp.html" target="_top" xlink:title=" ">
<polygon fill="#ffffff" stroke="#000000" points="1942,-638.5 1942,-668.5 2102,-668.5 2102,-638.5 1942,-638.5"/>
<text text-anchor="start" x="1950" y="-656.5" font-family="Helvetica,sans-Serif" font-size="10.00" fill="#000000">AH/Hardware/ExtendedInput</text>
<text text-anchor="middle" x="2022" y="-645.5" font-family="Helvetica,sans-Serif" font-size="10.00" fill="#000000">Output/ExtendedInputOutput.hpp</text>
</a>
</g>
</g>
<!-- Node26&#45;&gt;Node29 -->
<g id="edge51" class="edge">
<title>Node26&#45;&gt;Node29</title>
<path fill="none" stroke="#191970" d="M1809.0985,-705.4581C1846.7069,-696.2799 1904.4544,-682.1867 1950.3229,-670.9926"/>
<polygon fill="#191970" stroke="#191970" points="1951.3302,-674.3496 1960.2152,-668.5784 1949.6705,-667.5492 1951.3302,-674.3496"/>
</g>
<!-- Node30 -->
<g id="node30" class="node">
<title>Node30</title>
<g id="a_node30"><a xlink:href="../../d4/d35/Hardware-Types_8hpp.html" target="_top" xlink:title=" ">
<polygon fill="#ffffff" stroke="#000000" points="1620.5,-571.5 1620.5,-601.5 1741.5,-601.5 1741.5,-571.5 1620.5,-571.5"/>
<text text-anchor="start" x="1628.5" y="-589.5" font-family="Helvetica,sans-Serif" font-size="10.00" fill="#000000">AH/Hardware/Hardware</text>
<text text-anchor="middle" x="1681" y="-578.5" font-family="Helvetica,sans-Serif" font-size="10.00" fill="#000000">&#45;Types.hpp</text>
</a>
</g>
</g>
<!-- Node26&#45;&gt;Node30 -->
<g id="edge65" class="edge">
<title>Node26&#45;&gt;Node30</title>
<path fill="none" stroke="#191970" d="M1763.3105,-705.3416C1749.4489,-685.328 1717.2368,-638.8194 1697.4701,-610.2799"/>
<polygon fill="#191970" stroke="#191970" points="1700.0998,-607.9296 1691.5287,-601.7016 1694.3453,-611.9152 1700.0998,-607.9296"/>
</g>
<!-- Node33 -->
<g id="node33" class="node">
<title>Node33</title>
<g id="a_node33"><a xlink:href="../../d5/dee/IncreaseBitDepth_8hpp.html" target="_top" xlink:title=" ">
<polygon fill="#ffffff" stroke="#000000" points="1704.5,-280.5 1704.5,-299.5 1857.5,-299.5 1857.5,-280.5 1704.5,-280.5"/>
<text text-anchor="middle" x="1781" y="-287.5" font-family="Helvetica,sans-Serif" font-size="10.00" fill="#000000">AH/Math/IncreaseBitDepth.hpp</text>
</a>
</g>
</g>
<!-- Node26&#45;&gt;Node33 -->
<g id="edge66" class="edge">
<title>Node26&#45;&gt;Node33</title>
<path fill="none" stroke="#191970" d="M1785.4105,-705.4786C1822.5586,-681.9831 1914,-620.6767 1914,-586.5 1914,-586.5 1914,-586.5 1914,-458 1914,-388.7771 1843.7283,-331.4238 1805.3435,-305.259"/>
<polygon fill="#191970" stroke="#191970" points="1807.0471,-302.1891 1796.7791,-299.5775 1803.1774,-308.0222 1807.0471,-302.1891"/>
</g>
<!-- Node27&#45;&gt;Node4 -->
<g id="edge46" class="edge">
<title>Node27&#45;&gt;Node4</title>
<path fill="none" stroke="#191970" d="M1414.7802,-280.4837C1436.2084,-273.6645 1460.9411,-262.3433 1477,-244 1497.1067,-221.0332 1496,-208.5246 1496,-178 1496,-178 1496,-178 1496,-122 1496,-61.5584 1426.3392,-33.5107 1368.4313,-20.637"/>
<polygon fill="#191970" stroke="#191970" points="1369.0212,-17.1845 1358.515,-18.5517 1367.5806,-24.0347 1369.0212,-17.1845"/>
</g>
<!-- Node27&#45;&gt;Node20 -->
<g id="edge47" class="edge">
<title>Node27&#45;&gt;Node20</title>
<path fill="none" stroke="#191970" d="M1319.8903,-284.2791C1304.7777,-282.7439 1288.2425,-281.1836 1273,-280 958.3584,-255.5681 576.8838,-239.7782 461.6054,-235.3057"/>
<polygon fill="#191970" stroke="#191970" points="461.7248,-231.8078 451.5974,-234.92 461.4551,-238.8026 461.7248,-231.8078"/>
</g>
<!-- Node28&#45;&gt;Node4 -->
<g id="edge49" class="edge">
<title>Node28&#45;&gt;Node4</title>
<path fill="none" stroke="#191970" d="M1510.9839,-280.3019C1518.4944,-261.1145 1534,-216.8029 1534,-178 1534,-178 1534,-178 1534,-122 1534,-85.4662 1515.4975,-76.1151 1485,-56 1464.7076,-42.6158 1408.1235,-30.0072 1361.4345,-21.3874"/>
<polygon fill="#191970" stroke="#191970" points="1361.7992,-17.8965 1351.3351,-19.5557 1360.5499,-24.7842 1361.7992,-17.8965"/>
</g>
<!-- Node28&#45;&gt;Node20 -->
<g id="edge50" class="edge">
<title>Node28&#45;&gt;Node20</title>
<path fill="none" stroke="#191970" d="M1441.6655,-280.8514C1438.7394,-280.5425 1435.8405,-280.2564 1433,-280 1238.2968,-262.4278 616.07,-240.4531 461.8408,-235.1774"/>
<polygon fill="#191970" stroke="#191970" points="461.6709,-231.6696 451.5574,-234.8267 461.4322,-238.6656 461.6709,-231.6696"/>
</g>
<!-- Node29&#45;&gt;Node4 -->
<g id="edge52" class="edge">
<title>Node29&#45;&gt;Node4</title>
<path fill="none" stroke="#191970" d="M2042.2141,-638.4734C2116.4859,-582.9129 2370,-390.0407 2370,-346 2370,-346 2370,-346 2370,-178 2370,-118.1516 2362.7513,-89.2661 2313,-56 2273.9363,-29.8802 1600.2061,-15.4872 1369.0812,-11.3011"/>
<polygon fill="#191970" stroke="#191970" points="1368.8034,-7.7956 1358.7421,-11.1153 1368.6775,-14.7945 1368.8034,-7.7956"/>
</g>
<!-- Node29&#45;&gt;Node8 -->
<g id="edge54" class="edge">
<title>Node29&#45;&gt;Node8</title>
<path fill="none" stroke="#191970" d="M2032.6687,-638.2228C2048.4059,-614.1514 2076,-565.3998 2076,-519.5 2076,-519.5 2076,-519.5 2076,-290 2076,-254.4341 2055.2983,-217.2782 2041.0855,-195.9597"/>
<polygon fill="#191970" stroke="#191970" points="2043.8613,-193.8202 2035.2902,-187.5923 2038.1067,-197.8059 2043.8613,-193.8202"/>
</g>
<!-- Node29&#45;&gt;Node12 -->
<g id="edge53" class="edge">
<title>Node29&#45;&gt;Node12</title>
<path fill="none" stroke="#191970" d="M2017.862,-638.36C2011.4891,-613.6714 2000,-563.1144 2000,-519.5 2000,-519.5 2000,-519.5 2000,-290 2000,-283.8609 1872.9757,-116.6779 1869,-112 1860.4695,-101.9628 1850.2512,-91.4135 1841.7092,-82.953"/>
<polygon fill="#191970" stroke="#191970" points="1844.0317,-80.3289 1834.4324,-75.8449 1839.1403,-85.3364 1844.0317,-80.3289"/>
</g>
<!-- Node29&#45;&gt;Node30 -->
<g id="edge55" class="edge">
<title>Node29&#45;&gt;Node30</title>
<path fill="none" stroke="#191970" d="M1945.4729,-638.4639C1887.3998,-627.0536 1808.1744,-611.4873 1751.6088,-600.3733"/>
<polygon fill="#191970" stroke="#191970" points="1752.1618,-596.9151 1741.6746,-598.4214 1750.8121,-603.7838 1752.1618,-596.9151"/>
</g>
<!-- Node30&#45;&gt;Node4 -->
<g id="edge56" class="edge">
<title>Node30&#45;&gt;Node4</title>
<path fill="none" stroke="#191970" d="M1741.5602,-574.7263C1843.4139,-551.0182 2038,-487.2422 2038,-346 2038,-346 2038,-346 2038,-290 2038,-233.4664 1987.2913,-238.5609 1962,-188 1934.6329,-133.2893 1970.6383,-94.3772 1923,-56 1880.7323,-21.9493 1527.5621,-13.0573 1368.7894,-10.7729"/>
<polygon fill="#191970" stroke="#191970" points="1368.6654,-7.2709 1358.6178,-10.6318 1368.5682,-14.2703 1368.6654,-7.2709"/>
</g>
<!-- Node30&#45;&gt;Node12 -->
<g id="edge63" class="edge">
<title>Node30&#45;&gt;Node12</title>
<path fill="none" stroke="#191970" d="M1696.9116,-571.3344C1737.368,-531.5308 1843.6,-418.914 1881,-300 1906.3859,-219.2853 1880.9942,-191.118 1851,-112 1847.3271,-102.3116 1841.7069,-92.3048 1836.5434,-84.1087"/>
<polygon fill="#191970" stroke="#191970" points="1839.4562,-82.168 1831.0357,-75.7379 1833.6084,-86.0156 1839.4562,-82.168"/>
</g>
<!-- Node30&#45;&gt;Node20 -->
<g id="edge64" class="edge">
<title>Node30&#45;&gt;Node20</title>
<path fill="none" stroke="#191970" d="M1620.4192,-584.5426C1457.6065,-578.9815 1013.1822,-561.7402 869,-535 771.0074,-516.8262 739.9187,-520.1694 655,-468 556.6391,-407.5725 470.5681,-295.3275 439.4144,-251.8492"/>
<polygon fill="#191970" stroke="#191970" points="442.2504,-249.7977 433.6154,-243.6586 436.5373,-253.8425 442.2504,-249.7977"/>
</g>
<!-- Node31 -->
<g id="node31" class="node">
<title>Node31</title>
<g id="a_node31"><a xlink:href="../../de/d76/Array_8hpp.html" target="_top" xlink:title=" ">
<polygon fill="#ffffff" stroke="#000000" points="878,-510 878,-529 1004,-529 1004,-510 878,-510"/>
<text text-anchor="middle" x="941" y="-517" font-family="Helvetica,sans-Serif" font-size="10.00" fill="#000000">AH/Containers/Array.hpp</text>
</a>
</g>
</g>
<!-- Node30&#45;&gt;Node31 -->
<g id="edge57" class="edge">
<title>Node30&#45;&gt;Node31</title>
<path fill="none" stroke="#191970" d="M1620.3644,-584.5681C1502.7057,-580.2143 1235.439,-567.3664 1013,-535 1005.7798,-533.9494 998.2011,-532.5971 990.7824,-531.1297"/>
<polygon fill="#191970" stroke="#191970" points="991.3147,-527.6659 980.8139,-529.0749 989.9014,-534.5218 991.3147,-527.6659"/>
</g>
<!-- Node31&#45;&gt;Node4 -->
<g id="edge58" class="edge">
<title>Node31&#45;&gt;Node4</title>
<path fill="none" stroke="#191970" d="M920.049,-509.8476C857.1062,-479.2491 674,-377.8712 674,-234 674,-234 674,-234 674,-122 674,-67.5971 1049.5828,-29.9498 1215.1575,-15.9964"/>
<polygon fill="#191970" stroke="#191970" points="1215.6021,-19.4715 1225.276,-15.1512 1215.0193,-12.4958 1215.6021,-19.4715"/>
</g>
<!-- Node31&#45;&gt;Node13 -->
<g id="edge61" class="edge">
<title>Node31&#45;&gt;Node13</title>
<path fill="none" stroke="#191970" d="M963.8462,-509.9365C1034.5447,-480.3436 1245.0739,-392.2333 1246,-392 1325.6797,-371.9313 1549.0762,-406.3638 1614,-356 1638.662,-336.8687 1638,-321.2125 1638,-290 1638,-290 1638,-290 1638,-234 1638,-188.5175 1684.7218,-154.4132 1716.7047,-136.3957"/>
<polygon fill="#191970" stroke="#191970" points="1718.5574,-139.3728 1725.686,-131.5348 1715.2255,-133.2165 1718.5574,-139.3728"/>
</g>
<!-- Node31&#45;&gt;Node19 -->
<g id="edge62" class="edge">
<title>Node31&#45;&gt;Node19</title>
<path fill="none" stroke="#191970" d="M930.6458,-509.9523C905.8152,-486.4193 842.672,-422.6821 812,-356 796.433,-322.1567 790.9476,-278.5025 789.0255,-253.6435"/>
<polygon fill="#191970" stroke="#191970" points="792.517,-253.3965 788.3698,-243.6471 785.532,-253.8548 792.517,-253.3965"/>
</g>
<!-- Node31&#45;&gt;Node25 -->
<g id="edge59" class="edge">
<title>Node31&#45;&gt;Node25</title>
<path fill="none" stroke="#191970" d="M905.375,-509.8906C865.6369,-499.1718 801.2732,-481.8105 758.0651,-470.1557"/>
<polygon fill="#191970" stroke="#191970" points="758.9413,-466.767 748.3748,-467.5419 757.1182,-473.5255 758.9413,-466.767"/>
</g>
<!-- Node32 -->
<g id="node32" class="node">
<title>Node32</title>
<g id="a_node32"><a xlink:title=" ">
<polygon fill="#ffffff" stroke="#bfbfbf" points="932.5,-448.5 932.5,-467.5 1017.5,-467.5 1017.5,-448.5 932.5,-448.5"/>
<text text-anchor="middle" x="975" y="-455.5" font-family="Helvetica,sans-Serif" font-size="10.00" fill="#000000">AH/STL/iterator</text>
</a>
</g>
</g>
<!-- Node31&#45;&gt;Node32 -->
<g id="edge60" class="edge">
<title>Node31&#45;&gt;Node32</title>
<path fill="none" stroke="#191970" d="M946.3125,-509.8906C951.2239,-501.0068 958.6579,-487.5601 964.7275,-476.5811"/>
<polygon fill="#191970" stroke="#191970" points="967.8373,-478.1899 969.6126,-467.7449 961.7112,-474.8031 967.8373,-478.1899"/>
</g>
<!-- Node33&#45;&gt;Node4 -->
<g id="edge67" class="edge">
<title>Node33&#45;&gt;Node4</title>
<path fill="none" stroke="#191970" d="M1857.9757,-281.2511C1981.113,-263.954 2201.6261,-217.5157 2130,-112 2092.1295,-56.2112 2054.7738,-70.8451 1989,-56 1872.8565,-29.7865 1524.8032,-16.7224 1368.9437,-12.0583"/>
<polygon fill="#191970" stroke="#191970" points="1368.6087,-8.5469 1358.5097,-11.75 1368.4019,-15.5439 1368.6087,-8.5469"/>
</g>
<!-- Node33&#45;&gt;Node13 -->
<g id="edge68" class="edge">
<title>Node33&#45;&gt;Node13</title>
<path fill="none" stroke="#191970" d="M1779.0305,-280.1872C1774.8604,-259.4548 1764.7993,-209.6739 1756,-168 1754.166,-159.314 1752.0879,-149.7172 1750.3031,-141.5463"/>
<polygon fill="#191970" stroke="#191970" points="1753.6626,-140.5257 1748.1016,-131.5077 1746.8251,-142.0253 1753.6626,-140.5257"/>
</g>
<!-- Node33&#45;&gt;Node18 -->
<g id="edge69" class="edge">
<title>Node33&#45;&gt;Node18</title>
<path fill="none" stroke="#191970" d="M1765.149,-280.2455C1751.1868,-271.6534 1730.6272,-259.0014 1714.5404,-249.1018"/>
<polygon fill="#191970" stroke="#191970" points="1716.0203,-245.9029 1705.6693,-243.6427 1712.3516,-251.8645 1716.0203,-245.9029"/>
</g>
<!-- Node33&#45;&gt;Node19 -->
<g id="edge70" class="edge">
<title>Node33&#45;&gt;Node19</title>
<path fill="none" stroke="#191970" d="M1704.319,-285.6756C1503.7168,-274.3627 968.9597,-244.2052 824.4361,-236.0548"/>
<polygon fill="#191970" stroke="#191970" points="824.5117,-232.5536 814.3305,-235.4849 824.1175,-239.5425 824.5117,-232.5536"/>
</g>
<!-- Node34&#45;&gt;Node4 -->
<g id="edge74" class="edge">
<title>Node34&#45;&gt;Node4</title>
<path fill="none" stroke="#191970" d="M2257.5971,-224.3484C2252.5332,-210.8395 2242.0784,-185.9384 2228,-168 2180.499,-107.4751 2167.4396,-84.5656 2096,-56 2029.6743,-29.4792 1556.8682,-15.9865 1368.837,-11.6225"/>
<polygon fill="#191970" stroke="#191970" points="1368.8296,-8.1215 1358.7518,-11.3908 1368.6688,-15.1196 1368.8296,-8.1215"/>
</g>
<!-- Node34&#45;&gt;Node8 -->
<g id="edge75" class="edge">
<title>Node34&#45;&gt;Node8</title>
<path fill="none" stroke="#191970" d="M2221.2106,-224.4369C2181.502,-214.8932 2120.3896,-200.2052 2077.5545,-189.9101"/>
<polygon fill="#191970" stroke="#191970" points="2078.1663,-186.4575 2067.6253,-187.5237 2076.5305,-193.2637 2078.1663,-186.4575"/>
</g>
<!-- Node34&#45;&gt;Node12 -->
<g id="edge76" class="edge">
<title>Node34&#45;&gt;Node12</title>
<path fill="none" stroke="#191970" d="M2254.0487,-224.3539C2236.3837,-200.6632 2187.1013,-139.5496 2130,-112 2094.4603,-94.8532 1998.944,-82.2379 1923.9887,-74.5997"/>
<polygon fill="#191970" stroke="#191970" points="1924.3236,-71.1159 1914.0243,-73.6011 1923.6254,-78.081 1924.3236,-71.1159"/>
</g>
<!-- Node35&#45;&gt;Node5 -->
<g id="edge90" class="edge">
<title>Node35&#45;&gt;Node5</title>
<path fill="none" stroke="#191970" d="M1394.5637,-766.8449C1404.5459,-757.17 1419.2574,-741.3952 1428,-725 1443.5262,-695.8834 1448,-686.4976 1448,-653.5 1448,-653.5 1448,-653.5 1448,-586.5 1448,-542.5811 1416.8472,-498.8092 1397.0269,-475.4047"/>
<polygon fill="#191970" stroke="#191970" points="1399.5371,-472.9585 1390.3161,-467.7409 1394.2708,-477.57 1399.5371,-472.9585"/>
</g>
<!-- Node35&#45;&gt;Node36 -->
<g id="edge78" class="edge">
<title>Node35&#45;&gt;Node36</title>
<path fill="none" stroke="#191970" d="M1378.375,-766.8906C1373.1747,-758.0068 1365.3034,-744.5601 1358.8767,-733.5811"/>
<polygon fill="#191970" stroke="#191970" points="1361.7767,-731.6069 1353.7043,-724.7449 1355.7356,-735.1432 1361.7767,-731.6069"/>
</g>
<!-- Node36&#45;&gt;Node5 -->
<g id="edge79" class="edge">
<title>Node36&#45;&gt;Node5</title>
<path fill="none" stroke="#191970" d="M1357.0413,-705.3142C1364.5424,-696.5747 1374.6568,-682.9789 1379,-669 1399.9813,-601.47 1390.4587,-515.8132 1384.5047,-477.7606"/>
<polygon fill="#191970" stroke="#191970" points="1387.9005,-476.8436 1382.8093,-467.5522 1380.9951,-477.9906 1387.9005,-476.8436"/>
</g>
<!-- Node36&#45;&gt;Node37 -->
<g id="edge80" class="edge">
<title>Node36&#45;&gt;Node37</title>
<path fill="none" stroke="#191970" d="M1276.4529,-708.272C1141.1166,-695.5454 851.1876,-668.2814 739.3243,-657.7621"/>
<polygon fill="#191970" stroke="#191970" points="739.3496,-654.2492 729.0658,-656.7975 738.6942,-661.2184 739.3496,-654.2492"/>
</g>
<!-- Node40 -->
<g id="node40" class="node">
<title>Node40</title>
<g id="a_node40"><a xlink:title=" ">
<polygon fill="#ffffff" stroke="#bfbfbf" points="1325.5,-644 1325.5,-663 1370.5,-663 1370.5,-644 1325.5,-644"/>
<text text-anchor="middle" x="1348" y="-651" font-family="Helvetica,sans-Serif" font-size="10.00" fill="#000000">Print.h</text>
</a>
</g>
</g>
<!-- Node36&#45;&gt;Node40 -->
<g id="edge89" class="edge">
<title>Node36&#45;&gt;Node40</title>
<path fill="none" stroke="#191970" d="M1348,-705.3906C1348,-696.8657 1348,-684.1392 1348,-673.4235"/>
<polygon fill="#191970" stroke="#191970" points="1351.5001,-673.2448 1348,-663.2449 1344.5001,-673.2449 1351.5001,-673.2448"/>
</g>
<!-- Node37&#45;&gt;Node19 -->
<g id="edge87" class="edge">
<title>Node37&#45;&gt;Node19</title>
<path fill="none" stroke="#191970" d="M699.3782,-643.984C712.65,-619.1178 743.9902,-550.8819 717,-504 701.1021,-476.3854 670.8979,-495.6146 655,-468 650.5651,-460.2965 653.02,-456.6656 655,-448 673.4639,-367.1904 685.9733,-346.0942 736,-280 744.5245,-268.7376 756.1411,-258.147 766.2326,-249.9732"/>
<polygon fill="#191970" stroke="#191970" points="768.5212,-252.6268 774.2493,-243.714 764.2133,-247.1094 768.5212,-252.6268"/>
</g>
<!-- Node37&#45;&gt;Node20 -->
<g id="edge88" class="edge">
<title>Node37&#45;&gt;Node20</title>
<path fill="none" stroke="#191970" d="M658.7026,-651.7401C541.3216,-645.6942 168.7366,-624.8823 120,-602 73.2036,-580.0286 38,-571.1976 38,-519.5 38,-519.5 38,-519.5 38,-458 38,-370.898 50.3401,-332.2901 120,-280 162.4318,-248.1486 321.1946,-238.0813 392.2455,-235.1304"/>
<polygon fill="#191970" stroke="#191970" points="392.6112,-238.6188 402.4666,-234.7302 392.3373,-231.6242 392.6112,-238.6188"/>
</g>
<!-- Node37&#45;&gt;Node30 -->
<g id="edge85" class="edge">
<title>Node37&#45;&gt;Node30</title>
<path fill="none" stroke="#191970" d="M729.1279,-651.1154C872.4253,-641.3881 1414.4143,-604.5965 1610.0384,-591.317"/>
<polygon fill="#191970" stroke="#191970" points="1610.4623,-594.7964 1620.2022,-590.6271 1609.9881,-587.8125 1610.4623,-594.7964"/>
</g>
<!-- Node37&#45;&gt;Node31 -->
<g id="edge84" class="edge">
<title>Node37&#45;&gt;Node31</title>
<path fill="none" stroke="#191970" d="M711.7636,-643.8631C754.5777,-620.636 863.6649,-561.4551 914.3572,-533.954"/>
<polygon fill="#191970" stroke="#191970" points="916.2765,-536.8947 923.3973,-529.0496 912.9385,-530.7418 916.2765,-536.8947"/>
</g>
<!-- Node38 -->
<g id="node38" class="node">
<title>Node38</title>
<g id="a_node38"><a xlink:href="../../d7/d42/Channel_8hpp.html" target="_top" xlink:title=" ">
<polygon fill="#ffffff" stroke="#000000" points="66.5,-510 66.5,-529 137.5,-529 137.5,-510 66.5,-510"/>
<text text-anchor="middle" x="102" y="-517" font-family="Helvetica,sans-Serif" font-size="10.00" fill="#000000">Channel.hpp</text>
</a>
</g>
</g>
<!-- Node37&#45;&gt;Node38 -->
<g id="edge81" class="edge">
<title>Node37&#45;&gt;Node38</title>
<path fill="none" stroke="#191970" d="M658.8771,-651.9845C545.6185,-646.8482 194.8857,-628.9071 152,-602 129.0172,-587.5803 115.0994,-558.3732 107.9772,-538.8685"/>
<polygon fill="#191970" stroke="#191970" points="111.2226,-537.5393 104.7052,-529.1862 104.591,-539.7805 111.2226,-537.5393"/>
</g>
<!-- Node39 -->
<g id="node39" class="node">
<title>Node39</title>
<g id="a_node39"><a xlink:title=" ">
<polygon fill="#ffffff" stroke="#bfbfbf" points="178.5,-448.5 178.5,-467.5 341.5,-467.5 341.5,-448.5 178.5,-448.5"/>
<text text-anchor="middle" x="260" y="-455.5" font-family="Helvetica,sans-Serif" font-size="10.00" fill="#000000">Settings/NamespaceSettings.hpp</text>
</a>
</g>
</g>
<!-- Node37&#45;&gt;Node39 -->
<g id="edge86" class="edge">
<title>Node37&#45;&gt;Node39</title>
<path fill="none" stroke="#191970" d="M658.8149,-649.626C562.4508,-638.221 298.0397,-601.3334 247,-535 234.1455,-518.2937 241.7011,-493.4766 249.6162,-476.5638"/>
<polygon fill="#191970" stroke="#191970" points="252.7417,-478.1389 254.1664,-467.6402 246.5057,-474.959 252.7417,-478.1389"/>
</g>
<!-- Node38&#45;&gt;Node20 -->
<g id="edge82" class="edge">
<title>Node38&#45;&gt;Node20</title>
<path fill="none" stroke="#191970" d="M99.8784,-509.5383C92.7357,-473.0005 73.4658,-345.0948 138,-280 155.728,-262.118 319.3166,-244.3451 392.2211,-237.2365"/>
<polygon fill="#191970" stroke="#191970" points="392.6731,-240.7093 402.2913,-236.2664 392.0017,-233.7416 392.6731,-240.7093"/>
</g>
<!-- Node38&#45;&gt;Node39 -->
<g id="edge83" class="edge">
<title>Node38&#45;&gt;Node39</title>
<path fill="none" stroke="#191970" d="M126.6875,-509.8906C153.3557,-499.5103 196.0282,-482.9004 225.8911,-471.2766"/>
<polygon fill="#191970" stroke="#191970" points="227.4365,-474.4309 235.4859,-467.5419 224.8973,-467.9076 227.4365,-474.4309"/>
</g>
<!-- Node41&#45;&gt;Node3 -->
<g id="edge107" class="edge">
<title>Node41&#45;&gt;Node3</title>
<path fill="none" stroke="#191970" d="M929.7905,-761.4388C946.444,-735.8933 981.4539,-682.5066 1012,-638 1036.6913,-602.0241 1066.3797,-560.5445 1083.0301,-537.4365"/>
<polygon fill="#191970" stroke="#191970" points="1085.9159,-539.4186 1088.9293,-529.2613 1080.2395,-535.3224 1085.9159,-539.4186"/>
</g>
<!-- Node41&#45;&gt;Node37 -->
<g id="edge108" class="edge">
<title>Node41&#45;&gt;Node37</title>
<path fill="none" stroke="#191970" d="M863.7502,-771.0151C779.3524,-762.2117 628.071,-743.9813 612,-725 592.8374,-702.3672 628.0245,-680.6015 658.1027,-667.1527"/>
<polygon fill="#191970" stroke="#191970" points="659.7936,-670.2363 667.6135,-663.0878 657.0426,-663.7995 659.7936,-670.2363"/>
</g>
<!-- Node42 -->
<g id="node42" class="node">
<title>Node42</title>
<g id="a_node42"><a xlink:href="../../dd/ddf/MIDI__Pipes_8hpp.html" target="_top" xlink:title=" ">
<polygon fill="#ffffff" stroke="#000000" points="603.5,-577 603.5,-596 690.5,-596 690.5,-577 603.5,-577"/>
<text text-anchor="middle" x="647" y="-584" font-family="Helvetica,sans-Serif" font-size="10.00" fill="#000000">MIDI_Pipes.hpp</text>
</a>
</g>
</g>
<!-- Node41&#45;&gt;Node42 -->
<g id="edge93" class="edge">
<title>Node41&#45;&gt;Node42</title>
<path fill="none" stroke="#191970" d="M863.9717,-766.2979C836.0242,-758.816 803.3051,-746.1418 780,-725 748.1992,-696.1511 767.3545,-669.3348 738,-638 722.5699,-621.529 700.6638,-608.9096 682.2113,-600.2856"/>
<polygon fill="#191970" stroke="#191970" points="683.4873,-597.0223 672.9292,-596.1407 680.6331,-603.414 683.4873,-597.0223"/>
</g>
<!-- Node46 -->
<g id="node46" class="node">
<title>Node46</title>
<g id="a_node46"><a xlink:href="../../db/dd6/MIDIAddress_8hpp.html" target="_top" xlink:title=" ">
<polygon fill="#ffffff" stroke="#000000" points="621,-705.5 621,-724.5 733,-724.5 733,-705.5 621,-705.5"/>
<text text-anchor="middle" x="677" y="-712.5" font-family="Helvetica,sans-Serif" font-size="10.00" fill="#000000">Def/MIDIAddress.hpp</text>
</a>
</g>
</g>
<!-- Node41&#45;&gt;Node46 -->
<g id="edge109" class="edge">
<title>Node41&#45;&gt;Node46</title>
<path fill="none" stroke="#191970" d="M863.9458,-762.3134C821.693,-751.6198 764.389,-737.117 724.4046,-726.9975"/>
<polygon fill="#191970" stroke="#191970" points="725.185,-723.5847 714.6319,-724.5241 723.4675,-730.3707 725.185,-723.5847"/>
</g>
<!-- Node47 -->
<g id="node47" class="node">
<title>Node47</title>
<g id="a_node47"><a xlink:href="../../d7/d2d/MIDI__Parser_8hpp.html" target="_top" xlink:title=" ">
<polygon fill="#ffffff" stroke="#000000" points="789.5,-705.5 789.5,-724.5 944.5,-724.5 944.5,-705.5 789.5,-705.5"/>
<text text-anchor="middle" x="867" y="-712.5" font-family="Helvetica,sans-Serif" font-size="10.00" fill="#000000">MIDI_Parsers/MIDI_Parser.hpp</text>
</a>
</g>
</g>
<!-- Node41&#45;&gt;Node47 -->
<g id="edge111" class="edge">
<title>Node41&#45;&gt;Node47</title>
<path fill="none" stroke="#191970" d="M906.8989,-761.2977C899.3887,-752.5831 889.93,-741.6075 882.1073,-732.5302"/>
<polygon fill="#191970" stroke="#191970" points="884.6655,-730.1372 875.486,-724.8469 879.3629,-734.707 884.6655,-730.1372"/>
</g>
<!-- Node49 -->
<g id="node49" class="node">
<title>Node49</title>
<g id="a_node49"><a xlink:href="../../d6/d38/MIDI__Interface_8ipp.html" target="_top" xlink:title=" ">
<polygon fill="#ffffff" stroke="#000000" points="1001,-705.5 1001,-724.5 1099,-724.5 1099,-705.5 1001,-705.5"/>
<text text-anchor="middle" x="1050" y="-712.5" font-family="Helvetica,sans-Serif" font-size="10.00" fill="#000000">MIDI_Interface.ipp</text>
</a>
</g>
</g>
<!-- Node41&#45;&gt;Node49 -->
<g id="edge118" class="edge">
<title>Node41&#45;&gt;Node49</title>
<path fill="none" stroke="#191970" d="M945.9045,-761.4554C965.9244,-751.419 993.6503,-738.3314 1015.5248,-728.6061"/>
<polygon fill="#191970" stroke="#191970" points="1017.0584,-731.7553 1024.8076,-724.5303 1014.2442,-725.3459 1017.0584,-731.7553"/>
</g>
<!-- Node42&#45;&gt;Node4 -->
<g id="edge100" class="edge">
<title>Node42&#45;&gt;Node4</title>
<path fill="none" stroke="#191970" d="M603.3787,-577.0415C552.2873,-565.5261 473.4927,-546.2294 465,-535 456.6891,-524.0111 463.2118,-517.6612 465,-504 477.7747,-406.4054 522,-388.4271 522,-290 522,-290 522,-290 522,-122 522,-83.2415 544.295,-73.2565 579,-56 634.8452,-28.2318 1043.0067,-15.703 1215.4436,-11.6073"/>
<polygon fill="#191970" stroke="#191970" points="1215.5481,-15.1059 1225.4633,-11.3725 1215.384,-8.1078 1215.5481,-15.1059"/>
</g>
<!-- Node42&#45;&gt;Node39 -->
<g id="edge106" class="edge">
<title>Node42&#45;&gt;Node39</title>
<path fill="none" stroke="#191970" d="M603.2501,-583.8391C506.967,-577.5402 283.4591,-560.3209 261,-535 247.3915,-519.6575 249.7328,-495.0545 253.7953,-477.7979"/>
<polygon fill="#191970" stroke="#191970" points="257.2978,-478.2592 256.5633,-467.6898 250.5464,-476.4104 257.2978,-478.2592"/>
</g>
<!-- Node43 -->
<g id="node43" class="node">
<title>Node43</title>
<g id="a_node43"><a xlink:href="../../d1/d40/BitArray_8hpp.html" target="_top" xlink:title=" ">
<polygon fill="#ffffff" stroke="#000000" points="474,-510 474,-529 612,-529 612,-510 474,-510"/>
<text text-anchor="middle" x="543" y="-517" font-family="Helvetica,sans-Serif" font-size="10.00" fill="#000000">AH/Containers/BitArray.hpp</text>
</a>
</g>
</g>
<!-- Node42&#45;&gt;Node43 -->
<g id="edge94" class="edge">
<title>Node42&#45;&gt;Node43</title>
<path fill="none" stroke="#191970" d="M632.0993,-576.9005C614.9547,-565.8554 586.5832,-547.5776 566.4655,-534.6172"/>
<polygon fill="#191970" stroke="#191970" points="568.1751,-531.5552 557.873,-529.0817 564.384,-537.4397 568.1751,-531.5552"/>
</g>
<!-- Node44 -->
<g id="node44" class="node">
<title>Node44</title>
<g id="a_node44"><a xlink:title=" ">
<polygon fill="#ffffff" stroke="#bfbfbf" points="630,-510 630,-529 708,-529 708,-510 630,-510"/>
<text text-anchor="middle" x="669" y="-517" font-family="Helvetica,sans-Serif" font-size="10.00" fill="#000000">AH/STL/utility</text>
</a>
</g>
</g>
<!-- Node42&#45;&gt;Node44 -->
<g id="edge99" class="edge">
<title>Node42&#45;&gt;Node44</title>
<path fill="none" stroke="#191970" d="M650.1521,-576.9005C653.4194,-566.95 658.6143,-551.1292 662.7235,-538.6147"/>
<polygon fill="#191970" stroke="#191970" points="666.0593,-539.6745 665.8538,-529.0817 659.4087,-537.4907 666.0593,-539.6745"/>
</g>
<!-- Node45 -->
<g id="node45" class="node">
<title>Node45</title>
<g id="a_node45"><a xlink:href="../../dc/d40/MIDI__MessageTypes_8hpp.html" target="_top" xlink:title=" ">
<polygon fill="#ffffff" stroke="#000000" points="270.5,-504.5 270.5,-534.5 417.5,-534.5 417.5,-504.5 270.5,-504.5"/>
<text text-anchor="start" x="278.5" y="-522.5" font-family="Helvetica,sans-Serif" font-size="10.00" fill="#000000">MIDI_Parsers/MIDI_Message</text>
<text text-anchor="middle" x="344" y="-511.5" font-family="Helvetica,sans-Serif" font-size="10.00" fill="#000000">Types.hpp</text>
</a>
</g>
</g>
<!-- Node42&#45;&gt;Node45 -->
<g id="edge101" class="edge">
<title>Node42&#45;&gt;Node45</title>
<path fill="none" stroke="#191970" d="M612.4209,-576.9317C604.7304,-574.8952 596.6038,-572.8138 589,-571 535.5174,-558.2423 475.0667,-545.5176 427.5941,-535.9085"/>
<polygon fill="#191970" stroke="#191970" points="428.1627,-532.4528 417.6681,-533.9064 426.7786,-539.3146 428.1627,-532.4528"/>
</g>
<!-- Node43&#45;&gt;Node4 -->
<g id="edge95" class="edge">
<title>Node43&#45;&gt;Node4</title>
<path fill="none" stroke="#191970" d="M544.2226,-509.8989C548.1205,-478.4271 560,-375.4992 560,-290 560,-290 560,-290 560,-122 560,-82.6547 583.6541,-73.2834 619,-56 671.4272,-30.3642 1050.2181,-16.762 1215.3623,-11.9959"/>
<polygon fill="#191970" stroke="#191970" points="1215.5533,-15.492 1225.4494,-11.7082 1215.3536,-8.4948 1215.5533,-15.492"/>
</g>
<!-- Node43&#45;&gt;Node12 -->
<g id="edge97" class="edge">
<title>Node43&#45;&gt;Node12</title>
<path fill="none" stroke="#191970" d="M590.8401,-509.94C600.8051,-507.9636 611.2435,-505.9044 621,-504 834.1932,-462.3868 888.5239,-457.1324 1101,-412 1154.5708,-400.6209 1529.6843,-319.1313 1581,-300 1589.9414,-296.6665 1600,-299.5426 1600,-290 1600,-290 1600,-290 1600,-178 1600,-118.3829 1664.2612,-90.4985 1723.9454,-77.4569"/>
<polygon fill="#191970" stroke="#191970" points="1724.7712,-80.8604 1733.8589,-75.4139 1723.3582,-74.0044 1724.7712,-80.8604"/>
</g>
<!-- Node43&#45;&gt;Node20 -->
<g id="edge98" class="edge">
<title>Node43&#45;&gt;Node20</title>
<path fill="none" stroke="#191970" d="M538.2728,-509.6665C526.2151,-484.43 493.6017,-415.1951 470,-356 455.7188,-320.1816 441.2509,-277.5283 433.2713,-253.3219"/>
<polygon fill="#191970" stroke="#191970" points="436.5227,-252.0039 430.0855,-243.5889 429.87,-254.1815 436.5227,-252.0039"/>
</g>
<!-- Node43&#45;&gt;Node25 -->
<g id="edge96" class="edge">
<title>Node43&#45;&gt;Node25</title>
<path fill="none" stroke="#191970" d="M569.5625,-509.8906C598.5056,-499.42 644.9694,-482.6111 677.1356,-470.9745"/>
<polygon fill="#191970" stroke="#191970" points="678.4111,-474.2351 686.624,-467.5419 676.0298,-467.6526 678.4111,-474.2351"/>
</g>
<!-- Node45&#45;&gt;Node4 -->
<g id="edge102" class="edge">
<title>Node45&#45;&gt;Node4</title>
<path fill="none" stroke="#191970" d="M350.2035,-504.3281C355.4199,-488.9618 360.5001,-465.0871 350,-448 268.6221,-315.5717 38,-445.4336 38,-290 38,-290 38,-290 38,-122 38,-62.5875 942.7984,-23.2971 1215.271,-12.8121"/>
<polygon fill="#191970" stroke="#191970" points="1215.6061,-16.3019 1225.4649,-12.4219 1215.3383,-9.307 1215.6061,-16.3019"/>
</g>
<!-- Node45&#45;&gt;Node19 -->
<g id="edge104" class="edge">
<title>Node45&#45;&gt;Node19</title>
<path fill="none" stroke="#191970" d="M364.5654,-504.2728C418.0932,-464.9324 566.7166,-357.5674 698,-280 717.6305,-268.4015 740.5197,-256.7263 758.3022,-248.0403"/>
<polygon fill="#191970" stroke="#191970" points="760.1246,-251.0468 767.6029,-243.5418 757.0766,-244.7452 760.1246,-251.0468"/>
</g>
<!-- Node45&#45;&gt;Node20 -->
<g id="edge105" class="edge">
<title>Node45&#45;&gt;Node20</title>
<path fill="none" stroke="#191970" d="M358.8438,-504.2253C377.75,-483.0891 408,-442.8831 408,-402 408,-402 408,-402 408,-346 408,-313.2688 415.9852,-275.9052 421.6022,-253.6716"/>
<polygon fill="#191970" stroke="#191970" points="425.0415,-254.3545 424.1965,-243.7934 418.2711,-252.5763 425.0415,-254.3545"/>
</g>
<!-- Node45&#45;&gt;Node39 -->
<g id="edge103" class="edge">
<title>Node45&#45;&gt;Node39</title>
<path fill="none" stroke="#191970" d="M323.2359,-504.2977C310.6042,-495.0495 294.4947,-483.2551 281.6969,-473.8853"/>
<polygon fill="#191970" stroke="#191970" points="283.5857,-470.9303 273.4495,-467.8469 279.4505,-476.5784 283.5857,-470.9303"/>
</g>
<!-- Node46&#45;&gt;Node37 -->
<g id="edge110" class="edge">
<title>Node46&#45;&gt;Node37</title>
<path fill="none" stroke="#191970" d="M679.6563,-705.3906C682.0375,-696.776 685.6048,-683.8708 688.586,-673.0858"/>
<polygon fill="#191970" stroke="#191970" points="692.0154,-673.8159 691.3063,-663.2449 685.2684,-671.9509 692.0154,-673.8159"/>
</g>
<!-- Node47&#45;&gt;Node19 -->
<g id="edge112" class="edge">
<title>Node47&#45;&gt;Node19</title>
<path fill="none" stroke="#191970" d="M864.487,-705.4449C852.7791,-660.3669 803.4982,-464.2911 788,-300 786.5518,-284.6477 786.6262,-267.1972 787.0226,-254.0972"/>
<polygon fill="#191970" stroke="#191970" points="790.5291,-253.9966 787.4237,-243.8671 783.5345,-253.7223 790.5291,-253.9966"/>
</g>
<!-- Node47&#45;&gt;Node20 -->
<g id="edge113" class="edge">
<title>Node47&#45;&gt;Node20</title>
<path fill="none" stroke="#191970" d="M854.6667,-705.3163C832.6384,-688.5749 784.4731,-654.4401 738,-638 489.176,-549.9771 279.1604,-707.8461 169,-468 117.6273,-356.1491 311.0486,-274.2331 392.4714,-245.3594"/>
<polygon fill="#191970" stroke="#191970" points="393.9819,-248.5396 402.2761,-241.9475 391.6813,-241.9285 393.9819,-248.5396"/>
</g>
<!-- Node47&#45;&gt;Node23 -->
<g id="edge114" class="edge">
<title>Node47&#45;&gt;Node23</title>
<path fill="none" stroke="#191970" d="M884.82,-705.4443C912.137,-690.817 966.0318,-662.041 1012,-638 1100.5989,-591.6636 1135.5816,-599.4754 1212,-535 1252.1165,-501.1531 1285.6601,-448.3578 1301.754,-420.5587"/>
<polygon fill="#191970" stroke="#191970" points="1304.9859,-421.9546 1306.8736,-411.5293 1298.8966,-418.5019 1304.9859,-421.9546"/>
</g>
<!-- Node47&#45;&gt;Node37 -->
<g id="edge115" class="edge">
<title>Node47&#45;&gt;Node37</title>
<path fill="none" stroke="#191970" d="M839.9688,-705.3906C810.5149,-694.92 763.2311,-678.1111 730.4973,-666.4745"/>
<polygon fill="#191970" stroke="#191970" points="731.4361,-663.0937 720.8414,-663.0419 729.0914,-669.6893 731.4361,-663.0937"/>
</g>
<!-- Node47&#45;&gt;Node45 -->
<g id="edge117" class="edge">
<title>Node47&#45;&gt;Node45</title>
<path fill="none" stroke="#191970" d="M862.7175,-705.3108C854.767,-688.561 836.0396,-654.4134 809,-638 726.1785,-587.7261 688.0551,-625.2488 594,-602 522.87,-584.4179 442.788,-556.5038 392.8597,-538.0927"/>
<polygon fill="#191970" stroke="#191970" points="393.8808,-534.7385 383.2877,-534.5431 391.4468,-541.3018 393.8808,-534.7385"/>
</g>
<!-- Node47&#45;&gt;Node48 -->
<g id="edge116" class="edge">
<title>Node47&#45;&gt;Node48</title>
<path fill="none" stroke="#191970" d="M902.625,-705.3906C942.3631,-694.6718 1006.7268,-677.3105 1049.9349,-665.6557"/>
<polygon fill="#191970" stroke="#191970" points="1050.8818,-669.0255 1059.6252,-663.0419 1049.0587,-662.267 1050.8818,-669.0255"/>
</g>
<!-- Node49&#45;&gt;Node41 -->
<g id="edge119" class="edge">
<title>Node49&#45;&gt;Node41</title>
<path fill="none" stroke="#191970" d="M1034.9016,-724.5303C1018.212,-733.2355 990.8716,-746.369 966.9922,-757.2548"/>
<polygon fill="#191970" stroke="#191970" points="965.3695,-754.1473 957.6987,-761.4554 968.2527,-760.5259 965.3695,-754.1473"/>
</g>
<!-- Node50 -->
<g id="node50" class="node">
<title>Node50</title>
<g id="a_node50"><a xlink:href="../../d4/dba/CRTP_8hpp.html" target="_top" xlink:title=" ">
<polygon fill="#ffffff" stroke="#000000" points="1187,-644 1187,-663 1269,-663 1269,-644 1187,-644"/>
<text text-anchor="middle" x="1228" y="-651" font-family="Helvetica,sans-Serif" font-size="10.00" fill="#000000">Def/CRTP.hpp</text>
</a>
</g>
</g>
<!-- Node49&#45;&gt;Node50 -->
<g id="edge120" class="edge">
<title>Node49&#45;&gt;Node50</title>
<path fill="none" stroke="#191970" d="M1077.8125,-705.3906C1108.2483,-694.8749 1157.1877,-677.966 1190.8826,-666.3243"/>
<polygon fill="#191970" stroke="#191970" points="1192.074,-669.6157 1200.3828,-663.0419 1189.788,-662.9995 1192.074,-669.6157"/>
</g>
<!-- Node51&#45;&gt;Node13 -->
<g id="edge125" class="edge">
<title>Node51&#45;&gt;Node13</title>
<path fill="none" stroke="#191970" d="M499.2322,-705.4988C527.2069,-697.3861 566.9717,-684.5723 600,-669 623.6499,-657.8494 625.659,-647.5483 650,-638 761.2889,-594.3446 1077.6305,-599.9382 1178,-535 1243.3285,-492.733 1211.7884,-431.2037 1279,-392 1417.1327,-311.4289 1497.4031,-434.0068 1637,-356 1674.0921,-335.2729 1669.0676,-313.6592 1695,-280 1707.3709,-263.9431 1714.6665,-262.4775 1723,-244 1738.292,-210.0937 1743.4188,-166.4615 1745.1362,-141.6234"/>
<polygon fill="#191970" stroke="#191970" points="1748.6306,-141.8205 1745.7097,-131.6363 1741.6421,-141.4191 1748.6306,-141.8205"/>
</g>
<!-- Node51&#45;&gt;Node20 -->
<g id="edge127" class="edge">
<title>Node51&#45;&gt;Node20</title>
<path fill="none" stroke="#191970" d="M401.4229,-710.7896C274.7708,-700.5457 0,-668.8338 0,-586.5 0,-586.5 0,-586.5 0,-346 0,-265.133 290.164,-241.4817 392.1028,-235.6678"/>
<polygon fill="#191970" stroke="#191970" points="392.4031,-239.1567 402.197,-235.1158 392.0208,-232.1671 392.4031,-239.1567"/>
</g>
<!-- Node51&#45;&gt;Node25 -->
<g id="edge124" class="edge">
<title>Node51&#45;&gt;Node25</title>
<path fill="none" stroke="#191970" d="M482.2173,-705.4413C510.7371,-690.5656 567.7645,-661.1776 617,-638 653.0113,-621.0477 673.0623,-632.1899 699,-602 729.0312,-567.0456 723.2079,-508.2314 717.4974,-477.7102"/>
<polygon fill="#191970" stroke="#191970" points="720.9105,-476.9307 715.4653,-467.8423 714.0543,-478.3427 720.9105,-476.9307"/>
</g>
<!-- Node51&#45;&gt;Node37 -->
<g id="edge126" class="edge">
<title>Node51&#45;&gt;Node37</title>
<path fill="none" stroke="#191970" d="M504.4357,-705.4287C541.2351,-696.5511 596.9811,-682.6844 645,-669 648.3183,-668.0543 651.7523,-667.0407 655.1912,-666.0011"/>
<polygon fill="#191970" stroke="#191970" points="656.2789,-669.3285 664.8041,-663.038 654.2168,-662.6391 656.2789,-669.3285"/>
</g>
</g>
</svg>
