<?xml version="1.0" encoding="UTF-8" standalone="no"?>
<!DOCTYPE svg PUBLIC "-//W3C//DTD SVG 1.1//EN"
 "http://www.w3.org/Graphics/SVG/1.1/DTD/svg11.dtd">
<!-- Generated by graphviz version 2.40.1 (20161225.0304)
 -->
<!-- Title: SPIShiftRegisterOut.hpp Pages: 1 -->
<svg width="1570pt" height="879pt"
 viewBox="0.00 0.00 1570.00 879.00" xmlns="http://www.w3.org/2000/svg" xmlns:xlink="http://www.w3.org/1999/xlink">
<g id="graph0" class="graph" transform="scale(1 1) rotate(0) translate(4 875)">
<title>SPIShiftRegisterOut.hpp</title>
<polygon fill="#ffffff" stroke="transparent" points="-4,4 -4,-875 1566,-875 1566,4 -4,4"/>
<!-- Node1 -->
<g id="node1" class="node">
<title>Node1</title>
<g id="a_node1"><a xlink:title=" ">
<polygon fill="#bfbfbf" stroke="#000000" points="1328.5,-851.5 1328.5,-870.5 1453.5,-870.5 1453.5,-851.5 1328.5,-851.5"/>
<text text-anchor="middle" x="1391" y="-858.5" font-family="Helvetica,sans-Serif" font-size="10.00" fill="#000000">SPIShiftRegisterOut.hpp</text>
</a>
</g>
</g>
<!-- Node2 -->
<g id="node2" class="node">
<title>Node2</title>
<g id="a_node2"><a xlink:href="../../d1/d65/Warnings_8hpp.html" target="_top" xlink:title=" ">
<polygon fill="#ffffff" stroke="#000000" points="589.5,-.5 589.5,-19.5 722.5,-19.5 722.5,-.5 589.5,-.5"/>
<text text-anchor="middle" x="656" y="-7.5" font-family="Helvetica,sans-Serif" font-size="10.00" fill="#000000">AH/Settings/Warnings.hpp</text>
</a>
</g>
</g>
<!-- Node1&#45;&gt;Node2 -->
<g id="edge1" class="edge">
<title>Node1&#45;&gt;Node2</title>
<path fill="none" stroke="#191970" d="M1453.5659,-852.8372C1481.0252,-846.4701 1511.9568,-835.1435 1534,-815 1557.522,-793.5052 1562,-780.8639 1562,-749 1562,-749 1562,-749 1562,-122 1562,-52.8078 1488.0595,-73.0463 1421,-56 1292.4827,-23.3313 900.3173,-13.6481 732.9805,-10.9619"/>
<polygon fill="#191970" stroke="#191970" points="732.8236,-7.4591 722.77,-10.8022 732.714,-14.4583 732.8236,-7.4591"/>
</g>
<!-- Node3 -->
<g id="node3" class="node">
<title>Node3</title>
<g id="a_node3"><a xlink:href="../../d8/d93/ShiftRegisterOutBase_8hpp.html" target="_top" xlink:title=" ">
<polygon fill="#ffffff" stroke="#000000" points="1253.5,-795.5 1253.5,-814.5 1384.5,-814.5 1384.5,-795.5 1253.5,-795.5"/>
<text text-anchor="middle" x="1319" y="-802.5" font-family="Helvetica,sans-Serif" font-size="10.00" fill="#000000">ShiftRegisterOutBase.hpp</text>
</a>
</g>
</g>
<!-- Node1&#45;&gt;Node3 -->
<g id="edge2" class="edge">
<title>Node1&#45;&gt;Node3</title>
<path fill="none" stroke="#191970" d="M1378.4586,-851.2455C1367.7213,-842.8943 1352.0527,-830.7076 1339.4953,-820.9408"/>
<polygon fill="#191970" stroke="#191970" points="1341.4401,-818.0194 1331.3977,-814.6427 1337.1425,-823.5449 1341.4401,-818.0194"/>
</g>
<!-- Node6 -->
<g id="node6" class="node">
<title>Node6</title>
<g id="a_node6"><a xlink:href="../../d6/ddf/Arduino-Wrapper_8h.html" target="_top" xlink:title=" ">
<polygon fill="#ffffff" stroke="#000000" points="345.5,-168.5 345.5,-187.5 460.5,-187.5 460.5,-168.5 345.5,-168.5"/>
<text text-anchor="middle" x="403" y="-175.5" font-family="Helvetica,sans-Serif" font-size="10.00" fill="#000000">AH/Arduino&#45;Wrapper.h</text>
</a>
</g>
</g>
<!-- Node1&#45;&gt;Node6 -->
<g id="edge78" class="edge">
<title>Node1&#45;&gt;Node6</title>
<path fill="none" stroke="#191970" d="M1328.4555,-859.1439C1062.3616,-850.8434 38,-814.6275 38,-749 38,-749 38,-749 38,-458 38,-299.9043 256.2384,-218.8874 355.2101,-190.2747"/>
<polygon fill="#191970" stroke="#191970" points="356.3031,-193.6029 364.9715,-187.5111 354.3963,-186.8676 356.3031,-193.6029"/>
</g>
<!-- Node33 -->
<g id="node33" class="node">
<title>Node33</title>
<g id="a_node33"><a xlink:href="../../d1/d40/BitArray_8hpp.html" target="_top" xlink:title=" ">
<polygon fill="#ffffff" stroke="#000000" points="984,-504.5 984,-523.5 1122,-523.5 1122,-504.5 984,-504.5"/>
<text text-anchor="middle" x="1053" y="-511.5" font-family="Helvetica,sans-Serif" font-size="10.00" fill="#000000">AH/Containers/BitArray.hpp</text>
</a>
</g>
</g>
<!-- Node1&#45;&gt;Node33 -->
<g id="edge77" class="edge">
<title>Node1&#45;&gt;Node33</title>
<path fill="none" stroke="#191970" d="M1328.1306,-856.9204C1212.9972,-847.7131 980,-820.2752 980,-749 980,-749 980,-749 980,-637 980,-594.0952 1013.2534,-553.0759 1034.873,-530.9412"/>
<polygon fill="#191970" stroke="#191970" points="1037.5759,-533.1908 1042.2286,-523.6722 1032.6556,-528.2118 1037.5759,-533.1908"/>
</g>
<!-- Node36 -->
<g id="node36" class="node">
<title>Node36</title>
<g id="a_node36"><a xlink:href="../../da/d45/SPIShiftRegisterOut_8ipp.html" target="_top" xlink:title=" ">
<polygon fill="#ffffff" stroke="#000000" points="1403,-795.5 1403,-814.5 1525,-814.5 1525,-795.5 1403,-795.5"/>
<text text-anchor="middle" x="1464" y="-802.5" font-family="Helvetica,sans-Serif" font-size="10.00" fill="#000000">SPIShiftRegisterOut.ipp</text>
</a>
</g>
</g>
<!-- Node1&#45;&gt;Node36 -->
<g id="edge79" class="edge">
<title>Node1&#45;&gt;Node36</title>
<path fill="none" stroke="#191970" d="M1398.4488,-851.2455C1407.9009,-842.7337 1423.9131,-830.2375 1437.8515,-820.3801"/>
<polygon fill="#191970" stroke="#191970" points="1439.9331,-823.1963 1446.1849,-814.6427 1435.9635,-817.4307 1439.9331,-823.1963"/>
</g>
<!-- Node3&#45;&gt;Node2 -->
<g id="edge3" class="edge">
<title>Node3&#45;&gt;Node2</title>
<path fill="none" stroke="#191970" d="M1347.7853,-795.4861C1366.6215,-788.0423 1390.6762,-776.0683 1407,-759 1448.3653,-715.7479 1464,-696.8484 1464,-637 1464,-637 1464,-637 1464,-122 1464,-74.1711 1423.7311,-72.9332 1379,-56 1319.7847,-33.5838 906.4014,-17.9714 732.6478,-12.3283"/>
<polygon fill="#191970" stroke="#191970" points="732.6617,-8.827 722.5541,-12.003 732.4361,-15.8234 732.6617,-8.827"/>
</g>
<!-- Node4 -->
<g id="node4" class="node">
<title>Node4</title>
<g id="a_node4"><a xlink:href="../../dd/ddf/ExtendedInputOutput_8hpp.html" target="_top" xlink:title=" ">
<polygon fill="#ffffff" stroke="#000000" points="1232,-627.5 1232,-646.5 1360,-646.5 1360,-627.5 1232,-627.5"/>
<text text-anchor="middle" x="1296" y="-634.5" font-family="Helvetica,sans-Serif" font-size="10.00" fill="#000000">ExtendedInputOutput.hpp</text>
</a>
</g>
</g>
<!-- Node3&#45;&gt;Node4 -->
<g id="edge4" class="edge">
<title>Node3&#45;&gt;Node4</title>
<path fill="none" stroke="#191970" d="M1299.1759,-795.3695C1285.6785,-787.6136 1268.8843,-775.3161 1261,-759 1244.0828,-723.991 1267.1161,-679.2804 1283.063,-654.8759"/>
<polygon fill="#191970" stroke="#191970" points="1285.9797,-656.8111 1288.7297,-646.5794 1280.1993,-652.8629 1285.9797,-656.8111"/>
</g>
<!-- Node26 -->
<g id="node26" class="node">
<title>Node26</title>
<g id="a_node26"><a xlink:href="../../d2/d05/StaticSizeExtendedIOElement_8hpp.html" target="_top" xlink:title=" ">
<polygon fill="#ffffff" stroke="#000000" points="1008,-739.5 1008,-758.5 1176,-758.5 1176,-739.5 1008,-739.5"/>
<text text-anchor="middle" x="1092" y="-746.5" font-family="Helvetica,sans-Serif" font-size="10.00" fill="#000000">StaticSizeExtendedIOElement.hpp</text>
</a>
</g>
</g>
<!-- Node3&#45;&gt;Node26 -->
<g id="edge48" class="edge">
<title>Node3&#45;&gt;Node26</title>
<path fill="none" stroke="#191970" d="M1280.2352,-795.4369C1241.6308,-785.9133 1182.2616,-771.2672 1140.5428,-760.9753"/>
<polygon fill="#191970" stroke="#191970" points="1141.1521,-757.5208 1130.6049,-758.5237 1139.4755,-764.317 1141.1521,-757.5208"/>
</g>
<!-- Node3&#45;&gt;Node33 -->
<g id="edge65" class="edge">
<title>Node3&#45;&gt;Node33</title>
<path fill="none" stroke="#191970" d="M1296.5538,-795.4443C1263.0867,-779.5115 1204,-744.1402 1204,-693 1204,-693 1204,-693 1204,-637 1204,-579.8266 1138.121,-544.5184 1093.3916,-527.1345"/>
<polygon fill="#191970" stroke="#191970" points="1094.514,-523.8176 1083.9215,-523.5958 1092.0637,-530.3747 1094.514,-523.8176"/>
</g>
<!-- Node34 -->
<g id="node34" class="node">
<title>Node34</title>
<g id="a_node34"><a xlink:href="../../d5/d47/ShiftRegisterOutBase_8ipp.html" target="_top" xlink:title=" ">
<polygon fill="#ffffff" stroke="#000000" points="1270,-739.5 1270,-758.5 1398,-758.5 1398,-739.5 1270,-739.5"/>
<text text-anchor="middle" x="1334" y="-746.5" font-family="Helvetica,sans-Serif" font-size="10.00" fill="#000000">ShiftRegisterOutBase.ipp</text>
</a>
</g>
</g>
<!-- Node3&#45;&gt;Node34 -->
<g id="edge70" class="edge">
<title>Node3&#45;&gt;Node34</title>
<path fill="none" stroke="#191970" d="M1316.346,-795.2455C1316.9042,-787.7776 1319.3356,-777.2427 1322.4419,-768.1137"/>
<polygon fill="#191970" stroke="#191970" points="1325.7641,-769.2297 1326.172,-758.6427 1319.251,-766.6645 1325.7641,-769.2297"/>
</g>
<!-- Node4&#45;&gt;Node2 -->
<g id="edge5" class="edge">
<title>Node4&#45;&gt;Node2</title>
<path fill="none" stroke="#191970" d="M1302.915,-627.2357C1324.3106,-596.0356 1388,-495.3231 1388,-402 1388,-402 1388,-402 1388,-122 1388,-65.7466 1333.5537,-73.2177 1280,-56 1180.209,-23.9168 876.2382,-14.0639 732.6561,-11.1574"/>
<polygon fill="#191970" stroke="#191970" points="732.6672,-7.6571 722.6004,-10.9599 732.5297,-14.6557 732.6672,-7.6571"/>
</g>
<!-- Node5 -->
<g id="node5" class="node">
<title>Node5</title>
<g id="a_node5"><a xlink:href="../../d6/db0/AH_2Settings_2NamespaceSettings_8hpp.html" target="_top" xlink:title=" ">
<polygon fill="#ffffff" stroke="#000000" points="924,-56.5 924,-75.5 1104,-75.5 1104,-56.5 924,-56.5"/>
<text text-anchor="middle" x="1014" y="-63.5" font-family="Helvetica,sans-Serif" font-size="10.00" fill="#000000">AH/Settings/NamespaceSettings.hpp</text>
</a>
</g>
</g>
<!-- Node4&#45;&gt;Node5 -->
<g id="edge6" class="edge">
<title>Node4&#45;&gt;Node5</title>
<path fill="none" stroke="#191970" d="M1298.0917,-627.4857C1302.4287,-606.8994 1312,-556.6375 1312,-514 1312,-514 1312,-514 1312,-178 1312,-134.9164 1279.3252,-131.6818 1241,-112 1215.2396,-98.7708 1146.6074,-85.8663 1091.5007,-77.1089"/>
<polygon fill="#191970" stroke="#191970" points="1091.8033,-73.6137 1081.3819,-75.5229 1090.7192,-80.5293 1091.8033,-73.6137"/>
</g>
<!-- Node4&#45;&gt;Node6 -->
<g id="edge7" class="edge">
<title>Node4&#45;&gt;Node6</title>
<path fill="none" stroke="#191970" d="M1231.8994,-633.7205C1099.6776,-626.6823 800.6417,-609.2787 700,-591 594.8227,-571.8976 546.2623,-597.8762 469,-524 428.8559,-485.6153 453.9865,-371.734 436,-280 430.1754,-250.2934 418.4311,-217.161 410.6405,-196.9474"/>
<polygon fill="#191970" stroke="#191970" points="413.8973,-195.6655 406.9791,-187.6412 407.3833,-198.2283 413.8973,-195.6655"/>
</g>
<!-- Node11 -->
<g id="node11" class="node">
<title>Node11</title>
<g id="a_node11"><a xlink:href="../../d4/d35/Hardware-Types_8hpp.html" target="_top" xlink:title=" ">
<polygon fill="#ffffff" stroke="#000000" points="709.5,-560.5 709.5,-590.5 830.5,-590.5 830.5,-560.5 709.5,-560.5"/>
<text text-anchor="start" x="717.5" y="-578.5" font-family="Helvetica,sans-Serif" font-size="10.00" fill="#000000">AH/Hardware/Hardware</text>
<text text-anchor="middle" x="770" y="-567.5" font-family="Helvetica,sans-Serif" font-size="10.00" fill="#000000">&#45;Types.hpp</text>
</a>
</g>
</g>
<!-- Node4&#45;&gt;Node11 -->
<g id="edge16" class="edge">
<title>Node4&#45;&gt;Node11</title>
<path fill="none" stroke="#191970" d="M1231.7652,-629.4897C1132.7025,-617.9072 943.3636,-595.7697 840.5895,-583.7533"/>
<polygon fill="#191970" stroke="#191970" points="840.9557,-580.2724 830.6169,-582.5873 840.1428,-587.225 840.9557,-580.2724"/>
</g>
<!-- Node7 -->
<g id="node7" class="node">
<title>Node7</title>
<g id="a_node7"><a xlink:href="../../d7/d79/MinMaxFix_8hpp.html" target="_top" xlink:title=" ">
<polygon fill="#ffffff" stroke="#000000" points="307.5,-112.5 307.5,-131.5 432.5,-131.5 432.5,-112.5 307.5,-112.5"/>
<text text-anchor="middle" x="370" y="-119.5" font-family="Helvetica,sans-Serif" font-size="10.00" fill="#000000">AH/Math/MinMaxFix.hpp</text>
</a>
</g>
</g>
<!-- Node6&#45;&gt;Node7 -->
<g id="edge8" class="edge">
<title>Node6&#45;&gt;Node7</title>
<path fill="none" stroke="#191970" d="M397.2518,-168.2455C392.7565,-160.617 386.3752,-149.7881 380.9175,-140.5267"/>
<polygon fill="#191970" stroke="#191970" points="383.7747,-138.4811 375.6823,-131.6427 377.7439,-142.035 383.7747,-138.4811"/>
</g>
<!-- Node9 -->
<g id="node9" class="node">
<title>Node9</title>
<g id="a_node9"><a xlink:title=" ">
<polygon fill="#ffffff" stroke="#bfbfbf" points="145,-.5 145,-19.5 203,-19.5 203,-.5 145,-.5"/>
<text text-anchor="middle" x="174" y="-7.5" font-family="Helvetica,sans-Serif" font-size="10.00" fill="#000000">Arduino.h</text>
</a>
</g>
</g>
<!-- Node6&#45;&gt;Node9 -->
<g id="edge15" class="edge">
<title>Node6&#45;&gt;Node9</title>
<path fill="none" stroke="#191970" d="M373.4618,-168.3498C351.5683,-160.4376 321.5673,-147.9539 298,-132 252.8375,-101.4272 209.688,-53.2791 188.1848,-27.5647"/>
<polygon fill="#191970" stroke="#191970" points="190.813,-25.2505 181.7506,-19.762 185.4124,-29.7039 190.813,-25.2505"/>
</g>
<!-- Node10 -->
<g id="node10" class="node">
<title>Node10</title>
<g id="a_node10"><a xlink:title=" ">
<polygon fill="#ffffff" stroke="#bfbfbf" points="450.5,-112.5 450.5,-131.5 551.5,-131.5 551.5,-112.5 450.5,-112.5"/>
<text text-anchor="middle" x="501" y="-119.5" font-family="Helvetica,sans-Serif" font-size="10.00" fill="#000000">AH/STL/type_traits</text>
</a>
</g>
</g>
<!-- Node6&#45;&gt;Node10 -->
<g id="edge14" class="edge">
<title>Node6&#45;&gt;Node10</title>
<path fill="none" stroke="#191970" d="M420.0703,-168.2455C435.247,-159.5731 457.6621,-146.7645 475.0563,-136.825"/>
<polygon fill="#191970" stroke="#191970" points="477.1794,-139.643 484.1253,-131.6427 473.7064,-133.5653 477.1794,-139.643"/>
</g>
<!-- Node7&#45;&gt;Node2 -->
<g id="edge9" class="edge">
<title>Node7&#45;&gt;Node2</title>
<path fill="none" stroke="#191970" d="M394.3842,-112.4509C445.4627,-92.4482 563.7861,-46.1117 622.171,-23.2477"/>
<polygon fill="#191970" stroke="#191970" points="623.6423,-26.4304 631.6775,-19.5249 621.0898,-19.9124 623.6423,-26.4304"/>
</g>
<!-- Node7&#45;&gt;Node5 -->
<g id="edge13" class="edge">
<title>Node7&#45;&gt;Node5</title>
<path fill="none" stroke="#191970" d="M432.6943,-112.9625C435.4995,-112.6235 438.278,-112.3007 441,-112 606.1369,-93.7586 798.8108,-79.7892 913.3736,-72.2496"/>
<polygon fill="#191970" stroke="#191970" points="913.7802,-75.7305 923.5301,-71.5845 913.3228,-68.7455 913.7802,-75.7305"/>
</g>
<!-- Node8 -->
<g id="node8" class="node">
<title>Node8</title>
<g id="a_node8"><a xlink:href="../../d6/d3b/FixArduinoMacros_8hpp.html" target="_top" xlink:title=" ">
<polygon fill="#ffffff" stroke="#000000" points="307,-56.5 307,-75.5 463,-75.5 463,-56.5 307,-56.5"/>
<text text-anchor="middle" x="385" y="-63.5" font-family="Helvetica,sans-Serif" font-size="10.00" fill="#000000">AH/Math/FixArduinoMacros.hpp</text>
</a>
</g>
</g>
<!-- Node7&#45;&gt;Node8 -->
<g id="edge10" class="edge">
<title>Node7&#45;&gt;Node8</title>
<path fill="none" stroke="#191970" d="M372.6128,-112.2455C374.5916,-104.8579 377.3744,-94.4689 379.8012,-85.4087"/>
<polygon fill="#191970" stroke="#191970" points="383.2105,-86.2078 382.4171,-75.6427 376.4489,-84.3966 383.2105,-86.2078"/>
</g>
<!-- Node8&#45;&gt;Node2 -->
<g id="edge11" class="edge">
<title>Node8&#45;&gt;Node2</title>
<path fill="none" stroke="#191970" d="M431.2786,-56.4369C477.9505,-46.7925 550.0449,-31.8948 599.9331,-21.5858"/>
<polygon fill="#191970" stroke="#191970" points="600.8274,-24.975 609.9122,-19.5237 599.4108,-18.1198 600.8274,-24.975"/>
</g>
<!-- Node8&#45;&gt;Node9 -->
<g id="edge12" class="edge">
<title>Node8&#45;&gt;Node9</title>
<path fill="none" stroke="#191970" d="M348.7278,-56.3733C310.8709,-46.3259 251.7217,-30.6276 212.91,-20.3268"/>
<polygon fill="#191970" stroke="#191970" points="213.5854,-16.885 203.0221,-17.7026 211.7897,-23.6507 213.5854,-16.885"/>
</g>
<!-- Node11&#45;&gt;Node2 -->
<g id="edge17" class="edge">
<title>Node11&#45;&gt;Node2</title>
<path fill="none" stroke="#191970" d="M761.7546,-560.42C750.5785,-538.5326 732,-496.3768 732,-458 732,-458 732,-458 732,-402 732,-320.0485 656,-315.9515 656,-234 656,-234 656,-234 656,-122 656,-89.7116 656,-52.1872 656,-29.8048"/>
<polygon fill="#191970" stroke="#191970" points="659.5001,-29.5883 656,-19.5884 652.5001,-29.5884 659.5001,-29.5883"/>
</g>
<!-- Node11&#45;&gt;Node5 -->
<g id="edge46" class="edge">
<title>Node11&#45;&gt;Node5</title>
<path fill="none" stroke="#191970" d="M770,-560.2899C770,-537.892 770,-494.7188 770,-458 770,-458 770,-458 770,-402 770,-344.6546 769.967,-319.0092 812,-280 858.1455,-237.1742 902.4589,-286.3955 949,-244 995.5251,-201.6191 1008.8133,-123.1838 1012.5584,-86.2425"/>
<polygon fill="#191970" stroke="#191970" points="1016.0865,-86.0713 1013.469,-75.805 1009.113,-85.4629 1016.0865,-86.0713"/>
</g>
<!-- Node12 -->
<g id="node12" class="node">
<title>Node12</title>
<g id="a_node12"><a xlink:href="../../de/d76/Array_8hpp.html" target="_top" xlink:title=" ">
<polygon fill="#ffffff" stroke="#000000" points="478,-504.5 478,-523.5 604,-523.5 604,-504.5 478,-504.5"/>
<text text-anchor="middle" x="541" y="-511.5" font-family="Helvetica,sans-Serif" font-size="10.00" fill="#000000">AH/Containers/Array.hpp</text>
</a>
</g>
</g>
<!-- Node11&#45;&gt;Node12 -->
<g id="edge18" class="edge">
<title>Node11&#45;&gt;Node12</title>
<path fill="none" stroke="#191970" d="M713.9803,-560.4554C674.7655,-549.9239 623.0408,-536.0328 586.3989,-526.1923"/>
<polygon fill="#191970" stroke="#191970" points="587.0525,-522.7438 576.4869,-523.5303 585.2368,-529.5043 587.0525,-522.7438"/>
</g>
<!-- Node22 -->
<g id="node22" class="node">
<title>Node22</title>
<g id="a_node22"><a xlink:title=" ">
<polygon fill="#ffffff" stroke="#bfbfbf" points="1176.5,-224.5 1176.5,-243.5 1225.5,-243.5 1225.5,-224.5 1176.5,-224.5"/>
<text text-anchor="middle" x="1201" y="-231.5" font-family="Helvetica,sans-Serif" font-size="10.00" fill="#000000">stdint.h</text>
</a>
</g>
</g>
<!-- Node11&#45;&gt;Node22 -->
<g id="edge47" class="edge">
<title>Node11&#45;&gt;Node22</title>
<path fill="none" stroke="#191970" d="M789.6334,-560.4847C843.2993,-519.3665 996.7934,-401.2566 1122,-300 1142.636,-283.3114 1165.9137,-263.7758 1181.8246,-250.3117"/>
<polygon fill="#191970" stroke="#191970" points="1184.479,-252.6499 1189.8425,-243.5129 1179.9518,-247.3109 1184.479,-252.6499"/>
</g>
<!-- Node12&#45;&gt;Node2 -->
<g id="edge19" class="edge">
<title>Node12&#45;&gt;Node2</title>
<path fill="none" stroke="#191970" d="M514.9018,-504.415C441.9136,-475.7414 241,-383.2563 241,-234 241,-234 241,-234 241,-122 241,-88.1521 250.7788,-74.6881 279,-56 303.4739,-39.7934 476.3086,-23.8763 579.2668,-15.6874"/>
<polygon fill="#191970" stroke="#191970" points="579.6179,-19.1706 589.3118,-14.8953 579.0676,-12.1923 579.6179,-19.1706"/>
</g>
<!-- Node12&#45;&gt;Node10 -->
<g id="edge44" class="edge">
<title>Node12&#45;&gt;Node10</title>
<path fill="none" stroke="#191970" d="M505.0343,-504.454C486.6374,-497.5484 465.8785,-486.1556 455,-468 446.5177,-453.8435 485.7911,-213.1748 497.6782,-141.7979"/>
<polygon fill="#191970" stroke="#191970" points="501.1996,-141.9597 499.3958,-131.5195 494.2953,-140.8058 501.1996,-141.9597"/>
</g>
<!-- Node13 -->
<g id="node13" class="node">
<title>Node13</title>
<g id="a_node13"><a xlink:href="../../d1/d93/Error_8hpp.html" target="_top" xlink:title=" ">
<polygon fill="#ffffff" stroke="#000000" points="568,-448.5 568,-467.5 666,-467.5 666,-448.5 568,-448.5"/>
<text text-anchor="middle" x="617" y="-455.5" font-family="Helvetica,sans-Serif" font-size="10.00" fill="#000000">AH/Error/Error.hpp</text>
</a>
</g>
</g>
<!-- Node12&#45;&gt;Node13 -->
<g id="edge20" class="edge">
<title>Node12&#45;&gt;Node13</title>
<path fill="none" stroke="#191970" d="M554.2382,-504.2455C565.681,-495.814 582.4296,-483.4729 595.7475,-473.6598"/>
<polygon fill="#191970" stroke="#191970" points="597.9391,-476.3924 603.9135,-467.6427 593.7867,-470.757 597.9391,-476.3924"/>
</g>
<!-- Node21 -->
<g id="node21" class="node">
<title>Node21</title>
<g id="a_node21"><a xlink:title=" ">
<polygon fill="#ffffff" stroke="#bfbfbf" points="722,-224.5 722,-243.5 774,-243.5 774,-224.5 722,-224.5"/>
<text text-anchor="middle" x="748" y="-231.5" font-family="Helvetica,sans-Serif" font-size="10.00" fill="#000000">stddef.h</text>
</a>
</g>
</g>
<!-- Node12&#45;&gt;Node21 -->
<g id="edge45" class="edge">
<title>Node12&#45;&gt;Node21</title>
<path fill="none" stroke="#191970" d="M604.1908,-505.2244C629.2426,-498.7552 656.4411,-487.5182 675,-468 696.0337,-445.879 694,-432.5246 694,-402 694,-402 694,-402 694,-346 694,-309.7347 717.2559,-272.8332 733.2443,-251.7487"/>
<polygon fill="#191970" stroke="#191970" points="736.1233,-253.75 739.5625,-243.7289 730.6247,-249.418 736.1233,-253.75"/>
</g>
<!-- Node25 -->
<g id="node25" class="node">
<title>Node25</title>
<g id="a_node25"><a xlink:title=" ">
<polygon fill="#ffffff" stroke="#bfbfbf" points="464.5,-448.5 464.5,-467.5 549.5,-467.5 549.5,-448.5 464.5,-448.5"/>
<text text-anchor="middle" x="507" y="-455.5" font-family="Helvetica,sans-Serif" font-size="10.00" fill="#000000">AH/STL/iterator</text>
</a>
</g>
</g>
<!-- Node12&#45;&gt;Node25 -->
<g id="edge43" class="edge">
<title>Node12&#45;&gt;Node25</title>
<path fill="none" stroke="#191970" d="M535.0777,-504.2455C530.3973,-496.5367 523.7327,-485.5598 518.0711,-476.2348"/>
<polygon fill="#191970" stroke="#191970" points="521.0361,-474.3741 512.8545,-467.6427 515.0525,-478.007 521.0361,-474.3741"/>
</g>
<!-- Node13&#45;&gt;Node2 -->
<g id="edge21" class="edge">
<title>Node13&#45;&gt;Node2</title>
<path fill="none" stroke="#191970" d="M617.0752,-448.1747C617.3077,-416.8969 618,-316.8342 618,-234 618,-234 618,-234 618,-122 618,-87.6118 634.2634,-50.2832 645.511,-28.5791"/>
<polygon fill="#191970" stroke="#191970" points="648.7317,-29.9804 650.393,-19.5166 642.569,-26.6605 648.7317,-29.9804"/>
</g>
<!-- Node14 -->
<g id="node14" class="node">
<title>Node14</title>
<g id="a_node14"><a xlink:href="../../df/dee/Debug_8hpp.html" target="_top" xlink:title=" ">
<polygon fill="#ffffff" stroke="#000000" points="490.5,-392.5 490.5,-411.5 603.5,-411.5 603.5,-392.5 490.5,-392.5"/>
<text text-anchor="middle" x="547" y="-399.5" font-family="Helvetica,sans-Serif" font-size="10.00" fill="#000000">AH/Debug/Debug.hpp</text>
</a>
</g>
</g>
<!-- Node13&#45;&gt;Node14 -->
<g id="edge22" class="edge">
<title>Node13&#45;&gt;Node14</title>
<path fill="none" stroke="#191970" d="M604.8069,-448.2455C594.3679,-439.8943 579.1345,-427.7076 566.926,-417.9408"/>
<polygon fill="#191970" stroke="#191970" points="569.0485,-415.1566 559.0533,-411.6427 564.6756,-420.6227 569.0485,-415.1566"/>
</g>
<!-- Node14&#45;&gt;Node2 -->
<g id="edge23" class="edge">
<title>Node14&#45;&gt;Node2</title>
<path fill="none" stroke="#191970" d="M554.8068,-392.4745C561.544,-383.6278 570.8295,-369.7806 575,-356 590.7194,-304.0588 580,-288.2677 580,-234 580,-234 580,-234 580,-122 580,-90.7875 586.4364,-81.802 604,-56 611.8422,-44.4793 623.2082,-33.9817 633.3151,-25.9331"/>
<polygon fill="#191970" stroke="#191970" points="635.5642,-28.6198 641.4038,-19.7796 631.3259,-23.0487 635.5642,-28.6198"/>
</g>
<!-- Node15 -->
<g id="node15" class="node">
<title>Node15</title>
<g id="a_node15"><a xlink:href="../../dd/d80/PrintStream_8hpp.html" target="_top" xlink:title=" ">
<polygon fill="#ffffff" stroke="#000000" points="268.5,-280.5 268.5,-299.5 427.5,-299.5 427.5,-280.5 268.5,-280.5"/>
<text text-anchor="middle" x="348" y="-287.5" font-family="Helvetica,sans-Serif" font-size="10.00" fill="#000000">AH/PrintStream/PrintStream.hpp</text>
</a>
</g>
</g>
<!-- Node14&#45;&gt;Node15 -->
<g id="edge24" class="edge">
<title>Node14&#45;&gt;Node15</title>
<path fill="none" stroke="#191970" d="M530.0334,-392.4509C495.1536,-372.8201 415.2085,-327.8259 373.8473,-304.5472"/>
<polygon fill="#191970" stroke="#191970" points="375.3549,-301.3795 364.9237,-299.5249 371.9216,-307.4797 375.3549,-301.3795"/>
</g>
<!-- Node16 -->
<g id="node16" class="node">
<title>Node16</title>
<g id="a_node16"><a xlink:href="../../de/dd1/AH_2Settings_2SettingsWrapper_8hpp.html" target="_top" xlink:title=" ">
<polygon fill="#ffffff" stroke="#000000" points="838,-336.5 838,-355.5 1002,-355.5 1002,-336.5 838,-336.5"/>
<text text-anchor="middle" x="920" y="-343.5" font-family="Helvetica,sans-Serif" font-size="10.00" fill="#000000">AH/Settings/SettingsWrapper.hpp</text>
</a>
</g>
</g>
<!-- Node14&#45;&gt;Node16 -->
<g id="edge27" class="edge">
<title>Node14&#45;&gt;Node16</title>
<path fill="none" stroke="#191970" d="M603.833,-392.6899C667.2046,-382.8779 769.9885,-367.4307 841.1143,-357.0183"/>
<polygon fill="#191970" stroke="#191970" points="841.9812,-360.4289 851.3701,-355.5198 840.9692,-353.5024 841.9812,-360.4289"/>
</g>
<!-- Node24 -->
<g id="node24" class="node">
<title>Node24</title>
<g id="a_node24"><a xlink:href="../../d7/d52/DebugVal_8hpp.html" target="_top" xlink:title=" ">
<polygon fill="#ffffff" stroke="#000000" points="488,-336.5 488,-355.5 566,-355.5 566,-336.5 488,-336.5"/>
<text text-anchor="middle" x="527" y="-343.5" font-family="Helvetica,sans-Serif" font-size="10.00" fill="#000000">DebugVal.hpp</text>
</a>
</g>
</g>
<!-- Node14&#45;&gt;Node24 -->
<g id="edge42" class="edge">
<title>Node14&#45;&gt;Node24</title>
<path fill="none" stroke="#191970" d="M543.5163,-392.2455C540.8492,-384.7776 537.0867,-374.2427 533.8263,-365.1137"/>
<polygon fill="#191970" stroke="#191970" points="537.1033,-363.8829 530.4438,-355.6427 530.5111,-366.2373 537.1033,-363.8829"/>
</g>
<!-- Node15&#45;&gt;Node2 -->
<g id="edge25" class="edge">
<title>Node15&#45;&gt;Node2</title>
<path fill="none" stroke="#191970" d="M336.914,-280.4418C317.4093,-262.4968 279,-221.6211 279,-178 279,-178 279,-178 279,-122 279,-91.4754 274.8343,-75.8772 298,-56 318.9274,-38.0434 480.3271,-23.0327 579.1331,-15.4061"/>
<polygon fill="#191970" stroke="#191970" points="579.6742,-18.8751 589.3789,-14.6244 579.1416,-11.8954 579.6742,-18.8751"/>
</g>
<!-- Node15&#45;&gt;Node6 -->
<g id="edge26" class="edge">
<title>Node15&#45;&gt;Node6</title>
<path fill="none" stroke="#191970" d="M352.6893,-280.4509C361.7814,-261.936 381.9531,-220.8591 393.8078,-196.7187"/>
<polygon fill="#191970" stroke="#191970" points="397.0563,-198.0438 398.3226,-187.5249 390.773,-194.9582 397.0563,-198.0438"/>
</g>
<!-- Node16&#45;&gt;Node2 -->
<g id="edge28" class="edge">
<title>Node16&#45;&gt;Node2</title>
<path fill="none" stroke="#191970" d="M878.7456,-336.4287C831.8382,-323.4198 756.1865,-295.6249 713,-244 693.4143,-220.5874 694,-208.5246 694,-178 694,-178 694,-178 694,-122 694,-87.6118 677.7366,-50.2832 666.489,-28.5791"/>
<polygon fill="#191970" stroke="#191970" points="669.431,-26.6605 661.607,-19.5166 663.2683,-29.9804 669.431,-26.6605"/>
</g>
<!-- Node16&#45;&gt;Node5 -->
<g id="edge29" class="edge">
<title>Node16&#45;&gt;Node5</title>
<path fill="none" stroke="#191970" d="M994.9746,-336.4363C1038.9795,-329.1123 1088.5341,-317.2928 1102,-300 1155.9994,-230.6543 1069.508,-124.6005 1030.9988,-83.302"/>
<polygon fill="#191970" stroke="#191970" points="1033.4205,-80.7696 1023.9926,-75.9358 1028.3484,-85.5938 1033.4205,-80.7696"/>
</g>
<!-- Node16&#45;&gt;Node14 -->
<g id="edge41" class="edge">
<title>Node16&#45;&gt;Node14</title>
<path fill="none" stroke="#191970" d="M861.6414,-355.5462C794.4386,-365.9436 684.4011,-382.461 613.8257,-392.7431"/>
<polygon fill="#191970" stroke="#191970" points="613.1016,-389.3115 603.709,-394.2134 614.1085,-396.2387 613.1016,-389.3115"/>
</g>
<!-- Node17 -->
<g id="node17" class="node">
<title>Node17</title>
<g id="a_node17"><a xlink:href="../../d5/d4f/AH_2Settings_2Settings_8hpp.html" target="_top" xlink:title="All user settings and debugging options can be changed here.">
<polygon fill="#ffffff" stroke="#000000" points="1022.5,-280.5 1022.5,-299.5 1093.5,-299.5 1093.5,-280.5 1022.5,-280.5"/>
<text text-anchor="middle" x="1058" y="-287.5" font-family="Helvetica,sans-Serif" font-size="10.00" fill="#000000">Settings.hpp</text>
</a>
</g>
</g>
<!-- Node16&#45;&gt;Node17 -->
<g id="edge30" class="edge">
<title>Node16&#45;&gt;Node17</title>
<path fill="none" stroke="#191970" d="M943.723,-336.3733C966.1737,-327.2629 1000.0739,-313.5062 1025.1255,-303.3404"/>
<polygon fill="#191970" stroke="#191970" points="1026.6365,-306.5045 1034.5865,-299.5011 1024.0043,-300.0182 1026.6365,-306.5045"/>
</g>
<!-- Node23 -->
<g id="node23" class="node">
<title>Node23</title>
<g id="a_node23"><a xlink:href="../../d9/d98/TeensyUSBTypes_8hpp.html" target="_top" xlink:title=" ">
<polygon fill="#ffffff" stroke="#000000" points="836,-280.5 836,-299.5 1004,-299.5 1004,-280.5 836,-280.5"/>
<text text-anchor="middle" x="920" y="-287.5" font-family="Helvetica,sans-Serif" font-size="10.00" fill="#000000">AH/Teensy/TeensyUSBTypes.hpp</text>
</a>
</g>
</g>
<!-- Node16&#45;&gt;Node23 -->
<g id="edge40" class="edge">
<title>Node16&#45;&gt;Node23</title>
<path fill="none" stroke="#191970" d="M920,-336.2455C920,-328.9382 920,-318.6944 920,-309.7046"/>
<polygon fill="#191970" stroke="#191970" points="923.5001,-309.6426 920,-299.6427 916.5001,-309.6427 923.5001,-309.6426"/>
</g>
<!-- Node18 -->
<g id="node18" class="node">
<title>Node18</title>
<g id="a_node18"><a xlink:href="../../dc/d50/Frequency_8hpp.html" target="_top" xlink:title=" ">
<polygon fill="#ffffff" stroke="#000000" points="1104,-112.5 1104,-131.5 1232,-131.5 1232,-112.5 1104,-112.5"/>
<text text-anchor="middle" x="1168" y="-119.5" font-family="Helvetica,sans-Serif" font-size="10.00" fill="#000000">AH/Types/Frequency.hpp</text>
</a>
</g>
</g>
<!-- Node17&#45;&gt;Node18 -->
<g id="edge31" class="edge">
<title>Node17&#45;&gt;Node18</title>
<path fill="none" stroke="#191970" d="M1065.2519,-280.2482C1072.055,-271.0173 1082.4357,-256.7178 1091,-244 1115.3459,-207.8467 1142.1738,-164.4697 1156.8591,-140.3966"/>
<polygon fill="#191970" stroke="#191970" points="1159.9938,-141.9778 1162.1992,-131.615 1154.0129,-138.3407 1159.9938,-141.9778"/>
</g>
<!-- Node19 -->
<g id="node19" class="node">
<title>Node19</title>
<g id="a_node19"><a xlink:href="../../d7/d7c/ADCConfig_8hpp.html" target="_top" xlink:title="This file contains the platform&#45;specific ADC resolutions. By default, the library automatically selec...">
<polygon fill="#ffffff" stroke="#000000" points="792,-224.5 792,-243.5 940,-243.5 940,-224.5 792,-224.5"/>
<text text-anchor="middle" x="866" y="-231.5" font-family="Helvetica,sans-Serif" font-size="10.00" fill="#000000">AH/Hardware/ADCConfig.hpp</text>
</a>
</g>
</g>
<!-- Node17&#45;&gt;Node19 -->
<g id="edge34" class="edge">
<title>Node17&#45;&gt;Node19</title>
<path fill="none" stroke="#191970" d="M1024.994,-280.3733C992.7909,-270.9807 943.6558,-256.6496 908.5361,-246.4064"/>
<polygon fill="#191970" stroke="#191970" points="909.1553,-242.9412 898.5753,-243.5011 907.1953,-249.6612 909.1553,-242.9412"/>
</g>
<!-- Node20 -->
<g id="node20" class="node">
<title>Node20</title>
<g id="a_node20"><a xlink:title=" ">
<polygon fill="#ffffff" stroke="#bfbfbf" points="1034,-224.5 1034,-243.5 1082,-243.5 1082,-224.5 1034,-224.5"/>
<text text-anchor="middle" x="1058" y="-231.5" font-family="Helvetica,sans-Serif" font-size="10.00" fill="#000000">limits.h</text>
</a>
</g>
</g>
<!-- Node17&#45;&gt;Node20 -->
<g id="edge37" class="edge">
<title>Node17&#45;&gt;Node20</title>
<path fill="none" stroke="#191970" d="M1058,-280.2455C1058,-272.9382 1058,-262.6944 1058,-253.7046"/>
<polygon fill="#191970" stroke="#191970" points="1061.5001,-253.6426 1058,-243.6427 1054.5001,-253.6427 1061.5001,-253.6426"/>
</g>
<!-- Node17&#45;&gt;Node21 -->
<g id="edge38" class="edge">
<title>Node17&#45;&gt;Node21</title>
<path fill="none" stroke="#191970" d="M1022.1809,-281.8254C1019.0807,-281.1831 1015.9882,-280.5653 1013,-280 914.5133,-261.3688 885.8235,-265.9356 784.338,-244.084"/>
<polygon fill="#191970" stroke="#191970" points="784.8018,-240.6027 774.2848,-241.8852 783.306,-247.4411 784.8018,-240.6027"/>
</g>
<!-- Node17&#45;&gt;Node22 -->
<g id="edge39" class="edge">
<title>Node17&#45;&gt;Node22</title>
<path fill="none" stroke="#191970" d="M1082.5826,-280.3733C1105.9496,-271.2226 1141.2862,-257.3844 1167.2784,-247.2057"/>
<polygon fill="#191970" stroke="#191970" points="1168.703,-250.4066 1176.7382,-243.5011 1166.1505,-243.8886 1168.703,-250.4066"/>
</g>
<!-- Node18&#45;&gt;Node2 -->
<g id="edge32" class="edge">
<title>Node18&#45;&gt;Node2</title>
<path fill="none" stroke="#191970" d="M1163.1473,-112.3292C1155.0472,-97.3363 1137.2384,-68.8721 1113,-56 1080.291,-38.6295 854.3855,-22.2453 732.9116,-14.5637"/>
<polygon fill="#191970" stroke="#191970" points="733.1207,-11.0701 722.921,-13.9367 732.6821,-18.0563 733.1207,-11.0701"/>
</g>
<!-- Node18&#45;&gt;Node5 -->
<g id="edge33" class="edge">
<title>Node18&#45;&gt;Node5</title>
<path fill="none" stroke="#191970" d="M1141.5265,-112.3733C1116.1403,-103.1419 1077.6355,-89.1402 1049.578,-78.9375"/>
<polygon fill="#191970" stroke="#191970" points="1050.7222,-75.6293 1040.1281,-75.5011 1048.3299,-82.2079 1050.7222,-75.6293"/>
</g>
<!-- Node19&#45;&gt;Node2 -->
<g id="edge35" class="edge">
<title>Node19&#45;&gt;Node2</title>
<path fill="none" stroke="#191970" d="M858.1588,-224.3735C835.7518,-197.0442 769.1179,-117.0145 708,-56 697.7372,-45.7546 685.6355,-34.9792 675.6901,-26.4348"/>
<polygon fill="#191970" stroke="#191970" points="677.818,-23.65 667.9308,-19.8429 673.2858,-28.9848 677.818,-23.65"/>
</g>
<!-- Node19&#45;&gt;Node6 -->
<g id="edge36" class="edge">
<title>Node19&#45;&gt;Node6</title>
<path fill="none" stroke="#191970" d="M791.8678,-225.0337C703.3697,-214.3298 556.6093,-196.5791 470.9398,-186.2173"/>
<polygon fill="#191970" stroke="#191970" points="471.1511,-182.7175 460.8032,-184.9913 470.3105,-189.6668 471.1511,-182.7175"/>
</g>
<!-- Node26&#45;&gt;Node2 -->
<g id="edge49" class="edge">
<title>Node26&#45;&gt;Node2</title>
<path fill="none" stroke="#191970" d="M1176.2823,-741.5203C1275.2271,-727.5765 1426,-687.8898 1426,-575.5 1426,-575.5 1426,-575.5 1426,-122 1426,-71.3158 1380.7401,-73.0227 1333,-56 1277.7055,-36.2836 898.0874,-19.3829 732.7174,-12.8662"/>
<polygon fill="#191970" stroke="#191970" points="732.7463,-9.3648 722.617,-12.4706 732.4723,-16.3594 732.7463,-9.3648"/>
</g>
<!-- Node27 -->
<g id="node27" class="node">
<title>Node27</title>
<g id="a_node27"><a xlink:href="../../d4/d57/ExtendedIOElement_8hpp.html" target="_top" xlink:title=" ">
<polygon fill="#ffffff" stroke="#000000" points="708.5,-683.5 708.5,-702.5 831.5,-702.5 831.5,-683.5 708.5,-683.5"/>
<text text-anchor="middle" x="770" y="-690.5" font-family="Helvetica,sans-Serif" font-size="10.00" fill="#000000">ExtendedIOElement.hpp</text>
</a>
</g>
</g>
<!-- Node26&#45;&gt;Node27 -->
<g id="edge50" class="edge">
<title>Node26&#45;&gt;Node27</title>
<path fill="none" stroke="#191970" d="M1037.0121,-739.4369C980.9781,-729.6918 894.1034,-714.5832 834.7707,-704.2645"/>
<polygon fill="#191970" stroke="#191970" points="835.2129,-700.7889 824.7611,-702.5237 834.0135,-707.6854 835.2129,-700.7889"/>
</g>
<!-- Node31 -->
<g id="node31" class="node">
<title>Node31</title>
<g id="a_node31"><a xlink:href="../../d5/db6/ArrayHelpers_8hpp.html" target="_top" xlink:title=" ">
<polygon fill="#ffffff" stroke="#000000" points="227,-566 227,-585 387,-585 387,-566 227,-566"/>
<text text-anchor="middle" x="307" y="-573" font-family="Helvetica,sans-Serif" font-size="10.00" fill="#000000">AH/Containers/ArrayHelpers.hpp</text>
</a>
</g>
</g>
<!-- Node26&#45;&gt;Node31 -->
<g id="edge60" class="edge">
<title>Node26&#45;&gt;Node31</title>
<path fill="none" stroke="#191970" d="M1007.6387,-743.9728C927.5103,-738.0608 804.0211,-725.988 699,-703 563.0153,-673.2344 407.3655,-615.0923 340.4428,-588.8805"/>
<polygon fill="#191970" stroke="#191970" points="341.4395,-585.5115 330.8525,-585.1044 338.8749,-592.0248 341.4395,-585.5115"/>
</g>
<!-- Node27&#45;&gt;Node2 -->
<g id="edge51" class="edge">
<title>Node27&#45;&gt;Node2</title>
<path fill="none" stroke="#191970" d="M708.0659,-691.152C594.0246,-687.1019 355.4092,-675.43 278,-647 177.0528,-609.9253 0,-420.9582 0,-402 0,-402 0,-402 0,-122 0,-80.201 28.9698,-73.3454 67,-56 112.4981,-35.2486 430.4896,-19.4186 579.4034,-13.0545"/>
<polygon fill="#191970" stroke="#191970" points="579.5523,-16.5514 589.395,-12.6309 579.2557,-9.5577 579.5523,-16.5514"/>
</g>
<!-- Node27&#45;&gt;Node4 -->
<g id="edge52" class="edge">
<title>Node27&#45;&gt;Node4</title>
<path fill="none" stroke="#191970" d="M831.6268,-686.439C928.7681,-676.0969 1117.1663,-656.0393 1221.6639,-644.9141"/>
<polygon fill="#191970" stroke="#191970" points="1222.2443,-648.3722 1231.8176,-643.8331 1221.5032,-641.4115 1222.2443,-648.3722"/>
</g>
<!-- Node27&#45;&gt;Node11 -->
<g id="edge59" class="edge">
<title>Node27&#45;&gt;Node11</title>
<path fill="none" stroke="#191970" d="M770,-683.3845C770,-665.544 770,-626.7839 770,-600.9138"/>
<polygon fill="#191970" stroke="#191970" points="773.5001,-600.7143 770,-590.7143 766.5001,-600.7143 773.5001,-600.7143"/>
</g>
<!-- Node28 -->
<g id="node28" class="node">
<title>Node28</title>
<g id="a_node28"><a xlink:href="../../de/dd1/LinkedList_8hpp.html" target="_top" xlink:title=" ">
<polygon fill="#ffffff" stroke="#000000" points="133.5,-448.5 133.5,-467.5 280.5,-467.5 280.5,-448.5 133.5,-448.5"/>
<text text-anchor="middle" x="207" y="-455.5" font-family="Helvetica,sans-Serif" font-size="10.00" fill="#000000">AH/Containers/LinkedList.hpp</text>
</a>
</g>
</g>
<!-- Node27&#45;&gt;Node28 -->
<g id="edge53" class="edge">
<title>Node27&#45;&gt;Node28</title>
<path fill="none" stroke="#191970" d="M708.2947,-690.7075C578.2807,-684.4948 282.802,-662.6438 218,-591 189.8726,-559.9029 196.0165,-506.3048 202.0333,-477.5606"/>
<polygon fill="#191970" stroke="#191970" points="205.5079,-478.0689 204.3422,-467.5383 198.6865,-476.4973 205.5079,-478.0689"/>
</g>
<!-- Node28&#45;&gt;Node2 -->
<g id="edge54" class="edge">
<title>Node28&#45;&gt;Node2</title>
<path fill="none" stroke="#191970" d="M182.7051,-448.4669C166.409,-440.8914 145.6826,-428.7712 133,-412 114.5886,-387.6531 114,-376.5246 114,-346 114,-346 114,-346 114,-122 114,-63.8389 171.7499,-74.1697 227,-56 290.4409,-35.1367 473.6369,-21.0201 578.9827,-14.3736"/>
<polygon fill="#191970" stroke="#191970" points="579.4774,-17.8496 589.2404,-13.7345 579.0421,-10.8632 579.4774,-17.8496"/>
</g>
<!-- Node28&#45;&gt;Node7 -->
<g id="edge56" class="edge">
<title>Node28&#45;&gt;Node7</title>
<path fill="none" stroke="#191970" d="M226.21,-448.4505C239.5266,-440.663 256.2125,-428.2917 264,-412 275.1632,-388.6461 253.3735,-381.3209 248,-356 240.915,-322.6138 245.7683,-311.4605 259,-280 282.7918,-223.4313 329.3171,-166.9724 353.897,-139.3927"/>
<polygon fill="#191970" stroke="#191970" points="356.659,-141.5567 360.7712,-131.7925 351.4675,-136.8611 356.659,-141.5567"/>
</g>
<!-- Node28&#45;&gt;Node14 -->
<g id="edge55" class="edge">
<title>Node28&#45;&gt;Node14</title>
<path fill="none" stroke="#191970" d="M265.0618,-448.4369C324.7097,-438.6125 417.4546,-423.3369 480.1325,-413.0135"/>
<polygon fill="#191970" stroke="#191970" points="481.0117,-416.4159 490.31,-411.3372 479.8741,-409.509 481.0117,-416.4159"/>
</g>
<!-- Node29 -->
<g id="node29" class="node">
<title>Node29</title>
<g id="a_node29"><a xlink:title=" ">
<polygon fill="#ffffff" stroke="#bfbfbf" points="142,-392.5 142,-411.5 190,-411.5 190,-392.5 142,-392.5"/>
<text text-anchor="middle" x="166" y="-399.5" font-family="Helvetica,sans-Serif" font-size="10.00" fill="#000000">stdlib.h</text>
</a>
</g>
</g>
<!-- Node28&#45;&gt;Node29 -->
<g id="edge57" class="edge">
<title>Node28&#45;&gt;Node29</title>
<path fill="none" stroke="#191970" d="M199.8583,-448.2455C194.1556,-440.4564 186.01,-429.3308 179.1375,-419.9439"/>
<polygon fill="#191970" stroke="#191970" points="181.7913,-417.6437 173.0598,-411.6427 176.1432,-421.7789 181.7913,-417.6437"/>
</g>
<!-- Node30 -->
<g id="node30" class="node">
<title>Node30</title>
<g id="a_node30"><a xlink:title=" ">
<polygon fill="#ffffff" stroke="#bfbfbf" points="208.5,-392.5 208.5,-411.5 255.5,-411.5 255.5,-392.5 208.5,-392.5"/>
<text text-anchor="middle" x="232" y="-399.5" font-family="Helvetica,sans-Serif" font-size="10.00" fill="#000000">iterator</text>
</a>
</g>
</g>
<!-- Node28&#45;&gt;Node30 -->
<g id="edge58" class="edge">
<title>Node28&#45;&gt;Node30</title>
<path fill="none" stroke="#191970" d="M211.3547,-448.2455C214.7244,-440.6973 219.493,-430.0158 223.5983,-420.8197"/>
<polygon fill="#191970" stroke="#191970" points="226.8147,-422.2009 227.6952,-411.6427 220.4227,-419.3473 226.8147,-422.2009"/>
</g>
<!-- Node31&#45;&gt;Node2 -->
<g id="edge61" class="edge">
<title>Node31&#45;&gt;Node2</title>
<path fill="none" stroke="#191970" d="M281.0438,-565.9781C242.3727,-550.6523 169.3346,-517.1665 124,-468 64.4412,-403.407 38,-377.8607 38,-290 38,-290 38,-290 38,-122 38,-67.6304 89.5548,-73.591 141,-56 220.0005,-28.9868 456.1156,-16.943 579.3,-12.3771"/>
<polygon fill="#191970" stroke="#191970" points="579.549,-15.8704 589.4153,-12.0096 579.2948,-8.8751 579.549,-15.8704"/>
</g>
<!-- Node31&#45;&gt;Node12 -->
<g id="edge62" class="edge">
<title>Node31&#45;&gt;Node12</title>
<path fill="none" stroke="#191970" d="M343.3058,-565.9581C384.1219,-555.2308 450.4838,-537.7895 494.923,-526.11"/>
<polygon fill="#191970" stroke="#191970" points="495.8272,-529.4913 504.6091,-523.5643 494.0478,-522.7212 495.8272,-529.4913"/>
</g>
<!-- Node31&#45;&gt;Node15 -->
<g id="edge64" class="edge">
<title>Node31&#45;&gt;Node15</title>
<path fill="none" stroke="#191970" d="M308.3436,-565.7834C310.2493,-552.0271 313.8556,-526.0878 317,-504 327.1651,-432.5951 339.5329,-347.8355 345.0718,-309.9839"/>
<polygon fill="#191970" stroke="#191970" points="348.5758,-310.2111 346.5615,-299.8095 341.6496,-309.1969 348.5758,-310.2111"/>
</g>
<!-- Node32 -->
<g id="node32" class="node">
<title>Node32</title>
<g id="a_node32"><a xlink:title=" ">
<polygon fill="#ffffff" stroke="#bfbfbf" points="326.5,-504.5 326.5,-523.5 421.5,-523.5 421.5,-504.5 326.5,-504.5"/>
<text text-anchor="middle" x="374" y="-511.5" font-family="Helvetica,sans-Serif" font-size="10.00" fill="#000000">AH/STL/algorithm</text>
</a>
</g>
</g>
<!-- Node31&#45;&gt;Node32 -->
<g id="edge63" class="edge">
<title>Node31&#45;&gt;Node32</title>
<path fill="none" stroke="#191970" d="M317.4688,-565.8906C327.7337,-556.4683 343.5903,-541.9134 355.9006,-530.6137"/>
<polygon fill="#191970" stroke="#191970" points="358.3834,-533.0856 363.3837,-523.7449 353.6499,-527.9287 358.3834,-533.0856"/>
</g>
<!-- Node33&#45;&gt;Node2 -->
<g id="edge66" class="edge">
<title>Node33&#45;&gt;Node2</title>
<path fill="none" stroke="#191970" d="M1110.2646,-504.4362C1196.5693,-488.3772 1350,-452.6984 1350,-402 1350,-402 1350,-402 1350,-122 1350,-51.598 1274.0969,-73.8677 1206,-56 1118.8072,-33.1218 862.6776,-19.0247 733.0421,-13.1595"/>
<polygon fill="#191970" stroke="#191970" points="732.9406,-9.6515 722.7942,-12.7011 732.6277,-16.6445 732.9406,-9.6515"/>
</g>
<!-- Node33&#45;&gt;Node5 -->
<g id="edge68" class="edge">
<title>Node33&#45;&gt;Node5</title>
<path fill="none" stroke="#191970" d="M1026.1548,-504.3795C976.7462,-485.0536 872.4925,-436.3573 829,-356 812.9165,-326.2839 805.983,-306.4578 827,-280 870.9893,-224.6229 933.2659,-295.2511 982,-244 1023.3892,-200.4731 1020.7904,-122.6045 1016.8327,-86.0229"/>
<polygon fill="#191970" stroke="#191970" points="1020.256,-85.1867 1015.554,-75.6924 1013.309,-86.0466 1020.256,-85.1867"/>
</g>
<!-- Node33&#45;&gt;Node13 -->
<g id="edge67" class="edge">
<title>Node33&#45;&gt;Node13</title>
<path fill="none" stroke="#191970" d="M983.9145,-505.1266C898.9453,-494.2132 756.1606,-475.8738 676.0659,-465.5864"/>
<polygon fill="#191970" stroke="#191970" points="676.5069,-462.1144 666.1425,-464.3119 675.6151,-469.0574 676.5069,-462.1144"/>
</g>
<!-- Node33&#45;&gt;Node22 -->
<g id="edge69" class="edge">
<title>Node33&#45;&gt;Node22</title>
<path fill="none" stroke="#191970" d="M1058.9962,-504.4232C1077.4495,-474.7464 1134.5241,-381.4171 1174,-300 1181.5009,-284.5297 1188.8093,-266.4213 1193.9267,-253.0896"/>
<polygon fill="#191970" stroke="#191970" points="1197.2654,-254.1554 1197.5228,-243.5637 1190.7165,-251.6831 1197.2654,-254.1554"/>
</g>
<!-- Node34&#45;&gt;Node3 -->
<g id="edge72" class="edge">
<title>Node34&#45;&gt;Node3</title>
<path fill="none" stroke="#191970" d="M1336.6623,-758.6427C1336.1227,-766.0798 1333.7041,-776.6064 1330.6046,-785.7493"/>
<polygon fill="#191970" stroke="#191970" points="1327.2731,-784.658 1326.8796,-795.2455 1333.7897,-787.2142 1327.2731,-784.658"/>
</g>
<!-- Node34&#45;&gt;Node4 -->
<g id="edge71" class="edge">
<title>Node34&#45;&gt;Node4</title>
<path fill="none" stroke="#191970" d="M1330.7601,-739.4509C1324.5063,-721.0186 1310.6658,-680.2254 1302.461,-656.043"/>
<polygon fill="#191970" stroke="#191970" points="1305.7591,-654.8701 1299.2317,-646.5249 1299.1303,-657.1192 1305.7591,-654.8701"/>
</g>
<!-- Node35 -->
<g id="node35" class="node">
<title>Node35</title>
<g id="a_node35"><a xlink:href="../../d1/d1f/ShiftRegisterOutRGB_8hpp.html" target="_top" xlink:title=" ">
<polygon fill="#ffffff" stroke="#000000" points="1154,-392.5 1154,-411.5 1284,-411.5 1284,-392.5 1154,-392.5"/>
<text text-anchor="middle" x="1219" y="-399.5" font-family="Helvetica,sans-Serif" font-size="10.00" fill="#000000">ShiftRegisterOutRGB.hpp</text>
</a>
</g>
</g>
<!-- Node34&#45;&gt;Node35 -->
<g id="edge73" class="edge">
<title>Node34&#45;&gt;Node35</title>
<path fill="none" stroke="#191970" d="M1342.4375,-739.2711C1357.625,-720.723 1388,-678.4461 1388,-637 1388,-637 1388,-637 1388,-575.5 1388,-497.0514 1298.2457,-440.7989 1249.5557,-416.0546"/>
<polygon fill="#191970" stroke="#191970" points="1250.9193,-412.8244 1240.404,-411.5286 1247.8161,-419.099 1250.9193,-412.8244"/>
</g>
<!-- Node35&#45;&gt;Node2 -->
<g id="edge74" class="edge">
<title>Node35&#45;&gt;Node2</title>
<path fill="none" stroke="#191970" d="M1227.5938,-392.2985C1243.0625,-373.796 1274,-331.5919 1274,-290 1274,-290 1274,-290 1274,-122 1274,-55.2134 1203.28,-74.1251 1139,-56 1064.7296,-35.0579 849.3623,-20.5298 732.909,-13.9619"/>
<polygon fill="#191970" stroke="#191970" points="732.8213,-10.4516 722.6419,-13.389 732.4313,-17.4408 732.8213,-10.4516"/>
</g>
<!-- Node35&#45;&gt;Node16 -->
<g id="edge76" class="edge">
<title>Node35&#45;&gt;Node16</title>
<path fill="none" stroke="#191970" d="M1167.9398,-392.4369C1116.1232,-382.7321 1035.905,-367.708 980.8285,-357.3926"/>
<polygon fill="#191970" stroke="#191970" points="981.323,-353.9245 970.8496,-355.5237 980.0344,-360.8048 981.323,-353.9245"/>
</g>
<!-- Node35&#45;&gt;Node22 -->
<g id="edge75" class="edge">
<title>Node35&#45;&gt;Node22</title>
<path fill="none" stroke="#191970" d="M1219.0261,-392.4504C1218.9569,-371.8127 1218.1119,-321.5595 1212,-280 1210.7041,-271.1881 1208.5315,-261.5853 1206.4579,-253.4438"/>
<polygon fill="#191970" stroke="#191970" points="1209.8361,-252.5281 1203.8709,-243.7721 1203.0738,-254.3369 1209.8361,-252.5281"/>
</g>
<!-- Node36&#45;&gt;Node1 -->
<g id="edge81" class="edge">
<title>Node36&#45;&gt;Node1</title>
<path fill="none" stroke="#191970" d="M1456.6752,-814.6427C1447.2808,-823.1194 1431.2884,-835.6096 1417.332,-845.49"/>
<polygon fill="#191970" stroke="#191970" points="1415.2295,-842.6883 1408.9825,-851.2455 1419.2023,-848.4518 1415.2295,-842.6883"/>
</g>
<!-- Node36&#45;&gt;Node4 -->
<g id="edge80" class="edge">
<title>Node36&#45;&gt;Node4</title>
<path fill="none" stroke="#191970" d="M1456.2142,-795.2969C1445.5348,-782.1515 1425.5494,-758.1299 1407,-739 1376.3056,-707.345 1337.9366,-673.1777 1315.2885,-653.515"/>
<polygon fill="#191970" stroke="#191970" points="1317.2827,-650.6126 1307.427,-646.7248 1312.707,-655.9102 1317.2827,-650.6126"/>
</g>
<!-- Node37 -->
<g id="node37" class="node">
<title>Node37</title>
<g id="a_node37"><a xlink:title=" ">
<polygon fill="#ffffff" stroke="#bfbfbf" points="1492.5,-739.5 1492.5,-758.5 1533.5,-758.5 1533.5,-739.5 1492.5,-739.5"/>
<text text-anchor="middle" x="1513" y="-746.5" font-family="Helvetica,sans-Serif" font-size="10.00" fill="#000000">SPI.h</text>
</a>
</g>
</g>
<!-- Node36&#45;&gt;Node37 -->
<g id="edge82" class="edge">
<title>Node36&#45;&gt;Node37</title>
<path fill="none" stroke="#191970" d="M1472.5351,-795.2455C1479.4912,-787.2958 1489.4883,-775.8706 1497.8051,-766.3656"/>
<polygon fill="#191970" stroke="#191970" points="1500.6116,-768.4732 1504.5627,-758.6427 1495.3436,-763.8637 1500.6116,-768.4732"/>
</g>
</g>
</svg>
