<?xml version="1.0" encoding="UTF-8" standalone="no"?>
<!DOCTYPE svg PUBLIC "-//W3C//DTD SVG 1.1//EN"
 "http://www.w3.org/Graphics/SVG/1.1/DTD/svg11.dtd">
<!-- Generated by graphviz version 2.43.0 (0)
 -->
<!-- Title: GenericMIDIRotaryEncoder&lt; Enc, Sender &gt; Pages: 1 -->
<svg width="346pt" height="827pt"
 viewBox="0.00 0.00 346.00 827.00" xmlns="http://www.w3.org/2000/svg" xmlns:xlink="http://www.w3.org/1999/xlink">
<g id="graph0" class="graph" transform="scale(1 1) rotate(0) translate(4 823)">
<title>GenericMIDIRotaryEncoder&lt; Enc, Sender &gt;</title>
<polygon fill="white" stroke="transparent" points="-4,4 -4,-823 342,-823 342,4 -4,4"/>
<!-- Node1 -->
<g id="node1" class="node">
<title>Node1</title>
<g id="a_node1"><a xlink:title="An abstract class for rotary encoders that send MIDI events.">
<polygon fill="#bfbfbf" stroke="black" points="89,-105.5 89,-250.5 256,-250.5 256,-105.5 89,-105.5"/>
<text text-anchor="start" x="97" y="-238.5" font-family="Helvetica,sans-Serif" font-size="10.00">GenericMIDIRotaryEncoder</text>
<text text-anchor="middle" x="172.5" y="-227.5" font-family="Helvetica,sans-Serif" font-size="10.00">&lt; Enc, Sender &gt;</text>
<polyline fill="none" stroke="black" points="89,-220.5 256,-220.5 "/>
<text text-anchor="start" x="97" y="-208.5" font-family="Helvetica,sans-Serif" font-size="10.00">+ sender</text>
<text text-anchor="start" x="97" y="-197.5" font-family="Helvetica,sans-Serif" font-size="10.00">&#45; encoder</text>
<text text-anchor="start" x="97" y="-186.5" font-family="Helvetica,sans-Serif" font-size="10.00">&#45; address</text>
<text text-anchor="start" x="97" y="-175.5" font-family="Helvetica,sans-Serif" font-size="10.00">&#45; speedMultiply</text>
<text text-anchor="start" x="97" y="-164.5" font-family="Helvetica,sans-Serif" font-size="10.00">&#45; pulsesPerStep</text>
<text text-anchor="start" x="97" y="-153.5" font-family="Helvetica,sans-Serif" font-size="10.00">&#45; deltaOffset</text>
<polyline fill="none" stroke="black" points="89,-146.5 256,-146.5 "/>
<text text-anchor="start" x="97" y="-134.5" font-family="Helvetica,sans-Serif" font-size="10.00">+ GenericMIDIRotaryEncoder()</text>
<text text-anchor="start" x="97" y="-123.5" font-family="Helvetica,sans-Serif" font-size="10.00">+ begin()</text>
<text text-anchor="start" x="97" y="-112.5" font-family="Helvetica,sans-Serif" font-size="10.00">+ update()</text>
</a>
</g>
</g>
<!-- Node5 -->
<g id="node5" class="node">
<title>Node5</title>
<g id="a_node5"><a xlink:href="../../d5/d7d/classBorrowedCCRotaryEncoder.html" target="_top" xlink:title="A class of MIDIOutputElements that read the input of a quadrature (rotary) encoder and send out relat...">
<polygon fill="white" stroke="black" points="0,-0.5 0,-68.5 167,-68.5 167,-0.5 0,-0.5"/>
<text text-anchor="start" x="8" y="-56.5" font-family="Helvetica,sans-Serif" font-size="10.00">BorrowedCCRotaryEncoder</text>
<text text-anchor="middle" x="83.5" y="-45.5" font-family="Helvetica,sans-Serif" font-size="10.00">&lt; RelativeCCSender &gt;</text>
<polyline fill="none" stroke="black" points="0,-38.5 167,-38.5 "/>
<text text-anchor="middle" x="83.5" y="-26.5" font-family="Helvetica,sans-Serif" font-size="10.00"> </text>
<polyline fill="none" stroke="black" points="0,-19.5 167,-19.5 "/>
<text text-anchor="start" x="8" y="-7.5" font-family="Helvetica,sans-Serif" font-size="10.00">+ BorrowedCCRotaryEncoder()</text>
</a>
</g>
</g>
<!-- Node1&#45;&gt;Node5 -->
<g id="edge4" class="edge">
<title>Node1&#45;&gt;Node5</title>
<path fill="none" stroke="midnightblue" d="M121.99,-96.69C115.77,-86.8 109.71,-77.17 104.31,-68.58"/>
<polygon fill="none" stroke="midnightblue" points="119.19,-98.82 127.48,-105.42 125.12,-95.09 119.19,-98.82"/>
</g>
<!-- Node6 -->
<g id="node6" class="node">
<title>Node6</title>
<g id="a_node6"><a xlink:href="../../d3/d62/classCCRotaryEncoder.html" target="_top" xlink:title="A class of MIDIOutputElements that read the input of a quadrature (rotary) encoder and send out relat...">
<polygon fill="white" stroke="black" points="185,-0.5 185,-68.5 338,-68.5 338,-0.5 185,-0.5"/>
<text text-anchor="start" x="193" y="-56.5" font-family="Helvetica,sans-Serif" font-size="10.00">CCRotaryEncoder&lt; Relative</text>
<text text-anchor="middle" x="261.5" y="-45.5" font-family="Helvetica,sans-Serif" font-size="10.00">CCSender &gt;</text>
<polyline fill="none" stroke="black" points="185,-38.5 338,-38.5 "/>
<text text-anchor="middle" x="261.5" y="-26.5" font-family="Helvetica,sans-Serif" font-size="10.00"> </text>
<polyline fill="none" stroke="black" points="185,-19.5 338,-19.5 "/>
<text text-anchor="start" x="193" y="-7.5" font-family="Helvetica,sans-Serif" font-size="10.00">+ CCRotaryEncoder()</text>
</a>
</g>
</g>
<!-- Node1&#45;&gt;Node6 -->
<g id="edge5" class="edge">
<title>Node1&#45;&gt;Node6</title>
<path fill="none" stroke="midnightblue" d="M223.01,-96.69C229.23,-86.8 235.29,-77.17 240.69,-68.58"/>
<polygon fill="none" stroke="midnightblue" points="219.88,-95.09 217.52,-105.42 225.81,-98.82 219.88,-95.09"/>
</g>
<!-- Node2 -->
<g id="node2" class="node">
<title>Node2</title>
<g id="a_node2"><a xlink:href="../../d1/d55/classAH_1_1Updatable.html" target="_top" xlink:title=" ">
<polygon fill="white" stroke="black" points="116,-287.5 116,-377.5 229,-377.5 229,-287.5 116,-287.5"/>
<text text-anchor="middle" x="172.5" y="-365.5" font-family="Helvetica,sans-Serif" font-size="10.00">MIDIOutputElement</text>
<polyline fill="none" stroke="black" points="116,-358.5 229,-358.5 "/>
<text text-anchor="middle" x="172.5" y="-346.5" font-family="Helvetica,sans-Serif" font-size="10.00"> </text>
<polyline fill="none" stroke="black" points="116,-339.5 229,-339.5 "/>
<text text-anchor="start" x="124" y="-327.5" font-family="Helvetica,sans-Serif" font-size="10.00">* begin()</text>
<text text-anchor="start" x="124" y="-316.5" font-family="Helvetica,sans-Serif" font-size="10.00">* update()</text>
<text text-anchor="start" x="124" y="-305.5" font-family="Helvetica,sans-Serif" font-size="10.00">* beginAll()</text>
<text text-anchor="start" x="124" y="-294.5" font-family="Helvetica,sans-Serif" font-size="10.00">* updateAll()</text>
</a>
</g>
</g>
<!-- Node2&#45;&gt;Node1 -->
<g id="edge1" class="edge">
<title>Node2&#45;&gt;Node1</title>
<path fill="none" stroke="midnightblue" d="M172.5,-277.13C172.5,-268.53 172.5,-259.52 172.5,-250.59"/>
<polygon fill="none" stroke="midnightblue" points="169,-277.39 172.5,-287.39 176,-277.39 169,-277.39"/>
</g>
<!-- Node3 -->
<g id="node3" class="node">
<title>Node3</title>
<g id="a_node3"><a xlink:href="../../d8/d1a/classAH_1_1UpdatableCRTP.html" target="_top" xlink:title=" ">
<polygon fill="white" stroke="black" points="96,-414.5 96,-702.5 249,-702.5 249,-414.5 96,-414.5"/>
<text text-anchor="start" x="104" y="-690.5" font-family="Helvetica,sans-Serif" font-size="10.00">UpdatableCRTP&lt; Updatable</text>
<text text-anchor="start" x="104" y="-679.5" font-family="Helvetica,sans-Serif" font-size="10.00">&lt; NormalUpdatable, false</text>
<text text-anchor="middle" x="172.5" y="-668.5" font-family="Helvetica,sans-Serif" font-size="10.00"> &gt;, false &gt;</text>
<polyline fill="none" stroke="black" points="96,-661.5 249,-661.5 "/>
<text text-anchor="start" x="104" y="-649.5" font-family="Helvetica,sans-Serif" font-size="10.00"># updatables</text>
<text text-anchor="start" x="104" y="-638.5" font-family="Helvetica,sans-Serif" font-size="10.00"># mutex</text>
<polyline fill="none" stroke="black" points="96,-631.5 249,-631.5 "/>
<text text-anchor="start" x="104" y="-619.5" font-family="Helvetica,sans-Serif" font-size="10.00">+ ~UpdatableCRTP()</text>
<text text-anchor="start" x="104" y="-608.5" font-family="Helvetica,sans-Serif" font-size="10.00">+ getMutex()</text>
<text text-anchor="start" x="104" y="-597.5" font-family="Helvetica,sans-Serif" font-size="10.00"># UpdatableCRTP()</text>
<text text-anchor="start" x="104" y="-586.5" font-family="Helvetica,sans-Serif" font-size="10.00">* method</text>
<text text-anchor="start" x="104" y="-575.5" font-family="Helvetica,sans-Serif" font-size="10.00">* args</text>
<text text-anchor="start" x="104" y="-564.5" font-family="Helvetica,sans-Serif" font-size="10.00">* enable()</text>
<text text-anchor="start" x="104" y="-553.5" font-family="Helvetica,sans-Serif" font-size="10.00">* enable()</text>
<text text-anchor="start" x="104" y="-542.5" font-family="Helvetica,sans-Serif" font-size="10.00">* disable()</text>
<text text-anchor="start" x="104" y="-531.5" font-family="Helvetica,sans-Serif" font-size="10.00">* disable()</text>
<text text-anchor="start" x="104" y="-520.5" font-family="Helvetica,sans-Serif" font-size="10.00">* isEnabled()</text>
<text text-anchor="start" x="104" y="-509.5" font-family="Helvetica,sans-Serif" font-size="10.00">* isEnabled()</text>
<text text-anchor="start" x="104" y="-498.5" font-family="Helvetica,sans-Serif" font-size="10.00">* moveDown()</text>
<text text-anchor="start" x="104" y="-487.5" font-family="Helvetica,sans-Serif" font-size="10.00">* moveDown()</text>
<text text-anchor="start" x="104" y="-476.5" font-family="Helvetica,sans-Serif" font-size="10.00">* enable()</text>
<text text-anchor="start" x="104" y="-465.5" font-family="Helvetica,sans-Serif" font-size="10.00">* enable()</text>
<text text-anchor="start" x="104" y="-454.5" font-family="Helvetica,sans-Serif" font-size="10.00">* enable()</text>
<text text-anchor="start" x="104" y="-443.5" font-family="Helvetica,sans-Serif" font-size="10.00">* disable()</text>
<text text-anchor="start" x="104" y="-432.5" font-family="Helvetica,sans-Serif" font-size="10.00">* disable()</text>
<text text-anchor="start" x="104" y="-421.5" font-family="Helvetica,sans-Serif" font-size="10.00">* disable()</text>
</a>
</g>
</g>
<!-- Node3&#45;&gt;Node2 -->
<g id="edge2" class="edge">
<title>Node3&#45;&gt;Node2</title>
<path fill="none" stroke="midnightblue" d="M172.5,-404.13C172.5,-394.84 172.5,-385.99 172.5,-377.89"/>
<polygon fill="none" stroke="midnightblue" points="169,-404.37 172.5,-414.37 176,-404.37 169,-404.37"/>
</g>
<!-- Node4 -->
<g id="node4" class="node">
<title>Node4</title>
<g id="a_node4"><a xlink:href="../../d4/d23/classDoublyLinkable.html" target="_top" xlink:title=" ">
<polygon fill="white" stroke="black" points="89,-739.5 89,-818.5 256,-818.5 256,-739.5 89,-739.5"/>
<text text-anchor="start" x="97" y="-806.5" font-family="Helvetica,sans-Serif" font-size="10.00">DoublyLinkable&lt; Updatable</text>
<text text-anchor="middle" x="172.5" y="-795.5" font-family="Helvetica,sans-Serif" font-size="10.00">&lt; NormalUpdatable, false &gt; &gt;</text>
<polyline fill="none" stroke="black" points="89,-788.5 256,-788.5 "/>
<text text-anchor="start" x="97" y="-776.5" font-family="Helvetica,sans-Serif" font-size="10.00"># next</text>
<text text-anchor="start" x="97" y="-765.5" font-family="Helvetica,sans-Serif" font-size="10.00"># previous</text>
<polyline fill="none" stroke="black" points="89,-758.5 256,-758.5 "/>
<text text-anchor="start" x="97" y="-746.5" font-family="Helvetica,sans-Serif" font-size="10.00"># ~DoublyLinkable()</text>
</a>
</g>
</g>
<!-- Node4&#45;&gt;Node3 -->
<g id="edge3" class="edge">
<title>Node4&#45;&gt;Node3</title>
<path fill="none" stroke="midnightblue" d="M172.5,-729.32C172.5,-721.02 172.5,-712.04 172.5,-702.69"/>
<polygon fill="none" stroke="midnightblue" points="169,-729.44 172.5,-739.44 176,-729.44 169,-729.44"/>
</g>
</g>
</svg>
