<?xml version="1.0" encoding="UTF-8" standalone="no"?>
<!DOCTYPE svg PUBLIC "-//W3C//DTD SVG 1.1//EN"
 "http://www.w3.org/Graphics/SVG/1.1/DTD/svg11.dtd">
<!-- Generated by graphviz version 2.43.0 (0)
 -->
<!-- Title: StaticSizeExtendedIOElement.hpp Pages: 1 -->
<svg width="1648pt" height="834pt"
 viewBox="0.00 0.00 1647.50 834.00" xmlns="http://www.w3.org/2000/svg" xmlns:xlink="http://www.w3.org/1999/xlink">
<g id="graph0" class="graph" transform="scale(1 1) rotate(0) translate(4 830)">
<title>StaticSizeExtendedIOElement.hpp</title>
<polygon fill="white" stroke="transparent" points="-4,4 -4,-830 1643.5,-830 1643.5,4 -4,4"/>
<!-- Node1 -->
<g id="node1" class="node">
<title>Node1</title>
<g id="a_node1"><a xlink:title=" ">
<polygon fill="#bfbfbf" stroke="black" points="311,-806.5 311,-825.5 493,-825.5 493,-806.5 311,-806.5"/>
<text text-anchor="middle" x="402" y="-813.5" font-family="Helvetica,sans-Serif" font-size="10.00">StaticSizeExtendedIOElement.hpp</text>
</a>
</g>
</g>
<!-- Node2 -->
<g id="node2" class="node">
<title>Node2</title>
<g id="a_node2"><a xlink:href="../../d1/d65/Warnings_8hpp.html" target="_top" xlink:title=" ">
<polygon fill="white" stroke="black" points="565.5,-0.5 565.5,-19.5 708.5,-19.5 708.5,-0.5 565.5,-0.5"/>
<text text-anchor="middle" x="637" y="-7.5" font-family="Helvetica,sans-Serif" font-size="10.00">AH/Settings/Warnings.hpp</text>
</a>
</g>
</g>
<!-- Node1&#45;&gt;Node2 -->
<g id="edge1" class="edge">
<title>Node1&#45;&gt;Node2</title>
<path fill="none" stroke="midnightblue" d="M310.78,-808.33C192.17,-797.11 0,-769.04 0,-705 0,-705 0,-705 0,-121 0,-83.72 19.97,-73.27 53,-56 96.38,-33.31 404.97,-19.29 555.21,-13.74"/>
<polygon fill="midnightblue" stroke="midnightblue" points="555.45,-17.23 565.31,-13.37 555.19,-10.24 555.45,-17.23"/>
</g>
<!-- Node3 -->
<g id="node3" class="node">
<title>Node3</title>
<g id="a_node3"><a xlink:href="../../d4/d57/ExtendedIOElement_8hpp.html" target="_top" xlink:title=" ">
<polygon fill="white" stroke="black" points="335,-750.5 335,-769.5 469,-769.5 469,-750.5 335,-750.5"/>
<text text-anchor="middle" x="402" y="-757.5" font-family="Helvetica,sans-Serif" font-size="10.00">ExtendedIOElement.hpp</text>
</a>
</g>
</g>
<!-- Node1&#45;&gt;Node3 -->
<g id="edge2" class="edge">
<title>Node1&#45;&gt;Node3</title>
<path fill="none" stroke="midnightblue" d="M402,-806.08C402,-799.01 402,-788.86 402,-779.99"/>
<polygon fill="midnightblue" stroke="midnightblue" points="405.5,-779.75 402,-769.75 398.5,-779.75 405.5,-779.75"/>
</g>
<!-- Node36 -->
<g id="node36" class="node">
<title>Node36</title>
<g id="a_node36"><a xlink:href="../../d5/db6/ArrayHelpers_8hpp.html" target="_top" xlink:title=" ">
<polygon fill="white" stroke="black" points="1385,-566 1385,-585 1559,-585 1559,-566 1385,-566"/>
<text text-anchor="middle" x="1472" y="-573" font-family="Helvetica,sans-Serif" font-size="10.00">AH/Containers/ArrayHelpers.hpp</text>
</a>
</g>
</g>
<!-- Node1&#45;&gt;Node36 -->
<g id="edge72" class="edge">
<title>Node1&#45;&gt;Node36</title>
<path fill="none" stroke="midnightblue" d="M440.4,-806.44C603.98,-769.98 1242.63,-627.63 1423.83,-587.24"/>
<polygon fill="midnightblue" stroke="midnightblue" points="1424.86,-590.59 1433.86,-585 1423.34,-583.76 1424.86,-590.59"/>
</g>
<!-- Node3&#45;&gt;Node2 -->
<g id="edge3" class="edge">
<title>Node3&#45;&gt;Node2</title>
<path fill="none" stroke="midnightblue" d="M334.81,-751.59C229.64,-738.1 38,-705.08 38,-643.5 38,-643.5 38,-643.5 38,-121 38,-85.09 54.62,-73.47 86,-56 125.95,-33.76 411.7,-19.69 555.21,-13.96"/>
<polygon fill="midnightblue" stroke="midnightblue" points="555.43,-17.45 565.29,-13.56 555.16,-10.46 555.43,-17.45"/>
</g>
<!-- Node4 -->
<g id="node4" class="node">
<title>Node4</title>
<g id="a_node4"><a xlink:href="../../dd/ddf/ExtendedInputOutput_8hpp.html" target="_top" xlink:title=" ">
<polygon fill="white" stroke="black" points="282.5,-694.5 282.5,-713.5 423.5,-713.5 423.5,-694.5 282.5,-694.5"/>
<text text-anchor="middle" x="353" y="-701.5" font-family="Helvetica,sans-Serif" font-size="10.00">ExtendedInputOutput.hpp</text>
</a>
</g>
</g>
<!-- Node3&#45;&gt;Node4 -->
<g id="edge4" class="edge">
<title>Node3&#45;&gt;Node4</title>
<path fill="none" stroke="midnightblue" d="M393.91,-750.08C386.84,-742.3 376.41,-730.8 367.85,-721.37"/>
<polygon fill="midnightblue" stroke="midnightblue" points="370.25,-718.8 360.94,-713.75 365.07,-723.51 370.25,-718.8"/>
</g>
<!-- Node6 -->
<g id="node6" class="node">
<title>Node6</title>
<g id="a_node6"><a xlink:href="../../d4/d35/Hardware-Types_8hpp.html" target="_top" xlink:title=" ">
<polygon fill="white" stroke="black" points="330.5,-560.5 330.5,-590.5 461.5,-590.5 461.5,-560.5 330.5,-560.5"/>
<text text-anchor="start" x="338.5" y="-578.5" font-family="Helvetica,sans-Serif" font-size="10.00">AH/Hardware/Hardware</text>
<text text-anchor="middle" x="396" y="-567.5" font-family="Helvetica,sans-Serif" font-size="10.00">&#45;Types.hpp</text>
</a>
</g>
</g>
<!-- Node3&#45;&gt;Node6 -->
<g id="edge71" class="edge">
<title>Node3&#45;&gt;Node6</title>
<path fill="none" stroke="midnightblue" d="M410.21,-750.18C417.54,-741.66 427.76,-728.02 432,-714 443.2,-676.99 443.78,-663.83 432,-627 428.74,-616.8 422.58,-606.9 416.26,-598.62"/>
<polygon fill="midnightblue" stroke="midnightblue" points="418.77,-596.15 409.74,-590.61 413.34,-600.58 418.77,-596.15"/>
</g>
<!-- Node31 -->
<g id="node31" class="node">
<title>Node31</title>
<g id="a_node31"><a xlink:href="../../d4/d93/Updatable_8hpp.html" target="_top" xlink:title=" ">
<polygon fill="white" stroke="black" points="917.5,-504.5 917.5,-523.5 1078.5,-523.5 1078.5,-504.5 917.5,-504.5"/>
<text text-anchor="middle" x="998" y="-511.5" font-family="Helvetica,sans-Serif" font-size="10.00">AH/Containers/Updatable.hpp</text>
</a>
</g>
</g>
<!-- Node3&#45;&gt;Node31 -->
<g id="edge57" class="edge">
<title>Node3&#45;&gt;Node31</title>
<path fill="none" stroke="midnightblue" d="M442.94,-750.43C531.03,-730.9 743.52,-677.95 903,-591 933.55,-574.34 964.13,-547.64 982.04,-530.73"/>
<polygon fill="midnightblue" stroke="midnightblue" points="984.55,-533.17 989.34,-523.72 979.7,-528.13 984.55,-533.17"/>
</g>
<!-- Node4&#45;&gt;Node2 -->
<g id="edge56" class="edge">
<title>Node4&#45;&gt;Node2</title>
<path fill="none" stroke="midnightblue" d="M282.38,-700.39C200.32,-693.13 76,-667.17 76,-576.5 76,-576.5 76,-576.5 76,-121 76,-87.54 85.72,-73.88 114,-56 150.35,-33.02 417.48,-19.46 555.27,-13.92"/>
<polygon fill="midnightblue" stroke="midnightblue" points="555.51,-17.42 565.36,-13.52 555.23,-10.42 555.51,-17.42"/>
</g>
<!-- Node5 -->
<g id="node5" class="node">
<title>Node5</title>
<g id="a_node5"><a xlink:href="../../d2/d3c/Arduino-Hardware-Types_8hpp.html" target="_top" xlink:title=" ">
<polygon fill="white" stroke="black" points="196,-627.5 196,-657.5 318,-657.5 318,-627.5 196,-627.5"/>
<text text-anchor="start" x="204" y="-645.5" font-family="Helvetica,sans-Serif" font-size="10.00">AH/Hardware/Arduino</text>
<text text-anchor="middle" x="257" y="-634.5" font-family="Helvetica,sans-Serif" font-size="10.00">&#45;Hardware&#45;Types.hpp</text>
</a>
</g>
</g>
<!-- Node4&#45;&gt;Node5 -->
<g id="edge5" class="edge">
<title>Node4&#45;&gt;Node5</title>
<path fill="none" stroke="midnightblue" d="M339.25,-694.48C326,-686.27 305.5,-673.56 288.28,-662.88"/>
<polygon fill="midnightblue" stroke="midnightblue" points="289.97,-659.82 279.63,-657.52 286.28,-665.77 289.97,-659.82"/>
</g>
<!-- Node11 -->
<g id="node11" class="node">
<title>Node11</title>
<g id="a_node11"><a xlink:href="../../d6/db0/AH_2Settings_2NamespaceSettings_8hpp.html" target="_top" xlink:title=" ">
<polygon fill="white" stroke="black" points="683.5,-56.5 683.5,-75.5 878.5,-75.5 878.5,-56.5 683.5,-56.5"/>
<text text-anchor="middle" x="781" y="-63.5" font-family="Helvetica,sans-Serif" font-size="10.00">AH/Settings/NamespaceSettings.hpp</text>
</a>
</g>
</g>
<!-- Node4&#45;&gt;Node11 -->
<g id="edge55" class="edge">
<title>Node4&#45;&gt;Node11</title>
<path fill="none" stroke="midnightblue" d="M374.8,-694.35C391.91,-686.74 415.52,-674.33 432,-658 456.48,-633.75 461.16,-624.02 471,-591 486.22,-539.93 460.33,-151.6 496,-112 519.48,-85.92 602.63,-74.91 673.1,-70.29"/>
<polygon fill="midnightblue" stroke="midnightblue" points="673.63,-73.76 683.4,-69.65 673.2,-66.77 673.63,-73.76"/>
</g>
<!-- Node30 -->
<g id="node30" class="node">
<title>Node30</title>
<g id="a_node30"><a xlink:title=" ">
<polygon fill="white" stroke="#bfbfbf" points="336.5,-633 336.5,-652 423.5,-652 423.5,-633 336.5,-633"/>
<text text-anchor="middle" x="380" y="-640" font-family="Helvetica,sans-Serif" font-size="10.00">AH/STL/climits</text>
</a>
</g>
</g>
<!-- Node4&#45;&gt;Node30 -->
<g id="edge54" class="edge">
<title>Node4&#45;&gt;Node30</title>
<path fill="none" stroke="midnightblue" d="M356.87,-694.48C360.8,-685.82 367,-672.15 371.99,-661.15"/>
<polygon fill="midnightblue" stroke="midnightblue" points="375.19,-662.56 376.14,-652.01 368.82,-659.67 375.19,-662.56"/>
</g>
<!-- Node5&#45;&gt;Node2 -->
<g id="edge6" class="edge">
<title>Node5&#45;&gt;Node2</title>
<path fill="none" stroke="midnightblue" d="M265.68,-627.29C278.75,-604.48 302,-557.89 302,-515 302,-515 302,-515 302,-289 302,-164.38 347.39,-113.41 458,-56 490.61,-39.08 529.9,-28.29 563.36,-21.53"/>
<polygon fill="midnightblue" stroke="midnightblue" points="564.39,-24.9 573.55,-19.56 563.06,-18.02 564.39,-24.9"/>
</g>
<!-- Node5&#45;&gt;Node6 -->
<g id="edge7" class="edge">
<title>Node5&#45;&gt;Node6</title>
<path fill="none" stroke="midnightblue" d="M287.16,-627.4C307.56,-617.86 334.7,-605.16 356.78,-594.84"/>
<polygon fill="midnightblue" stroke="midnightblue" points="358.32,-597.98 365.9,-590.58 355.36,-591.64 358.32,-597.98"/>
</g>
<!-- Node12 -->
<g id="node12" class="node">
<title>Node12</title>
<g id="a_node12"><a xlink:href="../../d6/ddf/Arduino-Wrapper_8h.html" target="_top" xlink:title=" ">
<polygon fill="white" stroke="black" points="1010,-168.5 1010,-187.5 1134,-187.5 1134,-168.5 1010,-168.5"/>
<text text-anchor="middle" x="1072" y="-175.5" font-family="Helvetica,sans-Serif" font-size="10.00">AH/Arduino&#45;Wrapper.h</text>
</a>
</g>
</g>
<!-- Node5&#45;&gt;Node12 -->
<g id="edge53" class="edge">
<title>Node5&#45;&gt;Node12</title>
<path fill="none" stroke="midnightblue" d="M318.08,-627.93C360.99,-618.19 419.67,-604.46 471,-591 574.82,-563.78 603.15,-563.36 703,-524 823.57,-476.48 846.29,-448.34 963,-392 1105.21,-323.36 1200.71,-376.89 1286,-244 1290.8,-236.52 1291.6,-230.9 1286,-224 1276.71,-212.56 1199.97,-198.44 1141.01,-189.1"/>
<polygon fill="midnightblue" stroke="midnightblue" points="1141.4,-185.62 1130.98,-187.53 1140.31,-192.54 1141.4,-185.62"/>
</g>
<!-- Node27 -->
<g id="node27" class="node">
<title>Node27</title>
<g id="a_node27"><a xlink:href="../../d0/db1/FunctionTraits_8hpp.html" target="_top" xlink:title=" ">
<polygon fill="white" stroke="black" points="142.5,-112.5 142.5,-131.5 295.5,-131.5 295.5,-112.5 142.5,-112.5"/>
<text text-anchor="middle" x="219" y="-119.5" font-family="Helvetica,sans-Serif" font-size="10.00">AH/Types/FunctionTraits.hpp</text>
</a>
</g>
</g>
<!-- Node5&#45;&gt;Node27 -->
<g id="edge48" class="edge">
<title>Node5&#45;&gt;Node27</title>
<path fill="none" stroke="midnightblue" d="M233.44,-627.4C202.48,-606.88 152,-565.66 152,-515 152,-515 152,-515 152,-233 152,-194.7 181.99,-158.42 201.84,-138.59"/>
<polygon fill="midnightblue" stroke="midnightblue" points="204.33,-141.05 209.11,-131.6 199.48,-136 204.33,-141.05"/>
</g>
<!-- Node6&#45;&gt;Node2 -->
<g id="edge8" class="edge">
<title>Node6&#45;&gt;Node2</title>
<path fill="none" stroke="midnightblue" d="M330.25,-565.52C269.97,-553.14 190,-524.4 190,-459 190,-459 190,-459 190,-401 190,-319.86 114,-316.14 114,-235 114,-235 114,-235 114,-121 114,-90.9 109.74,-75.11 133,-56 164.84,-29.84 420.7,-17.86 555.13,-13.32"/>
<polygon fill="midnightblue" stroke="midnightblue" points="555.51,-16.81 565.38,-12.98 555.27,-9.81 555.51,-16.81"/>
</g>
<!-- Node7 -->
<g id="node7" class="node">
<title>Node7</title>
<g id="a_node7"><a xlink:href="../../de/d76/Array_8hpp.html" target="_top" xlink:title=" ">
<polygon fill="white" stroke="black" points="558.5,-504.5 558.5,-523.5 693.5,-523.5 693.5,-504.5 558.5,-504.5"/>
<text text-anchor="middle" x="626" y="-511.5" font-family="Helvetica,sans-Serif" font-size="10.00">AH/Containers/Array.hpp</text>
</a>
</g>
</g>
<!-- Node6&#45;&gt;Node7 -->
<g id="edge9" class="edge">
<title>Node6&#45;&gt;Node7</title>
<path fill="none" stroke="midnightblue" d="M450.22,-560.47C490.76,-549.99 545.45,-535.84 583.01,-526.12"/>
<polygon fill="midnightblue" stroke="midnightblue" points="584.31,-529.4 593.12,-523.51 582.56,-522.62 584.31,-529.4"/>
</g>
<!-- Node6&#45;&gt;Node11 -->
<g id="edge46" class="edge">
<title>Node6&#45;&gt;Node11</title>
<path fill="none" stroke="midnightblue" d="M400.05,-560.41C405.89,-538.79 416,-496.04 416,-459 416,-459 416,-459 416,-289 416,-207.72 401.34,-166.1 462,-112 492.62,-84.69 592.93,-73.9 672.99,-69.67"/>
<polygon fill="midnightblue" stroke="midnightblue" points="673.33,-73.16 683.14,-69.16 672.98,-66.16 673.33,-73.16"/>
</g>
<!-- Node24 -->
<g id="node24" class="node">
<title>Node24</title>
<g id="a_node24"><a xlink:title=" ">
<polygon fill="white" stroke="#bfbfbf" points="520.5,-224.5 520.5,-243.5 573.5,-243.5 573.5,-224.5 520.5,-224.5"/>
<text text-anchor="middle" x="547" y="-231.5" font-family="Helvetica,sans-Serif" font-size="10.00">stdint.h</text>
</a>
</g>
</g>
<!-- Node6&#45;&gt;Node24 -->
<g id="edge47" class="edge">
<title>Node6&#45;&gt;Node24</title>
<path fill="none" stroke="midnightblue" d="M434.4,-560.46C474,-543.21 530,-509.83 530,-459 530,-459 530,-459 530,-345 530,-312.58 537.3,-275.42 542.33,-253.64"/>
<polygon fill="midnightblue" stroke="midnightblue" points="545.77,-254.31 544.71,-243.77 538.97,-252.67 545.77,-254.31"/>
</g>
<!-- Node7&#45;&gt;Node2 -->
<g id="edge10" class="edge">
<title>Node7&#45;&gt;Node2</title>
<path fill="none" stroke="midnightblue" d="M576.51,-504.49C494.65,-488.99 340,-453.07 340,-403 340,-403 340,-403 340,-289 340,-166.32 389.16,-128.67 488,-56 510.97,-39.11 540.32,-28.5 566.89,-21.86"/>
<polygon fill="midnightblue" stroke="midnightblue" points="567.98,-25.2 576.92,-19.5 566.38,-18.38 567.98,-25.2"/>
</g>
<!-- Node8 -->
<g id="node8" class="node">
<title>Node8</title>
<g id="a_node8"><a xlink:href="../../d1/d93/Error_8hpp.html" target="_top" xlink:title=" ">
<polygon fill="white" stroke="black" points="558,-448.5 558,-467.5 662,-467.5 662,-448.5 558,-448.5"/>
<text text-anchor="middle" x="610" y="-455.5" font-family="Helvetica,sans-Serif" font-size="10.00">AH/Error/Error.hpp</text>
</a>
</g>
</g>
<!-- Node7&#45;&gt;Node8 -->
<g id="edge11" class="edge">
<title>Node7&#45;&gt;Node8</title>
<path fill="none" stroke="midnightblue" d="M623.36,-504.08C621.21,-496.85 618.12,-486.41 615.45,-477.4"/>
<polygon fill="midnightblue" stroke="midnightblue" points="618.79,-476.34 612.59,-467.75 612.08,-478.33 618.79,-476.34"/>
</g>
<!-- Node16 -->
<g id="node16" class="node">
<title>Node16</title>
<g id="a_node16"><a xlink:title=" ">
<polygon fill="white" stroke="#bfbfbf" points="504.5,-112.5 504.5,-131.5 611.5,-131.5 611.5,-112.5 504.5,-112.5"/>
<text text-anchor="middle" x="558" y="-119.5" font-family="Helvetica,sans-Serif" font-size="10.00">AH/STL/type_traits</text>
</a>
</g>
</g>
<!-- Node7&#45;&gt;Node16 -->
<g id="edge44" class="edge">
<title>Node7&#45;&gt;Node16</title>
<path fill="none" stroke="midnightblue" d="M581.66,-504.44C510.33,-487.8 378,-443.89 378,-347 378,-347 378,-347 378,-289 378,-209.73 473.51,-157.86 525.39,-135.54"/>
<polygon fill="midnightblue" stroke="midnightblue" points="526.96,-138.67 534.84,-131.59 524.26,-132.22 526.96,-138.67"/>
</g>
<!-- Node23 -->
<g id="node23" class="node">
<title>Node23</title>
<g id="a_node23"><a xlink:title=" ">
<polygon fill="white" stroke="#bfbfbf" points="1029,-224.5 1029,-243.5 1085,-243.5 1085,-224.5 1029,-224.5"/>
<text text-anchor="middle" x="1057" y="-231.5" font-family="Helvetica,sans-Serif" font-size="10.00">stddef.h</text>
</a>
</g>
</g>
<!-- Node7&#45;&gt;Node23 -->
<g id="edge45" class="edge">
<title>Node7&#45;&gt;Node23</title>
<path fill="none" stroke="midnightblue" d="M657.62,-504.39C708.25,-489.81 809.7,-457.39 887,-412 954.23,-372.53 972.61,-360.32 1022,-300 1033.78,-285.62 1043.44,-266.67 1049.61,-252.94"/>
<polygon fill="midnightblue" stroke="midnightblue" points="1052.88,-254.2 1053.62,-243.63 1046.45,-251.43 1052.88,-254.2"/>
</g>
<!-- Node26 -->
<g id="node26" class="node">
<title>Node26</title>
<g id="a_node26"><a xlink:title=" ">
<polygon fill="white" stroke="#bfbfbf" points="972,-392.5 972,-411.5 1062,-411.5 1062,-392.5 972,-392.5"/>
<text text-anchor="middle" x="1017" y="-399.5" font-family="Helvetica,sans-Serif" font-size="10.00">AH/STL/iterator</text>
</a>
</g>
</g>
<!-- Node7&#45;&gt;Node26 -->
<g id="edge43" class="edge">
<title>Node7&#45;&gt;Node26</title>
<path fill="none" stroke="midnightblue" d="M692.36,-504.47C740.85,-497.29 807.84,-485.38 865,-468 910.64,-454.13 961.09,-430.87 990.86,-416.26"/>
<polygon fill="midnightblue" stroke="midnightblue" points="992.73,-419.24 1000.13,-411.66 989.62,-412.97 992.73,-419.24"/>
</g>
<!-- Node8&#45;&gt;Node2 -->
<g id="edge12" class="edge">
<title>Node8&#45;&gt;Node2</title>
<path fill="none" stroke="midnightblue" d="M600.51,-448.37C557.81,-408.5 388.83,-238.71 462,-112 490.01,-63.49 551.18,-36.2 593.23,-22.53"/>
<polygon fill="midnightblue" stroke="midnightblue" points="594.44,-25.82 602.95,-19.5 592.36,-19.13 594.44,-25.82"/>
</g>
<!-- Node9 -->
<g id="node9" class="node">
<title>Node9</title>
<g id="a_node9"><a xlink:href="../../df/dee/Debug_8hpp.html" target="_top" xlink:title=" ">
<polygon fill="white" stroke="black" points="756.5,-392.5 756.5,-411.5 877.5,-411.5 877.5,-392.5 756.5,-392.5"/>
<text text-anchor="middle" x="817" y="-399.5" font-family="Helvetica,sans-Serif" font-size="10.00">AH/Debug/Debug.hpp</text>
</a>
</g>
</g>
<!-- Node8&#45;&gt;Node9 -->
<g id="edge13" class="edge">
<title>Node8&#45;&gt;Node9</title>
<path fill="none" stroke="midnightblue" d="M642.8,-448.44C678.38,-439.16 735.31,-424.31 774.35,-414.13"/>
<polygon fill="midnightblue" stroke="midnightblue" points="775.56,-417.43 784.35,-411.52 773.79,-410.65 775.56,-417.43"/>
</g>
<!-- Node9&#45;&gt;Node2 -->
<g id="edge14" class="edge">
<title>Node9&#45;&gt;Node2</title>
<path fill="none" stroke="midnightblue" d="M768.63,-392.49C716.23,-380.16 640,-351.78 640,-291 640,-291 640,-291 640,-177 640,-123.58 638.43,-60.51 637.56,-29.76"/>
<polygon fill="midnightblue" stroke="midnightblue" points="641.05,-29.53 637.27,-19.64 634.06,-29.74 641.05,-29.53"/>
</g>
<!-- Node10 -->
<g id="node10" class="node">
<title>Node10</title>
<g id="a_node10"><a xlink:href="../../dd/d80/PrintStream_8hpp.html" target="_top" xlink:title=" ">
<polygon fill="white" stroke="black" points="1103.5,-224.5 1103.5,-243.5 1276.5,-243.5 1276.5,-224.5 1103.5,-224.5"/>
<text text-anchor="middle" x="1190" y="-231.5" font-family="Helvetica,sans-Serif" font-size="10.00">AH/PrintStream/PrintStream.hpp</text>
</a>
</g>
</g>
<!-- Node9&#45;&gt;Node10 -->
<g id="edge15" class="edge">
<title>Node9&#45;&gt;Node10</title>
<path fill="none" stroke="midnightblue" d="M836.27,-392.42C897.53,-365.16 1088.1,-280.35 1161.12,-247.85"/>
<polygon fill="midnightblue" stroke="midnightblue" points="1162.91,-250.89 1170.62,-243.62 1160.06,-244.49 1162.91,-250.89"/>
</g>
<!-- Node18 -->
<g id="node18" class="node">
<title>Node18</title>
<g id="a_node18"><a xlink:href="../../de/dd1/AH_2Settings_2SettingsWrapper_8hpp.html" target="_top" xlink:title=" ">
<polygon fill="white" stroke="black" points="694,-336.5 694,-355.5 872,-355.5 872,-336.5 694,-336.5"/>
<text text-anchor="middle" x="783" y="-343.5" font-family="Helvetica,sans-Serif" font-size="10.00">AH/Settings/SettingsWrapper.hpp</text>
</a>
</g>
</g>
<!-- Node9&#45;&gt;Node18 -->
<g id="edge28" class="edge">
<title>Node9&#45;&gt;Node18</title>
<path fill="none" stroke="midnightblue" d="M806.22,-392.08C800.01,-384.69 792.84,-373.95 787.82,-364.81"/>
<polygon fill="midnightblue" stroke="midnightblue" points="790.93,-363.19 783.38,-355.75 784.64,-366.27 790.93,-363.19"/>
</g>
<!-- Node10&#45;&gt;Node2 -->
<g id="edge17" class="edge">
<title>Node10&#45;&gt;Node2</title>
<path fill="none" stroke="midnightblue" d="M1132.36,-224.48C1084.66,-216.5 1021.52,-203.5 1001,-188 947.33,-147.47 982.25,-94.36 927,-56 894.17,-33.21 792.68,-21.45 719.01,-15.76"/>
<polygon fill="midnightblue" stroke="midnightblue" points="719.04,-12.26 708.81,-15 718.52,-19.24 719.04,-12.26"/>
</g>
<!-- Node10&#45;&gt;Node11 -->
<g id="edge16" class="edge">
<title>Node10&#45;&gt;Node11</title>
<path fill="none" stroke="midnightblue" d="M1103.43,-224.75C993.2,-212.22 812.27,-184.14 773,-132 762.97,-118.68 767.05,-99.3 772.37,-85.16"/>
<polygon fill="midnightblue" stroke="midnightblue" points="775.76,-86.14 776.47,-75.57 769.33,-83.39 775.76,-86.14"/>
</g>
<!-- Node10&#45;&gt;Node12 -->
<g id="edge18" class="edge">
<title>Node10&#45;&gt;Node12</title>
<path fill="none" stroke="midnightblue" d="M1171.3,-224.44C1152.06,-215.64 1121.85,-201.81 1099.8,-191.72"/>
<polygon fill="midnightblue" stroke="midnightblue" points="1101.16,-188.5 1090.61,-187.52 1098.25,-194.86 1101.16,-188.5"/>
</g>
<!-- Node17 -->
<g id="node17" class="node">
<title>Node17</title>
<g id="a_node17"><a xlink:title=" ">
<polygon fill="white" stroke="#bfbfbf" points="1152,-168.5 1152,-187.5 1330,-187.5 1330,-168.5 1152,-168.5"/>
<text text-anchor="middle" x="1241" y="-175.5" font-family="Helvetica,sans-Serif" font-size="10.00">Settings/NamespaceSettings.hpp</text>
</a>
</g>
</g>
<!-- Node10&#45;&gt;Node17 -->
<g id="edge27" class="edge">
<title>Node10&#45;&gt;Node17</title>
<path fill="none" stroke="midnightblue" d="M1198.42,-224.08C1205.85,-216.22 1216.85,-204.57 1225.81,-195.08"/>
<polygon fill="midnightblue" stroke="midnightblue" points="1228.41,-197.42 1232.74,-187.75 1223.32,-192.62 1228.41,-197.42"/>
</g>
<!-- Node13 -->
<g id="node13" class="node">
<title>Node13</title>
<g id="a_node13"><a xlink:href="../../d7/d79/MinMaxFix_8hpp.html" target="_top" xlink:title=" ">
<polygon fill="white" stroke="black" points="1010,-112.5 1010,-131.5 1146,-131.5 1146,-112.5 1010,-112.5"/>
<text text-anchor="middle" x="1078" y="-119.5" font-family="Helvetica,sans-Serif" font-size="10.00">AH/Math/MinMaxFix.hpp</text>
</a>
</g>
</g>
<!-- Node12&#45;&gt;Node13 -->
<g id="edge19" class="edge">
<title>Node12&#45;&gt;Node13</title>
<path fill="none" stroke="midnightblue" d="M1072.99,-168.08C1073.79,-160.93 1074.93,-150.64 1075.92,-141.69"/>
<polygon fill="midnightblue" stroke="midnightblue" points="1079.4,-142.08 1077.03,-131.75 1072.44,-141.3 1079.4,-142.08"/>
</g>
<!-- Node15 -->
<g id="node15" class="node">
<title>Node15</title>
<g id="a_node15"><a xlink:title=" ">
<polygon fill="white" stroke="#bfbfbf" points="1289.5,-0.5 1289.5,-19.5 1352.5,-19.5 1352.5,-0.5 1289.5,-0.5"/>
<text text-anchor="middle" x="1321" y="-7.5" font-family="Helvetica,sans-Serif" font-size="10.00">Arduino.h</text>
</a>
</g>
</g>
<!-- Node12&#45;&gt;Node15 -->
<g id="edge26" class="edge">
<title>Node12&#45;&gt;Node15</title>
<path fill="none" stroke="midnightblue" d="M1089.55,-168.35C1106.62,-159.73 1133.1,-145.83 1155,-132 1210.44,-96.99 1271.86,-49.86 1302.09,-26.07"/>
<polygon fill="midnightblue" stroke="midnightblue" points="1304.41,-28.69 1310.09,-19.75 1300.07,-23.2 1304.41,-28.69"/>
</g>
<!-- Node12&#45;&gt;Node16 -->
<g id="edge25" class="edge">
<title>Node12&#45;&gt;Node16</title>
<path fill="none" stroke="midnightblue" d="M1010,-170.49C911.75,-160.16 721.25,-140.15 621.85,-129.71"/>
<polygon fill="midnightblue" stroke="midnightblue" points="621.96,-126.2 611.65,-128.64 621.23,-133.16 621.96,-126.2"/>
</g>
<!-- Node13&#45;&gt;Node2 -->
<g id="edge20" class="edge">
<title>Node13&#45;&gt;Node2</title>
<path fill="none" stroke="midnightblue" d="M1070.38,-112.48C1056.95,-98.08 1027.49,-69.22 996,-56 947.55,-35.66 809.1,-22.69 718.98,-16.14"/>
<polygon fill="midnightblue" stroke="midnightblue" points="719,-12.63 708.78,-15.41 718.51,-19.61 719,-12.63"/>
</g>
<!-- Node13&#45;&gt;Node11 -->
<g id="edge24" class="edge">
<title>Node13&#45;&gt;Node11</title>
<path fill="none" stroke="midnightblue" d="M1030.94,-112.44C978.59,-102.92 894.01,-87.55 837.96,-77.36"/>
<polygon fill="midnightblue" stroke="midnightblue" points="838.31,-73.86 827.84,-75.52 837.05,-80.75 838.31,-73.86"/>
</g>
<!-- Node14 -->
<g id="node14" class="node">
<title>Node14</title>
<g id="a_node14"><a xlink:href="../../d6/d3b/FixArduinoMacros_8hpp.html" target="_top" xlink:title=" ">
<polygon fill="white" stroke="black" points="1048,-56.5 1048,-75.5 1218,-75.5 1218,-56.5 1048,-56.5"/>
<text text-anchor="middle" x="1133" y="-63.5" font-family="Helvetica,sans-Serif" font-size="10.00">AH/Math/FixArduinoMacros.hpp</text>
</a>
</g>
</g>
<!-- Node13&#45;&gt;Node14 -->
<g id="edge21" class="edge">
<title>Node13&#45;&gt;Node14</title>
<path fill="none" stroke="midnightblue" d="M1087.08,-112.08C1095.17,-104.14 1107.2,-92.34 1116.91,-82.8"/>
<polygon fill="midnightblue" stroke="midnightblue" points="1119.4,-85.25 1124.09,-75.75 1114.5,-80.26 1119.4,-85.25"/>
</g>
<!-- Node14&#45;&gt;Node2 -->
<g id="edge22" class="edge">
<title>Node14&#45;&gt;Node2</title>
<path fill="none" stroke="midnightblue" d="M1054.68,-56.47C963.02,-46.49 811.95,-30.05 718.81,-19.91"/>
<polygon fill="midnightblue" stroke="midnightblue" points="719.19,-16.43 708.87,-18.82 718.43,-23.39 719.19,-16.43"/>
</g>
<!-- Node14&#45;&gt;Node15 -->
<g id="edge23" class="edge">
<title>Node14&#45;&gt;Node15</title>
<path fill="none" stroke="midnightblue" d="M1162.79,-56.44C1194.83,-47.24 1245.93,-32.56 1281.35,-22.39"/>
<polygon fill="midnightblue" stroke="midnightblue" points="1282.71,-25.64 1291.35,-19.52 1280.77,-18.91 1282.71,-25.64"/>
</g>
<!-- Node18&#45;&gt;Node2 -->
<g id="edge29" class="edge">
<title>Node18&#45;&gt;Node2</title>
<path fill="none" stroke="midnightblue" d="M764.71,-336.35C734.63,-320.69 678,-284.63 678,-235 678,-235 678,-235 678,-177 678,-122.01 656.53,-59.68 644.66,-29.43"/>
<polygon fill="midnightblue" stroke="midnightblue" points="647.77,-27.77 640.78,-19.81 641.28,-30.39 647.77,-27.77"/>
</g>
<!-- Node18&#45;&gt;Node9 -->
<g id="edge42" class="edge">
<title>Node18&#45;&gt;Node9</title>
<path fill="none" stroke="midnightblue" d="M793.64,-355.75C799.84,-363.09 807.02,-373.82 812.06,-382.98"/>
<polygon fill="midnightblue" stroke="midnightblue" points="808.99,-384.66 816.55,-392.08 815.27,-381.57 808.99,-384.66"/>
</g>
<!-- Node18&#45;&gt;Node11 -->
<g id="edge30" class="edge">
<title>Node18&#45;&gt;Node11</title>
<path fill="none" stroke="midnightblue" d="M770.91,-336.31C760.29,-328.08 745.13,-314.81 736,-300 720.13,-274.28 716,-265.23 716,-235 716,-235 716,-235 716,-177 716,-139.18 744.84,-102.94 764.09,-82.96"/>
<polygon fill="midnightblue" stroke="midnightblue" points="766.8,-85.2 771.41,-75.66 761.86,-80.24 766.8,-85.2"/>
</g>
<!-- Node19 -->
<g id="node19" class="node">
<title>Node19</title>
<g id="a_node19"><a xlink:href="../../d5/d4f/AH_2Settings_2Settings_8hpp.html" target="_top" xlink:title="All user settings and debugging options can be changed here.">
<polygon fill="white" stroke="black" points="744.5,-280.5 744.5,-299.5 821.5,-299.5 821.5,-280.5 744.5,-280.5"/>
<text text-anchor="middle" x="783" y="-287.5" font-family="Helvetica,sans-Serif" font-size="10.00">Settings.hpp</text>
</a>
</g>
</g>
<!-- Node18&#45;&gt;Node19 -->
<g id="edge31" class="edge">
<title>Node18&#45;&gt;Node19</title>
<path fill="none" stroke="midnightblue" d="M783,-336.08C783,-329.01 783,-318.86 783,-309.99"/>
<polygon fill="midnightblue" stroke="midnightblue" points="786.5,-309.75 783,-299.75 779.5,-309.75 786.5,-309.75"/>
</g>
<!-- Node25 -->
<g id="node25" class="node">
<title>Node25</title>
<g id="a_node25"><a xlink:href="../../d9/d98/TeensyUSBTypes_8hpp.html" target="_top" xlink:title=" ">
<polygon fill="white" stroke="black" points="839.5,-280.5 839.5,-299.5 1012.5,-299.5 1012.5,-280.5 839.5,-280.5"/>
<text text-anchor="middle" x="926" y="-287.5" font-family="Helvetica,sans-Serif" font-size="10.00">AH/Teensy/TeensyUSBTypes.hpp</text>
</a>
</g>
</g>
<!-- Node18&#45;&gt;Node25 -->
<g id="edge41" class="edge">
<title>Node18&#45;&gt;Node25</title>
<path fill="none" stroke="midnightblue" d="M805.66,-336.44C829.4,-327.48 866.91,-313.31 893.74,-303.18"/>
<polygon fill="midnightblue" stroke="midnightblue" points="895.33,-306.32 903.45,-299.52 892.86,-299.77 895.33,-306.32"/>
</g>
<!-- Node20 -->
<g id="node20" class="node">
<title>Node20</title>
<g id="a_node20"><a xlink:href="../../dc/d50/Frequency_8hpp.html" target="_top" xlink:title=" ">
<polygon fill="white" stroke="black" points="782,-112.5 782,-131.5 916,-131.5 916,-112.5 782,-112.5"/>
<text text-anchor="middle" x="849" y="-119.5" font-family="Helvetica,sans-Serif" font-size="10.00">AH/Types/Frequency.hpp</text>
</a>
</g>
</g>
<!-- Node19&#45;&gt;Node20 -->
<g id="edge32" class="edge">
<title>Node19&#45;&gt;Node20</title>
<path fill="none" stroke="midnightblue" d="M779.39,-280.36C774.63,-267.69 767.56,-243.47 774,-224 785.46,-189.34 813.92,-156.89 832.3,-138.54"/>
<polygon fill="midnightblue" stroke="midnightblue" points="834.74,-141.04 839.48,-131.57 829.87,-136.02 834.74,-141.04"/>
</g>
<!-- Node21 -->
<g id="node21" class="node">
<title>Node21</title>
<g id="a_node21"><a xlink:href="../../d7/d7c/ADCConfig_8hpp.html" target="_top" xlink:title="This file contains the platform&#45;specific ADC resolutions.">
<polygon fill="white" stroke="black" points="782.5,-224.5 782.5,-243.5 939.5,-243.5 939.5,-224.5 782.5,-224.5"/>
<text text-anchor="middle" x="861" y="-231.5" font-family="Helvetica,sans-Serif" font-size="10.00">AH/Hardware/ADCConfig.hpp</text>
</a>
</g>
</g>
<!-- Node19&#45;&gt;Node21 -->
<g id="edge35" class="edge">
<title>Node19&#45;&gt;Node21</title>
<path fill="none" stroke="midnightblue" d="M795.53,-280.32C807.59,-271.98 826.03,-259.21 840.27,-249.35"/>
<polygon fill="midnightblue" stroke="midnightblue" points="842.27,-252.22 848.5,-243.65 838.28,-246.47 842.27,-252.22"/>
</g>
<!-- Node22 -->
<g id="node22" class="node">
<title>Node22</title>
<g id="a_node22"><a xlink:title=" ">
<polygon fill="white" stroke="#bfbfbf" points="957.5,-224.5 957.5,-243.5 1010.5,-243.5 1010.5,-224.5 957.5,-224.5"/>
<text text-anchor="middle" x="984" y="-231.5" font-family="Helvetica,sans-Serif" font-size="10.00">limits.h</text>
</a>
</g>
</g>
<!-- Node19&#45;&gt;Node22 -->
<g id="edge38" class="edge">
<title>Node19&#45;&gt;Node22</title>
<path fill="none" stroke="midnightblue" d="M814.85,-280.44C850.87,-270.77 909.43,-255.03 947.33,-244.85"/>
<polygon fill="midnightblue" stroke="midnightblue" points="948.69,-248.11 957.44,-242.14 946.87,-241.35 948.69,-248.11"/>
</g>
<!-- Node19&#45;&gt;Node23 -->
<g id="edge39" class="edge">
<title>Node19&#45;&gt;Node23</title>
<path fill="none" stroke="midnightblue" d="M821.73,-281.7C879.09,-270.88 983.04,-251.25 1018.68,-244.11"/>
<polygon fill="midnightblue" stroke="midnightblue" points="1019.67,-247.48 1028.75,-242.03 1018.25,-240.62 1019.67,-247.48"/>
</g>
<!-- Node19&#45;&gt;Node24 -->
<g id="edge40" class="edge">
<title>Node19&#45;&gt;Node24</title>
<path fill="none" stroke="midnightblue" d="M745.61,-280.44C701.2,-270.28 627.64,-253.45 583.59,-243.37"/>
<polygon fill="midnightblue" stroke="midnightblue" points="584.13,-239.91 573.6,-241.09 582.57,-246.73 584.13,-239.91"/>
</g>
<!-- Node20&#45;&gt;Node2 -->
<g id="edge33" class="edge">
<title>Node20&#45;&gt;Node2</title>
<path fill="none" stroke="midnightblue" d="M860.74,-112.45C877.17,-99.47 903.37,-74.37 888,-56 866.63,-30.46 783.68,-19.4 718.92,-14.61"/>
<polygon fill="midnightblue" stroke="midnightblue" points="718.92,-11.11 708.7,-13.9 718.43,-18.09 718.92,-11.11"/>
</g>
<!-- Node20&#45;&gt;Node11 -->
<g id="edge34" class="edge">
<title>Node20&#45;&gt;Node11</title>
<path fill="none" stroke="midnightblue" d="M838.07,-112.32C827.83,-104.18 812.28,-91.84 800,-82.09"/>
<polygon fill="midnightblue" stroke="midnightblue" points="802.13,-79.31 792.12,-75.83 797.78,-84.79 802.13,-79.31"/>
</g>
<!-- Node21&#45;&gt;Node2 -->
<g id="edge36" class="edge">
<title>Node21&#45;&gt;Node2</title>
<path fill="none" stroke="midnightblue" d="M868.92,-224.4C883.45,-207.95 913.89,-170.28 925,-132 934.77,-98.34 931.04,-78.29 904,-56 876.31,-33.17 786.7,-21.57 718.86,-15.92"/>
<polygon fill="midnightblue" stroke="midnightblue" points="718.84,-12.41 708.6,-15.1 718.28,-19.38 718.84,-12.41"/>
</g>
<!-- Node21&#45;&gt;Node12 -->
<g id="edge37" class="edge">
<title>Node21&#45;&gt;Node12</title>
<path fill="none" stroke="midnightblue" d="M894.43,-224.44C930.86,-215.12 989.23,-200.18 1029.03,-190"/>
<polygon fill="midnightblue" stroke="midnightblue" points="1029.9,-193.39 1038.72,-187.52 1028.17,-186.61 1029.9,-193.39"/>
</g>
<!-- Node27&#45;&gt;Node2 -->
<g id="edge51" class="edge">
<title>Node27&#45;&gt;Node2</title>
<path fill="none" stroke="midnightblue" d="M243.58,-112.41C267.99,-103.73 306.37,-89.68 339,-76 358.44,-67.85 361.9,-62.33 382,-56 438.68,-38.15 504.82,-26.74 555.53,-19.87"/>
<polygon fill="midnightblue" stroke="midnightblue" points="556,-23.34 565.46,-18.56 555.09,-16.4 556,-23.34"/>
</g>
<!-- Node27&#45;&gt;Node11 -->
<g id="edge52" class="edge">
<title>Node27&#45;&gt;Node11</title>
<path fill="none" stroke="midnightblue" d="M295.67,-113.63C396.02,-103.99 572.04,-87.08 682.26,-76.49"/>
<polygon fill="midnightblue" stroke="midnightblue" points="682.76,-79.96 692.38,-75.51 682.09,-72.99 682.76,-79.96"/>
</g>
<!-- Node28 -->
<g id="node28" class="node">
<title>Node28</title>
<g id="a_node28"><a xlink:title=" ">
<polygon fill="white" stroke="#bfbfbf" points="240,-56.5 240,-75.5 330,-75.5 330,-56.5 240,-56.5"/>
<text text-anchor="middle" x="285" y="-63.5" font-family="Helvetica,sans-Serif" font-size="10.00">AH/STL/cstddef</text>
</a>
</g>
</g>
<!-- Node27&#45;&gt;Node28 -->
<g id="edge49" class="edge">
<title>Node27&#45;&gt;Node28</title>
<path fill="none" stroke="midnightblue" d="M229.6,-112.32C239.46,-104.26 254.35,-92.08 266.22,-82.37"/>
<polygon fill="midnightblue" stroke="midnightblue" points="268.68,-84.88 274.2,-75.83 264.25,-79.46 268.68,-84.88"/>
</g>
<!-- Node29 -->
<g id="node29" class="node">
<title>Node29</title>
<g id="a_node29"><a xlink:title=" ">
<polygon fill="white" stroke="#bfbfbf" points="142.5,-56.5 142.5,-75.5 221.5,-75.5 221.5,-56.5 142.5,-56.5"/>
<text text-anchor="middle" x="182" y="-63.5" font-family="Helvetica,sans-Serif" font-size="10.00">AH/STL/tuple</text>
</a>
</g>
</g>
<!-- Node27&#45;&gt;Node29 -->
<g id="edge50" class="edge">
<title>Node27&#45;&gt;Node29</title>
<path fill="none" stroke="midnightblue" d="M212.89,-112.08C207.72,-104.53 200.15,-93.49 193.81,-84.23"/>
<polygon fill="midnightblue" stroke="midnightblue" points="196.54,-82.02 188,-75.75 190.76,-85.98 196.54,-82.02"/>
</g>
<!-- Node31&#45;&gt;Node2 -->
<g id="edge58" class="edge">
<title>Node31&#45;&gt;Node2</title>
<path fill="none" stroke="midnightblue" d="M1078.84,-509.07C1192.83,-502.81 1389.8,-489.09 1415,-468 1438.08,-448.68 1434,-433.1 1434,-403 1434,-403 1434,-403 1434,-121 1434,-60.35 1372.27,-72.84 1314,-56 1204.56,-24.36 873.99,-14.84 718.94,-12.08"/>
<polygon fill="midnightblue" stroke="midnightblue" points="718.6,-8.57 708.54,-11.9 718.48,-15.57 718.6,-8.57"/>
</g>
<!-- Node31&#45;&gt;Node8 -->
<g id="edge66" class="edge">
<title>Node31&#45;&gt;Node8</title>
<path fill="none" stroke="midnightblue" d="M936.52,-504.44C864.17,-494.37 744.72,-477.75 672.11,-467.64"/>
<polygon fill="midnightblue" stroke="midnightblue" points="672.57,-464.17 662.18,-466.26 671.6,-471.11 672.57,-464.17"/>
</g>
<!-- Node31&#45;&gt;Node16 -->
<g id="edge67" class="edge">
<title>Node31&#45;&gt;Node16</title>
<path fill="none" stroke="midnightblue" d="M920.71,-504.47C805.46,-486.98 602,-435.63 602,-291 602,-291 602,-291 602,-233 602,-198.04 582.6,-161.01 569.57,-140.07"/>
<polygon fill="midnightblue" stroke="midnightblue" points="572.49,-138.15 564.12,-131.65 566.61,-141.95 572.49,-138.15"/>
</g>
<!-- Node31&#45;&gt;Node18 -->
<g id="edge69" class="edge">
<title>Node31&#45;&gt;Node18</title>
<path fill="none" stroke="midnightblue" d="M920.36,-504.47C862.16,-493.54 786.22,-468.66 748,-412 737.22,-396.01 751.2,-376.36 764.56,-362.88"/>
<polygon fill="midnightblue" stroke="midnightblue" points="767.28,-365.13 772.17,-355.73 762.48,-360.03 767.28,-365.13"/>
</g>
<!-- Node31&#45;&gt;Node23 -->
<g id="edge70" class="edge">
<title>Node31&#45;&gt;Node23</title>
<path fill="none" stroke="midnightblue" d="M992.24,-504.22C984.33,-490.95 972.32,-465.47 984,-448 1007.25,-413.21 1047.75,-446.79 1071,-412 1104.07,-362.53 1079.31,-287.03 1065.13,-252.88"/>
<polygon fill="midnightblue" stroke="midnightblue" points="1068.33,-251.47 1061.14,-243.68 1061.91,-254.25 1068.33,-251.47"/>
</g>
<!-- Node32 -->
<g id="node32" class="node">
<title>Node32</title>
<g id="a_node32"><a xlink:href="../../d4/dba/CRTP_8hpp.html" target="_top" xlink:title=" ">
<polygon fill="white" stroke="black" points="1170,-448.5 1170,-467.5 1304,-467.5 1304,-448.5 1170,-448.5"/>
<text text-anchor="middle" x="1237" y="-455.5" font-family="Helvetica,sans-Serif" font-size="10.00">AH/Containers/CRTP.hpp</text>
</a>
</g>
</g>
<!-- Node31&#45;&gt;Node32 -->
<g id="edge59" class="edge">
<title>Node31&#45;&gt;Node32</title>
<path fill="none" stroke="midnightblue" d="M1035.87,-504.44C1077.48,-495.04 1144.37,-479.93 1189.47,-469.74"/>
<polygon fill="midnightblue" stroke="midnightblue" points="1190.32,-473.13 1199.31,-467.52 1188.78,-466.31 1190.32,-473.13"/>
</g>
<!-- Node33 -->
<g id="node33" class="node">
<title>Node33</title>
<g id="a_node33"><a xlink:href="../../de/dd1/LinkedList_8hpp.html" target="_top" xlink:title=" ">
<polygon fill="white" stroke="black" points="992.5,-448.5 992.5,-467.5 1151.5,-467.5 1151.5,-448.5 992.5,-448.5"/>
<text text-anchor="middle" x="1072" y="-455.5" font-family="Helvetica,sans-Serif" font-size="10.00">AH/Containers/LinkedList.hpp</text>
</a>
</g>
</g>
<!-- Node31&#45;&gt;Node33 -->
<g id="edge60" class="edge">
<title>Node31&#45;&gt;Node33</title>
<path fill="none" stroke="midnightblue" d="M1009.89,-504.32C1021.15,-496.11 1038.29,-483.6 1051.71,-473.81"/>
<polygon fill="midnightblue" stroke="midnightblue" points="1053.88,-476.56 1059.89,-467.83 1049.75,-470.9 1053.88,-476.56"/>
</g>
<!-- Node35 -->
<g id="node35" class="node">
<title>Node35</title>
<g id="a_node35"><a xlink:title=" ">
<polygon fill="white" stroke="#bfbfbf" points="1322.5,-448.5 1322.5,-467.5 1405.5,-467.5 1405.5,-448.5 1322.5,-448.5"/>
<text text-anchor="middle" x="1364" y="-455.5" font-family="Helvetica,sans-Serif" font-size="10.00">AH/STL/utility</text>
</a>
</g>
</g>
<!-- Node31&#45;&gt;Node35 -->
<g id="edge68" class="edge">
<title>Node31&#45;&gt;Node35</title>
<path fill="none" stroke="midnightblue" d="M1062.04,-504.48C1123.52,-496.15 1219.24,-482.82 1312.13,-468.09"/>
<polygon fill="midnightblue" stroke="midnightblue" points="1312.95,-471.51 1322.27,-466.48 1311.84,-464.6 1312.95,-471.51"/>
</g>
<!-- Node33&#45;&gt;Node2 -->
<g id="edge61" class="edge">
<title>Node33&#45;&gt;Node2</title>
<path fill="none" stroke="midnightblue" d="M1102.48,-448.44C1183.14,-424.91 1396,-356.57 1396,-291 1396,-291 1396,-291 1396,-121 1396,-40.52 1305.51,-73.69 1227,-56 1132.53,-34.71 857.21,-20.37 718.65,-14.29"/>
<polygon fill="midnightblue" stroke="midnightblue" points="718.66,-10.79 708.51,-13.85 718.35,-17.78 718.66,-10.79"/>
</g>
<!-- Node33&#45;&gt;Node9 -->
<g id="edge62" class="edge">
<title>Node33&#45;&gt;Node9</title>
<path fill="none" stroke="midnightblue" d="M1031.59,-448.44C987.02,-439 915.23,-423.8 867.11,-413.61"/>
<polygon fill="midnightblue" stroke="midnightblue" points="867.72,-410.16 857.22,-411.52 866.27,-417.01 867.72,-410.16"/>
</g>
<!-- Node33&#45;&gt;Node13 -->
<g id="edge63" class="edge">
<title>Node33&#45;&gt;Node13</title>
<path fill="none" stroke="midnightblue" d="M1103.69,-448.47C1126.65,-441.25 1157.64,-429.3 1181,-412 1284.83,-335.12 1422.23,-266.81 1339,-168 1315.97,-140.65 1224.6,-129.93 1156.42,-125.72"/>
<polygon fill="midnightblue" stroke="midnightblue" points="1156.3,-122.2 1146.12,-125.12 1155.9,-129.19 1156.3,-122.2"/>
</g>
<!-- Node33&#45;&gt;Node26 -->
<g id="edge65" class="edge">
<title>Node33&#45;&gt;Node26</title>
<path fill="none" stroke="midnightblue" d="M1062.92,-448.08C1054.83,-440.14 1042.8,-428.34 1033.09,-418.8"/>
<polygon fill="midnightblue" stroke="midnightblue" points="1035.5,-416.26 1025.91,-411.75 1030.6,-421.25 1035.5,-416.26"/>
</g>
<!-- Node34 -->
<g id="node34" class="node">
<title>Node34</title>
<g id="a_node34"><a xlink:title=" ">
<polygon fill="white" stroke="#bfbfbf" points="1118.5,-392.5 1118.5,-411.5 1171.5,-411.5 1171.5,-392.5 1118.5,-392.5"/>
<text text-anchor="middle" x="1145" y="-399.5" font-family="Helvetica,sans-Serif" font-size="10.00">stdlib.h</text>
</a>
</g>
</g>
<!-- Node33&#45;&gt;Node34 -->
<g id="edge64" class="edge">
<title>Node33&#45;&gt;Node34</title>
<path fill="none" stroke="midnightblue" d="M1083.73,-448.32C1094.84,-440.11 1111.74,-427.6 1124.98,-417.81"/>
<polygon fill="midnightblue" stroke="midnightblue" points="1127.1,-420.59 1133.06,-411.83 1122.94,-414.97 1127.1,-420.59"/>
</g>
<!-- Node36&#45;&gt;Node2 -->
<g id="edge73" class="edge">
<title>Node36&#45;&gt;Node2</title>
<path fill="none" stroke="midnightblue" d="M1474.31,-565.72C1490.07,-503.59 1575.48,-130.55 1374,-56 1313.89,-33.76 897.9,-18.8 718.76,-13.33"/>
<polygon fill="midnightblue" stroke="midnightblue" points="718.7,-9.82 708.6,-13.02 718.49,-16.82 718.7,-9.82"/>
</g>
<!-- Node36&#45;&gt;Node7 -->
<g id="edge74" class="edge">
<title>Node36&#45;&gt;Node7</title>
<path fill="none" stroke="midnightblue" d="M1384.65,-568.36C1219,-556.71 861.67,-531.57 703.75,-520.47"/>
<polygon fill="midnightblue" stroke="midnightblue" points="703.86,-516.97 693.64,-519.76 703.37,-523.95 703.86,-516.97"/>
</g>
<!-- Node36&#45;&gt;Node10 -->
<g id="edge76" class="edge">
<title>Node36&#45;&gt;Node10</title>
<path fill="none" stroke="midnightblue" d="M1469.42,-565.92C1462.76,-544.6 1443.47,-488.05 1415,-448 1353.46,-361.44 1252.99,-281.69 1210.26,-249.74"/>
<polygon fill="midnightblue" stroke="midnightblue" points="1212.18,-246.8 1202.06,-243.67 1208.01,-252.43 1212.18,-246.8"/>
</g>
<!-- Node37 -->
<g id="node37" class="node">
<title>Node37</title>
<g id="a_node37"><a xlink:title=" ">
<polygon fill="white" stroke="#bfbfbf" points="1538.5,-504.5 1538.5,-523.5 1639.5,-523.5 1639.5,-504.5 1538.5,-504.5"/>
<text text-anchor="middle" x="1589" y="-511.5" font-family="Helvetica,sans-Serif" font-size="10.00">AH/STL/algorithm</text>
</a>
</g>
</g>
<!-- Node36&#45;&gt;Node37 -->
<g id="edge75" class="edge">
<title>Node36&#45;&gt;Node37</title>
<path fill="none" stroke="midnightblue" d="M1488.76,-565.98C1508.22,-556.08 1540.55,-539.64 1563.21,-528.12"/>
<polygon fill="midnightblue" stroke="midnightblue" points="1564.94,-531.16 1572.27,-523.51 1561.77,-524.92 1564.94,-531.16"/>
</g>
</g>
</svg>
