<?xml version="1.0" encoding="UTF-8" standalone="no"?>
<!DOCTYPE svg PUBLIC "-//W3C//DTD SVG 1.1//EN"
 "http://www.w3.org/Graphics/SVG/1.1/DTD/svg11.dtd">
<!-- Generated by graphviz version 2.40.1 (20161225.0304)
 -->
<!-- Title: StaticSizeExtendedIOElement.hpp Pages: 1 -->
<svg width="1413pt" height="767pt"
 viewBox="0.00 0.00 1413.00 767.00" xmlns="http://www.w3.org/2000/svg" xmlns:xlink="http://www.w3.org/1999/xlink">
<g id="graph0" class="graph" transform="scale(1 1) rotate(0) translate(4 763)">
<title>StaticSizeExtendedIOElement.hpp</title>
<polygon fill="#ffffff" stroke="transparent" points="-4,4 -4,-763 1409,-763 1409,4 -4,4"/>
<!-- Node1 -->
<g id="node1" class="node">
<title>Node1</title>
<g id="a_node1"><a xlink:title=" ">
<polygon fill="#bfbfbf" stroke="#000000" points="1155,-739.5 1155,-758.5 1323,-758.5 1323,-739.5 1155,-739.5"/>
<text text-anchor="middle" x="1239" y="-746.5" font-family="Helvetica,sans-Serif" font-size="10.00" fill="#000000">StaticSizeExtendedIOElement.hpp</text>
</a>
</g>
</g>
<!-- Node2 -->
<g id="node2" class="node">
<title>Node2</title>
<g id="a_node2"><a xlink:href="../../d1/d65/Warnings_8hpp.html" target="_top" xlink:title=" ">
<polygon fill="#ffffff" stroke="#000000" points="522.5,-.5 522.5,-19.5 655.5,-19.5 655.5,-.5 522.5,-.5"/>
<text text-anchor="middle" x="589" y="-7.5" font-family="Helvetica,sans-Serif" font-size="10.00" fill="#000000">AH/Settings/Warnings.hpp</text>
</a>
</g>
</g>
<!-- Node1&#45;&gt;Node2 -->
<g id="edge1" class="edge">
<title>Node1&#45;&gt;Node2</title>
<path fill="none" stroke="#191970" d="M1283.0491,-739.4634C1332.2275,-725.9218 1405,-695.9277 1405,-637 1405,-637 1405,-637 1405,-122 1405,-76.2481 1368.5024,-72.9345 1326,-56 1265.9004,-32.0541 842.3693,-17.2714 665.8977,-12.0893"/>
<polygon fill="#191970" stroke="#191970" points="665.7481,-8.5836 655.6505,-11.7911 665.5444,-15.5806 665.7481,-8.5836"/>
</g>
<!-- Node3 -->
<g id="node3" class="node">
<title>Node3</title>
<g id="a_node3"><a xlink:href="../../d4/d57/ExtendedIOElement_8hpp.html" target="_top" xlink:title=" ">
<polygon fill="#ffffff" stroke="#000000" points="767.5,-683.5 767.5,-702.5 890.5,-702.5 890.5,-683.5 767.5,-683.5"/>
<text text-anchor="middle" x="829" y="-690.5" font-family="Helvetica,sans-Serif" font-size="10.00" fill="#000000">ExtendedIOElement.hpp</text>
</a>
</g>
</g>
<!-- Node1&#45;&gt;Node3 -->
<g id="edge2" class="edge">
<title>Node1&#45;&gt;Node3</title>
<path fill="none" stroke="#191970" d="M1168.9843,-739.4369C1094.2784,-729.2331 976.5194,-713.149 901.0448,-702.8403"/>
<polygon fill="#191970" stroke="#191970" points="901.0662,-699.3108 890.6845,-701.4252 900.1188,-706.2464 901.0662,-699.3108"/>
</g>
<!-- Node29 -->
<g id="node29" class="node">
<title>Node29</title>
<g id="a_node29"><a xlink:href="../../d5/db6/ArrayHelpers_8hpp.html" target="_top" xlink:title=" ">
<polygon fill="#ffffff" stroke="#000000" points="1159,-566 1159,-585 1319,-585 1319,-566 1159,-566"/>
<text text-anchor="middle" x="1239" y="-573" font-family="Helvetica,sans-Serif" font-size="10.00" fill="#000000">AH/Containers/ArrayHelpers.hpp</text>
</a>
</g>
</g>
<!-- Node1&#45;&gt;Node29 -->
<g id="edge55" class="edge">
<title>Node1&#45;&gt;Node29</title>
<path fill="none" stroke="#191970" d="M1239,-739.4248C1239,-711.999 1239,-632.732 1239,-595.3964"/>
<polygon fill="#191970" stroke="#191970" points="1242.5001,-595.2595 1239,-585.2595 1235.5001,-595.2596 1242.5001,-595.2595"/>
</g>
<!-- Node3&#45;&gt;Node2 -->
<g id="edge3" class="edge">
<title>Node3&#45;&gt;Node2</title>
<path fill="none" stroke="#191970" d="M876.8556,-683.4987C957.7934,-666.0442 1113,-625.9908 1113,-575.5 1113,-575.5 1113,-575.5 1113,-122 1113,-75.5625 1074.8869,-73.809 1032,-56 967.7496,-29.3197 774.9445,-17.4193 666.0549,-12.7032"/>
<polygon fill="#191970" stroke="#191970" points="665.9253,-9.1947 655.7863,-12.269 665.6295,-16.1884 665.9253,-9.1947"/>
</g>
<!-- Node4 -->
<g id="node4" class="node">
<title>Node4</title>
<g id="a_node4"><a xlink:href="../../dd/ddf/ExtendedInputOutput_8hpp.html" target="_top" xlink:title=" ">
<polygon fill="#ffffff" stroke="#000000" points="673,-627.5 673,-646.5 801,-646.5 801,-627.5 673,-627.5"/>
<text text-anchor="middle" x="737" y="-634.5" font-family="Helvetica,sans-Serif" font-size="10.00" fill="#000000">ExtendedInputOutput.hpp</text>
</a>
</g>
</g>
<!-- Node3&#45;&gt;Node4 -->
<g id="edge4" class="edge">
<title>Node3&#45;&gt;Node4</title>
<path fill="none" stroke="#191970" d="M812.9748,-683.2455C798.8592,-674.6534 778.0737,-662.0014 761.8101,-652.1018"/>
<polygon fill="#191970" stroke="#191970" points="763.2034,-648.8525 752.8415,-646.6427 759.5637,-654.8319 763.2034,-648.8525"/>
</g>
<!-- Node11 -->
<g id="node11" class="node">
<title>Node11</title>
<g id="a_node11"><a xlink:href="../../d4/d35/Hardware-Types_8hpp.html" target="_top" xlink:title=" ">
<polygon fill="#ffffff" stroke="#000000" points="239.5,-560.5 239.5,-590.5 360.5,-590.5 360.5,-560.5 239.5,-560.5"/>
<text text-anchor="start" x="247.5" y="-578.5" font-family="Helvetica,sans-Serif" font-size="10.00" fill="#000000">AH/Hardware/Hardware</text>
<text text-anchor="middle" x="300" y="-567.5" font-family="Helvetica,sans-Serif" font-size="10.00" fill="#000000">&#45;Types.hpp</text>
</a>
</g>
</g>
<!-- Node3&#45;&gt;Node11 -->
<g id="edge54" class="edge">
<title>Node3&#45;&gt;Node11</title>
<path fill="none" stroke="#191970" d="M786.1578,-683.484C695.1887,-663.2782 481.976,-615.92 370.5879,-591.1788"/>
<polygon fill="#191970" stroke="#191970" points="371.3079,-587.7535 360.7868,-589.0018 369.79,-594.5869 371.3079,-587.7535"/>
</g>
<!-- Node26 -->
<g id="node26" class="node">
<title>Node26</title>
<g id="a_node26"><a xlink:href="../../de/dd1/LinkedList_8hpp.html" target="_top" xlink:title=" ">
<polygon fill="#ffffff" stroke="#000000" points="896.5,-448.5 896.5,-467.5 1043.5,-467.5 1043.5,-448.5 896.5,-448.5"/>
<text text-anchor="middle" x="970" y="-455.5" font-family="Helvetica,sans-Serif" font-size="10.00" fill="#000000">AH/Containers/LinkedList.hpp</text>
</a>
</g>
</g>
<!-- Node3&#45;&gt;Node26 -->
<g id="edge48" class="edge">
<title>Node3&#45;&gt;Node26</title>
<path fill="none" stroke="#191970" d="M834.702,-683.4967C855.9584,-648.0693 930.8111,-523.3149 959.0804,-476.1994"/>
<polygon fill="#191970" stroke="#191970" points="962.0833,-477.9973 964.227,-467.6216 956.0808,-474.3958 962.0833,-477.9973"/>
</g>
<!-- Node4&#45;&gt;Node2 -->
<g id="edge5" class="edge">
<title>Node4&#45;&gt;Node2</title>
<path fill="none" stroke="#191970" d="M672.8949,-633.0492C556.0731,-625.5398 312.9317,-608.3963 230,-591 124.4975,-568.8692 0,-621.7986 0,-514 0,-514 0,-514 0,-122 0,-82.9495 23.1506,-73.6199 58,-56 97.5257,-36.0157 374.9358,-20.194 512.3016,-13.4865"/>
<polygon fill="#191970" stroke="#191970" points="512.5264,-16.9798 522.3453,-13.0002 512.1877,-9.988 512.5264,-16.9798"/>
</g>
<!-- Node5 -->
<g id="node5" class="node">
<title>Node5</title>
<g id="a_node5"><a xlink:href="../../d6/db0/AH_2Settings_2NamespaceSettings_8hpp.html" target="_top" xlink:title=" ">
<polygon fill="#ffffff" stroke="#000000" points="617,-56.5 617,-75.5 797,-75.5 797,-56.5 617,-56.5"/>
<text text-anchor="middle" x="707" y="-63.5" font-family="Helvetica,sans-Serif" font-size="10.00" fill="#000000">AH/Settings/NamespaceSettings.hpp</text>
</a>
</g>
</g>
<!-- Node4&#45;&gt;Node5 -->
<g id="edge6" class="edge">
<title>Node4&#45;&gt;Node5</title>
<path fill="none" stroke="#191970" d="M738.6995,-627.4671C742.2233,-606.8447 750,-556.5167 750,-514 750,-514 750,-514 750,-234 750,-178.521 727.7201,-115.8644 715.2352,-85.1091"/>
<polygon fill="#191970" stroke="#191970" points="718.3595,-83.5075 711.2802,-75.625 711.8988,-86.2018 718.3595,-83.5075"/>
</g>
<!-- Node6 -->
<g id="node6" class="node">
<title>Node6</title>
<g id="a_node6"><a xlink:href="../../d6/ddf/Arduino-Wrapper_8h.html" target="_top" xlink:title=" ">
<polygon fill="#ffffff" stroke="#000000" points="793.5,-168.5 793.5,-187.5 908.5,-187.5 908.5,-168.5 793.5,-168.5"/>
<text text-anchor="middle" x="851" y="-175.5" font-family="Helvetica,sans-Serif" font-size="10.00" fill="#000000">AH/Arduino&#45;Wrapper.h</text>
</a>
</g>
</g>
<!-- Node4&#45;&gt;Node6 -->
<g id="edge7" class="edge">
<title>Node4&#45;&gt;Node6</title>
<path fill="none" stroke="#191970" d="M744.0913,-627.3641C758.1047,-607.3391 788,-559.3094 788,-514 788,-514 788,-514 788,-290 788,-252.3823 815.3316,-215.7298 833.9902,-195.0908"/>
<polygon fill="#191970" stroke="#191970" points="836.5856,-197.4399 840.878,-187.7535 831.4819,-192.649 836.5856,-197.4399"/>
</g>
<!-- Node4&#45;&gt;Node11 -->
<g id="edge16" class="edge">
<title>Node4&#45;&gt;Node11</title>
<path fill="none" stroke="#191970" d="M672.9884,-627.9915C592.3432,-616.6421 454.2126,-597.2027 370.5819,-585.4331"/>
<polygon fill="#191970" stroke="#191970" points="371.0509,-581.9647 360.6607,-584.0369 370.0753,-588.8964 371.0509,-581.9647"/>
</g>
<!-- Node7 -->
<g id="node7" class="node">
<title>Node7</title>
<g id="a_node7"><a xlink:href="../../d7/d79/MinMaxFix_8hpp.html" target="_top" xlink:title=" ">
<polygon fill="#ffffff" stroke="#000000" points="883.5,-112.5 883.5,-131.5 1008.5,-131.5 1008.5,-112.5 883.5,-112.5"/>
<text text-anchor="middle" x="946" y="-119.5" font-family="Helvetica,sans-Serif" font-size="10.00" fill="#000000">AH/Math/MinMaxFix.hpp</text>
</a>
</g>
</g>
<!-- Node6&#45;&gt;Node7 -->
<g id="edge8" class="edge">
<title>Node6&#45;&gt;Node7</title>
<path fill="none" stroke="#191970" d="M867.5477,-168.2455C882.2599,-159.5731 903.9888,-146.7645 920.8505,-136.825"/>
<polygon fill="#191970" stroke="#191970" points="922.8046,-139.736 929.6419,-131.6427 919.2498,-133.7057 922.8046,-139.736"/>
</g>
<!-- Node9 -->
<g id="node9" class="node">
<title>Node9</title>
<g id="a_node9"><a xlink:title=" ">
<polygon fill="#ffffff" stroke="#bfbfbf" points="1243,-.5 1243,-19.5 1301,-19.5 1301,-.5 1243,-.5"/>
<text text-anchor="middle" x="1272" y="-7.5" font-family="Helvetica,sans-Serif" font-size="10.00" fill="#000000">Arduino.h</text>
</a>
</g>
</g>
<!-- Node6&#45;&gt;Node9 -->
<g id="edge15" class="edge">
<title>Node6&#45;&gt;Node9</title>
<path fill="none" stroke="#191970" d="M908.6417,-173.8088C1019.7127,-164.4068 1256.7953,-137.4565 1306,-76 1318.0989,-60.8885 1304.2995,-40.7919 1290.8251,-26.7606"/>
<polygon fill="#191970" stroke="#191970" points="1293.1435,-24.1328 1283.5393,-19.6596 1288.2577,-29.1457 1293.1435,-24.1328"/>
</g>
<!-- Node10 -->
<g id="node10" class="node">
<title>Node10</title>
<g id="a_node10"><a xlink:title=" ">
<polygon fill="#ffffff" stroke="#bfbfbf" points="764.5,-112.5 764.5,-131.5 865.5,-131.5 865.5,-112.5 764.5,-112.5"/>
<text text-anchor="middle" x="815" y="-119.5" font-family="Helvetica,sans-Serif" font-size="10.00" fill="#000000">AH/STL/type_traits</text>
</a>
</g>
</g>
<!-- Node6&#45;&gt;Node10 -->
<g id="edge14" class="edge">
<title>Node6&#45;&gt;Node10</title>
<path fill="none" stroke="#191970" d="M844.7293,-168.2455C839.7736,-160.5367 832.717,-149.5598 826.7224,-140.2348"/>
<polygon fill="#191970" stroke="#191970" points="829.5506,-138.1618 821.1989,-131.6427 823.6624,-141.9471 829.5506,-138.1618"/>
</g>
<!-- Node7&#45;&gt;Node2 -->
<g id="edge9" class="edge">
<title>Node7&#45;&gt;Node2</title>
<path fill="none" stroke="#191970" d="M928.861,-112.3202C902.9938,-98.0848 852.095,-71.5167 806,-56 759.3705,-40.3034 705.2374,-28.8172 662.7034,-21.2482"/>
<polygon fill="#191970" stroke="#191970" points="663.1601,-17.7751 652.7072,-19.5032 661.9563,-24.6708 663.1601,-17.7751"/>
</g>
<!-- Node7&#45;&gt;Node5 -->
<g id="edge13" class="edge">
<title>Node7&#45;&gt;Node5</title>
<path fill="none" stroke="#191970" d="M905.186,-112.4369C864.3689,-102.8731 801.5041,-88.1432 757.5528,-77.845"/>
<polygon fill="#191970" stroke="#191970" points="758.1805,-74.3973 747.6457,-75.5237 756.5835,-81.2128 758.1805,-74.3973"/>
</g>
<!-- Node8 -->
<g id="node8" class="node">
<title>Node8</title>
<g id="a_node8"><a xlink:href="../../d6/d3b/FixArduinoMacros_8hpp.html" target="_top" xlink:title=" ">
<polygon fill="#ffffff" stroke="#000000" points="1141,-56.5 1141,-75.5 1297,-75.5 1297,-56.5 1141,-56.5"/>
<text text-anchor="middle" x="1219" y="-63.5" font-family="Helvetica,sans-Serif" font-size="10.00" fill="#000000">AH/Math/FixArduinoMacros.hpp</text>
</a>
</g>
</g>
<!-- Node7&#45;&gt;Node8 -->
<g id="edge10" class="edge">
<title>Node7&#45;&gt;Node8</title>
<path fill="none" stroke="#191970" d="M992.6202,-112.4369C1039.6365,-102.7925 1112.2629,-87.8948 1162.5193,-77.5858"/>
<polygon fill="#191970" stroke="#191970" points="1163.4794,-80.9618 1172.5721,-75.5237 1162.0727,-74.1046 1163.4794,-80.9618"/>
</g>
<!-- Node8&#45;&gt;Node2 -->
<g id="edge11" class="edge">
<title>Node8&#45;&gt;Node2</title>
<path fill="none" stroke="#191970" d="M1140.7159,-57.3672C1136.0762,-56.8939 1131.4775,-56.4347 1127,-56 962.8834,-40.0666 770.3103,-24.3126 665.8608,-16.0133"/>
<polygon fill="#191970" stroke="#191970" points="665.9693,-12.511 655.7238,-15.2093 665.4158,-19.4891 665.9693,-12.511"/>
</g>
<!-- Node8&#45;&gt;Node9 -->
<g id="edge12" class="edge">
<title>Node8&#45;&gt;Node9</title>
<path fill="none" stroke="#191970" d="M1228.2319,-56.2455C1235.8317,-48.2155 1246.7877,-36.6394 1255.8368,-27.0781"/>
<polygon fill="#191970" stroke="#191970" points="1258.5421,-29.3115 1262.8739,-19.6427 1253.458,-24.4998 1258.5421,-29.3115"/>
</g>
<!-- Node11&#45;&gt;Node2 -->
<g id="edge17" class="edge">
<title>Node11&#45;&gt;Node2</title>
<path fill="none" stroke="#191970" d="M239.2334,-561.1C161.8359,-540.9551 38,-501.8688 38,-458 38,-458 38,-458 38,-122 38,-82.3572 62.5344,-73.7129 98,-56 134.0758,-37.9824 382.9749,-21.5709 511.913,-14.1598"/>
<polygon fill="#191970" stroke="#191970" points="512.3335,-17.6416 522.1179,-13.5776 511.9347,-10.6529 512.3335,-17.6416"/>
</g>
<!-- Node11&#45;&gt;Node5 -->
<g id="edge46" class="edge">
<title>Node11&#45;&gt;Node5</title>
<path fill="none" stroke="#191970" d="M280.5486,-560.3486C269.8982,-551.0065 257.3982,-538.1315 250,-524 187.5839,-404.7773 131.3472,-333.9085 209,-224 259.2724,-152.8453 514.5128,-99.5108 638.8021,-77.3184"/>
<polygon fill="#191970" stroke="#191970" points="639.7288,-80.7089 648.9664,-75.5208 638.5097,-73.8158 639.7288,-80.7089"/>
</g>
<!-- Node12 -->
<g id="node12" class="node">
<title>Node12</title>
<g id="a_node12"><a xlink:href="../../de/d76/Array_8hpp.html" target="_top" xlink:title=" ">
<polygon fill="#ffffff" stroke="#000000" points="294,-504.5 294,-523.5 420,-523.5 420,-504.5 294,-504.5"/>
<text text-anchor="middle" x="357" y="-511.5" font-family="Helvetica,sans-Serif" font-size="10.00" fill="#000000">AH/Containers/Array.hpp</text>
</a>
</g>
</g>
<!-- Node11&#45;&gt;Node12 -->
<g id="edge18" class="edge">
<title>Node11&#45;&gt;Node12</title>
<path fill="none" stroke="#191970" d="M314.0899,-560.2977C322.2493,-551.4941 332.5472,-540.3833 341.0095,-531.2529"/>
<polygon fill="#191970" stroke="#191970" points="343.6429,-533.5604 347.8736,-523.8469 338.5089,-528.8021 343.6429,-533.5604"/>
</g>
<!-- Node22 -->
<g id="node22" class="node">
<title>Node22</title>
<g id="a_node22"><a xlink:title=" ">
<polygon fill="#ffffff" stroke="#bfbfbf" points="218.5,-224.5 218.5,-243.5 267.5,-243.5 267.5,-224.5 218.5,-224.5"/>
<text text-anchor="middle" x="243" y="-231.5" font-family="Helvetica,sans-Serif" font-size="10.00" fill="#000000">stdint.h</text>
</a>
</g>
</g>
<!-- Node11&#45;&gt;Node22 -->
<g id="edge47" class="edge">
<title>Node11&#45;&gt;Node22</title>
<path fill="none" stroke="#191970" d="M287.0658,-560.3025C270.2484,-538.9383 243,-498.131 243,-458 243,-458 243,-458 243,-346 243,-313.7116 243,-276.1872 243,-253.8048"/>
<polygon fill="#191970" stroke="#191970" points="246.5001,-253.5883 243,-243.5884 239.5001,-253.5884 246.5001,-253.5883"/>
</g>
<!-- Node12&#45;&gt;Node2 -->
<g id="edge19" class="edge">
<title>Node12&#45;&gt;Node2</title>
<path fill="none" stroke="#191970" d="M339.4222,-504.4711C277.9044,-469.7014 76,-343.016 76,-178 76,-178 76,-178 76,-122 76,-81.1401 103.2334,-73.8255 140,-56 203.7596,-25.0875 401.5219,-14.8939 512.13,-11.5731"/>
<polygon fill="#191970" stroke="#191970" points="512.3327,-15.0688 522.2276,-11.2818 512.1307,-8.0717 512.3327,-15.0688"/>
</g>
<!-- Node12&#45;&gt;Node10 -->
<g id="edge44" class="edge">
<title>Node12&#45;&gt;Node10</title>
<path fill="none" stroke="#191970" d="M357.5755,-504.231C359.78,-475.1169 370.0051,-387.7547 415,-336 432.8669,-315.4488 498.6246,-289.8828 524,-280 580.2641,-258.087 600.8909,-270.7962 655,-244 712.5517,-215.4989 769.9625,-165.0113 797.7515,-138.8173"/>
<polygon fill="#191970" stroke="#191970" points="800.2701,-141.2517 805.0865,-131.815 795.4365,-136.1885 800.2701,-141.2517"/>
</g>
<!-- Node13 -->
<g id="node13" class="node">
<title>Node13</title>
<g id="a_node13"><a xlink:href="../../d1/d93/Error_8hpp.html" target="_top" xlink:title=" ">
<polygon fill="#ffffff" stroke="#000000" points="385,-448.5 385,-467.5 483,-467.5 483,-448.5 385,-448.5"/>
<text text-anchor="middle" x="434" y="-455.5" font-family="Helvetica,sans-Serif" font-size="10.00" fill="#000000">AH/Error/Error.hpp</text>
</a>
</g>
</g>
<!-- Node12&#45;&gt;Node13 -->
<g id="edge20" class="edge">
<title>Node12&#45;&gt;Node13</title>
<path fill="none" stroke="#191970" d="M370.4124,-504.2455C382.0057,-495.814 398.9748,-483.4729 412.4678,-473.6598"/>
<polygon fill="#191970" stroke="#191970" points="414.7126,-476.355 420.7413,-467.6427 410.5953,-470.6938 414.7126,-476.355"/>
</g>
<!-- Node21 -->
<g id="node21" class="node">
<title>Node21</title>
<g id="a_node21"><a xlink:title=" ">
<polygon fill="#ffffff" stroke="#bfbfbf" points="286,-224.5 286,-243.5 338,-243.5 338,-224.5 286,-224.5"/>
<text text-anchor="middle" x="312" y="-231.5" font-family="Helvetica,sans-Serif" font-size="10.00" fill="#000000">stddef.h</text>
</a>
</g>
</g>
<!-- Node12&#45;&gt;Node21 -->
<g id="edge45" class="edge">
<title>Node12&#45;&gt;Node21</title>
<path fill="none" stroke="#191970" d="M344.4501,-504.4082C322.864,-486.7155 281,-446.6472 281,-402 281,-402 281,-402 281,-346 281,-312.3636 294.1477,-275.0368 303.3184,-253.0922"/>
<polygon fill="#191970" stroke="#191970" points="306.6509,-254.2051 307.4258,-243.6387 300.2307,-251.4156 306.6509,-254.2051"/>
</g>
<!-- Node25 -->
<g id="node25" class="node">
<title>Node25</title>
<g id="a_node25"><a xlink:title=" ">
<polygon fill="#ffffff" stroke="#bfbfbf" points="501.5,-448.5 501.5,-467.5 586.5,-467.5 586.5,-448.5 501.5,-448.5"/>
<text text-anchor="middle" x="544" y="-455.5" font-family="Helvetica,sans-Serif" font-size="10.00" fill="#000000">AH/STL/iterator</text>
</a>
</g>
</g>
<!-- Node12&#45;&gt;Node25 -->
<g id="edge43" class="edge">
<title>Node12&#45;&gt;Node25</title>
<path fill="none" stroke="#191970" d="M389.1464,-504.3733C420.5109,-494.9807 468.3665,-480.6496 502.5716,-470.4064"/>
<polygon fill="#191970" stroke="#191970" points="503.6975,-473.7229 512.273,-467.5011 501.6893,-467.0171 503.6975,-473.7229"/>
</g>
<!-- Node13&#45;&gt;Node2 -->
<g id="edge21" class="edge">
<title>Node13&#45;&gt;Node2</title>
<path fill="none" stroke="#191970" d="M404.7538,-448.455C325.7581,-420.6373 114,-331.7311 114,-178 114,-178 114,-178 114,-122 114,-75.9062 151.5964,-74.0714 194,-56 249.5909,-32.3084 413.8543,-19.5085 512.174,-13.7827"/>
<polygon fill="#191970" stroke="#191970" points="512.5727,-17.2657 522.3568,-13.2012 512.1735,-10.2771 512.5727,-17.2657"/>
</g>
<!-- Node14 -->
<g id="node14" class="node">
<title>Node14</title>
<g id="a_node14"><a xlink:href="../../df/dee/Debug_8hpp.html" target="_top" xlink:title=" ">
<polygon fill="#ffffff" stroke="#000000" points="449.5,-392.5 449.5,-411.5 562.5,-411.5 562.5,-392.5 449.5,-392.5"/>
<text text-anchor="middle" x="506" y="-399.5" font-family="Helvetica,sans-Serif" font-size="10.00" fill="#000000">AH/Debug/Debug.hpp</text>
</a>
</g>
</g>
<!-- Node13&#45;&gt;Node14 -->
<g id="edge22" class="edge">
<title>Node13&#45;&gt;Node14</title>
<path fill="none" stroke="#191970" d="M446.5414,-448.2455C457.2787,-439.8943 472.9473,-427.7076 485.5047,-417.9408"/>
<polygon fill="#191970" stroke="#191970" points="487.8575,-420.5449 493.6023,-411.6427 483.5599,-415.0194 487.8575,-420.5449"/>
</g>
<!-- Node14&#45;&gt;Node2 -->
<g id="edge23" class="edge">
<title>Node14&#45;&gt;Node2</title>
<path fill="none" stroke="#191970" d="M481.1074,-392.3983C400.5295,-360.5512 152,-256.0016 152,-178 152,-178 152,-178 152,-122 152,-48.5829 386.3738,-22.6303 511.8379,-13.9971"/>
<polygon fill="#191970" stroke="#191970" points="512.4084,-17.4669 522.1534,-13.3094 511.9427,-10.4824 512.4084,-17.4669"/>
</g>
<!-- Node15 -->
<g id="node15" class="node">
<title>Node15</title>
<g id="a_node15"><a xlink:href="../../dd/d80/PrintStream_8hpp.html" target="_top" xlink:title=" ">
<polygon fill="#ffffff" stroke="#000000" points="815.5,-280.5 815.5,-299.5 974.5,-299.5 974.5,-280.5 815.5,-280.5"/>
<text text-anchor="middle" x="895" y="-287.5" font-family="Helvetica,sans-Serif" font-size="10.00" fill="#000000">AH/PrintStream/PrintStream.hpp</text>
</a>
</g>
</g>
<!-- Node14&#45;&gt;Node15 -->
<g id="edge24" class="edge">
<title>Node14&#45;&gt;Node15</title>
<path fill="none" stroke="#191970" d="M548.5711,-392.4819C586.629,-383.7468 643.8183,-370.0625 693,-356 751.3714,-339.3099 818.1641,-316.8063 858.4338,-302.8591"/>
<polygon fill="#191970" stroke="#191970" points="859.7828,-306.0956 868.0792,-299.5062 857.4844,-299.4837 859.7828,-306.0956"/>
</g>
<!-- Node16 -->
<g id="node16" class="node">
<title>Node16</title>
<g id="a_node16"><a xlink:href="../../de/dd1/AH_2Settings_2SettingsWrapper_8hpp.html" target="_top" xlink:title=" ">
<polygon fill="#ffffff" stroke="#000000" points="424,-336.5 424,-355.5 588,-355.5 588,-336.5 424,-336.5"/>
<text text-anchor="middle" x="506" y="-343.5" font-family="Helvetica,sans-Serif" font-size="10.00" fill="#000000">AH/Settings/SettingsWrapper.hpp</text>
</a>
</g>
</g>
<!-- Node14&#45;&gt;Node16 -->
<g id="edge27" class="edge">
<title>Node14&#45;&gt;Node16</title>
<path fill="none" stroke="#191970" d="M500.7332,-392.2455C499.3221,-384.9382 498.9179,-374.6944 499.5205,-365.7046"/>
<polygon fill="#191970" stroke="#191970" points="503.0111,-365.9945 500.7549,-355.6427 496.0632,-365.1421 503.0111,-365.9945"/>
</g>
<!-- Node24 -->
<g id="node24" class="node">
<title>Node24</title>
<g id="a_node24"><a xlink:href="../../d7/d52/DebugVal_8hpp.html" target="_top" xlink:title=" ">
<polygon fill="#ffffff" stroke="#000000" points="606,-336.5 606,-355.5 684,-355.5 684,-336.5 606,-336.5"/>
<text text-anchor="middle" x="645" y="-343.5" font-family="Helvetica,sans-Serif" font-size="10.00" fill="#000000">DebugVal.hpp</text>
</a>
</g>
</g>
<!-- Node14&#45;&gt;Node24 -->
<g id="edge42" class="edge">
<title>Node14&#45;&gt;Node24</title>
<path fill="none" stroke="#191970" d="M529.895,-392.3733C552.5082,-383.2629 586.6542,-369.5062 611.8873,-359.3404"/>
<polygon fill="#191970" stroke="#191970" points="613.4493,-362.4845 621.4169,-355.5011 610.8334,-355.9917 613.4493,-362.4845"/>
</g>
<!-- Node15&#45;&gt;Node2 -->
<g id="edge25" class="edge">
<title>Node15&#45;&gt;Node2</title>
<path fill="none" stroke="#191970" d="M910.8961,-280.4273C953.5259,-253.5626 1064.123,-175.2971 1018,-112 977.0129,-55.7512 777.8373,-27.9494 665.8557,-16.5607"/>
<polygon fill="#191970" stroke="#191970" points="665.9282,-13.0506 655.6304,-15.5417 665.234,-20.0161 665.9282,-13.0506"/>
</g>
<!-- Node15&#45;&gt;Node6 -->
<g id="edge26" class="edge">
<title>Node15&#45;&gt;Node6</title>
<path fill="none" stroke="#191970" d="M891.2486,-280.4509C884.0073,-262.0186 867.9814,-221.2254 858.4812,-197.043"/>
<polygon fill="#191970" stroke="#191970" points="861.6561,-195.5526 854.7419,-187.5249 855.1409,-198.1122 861.6561,-195.5526"/>
</g>
<!-- Node16&#45;&gt;Node2 -->
<g id="edge28" class="edge">
<title>Node16&#45;&gt;Node2</title>
<path fill="none" stroke="#191970" d="M464.5619,-336.448C431.525,-327.8947 389.1665,-314.4952 379,-300 373.8959,-292.7226 376.5495,-288.5444 379,-280 411.9815,-165.0002 523.1062,-63.7889 568.9579,-25.8837"/>
<polygon fill="#191970" stroke="#191970" points="571.185,-28.5838 576.7263,-19.5536 566.7632,-23.1572 571.185,-28.5838"/>
</g>
<!-- Node16&#45;&gt;Node5 -->
<g id="edge29" class="edge">
<title>Node16&#45;&gt;Node5</title>
<path fill="none" stroke="#191970" d="M509.1582,-336.4463C514.37,-322.1279 526.1146,-295.1687 545,-280 585.1057,-247.7873 619.2138,-280.9523 655,-244 697.8449,-199.759 705.694,-122.2435 706.9246,-85.886"/>
<polygon fill="#191970" stroke="#191970" points="710.4291,-85.6895 707.1276,-75.6223 703.4305,-85.5511 710.4291,-85.6895"/>
</g>
<!-- Node16&#45;&gt;Node14 -->
<g id="edge41" class="edge">
<title>Node16&#45;&gt;Node14</title>
<path fill="none" stroke="#191970" d="M511.2451,-355.6427C512.6665,-362.9199 513.081,-373.155 512.4887,-382.1575"/>
<polygon fill="#191970" stroke="#191970" points="508.9947,-381.8972 511.2668,-392.2455 515.9439,-382.739 508.9947,-381.8972"/>
</g>
<!-- Node17 -->
<g id="node17" class="node">
<title>Node17</title>
<g id="a_node17"><a xlink:href="../../d5/d4f/AH_2Settings_2Settings_8hpp.html" target="_top" xlink:title="All user settings and debugging options can be changed here.">
<polygon fill="#ffffff" stroke="#000000" points="388.5,-280.5 388.5,-299.5 459.5,-299.5 459.5,-280.5 388.5,-280.5"/>
<text text-anchor="middle" x="424" y="-287.5" font-family="Helvetica,sans-Serif" font-size="10.00" fill="#000000">Settings.hpp</text>
</a>
</g>
</g>
<!-- Node16&#45;&gt;Node17 -->
<g id="edge30" class="edge">
<title>Node16&#45;&gt;Node17</title>
<path fill="none" stroke="#191970" d="M491.7167,-336.2455C479.253,-327.7337 460.9549,-315.2375 446.5208,-305.3801"/>
<polygon fill="#191970" stroke="#191970" points="448.3515,-302.392 438.1196,-299.6427 444.4038,-308.1726 448.3515,-302.392"/>
</g>
<!-- Node23 -->
<g id="node23" class="node">
<title>Node23</title>
<g id="a_node23"><a xlink:href="../../d9/d98/TeensyUSBTypes_8hpp.html" target="_top" xlink:title=" ">
<polygon fill="#ffffff" stroke="#000000" points="554,-280.5 554,-299.5 722,-299.5 722,-280.5 554,-280.5"/>
<text text-anchor="middle" x="638" y="-287.5" font-family="Helvetica,sans-Serif" font-size="10.00" fill="#000000">AH/Teensy/TeensyUSBTypes.hpp</text>
</a>
</g>
</g>
<!-- Node16&#45;&gt;Node23 -->
<g id="edge40" class="edge">
<title>Node16&#45;&gt;Node23</title>
<path fill="none" stroke="#191970" d="M528.6916,-336.3733C550.0711,-327.3032 582.3057,-313.6279 606.2362,-303.4755"/>
<polygon fill="#191970" stroke="#191970" points="607.7656,-306.6287 615.6045,-299.5011 605.0317,-300.1846 607.7656,-306.6287"/>
</g>
<!-- Node18 -->
<g id="node18" class="node">
<title>Node18</title>
<g id="a_node18"><a xlink:href="../../dc/d50/Frequency_8hpp.html" target="_top" xlink:title=" ">
<polygon fill="#ffffff" stroke="#000000" points="534,-112.5 534,-131.5 662,-131.5 662,-112.5 534,-112.5"/>
<text text-anchor="middle" x="598" y="-119.5" font-family="Helvetica,sans-Serif" font-size="10.00" fill="#000000">AH/Types/Frequency.hpp</text>
</a>
</g>
</g>
<!-- Node17&#45;&gt;Node18 -->
<g id="edge31" class="edge">
<title>Node17&#45;&gt;Node18</title>
<path fill="none" stroke="#191970" d="M420.9477,-280.2782C417.2906,-266.6859 412.8373,-241.6863 423,-224 450.3305,-176.4361 509.3325,-148.9649 551.2596,-134.7603"/>
<polygon fill="#191970" stroke="#191970" points="552.5617,-138.0174 560.9891,-131.5963 550.3968,-131.3605 552.5617,-138.0174"/>
</g>
<!-- Node19 -->
<g id="node19" class="node">
<title>Node19</title>
<g id="a_node19"><a xlink:href="../../d7/d7c/ADCConfig_8hpp.html" target="_top" xlink:title="This file contains the platform&#45;specific ADC resolutions. By default, the library automatically selec...">
<polygon fill="#ffffff" stroke="#000000" points="432,-224.5 432,-243.5 580,-243.5 580,-224.5 432,-224.5"/>
<text text-anchor="middle" x="506" y="-231.5" font-family="Helvetica,sans-Serif" font-size="10.00" fill="#000000">AH/Hardware/ADCConfig.hpp</text>
</a>
</g>
</g>
<!-- Node17&#45;&gt;Node19 -->
<g id="edge34" class="edge">
<title>Node17&#45;&gt;Node19</title>
<path fill="none" stroke="#191970" d="M438.2833,-280.2455C450.747,-271.7337 469.0451,-259.2375 483.4792,-249.3801"/>
<polygon fill="#191970" stroke="#191970" points="485.5962,-252.1726 491.8804,-243.6427 481.6485,-246.392 485.5962,-252.1726"/>
</g>
<!-- Node20 -->
<g id="node20" class="node">
<title>Node20</title>
<g id="a_node20"><a xlink:title=" ">
<polygon fill="#ffffff" stroke="#bfbfbf" points="598,-224.5 598,-243.5 646,-243.5 646,-224.5 598,-224.5"/>
<text text-anchor="middle" x="622" y="-231.5" font-family="Helvetica,sans-Serif" font-size="10.00" fill="#000000">limits.h</text>
</a>
</g>
</g>
<!-- Node17&#45;&gt;Node20 -->
<g id="edge37" class="edge">
<title>Node17&#45;&gt;Node20</title>
<path fill="none" stroke="#191970" d="M459.149,-280.4456C490.5725,-271.8495 538.1165,-258.7109 588.1639,-244.2021"/>
<polygon fill="#191970" stroke="#191970" points="589.2428,-247.5334 597.868,-241.3806 587.2884,-240.8118 589.2428,-247.5334"/>
</g>
<!-- Node17&#45;&gt;Node21 -->
<g id="edge38" class="edge">
<title>Node17&#45;&gt;Node21</title>
<path fill="none" stroke="#191970" d="M404.7465,-280.3733C386.9288,-271.4644 360.2253,-258.1127 340.0406,-248.0203"/>
<polygon fill="#191970" stroke="#191970" points="341.5118,-244.8428 331.0022,-243.5011 338.3813,-251.1038 341.5118,-244.8428"/>
</g>
<!-- Node17&#45;&gt;Node22 -->
<g id="edge39" class="edge">
<title>Node17&#45;&gt;Node22</title>
<path fill="none" stroke="#191970" d="M392.885,-280.3733C360.7336,-270.4259 310.6787,-254.9393 277.3763,-244.6358"/>
<polygon fill="#191970" stroke="#191970" points="278.205,-241.2285 267.6173,-241.6164 276.136,-247.9158 278.205,-241.2285"/>
</g>
<!-- Node18&#45;&gt;Node2 -->
<g id="edge32" class="edge">
<title>Node18&#45;&gt;Node2</title>
<path fill="none" stroke="#191970" d="M597.2327,-112.4509C595.7648,-94.184 592.5321,-53.9553 590.5828,-29.6976"/>
<polygon fill="#191970" stroke="#191970" points="594.0552,-29.2124 589.7654,-19.5249 587.0777,-29.7731 594.0552,-29.2124"/>
</g>
<!-- Node18&#45;&gt;Node5 -->
<g id="edge33" class="edge">
<title>Node18&#45;&gt;Node5</title>
<path fill="none" stroke="#191970" d="M616.9864,-112.2455C634.1792,-103.4125 659.7238,-90.2887 679.2132,-80.2758"/>
<polygon fill="#191970" stroke="#191970" points="680.9359,-83.3257 688.2312,-75.6427 677.737,-77.0993 680.9359,-83.3257"/>
</g>
<!-- Node19&#45;&gt;Node2 -->
<g id="edge35" class="edge">
<title>Node19&#45;&gt;Node2</title>
<path fill="none" stroke="#191970" d="M506.1867,-224.492C506.873,-203.5154 510.0756,-151.9614 525,-112 536.9878,-79.9016 559.8588,-47.0948 574.7639,-27.6436"/>
<polygon fill="#191970" stroke="#191970" points="577.5764,-29.7288 580.9839,-19.6968 572.0641,-25.4142 577.5764,-29.7288"/>
</g>
<!-- Node19&#45;&gt;Node6 -->
<g id="edge36" class="edge">
<title>Node19&#45;&gt;Node6</title>
<path fill="none" stroke="#191970" d="M564.9156,-224.4369C625.5655,-214.5923 719.9377,-199.2739 783.5422,-188.9497"/>
<polygon fill="#191970" stroke="#191970" points="784.1663,-192.3943 793.4763,-187.3372 783.0447,-185.4847 784.1663,-192.3943"/>
</g>
<!-- Node26&#45;&gt;Node2 -->
<g id="edge49" class="edge">
<title>Node26&#45;&gt;Node2</title>
<path fill="none" stroke="#191970" d="M1000.6754,-448.4744C1019.1809,-441.2432 1041.8403,-429.5113 1056,-412 1075.1929,-388.2642 1075,-376.5246 1075,-346 1075,-346 1075,-346 1075,-122 1075,-39.0057 802.4711,-17.505 665.5736,-11.9402"/>
<polygon fill="#191970" stroke="#191970" points="665.6854,-8.442 655.5572,-11.5517 665.414,-15.4367 665.6854,-8.442"/>
</g>
<!-- Node26&#45;&gt;Node7 -->
<g id="edge51" class="edge">
<title>Node26&#45;&gt;Node7</title>
<path fill="none" stroke="#191970" d="M971.9798,-448.3257C977.1916,-421.5165 990.3963,-344.0232 983,-280 977.1515,-229.375 961.0944,-171.406 952.1757,-141.7481"/>
<polygon fill="#191970" stroke="#191970" points="955.4172,-140.3794 949.1432,-131.8419 948.7238,-142.4284 955.4172,-140.3794"/>
</g>
<!-- Node26&#45;&gt;Node14 -->
<g id="edge50" class="edge">
<title>Node26&#45;&gt;Node14</title>
<path fill="none" stroke="#191970" d="M896.4778,-449.1266C807.4638,-438.3836 658.8278,-420.4447 572.9003,-410.0742"/>
<polygon fill="#191970" stroke="#191970" points="573.0878,-406.5715 562.7404,-408.848 572.249,-413.5211 573.0878,-406.5715"/>
</g>
<!-- Node27 -->
<g id="node27" class="node">
<title>Node27</title>
<g id="a_node27"><a xlink:title=" ">
<polygon fill="#ffffff" stroke="#bfbfbf" points="999,-392.5 999,-411.5 1047,-411.5 1047,-392.5 999,-392.5"/>
<text text-anchor="middle" x="1023" y="-399.5" font-family="Helvetica,sans-Serif" font-size="10.00" fill="#000000">stdlib.h</text>
</a>
</g>
</g>
<!-- Node26&#45;&gt;Node27 -->
<g id="edge52" class="edge">
<title>Node26&#45;&gt;Node27</title>
<path fill="none" stroke="#191970" d="M979.2319,-448.2455C986.8317,-440.2155 997.7877,-428.6394 1006.8368,-419.0781"/>
<polygon fill="#191970" stroke="#191970" points="1009.5421,-421.3115 1013.8739,-411.6427 1004.458,-416.4998 1009.5421,-421.3115"/>
</g>
<!-- Node28 -->
<g id="node28" class="node">
<title>Node28</title>
<g id="a_node28"><a xlink:title=" ">
<polygon fill="#ffffff" stroke="#bfbfbf" points="895.5,-392.5 895.5,-411.5 942.5,-411.5 942.5,-392.5 895.5,-392.5"/>
<text text-anchor="middle" x="919" y="-399.5" font-family="Helvetica,sans-Serif" font-size="10.00" fill="#000000">iterator</text>
</a>
</g>
</g>
<!-- Node26&#45;&gt;Node28 -->
<g id="edge53" class="edge">
<title>Node26&#45;&gt;Node28</title>
<path fill="none" stroke="#191970" d="M961.1165,-448.2455C953.8034,-440.2155 943.2609,-428.6394 934.5533,-419.0781"/>
<polygon fill="#191970" stroke="#191970" points="937.1028,-416.6795 927.7817,-411.6427 931.9273,-421.3928 937.1028,-416.6795"/>
</g>
<!-- Node29&#45;&gt;Node2 -->
<g id="edge56" class="edge">
<title>Node29&#45;&gt;Node2</title>
<path fill="none" stroke="#191970" d="M1242.1449,-565.961C1263.0269,-501.8071 1378.6306,-133.4396 1306,-56 1284.3542,-32.921 846.4637,-17.5258 665.859,-12.1351"/>
<polygon fill="#191970" stroke="#191970" points="665.736,-8.63 655.6368,-11.8325 665.5288,-15.627 665.736,-8.63"/>
</g>
<!-- Node29&#45;&gt;Node12 -->
<g id="edge57" class="edge">
<title>Node29&#45;&gt;Node12</title>
<path fill="none" stroke="#191970" d="M1158.7819,-569.9066C988.83,-558.0562 594.6794,-530.5729 430.6679,-519.1367"/>
<polygon fill="#191970" stroke="#191970" points="430.4216,-515.6111 420.2023,-518.407 429.9346,-522.5942 430.4216,-515.6111"/>
</g>
<!-- Node29&#45;&gt;Node15 -->
<g id="edge59" class="edge">
<title>Node29&#45;&gt;Node15</title>
<path fill="none" stroke="#191970" d="M1158.7395,-566.517C1049.3817,-552.0044 867,-518.7016 867,-458 867,-458 867,-458 867,-402 867,-368.5848 878.8754,-331.1911 887.1585,-309.1729"/>
<polygon fill="#191970" stroke="#191970" points="890.4868,-310.2719 890.8685,-299.6839 883.9674,-307.7229 890.4868,-310.2719"/>
</g>
<!-- Node30 -->
<g id="node30" class="node">
<title>Node30</title>
<g id="a_node30"><a xlink:title=" ">
<polygon fill="#ffffff" stroke="#bfbfbf" points="1281.5,-504.5 1281.5,-523.5 1376.5,-523.5 1376.5,-504.5 1281.5,-504.5"/>
<text text-anchor="middle" x="1329" y="-511.5" font-family="Helvetica,sans-Serif" font-size="10.00" fill="#000000">AH/STL/algorithm</text>
</a>
</g>
</g>
<!-- Node29&#45;&gt;Node30 -->
<g id="edge58" class="edge">
<title>Node29&#45;&gt;Node30</title>
<path fill="none" stroke="#191970" d="M1253.0625,-565.8906C1267.3286,-556.1421 1289.635,-540.8994 1306.3872,-529.4521"/>
<polygon fill="#191970" stroke="#191970" points="1308.7545,-532.0736 1315.0362,-523.5419 1304.8051,-526.2941 1308.7545,-532.0736"/>
</g>
</g>
</svg>
