<?xml version="1.0" encoding="UTF-8" standalone="no"?>
<!DOCTYPE svg PUBLIC "-//W3C//DTD SVG 1.1//EN"
 "http://www.w3.org/Graphics/SVG/1.1/DTD/svg11.dtd">
<!-- Generated by graphviz version 2.43.0 (0)
 -->
<!-- Title: Submodules Pages: 1 -->
<svg width="208pt" height="175pt"
 viewBox="0.00 0.00 208.00 175.00" xmlns="http://www.w3.org/2000/svg" xmlns:xlink="http://www.w3.org/1999/xlink">
<g id="graph0" class="graph" transform="scale(1 1) rotate(0) translate(4 171)">
<title>Submodules</title>
<polygon fill="white" stroke="transparent" points="-4,4 -4,-171 204,-171 204,4 -4,4"/>
<g id="clust1" class="cluster">
<title>clusterdir_68267d1309a1af8e8297ef4c3efbcdba</title>
<g id="a_clust1"><a xlink:href="dir_68267d1309a1af8e8297ef4c3efbcdba.html" target="_top" xlink:title="src">
<polygon fill="#eef0f6" stroke="#404040" stroke-dasharray="5,2" points="8,-8 8,-159 192,-159 192,-8 8,-8"/>
<text text-anchor="middle" x="100" y="-147" font-family="Helvetica,sans-Serif" font-size="10.00">src</text>
</a>
</g>
</g>
<g id="clust2" class="cluster">
<title>clusterdir_fa6aac357b09690b09adfbf9999fddaa</title>
<g id="a_clust2"><a xlink:href="dir_fa6aac357b09690b09adfbf9999fddaa.html" target="_top">
<polygon fill="#eef0f6" stroke="#404040" stroke-width="2" points="16,-80 16,-132 184,-132 184,-80 16,-80"/>
</a>
</g>
</g>
<!-- dir_15b6432dff6a6d357bf70f8fbf2cdf14 -->
<g id="node1" class="node">
<title>dir_15b6432dff6a6d357bf70f8fbf2cdf14</title>
<g id="a_node1"><a xlink:href="dir_15b6432dff6a6d357bf70f8fbf2cdf14.html" target="_top" xlink:title="AH">
<polygon fill="#a7b5d1" stroke="red" points="79,-52 25,-52 25,-16 79,-16 79,-52"/>
<text text-anchor="middle" x="52" y="-31.5" font-family="Helvetica,sans-Serif" font-size="10.00">AH</text>
</a>
</g>
</g>
<!-- dir_fa6aac357b09690b09adfbf9999fddaa -->
<g id="node2" class="node">
<title>dir_fa6aac357b09690b09adfbf9999fddaa</title>
<text text-anchor="middle" x="137" y="-103.5" font-family="Helvetica,sans-Serif" font-size="10.00">Submodules</text>
</g>
<!-- dir_ab8b514821489ccc0c08403cdfea7c6c -->
<g id="node3" class="node">
<title>dir_ab8b514821489ccc0c08403cdfea7c6c</title>
<g id="a_node3"><a xlink:href="dir_ab8b514821489ccc0c08403cdfea7c6c.html" target="_top" xlink:title="Encoder">
<polygon fill="#a7b5d1" stroke="#404040" points="80,-124 24,-124 24,-88 80,-88 80,-124"/>
<text text-anchor="middle" x="52" y="-103.5" font-family="Helvetica,sans-Serif" font-size="10.00">Encoder</text>
</a>
</g>
</g>
<!-- dir_ab8b514821489ccc0c08403cdfea7c6c&#45;&gt;dir_15b6432dff6a6d357bf70f8fbf2cdf14 -->
<g id="edge1" class="edge">
<title>dir_ab8b514821489ccc0c08403cdfea7c6c&#45;&gt;dir_15b6432dff6a6d357bf70f8fbf2cdf14</title>
<path fill="none" stroke="black" d="M52,-87.7C52,-79.98 52,-70.71 52,-62.11"/>
<polygon fill="black" stroke="black" points="55.5,-62.1 52,-52.1 48.5,-62.1 55.5,-62.1"/>
<g id="a_edge1&#45;headlabel"><a xlink:href="dir_000017_000002.html" target="_top" xlink:title="2">
<text text-anchor="middle" x="58.34" y="-63.2" font-family="Helvetica,sans-Serif" font-size="10.00">2</text>
</a>
</g>
</g>
</g>
</svg>
