<?xml version="1.0" encoding="UTF-8" standalone="no"?>
<!DOCTYPE svg PUBLIC "-//W3C//DTD SVG 1.1//EN"
 "http://www.w3.org/Graphics/SVG/1.1/DTD/svg11.dtd">
<!-- Generated by graphviz version 2.43.0 (0)
 -->
<!-- Title: src Pages: 1 -->
<svg width="693pt" height="652pt"
 viewBox="0.00 0.00 693.00 652.00" xmlns="http://www.w3.org/2000/svg" xmlns:xlink="http://www.w3.org/1999/xlink">
<g id="graph0" class="graph" transform="scale(1 1) rotate(0) translate(4 648)">
<title>src</title>
<polygon fill="white" stroke="transparent" points="-4,4 -4,-648 689,-648 689,4 -4,4"/>
<g id="clust1" class="cluster">
<title>clusterdir_68267d1309a1af8e8297ef4c3efbcdba</title>
<g id="a_clust1"><a xlink:href="dir_68267d1309a1af8e8297ef4c3efbcdba.html" target="_top">
<polygon fill="#eeeeff" stroke="black" points="8,-8 8,-636 677,-636 677,-8 8,-8"/>
</a>
</g>
</g>
<!-- dir_68267d1309a1af8e8297ef4c3efbcdba -->
<g id="node1" class="node">
<title>dir_68267d1309a1af8e8297ef4c3efbcdba</title>
<text text-anchor="middle" x="215" y="-607.5" font-family="Helvetica,sans-Serif" font-size="10.00">src</text>
</g>
<!-- dir_c64386e93f356b78d4612c7b7741707c -->
<g id="node3" class="node">
<title>dir_c64386e93f356b78d4612c7b7741707c</title>
<g id="a_node3"><a xlink:href="dir_c64386e93f356b78d4612c7b7741707c.html" target="_top" xlink:title="Audio">
<polygon fill="white" stroke="black" points="242,-556 188,-556 188,-520 242,-520 242,-556"/>
<text text-anchor="middle" x="215" y="-535.5" font-family="Helvetica,sans-Serif" font-size="10.00">Audio</text>
</a>
</g>
</g>
<!-- dir_68267d1309a1af8e8297ef4c3efbcdba&#45;&gt;dir_c64386e93f356b78d4612c7b7741707c -->
<g id="edge20" class="edge">
<title>dir_68267d1309a1af8e8297ef4c3efbcdba&#45;&gt;dir_c64386e93f356b78d4612c7b7741707c</title>
<path fill="none" stroke="black" d="M215,-591.7C215,-583.98 215,-574.71 215,-566.11"/>
<polygon fill="black" stroke="black" points="218.5,-566.1 215,-556.1 211.5,-566.1 218.5,-566.1"/>
<g id="a_edge20&#45;headlabel"><a xlink:href="dir_000002_000017.html" target="_top" xlink:title="3">
<text text-anchor="middle" x="221.34" y="-567.2" font-family="Helvetica,sans-Serif" font-size="10.00">3</text>
</a>
</g>
</g>
<!-- dir_15b6432dff6a6d357bf70f8fbf2cdf14 -->
<g id="node2" class="node">
<title>dir_15b6432dff6a6d357bf70f8fbf2cdf14</title>
<g id="a_node2"><a xlink:href="dir_15b6432dff6a6d357bf70f8fbf2cdf14.html" target="_top" xlink:title="AH">
<polygon fill="white" stroke="red" points="334,-52 280,-52 280,-16 334,-16 334,-52"/>
<text text-anchor="middle" x="307" y="-31.5" font-family="Helvetica,sans-Serif" font-size="10.00">AH</text>
</a>
</g>
</g>
<!-- dir_c64386e93f356b78d4612c7b7741707c&#45;&gt;dir_15b6432dff6a6d357bf70f8fbf2cdf14 -->
<g id="edge40" class="edge">
<title>dir_c64386e93f356b78d4612c7b7741707c&#45;&gt;dir_15b6432dff6a6d357bf70f8fbf2cdf14</title>
<path fill="none" stroke="black" d="M187.88,-531.02C133.66,-517.3 17,-478.12 17,-395 17,-395 17,-395 17,-249 17,-208.25 17.62,-194.69 39,-160 51.9,-139.07 66.55,-143.89 81,-124 91.19,-109.98 82.87,-99.31 96,-88 145.25,-45.58 223.64,-36.24 269.73,-34.68"/>
<polygon fill="black" stroke="black" points="269.97,-38.17 279.88,-34.44 269.81,-31.17 269.97,-38.17"/>
<g id="a_edge40&#45;headlabel"><a xlink:href="dir_000017_000003.html" target="_top" xlink:title="4">
<text text-anchor="middle" x="266.44" y="-38.59" font-family="Helvetica,sans-Serif" font-size="10.00">4</text>
</a>
</g>
</g>
<!-- dir_c90f87021e89d05236fc514cb49c4dcf -->
<g id="node6" class="node">
<title>dir_c90f87021e89d05236fc514cb49c4dcf</title>
<g id="a_node6"><a xlink:href="dir_c90f87021e89d05236fc514cb49c4dcf.html" target="_top" xlink:title="Def">
<polygon fill="white" stroke="black" points="308,-124 254,-124 254,-88 308,-88 308,-124"/>
<text text-anchor="middle" x="281" y="-103.5" font-family="Helvetica,sans-Serif" font-size="10.00">Def</text>
</a>
</g>
</g>
<!-- dir_c64386e93f356b78d4612c7b7741707c&#45;&gt;dir_c90f87021e89d05236fc514cb49c4dcf -->
<g id="edge42" class="edge">
<title>dir_c64386e93f356b78d4612c7b7741707c&#45;&gt;dir_c90f87021e89d05236fc514cb49c4dcf</title>
<path fill="none" stroke="black" d="M215,-519.95C215,-493.29 215,-440.11 215,-395 215,-395 215,-395 215,-249 215,-204.84 241.57,-159.56 260.99,-132.35"/>
<polygon fill="black" stroke="black" points="263.9,-134.31 267,-124.18 258.26,-130.16 263.9,-134.31"/>
<g id="a_edge42&#45;headlabel"><a xlink:href="dir_000017_000020.html" target="_top" xlink:title="2">
<text text-anchor="middle" x="264.05" y="-136.38" font-family="Helvetica,sans-Serif" font-size="10.00">2</text>
</a>
</g>
</g>
<!-- dir_4b65e0e927a600dbbefc4f76cc5a7f7c -->
<g id="node10" class="node">
<title>dir_4b65e0e927a600dbbefc4f76cc5a7f7c</title>
<g id="a_node10"><a xlink:href="dir_4b65e0e927a600dbbefc4f76cc5a7f7c.html" target="_top" xlink:title="MIDI_Inputs">
<polygon fill="white" stroke="red" points="336,-484 262,-484 262,-448 336,-448 336,-484"/>
<text text-anchor="middle" x="299" y="-463.5" font-family="Helvetica,sans-Serif" font-size="10.00">MIDI_Inputs</text>
</a>
</g>
</g>
<!-- dir_c64386e93f356b78d4612c7b7741707c&#45;&gt;dir_4b65e0e927a600dbbefc4f76cc5a7f7c -->
<g id="edge41" class="edge">
<title>dir_c64386e93f356b78d4612c7b7741707c&#45;&gt;dir_4b65e0e927a600dbbefc4f76cc5a7f7c</title>
<path fill="none" stroke="black" d="M235.76,-519.7C246.24,-510.97 259.11,-500.24 270.5,-490.75"/>
<polygon fill="black" stroke="black" points="273.03,-493.19 278.47,-484.1 268.55,-487.82 273.03,-493.19"/>
<g id="a_edge41&#45;headlabel"><a xlink:href="dir_000017_000029.html" target="_top" xlink:title="1">
<text text-anchor="middle" x="272.09" y="-495.18" font-family="Helvetica,sans-Serif" font-size="10.00">1</text>
</a>
</g>
</g>
<!-- dir_96809ae32da64306a703eb7e36380126 -->
<g id="node4" class="node">
<title>dir_96809ae32da64306a703eb7e36380126</title>
<g id="a_node4"><a xlink:href="dir_96809ae32da64306a703eb7e36380126.html" target="_top" xlink:title="Banks">
<polygon fill="white" stroke="black" points="400,-412 346,-412 346,-376 400,-376 400,-412"/>
<text text-anchor="middle" x="373" y="-391.5" font-family="Helvetica,sans-Serif" font-size="10.00">Banks</text>
</a>
</g>
</g>
<!-- dir_96809ae32da64306a703eb7e36380126&#45;&gt;dir_15b6432dff6a6d357bf70f8fbf2cdf14 -->
<g id="edge31" class="edge">
<title>dir_96809ae32da64306a703eb7e36380126&#45;&gt;dir_15b6432dff6a6d357bf70f8fbf2cdf14</title>
<path fill="none" stroke="black" d="M400.31,-378.49C423.67,-365.92 455.31,-348.45 467,-340 553.25,-277.61 643.35,-264.85 625,-160 619.13,-126.49 624.98,-109.97 599,-88 561.02,-55.88 414.21,-42.06 344.36,-37.21"/>
<polygon fill="black" stroke="black" points="344.44,-33.71 334.23,-36.53 343.97,-40.69 344.44,-33.71"/>
<g id="a_edge31&#45;headlabel"><a xlink:href="dir_000018_000003.html" target="_top" xlink:title="3">
<text text-anchor="middle" x="348.22" y="-28.62" font-family="Helvetica,sans-Serif" font-size="10.00">3</text>
</a>
</g>
</g>
<!-- dir_0674f0083f2092f390ac2eb0a6bbcc00 -->
<g id="node5" class="node">
<title>dir_0674f0083f2092f390ac2eb0a6bbcc00</title>
<g id="a_node5"><a xlink:href="dir_0674f0083f2092f390ac2eb0a6bbcc00.html" target="_top" xlink:title="Control_Surface">
<polygon fill="white" stroke="black" points="420,-340 326,-340 326,-304 420,-304 420,-340"/>
<text text-anchor="middle" x="373" y="-319.5" font-family="Helvetica,sans-Serif" font-size="10.00">Control_Surface</text>
</a>
</g>
</g>
<!-- dir_96809ae32da64306a703eb7e36380126&#45;&gt;dir_0674f0083f2092f390ac2eb0a6bbcc00 -->
<g id="edge30" class="edge">
<title>dir_96809ae32da64306a703eb7e36380126&#45;&gt;dir_0674f0083f2092f390ac2eb0a6bbcc00</title>
<path fill="none" stroke="black" d="M373,-375.7C373,-367.98 373,-358.71 373,-350.11"/>
<polygon fill="black" stroke="black" points="376.5,-350.1 373,-340.1 369.5,-350.1 376.5,-350.1"/>
<g id="a_edge30&#45;headlabel"><a xlink:href="dir_000018_000019.html" target="_top" xlink:title="1">
<text text-anchor="middle" x="379.34" y="-351.2" font-family="Helvetica,sans-Serif" font-size="10.00">1</text>
</a>
</g>
</g>
<!-- dir_96809ae32da64306a703eb7e36380126&#45;&gt;dir_c90f87021e89d05236fc514cb49c4dcf -->
<g id="edge33" class="edge">
<title>dir_96809ae32da64306a703eb7e36380126&#45;&gt;dir_c90f87021e89d05236fc514cb49c4dcf</title>
<path fill="none" stroke="black" d="M348.88,-375.97C337.46,-366.64 324.67,-354.11 317,-340 293.68,-297.11 308.6,-279.42 297,-232 293.03,-215.75 288.93,-212.47 286,-196 282.36,-175.56 281.16,-152.1 280.84,-134.4"/>
<polygon fill="black" stroke="black" points="284.34,-134.17 280.75,-124.2 277.34,-134.24 284.34,-134.17"/>
<g id="a_edge33&#45;headlabel"><a xlink:href="dir_000018_000020.html" target="_top" xlink:title="3">
<text text-anchor="middle" x="287.22" y="-135.24" font-family="Helvetica,sans-Serif" font-size="10.00">3</text>
</a>
</g>
</g>
<!-- dir_ab77b90ed5338b1b1a87b678e21cf0af -->
<g id="node15" class="node">
<title>dir_ab77b90ed5338b1b1a87b678e21cf0af</title>
<g id="a_node15"><a xlink:href="dir_ab77b90ed5338b1b1a87b678e21cf0af.html" target="_top" xlink:title="Selectors">
<polygon fill="white" stroke="red" points="609,-196 547,-196 547,-160 609,-160 609,-196"/>
<text text-anchor="middle" x="578" y="-175.5" font-family="Helvetica,sans-Serif" font-size="10.00">Selectors</text>
</a>
</g>
</g>
<!-- dir_96809ae32da64306a703eb7e36380126&#45;&gt;dir_ab77b90ed5338b1b1a87b678e21cf0af -->
<g id="edge32" class="edge">
<title>dir_96809ae32da64306a703eb7e36380126&#45;&gt;dir_ab77b90ed5338b1b1a87b678e21cf0af</title>
<path fill="none" stroke="black" d="M395.26,-375.86C408.41,-365.61 425.3,-352.25 440,-340 477.25,-308.95 490.54,-304.91 522,-268 538.72,-248.39 554.02,-223.35 564.39,-204.83"/>
<polygon fill="black" stroke="black" points="567.47,-206.5 569.21,-196.05 561.33,-203.13 567.47,-206.5"/>
<g id="a_edge32&#45;headlabel"><a xlink:href="dir_000018_000048.html" target="_top" xlink:title="1">
<text text-anchor="middle" x="568.22" y="-208.52" font-family="Helvetica,sans-Serif" font-size="10.00">1</text>
</a>
</g>
</g>
<!-- dir_0674f0083f2092f390ac2eb0a6bbcc00&#45;&gt;dir_15b6432dff6a6d357bf70f8fbf2cdf14 -->
<g id="edge1" class="edge">
<title>dir_0674f0083f2092f390ac2eb0a6bbcc00&#45;&gt;dir_15b6432dff6a6d357bf70f8fbf2cdf14</title>
<path fill="none" stroke="black" d="M325.71,-318.25C251.32,-313.01 111.54,-299.22 74,-268 47.72,-246.15 53.1,-229.63 47,-196 44.15,-180.26 39.77,-174.28 47,-160 59.2,-135.89 78.14,-144.28 96,-124 108.1,-110.27 101.62,-99.33 116,-88 160.98,-52.57 228.18,-40.8 269.72,-36.91"/>
<polygon fill="black" stroke="black" points="270.02,-40.4 279.69,-36.08 269.44,-33.42 270.02,-40.4"/>
<g id="a_edge1&#45;headlabel"><a xlink:href="dir_000019_000003.html" target="_top" xlink:title="7">
<text text-anchor="middle" x="266.67" y="-41.03" font-family="Helvetica,sans-Serif" font-size="10.00">7</text>
</a>
</g>
</g>
<!-- dir_8b29354ea792f14f229ba6ab36888b3c -->
<g id="node7" class="node">
<title>dir_8b29354ea792f14f229ba6ab36888b3c</title>
<g id="a_node7"><a xlink:href="dir_8b29354ea792f14f229ba6ab36888b3c.html" target="_top" xlink:title="Display">
<polygon fill="white" stroke="red" points="288,-268 234,-268 234,-232 288,-232 288,-268"/>
<text text-anchor="middle" x="261" y="-247.5" font-family="Helvetica,sans-Serif" font-size="10.00">Display</text>
</a>
</g>
</g>
<!-- dir_0674f0083f2092f390ac2eb0a6bbcc00&#45;&gt;dir_8b29354ea792f14f229ba6ab36888b3c -->
<g id="edge5" class="edge">
<title>dir_0674f0083f2092f390ac2eb0a6bbcc00&#45;&gt;dir_8b29354ea792f14f229ba6ab36888b3c</title>
<path fill="none" stroke="black" d="M345.6,-303.88C330.85,-294.66 312.47,-283.17 296.62,-273.26"/>
<polygon fill="black" stroke="black" points="298.45,-270.28 288.12,-267.95 294.74,-276.22 298.45,-270.28"/>
<g id="a_edge5&#45;headlabel"><a xlink:href="dir_000019_000021.html" target="_top" xlink:title="2">
<text text-anchor="middle" x="303" y="-267.28" font-family="Helvetica,sans-Serif" font-size="10.00">2</text>
</a>
</g>
</g>
<!-- dir_d1912c7983f599f589f0119eae45b817 -->
<g id="node9" class="node">
<title>dir_d1912c7983f599f589f0119eae45b817</title>
<g id="a_node9"><a xlink:href="dir_d1912c7983f599f589f0119eae45b817.html" target="_top" xlink:title="MIDI_Constants">
<polygon fill="white" stroke="red" points="387.5,-196 294.5,-196 294.5,-160 387.5,-160 387.5,-196"/>
<text text-anchor="middle" x="341" y="-175.5" font-family="Helvetica,sans-Serif" font-size="10.00">MIDI_Constants</text>
</a>
</g>
</g>
<!-- dir_0674f0083f2092f390ac2eb0a6bbcc00&#45;&gt;dir_d1912c7983f599f589f0119eae45b817 -->
<g id="edge7" class="edge">
<title>dir_0674f0083f2092f390ac2eb0a6bbcc00&#45;&gt;dir_d1912c7983f599f589f0119eae45b817</title>
<path fill="none" stroke="black" d="M369.14,-303.87C363.66,-279.56 353.58,-234.82 347.09,-206.01"/>
<polygon fill="black" stroke="black" points="350.49,-205.18 344.87,-196.19 343.66,-206.71 350.49,-205.18"/>
<g id="a_edge7&#45;headlabel"><a xlink:href="dir_000019_000027.html" target="_top" xlink:title="1">
<text text-anchor="middle" x="354.05" y="-205.56" font-family="Helvetica,sans-Serif" font-size="10.00">1</text>
</a>
</g>
</g>
<!-- dir_0674f0083f2092f390ac2eb0a6bbcc00&#45;&gt;dir_4b65e0e927a600dbbefc4f76cc5a7f7c -->
<g id="edge3" class="edge">
<title>dir_0674f0083f2092f390ac2eb0a6bbcc00&#45;&gt;dir_4b65e0e927a600dbbefc4f76cc5a7f7c</title>
<path fill="none" stroke="black" d="M360.12,-340.13C352.83,-350.26 343.83,-363.51 337,-376 325.97,-396.18 315.87,-420.23 308.86,-438.24"/>
<polygon fill="black" stroke="black" points="305.5,-437.22 305.2,-447.81 312.04,-439.72 305.5,-437.22"/>
<g id="a_edge3&#45;headlabel"><a xlink:href="dir_000019_000029.html" target="_top" xlink:title="1">
<text text-anchor="middle" x="304.13" y="-430.35" font-family="Helvetica,sans-Serif" font-size="10.00">1</text>
</a>
</g>
</g>
<!-- dir_6a6436ad46e42aad24bc1ce93af4f420 -->
<g id="node11" class="node">
<title>dir_6a6436ad46e42aad24bc1ce93af4f420</title>
<g id="a_node11"><a xlink:href="dir_6a6436ad46e42aad24bc1ce93af4f420.html" target="_top" xlink:title="MIDI_Interfaces">
<polygon fill="white" stroke="red" points="175.5,-268 82.5,-268 82.5,-232 175.5,-232 175.5,-268"/>
<text text-anchor="middle" x="129" y="-247.5" font-family="Helvetica,sans-Serif" font-size="10.00">MIDI_Interfaces</text>
</a>
</g>
</g>
<!-- dir_0674f0083f2092f390ac2eb0a6bbcc00&#45;&gt;dir_6a6436ad46e42aad24bc1ce93af4f420 -->
<g id="edge4" class="edge">
<title>dir_0674f0083f2092f390ac2eb0a6bbcc00&#45;&gt;dir_6a6436ad46e42aad24bc1ce93af4f420</title>
<path fill="none" stroke="black" d="M325.95,-307.5C285.87,-296 228.16,-279.45 185.56,-267.23"/>
<polygon fill="black" stroke="black" points="186.48,-263.85 175.9,-264.46 184.55,-270.58 186.48,-263.85"/>
<g id="a_edge4&#45;headlabel"><a xlink:href="dir_000019_000033.html" target="_top" xlink:title="2">
<text text-anchor="middle" x="190.72" y="-259.61" font-family="Helvetica,sans-Serif" font-size="10.00">2</text>
</a>
</g>
</g>
<!-- dir_2203ff04ab105d4802e644d41d784e20 -->
<g id="node12" class="node">
<title>dir_2203ff04ab105d4802e644d41d784e20</title>
<g id="a_node12"><a xlink:href="dir_2203ff04ab105d4802e644d41d784e20.html" target="_top" xlink:title="MIDI_Outputs">
<polygon fill="white" stroke="red" points="488.5,-268 405.5,-268 405.5,-232 488.5,-232 488.5,-268"/>
<text text-anchor="middle" x="447" y="-247.5" font-family="Helvetica,sans-Serif" font-size="10.00">MIDI_Outputs</text>
</a>
</g>
</g>
<!-- dir_0674f0083f2092f390ac2eb0a6bbcc00&#45;&gt;dir_2203ff04ab105d4802e644d41d784e20 -->
<g id="edge2" class="edge">
<title>dir_0674f0083f2092f390ac2eb0a6bbcc00&#45;&gt;dir_2203ff04ab105d4802e644d41d784e20</title>
<path fill="none" stroke="black" d="M385.38,-303.7C393.71,-294.97 404.87,-284.24 415.46,-274.75"/>
<polygon fill="black" stroke="black" points="417.82,-277.34 423.02,-268.1 413.2,-272.08 417.82,-277.34"/>
<g id="a_edge2&#45;headlabel"><a xlink:href="dir_000019_000041.html" target="_top" xlink:title="1">
<text text-anchor="middle" x="417" y="-279.34" font-family="Helvetica,sans-Serif" font-size="10.00">1</text>
</a>
</g>
</g>
<!-- dir_0674f0083f2092f390ac2eb0a6bbcc00&#45;&gt;dir_ab77b90ed5338b1b1a87b678e21cf0af -->
<g id="edge6" class="edge">
<title>dir_0674f0083f2092f390ac2eb0a6bbcc00&#45;&gt;dir_ab77b90ed5338b1b1a87b678e21cf0af</title>
<path fill="none" stroke="black" d="M420.05,-306.59C444.62,-297.73 474.4,-284.84 498,-268 522.75,-250.34 545.35,-223.79 560.16,-204.28"/>
<polygon fill="black" stroke="black" points="563.06,-206.25 566.21,-196.13 557.44,-202.07 563.06,-206.25"/>
<g id="a_edge6&#45;headlabel"><a xlink:href="dir_000019_000048.html" target="_top" xlink:title="1">
<text text-anchor="middle" x="563.2" y="-208.33" font-family="Helvetica,sans-Serif" font-size="10.00">1</text>
</a>
</g>
</g>
<!-- dir_c90f87021e89d05236fc514cb49c4dcf&#45;&gt;dir_15b6432dff6a6d357bf70f8fbf2cdf14 -->
<g id="edge43" class="edge">
<title>dir_c90f87021e89d05236fc514cb49c4dcf&#45;&gt;dir_15b6432dff6a6d357bf70f8fbf2cdf14</title>
<path fill="none" stroke="black" d="M287.43,-87.7C290.36,-79.81 293.89,-70.3 297.14,-61.55"/>
<polygon fill="black" stroke="black" points="300.45,-62.7 300.65,-52.1 293.88,-60.26 300.45,-62.7"/>
<g id="a_edge43&#45;headlabel"><a xlink:href="dir_000020_000003.html" target="_top" xlink:title="6">
<text text-anchor="middle" x="301.86" y="-64.56" font-family="Helvetica,sans-Serif" font-size="10.00">6</text>
</a>
</g>
</g>
<!-- dir_8b29354ea792f14f229ba6ab36888b3c&#45;&gt;dir_15b6432dff6a6d357bf70f8fbf2cdf14 -->
<g id="edge25" class="edge">
<title>dir_8b29354ea792f14f229ba6ab36888b3c&#45;&gt;dir_15b6432dff6a6d357bf70f8fbf2cdf14</title>
<path fill="none" stroke="black" d="M253.72,-231.6C242.09,-200.99 222.78,-136.22 245,-88 250.76,-75.5 261.09,-64.85 271.68,-56.44"/>
<polygon fill="black" stroke="black" points="273.81,-59.23 279.76,-50.46 269.64,-53.6 273.81,-59.23"/>
<g id="a_edge25&#45;headlabel"><a xlink:href="dir_000021_000003.html" target="_top" xlink:title="4">
<text text-anchor="middle" x="272.61" y="-61.15" font-family="Helvetica,sans-Serif" font-size="10.00">4</text>
</a>
</g>
</g>
<!-- dir_8b29354ea792f14f229ba6ab36888b3c&#45;&gt;dir_96809ae32da64306a703eb7e36380126 -->
<g id="edge27" class="edge">
<title>dir_8b29354ea792f14f229ba6ab36888b3c&#45;&gt;dir_96809ae32da64306a703eb7e36380126</title>
<path fill="none" stroke="black" d="M266.05,-268.13C272.27,-287.15 284.23,-318.05 302,-340 311.83,-352.14 325.04,-362.99 337.39,-371.66"/>
<polygon fill="black" stroke="black" points="335.51,-374.62 345.76,-377.31 339.43,-368.81 335.51,-374.62"/>
<g id="a_edge27&#45;headlabel"><a xlink:href="dir_000021_000018.html" target="_top" xlink:title="2">
<text text-anchor="middle" x="330.94" y="-372.46" font-family="Helvetica,sans-Serif" font-size="10.00">2</text>
</a>
</g>
</g>
<!-- dir_8b29354ea792f14f229ba6ab36888b3c&#45;&gt;dir_c90f87021e89d05236fc514cb49c4dcf -->
<g id="edge29" class="edge">
<title>dir_8b29354ea792f14f229ba6ab36888b3c&#45;&gt;dir_c90f87021e89d05236fc514cb49c4dcf</title>
<path fill="none" stroke="black" d="M262.2,-231.87C263.59,-213.9 266.17,-184.87 270,-160 271.31,-151.51 273.08,-142.33 274.83,-134.03"/>
<polygon fill="black" stroke="black" points="278.28,-134.62 276.98,-124.1 271.44,-133.13 278.28,-134.62"/>
<g id="a_edge29&#45;headlabel"><a xlink:href="dir_000021_000020.html" target="_top" xlink:title="1">
<text text-anchor="middle" x="280.29" y="-136.23" font-family="Helvetica,sans-Serif" font-size="10.00">1</text>
</a>
</g>
</g>
<!-- dir_8b29354ea792f14f229ba6ab36888b3c&#45;&gt;dir_4b65e0e927a600dbbefc4f76cc5a7f7c -->
<g id="edge26" class="edge">
<title>dir_8b29354ea792f14f229ba6ab36888b3c&#45;&gt;dir_4b65e0e927a600dbbefc4f76cc5a7f7c</title>
<path fill="none" stroke="black" d="M264.06,-268.23C270.66,-305.4 286.28,-393.35 294.2,-438"/>
<polygon fill="black" stroke="black" points="290.76,-438.62 295.95,-447.85 297.65,-437.39 290.76,-438.62"/>
<g id="a_edge26&#45;headlabel"><a xlink:href="dir_000021_000029.html" target="_top" xlink:title="5">
<text text-anchor="middle" x="287.34" y="-433.07" font-family="Helvetica,sans-Serif" font-size="10.00">5</text>
</a>
</g>
</g>
<!-- dir_8b29354ea792f14f229ba6ab36888b3c&#45;&gt;dir_ab77b90ed5338b1b1a87b678e21cf0af -->
<g id="edge28" class="edge">
<title>dir_8b29354ea792f14f229ba6ab36888b3c&#45;&gt;dir_ab77b90ed5338b1b1a87b678e21cf0af</title>
<path fill="none" stroke="black" d="M288.03,-243.03C343.6,-230.76 470.97,-202.63 536.85,-188.09"/>
<polygon fill="black" stroke="black" points="537.87,-191.45 546.88,-185.87 536.36,-184.61 537.87,-191.45"/>
<g id="a_edge28&#45;headlabel"><a xlink:href="dir_000021_000048.html" target="_top" xlink:title="1">
<text text-anchor="middle" x="534.97" y="-192.49" font-family="Helvetica,sans-Serif" font-size="10.00">1</text>
</a>
</g>
</g>
<!-- dir_c0f85d8ffdd378c4053eb6a83fbfb7be -->
<g id="node8" class="node">
<title>dir_c0f85d8ffdd378c4053eb6a83fbfb7be</title>
<g id="a_node8"><a xlink:href="dir_c0f85d8ffdd378c4053eb6a83fbfb7be.html" target="_top" xlink:title="Doxygen">
<polygon fill="white" stroke="black" points="123,-628 63,-628 63,-592 123,-592 123,-628"/>
<text text-anchor="middle" x="93" y="-607.5" font-family="Helvetica,sans-Serif" font-size="10.00">Doxygen</text>
</a>
</g>
</g>
<!-- dir_d1912c7983f599f589f0119eae45b817&#45;&gt;dir_15b6432dff6a6d357bf70f8fbf2cdf14 -->
<g id="edge44" class="edge">
<title>dir_d1912c7983f599f589f0119eae45b817&#45;&gt;dir_15b6432dff6a6d357bf70f8fbf2cdf14</title>
<path fill="none" stroke="black" d="M336.9,-159.87C331.08,-135.56 320.37,-90.82 313.47,-62.01"/>
<polygon fill="black" stroke="black" points="316.85,-61.1 311.12,-52.19 310.04,-62.73 316.85,-61.1"/>
<g id="a_edge44&#45;headlabel"><a xlink:href="dir_000027_000003.html" target="_top" xlink:title="1">
<text text-anchor="middle" x="320.45" y="-61.43" font-family="Helvetica,sans-Serif" font-size="10.00">1</text>
</a>
</g>
</g>
<!-- dir_d1912c7983f599f589f0119eae45b817&#45;&gt;dir_c90f87021e89d05236fc514cb49c4dcf -->
<g id="edge45" class="edge">
<title>dir_d1912c7983f599f589f0119eae45b817&#45;&gt;dir_c90f87021e89d05236fc514cb49c4dcf</title>
<path fill="none" stroke="black" d="M326.17,-159.7C318.98,-151.3 310.2,-141.07 302.31,-131.86"/>
<polygon fill="black" stroke="black" points="304.83,-129.42 295.66,-124.1 299.51,-133.97 304.83,-129.42"/>
<g id="a_edge45&#45;headlabel"><a xlink:href="dir_000027_000020.html" target="_top" xlink:title="2">
<text text-anchor="middle" x="309.32" y="-127.8" font-family="Helvetica,sans-Serif" font-size="10.00">2</text>
</a>
</g>
</g>
<!-- dir_4b65e0e927a600dbbefc4f76cc5a7f7c&#45;&gt;dir_15b6432dff6a6d357bf70f8fbf2cdf14 -->
<g id="edge16" class="edge">
<title>dir_4b65e0e927a600dbbefc4f76cc5a7f7c&#45;&gt;dir_15b6432dff6a6d357bf70f8fbf2cdf14</title>
<path fill="none" stroke="black" d="M336.07,-458.9C429.64,-442.45 668,-393.62 668,-323 668,-323 668,-323 668,-177 668,-130.73 652.23,-114.06 614,-88 570.55,-58.39 416,-43.18 344.18,-37.58"/>
<polygon fill="black" stroke="black" points="344.45,-34.09 334.21,-36.83 343.92,-41.07 344.45,-34.09"/>
<g id="a_edge16&#45;headlabel"><a xlink:href="dir_000029_000003.html" target="_top" xlink:title="16">
<text text-anchor="middle" x="348.25" y="-29.03" font-family="Helvetica,sans-Serif" font-size="10.00">16</text>
</a>
</g>
</g>
<!-- dir_4b65e0e927a600dbbefc4f76cc5a7f7c&#45;&gt;dir_96809ae32da64306a703eb7e36380126 -->
<g id="edge17" class="edge">
<title>dir_4b65e0e927a600dbbefc4f76cc5a7f7c&#45;&gt;dir_96809ae32da64306a703eb7e36380126</title>
<path fill="none" stroke="black" d="M317.29,-447.7C326.43,-439.05 337.64,-428.45 347.6,-419.03"/>
<polygon fill="black" stroke="black" points="350.06,-421.52 354.92,-412.1 345.25,-416.43 350.06,-421.52"/>
<g id="a_edge17&#45;headlabel"><a xlink:href="dir_000029_000018.html" target="_top" xlink:title="3">
<text text-anchor="middle" x="349.4" y="-423.55" font-family="Helvetica,sans-Serif" font-size="10.00">3</text>
</a>
</g>
</g>
<!-- dir_4b65e0e927a600dbbefc4f76cc5a7f7c&#45;&gt;dir_c90f87021e89d05236fc514cb49c4dcf -->
<g id="edge19" class="edge">
<title>dir_4b65e0e927a600dbbefc4f76cc5a7f7c&#45;&gt;dir_c90f87021e89d05236fc514cb49c4dcf</title>
<path fill="none" stroke="black" d="M274.88,-447.82C244.16,-423.73 195,-376.78 195,-323 195,-323 195,-323 195,-249 195,-208.89 189.09,-194.23 210,-160 218.47,-146.13 232.04,-134.69 245.05,-126.02"/>
<polygon fill="black" stroke="black" points="247.29,-128.75 253.91,-120.48 243.57,-122.82 247.29,-128.75"/>
<g id="a_edge19&#45;headlabel"><a xlink:href="dir_000029_000020.html" target="_top" xlink:title="2">
<text text-anchor="middle" x="245.75" y="-130.57" font-family="Helvetica,sans-Serif" font-size="10.00">2</text>
</a>
</g>
</g>
<!-- dir_9c9f4aef8027530753ea2ed5df8d4f38 -->
<g id="node13" class="node">
<title>dir_9c9f4aef8027530753ea2ed5df8d4f38</title>
<g id="a_node13"><a xlink:href="dir_9c9f4aef8027530753ea2ed5df8d4f38.html" target="_top" xlink:title="MIDI_Parsers">
<polygon fill="white" stroke="black" points="136,-196 56,-196 56,-160 136,-160 136,-196"/>
<text text-anchor="middle" x="96" y="-175.5" font-family="Helvetica,sans-Serif" font-size="10.00">MIDI_Parsers</text>
</a>
</g>
</g>
<!-- dir_4b65e0e927a600dbbefc4f76cc5a7f7c&#45;&gt;dir_9c9f4aef8027530753ea2ed5df8d4f38 -->
<g id="edge18" class="edge">
<title>dir_4b65e0e927a600dbbefc4f76cc5a7f7c&#45;&gt;dir_9c9f4aef8027530753ea2ed5df8d4f38</title>
<path fill="none" stroke="black" d="M261.84,-451.72C239.6,-442.65 211.56,-429.17 190,-412 125.72,-360.8 101.33,-345.5 74,-268 66.72,-247.36 73.61,-223.21 81.55,-205.28"/>
<polygon fill="black" stroke="black" points="84.82,-206.55 85.98,-196.02 78.51,-203.52 84.82,-206.55"/>
<g id="a_edge18&#45;headlabel"><a xlink:href="dir_000029_000046.html" target="_top" xlink:title="1">
<text text-anchor="middle" x="85.83" y="-208.52" font-family="Helvetica,sans-Serif" font-size="10.00">1</text>
</a>
</g>
</g>
<!-- dir_6a6436ad46e42aad24bc1ce93af4f420&#45;&gt;dir_15b6432dff6a6d357bf70f8fbf2cdf14 -->
<g id="edge21" class="edge">
<title>dir_6a6436ad46e42aad24bc1ce93af4f420&#45;&gt;dir_15b6432dff6a6d357bf70f8fbf2cdf14</title>
<path fill="none" stroke="black" d="M133.96,-231.94C140.59,-209.71 152.39,-172.22 160,-160 187.95,-115.1 237.34,-78.03 271.09,-56.22"/>
<polygon fill="black" stroke="black" points="273.17,-59.05 279.74,-50.74 269.42,-53.14 273.17,-59.05"/>
<g id="a_edge21&#45;headlabel"><a xlink:href="dir_000033_000003.html" target="_top" xlink:title="24">
<text text-anchor="middle" x="271.65" y="-60.87" font-family="Helvetica,sans-Serif" font-size="10.00">24</text>
</a>
</g>
</g>
<!-- dir_6a6436ad46e42aad24bc1ce93af4f420&#45;&gt;dir_c90f87021e89d05236fc514cb49c4dcf -->
<g id="edge23" class="edge">
<title>dir_6a6436ad46e42aad24bc1ce93af4f420&#45;&gt;dir_c90f87021e89d05236fc514cb49c4dcf</title>
<path fill="none" stroke="black" d="M139.61,-231.65C153.62,-209.08 177.92,-171.22 190,-160 206.08,-145.06 227.1,-132.47 244.88,-123.32"/>
<polygon fill="black" stroke="black" points="246.45,-126.45 253.84,-118.85 243.33,-120.18 246.45,-126.45"/>
<g id="a_edge23&#45;headlabel"><a xlink:href="dir_000033_000020.html" target="_top" xlink:title="2">
<text text-anchor="middle" x="244.5" y="-128.09" font-family="Helvetica,sans-Serif" font-size="10.00">2</text>
</a>
</g>
</g>
<!-- dir_6a6436ad46e42aad24bc1ce93af4f420&#45;&gt;dir_9c9f4aef8027530753ea2ed5df8d4f38 -->
<g id="edge22" class="edge">
<title>dir_6a6436ad46e42aad24bc1ce93af4f420&#45;&gt;dir_9c9f4aef8027530753ea2ed5df8d4f38</title>
<path fill="none" stroke="black" d="M120.84,-231.7C117.09,-223.73 112.55,-214.1 108.38,-205.26"/>
<polygon fill="black" stroke="black" points="111.49,-203.66 104.06,-196.1 105.16,-206.64 111.49,-203.66"/>
<g id="a_edge22&#45;headlabel"><a xlink:href="dir_000033_000046.html" target="_top" xlink:title="17">
<text text-anchor="middle" x="115.59" y="-203.2" font-family="Helvetica,sans-Serif" font-size="10.00">17</text>
</a>
</g>
</g>
<!-- dir_2203ff04ab105d4802e644d41d784e20&#45;&gt;dir_15b6432dff6a6d357bf70f8fbf2cdf14 -->
<g id="edge9" class="edge">
<title>dir_2203ff04ab105d4802e644d41d784e20&#45;&gt;dir_15b6432dff6a6d357bf70f8fbf2cdf14</title>
<path fill="none" stroke="black" d="M488.66,-249.12C529.08,-246.73 588.5,-236.03 618,-196 627.49,-183.12 621.85,-175.53 618,-160 609.3,-124.88 609.06,-109.56 580,-88 543.11,-60.62 410.18,-44.66 344.41,-38.27"/>
<polygon fill="black" stroke="black" points="344.74,-34.78 334.45,-37.33 344.08,-41.75 344.74,-34.78"/>
<g id="a_edge9&#45;headlabel"><a xlink:href="dir_000041_000003.html" target="_top" xlink:title="28">
<text text-anchor="middle" x="348.58" y="-29.8" font-family="Helvetica,sans-Serif" font-size="10.00">28</text>
</a>
</g>
</g>
<!-- dir_2203ff04ab105d4802e644d41d784e20&#45;&gt;dir_96809ae32da64306a703eb7e36380126 -->
<g id="edge10" class="edge">
<title>dir_2203ff04ab105d4802e644d41d784e20&#45;&gt;dir_96809ae32da64306a703eb7e36380126</title>
<path fill="none" stroke="black" d="M446.57,-268.12C445.44,-286.85 441.61,-317.25 429,-340 422.91,-350.98 413.78,-361.02 404.64,-369.34"/>
<polygon fill="black" stroke="black" points="402.31,-366.73 397.03,-375.91 406.88,-372.03 402.31,-366.73"/>
<g id="a_edge10&#45;headlabel"><a xlink:href="dir_000041_000018.html" target="_top" xlink:title="42">
<text text-anchor="middle" x="403.17" y="-359.73" font-family="Helvetica,sans-Serif" font-size="10.00">42</text>
</a>
</g>
</g>
<!-- dir_2203ff04ab105d4802e644d41d784e20&#45;&gt;dir_0674f0083f2092f390ac2eb0a6bbcc00 -->
<g id="edge8" class="edge">
<title>dir_2203ff04ab105d4802e644d41d784e20&#45;&gt;dir_0674f0083f2092f390ac2eb0a6bbcc00</title>
<path fill="none" stroke="black" d="M434.81,-268.1C426.53,-276.8 415.38,-287.52 404.78,-297.03"/>
<polygon fill="black" stroke="black" points="402.4,-294.46 397.21,-303.7 407.03,-299.72 402.4,-294.46"/>
<g id="a_edge8&#45;headlabel"><a xlink:href="dir_000041_000019.html" target="_top" xlink:title="2">
<text text-anchor="middle" x="403.22" y="-287.46" font-family="Helvetica,sans-Serif" font-size="10.00">2</text>
</a>
</g>
</g>
<!-- dir_2203ff04ab105d4802e644d41d784e20&#45;&gt;dir_c90f87021e89d05236fc514cb49c4dcf -->
<g id="edge12" class="edge">
<title>dir_2203ff04ab105d4802e644d41d784e20&#45;&gt;dir_c90f87021e89d05236fc514cb49c4dcf</title>
<path fill="none" stroke="black" d="M469.01,-231.68C490.03,-213.04 516.04,-182.97 498,-160 476.06,-132.06 374.4,-116.97 318.35,-110.64"/>
<polygon fill="black" stroke="black" points="318.43,-107.13 308.11,-109.53 317.68,-114.09 318.43,-107.13"/>
<g id="a_edge12&#45;headlabel"><a xlink:href="dir_000041_000020.html" target="_top" xlink:title="29">
<text text-anchor="middle" x="322.31" y="-102.2" font-family="Helvetica,sans-Serif" font-size="10.00">29</text>
</a>
</g>
</g>
<!-- dir_2203ff04ab105d4802e644d41d784e20&#45;&gt;dir_d1912c7983f599f589f0119eae45b817 -->
<g id="edge13" class="edge">
<title>dir_2203ff04ab105d4802e644d41d784e20&#45;&gt;dir_d1912c7983f599f589f0119eae45b817</title>
<path fill="none" stroke="black" d="M421.07,-231.88C407.34,-222.81 390.29,-211.55 375.46,-201.76"/>
<polygon fill="black" stroke="black" points="377.3,-198.78 367.03,-196.19 373.45,-204.62 377.3,-198.78"/>
<g id="a_edge13&#45;headlabel"><a xlink:href="dir_000041_000027.html" target="_top" xlink:title="2">
<text text-anchor="middle" x="381.87" y="-195.89" font-family="Helvetica,sans-Serif" font-size="10.00">2</text>
</a>
</g>
</g>
<!-- dir_f5601f71f9b8dfdd9adc4acfaf93276a -->
<g id="node14" class="node">
<title>dir_f5601f71f9b8dfdd9adc4acfaf93276a</title>
<g id="a_node14"><a xlink:href="dir_f5601f71f9b8dfdd9adc4acfaf93276a.html" target="_top" xlink:title="MIDI_Senders">
<polygon fill="white" stroke="black" points="488.5,-196 405.5,-196 405.5,-160 488.5,-160 488.5,-196"/>
<text text-anchor="middle" x="447" y="-175.5" font-family="Helvetica,sans-Serif" font-size="10.00">MIDI_Senders</text>
</a>
</g>
</g>
<!-- dir_2203ff04ab105d4802e644d41d784e20&#45;&gt;dir_f5601f71f9b8dfdd9adc4acfaf93276a -->
<g id="edge14" class="edge">
<title>dir_2203ff04ab105d4802e644d41d784e20&#45;&gt;dir_f5601f71f9b8dfdd9adc4acfaf93276a</title>
<path fill="none" stroke="black" d="M447,-231.7C447,-223.98 447,-214.71 447,-206.11"/>
<polygon fill="black" stroke="black" points="450.5,-206.1 447,-196.1 443.5,-206.1 450.5,-206.1"/>
<g id="a_edge14&#45;headlabel"><a xlink:href="dir_000041_000047.html" target="_top" xlink:title="52">
<text text-anchor="middle" x="453.34" y="-207.2" font-family="Helvetica,sans-Serif" font-size="10.00">52</text>
</a>
</g>
</g>
<!-- dir_2203ff04ab105d4802e644d41d784e20&#45;&gt;dir_ab77b90ed5338b1b1a87b678e21cf0af -->
<g id="edge11" class="edge">
<title>dir_2203ff04ab105d4802e644d41d784e20&#45;&gt;dir_ab77b90ed5338b1b1a87b678e21cf0af</title>
<path fill="none" stroke="black" d="M479.05,-231.88C496.75,-222.41 518.92,-210.57 537.78,-200.49"/>
<polygon fill="black" stroke="black" points="539.57,-203.51 546.74,-195.71 536.27,-197.33 539.57,-203.51"/>
<g id="a_edge11&#45;headlabel"><a xlink:href="dir_000041_000048.html" target="_top" xlink:title="2">
<text text-anchor="middle" x="537.73" y="-205.2" font-family="Helvetica,sans-Serif" font-size="10.00">2</text>
</a>
</g>
</g>
<!-- dir_fa6aac357b09690b09adfbf9999fddaa -->
<g id="node17" class="node">
<title>dir_fa6aac357b09690b09adfbf9999fddaa</title>
<g id="a_node17"><a xlink:href="dir_fa6aac357b09690b09adfbf9999fddaa.html" target="_top" xlink:title="Submodules">
<polygon fill="white" stroke="red" points="558.5,-124 481.5,-124 481.5,-88 558.5,-88 558.5,-124"/>
<text text-anchor="middle" x="520" y="-103.5" font-family="Helvetica,sans-Serif" font-size="10.00">Submodules</text>
</a>
</g>
</g>
<!-- dir_2203ff04ab105d4802e644d41d784e20&#45;&gt;dir_fa6aac357b09690b09adfbf9999fddaa -->
<g id="edge15" class="edge">
<title>dir_2203ff04ab105d4802e644d41d784e20&#45;&gt;dir_fa6aac357b09690b09adfbf9999fddaa</title>
<path fill="none" stroke="black" d="M478.16,-231.84C491.23,-222.94 505.17,-210.81 513,-196 522.99,-177.1 524.25,-152.73 523.28,-134.27"/>
<polygon fill="black" stroke="black" points="526.76,-133.87 522.51,-124.17 519.78,-134.41 526.76,-133.87"/>
<g id="a_edge15&#45;headlabel"><a xlink:href="dir_000041_000051.html" target="_top" xlink:title="4">
<text text-anchor="middle" x="529.87" y="-134.74" font-family="Helvetica,sans-Serif" font-size="10.00">4</text>
</a>
</g>
</g>
<!-- dir_9c9f4aef8027530753ea2ed5df8d4f38&#45;&gt;dir_15b6432dff6a6d357bf70f8fbf2cdf14 -->
<g id="edge34" class="edge">
<title>dir_9c9f4aef8027530753ea2ed5df8d4f38&#45;&gt;dir_15b6432dff6a6d357bf70f8fbf2cdf14</title>
<path fill="none" stroke="black" d="M102.21,-159.77C110.27,-139.77 126.16,-107.1 150,-88 184.99,-59.96 235.58,-46.42 269.8,-40.11"/>
<polygon fill="black" stroke="black" points="270.59,-43.53 279.85,-38.38 269.41,-36.63 270.59,-43.53"/>
<g id="a_edge34&#45;headlabel"><a xlink:href="dir_000046_000003.html" target="_top" xlink:title="5">
<text text-anchor="middle" x="267.53" y="-44.44" font-family="Helvetica,sans-Serif" font-size="10.00">5</text>
</a>
</g>
</g>
<!-- dir_9c9f4aef8027530753ea2ed5df8d4f38&#45;&gt;dir_c90f87021e89d05236fc514cb49c4dcf -->
<g id="edge35" class="edge">
<title>dir_9c9f4aef8027530753ea2ed5df8d4f38&#45;&gt;dir_c90f87021e89d05236fc514cb49c4dcf</title>
<path fill="none" stroke="black" d="M136.14,-161.81C168.27,-149.66 212.95,-132.75 244.17,-120.94"/>
<polygon fill="black" stroke="black" points="245.68,-124.11 253.8,-117.29 243.21,-117.56 245.68,-124.11"/>
<g id="a_edge35&#45;headlabel"><a xlink:href="dir_000046_000020.html" target="_top" xlink:title="4">
<text text-anchor="middle" x="243.33" y="-125.53" font-family="Helvetica,sans-Serif" font-size="10.00">4</text>
</a>
</g>
</g>
<!-- dir_f5601f71f9b8dfdd9adc4acfaf93276a&#45;&gt;dir_15b6432dff6a6d357bf70f8fbf2cdf14 -->
<g id="edge47" class="edge">
<title>dir_f5601f71f9b8dfdd9adc4acfaf93276a&#45;&gt;dir_15b6432dff6a6d357bf70f8fbf2cdf14</title>
<path fill="none" stroke="black" d="M430.11,-159.87C405.41,-134.82 359.3,-88.05 331.06,-59.41"/>
<polygon fill="black" stroke="black" points="333.46,-56.85 323.95,-52.19 328.48,-61.77 333.46,-56.85"/>
<g id="a_edge47&#45;headlabel"><a xlink:href="dir_000047_000003.html" target="_top" xlink:title="3">
<text text-anchor="middle" x="338.01" y="-54.92" font-family="Helvetica,sans-Serif" font-size="10.00">3</text>
</a>
</g>
</g>
<!-- dir_f5601f71f9b8dfdd9adc4acfaf93276a&#45;&gt;dir_0674f0083f2092f390ac2eb0a6bbcc00 -->
<g id="edge46" class="edge">
<title>dir_f5601f71f9b8dfdd9adc4acfaf93276a&#45;&gt;dir_0674f0083f2092f390ac2eb0a6bbcc00</title>
<path fill="none" stroke="black" d="M426.68,-196.06C416.43,-205.65 404.59,-218.42 397,-232 386.23,-251.27 380.1,-275.61 376.73,-293.96"/>
<polygon fill="black" stroke="black" points="373.25,-293.55 375.06,-303.99 380.16,-294.71 373.25,-293.55"/>
<g id="a_edge46&#45;headlabel"><a xlink:href="dir_000047_000019.html" target="_top" xlink:title="6">
<text text-anchor="middle" x="371.04" y="-287.04" font-family="Helvetica,sans-Serif" font-size="10.00">6</text>
</a>
</g>
</g>
<!-- dir_ab77b90ed5338b1b1a87b678e21cf0af&#45;&gt;dir_15b6432dff6a6d357bf70f8fbf2cdf14 -->
<g id="edge36" class="edge">
<title>dir_ab77b90ed5338b1b1a87b678e21cf0af&#45;&gt;dir_15b6432dff6a6d357bf70f8fbf2cdf14</title>
<path fill="none" stroke="black" d="M581.47,-159.87C584.42,-139.96 585.74,-107.38 568,-88 538.36,-55.61 409.04,-42.11 344.26,-37.3"/>
<polygon fill="black" stroke="black" points="344.29,-33.79 334.07,-36.57 343.8,-40.77 344.29,-33.79"/>
<g id="a_edge36&#45;headlabel"><a xlink:href="dir_000048_000003.html" target="_top" xlink:title="10">
<text text-anchor="middle" x="348.08" y="-28.71" font-family="Helvetica,sans-Serif" font-size="10.00">10</text>
</a>
</g>
</g>
<!-- dir_ab77b90ed5338b1b1a87b678e21cf0af&#45;&gt;dir_c90f87021e89d05236fc514cb49c4dcf -->
<g id="edge38" class="edge">
<title>dir_ab77b90ed5338b1b1a87b678e21cf0af&#45;&gt;dir_c90f87021e89d05236fc514cb49c4dcf</title>
<path fill="none" stroke="black" d="M546.97,-168.67C536.23,-165.85 524.1,-162.72 513,-160 444.35,-143.19 363.86,-125.18 318,-115.08"/>
<polygon fill="black" stroke="black" points="318.73,-111.66 308.21,-112.93 317.23,-118.49 318.73,-111.66"/>
<g id="a_edge38&#45;headlabel"><a xlink:href="dir_000048_000020.html" target="_top" xlink:title="6">
<text text-anchor="middle" x="322.85" y="-107.15" font-family="Helvetica,sans-Serif" font-size="10.00">6</text>
</a>
</g>
</g>
<!-- dir_ab77b90ed5338b1b1a87b678e21cf0af&#45;&gt;dir_4b65e0e927a600dbbefc4f76cc5a7f7c -->
<g id="edge37" class="edge">
<title>dir_ab77b90ed5338b1b1a87b678e21cf0af&#45;&gt;dir_4b65e0e927a600dbbefc4f76cc5a7f7c</title>
<path fill="none" stroke="black" d="M572.33,-196.22C565.8,-214.77 554.02,-244.76 539,-268 492.21,-340.42 478.02,-360.32 409,-412 389.81,-426.37 366.11,-438.39 345.63,-447.32"/>
<polygon fill="black" stroke="black" points="344.01,-444.21 336.17,-451.34 346.74,-450.65 344.01,-444.21"/>
<g id="a_edge37&#45;headlabel"><a xlink:href="dir_000048_000029.html" target="_top" xlink:title="2">
<text text-anchor="middle" x="346.21" y="-437.69" font-family="Helvetica,sans-Serif" font-size="10.00">2</text>
</a>
</g>
</g>
<!-- dir_ab77b90ed5338b1b1a87b678e21cf0af&#45;&gt;dir_fa6aac357b09690b09adfbf9999fddaa -->
<g id="edge39" class="edge">
<title>dir_ab77b90ed5338b1b1a87b678e21cf0af&#45;&gt;dir_fa6aac357b09690b09adfbf9999fddaa</title>
<path fill="none" stroke="black" d="M563.66,-159.7C556.71,-151.3 548.23,-141.07 540.6,-131.86"/>
<polygon fill="black" stroke="black" points="543.25,-129.57 534.17,-124.1 537.86,-134.04 543.25,-129.57"/>
<g id="a_edge39&#45;headlabel"><a xlink:href="dir_000048_000051.html" target="_top" xlink:title="1">
<text text-anchor="middle" x="547.73" y="-128.03" font-family="Helvetica,sans-Serif" font-size="10.00">1</text>
</a>
</g>
</g>
<!-- dir_87225e6cbcb4cf5309991212c88ac25b -->
<g id="node16" class="node">
<title>dir_87225e6cbcb4cf5309991212c88ac25b</title>
<g id="a_node16"><a xlink:href="dir_87225e6cbcb4cf5309991212c88ac25b.html" target="_top" xlink:title="Settings">
<polygon fill="white" stroke="black" points="72,-124 16,-124 16,-88 72,-88 72,-124"/>
<text text-anchor="middle" x="44" y="-103.5" font-family="Helvetica,sans-Serif" font-size="10.00">Settings</text>
</a>
</g>
</g>
<!-- dir_87225e6cbcb4cf5309991212c88ac25b&#45;&gt;dir_15b6432dff6a6d357bf70f8fbf2cdf14 -->
<g id="edge24" class="edge">
<title>dir_87225e6cbcb4cf5309991212c88ac25b&#45;&gt;dir_15b6432dff6a6d357bf70f8fbf2cdf14</title>
<path fill="none" stroke="black" d="M72.26,-92.9C76.81,-91.14 81.51,-89.44 86,-88 149.49,-67.66 225.43,-51.09 269.74,-42.16"/>
<polygon fill="black" stroke="black" points="270.64,-45.55 279.77,-40.17 269.28,-38.69 270.64,-45.55"/>
<g id="a_edge24&#45;headlabel"><a xlink:href="dir_000050_000003.html" target="_top" xlink:title="1">
<text text-anchor="middle" x="267.67" y="-46.54" font-family="Helvetica,sans-Serif" font-size="10.00">1</text>
</a>
</g>
</g>
<!-- dir_fa6aac357b09690b09adfbf9999fddaa&#45;&gt;dir_15b6432dff6a6d357bf70f8fbf2cdf14 -->
<g id="edge48" class="edge">
<title>dir_fa6aac357b09690b09adfbf9999fddaa&#45;&gt;dir_15b6432dff6a6d357bf70f8fbf2cdf14</title>
<path fill="none" stroke="black" d="M481.43,-92.32C442.36,-79.48 382.36,-59.77 343.9,-47.13"/>
<polygon fill="black" stroke="black" points="344.73,-43.72 334.14,-43.92 342.55,-50.37 344.73,-43.72"/>
<g id="a_edge48&#45;headlabel"><a xlink:href="dir_000051_000003.html" target="_top" xlink:title="2">
<text text-anchor="middle" x="349.03" y="-39.64" font-family="Helvetica,sans-Serif" font-size="10.00">2</text>
</a>
</g>
</g>
</g>
</svg>
