<?xml version="1.0" encoding="UTF-8" standalone="no"?>
<!DOCTYPE svg PUBLIC "-//W3C//DTD SVG 1.1//EN"
 "http://www.w3.org/Graphics/SVG/1.1/DTD/svg11.dtd">
<!-- Generated by graphviz version 2.43.0 (0)
 -->
<!-- Title: MIDI_Parsers Pages: 1 -->
<svg width="120pt" height="239pt"
 viewBox="0.00 0.00 120.00 239.00" xmlns="http://www.w3.org/2000/svg" xmlns:xlink="http://www.w3.org/1999/xlink">
<g id="graph0" class="graph" transform="scale(1 1) rotate(0) translate(4 235)">
<title>MIDI_Parsers</title>
<polygon fill="white" stroke="transparent" points="-4,4 -4,-235 116,-235 116,4 -4,4"/>
<g id="clust1" class="cluster">
<title>clusterdir_68267d1309a1af8e8297ef4c3efbcdba</title>
<g id="a_clust1"><a xlink:href="dir_68267d1309a1af8e8297ef4c3efbcdba.html" target="_top" xlink:title="src">
<polygon fill="#ddddee" stroke="black" points="8,-8 8,-223 104,-223 104,-8 8,-8"/>
<text text-anchor="middle" x="56" y="-211" font-family="Helvetica,sans-Serif" font-size="10.00">src</text>
</a>
</g>
</g>
<!-- dir_15b6432dff6a6d357bf70f8fbf2cdf14 -->
<g id="node1" class="node">
<title>dir_15b6432dff6a6d357bf70f8fbf2cdf14</title>
<g id="a_node1"><a xlink:href="dir_15b6432dff6a6d357bf70f8fbf2cdf14.html" target="_top" xlink:title="AH">
<polygon fill="white" stroke="red" points="81,-52 27,-52 27,-16 81,-16 81,-52"/>
<text text-anchor="middle" x="54" y="-31.5" font-family="Helvetica,sans-Serif" font-size="10.00">AH</text>
</a>
</g>
</g>
<!-- dir_c90f87021e89d05236fc514cb49c4dcf -->
<g id="node2" class="node">
<title>dir_c90f87021e89d05236fc514cb49c4dcf</title>
<g id="a_node2"><a xlink:href="dir_c90f87021e89d05236fc514cb49c4dcf.html" target="_top" xlink:title="Def">
<polygon fill="none" stroke="black" points="93,-124 39,-124 39,-88 93,-88 93,-124"/>
<text text-anchor="middle" x="66" y="-103.5" font-family="Helvetica,sans-Serif" font-size="10.00">Def</text>
</a>
</g>
</g>
<!-- dir_c90f87021e89d05236fc514cb49c4dcf&#45;&gt;dir_15b6432dff6a6d357bf70f8fbf2cdf14 -->
<g id="edge3" class="edge">
<title>dir_c90f87021e89d05236fc514cb49c4dcf&#45;&gt;dir_15b6432dff6a6d357bf70f8fbf2cdf14</title>
<path fill="none" stroke="black" d="M63.03,-87.7C61.71,-79.98 60.12,-70.71 58.65,-62.11"/>
<polygon fill="black" stroke="black" points="62.07,-61.37 56.93,-52.1 55.17,-62.55 62.07,-61.37"/>
<g id="a_edge3&#45;headlabel"><a xlink:href="dir_000020_000003.html" target="_top" xlink:title="6">
<text text-anchor="middle" x="65.48" y="-61.93" font-family="Helvetica,sans-Serif" font-size="10.00">6</text>
</a>
</g>
</g>
<!-- dir_9c9f4aef8027530753ea2ed5df8d4f38 -->
<g id="node3" class="node">
<title>dir_9c9f4aef8027530753ea2ed5df8d4f38</title>
<g id="a_node3"><a xlink:href="dir_9c9f4aef8027530753ea2ed5df8d4f38.html" target="_top" xlink:title="MIDI_Parsers">
<polygon fill="#eeeeff" stroke="black" points="96,-196 16,-196 16,-160 96,-160 96,-196"/>
<text text-anchor="middle" x="56" y="-175.5" font-family="Helvetica,sans-Serif" font-size="10.00">MIDI_Parsers</text>
</a>
</g>
</g>
<!-- dir_9c9f4aef8027530753ea2ed5df8d4f38&#45;&gt;dir_15b6432dff6a6d357bf70f8fbf2cdf14 -->
<g id="edge1" class="edge">
<title>dir_9c9f4aef8027530753ea2ed5df8d4f38&#45;&gt;dir_15b6432dff6a6d357bf70f8fbf2cdf14</title>
<path fill="none" stroke="black" d="M44.95,-159.61C39.26,-149.62 32.92,-136.58 30,-124 26.38,-108.41 26.62,-103.64 30,-88 31.96,-78.92 35.61,-69.52 39.49,-61.2"/>
<polygon fill="black" stroke="black" points="42.73,-62.53 44.05,-52.02 36.46,-59.42 42.73,-62.53"/>
<g id="a_edge1&#45;headlabel"><a xlink:href="dir_000046_000003.html" target="_top" xlink:title="6">
<text text-anchor="middle" x="43.67" y="-64.52" font-family="Helvetica,sans-Serif" font-size="10.00">6</text>
</a>
</g>
</g>
<!-- dir_9c9f4aef8027530753ea2ed5df8d4f38&#45;&gt;dir_c90f87021e89d05236fc514cb49c4dcf -->
<g id="edge2" class="edge">
<title>dir_9c9f4aef8027530753ea2ed5df8d4f38&#45;&gt;dir_c90f87021e89d05236fc514cb49c4dcf</title>
<path fill="none" stroke="black" d="M58.47,-159.7C59.57,-151.98 60.9,-142.71 62.13,-134.11"/>
<polygon fill="black" stroke="black" points="65.61,-134.5 63.56,-124.1 58.68,-133.51 65.61,-134.5"/>
<g id="a_edge2&#45;headlabel"><a xlink:href="dir_000046_000020.html" target="_top" xlink:title="4">
<text text-anchor="middle" x="67.91" y="-135.96" font-family="Helvetica,sans-Serif" font-size="10.00">4</text>
</a>
</g>
</g>
</g>
</svg>
