<?xml version="1.0" encoding="UTF-8" standalone="no"?>
<!DOCTYPE svg PUBLIC "-//W3C//DTD SVG 1.1//EN"
 "http://www.w3.org/Graphics/SVG/1.1/DTD/svg11.dtd">
<!-- Generated by graphviz version 2.43.0 (0)
 -->
<!-- Title: Selectors Pages: 1 -->
<svg width="294pt" height="319pt"
 viewBox="0.00 0.00 294.00 319.00" xmlns="http://www.w3.org/2000/svg" xmlns:xlink="http://www.w3.org/1999/xlink">
<g id="graph0" class="graph" transform="scale(1 1) rotate(0) translate(4 315)">
<title>Selectors</title>
<polygon fill="white" stroke="transparent" points="-4,4 -4,-315 290,-315 290,4 -4,4"/>
<g id="clust1" class="cluster">
<title>clusterdir_68267d1309a1af8e8297ef4c3efbcdba</title>
<g id="a_clust1"><a xlink:href="dir_68267d1309a1af8e8297ef4c3efbcdba.html" target="_top" xlink:title="src">
<polygon fill="#ddddee" stroke="black" points="8,-8 8,-303 278,-303 278,-8 8,-8"/>
<text text-anchor="middle" x="143" y="-291" font-family="Helvetica,sans-Serif" font-size="10.00">src</text>
</a>
</g>
</g>
<g id="clust2" class="cluster">
<title>clusterdir_ab77b90ed5338b1b1a87b678e21cf0af</title>
<g id="a_clust2"><a xlink:href="dir_ab77b90ed5338b1b1a87b678e21cf0af.html" target="_top">
<polygon fill="#eeeeff" stroke="black" points="120,-224 120,-276 270,-276 270,-224 120,-224"/>
</a>
</g>
</g>
<!-- dir_0674f0083f2092f390ac2eb0a6bbcc00 -->
<g id="node1" class="node">
<title>dir_0674f0083f2092f390ac2eb0a6bbcc00</title>
<g id="a_node1"><a xlink:href="dir_0674f0083f2092f390ac2eb0a6bbcc00.html" target="_top" xlink:title="Control_Surface">
<polygon fill="none" stroke="black" points="110,-268 16,-268 16,-232 110,-232 110,-268"/>
<text text-anchor="middle" x="63" y="-247.5" font-family="Helvetica,sans-Serif" font-size="10.00">Control_Surface</text>
</a>
</g>
</g>
<!-- dir_15b6432dff6a6d357bf70f8fbf2cdf14 -->
<g id="node2" class="node">
<title>dir_15b6432dff6a6d357bf70f8fbf2cdf14</title>
<g id="a_node2"><a xlink:href="dir_15b6432dff6a6d357bf70f8fbf2cdf14.html" target="_top" xlink:title="AH">
<polygon fill="white" stroke="red" points="162,-52 108,-52 108,-16 162,-16 162,-52"/>
<text text-anchor="middle" x="135" y="-31.5" font-family="Helvetica,sans-Serif" font-size="10.00">AH</text>
</a>
</g>
</g>
<!-- dir_0674f0083f2092f390ac2eb0a6bbcc00&#45;&gt;dir_15b6432dff6a6d357bf70f8fbf2cdf14 -->
<g id="edge1" class="edge">
<title>dir_0674f0083f2092f390ac2eb0a6bbcc00&#45;&gt;dir_15b6432dff6a6d357bf70f8fbf2cdf14</title>
<path fill="none" stroke="black" d="M60.36,-231.56C56.54,-200.34 52.66,-133.87 80,-88 86.35,-77.34 95.41,-67.39 104.35,-59.06"/>
<polygon fill="black" stroke="black" points="106.95,-61.43 112.1,-52.17 102.3,-56.2 106.95,-61.43"/>
<g id="a_edge1&#45;headlabel"><a xlink:href="dir_000019_000003.html" target="_top" xlink:title="7">
<text text-anchor="middle" x="106.14" y="-63.44" font-family="Helvetica,sans-Serif" font-size="10.00">7</text>
</a>
</g>
</g>
<!-- dir_4b65e0e927a600dbbefc4f76cc5a7f7c -->
<g id="node3" class="node">
<title>dir_4b65e0e927a600dbbefc4f76cc5a7f7c</title>
<g id="a_node3"><a xlink:href="dir_4b65e0e927a600dbbefc4f76cc5a7f7c.html" target="_top" xlink:title="MIDI_Inputs">
<polygon fill="white" stroke="red" points="143,-196 69,-196 69,-160 143,-160 143,-196"/>
<text text-anchor="middle" x="106" y="-175.5" font-family="Helvetica,sans-Serif" font-size="10.00">MIDI_Inputs</text>
</a>
</g>
</g>
<!-- dir_0674f0083f2092f390ac2eb0a6bbcc00&#45;&gt;dir_4b65e0e927a600dbbefc4f76cc5a7f7c -->
<g id="edge2" class="edge">
<title>dir_0674f0083f2092f390ac2eb0a6bbcc00&#45;&gt;dir_4b65e0e927a600dbbefc4f76cc5a7f7c</title>
<path fill="none" stroke="black" d="M73.63,-231.7C78.63,-223.56 84.69,-213.69 90.21,-204.7"/>
<polygon fill="black" stroke="black" points="93.24,-206.46 95.49,-196.1 87.28,-202.79 93.24,-206.46"/>
<g id="a_edge2&#45;headlabel"><a xlink:href="dir_000019_000029.html" target="_top" xlink:title="1">
<text text-anchor="middle" x="93.78" y="-208.51" font-family="Helvetica,sans-Serif" font-size="10.00">1</text>
</a>
</g>
</g>
<!-- dir_ab77b90ed5338b1b1a87b678e21cf0af -->
<g id="node6" class="node">
<title>dir_ab77b90ed5338b1b1a87b678e21cf0af</title>
<text text-anchor="middle" x="159" y="-247.5" font-family="Helvetica,sans-Serif" font-size="10.00">Selectors</text>
</g>
<!-- dir_0674f0083f2092f390ac2eb0a6bbcc00&#45;&gt;dir_ab77b90ed5338b1b1a87b678e21cf0af -->
<g id="edge3" class="edge">
<title>dir_0674f0083f2092f390ac2eb0a6bbcc00&#45;&gt;dir_ab77b90ed5338b1b1a87b678e21cf0af</title>
<path fill="none" stroke="black" d="M110.25,-250C112.71,-250 115.18,-250 117.64,-250"/>
<polygon fill="black" stroke="black" points="117.77,-253.5 127.77,-250 117.77,-246.5 117.77,-253.5"/>
<g id="a_edge3&#45;headlabel"><a xlink:href="dir_000019_000048.html" target="_top" xlink:title="1">
<text text-anchor="middle" x="114.17" y="-253.84" font-family="Helvetica,sans-Serif" font-size="10.00">1</text>
</a>
</g>
</g>
<!-- dir_4b65e0e927a600dbbefc4f76cc5a7f7c&#45;&gt;dir_15b6432dff6a6d357bf70f8fbf2cdf14 -->
<g id="edge6" class="edge">
<title>dir_4b65e0e927a600dbbefc4f76cc5a7f7c&#45;&gt;dir_15b6432dff6a6d357bf70f8fbf2cdf14</title>
<path fill="none" stroke="black" d="M96.99,-159.81C88.67,-141.54 78.88,-112.02 88,-88 91.97,-77.54 99.05,-67.83 106.53,-59.65"/>
<polygon fill="black" stroke="black" points="109.23,-61.89 113.73,-52.3 104.23,-56.99 109.23,-61.89"/>
<g id="a_edge6&#45;headlabel"><a xlink:href="dir_000029_000003.html" target="_top" xlink:title="16">
<text text-anchor="middle" x="108.74" y="-63.94" font-family="Helvetica,sans-Serif" font-size="10.00">16</text>
</a>
</g>
</g>
<!-- dir_c90f87021e89d05236fc514cb49c4dcf -->
<g id="node4" class="node">
<title>dir_c90f87021e89d05236fc514cb49c4dcf</title>
<g id="a_node4"><a xlink:href="dir_c90f87021e89d05236fc514cb49c4dcf.html" target="_top" xlink:title="Def">
<polygon fill="none" stroke="black" points="246,-124 192,-124 192,-88 246,-88 246,-124"/>
<text text-anchor="middle" x="219" y="-103.5" font-family="Helvetica,sans-Serif" font-size="10.00">Def</text>
</a>
</g>
</g>
<!-- dir_4b65e0e927a600dbbefc4f76cc5a7f7c&#45;&gt;dir_c90f87021e89d05236fc514cb49c4dcf -->
<g id="edge7" class="edge">
<title>dir_4b65e0e927a600dbbefc4f76cc5a7f7c&#45;&gt;dir_c90f87021e89d05236fc514cb49c4dcf</title>
<path fill="none" stroke="black" d="M133.64,-159.88C148.53,-150.66 167.07,-139.17 183.06,-129.26"/>
<polygon fill="black" stroke="black" points="184.98,-132.19 191.64,-123.95 181.3,-126.24 184.98,-132.19"/>
<g id="a_edge7&#45;headlabel"><a xlink:href="dir_000029_000020.html" target="_top" xlink:title="2">
<text text-anchor="middle" x="183.42" y="-134" font-family="Helvetica,sans-Serif" font-size="10.00">2</text>
</a>
</g>
</g>
<!-- dir_c90f87021e89d05236fc514cb49c4dcf&#45;&gt;dir_15b6432dff6a6d357bf70f8fbf2cdf14 -->
<g id="edge11" class="edge">
<title>dir_c90f87021e89d05236fc514cb49c4dcf&#45;&gt;dir_15b6432dff6a6d357bf70f8fbf2cdf14</title>
<path fill="none" stroke="black" d="M198.24,-87.7C187.76,-78.97 174.89,-68.24 163.5,-58.75"/>
<polygon fill="black" stroke="black" points="165.45,-55.82 155.53,-52.1 160.97,-61.19 165.45,-55.82"/>
<g id="a_edge11&#45;headlabel"><a xlink:href="dir_000020_000003.html" target="_top" xlink:title="6">
<text text-anchor="middle" x="170.03" y="-53.44" font-family="Helvetica,sans-Serif" font-size="10.00">6</text>
</a>
</g>
</g>
<!-- dir_fa6aac357b09690b09adfbf9999fddaa -->
<g id="node5" class="node">
<title>dir_fa6aac357b09690b09adfbf9999fddaa</title>
<g id="a_node5"><a xlink:href="dir_fa6aac357b09690b09adfbf9999fddaa.html" target="_top" xlink:title="Submodules">
<polygon fill="white" stroke="red" points="173.5,-124 96.5,-124 96.5,-88 173.5,-88 173.5,-124"/>
<text text-anchor="middle" x="135" y="-103.5" font-family="Helvetica,sans-Serif" font-size="10.00">Submodules</text>
</a>
</g>
</g>
<!-- dir_fa6aac357b09690b09adfbf9999fddaa&#45;&gt;dir_15b6432dff6a6d357bf70f8fbf2cdf14 -->
<g id="edge12" class="edge">
<title>dir_fa6aac357b09690b09adfbf9999fddaa&#45;&gt;dir_15b6432dff6a6d357bf70f8fbf2cdf14</title>
<path fill="none" stroke="black" d="M135,-87.7C135,-79.98 135,-70.71 135,-62.11"/>
<polygon fill="black" stroke="black" points="138.5,-62.1 135,-52.1 131.5,-62.1 138.5,-62.1"/>
<g id="a_edge12&#45;headlabel"><a xlink:href="dir_000051_000003.html" target="_top" xlink:title="2">
<text text-anchor="middle" x="141.34" y="-63.2" font-family="Helvetica,sans-Serif" font-size="10.00">2</text>
</a>
</g>
</g>
<!-- dir_ab77b90ed5338b1b1a87b678e21cf0af&#45;&gt;dir_0674f0083f2092f390ac2eb0a6bbcc00 -->
<g id="edge8" class="edge">
<title>dir_ab77b90ed5338b1b1a87b678e21cf0af&#45;&gt;dir_0674f0083f2092f390ac2eb0a6bbcc00</title>
<path fill="none" stroke="black" d="M127.77,-250C125.31,-250 122.84,-250 120.38,-250"/>
<polygon fill="black" stroke="black" points="120.25,-246.5 110.25,-250 120.25,-253.5 120.25,-246.5"/>
<g id="a_edge8&#45;headlabel"><a xlink:href="dir_000048_000019.html" target="_top" xlink:title="1">
<text text-anchor="middle" x="123.84" y="-241.16" font-family="Helvetica,sans-Serif" font-size="10.00">1</text>
</a>
</g>
</g>
<!-- dir_ab77b90ed5338b1b1a87b678e21cf0af&#45;&gt;dir_4b65e0e927a600dbbefc4f76cc5a7f7c -->
<g id="edge9" class="edge">
<title>dir_ab77b90ed5338b1b1a87b678e21cf0af&#45;&gt;dir_4b65e0e927a600dbbefc4f76cc5a7f7c</title>
<path fill="none" stroke="black" d="M145.9,-231.7C139.61,-223.39 131.95,-213.28 125.04,-204.14"/>
<polygon fill="black" stroke="black" points="127.78,-201.96 118.95,-196.1 122.2,-206.19 127.78,-201.96"/>
<g id="a_edge9&#45;headlabel"><a xlink:href="dir_000048_000029.html" target="_top" xlink:title="2">
<text text-anchor="middle" x="132.21" y="-200.62" font-family="Helvetica,sans-Serif" font-size="10.00">2</text>
</a>
</g>
</g>
<!-- dir_ab77b90ed5338b1b1a87b678e21cf0af&#45;&gt;dir_fa6aac357b09690b09adfbf9999fddaa -->
<g id="edge10" class="edge">
<title>dir_ab77b90ed5338b1b1a87b678e21cf0af&#45;&gt;dir_fa6aac357b09690b09adfbf9999fddaa</title>
<path fill="none" stroke="black" d="M158.82,-231.78C158.37,-213.73 156.85,-184.64 152,-160 150.3,-151.37 147.66,-142.18 144.97,-133.92"/>
<polygon fill="black" stroke="black" points="148.26,-132.73 141.71,-124.4 141.63,-134.99 148.26,-132.73"/>
<g id="a_edge10&#45;headlabel"><a xlink:href="dir_000048_000051.html" target="_top" xlink:title="1">
<text text-anchor="middle" x="152.11" y="-132.71" font-family="Helvetica,sans-Serif" font-size="10.00">1</text>
</a>
</g>
</g>
<!-- dir_0ea78650b5b26d01d8953c5346ad63ec -->
<g id="node7" class="node">
<title>dir_0ea78650b5b26d01d8953c5346ad63ec</title>
<g id="a_node7"><a xlink:href="dir_0ea78650b5b26d01d8953c5346ad63ec.html" target="_top" xlink:title="LEDs">
<polygon fill="white" stroke="black" points="262,-268 208,-268 208,-232 262,-232 262,-268"/>
<text text-anchor="middle" x="235" y="-247.5" font-family="Helvetica,sans-Serif" font-size="10.00">LEDs</text>
</a>
</g>
</g>
<!-- dir_0ea78650b5b26d01d8953c5346ad63ec&#45;&gt;dir_15b6432dff6a6d357bf70f8fbf2cdf14 -->
<g id="edge4" class="edge">
<title>dir_0ea78650b5b26d01d8953c5346ad63ec&#45;&gt;dir_15b6432dff6a6d357bf70f8fbf2cdf14</title>
<path fill="none" stroke="black" d="M243.89,-231.85C258.78,-200.51 284.37,-133.07 255,-88 236.79,-60.04 200.12,-46.73 172.08,-40.45"/>
<polygon fill="black" stroke="black" points="172.69,-37 162.19,-38.44 171.3,-43.86 172.69,-37"/>
<g id="a_edge4&#45;headlabel"><a xlink:href="dir_000049_000003.html" target="_top" xlink:title="1">
<text text-anchor="middle" x="176.78" y="-32.44" font-family="Helvetica,sans-Serif" font-size="10.00">1</text>
</a>
</g>
</g>
<!-- dir_0ea78650b5b26d01d8953c5346ad63ec&#45;&gt;dir_c90f87021e89d05236fc514cb49c4dcf -->
<g id="edge5" class="edge">
<title>dir_0ea78650b5b26d01d8953c5346ad63ec&#45;&gt;dir_c90f87021e89d05236fc514cb49c4dcf</title>
<path fill="none" stroke="black" d="M233.07,-231.87C230.34,-207.67 225.33,-163.21 222.09,-134.39"/>
<polygon fill="black" stroke="black" points="225.53,-133.73 220.94,-124.19 218.58,-134.52 225.53,-133.73"/>
<g id="a_edge5&#45;headlabel"><a xlink:href="dir_000049_000020.html" target="_top" xlink:title="1">
<text text-anchor="middle" x="228.76" y="-134.49" font-family="Helvetica,sans-Serif" font-size="10.00">1</text>
</a>
</g>
</g>
</g>
</svg>
