<?xml version="1.0" encoding="UTF-8" standalone="no"?>
<!DOCTYPE svg PUBLIC "-//W3C//DTD SVG 1.1//EN"
 "http://www.w3.org/Graphics/SVG/1.1/DTD/svg11.dtd">
<!-- Generated by graphviz version 2.43.0 (0)
 -->
<!-- Title: Graphical Class Hierarchy Pages: 1 -->
<svg width="527pt" height="78pt"
 viewBox="0.00 0.00 527.00 77.50" xmlns="http://www.w3.org/2000/svg" xmlns:xlink="http://www.w3.org/1999/xlink">
<g id="graph0" class="graph" transform="scale(1 1) rotate(0) translate(4 73.5)">
<title>Graphical Class Hierarchy</title>
<polygon fill="white" stroke="transparent" points="-4,4 -4,-73.5 523,-73.5 523,4 -4,4"/>
<!-- Node0 -->
<g id="node1" class="node">
<title>Node0</title>
<g id="a_node1"><a xlink:href="d9/d36/classOutputBank.html" target="_top" xlink:title="A class for changing the address of BankableMIDIOutputs.">
<polygon fill="white" stroke="black" points="34.5,-42.5 34.5,-61.5 108.5,-61.5 108.5,-42.5 34.5,-42.5"/>
<text text-anchor="middle" x="71.5" y="-49.5" font-family="Helvetica,sans-Serif" font-size="10.00">OutputBank</text>
</a>
</g>
</g>
<!-- Node1 -->
<g id="node2" class="node">
<title>Node1</title>
<g id="a_node2"><a xlink:href="db/dbd/classBank.html" target="_top" xlink:title=" ">
<polygon fill="white" stroke="black" points="179,-39 179,-69 317,-69 317,-39 179,-39"/>
<text text-anchor="start" x="187" y="-57" font-family="Helvetica,sans-Serif" font-size="10.00">Bank&lt; MaxTransposition</text>
<text text-anchor="middle" x="248" y="-46" font-family="Helvetica,sans-Serif" font-size="10.00"> &#45; MinTransposition+1 &gt;</text>
</a>
</g>
</g>
<!-- Node0&#45;&gt;Node1 -->
<g id="edge1" class="edge">
<title>Node0&#45;&gt;Node1</title>
<path fill="none" stroke="midnightblue" d="M118.8,-52.53C137.18,-52.74 158.7,-52.99 178.8,-53.22"/>
<polygon fill="midnightblue" stroke="midnightblue" points="118.7,-49.03 108.66,-52.41 118.62,-56.03 118.7,-49.03"/>
</g>
<!-- Node3 -->
<g id="node4" class="node">
<title>Node3</title>
<g id="a_node4"><a xlink:href="db/dbd/classBank.html" target="_top" xlink:title="A class that groups Bankable MIDI Output Elements and Bankable MIDI Input Elements,...">
<polygon fill="white" stroke="black" points="189.5,-0.5 189.5,-19.5 306.5,-19.5 306.5,-0.5 189.5,-0.5"/>
<text text-anchor="middle" x="248" y="-7.5" font-family="Helvetica,sans-Serif" font-size="10.00">Bank&lt; NumBanks &gt;</text>
</a>
</g>
</g>
<!-- Node0&#45;&gt;Node3 -->
<g id="edge3" class="edge">
<title>Node0&#45;&gt;Node3</title>
<path fill="none" stroke="midnightblue" d="M118.47,-40.94C146.07,-34.29 180.83,-25.93 207.24,-19.57"/>
<polygon fill="midnightblue" stroke="midnightblue" points="117.56,-37.55 108.66,-43.3 119.2,-44.36 117.56,-37.55"/>
</g>
<!-- Node2 -->
<g id="node3" class="node">
<title>Node2</title>
<g id="a_node3"><a xlink:href="da/db8/classTransposer.html" target="_top" xlink:title="Class for transposing the address of NoteButton and other MIDI elements.">
<polygon fill="white" stroke="black" points="353,-39 353,-69 519,-69 519,-39 353,-39"/>
<text text-anchor="start" x="361" y="-57" font-family="Helvetica,sans-Serif" font-size="10.00">Transposer&lt; MinTransposition,</text>
<text text-anchor="middle" x="436" y="-46" font-family="Helvetica,sans-Serif" font-size="10.00"> MaxTransposition &gt;</text>
</a>
</g>
</g>
<!-- Node1&#45;&gt;Node2 -->
<g id="edge2" class="edge">
<title>Node1&#45;&gt;Node2</title>
<path fill="none" stroke="midnightblue" d="M327.39,-54C335.83,-54 344.43,-54 352.91,-54"/>
<polygon fill="midnightblue" stroke="midnightblue" points="327.2,-50.5 317.2,-54 327.2,-57.5 327.2,-50.5"/>
</g>
<!-- Node428 -->
<g id="node5" class="node">
<title>Node428</title>
<g id="a_node5"><a xlink:href="de/de7/classSelectable.html" target="_top" xlink:title=" ">
<polygon fill="white" stroke="black" points="0,-3.5 0,-22.5 143,-22.5 143,-3.5 0,-3.5"/>
<text text-anchor="middle" x="71.5" y="-10.5" font-family="Helvetica,sans-Serif" font-size="10.00">Selectable&lt; NumBanks &gt;</text>
</a>
</g>
</g>
<!-- Node428&#45;&gt;Node1 -->
<g id="edge4" class="edge">
<title>Node428&#45;&gt;Node1</title>
<path fill="none" stroke="midnightblue" d="M122.77,-24.81C141.5,-29.21 163.02,-34.27 182.83,-38.92"/>
<polygon fill="midnightblue" stroke="midnightblue" points="123.51,-21.39 112.97,-22.51 121.91,-28.2 123.51,-21.39"/>
</g>
<!-- Node428&#45;&gt;Node3 -->
<g id="edge5" class="edge">
<title>Node428&#45;&gt;Node3</title>
<path fill="none" stroke="midnightblue" d="M153.35,-11.61C165.47,-11.4 177.76,-11.19 189.27,-10.99"/>
<polygon fill="midnightblue" stroke="midnightblue" points="153.16,-8.11 143.22,-11.78 153.28,-15.11 153.16,-8.11"/>
</g>
</g>
</svg>
