<?xml version="1.0" encoding="UTF-8" standalone="no"?>
<!DOCTYPE svg PUBLIC "-//W3C//DTD SVG 1.1//EN"
 "http://www.w3.org/Graphics/SVG/1.1/DTD/svg11.dtd">
<!-- Generated by graphviz version 2.38.0 (20140413.2041)
 -->
<!-- Title: Graphical Class Hierarchy Pages: 1 -->
<svg width="326pt" height="203pt"
 viewBox="0.00 0.00 326.00 203.00" xmlns="http://www.w3.org/2000/svg" xmlns:xlink="http://www.w3.org/1999/xlink">
<g id="graph0" class="graph" transform="scale(1 1) rotate(0) translate(4 199)">
<title>Graphical Class Hierarchy</title>
<polygon fill="white" stroke="none" points="-4,4 -4,-199 322,-199 322,4 -4,4"/>
<!-- Node0 -->
<g id="node1" class="node"><title>Node0</title>
<g id="a_node1"><a xlink:href="de/d07/structSimpleNoteCCValueCallback.html" target="_top" xlink:title=" ">
<polygon fill="white" stroke="black" points="0,-88 0,-107 146,-107 146,-88 0,-88"/>
<text text-anchor="middle" x="73" y="-95" font-family="Helvetica,sans-Serif" font-size="10.00">SimpleNoteCCValueCallback</text>
</a>
</g>
</g>
<!-- Node1 -->
<g id="node2" class="node"><title>Node1</title>
<g id="a_node2"><a xlink:href="d8/d80/classNoteCCFastLEDCallback.html" target="_top" xlink:title="Callback for Note or CC range or value input that displays the value to a FastLED strip.">
<polygon fill="white" stroke="black" points="185,-164.5 185,-194.5 315,-194.5 315,-164.5 185,-164.5"/>
<text text-anchor="start" x="193" y="-182.5" font-family="Helvetica,sans-Serif" font-size="10.00">NoteCCFastLEDCallback</text>
<text text-anchor="middle" x="250" y="-171.5" font-family="Helvetica,sans-Serif" font-size="10.00">&lt; ColorMapper &gt;</text>
</a>
</g>
</g>
<!-- Node0&#45;&gt;Node1 -->
<g id="edge1" class="edge"><title>Node0&#45;&gt;Node1</title>
<path fill="none" stroke="midnightblue" d="M99.3633,-112.076C120.963,-124.198 153.013,-141.507 182,-154.5 189.704,-157.953 198.042,-161.336 206.135,-164.442"/>
<polygon fill="midnightblue" stroke="midnightblue" points="100.932,-108.942 90.5048,-107.066 97.4861,-115.035 100.932,-108.942"/>
</g>
<!-- Node2 -->
<g id="node3" class="node"><title>Node2</title>
<g id="a_node3"><a xlink:href="d5/ddd/classNoteCCLED.html" target="_top" xlink:title=" ">
<polygon fill="white" stroke="black" points="182,-126 182,-145 318,-145 318,-126 182,-126"/>
<text text-anchor="middle" x="250" y="-133" font-family="Helvetica,sans-Serif" font-size="10.00">NoteCCLED&lt; NumLEDs &gt;</text>
</a>
</g>
</g>
<!-- Node0&#45;&gt;Node2 -->
<g id="edge2" class="edge"><title>Node0&#45;&gt;Node2</title>
<path fill="none" stroke="midnightblue" d="M128.124,-109.253C152.869,-114.626 181.803,-120.909 205.158,-125.98"/>
<polygon fill="midnightblue" stroke="midnightblue" points="128.675,-105.791 118.16,-107.089 127.189,-112.631 128.675,-105.791"/>
</g>
<!-- Node3 -->
<g id="node4" class="node"><title>Node3</title>
<g id="a_node4"><a xlink:href="d5/ddd/classNoteCCLED.html" target="_top" xlink:title=" ">
<polygon fill="white" stroke="black" points="202.5,-88 202.5,-107 297.5,-107 297.5,-88 202.5,-88"/>
<text text-anchor="middle" x="250" y="-95" font-family="Helvetica,sans-Serif" font-size="10.00">NoteCCLED&lt; 1 &gt;</text>
</a>
</g>
</g>
<!-- Node0&#45;&gt;Node3 -->
<g id="edge3" class="edge"><title>Node0&#45;&gt;Node3</title>
<path fill="none" stroke="midnightblue" d="M156.517,-97.5C172.312,-97.5 188.325,-97.5 202.487,-97.5"/>
<polygon fill="midnightblue" stroke="midnightblue" points="156.19,-94.0001 146.19,-97.5 156.19,-101 156.19,-94.0001"/>
</g>
<!-- Node4 -->
<g id="node5" class="node"><title>Node4</title>
<g id="a_node5"><a xlink:href="d5/ddd/classNoteCCLED.html" target="_top" xlink:title=" ">
<polygon fill="white" stroke="black" points="183,-50 183,-69 317,-69 317,-50 183,-50"/>
<text text-anchor="middle" x="250" y="-57" font-family="Helvetica,sans-Serif" font-size="10.00">NoteCCLED&lt; RangeLen &gt;</text>
</a>
</g>
</g>
<!-- Node0&#45;&gt;Node4 -->
<g id="edge4" class="edge"><title>Node0&#45;&gt;Node4</title>
<path fill="none" stroke="midnightblue" d="M128.124,-85.7474C152.869,-80.3742 181.803,-74.0914 205.158,-69.0201"/>
<polygon fill="midnightblue" stroke="midnightblue" points="127.189,-82.3686 118.16,-87.911 128.675,-89.2092 127.189,-82.3686"/>
</g>
<!-- Node5 -->
<g id="node6" class="node"><title>Node5</title>
<g id="a_node6"><a xlink:href="de/d34/classNoteCCLEDBarCallback.html" target="_top" xlink:title="Callback class that drives a LED dot/bar display based on a note or control change value.">
<polygon fill="white" stroke="black" points="187.5,-0.5 187.5,-30.5 312.5,-30.5 312.5,-0.5 187.5,-0.5"/>
<text text-anchor="start" x="195.5" y="-18.5" font-family="Helvetica,sans-Serif" font-size="10.00">NoteCCLEDBarCallback</text>
<text text-anchor="middle" x="250" y="-7.5" font-family="Helvetica,sans-Serif" font-size="10.00">&lt; NumLEDs &gt;</text>
</a>
</g>
</g>
<!-- Node0&#45;&gt;Node5 -->
<g id="edge5" class="edge"><title>Node0&#45;&gt;Node5</title>
<path fill="none" stroke="midnightblue" d="M99.3633,-82.9239C120.963,-70.8015 153.013,-53.4926 182,-40.5 189.704,-37.0469 198.042,-33.6643 206.135,-30.5585"/>
<polygon fill="midnightblue" stroke="midnightblue" points="97.4861,-79.9646 90.5048,-87.9341 100.932,-86.0576 97.4861,-79.9646"/>
</g>
</g>
</svg>
