<?xml version="1.0" encoding="UTF-8" standalone="no"?>
<!DOCTYPE svg PUBLIC "-//W3C//DTD SVG 1.1//EN"
 "http://www.w3.org/Graphics/SVG/1.1/DTD/svg11.dtd">
<!-- Generated by graphviz version 2.40.1 (20161225.0304)
 -->
<!-- Title: CCPotentiometer Pages: 1 -->
<svg width="760pt" height="1180pt"
 viewBox="0.00 0.00 760.00 1180.00" xmlns="http://www.w3.org/2000/svg" xmlns:xlink="http://www.w3.org/1999/xlink">
<g id="graph0" class="graph" transform="scale(1 1) rotate(0) translate(4 1176)">
<title>CCPotentiometer</title>
<polygon fill="#ffffff" stroke="transparent" points="-4,4 -4,-1176 756,-1176 756,4 -4,4"/>
<!-- Node1 -->
<g id="node1" class="node">
<title>Node1</title>
<g id="a_node1"><a xlink:title="A class of MIDIOutputElements that read the analog input from a potentiometer or fader,...">
<polygon fill="#bfbfbf" stroke="#000000" points="450,-.5 450,-57.5 557,-57.5 557,-.5 450,-.5"/>
<text text-anchor="middle" x="503.5" y="-45.5" font-family="Helvetica,sans-Serif" font-size="10.00" fill="#000000">CCPotentiometer</text>
<polyline fill="none" stroke="#000000" points="450,-38.5 557,-38.5 "/>
<text text-anchor="middle" x="503.5" y="-26.5" font-family="Helvetica,sans-Serif" font-size="10.00" fill="#000000"> </text>
<polyline fill="none" stroke="#000000" points="450,-19.5 557,-19.5 "/>
<text text-anchor="start" x="458" y="-7.5" font-family="Helvetica,sans-Serif" font-size="10.00" fill="#000000">+ CCPotentiometer()</text>
</a>
</g>
</g>
<!-- Node2 -->
<g id="node2" class="node">
<title>Node2</title>
<g id="a_node2"><a xlink:href="../../d0/dd2/classMIDIFilteredAnalogAddressable.html" target="_top" xlink:title=" ">
<polygon fill="#ffffff" stroke="#000000" points="419,-95.5 419,-229.5 588,-229.5 588,-95.5 419,-95.5"/>
<text text-anchor="start" x="427" y="-217.5" font-family="Helvetica,sans-Serif" font-size="10.00" fill="#000000">MIDIFilteredAnalogAddressable</text>
<text text-anchor="middle" x="503.5" y="-206.5" font-family="Helvetica,sans-Serif" font-size="10.00" fill="#000000">&lt; ContinuousCCSender &gt;</text>
<polyline fill="none" stroke="#000000" points="419,-199.5 588,-199.5 "/>
<text text-anchor="middle" x="503.5" y="-187.5" font-family="Helvetica,sans-Serif" font-size="10.00" fill="#000000"> </text>
<polyline fill="none" stroke="#000000" points="419,-180.5 588,-180.5 "/>
<text text-anchor="start" x="427" y="-168.5" font-family="Helvetica,sans-Serif" font-size="10.00" fill="#000000">+ begin()</text>
<text text-anchor="start" x="427" y="-157.5" font-family="Helvetica,sans-Serif" font-size="10.00" fill="#000000">+ update()</text>
<text text-anchor="start" x="427" y="-146.5" font-family="Helvetica,sans-Serif" font-size="10.00" fill="#000000">+ map()</text>
<text text-anchor="start" x="427" y="-135.5" font-family="Helvetica,sans-Serif" font-size="10.00" fill="#000000">+ invert()</text>
<text text-anchor="start" x="427" y="-124.5" font-family="Helvetica,sans-Serif" font-size="10.00" fill="#000000">+ getRawValue()</text>
<text text-anchor="start" x="427" y="-113.5" font-family="Helvetica,sans-Serif" font-size="10.00" fill="#000000">+ getValue()</text>
<text text-anchor="start" x="427" y="-102.5" font-family="Helvetica,sans-Serif" font-size="10.00" fill="#000000"># MIDIFilteredAnalogAddressable()</text>
</a>
</g>
</g>
<!-- Node2&#45;&gt;Node1 -->
<g id="edge1" class="edge">
<title>Node2&#45;&gt;Node1</title>
<path fill="none" stroke="#191970" d="M503.5,-85.154C503.5,-75.434 503.5,-66.0216 503.5,-57.7698"/>
<polygon fill="none" stroke="#191970" points="500.0001,-85.3589 503.5,-95.3589 507.0001,-85.3589 500.0001,-85.3589"/>
</g>
<!-- Node3 -->
<g id="node3" class="node">
<title>Node3</title>
<g id="a_node3"><a xlink:href="../../d1/d55/classAH_1_1Updatable.html" target="_top" xlink:title=" ">
<polygon fill="#ffffff" stroke="#000000" points="196.5,-365.5 196.5,-455.5 300.5,-455.5 300.5,-365.5 196.5,-365.5"/>
<text text-anchor="middle" x="248.5" y="-443.5" font-family="Helvetica,sans-Serif" font-size="10.00" fill="#000000">MIDIOutputElement</text>
<polyline fill="none" stroke="#000000" points="196.5,-436.5 300.5,-436.5 "/>
<text text-anchor="middle" x="248.5" y="-424.5" font-family="Helvetica,sans-Serif" font-size="10.00" fill="#000000"> </text>
<polyline fill="none" stroke="#000000" points="196.5,-417.5 300.5,-417.5 "/>
<text text-anchor="start" x="204.5" y="-405.5" font-family="Helvetica,sans-Serif" font-size="10.00" fill="#000000">* begin()</text>
<text text-anchor="start" x="204.5" y="-394.5" font-family="Helvetica,sans-Serif" font-size="10.00" fill="#000000">* update()</text>
<text text-anchor="start" x="204.5" y="-383.5" font-family="Helvetica,sans-Serif" font-size="10.00" fill="#000000">* beginAll()</text>
<text text-anchor="start" x="204.5" y="-372.5" font-family="Helvetica,sans-Serif" font-size="10.00" fill="#000000">* updateAll()</text>
</a>
</g>
</g>
<!-- Node3&#45;&gt;Node2 -->
<g id="edge2" class="edge">
<title>Node3&#45;&gt;Node2</title>
<path fill="none" stroke="#191970" d="M281.7565,-356.8639C299.0479,-331.1938 321.5513,-300.9187 345.5,-277 367.4316,-255.0958 393.8701,-234.2222 418.792,-216.4409"/>
<polygon fill="none" stroke="#191970" points="278.7186,-355.1115 276.0977,-365.377 284.5483,-358.9866 278.7186,-355.1115"/>
</g>
<!-- Node4 -->
<g id="node4" class="node">
<title>Node4</title>
<g id="a_node4"><a xlink:href="../../d8/d1a/classAH_1_1UpdatableCRTP.html" target="_top" xlink:title=" ">
<polygon fill="#ffffff" stroke="#000000" points="76.5,-591.5 76.5,-780.5 218.5,-780.5 218.5,-591.5 76.5,-591.5"/>
<text text-anchor="start" x="84.5" y="-768.5" font-family="Helvetica,sans-Serif" font-size="10.00" fill="#000000">UpdatableCRTP&lt; Updatable</text>
<text text-anchor="middle" x="147.5" y="-757.5" font-family="Helvetica,sans-Serif" font-size="10.00" fill="#000000">&lt; NormalUpdatable &gt; &gt;</text>
<polyline fill="none" stroke="#000000" points="76.5,-750.5 218.5,-750.5 "/>
<text text-anchor="middle" x="147.5" y="-738.5" font-family="Helvetica,sans-Serif" font-size="10.00" fill="#000000"> </text>
<polyline fill="none" stroke="#000000" points="76.5,-731.5 218.5,-731.5 "/>
<text text-anchor="start" x="84.5" y="-719.5" font-family="Helvetica,sans-Serif" font-size="10.00" fill="#000000">+ ~UpdatableCRTP()</text>
<text text-anchor="start" x="84.5" y="-708.5" font-family="Helvetica,sans-Serif" font-size="10.00" fill="#000000"># UpdatableCRTP()</text>
<text text-anchor="start" x="84.5" y="-697.5" font-family="Helvetica,sans-Serif" font-size="10.00" fill="#000000">* enable()</text>
<text text-anchor="start" x="84.5" y="-686.5" font-family="Helvetica,sans-Serif" font-size="10.00" fill="#000000">* disable()</text>
<text text-anchor="start" x="84.5" y="-675.5" font-family="Helvetica,sans-Serif" font-size="10.00" fill="#000000">* isEnabled()</text>
<text text-anchor="start" x="84.5" y="-664.5" font-family="Helvetica,sans-Serif" font-size="10.00" fill="#000000">* enable()</text>
<text text-anchor="start" x="84.5" y="-653.5" font-family="Helvetica,sans-Serif" font-size="10.00" fill="#000000">* enable()</text>
<text text-anchor="start" x="84.5" y="-642.5" font-family="Helvetica,sans-Serif" font-size="10.00" fill="#000000">* enable()</text>
<text text-anchor="start" x="84.5" y="-631.5" font-family="Helvetica,sans-Serif" font-size="10.00" fill="#000000">* disable()</text>
<text text-anchor="start" x="84.5" y="-620.5" font-family="Helvetica,sans-Serif" font-size="10.00" fill="#000000">* disable()</text>
<text text-anchor="start" x="84.5" y="-609.5" font-family="Helvetica,sans-Serif" font-size="10.00" fill="#000000">* disable()</text>
<text text-anchor="start" x="84.5" y="-598.5" font-family="Helvetica,sans-Serif" font-size="10.00" fill="#000000">* applyToAll()</text>
</a>
</g>
</g>
<!-- Node4&#45;&gt;Node3 -->
<g id="edge3" class="edge">
<title>Node4&#45;&gt;Node3</title>
<path fill="none" stroke="#191970" d="M185.7442,-581.6804C201.7197,-538.1038 219.4367,-489.7766 231.9606,-455.6149"/>
<polygon fill="none" stroke="#191970" points="182.4144,-580.5948 182.2585,-591.1885 188.9867,-583.0043 182.4144,-580.5948"/>
</g>
<!-- Node5 -->
<g id="node5" class="node">
<title>Node5</title>
<g id="a_node5"><a xlink:href="../../d4/d23/classDoublyLinkable.html" target="_top" xlink:title=" ">
<polygon fill="#ffffff" stroke="#000000" points="0,-982.5 0,-1061.5 137,-1061.5 137,-982.5 0,-982.5"/>
<text text-anchor="start" x="8" y="-1049.5" font-family="Helvetica,sans-Serif" font-size="10.00" fill="#000000">DoublyLinkable&lt; Updatable</text>
<text text-anchor="middle" x="68.5" y="-1038.5" font-family="Helvetica,sans-Serif" font-size="10.00" fill="#000000">&lt; NormalUpdatable &gt; &gt;</text>
<polyline fill="none" stroke="#000000" points="0,-1031.5 137,-1031.5 "/>
<text text-anchor="start" x="8" y="-1019.5" font-family="Helvetica,sans-Serif" font-size="10.00" fill="#000000"># next</text>
<text text-anchor="start" x="8" y="-1008.5" font-family="Helvetica,sans-Serif" font-size="10.00" fill="#000000"># previous</text>
<polyline fill="none" stroke="#000000" points="0,-1001.5 137,-1001.5 "/>
<text text-anchor="start" x="8" y="-989.5" font-family="Helvetica,sans-Serif" font-size="10.00" fill="#000000"># ~DoublyLinkable()</text>
</a>
</g>
</g>
<!-- Node5&#45;&gt;Node4 -->
<g id="edge4" class="edge">
<title>Node5&#45;&gt;Node4</title>
<path fill="none" stroke="#191970" d="M80.138,-972.5016C91.9608,-922.2175 110.5684,-843.0763 125.2337,-780.7023"/>
<polygon fill="none" stroke="#191970" points="76.6764,-971.9328 77.7946,-982.4685 83.4906,-973.535 76.6764,-971.9328"/>
</g>
<!-- Node6 -->
<g id="node6" class="node">
<title>Node6</title>
<g id="a_node6"><a xlink:href="../../dd/d16/classDoublyLinkedList.html" target="_top" xlink:title=" ">
<polygon fill="#ffffff" stroke="#000000" points="155,-872.5 155,-1171.5 300,-1171.5 300,-872.5 155,-872.5"/>
<text text-anchor="start" x="163" y="-1159.5" font-family="Helvetica,sans-Serif" font-size="10.00" fill="#000000">DoublyLinkedList&lt; Updatable</text>
<text text-anchor="middle" x="227.5" y="-1148.5" font-family="Helvetica,sans-Serif" font-size="10.00" fill="#000000">&lt; NormalUpdatable &gt; &gt;</text>
<polyline fill="none" stroke="#000000" points="155,-1141.5 300,-1141.5 "/>
<text text-anchor="start" x="163" y="-1129.5" font-family="Helvetica,sans-Serif" font-size="10.00" fill="#000000">&#45; first</text>
<text text-anchor="start" x="163" y="-1118.5" font-family="Helvetica,sans-Serif" font-size="10.00" fill="#000000">&#45; last</text>
<polyline fill="none" stroke="#000000" points="155,-1111.5 300,-1111.5 "/>
<text text-anchor="start" x="163" y="-1099.5" font-family="Helvetica,sans-Serif" font-size="10.00" fill="#000000">+ append()</text>
<text text-anchor="start" x="163" y="-1088.5" font-family="Helvetica,sans-Serif" font-size="10.00" fill="#000000">+ append()</text>
<text text-anchor="start" x="163" y="-1077.5" font-family="Helvetica,sans-Serif" font-size="10.00" fill="#000000">+ insertBefore()</text>
<text text-anchor="start" x="163" y="-1066.5" font-family="Helvetica,sans-Serif" font-size="10.00" fill="#000000">+ insertBefore()</text>
<text text-anchor="start" x="163" y="-1055.5" font-family="Helvetica,sans-Serif" font-size="10.00" fill="#000000">+ insertSorted()</text>
<text text-anchor="start" x="163" y="-1044.5" font-family="Helvetica,sans-Serif" font-size="10.00" fill="#000000">+ insertSorted()</text>
<text text-anchor="start" x="163" y="-1033.5" font-family="Helvetica,sans-Serif" font-size="10.00" fill="#000000">+ remove()</text>
<text text-anchor="start" x="163" y="-1022.5" font-family="Helvetica,sans-Serif" font-size="10.00" fill="#000000">+ remove()</text>
<text text-anchor="start" x="163" y="-1011.5" font-family="Helvetica,sans-Serif" font-size="10.00" fill="#000000">+ moveDown()</text>
<text text-anchor="start" x="163" y="-1000.5" font-family="Helvetica,sans-Serif" font-size="10.00" fill="#000000">+ couldContain()</text>
<text text-anchor="start" x="163" y="-989.5" font-family="Helvetica,sans-Serif" font-size="10.00" fill="#000000">+ couldContain()</text>
<text text-anchor="start" x="163" y="-978.5" font-family="Helvetica,sans-Serif" font-size="10.00" fill="#000000">+ begin()</text>
<text text-anchor="start" x="163" y="-967.5" font-family="Helvetica,sans-Serif" font-size="10.00" fill="#000000">+ begin()</text>
<text text-anchor="start" x="163" y="-956.5" font-family="Helvetica,sans-Serif" font-size="10.00" fill="#000000">+ end()</text>
<text text-anchor="start" x="163" y="-945.5" font-family="Helvetica,sans-Serif" font-size="10.00" fill="#000000">+ end()</text>
<text text-anchor="start" x="163" y="-934.5" font-family="Helvetica,sans-Serif" font-size="10.00" fill="#000000">+ rbegin()</text>
<text text-anchor="start" x="163" y="-923.5" font-family="Helvetica,sans-Serif" font-size="10.00" fill="#000000">+ rbegin()</text>
<text text-anchor="start" x="163" y="-912.5" font-family="Helvetica,sans-Serif" font-size="10.00" fill="#000000">+ rend()</text>
<text text-anchor="start" x="163" y="-901.5" font-family="Helvetica,sans-Serif" font-size="10.00" fill="#000000">+ rend()</text>
<text text-anchor="start" x="163" y="-890.5" font-family="Helvetica,sans-Serif" font-size="10.00" fill="#000000">+ getFirst()</text>
<text text-anchor="start" x="163" y="-879.5" font-family="Helvetica,sans-Serif" font-size="10.00" fill="#000000">+ getLast()</text>
</a>
</g>
</g>
<!-- Node6&#45;&gt;Node4 -->
<g id="edge5" class="edge">
<title>Node6&#45;&gt;Node4</title>
<path fill="none" stroke="#404040" d="M191.8284,-872.1792C185.4257,-845.288 178.8734,-817.7682 172.8379,-792.4192"/>
<polygon fill="none" stroke="#404040" points="172.7915,-792.2238 167.5105,-787.3134 170.0119,-780.5501 175.2929,-785.4604 172.7915,-792.2238"/>
<text text-anchor="middle" x="215.5" y="-824" font-family="Helvetica,sans-Serif" font-size="10.00" fill="#000000"> #updatables</text>
</g>
<!-- Node7 -->
<g id="node7" class="node">
<title>Node7</title>
<g id="a_node7"><a xlink:href="../../d3/d6e/classAH_1_1FilteredAnalog.html" target="_top" xlink:title=" ">
<polygon fill="#ffffff" stroke="#000000" points="355,-338 355,-483 474,-483 474,-338 355,-338"/>
<text text-anchor="start" x="363" y="-471" font-family="Helvetica,sans-Serif" font-size="10.00" fill="#000000">FilteredAnalog&lt; Sender</text>
<text text-anchor="middle" x="414.5" y="-460" font-family="Helvetica,sans-Serif" font-size="10.00" fill="#000000">::precision()&gt;</text>
<polyline fill="none" stroke="#000000" points="355,-453 474,-453 "/>
<text text-anchor="middle" x="414.5" y="-441" font-family="Helvetica,sans-Serif" font-size="10.00" fill="#000000"> </text>
<polyline fill="none" stroke="#000000" points="355,-434 474,-434 "/>
<text text-anchor="start" x="363" y="-422" font-family="Helvetica,sans-Serif" font-size="10.00" fill="#000000">+ FilteredAnalog()</text>
<text text-anchor="start" x="363" y="-411" font-family="Helvetica,sans-Serif" font-size="10.00" fill="#000000">+ map()</text>
<text text-anchor="start" x="363" y="-400" font-family="Helvetica,sans-Serif" font-size="10.00" fill="#000000">+ invert()</text>
<text text-anchor="start" x="363" y="-389" font-family="Helvetica,sans-Serif" font-size="10.00" fill="#000000">+ update()</text>
<text text-anchor="start" x="363" y="-378" font-family="Helvetica,sans-Serif" font-size="10.00" fill="#000000">+ getValue()</text>
<text text-anchor="start" x="363" y="-367" font-family="Helvetica,sans-Serif" font-size="10.00" fill="#000000">+ getFloatValue()</text>
<text text-anchor="start" x="363" y="-356" font-family="Helvetica,sans-Serif" font-size="10.00" fill="#000000">+ getRawValue()</text>
<text text-anchor="start" x="363" y="-345" font-family="Helvetica,sans-Serif" font-size="10.00" fill="#000000">+ setupADC()</text>
</a>
</g>
</g>
<!-- Node7&#45;&gt;Node2 -->
<g id="edge6" class="edge">
<title>Node7&#45;&gt;Node2</title>
<path fill="none" stroke="#404040" d="M423.9067,-337.6263C429.0938,-308.9893 436.9143,-276.2701 448.5,-248 449.4673,-245.6396 450.5008,-243.2732 451.5897,-240.909"/>
<polygon fill="none" stroke="#404040" points="451.7215,-240.643 450.8027,-233.4907 457.0515,-229.8917 457.9703,-237.044 451.7215,-240.643"/>
<text text-anchor="middle" x="481.5" y="-251" font-family="Helvetica,sans-Serif" font-size="10.00" fill="#000000"> &#45;filteredAnalog</text>
</g>
<!-- Node8 -->
<g id="node8" class="node">
<title>Node8</title>
<g id="a_node8"><a xlink:href="../../d7/d40/classEMA.html" target="_top" xlink:title=" ">
<polygon fill="#ffffff" stroke="#000000" points="237,-635.5 237,-736.5 382,-736.5 382,-635.5 237,-635.5"/>
<text text-anchor="start" x="245" y="-724.5" font-family="Helvetica,sans-Serif" font-size="10.00" fill="#000000">EMA&lt; ANALOG_FILTER</text>
<text text-anchor="start" x="245" y="-713.5" font-family="Helvetica,sans-Serif" font-size="10.00" fill="#000000">_SHIFT_FACTOR, ANALOG</text>
<text text-anchor="middle" x="309.5" y="-702.5" font-family="Helvetica,sans-Serif" font-size="10.00" fill="#000000">_FILTER_TYPE &gt;</text>
<polyline fill="none" stroke="#000000" points="237,-695.5 382,-695.5 "/>
<text text-anchor="start" x="245" y="-683.5" font-family="Helvetica,sans-Serif" font-size="10.00" fill="#000000">&#45; filtered</text>
<text text-anchor="start" x="245" y="-672.5" font-family="Helvetica,sans-Serif" font-size="10.00" fill="#000000">&#45; fixedPointAHalf</text>
<polyline fill="none" stroke="#000000" points="237,-665.5 382,-665.5 "/>
<text text-anchor="start" x="245" y="-653.5" font-family="Helvetica,sans-Serif" font-size="10.00" fill="#000000">+ filter()</text>
<text text-anchor="start" x="245" y="-642.5" font-family="Helvetica,sans-Serif" font-size="10.00" fill="#000000">+ operator()()</text>
</a>
</g>
</g>
<!-- Node8&#45;&gt;Node7 -->
<g id="edge7" class="edge">
<title>Node8&#45;&gt;Node7</title>
<path fill="none" stroke="#404040" d="M328.7586,-635.4691C343.7678,-596.0877 364.9348,-540.5496 382.4817,-494.5098"/>
<polygon fill="none" stroke="#404040" points="382.5852,-494.2383 380.9843,-487.2071 386.8589,-483.0251 388.4597,-490.0563 382.5852,-494.2383"/>
<text text-anchor="middle" x="369" y="-565" font-family="Helvetica,sans-Serif" font-size="10.00" fill="#000000"> &#45;filter</text>
</g>
<!-- Node9 -->
<g id="node9" class="node">
<title>Node9</title>
<g id="a_node9"><a xlink:title=" ">
<polygon fill="#ffffff" stroke="#bfbfbf" points="400.5,-657.5 400.5,-714.5 438.5,-714.5 438.5,-657.5 400.5,-657.5"/>
<text text-anchor="middle" x="419.5" y="-702.5" font-family="Helvetica,sans-Serif" font-size="10.00" fill="#000000">pin_t</text>
<polyline fill="none" stroke="#bfbfbf" points="400.5,-695.5 438.5,-695.5 "/>
<text text-anchor="middle" x="419.5" y="-683.5" font-family="Helvetica,sans-Serif" font-size="10.00" fill="#000000"> </text>
<polyline fill="none" stroke="#bfbfbf" points="400.5,-676.5 438.5,-676.5 "/>
<text text-anchor="middle" x="419.5" y="-664.5" font-family="Helvetica,sans-Serif" font-size="10.00" fill="#000000"> </text>
</a>
</g>
</g>
<!-- Node9&#45;&gt;Node7 -->
<g id="edge8" class="edge">
<title>Node9&#45;&gt;Node7</title>
<path fill="none" stroke="#404040" d="M418.2488,-657.2108C417.3125,-634.3786 416.0952,-601.6541 415.5,-573 414.9764,-547.7907 414.6965,-520.3771 414.5539,-495.3712"/>
<polygon fill="none" stroke="#404040" points="414.5537,-495.3089 410.5242,-489.3288 414.4945,-483.3091 418.5241,-489.2893 414.5537,-495.3089"/>
<text text-anchor="middle" x="440" y="-565" font-family="Helvetica,sans-Serif" font-size="10.00" fill="#000000"> &#45;analogPin</text>
</g>
<!-- Node10 -->
<g id="node10" class="node">
<title>Node10</title>
<g id="a_node10"><a xlink:href="../../d2/dcb/classHysteresis.html" target="_top" xlink:title=" ">
<polygon fill="#ffffff" stroke="#000000" points="534,-619 534,-753 725,-753 725,-619 534,-619"/>
<text text-anchor="start" x="542" y="-741" font-family="Helvetica,sans-Serif" font-size="10.00" fill="#000000">Hysteresis&lt; ADC_BITS</text>
<text text-anchor="start" x="542" y="-730" font-family="Helvetica,sans-Serif" font-size="10.00" fill="#000000">+min(sizeof(ANALOG_FILTER</text>
<text text-anchor="start" x="542" y="-719" font-family="Helvetica,sans-Serif" font-size="10.00" fill="#000000">_TYPE) *CHAR_BIT &#45; ADC_BITS</text>
<text text-anchor="start" x="542" y="-708" font-family="Helvetica,sans-Serif" font-size="10.00" fill="#000000"> &#45; ANALOG_FILTER_SHIFT_FACTOR,</text>
<text text-anchor="start" x="542" y="-697" font-family="Helvetica,sans-Serif" font-size="10.00" fill="#000000"> sizeof(analog_t) *CHAR_BIT </text>
<text text-anchor="start" x="542" y="-686" font-family="Helvetica,sans-Serif" font-size="10.00" fill="#000000">&#45; ADC_BITS) &#45; Precision, analog</text>
<text text-anchor="middle" x="629.5" y="-675" font-family="Helvetica,sans-Serif" font-size="10.00" fill="#000000">_t, analog_t &gt;</text>
<polyline fill="none" stroke="#000000" points="534,-668 725,-668 "/>
<text text-anchor="middle" x="629.5" y="-656" font-family="Helvetica,sans-Serif" font-size="10.00" fill="#000000"> </text>
<polyline fill="none" stroke="#000000" points="534,-649 725,-649 "/>
<text text-anchor="start" x="542" y="-637" font-family="Helvetica,sans-Serif" font-size="10.00" fill="#000000">+ update()</text>
<text text-anchor="start" x="542" y="-626" font-family="Helvetica,sans-Serif" font-size="10.00" fill="#000000">+ getValue()</text>
</a>
</g>
</g>
<!-- Node10&#45;&gt;Node7 -->
<g id="edge9" class="edge">
<title>Node10&#45;&gt;Node7</title>
<path fill="none" stroke="#404040" d="M551.1302,-618.7276C527.7141,-596.3741 503.0895,-570.4119 483.5,-544 472.0449,-528.5554 461.4664,-510.9384 452.2093,-493.6799"/>
<polygon fill="none" stroke="#404040" points="452.1856,-493.6345 445.8591,-490.1739 446.6202,-483.0031 452.9467,-486.4637 452.1856,-493.6345"/>
<text text-anchor="middle" x="529.5" y="-565" font-family="Helvetica,sans-Serif" font-size="10.00" fill="#000000"> &#45;hysteresis</text>
</g>
<!-- Node11 -->
<g id="node11" class="node">
<title>Node11</title>
<g id="a_node11"><a xlink:title=" ">
<polygon fill="#ffffff" stroke="#bfbfbf" points="498,-993.5 498,-1050.5 551,-1050.5 551,-993.5 498,-993.5"/>
<text text-anchor="middle" x="524.5" y="-1038.5" font-family="Helvetica,sans-Serif" font-size="10.00" fill="#000000">analog_t</text>
<polyline fill="none" stroke="#bfbfbf" points="498,-1031.5 551,-1031.5 "/>
<text text-anchor="middle" x="524.5" y="-1019.5" font-family="Helvetica,sans-Serif" font-size="10.00" fill="#000000"> </text>
<polyline fill="none" stroke="#bfbfbf" points="498,-1012.5 551,-1012.5 "/>
<text text-anchor="middle" x="524.5" y="-1000.5" font-family="Helvetica,sans-Serif" font-size="10.00" fill="#000000"> </text>
</a>
</g>
</g>
<!-- Node11&#45;&gt;Node7 -->
<g id="edge11" class="edge">
<title>Node11&#45;&gt;Node7</title>
<path fill="none" stroke="#404040" d="M519.871,-993.4846C512.6407,-948.4309 498.4646,-857.9866 488.5,-781 475.9313,-683.894 485.2912,-657.6832 464.5,-562 459.6893,-539.8604 452.848,-516.4015 445.7649,-494.7267"/>
<polygon fill="none" stroke="#404040" points="445.7279,-494.6153 440.0357,-490.1882 441.9329,-483.2312 447.6251,-487.6583 445.7279,-494.6153"/>
<text text-anchor="middle" x="507" y="-683.5" font-family="Helvetica,sans-Serif" font-size="10.00" fill="#000000"> &#45;mapFn</text>
</g>
<!-- Node11&#45;&gt;Node10 -->
<g id="edge10" class="edge">
<title>Node11&#45;&gt;Node10</title>
<path fill="none" stroke="#404040" d="M533.4522,-993.3528C549.1283,-943.1895 582.0561,-837.8206 604.9597,-764.529"/>
<polygon fill="none" stroke="#404040" points="604.966,-764.5087 602.9377,-757.5886 608.5453,-753.0549 610.5736,-759.9749 604.966,-764.5087"/>
<text text-anchor="middle" x="615.5" y="-846" font-family="Helvetica,sans-Serif" font-size="10.00" fill="#000000"> &#45;max_in</text>
<text text-anchor="middle" x="615.5" y="-835" font-family="Helvetica,sans-Serif" font-size="10.00" fill="#000000">&#45;max_out</text>
<text text-anchor="middle" x="615.5" y="-824" font-family="Helvetica,sans-Serif" font-size="10.00" fill="#000000">&#45;offset</text>
<text text-anchor="middle" x="615.5" y="-813" font-family="Helvetica,sans-Serif" font-size="10.00" fill="#000000">&#45;prevLevel</text>
<text text-anchor="middle" x="615.5" y="-802" font-family="Helvetica,sans-Serif" font-size="10.00" fill="#000000">&#45;margin</text>
</g>
<!-- Node12 -->
<g id="node12" class="node">
<title>Node12</title>
<g id="a_node12"><a xlink:href="../../da/d07/classContinuousCCSender.html" target="_top" xlink:title=" ">
<polygon fill="#ffffff" stroke="#000000" points="492.5,-376.5 492.5,-444.5 604.5,-444.5 604.5,-376.5 492.5,-376.5"/>
<text text-anchor="middle" x="548.5" y="-432.5" font-family="Helvetica,sans-Serif" font-size="10.00" fill="#000000">ContinuousCCSender</text>
<polyline fill="none" stroke="#000000" points="492.5,-425.5 604.5,-425.5 "/>
<text text-anchor="middle" x="548.5" y="-413.5" font-family="Helvetica,sans-Serif" font-size="10.00" fill="#000000"> </text>
<polyline fill="none" stroke="#000000" points="492.5,-406.5 604.5,-406.5 "/>
<text text-anchor="start" x="500.5" y="-394.5" font-family="Helvetica,sans-Serif" font-size="10.00" fill="#000000">+ send()</text>
<text text-anchor="start" x="500.5" y="-383.5" font-family="Helvetica,sans-Serif" font-size="10.00" fill="#000000">+ precision()</text>
</a>
</g>
</g>
<!-- Node12&#45;&gt;Node2 -->
<g id="edge12" class="edge">
<title>Node12&#45;&gt;Node2</title>
<path fill="none" stroke="#404040" d="M542.2902,-376.277C536.0155,-341.6966 526.0978,-287.0389 517.8616,-241.6482"/>
<polygon fill="none" stroke="#404040" points="517.8402,-241.5297 512.8332,-236.3403 515.6976,-229.7225 520.7046,-234.912 517.8402,-241.5297"/>
<text text-anchor="middle" x="540" y="-251" font-family="Helvetica,sans-Serif" font-size="10.00" fill="#000000"> +sender</text>
</g>
<!-- Node13 -->
<g id="node13" class="node">
<title>Node13</title>
<g id="a_node13"><a xlink:href="../../d7/d0f/classMIDIAddress.html" target="_top" xlink:title="A type&#45;safe utility class for saving a MIDI address consisting of a 7&#45;bit address,...">
<polygon fill="#ffffff" stroke="#000000" points="623,-277.5 623,-543.5 752,-543.5 752,-277.5 623,-277.5"/>
<text text-anchor="middle" x="687.5" y="-531.5" font-family="Helvetica,sans-Serif" font-size="10.00" fill="#000000">MIDIAddress</text>
<polyline fill="none" stroke="#000000" points="623,-524.5 752,-524.5 "/>
<text text-anchor="start" x="631" y="-512.5" font-family="Helvetica,sans-Serif" font-size="10.00" fill="#000000">&#45; addresses</text>
<polyline fill="none" stroke="#000000" points="623,-505.5 752,-505.5 "/>
<text text-anchor="start" x="631" y="-493.5" font-family="Helvetica,sans-Serif" font-size="10.00" fill="#000000">* MIDIAddress()</text>
<text text-anchor="start" x="631" y="-482.5" font-family="Helvetica,sans-Serif" font-size="10.00" fill="#000000">* MIDIAddress()</text>
<text text-anchor="start" x="631" y="-471.5" font-family="Helvetica,sans-Serif" font-size="10.00" fill="#000000">* MIDIAddress()</text>
<text text-anchor="start" x="631" y="-460.5" font-family="Helvetica,sans-Serif" font-size="10.00" fill="#000000">* MIDIAddress()</text>
<text text-anchor="start" x="631" y="-449.5" font-family="Helvetica,sans-Serif" font-size="10.00" fill="#000000">* MIDIAddress()</text>
<text text-anchor="start" x="631" y="-438.5" font-family="Helvetica,sans-Serif" font-size="10.00" fill="#000000">* invalid()</text>
<text text-anchor="start" x="631" y="-427.5" font-family="Helvetica,sans-Serif" font-size="10.00" fill="#000000">* operator+=()</text>
<text text-anchor="start" x="631" y="-416.5" font-family="Helvetica,sans-Serif" font-size="10.00" fill="#000000">* operator&#45;=()</text>
<text text-anchor="start" x="631" y="-405.5" font-family="Helvetica,sans-Serif" font-size="10.00" fill="#000000">* operator+()</text>
<text text-anchor="start" x="631" y="-394.5" font-family="Helvetica,sans-Serif" font-size="10.00" fill="#000000">* operator&#45;()</text>
<text text-anchor="start" x="631" y="-383.5" font-family="Helvetica,sans-Serif" font-size="10.00" fill="#000000">* getAddress()</text>
<text text-anchor="start" x="631" y="-372.5" font-family="Helvetica,sans-Serif" font-size="10.00" fill="#000000">* getChannel()</text>
<text text-anchor="start" x="631" y="-361.5" font-family="Helvetica,sans-Serif" font-size="10.00" fill="#000000">* getRawChannel()</text>
<text text-anchor="start" x="631" y="-350.5" font-family="Helvetica,sans-Serif" font-size="10.00" fill="#000000">* getCableNumber()</text>
<text text-anchor="start" x="631" y="-339.5" font-family="Helvetica,sans-Serif" font-size="10.00" fill="#000000">* operator==()</text>
<text text-anchor="start" x="631" y="-328.5" font-family="Helvetica,sans-Serif" font-size="10.00" fill="#000000">* operator!=()</text>
<text text-anchor="start" x="631" y="-317.5" font-family="Helvetica,sans-Serif" font-size="10.00" fill="#000000">* isValid()</text>
<text text-anchor="start" x="631" y="-306.5" font-family="Helvetica,sans-Serif" font-size="10.00" fill="#000000">* operator bool()</text>
<text text-anchor="start" x="631" y="-295.5" font-family="Helvetica,sans-Serif" font-size="10.00" fill="#000000">* matchSingle()</text>
<text text-anchor="start" x="631" y="-284.5" font-family="Helvetica,sans-Serif" font-size="10.00" fill="#000000">* matchAddressInRange()</text>
</a>
</g>
</g>
<!-- Node13&#45;&gt;Node2 -->
<g id="edge13" class="edge">
<title>Node13&#45;&gt;Node2</title>
<path fill="none" stroke="#404040" d="M622.8079,-290.1896C619.7539,-285.6774 616.647,-281.2645 613.5,-277 603.8851,-263.971 592.891,-250.8926 581.6567,-238.4735"/>
<polygon fill="none" stroke="#404040" points="581.5768,-238.3866 574.5704,-236.6807 573.4503,-229.5571 580.4568,-231.263 581.5768,-238.3866"/>
<text text-anchor="middle" x="617" y="-251" font-family="Helvetica,sans-Serif" font-size="10.00" fill="#000000"> &#45;address</text>
</g>
</g>
</svg>
