<?xml version="1.0" encoding="UTF-8" standalone="no"?>
<!DOCTYPE svg PUBLIC "-//W3C//DTD SVG 1.1//EN"
 "http://www.w3.org/Graphics/SVG/1.1/DTD/svg11.dtd">
<!-- Generated by graphviz version 2.43.0 (0)
 -->
<!-- Title: AudioVU.hpp Pages: 1 -->
<svg width="171pt" height="140pt"
 viewBox="0.00 0.00 171.00 140.00" xmlns="http://www.w3.org/2000/svg" xmlns:xlink="http://www.w3.org/1999/xlink">
<g id="graph0" class="graph" transform="scale(1 1) rotate(0) translate(4 136)">
<title>AudioVU.hpp</title>
<polygon fill="white" stroke="transparent" points="-4,4 -4,-136 167,-136 167,4 -4,4"/>
<!-- Node1 -->
<g id="node1" class="node">
<title>Node1</title>
<g id="a_node1"><a xlink:title=" ">
<polygon fill="#bfbfbf" stroke="black" points="56,-112.5 56,-131.5 136,-131.5 136,-112.5 56,-112.5"/>
<text text-anchor="middle" x="96" y="-119.5" font-family="Helvetica,sans-Serif" font-size="10.00">AudioVU.hpp</text>
</a>
</g>
</g>
<!-- Node2 -->
<g id="node2" class="node">
<title>Node2</title>
<g id="a_node2"><a xlink:href="../../d4/dde/AudioVULEDs_8hpp.html" target="_top" xlink:title=" ">
<polygon fill="white" stroke="black" points="0,-56.5 0,-75.5 110,-75.5 110,-56.5 0,-56.5"/>
<text text-anchor="middle" x="55" y="-63.5" font-family="Helvetica,sans-Serif" font-size="10.00">Audio/AudioVU.hpp</text>
</a>
</g>
</g>
<!-- Node1&#45;&gt;Node2 -->
<g id="edge1" class="edge">
<title>Node1&#45;&gt;Node2</title>
<path fill="none" stroke="midnightblue" d="M82.98,-103.86C75.88,-94.5 67.4,-83.33 61.64,-75.75"/>
<polygon fill="midnightblue" stroke="midnightblue" points="80.39,-106.24 89.23,-112.08 85.97,-102 80.39,-106.24"/>
</g>
<!-- Node3 -->
<g id="node3" class="node">
<title>Node3</title>
<g id="a_node3"><a xlink:href="../../db/dbf/Control__Surface_8h.html" target="_top" xlink:title="The main header file that includes all Control&#45;Surface header files.">
<polygon fill="white" stroke="black" points="29,-0.5 29,-19.5 163,-19.5 163,-0.5 29,-0.5"/>
<text text-anchor="middle" x="96" y="-7.5" font-family="Helvetica,sans-Serif" font-size="10.00">Audio/AudioVULEDs.hpp</text>
</a>
</g>
</g>
<!-- Node1&#45;&gt;Node3 -->
<g id="edge3" class="edge">
<title>Node1&#45;&gt;Node3</title>
<path fill="none" stroke="midnightblue" d="M108.01,-103.6C115.48,-90.68 122.97,-72.51 119,-56 115.76,-42.52 107.75,-28.54 102.1,-19.81"/>
<polygon fill="midnightblue" stroke="midnightblue" points="104.87,-102.02 102.49,-112.34 110.79,-105.76 104.87,-102.02"/>
</g>
<!-- Node2&#45;&gt;Node3 -->
<g id="edge2" class="edge">
<title>Node2&#45;&gt;Node3</title>
<path fill="none" stroke="midnightblue" d="M68.02,-47.86C75.12,-38.5 83.6,-27.33 89.36,-19.75"/>
<polygon fill="midnightblue" stroke="midnightblue" points="65.03,-46 61.77,-56.08 70.61,-50.24 65.03,-46"/>
</g>
</g>
</svg>
