<?xml version="1.0" encoding="UTF-8" standalone="no"?>
<!DOCTYPE svg PUBLIC "-//W3C//DTD SVG 1.1//EN"
 "http://www.w3.org/Graphics/SVG/1.1/DTD/svg11.dtd">
<!-- Generated by graphviz version 2.40.1 (20161225.0304)
 -->
<!-- Title: IncrementSelectorLEDs&lt; N &gt; Pages: 1 -->
<svg width="225pt" height="783pt"
 viewBox="0.00 0.00 225.00 783.00" xmlns="http://www.w3.org/2000/svg" xmlns:xlink="http://www.w3.org/1999/xlink">
<g id="graph0" class="graph" transform="scale(1 1) rotate(0) translate(4 779)">
<title>IncrementSelectorLEDs&lt; N &gt;</title>
<polygon fill="#ffffff" stroke="transparent" points="-4,4 -4,-779 221,-779 221,4 -4,4"/>
<!-- Node1 -->
<g id="node1" class="node">
<title>Node1</title>
<g id="a_node1"><a xlink:title="Selector with one button that increments the selection. This version displays the setting using LEDs.">
<polygon fill="#bfbfbf" stroke="#000000" points="23.5,-.5 23.5,-57.5 169.5,-57.5 169.5,-.5 23.5,-.5"/>
<text text-anchor="middle" x="96.5" y="-45.5" font-family="Helvetica,sans-Serif" font-size="10.00" fill="#000000">IncrementSelectorLEDs&lt; N &gt;</text>
<polyline fill="none" stroke="#000000" points="23.5,-38.5 169.5,-38.5 "/>
<text text-anchor="middle" x="96.5" y="-26.5" font-family="Helvetica,sans-Serif" font-size="10.00" fill="#000000"> </text>
<polyline fill="none" stroke="#000000" points="23.5,-19.5 169.5,-19.5 "/>
<text text-anchor="start" x="31.5" y="-7.5" font-family="Helvetica,sans-Serif" font-size="10.00" fill="#000000">+ IncrementSelectorLEDs()</text>
</a>
</g>
</g>
<!-- Node2 -->
<g id="node2" class="node">
<title>Node2</title>
<g id="a_node2"><a xlink:href="../../d1/d94/classGenericIncrementSelector.html" target="_top" xlink:title=" ">
<polygon fill="#ffffff" stroke="#000000" points="10,-94.5 10,-217.5 183,-217.5 183,-94.5 10,-94.5"/>
<text text-anchor="start" x="18" y="-205.5" font-family="Helvetica,sans-Serif" font-size="10.00" fill="#000000">GenericIncrementSelector</text>
<text text-anchor="middle" x="96.5" y="-194.5" font-family="Helvetica,sans-Serif" font-size="10.00" fill="#000000">&lt; N, SelectorLEDsCallback&lt; N &gt; &gt;</text>
<polyline fill="none" stroke="#000000" points="10,-187.5 183,-187.5 "/>
<text text-anchor="start" x="18" y="-175.5" font-family="Helvetica,sans-Serif" font-size="10.00" fill="#000000">&#45; button</text>
<text text-anchor="start" x="18" y="-164.5" font-family="Helvetica,sans-Serif" font-size="10.00" fill="#000000">&#45; wrap</text>
<polyline fill="none" stroke="#000000" points="10,-157.5 183,-157.5 "/>
<text text-anchor="start" x="18" y="-145.5" font-family="Helvetica,sans-Serif" font-size="10.00" fill="#000000">+ GenericIncrementSelector()</text>
<text text-anchor="start" x="18" y="-134.5" font-family="Helvetica,sans-Serif" font-size="10.00" fill="#000000">+ begin()</text>
<text text-anchor="start" x="18" y="-123.5" font-family="Helvetica,sans-Serif" font-size="10.00" fill="#000000">+ update()</text>
<text text-anchor="start" x="18" y="-112.5" font-family="Helvetica,sans-Serif" font-size="10.00" fill="#000000">+ getButtonState()</text>
<text text-anchor="start" x="18" y="-101.5" font-family="Helvetica,sans-Serif" font-size="10.00" fill="#000000">+ invert()</text>
</a>
</g>
</g>
<!-- Node2&#45;&gt;Node1 -->
<g id="edge1" class="edge">
<title>Node2&#45;&gt;Node1</title>
<path fill="none" stroke="#191970" d="M96.5,-84.1046C96.5,-74.707 96.5,-65.5591 96.5,-57.5038"/>
<polygon fill="none" stroke="#191970" points="93.0001,-84.3601 96.5,-94.3601 100.0001,-84.3601 93.0001,-84.3601"/>
</g>
<!-- Node3 -->
<g id="node3" class="node">
<title>Node3</title>
<g id="a_node3"><a xlink:href="../../d0/d04/classGenericSelector.html" target="_top" xlink:title=" ">
<polygon fill="#ffffff" stroke="#000000" points="37,-254.5 37,-410.5 156,-410.5 156,-254.5 37,-254.5"/>
<text text-anchor="start" x="45" y="-398.5" font-family="Helvetica,sans-Serif" font-size="10.00" fill="#000000">GenericSelector&lt; N,</text>
<text text-anchor="start" x="45" y="-387.5" font-family="Helvetica,sans-Serif" font-size="10.00" fill="#000000"> SelectorLEDsCallback</text>
<text text-anchor="middle" x="96.5" y="-376.5" font-family="Helvetica,sans-Serif" font-size="10.00" fill="#000000">&lt; N &gt; &gt;</text>
<polyline fill="none" stroke="#000000" points="37,-369.5 156,-369.5 "/>
<text text-anchor="start" x="45" y="-357.5" font-family="Helvetica,sans-Serif" font-size="10.00" fill="#000000">+ callback</text>
<text text-anchor="start" x="45" y="-346.5" font-family="Helvetica,sans-Serif" font-size="10.00" fill="#000000">&#45; selectable</text>
<polyline fill="none" stroke="#000000" points="37,-339.5 156,-339.5 "/>
<text text-anchor="start" x="45" y="-327.5" font-family="Helvetica,sans-Serif" font-size="10.00" fill="#000000">+ GenericSelector()</text>
<text text-anchor="start" x="45" y="-316.5" font-family="Helvetica,sans-Serif" font-size="10.00" fill="#000000">+ begin()</text>
<text text-anchor="start" x="45" y="-305.5" font-family="Helvetica,sans-Serif" font-size="10.00" fill="#000000">+ update()</text>
<text text-anchor="start" x="45" y="-294.5" font-family="Helvetica,sans-Serif" font-size="10.00" fill="#000000">+ reset()</text>
<text text-anchor="start" x="45" y="-283.5" font-family="Helvetica,sans-Serif" font-size="10.00" fill="#000000">+ set()</text>
<text text-anchor="start" x="45" y="-272.5" font-family="Helvetica,sans-Serif" font-size="10.00" fill="#000000">+ increment()</text>
<text text-anchor="start" x="45" y="-261.5" font-family="Helvetica,sans-Serif" font-size="10.00" fill="#000000">+ decrement()</text>
</a>
</g>
</g>
<!-- Node3&#45;&gt;Node2 -->
<g id="edge2" class="edge">
<title>Node3&#45;&gt;Node2</title>
<path fill="none" stroke="#191970" d="M96.5,-244.2145C96.5,-235.2522 96.5,-226.2903 96.5,-217.6987"/>
<polygon fill="none" stroke="#191970" points="93.0001,-244.3137 96.5,-254.3138 100.0001,-244.3138 93.0001,-244.3137"/>
</g>
<!-- Node4 -->
<g id="node4" class="node">
<title>Node4</title>
<g id="a_node4"><a xlink:href="../../dc/d77/classSelectorBase.html" target="_top" xlink:title="Base class for all Selectors exposing the get method, so it can be used by display elements etc,...">
<polygon fill="#ffffff" stroke="#000000" points="0,-519 0,-587 89,-587 89,-519 0,-519"/>
<text text-anchor="middle" x="44.5" y="-575" font-family="Helvetica,sans-Serif" font-size="10.00" fill="#000000">SelectorBase</text>
<polyline fill="none" stroke="#000000" points="0,-568 89,-568 "/>
<text text-anchor="start" x="8" y="-556" font-family="Helvetica,sans-Serif" font-size="10.00" fill="#000000"># setting</text>
<polyline fill="none" stroke="#000000" points="0,-549 89,-549 "/>
<text text-anchor="start" x="8" y="-537" font-family="Helvetica,sans-Serif" font-size="10.00" fill="#000000">+ get()</text>
<text text-anchor="start" x="8" y="-526" font-family="Helvetica,sans-Serif" font-size="10.00" fill="#000000"># SelectorBase()</text>
</a>
</g>
</g>
<!-- Node4&#45;&gt;Node3 -->
<g id="edge3" class="edge">
<title>Node4&#45;&gt;Node3</title>
<path fill="none" stroke="#191970" d="M54.9634,-508.6314C61.5868,-480.5452 70.3347,-443.451 78.0936,-410.5504"/>
<polygon fill="none" stroke="#191970" points="51.5138,-508.0105 52.625,-518.5469 58.3269,-509.6172 51.5138,-508.0105"/>
</g>
<!-- Node5 -->
<g id="node5" class="node">
<title>Node5</title>
<g id="a_node5"><a xlink:href="../../d1/d55/classAH_1_1Updatable.html" target="_top" xlink:title=" ">
<polygon fill="#ffffff" stroke="#000000" points="107.5,-447.5 107.5,-658.5 189.5,-658.5 189.5,-447.5 107.5,-447.5"/>
<text text-anchor="middle" x="148.5" y="-646.5" font-family="Helvetica,sans-Serif" font-size="10.00" fill="#000000">Updatable&lt;&gt;</text>
<polyline fill="none" stroke="#000000" points="107.5,-639.5 189.5,-639.5 "/>
<text text-anchor="start" x="115.5" y="-627.5" font-family="Helvetica,sans-Serif" font-size="10.00" fill="#000000"># updatables</text>
<polyline fill="none" stroke="#000000" points="107.5,-620.5 189.5,-620.5 "/>
<text text-anchor="start" x="115.5" y="-608.5" font-family="Helvetica,sans-Serif" font-size="10.00" fill="#000000">+ ~Updatable()</text>
<text text-anchor="start" x="115.5" y="-597.5" font-family="Helvetica,sans-Serif" font-size="10.00" fill="#000000"># Updatable()</text>
<text text-anchor="start" x="115.5" y="-586.5" font-family="Helvetica,sans-Serif" font-size="10.00" fill="#000000">* begin()</text>
<text text-anchor="start" x="115.5" y="-575.5" font-family="Helvetica,sans-Serif" font-size="10.00" fill="#000000">* update()</text>
<text text-anchor="start" x="115.5" y="-564.5" font-family="Helvetica,sans-Serif" font-size="10.00" fill="#000000">* beginAll()</text>
<text text-anchor="start" x="115.5" y="-553.5" font-family="Helvetica,sans-Serif" font-size="10.00" fill="#000000">* updateAll()</text>
<text text-anchor="start" x="115.5" y="-542.5" font-family="Helvetica,sans-Serif" font-size="10.00" fill="#000000">* enable()</text>
<text text-anchor="start" x="115.5" y="-531.5" font-family="Helvetica,sans-Serif" font-size="10.00" fill="#000000">* disable()</text>
<text text-anchor="start" x="115.5" y="-520.5" font-family="Helvetica,sans-Serif" font-size="10.00" fill="#000000">* isEnabled()</text>
<text text-anchor="start" x="115.5" y="-509.5" font-family="Helvetica,sans-Serif" font-size="10.00" fill="#000000">* enable()</text>
<text text-anchor="start" x="115.5" y="-498.5" font-family="Helvetica,sans-Serif" font-size="10.00" fill="#000000">* enable()</text>
<text text-anchor="start" x="115.5" y="-487.5" font-family="Helvetica,sans-Serif" font-size="10.00" fill="#000000">* enable()</text>
<text text-anchor="start" x="115.5" y="-476.5" font-family="Helvetica,sans-Serif" font-size="10.00" fill="#000000">* disable()</text>
<text text-anchor="start" x="115.5" y="-465.5" font-family="Helvetica,sans-Serif" font-size="10.00" fill="#000000">* disable()</text>
<text text-anchor="start" x="115.5" y="-454.5" font-family="Helvetica,sans-Serif" font-size="10.00" fill="#000000">* disable()</text>
</a>
</g>
</g>
<!-- Node5&#45;&gt;Node3 -->
<g id="edge4" class="edge">
<title>Node5&#45;&gt;Node3</title>
<path fill="none" stroke="#191970" d="M121.2388,-437.4019C119.0955,-428.3137 116.9637,-419.2742 114.9019,-410.531"/>
<polygon fill="none" stroke="#191970" points="117.8642,-438.3412 123.5661,-447.2708 124.6773,-436.7344 117.8642,-438.3412"/>
</g>
<!-- Node6 -->
<g id="node6" class="node">
<title>Node6</title>
<g id="a_node6"><a xlink:href="../../d4/d23/classDoublyLinkable.html" target="_top" xlink:title=" ">
<polygon fill="#ffffff" stroke="#000000" points="80,-695.5 80,-774.5 217,-774.5 217,-695.5 80,-695.5"/>
<text text-anchor="start" x="88" y="-762.5" font-family="Helvetica,sans-Serif" font-size="10.00" fill="#000000">DoublyLinkable&lt; Updatable</text>
<text text-anchor="middle" x="148.5" y="-751.5" font-family="Helvetica,sans-Serif" font-size="10.00" fill="#000000">&lt; NormalUpdatable &gt; &gt;</text>
<polyline fill="none" stroke="#000000" points="80,-744.5 217,-744.5 "/>
<text text-anchor="start" x="88" y="-732.5" font-family="Helvetica,sans-Serif" font-size="10.00" fill="#000000"># next</text>
<text text-anchor="start" x="88" y="-721.5" font-family="Helvetica,sans-Serif" font-size="10.00" fill="#000000"># previous</text>
<polyline fill="none" stroke="#000000" points="80,-714.5 217,-714.5 "/>
<text text-anchor="start" x="88" y="-702.5" font-family="Helvetica,sans-Serif" font-size="10.00" fill="#000000"># ~DoublyLinkable()</text>
</a>
</g>
</g>
<!-- Node6&#45;&gt;Node5 -->
<g id="edge5" class="edge">
<title>Node6&#45;&gt;Node5</title>
<path fill="none" stroke="#191970" d="M148.5,-684.9137C148.5,-676.6415 148.5,-667.7996 148.5,-658.758"/>
<polygon fill="none" stroke="#191970" points="145.0001,-685.0593 148.5,-695.0593 152.0001,-685.0594 145.0001,-685.0593"/>
</g>
</g>
</svg>
