<?xml version="1.0" encoding="UTF-8" standalone="no"?>
<!DOCTYPE svg PUBLIC "-//W3C//DTD SVG 1.1//EN"
 "http://www.w3.org/Graphics/SVG/1.1/DTD/svg11.dtd">
<!-- Generated by graphviz version 2.38.0 (20140413.2041)
 -->
<!-- Title: CCIncrementDecrementButtons Pages: 1 -->
<svg width="817pt" height="1329pt"
 viewBox="0.00 0.00 817.00 1329.00" xmlns="http://www.w3.org/2000/svg" xmlns:xlink="http://www.w3.org/1999/xlink">
<g id="graph0" class="graph" transform="scale(1 1) rotate(0) translate(4 1325)">
<title>CCIncrementDecrementButtons</title>
<polygon fill="white" stroke="none" points="-4,4 -4,-1325 813,-1325 813,4 -4,4"/>
<!-- Node1 -->
<g id="node1" class="node"><title>Node1</title>
<g id="a_node1"><a xlink:title="A class of MIDIOutputElements that read the input of two momentary push buttons to increment or decre...">
<polygon fill="#bfbfbf" stroke="black" points="383.5,-0.5 383.5,-57.5 555.5,-57.5 555.5,-0.5 383.5,-0.5"/>
<text text-anchor="middle" x="469.5" y="-45.5" font-family="Helvetica,sans-Serif" font-size="10.00">CCIncrementDecrementButtons</text>
<polyline fill="none" stroke="black" points="383.5,-38.5 555.5,-38.5 "/>
<text text-anchor="middle" x="469.5" y="-26.5" font-family="Helvetica,sans-Serif" font-size="10.00"> </text>
<polyline fill="none" stroke="black" points="383.5,-19.5 555.5,-19.5 "/>
<text text-anchor="start" x="391.5" y="-7.5" font-family="Helvetica,sans-Serif" font-size="10.00">+ CCIncrementDecrementButtons()</text>
</a>
</g>
</g>
<!-- Node2 -->
<g id="node2" class="node"><title>Node2</title>
<g id="a_node2"><a xlink:href="../../d1/d2f/classBankable_1_1MIDIIncrementDecrementButtons.html" target="_top" xlink:title=" ">
<polygon fill="white" stroke="black" points="365,-95.5 365,-240.5 574,-240.5 574,-95.5 365,-95.5"/>
<text text-anchor="start" x="373" y="-228.5" font-family="Helvetica,sans-Serif" font-size="10.00">MIDIIncrementDecrementButtons</text>
<text text-anchor="start" x="373" y="-217.5" font-family="Helvetica,sans-Serif" font-size="10.00">&lt; TwoSingleAddresses, RelativeCCSender,</text>
<text text-anchor="middle" x="469.5" y="-206.5" font-family="Helvetica,sans-Serif" font-size="10.00"> DigitalNoteSender &gt;</text>
<polyline fill="none" stroke="black" points="365,-199.5 574,-199.5 "/>
<text text-anchor="start" x="373" y="-187.5" font-family="Helvetica,sans-Serif" font-size="10.00">&#45; multiplier</text>
<polyline fill="none" stroke="black" points="365,-180.5 574,-180.5 "/>
<text text-anchor="start" x="373" y="-168.5" font-family="Helvetica,sans-Serif" font-size="10.00">+ begin()</text>
<text text-anchor="start" x="373" y="-157.5" font-family="Helvetica,sans-Serif" font-size="10.00">+ update()</text>
<text text-anchor="start" x="373" y="-146.5" font-family="Helvetica,sans-Serif" font-size="10.00">+ send()</text>
<text text-anchor="start" x="373" y="-135.5" font-family="Helvetica,sans-Serif" font-size="10.00">+ reset()</text>
<text text-anchor="start" x="373" y="-124.5" font-family="Helvetica,sans-Serif" font-size="10.00">+ invert()</text>
<text text-anchor="start" x="373" y="-113.5" font-family="Helvetica,sans-Serif" font-size="10.00">+ getButtonsState()</text>
<text text-anchor="start" x="373" y="-102.5" font-family="Helvetica,sans-Serif" font-size="10.00"># MIDIIncrementDecrementButtons()</text>
</a>
</g>
</g>
<!-- Node2&#45;&gt;Node1 -->
<g id="edge1" class="edge"><title>Node2&#45;&gt;Node1</title>
<path fill="none" stroke="midnightblue" d="M469.5,-85.0423C469.5,-75.3063 469.5,-65.9479 469.5,-57.7962"/>
<polygon fill="none" stroke="midnightblue" points="466,-85.2901 469.5,-95.2901 473,-85.2901 466,-85.2901"/>
</g>
<!-- Node3 -->
<g id="node3" class="node"><title>Node3</title>
<g id="a_node3"><a xlink:href="../../d1/d55/classAH_1_1Updatable.html" target="_top" xlink:title=" ">
<polygon fill="white" stroke="black" points="96.5,-288.5 96.5,-499.5 200.5,-499.5 200.5,-288.5 96.5,-288.5"/>
<text text-anchor="middle" x="148.5" y="-487.5" font-family="Helvetica,sans-Serif" font-size="10.00">MIDIOutputElement</text>
<polyline fill="none" stroke="black" points="96.5,-480.5 200.5,-480.5 "/>
<text text-anchor="middle" x="148.5" y="-468.5" font-family="Helvetica,sans-Serif" font-size="10.00"> </text>
<polyline fill="none" stroke="black" points="96.5,-461.5 200.5,-461.5 "/>
<text text-anchor="start" x="104.5" y="-449.5" font-family="Helvetica,sans-Serif" font-size="10.00">+ ~Updatable()</text>
<text text-anchor="start" x="104.5" y="-438.5" font-family="Helvetica,sans-Serif" font-size="10.00"># Updatable()</text>
<text text-anchor="start" x="104.5" y="-427.5" font-family="Helvetica,sans-Serif" font-size="10.00">* begin()</text>
<text text-anchor="start" x="104.5" y="-416.5" font-family="Helvetica,sans-Serif" font-size="10.00">* update()</text>
<text text-anchor="start" x="104.5" y="-405.5" font-family="Helvetica,sans-Serif" font-size="10.00">* beginAll()</text>
<text text-anchor="start" x="104.5" y="-394.5" font-family="Helvetica,sans-Serif" font-size="10.00">* updateAll()</text>
<text text-anchor="start" x="104.5" y="-383.5" font-family="Helvetica,sans-Serif" font-size="10.00">* enable()</text>
<text text-anchor="start" x="104.5" y="-372.5" font-family="Helvetica,sans-Serif" font-size="10.00">* disable()</text>
<text text-anchor="start" x="104.5" y="-361.5" font-family="Helvetica,sans-Serif" font-size="10.00">* isEnabled()</text>
<text text-anchor="start" x="104.5" y="-350.5" font-family="Helvetica,sans-Serif" font-size="10.00">* enable()</text>
<text text-anchor="start" x="104.5" y="-339.5" font-family="Helvetica,sans-Serif" font-size="10.00">* enable()</text>
<text text-anchor="start" x="104.5" y="-328.5" font-family="Helvetica,sans-Serif" font-size="10.00">* enable()</text>
<text text-anchor="start" x="104.5" y="-317.5" font-family="Helvetica,sans-Serif" font-size="10.00">* disable()</text>
<text text-anchor="start" x="104.5" y="-306.5" font-family="Helvetica,sans-Serif" font-size="10.00">* disable()</text>
<text text-anchor="start" x="104.5" y="-295.5" font-family="Helvetica,sans-Serif" font-size="10.00">* disable()</text>
</a>
</g>
</g>
<!-- Node3&#45;&gt;Node2 -->
<g id="edge2" class="edge"><title>Node3&#45;&gt;Node2</title>
<path fill="none" stroke="midnightblue" d="M207.528,-297.508C210.747,-294.165 214.073,-290.977 217.5,-288 260.142,-250.954 316.302,-222.947 364.782,-203.441"/>
<polygon fill="none" stroke="midnightblue" points="204.801,-295.305 200.656,-305.056 209.977,-300.018 204.801,-295.305"/>
</g>
<!-- Node4 -->
<g id="node4" class="node"><title>Node4</title>
<g id="a_node4"><a xlink:href="../../d4/d23/classDoublyLinkable.html" target="_top" xlink:title=" ">
<polygon fill="white" stroke="black" points="0,-1225 0,-1304 137,-1304 137,-1225 0,-1225"/>
<text text-anchor="start" x="8" y="-1292" font-family="Helvetica,sans-Serif" font-size="10.00">DoublyLinkable&lt; Updatable</text>
<text text-anchor="middle" x="68.5" y="-1281" font-family="Helvetica,sans-Serif" font-size="10.00">&lt; NormalUpdatable &gt; &gt;</text>
<polyline fill="none" stroke="black" points="0,-1274 137,-1274 "/>
<text text-anchor="start" x="8" y="-1262" font-family="Helvetica,sans-Serif" font-size="10.00"># next</text>
<text text-anchor="start" x="8" y="-1251" font-family="Helvetica,sans-Serif" font-size="10.00"># previous</text>
<polyline fill="none" stroke="black" points="0,-1244 137,-1244 "/>
<text text-anchor="start" x="8" y="-1232" font-family="Helvetica,sans-Serif" font-size="10.00"># ~DoublyLinkable()</text>
</a>
</g>
</g>
<!-- Node4&#45;&gt;Node3 -->
<g id="edge3" class="edge"><title>Node4&#45;&gt;Node3</title>
<path fill="none" stroke="midnightblue" d="M58.4015,-1214.74C36.2888,-1098.55 -9.53602,-797.224 54.5,-558 63.0737,-525.971 79.6255,-493.716 96.4813,-466.45"/>
<polygon fill="none" stroke="midnightblue" points="55.0014,-1215.59 60.3351,-1224.74 61.8743,-1214.26 55.0014,-1215.59"/>
</g>
<!-- Node6 -->
<g id="node6" class="node"><title>Node6</title>
<g id="a_node6"><a xlink:href="../../d1/d55/classAH_1_1Updatable.html" target="_top" xlink:title=" ">
<polygon fill="white" stroke="black" points="64,-922 64,-1133 219,-1133 219,-922 64,-922"/>
<text text-anchor="middle" x="141.5" y="-1121" font-family="Helvetica,sans-Serif" font-size="10.00">Updatable&lt; NormalUpdatable &gt;</text>
<polyline fill="none" stroke="black" points="64,-1114 219,-1114 "/>
<text text-anchor="middle" x="141.5" y="-1102" font-family="Helvetica,sans-Serif" font-size="10.00"> </text>
<polyline fill="none" stroke="black" points="64,-1095 219,-1095 "/>
<text text-anchor="start" x="72" y="-1083" font-family="Helvetica,sans-Serif" font-size="10.00">+ ~Updatable()</text>
<text text-anchor="start" x="72" y="-1072" font-family="Helvetica,sans-Serif" font-size="10.00"># Updatable()</text>
<text text-anchor="start" x="72" y="-1061" font-family="Helvetica,sans-Serif" font-size="10.00">* begin()</text>
<text text-anchor="start" x="72" y="-1050" font-family="Helvetica,sans-Serif" font-size="10.00">* update()</text>
<text text-anchor="start" x="72" y="-1039" font-family="Helvetica,sans-Serif" font-size="10.00">* beginAll()</text>
<text text-anchor="start" x="72" y="-1028" font-family="Helvetica,sans-Serif" font-size="10.00">* updateAll()</text>
<text text-anchor="start" x="72" y="-1017" font-family="Helvetica,sans-Serif" font-size="10.00">* enable()</text>
<text text-anchor="start" x="72" y="-1006" font-family="Helvetica,sans-Serif" font-size="10.00">* disable()</text>
<text text-anchor="start" x="72" y="-995" font-family="Helvetica,sans-Serif" font-size="10.00">* isEnabled()</text>
<text text-anchor="start" x="72" y="-984" font-family="Helvetica,sans-Serif" font-size="10.00">* enable()</text>
<text text-anchor="start" x="72" y="-973" font-family="Helvetica,sans-Serif" font-size="10.00">* enable()</text>
<text text-anchor="start" x="72" y="-962" font-family="Helvetica,sans-Serif" font-size="10.00">* enable()</text>
<text text-anchor="start" x="72" y="-951" font-family="Helvetica,sans-Serif" font-size="10.00">* disable()</text>
<text text-anchor="start" x="72" y="-940" font-family="Helvetica,sans-Serif" font-size="10.00">* disable()</text>
<text text-anchor="start" x="72" y="-929" font-family="Helvetica,sans-Serif" font-size="10.00">* disable()</text>
</a>
</g>
</g>
<!-- Node4&#45;&gt;Node6 -->
<g id="edge6" class="edge"><title>Node4&#45;&gt;Node6</title>
<path fill="none" stroke="midnightblue" d="M83.5163,-1215.16C90.8922,-1191.42 100.085,-1161.82 108.962,-1133.24"/>
<polygon fill="none" stroke="midnightblue" points="80.0969,-1214.37 80.4727,-1224.96 86.7818,-1216.45 80.0969,-1214.37"/>
</g>
<!-- Node5 -->
<g id="node5" class="node"><title>Node5</title>
<g id="a_node5"><a xlink:href="../../dd/d16/classDoublyLinkedList.html" target="_top" xlink:title=" ">
<polygon fill="white" stroke="black" points="63.5,-558.5 63.5,-835.5 233.5,-835.5 233.5,-558.5 63.5,-558.5"/>
<text text-anchor="start" x="71.5" y="-823.5" font-family="Helvetica,sans-Serif" font-size="10.00">DoublyLinkedList&lt; AH</text>
<text text-anchor="middle" x="148.5" y="-812.5" font-family="Helvetica,sans-Serif" font-size="10.00">::Updatable&lt; NormalUpdatable &gt; &gt;</text>
<polyline fill="none" stroke="black" points="63.5,-805.5 233.5,-805.5 "/>
<text text-anchor="middle" x="148.5" y="-793.5" font-family="Helvetica,sans-Serif" font-size="10.00"> </text>
<polyline fill="none" stroke="black" points="63.5,-786.5 233.5,-786.5 "/>
<text text-anchor="start" x="71.5" y="-774.5" font-family="Helvetica,sans-Serif" font-size="10.00">+ append()</text>
<text text-anchor="start" x="71.5" y="-763.5" font-family="Helvetica,sans-Serif" font-size="10.00">+ append()</text>
<text text-anchor="start" x="71.5" y="-752.5" font-family="Helvetica,sans-Serif" font-size="10.00">+ insertBefore()</text>
<text text-anchor="start" x="71.5" y="-741.5" font-family="Helvetica,sans-Serif" font-size="10.00">+ insertBefore()</text>
<text text-anchor="start" x="71.5" y="-730.5" font-family="Helvetica,sans-Serif" font-size="10.00">+ insertSorted()</text>
<text text-anchor="start" x="71.5" y="-719.5" font-family="Helvetica,sans-Serif" font-size="10.00">+ insertSorted()</text>
<text text-anchor="start" x="71.5" y="-708.5" font-family="Helvetica,sans-Serif" font-size="10.00">+ remove()</text>
<text text-anchor="start" x="71.5" y="-697.5" font-family="Helvetica,sans-Serif" font-size="10.00">+ remove()</text>
<text text-anchor="start" x="71.5" y="-686.5" font-family="Helvetica,sans-Serif" font-size="10.00">+ moveDown()</text>
<text text-anchor="start" x="71.5" y="-675.5" font-family="Helvetica,sans-Serif" font-size="10.00">+ couldContain()</text>
<text text-anchor="start" x="71.5" y="-664.5" font-family="Helvetica,sans-Serif" font-size="10.00">+ begin()</text>
<text text-anchor="start" x="71.5" y="-653.5" font-family="Helvetica,sans-Serif" font-size="10.00">+ begin()</text>
<text text-anchor="start" x="71.5" y="-642.5" font-family="Helvetica,sans-Serif" font-size="10.00">+ end()</text>
<text text-anchor="start" x="71.5" y="-631.5" font-family="Helvetica,sans-Serif" font-size="10.00">+ end()</text>
<text text-anchor="start" x="71.5" y="-620.5" font-family="Helvetica,sans-Serif" font-size="10.00">+ rbegin()</text>
<text text-anchor="start" x="71.5" y="-609.5" font-family="Helvetica,sans-Serif" font-size="10.00">+ rbegin()</text>
<text text-anchor="start" x="71.5" y="-598.5" font-family="Helvetica,sans-Serif" font-size="10.00">+ rend()</text>
<text text-anchor="start" x="71.5" y="-587.5" font-family="Helvetica,sans-Serif" font-size="10.00">+ rend()</text>
<text text-anchor="start" x="71.5" y="-576.5" font-family="Helvetica,sans-Serif" font-size="10.00">+ getFirst()</text>
<text text-anchor="start" x="71.5" y="-565.5" font-family="Helvetica,sans-Serif" font-size="10.00">+ getLast()</text>
</a>
</g>
</g>
<!-- Node5&#45;&gt;Node3 -->
<g id="edge4" class="edge"><title>Node5&#45;&gt;Node3</title>
<path fill="none" stroke="#404040" d="M148.5,-558.273C148.5,-542.76 148.5,-527.066 148.5,-511.854"/>
<polygon fill="none" stroke="#404040" points="148.5,-511.771 144.5,-505.771 148.5,-499.771 152.5,-505.771 148.5,-511.771"/>
<text text-anchor="middle" x="175.5" y="-526.5" font-family="Helvetica,sans-Serif" font-size="10.00"> &#45;updatables</text>
</g>
<!-- Node5&#45;&gt;Node6 -->
<g id="edge7" class="edge"><title>Node5&#45;&gt;Node6</title>
<path fill="none" stroke="#404040" d="M146.316,-835.509C146.058,-849.19 145.785,-862.868 145.5,-876 145.265,-886.843 145,-898.124 144.723,-909.417"/>
<polygon fill="none" stroke="#404040" points="144.717,-909.66 148.566,-915.758 144.417,-921.656 140.568,-915.558 144.717,-909.66"/>
<text text-anchor="middle" x="173.5" y="-862.5" font-family="Helvetica,sans-Serif" font-size="10.00"> &#45;updatables</text>
</g>
<!-- Node6&#45;&gt;Node5 -->
<g id="edge5" class="edge"><title>Node6&#45;&gt;Node5</title>
<path fill="none" stroke="#404040" d="M127.355,-921.796C125.755,-906.463 124.384,-890.841 123.5,-876 122.952,-866.801 122.863,-857.355 123.134,-847.843"/>
<polygon fill="none" stroke="#404040" points="123.138,-847.76 119.405,-841.59 123.664,-835.771 127.397,-841.941 123.138,-847.76"/>
<text text-anchor="middle" x="134.5" y="-868" font-family="Helvetica,sans-Serif" font-size="10.00"> &#45;last</text>
<text text-anchor="middle" x="134.5" y="-857" font-family="Helvetica,sans-Serif" font-size="10.00">&#45;first</text>
</g>
<!-- Node7 -->
<g id="node7" class="node"><title>Node7</title>
<g id="a_node7"><a xlink:href="../../df/dc6/classAH_1_1IncrementDecrementButtons.html" target="_top" xlink:title="A class for buttons that increment and decrement some counter or setting.">
<polygon fill="white" stroke="black" points="227,-327 227,-461 384,-461 384,-327 227,-327"/>
<text text-anchor="middle" x="305.5" y="-449" font-family="Helvetica,sans-Serif" font-size="10.00">IncrementDecrementButtons</text>
<polyline fill="none" stroke="black" points="227,-442 384,-442 "/>
<text text-anchor="start" x="235" y="-430" font-family="Helvetica,sans-Serif" font-size="10.00">&#45; longPressState</text>
<text text-anchor="start" x="235" y="-419" font-family="Helvetica,sans-Serif" font-size="10.00">&#45; longPressRepeat</text>
<text text-anchor="start" x="235" y="-408" font-family="Helvetica,sans-Serif" font-size="10.00">&#45; state</text>
<polyline fill="none" stroke="black" points="227,-401 384,-401 "/>
<text text-anchor="start" x="235" y="-389" font-family="Helvetica,sans-Serif" font-size="10.00">+ IncrementDecrementButtons()</text>
<text text-anchor="start" x="235" y="-378" font-family="Helvetica,sans-Serif" font-size="10.00">+ begin()</text>
<text text-anchor="start" x="235" y="-367" font-family="Helvetica,sans-Serif" font-size="10.00">+ update()</text>
<text text-anchor="start" x="235" y="-356" font-family="Helvetica,sans-Serif" font-size="10.00">+ getState()</text>
<text text-anchor="start" x="235" y="-345" font-family="Helvetica,sans-Serif" font-size="10.00">+ invert()</text>
<text text-anchor="start" x="235" y="-334" font-family="Helvetica,sans-Serif" font-size="10.00"># updateImplementation()</text>
</a>
</g>
</g>
<!-- Node7&#45;&gt;Node2 -->
<g id="edge8" class="edge"><title>Node7&#45;&gt;Node2</title>
<path fill="none" stroke="#404040" d="M354.04,-326.702C371.55,-302.785 391.518,-275.512 409.868,-250.449"/>
<polygon fill="none" stroke="#404040" points="409.991,-250.28 410.308,-243.076 417.08,-240.598 416.763,-247.802 409.991,-250.28"/>
<text text-anchor="middle" x="422" y="-262" font-family="Helvetica,sans-Serif" font-size="10.00"> &#45;buttons</text>
</g>
<!-- Node8 -->
<g id="node8" class="node"><title>Node8</title>
<g id="a_node8"><a xlink:href="../../de/d0d/classAH_1_1Button.html" target="_top" xlink:title="A class for reading and debouncing buttons and switches.">
<polygon fill="white" stroke="black" points="252,-580.5 252,-813.5 375,-813.5 375,-580.5 252,-580.5"/>
<text text-anchor="middle" x="313.5" y="-801.5" font-family="Helvetica,sans-Serif" font-size="10.00">Button</text>
<polyline fill="none" stroke="black" points="252,-794.5 375,-794.5 "/>
<text text-anchor="start" x="260" y="-782.5" font-family="Helvetica,sans-Serif" font-size="10.00">&#45; pin</text>
<text text-anchor="start" x="260" y="-771.5" font-family="Helvetica,sans-Serif" font-size="10.00">&#45; prevInput</text>
<text text-anchor="start" x="260" y="-760.5" font-family="Helvetica,sans-Serif" font-size="10.00">&#45; debouncedState</text>
<text text-anchor="start" x="260" y="-749.5" font-family="Helvetica,sans-Serif" font-size="10.00">&#45; prevBounceTime</text>
<text text-anchor="start" x="260" y="-738.5" font-family="Helvetica,sans-Serif" font-size="10.00">&#45; invertState</text>
<text text-anchor="start" x="260" y="-727.5" font-family="Helvetica,sans-Serif" font-size="10.00">&#45; debounceTime</text>
<polyline fill="none" stroke="black" points="252,-720.5 375,-720.5 "/>
<text text-anchor="start" x="260" y="-708.5" font-family="Helvetica,sans-Serif" font-size="10.00">+ Button()</text>
<text text-anchor="start" x="260" y="-697.5" font-family="Helvetica,sans-Serif" font-size="10.00">+ Button()</text>
<text text-anchor="start" x="260" y="-686.5" font-family="Helvetica,sans-Serif" font-size="10.00">+ begin()</text>
<text text-anchor="start" x="260" y="-675.5" font-family="Helvetica,sans-Serif" font-size="10.00">+ invert()</text>
<text text-anchor="start" x="260" y="-664.5" font-family="Helvetica,sans-Serif" font-size="10.00">+ update()</text>
<text text-anchor="start" x="260" y="-653.5" font-family="Helvetica,sans-Serif" font-size="10.00">+ getState()</text>
<text text-anchor="start" x="260" y="-642.5" font-family="Helvetica,sans-Serif" font-size="10.00">+ previousBounceTime()</text>
<text text-anchor="start" x="260" y="-631.5" font-family="Helvetica,sans-Serif" font-size="10.00">+ stableTime()</text>
<text text-anchor="start" x="260" y="-620.5" font-family="Helvetica,sans-Serif" font-size="10.00">+ stableTime()</text>
<text text-anchor="start" x="260" y="-609.5" font-family="Helvetica,sans-Serif" font-size="10.00">+ getName()</text>
<text text-anchor="start" x="260" y="-598.5" font-family="Helvetica,sans-Serif" font-size="10.00">+ setDebounceTime()</text>
<text text-anchor="start" x="260" y="-587.5" font-family="Helvetica,sans-Serif" font-size="10.00">+ getDebounceTime()</text>
</a>
</g>
</g>
<!-- Node8&#45;&gt;Node7 -->
<g id="edge9" class="edge"><title>Node8&#45;&gt;Node7</title>
<path fill="none" stroke="#404040" d="M310.43,-580.486C309.477,-544.617 308.449,-505.94 307.579,-473.234"/>
<polygon fill="none" stroke="#404040" points="307.573,-473.005 303.415,-467.113 307.254,-461.009 311.412,-466.901 307.573,-473.005"/>
<text text-anchor="middle" x="350" y="-532" font-family="Helvetica,sans-Serif" font-size="10.00"> &#45;decrementButton</text>
<text text-anchor="middle" x="350" y="-521" font-family="Helvetica,sans-Serif" font-size="10.00">&#45;incrementButton</text>
</g>
<!-- Node9 -->
<g id="node9" class="node"><title>Node9</title>
<g id="a_node9"><a xlink:href="../../d3/dd0/classRelativeCCSender.html" target="_top" xlink:title=" ">
<polygon fill="white" stroke="black" points="402,-338 402,-450 537,-450 537,-338 402,-338"/>
<text text-anchor="middle" x="469.5" y="-438" font-family="Helvetica,sans-Serif" font-size="10.00">RelativeCCSender</text>
<polyline fill="none" stroke="black" points="402,-431 537,-431 "/>
<text text-anchor="start" x="410" y="-419" font-family="Helvetica,sans-Serif" font-size="10.00">&#45; mode</text>
<polyline fill="none" stroke="black" points="402,-412 537,-412 "/>
<text text-anchor="start" x="410" y="-400" font-family="Helvetica,sans-Serif" font-size="10.00">+ toTwosComplement7bit()</text>
<text text-anchor="start" x="410" y="-389" font-family="Helvetica,sans-Serif" font-size="10.00">+ toBinaryOffset7bit()</text>
<text text-anchor="start" x="410" y="-378" font-family="Helvetica,sans-Serif" font-size="10.00">+ toSignedMagnitude7bit()</text>
<text text-anchor="start" x="410" y="-367" font-family="Helvetica,sans-Serif" font-size="10.00">+ mapRelativeCC()</text>
<text text-anchor="start" x="410" y="-356" font-family="Helvetica,sans-Serif" font-size="10.00">+ send()</text>
<text text-anchor="start" x="410" y="-345" font-family="Helvetica,sans-Serif" font-size="10.00">+ setMode()</text>
</a>
</g>
</g>
<!-- Node9&#45;&gt;Node2 -->
<g id="edge10" class="edge"><title>Node9&#45;&gt;Node2</title>
<path fill="none" stroke="#404040" d="M469.5,-337.917C469.5,-312.3 469.5,-281.273 469.5,-252.837"/>
<polygon fill="none" stroke="#404040" points="469.5,-252.832 465.5,-246.832 469.5,-240.832 473.5,-246.832 469.5,-252.832"/>
<text text-anchor="middle" x="505.5" y="-262" font-family="Helvetica,sans-Serif" font-size="10.00"> +relativeSender</text>
</g>
<!-- Node10 -->
<g id="node10" class="node"><title>Node10</title>
<g id="a_node10"><a xlink:href="../../d3/df8/classBankable_1_1TwoSingleAddresses.html" target="_top" xlink:title=" ">
<polygon fill="white" stroke="black" points="555.5,-354.5 555.5,-433.5 679.5,-433.5 679.5,-354.5 555.5,-354.5"/>
<text text-anchor="middle" x="617.5" y="-421.5" font-family="Helvetica,sans-Serif" font-size="10.00">TwoSingleAddresses</text>
<polyline fill="none" stroke="black" points="555.5,-414.5 679.5,-414.5 "/>
<text text-anchor="middle" x="617.5" y="-402.5" font-family="Helvetica,sans-Serif" font-size="10.00"> </text>
<polyline fill="none" stroke="black" points="555.5,-395.5 679.5,-395.5 "/>
<text text-anchor="start" x="563.5" y="-383.5" font-family="Helvetica,sans-Serif" font-size="10.00">+ TwoSingleAddresses()</text>
<text text-anchor="start" x="563.5" y="-372.5" font-family="Helvetica,sans-Serif" font-size="10.00">+ getBaseAddress()</text>
<text text-anchor="start" x="563.5" y="-361.5" font-family="Helvetica,sans-Serif" font-size="10.00">+ getActiveAddress()</text>
</a>
</g>
</g>
<!-- Node10&#45;&gt;Node2 -->
<g id="edge11" class="edge"><title>Node10&#45;&gt;Node2</title>
<path fill="none" stroke="#404040" d="M599.353,-354.227C585.874,-326.784 566.29,-289.575 545.5,-259 543.559,-256.146 541.545,-253.278 539.473,-250.408"/>
<polygon fill="none" stroke="#404040" points="539.397,-250.306 532.609,-247.874 532.242,-240.672 539.031,-243.104 539.397,-250.306"/>
<text text-anchor="middle" x="578.5" y="-262" font-family="Helvetica,sans-Serif" font-size="10.00"> &#45;addresses</text>
</g>
<!-- Node11 -->
<g id="node11" class="node"><title>Node11</title>
<g id="a_node11"><a xlink:href="../../d3/d43/classBankableMIDIOutput.html" target="_top" xlink:title="A base class for all MIDIOutputElements that can be banked.">
<polygon fill="white" stroke="black" points="505,-657.5 505,-736.5 628,-736.5 628,-657.5 505,-657.5"/>
<text text-anchor="middle" x="566.5" y="-724.5" font-family="Helvetica,sans-Serif" font-size="10.00">BankableMIDIOutput</text>
<polyline fill="none" stroke="black" points="505,-717.5 628,-717.5 "/>
<text text-anchor="start" x="513" y="-705.5" font-family="Helvetica,sans-Serif" font-size="10.00">&#45; type</text>
<polyline fill="none" stroke="black" points="505,-698.5 628,-698.5 "/>
<text text-anchor="start" x="513" y="-686.5" font-family="Helvetica,sans-Serif" font-size="10.00">+ BankableMIDIOutput()</text>
<text text-anchor="start" x="513" y="-675.5" font-family="Helvetica,sans-Serif" font-size="10.00">+ BankableMIDIOutput()</text>
<text text-anchor="start" x="513" y="-664.5" font-family="Helvetica,sans-Serif" font-size="10.00">+ getAddressOffset()</text>
</a>
</g>
</g>
<!-- Node11&#45;&gt;Node10 -->
<g id="edge12" class="edge"><title>Node11&#45;&gt;Node10</title>
<path fill="none" stroke="midnightblue" d="M574.743,-647.348C584.835,-587.789 601.719,-488.139 610.962,-433.586"/>
<polygon fill="none" stroke="midnightblue" points="571.283,-646.822 573.063,-657.266 578.184,-647.991 571.283,-646.822"/>
</g>
<!-- Node12 -->
<g id="node12" class="node"><title>Node12</title>
<g id="a_node12"><a xlink:href="../../d4/d6e/classBankableMIDIOutput__Base.html" target="_top" xlink:title=" ">
<polygon fill="white" stroke="black" points="487.5,-971.5 487.5,-1083.5 637.5,-1083.5 637.5,-971.5 487.5,-971.5"/>
<text text-anchor="middle" x="562.5" y="-1071.5" font-family="Helvetica,sans-Serif" font-size="10.00">BankableMIDIOutput_Base</text>
<polyline fill="none" stroke="black" points="487.5,-1064.5 637.5,-1064.5 "/>
<text text-anchor="start" x="495.5" y="-1052.5" font-family="Helvetica,sans-Serif" font-size="10.00">&#45; lockedSetting</text>
<text text-anchor="start" x="495.5" y="-1041.5" font-family="Helvetica,sans-Serif" font-size="10.00">&#45; UNLOCKED</text>
<polyline fill="none" stroke="black" points="487.5,-1034.5 637.5,-1034.5 "/>
<text text-anchor="start" x="495.5" y="-1022.5" font-family="Helvetica,sans-Serif" font-size="10.00">+ getRawBankSetting()</text>
<text text-anchor="start" x="495.5" y="-1011.5" font-family="Helvetica,sans-Serif" font-size="10.00">+ getSelection()</text>
<text text-anchor="start" x="495.5" y="-1000.5" font-family="Helvetica,sans-Serif" font-size="10.00">+ lock()</text>
<text text-anchor="start" x="495.5" y="-989.5" font-family="Helvetica,sans-Serif" font-size="10.00">+ unlock()</text>
<text text-anchor="start" x="495.5" y="-978.5" font-family="Helvetica,sans-Serif" font-size="10.00"># BankableMIDIOutput_Base()</text>
</a>
</g>
</g>
<!-- Node12&#45;&gt;Node11 -->
<g id="edge13" class="edge"><title>Node12&#45;&gt;Node11</title>
<path fill="none" stroke="midnightblue" d="M563.296,-961.097C564.114,-893.972 565.358,-791.777 566.03,-736.591"/>
<polygon fill="none" stroke="midnightblue" points="559.796,-961.104 563.174,-971.146 566.796,-961.189 559.796,-961.104"/>
</g>
<!-- Node13 -->
<g id="node13" class="node"><title>Node13</title>
<g id="a_node13"><a xlink:href="../../d9/d36/classOutputBank.html" target="_top" xlink:title="A class for changing the address of BankableMIDIOutputs.">
<polygon fill="white" stroke="black" points="506,-1208.5 506,-1320.5 619,-1320.5 619,-1208.5 506,-1208.5"/>
<text text-anchor="middle" x="562.5" y="-1308.5" font-family="Helvetica,sans-Serif" font-size="10.00">OutputBank</text>
<polyline fill="none" stroke="black" points="506,-1301.5 619,-1301.5 "/>
<text text-anchor="start" x="514" y="-1289.5" font-family="Helvetica,sans-Serif" font-size="10.00">&#45; tracksPerBank</text>
<text text-anchor="start" x="514" y="-1278.5" font-family="Helvetica,sans-Serif" font-size="10.00">&#45; bankSetting</text>
<polyline fill="none" stroke="black" points="506,-1271.5 619,-1271.5 "/>
<text text-anchor="start" x="514" y="-1259.5" font-family="Helvetica,sans-Serif" font-size="10.00">+ OutputBank()</text>
<text text-anchor="start" x="514" y="-1248.5" font-family="Helvetica,sans-Serif" font-size="10.00">+ select()</text>
<text text-anchor="start" x="514" y="-1237.5" font-family="Helvetica,sans-Serif" font-size="10.00">+ getSelection()</text>
<text text-anchor="start" x="514" y="-1226.5" font-family="Helvetica,sans-Serif" font-size="10.00">+ getTracksPerBank()</text>
<text text-anchor="start" x="514" y="-1215.5" font-family="Helvetica,sans-Serif" font-size="10.00">+ getOffset()</text>
</a>
</g>
</g>
<!-- Node13&#45;&gt;Node12 -->
<g id="edge14" class="edge"><title>Node13&#45;&gt;Node12</title>
<path fill="none" stroke="#404040" d="M562.5,-1208.4C562.5,-1174.79 562.5,-1131.57 562.5,-1095.92"/>
<polygon fill="none" stroke="#404040" points="562.5,-1095.66 558.5,-1089.66 562.5,-1083.66 566.5,-1089.66 562.5,-1095.66"/>
<text text-anchor="middle" x="577.5" y="-1182" font-family="Helvetica,sans-Serif" font-size="10.00"> #bank</text>
</g>
<!-- Node14 -->
<g id="node14" class="node"><title>Node14</title>
<g id="a_node14"><a xlink:href="../../d0/d32/structAH_1_1Array.html" target="_top" xlink:title=" ">
<polygon fill="white" stroke="black" points="653,-613.5 653,-780.5 780,-780.5 780,-613.5 653,-613.5"/>
<text text-anchor="middle" x="716.5" y="-768.5" font-family="Helvetica,sans-Serif" font-size="10.00">Array&lt; MIDIAddress, 2 &gt;</text>
<polyline fill="none" stroke="black" points="653,-761.5 780,-761.5 "/>
<text text-anchor="start" x="661" y="-749.5" font-family="Helvetica,sans-Serif" font-size="10.00">+ length</text>
<polyline fill="none" stroke="black" points="653,-742.5 780,-742.5 "/>
<text text-anchor="start" x="661" y="-730.5" font-family="Helvetica,sans-Serif" font-size="10.00">+ operator[]()</text>
<text text-anchor="start" x="661" y="-719.5" font-family="Helvetica,sans-Serif" font-size="10.00">+ operator[]()</text>
<text text-anchor="start" x="661" y="-708.5" font-family="Helvetica,sans-Serif" font-size="10.00">+ begin()</text>
<text text-anchor="start" x="661" y="-697.5" font-family="Helvetica,sans-Serif" font-size="10.00">+ begin()</text>
<text text-anchor="start" x="661" y="-686.5" font-family="Helvetica,sans-Serif" font-size="10.00">+ end()</text>
<text text-anchor="start" x="661" y="-675.5" font-family="Helvetica,sans-Serif" font-size="10.00">+ end()</text>
<text text-anchor="start" x="661" y="-664.5" font-family="Helvetica,sans-Serif" font-size="10.00">+ operator==()</text>
<text text-anchor="start" x="661" y="-653.5" font-family="Helvetica,sans-Serif" font-size="10.00">+ operator!=()</text>
<text text-anchor="start" x="661" y="-642.5" font-family="Helvetica,sans-Serif" font-size="10.00">+ slice()</text>
<text text-anchor="start" x="661" y="-631.5" font-family="Helvetica,sans-Serif" font-size="10.00">+ slice()</text>
<text text-anchor="start" x="661" y="-620.5" font-family="Helvetica,sans-Serif" font-size="10.00">+ cslice()</text>
</a>
</g>
</g>
<!-- Node14&#45;&gt;Node10 -->
<g id="edge15" class="edge"><title>Node14&#45;&gt;Node10</title>
<path fill="none" stroke="#404040" d="M689.317,-613.352C671.571,-559.398 648.985,-490.728 633.927,-444.945"/>
<polygon fill="none" stroke="#404040" points="633.923,-444.933 628.249,-440.483 630.174,-433.534 635.848,-437.983 633.923,-444.933"/>
<text text-anchor="middle" x="690.5" y="-526.5" font-family="Helvetica,sans-Serif" font-size="10.00"> &#45;addresses</text>
</g>
<!-- Node15 -->
<g id="node15" class="node"><title>Node15</title>
<g id="a_node15"><a xlink:href="../../d7/d0f/classMIDIAddress.html" target="_top" xlink:title="A type&#45;safe utility class for saving a MIDI address consisting of a 7&#45;bit address,...">
<polygon fill="white" stroke="black" points="656,-894.5 656,-1160.5 785,-1160.5 785,-894.5 656,-894.5"/>
<text text-anchor="middle" x="720.5" y="-1148.5" font-family="Helvetica,sans-Serif" font-size="10.00">MIDIAddress</text>
<polyline fill="none" stroke="black" points="656,-1141.5 785,-1141.5 "/>
<text text-anchor="start" x="664" y="-1129.5" font-family="Helvetica,sans-Serif" font-size="10.00">&#45; addresses</text>
<polyline fill="none" stroke="black" points="656,-1122.5 785,-1122.5 "/>
<text text-anchor="start" x="664" y="-1110.5" font-family="Helvetica,sans-Serif" font-size="10.00">* MIDIAddress()</text>
<text text-anchor="start" x="664" y="-1099.5" font-family="Helvetica,sans-Serif" font-size="10.00">* MIDIAddress()</text>
<text text-anchor="start" x="664" y="-1088.5" font-family="Helvetica,sans-Serif" font-size="10.00">* MIDIAddress()</text>
<text text-anchor="start" x="664" y="-1077.5" font-family="Helvetica,sans-Serif" font-size="10.00">* MIDIAddress()</text>
<text text-anchor="start" x="664" y="-1066.5" font-family="Helvetica,sans-Serif" font-size="10.00">* MIDIAddress()</text>
<text text-anchor="start" x="664" y="-1055.5" font-family="Helvetica,sans-Serif" font-size="10.00">* invalid()</text>
<text text-anchor="start" x="664" y="-1044.5" font-family="Helvetica,sans-Serif" font-size="10.00">* operator+=()</text>
<text text-anchor="start" x="664" y="-1033.5" font-family="Helvetica,sans-Serif" font-size="10.00">* operator&#45;=()</text>
<text text-anchor="start" x="664" y="-1022.5" font-family="Helvetica,sans-Serif" font-size="10.00">* operator+()</text>
<text text-anchor="start" x="664" y="-1011.5" font-family="Helvetica,sans-Serif" font-size="10.00">* operator&#45;()</text>
<text text-anchor="start" x="664" y="-1000.5" font-family="Helvetica,sans-Serif" font-size="10.00">* getAddress()</text>
<text text-anchor="start" x="664" y="-989.5" font-family="Helvetica,sans-Serif" font-size="10.00">* getChannel()</text>
<text text-anchor="start" x="664" y="-978.5" font-family="Helvetica,sans-Serif" font-size="10.00">* getRawChannel()</text>
<text text-anchor="start" x="664" y="-967.5" font-family="Helvetica,sans-Serif" font-size="10.00">* getCableNumber()</text>
<text text-anchor="start" x="664" y="-956.5" font-family="Helvetica,sans-Serif" font-size="10.00">* operator==()</text>
<text text-anchor="start" x="664" y="-945.5" font-family="Helvetica,sans-Serif" font-size="10.00">* operator!=()</text>
<text text-anchor="start" x="664" y="-934.5" font-family="Helvetica,sans-Serif" font-size="10.00">* isValid()</text>
<text text-anchor="start" x="664" y="-923.5" font-family="Helvetica,sans-Serif" font-size="10.00">* operator bool()</text>
<text text-anchor="start" x="664" y="-912.5" font-family="Helvetica,sans-Serif" font-size="10.00">* matchSingle()</text>
<text text-anchor="start" x="664" y="-901.5" font-family="Helvetica,sans-Serif" font-size="10.00">* matchAddressInRange()</text>
</a>
</g>
</g>
<!-- Node15&#45;&gt;Node14 -->
<g id="edge16" class="edge"><title>Node15&#45;&gt;Node14</title>
<path fill="none" stroke="#404040" d="M718.89,-894.306C718.478,-860.467 718.043,-824.739 717.659,-793.174"/>
<polygon fill="none" stroke="#404040" points="717.655,-792.836 713.582,-786.886 717.509,-780.837 721.581,-786.788 717.655,-792.836"/>
<text text-anchor="middle" x="733.5" y="-862.5" font-family="Helvetica,sans-Serif" font-size="10.00"> +data</text>
</g>
<!-- Node16 -->
<g id="node16" class="node"><title>Node16</title>
<g id="a_node16"><a xlink:href="../../dc/dd4/classDigitalNoteSender.html" target="_top" xlink:title=" ">
<polygon fill="white" stroke="black" points="698,-343.5 698,-444.5 809,-444.5 809,-343.5 698,-343.5"/>
<text text-anchor="middle" x="753.5" y="-432.5" font-family="Helvetica,sans-Serif" font-size="10.00">DigitalNoteSender</text>
<polyline fill="none" stroke="black" points="698,-425.5 809,-425.5 "/>
<text text-anchor="start" x="706" y="-413.5" font-family="Helvetica,sans-Serif" font-size="10.00">&#45; velocity</text>
<polyline fill="none" stroke="black" points="698,-406.5 809,-406.5 "/>
<text text-anchor="start" x="706" y="-394.5" font-family="Helvetica,sans-Serif" font-size="10.00">+ DigitalNoteSender()</text>
<text text-anchor="start" x="706" y="-383.5" font-family="Helvetica,sans-Serif" font-size="10.00">+ sendOn()</text>
<text text-anchor="start" x="706" y="-372.5" font-family="Helvetica,sans-Serif" font-size="10.00">+ sendOff()</text>
<text text-anchor="start" x="706" y="-361.5" font-family="Helvetica,sans-Serif" font-size="10.00">+ setVelocity()</text>
<text text-anchor="start" x="706" y="-350.5" font-family="Helvetica,sans-Serif" font-size="10.00">+ getVelocity()</text>
</a>
</g>
</g>
<!-- Node16&#45;&gt;Node2 -->
<g id="edge17" class="edge"><title>Node16&#45;&gt;Node2</title>
<path fill="none" stroke="#404040" d="M729.868,-343.442C719.132,-324.489 705.095,-303.682 688.5,-288 658.644,-259.787 620.817,-236.134 585.035,-217.54"/>
<polygon fill="none" stroke="#404040" points="584.703,-217.371 577.542,-218.217 574.007,-211.932 581.168,-211.086 584.703,-217.371"/>
<text text-anchor="middle" x="694.5" y="-262" font-family="Helvetica,sans-Serif" font-size="10.00"> +resetSender</text>
</g>
</g>
</svg>
