<?xml version="1.0" encoding="UTF-8" standalone="no"?>
<!DOCTYPE svg PUBLIC "-//W3C//DTD SVG 1.1//EN"
 "http://www.w3.org/Graphics/SVG/1.1/DTD/svg11.dtd">
<!-- Generated by graphviz version 2.38.0 (20140413.2041)
 -->
<!-- Title: Bankable::CCIncrementDecrementButtons Pages: 1 -->
<svg width="855pt" height="1340pt"
 viewBox="0.00 0.00 855.00 1340.00" xmlns="http://www.w3.org/2000/svg" xmlns:xlink="http://www.w3.org/1999/xlink">
<g id="graph0" class="graph" transform="scale(1 1) rotate(0) translate(4 1336)">
<title>Bankable::CCIncrementDecrementButtons</title>
<polygon fill="white" stroke="none" points="-4,4 -4,-1336 851,-1336 851,4 -4,4"/>
<!-- Node1 -->
<g id="node1" class="node"><title>Node1</title>
<g id="a_node1"><a xlink:title="A class of MIDIOutputElements that read the input of two momentary push buttons to increment or decre...">
<polygon fill="#bfbfbf" stroke="black" points="391.5,-0.5 391.5,-68.5 563.5,-68.5 563.5,-0.5 391.5,-0.5"/>
<text text-anchor="start" x="399.5" y="-56.5" font-family="Helvetica,sans-Serif" font-size="10.00">Bankable::CCIncrementDecrement</text>
<text text-anchor="middle" x="477.5" y="-45.5" font-family="Helvetica,sans-Serif" font-size="10.00">Buttons</text>
<polyline fill="none" stroke="black" points="391.5,-38.5 563.5,-38.5 "/>
<text text-anchor="middle" x="477.5" y="-26.5" font-family="Helvetica,sans-Serif" font-size="10.00"> </text>
<polyline fill="none" stroke="black" points="391.5,-19.5 563.5,-19.5 "/>
<text text-anchor="start" x="399.5" y="-7.5" font-family="Helvetica,sans-Serif" font-size="10.00">+ CCIncrementDecrementButtons()</text>
</a>
</g>
</g>
<!-- Node2 -->
<g id="node2" class="node"><title>Node2</title>
<g id="a_node2"><a xlink:href="../../d1/d2f/classBankable_1_1MIDIIncrementDecrementButtons.html" target="_top" xlink:title=" ">
<polygon fill="white" stroke="black" points="379.5,-106.5 379.5,-251.5 575.5,-251.5 575.5,-106.5 379.5,-106.5"/>
<text text-anchor="start" x="387.5" y="-239.5" font-family="Helvetica,sans-Serif" font-size="10.00">Bankable::MIDIIncrementDecrement</text>
<text text-anchor="start" x="387.5" y="-228.5" font-family="Helvetica,sans-Serif" font-size="10.00">Buttons&lt; TwoSingleAddresses,</text>
<text text-anchor="middle" x="477.5" y="-217.5" font-family="Helvetica,sans-Serif" font-size="10.00"> RelativeCCSender, DigitalNoteSender &gt;</text>
<polyline fill="none" stroke="black" points="379.5,-210.5 575.5,-210.5 "/>
<text text-anchor="start" x="387.5" y="-198.5" font-family="Helvetica,sans-Serif" font-size="10.00">&#45; multiplier</text>
<polyline fill="none" stroke="black" points="379.5,-191.5 575.5,-191.5 "/>
<text text-anchor="start" x="387.5" y="-179.5" font-family="Helvetica,sans-Serif" font-size="10.00">+ begin()</text>
<text text-anchor="start" x="387.5" y="-168.5" font-family="Helvetica,sans-Serif" font-size="10.00">+ update()</text>
<text text-anchor="start" x="387.5" y="-157.5" font-family="Helvetica,sans-Serif" font-size="10.00">+ send()</text>
<text text-anchor="start" x="387.5" y="-146.5" font-family="Helvetica,sans-Serif" font-size="10.00">+ reset()</text>
<text text-anchor="start" x="387.5" y="-135.5" font-family="Helvetica,sans-Serif" font-size="10.00">+ invert()</text>
<text text-anchor="start" x="387.5" y="-124.5" font-family="Helvetica,sans-Serif" font-size="10.00">+ getButtonsState()</text>
<text text-anchor="start" x="387.5" y="-113.5" font-family="Helvetica,sans-Serif" font-size="10.00"># MIDIIncrementDecrementButtons()</text>
</a>
</g>
</g>
<!-- Node2&#45;&gt;Node1 -->
<g id="edge1" class="edge"><title>Node2&#45;&gt;Node1</title>
<path fill="none" stroke="midnightblue" d="M477.5,-96.1822C477.5,-86.5049 477.5,-77.0935 477.5,-68.6838"/>
<polygon fill="none" stroke="midnightblue" points="474,-96.3325 477.5,-106.333 481,-96.3326 474,-96.3325"/>
</g>
<!-- Node3 -->
<g id="node3" class="node"><title>Node3</title>
<g id="a_node3"><a xlink:href="../../d1/d55/classAH_1_1Updatable.html" target="_top" xlink:title=" ">
<polygon fill="white" stroke="black" points="100.5,-299.5 100.5,-510.5 204.5,-510.5 204.5,-299.5 100.5,-299.5"/>
<text text-anchor="middle" x="152.5" y="-498.5" font-family="Helvetica,sans-Serif" font-size="10.00">MIDIOutputElement</text>
<polyline fill="none" stroke="black" points="100.5,-491.5 204.5,-491.5 "/>
<text text-anchor="middle" x="152.5" y="-479.5" font-family="Helvetica,sans-Serif" font-size="10.00"> </text>
<polyline fill="none" stroke="black" points="100.5,-472.5 204.5,-472.5 "/>
<text text-anchor="start" x="108.5" y="-460.5" font-family="Helvetica,sans-Serif" font-size="10.00">+ ~Updatable()</text>
<text text-anchor="start" x="108.5" y="-449.5" font-family="Helvetica,sans-Serif" font-size="10.00">+ update()</text>
<text text-anchor="start" x="108.5" y="-438.5" font-family="Helvetica,sans-Serif" font-size="10.00">+ begin()</text>
<text text-anchor="start" x="108.5" y="-427.5" font-family="Helvetica,sans-Serif" font-size="10.00">+ enable()</text>
<text text-anchor="start" x="108.5" y="-416.5" font-family="Helvetica,sans-Serif" font-size="10.00">+ disable()</text>
<text text-anchor="start" x="108.5" y="-405.5" font-family="Helvetica,sans-Serif" font-size="10.00">+ isEnabled()</text>
<text text-anchor="start" x="108.5" y="-394.5" font-family="Helvetica,sans-Serif" font-size="10.00">+ enable()</text>
<text text-anchor="start" x="108.5" y="-383.5" font-family="Helvetica,sans-Serif" font-size="10.00">+ enable()</text>
<text text-anchor="start" x="108.5" y="-372.5" font-family="Helvetica,sans-Serif" font-size="10.00">+ enable()</text>
<text text-anchor="start" x="108.5" y="-361.5" font-family="Helvetica,sans-Serif" font-size="10.00">+ disable()</text>
<text text-anchor="start" x="108.5" y="-350.5" font-family="Helvetica,sans-Serif" font-size="10.00">+ disable()</text>
<text text-anchor="start" x="108.5" y="-339.5" font-family="Helvetica,sans-Serif" font-size="10.00">+ disable()</text>
<text text-anchor="start" x="108.5" y="-328.5" font-family="Helvetica,sans-Serif" font-size="10.00">+ beginAll()</text>
<text text-anchor="start" x="108.5" y="-317.5" font-family="Helvetica,sans-Serif" font-size="10.00">+ updateAll()</text>
<text text-anchor="start" x="108.5" y="-306.5" font-family="Helvetica,sans-Serif" font-size="10.00"># Updatable()</text>
</a>
</g>
</g>
<!-- Node3&#45;&gt;Node2 -->
<g id="edge2" class="edge"><title>Node3&#45;&gt;Node2</title>
<path fill="none" stroke="midnightblue" d="M211.608,-307.411C214.485,-304.464 217.45,-301.647 220.5,-299 266.45,-259.114 328.03,-229.982 379.392,-210.528"/>
<polygon fill="none" stroke="midnightblue" points="208.835,-305.256 204.64,-314.985 213.986,-309.995 208.835,-305.256"/>
</g>
<!-- Node4 -->
<g id="node4" class="node"><title>Node4</title>
<g id="a_node4"><a xlink:href="../../d4/d23/classDoublyLinkable.html" target="_top" xlink:title=" ">
<polygon fill="white" stroke="black" points="0,-1236 0,-1315 137,-1315 137,-1236 0,-1236"/>
<text text-anchor="start" x="8" y="-1303" font-family="Helvetica,sans-Serif" font-size="10.00">DoublyLinkable&lt; Updatable</text>
<text text-anchor="middle" x="68.5" y="-1292" font-family="Helvetica,sans-Serif" font-size="10.00">&lt; NormalUpdatable &gt; &gt;</text>
<polyline fill="none" stroke="black" points="0,-1285 137,-1285 "/>
<text text-anchor="start" x="8" y="-1273" font-family="Helvetica,sans-Serif" font-size="10.00"># next</text>
<text text-anchor="start" x="8" y="-1262" font-family="Helvetica,sans-Serif" font-size="10.00"># previous</text>
<polyline fill="none" stroke="black" points="0,-1255 137,-1255 "/>
<text text-anchor="start" x="8" y="-1243" font-family="Helvetica,sans-Serif" font-size="10.00"># ~DoublyLinkable()</text>
</a>
</g>
</g>
<!-- Node4&#45;&gt;Node3 -->
<g id="edge3" class="edge"><title>Node4&#45;&gt;Node3</title>
<path fill="none" stroke="midnightblue" d="M58.8588,-1225.73C37.7973,-1109.54 -5.52984,-808.201 58.5,-569 67.0737,-536.971 83.6255,-504.716 100.481,-477.45"/>
<polygon fill="none" stroke="midnightblue" points="55.4484,-1226.54 60.7014,-1235.74 62.3327,-1225.27 55.4484,-1226.54"/>
</g>
<!-- Node6 -->
<g id="node6" class="node"><title>Node6</title>
<g id="a_node6"><a xlink:href="../../d1/d55/classAH_1_1Updatable.html" target="_top" xlink:title=" ">
<polygon fill="white" stroke="black" points="68,-933 68,-1144 243,-1144 243,-933 68,-933"/>
<text text-anchor="middle" x="155.5" y="-1132" font-family="Helvetica,sans-Serif" font-size="10.00">AH::Updatable&lt; NormalUpdatable &gt;</text>
<polyline fill="none" stroke="black" points="68,-1125 243,-1125 "/>
<text text-anchor="middle" x="155.5" y="-1113" font-family="Helvetica,sans-Serif" font-size="10.00"> </text>
<polyline fill="none" stroke="black" points="68,-1106 243,-1106 "/>
<text text-anchor="start" x="76" y="-1094" font-family="Helvetica,sans-Serif" font-size="10.00">+ ~Updatable()</text>
<text text-anchor="start" x="76" y="-1083" font-family="Helvetica,sans-Serif" font-size="10.00">+ update()</text>
<text text-anchor="start" x="76" y="-1072" font-family="Helvetica,sans-Serif" font-size="10.00">+ begin()</text>
<text text-anchor="start" x="76" y="-1061" font-family="Helvetica,sans-Serif" font-size="10.00">+ enable()</text>
<text text-anchor="start" x="76" y="-1050" font-family="Helvetica,sans-Serif" font-size="10.00">+ disable()</text>
<text text-anchor="start" x="76" y="-1039" font-family="Helvetica,sans-Serif" font-size="10.00">+ isEnabled()</text>
<text text-anchor="start" x="76" y="-1028" font-family="Helvetica,sans-Serif" font-size="10.00">+ enable()</text>
<text text-anchor="start" x="76" y="-1017" font-family="Helvetica,sans-Serif" font-size="10.00">+ enable()</text>
<text text-anchor="start" x="76" y="-1006" font-family="Helvetica,sans-Serif" font-size="10.00">+ enable()</text>
<text text-anchor="start" x="76" y="-995" font-family="Helvetica,sans-Serif" font-size="10.00">+ disable()</text>
<text text-anchor="start" x="76" y="-984" font-family="Helvetica,sans-Serif" font-size="10.00">+ disable()</text>
<text text-anchor="start" x="76" y="-973" font-family="Helvetica,sans-Serif" font-size="10.00">+ disable()</text>
<text text-anchor="start" x="76" y="-962" font-family="Helvetica,sans-Serif" font-size="10.00">+ beginAll()</text>
<text text-anchor="start" x="76" y="-951" font-family="Helvetica,sans-Serif" font-size="10.00">+ updateAll()</text>
<text text-anchor="start" x="76" y="-940" font-family="Helvetica,sans-Serif" font-size="10.00"># Updatable()</text>
</a>
</g>
</g>
<!-- Node4&#45;&gt;Node6 -->
<g id="edge6" class="edge"><title>Node4&#45;&gt;Node6</title>
<path fill="none" stroke="midnightblue" d="M86.2786,-1226.48C95.0888,-1202.68 106.096,-1172.95 116.722,-1144.24"/>
<polygon fill="none" stroke="midnightblue" points="82.9585,-1225.36 82.7689,-1235.96 89.5231,-1227.79 82.9585,-1225.36"/>
</g>
<!-- Node5 -->
<g id="node5" class="node"><title>Node5</title>
<g id="a_node5"><a xlink:href="../../dd/d16/classDoublyLinkedList.html" target="_top" xlink:title=" ">
<polygon fill="white" stroke="black" points="67.5,-569.5 67.5,-846.5 237.5,-846.5 237.5,-569.5 67.5,-569.5"/>
<text text-anchor="start" x="75.5" y="-834.5" font-family="Helvetica,sans-Serif" font-size="10.00">DoublyLinkedList&lt; AH</text>
<text text-anchor="middle" x="152.5" y="-823.5" font-family="Helvetica,sans-Serif" font-size="10.00">::Updatable&lt; NormalUpdatable &gt; &gt;</text>
<polyline fill="none" stroke="black" points="67.5,-816.5 237.5,-816.5 "/>
<text text-anchor="middle" x="152.5" y="-804.5" font-family="Helvetica,sans-Serif" font-size="10.00"> </text>
<polyline fill="none" stroke="black" points="67.5,-797.5 237.5,-797.5 "/>
<text text-anchor="start" x="75.5" y="-785.5" font-family="Helvetica,sans-Serif" font-size="10.00">+ append()</text>
<text text-anchor="start" x="75.5" y="-774.5" font-family="Helvetica,sans-Serif" font-size="10.00">+ append()</text>
<text text-anchor="start" x="75.5" y="-763.5" font-family="Helvetica,sans-Serif" font-size="10.00">+ insertBefore()</text>
<text text-anchor="start" x="75.5" y="-752.5" font-family="Helvetica,sans-Serif" font-size="10.00">+ insertBefore()</text>
<text text-anchor="start" x="75.5" y="-741.5" font-family="Helvetica,sans-Serif" font-size="10.00">+ insertSorted()</text>
<text text-anchor="start" x="75.5" y="-730.5" font-family="Helvetica,sans-Serif" font-size="10.00">+ insertSorted()</text>
<text text-anchor="start" x="75.5" y="-719.5" font-family="Helvetica,sans-Serif" font-size="10.00">+ remove()</text>
<text text-anchor="start" x="75.5" y="-708.5" font-family="Helvetica,sans-Serif" font-size="10.00">+ remove()</text>
<text text-anchor="start" x="75.5" y="-697.5" font-family="Helvetica,sans-Serif" font-size="10.00">+ moveDown()</text>
<text text-anchor="start" x="75.5" y="-686.5" font-family="Helvetica,sans-Serif" font-size="10.00">+ couldContain()</text>
<text text-anchor="start" x="75.5" y="-675.5" font-family="Helvetica,sans-Serif" font-size="10.00">+ begin()</text>
<text text-anchor="start" x="75.5" y="-664.5" font-family="Helvetica,sans-Serif" font-size="10.00">+ begin()</text>
<text text-anchor="start" x="75.5" y="-653.5" font-family="Helvetica,sans-Serif" font-size="10.00">+ end()</text>
<text text-anchor="start" x="75.5" y="-642.5" font-family="Helvetica,sans-Serif" font-size="10.00">+ end()</text>
<text text-anchor="start" x="75.5" y="-631.5" font-family="Helvetica,sans-Serif" font-size="10.00">+ rbegin()</text>
<text text-anchor="start" x="75.5" y="-620.5" font-family="Helvetica,sans-Serif" font-size="10.00">+ rbegin()</text>
<text text-anchor="start" x="75.5" y="-609.5" font-family="Helvetica,sans-Serif" font-size="10.00">+ rend()</text>
<text text-anchor="start" x="75.5" y="-598.5" font-family="Helvetica,sans-Serif" font-size="10.00">+ rend()</text>
<text text-anchor="start" x="75.5" y="-587.5" font-family="Helvetica,sans-Serif" font-size="10.00">+ getFirst()</text>
<text text-anchor="start" x="75.5" y="-576.5" font-family="Helvetica,sans-Serif" font-size="10.00">+ getLast()</text>
</a>
</g>
</g>
<!-- Node5&#45;&gt;Node3 -->
<g id="edge4" class="edge"><title>Node5&#45;&gt;Node3</title>
<path fill="none" stroke="#404040" d="M152.5,-569.273C152.5,-553.76 152.5,-538.066 152.5,-522.854"/>
<polygon fill="none" stroke="#404040" points="152.5,-522.771 148.5,-516.771 152.5,-510.771 156.5,-516.771 152.5,-522.771"/>
<text text-anchor="middle" x="179.5" y="-537.5" font-family="Helvetica,sans-Serif" font-size="10.00"> &#45;updatables</text>
</g>
<!-- Node5&#45;&gt;Node6 -->
<g id="edge7" class="edge"><title>Node5&#45;&gt;Node6</title>
<path fill="none" stroke="#404040" d="M154.319,-846.806C154.384,-852.955 154.445,-859.041 154.5,-865 154.667,-882.933 154.81,-901.915 154.932,-920.474"/>
<polygon fill="none" stroke="#404040" points="154.933,-920.594 158.971,-926.569 155.01,-932.594 150.971,-926.62 154.933,-920.594"/>
<text text-anchor="middle" x="182.5" y="-873.5" font-family="Helvetica,sans-Serif" font-size="10.00"> &#45;updatables</text>
</g>
<!-- Node6&#45;&gt;Node5 -->
<g id="edge5" class="edge"><title>Node6&#45;&gt;Node5</title>
<path fill="none" stroke="#404040" d="M137.428,-932.887C135.384,-917.54 133.631,-901.891 132.5,-887 131.804,-877.843 131.535,-868.43 131.604,-858.942"/>
<polygon fill="none" stroke="#404040" points="131.605,-858.894 127.735,-852.809 131.864,-846.897 135.734,-852.982 131.605,-858.894"/>
<text text-anchor="middle" x="143.5" y="-879" font-family="Helvetica,sans-Serif" font-size="10.00"> &#45;last</text>
<text text-anchor="middle" x="143.5" y="-868" font-family="Helvetica,sans-Serif" font-size="10.00">&#45;first</text>
</g>
<!-- Node7 -->
<g id="node7" class="node"><title>Node7</title>
<g id="a_node7"><a xlink:href="../../df/dc6/classAH_1_1IncrementDecrementButtons.html" target="_top" xlink:title="A class for buttons that increment and decrement some counter or setting.">
<polygon fill="white" stroke="black" points="229.5,-338 229.5,-472 391.5,-472 391.5,-338 229.5,-338"/>
<text text-anchor="middle" x="310.5" y="-460" font-family="Helvetica,sans-Serif" font-size="10.00">AH::IncrementDecrementButtons</text>
<polyline fill="none" stroke="black" points="229.5,-453 391.5,-453 "/>
<text text-anchor="start" x="237.5" y="-441" font-family="Helvetica,sans-Serif" font-size="10.00">&#45; longPressState</text>
<text text-anchor="start" x="237.5" y="-430" font-family="Helvetica,sans-Serif" font-size="10.00">&#45; longPressRepeat</text>
<text text-anchor="start" x="237.5" y="-419" font-family="Helvetica,sans-Serif" font-size="10.00">&#45; state</text>
<polyline fill="none" stroke="black" points="229.5,-412 391.5,-412 "/>
<text text-anchor="start" x="237.5" y="-400" font-family="Helvetica,sans-Serif" font-size="10.00">+ IncrementDecrementButtons()</text>
<text text-anchor="start" x="237.5" y="-389" font-family="Helvetica,sans-Serif" font-size="10.00">+ begin()</text>
<text text-anchor="start" x="237.5" y="-378" font-family="Helvetica,sans-Serif" font-size="10.00">+ update()</text>
<text text-anchor="start" x="237.5" y="-367" font-family="Helvetica,sans-Serif" font-size="10.00">+ getState()</text>
<text text-anchor="start" x="237.5" y="-356" font-family="Helvetica,sans-Serif" font-size="10.00">+ invert()</text>
<text text-anchor="start" x="237.5" y="-345" font-family="Helvetica,sans-Serif" font-size="10.00"># updateImplementation()</text>
</a>
</g>
</g>
<!-- Node7&#45;&gt;Node2 -->
<g id="edge8" class="edge"><title>Node7&#45;&gt;Node2</title>
<path fill="none" stroke="#404040" d="M359.928,-337.702C377.759,-313.785 398.092,-286.512 416.777,-261.449"/>
<polygon fill="none" stroke="#404040" points="416.949,-261.219 417.328,-254.018 424.121,-251.598 423.742,-258.799 416.949,-261.219"/>
<text text-anchor="middle" x="429" y="-273" font-family="Helvetica,sans-Serif" font-size="10.00"> &#45;buttons</text>
</g>
<!-- Node8 -->
<g id="node8" class="node"><title>Node8</title>
<g id="a_node8"><a xlink:href="../../de/d0d/classAH_1_1Button.html" target="_top" xlink:title="A class for reading and debouncing buttons and switches.">
<polygon fill="white" stroke="black" points="256,-602.5 256,-813.5 379,-813.5 379,-602.5 256,-602.5"/>
<text text-anchor="middle" x="317.5" y="-801.5" font-family="Helvetica,sans-Serif" font-size="10.00">AH::Button</text>
<polyline fill="none" stroke="black" points="256,-794.5 379,-794.5 "/>
<text text-anchor="start" x="264" y="-782.5" font-family="Helvetica,sans-Serif" font-size="10.00">&#45; pin</text>
<text text-anchor="start" x="264" y="-771.5" font-family="Helvetica,sans-Serif" font-size="10.00">&#45; prevInput</text>
<text text-anchor="start" x="264" y="-760.5" font-family="Helvetica,sans-Serif" font-size="10.00">&#45; debouncedState</text>
<text text-anchor="start" x="264" y="-749.5" font-family="Helvetica,sans-Serif" font-size="10.00">&#45; prevBounceTime</text>
<text text-anchor="start" x="264" y="-738.5" font-family="Helvetica,sans-Serif" font-size="10.00">&#45; invertState</text>
<text text-anchor="start" x="264" y="-727.5" font-family="Helvetica,sans-Serif" font-size="10.00">&#45; debounceTime</text>
<polyline fill="none" stroke="black" points="256,-720.5 379,-720.5 "/>
<text text-anchor="start" x="264" y="-708.5" font-family="Helvetica,sans-Serif" font-size="10.00">+ Button()</text>
<text text-anchor="start" x="264" y="-697.5" font-family="Helvetica,sans-Serif" font-size="10.00">+ Button()</text>
<text text-anchor="start" x="264" y="-686.5" font-family="Helvetica,sans-Serif" font-size="10.00">+ begin()</text>
<text text-anchor="start" x="264" y="-675.5" font-family="Helvetica,sans-Serif" font-size="10.00">+ invert()</text>
<text text-anchor="start" x="264" y="-664.5" font-family="Helvetica,sans-Serif" font-size="10.00">+ update()</text>
<text text-anchor="start" x="264" y="-653.5" font-family="Helvetica,sans-Serif" font-size="10.00">+ getState()</text>
<text text-anchor="start" x="264" y="-642.5" font-family="Helvetica,sans-Serif" font-size="10.00">+ previousBounceTime()</text>
<text text-anchor="start" x="264" y="-631.5" font-family="Helvetica,sans-Serif" font-size="10.00">+ stableTime()</text>
<text text-anchor="start" x="264" y="-620.5" font-family="Helvetica,sans-Serif" font-size="10.00">+ stableTime()</text>
<text text-anchor="start" x="264" y="-609.5" font-family="Helvetica,sans-Serif" font-size="10.00">+ getName()</text>
</a>
</g>
</g>
<!-- Node8&#45;&gt;Node7 -->
<g id="edge9" class="edge"><title>Node8&#45;&gt;Node7</title>
<path fill="none" stroke="#404040" d="M315.062,-602.147C314.165,-563.598 313.166,-520.635 312.332,-484.767"/>
<polygon fill="none" stroke="#404040" points="312.323,-484.392 308.185,-478.486 312.044,-472.395 316.183,-478.3 312.323,-484.392"/>
<text text-anchor="middle" x="355" y="-543" font-family="Helvetica,sans-Serif" font-size="10.00"> &#45;decrementButton</text>
<text text-anchor="middle" x="355" y="-532" font-family="Helvetica,sans-Serif" font-size="10.00">&#45;incrementButton</text>
</g>
<!-- Node9 -->
<g id="node9" class="node"><title>Node9</title>
<g id="a_node9"><a xlink:href="../../d3/dd0/classRelativeCCSender.html" target="_top" xlink:title=" ">
<polygon fill="white" stroke="black" points="410,-349 410,-461 545,-461 545,-349 410,-349"/>
<text text-anchor="middle" x="477.5" y="-449" font-family="Helvetica,sans-Serif" font-size="10.00">RelativeCCSender</text>
<polyline fill="none" stroke="black" points="410,-442 545,-442 "/>
<text text-anchor="start" x="418" y="-430" font-family="Helvetica,sans-Serif" font-size="10.00">&#45; mode</text>
<polyline fill="none" stroke="black" points="410,-423 545,-423 "/>
<text text-anchor="start" x="418" y="-411" font-family="Helvetica,sans-Serif" font-size="10.00">+ toTwosComplement7bit()</text>
<text text-anchor="start" x="418" y="-400" font-family="Helvetica,sans-Serif" font-size="10.00">+ toBinaryOffset7bit()</text>
<text text-anchor="start" x="418" y="-389" font-family="Helvetica,sans-Serif" font-size="10.00">+ toSignedMagnitude7bit()</text>
<text text-anchor="start" x="418" y="-378" font-family="Helvetica,sans-Serif" font-size="10.00">+ mapRelativeCC()</text>
<text text-anchor="start" x="418" y="-367" font-family="Helvetica,sans-Serif" font-size="10.00">+ send()</text>
<text text-anchor="start" x="418" y="-356" font-family="Helvetica,sans-Serif" font-size="10.00">+ setMode()</text>
</a>
</g>
</g>
<!-- Node9&#45;&gt;Node2 -->
<g id="edge10" class="edge"><title>Node9&#45;&gt;Node2</title>
<path fill="none" stroke="#404040" d="M477.5,-348.917C477.5,-323.3 477.5,-292.273 477.5,-263.837"/>
<polygon fill="none" stroke="#404040" points="477.5,-263.832 473.5,-257.832 477.5,-251.832 481.5,-257.832 477.5,-263.832"/>
<text text-anchor="middle" x="513.5" y="-273" font-family="Helvetica,sans-Serif" font-size="10.00"> +relativeSender</text>
</g>
<!-- Node10 -->
<g id="node10" class="node"><title>Node10</title>
<g id="a_node10"><a xlink:href="../../d3/df8/classBankable_1_1TwoSingleAddresses.html" target="_top" xlink:title=" ">
<polygon fill="white" stroke="black" points="563,-365.5 563,-444.5 718,-444.5 718,-365.5 563,-365.5"/>
<text text-anchor="middle" x="640.5" y="-432.5" font-family="Helvetica,sans-Serif" font-size="10.00">Bankable::TwoSingleAddresses</text>
<polyline fill="none" stroke="black" points="563,-425.5 718,-425.5 "/>
<text text-anchor="middle" x="640.5" y="-413.5" font-family="Helvetica,sans-Serif" font-size="10.00"> </text>
<polyline fill="none" stroke="black" points="563,-406.5 718,-406.5 "/>
<text text-anchor="start" x="571" y="-394.5" font-family="Helvetica,sans-Serif" font-size="10.00">+ TwoSingleAddresses()</text>
<text text-anchor="start" x="571" y="-383.5" font-family="Helvetica,sans-Serif" font-size="10.00">+ getBaseAddress()</text>
<text text-anchor="start" x="571" y="-372.5" font-family="Helvetica,sans-Serif" font-size="10.00">+ getActiveAddress()</text>
</a>
</g>
</g>
<!-- Node10&#45;&gt;Node2 -->
<g id="edge11" class="edge"><title>Node10&#45;&gt;Node2</title>
<path fill="none" stroke="#404040" d="M617.175,-365.308C600.324,-338.068 576.563,-301.069 553.5,-270 551.315,-267.057 549.064,-264.085 546.767,-261.102"/>
<polygon fill="none" stroke="#404040" points="546.695,-261.011 539.846,-258.754 539.294,-251.564 546.143,-253.821 546.695,-261.011"/>
<text text-anchor="middle" x="587.5" y="-273" font-family="Helvetica,sans-Serif" font-size="10.00"> &#45;addresses</text>
</g>
<!-- Node11 -->
<g id="node11" class="node"><title>Node11</title>
<g id="a_node11"><a xlink:href="../../d3/d43/classBankableMIDIOutput.html" target="_top" xlink:title="A base class for all MIDIOutputElements that can be banked.">
<polygon fill="white" stroke="black" points="527,-668.5 527,-747.5 650,-747.5 650,-668.5 527,-668.5"/>
<text text-anchor="middle" x="588.5" y="-735.5" font-family="Helvetica,sans-Serif" font-size="10.00">BankableMIDIOutput</text>
<polyline fill="none" stroke="black" points="527,-728.5 650,-728.5 "/>
<text text-anchor="start" x="535" y="-716.5" font-family="Helvetica,sans-Serif" font-size="10.00">&#45; type</text>
<polyline fill="none" stroke="black" points="527,-709.5 650,-709.5 "/>
<text text-anchor="start" x="535" y="-697.5" font-family="Helvetica,sans-Serif" font-size="10.00">+ BankableMIDIOutput()</text>
<text text-anchor="start" x="535" y="-686.5" font-family="Helvetica,sans-Serif" font-size="10.00">+ BankableMIDIOutput()</text>
<text text-anchor="start" x="535" y="-675.5" font-family="Helvetica,sans-Serif" font-size="10.00">+ getAddressOffset()</text>
</a>
</g>
</g>
<!-- Node11&#45;&gt;Node10 -->
<g id="edge12" class="edge"><title>Node11&#45;&gt;Node10</title>
<path fill="none" stroke="midnightblue" d="M596.905,-658.348C607.194,-598.789 624.41,-499.139 633.834,-444.586"/>
<polygon fill="none" stroke="midnightblue" points="593.445,-657.816 595.192,-668.266 600.343,-659.008 593.445,-657.816"/>
</g>
<!-- Node12 -->
<g id="node12" class="node"><title>Node12</title>
<g id="a_node12"><a xlink:href="../../d4/d6e/classBankableMIDIOutput__Base.html" target="_top" xlink:title=" ">
<polygon fill="white" stroke="black" points="510.5,-982.5 510.5,-1094.5 660.5,-1094.5 660.5,-982.5 510.5,-982.5"/>
<text text-anchor="middle" x="585.5" y="-1082.5" font-family="Helvetica,sans-Serif" font-size="10.00">BankableMIDIOutput_Base</text>
<polyline fill="none" stroke="black" points="510.5,-1075.5 660.5,-1075.5 "/>
<text text-anchor="start" x="518.5" y="-1063.5" font-family="Helvetica,sans-Serif" font-size="10.00">&#45; lockedSetting</text>
<text text-anchor="start" x="518.5" y="-1052.5" font-family="Helvetica,sans-Serif" font-size="10.00">&#45; UNLOCKED</text>
<polyline fill="none" stroke="black" points="510.5,-1045.5 660.5,-1045.5 "/>
<text text-anchor="start" x="518.5" y="-1033.5" font-family="Helvetica,sans-Serif" font-size="10.00">+ getRawBankSetting()</text>
<text text-anchor="start" x="518.5" y="-1022.5" font-family="Helvetica,sans-Serif" font-size="10.00">+ getSelection()</text>
<text text-anchor="start" x="518.5" y="-1011.5" font-family="Helvetica,sans-Serif" font-size="10.00">+ lock()</text>
<text text-anchor="start" x="518.5" y="-1000.5" font-family="Helvetica,sans-Serif" font-size="10.00">+ unlock()</text>
<text text-anchor="start" x="518.5" y="-989.5" font-family="Helvetica,sans-Serif" font-size="10.00"># BankableMIDIOutput_Base()</text>
</a>
</g>
</g>
<!-- Node12&#45;&gt;Node11 -->
<g id="edge13" class="edge"><title>Node12&#45;&gt;Node11</title>
<path fill="none" stroke="midnightblue" d="M586.097,-972.097C586.71,-904.972 587.644,-802.777 588.148,-747.591"/>
<polygon fill="none" stroke="midnightblue" points="582.597,-972.114 586.006,-982.146 589.597,-972.178 582.597,-972.114"/>
</g>
<!-- Node13 -->
<g id="node13" class="node"><title>Node13</title>
<g id="a_node13"><a xlink:href="../../d9/d36/classOutputBank.html" target="_top" xlink:title="A class for changing the address of BankableMIDIOutputs.">
<polygon fill="white" stroke="black" points="529,-1219.5 529,-1331.5 642,-1331.5 642,-1219.5 529,-1219.5"/>
<text text-anchor="middle" x="585.5" y="-1319.5" font-family="Helvetica,sans-Serif" font-size="10.00">OutputBank</text>
<polyline fill="none" stroke="black" points="529,-1312.5 642,-1312.5 "/>
<text text-anchor="start" x="537" y="-1300.5" font-family="Helvetica,sans-Serif" font-size="10.00">&#45; tracksPerBank</text>
<text text-anchor="start" x="537" y="-1289.5" font-family="Helvetica,sans-Serif" font-size="10.00">&#45; bankSetting</text>
<polyline fill="none" stroke="black" points="529,-1282.5 642,-1282.5 "/>
<text text-anchor="start" x="537" y="-1270.5" font-family="Helvetica,sans-Serif" font-size="10.00">+ OutputBank()</text>
<text text-anchor="start" x="537" y="-1259.5" font-family="Helvetica,sans-Serif" font-size="10.00">+ select()</text>
<text text-anchor="start" x="537" y="-1248.5" font-family="Helvetica,sans-Serif" font-size="10.00">+ getSelection()</text>
<text text-anchor="start" x="537" y="-1237.5" font-family="Helvetica,sans-Serif" font-size="10.00">+ getTracksPerBank()</text>
<text text-anchor="start" x="537" y="-1226.5" font-family="Helvetica,sans-Serif" font-size="10.00">+ getOffset()</text>
</a>
</g>
</g>
<!-- Node13&#45;&gt;Node12 -->
<g id="edge14" class="edge"><title>Node13&#45;&gt;Node12</title>
<path fill="none" stroke="#404040" d="M585.5,-1219.4C585.5,-1185.79 585.5,-1142.57 585.5,-1106.92"/>
<polygon fill="none" stroke="#404040" points="585.5,-1106.66 581.5,-1100.66 585.5,-1094.66 589.5,-1100.66 585.5,-1106.66"/>
<text text-anchor="middle" x="600.5" y="-1193" font-family="Helvetica,sans-Serif" font-size="10.00"> #bank</text>
</g>
<!-- Node14 -->
<g id="node14" class="node"><title>Node14</title>
<g id="a_node14"><a xlink:href="../../d0/d32/structAH_1_1Array.html" target="_top" xlink:title=" ">
<polygon fill="white" stroke="black" points="674.5,-619 674.5,-797 816.5,-797 816.5,-619 674.5,-619"/>
<text text-anchor="start" x="682.5" y="-785" font-family="Helvetica,sans-Serif" font-size="10.00">AH::Array&lt; MIDICNChannel</text>
<text text-anchor="middle" x="745.5" y="-774" font-family="Helvetica,sans-Serif" font-size="10.00">Address, 2 &gt;</text>
<polyline fill="none" stroke="black" points="674.5,-767 816.5,-767 "/>
<text text-anchor="start" x="682.5" y="-755" font-family="Helvetica,sans-Serif" font-size="10.00">+ length</text>
<polyline fill="none" stroke="black" points="674.5,-748 816.5,-748 "/>
<text text-anchor="start" x="682.5" y="-736" font-family="Helvetica,sans-Serif" font-size="10.00">+ operator[]()</text>
<text text-anchor="start" x="682.5" y="-725" font-family="Helvetica,sans-Serif" font-size="10.00">+ operator[]()</text>
<text text-anchor="start" x="682.5" y="-714" font-family="Helvetica,sans-Serif" font-size="10.00">+ begin()</text>
<text text-anchor="start" x="682.5" y="-703" font-family="Helvetica,sans-Serif" font-size="10.00">+ begin()</text>
<text text-anchor="start" x="682.5" y="-692" font-family="Helvetica,sans-Serif" font-size="10.00">+ end()</text>
<text text-anchor="start" x="682.5" y="-681" font-family="Helvetica,sans-Serif" font-size="10.00">+ end()</text>
<text text-anchor="start" x="682.5" y="-670" font-family="Helvetica,sans-Serif" font-size="10.00">+ operator==()</text>
<text text-anchor="start" x="682.5" y="-659" font-family="Helvetica,sans-Serif" font-size="10.00">+ operator!=()</text>
<text text-anchor="start" x="682.5" y="-648" font-family="Helvetica,sans-Serif" font-size="10.00">+ slice()</text>
<text text-anchor="start" x="682.5" y="-637" font-family="Helvetica,sans-Serif" font-size="10.00">+ slice()</text>
<text text-anchor="start" x="682.5" y="-626" font-family="Helvetica,sans-Serif" font-size="10.00">+ cslice()</text>
</a>
</g>
</g>
<!-- Node14&#45;&gt;Node10 -->
<g id="edge15" class="edge"><title>Node14&#45;&gt;Node10</title>
<path fill="none" stroke="#404040" d="M714.706,-618.724C696.248,-565.81 673.444,-500.441 658.025,-456.238"/>
<polygon fill="none" stroke="#404040" points="657.932,-455.971 652.179,-451.623 653.979,-444.64 659.732,-448.988 657.932,-455.971"/>
<text text-anchor="middle" x="716.5" y="-537.5" font-family="Helvetica,sans-Serif" font-size="10.00"> &#45;addresses</text>
</g>
<!-- Node15 -->
<g id="node15" class="node"><title>Node15</title>
<g id="a_node15"><a xlink:href="../../d3/d10/classMIDICNChannelAddress.html" target="_top" xlink:title="A type&#45;safe utility class for saving a MIDI address consisting of a 7&#45;bit address,...">
<polygon fill="white" stroke="black" points="678.5,-905.5 678.5,-1171.5 818.5,-1171.5 818.5,-905.5 678.5,-905.5"/>
<text text-anchor="middle" x="748.5" y="-1159.5" font-family="Helvetica,sans-Serif" font-size="10.00">MIDICNChannelAddress</text>
<polyline fill="none" stroke="black" points="678.5,-1152.5 818.5,-1152.5 "/>
<text text-anchor="start" x="686.5" y="-1140.5" font-family="Helvetica,sans-Serif" font-size="10.00">&#45; addresses</text>
<polyline fill="none" stroke="black" points="678.5,-1133.5 818.5,-1133.5 "/>
<text text-anchor="start" x="686.5" y="-1121.5" font-family="Helvetica,sans-Serif" font-size="10.00">+ MIDICNChannelAddress()</text>
<text text-anchor="start" x="686.5" y="-1110.5" font-family="Helvetica,sans-Serif" font-size="10.00">+ MIDICNChannelAddress()</text>
<text text-anchor="start" x="686.5" y="-1099.5" font-family="Helvetica,sans-Serif" font-size="10.00">+ MIDICNChannelAddress()</text>
<text text-anchor="start" x="686.5" y="-1088.5" font-family="Helvetica,sans-Serif" font-size="10.00">+ MIDICNChannelAddress()</text>
<text text-anchor="start" x="686.5" y="-1077.5" font-family="Helvetica,sans-Serif" font-size="10.00">+ MIDICNChannelAddress()</text>
<text text-anchor="start" x="686.5" y="-1066.5" font-family="Helvetica,sans-Serif" font-size="10.00">+ operator+=()</text>
<text text-anchor="start" x="686.5" y="-1055.5" font-family="Helvetica,sans-Serif" font-size="10.00">+ operator&#45;=()</text>
<text text-anchor="start" x="686.5" y="-1044.5" font-family="Helvetica,sans-Serif" font-size="10.00">+ operator+()</text>
<text text-anchor="start" x="686.5" y="-1033.5" font-family="Helvetica,sans-Serif" font-size="10.00">+ operator&#45;()</text>
<text text-anchor="start" x="686.5" y="-1022.5" font-family="Helvetica,sans-Serif" font-size="10.00">+ operator==()</text>
<text text-anchor="start" x="686.5" y="-1011.5" font-family="Helvetica,sans-Serif" font-size="10.00">+ operator!=()</text>
<text text-anchor="start" x="686.5" y="-1000.5" font-family="Helvetica,sans-Serif" font-size="10.00">+ getAddress()</text>
<text text-anchor="start" x="686.5" y="-989.5" font-family="Helvetica,sans-Serif" font-size="10.00">+ getChannel()</text>
<text text-anchor="start" x="686.5" y="-978.5" font-family="Helvetica,sans-Serif" font-size="10.00">+ getRawChannel()</text>
<text text-anchor="start" x="686.5" y="-967.5" font-family="Helvetica,sans-Serif" font-size="10.00">+ getCableNumber()</text>
<text text-anchor="start" x="686.5" y="-956.5" font-family="Helvetica,sans-Serif" font-size="10.00">+ isValid()</text>
<text text-anchor="start" x="686.5" y="-945.5" font-family="Helvetica,sans-Serif" font-size="10.00">+ operator bool()</text>
<text text-anchor="start" x="686.5" y="-934.5" font-family="Helvetica,sans-Serif" font-size="10.00">+ matchSingle()</text>
<text text-anchor="start" x="686.5" y="-923.5" font-family="Helvetica,sans-Serif" font-size="10.00">+ matchAddressInRange()</text>
<text text-anchor="start" x="686.5" y="-912.5" font-family="Helvetica,sans-Serif" font-size="10.00">+ invalid()</text>
</a>
</g>
</g>
<!-- Node15&#45;&gt;Node14 -->
<g id="edge16" class="edge"><title>Node15&#45;&gt;Node14</title>
<path fill="none" stroke="#404040" d="M747.293,-905.306C747.001,-873.341 746.694,-839.689 746.417,-809.453"/>
<polygon fill="none" stroke="#404040" points="746.415,-809.163 742.36,-803.2 746.305,-797.164 750.36,-803.127 746.415,-809.163"/>
<text text-anchor="middle" x="761.5" y="-873.5" font-family="Helvetica,sans-Serif" font-size="10.00"> +data</text>
</g>
<!-- Node16 -->
<g id="node16" class="node"><title>Node16</title>
<g id="a_node16"><a xlink:href="../../dc/dd4/classDigitalNoteSender.html" target="_top" xlink:title=" ">
<polygon fill="white" stroke="black" points="736,-354.5 736,-455.5 847,-455.5 847,-354.5 736,-354.5"/>
<text text-anchor="middle" x="791.5" y="-443.5" font-family="Helvetica,sans-Serif" font-size="10.00">DigitalNoteSender</text>
<polyline fill="none" stroke="black" points="736,-436.5 847,-436.5 "/>
<text text-anchor="start" x="744" y="-424.5" font-family="Helvetica,sans-Serif" font-size="10.00">&#45; velocity</text>
<polyline fill="none" stroke="black" points="736,-417.5 847,-417.5 "/>
<text text-anchor="start" x="744" y="-405.5" font-family="Helvetica,sans-Serif" font-size="10.00">+ DigitalNoteSender()</text>
<text text-anchor="start" x="744" y="-394.5" font-family="Helvetica,sans-Serif" font-size="10.00">+ sendOn()</text>
<text text-anchor="start" x="744" y="-383.5" font-family="Helvetica,sans-Serif" font-size="10.00">+ sendOff()</text>
<text text-anchor="start" x="744" y="-372.5" font-family="Helvetica,sans-Serif" font-size="10.00">+ setVelocity()</text>
<text text-anchor="start" x="744" y="-361.5" font-family="Helvetica,sans-Serif" font-size="10.00">+ getVelocity()</text>
</a>
</g>
</g>
<!-- Node16&#45;&gt;Node2 -->
<g id="edge17" class="edge"><title>Node16&#45;&gt;Node2</title>
<path fill="none" stroke="#404040" d="M768.428,-354.263C757.734,-335.174 743.577,-314.318 726.5,-299 686.467,-263.09 633.67,-235.793 586.999,-216.459"/>
<polygon fill="none" stroke="#404040" points="586.712,-216.343 579.65,-217.799 575.59,-211.839 582.653,-210.384 586.712,-216.343"/>
<text text-anchor="middle" x="734.5" y="-273" font-family="Helvetica,sans-Serif" font-size="10.00"> +resetSender</text>
</g>
</g>
</svg>
