<?xml version="1.0" encoding="UTF-8" standalone="no"?>
<!DOCTYPE svg PUBLIC "-//W3C//DTD SVG 1.1//EN"
 "http://www.w3.org/Graphics/SVG/1.1/DTD/svg11.dtd">
<!-- Generated by graphviz version 2.43.0 (0)
 -->
<!-- Title: VolumeControl&lt; N &gt; Pages: 1 -->
<svg width="167pt" height="678pt"
 viewBox="0.00 0.00 167.00 678.00" xmlns="http://www.w3.org/2000/svg" xmlns:xlink="http://www.w3.org/1999/xlink">
<g id="graph0" class="graph" transform="scale(1 1) rotate(0) translate(4 674)">
<title>VolumeControl&lt; N &gt;</title>
<polygon fill="white" stroke="transparent" points="-4,4 -4,-674 163,-674 163,4 -4,4"/>
<!-- Node1 -->
<g id="node1" class="node">
<title>Node1</title>
<g id="a_node1"><a xlink:title="A class for controlling the volume of AudioMixer4 objects using a potentiometer.">
<polygon fill="#bfbfbf" stroke="black" points="20,-0.5 20,-123.5 139,-123.5 139,-0.5 20,-0.5"/>
<text text-anchor="middle" x="79.5" y="-111.5" font-family="Helvetica,sans-Serif" font-size="10.00">VolumeControl&lt; N &gt;</text>
<polyline fill="none" stroke="black" points="20,-104.5 139,-104.5 "/>
<text text-anchor="start" x="28" y="-92.5" font-family="Helvetica,sans-Serif" font-size="10.00">&#45; mixers</text>
<text text-anchor="start" x="28" y="-81.5" font-family="Helvetica,sans-Serif" font-size="10.00">&#45; filteredAnalog</text>
<text text-anchor="start" x="28" y="-70.5" font-family="Helvetica,sans-Serif" font-size="10.00">&#45; maxGain</text>
<polyline fill="none" stroke="black" points="20,-63.5 139,-63.5 "/>
<text text-anchor="start" x="28" y="-51.5" font-family="Helvetica,sans-Serif" font-size="10.00">+ VolumeControl()</text>
<text text-anchor="start" x="28" y="-40.5" font-family="Helvetica,sans-Serif" font-size="10.00">+ update()</text>
<text text-anchor="start" x="28" y="-29.5" font-family="Helvetica,sans-Serif" font-size="10.00">+ begin()</text>
<text text-anchor="start" x="28" y="-18.5" font-family="Helvetica,sans-Serif" font-size="10.00">+ map()</text>
<text text-anchor="start" x="28" y="-7.5" font-family="Helvetica,sans-Serif" font-size="10.00">+ invert()</text>
</a>
</g>
</g>
<!-- Node2 -->
<g id="node2" class="node">
<title>Node2</title>
<g id="a_node2"><a xlink:href="../../d1/d55/classAH_1_1Updatable.html" target="_top" xlink:title=" ">
<polygon fill="white" stroke="black" points="0,-160.5 0,-250.5 159,-250.5 159,-160.5 0,-160.5"/>
<text text-anchor="middle" x="79.5" y="-238.5" font-family="Helvetica,sans-Serif" font-size="10.00">Updatable&lt; Potentiometer &gt;</text>
<polyline fill="none" stroke="black" points="0,-231.5 159,-231.5 "/>
<text text-anchor="middle" x="79.5" y="-219.5" font-family="Helvetica,sans-Serif" font-size="10.00"> </text>
<polyline fill="none" stroke="black" points="0,-212.5 159,-212.5 "/>
<text text-anchor="start" x="8" y="-200.5" font-family="Helvetica,sans-Serif" font-size="10.00">* begin()</text>
<text text-anchor="start" x="8" y="-189.5" font-family="Helvetica,sans-Serif" font-size="10.00">* update()</text>
<text text-anchor="start" x="8" y="-178.5" font-family="Helvetica,sans-Serif" font-size="10.00">* beginAll()</text>
<text text-anchor="start" x="8" y="-167.5" font-family="Helvetica,sans-Serif" font-size="10.00">* updateAll()</text>
</a>
</g>
</g>
<!-- Node2&#45;&gt;Node1 -->
<g id="edge1" class="edge">
<title>Node2&#45;&gt;Node1</title>
<path fill="none" stroke="midnightblue" d="M79.5,-150.11C79.5,-141.42 79.5,-132.38 79.5,-123.56"/>
<polygon fill="none" stroke="midnightblue" points="76,-150.12 79.5,-160.12 83,-150.12 76,-150.12"/>
</g>
<!-- Node3 -->
<g id="node3" class="node">
<title>Node3</title>
<g id="a_node3"><a xlink:href="../../d8/d1a/classAH_1_1UpdatableCRTP.html" target="_top" xlink:title="A super class for object that have to be updated regularly.">
<polygon fill="white" stroke="black" points="3.5,-287.5 3.5,-509.5 155.5,-509.5 155.5,-287.5 3.5,-287.5"/>
<text text-anchor="middle" x="79.5" y="-497.5" font-family="Helvetica,sans-Serif" font-size="10.00">UpdatableCRTP&lt; Derived &gt;</text>
<polyline fill="none" stroke="black" points="3.5,-490.5 155.5,-490.5 "/>
<text text-anchor="start" x="11.5" y="-478.5" font-family="Helvetica,sans-Serif" font-size="10.00"># updatables</text>
<polyline fill="none" stroke="black" points="3.5,-471.5 155.5,-471.5 "/>
<text text-anchor="start" x="11.5" y="-459.5" font-family="Helvetica,sans-Serif" font-size="10.00">+ ~UpdatableCRTP()</text>
<text text-anchor="start" x="11.5" y="-448.5" font-family="Helvetica,sans-Serif" font-size="10.00"># UpdatableCRTP()</text>
<text text-anchor="start" x="11.5" y="-437.5" font-family="Helvetica,sans-Serif" font-size="10.00"># UpdatableCRTP()</text>
<text text-anchor="start" x="11.5" y="-426.5" font-family="Helvetica,sans-Serif" font-size="10.00"># operator=()</text>
<text text-anchor="start" x="11.5" y="-415.5" font-family="Helvetica,sans-Serif" font-size="10.00"># UpdatableCRTP()</text>
<text text-anchor="start" x="11.5" y="-404.5" font-family="Helvetica,sans-Serif" font-size="10.00"># operator=()</text>
<text text-anchor="start" x="11.5" y="-393.5" font-family="Helvetica,sans-Serif" font-size="10.00">* enable()</text>
<text text-anchor="start" x="11.5" y="-382.5" font-family="Helvetica,sans-Serif" font-size="10.00">* disable()</text>
<text text-anchor="start" x="11.5" y="-371.5" font-family="Helvetica,sans-Serif" font-size="10.00">* isEnabled()</text>
<text text-anchor="start" x="11.5" y="-360.5" font-family="Helvetica,sans-Serif" font-size="10.00">* moveDown()</text>
<text text-anchor="start" x="11.5" y="-349.5" font-family="Helvetica,sans-Serif" font-size="10.00">* enable()</text>
<text text-anchor="start" x="11.5" y="-338.5" font-family="Helvetica,sans-Serif" font-size="10.00">* enable()</text>
<text text-anchor="start" x="11.5" y="-327.5" font-family="Helvetica,sans-Serif" font-size="10.00">* enable()</text>
<text text-anchor="start" x="11.5" y="-316.5" font-family="Helvetica,sans-Serif" font-size="10.00">* disable()</text>
<text text-anchor="start" x="11.5" y="-305.5" font-family="Helvetica,sans-Serif" font-size="10.00">* disable()</text>
<text text-anchor="start" x="11.5" y="-294.5" font-family="Helvetica,sans-Serif" font-size="10.00">* disable()</text>
</a>
</g>
</g>
<!-- Node3&#45;&gt;Node2 -->
<g id="edge2" class="edge">
<title>Node3&#45;&gt;Node2</title>
<path fill="none" stroke="midnightblue" d="M79.5,-277.04C79.5,-267.76 79.5,-258.81 79.5,-250.59"/>
<polygon fill="none" stroke="midnightblue" points="76,-277.22 79.5,-287.22 83,-277.22 76,-277.22"/>
</g>
<!-- Node4 -->
<g id="node4" class="node">
<title>Node4</title>
<g id="a_node4"><a xlink:href="../../d4/d23/classDoublyLinkable.html" target="_top" xlink:title=" ">
<polygon fill="white" stroke="black" points="3.5,-546.5 3.5,-669.5 155.5,-669.5 155.5,-546.5 3.5,-546.5"/>
<text text-anchor="middle" x="79.5" y="-657.5" font-family="Helvetica,sans-Serif" font-size="10.00">DoublyLinkable&lt; Derived &gt;</text>
<polyline fill="none" stroke="black" points="3.5,-650.5 155.5,-650.5 "/>
<text text-anchor="start" x="11.5" y="-638.5" font-family="Helvetica,sans-Serif" font-size="10.00"># next</text>
<text text-anchor="start" x="11.5" y="-627.5" font-family="Helvetica,sans-Serif" font-size="10.00"># previous</text>
<polyline fill="none" stroke="black" points="3.5,-620.5 155.5,-620.5 "/>
<text text-anchor="start" x="11.5" y="-608.5" font-family="Helvetica,sans-Serif" font-size="10.00"># ~DoublyLinkable()</text>
<text text-anchor="start" x="11.5" y="-597.5" font-family="Helvetica,sans-Serif" font-size="10.00"># DoublyLinkable()</text>
<text text-anchor="start" x="11.5" y="-586.5" font-family="Helvetica,sans-Serif" font-size="10.00"># DoublyLinkable()</text>
<text text-anchor="start" x="11.5" y="-575.5" font-family="Helvetica,sans-Serif" font-size="10.00"># DoublyLinkable()</text>
<text text-anchor="start" x="11.5" y="-564.5" font-family="Helvetica,sans-Serif" font-size="10.00"># operator=()</text>
<text text-anchor="start" x="11.5" y="-553.5" font-family="Helvetica,sans-Serif" font-size="10.00"># operator=()</text>
</a>
</g>
</g>
<!-- Node4&#45;&gt;Node3 -->
<g id="edge3" class="edge">
<title>Node4&#45;&gt;Node3</title>
<path fill="none" stroke="midnightblue" d="M79.5,-536.16C79.5,-527.6 79.5,-518.7 79.5,-509.73"/>
<polygon fill="none" stroke="midnightblue" points="76,-536.42 79.5,-546.42 83,-536.42 76,-536.42"/>
</g>
</g>
</svg>
