<?xml version="1.0" encoding="UTF-8" standalone="no"?>
<!DOCTYPE svg PUBLIC "-//W3C//DTD SVG 1.1//EN"
 "http://www.w3.org/Graphics/SVG/1.1/DTD/svg11.dtd">
<!-- Generated by graphviz version 2.43.0 (0)
 -->
<!-- Title: BankableMIDIInput.hpp Pages: 1 -->
<svg width="1333pt" height="823pt"
 viewBox="0.00 0.00 1333.00 823.00" xmlns="http://www.w3.org/2000/svg" xmlns:xlink="http://www.w3.org/1999/xlink">
<g id="graph0" class="graph" transform="scale(1 1) rotate(0) translate(4 819)">
<title>BankableMIDIInput.hpp</title>
<polygon fill="white" stroke="transparent" points="-4,4 -4,-819 1329,-819 1329,4 -4,4"/>
<!-- Node1 -->
<g id="node1" class="node">
<title>Node1</title>
<g id="a_node1"><a xlink:title=" ">
<polygon fill="#bfbfbf" stroke="black" points="571,-795.5 571,-814.5 701,-814.5 701,-795.5 571,-795.5"/>
<text text-anchor="middle" x="636" y="-802.5" font-family="Helvetica,sans-Serif" font-size="10.00">BankableMIDIInput.hpp</text>
</a>
</g>
</g>
<!-- Node2 -->
<g id="node2" class="node">
<title>Node2</title>
<g id="a_node2"><a xlink:href="../../d4/d57/Bank_8hpp.html" target="_top" xlink:title=" ">
<polygon fill="white" stroke="black" points="605,-739.5 605,-758.5 667,-758.5 667,-739.5 605,-739.5"/>
<text text-anchor="middle" x="636" y="-746.5" font-family="Helvetica,sans-Serif" font-size="10.00">Bank.hpp</text>
</a>
</g>
</g>
<!-- Node1&#45;&gt;Node2 -->
<g id="edge1" class="edge">
<title>Node1&#45;&gt;Node2</title>
<path fill="none" stroke="midnightblue" d="M630.83,-795.08C629.32,-787.93 628.89,-777.64 629.54,-768.69"/>
<polygon fill="midnightblue" stroke="midnightblue" points="633.02,-769.13 630.87,-758.75 626.08,-768.2 633.02,-769.13"/>
</g>
<!-- Node3 -->
<g id="node3" class="node">
<title>Node3</title>
<g id="a_node3"><a xlink:href="../../df/dee/Debug_8hpp.html" target="_top" xlink:title=" ">
<polygon fill="white" stroke="black" points="410.5,-392.5 410.5,-411.5 531.5,-411.5 531.5,-392.5 410.5,-392.5"/>
<text text-anchor="middle" x="471" y="-399.5" font-family="Helvetica,sans-Serif" font-size="10.00">AH/Debug/Debug.hpp</text>
</a>
</g>
</g>
<!-- Node1&#45;&gt;Node3 -->
<g id="edge69" class="edge">
<title>Node1&#45;&gt;Node3</title>
<path fill="none" stroke="midnightblue" d="M594.79,-795.48C545.92,-782.69 471,-753.39 471,-694 471,-694 471,-694 471,-513 471,-480.95 471,-443.64 471,-421.75"/>
<polygon fill="midnightblue" stroke="midnightblue" points="474.5,-421.56 471,-411.56 467.5,-421.56 474.5,-421.56"/>
</g>
<!-- Node23 -->
<g id="node23" class="node">
<title>Node23</title>
<g id="a_node23"><a xlink:href="../../de/dd1/LinkedList_8hpp.html" target="_top" xlink:title=" ">
<polygon fill="white" stroke="black" points="284.5,-504.5 284.5,-523.5 443.5,-523.5 443.5,-504.5 284.5,-504.5"/>
<text text-anchor="middle" x="364" y="-511.5" font-family="Helvetica,sans-Serif" font-size="10.00">AH/Containers/LinkedList.hpp</text>
</a>
</g>
</g>
<!-- Node1&#45;&gt;Node23 -->
<g id="edge70" class="edge">
<title>Node1&#45;&gt;Node23</title>
<path fill="none" stroke="midnightblue" d="M570.74,-803.9C492.56,-799.94 372,-779.9 372,-694 372,-694 372,-694 372,-636 372,-599.82 368.39,-557.68 366.02,-533.89"/>
<polygon fill="midnightblue" stroke="midnightblue" points="369.49,-533.38 364.98,-523.79 362.53,-534.1 369.49,-533.38"/>
</g>
<!-- Node31 -->
<g id="node31" class="node">
<title>Node31</title>
<g id="a_node31"><a xlink:href="../../dd/d1f/BankConfig_8hpp.html" target="_top" xlink:title=" ">
<polygon fill="white" stroke="black" points="851.5,-683.5 851.5,-702.5 944.5,-702.5 944.5,-683.5 851.5,-683.5"/>
<text text-anchor="middle" x="898" y="-690.5" font-family="Helvetica,sans-Serif" font-size="10.00">BankConfig.hpp</text>
</a>
</g>
</g>
<!-- Node1&#45;&gt;Node31 -->
<g id="edge65" class="edge">
<title>Node1&#45;&gt;Node31</title>
<path fill="none" stroke="midnightblue" d="M656.56,-795.37C702.67,-776.01 814.48,-729.06 868.21,-706.51"/>
<polygon fill="midnightblue" stroke="midnightblue" points="869.67,-709.69 877.54,-702.59 866.96,-703.24 869.67,-709.69"/>
</g>
<!-- Node32 -->
<g id="node32" class="node">
<title>Node32</title>
<g id="a_node32"><a xlink:href="../../db/dd6/MIDIAddress_8hpp.html" target="_top" xlink:title=" ">
<polygon fill="white" stroke="black" points="870.5,-739.5 870.5,-758.5 989.5,-758.5 989.5,-739.5 870.5,-739.5"/>
<text text-anchor="middle" x="930" y="-746.5" font-family="Helvetica,sans-Serif" font-size="10.00">Def/MIDIAddress.hpp</text>
</a>
</g>
</g>
<!-- Node1&#45;&gt;Node32 -->
<g id="edge67" class="edge">
<title>Node1&#45;&gt;Node32</title>
<path fill="none" stroke="midnightblue" d="M682.59,-795.44C734.41,-785.92 818.13,-770.55 873.62,-760.36"/>
<polygon fill="midnightblue" stroke="midnightblue" points="874.43,-763.77 883.63,-758.52 873.16,-756.88 874.43,-763.77"/>
</g>
<!-- Node2&#45;&gt;Node1 -->
<g id="edge64" class="edge">
<title>Node2&#45;&gt;Node1</title>
<path fill="none" stroke="midnightblue" d="M641.13,-758.75C642.66,-765.86 643.1,-776.14 642.47,-785.1"/>
<polygon fill="midnightblue" stroke="midnightblue" points="638.99,-784.71 641.17,-795.08 645.93,-785.62 638.99,-784.71"/>
</g>
<!-- Node2&#45;&gt;Node3 -->
<g id="edge2" class="edge">
<title>Node2&#45;&gt;Node3</title>
<path fill="none" stroke="midnightblue" d="M633.44,-739.25C628.25,-720.74 617,-676.18 617,-638 617,-638 617,-638 617,-513 617,-482.9 618.68,-469.87 598,-448 582.32,-431.42 560.15,-420.94 538.71,-414.32"/>
<polygon fill="midnightblue" stroke="midnightblue" points="539.51,-410.91 528.94,-411.54 537.6,-417.64 539.51,-410.91"/>
</g>
<!-- Node22 -->
<g id="node22" class="node">
<title>Node22</title>
<g id="a_node22"><a xlink:href="../../d1/d93/Error_8hpp.html" target="_top" xlink:title=" ">
<polygon fill="white" stroke="black" points="645,-448.5 645,-467.5 749,-467.5 749,-448.5 645,-448.5"/>
<text text-anchor="middle" x="697" y="-455.5" font-family="Helvetica,sans-Serif" font-size="10.00">AH/Error/Error.hpp</text>
</a>
</g>
</g>
<!-- Node2&#45;&gt;Node22 -->
<g id="edge33" class="edge">
<title>Node2&#45;&gt;Node22</title>
<path fill="none" stroke="midnightblue" d="M638.56,-739.25C643.75,-720.74 655,-676.18 655,-638 655,-638 655,-638 655,-574.5 655,-537.86 673.89,-498.41 686.34,-476.41"/>
<polygon fill="midnightblue" stroke="midnightblue" points="689.47,-477.99 691.51,-467.59 683.43,-474.45 689.47,-477.99"/>
</g>
<!-- Node2&#45;&gt;Node23 -->
<g id="edge36" class="edge">
<title>Node2&#45;&gt;Node23</title>
<path fill="none" stroke="midnightblue" d="M626,-739.43C585.6,-704.82 434.13,-575.07 381.86,-530.3"/>
<polygon fill="midnightblue" stroke="midnightblue" points="383.97,-527.49 374.09,-523.65 379.41,-532.81 383.97,-527.49"/>
</g>
<!-- Node26 -->
<g id="node26" class="node">
<title>Node26</title>
<g id="a_node26"><a xlink:href="../../d9/d46/Selectable_8hpp.html" target="_top" xlink:title=" ">
<polygon fill="white" stroke="black" points="683.5,-683.5 683.5,-702.5 820.5,-702.5 820.5,-683.5 683.5,-683.5"/>
<text text-anchor="middle" x="752" y="-690.5" font-family="Helvetica,sans-Serif" font-size="10.00">Selectors/Selectable.hpp</text>
</a>
</g>
</g>
<!-- Node2&#45;&gt;Node26 -->
<g id="edge42" class="edge">
<title>Node2&#45;&gt;Node26</title>
<path fill="none" stroke="midnightblue" d="M654.38,-739.44C673.22,-730.68 702.73,-716.94 724.38,-706.86"/>
<polygon fill="midnightblue" stroke="midnightblue" points="726.12,-709.91 733.71,-702.52 723.16,-703.56 726.12,-709.91"/>
</g>
<!-- Node4 -->
<g id="node4" class="node">
<title>Node4</title>
<g id="a_node4"><a xlink:href="../../d1/d65/Warnings_8hpp.html" target="_top" xlink:title=" ">
<polygon fill="white" stroke="black" points="429.5,-0.5 429.5,-19.5 572.5,-19.5 572.5,-0.5 429.5,-0.5"/>
<text text-anchor="middle" x="501" y="-7.5" font-family="Helvetica,sans-Serif" font-size="10.00">AH/Settings/Warnings.hpp</text>
</a>
</g>
</g>
<!-- Node3&#45;&gt;Node4 -->
<g id="edge3" class="edge">
<title>Node3&#45;&gt;Node4</title>
<path fill="none" stroke="midnightblue" d="M410.34,-398.2C291.17,-391.05 38,-366.91 38,-291 38,-291 38,-291 38,-121 38,-75.53 75.17,-73.81 117,-56 169.79,-33.52 323.31,-21 419.49,-15.16"/>
<polygon fill="midnightblue" stroke="midnightblue" points="419.7,-18.65 429.48,-14.56 419.29,-11.66 419.7,-18.65"/>
</g>
<!-- Node5 -->
<g id="node5" class="node">
<title>Node5</title>
<g id="a_node5"><a xlink:href="../../dd/d80/PrintStream_8hpp.html" target="_top" xlink:title=" ">
<polygon fill="white" stroke="black" points="537.5,-280.5 537.5,-299.5 710.5,-299.5 710.5,-280.5 537.5,-280.5"/>
<text text-anchor="middle" x="624" y="-287.5" font-family="Helvetica,sans-Serif" font-size="10.00">AH/PrintStream/PrintStream.hpp</text>
</a>
</g>
</g>
<!-- Node3&#45;&gt;Node5 -->
<g id="edge4" class="edge">
<title>Node3&#45;&gt;Node5</title>
<path fill="none" stroke="midnightblue" d="M501.44,-392.45C523.45,-385.23 553.04,-373.27 575,-356 591.6,-342.94 605.53,-322.96 614.24,-308.61"/>
<polygon fill="midnightblue" stroke="midnightblue" points="617.4,-310.12 619.4,-299.72 611.35,-306.6 617.4,-310.12"/>
</g>
<!-- Node13 -->
<g id="node13" class="node">
<title>Node13</title>
<g id="a_node13"><a xlink:href="../../de/dd1/AH_2Settings_2SettingsWrapper_8hpp.html" target="_top" xlink:title=" ">
<polygon fill="white" stroke="black" points="286,-336.5 286,-355.5 464,-355.5 464,-336.5 286,-336.5"/>
<text text-anchor="middle" x="375" y="-343.5" font-family="Helvetica,sans-Serif" font-size="10.00">AH/Settings/SettingsWrapper.hpp</text>
</a>
</g>
</g>
<!-- Node3&#45;&gt;Node13 -->
<g id="edge17" class="edge">
<title>Node3&#45;&gt;Node13</title>
<path fill="none" stroke="midnightblue" d="M450.46,-392.32C433.66,-383.9 410.38,-370.97 394.01,-361.07"/>
<polygon fill="midnightblue" stroke="midnightblue" points="395.62,-357.95 385.28,-355.65 391.93,-363.9 395.62,-357.95"/>
</g>
<!-- Node21 -->
<g id="node21" class="node">
<title>Node21</title>
<g id="a_node21"><a xlink:href="../../d7/d52/DebugVal_8hpp.html" target="_top" xlink:title=" ">
<polygon fill="white" stroke="black" points="482,-336.5 482,-355.5 566,-355.5 566,-336.5 482,-336.5"/>
<text text-anchor="middle" x="524" y="-343.5" font-family="Helvetica,sans-Serif" font-size="10.00">DebugVal.hpp</text>
</a>
</g>
</g>
<!-- Node3&#45;&gt;Node21 -->
<g id="edge32" class="edge">
<title>Node3&#45;&gt;Node21</title>
<path fill="none" stroke="midnightblue" d="M479.75,-392.08C487.47,-384.22 498.9,-372.57 508.22,-363.08"/>
<polygon fill="midnightblue" stroke="midnightblue" points="510.9,-365.34 515.41,-355.75 505.91,-360.44 510.9,-365.34"/>
</g>
<!-- Node5&#45;&gt;Node4 -->
<g id="edge6" class="edge">
<title>Node5&#45;&gt;Node4</title>
<path fill="none" stroke="midnightblue" d="M618.95,-280.37C607.44,-259.47 581.94,-205.17 604,-168 621.06,-139.27 645.26,-154.46 670,-132 697.97,-106.62 731.7,-85.4 708,-56 692.12,-36.3 633.53,-24.78 582.71,-18.33"/>
<polygon fill="midnightblue" stroke="midnightblue" points="583.02,-14.85 572.67,-17.11 582.17,-21.79 583.02,-14.85"/>
</g>
<!-- Node6 -->
<g id="node6" class="node">
<title>Node6</title>
<g id="a_node6"><a xlink:href="../../d6/db0/AH_2Settings_2NamespaceSettings_8hpp.html" target="_top" xlink:title=" ">
<polygon fill="white" stroke="black" points="278.5,-56.5 278.5,-75.5 473.5,-75.5 473.5,-56.5 278.5,-56.5"/>
<text text-anchor="middle" x="376" y="-63.5" font-family="Helvetica,sans-Serif" font-size="10.00">AH/Settings/NamespaceSettings.hpp</text>
</a>
</g>
</g>
<!-- Node5&#45;&gt;Node6 -->
<g id="edge5" class="edge">
<title>Node5&#45;&gt;Node6</title>
<path fill="none" stroke="midnightblue" d="M612.38,-280.38C601.17,-271.8 584.04,-257.92 571,-244 521.05,-190.67 529.67,-158.13 473,-112 455.35,-97.63 432.35,-86.7 413.18,-79.21"/>
<polygon fill="midnightblue" stroke="midnightblue" points="414.14,-75.84 403.55,-75.61 411.69,-82.39 414.14,-75.84"/>
</g>
<!-- Node7 -->
<g id="node7" class="node">
<title>Node7</title>
<g id="a_node7"><a xlink:href="../../d6/ddf/Arduino-Wrapper_8h.html" target="_top" xlink:title=" ">
<polygon fill="white" stroke="black" points="613,-168.5 613,-187.5 737,-187.5 737,-168.5 613,-168.5"/>
<text text-anchor="middle" x="675" y="-175.5" font-family="Helvetica,sans-Serif" font-size="10.00">AH/Arduino&#45;Wrapper.h</text>
</a>
</g>
</g>
<!-- Node5&#45;&gt;Node7 -->
<g id="edge7" class="edge">
<title>Node5&#45;&gt;Node7</title>
<path fill="none" stroke="midnightblue" d="M628,-280.37C636.31,-262.46 655.56,-220.92 666.68,-196.95"/>
<polygon fill="midnightblue" stroke="midnightblue" points="669.99,-198.14 671.02,-187.59 663.64,-195.19 669.99,-198.14"/>
</g>
<!-- Node12 -->
<g id="node12" class="node">
<title>Node12</title>
<g id="a_node12"><a xlink:title=" ">
<polygon fill="white" stroke="#bfbfbf" points="1147,-224.5 1147,-243.5 1325,-243.5 1325,-224.5 1147,-224.5"/>
<text text-anchor="middle" x="1236" y="-231.5" font-family="Helvetica,sans-Serif" font-size="10.00">Settings/NamespaceSettings.hpp</text>
</a>
</g>
</g>
<!-- Node5&#45;&gt;Node12 -->
<g id="edge16" class="edge">
<title>Node5&#45;&gt;Node12</title>
<path fill="none" stroke="midnightblue" d="M710.71,-281.35C823.01,-271.44 1018.34,-254.21 1136.54,-243.78"/>
<polygon fill="midnightblue" stroke="midnightblue" points="1137.02,-247.25 1146.68,-242.88 1136.41,-240.27 1137.02,-247.25"/>
</g>
<!-- Node8 -->
<g id="node8" class="node">
<title>Node8</title>
<g id="a_node8"><a xlink:href="../../d7/d79/MinMaxFix_8hpp.html" target="_top" xlink:title=" ">
<polygon fill="white" stroke="black" points="525,-112.5 525,-131.5 661,-131.5 661,-112.5 525,-112.5"/>
<text text-anchor="middle" x="593" y="-119.5" font-family="Helvetica,sans-Serif" font-size="10.00">AH/Math/MinMaxFix.hpp</text>
</a>
</g>
</g>
<!-- Node7&#45;&gt;Node8 -->
<g id="edge8" class="edge">
<title>Node7&#45;&gt;Node8</title>
<path fill="none" stroke="midnightblue" d="M661.83,-168.32C649.15,-159.98 629.77,-147.21 614.79,-137.35"/>
<polygon fill="midnightblue" stroke="midnightblue" points="616.42,-134.23 606.14,-131.65 612.57,-140.08 616.42,-134.23"/>
</g>
<!-- Node10 -->
<g id="node10" class="node">
<title>Node10</title>
<g id="a_node10"><a xlink:title=" ">
<polygon fill="white" stroke="#bfbfbf" points="699.5,-0.5 699.5,-19.5 762.5,-19.5 762.5,-0.5 699.5,-0.5"/>
<text text-anchor="middle" x="731" y="-7.5" font-family="Helvetica,sans-Serif" font-size="10.00">Arduino.h</text>
</a>
</g>
</g>
<!-- Node7&#45;&gt;Node10 -->
<g id="edge15" class="edge">
<title>Node7&#45;&gt;Node10</title>
<path fill="none" stroke="midnightblue" d="M683.16,-168.45C698.14,-152.08 729.52,-114.54 741,-76 745.58,-60.61 742.11,-42.52 738.05,-29.33"/>
<polygon fill="midnightblue" stroke="midnightblue" points="741.26,-27.88 734.67,-19.58 734.64,-30.17 741.26,-27.88"/>
</g>
<!-- Node11 -->
<g id="node11" class="node">
<title>Node11</title>
<g id="a_node11"><a xlink:title=" ">
<polygon fill="white" stroke="#bfbfbf" points="793.5,-112.5 793.5,-131.5 900.5,-131.5 900.5,-112.5 793.5,-112.5"/>
<text text-anchor="middle" x="847" y="-119.5" font-family="Helvetica,sans-Serif" font-size="10.00">AH/STL/type_traits</text>
</a>
</g>
</g>
<!-- Node7&#45;&gt;Node11 -->
<g id="edge14" class="edge">
<title>Node7&#45;&gt;Node11</title>
<path fill="none" stroke="midnightblue" d="M702.25,-168.44C731.44,-159.28 777.92,-144.69 810.31,-134.52"/>
<polygon fill="midnightblue" stroke="midnightblue" points="811.38,-137.85 819.87,-131.52 809.28,-131.17 811.38,-137.85"/>
</g>
<!-- Node8&#45;&gt;Node4 -->
<g id="edge9" class="edge">
<title>Node8&#45;&gt;Node4</title>
<path fill="none" stroke="midnightblue" d="M570.77,-112.49C554.47,-105.16 533,-93.05 520,-76 509.76,-62.57 505.03,-43.76 502.85,-29.82"/>
<polygon fill="midnightblue" stroke="midnightblue" points="506.32,-29.37 501.59,-19.89 499.38,-30.25 506.32,-29.37"/>
</g>
<!-- Node8&#45;&gt;Node6 -->
<g id="edge13" class="edge">
<title>Node8&#45;&gt;Node6</title>
<path fill="none" stroke="midnightblue" d="M558.62,-112.44C521.08,-103.1 460.87,-88.12 419.93,-77.93"/>
<polygon fill="midnightblue" stroke="midnightblue" points="420.77,-74.53 410.22,-75.52 419.08,-81.33 420.77,-74.53"/>
</g>
<!-- Node9 -->
<g id="node9" class="node">
<title>Node9</title>
<g id="a_node9"><a xlink:href="../../d6/d3b/FixArduinoMacros_8hpp.html" target="_top" xlink:title=" ">
<polygon fill="white" stroke="black" points="529,-56.5 529,-75.5 699,-75.5 699,-56.5 529,-56.5"/>
<text text-anchor="middle" x="614" y="-63.5" font-family="Helvetica,sans-Serif" font-size="10.00">AH/Math/FixArduinoMacros.hpp</text>
</a>
</g>
</g>
<!-- Node8&#45;&gt;Node9 -->
<g id="edge10" class="edge">
<title>Node8&#45;&gt;Node9</title>
<path fill="none" stroke="midnightblue" d="M596.47,-112.08C599.31,-104.77 603.43,-94.18 606.96,-85.1"/>
<polygon fill="midnightblue" stroke="midnightblue" points="610.23,-86.34 610.6,-75.75 603.71,-83.8 610.23,-86.34"/>
</g>
<!-- Node9&#45;&gt;Node4 -->
<g id="edge11" class="edge">
<title>Node9&#45;&gt;Node4</title>
<path fill="none" stroke="midnightblue" d="M596.09,-56.44C577.75,-47.68 548.99,-33.94 527.91,-23.86"/>
<polygon fill="midnightblue" stroke="midnightblue" points="529.35,-20.67 518.82,-19.52 526.33,-26.99 529.35,-20.67"/>
</g>
<!-- Node9&#45;&gt;Node10 -->
<g id="edge12" class="edge">
<title>Node9&#45;&gt;Node10</title>
<path fill="none" stroke="midnightblue" d="M632.54,-56.44C651.62,-47.64 681.57,-33.81 703.44,-23.72"/>
<polygon fill="midnightblue" stroke="midnightblue" points="704.93,-26.88 712.55,-19.52 702,-20.53 704.93,-26.88"/>
</g>
<!-- Node13&#45;&gt;Node3 -->
<g id="edge31" class="edge">
<title>Node13&#45;&gt;Node3</title>
<path fill="none" stroke="midnightblue" d="M395.5,-355.65C412.28,-364.07 435.57,-377 451.95,-386.9"/>
<polygon fill="midnightblue" stroke="midnightblue" points="450.35,-390.03 460.69,-392.32 454.04,-384.08 450.35,-390.03"/>
</g>
<!-- Node13&#45;&gt;Node4 -->
<g id="edge18" class="edge">
<title>Node13&#45;&gt;Node4</title>
<path fill="none" stroke="midnightblue" d="M297.09,-336.46C256.15,-330 205.92,-318.88 164,-300 119.67,-280.03 76,-283.62 76,-235 76,-235 76,-235 76,-121 76,-50.85 295.74,-24.71 419.21,-15.56"/>
<polygon fill="midnightblue" stroke="midnightblue" points="419.66,-19.03 429.39,-14.83 419.16,-12.05 419.66,-19.03"/>
</g>
<!-- Node13&#45;&gt;Node6 -->
<g id="edge19" class="edge">
<title>Node13&#45;&gt;Node6</title>
<path fill="none" stroke="midnightblue" d="M374.77,-336.14C373.92,-322.27 370.27,-295.46 355,-280 315.89,-240.4 223.84,-276.25 243,-224 265.82,-161.77 325.43,-107.27 356.51,-81.98"/>
<polygon fill="midnightblue" stroke="midnightblue" points="358.83,-84.62 364.47,-75.65 354.47,-79.14 358.83,-84.62"/>
</g>
<!-- Node14 -->
<g id="node14" class="node">
<title>Node14</title>
<g id="a_node14"><a xlink:href="../../d5/d4f/AH_2Settings_2Settings_8hpp.html" target="_top" xlink:title="All user settings and debugging options can be changed here.">
<polygon fill="white" stroke="black" points="403.5,-280.5 403.5,-299.5 480.5,-299.5 480.5,-280.5 403.5,-280.5"/>
<text text-anchor="middle" x="442" y="-287.5" font-family="Helvetica,sans-Serif" font-size="10.00">Settings.hpp</text>
</a>
</g>
</g>
<!-- Node13&#45;&gt;Node14 -->
<g id="edge20" class="edge">
<title>Node13&#45;&gt;Node14</title>
<path fill="none" stroke="midnightblue" d="M385.76,-336.32C395.77,-328.26 410.89,-316.08 422.93,-306.37"/>
<polygon fill="midnightblue" stroke="midnightblue" points="425.45,-308.83 431.04,-299.83 421.06,-303.38 425.45,-308.83"/>
</g>
<!-- Node20 -->
<g id="node20" class="node">
<title>Node20</title>
<g id="a_node20"><a xlink:href="../../d9/d98/TeensyUSBTypes_8hpp.html" target="_top" xlink:title=" ">
<polygon fill="white" stroke="black" points="173.5,-280.5 173.5,-299.5 346.5,-299.5 346.5,-280.5 173.5,-280.5"/>
<text text-anchor="middle" x="260" y="-287.5" font-family="Helvetica,sans-Serif" font-size="10.00">AH/Teensy/TeensyUSBTypes.hpp</text>
</a>
</g>
</g>
<!-- Node13&#45;&gt;Node20 -->
<g id="edge30" class="edge">
<title>Node13&#45;&gt;Node20</title>
<path fill="none" stroke="midnightblue" d="M356.78,-336.44C338.1,-327.68 308.84,-313.94 287.38,-303.86"/>
<polygon fill="midnightblue" stroke="midnightblue" points="288.68,-300.6 278.14,-299.52 285.7,-306.93 288.68,-300.6"/>
</g>
<!-- Node15 -->
<g id="node15" class="node">
<title>Node15</title>
<g id="a_node15"><a xlink:href="../../dc/d50/Frequency_8hpp.html" target="_top" xlink:title=" ">
<polygon fill="white" stroke="black" points="104,-112.5 104,-131.5 238,-131.5 238,-112.5 104,-112.5"/>
<text text-anchor="middle" x="171" y="-119.5" font-family="Helvetica,sans-Serif" font-size="10.00">AH/Types/Frequency.hpp</text>
</a>
</g>
</g>
<!-- Node14&#45;&gt;Node15 -->
<g id="edge21" class="edge">
<title>Node14&#45;&gt;Node15</title>
<path fill="none" stroke="midnightblue" d="M403.21,-281.93C349.04,-271.81 255.9,-253.37 243,-244 207.19,-217.99 186.02,-168.25 176.69,-141.35"/>
<polygon fill="midnightblue" stroke="midnightblue" points="179.95,-140.06 173.5,-131.66 173.3,-142.25 179.95,-140.06"/>
</g>
<!-- Node16 -->
<g id="node16" class="node">
<title>Node16</title>
<g id="a_node16"><a xlink:href="../../d7/d7c/ADCConfig_8hpp.html" target="_top" xlink:title="This file contains the platform&#45;specific ADC resolutions. By default, the library automatically selec...">
<polygon fill="white" stroke="black" points="323.5,-224.5 323.5,-243.5 480.5,-243.5 480.5,-224.5 323.5,-224.5"/>
<text text-anchor="middle" x="402" y="-231.5" font-family="Helvetica,sans-Serif" font-size="10.00">AH/Hardware/ADCConfig.hpp</text>
</a>
</g>
</g>
<!-- Node14&#45;&gt;Node16 -->
<g id="edge24" class="edge">
<title>Node14&#45;&gt;Node16</title>
<path fill="none" stroke="midnightblue" d="M435.39,-280.08C429.74,-272.46 421.46,-261.26 414.55,-251.94"/>
<polygon fill="midnightblue" stroke="midnightblue" points="417.25,-249.7 408.48,-243.75 411.62,-253.87 417.25,-249.7"/>
</g>
<!-- Node17 -->
<g id="node17" class="node">
<title>Node17</title>
<g id="a_node17"><a xlink:title=" ">
<polygon fill="white" stroke="#bfbfbf" points="252.5,-224.5 252.5,-243.5 305.5,-243.5 305.5,-224.5 252.5,-224.5"/>
<text text-anchor="middle" x="279" y="-231.5" font-family="Helvetica,sans-Serif" font-size="10.00">limits.h</text>
</a>
</g>
</g>
<!-- Node14&#45;&gt;Node17 -->
<g id="edge27" class="edge">
<title>Node14&#45;&gt;Node17</title>
<path fill="none" stroke="midnightblue" d="M416.17,-280.44C388.75,-271.36 345.22,-256.94 314.57,-246.78"/>
<polygon fill="midnightblue" stroke="midnightblue" points="315.3,-243.34 304.71,-243.52 313.1,-249.98 315.3,-243.34"/>
</g>
<!-- Node18 -->
<g id="node18" class="node">
<title>Node18</title>
<g id="a_node18"><a xlink:title=" ">
<polygon fill="white" stroke="#bfbfbf" points="805,-224.5 805,-243.5 861,-243.5 861,-224.5 805,-224.5"/>
<text text-anchor="middle" x="833" y="-231.5" font-family="Helvetica,sans-Serif" font-size="10.00">stddef.h</text>
</a>
</g>
</g>
<!-- Node14&#45;&gt;Node18 -->
<g id="edge28" class="edge">
<title>Node14&#45;&gt;Node18</title>
<path fill="none" stroke="midnightblue" d="M480.56,-283.67C555.54,-273.32 720.18,-250.58 794.84,-240.27"/>
<polygon fill="midnightblue" stroke="midnightblue" points="795.33,-243.74 804.76,-238.9 794.37,-236.8 795.33,-243.74"/>
</g>
<!-- Node19 -->
<g id="node19" class="node">
<title>Node19</title>
<g id="a_node19"><a xlink:title=" ">
<polygon fill="white" stroke="#bfbfbf" points="1016.5,-224.5 1016.5,-243.5 1069.5,-243.5 1069.5,-224.5 1016.5,-224.5"/>
<text text-anchor="middle" x="1043" y="-231.5" font-family="Helvetica,sans-Serif" font-size="10.00">stdint.h</text>
</a>
</g>
</g>
<!-- Node14&#45;&gt;Node19 -->
<g id="edge29" class="edge">
<title>Node14&#45;&gt;Node19</title>
<path fill="none" stroke="midnightblue" d="M480.53,-284.88C495.64,-283.3 513.13,-281.52 529,-280 707.73,-262.93 921.66,-245.01 1006.12,-238.03"/>
<polygon fill="midnightblue" stroke="midnightblue" points="1006.55,-241.5 1016.23,-237.19 1005.98,-234.53 1006.55,-241.5"/>
</g>
<!-- Node15&#45;&gt;Node4 -->
<g id="edge22" class="edge">
<title>Node15&#45;&gt;Node4</title>
<path fill="none" stroke="midnightblue" d="M177.13,-112.14C187.6,-97.77 210.38,-69.64 237,-56 293.47,-27.08 364.75,-16.21 419,-12.36"/>
<polygon fill="midnightblue" stroke="midnightblue" points="419.52,-15.83 429.27,-11.7 419.07,-8.84 419.52,-15.83"/>
</g>
<!-- Node15&#45;&gt;Node6 -->
<g id="edge23" class="edge">
<title>Node15&#45;&gt;Node6</title>
<path fill="none" stroke="midnightblue" d="M203.48,-112.44C238.72,-103.16 295.1,-88.31 333.76,-78.13"/>
<polygon fill="midnightblue" stroke="midnightblue" points="334.89,-81.45 343.67,-75.52 333.11,-74.68 334.89,-81.45"/>
</g>
<!-- Node16&#45;&gt;Node4 -->
<g id="edge25" class="edge">
<title>Node16&#45;&gt;Node4</title>
<path fill="none" stroke="midnightblue" d="M386.65,-224.5C341.8,-198.62 217.28,-118.72 269,-56 288,-32.96 360.42,-21.57 419.35,-16.03"/>
<polygon fill="midnightblue" stroke="midnightblue" points="419.78,-19.51 429.43,-15.13 419.16,-12.54 419.78,-19.51"/>
</g>
<!-- Node16&#45;&gt;Node7 -->
<g id="edge26" class="edge">
<title>Node16&#45;&gt;Node7</title>
<path fill="none" stroke="midnightblue" d="M445.26,-224.44C493.18,-214.96 570.48,-199.67 622,-189.48"/>
<polygon fill="midnightblue" stroke="midnightblue" points="622.81,-192.89 631.94,-187.52 621.46,-186.02 622.81,-192.89"/>
</g>
<!-- Node22&#45;&gt;Node3 -->
<g id="edge35" class="edge">
<title>Node22&#45;&gt;Node3</title>
<path fill="none" stroke="midnightblue" d="M661.19,-448.44C622.01,-439.08 559.12,-424.06 516.48,-413.87"/>
<polygon fill="midnightblue" stroke="midnightblue" points="517.18,-410.44 506.64,-411.52 515.56,-417.24 517.18,-410.44"/>
</g>
<!-- Node22&#45;&gt;Node4 -->
<g id="edge34" class="edge">
<title>Node22&#45;&gt;Node4</title>
<path fill="none" stroke="midnightblue" d="M702.84,-448.31C714.38,-430.26 739,-387.07 739,-347 739,-347 739,-347 739,-289 739,-185.28 798.58,-130.09 726,-56 706.11,-35.7 638.5,-24.05 582.54,-17.71"/>
<polygon fill="midnightblue" stroke="midnightblue" points="582.92,-14.23 572.6,-16.63 582.16,-21.19 582.92,-14.23"/>
</g>
<!-- Node23&#45;&gt;Node3 -->
<g id="edge38" class="edge">
<title>Node23&#45;&gt;Node3</title>
<path fill="none" stroke="midnightblue" d="M372.4,-504.37C390.29,-485.97 432.41,-442.67 455.39,-419.05"/>
<polygon fill="midnightblue" stroke="midnightblue" points="458.18,-421.2 462.64,-411.59 453.16,-416.32 458.18,-421.2"/>
</g>
<!-- Node23&#45;&gt;Node4 -->
<g id="edge37" class="edge">
<title>Node23&#45;&gt;Node4</title>
<path fill="none" stroke="midnightblue" d="M284.48,-507.94C206.01,-501.8 92.37,-489.5 54,-468 21.24,-449.64 0,-440.56 0,-403 0,-403 0,-403 0,-121 0,-80.46 27.46,-73.56 64,-56 124.77,-26.8 310.03,-16.47 418.84,-12.87"/>
<polygon fill="midnightblue" stroke="midnightblue" points="419.25,-16.36 429.13,-12.55 419.02,-9.37 419.25,-16.36"/>
</g>
<!-- Node23&#45;&gt;Node8 -->
<g id="edge39" class="edge">
<title>Node23&#45;&gt;Node8</title>
<path fill="none" stroke="midnightblue" d="M284.32,-505.2C221.7,-494.15 145,-467.46 145,-403 145,-403 145,-403 145,-345 145,-181.89 386.38,-138.62 514.78,-127.14"/>
<polygon fill="midnightblue" stroke="midnightblue" points="515.29,-130.61 524.96,-126.28 514.7,-123.64 515.29,-130.61"/>
</g>
<!-- Node24 -->
<g id="node24" class="node">
<title>Node24</title>
<g id="a_node24"><a xlink:title=" ">
<polygon fill="white" stroke="#bfbfbf" points="63.5,-448.5 63.5,-467.5 116.5,-467.5 116.5,-448.5 63.5,-448.5"/>
<text text-anchor="middle" x="90" y="-455.5" font-family="Helvetica,sans-Serif" font-size="10.00">stdlib.h</text>
</a>
</g>
</g>
<!-- Node23&#45;&gt;Node24 -->
<g id="edge40" class="edge">
<title>Node23&#45;&gt;Node24</title>
<path fill="none" stroke="midnightblue" d="M317.95,-504.46C270.9,-495.66 195.76,-481.36 131,-468 129.72,-467.73 128.41,-467.46 127.09,-467.19"/>
<polygon fill="midnightblue" stroke="midnightblue" points="127.4,-463.67 116.89,-465 125.93,-470.52 127.4,-463.67"/>
</g>
<!-- Node25 -->
<g id="node25" class="node">
<title>Node25</title>
<g id="a_node25"><a xlink:title=" ">
<polygon fill="white" stroke="#bfbfbf" points="499,-448.5 499,-467.5 589,-467.5 589,-448.5 499,-448.5"/>
<text text-anchor="middle" x="544" y="-455.5" font-family="Helvetica,sans-Serif" font-size="10.00">AH/STL/iterator</text>
</a>
</g>
</g>
<!-- Node23&#45;&gt;Node25 -->
<g id="edge41" class="edge">
<title>Node23&#45;&gt;Node25</title>
<path fill="none" stroke="midnightblue" d="M392.52,-504.44C423.07,-495.28 471.71,-480.69 505.6,-470.52"/>
<polygon fill="midnightblue" stroke="midnightblue" points="507.04,-473.74 515.61,-467.52 505.03,-467.04 507.04,-473.74"/>
</g>
<!-- Node26&#45;&gt;Node11 -->
<g id="edge44" class="edge">
<title>Node26&#45;&gt;Node11</title>
<path fill="none" stroke="midnightblue" d="M751.71,-683.34C750.93,-656.58 749.33,-572.79 757,-504 762.07,-458.52 777,-448.76 777,-403 777,-403 777,-403 777,-289 777,-230.58 814.27,-169.04 834.42,-140.03"/>
<polygon fill="midnightblue" stroke="midnightblue" points="837.33,-141.97 840.29,-131.8 831.63,-137.91 837.33,-141.97"/>
</g>
<!-- Node26&#45;&gt;Node19 -->
<g id="edge63" class="edge">
<title>Node26&#45;&gt;Node19</title>
<path fill="none" stroke="midnightblue" d="M765.45,-683.37C812.52,-652 967,-538.7 967,-403 967,-403 967,-403 967,-345 967,-305.28 1000.96,-269.5 1023.48,-250.15"/>
<polygon fill="midnightblue" stroke="midnightblue" points="1025.98,-252.63 1031.46,-243.57 1021.52,-247.24 1025.98,-252.63"/>
</g>
<!-- Node26&#45;&gt;Node22 -->
<g id="edge43" class="edge">
<title>Node26&#45;&gt;Node22</title>
<path fill="none" stroke="midnightblue" d="M744.75,-683.32C737.95,-674.68 728.1,-660.77 723,-647 701.09,-587.88 697.41,-512.09 696.94,-477.59"/>
<polygon fill="midnightblue" stroke="midnightblue" points="700.44,-477.54 696.89,-467.56 693.44,-477.58 700.44,-477.54"/>
</g>
<!-- Node27 -->
<g id="node27" class="node">
<title>Node27</title>
<g id="a_node27"><a xlink:href="../../d0/d4e/Def_8hpp.html" target="_top" xlink:title=" ">
<polygon fill="white" stroke="black" points="950,-627.5 950,-646.5 1024,-646.5 1024,-627.5 950,-627.5"/>
<text text-anchor="middle" x="987" y="-634.5" font-family="Helvetica,sans-Serif" font-size="10.00">Def/Def.hpp</text>
</a>
</g>
</g>
<!-- Node26&#45;&gt;Node27 -->
<g id="edge45" class="edge">
<title>Node26&#45;&gt;Node27</title>
<path fill="none" stroke="midnightblue" d="M789.24,-683.44C830.06,-674.06 895.64,-658.99 939.98,-648.8"/>
<polygon fill="midnightblue" stroke="midnightblue" points="940.98,-652.17 949.94,-646.52 939.41,-645.34 940.98,-652.17"/>
</g>
<!-- Node27&#45;&gt;Node12 -->
<g id="edge60" class="edge">
<title>Node27&#45;&gt;Node12</title>
<path fill="none" stroke="midnightblue" d="M1024.27,-635.55C1097.47,-632.49 1253,-614.31 1253,-515 1253,-515 1253,-515 1253,-345 1253,-312.58 1245.7,-275.42 1240.67,-253.64"/>
<polygon fill="midnightblue" stroke="midnightblue" points="1244.03,-252.67 1238.29,-243.77 1237.23,-254.31 1244.03,-252.67"/>
</g>
<!-- Node27&#45;&gt;Node18 -->
<g id="edge61" class="edge">
<title>Node27&#45;&gt;Node18</title>
<path fill="none" stroke="midnightblue" d="M1014.28,-627.45C1031.29,-620.55 1051.83,-608.97 1062,-591 1068.79,-579.01 1066.16,-573.13 1062,-560 1018.72,-423.44 895.11,-294.7 849.86,-250.85"/>
<polygon fill="midnightblue" stroke="midnightblue" points="852.23,-248.28 842.59,-243.89 847.39,-253.33 852.23,-248.28"/>
</g>
<!-- Node27&#45;&gt;Node19 -->
<g id="edge62" class="edge">
<title>Node27&#45;&gt;Node19</title>
<path fill="none" stroke="midnightblue" d="M1024.24,-631.11C1048.84,-625.74 1079.34,-614.49 1095,-591 1168.71,-480.43 1083.99,-307.76 1053.26,-252.58"/>
<polygon fill="midnightblue" stroke="midnightblue" points="1056.19,-250.64 1048.2,-243.68 1050.1,-254.1 1056.19,-250.64"/>
</g>
<!-- Node28 -->
<g id="node28" class="node">
<title>Node28</title>
<g id="a_node28"><a xlink:href="../../d7/d42/Channel_8hpp.html" target="_top" xlink:title=" ">
<polygon fill="white" stroke="black" points="1147.5,-280.5 1147.5,-299.5 1224.5,-299.5 1224.5,-280.5 1147.5,-280.5"/>
<text text-anchor="middle" x="1186" y="-287.5" font-family="Helvetica,sans-Serif" font-size="10.00">Channel.hpp</text>
</a>
</g>
</g>
<!-- Node27&#45;&gt;Node28 -->
<g id="edge46" class="edge">
<title>Node27&#45;&gt;Node28</title>
<path fill="none" stroke="midnightblue" d="M1024.1,-632.63C1056.13,-627.98 1102.01,-616.99 1133,-591 1162.09,-566.61 1172,-552.97 1172,-515 1172,-515 1172,-515 1172,-401 1172,-368.54 1178.07,-331.12 1182.22,-309.36"/>
<polygon fill="midnightblue" stroke="midnightblue" points="1185.66,-310 1184.17,-299.51 1178.79,-308.64 1185.66,-310"/>
</g>
<!-- Node29 -->
<g id="node29" class="node">
<title>Node29</title>
<g id="a_node29"><a xlink:href="../../de/d76/Array_8hpp.html" target="_top" xlink:title=" ">
<polygon fill="white" stroke="black" points="765.5,-504.5 765.5,-523.5 900.5,-523.5 900.5,-504.5 765.5,-504.5"/>
<text text-anchor="middle" x="833" y="-511.5" font-family="Helvetica,sans-Serif" font-size="10.00">AH/Containers/Array.hpp</text>
</a>
</g>
</g>
<!-- Node27&#45;&gt;Node29 -->
<g id="edge49" class="edge">
<title>Node27&#45;&gt;Node29</title>
<path fill="none" stroke="midnightblue" d="M970.77,-627.45C955.33,-619.02 931.75,-605.34 913,-591 888.64,-572.36 863.46,-547.31 848.02,-531.16"/>
<polygon fill="midnightblue" stroke="midnightblue" points="850.29,-528.47 840.88,-523.61 845.2,-533.28 850.29,-528.47"/>
</g>
<!-- Node30 -->
<g id="node30" class="node">
<title>Node30</title>
<g id="a_node30"><a xlink:href="../../d4/d35/Hardware-Types_8hpp.html" target="_top" xlink:title=" ">
<polygon fill="white" stroke="black" points="921.5,-560.5 921.5,-590.5 1052.5,-590.5 1052.5,-560.5 921.5,-560.5"/>
<text text-anchor="start" x="929.5" y="-578.5" font-family="Helvetica,sans-Serif" font-size="10.00">AH/Hardware/Hardware</text>
<text text-anchor="middle" x="987" y="-567.5" font-family="Helvetica,sans-Serif" font-size="10.00">&#45;Types.hpp</text>
</a>
</g>
</g>
<!-- Node27&#45;&gt;Node30 -->
<g id="edge55" class="edge">
<title>Node27&#45;&gt;Node30</title>
<path fill="none" stroke="midnightblue" d="M987,-627.48C987,-620.47 987,-610.19 987,-600.7"/>
<polygon fill="midnightblue" stroke="midnightblue" points="990.5,-600.52 987,-590.52 983.5,-600.52 990.5,-600.52"/>
</g>
<!-- Node28&#45;&gt;Node12 -->
<g id="edge48" class="edge">
<title>Node28&#45;&gt;Node12</title>
<path fill="none" stroke="midnightblue" d="M1194.26,-280.08C1201.46,-272.3 1212.11,-260.8 1220.85,-251.37"/>
<polygon fill="midnightblue" stroke="midnightblue" points="1223.67,-253.47 1227.9,-243.75 1218.53,-248.71 1223.67,-253.47"/>
</g>
<!-- Node28&#45;&gt;Node19 -->
<g id="edge47" class="edge">
<title>Node28&#45;&gt;Node19</title>
<path fill="none" stroke="midnightblue" d="M1163.34,-280.44C1139.6,-271.48 1102.09,-257.31 1075.26,-247.18"/>
<polygon fill="midnightblue" stroke="midnightblue" points="1076.14,-243.77 1065.55,-243.52 1073.67,-250.32 1076.14,-243.77"/>
</g>
<!-- Node29&#45;&gt;Node4 -->
<g id="edge50" class="edge">
<title>Node29&#45;&gt;Node4</title>
<path fill="none" stroke="midnightblue" d="M842.56,-504.32C866.84,-481.28 929,-415.58 929,-347 929,-347 929,-347 929,-177 929,-146.9 930.76,-133.79 910,-112 865.59,-65.38 688.79,-35.11 582.73,-20.76"/>
<polygon fill="midnightblue" stroke="midnightblue" points="583.07,-17.27 572.69,-19.42 582.14,-24.21 583.07,-17.27"/>
</g>
<!-- Node29&#45;&gt;Node11 -->
<g id="edge53" class="edge">
<title>Node29&#45;&gt;Node11</title>
<path fill="none" stroke="midnightblue" d="M835.7,-504.26C841.16,-485.77 853,-441.24 853,-403 853,-403 853,-403 853,-345 853,-290.69 876.07,-277.97 870,-224 866.69,-194.6 858.14,-161.27 852.44,-141.21"/>
<polygon fill="midnightblue" stroke="midnightblue" points="855.78,-140.16 849.63,-131.53 849.06,-142.11 855.78,-140.16"/>
</g>
<!-- Node29&#45;&gt;Node18 -->
<g id="edge54" class="edge">
<title>Node29&#45;&gt;Node18</title>
<path fill="none" stroke="midnightblue" d="M830.57,-504.24C825.66,-485.71 815,-441.12 815,-403 815,-403 815,-403 815,-345 815,-312.54 822.73,-275.38 828.06,-253.63"/>
<polygon fill="midnightblue" stroke="midnightblue" points="831.49,-254.32 830.57,-243.76 824.71,-252.59 831.49,-254.32"/>
</g>
<!-- Node29&#45;&gt;Node22 -->
<g id="edge51" class="edge">
<title>Node29&#45;&gt;Node22</title>
<path fill="none" stroke="midnightblue" d="M811.45,-504.44C788.97,-495.52 753.51,-481.44 728.02,-471.32"/>
<polygon fill="midnightblue" stroke="midnightblue" points="729.03,-467.95 718.45,-467.52 726.45,-474.46 729.03,-467.95"/>
</g>
<!-- Node29&#45;&gt;Node25 -->
<g id="edge52" class="edge">
<title>Node29&#45;&gt;Node25</title>
<path fill="none" stroke="midnightblue" d="M787.21,-504.44C736.11,-494.9 653.48,-479.46 598.95,-469.27"/>
<polygon fill="midnightblue" stroke="midnightblue" points="599.58,-465.82 589.1,-467.43 598.29,-472.7 599.58,-465.82"/>
</g>
<!-- Node30&#45;&gt;Node4 -->
<g id="edge56" class="edge">
<title>Node30&#45;&gt;Node4</title>
<path fill="none" stroke="midnightblue" d="M1002.4,-560.47C1037.22,-527.12 1119,-439.01 1119,-347 1119,-347 1119,-347 1119,-121 1119,-67.17 750.84,-30.9 582.84,-17.16"/>
<polygon fill="midnightblue" stroke="midnightblue" points="583.05,-13.66 572.8,-16.35 582.48,-20.64 583.05,-13.66"/>
</g>
<!-- Node30&#45;&gt;Node6 -->
<g id="edge58" class="edge">
<title>Node30&#45;&gt;Node6</title>
<path fill="none" stroke="midnightblue" d="M973.71,-560.39C959.03,-545.29 934.25,-521.19 910,-504 831.64,-448.47 596.67,-368.15 529,-300 502.11,-272.91 509.09,-256.46 489,-224 455.99,-170.66 410.99,-111.58 389.08,-83.53"/>
<polygon fill="midnightblue" stroke="midnightblue" points="391.74,-81.26 382.81,-75.56 386.24,-85.58 391.74,-81.26"/>
</g>
<!-- Node30&#45;&gt;Node19 -->
<g id="edge59" class="edge">
<title>Node30&#45;&gt;Node19</title>
<path fill="none" stroke="midnightblue" d="M989.33,-560.34C998.2,-506.58 1029.8,-315.02 1039.88,-253.89"/>
<polygon fill="midnightblue" stroke="midnightblue" points="1043.38,-254.21 1041.55,-243.77 1036.47,-253.07 1043.38,-254.21"/>
</g>
<!-- Node30&#45;&gt;Node29 -->
<g id="edge57" class="edge">
<title>Node30&#45;&gt;Node29</title>
<path fill="none" stroke="midnightblue" d="M950.5,-560.4C924.43,-550.33 889.71,-536.91 864.78,-527.28"/>
<polygon fill="midnightblue" stroke="midnightblue" points="866,-524 855.41,-523.66 863.47,-530.53 866,-524"/>
</g>
<!-- Node31&#45;&gt;Node27 -->
<g id="edge66" class="edge">
<title>Node31&#45;&gt;Node27</title>
<path fill="none" stroke="midnightblue" d="M912.3,-683.32C926.18,-674.9 947.49,-661.97 963.8,-652.07"/>
<polygon fill="midnightblue" stroke="midnightblue" points="966,-654.83 972.74,-646.65 962.37,-648.85 966,-654.83"/>
</g>
<!-- Node32&#45;&gt;Node27 -->
<g id="edge68" class="edge">
<title>Node32&#45;&gt;Node27</title>
<path fill="none" stroke="midnightblue" d="M934.65,-739.4C939.53,-730.36 947.38,-715.72 954,-703 962.21,-687.23 971.34,-669.2 977.92,-656.14"/>
<polygon fill="midnightblue" stroke="midnightblue" points="981.21,-657.37 982.57,-646.86 974.96,-654.23 981.21,-657.37"/>
</g>
</g>
</svg>
