<?xml version="1.0" encoding="UTF-8" standalone="no"?>
<!DOCTYPE svg PUBLIC "-//W3C//DTD SVG 1.1//EN"
 "http://www.w3.org/Graphics/SVG/1.1/DTD/svg11.dtd">
<!-- Generated by graphviz version 2.43.0 (0)
 -->
<!-- Title: AnalogMultiplex.hpp Pages: 1 -->
<svg width="1862pt" height="890pt"
 viewBox="0.00 0.00 1861.89 890.00" xmlns="http://www.w3.org/2000/svg" xmlns:xlink="http://www.w3.org/1999/xlink">
<g id="graph0" class="graph" transform="scale(1 1) rotate(0) translate(4 886)">
<title>AnalogMultiplex.hpp</title>
<polygon fill="white" stroke="transparent" points="-4,4 -4,-886 1857.89,-886 1857.89,4 -4,4"/>
<!-- Node1 -->
<g id="node1" class="node">
<title>Node1</title>
<g id="a_node1"><a xlink:title=" ">
<polygon fill="#bfbfbf" stroke="black" points="196.5,-862.5 196.5,-881.5 313.5,-881.5 313.5,-862.5 196.5,-862.5"/>
<text text-anchor="middle" x="255" y="-869.5" font-family="Helvetica,sans-Serif" font-size="10.00">AnalogMultiplex.hpp</text>
</a>
</g>
</g>
<!-- Node2 -->
<g id="node2" class="node">
<title>Node2</title>
<g id="a_node2"><a xlink:href="../../d1/d65/Warnings_8hpp.html" target="_top" xlink:title=" ">
<polygon fill="white" stroke="black" points="716.5,-0.5 716.5,-19.5 859.5,-19.5 859.5,-0.5 716.5,-0.5"/>
<text text-anchor="middle" x="788" y="-7.5" font-family="Helvetica,sans-Serif" font-size="10.00">AH/Settings/Warnings.hpp</text>
</a>
</g>
</g>
<!-- Node1&#45;&gt;Node2 -->
<g id="edge1" class="edge">
<title>Node1&#45;&gt;Node2</title>
<path fill="none" stroke="midnightblue" d="M196.5,-870.38C121.21,-866.14 0,-846.1 0,-761 0,-761 0,-761 0,-121 0,-82.58 22.51,-72.93 57,-56 114.04,-28.01 527.6,-16.3 706.21,-12.5"/>
<polygon fill="midnightblue" stroke="midnightblue" points="706.42,-16 716.34,-12.29 706.27,-9 706.42,-16"/>
</g>
<!-- Node3 -->
<g id="node3" class="node">
<title>Node3</title>
<g id="a_node3"><a xlink:href="../../dd/ddf/ExtendedInputOutput_8hpp.html" target="_top" xlink:title=" ">
<polygon fill="white" stroke="black" points="1472.5,-694.5 1472.5,-713.5 1613.5,-713.5 1613.5,-694.5 1472.5,-694.5"/>
<text text-anchor="middle" x="1543" y="-701.5" font-family="Helvetica,sans-Serif" font-size="10.00">ExtendedInputOutput.hpp</text>
</a>
</g>
</g>
<!-- Node1&#45;&gt;Node3 -->
<g id="edge2" class="edge">
<title>Node1&#45;&gt;Node3</title>
<path fill="none" stroke="midnightblue" d="M313.74,-869.54C520.3,-863.86 1212.06,-839.94 1421,-770 1458.57,-757.42 1498.42,-734.04 1521.98,-719.01"/>
<polygon fill="midnightblue" stroke="midnightblue" points="1523.98,-721.89 1530.46,-713.52 1520.17,-716.02 1523.98,-721.89"/>
</g>
<!-- Node6 -->
<g id="node6" class="node">
<title>Node6</title>
<g id="a_node6"><a xlink:href="../../de/d76/Array_8hpp.html" target="_top" xlink:title=" ">
<polygon fill="white" stroke="black" points="1093.5,-504.5 1093.5,-523.5 1228.5,-523.5 1228.5,-504.5 1093.5,-504.5"/>
<text text-anchor="middle" x="1161" y="-511.5" font-family="Helvetica,sans-Serif" font-size="10.00">AH/Containers/Array.hpp</text>
</a>
</g>
</g>
<!-- Node1&#45;&gt;Node6 -->
<g id="edge82" class="edge">
<title>Node1&#45;&gt;Node6</title>
<path fill="none" stroke="midnightblue" d="M313.61,-869.08C497.66,-862.26 1052,-835.55 1052,-761 1052,-761 1052,-761 1052,-641.5 1052,-590.31 1103.85,-549.56 1136.03,-529.19"/>
<polygon fill="midnightblue" stroke="midnightblue" points="1138.21,-531.97 1144.92,-523.77 1134.56,-525.99 1138.21,-531.97"/>
</g>
<!-- Node31 -->
<g id="node31" class="node">
<title>Node31</title>
<g id="a_node31"><a xlink:href="../../d2/d05/StaticSizeExtendedIOElement_8hpp.html" target="_top" xlink:title=" ">
<polygon fill="white" stroke="black" points="164,-806.5 164,-825.5 346,-825.5 346,-806.5 164,-806.5"/>
<text text-anchor="middle" x="255" y="-813.5" font-family="Helvetica,sans-Serif" font-size="10.00">StaticSizeExtendedIOElement.hpp</text>
</a>
</g>
</g>
<!-- Node1&#45;&gt;Node31 -->
<g id="edge56" class="edge">
<title>Node1&#45;&gt;Node31</title>
<path fill="none" stroke="midnightblue" d="M255,-862.08C255,-855.01 255,-844.86 255,-835.99"/>
<polygon fill="midnightblue" stroke="midnightblue" points="258.5,-835.75 255,-825.75 251.5,-835.75 258.5,-835.75"/>
</g>
<!-- Node36 -->
<g id="node36" class="node">
<title>Node36</title>
<g id="a_node36"><a xlink:title=" ">
<polygon fill="white" stroke="#bfbfbf" points="98.5,-392.5 98.5,-411.5 151.5,-411.5 151.5,-392.5 98.5,-392.5"/>
<text text-anchor="middle" x="125" y="-399.5" font-family="Helvetica,sans-Serif" font-size="10.00">stdlib.h</text>
</a>
</g>
</g>
<!-- Node1&#45;&gt;Node36 -->
<g id="edge83" class="edge">
<title>Node1&#45;&gt;Node36</title>
<path fill="none" stroke="midnightblue" d="M205.14,-862.45C152.17,-850.16 76,-821.91 76,-761 76,-761 76,-761 76,-513 76,-477.47 97.6,-440.63 112.12,-419.88"/>
<polygon fill="midnightblue" stroke="midnightblue" points="115.13,-421.69 118.19,-411.54 109.47,-417.57 115.13,-421.69"/>
</g>
<!-- Node3&#45;&gt;Node2 -->
<g id="edge55" class="edge">
<title>Node3&#45;&gt;Node2</title>
<path fill="none" stroke="midnightblue" d="M1613.55,-695.02C1663.2,-687.96 1723.91,-675.97 1742,-658 1768.39,-631.79 1761,-613.69 1761,-576.5 1761,-576.5 1761,-576.5 1761,-513 1761,-456.05 1576.61,-87.25 1529,-56 1474.97,-20.54 1050.7,-13.02 869.54,-11.43"/>
<polygon fill="midnightblue" stroke="midnightblue" points="869.56,-7.93 859.53,-11.34 869.5,-14.93 869.56,-7.93"/>
</g>
<!-- Node4 -->
<g id="node4" class="node">
<title>Node4</title>
<g id="a_node4"><a xlink:href="../../d2/d3c/Arduino-Hardware-Types_8hpp.html" target="_top" xlink:title=" ">
<polygon fill="white" stroke="black" points="1611,-627.5 1611,-657.5 1733,-657.5 1733,-627.5 1611,-627.5"/>
<text text-anchor="start" x="1619" y="-645.5" font-family="Helvetica,sans-Serif" font-size="10.00">AH/Hardware/Arduino</text>
<text text-anchor="middle" x="1672" y="-634.5" font-family="Helvetica,sans-Serif" font-size="10.00">&#45;Hardware&#45;Types.hpp</text>
</a>
</g>
</g>
<!-- Node3&#45;&gt;Node4 -->
<g id="edge3" class="edge">
<title>Node3&#45;&gt;Node4</title>
<path fill="none" stroke="midnightblue" d="M1561.48,-694.48C1579.93,-685.96 1608.87,-672.62 1632.5,-661.72"/>
<polygon fill="midnightblue" stroke="midnightblue" points="1633.98,-664.89 1641.6,-657.52 1631.05,-658.53 1633.98,-664.89"/>
</g>
<!-- Node10 -->
<g id="node10" class="node">
<title>Node10</title>
<g id="a_node10"><a xlink:href="../../d6/db0/AH_2Settings_2NamespaceSettings_8hpp.html" target="_top" xlink:title=" ">
<polygon fill="white" stroke="black" points="1044.5,-56.5 1044.5,-75.5 1239.5,-75.5 1239.5,-56.5 1044.5,-56.5"/>
<text text-anchor="middle" x="1142" y="-63.5" font-family="Helvetica,sans-Serif" font-size="10.00">AH/Settings/NamespaceSettings.hpp</text>
</a>
</g>
</g>
<!-- Node3&#45;&gt;Node10 -->
<g id="edge54" class="edge">
<title>Node3&#45;&gt;Node10</title>
<path fill="none" stroke="midnightblue" d="M1530.66,-694.46C1519.87,-686.33 1504.62,-673.11 1496,-658 1477.58,-625.69 1477,-613.69 1477,-576.5 1477,-576.5 1477,-576.5 1477,-457 1477,-267.4 1246.36,-123.93 1167.82,-80.58"/>
<polygon fill="midnightblue" stroke="midnightblue" points="1169.07,-77.27 1158.61,-75.57 1165.73,-83.42 1169.07,-77.27"/>
</g>
<!-- Node30 -->
<g id="node30" class="node">
<title>Node30</title>
<g id="a_node30"><a xlink:title=" ">
<polygon fill="white" stroke="#bfbfbf" points="1505.5,-633 1505.5,-652 1592.5,-652 1592.5,-633 1505.5,-633"/>
<text text-anchor="middle" x="1549" y="-640" font-family="Helvetica,sans-Serif" font-size="10.00">AH/STL/climits</text>
</a>
</g>
</g>
<!-- Node3&#45;&gt;Node30 -->
<g id="edge53" class="edge">
<title>Node3&#45;&gt;Node30</title>
<path fill="none" stroke="midnightblue" d="M1543.86,-694.48C1544.71,-686.08 1546.03,-672.98 1547.12,-662.16"/>
<polygon fill="midnightblue" stroke="midnightblue" points="1550.62,-662.31 1548.14,-652.01 1543.66,-661.61 1550.62,-662.31"/>
</g>
<!-- Node4&#45;&gt;Node2 -->
<g id="edge4" class="edge">
<title>Node4&#45;&gt;Node2</title>
<path fill="none" stroke="midnightblue" d="M1682.65,-627.22C1735.21,-554.97 1957.96,-226.4 1795,-56 1763.21,-22.76 1104.41,-13.77 869.94,-11.61"/>
<polygon fill="midnightblue" stroke="midnightblue" points="869.8,-8.11 859.77,-11.52 869.74,-15.11 869.8,-8.11"/>
</g>
<!-- Node5 -->
<g id="node5" class="node">
<title>Node5</title>
<g id="a_node5"><a xlink:href="../../d4/d35/Hardware-Types_8hpp.html" target="_top" xlink:title=" ">
<polygon fill="white" stroke="black" points="1279.5,-560.5 1279.5,-590.5 1410.5,-590.5 1410.5,-560.5 1279.5,-560.5"/>
<text text-anchor="start" x="1287.5" y="-578.5" font-family="Helvetica,sans-Serif" font-size="10.00">AH/Hardware/Hardware</text>
<text text-anchor="middle" x="1345" y="-567.5" font-family="Helvetica,sans-Serif" font-size="10.00">&#45;Types.hpp</text>
</a>
</g>
</g>
<!-- Node4&#45;&gt;Node5 -->
<g id="edge5" class="edge">
<title>Node4&#45;&gt;Node5</title>
<path fill="none" stroke="midnightblue" d="M1610.92,-628.81C1607.91,-628.2 1604.92,-627.59 1602,-627 1540.99,-614.69 1471.75,-601.1 1420.53,-591.13"/>
<polygon fill="midnightblue" stroke="midnightblue" points="1421.01,-587.66 1410.53,-589.18 1419.68,-594.53 1421.01,-587.66"/>
</g>
<!-- Node11 -->
<g id="node11" class="node">
<title>Node11</title>
<g id="a_node11"><a xlink:href="../../d6/ddf/Arduino-Wrapper_8h.html" target="_top" xlink:title=" ">
<polygon fill="white" stroke="black" points="716,-168.5 716,-187.5 840,-187.5 840,-168.5 716,-168.5"/>
<text text-anchor="middle" x="778" y="-175.5" font-family="Helvetica,sans-Serif" font-size="10.00">AH/Arduino&#45;Wrapper.h</text>
</a>
</g>
</g>
<!-- Node4&#45;&gt;Node11 -->
<g id="edge52" class="edge">
<title>Node4&#45;&gt;Node11</title>
<path fill="none" stroke="midnightblue" d="M1610.98,-628.5C1607.95,-627.97 1604.94,-627.46 1602,-627 1455.38,-603.92 1417.39,-608.48 1270,-591 1060.36,-566.13 467.11,-626.79 328,-468 322.14,-461.31 323.69,-455.77 328,-448 373.62,-365.77 604.87,-269.79 687,-224 707.75,-212.43 731.87,-200.57 750.07,-191.93"/>
<polygon fill="midnightblue" stroke="midnightblue" points="751.69,-195.04 759.25,-187.61 748.71,-188.7 751.69,-195.04"/>
</g>
<!-- Node27 -->
<g id="node27" class="node">
<title>Node27</title>
<g id="a_node27"><a xlink:href="../../d0/db1/FunctionTraits_8hpp.html" target="_top" xlink:title=" ">
<polygon fill="white" stroke="black" points="1595.5,-112.5 1595.5,-131.5 1748.5,-131.5 1748.5,-112.5 1595.5,-112.5"/>
<text text-anchor="middle" x="1672" y="-119.5" font-family="Helvetica,sans-Serif" font-size="10.00">AH/Types/FunctionTraits.hpp</text>
</a>
</g>
</g>
<!-- Node4&#45;&gt;Node27 -->
<g id="edge47" class="edge">
<title>Node4&#45;&gt;Node27</title>
<path fill="none" stroke="midnightblue" d="M1672,-627.46C1672,-604.12 1672,-555.85 1672,-515 1672,-515 1672,-515 1672,-233 1672,-200.95 1672,-163.64 1672,-141.75"/>
<polygon fill="midnightblue" stroke="midnightblue" points="1675.5,-141.56 1672,-131.56 1668.5,-141.56 1675.5,-141.56"/>
</g>
<!-- Node5&#45;&gt;Node2 -->
<g id="edge6" class="edge">
<title>Node5&#45;&gt;Node2</title>
<path fill="none" stroke="midnightblue" d="M1353.36,-560.19C1359,-550.22 1366.41,-536.53 1372,-524 1378.96,-508.4 1477,-252.08 1477,-235 1477,-235 1477,-235 1477,-121 1477,-58.78 1412.78,-73.26 1353,-56 1264.61,-30.47 1003.87,-18.23 869.74,-13.48"/>
<polygon fill="midnightblue" stroke="midnightblue" points="869.64,-9.98 859.52,-13.13 869.39,-16.97 869.64,-9.98"/>
</g>
<!-- Node5&#45;&gt;Node6 -->
<g id="edge7" class="edge">
<title>Node5&#45;&gt;Node6</title>
<path fill="none" stroke="midnightblue" d="M1301.39,-560.4C1269.6,-550.12 1227.03,-536.35 1197.13,-526.68"/>
<polygon fill="midnightblue" stroke="midnightblue" points="1198.1,-523.32 1187.51,-523.57 1195.94,-529.98 1198.1,-523.32"/>
</g>
<!-- Node5&#45;&gt;Node10 -->
<g id="edge45" class="edge">
<title>Node5&#45;&gt;Node10</title>
<path fill="none" stroke="midnightblue" d="M1348.64,-560.39C1353.9,-538.73 1363,-495.94 1363,-459 1363,-459 1363,-459 1363,-345 1363,-279.45 1210.55,-131.01 1158.88,-82.59"/>
<polygon fill="midnightblue" stroke="midnightblue" points="1161.2,-79.97 1151.5,-75.71 1156.43,-85.09 1161.2,-79.97"/>
</g>
<!-- Node23 -->
<g id="node23" class="node">
<title>Node23</title>
<g id="a_node23"><a xlink:title=" ">
<polygon fill="white" stroke="#bfbfbf" points="1170.5,-224.5 1170.5,-243.5 1223.5,-243.5 1223.5,-224.5 1170.5,-224.5"/>
<text text-anchor="middle" x="1197" y="-231.5" font-family="Helvetica,sans-Serif" font-size="10.00">stdint.h</text>
</a>
</g>
</g>
<!-- Node5&#45;&gt;Node23 -->
<g id="edge46" class="edge">
<title>Node5&#45;&gt;Node23</title>
<path fill="none" stroke="midnightblue" d="M1332.41,-560.34C1315.36,-539.63 1287,-499.16 1287,-459 1287,-459 1287,-459 1287,-345 1287,-302.66 1246.56,-267.66 1219.9,-249.18"/>
<polygon fill="midnightblue" stroke="midnightblue" points="1221.72,-246.19 1211.46,-243.56 1217.84,-252.02 1221.72,-246.19"/>
</g>
<!-- Node6&#45;&gt;Node2 -->
<g id="edge8" class="edge">
<title>Node6&#45;&gt;Node2</title>
<path fill="none" stroke="midnightblue" d="M1183.15,-504.48C1200.51,-496.93 1224.43,-484.55 1241,-468 1345.33,-363.79 1404,-326.47 1404,-179 1404,-179 1404,-179 1404,-121 1404,-67.24 1352.9,-73.28 1302,-56 1224.24,-29.6 994.22,-17.93 869.91,-13.44"/>
<polygon fill="midnightblue" stroke="midnightblue" points="869.8,-9.93 859.69,-13.07 869.56,-16.93 869.8,-9.93"/>
</g>
<!-- Node7 -->
<g id="node7" class="node">
<title>Node7</title>
<g id="a_node7"><a xlink:href="../../d1/d93/Error_8hpp.html" target="_top" xlink:title=" ">
<polygon fill="white" stroke="black" points="1079,-448.5 1079,-467.5 1183,-467.5 1183,-448.5 1079,-448.5"/>
<text text-anchor="middle" x="1131" y="-455.5" font-family="Helvetica,sans-Serif" font-size="10.00">AH/Error/Error.hpp</text>
</a>
</g>
</g>
<!-- Node6&#45;&gt;Node7 -->
<g id="edge9" class="edge">
<title>Node6&#45;&gt;Node7</title>
<path fill="none" stroke="midnightblue" d="M1156.05,-504.08C1151.9,-496.61 1145.85,-485.72 1140.73,-476.52"/>
<polygon fill="midnightblue" stroke="midnightblue" points="1143.78,-474.79 1135.86,-467.75 1137.66,-478.19 1143.78,-474.79"/>
</g>
<!-- Node15 -->
<g id="node15" class="node">
<title>Node15</title>
<g id="a_node15"><a xlink:title=" ">
<polygon fill="white" stroke="#bfbfbf" points="854.5,-112.5 854.5,-131.5 961.5,-131.5 961.5,-112.5 854.5,-112.5"/>
<text text-anchor="middle" x="908" y="-119.5" font-family="Helvetica,sans-Serif" font-size="10.00">AH/STL/type_traits</text>
</a>
</g>
</g>
<!-- Node6&#45;&gt;Node15 -->
<g id="edge43" class="edge">
<title>Node6&#45;&gt;Node15</title>
<path fill="none" stroke="midnightblue" d="M1170.59,-504.48C1183.99,-491.55 1205.24,-466.5 1192,-448 1118.22,-344.91 1014.35,-442.85 922,-356 867.47,-304.72 905.55,-262.72 910,-188 910.92,-172.48 910.28,-154.86 909.48,-141.88"/>
<polygon fill="midnightblue" stroke="midnightblue" points="912.97,-141.57 908.78,-131.84 905.98,-142.06 912.97,-141.57"/>
</g>
<!-- Node22 -->
<g id="node22" class="node">
<title>Node22</title>
<g id="a_node22"><a xlink:title=" ">
<polygon fill="white" stroke="#bfbfbf" points="948,-224.5 948,-243.5 1004,-243.5 1004,-224.5 948,-224.5"/>
<text text-anchor="middle" x="976" y="-231.5" font-family="Helvetica,sans-Serif" font-size="10.00">stddef.h</text>
</a>
</g>
</g>
<!-- Node6&#45;&gt;Node22 -->
<g id="edge44" class="edge">
<title>Node6&#45;&gt;Node22</title>
<path fill="none" stroke="midnightblue" d="M1181.2,-504.38C1204.79,-492.99 1238.9,-471.61 1225,-448 1145.48,-312.98 959.37,-446.96 905,-300 901.92,-291.66 900.72,-287.79 905,-280 912.89,-265.66 927.49,-255.25 941.4,-248.08"/>
<polygon fill="midnightblue" stroke="midnightblue" points="943.29,-251.06 950.84,-243.62 940.3,-244.73 943.29,-251.06"/>
</g>
<!-- Node26 -->
<g id="node26" class="node">
<title>Node26</title>
<g id="a_node26"><a xlink:title=" ">
<polygon fill="white" stroke="#bfbfbf" points="479,-392.5 479,-411.5 569,-411.5 569,-392.5 479,-392.5"/>
<text text-anchor="middle" x="524" y="-399.5" font-family="Helvetica,sans-Serif" font-size="10.00">AH/STL/iterator</text>
</a>
</g>
</g>
<!-- Node6&#45;&gt;Node26 -->
<g id="edge42" class="edge">
<title>Node6&#45;&gt;Node26</title>
<path fill="none" stroke="midnightblue" d="M1139.14,-504.49C1101.93,-490.37 1023.66,-462.26 955,-448 821.85,-420.34 661.84,-409.3 579.29,-405.21"/>
<polygon fill="midnightblue" stroke="midnightblue" points="579.29,-401.7 569.13,-404.72 578.95,-408.7 579.29,-401.7"/>
</g>
<!-- Node7&#45;&gt;Node2 -->
<g id="edge10" class="edge">
<title>Node7&#45;&gt;Node2</title>
<path fill="none" stroke="midnightblue" d="M1143.62,-448.33C1187.1,-417.35 1328,-307.07 1328,-179 1328,-179 1328,-179 1328,-121 1328,-82.28 1304.56,-73.45 1270,-56 1202.03,-21.67 988.76,-13.39 869.96,-11.49"/>
<polygon fill="midnightblue" stroke="midnightblue" points="869.87,-7.99 859.82,-11.34 869.77,-14.99 869.87,-7.99"/>
</g>
<!-- Node8 -->
<g id="node8" class="node">
<title>Node8</title>
<g id="a_node8"><a xlink:href="../../df/dee/Debug_8hpp.html" target="_top" xlink:title=" ">
<polygon fill="white" stroke="black" points="699.5,-392.5 699.5,-411.5 820.5,-411.5 820.5,-392.5 699.5,-392.5"/>
<text text-anchor="middle" x="760" y="-399.5" font-family="Helvetica,sans-Serif" font-size="10.00">AH/Debug/Debug.hpp</text>
</a>
</g>
</g>
<!-- Node7&#45;&gt;Node8 -->
<g id="edge11" class="edge">
<title>Node7&#45;&gt;Node8</title>
<path fill="none" stroke="midnightblue" d="M1078.63,-449.38C1013.1,-439.84 900.73,-423.48 828.45,-412.96"/>
<polygon fill="midnightblue" stroke="midnightblue" points="828.92,-409.5 818.52,-411.52 827.91,-416.42 828.92,-409.5"/>
</g>
<!-- Node8&#45;&gt;Node2 -->
<g id="edge12" class="edge">
<title>Node8&#45;&gt;Node2</title>
<path fill="none" stroke="midnightblue" d="M699.29,-394.21C600.54,-381.47 416,-349.78 416,-291 416,-291 416,-291 416,-121 416,-60.92 596.72,-31.15 706.23,-18.63"/>
<polygon fill="midnightblue" stroke="midnightblue" points="706.73,-22.1 716.27,-17.51 705.95,-15.14 706.73,-22.1"/>
</g>
<!-- Node9 -->
<g id="node9" class="node">
<title>Node9</title>
<g id="a_node9"><a xlink:href="../../dd/d80/PrintStream_8hpp.html" target="_top" xlink:title=" ">
<polygon fill="white" stroke="black" points="444.5,-224.5 444.5,-243.5 617.5,-243.5 617.5,-224.5 444.5,-224.5"/>
<text text-anchor="middle" x="531" y="-231.5" font-family="Helvetica,sans-Serif" font-size="10.00">AH/PrintStream/PrintStream.hpp</text>
</a>
</g>
</g>
<!-- Node8&#45;&gt;Node9 -->
<g id="edge13" class="edge">
<title>Node8&#45;&gt;Node9</title>
<path fill="none" stroke="midnightblue" d="M748.01,-392.31C710.91,-365.42 597.7,-283.35 551.23,-249.67"/>
<polygon fill="midnightblue" stroke="midnightblue" points="553.02,-246.64 542.87,-243.61 548.91,-252.31 553.02,-246.64"/>
</g>
<!-- Node17 -->
<g id="node17" class="node">
<title>Node17</title>
<g id="a_node17"><a xlink:href="../../de/dd1/AH_2Settings_2SettingsWrapper_8hpp.html" target="_top" xlink:title=" ">
<polygon fill="white" stroke="black" points="962,-336.5 962,-355.5 1140,-355.5 1140,-336.5 962,-336.5"/>
<text text-anchor="middle" x="1051" y="-343.5" font-family="Helvetica,sans-Serif" font-size="10.00">AH/Settings/SettingsWrapper.hpp</text>
</a>
</g>
</g>
<!-- Node8&#45;&gt;Node17 -->
<g id="edge26" class="edge">
<title>Node8&#45;&gt;Node17</title>
<path fill="none" stroke="midnightblue" d="M801.02,-392.44C850.33,-382.9 933.32,-367.48 990.1,-357.29"/>
<polygon fill="midnightblue" stroke="midnightblue" points="990.8,-360.72 1000.03,-355.52 989.57,-353.83 990.8,-360.72"/>
</g>
<!-- Node25 -->
<g id="node25" class="node">
<title>Node25</title>
<g id="a_node25"><a xlink:href="../../d7/d52/DebugVal_8hpp.html" target="_top" xlink:title=" ">
<polygon fill="white" stroke="black" points="718,-336.5 718,-355.5 802,-355.5 802,-336.5 718,-336.5"/>
<text text-anchor="middle" x="760" y="-343.5" font-family="Helvetica,sans-Serif" font-size="10.00">DebugVal.hpp</text>
</a>
</g>
</g>
<!-- Node8&#45;&gt;Node25 -->
<g id="edge41" class="edge">
<title>Node8&#45;&gt;Node25</title>
<path fill="none" stroke="midnightblue" d="M760,-392.08C760,-385.01 760,-374.86 760,-365.99"/>
<polygon fill="midnightblue" stroke="midnightblue" points="763.5,-365.75 760,-355.75 756.5,-365.75 763.5,-365.75"/>
</g>
<!-- Node9&#45;&gt;Node2 -->
<g id="edge15" class="edge">
<title>Node9&#45;&gt;Node2</title>
<path fill="none" stroke="midnightblue" d="M513.07,-224.36C491.29,-212.62 459.07,-190.51 473,-168 528.36,-78.55 651.71,-38.41 726.58,-21.71"/>
<polygon fill="midnightblue" stroke="midnightblue" points="727.77,-25.03 736.81,-19.5 726.29,-18.19 727.77,-25.03"/>
</g>
<!-- Node9&#45;&gt;Node10 -->
<g id="edge14" class="edge">
<title>Node9&#45;&gt;Node10</title>
<path fill="none" stroke="midnightblue" d="M562.24,-224.46C590.58,-216.32 633.25,-203.11 669,-188 686.58,-180.57 689.69,-176.04 707,-168 767.03,-140.11 781.17,-129.52 845,-112 907.98,-94.71 980.41,-83.57 1037.98,-76.7"/>
<polygon fill="midnightblue" stroke="midnightblue" points="1038.66,-80.14 1048.19,-75.5 1037.85,-73.19 1038.66,-80.14"/>
</g>
<!-- Node9&#45;&gt;Node11 -->
<g id="edge16" class="edge">
<title>Node9&#45;&gt;Node11</title>
<path fill="none" stroke="midnightblue" d="M570.14,-224.44C613.23,-215.02 682.56,-199.87 729.17,-189.68"/>
<polygon fill="midnightblue" stroke="midnightblue" points="730.02,-193.07 739.05,-187.52 728.53,-186.23 730.02,-193.07"/>
</g>
<!-- Node16 -->
<g id="node16" class="node">
<title>Node16</title>
<g id="a_node16"><a xlink:title=" ">
<polygon fill="white" stroke="#bfbfbf" points="482,-168.5 482,-187.5 660,-187.5 660,-168.5 482,-168.5"/>
<text text-anchor="middle" x="571" y="-175.5" font-family="Helvetica,sans-Serif" font-size="10.00">Settings/NamespaceSettings.hpp</text>
</a>
</g>
</g>
<!-- Node9&#45;&gt;Node16 -->
<g id="edge25" class="edge">
<title>Node9&#45;&gt;Node16</title>
<path fill="none" stroke="midnightblue" d="M537.61,-224.08C543.26,-216.46 551.54,-205.26 558.45,-195.94"/>
<polygon fill="midnightblue" stroke="midnightblue" points="561.38,-197.87 564.52,-187.75 555.75,-193.7 561.38,-197.87"/>
</g>
<!-- Node12 -->
<g id="node12" class="node">
<title>Node12</title>
<g id="a_node12"><a xlink:href="../../d7/d79/MinMaxFix_8hpp.html" target="_top" xlink:title=" ">
<polygon fill="white" stroke="black" points="624,-112.5 624,-131.5 760,-131.5 760,-112.5 624,-112.5"/>
<text text-anchor="middle" x="692" y="-119.5" font-family="Helvetica,sans-Serif" font-size="10.00">AH/Math/MinMaxFix.hpp</text>
</a>
</g>
</g>
<!-- Node11&#45;&gt;Node12 -->
<g id="edge17" class="edge">
<title>Node11&#45;&gt;Node12</title>
<path fill="none" stroke="midnightblue" d="M764.18,-168.32C750.77,-159.9 730.18,-146.97 714.41,-137.07"/>
<polygon fill="midnightblue" stroke="midnightblue" points="716.11,-134.01 705.78,-131.65 712.39,-139.94 716.11,-134.01"/>
</g>
<!-- Node14 -->
<g id="node14" class="node">
<title>Node14</title>
<g id="a_node14"><a xlink:title=" ">
<polygon fill="white" stroke="#bfbfbf" points="101.5,-0.5 101.5,-19.5 164.5,-19.5 164.5,-0.5 101.5,-0.5"/>
<text text-anchor="middle" x="133" y="-7.5" font-family="Helvetica,sans-Serif" font-size="10.00">Arduino.h</text>
</a>
</g>
</g>
<!-- Node11&#45;&gt;Node14 -->
<g id="edge24" class="edge">
<title>Node11&#45;&gt;Node14</title>
<path fill="none" stroke="midnightblue" d="M715.93,-170.03C551.42,-151.27 115.31,-99.54 95,-76 81.76,-60.66 98.48,-40.07 113.74,-26.21"/>
<polygon fill="midnightblue" stroke="midnightblue" points="116.09,-28.8 121.41,-19.64 111.54,-23.48 116.09,-28.8"/>
</g>
<!-- Node11&#45;&gt;Node15 -->
<g id="edge23" class="edge">
<title>Node11&#45;&gt;Node15</title>
<path fill="none" stroke="midnightblue" d="M798.6,-168.44C819.99,-159.56 853.68,-145.56 878.02,-135.45"/>
<polygon fill="midnightblue" stroke="midnightblue" points="879.61,-138.58 887.5,-131.52 876.92,-132.12 879.61,-138.58"/>
</g>
<!-- Node12&#45;&gt;Node2 -->
<g id="edge18" class="edge">
<title>Node12&#45;&gt;Node2</title>
<path fill="none" stroke="midnightblue" d="M699.53,-112.37C715.52,-94.05 753.05,-51.05 773.72,-27.36"/>
<polygon fill="midnightblue" stroke="midnightblue" points="776.56,-29.43 780.5,-19.59 771.29,-24.82 776.56,-29.43"/>
</g>
<!-- Node12&#45;&gt;Node10 -->
<g id="edge22" class="edge">
<title>Node12&#45;&gt;Node10</title>
<path fill="none" stroke="midnightblue" d="M760.35,-112.8C841.11,-103.11 975.34,-87 1061.19,-76.7"/>
<polygon fill="midnightblue" stroke="midnightblue" points="1061.64,-80.17 1071.15,-75.5 1060.81,-73.22 1061.64,-80.17"/>
</g>
<!-- Node13 -->
<g id="node13" class="node">
<title>Node13</title>
<g id="a_node13"><a xlink:href="../../d6/d3b/FixArduinoMacros_8hpp.html" target="_top" xlink:title=" ">
<polygon fill="white" stroke="black" points="104,-56.5 104,-75.5 274,-75.5 274,-56.5 104,-56.5"/>
<text text-anchor="middle" x="189" y="-63.5" font-family="Helvetica,sans-Serif" font-size="10.00">AH/Math/FixArduinoMacros.hpp</text>
</a>
</g>
</g>
<!-- Node12&#45;&gt;Node13 -->
<g id="edge19" class="edge">
<title>Node12&#45;&gt;Node13</title>
<path fill="none" stroke="midnightblue" d="M623.9,-113.69C534.51,-104.09 377.39,-87.22 278.48,-76.61"/>
<polygon fill="midnightblue" stroke="midnightblue" points="278.81,-73.12 268.5,-75.53 278.07,-80.08 278.81,-73.12"/>
</g>
<!-- Node13&#45;&gt;Node2 -->
<g id="edge20" class="edge">
<title>Node13&#45;&gt;Node2</title>
<path fill="none" stroke="midnightblue" d="M274.06,-57.26C278.77,-56.84 283.45,-56.41 288,-56 435.34,-42.67 607.11,-27.23 706.14,-18.34"/>
<polygon fill="midnightblue" stroke="midnightblue" points="706.73,-21.81 716.38,-17.43 706.1,-14.83 706.73,-21.81"/>
</g>
<!-- Node13&#45;&gt;Node14 -->
<g id="edge21" class="edge">
<title>Node13&#45;&gt;Node14</title>
<path fill="none" stroke="midnightblue" d="M180,-56.32C171.81,-48.42 159.49,-36.55 149.53,-26.94"/>
<polygon fill="midnightblue" stroke="midnightblue" points="151.79,-24.26 142.16,-19.83 146.93,-29.29 151.79,-24.26"/>
</g>
<!-- Node17&#45;&gt;Node2 -->
<g id="edge27" class="edge">
<title>Node17&#45;&gt;Node2</title>
<path fill="none" stroke="midnightblue" d="M1129.94,-336.41C1157.26,-330.05 1186.41,-319.03 1208,-300 1290.43,-227.33 1321.83,-137.4 1248,-56 1223.16,-28.61 995.63,-17.33 870.16,-13.17"/>
<polygon fill="midnightblue" stroke="midnightblue" points="869.93,-9.66 859.82,-12.83 869.71,-16.65 869.93,-9.66"/>
</g>
<!-- Node17&#45;&gt;Node8 -->
<g id="edge40" class="edge">
<title>Node17&#45;&gt;Node8</title>
<path fill="none" stroke="midnightblue" d="M1010.19,-355.52C960.97,-365.04 877.99,-380.46 821.14,-390.66"/>
<polygon fill="midnightblue" stroke="midnightblue" points="820.43,-387.24 811.2,-392.44 821.66,-394.13 820.43,-387.24"/>
</g>
<!-- Node17&#45;&gt;Node10 -->
<g id="edge28" class="edge">
<title>Node17&#45;&gt;Node10</title>
<path fill="none" stroke="midnightblue" d="M1133.45,-336.41C1155.67,-329.89 1177.31,-318.77 1191,-300 1207.63,-277.18 1172.02,-270 1161,-244 1138.13,-190.04 1138.72,-118.89 1140.56,-85.64"/>
<polygon fill="midnightblue" stroke="midnightblue" points="1144.06,-85.75 1141.23,-75.54 1137.07,-85.29 1144.06,-85.75"/>
</g>
<!-- Node18 -->
<g id="node18" class="node">
<title>Node18</title>
<g id="a_node18"><a xlink:href="../../d5/d4f/AH_2Settings_2Settings_8hpp.html" target="_top" xlink:title="All user settings and debugging options can be changed here.">
<polygon fill="white" stroke="black" points="1105.5,-280.5 1105.5,-299.5 1182.5,-299.5 1182.5,-280.5 1105.5,-280.5"/>
<text text-anchor="middle" x="1144" y="-287.5" font-family="Helvetica,sans-Serif" font-size="10.00">Settings.hpp</text>
</a>
</g>
</g>
<!-- Node17&#45;&gt;Node18 -->
<g id="edge29" class="edge">
<title>Node17&#45;&gt;Node18</title>
<path fill="none" stroke="midnightblue" d="M1065.94,-336.32C1080.59,-327.82 1103.13,-314.73 1120.24,-304.8"/>
<polygon fill="midnightblue" stroke="midnightblue" points="1122.2,-307.7 1129.1,-299.65 1118.69,-301.65 1122.2,-307.7"/>
</g>
<!-- Node24 -->
<g id="node24" class="node">
<title>Node24</title>
<g id="a_node24"><a xlink:href="../../d9/d98/TeensyUSBTypes_8hpp.html" target="_top" xlink:title=" ">
<polygon fill="white" stroke="black" points="914.5,-280.5 914.5,-299.5 1087.5,-299.5 1087.5,-280.5 914.5,-280.5"/>
<text text-anchor="middle" x="1001" y="-287.5" font-family="Helvetica,sans-Serif" font-size="10.00">AH/Teensy/TeensyUSBTypes.hpp</text>
</a>
</g>
</g>
<!-- Node17&#45;&gt;Node24 -->
<g id="edge39" class="edge">
<title>Node17&#45;&gt;Node24</title>
<path fill="none" stroke="midnightblue" d="M1042.74,-336.08C1035.54,-328.3 1024.89,-316.8 1016.15,-307.37"/>
<polygon fill="midnightblue" stroke="midnightblue" points="1018.47,-304.71 1009.1,-299.75 1013.33,-309.47 1018.47,-304.71"/>
</g>
<!-- Node19 -->
<g id="node19" class="node">
<title>Node19</title>
<g id="a_node19"><a xlink:href="../../dc/d50/Frequency_8hpp.html" target="_top" xlink:title=" ">
<polygon fill="white" stroke="black" points="980,-112.5 980,-131.5 1114,-131.5 1114,-112.5 980,-112.5"/>
<text text-anchor="middle" x="1047" y="-119.5" font-family="Helvetica,sans-Serif" font-size="10.00">AH/Types/Frequency.hpp</text>
</a>
</g>
</g>
<!-- Node18&#45;&gt;Node19 -->
<g id="edge30" class="edge">
<title>Node18&#45;&gt;Node19</title>
<path fill="none" stroke="midnightblue" d="M1138.78,-280.08C1123.32,-253.61 1077.51,-175.21 1057.06,-140.21"/>
<polygon fill="midnightblue" stroke="midnightblue" points="1060.07,-138.44 1052.01,-131.57 1054.03,-141.97 1060.07,-138.44"/>
</g>
<!-- Node20 -->
<g id="node20" class="node">
<title>Node20</title>
<g id="a_node20"><a xlink:href="../../d7/d7c/ADCConfig_8hpp.html" target="_top" xlink:title="This file contains the platform&#45;specific ADC resolutions.">
<polygon fill="white" stroke="black" points="696.5,-224.5 696.5,-243.5 853.5,-243.5 853.5,-224.5 696.5,-224.5"/>
<text text-anchor="middle" x="775" y="-231.5" font-family="Helvetica,sans-Serif" font-size="10.00">AH/Hardware/ADCConfig.hpp</text>
</a>
</g>
</g>
<!-- Node18&#45;&gt;Node20 -->
<g id="edge33" class="edge">
<title>Node18&#45;&gt;Node20</title>
<path fill="none" stroke="midnightblue" d="M1105.25,-281.58C1102.13,-281.03 1099.01,-280.49 1096,-280 1013.11,-266.43 917.75,-253.38 852.64,-244.87"/>
<polygon fill="midnightblue" stroke="midnightblue" points="852.83,-241.36 842.46,-243.54 851.92,-248.3 852.83,-241.36"/>
</g>
<!-- Node21 -->
<g id="node21" class="node">
<title>Node21</title>
<g id="a_node21"><a xlink:title=" ">
<polygon fill="white" stroke="#bfbfbf" points="1022.5,-224.5 1022.5,-243.5 1075.5,-243.5 1075.5,-224.5 1022.5,-224.5"/>
<text text-anchor="middle" x="1049" y="-231.5" font-family="Helvetica,sans-Serif" font-size="10.00">limits.h</text>
</a>
</g>
</g>
<!-- Node18&#45;&gt;Node21 -->
<g id="edge36" class="edge">
<title>Node18&#45;&gt;Node21</title>
<path fill="none" stroke="midnightblue" d="M1128.74,-280.32C1113.78,-271.82 1090.75,-258.73 1073.27,-248.8"/>
<polygon fill="midnightblue" stroke="midnightblue" points="1074.65,-245.55 1064.23,-243.65 1071.19,-251.64 1074.65,-245.55"/>
</g>
<!-- Node18&#45;&gt;Node22 -->
<g id="edge37" class="edge">
<title>Node18&#45;&gt;Node22</title>
<path fill="none" stroke="midnightblue" d="M1117.38,-280.44C1088.99,-271.32 1043.86,-256.81 1012.25,-246.65"/>
<polygon fill="midnightblue" stroke="midnightblue" points="1013.09,-243.24 1002.5,-243.52 1010.94,-249.91 1013.09,-243.24"/>
</g>
<!-- Node18&#45;&gt;Node23 -->
<g id="edge38" class="edge">
<title>Node18&#45;&gt;Node23</title>
<path fill="none" stroke="midnightblue" d="M1152.75,-280.08C1160.47,-272.22 1171.9,-260.57 1181.22,-251.08"/>
<polygon fill="midnightblue" stroke="midnightblue" points="1183.9,-253.34 1188.41,-243.75 1178.91,-248.44 1183.9,-253.34"/>
</g>
<!-- Node19&#45;&gt;Node2 -->
<g id="edge31" class="edge">
<title>Node19&#45;&gt;Node2</title>
<path fill="none" stroke="midnightblue" d="M1026.68,-112.37C981.1,-93.01 870.56,-46.06 817.45,-23.51"/>
<polygon fill="midnightblue" stroke="midnightblue" points="818.8,-20.28 808.23,-19.59 816.06,-26.72 818.8,-20.28"/>
</g>
<!-- Node19&#45;&gt;Node10 -->
<g id="edge32" class="edge">
<title>Node19&#45;&gt;Node10</title>
<path fill="none" stroke="midnightblue" d="M1062.26,-112.32C1077.22,-103.82 1100.25,-90.73 1117.73,-80.8"/>
<polygon fill="midnightblue" stroke="midnightblue" points="1119.81,-83.64 1126.77,-75.65 1116.35,-77.55 1119.81,-83.64"/>
</g>
<!-- Node20&#45;&gt;Node2 -->
<g id="edge34" class="edge">
<title>Node20&#45;&gt;Node2</title>
<path fill="none" stroke="midnightblue" d="M801.93,-224.36C818.72,-217.41 838.98,-205.82 849,-188 864.94,-159.65 818.68,-67.46 797.73,-28.57"/>
<polygon fill="midnightblue" stroke="midnightblue" points="800.64,-26.6 792.78,-19.5 794.5,-29.96 800.64,-26.6"/>
</g>
<!-- Node20&#45;&gt;Node11 -->
<g id="edge35" class="edge">
<title>Node20&#45;&gt;Node11</title>
<path fill="none" stroke="midnightblue" d="M775.5,-224.08C775.89,-217.01 776.45,-206.86 776.95,-197.99"/>
<polygon fill="midnightblue" stroke="midnightblue" points="780.45,-197.93 777.51,-187.75 773.46,-197.54 780.45,-197.93"/>
</g>
<!-- Node27&#45;&gt;Node2 -->
<g id="edge50" class="edge">
<title>Node27&#45;&gt;Node2</title>
<path fill="none" stroke="midnightblue" d="M1710.2,-112.44C1749.89,-101.9 1802.98,-82.14 1778,-56 1746.82,-23.37 1101.34,-14 869.78,-11.68"/>
<polygon fill="midnightblue" stroke="midnightblue" points="869.77,-8.18 859.73,-11.58 869.7,-15.18 869.77,-8.18"/>
</g>
<!-- Node27&#45;&gt;Node10 -->
<g id="edge51" class="edge">
<title>Node27&#45;&gt;Node10</title>
<path fill="none" stroke="midnightblue" d="M1595.5,-113.21C1500.34,-103.51 1337.95,-86.96 1235.5,-76.53"/>
<polygon fill="midnightblue" stroke="midnightblue" points="1235.78,-73.04 1225.47,-75.5 1235.07,-80 1235.78,-73.04"/>
</g>
<!-- Node28 -->
<g id="node28" class="node">
<title>Node28</title>
<g id="a_node28"><a xlink:title=" ">
<polygon fill="white" stroke="#bfbfbf" points="1679,-56.5 1679,-75.5 1769,-75.5 1769,-56.5 1679,-56.5"/>
<text text-anchor="middle" x="1724" y="-63.5" font-family="Helvetica,sans-Serif" font-size="10.00">AH/STL/cstddef</text>
</a>
</g>
</g>
<!-- Node27&#45;&gt;Node28 -->
<g id="edge48" class="edge">
<title>Node27&#45;&gt;Node28</title>
<path fill="none" stroke="midnightblue" d="M1680.59,-112.08C1688.16,-104.22 1699.38,-92.57 1708.51,-83.08"/>
<polygon fill="midnightblue" stroke="midnightblue" points="1711.16,-85.38 1715.57,-75.75 1706.12,-80.53 1711.16,-85.38"/>
</g>
<!-- Node29 -->
<g id="node29" class="node">
<title>Node29</title>
<g id="a_node29"><a xlink:title=" ">
<polygon fill="white" stroke="#bfbfbf" points="1581.5,-56.5 1581.5,-75.5 1660.5,-75.5 1660.5,-56.5 1581.5,-56.5"/>
<text text-anchor="middle" x="1621" y="-63.5" font-family="Helvetica,sans-Serif" font-size="10.00">AH/STL/tuple</text>
</a>
</g>
</g>
<!-- Node27&#45;&gt;Node29 -->
<g id="edge49" class="edge">
<title>Node27&#45;&gt;Node29</title>
<path fill="none" stroke="midnightblue" d="M1663.58,-112.08C1656.15,-104.22 1645.15,-92.57 1636.19,-83.08"/>
<polygon fill="midnightblue" stroke="midnightblue" points="1638.68,-80.62 1629.26,-75.75 1633.59,-85.42 1638.68,-80.62"/>
</g>
<!-- Node31&#45;&gt;Node2 -->
<g id="edge57" class="edge">
<title>Node31&#45;&gt;Node2</title>
<path fill="none" stroke="midnightblue" d="M225.1,-806.45C183.71,-792.56 114,-760.89 114,-705 114,-705 114,-705 114,-641.5 114,-553.64 38,-546.86 38,-459 38,-459 38,-459 38,-121 38,-82.58 60.53,-72.98 95,-56 148.59,-29.59 534.6,-17.1 706.17,-12.81"/>
<polygon fill="midnightblue" stroke="midnightblue" points="706.5,-16.3 716.41,-12.55 706.33,-9.3 706.5,-16.3"/>
</g>
<!-- Node32 -->
<g id="node32" class="node">
<title>Node32</title>
<g id="a_node32"><a xlink:href="../../d4/d57/ExtendedIOElement_8hpp.html" target="_top" xlink:title=" ">
<polygon fill="white" stroke="black" points="1278,-750.5 1278,-769.5 1412,-769.5 1412,-750.5 1278,-750.5"/>
<text text-anchor="middle" x="1345" y="-757.5" font-family="Helvetica,sans-Serif" font-size="10.00">ExtendedIOElement.hpp</text>
</a>
</g>
</g>
<!-- Node31&#45;&gt;Node32 -->
<g id="edge58" class="edge">
<title>Node31&#45;&gt;Node32</title>
<path fill="none" stroke="midnightblue" d="M346.06,-810.49C556.17,-800.08 1071.85,-774.53 1267.77,-764.83"/>
<polygon fill="midnightblue" stroke="midnightblue" points="1268.16,-768.31 1277.98,-764.32 1267.82,-761.32 1268.16,-768.31"/>
</g>
<!-- Node39 -->
<g id="node39" class="node">
<title>Node39</title>
<g id="a_node39"><a xlink:href="../../d5/db6/ArrayHelpers_8hpp.html" target="_top" xlink:title=" ">
<polygon fill="white" stroke="black" points="168,-566 168,-585 342,-585 342,-566 168,-566"/>
<text text-anchor="middle" x="255" y="-573" font-family="Helvetica,sans-Serif" font-size="10.00">AH/Containers/ArrayHelpers.hpp</text>
</a>
</g>
</g>
<!-- Node31&#45;&gt;Node39 -->
<g id="edge77" class="edge">
<title>Node31&#45;&gt;Node39</title>
<path fill="none" stroke="midnightblue" d="M255,-806.23C255,-771.6 255,-643.93 255,-595.4"/>
<polygon fill="midnightblue" stroke="midnightblue" points="258.5,-595.1 255,-585.1 251.5,-595.1 258.5,-595.1"/>
</g>
<!-- Node32&#45;&gt;Node2 -->
<g id="edge59" class="edge">
<title>Node32&#45;&gt;Node2</title>
<path fill="none" stroke="midnightblue" d="M1359.69,-750.26C1386.12,-733.29 1439,-693.14 1439,-643.5 1439,-643.5 1439,-643.5 1439,-457 1439,-352.71 1515,-339.29 1515,-235 1515,-235 1515,-235 1515,-121 1515,-67.99 1465.25,-72.88 1415,-56 1316.24,-22.83 1016.06,-14.11 869.82,-11.82"/>
<polygon fill="midnightblue" stroke="midnightblue" points="869.61,-8.31 859.56,-11.66 869.51,-15.31 869.61,-8.31"/>
</g>
<!-- Node32&#45;&gt;Node3 -->
<g id="edge60" class="edge">
<title>Node32&#45;&gt;Node3</title>
<path fill="none" stroke="midnightblue" d="M1376.37,-750.44C1410.26,-741.2 1464.4,-726.44 1501.72,-716.26"/>
<polygon fill="midnightblue" stroke="midnightblue" points="1503.05,-719.52 1511.77,-713.52 1501.2,-712.77 1503.05,-719.52"/>
</g>
<!-- Node32&#45;&gt;Node5 -->
<g id="edge76" class="edge">
<title>Node32&#45;&gt;Node5</title>
<path fill="none" stroke="midnightblue" d="M1345,-750.2C1345,-723.39 1345,-642.09 1345,-600.93"/>
<polygon fill="midnightblue" stroke="midnightblue" points="1348.5,-600.69 1345,-590.69 1341.5,-600.69 1348.5,-600.69"/>
</g>
<!-- Node33 -->
<g id="node33" class="node">
<title>Node33</title>
<g id="a_node33"><a xlink:href="../../d4/d93/Updatable_8hpp.html" target="_top" xlink:title=" ">
<polygon fill="white" stroke="black" points="759.5,-504.5 759.5,-523.5 920.5,-523.5 920.5,-504.5 759.5,-504.5"/>
<text text-anchor="middle" x="840" y="-511.5" font-family="Helvetica,sans-Serif" font-size="10.00">AH/Containers/Updatable.hpp</text>
</a>
</g>
</g>
<!-- Node32&#45;&gt;Node33 -->
<g id="edge61" class="edge">
<title>Node32&#45;&gt;Node33</title>
<path fill="none" stroke="midnightblue" d="M1327.32,-750.46C1252.03,-714.08 957.8,-571.92 866.9,-528"/>
<polygon fill="midnightblue" stroke="midnightblue" points="868.32,-524.8 857.8,-523.6 865.28,-531.1 868.32,-524.8"/>
</g>
<!-- Node33&#45;&gt;Node2 -->
<g id="edge62" class="edge">
<title>Node33&#45;&gt;Node2</title>
<path fill="none" stroke="midnightblue" d="M759.31,-511.73C622.42,-508.73 356.68,-498.94 328,-468 220.3,-351.81 254.46,-241.3 346,-112 368.82,-79.76 378.64,-71.41 415,-56 465.84,-34.45 612.62,-21.72 706.17,-15.57"/>
<polygon fill="midnightblue" stroke="midnightblue" points="706.43,-19.06 716.18,-14.92 705.98,-12.08 706.43,-19.06"/>
</g>
<!-- Node33&#45;&gt;Node7 -->
<g id="edge71" class="edge">
<title>Node33&#45;&gt;Node7</title>
<path fill="none" stroke="midnightblue" d="M886.11,-504.44C937.41,-494.92 1020.27,-479.55 1075.19,-469.36"/>
<polygon fill="midnightblue" stroke="midnightblue" points="1075.91,-472.78 1085.11,-467.52 1074.64,-465.9 1075.91,-472.78"/>
</g>
<!-- Node33&#45;&gt;Node15 -->
<g id="edge72" class="edge">
<title>Node33&#45;&gt;Node15</title>
<path fill="none" stroke="midnightblue" d="M759.33,-512.17C681.13,-509.45 570.41,-499.88 543,-468 537.2,-461.26 538.83,-455.85 543,-448 558.84,-418.2 766.98,-297.22 796,-280 824.73,-262.95 840.03,-269.18 862,-244 888.25,-213.91 900.22,-167.29 905.09,-141.59"/>
<polygon fill="midnightblue" stroke="midnightblue" points="908.55,-142.12 906.81,-131.67 901.65,-140.93 908.55,-142.12"/>
</g>
<!-- Node33&#45;&gt;Node17 -->
<g id="edge74" class="edge">
<title>Node33&#45;&gt;Node17</title>
<path fill="none" stroke="midnightblue" d="M907.96,-504.43C954.44,-497.16 1010.52,-485.16 1027,-468 1053.49,-440.42 1054.7,-392.44 1053.01,-365.94"/>
<polygon fill="midnightblue" stroke="midnightblue" points="1056.48,-365.39 1052.14,-355.72 1049.5,-365.98 1056.48,-365.39"/>
</g>
<!-- Node33&#45;&gt;Node22 -->
<g id="edge75" class="edge">
<title>Node33&#45;&gt;Node22</title>
<path fill="none" stroke="midnightblue" d="M897.78,-504.45C919.44,-498.12 941.95,-487.12 955,-468 1006.49,-392.56 821.85,-356.34 872,-280 886.49,-257.94 914.35,-246.64 937.59,-240.89"/>
<polygon fill="midnightblue" stroke="midnightblue" points="938.54,-244.26 947.55,-238.68 937.03,-237.43 938.54,-244.26"/>
</g>
<!-- Node34 -->
<g id="node34" class="node">
<title>Node34</title>
<g id="a_node34"><a xlink:href="../../d4/dba/CRTP_8hpp.html" target="_top" xlink:title=" ">
<polygon fill="white" stroke="black" points="552,-448.5 552,-467.5 686,-467.5 686,-448.5 552,-448.5"/>
<text text-anchor="middle" x="619" y="-455.5" font-family="Helvetica,sans-Serif" font-size="10.00">AH/Containers/CRTP.hpp</text>
</a>
</g>
</g>
<!-- Node33&#45;&gt;Node34 -->
<g id="edge63" class="edge">
<title>Node33&#45;&gt;Node34</title>
<path fill="none" stroke="midnightblue" d="M804.98,-504.44C766.75,-495.1 705.43,-480.12 663.74,-469.93"/>
<polygon fill="midnightblue" stroke="midnightblue" points="664.4,-466.49 653.85,-467.52 662.74,-473.29 664.4,-466.49"/>
</g>
<!-- Node35 -->
<g id="node35" class="node">
<title>Node35</title>
<g id="a_node35"><a xlink:href="../../de/dd1/LinkedList_8hpp.html" target="_top" xlink:title=" ">
<polygon fill="white" stroke="black" points="337.5,-448.5 337.5,-467.5 496.5,-467.5 496.5,-448.5 337.5,-448.5"/>
<text text-anchor="middle" x="417" y="-455.5" font-family="Helvetica,sans-Serif" font-size="10.00">AH/Containers/LinkedList.hpp</text>
</a>
</g>
</g>
<!-- Node33&#45;&gt;Node35 -->
<g id="edge64" class="edge">
<title>Node33&#45;&gt;Node35</title>
<path fill="none" stroke="midnightblue" d="M772.97,-504.44C697.02,-494.75 573.44,-478.97 493.7,-468.79"/>
<polygon fill="midnightblue" stroke="midnightblue" points="494.07,-465.31 483.71,-467.52 493.19,-472.25 494.07,-465.31"/>
</g>
<!-- Node37 -->
<g id="node37" class="node">
<title>Node37</title>
<g id="a_node37"><a xlink:href="../../d4/d84/Mutex_8hpp.html" target="_top" xlink:title=" ">
<polygon fill="white" stroke="black" points="704.5,-448.5 704.5,-467.5 845.5,-467.5 845.5,-448.5 704.5,-448.5"/>
<text text-anchor="middle" x="775" y="-455.5" font-family="Helvetica,sans-Serif" font-size="10.00">AH/Containers/Mutex.hpp</text>
</a>
</g>
</g>
<!-- Node33&#45;&gt;Node37 -->
<g id="edge70" class="edge">
<title>Node33&#45;&gt;Node37</title>
<path fill="none" stroke="midnightblue" d="M829.56,-504.32C819.85,-496.26 805.18,-484.08 793.5,-474.37"/>
<polygon fill="midnightblue" stroke="midnightblue" points="795.56,-471.53 785.63,-467.83 791.09,-476.92 795.56,-471.53"/>
</g>
<!-- Node38 -->
<g id="node38" class="node">
<title>Node38</title>
<g id="a_node38"><a xlink:title=" ">
<polygon fill="white" stroke="#bfbfbf" points="863.5,-448.5 863.5,-467.5 946.5,-467.5 946.5,-448.5 863.5,-448.5"/>
<text text-anchor="middle" x="905" y="-455.5" font-family="Helvetica,sans-Serif" font-size="10.00">AH/STL/utility</text>
</a>
</g>
</g>
<!-- Node33&#45;&gt;Node38 -->
<g id="edge73" class="edge">
<title>Node33&#45;&gt;Node38</title>
<path fill="none" stroke="midnightblue" d="M850.44,-504.32C860.15,-496.26 874.82,-484.08 886.5,-474.37"/>
<polygon fill="midnightblue" stroke="midnightblue" points="888.91,-476.92 894.37,-467.83 884.44,-471.53 888.91,-476.92"/>
</g>
<!-- Node35&#45;&gt;Node2 -->
<g id="edge65" class="edge">
<title>Node35&#45;&gt;Node2</title>
<path fill="none" stroke="midnightblue" d="M405.31,-448.47C383.76,-431.66 340,-391.99 340,-347 340,-347 340,-347 340,-177 340,-101.57 391.29,-89.23 459,-56 501.23,-35.28 623.31,-22.69 706.28,-16.28"/>
<polygon fill="midnightblue" stroke="midnightblue" points="706.75,-19.76 716.45,-15.51 706.22,-12.78 706.75,-19.76"/>
</g>
<!-- Node35&#45;&gt;Node8 -->
<g id="edge66" class="edge">
<title>Node35&#45;&gt;Node8</title>
<path fill="none" stroke="midnightblue" d="M471.35,-448.44C532.31,-438.85 631.11,-423.29 695.82,-413.1"/>
<polygon fill="midnightblue" stroke="midnightblue" points="696.57,-416.53 705.9,-411.52 695.48,-409.61 696.57,-416.53"/>
</g>
<!-- Node35&#45;&gt;Node12 -->
<g id="edge67" class="edge">
<title>Node35&#45;&gt;Node12</title>
<path fill="none" stroke="midnightblue" d="M413.4,-448.18C403.75,-423.68 378,-352.58 378,-291 378,-291 378,-291 378,-233 378,-181.66 529.42,-148.58 621.96,-133.15"/>
<polygon fill="midnightblue" stroke="midnightblue" points="622.53,-136.61 631.83,-131.54 621.4,-129.7 622.53,-136.61"/>
</g>
<!-- Node35&#45;&gt;Node26 -->
<g id="edge69" class="edge">
<title>Node35&#45;&gt;Node26</title>
<path fill="none" stroke="midnightblue" d="M434.19,-448.32C451.35,-439.66 477.95,-426.24 497.75,-416.25"/>
<polygon fill="midnightblue" stroke="midnightblue" points="499.5,-419.28 506.85,-411.65 496.35,-413.04 499.5,-419.28"/>
</g>
<!-- Node35&#45;&gt;Node36 -->
<g id="edge68" class="edge">
<title>Node35&#45;&gt;Node36</title>
<path fill="none" stroke="midnightblue" d="M370.73,-448.44C312.84,-437.74 214.87,-419.62 161.81,-409.81"/>
<polygon fill="midnightblue" stroke="midnightblue" points="162.29,-406.34 151.82,-407.96 161.01,-413.22 162.29,-406.34"/>
</g>
<!-- Node39&#45;&gt;Node2 -->
<g id="edge78" class="edge">
<title>Node39&#45;&gt;Node2</title>
<path fill="none" stroke="midnightblue" d="M253.01,-565.98C250.78,-555.99 247.32,-538.9 246,-524 245.22,-515.15 245.76,-512.89 246,-504 251.54,-297 192.93,-156.47 374,-56 429.22,-25.36 601.84,-15.58 705.94,-12.46"/>
<polygon fill="midnightblue" stroke="midnightblue" points="706.2,-15.96 716.1,-12.17 706,-8.96 706.2,-15.96"/>
</g>
<!-- Node39&#45;&gt;Node6 -->
<g id="edge79" class="edge">
<title>Node39&#45;&gt;Node6</title>
<path fill="none" stroke="midnightblue" d="M342.28,-568.77C518.74,-557.18 915.35,-531.13 1083.4,-520.1"/>
<polygon fill="midnightblue" stroke="midnightblue" points="1083.66,-523.59 1093.41,-519.44 1083.2,-516.6 1083.66,-523.59"/>
</g>
<!-- Node39&#45;&gt;Node9 -->
<g id="edge81" class="edge">
<title>Node39&#45;&gt;Node9</title>
<path fill="none" stroke="midnightblue" d="M252.89,-565.97C249.96,-552.42 245.75,-525.33 253,-504 263.09,-474.29 274.73,-471.07 296,-448 370.21,-367.48 470.92,-283.53 512.19,-250.07"/>
<polygon fill="midnightblue" stroke="midnightblue" points="514.48,-252.72 520.06,-243.71 510.09,-247.27 514.48,-252.72"/>
</g>
<!-- Node40 -->
<g id="node40" class="node">
<title>Node40</title>
<g id="a_node40"><a xlink:title=" ">
<polygon fill="white" stroke="#bfbfbf" points="262.5,-504.5 262.5,-523.5 363.5,-523.5 363.5,-504.5 262.5,-504.5"/>
<text text-anchor="middle" x="313" y="-511.5" font-family="Helvetica,sans-Serif" font-size="10.00">AH/STL/algorithm</text>
</a>
</g>
</g>
<!-- Node39&#45;&gt;Node40 -->
<g id="edge80" class="edge">
<title>Node39&#45;&gt;Node40</title>
<path fill="none" stroke="midnightblue" d="M263.31,-565.98C272.18,-556.87 286.45,-542.24 297.42,-530.98"/>
<polygon fill="midnightblue" stroke="midnightblue" points="300.23,-533.11 304.71,-523.51 295.22,-528.23 300.23,-533.11"/>
</g>
</g>
</svg>
