<?xml version="1.0" encoding="UTF-8" standalone="no"?>
<!DOCTYPE svg PUBLIC "-//W3C//DTD SVG 1.1//EN"
 "http://www.w3.org/Graphics/SVG/1.1/DTD/svg11.dtd">
<!-- Generated by graphviz version 2.38.0 (20140413.2041)
 -->
<!-- Title: BluetoothMIDI_Interface.hpp Pages: 1 -->
<svg width="2169pt" height="733pt"
 viewBox="0.00 0.00 2168.50 733.00" xmlns="http://www.w3.org/2000/svg" xmlns:xlink="http://www.w3.org/1999/xlink">
<g id="graph0" class="graph" transform="scale(1 1) rotate(0) translate(4 729)">
<title>BluetoothMIDI_Interface.hpp</title>
<polygon fill="white" stroke="none" points="-4,4 -4,-729 2164.5,-729 2164.5,4 -4,4"/>
<!-- Node1 -->
<g id="node1" class="node"><title>Node1</title>
<g id="a_node1"><a xlink:title=" ">
<polygon fill="#bfbfbf" stroke="black" points="727,-705.5 727,-724.5 869,-724.5 869,-705.5 727,-705.5"/>
<text text-anchor="middle" x="798" y="-712.5" font-family="Helvetica,sans-Serif" font-size="10.00">BluetoothMIDI_Interface.hpp</text>
</a>
</g>
</g>
<!-- Node2 -->
<g id="node2" class="node"><title>Node2</title>
<g id="a_node2"><a xlink:href="../../d0/dc9/BLEMIDI_8hpp.html" target="_top" xlink:title=" ">
<polygon fill="white" stroke="black" points="218,-649.5 218,-668.5 294,-668.5 294,-649.5 218,-649.5"/>
<text text-anchor="middle" x="256" y="-656.5" font-family="Helvetica,sans-Serif" font-size="10.00">BLEMIDI.hpp</text>
</a>
</g>
</g>
<!-- Node1&#45;&gt;Node2 -->
<g id="edge1" class="edge"><title>Node1&#45;&gt;Node2</title>
<path fill="none" stroke="midnightblue" d="M726.865,-706.913C614.776,-695.745 399.975,-674.344 304.179,-664.8"/>
<polygon fill="midnightblue" stroke="midnightblue" points="304.49,-661.314 294.192,-663.805 303.796,-668.279 304.49,-661.314"/>
</g>
<!-- Node7 -->
<g id="node7" class="node"><title>Node7</title>
<g id="a_node7"><a xlink:href="../../d1/d93/Error_8hpp.html" target="_top" xlink:title=" ">
<polygon fill="white" stroke="black" points="783,-280.5 783,-299.5 881,-299.5 881,-280.5 783,-280.5"/>
<text text-anchor="middle" x="832" y="-287.5" font-family="Helvetica,sans-Serif" font-size="10.00">AH/Error/Error.hpp</text>
</a>
</g>
</g>
<!-- Node1&#45;&gt;Node7 -->
<g id="edge81" class="edge"><title>Node1&#45;&gt;Node7</title>
<path fill="none" stroke="midnightblue" d="M798,-705.307C798,-686.062 798,-638.404 798,-598.5 798,-598.5 798,-598.5 798,-417.5 798,-377.682 813.905,-333.157 823.958,-308.989"/>
<polygon fill="midnightblue" stroke="midnightblue" points="827.227,-310.247 827.966,-299.678 820.797,-307.479 827.227,-310.247"/>
</g>
<!-- Node22 -->
<g id="node22" class="node"><title>Node22</title>
<g id="a_node22"><a xlink:href="../../d1/d23/SerialMIDI__Interface_8hpp.html" target="_top" xlink:title=" ">
<polygon fill="white" stroke="black" points="908.5,-649.5 908.5,-668.5 1033.5,-668.5 1033.5,-649.5 908.5,-649.5"/>
<text text-anchor="middle" x="971" y="-656.5" font-family="Helvetica,sans-Serif" font-size="10.00">SerialMIDI_Interface.hpp</text>
</a>
</g>
</g>
<!-- Node1&#45;&gt;Node22 -->
<g id="edge29" class="edge"><title>Node1&#45;&gt;Node22</title>
<path fill="none" stroke="midnightblue" d="M825.412,-705.444C854.769,-696.28 901.519,-681.688 934.096,-671.519"/>
<polygon fill="midnightblue" stroke="midnightblue" points="935.213,-674.837 943.716,-668.516 933.127,-668.155 935.213,-674.837"/>
</g>
<!-- Node3 -->
<g id="node3" class="node"><title>Node3</title>
<g id="a_node3"><a xlink:title=" ">
<polygon fill="white" stroke="#bfbfbf" points="264.5,-588 264.5,-607 329.5,-607 329.5,-588 264.5,-588"/>
<text text-anchor="middle" x="297" y="-595" font-family="Helvetica,sans-Serif" font-size="10.00">BLE2902.h</text>
</a>
</g>
</g>
<!-- Node2&#45;&gt;Node3 -->
<g id="edge2" class="edge"><title>Node2&#45;&gt;Node3</title>
<path fill="none" stroke="midnightblue" d="M261.874,-649.475C267.963,-640.638 277.645,-626.589 285.303,-615.475"/>
<polygon fill="midnightblue" stroke="midnightblue" points="288.344,-617.229 291.137,-607.009 282.58,-613.258 288.344,-617.229"/>
</g>
<!-- Node4 -->
<g id="node4" class="node"><title>Node4</title>
<g id="a_node4"><a xlink:title=" ">
<polygon fill="white" stroke="#bfbfbf" points="0,-588 0,-607 74,-607 74,-588 0,-588"/>
<text text-anchor="middle" x="37" y="-595" font-family="Helvetica,sans-Serif" font-size="10.00">BLEDevice.h</text>
</a>
</g>
</g>
<!-- Node2&#45;&gt;Node4 -->
<g id="edge3" class="edge"><title>Node2&#45;&gt;Node4</title>
<path fill="none" stroke="midnightblue" d="M221.065,-649.468C186.022,-640.779 130.573,-626.676 83,-613 79.6804,-612.046 76.2362,-611.023 72.7939,-609.977"/>
<polygon fill="midnightblue" stroke="midnightblue" points="73.7897,-606.622 63.2021,-607.013 71.7226,-613.31 73.7897,-606.622"/>
</g>
<!-- Node5 -->
<g id="node5" class="node"><title>Node5</title>
<g id="a_node5"><a xlink:title=" ">
<polygon fill="white" stroke="#bfbfbf" points="92,-588 92,-607 164,-607 164,-588 92,-588"/>
<text text-anchor="middle" x="128" y="-595" font-family="Helvetica,sans-Serif" font-size="10.00">BLEServer.h</text>
</a>
</g>
</g>
<!-- Node2&#45;&gt;Node5 -->
<g id="edge4" class="edge"><title>Node2&#45;&gt;Node5</title>
<path fill="none" stroke="midnightblue" d="M237.661,-649.475C216.179,-639.49 180.378,-622.848 155.552,-611.307"/>
<polygon fill="midnightblue" stroke="midnightblue" points="156.849,-608.051 146.305,-607.009 153.898,-614.398 156.849,-608.051"/>
</g>
<!-- Node6 -->
<g id="node6" class="node"><title>Node6</title>
<g id="a_node6"><a xlink:title=" ">
<polygon fill="white" stroke="#bfbfbf" points="182,-588 182,-607 246,-607 246,-588 182,-588"/>
<text text-anchor="middle" x="214" y="-595" font-family="Helvetica,sans-Serif" font-size="10.00">BLEUtils.h</text>
</a>
</g>
</g>
<!-- Node2&#45;&gt;Node6 -->
<g id="edge5" class="edge"><title>Node2&#45;&gt;Node6</title>
<path fill="none" stroke="midnightblue" d="M249.982,-649.475C243.745,-640.638 233.827,-626.589 225.982,-615.475"/>
<polygon fill="midnightblue" stroke="midnightblue" points="228.633,-613.16 220.006,-607.009 222.914,-617.197 228.633,-613.16"/>
</g>
<!-- Node2&#45;&gt;Node7 -->
<g id="edge6" class="edge"><title>Node2&#45;&gt;Node7</title>
<path fill="none" stroke="midnightblue" d="M284.683,-649.496C343.439,-630.11 472,-576.753 472,-481 472,-481 472,-481 472,-417.5 472,-354.574 670.252,-315.378 772.514,-299.346"/>
<polygon fill="midnightblue" stroke="midnightblue" points="773.348,-302.759 782.698,-297.776 772.282,-295.84 773.348,-302.759"/>
</g>
<!-- Node8 -->
<g id="node8" class="node"><title>Node8</title>
<g id="a_node8"><a xlink:href="../../d1/d65/Warnings_8hpp.html" target="_top" xlink:title=" ">
<polygon fill="white" stroke="black" points="983.5,-0.5 983.5,-19.5 1116.5,-19.5 1116.5,-0.5 983.5,-0.5"/>
<text text-anchor="middle" x="1050" y="-7.5" font-family="Helvetica,sans-Serif" font-size="10.00">AH/Settings/Warnings.hpp</text>
</a>
</g>
</g>
<!-- Node7&#45;&gt;Node8 -->
<g id="edge7" class="edge"><title>Node7&#45;&gt;Node8</title>
<path fill="none" stroke="midnightblue" d="M881.195,-285.508C945.492,-277.962 1050,-254.141 1050,-179 1050,-179 1050,-179 1050,-121 1050,-88.948 1050,-51.6426 1050,-29.7489"/>
<polygon fill="midnightblue" stroke="midnightblue" points="1053.5,-29.5577 1050,-19.5578 1046.5,-29.5578 1053.5,-29.5577"/>
</g>
<!-- Node9 -->
<g id="node9" class="node"><title>Node9</title>
<g id="a_node9"><a xlink:href="../../df/dee/Debug_8hpp.html" target="_top" xlink:title=" ">
<polygon fill="white" stroke="black" points="645.5,-224.5 645.5,-243.5 758.5,-243.5 758.5,-224.5 645.5,-224.5"/>
<text text-anchor="middle" x="702" y="-231.5" font-family="Helvetica,sans-Serif" font-size="10.00">AH/Debug/Debug.hpp</text>
</a>
</g>
</g>
<!-- Node7&#45;&gt;Node9 -->
<g id="edge8" class="edge"><title>Node7&#45;&gt;Node9</title>
<path fill="none" stroke="midnightblue" d="M811.401,-280.444C790.007,-271.557 756.319,-257.563 731.976,-247.451"/>
<polygon fill="midnightblue" stroke="midnightblue" points="733.08,-244.12 722.503,-243.516 730.395,-250.585 733.08,-244.12"/>
</g>
<!-- Node9&#45;&gt;Node8 -->
<g id="edge9" class="edge"><title>Node9&#45;&gt;Node8</title>
<path fill="none" stroke="midnightblue" d="M721.648,-224.497C769.299,-203.377 893.726,-145.207 984,-76 1003.24,-61.2527 1022.7,-41.3399 1035.45,-27.4556"/>
<polygon fill="midnightblue" stroke="midnightblue" points="1038.36,-29.4573 1042.47,-19.6898 1033.17,-24.7658 1038.36,-29.4573"/>
</g>
<!-- Node10 -->
<g id="node10" class="node"><title>Node10</title>
<g id="a_node10"><a xlink:href="../../dd/d80/PrintStream_8hpp.html" target="_top" xlink:title=" ">
<polygon fill="white" stroke="black" points="371.5,-56.5 371.5,-75.5 530.5,-75.5 530.5,-56.5 371.5,-56.5"/>
<text text-anchor="middle" x="451" y="-63.5" font-family="Helvetica,sans-Serif" font-size="10.00">AH/PrintStream/PrintStream.hpp</text>
</a>
</g>
</g>
<!-- Node9&#45;&gt;Node10 -->
<g id="edge10" class="edge"><title>Node9&#45;&gt;Node10</title>
<path fill="none" stroke="midnightblue" d="M677.969,-224.411C658.627,-216.757 631.399,-204.257 611,-188 576.91,-160.832 583.478,-138.675 549,-112 530.506,-97.6913 506.73,-86.6332 487.23,-79.0598"/>
<polygon fill="midnightblue" stroke="midnightblue" points="488.35,-75.7422 477.758,-75.5207 485.9,-82.2994 488.35,-75.7422"/>
</g>
<!-- Node12 -->
<g id="node12" class="node"><title>Node12</title>
<g id="a_node12"><a xlink:href="../../de/dd1/AH_2Settings_2SettingsWrapper_8hpp.html" target="_top" xlink:title=" ">
<polygon fill="white" stroke="black" points="620,-168.5 620,-187.5 784,-187.5 784,-168.5 620,-168.5"/>
<text text-anchor="middle" x="702" y="-175.5" font-family="Helvetica,sans-Serif" font-size="10.00">AH/Settings/SettingsWrapper.hpp</text>
</a>
</g>
</g>
<!-- Node9&#45;&gt;Node12 -->
<g id="edge13" class="edge"><title>Node9&#45;&gt;Node12</title>
<path fill="none" stroke="midnightblue" d="M696.834,-224.083C695.324,-216.927 694.894,-206.635 695.542,-197.691"/>
<polygon fill="midnightblue" stroke="midnightblue" points="699.015,-198.126 696.869,-187.751 692.077,-197.2 699.015,-198.126"/>
</g>
<!-- Node21 -->
<g id="node21" class="node"><title>Node21</title>
<g id="a_node21"><a xlink:href="../../d7/d52/DebugVal_8hpp.html" target="_top" xlink:title=" ">
<polygon fill="white" stroke="black" points="462,-168.5 462,-187.5 540,-187.5 540,-168.5 462,-168.5"/>
<text text-anchor="middle" x="501" y="-175.5" font-family="Helvetica,sans-Serif" font-size="10.00">DebugVal.hpp</text>
</a>
</g>
</g>
<!-- Node9&#45;&gt;Node21 -->
<g id="edge28" class="edge"><title>Node9&#45;&gt;Node21</title>
<path fill="none" stroke="midnightblue" d="M670.151,-224.444C635.602,-215.162 580.318,-200.309 542.417,-190.127"/>
<polygon fill="midnightblue" stroke="midnightblue" points="543.266,-186.731 532.7,-187.516 541.449,-193.491 543.266,-186.731"/>
</g>
<!-- Node10&#45;&gt;Node8 -->
<g id="edge11" class="edge"><title>Node10&#45;&gt;Node8</title>
<path fill="none" stroke="midnightblue" d="M530.543,-57.8292C646.078,-47.4137 858.94,-28.2241 973.018,-17.94"/>
<polygon fill="midnightblue" stroke="midnightblue" points="973.426,-21.4175 983.071,-17.0336 972.797,-14.4457 973.426,-21.4175"/>
</g>
<!-- Node11 -->
<g id="node11" class="node"><title>Node11</title>
<g id="a_node11"><a xlink:title=" ">
<polygon fill="white" stroke="#bfbfbf" points="420,-0.5 420,-19.5 478,-19.5 478,-0.5 420,-0.5"/>
<text text-anchor="middle" x="449" y="-7.5" font-family="Helvetica,sans-Serif" font-size="10.00">Arduino.h</text>
</a>
</g>
</g>
<!-- Node10&#45;&gt;Node11 -->
<g id="edge12" class="edge"><title>Node10&#45;&gt;Node11</title>
<path fill="none" stroke="midnightblue" d="M450.67,-56.083C450.408,-49.0059 450.032,-38.8611 449.703,-29.9865"/>
<polygon fill="midnightblue" stroke="midnightblue" points="453.192,-29.6147 449.324,-19.7511 446.197,-29.8738 453.192,-29.6147"/>
</g>
<!-- Node12&#45;&gt;Node8 -->
<g id="edge14" class="edge"><title>Node12&#45;&gt;Node8</title>
<path fill="none" stroke="midnightblue" d="M735.956,-168.433C765.946,-160.421 810.597,-147.4 848,-132 897.633,-111.565 908.993,-103.647 955,-76 981.765,-59.9159 1011.25,-39.2506 1030.16,-25.5886"/>
<polygon fill="midnightblue" stroke="midnightblue" points="1032.27,-28.3829 1038.3,-19.6706 1028.15,-22.7217 1032.27,-28.3829"/>
</g>
<!-- Node12&#45;&gt;Node9 -->
<g id="edge27" class="edge"><title>Node12&#45;&gt;Node9</title>
<path fill="none" stroke="midnightblue" d="M707.131,-187.751C708.657,-194.858 709.104,-205.136 708.472,-214.101"/>
<polygon fill="midnightblue" stroke="midnightblue" points="704.993,-213.713 707.166,-224.083 711.934,-214.622 704.993,-213.713"/>
</g>
<!-- Node13 -->
<g id="node13" class="node"><title>Node13</title>
<g id="a_node13"><a xlink:href="../../d6/db0/AH_2Settings_2NamespaceSettings_8hpp.html" target="_top" xlink:title=" ">
<polygon fill="white" stroke="black" points="496,-0.5 496,-19.5 620,-19.5 620,-0.5 496,-0.5"/>
<text text-anchor="middle" x="558" y="-7.5" font-family="Helvetica,sans-Serif" font-size="10.00">NamespaceSettings.hpp</text>
</a>
</g>
</g>
<!-- Node12&#45;&gt;Node13 -->
<g id="edge15" class="edge"><title>Node12&#45;&gt;Node13</title>
<path fill="none" stroke="midnightblue" d="M685.958,-168.406C659.294,-153.296 605.931,-119.417 577,-76 567.73,-62.0887 562.896,-43.5787 560.43,-29.8699"/>
<polygon fill="midnightblue" stroke="midnightblue" points="563.845,-29.0447 558.871,-19.6902 556.926,-30.1049 563.845,-29.0447"/>
</g>
<!-- Node14 -->
<g id="node14" class="node"><title>Node14</title>
<g id="a_node14"><a xlink:href="../../d5/d4f/AH_2Settings_2Settings_8hpp.html" target="_top" xlink:title="All user settings and debugging options can be changed here.">
<polygon fill="white" stroke="black" points="768.5,-112.5 768.5,-131.5 839.5,-131.5 839.5,-112.5 768.5,-112.5"/>
<text text-anchor="middle" x="804" y="-119.5" font-family="Helvetica,sans-Serif" font-size="10.00">Settings.hpp</text>
</a>
</g>
</g>
<!-- Node12&#45;&gt;Node14 -->
<g id="edge16" class="edge"><title>Node12&#45;&gt;Node14</title>
<path fill="none" stroke="midnightblue" d="M718.388,-168.324C734.671,-159.703 759.867,-146.364 778.716,-136.386"/>
<polygon fill="midnightblue" stroke="midnightblue" points="780.452,-139.427 787.653,-131.655 777.177,-133.24 780.452,-139.427"/>
</g>
<!-- Node20 -->
<g id="node20" class="node"><title>Node20</title>
<g id="a_node20"><a xlink:href="../../d9/d98/TeensyUSBTypes_8hpp.html" target="_top" xlink:title=" ">
<polygon fill="white" stroke="black" points="372,-112.5 372,-131.5 540,-131.5 540,-112.5 372,-112.5"/>
<text text-anchor="middle" x="456" y="-119.5" font-family="Helvetica,sans-Serif" font-size="10.00">AH/Teensy/TeensyUSBTypes.hpp</text>
</a>
</g>
</g>
<!-- Node12&#45;&gt;Node20 -->
<g id="edge26" class="edge"><title>Node12&#45;&gt;Node20</title>
<path fill="none" stroke="midnightblue" d="M663.021,-168.444C620.106,-159.023 551.054,-143.866 504.631,-133.675"/>
<polygon fill="midnightblue" stroke="midnightblue" points="505.315,-130.242 494.797,-131.516 503.814,-137.079 505.315,-130.242"/>
</g>
<!-- Node15 -->
<g id="node15" class="node"><title>Node15</title>
<g id="a_node15"><a xlink:href="../../dc/d50/Frequency_8hpp.html" target="_top" xlink:title=" ">
<polygon fill="white" stroke="black" points="818,-56.5 818,-75.5 946,-75.5 946,-56.5 818,-56.5"/>
<text text-anchor="middle" x="882" y="-63.5" font-family="Helvetica,sans-Serif" font-size="10.00">AH/Types/Frequency.hpp</text>
</a>
</g>
</g>
<!-- Node14&#45;&gt;Node15 -->
<g id="edge17" class="edge"><title>Node14&#45;&gt;Node15</title>
<path fill="none" stroke="midnightblue" d="M816.532,-112.324C828.586,-103.979 847.027,-91.2122 861.269,-81.3524"/>
<polygon fill="midnightblue" stroke="midnightblue" points="863.269,-84.2243 869.499,-75.6545 859.285,-78.469 863.269,-84.2243"/>
</g>
<!-- Node16 -->
<g id="node16" class="node"><title>Node16</title>
<g id="a_node16"><a xlink:href="../../d7/d7c/ADCConfig_8hpp.html" target="_top" xlink:title="This file contains the platform&#45;specific ADC resolutions. By default, the library automatically selec...">
<polygon fill="white" stroke="black" points="652,-56.5 652,-75.5 800,-75.5 800,-56.5 652,-56.5"/>
<text text-anchor="middle" x="726" y="-63.5" font-family="Helvetica,sans-Serif" font-size="10.00">AH/Hardware/ADCConfig.hpp</text>
</a>
</g>
</g>
<!-- Node14&#45;&gt;Node16 -->
<g id="edge20" class="edge"><title>Node14&#45;&gt;Node16</title>
<path fill="none" stroke="midnightblue" d="M791.468,-112.324C779.414,-103.979 760.973,-91.2122 746.731,-81.3524"/>
<polygon fill="midnightblue" stroke="midnightblue" points="748.715,-78.469 738.501,-75.6545 744.731,-84.2243 748.715,-78.469"/>
</g>
<!-- Node17 -->
<g id="node17" class="node"><title>Node17</title>
<g id="a_node17"><a xlink:title=" ">
<polygon fill="white" stroke="#bfbfbf" points="586,-56.5 586,-75.5 634,-75.5 634,-56.5 586,-56.5"/>
<text text-anchor="middle" x="610" y="-63.5" font-family="Helvetica,sans-Serif" font-size="10.00">limits.h</text>
</a>
</g>
</g>
<!-- Node14&#45;&gt;Node17 -->
<g id="edge23" class="edge"><title>Node14&#45;&gt;Node17</title>
<path fill="none" stroke="midnightblue" d="M773.26,-112.444C738.005,-102.63 680.381,-86.5905 643.864,-76.4261"/>
<polygon fill="midnightblue" stroke="midnightblue" points="644.733,-73.0349 634.16,-73.7251 642.856,-79.7785 644.733,-73.0349"/>
</g>
<!-- Node18 -->
<g id="node18" class="node"><title>Node18</title>
<g id="a_node18"><a xlink:title=" ">
<polygon fill="white" stroke="#bfbfbf" points="1847,-56.5 1847,-75.5 1899,-75.5 1899,-56.5 1847,-56.5"/>
<text text-anchor="middle" x="1873" y="-63.5" font-family="Helvetica,sans-Serif" font-size="10.00">stddef.h</text>
</a>
</g>
</g>
<!-- Node14&#45;&gt;Node18 -->
<g id="edge24" class="edge"><title>Node14&#45;&gt;Node18</title>
<path fill="none" stroke="midnightblue" d="M839.861,-119.676C965.612,-114.955 1398.24,-98.0412 1755,-76 1782.39,-74.3081 1813.31,-71.9321 1836.63,-70.0463"/>
<polygon fill="midnightblue" stroke="midnightblue" points="1837.09,-73.5207 1846.77,-69.2185 1836.52,-66.5439 1837.09,-73.5207"/>
</g>
<!-- Node19 -->
<g id="node19" class="node"><title>Node19</title>
<g id="a_node19"><a xlink:title=" ">
<polygon fill="white" stroke="#bfbfbf" points="1696.5,-56.5 1696.5,-75.5 1745.5,-75.5 1745.5,-56.5 1696.5,-56.5"/>
<text text-anchor="middle" x="1721" y="-63.5" font-family="Helvetica,sans-Serif" font-size="10.00">stdint.h</text>
</a>
</g>
</g>
<!-- Node14&#45;&gt;Node19 -->
<g id="edge25" class="edge"><title>Node14&#45;&gt;Node19</title>
<path fill="none" stroke="midnightblue" d="M839.666,-118.9C986.213,-110.27 1541.11,-77.5935 1686.14,-69.0527"/>
<polygon fill="midnightblue" stroke="midnightblue" points="1686.47,-72.5395 1696.25,-68.4576 1686.06,-65.5516 1686.47,-72.5395"/>
</g>
<!-- Node15&#45;&gt;Node8 -->
<g id="edge18" class="edge"><title>Node15&#45;&gt;Node8</title>
<path fill="none" stroke="midnightblue" d="M908.62,-56.4435C937.006,-47.3196 982.137,-32.8133 1013.75,-22.6509"/>
<polygon fill="midnightblue" stroke="midnightblue" points="1015.06,-25.9087 1023.5,-19.5164 1012.91,-19.2445 1015.06,-25.9087"/>
</g>
<!-- Node15&#45;&gt;Node13 -->
<g id="edge19" class="edge"><title>Node15&#45;&gt;Node13</title>
<path fill="none" stroke="midnightblue" d="M830.661,-56.4435C773.192,-46.8654 680.133,-31.3556 619,-21.1667"/>
<polygon fill="midnightblue" stroke="midnightblue" points="619.538,-17.7081 609.099,-19.5164 618.387,-24.6129 619.538,-17.7081"/>
</g>
<!-- Node16&#45;&gt;Node8 -->
<g id="edge21" class="edge"><title>Node16&#45;&gt;Node8</title>
<path fill="none" stroke="midnightblue" d="M777.339,-56.4435C834.808,-46.8654 927.867,-31.3556 989,-21.1667"/>
<polygon fill="midnightblue" stroke="midnightblue" points="989.613,-24.6129 998.901,-19.5164 988.462,-17.7081 989.613,-24.6129"/>
</g>
<!-- Node16&#45;&gt;Node11 -->
<g id="edge22" class="edge"><title>Node16&#45;&gt;Node11</title>
<path fill="none" stroke="midnightblue" d="M676.89,-56.4415C630.655,-48.2294 559.235,-35.1481 488.055,-20.1475"/>
<polygon fill="midnightblue" stroke="midnightblue" points="488.523,-16.6692 478.015,-18.0184 487.071,-23.5169 488.523,-16.6692"/>
</g>
<!-- Node22&#45;&gt;Node11 -->
<g id="edge74" class="edge"><title>Node22&#45;&gt;Node11</title>
<path fill="none" stroke="midnightblue" d="M908.321,-655.676C781.457,-650.502 503.2,-636.595 467,-613 392.9,-564.701 268,-603.233 268,-235 268,-235 268,-235 268,-121 268,-55.1559 356.554,-27.6055 409.781,-16.9929"/>
<polygon fill="midnightblue" stroke="midnightblue" points="410.737,-20.3748 419.919,-15.0898 409.445,-13.4949 410.737,-20.3748"/>
</g>
<!-- Node22&#45;&gt;Node20 -->
<g id="edge73" class="edge"><title>Node22&#45;&gt;Node20</title>
<path fill="none" stroke="midnightblue" d="M908.348,-656.974C766.694,-652.96 434,-633.283 434,-537 434,-537 434,-537 434,-233 434,-200.328 443.447,-163.24 449.96,-141.553"/>
<polygon fill="midnightblue" stroke="midnightblue" points="453.391,-142.31 453.033,-131.721 446.709,-140.222 453.391,-142.31"/>
</g>
<!-- Node23 -->
<g id="node23" class="node"><title>Node23</title>
<g id="a_node23"><a xlink:href="../../d6/d04/MIDI__Interface_8hpp.html" target="_top" xlink:title=" ">
<polygon fill="white" stroke="black" points="1191.5,-588 1191.5,-607 1292.5,-607 1292.5,-588 1191.5,-588"/>
<text text-anchor="middle" x="1242" y="-595" font-family="Helvetica,sans-Serif" font-size="10.00">MIDI_Interface.hpp</text>
</a>
</g>
</g>
<!-- Node22&#45;&gt;Node23 -->
<g id="edge30" class="edge"><title>Node22&#45;&gt;Node23</title>
<path fill="none" stroke="midnightblue" d="M1009.83,-649.475C1058.12,-638.871 1140.61,-620.76 1193.15,-609.224"/>
<polygon fill="midnightblue" stroke="midnightblue" points="1194.23,-612.572 1203.24,-607.009 1192.73,-605.735 1194.23,-612.572"/>
</g>
<!-- Node26 -->
<g id="node26" class="node"><title>Node26</title>
<g id="a_node26"><a xlink:title=" ">
<polygon fill="white" stroke="#bfbfbf" points="826,-342 826,-361 904,-361 904,-342 826,-342"/>
<text text-anchor="middle" x="865" y="-349" font-family="Helvetica,sans-Serif" font-size="10.00">AH/STL/utility</text>
</a>
</g>
</g>
<!-- Node22&#45;&gt;Node26 -->
<g id="edge72" class="edge"><title>Node22&#45;&gt;Node26</title>
<path fill="none" stroke="midnightblue" d="M964.288,-649.463C950.026,-630.439 918,-582.638 918,-537 918,-537 918,-537 918,-479 918,-437.144 893.011,-393.126 877.351,-369.649"/>
<polygon fill="midnightblue" stroke="midnightblue" points="880.061,-367.415 871.499,-361.175 874.301,-371.392 880.061,-367.415"/>
</g>
<!-- Node38 -->
<g id="node38" class="node"><title>Node38</title>
<g id="a_node38"><a xlink:title=" ">
<polygon fill="white" stroke="#bfbfbf" points="2013.5,-470.5 2013.5,-489.5 2160.5,-489.5 2160.5,-470.5 2013.5,-470.5"/>
<text text-anchor="middle" x="2087" y="-477.5" font-family="Helvetica,sans-Serif" font-size="10.00">Settings/SettingsWrapper.hpp</text>
</a>
</g>
</g>
<!-- Node22&#45;&gt;Node38 -->
<g id="edge79" class="edge"><title>Node22&#45;&gt;Node38</title>
<path fill="none" stroke="midnightblue" d="M1033.53,-658.536C1218.67,-659.577 1761.67,-658.554 1932,-613 1994.79,-596.206 2018.6,-594.391 2062,-546 2073.72,-532.931 2080.19,-513.779 2083.59,-499.647"/>
<polygon fill="midnightblue" stroke="midnightblue" points="2087.07,-500.109 2085.7,-489.602 2080.22,-498.667 2087.07,-500.109"/>
</g>
<!-- Node39 -->
<g id="node39" class="node"><title>Node39</title>
<g id="a_node39"><a xlink:href="../../d1/d22/SerialMIDI__Parser_8hpp.html" target="_top" xlink:title=" ">
<polygon fill="white" stroke="black" points="1795.5,-582.5 1795.5,-612.5 1922.5,-612.5 1922.5,-582.5 1795.5,-582.5"/>
<text text-anchor="start" x="1803.5" y="-600.5" font-family="Helvetica,sans-Serif" font-size="10.00">MIDI_Parsers/SerialMIDI</text>
<text text-anchor="middle" x="1859" y="-589.5" font-family="Helvetica,sans-Serif" font-size="10.00">_Parser.hpp</text>
</a>
</g>
</g>
<!-- Node22&#45;&gt;Node39 -->
<g id="edge75" class="edge"><title>Node22&#45;&gt;Node39</title>
<path fill="none" stroke="midnightblue" d="M1033.8,-653.792C1193.39,-643.099 1613.97,-614.918 1785.04,-603.456"/>
<polygon fill="midnightblue" stroke="midnightblue" points="1785.47,-606.935 1795.21,-602.774 1785,-599.951 1785.47,-606.935"/>
</g>
<!-- Node41 -->
<g id="node41" class="node"><title>Node41</title>
<g id="a_node41"><a xlink:title=" ">
<polygon fill="white" stroke="#bfbfbf" points="1310.5,-588 1310.5,-607 1399.5,-607 1399.5,-588 1310.5,-588"/>
<text text-anchor="middle" x="1355" y="-595" font-family="Helvetica,sans-Serif" font-size="10.00">SoftwareSerial.h</text>
</a>
</g>
</g>
<!-- Node22&#45;&gt;Node41 -->
<g id="edge80" class="edge"><title>Node22&#45;&gt;Node41</title>
<path fill="none" stroke="midnightblue" d="M1033.64,-651.974C1100.51,-644.962 1209.37,-631.881 1302,-613 1306.77,-612.027 1311.75,-610.865 1316.66,-609.629"/>
<polygon fill="midnightblue" stroke="midnightblue" points="1317.78,-612.954 1326.56,-607.023 1316,-606.184 1317.78,-612.954"/>
</g>
<!-- Node24 -->
<g id="node24" class="node"><title>Node24</title>
<g id="a_node24"><a xlink:href="../../dd/ddf/MIDI__Pipes_8hpp.html" target="_top" xlink:title=" ">
<polygon fill="white" stroke="black" points="1094.5,-409 1094.5,-428 1181.5,-428 1181.5,-409 1094.5,-409"/>
<text text-anchor="middle" x="1138" y="-416" font-family="Helvetica,sans-Serif" font-size="10.00">MIDI_Pipes.hpp</text>
</a>
</g>
</g>
<!-- Node23&#45;&gt;Node24 -->
<g id="edge31" class="edge"><title>Node23&#45;&gt;Node24</title>
<path fill="none" stroke="midnightblue" d="M1236.98,-587.963C1220.89,-560.578 1170.35,-474.552 1148.37,-437.153"/>
<polygon fill="midnightblue" stroke="midnightblue" points="1151.29,-435.217 1143.21,-428.368 1145.26,-438.763 1151.29,-435.217"/>
</g>
<!-- Node29 -->
<g id="node29" class="node"><title>Node29</title>
<g id="a_node29"><a xlink:href="../../d0/d4e/Def_8hpp.html" target="_top" xlink:title=" ">
<polygon fill="white" stroke="black" points="1507,-470.5 1507,-489.5 1577,-489.5 1577,-470.5 1507,-470.5"/>
<text text-anchor="middle" x="1542" y="-477.5" font-family="Helvetica,sans-Serif" font-size="10.00">Def/Def.hpp</text>
</a>
</g>
</g>
<!-- Node23&#45;&gt;Node29 -->
<g id="edge45" class="edge"><title>Node23&#45;&gt;Node29</title>
<path fill="none" stroke="midnightblue" d="M1277.11,-587.99C1311.92,-579.11 1366.47,-563.985 1412,-546 1450.08,-530.957 1492.12,-508.868 1517.8,-494.71"/>
<polygon fill="midnightblue" stroke="midnightblue" points="1519.76,-497.624 1526.79,-489.703 1516.35,-491.508 1519.76,-497.624"/>
</g>
<!-- Node35 -->
<g id="node35" class="node"><title>Node35</title>
<g id="a_node35"><a xlink:href="../../d8/d38/MIDICNChannelAddress_8hpp.html" target="_top" xlink:title=" ">
<polygon fill="white" stroke="black" points="1239.5,-526.5 1239.5,-545.5 1402.5,-545.5 1402.5,-526.5 1239.5,-526.5"/>
<text text-anchor="middle" x="1321" y="-533.5" font-family="Helvetica,sans-Serif" font-size="10.00">Def/MIDICNChannelAddress.hpp</text>
</a>
</g>
</g>
<!-- Node23&#45;&gt;Node35 -->
<g id="edge63" class="edge"><title>Node23&#45;&gt;Node35</title>
<path fill="none" stroke="midnightblue" d="M1253.32,-587.975C1265.87,-578.52 1286.35,-563.096 1301.5,-551.687"/>
<polygon fill="midnightblue" stroke="midnightblue" points="1303.82,-554.321 1309.7,-545.509 1299.61,-548.73 1303.82,-554.321"/>
</g>
<!-- Node36 -->
<g id="node36" class="node"><title>Node36</title>
<g id="a_node36"><a xlink:href="../../d7/d2d/MIDI__Parser_8hpp.html" target="_top" xlink:title=" ">
<polygon fill="white" stroke="black" points="1781.5,-526.5 1781.5,-545.5 1936.5,-545.5 1936.5,-526.5 1781.5,-526.5"/>
<text text-anchor="middle" x="1859" y="-533.5" font-family="Helvetica,sans-Serif" font-size="10.00">MIDI_Parsers/MIDI_Parser.hpp</text>
</a>
</g>
</g>
<!-- Node23&#45;&gt;Node36 -->
<g id="edge65" class="edge"><title>Node23&#45;&gt;Node36</title>
<path fill="none" stroke="midnightblue" d="M1273.26,-587.965C1282.46,-585.721 1292.58,-583.509 1302,-582 1466.42,-555.656 1660.76,-544.409 1770.98,-539.857"/>
<polygon fill="midnightblue" stroke="midnightblue" points="1771.2,-543.351 1781.05,-539.45 1770.92,-536.357 1771.2,-543.351"/>
</g>
<!-- Node24&#45;&gt;Node8 -->
<g id="edge38" class="edge"><title>Node24&#45;&gt;Node8</title>
<path fill="none" stroke="midnightblue" d="M1136.62,-408.937C1133.47,-388.561 1126,-335.562 1126,-291 1126,-291 1126,-291 1126,-121 1126,-81.2757 1092.04,-45.5045 1069.52,-26.1536"/>
<polygon fill="midnightblue" stroke="midnightblue" points="1071.48,-23.2364 1061.54,-19.5672 1067.02,-28.6337 1071.48,-23.2364"/>
</g>
<!-- Node25 -->
<g id="node25" class="node"><title>Node25</title>
<g id="a_node25"><a xlink:href="../../d1/d40/BitArray_8hpp.html" target="_top" xlink:title=" ">
<polygon fill="white" stroke="black" points="922,-342 922,-361 1060,-361 1060,-342 922,-342"/>
<text text-anchor="middle" x="991" y="-349" font-family="Helvetica,sans-Serif" font-size="10.00">AH/Containers/BitArray.hpp</text>
</a>
</g>
</g>
<!-- Node24&#45;&gt;Node25 -->
<g id="edge32" class="edge"><title>Node24&#45;&gt;Node25</title>
<path fill="none" stroke="midnightblue" d="M1118.48,-408.869C1093.22,-397.699 1049,-378.147 1019.86,-365.26"/>
<polygon fill="midnightblue" stroke="midnightblue" points="1021.16,-362.01 1010.6,-361.167 1018.33,-368.412 1021.16,-362.01"/>
</g>
<!-- Node24&#45;&gt;Node26 -->
<g id="edge37" class="edge"><title>Node24&#45;&gt;Node26</title>
<path fill="none" stroke="midnightblue" d="M1095.48,-408.917C1050.07,-399.528 976.111,-383.592 913,-367 909.377,-366.048 905.616,-365.006 901.865,-363.931"/>
<polygon fill="midnightblue" stroke="midnightblue" points="902.646,-360.513 892.064,-361.05 900.671,-367.228 902.646,-360.513"/>
</g>
<!-- Node27 -->
<g id="node27" class="node"><title>Node27</title>
<g id="a_node27"><a xlink:href="../../dc/d40/MIDI__MessageTypes_8hpp.html" target="_top" xlink:title=" ">
<polygon fill="white" stroke="black" points="1659.5,-336.5 1659.5,-366.5 1806.5,-366.5 1806.5,-336.5 1659.5,-336.5"/>
<text text-anchor="start" x="1667.5" y="-354.5" font-family="Helvetica,sans-Serif" font-size="10.00">MIDI_Parsers/MIDI_Message</text>
<text text-anchor="middle" x="1733" y="-343.5" font-family="Helvetica,sans-Serif" font-size="10.00">Types.hpp</text>
</a>
</g>
</g>
<!-- Node24&#45;&gt;Node27 -->
<g id="edge39" class="edge"><title>Node24&#45;&gt;Node27</title>
<path fill="none" stroke="midnightblue" d="M1181.86,-410.353C1198.48,-407.802 1217.58,-405.053 1235,-403 1416.06,-381.653 1465.28,-390.842 1649.28,-367.155"/>
<polygon fill="midnightblue" stroke="midnightblue" points="1649.83,-370.614 1659.29,-365.852 1648.92,-363.673 1649.83,-370.614"/>
</g>
<!-- Node28 -->
<g id="node28" class="node"><title>Node28</title>
<g id="a_node28"><a xlink:title=" ">
<polygon fill="white" stroke="#bfbfbf" points="1529.5,-280.5 1529.5,-299.5 1692.5,-299.5 1692.5,-280.5 1529.5,-280.5"/>
<text text-anchor="middle" x="1611" y="-287.5" font-family="Helvetica,sans-Serif" font-size="10.00">Settings/NamespaceSettings.hpp</text>
</a>
</g>
</g>
<!-- Node24&#45;&gt;Node28 -->
<g id="edge44" class="edge"><title>Node24&#45;&gt;Node28</title>
<path fill="none" stroke="midnightblue" d="M1181.75,-409.628C1229.74,-400.666 1308.87,-384.926 1376,-367 1448.79,-347.563 1532.37,-319.004 1577.63,-303.002"/>
<polygon fill="midnightblue" stroke="midnightblue" points="1578.97,-306.241 1587.22,-299.596 1576.63,-299.644 1578.97,-306.241"/>
</g>
<!-- Node25&#45;&gt;Node7 -->
<g id="edge34" class="edge"><title>Node25&#45;&gt;Node7</title>
<path fill="none" stroke="midnightblue" d="M968.219,-341.975C940.945,-331.769 895.087,-314.608 864.199,-303.049"/>
<polygon fill="midnightblue" stroke="midnightblue" points="865.331,-299.736 854.739,-299.509 862.878,-306.292 865.331,-299.736"/>
</g>
<!-- Node25&#45;&gt;Node8 -->
<g id="edge33" class="edge"><title>Node25&#45;&gt;Node8</title>
<path fill="none" stroke="midnightblue" d="M1000.3,-341.838C1024.58,-318.237 1088,-249.808 1088,-179 1088,-179 1088,-179 1088,-121 1088,-86.8131 1071.4,-49.7639 1060.14,-28.5707"/>
<polygon fill="midnightblue" stroke="midnightblue" points="1063.18,-26.832 1055.28,-19.769 1057.05,-30.2151 1063.18,-26.832"/>
</g>
<!-- Node25&#45;&gt;Node13 -->
<g id="edge35" class="edge"><title>Node25&#45;&gt;Node13</title>
<path fill="none" stroke="midnightblue" d="M946.068,-341.997C935.247,-339.991 923.716,-337.887 913,-336 778.329,-312.281 306,-371.743 306,-235 306,-235 306,-235 306,-121 306,-90.2048 306.566,-75.9793 330,-56 342.161,-45.6322 426.593,-30.8621 489.186,-21.1095"/>
<polygon fill="midnightblue" stroke="midnightblue" points="490.072,-24.5142 499.421,-19.5289 489.004,-17.5962 490.072,-24.5142"/>
</g>
<!-- Node25&#45;&gt;Node19 -->
<g id="edge36" class="edge"><title>Node25&#45;&gt;Node19</title>
<path fill="none" stroke="midnightblue" d="M1005.43,-341.826C1063.54,-307.271 1286.95,-178.094 1487,-112 1555.69,-89.3043 1639.73,-76.6171 1686.09,-70.8553"/>
<polygon fill="midnightblue" stroke="midnightblue" points="1686.71,-74.3066 1696.22,-69.6335 1685.87,-67.357 1686.71,-74.3066"/>
</g>
<!-- Node27&#45;&gt;Node8 -->
<g id="edge40" class="edge"><title>Node27&#45;&gt;Node8</title>
<path fill="none" stroke="midnightblue" d="M1730,-336.321C1726.04,-320.708 1717.65,-295.737 1702,-280 1529.71,-106.774 1429.03,-141.054 1200,-56 1164.39,-42.7765 1122.98,-30.584 1092.7,-22.2354"/>
<polygon fill="midnightblue" stroke="midnightblue" points="1093.45,-18.8124 1082.88,-19.5555 1091.6,-25.5654 1093.45,-18.8124"/>
</g>
<!-- Node27&#45;&gt;Node18 -->
<g id="edge42" class="edge"><title>Node27&#45;&gt;Node18</title>
<path fill="none" stroke="midnightblue" d="M1774.25,-336.493C1815.54,-319.543 1873,-286.676 1873,-235 1873,-235 1873,-235 1873,-177 1873,-144.948 1873,-107.643 1873,-85.7489"/>
<polygon fill="midnightblue" stroke="midnightblue" points="1876.5,-85.5577 1873,-75.5578 1869.5,-85.5578 1876.5,-85.5577"/>
</g>
<!-- Node27&#45;&gt;Node19 -->
<g id="edge43" class="edge"><title>Node27&#45;&gt;Node19</title>
<path fill="none" stroke="midnightblue" d="M1748.65,-336.247C1757.66,-326.934 1768.15,-313.943 1773,-300 1775.92,-291.605 1773.99,-288.834 1773,-280 1764.81,-206.633 1739.18,-122.184 1727.24,-85.5502"/>
<polygon fill="midnightblue" stroke="midnightblue" points="1730.47,-84.1756 1724.01,-75.7813 1723.83,-86.3745 1730.47,-84.1756"/>
</g>
<!-- Node27&#45;&gt;Node28 -->
<g id="edge41" class="edge"><title>Node27&#45;&gt;Node28</title>
<path fill="none" stroke="midnightblue" d="M1704.09,-336.399C1683.98,-326.595 1657.38,-313.619 1637.76,-304.052"/>
<polygon fill="midnightblue" stroke="midnightblue" points="1639.27,-300.896 1628.75,-299.658 1636.21,-307.187 1639.27,-300.896"/>
</g>
<!-- Node29&#45;&gt;Node18 -->
<g id="edge61" class="edge"><title>Node29&#45;&gt;Node18</title>
<path fill="none" stroke="midnightblue" d="M1577.05,-475.704C1675.78,-465.46 1949,-430.101 1949,-352.5 1949,-352.5 1949,-352.5 1949,-177 1949,-146.205 1942.53,-137.319 1925,-112 1916.82,-100.19 1904.85,-89.5418 1894.45,-81.5714"/>
<polygon fill="midnightblue" stroke="midnightblue" points="1896.34,-78.6188 1886.2,-75.5395 1892.21,-84.2685 1896.34,-78.6188"/>
</g>
<!-- Node29&#45;&gt;Node19 -->
<g id="edge62" class="edge"><title>Node29&#45;&gt;Node19</title>
<path fill="none" stroke="midnightblue" d="M1577.27,-474.807C1635.88,-465.916 1753.08,-439.635 1816,-367 1838.8,-340.684 1835,-325.817 1835,-291 1835,-291 1835,-291 1835,-233 1835,-167.209 1773.4,-108.443 1740.76,-81.9249"/>
<polygon fill="midnightblue" stroke="midnightblue" points="1742.79,-79.0633 1732.77,-75.6063 1738.44,-84.5542 1742.79,-79.0633"/>
</g>
<!-- Node29&#45;&gt;Node28 -->
<g id="edge60" class="edge"><title>Node29&#45;&gt;Node28</title>
<path fill="none" stroke="midnightblue" d="M1541.27,-470.338C1539.69,-447.085 1537.88,-381.944 1562,-336 1568.31,-323.978 1579.16,-313.507 1589.05,-305.699"/>
<polygon fill="midnightblue" stroke="midnightblue" points="1591.4,-308.314 1597.35,-299.55 1587.23,-302.688 1591.4,-308.314"/>
</g>
<!-- Node30 -->
<g id="node30" class="node"><title>Node30</title>
<g id="a_node30"><a xlink:href="../../d7/d42/Channel_8hpp.html" target="_top" xlink:title=" ">
<polygon fill="white" stroke="black" points="1570.5,-342 1570.5,-361 1641.5,-361 1641.5,-342 1570.5,-342"/>
<text text-anchor="middle" x="1606" y="-349" font-family="Helvetica,sans-Serif" font-size="10.00">Channel.hpp</text>
</a>
</g>
</g>
<!-- Node29&#45;&gt;Node30 -->
<g id="edge46" class="edge"><title>Node29&#45;&gt;Node30</title>
<path fill="none" stroke="midnightblue" d="M1546.4,-470.305C1556.77,-449.813 1582.91,-398.145 1596.87,-370.542"/>
<polygon fill="midnightblue" stroke="midnightblue" points="1600.18,-371.759 1601.57,-361.256 1593.93,-368.599 1600.18,-371.759"/>
</g>
<!-- Node31 -->
<g id="node31" class="node"><title>Node31</title>
<g id="a_node31"><a xlink:href="../../de/d76/Array_8hpp.html" target="_top" xlink:title=" ">
<polygon fill="white" stroke="black" points="1241,-342 1241,-361 1367,-361 1367,-342 1241,-342"/>
<text text-anchor="middle" x="1304" y="-349" font-family="Helvetica,sans-Serif" font-size="10.00">AH/Containers/Array.hpp</text>
</a>
</g>
</g>
<!-- Node29&#45;&gt;Node31 -->
<g id="edge49" class="edge"><title>Node29&#45;&gt;Node31</title>
<path fill="none" stroke="midnightblue" d="M1525.64,-470.305C1484.78,-448.588 1378.04,-391.852 1329.13,-365.858"/>
<polygon fill="midnightblue" stroke="midnightblue" points="1330.63,-362.691 1320.16,-361.088 1327.35,-368.872 1330.63,-362.691"/>
</g>
<!-- Node34 -->
<g id="node34" class="node"><title>Node34</title>
<g id="a_node34"><a xlink:href="../../d4/d35/Hardware-Types_8hpp.html" target="_top" xlink:title=" ">
<polygon fill="white" stroke="black" points="1243.5,-403.5 1243.5,-433.5 1364.5,-433.5 1364.5,-403.5 1243.5,-403.5"/>
<text text-anchor="start" x="1251.5" y="-421.5" font-family="Helvetica,sans-Serif" font-size="10.00">AH/Hardware/Hardware</text>
<text text-anchor="middle" x="1304" y="-410.5" font-family="Helvetica,sans-Serif" font-size="10.00">&#45;Types.hpp</text>
</a>
</g>
</g>
<!-- Node29&#45;&gt;Node34 -->
<g id="edge55" class="edge"><title>Node29&#45;&gt;Node34</title>
<path fill="none" stroke="midnightblue" d="M1507.9,-470.475C1472.05,-461.513 1414.75,-447.188 1370.01,-436.003"/>
<polygon fill="midnightblue" stroke="midnightblue" points="1370.64,-432.553 1360.09,-433.523 1368.94,-439.344 1370.64,-432.553"/>
</g>
<!-- Node30&#45;&gt;Node19 -->
<g id="edge47" class="edge"><title>Node30&#45;&gt;Node19</title>
<path fill="none" stroke="midnightblue" d="M1635.64,-341.854C1657,-334.161 1684.95,-320.847 1702,-300 1721.05,-276.7 1721,-265.098 1721,-235 1721,-235 1721,-235 1721,-177 1721,-144.948 1721,-107.643 1721,-85.7489"/>
<polygon fill="midnightblue" stroke="midnightblue" points="1724.5,-85.5577 1721,-75.5578 1717.5,-85.5578 1724.5,-85.5577"/>
</g>
<!-- Node30&#45;&gt;Node28 -->
<g id="edge48" class="edge"><title>Node30&#45;&gt;Node28</title>
<path fill="none" stroke="midnightblue" d="M1606.72,-341.975C1607.42,-333.58 1608.52,-320.481 1609.43,-309.663"/>
<polygon fill="midnightblue" stroke="midnightblue" points="1612.94,-309.767 1610.28,-299.509 1605.96,-309.181 1612.94,-309.767"/>
</g>
<!-- Node31&#45;&gt;Node7 -->
<g id="edge51" class="edge"><title>Node31&#45;&gt;Node7</title>
<path fill="none" stroke="midnightblue" d="M1240.83,-342.537C1149.16,-330.981 980.469,-309.716 891.124,-298.453"/>
<polygon fill="midnightblue" stroke="midnightblue" points="891.516,-294.975 881.157,-297.197 890.64,-301.92 891.516,-294.975"/>
</g>
<!-- Node31&#45;&gt;Node8 -->
<g id="edge50" class="edge"><title>Node31&#45;&gt;Node8</title>
<path fill="none" stroke="midnightblue" d="M1281.36,-341.897C1262.86,-333.762 1237.35,-319.833 1222,-300 1203.5,-276.097 1202,-265.225 1202,-235 1202,-235 1202,-235 1202,-121 1202,-90.2048 1199.95,-77.6046 1178,-56 1161.11,-39.3734 1137.73,-28.8651 1115.56,-22.2341"/>
<polygon fill="midnightblue" stroke="midnightblue" points="1116.4,-18.8339 1105.83,-19.5377 1114.53,-25.58 1116.4,-18.8339"/>
</g>
<!-- Node31&#45;&gt;Node18 -->
<g id="edge54" class="edge"><title>Node31&#45;&gt;Node18</title>
<path fill="none" stroke="midnightblue" d="M1331.58,-341.921C1360.18,-332.713 1405.93,-317.087 1444,-300 1604.7,-227.874 1787.22,-119.291 1850.22,-80.9825"/>
<polygon fill="midnightblue" stroke="midnightblue" points="1852.24,-83.8483 1858.96,-75.6528 1848.6,-77.8722 1852.24,-83.8483"/>
</g>
<!-- Node32 -->
<g id="node32" class="node"><title>Node32</title>
<g id="a_node32"><a xlink:title=" ">
<polygon fill="white" stroke="#bfbfbf" points="1349.5,-280.5 1349.5,-299.5 1434.5,-299.5 1434.5,-280.5 1349.5,-280.5"/>
<text text-anchor="middle" x="1392" y="-287.5" font-family="Helvetica,sans-Serif" font-size="10.00">AH/STL/iterator</text>
</a>
</g>
</g>
<!-- Node31&#45;&gt;Node32 -->
<g id="edge52" class="edge"><title>Node31&#45;&gt;Node32</title>
<path fill="none" stroke="midnightblue" d="M1316.61,-341.975C1330.72,-332.431 1353.83,-316.807 1370.75,-305.368"/>
<polygon fill="midnightblue" stroke="midnightblue" points="1373.09,-308.01 1379.42,-299.509 1369.17,-302.211 1373.09,-308.01"/>
</g>
<!-- Node33 -->
<g id="node33" class="node"><title>Node33</title>
<g id="a_node33"><a xlink:title=" ">
<polygon fill="white" stroke="#bfbfbf" points="1230.5,-280.5 1230.5,-299.5 1331.5,-299.5 1331.5,-280.5 1230.5,-280.5"/>
<text text-anchor="middle" x="1281" y="-287.5" font-family="Helvetica,sans-Serif" font-size="10.00">AH/STL/type_traits</text>
</a>
</g>
</g>
<!-- Node31&#45;&gt;Node33 -->
<g id="edge53" class="edge"><title>Node31&#45;&gt;Node33</title>
<path fill="none" stroke="midnightblue" d="M1300.7,-341.975C1297.39,-333.404 1292.18,-319.927 1287.95,-308.983"/>
<polygon fill="midnightblue" stroke="midnightblue" points="1291.16,-307.575 1284.29,-299.509 1284.63,-310.098 1291.16,-307.575"/>
</g>
<!-- Node34&#45;&gt;Node8 -->
<g id="edge56" class="edge"><title>Node34&#45;&gt;Node8</title>
<path fill="none" stroke="midnightblue" d="M1267.95,-403.45C1226.47,-384.64 1164,-347.016 1164,-291 1164,-291 1164,-291 1164,-121 1164,-74.1149 1113.45,-40.8944 1079.67,-23.9302"/>
<polygon fill="midnightblue" stroke="midnightblue" points="1081.17,-20.7687 1070.64,-19.5787 1078.13,-27.0742 1081.17,-20.7687"/>
</g>
<!-- Node34&#45;&gt;Node13 -->
<g id="edge58" class="edge"><title>Node34&#45;&gt;Node13</title>
<path fill="none" stroke="midnightblue" d="M1264.62,-403.431C1218.05,-386.885 1138.1,-358.786 1069,-336 989.835,-309.896 971.312,-298.354 890,-280 696.391,-236.299 633.677,-270.159 453,-188 410.115,-168.499 386.246,-172.977 363,-132 346.332,-102.618 340.955,-82.4243 362,-56 370.498,-45.3304 441.658,-30.9183 495.811,-21.3088"/>
<polygon fill="midnightblue" stroke="midnightblue" points="496.461,-24.7483 505.705,-19.5724 495.251,-17.8537 496.461,-24.7483"/>
</g>
<!-- Node34&#45;&gt;Node19 -->
<g id="edge59" class="edge"><title>Node34&#45;&gt;Node19</title>
<path fill="none" stroke="midnightblue" d="M1364.71,-405.348C1422.6,-389.808 1501,-356.642 1501,-291 1501,-291 1501,-291 1501,-177 1501,-95.256 1624.01,-74.2559 1686.07,-68.8626"/>
<polygon fill="midnightblue" stroke="midnightblue" points="1686.49,-72.3403 1696.19,-68.0746 1685.95,-65.3614 1686.49,-72.3403"/>
</g>
<!-- Node34&#45;&gt;Node31 -->
<g id="edge57" class="edge"><title>Node34&#45;&gt;Node31</title>
<path fill="none" stroke="midnightblue" d="M1304,-403.396C1304,-394.064 1304,-381.714 1304,-371.517"/>
<polygon fill="midnightblue" stroke="midnightblue" points="1307.5,-371.195 1304,-361.195 1300.5,-371.195 1307.5,-371.195"/>
</g>
<!-- Node35&#45;&gt;Node29 -->
<g id="edge64" class="edge"><title>Node35&#45;&gt;Node29</title>
<path fill="none" stroke="midnightblue" d="M1356.02,-526.444C1394.25,-517.102 1455.57,-502.119 1497.26,-491.933"/>
<polygon fill="midnightblue" stroke="midnightblue" points="1498.26,-495.29 1507.15,-489.516 1496.6,-488.49 1498.26,-495.29"/>
</g>
<!-- Node36&#45;&gt;Node18 -->
<g id="edge66" class="edge"><title>Node36&#45;&gt;Node18</title>
<path fill="none" stroke="midnightblue" d="M1876.7,-526.441C1891.27,-518.648 1911.63,-505.937 1925,-490 1968.08,-438.641 1987,-419.536 1987,-352.5 1987,-352.5 1987,-352.5 1987,-177 1987,-130.115 1936.45,-96.8944 1902.67,-79.9302"/>
<polygon fill="midnightblue" stroke="midnightblue" points="1904.17,-76.7687 1893.64,-75.5787 1901.13,-83.0742 1904.17,-76.7687"/>
</g>
<!-- Node36&#45;&gt;Node19 -->
<g id="edge67" class="edge"><title>Node36&#45;&gt;Node19</title>
<path fill="none" stroke="midnightblue" d="M1866.89,-526.331C1874.35,-517.704 1885.37,-503.797 1892,-490 1906.06,-460.751 1911,-451.951 1911,-419.5 1911,-419.5 1911,-419.5 1911,-177 1911,-106.101 1810.69,-80.1579 1755.84,-71.272"/>
<polygon fill="midnightblue" stroke="midnightblue" points="1756.25,-67.7946 1745.84,-69.759 1755.2,-74.7158 1756.25,-67.7946"/>
</g>
<!-- Node36&#45;&gt;Node27 -->
<g id="edge71" class="edge"><title>Node36&#45;&gt;Node27</title>
<path fill="none" stroke="midnightblue" d="M1852.58,-526.444C1845.85,-517.443 1835.04,-502.831 1826,-490 1797.82,-449.994 1766.1,-402.565 1747.94,-375.161"/>
<polygon fill="midnightblue" stroke="midnightblue" points="1750.77,-373.084 1742.33,-366.675 1744.93,-376.946 1750.77,-373.084"/>
</g>
<!-- Node36&#45;&gt;Node29 -->
<g id="edge69" class="edge"><title>Node36&#45;&gt;Node29</title>
<path fill="none" stroke="midnightblue" d="M1808.77,-526.444C1747.83,-516.063 1646,-498.716 1587.35,-488.725"/>
<polygon fill="midnightblue" stroke="midnightblue" points="1587.72,-485.237 1577.27,-487.008 1586.54,-492.138 1587.72,-485.237"/>
</g>
<!-- Node37 -->
<g id="node37" class="node"><title>Node37</title>
<g id="a_node37"><a xlink:title=" ">
<polygon fill="white" stroke="#bfbfbf" points="1835,-470.5 1835,-489.5 1883,-489.5 1883,-470.5 1835,-470.5"/>
<text text-anchor="middle" x="1859" y="-477.5" font-family="Helvetica,sans-Serif" font-size="10.00">stdlib.h</text>
</a>
</g>
</g>
<!-- Node36&#45;&gt;Node37 -->
<g id="edge68" class="edge"><title>Node36&#45;&gt;Node37</title>
<path fill="none" stroke="midnightblue" d="M1859,-526.083C1859,-519.006 1859,-508.861 1859,-499.986"/>
<polygon fill="midnightblue" stroke="midnightblue" points="1862.5,-499.751 1859,-489.751 1855.5,-499.751 1862.5,-499.751"/>
</g>
<!-- Node36&#45;&gt;Node38 -->
<g id="edge70" class="edge"><title>Node36&#45;&gt;Node38</title>
<path fill="none" stroke="midnightblue" d="M1895.13,-526.444C1934.65,-517.083 1998.1,-502.056 2041.11,-491.868"/>
<polygon fill="midnightblue" stroke="midnightblue" points="2042.12,-495.227 2051.04,-489.516 2040.5,-488.415 2042.12,-495.227"/>
</g>
<!-- Node39&#45;&gt;Node36 -->
<g id="edge76" class="edge"><title>Node39&#45;&gt;Node36</title>
<path fill="none" stroke="midnightblue" d="M1859,-582.399C1859,-574.466 1859,-564.458 1859,-555.858"/>
<polygon fill="midnightblue" stroke="midnightblue" points="1862.5,-555.658 1859,-545.658 1855.5,-555.658 1862.5,-555.658"/>
</g>
<!-- Node40 -->
<g id="node40" class="node"><title>Node40</title>
<g id="a_node40"><a xlink:href="../../d0/dbb/SysExBuffer_8hpp.html" target="_top" xlink:title=" ">
<polygon fill="white" stroke="black" points="1961.5,-526.5 1961.5,-545.5 2052.5,-545.5 2052.5,-526.5 1961.5,-526.5"/>
<text text-anchor="middle" x="2007" y="-533.5" font-family="Helvetica,sans-Serif" font-size="10.00">SysExBuffer.hpp</text>
</a>
</g>
</g>
<!-- Node39&#45;&gt;Node40 -->
<g id="edge77" class="edge"><title>Node39&#45;&gt;Node40</title>
<path fill="none" stroke="midnightblue" d="M1894.07,-582.399C1919.02,-572.372 1952.21,-559.028 1976.14,-549.405"/>
<polygon fill="midnightblue" stroke="midnightblue" points="1977.49,-552.635 1985.46,-545.658 1974.88,-546.141 1977.49,-552.635"/>
</g>
<!-- Node40&#45;&gt;Node38 -->
<g id="edge78" class="edge"><title>Node40&#45;&gt;Node38</title>
<path fill="none" stroke="midnightblue" d="M2019.85,-526.324C2032.22,-517.979 2051.13,-505.212 2065.74,-495.352"/>
<polygon fill="midnightblue" stroke="midnightblue" points="2067.85,-498.15 2074.18,-489.655 2063.93,-492.348 2067.85,-498.15"/>
</g>
</g>
</svg>
