<?xml version="1.0" encoding="UTF-8" standalone="no"?>
<!DOCTYPE svg PUBLIC "-//W3C//DTD SVG 1.1//EN"
 "http://www.w3.org/Graphics/SVG/1.1/DTD/svg11.dtd">
<!-- Generated by graphviz version 2.43.0 (0)
 -->
<!-- Title: ButtonMatrix.ipp Pages: 1 -->
<svg width="1464pt" height="789pt"
 viewBox="0.00 0.00 1464.00 789.00" xmlns="http://www.w3.org/2000/svg" xmlns:xlink="http://www.w3.org/1999/xlink">
<g id="graph0" class="graph" transform="scale(1 1) rotate(0) translate(4 785)">
<title>ButtonMatrix.ipp</title>
<polygon fill="white" stroke="transparent" points="-4,4 -4,-785 1460,-785 1460,4 -4,4"/>
<!-- Node1 -->
<g id="node1" class="node">
<title>Node1</title>
<g id="a_node1"><a xlink:title=" ">
<polygon fill="#bfbfbf" stroke="black" points="774,-761.5 774,-780.5 872,-780.5 872,-761.5 774,-761.5"/>
<text text-anchor="middle" x="823" y="-768.5" font-family="Helvetica,sans-Serif" font-size="10.00">ButtonMatrix.ipp</text>
</a>
</g>
</g>
<!-- Node2 -->
<g id="node2" class="node">
<title>Node2</title>
<g id="a_node2"><a xlink:href="../../d9/d4b/ButtonMatrix_8hpp.html" target="_top" xlink:title=" ">
<polygon fill="white" stroke="black" points="668.5,-633 668.5,-652 769.5,-652 769.5,-633 668.5,-633"/>
<text text-anchor="middle" x="719" y="-640" font-family="Helvetica,sans-Serif" font-size="10.00">ButtonMatrix.hpp</text>
</a>
</g>
</g>
<!-- Node1&#45;&gt;Node2 -->
<g id="edge1" class="edge">
<title>Node1&#45;&gt;Node2</title>
<path fill="none" stroke="midnightblue" d="M792.31,-761.37C773.94,-754.05 751.85,-742 738,-725 723.12,-706.73 715.95,-680.09 714.73,-662.3"/>
<polygon fill="midnightblue" stroke="midnightblue" points="718.23,-662.07 714.77,-652.06 711.23,-662.05 718.23,-662.07"/>
</g>
<!-- Node25 -->
<g id="node25" class="node">
<title>Node25</title>
<g id="a_node25"><a xlink:href="../../d4/dba/CRTP_8hpp.html" target="_top" xlink:title=" ">
<polygon fill="white" stroke="black" points="756,-700 756,-719 890,-719 890,-700 756,-700"/>
<text text-anchor="middle" x="823" y="-707" font-family="Helvetica,sans-Serif" font-size="10.00">AH/Containers/CRTP.hpp</text>
</a>
</g>
</g>
<!-- Node1&#45;&gt;Node25 -->
<g id="edge45" class="edge">
<title>Node1&#45;&gt;Node25</title>
<path fill="none" stroke="midnightblue" d="M823,-761.48C823,-753.08 823,-739.98 823,-729.16"/>
<polygon fill="midnightblue" stroke="midnightblue" points="826.5,-729.01 823,-719.01 819.5,-729.01 826.5,-729.01"/>
</g>
<!-- Node26 -->
<g id="node26" class="node">
<title>Node26</title>
<g id="a_node26"><a xlink:href="../../dd/ddf/ExtendedInputOutput_8hpp.html" target="_top" xlink:title=" ">
<polygon fill="white" stroke="black" points="908.5,-694.5 908.5,-724.5 1085.5,-724.5 1085.5,-694.5 908.5,-694.5"/>
<text text-anchor="start" x="916.5" y="-712.5" font-family="Helvetica,sans-Serif" font-size="10.00">AH/Hardware/ExtendedInput</text>
<text text-anchor="middle" x="997" y="-701.5" font-family="Helvetica,sans-Serif" font-size="10.00">Output/ExtendedInputOutput.hpp</text>
</a>
</g>
</g>
<!-- Node1&#45;&gt;Node26 -->
<g id="edge46" class="edge">
<title>Node1&#45;&gt;Node26</title>
<path fill="none" stroke="midnightblue" d="M847.93,-761.48C873.48,-752.74 913.93,-738.91 946.25,-727.86"/>
<polygon fill="midnightblue" stroke="midnightblue" points="947.66,-731.07 955.99,-724.52 945.4,-724.45 947.66,-731.07"/>
</g>
<!-- Node32 -->
<g id="node32" class="node">
<title>Node32</title>
<g id="a_node32"><a xlink:title=" ">
<polygon fill="white" stroke="#bfbfbf" points="1103.5,-700 1103.5,-719 1156.5,-719 1156.5,-700 1103.5,-700"/>
<text text-anchor="middle" x="1130" y="-707" font-family="Helvetica,sans-Serif" font-size="10.00">string.h</text>
</a>
</g>
</g>
<!-- Node1&#45;&gt;Node32 -->
<g id="edge59" class="edge">
<title>Node1&#45;&gt;Node32</title>
<path fill="none" stroke="midnightblue" d="M872.17,-765.1C927.01,-758.89 1018.01,-746.34 1094,-725 1096.44,-724.31 1098.94,-723.52 1101.43,-722.66"/>
<polygon fill="midnightblue" stroke="midnightblue" points="1102.71,-725.91 1110.84,-719.12 1100.25,-719.36 1102.71,-725.91"/>
</g>
<!-- Node2&#45;&gt;Node1 -->
<g id="edge44" class="edge">
<title>Node2&#45;&gt;Node1</title>
<path fill="none" stroke="midnightblue" d="M725.18,-652.06C731.18,-668.02 737.86,-702.73 756,-725 767.25,-738.81 783.95,-749.36 797.98,-756.75"/>
<polygon fill="midnightblue" stroke="midnightblue" points="796.67,-760.01 807.18,-761.37 799.81,-753.76 796.67,-760.01"/>
</g>
<!-- Node3 -->
<g id="node3" class="node">
<title>Node3</title>
<g id="a_node3"><a xlink:href="../../d1/d65/Warnings_8hpp.html" target="_top" xlink:title=" ">
<polygon fill="white" stroke="black" points="414.5,-0.5 414.5,-19.5 557.5,-19.5 557.5,-0.5 414.5,-0.5"/>
<text text-anchor="middle" x="486" y="-7.5" font-family="Helvetica,sans-Serif" font-size="10.00">AH/Settings/Warnings.hpp</text>
</a>
</g>
</g>
<!-- Node2&#45;&gt;Node3 -->
<g id="edge2" class="edge">
<title>Node2&#45;&gt;Node3</title>
<path fill="none" stroke="midnightblue" d="M668.44,-637.96C504.78,-625.85 0,-582.97 0,-515 0,-515 0,-515 0,-121 0,-81.98 24.2,-73.65 59,-56 117.53,-26.32 297.53,-16.18 404.23,-12.74"/>
<polygon fill="midnightblue" stroke="midnightblue" points="404.44,-16.24 414.32,-12.43 404.22,-9.24 404.44,-16.24"/>
</g>
<!-- Node4 -->
<g id="node4" class="node">
<title>Node4</title>
<g id="a_node4"><a xlink:href="../../d4/d35/Hardware-Types_8hpp.html" target="_top" xlink:title=" ">
<polygon fill="white" stroke="black" points="653.5,-560.5 653.5,-590.5 784.5,-590.5 784.5,-560.5 653.5,-560.5"/>
<text text-anchor="start" x="661.5" y="-578.5" font-family="Helvetica,sans-Serif" font-size="10.00">AH/Hardware/Hardware</text>
<text text-anchor="middle" x="719" y="-567.5" font-family="Helvetica,sans-Serif" font-size="10.00">&#45;Types.hpp</text>
</a>
</g>
</g>
<!-- Node2&#45;&gt;Node4 -->
<g id="edge3" class="edge">
<title>Node2&#45;&gt;Node4</title>
<path fill="none" stroke="midnightblue" d="M719,-632.73C719,-624.54 719,-611.92 719,-600.71"/>
<polygon fill="midnightblue" stroke="midnightblue" points="722.5,-600.59 719,-590.59 715.5,-600.59 722.5,-600.59"/>
</g>
<!-- Node4&#45;&gt;Node3 -->
<g id="edge4" class="edge">
<title>Node4&#45;&gt;Node3</title>
<path fill="none" stroke="midnightblue" d="M719,-560.28C719,-538.48 719,-495.49 719,-459 719,-459 719,-459 719,-289 719,-250.28 688.44,-251.32 661,-224 617.27,-180.46 596.22,-179.65 557,-132 529.51,-98.59 505.99,-53.29 494.16,-28.69"/>
<polygon fill="midnightblue" stroke="midnightblue" points="497.26,-27.06 489.83,-19.5 490.93,-30.04 497.26,-27.06"/>
</g>
<!-- Node5 -->
<g id="node5" class="node">
<title>Node5</title>
<g id="a_node5"><a xlink:href="../../de/d76/Array_8hpp.html" target="_top" xlink:title=" ">
<polygon fill="white" stroke="black" points="240.5,-504.5 240.5,-523.5 375.5,-523.5 375.5,-504.5 240.5,-504.5"/>
<text text-anchor="middle" x="308" y="-511.5" font-family="Helvetica,sans-Serif" font-size="10.00">AH/Containers/Array.hpp</text>
</a>
</g>
</g>
<!-- Node4&#45;&gt;Node5 -->
<g id="edge5" class="edge">
<title>Node4&#45;&gt;Node5</title>
<path fill="none" stroke="midnightblue" d="M653.42,-565.01C577.83,-554.06 454.15,-536.16 377.1,-525"/>
<polygon fill="midnightblue" stroke="midnightblue" points="377.41,-521.51 367.01,-523.54 376.41,-528.44 377.41,-521.51"/>
</g>
<!-- Node9 -->
<g id="node9" class="node">
<title>Node9</title>
<g id="a_node9"><a xlink:href="../../d6/db0/AH_2Settings_2NamespaceSettings_8hpp.html" target="_top" xlink:title=" ">
<polygon fill="white" stroke="black" points="951.5,-56.5 951.5,-75.5 1146.5,-75.5 1146.5,-56.5 951.5,-56.5"/>
<text text-anchor="middle" x="1049" y="-63.5" font-family="Helvetica,sans-Serif" font-size="10.00">AH/Settings/NamespaceSettings.hpp</text>
</a>
</g>
</g>
<!-- Node4&#45;&gt;Node9 -->
<g id="edge42" class="edge">
<title>Node4&#45;&gt;Node9</title>
<path fill="none" stroke="midnightblue" d="M737.06,-560.36C769.21,-533.47 833,-471.47 833,-403 833,-403 833,-403 833,-345 833,-242.23 972.4,-320.52 1041,-244 1081.23,-199.13 1086.1,-170.59 1072,-112 1069.69,-102.42 1064.98,-92.58 1060.42,-84.56"/>
<polygon fill="midnightblue" stroke="midnightblue" points="1063.29,-82.54 1055.1,-75.81 1057.31,-86.17 1063.29,-82.54"/>
</g>
<!-- Node22 -->
<g id="node22" class="node">
<title>Node22</title>
<g id="a_node22"><a xlink:title=" ">
<polygon fill="white" stroke="#bfbfbf" points="599.5,-224.5 599.5,-243.5 652.5,-243.5 652.5,-224.5 599.5,-224.5"/>
<text text-anchor="middle" x="626" y="-231.5" font-family="Helvetica,sans-Serif" font-size="10.00">stdint.h</text>
</a>
</g>
</g>
<!-- Node4&#45;&gt;Node22 -->
<g id="edge43" class="edge">
<title>Node4&#45;&gt;Node22</title>
<path fill="none" stroke="midnightblue" d="M701.75,-560.43C679.33,-540.44 643,-501.49 643,-459 643,-459 643,-459 643,-345 643,-312.58 635.7,-275.42 630.67,-253.64"/>
<polygon fill="midnightblue" stroke="midnightblue" points="634.03,-252.67 628.29,-243.77 627.23,-254.31 634.03,-252.67"/>
</g>
<!-- Node5&#45;&gt;Node3 -->
<g id="edge6" class="edge">
<title>Node5&#45;&gt;Node3</title>
<path fill="none" stroke="midnightblue" d="M249.82,-504.45C213.34,-497.67 166.01,-486.24 127,-468 82.63,-447.26 38,-451.98 38,-403 38,-403 38,-403 38,-121 38,-80.14 66.23,-73.81 103,-56 154.5,-31.05 308.01,-19.35 404.32,-14.34"/>
<polygon fill="midnightblue" stroke="midnightblue" points="404.52,-17.83 414.32,-13.83 404.16,-10.84 404.52,-17.83"/>
</g>
<!-- Node6 -->
<g id="node6" class="node">
<title>Node6</title>
<g id="a_node6"><a xlink:href="../../d1/d93/Error_8hpp.html" target="_top" xlink:title=" ">
<polygon fill="white" stroke="black" points="198,-448.5 198,-467.5 302,-467.5 302,-448.5 198,-448.5"/>
<text text-anchor="middle" x="250" y="-455.5" font-family="Helvetica,sans-Serif" font-size="10.00">AH/Error/Error.hpp</text>
</a>
</g>
</g>
<!-- Node5&#45;&gt;Node6 -->
<g id="edge7" class="edge">
<title>Node5&#45;&gt;Node6</title>
<path fill="none" stroke="midnightblue" d="M298.68,-504.32C290.11,-496.34 277.19,-484.31 266.81,-474.65"/>
<polygon fill="midnightblue" stroke="midnightblue" points="269.19,-472.09 259.49,-467.83 264.42,-477.21 269.19,-472.09"/>
</g>
<!-- Node14 -->
<g id="node14" class="node">
<title>Node14</title>
<g id="a_node14"><a xlink:title=" ">
<polygon fill="white" stroke="#bfbfbf" points="637.5,-112.5 637.5,-131.5 744.5,-131.5 744.5,-112.5 637.5,-112.5"/>
<text text-anchor="middle" x="691" y="-119.5" font-family="Helvetica,sans-Serif" font-size="10.00">AH/STL/type_traits</text>
</a>
</g>
</g>
<!-- Node5&#45;&gt;Node14 -->
<g id="edge40" class="edge">
<title>Node5&#45;&gt;Node14</title>
<path fill="none" stroke="midnightblue" d="M375.55,-507C483.04,-495.56 681,-465.96 681,-403 681,-403 681,-403 681,-289 681,-234.81 652.41,-220.46 666,-168 668.55,-158.18 673.75,-148.21 678.76,-140.17"/>
<polygon fill="midnightblue" stroke="midnightblue" points="681.75,-141.99 684.37,-131.73 675.92,-138.11 681.75,-141.99"/>
</g>
<!-- Node21 -->
<g id="node21" class="node">
<title>Node21</title>
<g id="a_node21"><a xlink:title=" ">
<polygon fill="white" stroke="#bfbfbf" points="202,-224.5 202,-243.5 258,-243.5 258,-224.5 202,-224.5"/>
<text text-anchor="middle" x="230" y="-231.5" font-family="Helvetica,sans-Serif" font-size="10.00">stddef.h</text>
</a>
</g>
</g>
<!-- Node5&#45;&gt;Node21 -->
<g id="edge41" class="edge">
<title>Node5&#45;&gt;Node21</title>
<path fill="none" stroke="midnightblue" d="M247.42,-504.5C190.49,-492.69 114,-465.24 114,-403 114,-403 114,-403 114,-345 114,-297.81 165.16,-264.79 199.53,-247.92"/>
<polygon fill="midnightblue" stroke="midnightblue" points="201.17,-251.02 208.72,-243.6 198.19,-244.69 201.17,-251.02"/>
</g>
<!-- Node24 -->
<g id="node24" class="node">
<title>Node24</title>
<g id="a_node24"><a xlink:title=" ">
<polygon fill="white" stroke="#bfbfbf" points="320,-448.5 320,-467.5 410,-467.5 410,-448.5 320,-448.5"/>
<text text-anchor="middle" x="365" y="-455.5" font-family="Helvetica,sans-Serif" font-size="10.00">AH/STL/iterator</text>
</a>
</g>
</g>
<!-- Node5&#45;&gt;Node24 -->
<g id="edge39" class="edge">
<title>Node5&#45;&gt;Node24</title>
<path fill="none" stroke="midnightblue" d="M317.16,-504.32C325.5,-496.42 338.03,-484.55 348.18,-474.94"/>
<polygon fill="midnightblue" stroke="midnightblue" points="350.82,-477.25 355.68,-467.83 346.01,-472.17 350.82,-477.25"/>
</g>
<!-- Node6&#45;&gt;Node3 -->
<g id="edge8" class="edge">
<title>Node6&#45;&gt;Node3</title>
<path fill="none" stroke="midnightblue" d="M228.31,-448.48C181.67,-428.58 76,-374.29 76,-291 76,-291 76,-291 76,-121 76,-73.09 117.73,-74.33 162,-56 240.1,-23.66 336.93,-13.71 404.29,-11.05"/>
<polygon fill="midnightblue" stroke="midnightblue" points="404.55,-14.55 414.43,-10.7 404.31,-7.55 404.55,-14.55"/>
</g>
<!-- Node7 -->
<g id="node7" class="node">
<title>Node7</title>
<g id="a_node7"><a xlink:href="../../df/dee/Debug_8hpp.html" target="_top" xlink:title=" ">
<polygon fill="white" stroke="black" points="244.5,-392.5 244.5,-411.5 365.5,-411.5 365.5,-392.5 244.5,-392.5"/>
<text text-anchor="middle" x="305" y="-399.5" font-family="Helvetica,sans-Serif" font-size="10.00">AH/Debug/Debug.hpp</text>
</a>
</g>
</g>
<!-- Node6&#45;&gt;Node7 -->
<g id="edge9" class="edge">
<title>Node6&#45;&gt;Node7</title>
<path fill="none" stroke="midnightblue" d="M259.08,-448.08C267.17,-440.14 279.2,-428.34 288.91,-418.8"/>
<polygon fill="midnightblue" stroke="midnightblue" points="291.4,-421.25 296.09,-411.75 286.5,-416.26 291.4,-421.25"/>
</g>
<!-- Node7&#45;&gt;Node3 -->
<g id="edge10" class="edge">
<title>Node7&#45;&gt;Node3</title>
<path fill="none" stroke="midnightblue" d="M271.23,-392.46C250.34,-385.65 224.3,-374.17 207,-356 148.55,-294.62 136,-263.76 136,-179 136,-179 136,-179 136,-121 136,-75.19 174.24,-74.84 216,-56 275.54,-29.14 348.98,-18.15 404.22,-13.74"/>
<polygon fill="midnightblue" stroke="midnightblue" points="404.61,-17.22 414.32,-12.98 404.09,-10.24 404.61,-17.22"/>
</g>
<!-- Node8 -->
<g id="node8" class="node">
<title>Node8</title>
<g id="a_node8"><a xlink:href="../../dd/d80/PrintStream_8hpp.html" target="_top" xlink:title=" ">
<polygon fill="white" stroke="black" points="859.5,-224.5 859.5,-243.5 1032.5,-243.5 1032.5,-224.5 859.5,-224.5"/>
<text text-anchor="middle" x="946" y="-231.5" font-family="Helvetica,sans-Serif" font-size="10.00">AH/PrintStream/PrintStream.hpp</text>
</a>
</g>
</g>
<!-- Node7&#45;&gt;Node8 -->
<g id="edge11" class="edge">
<title>Node7&#45;&gt;Node8</title>
<path fill="none" stroke="midnightblue" d="M338.11,-392.42C445.35,-364.65 783.13,-277.18 903.16,-246.1"/>
<polygon fill="midnightblue" stroke="midnightblue" points="904.28,-249.42 913.08,-243.52 902.53,-242.64 904.28,-249.42"/>
</g>
<!-- Node16 -->
<g id="node16" class="node">
<title>Node16</title>
<g id="a_node16"><a xlink:href="../../de/dd1/AH_2Settings_2SettingsWrapper_8hpp.html" target="_top" xlink:title=" ">
<polygon fill="white" stroke="black" points="216,-336.5 216,-355.5 394,-355.5 394,-336.5 216,-336.5"/>
<text text-anchor="middle" x="305" y="-343.5" font-family="Helvetica,sans-Serif" font-size="10.00">AH/Settings/SettingsWrapper.hpp</text>
</a>
</g>
</g>
<!-- Node7&#45;&gt;Node16 -->
<g id="edge24" class="edge">
<title>Node7&#45;&gt;Node16</title>
<path fill="none" stroke="midnightblue" d="M299.83,-392.08C298.32,-384.93 297.89,-374.64 298.54,-365.69"/>
<polygon fill="midnightblue" stroke="midnightblue" points="302.02,-366.13 299.87,-355.75 295.08,-365.2 302.02,-366.13"/>
</g>
<!-- Node8&#45;&gt;Node3 -->
<g id="edge13" class="edge">
<title>Node8&#45;&gt;Node3</title>
<path fill="none" stroke="midnightblue" d="M922.49,-224.45C901.65,-216.4 870.77,-203.32 846,-188 800.6,-159.92 799.23,-138.68 753,-112 678.6,-69.06 582.55,-37.97 528.27,-22.36"/>
<polygon fill="midnightblue" stroke="midnightblue" points="528.89,-18.9 518.32,-19.54 526.98,-25.64 528.89,-18.9"/>
</g>
<!-- Node8&#45;&gt;Node9 -->
<g id="edge12" class="edge">
<title>Node8&#45;&gt;Node9</title>
<path fill="none" stroke="midnightblue" d="M986.53,-224.36C1006.65,-217.87 1029.31,-206.75 1042,-188 1062.96,-157.04 1058.2,-110.76 1053.32,-85.34"/>
<polygon fill="midnightblue" stroke="midnightblue" points="1056.74,-84.6 1051.23,-75.55 1049.89,-86.06 1056.74,-84.6"/>
</g>
<!-- Node10 -->
<g id="node10" class="node">
<title>Node10</title>
<g id="a_node10"><a xlink:href="../../d6/ddf/Arduino-Wrapper_8h.html" target="_top" xlink:title=" ">
<polygon fill="white" stroke="black" points="675,-168.5 675,-187.5 799,-187.5 799,-168.5 675,-168.5"/>
<text text-anchor="middle" x="737" y="-175.5" font-family="Helvetica,sans-Serif" font-size="10.00">AH/Arduino&#45;Wrapper.h</text>
</a>
</g>
</g>
<!-- Node8&#45;&gt;Node10 -->
<g id="edge14" class="edge">
<title>Node8&#45;&gt;Node10</title>
<path fill="none" stroke="midnightblue" d="M912.88,-224.44C876.88,-215.14 819.23,-200.25 779.81,-190.06"/>
<polygon fill="midnightblue" stroke="midnightblue" points="780.52,-186.63 769.96,-187.52 778.77,-193.41 780.52,-186.63"/>
</g>
<!-- Node15 -->
<g id="node15" class="node">
<title>Node15</title>
<g id="a_node15"><a xlink:title=" ">
<polygon fill="white" stroke="#bfbfbf" points="855,-168.5 855,-187.5 1033,-187.5 1033,-168.5 855,-168.5"/>
<text text-anchor="middle" x="944" y="-175.5" font-family="Helvetica,sans-Serif" font-size="10.00">Settings/NamespaceSettings.hpp</text>
</a>
</g>
</g>
<!-- Node8&#45;&gt;Node15 -->
<g id="edge23" class="edge">
<title>Node8&#45;&gt;Node15</title>
<path fill="none" stroke="midnightblue" d="M945.67,-224.08C945.41,-217.01 945.03,-206.86 944.7,-197.99"/>
<polygon fill="midnightblue" stroke="midnightblue" points="948.19,-197.61 944.32,-187.75 941.2,-197.87 948.19,-197.61"/>
</g>
<!-- Node11 -->
<g id="node11" class="node">
<title>Node11</title>
<g id="a_node11"><a xlink:href="../../d7/d79/MinMaxFix_8hpp.html" target="_top" xlink:title=" ">
<polygon fill="white" stroke="black" points="801,-112.5 801,-131.5 937,-131.5 937,-112.5 801,-112.5"/>
<text text-anchor="middle" x="869" y="-119.5" font-family="Helvetica,sans-Serif" font-size="10.00">AH/Math/MinMaxFix.hpp</text>
</a>
</g>
</g>
<!-- Node10&#45;&gt;Node11 -->
<g id="edge15" class="edge">
<title>Node10&#45;&gt;Node11</title>
<path fill="none" stroke="midnightblue" d="M757.92,-168.44C779.74,-159.52 814.15,-145.44 838.89,-135.32"/>
<polygon fill="midnightblue" stroke="midnightblue" points="840.25,-138.54 848.18,-131.52 837.6,-132.06 840.25,-138.54"/>
</g>
<!-- Node13 -->
<g id="node13" class="node">
<title>Node13</title>
<g id="a_node13"><a xlink:title=" ">
<polygon fill="white" stroke="#bfbfbf" points="1101.5,-0.5 1101.5,-19.5 1164.5,-19.5 1164.5,-0.5 1101.5,-0.5"/>
<text text-anchor="middle" x="1133" y="-7.5" font-family="Helvetica,sans-Serif" font-size="10.00">Arduino.h</text>
</a>
</g>
</g>
<!-- Node10&#45;&gt;Node13 -->
<g id="edge22" class="edge">
<title>Node10&#45;&gt;Node13</title>
<path fill="none" stroke="midnightblue" d="M799.25,-171.78C814.53,-170.52 830.86,-169.19 846,-168 953.08,-159.58 1227.91,-170.96 1328,-132 1365.45,-117.42 1381.47,-112.16 1399,-76 1402.88,-68 1404.74,-62.79 1399,-56 1370.81,-22.64 1242.49,-14 1174.91,-11.77"/>
<polygon fill="midnightblue" stroke="midnightblue" points="1174.71,-8.26 1164.62,-11.47 1174.51,-15.26 1174.71,-8.26"/>
</g>
<!-- Node10&#45;&gt;Node14 -->
<g id="edge21" class="edge">
<title>Node10&#45;&gt;Node14</title>
<path fill="none" stroke="midnightblue" d="M729.4,-168.08C722.77,-160.3 712.98,-148.8 704.94,-139.37"/>
<polygon fill="midnightblue" stroke="midnightblue" points="707.6,-137.09 698.45,-131.75 702.27,-141.63 707.6,-137.09"/>
</g>
<!-- Node11&#45;&gt;Node3 -->
<g id="edge16" class="edge">
<title>Node11&#45;&gt;Node3</title>
<path fill="none" stroke="midnightblue" d="M845.92,-112.45C822.58,-103.7 785.54,-89.49 754,-76 734.62,-67.71 731.03,-62.56 711,-56 661.37,-39.75 603.57,-28.35 558.98,-21.08"/>
<polygon fill="midnightblue" stroke="midnightblue" points="559.53,-17.62 549.1,-19.5 558.43,-24.54 559.53,-17.62"/>
</g>
<!-- Node11&#45;&gt;Node9 -->
<g id="edge20" class="edge">
<title>Node11&#45;&gt;Node9</title>
<path fill="none" stroke="midnightblue" d="M897.52,-112.44C928.07,-103.28 976.71,-88.69 1010.6,-78.52"/>
<polygon fill="midnightblue" stroke="midnightblue" points="1012.04,-81.74 1020.61,-75.52 1010.03,-75.04 1012.04,-81.74"/>
</g>
<!-- Node12 -->
<g id="node12" class="node">
<title>Node12</title>
<g id="a_node12"><a xlink:href="../../d6/d3b/FixArduinoMacros_8hpp.html" target="_top" xlink:title=" ">
<polygon fill="white" stroke="black" points="763,-56.5 763,-75.5 933,-75.5 933,-56.5 763,-56.5"/>
<text text-anchor="middle" x="848" y="-63.5" font-family="Helvetica,sans-Serif" font-size="10.00">AH/Math/FixArduinoMacros.hpp</text>
</a>
</g>
</g>
<!-- Node11&#45;&gt;Node12 -->
<g id="edge17" class="edge">
<title>Node11&#45;&gt;Node12</title>
<path fill="none" stroke="midnightblue" d="M865.53,-112.08C862.69,-104.77 858.57,-94.18 855.04,-85.1"/>
<polygon fill="midnightblue" stroke="midnightblue" points="858.29,-83.8 851.4,-75.75 851.77,-86.34 858.29,-83.8"/>
</g>
<!-- Node12&#45;&gt;Node3 -->
<g id="edge18" class="edge">
<title>Node12&#45;&gt;Node3</title>
<path fill="none" stroke="midnightblue" d="M790.64,-56.44C726.17,-46.83 621.6,-31.23 553.31,-21.04"/>
<polygon fill="midnightblue" stroke="midnightblue" points="553.5,-17.53 543.09,-19.52 552.47,-24.45 553.5,-17.53"/>
</g>
<!-- Node12&#45;&gt;Node13 -->
<g id="edge19" class="edge">
<title>Node12&#45;&gt;Node13</title>
<path fill="none" stroke="midnightblue" d="M893.16,-56.44C947.6,-46.13 1038.36,-28.93 1091.24,-18.91"/>
<polygon fill="midnightblue" stroke="midnightblue" points="1092.12,-22.31 1101.29,-17.01 1090.81,-15.43 1092.12,-22.31"/>
</g>
<!-- Node16&#45;&gt;Node3 -->
<g id="edge25" class="edge">
<title>Node16&#45;&gt;Node3</title>
<path fill="none" stroke="midnightblue" d="M269.89,-336.4C249.43,-329.69 224.66,-318.33 209,-300 172.64,-257.44 174,-234.98 174,-179 174,-179 174,-179 174,-121 174,-69.93 324.56,-36.73 416.5,-21.22"/>
<polygon fill="midnightblue" stroke="midnightblue" points="417.29,-24.64 426.58,-19.55 416.14,-17.73 417.29,-24.64"/>
</g>
<!-- Node16&#45;&gt;Node7 -->
<g id="edge38" class="edge">
<title>Node16&#45;&gt;Node7</title>
<path fill="none" stroke="midnightblue" d="M310.13,-355.75C311.66,-362.86 312.1,-373.14 311.47,-382.1"/>
<polygon fill="midnightblue" stroke="midnightblue" points="307.99,-381.71 310.17,-392.08 314.93,-382.62 307.99,-381.71"/>
</g>
<!-- Node16&#45;&gt;Node9 -->
<g id="edge26" class="edge">
<title>Node16&#45;&gt;Node9</title>
<path fill="none" stroke="midnightblue" d="M382.98,-336.45C418.8,-330.1 460.81,-319.08 495,-300 559.27,-264.14 557.88,-231.55 595,-168 609.57,-143.05 603.72,-127.65 628,-112 641.08,-103.57 821.12,-86.6 941.48,-76.08"/>
<polygon fill="midnightblue" stroke="midnightblue" points="941.82,-79.56 951.48,-75.21 941.22,-72.59 941.82,-79.56"/>
</g>
<!-- Node17 -->
<g id="node17" class="node">
<title>Node17</title>
<g id="a_node17"><a xlink:href="../../d5/d4f/AH_2Settings_2Settings_8hpp.html" target="_top" xlink:title="All user settings and debugging options can be changed here.">
<polygon fill="white" stroke="black" points="409.5,-280.5 409.5,-299.5 486.5,-299.5 486.5,-280.5 409.5,-280.5"/>
<text text-anchor="middle" x="448" y="-287.5" font-family="Helvetica,sans-Serif" font-size="10.00">Settings.hpp</text>
</a>
</g>
</g>
<!-- Node16&#45;&gt;Node17 -->
<g id="edge27" class="edge">
<title>Node16&#45;&gt;Node17</title>
<path fill="none" stroke="midnightblue" d="M327.66,-336.44C351.4,-327.48 388.91,-313.31 415.74,-303.18"/>
<polygon fill="midnightblue" stroke="midnightblue" points="417.33,-306.32 425.45,-299.52 414.86,-299.77 417.33,-306.32"/>
</g>
<!-- Node23 -->
<g id="node23" class="node">
<title>Node23</title>
<g id="a_node23"><a xlink:href="../../d9/d98/TeensyUSBTypes_8hpp.html" target="_top" xlink:title=" ">
<polygon fill="white" stroke="black" points="218.5,-280.5 218.5,-299.5 391.5,-299.5 391.5,-280.5 218.5,-280.5"/>
<text text-anchor="middle" x="305" y="-287.5" font-family="Helvetica,sans-Serif" font-size="10.00">AH/Teensy/TeensyUSBTypes.hpp</text>
</a>
</g>
</g>
<!-- Node16&#45;&gt;Node23 -->
<g id="edge37" class="edge">
<title>Node16&#45;&gt;Node23</title>
<path fill="none" stroke="midnightblue" d="M305,-336.08C305,-329.01 305,-318.86 305,-309.99"/>
<polygon fill="midnightblue" stroke="midnightblue" points="308.5,-309.75 305,-299.75 301.5,-309.75 308.5,-309.75"/>
</g>
<!-- Node18 -->
<g id="node18" class="node">
<title>Node18</title>
<g id="a_node18"><a xlink:href="../../dc/d50/Frequency_8hpp.html" target="_top" xlink:title=" ">
<polygon fill="white" stroke="black" points="371,-112.5 371,-131.5 505,-131.5 505,-112.5 371,-112.5"/>
<text text-anchor="middle" x="438" y="-119.5" font-family="Helvetica,sans-Serif" font-size="10.00">AH/Types/Frequency.hpp</text>
</a>
</g>
</g>
<!-- Node17&#45;&gt;Node18 -->
<g id="edge28" class="edge">
<title>Node17&#45;&gt;Node18</title>
<path fill="none" stroke="midnightblue" d="M413.7,-280.47C373.54,-270.14 311.6,-253 305,-244 270.98,-197.63 354.8,-155.34 404.47,-135.27"/>
<polygon fill="midnightblue" stroke="midnightblue" points="405.88,-138.47 413.91,-131.56 403.32,-131.96 405.88,-138.47"/>
</g>
<!-- Node19 -->
<g id="node19" class="node">
<title>Node19</title>
<g id="a_node19"><a xlink:href="../../d7/d7c/ADCConfig_8hpp.html" target="_top" xlink:title="This file contains the platform&#45;specific ADC resolutions.">
<polygon fill="white" stroke="black" points="385.5,-224.5 385.5,-243.5 542.5,-243.5 542.5,-224.5 385.5,-224.5"/>
<text text-anchor="middle" x="464" y="-231.5" font-family="Helvetica,sans-Serif" font-size="10.00">AH/Hardware/ADCConfig.hpp</text>
</a>
</g>
</g>
<!-- Node17&#45;&gt;Node19 -->
<g id="edge31" class="edge">
<title>Node17&#45;&gt;Node19</title>
<path fill="none" stroke="midnightblue" d="M450.64,-280.08C452.79,-272.85 455.88,-262.41 458.55,-253.4"/>
<polygon fill="midnightblue" stroke="midnightblue" points="461.92,-254.33 461.41,-243.75 455.21,-252.34 461.92,-254.33"/>
</g>
<!-- Node20 -->
<g id="node20" class="node">
<title>Node20</title>
<g id="a_node20"><a xlink:title=" ">
<polygon fill="white" stroke="#bfbfbf" points="314.5,-224.5 314.5,-243.5 367.5,-243.5 367.5,-224.5 314.5,-224.5"/>
<text text-anchor="middle" x="341" y="-231.5" font-family="Helvetica,sans-Serif" font-size="10.00">limits.h</text>
</a>
</g>
</g>
<!-- Node17&#45;&gt;Node20 -->
<g id="edge34" class="edge">
<title>Node17&#45;&gt;Node20</title>
<path fill="none" stroke="midnightblue" d="M430.81,-280.32C413.65,-271.66 387.05,-258.24 367.25,-248.25"/>
<polygon fill="midnightblue" stroke="midnightblue" points="368.65,-245.04 358.15,-243.65 365.5,-251.28 368.65,-245.04"/>
</g>
<!-- Node17&#45;&gt;Node21 -->
<g id="edge35" class="edge">
<title>Node17&#45;&gt;Node21</title>
<path fill="none" stroke="midnightblue" d="M413.46,-280.44C373.83,-270.63 309.07,-254.59 268.03,-244.42"/>
<polygon fill="midnightblue" stroke="midnightblue" points="268.69,-240.98 258.14,-241.97 267.01,-247.77 268.69,-240.98"/>
</g>
<!-- Node17&#45;&gt;Node22 -->
<g id="edge36" class="edge">
<title>Node17&#45;&gt;Node22</title>
<path fill="none" stroke="midnightblue" d="M476.2,-280.44C506.85,-271.15 555.93,-256.26 589.5,-246.07"/>
<polygon fill="midnightblue" stroke="midnightblue" points="590.83,-249.33 599.38,-243.08 588.8,-242.63 590.83,-249.33"/>
</g>
<!-- Node18&#45;&gt;Node3 -->
<g id="edge29" class="edge">
<title>Node18&#45;&gt;Node3</title>
<path fill="none" stroke="midnightblue" d="M441.77,-112.37C449.58,-94.46 467.71,-52.92 478.17,-28.95"/>
<polygon fill="midnightblue" stroke="midnightblue" points="481.46,-30.16 482.25,-19.59 475.04,-27.36 481.46,-30.16"/>
</g>
<!-- Node18&#45;&gt;Node9 -->
<g id="edge30" class="edge">
<title>Node18&#45;&gt;Node9</title>
<path fill="none" stroke="midnightblue" d="M505.14,-115.07C610.78,-105.73 816.72,-87.53 942.65,-76.4"/>
<polygon fill="midnightblue" stroke="midnightblue" points="943.05,-79.88 952.7,-75.51 942.43,-72.91 943.05,-79.88"/>
</g>
<!-- Node19&#45;&gt;Node3 -->
<g id="edge32" class="edge">
<title>Node19&#45;&gt;Node3</title>
<path fill="none" stroke="midnightblue" d="M446.54,-224.47C411.69,-206.19 338.77,-160.89 362,-112 381.79,-70.36 428.07,-40.25 458.15,-24.23"/>
<polygon fill="midnightblue" stroke="midnightblue" points="460,-27.21 467.3,-19.52 456.8,-20.99 460,-27.21"/>
</g>
<!-- Node19&#45;&gt;Node10 -->
<g id="edge33" class="edge">
<title>Node19&#45;&gt;Node10</title>
<path fill="none" stroke="midnightblue" d="M507.26,-224.44C555.18,-214.96 632.48,-199.67 684,-189.48"/>
<polygon fill="midnightblue" stroke="midnightblue" points="684.81,-192.89 693.94,-187.52 683.46,-186.02 684.81,-192.89"/>
</g>
<!-- Node26&#45;&gt;Node3 -->
<g id="edge58" class="edge">
<title>Node26&#45;&gt;Node3</title>
<path fill="none" stroke="midnightblue" d="M1073.31,-694.46C1203.83,-669.38 1456,-615.83 1456,-576.5 1456,-576.5 1456,-576.5 1456,-121 1456,-82.58 1433.6,-72.71 1399,-56 1325.32,-20.4 777.75,-12.96 567.7,-11.4"/>
<polygon fill="midnightblue" stroke="midnightblue" points="567.68,-7.9 557.66,-11.33 567.63,-14.9 567.68,-7.9"/>
</g>
<!-- Node26&#45;&gt;Node9 -->
<g id="edge57" class="edge">
<title>Node26&#45;&gt;Node9</title>
<path fill="none" stroke="midnightblue" d="M1030.89,-694.44C1072.32,-674.72 1137,-634.63 1137,-576.5 1137,-576.5 1137,-576.5 1137,-177 1137,-135.03 1097.46,-99.9 1071.39,-81.3"/>
<polygon fill="midnightblue" stroke="midnightblue" points="1073.36,-78.41 1063.14,-75.64 1069.4,-84.18 1073.36,-78.41"/>
</g>
<!-- Node27 -->
<g id="node27" class="node">
<title>Node27</title>
<g id="a_node27"><a xlink:href="../../d2/d3c/Arduino-Hardware-Types_8hpp.html" target="_top" xlink:title=" ">
<polygon fill="white" stroke="black" points="810,-627.5 810,-657.5 932,-657.5 932,-627.5 810,-627.5"/>
<text text-anchor="start" x="818" y="-645.5" font-family="Helvetica,sans-Serif" font-size="10.00">AH/Hardware/Arduino</text>
<text text-anchor="middle" x="871" y="-634.5" font-family="Helvetica,sans-Serif" font-size="10.00">&#45;Hardware&#45;Types.hpp</text>
</a>
</g>
</g>
<!-- Node26&#45;&gt;Node27 -->
<g id="edge47" class="edge">
<title>Node26&#45;&gt;Node27</title>
<path fill="none" stroke="midnightblue" d="M969.66,-694.4C951.41,-684.98 927.22,-672.5 907.36,-662.26"/>
<polygon fill="midnightblue" stroke="midnightblue" points="908.78,-659.05 898.29,-657.58 905.57,-665.27 908.78,-659.05"/>
</g>
<!-- Node31 -->
<g id="node31" class="node">
<title>Node31</title>
<g id="a_node31"><a xlink:title=" ">
<polygon fill="white" stroke="#bfbfbf" points="953.5,-633 953.5,-652 1040.5,-652 1040.5,-633 953.5,-633"/>
<text text-anchor="middle" x="997" y="-640" font-family="Helvetica,sans-Serif" font-size="10.00">AH/STL/climits</text>
</a>
</g>
</g>
<!-- Node26&#45;&gt;Node31 -->
<g id="edge56" class="edge">
<title>Node26&#45;&gt;Node31</title>
<path fill="none" stroke="midnightblue" d="M997,-694.4C997,-685.06 997,-672.71 997,-662.52"/>
<polygon fill="midnightblue" stroke="midnightblue" points="1000.5,-662.19 997,-652.19 993.5,-662.19 1000.5,-662.19"/>
</g>
<!-- Node27&#45;&gt;Node3 -->
<g id="edge48" class="edge">
<title>Node27&#45;&gt;Node3</title>
<path fill="none" stroke="midnightblue" d="M863.15,-627.48C843.74,-591.43 795,-492.09 795,-403 795,-403 795,-403 795,-345 795,-323.17 564.62,-90.02 501.71,-26.76"/>
<polygon fill="midnightblue" stroke="midnightblue" points="504.12,-24.22 494.59,-19.6 499.16,-29.16 504.12,-24.22"/>
</g>
<!-- Node27&#45;&gt;Node4 -->
<g id="edge49" class="edge">
<title>Node27&#45;&gt;Node4</title>
<path fill="none" stroke="midnightblue" d="M838.02,-627.4C815.51,-617.77 785.5,-604.94 761.24,-594.56"/>
<polygon fill="midnightblue" stroke="midnightblue" points="762.49,-591.29 751.92,-590.58 759.74,-597.73 762.49,-591.29"/>
</g>
<!-- Node27&#45;&gt;Node10 -->
<g id="edge55" class="edge">
<title>Node27&#45;&gt;Node10</title>
<path fill="none" stroke="midnightblue" d="M871,-627.46C871,-604.12 871,-555.85 871,-515 871,-515 871,-515 871,-345 871,-275.22 798.43,-218.24 760.1,-193.02"/>
<polygon fill="midnightblue" stroke="midnightblue" points="761.9,-190.02 751.6,-187.57 758.13,-195.91 761.9,-190.02"/>
</g>
<!-- Node28 -->
<g id="node28" class="node">
<title>Node28</title>
<g id="a_node28"><a xlink:href="../../d0/db1/FunctionTraits_8hpp.html" target="_top" xlink:title=" ">
<polygon fill="white" stroke="black" points="1165.5,-112.5 1165.5,-131.5 1318.5,-131.5 1318.5,-112.5 1165.5,-112.5"/>
<text text-anchor="middle" x="1242" y="-119.5" font-family="Helvetica,sans-Serif" font-size="10.00">AH/Types/FunctionTraits.hpp</text>
</a>
</g>
</g>
<!-- Node27&#45;&gt;Node28 -->
<g id="edge50" class="edge">
<title>Node27&#45;&gt;Node28</title>
<path fill="none" stroke="midnightblue" d="M906.17,-627.4C986.19,-592.74 1175,-495.25 1175,-347 1175,-347 1175,-347 1175,-233 1175,-194.7 1204.99,-158.42 1224.84,-138.59"/>
<polygon fill="midnightblue" stroke="midnightblue" points="1227.33,-141.05 1232.11,-131.6 1222.48,-136 1227.33,-141.05"/>
</g>
<!-- Node28&#45;&gt;Node3 -->
<g id="edge53" class="edge">
<title>Node28&#45;&gt;Node3</title>
<path fill="none" stroke="midnightblue" d="M1233.88,-112.28C1219.58,-97.59 1188.24,-68.3 1155,-56 1049.55,-16.98 722.27,-11.22 568.02,-10.75"/>
<polygon fill="midnightblue" stroke="midnightblue" points="567.67,-7.25 557.67,-10.73 567.66,-14.25 567.67,-7.25"/>
</g>
<!-- Node28&#45;&gt;Node9 -->
<g id="edge54" class="edge">
<title>Node28&#45;&gt;Node9</title>
<path fill="none" stroke="midnightblue" d="M1211.42,-112.44C1178.39,-103.2 1125.61,-88.44 1089.23,-78.26"/>
<polygon fill="midnightblue" stroke="midnightblue" points="1090.01,-74.84 1079.44,-75.52 1088.13,-81.58 1090.01,-74.84"/>
</g>
<!-- Node29 -->
<g id="node29" class="node">
<title>Node29</title>
<g id="a_node29"><a xlink:title=" ">
<polygon fill="white" stroke="#bfbfbf" points="1300,-56.5 1300,-75.5 1390,-75.5 1390,-56.5 1300,-56.5"/>
<text text-anchor="middle" x="1345" y="-63.5" font-family="Helvetica,sans-Serif" font-size="10.00">AH/STL/cstddef</text>
</a>
</g>
</g>
<!-- Node28&#45;&gt;Node29 -->
<g id="edge51" class="edge">
<title>Node28&#45;&gt;Node29</title>
<path fill="none" stroke="midnightblue" d="M1258.55,-112.32C1274.99,-103.7 1300.43,-90.36 1319.47,-80.39"/>
<polygon fill="midnightblue" stroke="midnightblue" points="1321.26,-83.4 1328.49,-75.65 1318.01,-77.2 1321.26,-83.4"/>
</g>
<!-- Node30 -->
<g id="node30" class="node">
<title>Node30</title>
<g id="a_node30"><a xlink:title=" ">
<polygon fill="white" stroke="#bfbfbf" points="1202.5,-56.5 1202.5,-75.5 1281.5,-75.5 1281.5,-56.5 1202.5,-56.5"/>
<text text-anchor="middle" x="1242" y="-63.5" font-family="Helvetica,sans-Serif" font-size="10.00">AH/STL/tuple</text>
</a>
</g>
</g>
<!-- Node28&#45;&gt;Node30 -->
<g id="edge52" class="edge">
<title>Node28&#45;&gt;Node30</title>
<path fill="none" stroke="midnightblue" d="M1242,-112.08C1242,-105.01 1242,-94.86 1242,-85.99"/>
<polygon fill="midnightblue" stroke="midnightblue" points="1245.5,-85.75 1242,-75.75 1238.5,-85.75 1245.5,-85.75"/>
</g>
</g>
</svg>
