<?xml version="1.0" encoding="UTF-8" standalone="no"?>
<!DOCTYPE svg PUBLIC "-//W3C//DTD SVG 1.1//EN"
 "http://www.w3.org/Graphics/SVG/1.1/DTD/svg11.dtd">
<!-- Generated by graphviz version 2.43.0 (0)
 -->
<!-- Title: NoteButtonMatrix&lt; NumBanks, nb_rows, nb_cols &gt; Pages: 1 -->
<svg width="294pt" height="860pt"
 viewBox="0.00 0.00 294.00 860.00" xmlns="http://www.w3.org/2000/svg" xmlns:xlink="http://www.w3.org/1999/xlink">
<g id="graph0" class="graph" transform="scale(1 1) rotate(0) translate(4 856)">
<title>NoteButtonMatrix&lt; NumBanks, nb_rows, nb_cols &gt;</title>
<polygon fill="white" stroke="transparent" points="-4,4 -4,-856 290,-856 290,4 -4,4"/>
<!-- Node1 -->
<g id="node1" class="node">
<title>Node1</title>
<g id="a_node1"><a xlink:title="A class of MIDIOutputElements that read the input from a matrix of momentary push buttons or switches...">
<polygon fill="#bfbfbf" stroke="black" points="62,-0.5 62,-90.5 233,-90.5 233,-0.5 62,-0.5"/>
<text text-anchor="start" x="70" y="-78.5" font-family="Helvetica,sans-Serif" font-size="10.00">NoteButtonMatrix&lt; NumBanks,</text>
<text text-anchor="middle" x="147.5" y="-67.5" font-family="Helvetica,sans-Serif" font-size="10.00"> nb_rows, nb_cols &gt;</text>
<polyline fill="none" stroke="black" points="62,-60.5 233,-60.5 "/>
<text text-anchor="middle" x="147.5" y="-48.5" font-family="Helvetica,sans-Serif" font-size="10.00"> </text>
<polyline fill="none" stroke="black" points="62,-41.5 233,-41.5 "/>
<text text-anchor="start" x="70" y="-29.5" font-family="Helvetica,sans-Serif" font-size="10.00">+ NoteButtonMatrix()</text>
<text text-anchor="start" x="70" y="-18.5" font-family="Helvetica,sans-Serif" font-size="10.00">+ setVelocity()</text>
<text text-anchor="start" x="70" y="-7.5" font-family="Helvetica,sans-Serif" font-size="10.00">+ getVelocity()</text>
</a>
</g>
</g>
<!-- Node2 -->
<g id="node2" class="node">
<title>Node2</title>
<g id="a_node2"><a xlink:href="../../d3/d65/classBankable_1_1MIDIButtonMatrix.html" target="_top" xlink:title=" ">
<polygon fill="white" stroke="black" points="49,-127.5 49,-272.5 246,-272.5 246,-127.5 49,-127.5"/>
<text text-anchor="start" x="57" y="-260.5" font-family="Helvetica,sans-Serif" font-size="10.00">MIDIButtonMatrix&lt; ManyMatrix</text>
<text text-anchor="start" x="57" y="-249.5" font-family="Helvetica,sans-Serif" font-size="10.00">Addresses&lt; NumBanks, nb</text>
<text text-anchor="start" x="57" y="-238.5" font-family="Helvetica,sans-Serif" font-size="10.00">_rows, nb_cols &gt;, DigitalNoteSender,</text>
<text text-anchor="middle" x="147.5" y="-227.5" font-family="Helvetica,sans-Serif" font-size="10.00"> nb_rows, nb_cols &gt;</text>
<polyline fill="none" stroke="black" points="49,-220.5 246,-220.5 "/>
<text text-anchor="start" x="57" y="-208.5" font-family="Helvetica,sans-Serif" font-size="10.00">+ sender</text>
<text text-anchor="start" x="57" y="-197.5" font-family="Helvetica,sans-Serif" font-size="10.00">&#45; address</text>
<text text-anchor="start" x="57" y="-186.5" font-family="Helvetica,sans-Serif" font-size="10.00">&#45; activeButtons</text>
<polyline fill="none" stroke="black" points="49,-179.5 246,-179.5 "/>
<text text-anchor="start" x="57" y="-167.5" font-family="Helvetica,sans-Serif" font-size="10.00">+ begin()</text>
<text text-anchor="start" x="57" y="-156.5" font-family="Helvetica,sans-Serif" font-size="10.00">+ update()</text>
<text text-anchor="start" x="57" y="-145.5" font-family="Helvetica,sans-Serif" font-size="10.00"># MIDIButtonMatrix()</text>
<text text-anchor="start" x="57" y="-134.5" font-family="Helvetica,sans-Serif" font-size="10.00">&#45; onButtonChanged()</text>
</a>
</g>
</g>
<!-- Node2&#45;&gt;Node1 -->
<g id="edge1" class="edge">
<title>Node2&#45;&gt;Node1</title>
<path fill="none" stroke="midnightblue" d="M147.5,-116.94C147.5,-107.86 147.5,-98.88 147.5,-90.54"/>
<polygon fill="none" stroke="midnightblue" points="144,-117.22 147.5,-127.22 151,-117.22 144,-117.22"/>
</g>
<!-- Node3 -->
<g id="node3" class="node">
<title>Node3</title>
<g id="a_node3"><a xlink:href="../../d1/d55/classAH_1_1Updatable.html" target="_top" xlink:title=" ">
<polygon fill="white" stroke="black" points="20,-364.5 20,-454.5 133,-454.5 133,-364.5 20,-364.5"/>
<text text-anchor="middle" x="76.5" y="-442.5" font-family="Helvetica,sans-Serif" font-size="10.00">MIDIOutputElement</text>
<polyline fill="none" stroke="black" points="20,-435.5 133,-435.5 "/>
<text text-anchor="middle" x="76.5" y="-423.5" font-family="Helvetica,sans-Serif" font-size="10.00"> </text>
<polyline fill="none" stroke="black" points="20,-416.5 133,-416.5 "/>
<text text-anchor="start" x="28" y="-404.5" font-family="Helvetica,sans-Serif" font-size="10.00">* begin()</text>
<text text-anchor="start" x="28" y="-393.5" font-family="Helvetica,sans-Serif" font-size="10.00">* update()</text>
<text text-anchor="start" x="28" y="-382.5" font-family="Helvetica,sans-Serif" font-size="10.00">* beginAll()</text>
<text text-anchor="start" x="28" y="-371.5" font-family="Helvetica,sans-Serif" font-size="10.00">* updateAll()</text>
</a>
</g>
</g>
<!-- Node3&#45;&gt;Node2 -->
<g id="edge2" class="edge">
<title>Node3&#45;&gt;Node2</title>
<path fill="none" stroke="midnightblue" d="M94.87,-354.82C103.43,-329.79 113.75,-299.64 122.97,-272.7"/>
<polygon fill="none" stroke="midnightblue" points="91.48,-353.9 91.56,-364.49 98.11,-356.17 91.48,-353.9"/>
</g>
<!-- Node4 -->
<g id="node4" class="node">
<title>Node4</title>
<g id="a_node4"><a xlink:href="../../d8/d1a/classAH_1_1UpdatableCRTP.html" target="_top" xlink:title=" ">
<polygon fill="white" stroke="black" points="0,-546.5 0,-735.5 153,-735.5 153,-546.5 0,-546.5"/>
<text text-anchor="start" x="8" y="-723.5" font-family="Helvetica,sans-Serif" font-size="10.00">UpdatableCRTP&lt; Updatable</text>
<text text-anchor="middle" x="76.5" y="-712.5" font-family="Helvetica,sans-Serif" font-size="10.00">&lt; NormalUpdatable &gt; &gt;</text>
<polyline fill="none" stroke="black" points="0,-705.5 153,-705.5 "/>
<text text-anchor="start" x="8" y="-693.5" font-family="Helvetica,sans-Serif" font-size="10.00"># updatables</text>
<polyline fill="none" stroke="black" points="0,-686.5 153,-686.5 "/>
<text text-anchor="start" x="8" y="-674.5" font-family="Helvetica,sans-Serif" font-size="10.00">+ ~UpdatableCRTP()</text>
<text text-anchor="start" x="8" y="-663.5" font-family="Helvetica,sans-Serif" font-size="10.00"># UpdatableCRTP()</text>
<text text-anchor="start" x="8" y="-652.5" font-family="Helvetica,sans-Serif" font-size="10.00">* enable()</text>
<text text-anchor="start" x="8" y="-641.5" font-family="Helvetica,sans-Serif" font-size="10.00">* disable()</text>
<text text-anchor="start" x="8" y="-630.5" font-family="Helvetica,sans-Serif" font-size="10.00">* isEnabled()</text>
<text text-anchor="start" x="8" y="-619.5" font-family="Helvetica,sans-Serif" font-size="10.00">* enable()</text>
<text text-anchor="start" x="8" y="-608.5" font-family="Helvetica,sans-Serif" font-size="10.00">* enable()</text>
<text text-anchor="start" x="8" y="-597.5" font-family="Helvetica,sans-Serif" font-size="10.00">* enable()</text>
<text text-anchor="start" x="8" y="-586.5" font-family="Helvetica,sans-Serif" font-size="10.00">* disable()</text>
<text text-anchor="start" x="8" y="-575.5" font-family="Helvetica,sans-Serif" font-size="10.00">* disable()</text>
<text text-anchor="start" x="8" y="-564.5" font-family="Helvetica,sans-Serif" font-size="10.00">* disable()</text>
<text text-anchor="start" x="8" y="-553.5" font-family="Helvetica,sans-Serif" font-size="10.00">* applyToAll()</text>
</a>
</g>
</g>
<!-- Node4&#45;&gt;Node3 -->
<g id="edge3" class="edge">
<title>Node4&#45;&gt;Node3</title>
<path fill="none" stroke="midnightblue" d="M76.5,-536.22C76.5,-507.52 76.5,-477.89 76.5,-454.61"/>
<polygon fill="none" stroke="midnightblue" points="73,-536.32 76.5,-546.32 80,-536.32 73,-536.32"/>
</g>
<!-- Node5 -->
<g id="node5" class="node">
<title>Node5</title>
<g id="a_node5"><a xlink:href="../../d4/d23/classDoublyLinkable.html" target="_top" xlink:title=" ">
<polygon fill="white" stroke="black" points="0,-772.5 0,-851.5 153,-851.5 153,-772.5 0,-772.5"/>
<text text-anchor="start" x="8" y="-839.5" font-family="Helvetica,sans-Serif" font-size="10.00">DoublyLinkable&lt; Updatable</text>
<text text-anchor="middle" x="76.5" y="-828.5" font-family="Helvetica,sans-Serif" font-size="10.00">&lt; NormalUpdatable &gt; &gt;</text>
<polyline fill="none" stroke="black" points="0,-821.5 153,-821.5 "/>
<text text-anchor="start" x="8" y="-809.5" font-family="Helvetica,sans-Serif" font-size="10.00"># next</text>
<text text-anchor="start" x="8" y="-798.5" font-family="Helvetica,sans-Serif" font-size="10.00"># previous</text>
<polyline fill="none" stroke="black" points="0,-791.5 153,-791.5 "/>
<text text-anchor="start" x="8" y="-779.5" font-family="Helvetica,sans-Serif" font-size="10.00"># ~DoublyLinkable()</text>
</a>
</g>
</g>
<!-- Node5&#45;&gt;Node4 -->
<g id="edge4" class="edge">
<title>Node5&#45;&gt;Node4</title>
<path fill="none" stroke="midnightblue" d="M76.5,-761.97C76.5,-753.6 76.5,-744.67 76.5,-735.6"/>
<polygon fill="none" stroke="midnightblue" points="73,-762.23 76.5,-772.23 80,-762.23 73,-762.23"/>
</g>
<!-- Node6 -->
<g id="node6" class="node">
<title>Node6</title>
<g id="a_node6"><a xlink:href="../../dd/d29/classAH_1_1ButtonMatrix.html" target="_top" xlink:title="A class that reads the states of a button matrix.">
<polygon fill="white" stroke="black" points="151,-309.5 151,-509.5 286,-509.5 286,-309.5 151,-309.5"/>
<text text-anchor="start" x="159" y="-497.5" font-family="Helvetica,sans-Serif" font-size="10.00">ButtonMatrix&lt; nb_rows,</text>
<text text-anchor="middle" x="218.5" y="-486.5" font-family="Helvetica,sans-Serif" font-size="10.00"> nb_cols &gt;</text>
<polyline fill="none" stroke="black" points="151,-479.5 286,-479.5 "/>
<text text-anchor="start" x="159" y="-467.5" font-family="Helvetica,sans-Serif" font-size="10.00">&#45; prevRefresh</text>
<text text-anchor="start" x="159" y="-456.5" font-family="Helvetica,sans-Serif" font-size="10.00">&#45; prevStates</text>
<text text-anchor="start" x="159" y="-445.5" font-family="Helvetica,sans-Serif" font-size="10.00">&#45; rowPins</text>
<text text-anchor="start" x="159" y="-434.5" font-family="Helvetica,sans-Serif" font-size="10.00">&#45; colPins</text>
<polyline fill="none" stroke="black" points="151,-427.5 286,-427.5 "/>
<text text-anchor="start" x="159" y="-415.5" font-family="Helvetica,sans-Serif" font-size="10.00">+ ButtonMatrix()</text>
<text text-anchor="start" x="159" y="-404.5" font-family="Helvetica,sans-Serif" font-size="10.00">+ ~ButtonMatrix()</text>
<text text-anchor="start" x="159" y="-393.5" font-family="Helvetica,sans-Serif" font-size="10.00">+ begin()</text>
<text text-anchor="start" x="159" y="-382.5" font-family="Helvetica,sans-Serif" font-size="10.00">+ update()</text>
<text text-anchor="start" x="159" y="-371.5" font-family="Helvetica,sans-Serif" font-size="10.00">+ getPrevState()</text>
<text text-anchor="start" x="159" y="-360.5" font-family="Helvetica,sans-Serif" font-size="10.00">&#45; onButtonChanged()</text>
<text text-anchor="start" x="159" y="-349.5" font-family="Helvetica,sans-Serif" font-size="10.00">&#45; setPrevState()</text>
<text text-anchor="start" x="159" y="-338.5" font-family="Helvetica,sans-Serif" font-size="10.00">&#45; positionToBits()</text>
<text text-anchor="start" x="159" y="-327.5" font-family="Helvetica,sans-Serif" font-size="10.00">&#45; bitsToIndex()</text>
<text text-anchor="start" x="159" y="-316.5" font-family="Helvetica,sans-Serif" font-size="10.00">&#45; bitsToBitmask()</text>
</a>
</g>
</g>
<!-- Node6&#45;&gt;Node2 -->
<g id="edge5" class="edge">
<title>Node6&#45;&gt;Node2</title>
<path fill="none" stroke="midnightblue" d="M181.28,-299.71C178.13,-290.51 175,-281.36 171.99,-272.56"/>
<polygon fill="none" stroke="midnightblue" points="178.01,-300.98 184.56,-309.31 184.63,-298.71 178.01,-300.98"/>
</g>
</g>
</svg>
