<?xml version="1.0" encoding="UTF-8" standalone="no"?>
<!DOCTYPE svg PUBLIC "-//W3C//DTD SVG 1.1//EN"
 "http://www.w3.org/Graphics/SVG/1.1/DTD/svg11.dtd">
<!-- Generated by graphviz version 2.43.0 (0)
 -->
<!-- Title: ButtonMatrix&lt; Derived, NumRows, NumCols &gt; Pages: 1 -->
<svg width="1206pt" height="540pt"
 viewBox="0.00 0.00 1206.00 540.00" xmlns="http://www.w3.org/2000/svg" xmlns:xlink="http://www.w3.org/1999/xlink">
<g id="graph0" class="graph" transform="scale(1 1) rotate(0) translate(4 536)">
<title>ButtonMatrix&lt; Derived, NumRows, NumCols &gt;</title>
<polygon fill="white" stroke="transparent" points="-4,4 -4,-536 1202,-536 1202,4 -4,4"/>
<!-- Node1 -->
<g id="node1" class="node">
<title>Node1</title>
<g id="a_node1"><a xlink:title="A class that reads the states of a button matrix.">
<polygon fill="#bfbfbf" stroke="black" points="526.5,-309.5 526.5,-531.5 659.5,-531.5 659.5,-309.5 526.5,-309.5"/>
<text text-anchor="start" x="534.5" y="-519.5" font-family="Helvetica,sans-Serif" font-size="10.00">ButtonMatrix&lt; Derived,</text>
<text text-anchor="middle" x="593" y="-508.5" font-family="Helvetica,sans-Serif" font-size="10.00"> NumRows, NumCols &gt;</text>
<polyline fill="none" stroke="black" points="526.5,-501.5 659.5,-501.5 "/>
<text text-anchor="start" x="534.5" y="-489.5" font-family="Helvetica,sans-Serif" font-size="10.00">&#45; debounceTime</text>
<text text-anchor="start" x="534.5" y="-478.5" font-family="Helvetica,sans-Serif" font-size="10.00">&#45; prevRefresh</text>
<text text-anchor="start" x="534.5" y="-467.5" font-family="Helvetica,sans-Serif" font-size="10.00">&#45; prevStates</text>
<text text-anchor="start" x="534.5" y="-456.5" font-family="Helvetica,sans-Serif" font-size="10.00">&#45; rowPins</text>
<text text-anchor="start" x="534.5" y="-445.5" font-family="Helvetica,sans-Serif" font-size="10.00">&#45; colPins</text>
<polyline fill="none" stroke="black" points="526.5,-438.5 659.5,-438.5 "/>
<text text-anchor="start" x="534.5" y="-426.5" font-family="Helvetica,sans-Serif" font-size="10.00">+ ButtonMatrix()</text>
<text text-anchor="start" x="534.5" y="-415.5" font-family="Helvetica,sans-Serif" font-size="10.00">+ begin()</text>
<text text-anchor="start" x="534.5" y="-404.5" font-family="Helvetica,sans-Serif" font-size="10.00">+ update()</text>
<text text-anchor="start" x="534.5" y="-393.5" font-family="Helvetica,sans-Serif" font-size="10.00">+ getPrevState()</text>
<text text-anchor="start" x="534.5" y="-382.5" font-family="Helvetica,sans-Serif" font-size="10.00">+ setDebounceTime()</text>
<text text-anchor="start" x="534.5" y="-371.5" font-family="Helvetica,sans-Serif" font-size="10.00">+ getDebounceTime()</text>
<text text-anchor="start" x="534.5" y="-360.5" font-family="Helvetica,sans-Serif" font-size="10.00"># onButtonChanged()</text>
<text text-anchor="start" x="534.5" y="-349.5" font-family="Helvetica,sans-Serif" font-size="10.00">&#45; setPrevState()</text>
<text text-anchor="start" x="534.5" y="-338.5" font-family="Helvetica,sans-Serif" font-size="10.00">&#45; positionToBits()</text>
<text text-anchor="start" x="534.5" y="-327.5" font-family="Helvetica,sans-Serif" font-size="10.00">&#45; bitsToIndex()</text>
<text text-anchor="start" x="534.5" y="-316.5" font-family="Helvetica,sans-Serif" font-size="10.00">&#45; bitsToBitmask()</text>
</a>
</g>
</g>
<!-- Node2 -->
<g id="node2" class="node">
<title>Node2</title>
<g id="a_node2"><a xlink:href="../../d3/d65/classBankable_1_1MIDIButtonMatrix.html" target="_top" xlink:title=" ">
<polygon fill="white" stroke="black" points="0,-127.5 0,-272.5 182,-272.5 182,-127.5 0,-127.5"/>
<text text-anchor="start" x="8" y="-260.5" font-family="Helvetica,sans-Serif" font-size="10.00">MIDIButtonMatrix&lt; Matrix</text>
<text text-anchor="start" x="8" y="-249.5" font-family="Helvetica,sans-Serif" font-size="10.00">Address&lt; NumRows, NumCols</text>
<text text-anchor="start" x="8" y="-238.5" font-family="Helvetica,sans-Serif" font-size="10.00"> &gt;, DigitalNoteSender, NumRows,</text>
<text text-anchor="middle" x="91" y="-227.5" font-family="Helvetica,sans-Serif" font-size="10.00"> NumCols &gt;</text>
<polyline fill="none" stroke="black" points="0,-220.5 182,-220.5 "/>
<text text-anchor="start" x="8" y="-208.5" font-family="Helvetica,sans-Serif" font-size="10.00">+ sender</text>
<text text-anchor="start" x="8" y="-197.5" font-family="Helvetica,sans-Serif" font-size="10.00">&#45; address</text>
<text text-anchor="start" x="8" y="-186.5" font-family="Helvetica,sans-Serif" font-size="10.00">&#45; activeButtons</text>
<polyline fill="none" stroke="black" points="0,-179.5 182,-179.5 "/>
<text text-anchor="start" x="8" y="-167.5" font-family="Helvetica,sans-Serif" font-size="10.00">+ begin()</text>
<text text-anchor="start" x="8" y="-156.5" font-family="Helvetica,sans-Serif" font-size="10.00">+ update()</text>
<text text-anchor="start" x="8" y="-145.5" font-family="Helvetica,sans-Serif" font-size="10.00"># MIDIButtonMatrix()</text>
<text text-anchor="start" x="8" y="-134.5" font-family="Helvetica,sans-Serif" font-size="10.00">&#45; onButtonChanged()</text>
</a>
</g>
</g>
<!-- Node1&#45;&gt;Node2 -->
<g id="edge1" class="edge">
<title>Node1&#45;&gt;Node2</title>
<path fill="none" stroke="midnightblue" d="M516.4,-398.45C433.5,-374.12 298.73,-330.01 191,-273 188.07,-271.45 185.13,-269.82 182.18,-268.13"/>
<polygon fill="none" stroke="midnightblue" points="515.67,-401.88 526.25,-401.32 517.63,-395.16 515.67,-401.88"/>
</g>
<!-- Node4 -->
<g id="node4" class="node">
<title>Node4</title>
<g id="a_node4"><a xlink:href="../../d3/d65/classBankable_1_1MIDIButtonMatrix.html" target="_top" xlink:title=" ">
<polygon fill="white" stroke="black" points="410,-127.5 410,-272.5 582,-272.5 582,-127.5 410,-127.5"/>
<text text-anchor="start" x="418" y="-260.5" font-family="Helvetica,sans-Serif" font-size="10.00">MIDIButtonMatrix&lt; Matrix</text>
<text text-anchor="start" x="418" y="-249.5" font-family="Helvetica,sans-Serif" font-size="10.00">Address&lt; NumRows, NumCols</text>
<text text-anchor="start" x="418" y="-238.5" font-family="Helvetica,sans-Serif" font-size="10.00"> &gt;, DigitalCCSender, NumRows,</text>
<text text-anchor="middle" x="496" y="-227.5" font-family="Helvetica,sans-Serif" font-size="10.00"> NumCols &gt;</text>
<polyline fill="none" stroke="black" points="410,-220.5 582,-220.5 "/>
<text text-anchor="start" x="418" y="-208.5" font-family="Helvetica,sans-Serif" font-size="10.00">+ sender</text>
<text text-anchor="start" x="418" y="-197.5" font-family="Helvetica,sans-Serif" font-size="10.00">&#45; address</text>
<text text-anchor="start" x="418" y="-186.5" font-family="Helvetica,sans-Serif" font-size="10.00">&#45; activeButtons</text>
<polyline fill="none" stroke="black" points="410,-179.5 582,-179.5 "/>
<text text-anchor="start" x="418" y="-167.5" font-family="Helvetica,sans-Serif" font-size="10.00">+ begin()</text>
<text text-anchor="start" x="418" y="-156.5" font-family="Helvetica,sans-Serif" font-size="10.00">+ update()</text>
<text text-anchor="start" x="418" y="-145.5" font-family="Helvetica,sans-Serif" font-size="10.00"># MIDIButtonMatrix()</text>
<text text-anchor="start" x="418" y="-134.5" font-family="Helvetica,sans-Serif" font-size="10.00">&#45; onButtonChanged()</text>
</a>
</g>
</g>
<!-- Node1&#45;&gt;Node4 -->
<g id="edge3" class="edge">
<title>Node1&#45;&gt;Node4</title>
<path fill="none" stroke="midnightblue" d="M539.95,-300C535.83,-290.73 531.76,-281.55 527.85,-272.75"/>
<polygon fill="none" stroke="midnightblue" points="536.82,-301.57 544.07,-309.29 543.22,-298.73 536.82,-301.57"/>
</g>
<!-- Node6 -->
<g id="node6" class="node">
<title>Node6</title>
<g id="a_node6"><a xlink:href="../../d3/d65/classBankable_1_1MIDIButtonMatrix.html" target="_top" xlink:title=" ">
<polygon fill="white" stroke="black" points="800,-127.5 800,-272.5 990,-272.5 990,-127.5 800,-127.5"/>
<text text-anchor="start" x="808" y="-260.5" font-family="Helvetica,sans-Serif" font-size="10.00">MIDIButtonMatrix&lt; ManyMatrix</text>
<text text-anchor="start" x="808" y="-249.5" font-family="Helvetica,sans-Serif" font-size="10.00">Addresses&lt; NumBanks, NumRows,</text>
<text text-anchor="start" x="808" y="-238.5" font-family="Helvetica,sans-Serif" font-size="10.00"> NumCols &gt;, DigitalNoteSender,</text>
<text text-anchor="middle" x="895" y="-227.5" font-family="Helvetica,sans-Serif" font-size="10.00"> NumRows, NumCols &gt;</text>
<polyline fill="none" stroke="black" points="800,-220.5 990,-220.5 "/>
<text text-anchor="start" x="808" y="-208.5" font-family="Helvetica,sans-Serif" font-size="10.00">+ sender</text>
<text text-anchor="start" x="808" y="-197.5" font-family="Helvetica,sans-Serif" font-size="10.00">&#45; address</text>
<text text-anchor="start" x="808" y="-186.5" font-family="Helvetica,sans-Serif" font-size="10.00">&#45; activeButtons</text>
<polyline fill="none" stroke="black" points="800,-179.5 990,-179.5 "/>
<text text-anchor="start" x="808" y="-167.5" font-family="Helvetica,sans-Serif" font-size="10.00">+ begin()</text>
<text text-anchor="start" x="808" y="-156.5" font-family="Helvetica,sans-Serif" font-size="10.00">+ update()</text>
<text text-anchor="start" x="808" y="-145.5" font-family="Helvetica,sans-Serif" font-size="10.00"># MIDIButtonMatrix()</text>
<text text-anchor="start" x="808" y="-134.5" font-family="Helvetica,sans-Serif" font-size="10.00">&#45; onButtonChanged()</text>
</a>
</g>
</g>
<!-- Node1&#45;&gt;Node6 -->
<g id="edge5" class="edge">
<title>Node1&#45;&gt;Node6</title>
<path fill="none" stroke="midnightblue" d="M667.76,-365.41C707.68,-336.53 757.24,-300.67 799.88,-269.82"/>
<polygon fill="none" stroke="midnightblue" points="665.7,-362.58 659.65,-371.28 669.8,-368.25 665.7,-362.58"/>
</g>
<!-- Node8 -->
<g id="node8" class="node">
<title>Node8</title>
<g id="a_node8"><a xlink:href="../../d3/d65/classBankable_1_1MIDIButtonMatrix.html" target="_top" xlink:title=" ">
<polygon fill="white" stroke="black" points="1008,-127.5 1008,-272.5 1198,-272.5 1198,-127.5 1008,-127.5"/>
<text text-anchor="start" x="1016" y="-260.5" font-family="Helvetica,sans-Serif" font-size="10.00">MIDIButtonMatrix&lt; ManyMatrix</text>
<text text-anchor="start" x="1016" y="-249.5" font-family="Helvetica,sans-Serif" font-size="10.00">Addresses&lt; NumBanks, NumRows,</text>
<text text-anchor="start" x="1016" y="-238.5" font-family="Helvetica,sans-Serif" font-size="10.00"> NumCols &gt;, DigitalCCSender,</text>
<text text-anchor="middle" x="1103" y="-227.5" font-family="Helvetica,sans-Serif" font-size="10.00"> NumRows, NumCols &gt;</text>
<polyline fill="none" stroke="black" points="1008,-220.5 1198,-220.5 "/>
<text text-anchor="start" x="1016" y="-208.5" font-family="Helvetica,sans-Serif" font-size="10.00">+ sender</text>
<text text-anchor="start" x="1016" y="-197.5" font-family="Helvetica,sans-Serif" font-size="10.00">&#45; address</text>
<text text-anchor="start" x="1016" y="-186.5" font-family="Helvetica,sans-Serif" font-size="10.00">&#45; activeButtons</text>
<polyline fill="none" stroke="black" points="1008,-179.5 1198,-179.5 "/>
<text text-anchor="start" x="1016" y="-167.5" font-family="Helvetica,sans-Serif" font-size="10.00">+ begin()</text>
<text text-anchor="start" x="1016" y="-156.5" font-family="Helvetica,sans-Serif" font-size="10.00">+ update()</text>
<text text-anchor="start" x="1016" y="-145.5" font-family="Helvetica,sans-Serif" font-size="10.00"># MIDIButtonMatrix()</text>
<text text-anchor="start" x="1016" y="-134.5" font-family="Helvetica,sans-Serif" font-size="10.00">&#45; onButtonChanged()</text>
</a>
</g>
</g>
<!-- Node1&#45;&gt;Node8 -->
<g id="edge7" class="edge">
<title>Node1&#45;&gt;Node8</title>
<path fill="none" stroke="midnightblue" d="M669.18,-398.48C752.66,-373.99 889.28,-329.55 999,-273 1001.93,-271.49 1004.87,-269.91 1007.81,-268.27"/>
<polygon fill="none" stroke="midnightblue" points="668.15,-395.14 659.52,-401.29 670.1,-401.86 668.15,-395.14"/>
</g>
<!-- Node10 -->
<g id="node10" class="node">
<title>Node10</title>
<g id="a_node10"><a xlink:href="../../d0/d54/classMIDIButtonMatrix.html" target="_top" xlink:title=" ">
<polygon fill="white" stroke="black" points="600.5,-138.5 600.5,-261.5 781.5,-261.5 781.5,-138.5 600.5,-138.5"/>
<text text-anchor="start" x="608.5" y="-249.5" font-family="Helvetica,sans-Serif" font-size="10.00">MIDIButtonMatrix&lt; Digital</text>
<text text-anchor="middle" x="691" y="-238.5" font-family="Helvetica,sans-Serif" font-size="10.00">CCSender, NumRows, NumCols &gt;</text>
<polyline fill="none" stroke="black" points="600.5,-231.5 781.5,-231.5 "/>
<text text-anchor="start" x="608.5" y="-219.5" font-family="Helvetica,sans-Serif" font-size="10.00">+ sender</text>
<text text-anchor="start" x="608.5" y="-208.5" font-family="Helvetica,sans-Serif" font-size="10.00">&#45; addresses</text>
<text text-anchor="start" x="608.5" y="-197.5" font-family="Helvetica,sans-Serif" font-size="10.00">&#45; baseChannelCN</text>
<polyline fill="none" stroke="black" points="600.5,-190.5 781.5,-190.5 "/>
<text text-anchor="start" x="608.5" y="-178.5" font-family="Helvetica,sans-Serif" font-size="10.00">+ begin()</text>
<text text-anchor="start" x="608.5" y="-167.5" font-family="Helvetica,sans-Serif" font-size="10.00">+ update()</text>
<text text-anchor="start" x="608.5" y="-156.5" font-family="Helvetica,sans-Serif" font-size="10.00"># MIDIButtonMatrix()</text>
<text text-anchor="start" x="608.5" y="-145.5" font-family="Helvetica,sans-Serif" font-size="10.00">&#45; onButtonChanged()</text>
</a>
</g>
</g>
<!-- Node1&#45;&gt;Node10 -->
<g id="edge9" class="edge">
<title>Node1&#45;&gt;Node10</title>
<path fill="none" stroke="midnightblue" d="M646.57,-300.06C652.54,-286.75 658.42,-273.65 663.84,-261.55"/>
<polygon fill="none" stroke="midnightblue" points="643.33,-298.73 642.43,-309.29 649.72,-301.6 643.33,-298.73"/>
</g>
<!-- Node11 -->
<g id="node11" class="node">
<title>Node11</title>
<g id="a_node11"><a xlink:href="../../d0/d54/classMIDIButtonMatrix.html" target="_top" xlink:title=" ">
<polygon fill="white" stroke="black" points="200.5,-138.5 200.5,-261.5 391.5,-261.5 391.5,-138.5 200.5,-138.5"/>
<text text-anchor="start" x="208.5" y="-249.5" font-family="Helvetica,sans-Serif" font-size="10.00">MIDIButtonMatrix&lt; Digital</text>
<text text-anchor="middle" x="296" y="-238.5" font-family="Helvetica,sans-Serif" font-size="10.00">NoteSender, NumRows, NumCols &gt;</text>
<polyline fill="none" stroke="black" points="200.5,-231.5 391.5,-231.5 "/>
<text text-anchor="start" x="208.5" y="-219.5" font-family="Helvetica,sans-Serif" font-size="10.00">+ sender</text>
<text text-anchor="start" x="208.5" y="-208.5" font-family="Helvetica,sans-Serif" font-size="10.00">&#45; addresses</text>
<text text-anchor="start" x="208.5" y="-197.5" font-family="Helvetica,sans-Serif" font-size="10.00">&#45; baseChannelCN</text>
<polyline fill="none" stroke="black" points="200.5,-190.5 391.5,-190.5 "/>
<text text-anchor="start" x="208.5" y="-178.5" font-family="Helvetica,sans-Serif" font-size="10.00">+ begin()</text>
<text text-anchor="start" x="208.5" y="-167.5" font-family="Helvetica,sans-Serif" font-size="10.00">+ update()</text>
<text text-anchor="start" x="208.5" y="-156.5" font-family="Helvetica,sans-Serif" font-size="10.00"># MIDIButtonMatrix()</text>
<text text-anchor="start" x="208.5" y="-145.5" font-family="Helvetica,sans-Serif" font-size="10.00">&#45; onButtonChanged()</text>
</a>
</g>
</g>
<!-- Node1&#45;&gt;Node11 -->
<g id="edge11" class="edge">
<title>Node1&#45;&gt;Node11</title>
<path fill="none" stroke="midnightblue" d="M518.25,-364.51C475.63,-333.15 422.15,-293.81 378.34,-261.57"/>
<polygon fill="none" stroke="midnightblue" points="516.22,-367.36 526.35,-370.46 520.37,-361.72 516.22,-367.36"/>
</g>
<!-- Node3 -->
<g id="node3" class="node">
<title>Node3</title>
<g id="a_node3"><a xlink:href="../../d2/d2b/classBankable_1_1NoteButtonMatrix.html" target="_top" xlink:title="A class of MIDIOutputElements that read the input from a matrix of momentary push buttons or switches...">
<polygon fill="white" stroke="black" points="110.5,-0.5 110.5,-90.5 277.5,-90.5 277.5,-0.5 110.5,-0.5"/>
<text text-anchor="start" x="118.5" y="-78.5" font-family="Helvetica,sans-Serif" font-size="10.00">NoteButtonMatrix&lt; NumRows,</text>
<text text-anchor="middle" x="194" y="-67.5" font-family="Helvetica,sans-Serif" font-size="10.00"> NumCols &gt;</text>
<polyline fill="none" stroke="black" points="110.5,-60.5 277.5,-60.5 "/>
<text text-anchor="middle" x="194" y="-48.5" font-family="Helvetica,sans-Serif" font-size="10.00"> </text>
<polyline fill="none" stroke="black" points="110.5,-41.5 277.5,-41.5 "/>
<text text-anchor="start" x="118.5" y="-29.5" font-family="Helvetica,sans-Serif" font-size="10.00">+ NoteButtonMatrix()</text>
<text text-anchor="start" x="118.5" y="-18.5" font-family="Helvetica,sans-Serif" font-size="10.00">+ setVelocity()</text>
<text text-anchor="start" x="118.5" y="-7.5" font-family="Helvetica,sans-Serif" font-size="10.00">+ getVelocity()</text>
</a>
</g>
</g>
<!-- Node2&#45;&gt;Node3 -->
<g id="edge2" class="edge">
<title>Node2&#45;&gt;Node3</title>
<path fill="none" stroke="midnightblue" d="M145.24,-118.7C151.77,-109.02 158.26,-99.42 164.25,-90.54"/>
<polygon fill="none" stroke="midnightblue" points="142.18,-116.97 139.48,-127.22 147.98,-120.89 142.18,-116.97"/>
</g>
<!-- Node5 -->
<g id="node5" class="node">
<title>Node5</title>
<g id="a_node5"><a xlink:href="../../db/d2b/classBankable_1_1CCButtonMatrix.html" target="_top" xlink:title="A class of MIDIOutputElements that read the input from a matrix of momentary push buttons or switches...">
<polygon fill="white" stroke="black" points="514,-11.5 514,-79.5 672,-79.5 672,-11.5 514,-11.5"/>
<text text-anchor="start" x="522" y="-67.5" font-family="Helvetica,sans-Serif" font-size="10.00">CCButtonMatrix&lt; NumRows,</text>
<text text-anchor="middle" x="593" y="-56.5" font-family="Helvetica,sans-Serif" font-size="10.00"> NumCols &gt;</text>
<polyline fill="none" stroke="black" points="514,-49.5 672,-49.5 "/>
<text text-anchor="middle" x="593" y="-37.5" font-family="Helvetica,sans-Serif" font-size="10.00"> </text>
<polyline fill="none" stroke="black" points="514,-30.5 672,-30.5 "/>
<text text-anchor="start" x="522" y="-18.5" font-family="Helvetica,sans-Serif" font-size="10.00">+ CCButtonMatrix()</text>
</a>
</g>
</g>
<!-- Node4&#45;&gt;Node5 -->
<g id="edge4" class="edge">
<title>Node4&#45;&gt;Node5</title>
<path fill="none" stroke="midnightblue" d="M547.14,-118.6C555.93,-104.78 564.61,-91.14 572,-79.51"/>
<polygon fill="none" stroke="midnightblue" points="544.07,-116.9 541.66,-127.22 549.98,-120.66 544.07,-116.9"/>
</g>
<!-- Node7 -->
<g id="node7" class="node">
<title>Node7</title>
<g id="a_node7"><a xlink:href="../../d3/d39/classBankable_1_1ManyAddresses_1_1NoteButtonMatrix.html" target="_top" xlink:title="A class of MIDIOutputElements that read the input from a matrix of momentary push buttons or switches...">
<polygon fill="white" stroke="black" points="809.5,-0.5 809.5,-90.5 980.5,-90.5 980.5,-0.5 809.5,-0.5"/>
<text text-anchor="start" x="817.5" y="-78.5" font-family="Helvetica,sans-Serif" font-size="10.00">NoteButtonMatrix&lt; NumBanks,</text>
<text text-anchor="middle" x="895" y="-67.5" font-family="Helvetica,sans-Serif" font-size="10.00"> NumRows, NumCols &gt;</text>
<polyline fill="none" stroke="black" points="809.5,-60.5 980.5,-60.5 "/>
<text text-anchor="middle" x="895" y="-48.5" font-family="Helvetica,sans-Serif" font-size="10.00"> </text>
<polyline fill="none" stroke="black" points="809.5,-41.5 980.5,-41.5 "/>
<text text-anchor="start" x="817.5" y="-29.5" font-family="Helvetica,sans-Serif" font-size="10.00">+ NoteButtonMatrix()</text>
<text text-anchor="start" x="817.5" y="-18.5" font-family="Helvetica,sans-Serif" font-size="10.00">+ setVelocity()</text>
<text text-anchor="start" x="817.5" y="-7.5" font-family="Helvetica,sans-Serif" font-size="10.00">+ getVelocity()</text>
</a>
</g>
</g>
<!-- Node6&#45;&gt;Node7 -->
<g id="edge6" class="edge">
<title>Node6&#45;&gt;Node7</title>
<path fill="none" stroke="midnightblue" d="M895,-116.94C895,-107.86 895,-98.88 895,-90.54"/>
<polygon fill="none" stroke="midnightblue" points="891.5,-117.22 895,-127.22 898.5,-117.22 891.5,-117.22"/>
</g>
<!-- Node9 -->
<g id="node9" class="node">
<title>Node9</title>
<g id="a_node9"><a xlink:href="../../d7/d2b/classBankable_1_1ManyAddresses_1_1CCButtonMatrix.html" target="_top" xlink:title="A class of MIDIOutputElements that read the input from a matrix of momentary push buttons or switches...">
<polygon fill="white" stroke="black" points="1022.5,-11.5 1022.5,-79.5 1183.5,-79.5 1183.5,-11.5 1022.5,-11.5"/>
<text text-anchor="start" x="1030.5" y="-67.5" font-family="Helvetica,sans-Serif" font-size="10.00">CCButtonMatrix&lt; NumBanks,</text>
<text text-anchor="middle" x="1103" y="-56.5" font-family="Helvetica,sans-Serif" font-size="10.00"> NumRows, NumCols &gt;</text>
<polyline fill="none" stroke="black" points="1022.5,-49.5 1183.5,-49.5 "/>
<text text-anchor="middle" x="1103" y="-37.5" font-family="Helvetica,sans-Serif" font-size="10.00"> </text>
<polyline fill="none" stroke="black" points="1022.5,-30.5 1183.5,-30.5 "/>
<text text-anchor="start" x="1030.5" y="-18.5" font-family="Helvetica,sans-Serif" font-size="10.00">+ CCButtonMatrix()</text>
</a>
</g>
</g>
<!-- Node8&#45;&gt;Node9 -->
<g id="edge8" class="edge">
<title>Node8&#45;&gt;Node9</title>
<path fill="none" stroke="midnightblue" d="M1103,-117.04C1103,-103.75 1103,-90.7 1103,-79.51"/>
<polygon fill="none" stroke="midnightblue" points="1099.5,-117.22 1103,-127.22 1106.5,-117.22 1099.5,-117.22"/>
</g>
<!-- Node10&#45;&gt;Node5 -->
<g id="edge10" class="edge">
<title>Node10&#45;&gt;Node5</title>
<path fill="none" stroke="midnightblue" d="M646.54,-129.81C635.36,-112.42 623.87,-94.53 614.41,-79.81"/>
<polygon fill="none" stroke="midnightblue" points="643.64,-131.77 651.99,-138.29 649.52,-127.98 643.64,-131.77"/>
</g>
<!-- Node11&#45;&gt;Node3 -->
<g id="edge12" class="edge">
<title>Node11&#45;&gt;Node3</title>
<path fill="none" stroke="midnightblue" d="M249.59,-129.62C240.71,-116.34 231.64,-102.77 223.47,-90.56"/>
<polygon fill="none" stroke="midnightblue" points="246.92,-131.92 255.39,-138.29 252.74,-128.03 246.92,-131.92"/>
</g>
</g>
</svg>
