<?xml version="1.0" encoding="UTF-8" standalone="no"?>
<!DOCTYPE svg PUBLIC "-//W3C//DTD SVG 1.1//EN"
 "http://www.w3.org/Graphics/SVG/1.1/DTD/svg11.dtd">
<!-- Generated by graphviz version 2.38.0 (20140413.2041)
 -->
<!-- Title: StreamMIDI_Interface Pages: 1 -->
<svg width="753pt" height="2115pt"
 viewBox="0.00 0.00 752.73 2115.00" xmlns="http://www.w3.org/2000/svg" xmlns:xlink="http://www.w3.org/1999/xlink">
<g id="graph0" class="graph" transform="scale(1 1) rotate(0) translate(4 2111)">
<title>StreamMIDI_Interface</title>
<polygon fill="white" stroke="none" points="-4,4 -4,-2111 748.727,-2111 748.727,4 -4,4"/>
<!-- Node1 -->
<g id="node1" class="node"><title>Node1</title>
<g id="a_node1"><a xlink:title="A class for MIDI interfaces sending and receiving MIDI messages over a Stream.">
<polygon fill="#bfbfbf" stroke="black" points="454.727,-0.5 454.727,-123.5 582.727,-123.5 582.727,-0.5 454.727,-0.5"/>
<text text-anchor="middle" x="518.727" y="-111.5" font-family="Helvetica,sans-Serif" font-size="10.00">StreamMIDI_Interface</text>
<polyline fill="none" stroke="black" points="454.727,-104.5 582.727,-104.5 "/>
<text text-anchor="start" x="462.727" y="-92.5" font-family="Helvetica,sans-Serif" font-size="10.00"># stream</text>
<polyline fill="none" stroke="black" points="454.727,-85.5 582.727,-85.5 "/>
<text text-anchor="start" x="462.727" y="-73.5" font-family="Helvetica,sans-Serif" font-size="10.00">+ StreamMIDI_Interface()</text>
<text text-anchor="start" x="462.727" y="-62.5" font-family="Helvetica,sans-Serif" font-size="10.00">+ StreamMIDI_Interface()</text>
<text text-anchor="start" x="462.727" y="-51.5" font-family="Helvetica,sans-Serif" font-size="10.00">+ read()</text>
<text text-anchor="start" x="462.727" y="-40.5" font-family="Helvetica,sans-Serif" font-size="10.00"># sendImpl()</text>
<text text-anchor="start" x="462.727" y="-29.5" font-family="Helvetica,sans-Serif" font-size="10.00"># sendImpl()</text>
<text text-anchor="start" x="462.727" y="-18.5" font-family="Helvetica,sans-Serif" font-size="10.00"># sendImpl()</text>
<text text-anchor="start" x="462.727" y="-7.5" font-family="Helvetica,sans-Serif" font-size="10.00"># sendImpl()</text>
</a>
</g>
</g>
<!-- Node2 -->
<g id="node2" class="node"><title>Node2</title>
<g id="a_node2"><a xlink:href="../../de/d76/classParsing__MIDI__Interface.html" target="_top" xlink:title="An abstract class for MIDI interfaces.">
<polygon fill="white" stroke="black" points="369.727,-171.5 369.727,-371.5 503.727,-371.5 503.727,-171.5 369.727,-171.5"/>
<text text-anchor="middle" x="436.727" y="-359.5" font-family="Helvetica,sans-Serif" font-size="10.00">Parsing_MIDI_Interface</text>
<polyline fill="none" stroke="black" points="369.727,-352.5 503.727,-352.5 "/>
<text text-anchor="start" x="377.727" y="-340.5" font-family="Helvetica,sans-Serif" font-size="10.00"># event</text>
<polyline fill="none" stroke="black" points="369.727,-333.5 503.727,-333.5 "/>
<text text-anchor="start" x="377.727" y="-321.5" font-family="Helvetica,sans-Serif" font-size="10.00">+ getParser()</text>
<text text-anchor="start" x="377.727" y="-310.5" font-family="Helvetica,sans-Serif" font-size="10.00">+ getChannelMessage()</text>
<text text-anchor="start" x="377.727" y="-299.5" font-family="Helvetica,sans-Serif" font-size="10.00">+ getSysExMessage()</text>
<text text-anchor="start" x="377.727" y="-288.5" font-family="Helvetica,sans-Serif" font-size="10.00">+ getCN()</text>
<text text-anchor="start" x="377.727" y="-277.5" font-family="Helvetica,sans-Serif" font-size="10.00">+ update()</text>
<text text-anchor="start" x="377.727" y="-266.5" font-family="Helvetica,sans-Serif" font-size="10.00">+ setCallbacks()</text>
<text text-anchor="start" x="377.727" y="-255.5" font-family="Helvetica,sans-Serif" font-size="10.00">+ setCallbacks()</text>
<text text-anchor="start" x="377.727" y="-244.5" font-family="Helvetica,sans-Serif" font-size="10.00">+ setCallbacks()</text>
<text text-anchor="start" x="377.727" y="-233.5" font-family="Helvetica,sans-Serif" font-size="10.00"># Parsing_MIDI_Interface()</text>
<text text-anchor="start" x="377.727" y="-222.5" font-family="Helvetica,sans-Serif" font-size="10.00"># dispatchMIDIEvent()</text>
<text text-anchor="start" x="377.727" y="-211.5" font-family="Helvetica,sans-Serif" font-size="10.00">&#45; read()</text>
<text text-anchor="start" x="377.727" y="-200.5" font-family="Helvetica,sans-Serif" font-size="10.00">&#45; onRealtimeMessage()</text>
<text text-anchor="start" x="377.727" y="-189.5" font-family="Helvetica,sans-Serif" font-size="10.00">&#45; onChannelMessage()</text>
<text text-anchor="start" x="377.727" y="-178.5" font-family="Helvetica,sans-Serif" font-size="10.00">&#45; onSysExMessage()</text>
</a>
</g>
</g>
<!-- Node2&#45;&gt;Node1 -->
<g id="edge1" class="edge"><title>Node2&#45;&gt;Node1</title>
<path fill="none" stroke="midnightblue" d="M479.692,-161.779C484.86,-148.701 489.986,-135.728 494.741,-123.695"/>
<polygon fill="none" stroke="midnightblue" points="476.346,-160.722 475.926,-171.308 482.856,-163.294 476.346,-160.722"/>
</g>
<!-- Node3 -->
<g id="node3" class="node"><title>Node3</title>
<g id="a_node3"><a xlink:href="../../d9/d73/classMIDI__Interface.html" target="_top" xlink:title="An abstract class for MIDI interfaces.">
<polygon fill="white" stroke="black" points="124.727,-419.5 124.727,-839.5 234.727,-839.5 234.727,-419.5 124.727,-419.5"/>
<text text-anchor="middle" x="179.727" y="-827.5" font-family="Helvetica,sans-Serif" font-size="10.00">MIDI_Interface</text>
<polyline fill="none" stroke="black" points="124.727,-820.5 234.727,-820.5 "/>
<text text-anchor="middle" x="179.727" y="-808.5" font-family="Helvetica,sans-Serif" font-size="10.00"> </text>
<polyline fill="none" stroke="black" points="124.727,-801.5 234.727,-801.5 "/>
<text text-anchor="start" x="132.727" y="-789.5" font-family="Helvetica,sans-Serif" font-size="10.00">+ ~MIDI_Interface()</text>
<text text-anchor="start" x="132.727" y="-778.5" font-family="Helvetica,sans-Serif" font-size="10.00">+ begin()</text>
<text text-anchor="start" x="132.727" y="-767.5" font-family="Helvetica,sans-Serif" font-size="10.00">+ send()</text>
<text text-anchor="start" x="132.727" y="-756.5" font-family="Helvetica,sans-Serif" font-size="10.00">+ send()</text>
<text text-anchor="start" x="132.727" y="-745.5" font-family="Helvetica,sans-Serif" font-size="10.00">+ sendOnCable()</text>
<text text-anchor="start" x="132.727" y="-734.5" font-family="Helvetica,sans-Serif" font-size="10.00">+ sendOnCable()</text>
<text text-anchor="start" x="132.727" y="-723.5" font-family="Helvetica,sans-Serif" font-size="10.00">+ sendOnCable()</text>
<text text-anchor="start" x="132.727" y="-712.5" font-family="Helvetica,sans-Serif" font-size="10.00">+ sendNoteOn()</text>
<text text-anchor="start" x="132.727" y="-701.5" font-family="Helvetica,sans-Serif" font-size="10.00">+ sendNoteOff()</text>
<text text-anchor="start" x="132.727" y="-690.5" font-family="Helvetica,sans-Serif" font-size="10.00">+ sendKP()</text>
<text text-anchor="start" x="132.727" y="-679.5" font-family="Helvetica,sans-Serif" font-size="10.00">+ sendCC()</text>
<text text-anchor="start" x="132.727" y="-668.5" font-family="Helvetica,sans-Serif" font-size="10.00">+ sendPC()</text>
<text text-anchor="start" x="132.727" y="-657.5" font-family="Helvetica,sans-Serif" font-size="10.00">+ sendPC()</text>
<text text-anchor="start" x="132.727" y="-646.5" font-family="Helvetica,sans-Serif" font-size="10.00">+ sendCP()</text>
<text text-anchor="start" x="132.727" y="-635.5" font-family="Helvetica,sans-Serif" font-size="10.00">+ sendPB()</text>
<text text-anchor="start" x="132.727" y="-624.5" font-family="Helvetica,sans-Serif" font-size="10.00">+ send()</text>
<text text-anchor="start" x="132.727" y="-613.5" font-family="Helvetica,sans-Serif" font-size="10.00">+ send()</text>
<text text-anchor="start" x="132.727" y="-602.5" font-family="Helvetica,sans-Serif" font-size="10.00">+ send()</text>
<text text-anchor="start" x="132.727" y="-591.5" font-family="Helvetica,sans-Serif" font-size="10.00">+ send()</text>
<text text-anchor="start" x="132.727" y="-580.5" font-family="Helvetica,sans-Serif" font-size="10.00">+ send()</text>
<text text-anchor="start" x="132.727" y="-569.5" font-family="Helvetica,sans-Serif" font-size="10.00">+ update()</text>
<text text-anchor="start" x="132.727" y="-558.5" font-family="Helvetica,sans-Serif" font-size="10.00">+ setAsDefault()</text>
<text text-anchor="start" x="132.727" y="-547.5" font-family="Helvetica,sans-Serif" font-size="10.00">+ setCallbacks()</text>
<text text-anchor="start" x="132.727" y="-536.5" font-family="Helvetica,sans-Serif" font-size="10.00">+ setCallbacks()</text>
<text text-anchor="start" x="132.727" y="-525.5" font-family="Helvetica,sans-Serif" font-size="10.00">+ sendImpl()</text>
<text text-anchor="start" x="132.727" y="-514.5" font-family="Helvetica,sans-Serif" font-size="10.00">+ sendImpl()</text>
<text text-anchor="start" x="132.727" y="-503.5" font-family="Helvetica,sans-Serif" font-size="10.00">+ sendImpl()</text>
<text text-anchor="start" x="132.727" y="-492.5" font-family="Helvetica,sans-Serif" font-size="10.00">+ sendImpl()</text>
<text text-anchor="start" x="132.727" y="-481.5" font-family="Helvetica,sans-Serif" font-size="10.00">+ getDefault()</text>
<text text-anchor="start" x="132.727" y="-470.5" font-family="Helvetica,sans-Serif" font-size="10.00"># MIDI_Interface()</text>
<text text-anchor="start" x="132.727" y="-459.5" font-family="Helvetica,sans-Serif" font-size="10.00"># MIDI_Interface()</text>
<text text-anchor="start" x="132.727" y="-448.5" font-family="Helvetica,sans-Serif" font-size="10.00"># sinkMIDIfromPipe()</text>
<text text-anchor="start" x="132.727" y="-437.5" font-family="Helvetica,sans-Serif" font-size="10.00"># sinkMIDIfromPipe()</text>
<text text-anchor="start" x="132.727" y="-426.5" font-family="Helvetica,sans-Serif" font-size="10.00"># sinkMIDIfromPipe()</text>
</a>
</g>
</g>
<!-- Node3&#45;&gt;Node2 -->
<g id="edge2" class="edge"><title>Node3&#45;&gt;Node2</title>
<path fill="none" stroke="midnightblue" d="M240.736,-543.99C279.494,-490.301 329.692,-420.767 369.582,-365.511"/>
<polygon fill="none" stroke="midnightblue" points="237.875,-541.972 234.86,-552.129 243.551,-546.07 237.875,-541.972"/>
</g>
<!-- Node3&#45;&gt;Node3 -->
<g id="edge16" class="edge"><title>Node3&#45;&gt;Node3</title>
<path fill="none" stroke="#404040" d="M234.8,-671.276C245.301,-666.277 252.727,-652.352 252.727,-629.5 252.727,-614.147 249.375,-602.823 243.99,-595.528"/>
<polygon fill="none" stroke="#404040" points="243.947,-595.492 236.785,-594.657 234.8,-587.724 241.963,-588.559 243.947,-595.492"/>
<text text-anchor="middle" x="304.227" y="-627" font-family="Helvetica,sans-Serif" font-size="10.00"> &#45;DefaultMIDI_Interface</text>
</g>
<!-- Node4 -->
<g id="node4" class="node"><title>Node4</title>
<g id="a_node4"><a xlink:href="../../d0/dc3/structTrueMIDI__SinkSource.html" target="_top" xlink:title="A struct that is both a TrueMIDI_Sink and a TrueMIDI_Source.">
<polygon fill="white" stroke="black" points="123.227,-909.5 123.227,-966.5 236.227,-966.5 236.227,-909.5 123.227,-909.5"/>
<text text-anchor="middle" x="179.727" y="-954.5" font-family="Helvetica,sans-Serif" font-size="10.00">TrueMIDI_SinkSource</text>
<polyline fill="none" stroke="black" points="123.227,-947.5 236.227,-947.5 "/>
<text text-anchor="middle" x="179.727" y="-935.5" font-family="Helvetica,sans-Serif" font-size="10.00"> </text>
<polyline fill="none" stroke="black" points="123.227,-928.5 236.227,-928.5 "/>
<text text-anchor="middle" x="179.727" y="-916.5" font-family="Helvetica,sans-Serif" font-size="10.00"> </text>
</a>
</g>
</g>
<!-- Node4&#45;&gt;Node3 -->
<g id="edge3" class="edge"><title>Node4&#45;&gt;Node3</title>
<path fill="none" stroke="midnightblue" d="M179.727,-899.117C179.727,-882.73 179.727,-862.165 179.727,-839.746"/>
<polygon fill="none" stroke="midnightblue" points="176.227,-899.26 179.727,-909.26 183.227,-899.26 176.227,-899.26"/>
</g>
<!-- Node5 -->
<g id="node5" class="node"><title>Node5</title>
<g id="a_node5"><a xlink:href="../../d5/dc1/structTrueMIDI__Sink.html" target="_top" xlink:title="A MIDI_Sink that is not a MIDI_Pipe.">
<polygon fill="white" stroke="black" points="173.227,-1373.5 173.227,-1430.5 256.227,-1430.5 256.227,-1373.5 173.227,-1373.5"/>
<text text-anchor="middle" x="214.727" y="-1418.5" font-family="Helvetica,sans-Serif" font-size="10.00">TrueMIDI_Sink</text>
<polyline fill="none" stroke="black" points="173.227,-1411.5 256.227,-1411.5 "/>
<text text-anchor="middle" x="214.727" y="-1399.5" font-family="Helvetica,sans-Serif" font-size="10.00"> </text>
<polyline fill="none" stroke="black" points="173.227,-1392.5 256.227,-1392.5 "/>
<text text-anchor="middle" x="214.727" y="-1380.5" font-family="Helvetica,sans-Serif" font-size="10.00"> </text>
</a>
</g>
</g>
<!-- Node5&#45;&gt;Node4 -->
<g id="edge4" class="edge"><title>Node5&#45;&gt;Node4</title>
<path fill="none" stroke="midnightblue" d="M211.88,-1363.43C205.043,-1273.17 187.818,-1045.8 181.823,-966.664"/>
<polygon fill="none" stroke="midnightblue" points="208.397,-1363.78 212.642,-1373.48 215.377,-1363.25 208.397,-1363.78"/>
</g>
<!-- Node6 -->
<g id="node6" class="node"><title>Node6</title>
<g id="a_node6"><a xlink:href="../../d9/db6/classMIDI__Sink.html" target="_top" xlink:title="Class that can receive MIDI messages from a MIDI pipe.">
<polygon fill="white" stroke="black" points="3.72696,-1884.5 3.72696,-2106.5 169.727,-2106.5 169.727,-1884.5 3.72696,-1884.5"/>
<text text-anchor="middle" x="86.727" y="-2094.5" font-family="Helvetica,sans-Serif" font-size="10.00">MIDI_Sink</text>
<polyline fill="none" stroke="black" points="3.72696,-2087.5 169.727,-2087.5 "/>
<text text-anchor="middle" x="86.727" y="-2075.5" font-family="Helvetica,sans-Serif" font-size="10.00"> </text>
<polyline fill="none" stroke="black" points="3.72696,-2068.5 169.727,-2068.5 "/>
<text text-anchor="start" x="11.727" y="-2056.5" font-family="Helvetica,sans-Serif" font-size="10.00">+ sinkMIDIfromPipe()</text>
<text text-anchor="start" x="11.727" y="-2045.5" font-family="Helvetica,sans-Serif" font-size="10.00">+ sinkMIDIfromPipe()</text>
<text text-anchor="start" x="11.727" y="-2034.5" font-family="Helvetica,sans-Serif" font-size="10.00">+ sinkMIDIfromPipe()</text>
<text text-anchor="start" x="11.727" y="-2023.5" font-family="Helvetica,sans-Serif" font-size="10.00">+ MIDI_Sink()</text>
<text text-anchor="start" x="11.727" y="-2012.5" font-family="Helvetica,sans-Serif" font-size="10.00">+ MIDI_Sink()</text>
<text text-anchor="start" x="11.727" y="-2001.5" font-family="Helvetica,sans-Serif" font-size="10.00">+ operator=()</text>
<text text-anchor="start" x="11.727" y="-1990.5" font-family="Helvetica,sans-Serif" font-size="10.00">+ MIDI_Sink()</text>
<text text-anchor="start" x="11.727" y="-1979.5" font-family="Helvetica,sans-Serif" font-size="10.00">+ operator=()</text>
<text text-anchor="start" x="11.727" y="-1968.5" font-family="Helvetica,sans-Serif" font-size="10.00">+ ~MIDI_Sink()</text>
<text text-anchor="start" x="11.727" y="-1957.5" font-family="Helvetica,sans-Serif" font-size="10.00">+ connectSourcePipe()</text>
<text text-anchor="start" x="11.727" y="-1946.5" font-family="Helvetica,sans-Serif" font-size="10.00">+ disconnectSourcePipes()</text>
<text text-anchor="start" x="11.727" y="-1935.5" font-family="Helvetica,sans-Serif" font-size="10.00">+ disconnect()</text>
<text text-anchor="start" x="11.727" y="-1924.5" font-family="Helvetica,sans-Serif" font-size="10.00">+ hasSourcePipe()</text>
<text text-anchor="start" x="11.727" y="-1913.5" font-family="Helvetica,sans-Serif" font-size="10.00">&#45; lockDownstream()</text>
<text text-anchor="start" x="11.727" y="-1902.5" font-family="Helvetica,sans-Serif" font-size="10.00">&#45; getFinalSink()</text>
<text text-anchor="start" x="11.727" y="-1891.5" font-family="Helvetica,sans-Serif" font-size="10.00">&#45; disconnectSourcePipesShallow()</text>
</a>
</g>
</g>
<!-- Node6&#45;&gt;Node5 -->
<g id="edge5" class="edge"><title>Node6&#45;&gt;Node5</title>
<path fill="none" stroke="midnightblue" d="M175.705,-1894.24C187.498,-1876.23 197.864,-1856.84 204.727,-1837 255.171,-1691.16 231.321,-1500.98 219.75,-1430.68"/>
<polygon fill="none" stroke="midnightblue" points="172.507,-1892.72 169.811,-1902.97 178.308,-1896.64 172.507,-1892.72"/>
</g>
<!-- Node7 -->
<g id="node7" class="node"><title>Node7</title>
<g id="a_node7"><a xlink:href="../../df/d72/classMIDI__Pipe.html" target="_top" xlink:title="Class that routes MIDI messages from a MIDI_Source to a MIDI_Sink.">
<polygon fill="white" stroke="black" points="9.72696,-1449.5 9.72696,-1836.5 125.727,-1836.5 125.727,-1449.5 9.72696,-1449.5"/>
<text text-anchor="middle" x="67.727" y="-1824.5" font-family="Helvetica,sans-Serif" font-size="10.00">MIDI_Pipe</text>
<polyline fill="none" stroke="black" points="9.72696,-1817.5 125.727,-1817.5 "/>
<text text-anchor="middle" x="67.727" y="-1805.5" font-family="Helvetica,sans-Serif" font-size="10.00"> </text>
<polyline fill="none" stroke="black" points="9.72696,-1798.5 125.727,-1798.5 "/>
<text text-anchor="start" x="17.727" y="-1786.5" font-family="Helvetica,sans-Serif" font-size="10.00">+ MIDI_Pipe()</text>
<text text-anchor="start" x="17.727" y="-1775.5" font-family="Helvetica,sans-Serif" font-size="10.00">+ MIDI_Pipe()</text>
<text text-anchor="start" x="17.727" y="-1764.5" font-family="Helvetica,sans-Serif" font-size="10.00">+ operator=()</text>
<text text-anchor="start" x="17.727" y="-1753.5" font-family="Helvetica,sans-Serif" font-size="10.00">+ MIDI_Pipe()</text>
<text text-anchor="start" x="17.727" y="-1742.5" font-family="Helvetica,sans-Serif" font-size="10.00">+ operator=()</text>
<text text-anchor="start" x="17.727" y="-1731.5" font-family="Helvetica,sans-Serif" font-size="10.00">+ ~MIDI_Pipe()</text>
<text text-anchor="start" x="17.727" y="-1720.5" font-family="Helvetica,sans-Serif" font-size="10.00">+ hasSink()</text>
<text text-anchor="start" x="17.727" y="-1709.5" font-family="Helvetica,sans-Serif" font-size="10.00">+ hasSource()</text>
<text text-anchor="start" x="17.727" y="-1698.5" font-family="Helvetica,sans-Serif" font-size="10.00">+ hasThroughOut()</text>
<text text-anchor="start" x="17.727" y="-1687.5" font-family="Helvetica,sans-Serif" font-size="10.00">+ hasThroughIn()</text>
<text text-anchor="start" x="17.727" y="-1676.5" font-family="Helvetica,sans-Serif" font-size="10.00">+ disconnect()</text>
<text text-anchor="start" x="17.727" y="-1665.5" font-family="Helvetica,sans-Serif" font-size="10.00">+ getFinalSink()</text>
<text text-anchor="start" x="17.727" y="-1654.5" font-family="Helvetica,sans-Serif" font-size="10.00">+ getInitialSource()</text>
<text text-anchor="start" x="17.727" y="-1643.5" font-family="Helvetica,sans-Serif" font-size="10.00">+ disconnect()</text>
<text text-anchor="start" x="17.727" y="-1632.5" font-family="Helvetica,sans-Serif" font-size="10.00">+ disconnect()</text>
<text text-anchor="start" x="17.727" y="-1621.5" font-family="Helvetica,sans-Serif" font-size="10.00">+ exclusive()</text>
<text text-anchor="start" x="17.727" y="-1610.5" font-family="Helvetica,sans-Serif" font-size="10.00">+ isLocked()</text>
<text text-anchor="start" x="17.727" y="-1599.5" font-family="Helvetica,sans-Serif" font-size="10.00">+ isAvailableForWrite()</text>
<text text-anchor="start" x="17.727" y="-1588.5" font-family="Helvetica,sans-Serif" font-size="10.00">&#45; connectSink()</text>
<text text-anchor="start" x="17.727" y="-1577.5" font-family="Helvetica,sans-Serif" font-size="10.00">&#45; disconnectSink()</text>
<text text-anchor="start" x="17.727" y="-1566.5" font-family="Helvetica,sans-Serif" font-size="10.00">&#45; connectSource()</text>
<text text-anchor="start" x="17.727" y="-1555.5" font-family="Helvetica,sans-Serif" font-size="10.00">&#45; disconnectSource()</text>
<text text-anchor="start" x="17.727" y="-1544.5" font-family="Helvetica,sans-Serif" font-size="10.00">&#45; pipeMIDI()</text>
<text text-anchor="start" x="17.727" y="-1533.5" font-family="Helvetica,sans-Serif" font-size="10.00">&#45; pipeMIDI()</text>
<text text-anchor="start" x="17.727" y="-1522.5" font-family="Helvetica,sans-Serif" font-size="10.00">&#45; pipeMIDI()</text>
<text text-anchor="start" x="17.727" y="-1511.5" font-family="Helvetica,sans-Serif" font-size="10.00">&#45; sinkMIDIfromPipe()</text>
<text text-anchor="start" x="17.727" y="-1500.5" font-family="Helvetica,sans-Serif" font-size="10.00">&#45; sinkMIDIfromPipe()</text>
<text text-anchor="start" x="17.727" y="-1489.5" font-family="Helvetica,sans-Serif" font-size="10.00">&#45; sinkMIDIfromPipe()</text>
<text text-anchor="start" x="17.727" y="-1478.5" font-family="Helvetica,sans-Serif" font-size="10.00">&#45; lockDownstream()</text>
<text text-anchor="start" x="17.727" y="-1467.5" font-family="Helvetica,sans-Serif" font-size="10.00">&#45; lockUpstream()</text>
<text text-anchor="start" x="17.727" y="-1456.5" font-family="Helvetica,sans-Serif" font-size="10.00">&#45; lockSelf()</text>
</a>
</g>
</g>
<!-- Node6&#45;&gt;Node7 -->
<g id="edge7" class="edge"><title>Node6&#45;&gt;Node7</title>
<path fill="none" stroke="#8b1a1a" d="M80.1932,-1873.97C79.5344,-1861.82 78.8544,-1849.27 78.1677,-1836.61"/>
<polygon fill="none" stroke="#8b1a1a" points="76.7051,-1874.28 80.7413,-1884.08 83.6948,-1873.91 76.7051,-1874.28"/>
</g>
<!-- Node6&#45;&gt;Node7 -->
<g id="edge10" class="edge"><title>Node6&#45;&gt;Node7</title>
<path fill="none" stroke="#404040" d="M88.5524,-1884.45C88.6208,-1878.21 88.6801,-1872.02 88.727,-1866 88.765,-1861.11 88.9693,-1859.88 88.727,-1855 88.6234,-1852.91 88.5142,-1850.82 88.3995,-1848.71"/>
<polygon fill="none" stroke="#404040" points="88.3892,-1848.53 84.0443,-1842.78 87.6857,-1836.55 92.0306,-1842.31 88.3892,-1848.53"/>
<text text-anchor="middle" x="102.227" y="-1858" font-family="Helvetica,sans-Serif" font-size="10.00"> &#45;sink</text>
</g>
<!-- Node7&#45;&gt;Node6 -->
<g id="edge6" class="edge"><title>Node7&#45;&gt;Node6</title>
<path fill="none" stroke="#404040" d="M9.70965,-1762.78C0.130828,-1796.2 -3.93495,-1832.55 5.72696,-1866 6.38565,-1868.28 7.09813,-1870.56 7.85982,-1872.83"/>
<polygon fill="none" stroke="#404040" points="7.88665,-1872.91 13.7225,-1877.14 12.057,-1884.16 6.22114,-1879.92 7.88665,-1872.91"/>
<text text-anchor="middle" x="34.727" y="-1858" font-family="Helvetica,sans-Serif" font-size="10.00"> #sourcePipe</text>
</g>
<!-- Node7&#45;&gt;Node7 -->
<g id="edge12" class="edge"><title>Node7&#45;&gt;Node7</title>
<path fill="none" stroke="#404040" d="M126.039,-1681.12C136.453,-1676.17 143.727,-1663.46 143.727,-1643 143.727,-1629.57 140.594,-1619.48 135.497,-1612.73"/>
<polygon fill="none" stroke="#404040" points="135.269,-1612.54 128.097,-1611.79 126.039,-1604.88 133.21,-1605.63 135.269,-1612.54"/>
<text text-anchor="middle" x="169.727" y="-1646" font-family="Helvetica,sans-Serif" font-size="10.00"> &#45;throughIn</text>
<text text-anchor="middle" x="169.727" y="-1635" font-family="Helvetica,sans-Serif" font-size="10.00">&#45;throughOut</text>
</g>
<!-- Node8 -->
<g id="node8" class="node"><title>Node8</title>
<g id="a_node8"><a xlink:href="../../df/d5b/classMIDI__Source.html" target="_top" xlink:title="Class that can send MIDI messages to a MIDI pipe.">
<polygon fill="white" stroke="black" points="3.22696,-1121.5 3.22696,-1354.5 158.227,-1354.5 158.227,-1121.5 3.22696,-1121.5"/>
<text text-anchor="middle" x="80.727" y="-1342.5" font-family="Helvetica,sans-Serif" font-size="10.00">MIDI_Source</text>
<polyline fill="none" stroke="black" points="3.22696,-1335.5 158.227,-1335.5 "/>
<text text-anchor="middle" x="80.727" y="-1323.5" font-family="Helvetica,sans-Serif" font-size="10.00"> </text>
<polyline fill="none" stroke="black" points="3.22696,-1316.5 158.227,-1316.5 "/>
<text text-anchor="start" x="11.227" y="-1304.5" font-family="Helvetica,sans-Serif" font-size="10.00">+ sourceMIDItoPipe()</text>
<text text-anchor="start" x="11.227" y="-1293.5" font-family="Helvetica,sans-Serif" font-size="10.00">+ sourceMIDItoPipe()</text>
<text text-anchor="start" x="11.227" y="-1282.5" font-family="Helvetica,sans-Serif" font-size="10.00">+ sourceMIDItoPipe()</text>
<text text-anchor="start" x="11.227" y="-1271.5" font-family="Helvetica,sans-Serif" font-size="10.00">+ MIDI_Source()</text>
<text text-anchor="start" x="11.227" y="-1260.5" font-family="Helvetica,sans-Serif" font-size="10.00">+ MIDI_Source()</text>
<text text-anchor="start" x="11.227" y="-1249.5" font-family="Helvetica,sans-Serif" font-size="10.00">+ operator=()</text>
<text text-anchor="start" x="11.227" y="-1238.5" font-family="Helvetica,sans-Serif" font-size="10.00">+ MIDI_Source()</text>
<text text-anchor="start" x="11.227" y="-1227.5" font-family="Helvetica,sans-Serif" font-size="10.00">+ operator=()</text>
<text text-anchor="start" x="11.227" y="-1216.5" font-family="Helvetica,sans-Serif" font-size="10.00">+ ~MIDI_Source()</text>
<text text-anchor="start" x="11.227" y="-1205.5" font-family="Helvetica,sans-Serif" font-size="10.00">+ connectSinkPipe()</text>
<text text-anchor="start" x="11.227" y="-1194.5" font-family="Helvetica,sans-Serif" font-size="10.00">+ disconnectSinkPipes()</text>
<text text-anchor="start" x="11.227" y="-1183.5" font-family="Helvetica,sans-Serif" font-size="10.00">+ disconnect()</text>
<text text-anchor="start" x="11.227" y="-1172.5" font-family="Helvetica,sans-Serif" font-size="10.00">+ hasSinkPipe()</text>
<text text-anchor="start" x="11.227" y="-1161.5" font-family="Helvetica,sans-Serif" font-size="10.00">+ exclusive()</text>
<text text-anchor="start" x="11.227" y="-1150.5" font-family="Helvetica,sans-Serif" font-size="10.00">+ canWrite()</text>
<text text-anchor="start" x="11.227" y="-1139.5" font-family="Helvetica,sans-Serif" font-size="10.00">&#45; getInitialSource()</text>
<text text-anchor="start" x="11.227" y="-1128.5" font-family="Helvetica,sans-Serif" font-size="10.00">&#45; disconnectSinkPipesShallow()</text>
</a>
</g>
</g>
<!-- Node7&#45;&gt;Node8 -->
<g id="edge9" class="edge"><title>Node7&#45;&gt;Node8</title>
<path fill="none" stroke="#404040" d="M72.2989,-1449.49C73.0379,-1423.77 73.8511,-1397.74 74.727,-1373 74.7959,-1371.05 74.8667,-1369.09 74.9393,-1367.11"/>
<polygon fill="none" stroke="#404040" points="74.9498,-1366.83 71.18,-1360.69 75.4046,-1354.84 79.1743,-1360.99 74.9498,-1366.83"/>
<text text-anchor="middle" x="97.727" y="-1399.5" font-family="Helvetica,sans-Serif" font-size="10.00"> #sinkPipe</text>
</g>
<!-- Node8&#45;&gt;Node7 -->
<g id="edge8" class="edge"><title>Node8&#45;&gt;Node7</title>
<path fill="none" stroke="#8b1a1a" d="M123.221,-1364.44C123.77,-1367.31 124.274,-1370.17 124.727,-1373 128.818,-1398.57 128.615,-1425.39 125.755,-1451.77"/>
<polygon fill="none" stroke="#8b1a1a" points="126.647,-1363.73 121.188,-1354.65 119.793,-1365.15 126.647,-1363.73"/>
</g>
<!-- Node8&#45;&gt;Node7 -->
<g id="edge13" class="edge"><title>Node8&#45;&gt;Node7</title>
<path fill="none" stroke="#404040" d="M37.5114,-1354.57C36.0424,-1360.76 34.7616,-1366.92 33.727,-1373 30.1932,-1393.75 28.9315,-1415.46 29.2559,-1437.16"/>
<polygon fill="none" stroke="#404040" points="29.2573,-1437.22 33.4245,-1443.1 29.5949,-1449.21 25.4277,-1443.33 29.2573,-1437.22"/>
<text text-anchor="middle" x="51.727" y="-1399.5" font-family="Helvetica,sans-Serif" font-size="10.00"> &#45;source</text>
</g>
<!-- Node10 -->
<g id="node10" class="node"><title>Node10</title>
<g id="a_node10"><a xlink:href="../../d2/dcd/structTrueMIDI__Source.html" target="_top" xlink:title="A MIDI_Source that is not a MIDI_Pipe.">
<polygon fill="white" stroke="black" points="53.727,-1026.5 53.727,-1083.5 147.727,-1083.5 147.727,-1026.5 53.727,-1026.5"/>
<text text-anchor="middle" x="100.727" y="-1071.5" font-family="Helvetica,sans-Serif" font-size="10.00">TrueMIDI_Source</text>
<polyline fill="none" stroke="black" points="53.727,-1064.5 147.727,-1064.5 "/>
<text text-anchor="middle" x="100.727" y="-1052.5" font-family="Helvetica,sans-Serif" font-size="10.00"> </text>
<polyline fill="none" stroke="black" points="53.727,-1045.5 147.727,-1045.5 "/>
<text text-anchor="middle" x="100.727" y="-1033.5" font-family="Helvetica,sans-Serif" font-size="10.00"> </text>
</a>
</g>
</g>
<!-- Node8&#45;&gt;Node10 -->
<g id="edge15" class="edge"><title>Node8&#45;&gt;Node10</title>
<path fill="none" stroke="midnightblue" d="M94.6346,-1111.14C95.7401,-1101.13 96.7699,-1091.81 97.6567,-1083.79"/>
<polygon fill="none" stroke="midnightblue" points="91.1261,-1111.02 93.5065,-1121.35 98.0837,-1111.79 91.1261,-1111.02"/>
</g>
<!-- Node9 -->
<g id="node9" class="node"><title>Node9</title>
<g id="a_node9"><a xlink:href="../../d6/da4/classAH_1_1BitArray.html" target="_top" xlink:title=" ">
<polygon fill="white" stroke="black" points="206.227,-1912 206.227,-2079 307.227,-2079 307.227,-1912 206.227,-1912"/>
<text text-anchor="middle" x="256.727" y="-2067" font-family="Helvetica,sans-Serif" font-size="10.00">BitArray&lt; 16 &gt;</text>
<polyline fill="none" stroke="black" points="206.227,-2060 307.227,-2060 "/>
<text text-anchor="start" x="214.227" y="-2048" font-family="Helvetica,sans-Serif" font-size="10.00">&#45; buffer</text>
<text text-anchor="start" x="214.227" y="-2037" font-family="Helvetica,sans-Serif" font-size="10.00">&#45; bufferLength</text>
<polyline fill="none" stroke="black" points="206.227,-2030 307.227,-2030 "/>
<text text-anchor="start" x="214.227" y="-2018" font-family="Helvetica,sans-Serif" font-size="10.00">+ get()</text>
<text text-anchor="start" x="214.227" y="-2007" font-family="Helvetica,sans-Serif" font-size="10.00">+ set()</text>
<text text-anchor="start" x="214.227" y="-1996" font-family="Helvetica,sans-Serif" font-size="10.00">+ set()</text>
<text text-anchor="start" x="214.227" y="-1985" font-family="Helvetica,sans-Serif" font-size="10.00">+ clear()</text>
<text text-anchor="start" x="214.227" y="-1974" font-family="Helvetica,sans-Serif" font-size="10.00">+ safeIndex()</text>
<text text-anchor="start" x="214.227" y="-1963" font-family="Helvetica,sans-Serif" font-size="10.00">+ getByte()</text>
<text text-anchor="start" x="214.227" y="-1952" font-family="Helvetica,sans-Serif" font-size="10.00">+ getBufferLength()</text>
<text text-anchor="start" x="214.227" y="-1941" font-family="Helvetica,sans-Serif" font-size="10.00">&#45; getBufferIndex()</text>
<text text-anchor="start" x="214.227" y="-1930" font-family="Helvetica,sans-Serif" font-size="10.00">&#45; getBufferBit()</text>
<text text-anchor="start" x="214.227" y="-1919" font-family="Helvetica,sans-Serif" font-size="10.00">&#45; getBufferMask()</text>
</a>
</g>
</g>
<!-- Node9&#45;&gt;Node7 -->
<g id="edge11" class="edge"><title>Node9&#45;&gt;Node7</title>
<path fill="none" stroke="#404040" d="M212.176,-1911.88C188.13,-1867.29 158.029,-1811.47 131.538,-1762.34"/>
<polygon fill="none" stroke="#404040" points="131.464,-1762.2 125.096,-1758.82 125.769,-1751.64 132.137,-1755.02 131.464,-1762.2"/>
<text text-anchor="middle" x="199.727" y="-1858" font-family="Helvetica,sans-Serif" font-size="10.00"> &#45;locks</text>
</g>
<!-- Node10&#45;&gt;Node4 -->
<g id="edge14" class="edge"><title>Node10&#45;&gt;Node4</title>
<path fill="none" stroke="midnightblue" d="M125.403,-1018.08C136.786,-1001.51 150.092,-982.14 160.685,-966.719"/>
<polygon fill="none" stroke="midnightblue" points="122.427,-1016.23 119.649,-1026.45 128.197,-1020.19 122.427,-1016.23"/>
</g>
<!-- Node11 -->
<g id="node11" class="node"><title>Node11</title>
<g id="a_node11"><a xlink:href="../../df/d0c/classMIDI__Parser.html" target="_top" xlink:title=" ">
<polygon fill="white" stroke="black" points="513.227,-568 513.227,-691 634.227,-691 634.227,-568 513.227,-568"/>
<text text-anchor="middle" x="573.727" y="-679" font-family="Helvetica,sans-Serif" font-size="10.00">MIDI_Parser</text>
<polyline fill="none" stroke="black" points="513.227,-672 634.227,-672 "/>
<text text-anchor="middle" x="573.727" y="-660" font-family="Helvetica,sans-Serif" font-size="10.00"> </text>
<polyline fill="none" stroke="black" points="513.227,-653 634.227,-653 "/>
<text text-anchor="start" x="521.227" y="-641" font-family="Helvetica,sans-Serif" font-size="10.00">+ getChannelMessage()</text>
<text text-anchor="start" x="521.227" y="-630" font-family="Helvetica,sans-Serif" font-size="10.00">+ getSysEx()</text>
<text text-anchor="start" x="521.227" y="-619" font-family="Helvetica,sans-Serif" font-size="10.00">+ getSysExBuffer()</text>
<text text-anchor="start" x="521.227" y="-608" font-family="Helvetica,sans-Serif" font-size="10.00">+ getSysExLength()</text>
<text text-anchor="start" x="521.227" y="-597" font-family="Helvetica,sans-Serif" font-size="10.00">+ getCN()</text>
<text text-anchor="start" x="521.227" y="-586" font-family="Helvetica,sans-Serif" font-size="10.00">+ isStatus()</text>
<text text-anchor="start" x="521.227" y="-575" font-family="Helvetica,sans-Serif" font-size="10.00">+ isData()</text>
</a>
</g>
</g>
<!-- Node11&#45;&gt;Node2 -->
<g id="edge17" class="edge"><title>Node11&#45;&gt;Node2</title>
<path fill="none" stroke="#404040" d="M555.223,-567.882C541.935,-525.742 523.029,-468.48 503.727,-419 498.594,-405.841 496.565,-402.862 490.727,-390 489.615,-387.55 488.489,-385.072 487.352,-382.574"/>
<polygon fill="none" stroke="#404040" points="487.289,-382.436 481.161,-378.635 482.312,-371.516 488.441,-375.317 487.289,-382.436"/>
<text text-anchor="middle" x="514.727" y="-393" font-family="Helvetica,sans-Serif" font-size="10.00"> #parser</text>
</g>
<!-- Node14 -->
<g id="node14" class="node"><title>Node14</title>
<g id="a_node14"><a xlink:href="../../d0/d0d/classSerialMIDI__Parser.html" target="_top" xlink:title=" ">
<polygon fill="white" stroke="black" points="525.227,-221 525.227,-322 622.227,-322 622.227,-221 525.227,-221"/>
<text text-anchor="middle" x="573.727" y="-310" font-family="Helvetica,sans-Serif" font-size="10.00">SerialMIDI_Parser</text>
<polyline fill="none" stroke="black" points="525.227,-303 622.227,-303 "/>
<text text-anchor="start" x="533.227" y="-291" font-family="Helvetica,sans-Serif" font-size="10.00">&#45; thirdByte</text>
<polyline fill="none" stroke="black" points="525.227,-284 622.227,-284 "/>
<text text-anchor="start" x="533.227" y="-272" font-family="Helvetica,sans-Serif" font-size="10.00">+ parse()</text>
<text text-anchor="start" x="533.227" y="-261" font-family="Helvetica,sans-Serif" font-size="10.00">+ getSysEx()</text>
<text text-anchor="start" x="533.227" y="-250" font-family="Helvetica,sans-Serif" font-size="10.00"># addSysExByte()</text>
<text text-anchor="start" x="533.227" y="-239" font-family="Helvetica,sans-Serif" font-size="10.00"># startSysEx()</text>
<text text-anchor="start" x="533.227" y="-228" font-family="Helvetica,sans-Serif" font-size="10.00"># endSysEx()</text>
</a>
</g>
</g>
<!-- Node11&#45;&gt;Node14 -->
<g id="edge21" class="edge"><title>Node11&#45;&gt;Node14</title>
<path fill="none" stroke="midnightblue" d="M573.727,-557.688C573.727,-488.004 573.727,-383.401 573.727,-322.136"/>
<polygon fill="none" stroke="midnightblue" points="570.227,-557.706 573.727,-567.706 577.227,-557.706 570.227,-557.706"/>
</g>
<!-- Node12 -->
<g id="node12" class="node"><title>Node12</title>
<g id="a_node12"><a xlink:href="../../d7/d3f/structChannelMessage.html" target="_top" xlink:title=" ">
<polygon fill="white" stroke="black" points="527.727,-887.5 527.727,-988.5 619.727,-988.5 619.727,-887.5 527.727,-887.5"/>
<text text-anchor="middle" x="573.727" y="-976.5" font-family="Helvetica,sans-Serif" font-size="10.00">ChannelMessage</text>
<polyline fill="none" stroke="black" points="527.727,-969.5 619.727,-969.5 "/>
<text text-anchor="start" x="535.727" y="-957.5" font-family="Helvetica,sans-Serif" font-size="10.00">+ header</text>
<text text-anchor="start" x="535.727" y="-946.5" font-family="Helvetica,sans-Serif" font-size="10.00">+ data1</text>
<text text-anchor="start" x="535.727" y="-935.5" font-family="Helvetica,sans-Serif" font-size="10.00">+ data2</text>
<text text-anchor="start" x="535.727" y="-924.5" font-family="Helvetica,sans-Serif" font-size="10.00">+ CN</text>
<polyline fill="none" stroke="black" points="527.727,-917.5 619.727,-917.5 "/>
<text text-anchor="start" x="535.727" y="-905.5" font-family="Helvetica,sans-Serif" font-size="10.00">+ operator==()</text>
<text text-anchor="start" x="535.727" y="-894.5" font-family="Helvetica,sans-Serif" font-size="10.00">+ operator!=()</text>
</a>
</g>
</g>
<!-- Node12&#45;&gt;Node11 -->
<g id="edge18" class="edge"><title>Node12&#45;&gt;Node11</title>
<path fill="none" stroke="#404040" d="M573.727,-887.415C573.727,-837.536 573.727,-760.076 573.727,-703.244"/>
<polygon fill="none" stroke="#404040" points="573.727,-703.086 569.727,-697.086 573.727,-691.086 577.727,-697.086 573.727,-703.086"/>
<text text-anchor="middle" x="596.727" y="-861" font-family="Helvetica,sans-Serif" font-size="10.00"> #midimsg</text>
</g>
<!-- Node13 -->
<g id="node13" class="node"><title>Node13</title>
<g id="a_node13"><a xlink:href="../../de/d55/classMIDI__Callbacks.html" target="_top" xlink:title="A class for callbacks from MIDI input.">
<polygon fill="white" stroke="black" points="374.227,-584.5 374.227,-674.5 495.227,-674.5 495.227,-584.5 374.227,-584.5"/>
<text text-anchor="middle" x="434.727" y="-662.5" font-family="Helvetica,sans-Serif" font-size="10.00">MIDI_Callbacks</text>
<polyline fill="none" stroke="black" points="374.227,-655.5 495.227,-655.5 "/>
<text text-anchor="middle" x="434.727" y="-643.5" font-family="Helvetica,sans-Serif" font-size="10.00"> </text>
<polyline fill="none" stroke="black" points="374.227,-636.5 495.227,-636.5 "/>
<text text-anchor="start" x="382.227" y="-624.5" font-family="Helvetica,sans-Serif" font-size="10.00">+ onChannelMessage()</text>
<text text-anchor="start" x="382.227" y="-613.5" font-family="Helvetica,sans-Serif" font-size="10.00">+ onSysExMessage()</text>
<text text-anchor="start" x="382.227" y="-602.5" font-family="Helvetica,sans-Serif" font-size="10.00">+ onRealtimeMessage()</text>
<text text-anchor="start" x="382.227" y="-591.5" font-family="Helvetica,sans-Serif" font-size="10.00">+ ~MIDI_Callbacks()</text>
</a>
</g>
</g>
<!-- Node13&#45;&gt;Node2 -->
<g id="edge19" class="edge"><title>Node13&#45;&gt;Node2</title>
<path fill="none" stroke="#404040" d="M434.974,-584.49C435.254,-534.65 435.721,-451.543 436.103,-383.631"/>
<polygon fill="none" stroke="#404040" points="436.103,-383.573 432.137,-377.551 436.17,-371.573 440.137,-377.596 436.103,-383.573"/>
<text text-anchor="middle" x="461.727" y="-393" font-family="Helvetica,sans-Serif" font-size="10.00"> #callbacks</text>
</g>
<!-- Node14&#45;&gt;Node1 -->
<g id="edge20" class="edge"><title>Node14&#45;&gt;Node1</title>
<path fill="none" stroke="#404040" d="M560.553,-220.799C553.796,-195.306 545.438,-163.772 537.974,-135.612"/>
<polygon fill="none" stroke="#404040" points="537.911,-135.377 532.507,-130.602 534.837,-123.777 540.24,-128.552 537.911,-135.377"/>
<text text-anchor="middle" x="559.727" y="-145" font-family="Helvetica,sans-Serif" font-size="10.00"> #parser</text>
</g>
<!-- Node15 -->
<g id="node15" class="node"><title>Node15</title>
<g id="a_node15"><a xlink:href="../../d1/db1/classSysExBuffer.html" target="_top" xlink:title=" ">
<polygon fill="white" stroke="black" points="652.727,-557 652.727,-702 744.727,-702 744.727,-557 652.727,-557"/>
<text text-anchor="middle" x="698.727" y="-690" font-family="Helvetica,sans-Serif" font-size="10.00">SysExBuffer</text>
<polyline fill="none" stroke="black" points="652.727,-683 744.727,-683 "/>
<text text-anchor="start" x="660.727" y="-671" font-family="Helvetica,sans-Serif" font-size="10.00">&#45; SysExBuffer</text>
<text text-anchor="start" x="660.727" y="-660" font-family="Helvetica,sans-Serif" font-size="10.00">&#45; SysExLength</text>
<text text-anchor="start" x="660.727" y="-649" font-family="Helvetica,sans-Serif" font-size="10.00">&#45; receiving</text>
<polyline fill="none" stroke="black" points="652.727,-642 744.727,-642 "/>
<text text-anchor="start" x="660.727" y="-630" font-family="Helvetica,sans-Serif" font-size="10.00">+ start()</text>
<text text-anchor="start" x="660.727" y="-619" font-family="Helvetica,sans-Serif" font-size="10.00">+ end()</text>
<text text-anchor="start" x="660.727" y="-608" font-family="Helvetica,sans-Serif" font-size="10.00">+ add()</text>
<text text-anchor="start" x="660.727" y="-597" font-family="Helvetica,sans-Serif" font-size="10.00">+ hasSpaceLeft()</text>
<text text-anchor="start" x="660.727" y="-586" font-family="Helvetica,sans-Serif" font-size="10.00">+ isReceiving()</text>
<text text-anchor="start" x="660.727" y="-575" font-family="Helvetica,sans-Serif" font-size="10.00">+ getBuffer()</text>
<text text-anchor="start" x="660.727" y="-564" font-family="Helvetica,sans-Serif" font-size="10.00">+ getLength()</text>
</a>
</g>
</g>
<!-- Node15&#45;&gt;Node14 -->
<g id="edge22" class="edge"><title>Node15&#45;&gt;Node14</title>
<path fill="none" stroke="#404040" d="M682.912,-556.728C673.063,-515.814 659.153,-463.904 642.727,-419 632.121,-390.006 617.918,-358.93 605.155,-332.893"/>
<polygon fill="none" stroke="#404040" points="605.117,-332.816 598.868,-329.216 599.788,-322.064 606.036,-325.664 605.117,-332.816"/>
<text text-anchor="middle" x="664.727" y="-393" font-family="Helvetica,sans-Serif" font-size="10.00"> #sysexbuffer</text>
</g>
</g>
</svg>
