<?xml version="1.0" encoding="UTF-8" standalone="no"?>
<!DOCTYPE svg PUBLIC "-//W3C//DTD SVG 1.1//EN"
 "http://www.w3.org/Graphics/SVG/1.1/DTD/svg11.dtd">
<!-- Generated by graphviz version 2.40.1 (20161225.0304)
 -->
<!-- Title: DisplayInterfaceSSD1306.hpp Pages: 1 -->
<svg width="1294pt" height="767pt"
 viewBox="0.00 0.00 1293.71 767.00" xmlns="http://www.w3.org/2000/svg" xmlns:xlink="http://www.w3.org/1999/xlink">
<g id="graph0" class="graph" transform="scale(1 1) rotate(0) translate(4 763)">
<title>DisplayInterfaceSSD1306.hpp</title>
<polygon fill="#ffffff" stroke="transparent" points="-4,4 -4,-763 1289.713,-763 1289.713,4 -4,4"/>
<!-- Node1 -->
<g id="node1" class="node">
<title>Node1</title>
<g id="a_node1"><a xlink:title=" ">
<polygon fill="#bfbfbf" stroke="#000000" points="782.713,-739.5 782.713,-758.5 931.713,-758.5 931.713,-739.5 782.713,-739.5"/>
<text text-anchor="middle" x="857.213" y="-746.5" font-family="Helvetica,sans-Serif" font-size="10.00" fill="#000000">DisplayInterfaceSSD1306.hpp</text>
</a>
</g>
</g>
<!-- Node2 -->
<g id="node2" class="node">
<title>Node2</title>
<g id="a_node2"><a xlink:title=" ">
<polygon fill="#ffffff" stroke="#bfbfbf" points="733.213,-683.5 733.213,-702.5 839.213,-702.5 839.213,-683.5 733.213,-683.5"/>
<text text-anchor="middle" x="786.213" y="-690.5" font-family="Helvetica,sans-Serif" font-size="10.00" fill="#000000">Adafruit_SSD1306.h</text>
</a>
</g>
</g>
<!-- Node1&#45;&gt;Node2 -->
<g id="edge1" class="edge">
<title>Node1&#45;&gt;Node2</title>
<path fill="none" stroke="#191970" d="M844.8458,-739.2455C834.2576,-730.8943 818.8066,-718.7076 806.4237,-708.9408"/>
<polygon fill="#191970" stroke="#191970" points="808.4578,-706.0875 798.4386,-702.6427 804.1227,-711.5837 808.4578,-706.0875"/>
</g>
<!-- Node3 -->
<g id="node3" class="node">
<title>Node3</title>
<g id="a_node3"><a xlink:href="../../dc/d77/DisplayInterface_8hpp.html" target="_top" xlink:title=" ">
<polygon fill="#ffffff" stroke="#000000" points="857.713,-683.5 857.713,-702.5 1000.713,-702.5 1000.713,-683.5 857.713,-683.5"/>
<text text-anchor="middle" x="929.213" y="-690.5" font-family="Helvetica,sans-Serif" font-size="10.00" fill="#000000">Display/DisplayInterface.hpp</text>
</a>
</g>
</g>
<!-- Node1&#45;&gt;Node3 -->
<g id="edge2" class="edge">
<title>Node1&#45;&gt;Node3</title>
<path fill="none" stroke="#191970" d="M869.7545,-739.2455C880.4918,-730.8943 896.1604,-718.7076 908.7177,-708.9408"/>
<polygon fill="#191970" stroke="#191970" points="911.0706,-711.5449 916.8153,-702.6427 906.773,-706.0194 911.0706,-711.5449"/>
</g>
<!-- Node4 -->
<g id="node4" class="node">
<title>Node4</title>
<g id="a_node4"><a xlink:href="../../de/dd1/LinkedList_8hpp.html" target="_top" xlink:title=" ">
<polygon fill="#ffffff" stroke="#000000" points="44.713,-448.5 44.713,-467.5 191.713,-467.5 191.713,-448.5 44.713,-448.5"/>
<text text-anchor="middle" x="118.213" y="-455.5" font-family="Helvetica,sans-Serif" font-size="10.00" fill="#000000">AH/Containers/LinkedList.hpp</text>
</a>
</g>
</g>
<!-- Node3&#45;&gt;Node4 -->
<g id="edge3" class="edge">
<title>Node3&#45;&gt;Node4</title>
<path fill="none" stroke="#191970" d="M857.5163,-683.6732C677.5329,-660.1565 219.9795,-599.6926 206.213,-591 163.2619,-563.8792 136.676,-507.3201 125.0588,-477.448"/>
<polygon fill="#191970" stroke="#191970" points="128.2199,-475.9066 121.4535,-467.7539 121.6589,-478.3467 128.2199,-475.9066"/>
</g>
<!-- Node26 -->
<g id="node26" class="node">
<title>Node26</title>
<g id="a_node26"><a xlink:href="../../d0/d4e/Def_8hpp.html" target="_top" xlink:title=" ">
<polygon fill="#ffffff" stroke="#000000" points="894.213,-627.5 894.213,-646.5 964.213,-646.5 964.213,-627.5 894.213,-627.5"/>
<text text-anchor="middle" x="929.213" y="-634.5" font-family="Helvetica,sans-Serif" font-size="10.00" fill="#000000">Def/Def.hpp</text>
</a>
</g>
</g>
<!-- Node3&#45;&gt;Node26 -->
<g id="edge39" class="edge">
<title>Node3&#45;&gt;Node26</title>
<path fill="none" stroke="#191970" d="M929.213,-683.2455C929.213,-675.9382 929.213,-665.6944 929.213,-656.7046"/>
<polygon fill="#191970" stroke="#191970" points="932.7131,-656.6426 929.213,-646.6427 925.7131,-656.6427 932.7131,-656.6426"/>
</g>
<!-- Node32 -->
<g id="node32" class="node">
<title>Node32</title>
<g id="a_node32"><a xlink:title=" ">
<polygon fill="#ffffff" stroke="#bfbfbf" points="982.713,-627.5 982.713,-646.5 1027.713,-646.5 1027.713,-627.5 982.713,-627.5"/>
<text text-anchor="middle" x="1005.213" y="-634.5" font-family="Helvetica,sans-Serif" font-size="10.00" fill="#000000">Print.h</text>
</a>
</g>
</g>
<!-- Node3&#45;&gt;Node32 -->
<g id="edge59" class="edge">
<title>Node3&#45;&gt;Node32</title>
<path fill="none" stroke="#191970" d="M942.4512,-683.2455C953.894,-674.814 970.6427,-662.4729 983.9605,-652.6598"/>
<polygon fill="#191970" stroke="#191970" points="986.1522,-655.3924 992.1265,-646.6427 981.9998,-649.757 986.1522,-655.3924"/>
</g>
<!-- Node5 -->
<g id="node5" class="node">
<title>Node5</title>
<g id="a_node5"><a xlink:href="../../d1/d65/Warnings_8hpp.html" target="_top" xlink:title=" ">
<polygon fill="#ffffff" stroke="#000000" points="462.713,-.5 462.713,-19.5 595.713,-19.5 595.713,-.5 462.713,-.5"/>
<text text-anchor="middle" x="529.213" y="-7.5" font-family="Helvetica,sans-Serif" font-size="10.00" fill="#000000">AH/Settings/Warnings.hpp</text>
</a>
</g>
</g>
<!-- Node4&#45;&gt;Node5 -->
<g id="edge4" class="edge">
<title>Node4&#45;&gt;Node5</title>
<path fill="none" stroke="#191970" d="M79.5678,-448.4942C58.9689,-441.5665 34.7436,-430.1397 19.213,-412 -.6391,-388.8128 .213,-376.5246 .213,-346 .213,-346 .213,-346 .213,-122 .213,-46.7168 83.4887,-75.461 156.213,-56 256.4975,-29.164 376.2067,-17.917 452.458,-13.2477"/>
<polygon fill="#191970" stroke="#191970" points="452.6836,-16.7406 462.4601,-12.6577 452.2713,-9.7527 452.6836,-16.7406"/>
</g>
<!-- Node6 -->
<g id="node6" class="node">
<title>Node6</title>
<g id="a_node6"><a xlink:href="../../df/dee/Debug_8hpp.html" target="_top" xlink:title=" ">
<polygon fill="#ffffff" stroke="#000000" points="509.713,-392.5 509.713,-411.5 622.713,-411.5 622.713,-392.5 509.713,-392.5"/>
<text text-anchor="middle" x="566.213" y="-399.5" font-family="Helvetica,sans-Serif" font-size="10.00" fill="#000000">AH/Debug/Debug.hpp</text>
</a>
</g>
</g>
<!-- Node4&#45;&gt;Node6 -->
<g id="edge5" class="edge">
<title>Node4&#45;&gt;Node6</title>
<path fill="none" stroke="#191970" d="M191.9401,-448.7841C277.4192,-438.0992 417.0833,-420.6412 499.4709,-410.3428"/>
<polygon fill="#191970" stroke="#191970" points="499.9842,-413.8059 509.4729,-409.0925 499.1159,-406.86 499.9842,-413.8059"/>
</g>
<!-- Node10 -->
<g id="node10" class="node">
<title>Node10</title>
<g id="a_node10"><a xlink:href="../../d7/d79/MinMaxFix_8hpp.html" target="_top" xlink:title=" ">
<polygon fill="#ffffff" stroke="#000000" points="543.713,-112.5 543.713,-131.5 668.713,-131.5 668.713,-112.5 543.713,-112.5"/>
<text text-anchor="middle" x="606.213" y="-119.5" font-family="Helvetica,sans-Serif" font-size="10.00" fill="#000000">AH/Math/MinMaxFix.hpp</text>
</a>
</g>
</g>
<!-- Node4&#45;&gt;Node10 -->
<g id="edge36" class="edge">
<title>Node4&#45;&gt;Node10</title>
<path fill="none" stroke="#191970" d="M124.898,-448.4745C152.8922,-408.81 261.4534,-257.2752 309.213,-224 380.1222,-174.596 477.0937,-147.2658 540.6623,-133.6154"/>
<polygon fill="#191970" stroke="#191970" points="541.4985,-137.0162 550.5688,-131.5407 540.0637,-130.1649 541.4985,-137.0162"/>
</g>
<!-- Node24 -->
<g id="node24" class="node">
<title>Node24</title>
<g id="a_node24"><a xlink:title=" ">
<polygon fill="#ffffff" stroke="#bfbfbf" points="28.213,-392.5 28.213,-411.5 76.213,-411.5 76.213,-392.5 28.213,-392.5"/>
<text text-anchor="middle" x="52.213" y="-399.5" font-family="Helvetica,sans-Serif" font-size="10.00" fill="#000000">stdlib.h</text>
</a>
</g>
</g>
<!-- Node4&#45;&gt;Node24 -->
<g id="edge37" class="edge">
<title>Node4&#45;&gt;Node24</title>
<path fill="none" stroke="#191970" d="M106.7167,-448.2455C96.9688,-439.9746 82.7871,-427.9416 71.3333,-418.2232"/>
<polygon fill="#191970" stroke="#191970" points="73.4672,-415.4437 63.5776,-411.6427 68.9383,-420.7813 73.4672,-415.4437"/>
</g>
<!-- Node25 -->
<g id="node25" class="node">
<title>Node25</title>
<g id="a_node25"><a xlink:title=" ">
<polygon fill="#ffffff" stroke="#bfbfbf" points="94.713,-392.5 94.713,-411.5 141.713,-411.5 141.713,-392.5 94.713,-392.5"/>
<text text-anchor="middle" x="118.213" y="-399.5" font-family="Helvetica,sans-Serif" font-size="10.00" fill="#000000">iterator</text>
</a>
</g>
</g>
<!-- Node4&#45;&gt;Node25 -->
<g id="edge38" class="edge">
<title>Node4&#45;&gt;Node25</title>
<path fill="none" stroke="#191970" d="M118.213,-448.2455C118.213,-440.9382 118.213,-430.6944 118.213,-421.7046"/>
<polygon fill="#191970" stroke="#191970" points="121.7131,-421.6426 118.213,-411.6427 114.7131,-421.6427 121.7131,-421.6426"/>
</g>
<!-- Node6&#45;&gt;Node5 -->
<g id="edge6" class="edge">
<title>Node6&#45;&gt;Node5</title>
<path fill="none" stroke="#191970" d="M509.3552,-392.8543C462.2684,-384.4128 399.8613,-370.9508 379.213,-356 274.0818,-279.8776 301.2237,-205.7001 296.213,-76 295.8699,-67.1177 290.5691,-62.8672 296.213,-56 315.8262,-32.1361 392.2961,-20.4489 452.3497,-14.8595"/>
<polygon fill="#191970" stroke="#191970" points="452.9422,-18.3207 462.5933,-13.9495 452.3228,-11.3482 452.9422,-18.3207"/>
</g>
<!-- Node7 -->
<g id="node7" class="node">
<title>Node7</title>
<g id="a_node7"><a xlink:href="../../dd/d80/PrintStream_8hpp.html" target="_top" xlink:title=" ">
<polygon fill="#ffffff" stroke="#000000" points="739.713,-280.5 739.713,-299.5 898.713,-299.5 898.713,-280.5 739.713,-280.5"/>
<text text-anchor="middle" x="819.213" y="-287.5" font-family="Helvetica,sans-Serif" font-size="10.00" fill="#000000">AH/PrintStream/PrintStream.hpp</text>
</a>
</g>
</g>
<!-- Node6&#45;&gt;Node7 -->
<g id="edge7" class="edge">
<title>Node6&#45;&gt;Node7</title>
<path fill="none" stroke="#191970" d="M587.7837,-392.4509C632.6884,-372.5722 736.3439,-326.6852 788.3209,-303.6756"/>
<polygon fill="#191970" stroke="#191970" points="789.9697,-306.7733 797.697,-299.5249 787.1361,-300.3725 789.9697,-306.7733"/>
</g>
<!-- Node15 -->
<g id="node15" class="node">
<title>Node15</title>
<g id="a_node15"><a xlink:href="../../de/dd1/AH_2Settings_2SettingsWrapper_8hpp.html" target="_top" xlink:title=" ">
<polygon fill="#ffffff" stroke="#000000" points="484.213,-336.5 484.213,-355.5 648.213,-355.5 648.213,-336.5 484.213,-336.5"/>
<text text-anchor="middle" x="566.213" y="-343.5" font-family="Helvetica,sans-Serif" font-size="10.00" fill="#000000">AH/Settings/SettingsWrapper.hpp</text>
</a>
</g>
</g>
<!-- Node6&#45;&gt;Node15 -->
<g id="edge20" class="edge">
<title>Node6&#45;&gt;Node15</title>
<path fill="none" stroke="#191970" d="M560.9462,-392.2455C559.5352,-384.9382 559.1309,-374.6944 559.7335,-365.7046"/>
<polygon fill="#191970" stroke="#191970" points="563.2241,-365.9945 560.9679,-355.6427 556.2762,-365.1421 563.2241,-365.9945"/>
</g>
<!-- Node23 -->
<g id="node23" class="node">
<title>Node23</title>
<g id="a_node23"><a xlink:href="../../d7/d52/DebugVal_8hpp.html" target="_top" xlink:title=" ">
<polygon fill="#ffffff" stroke="#000000" points="388.213,-336.5 388.213,-355.5 466.213,-355.5 466.213,-336.5 388.213,-336.5"/>
<text text-anchor="middle" x="427.213" y="-343.5" font-family="Helvetica,sans-Serif" font-size="10.00" fill="#000000">DebugVal.hpp</text>
</a>
</g>
</g>
<!-- Node6&#45;&gt;Node23 -->
<g id="edge35" class="edge">
<title>Node6&#45;&gt;Node23</title>
<path fill="none" stroke="#191970" d="M542.3181,-392.3733C519.7048,-383.2629 485.5589,-369.5062 460.3258,-359.3404"/>
<polygon fill="#191970" stroke="#191970" points="461.3797,-355.9917 450.7962,-355.5011 458.7638,-362.4845 461.3797,-355.9917"/>
</g>
<!-- Node7&#45;&gt;Node5 -->
<g id="edge9" class="edge">
<title>Node7&#45;&gt;Node5</title>
<path fill="none" stroke="#191970" d="M817.323,-280.3936C809.2672,-240.4039 776.5903,-87.7464 741.213,-56 721.2654,-38.0997 657.9695,-25.8848 605.6913,-18.5665"/>
<polygon fill="#191970" stroke="#191970" points="606.1159,-15.0921 595.7354,-17.2123 605.1724,-22.0282 606.1159,-15.0921"/>
</g>
<!-- Node8 -->
<g id="node8" class="node">
<title>Node8</title>
<g id="a_node8"><a xlink:href="../../d6/db0/AH_2Settings_2NamespaceSettings_8hpp.html" target="_top" xlink:title=" ">
<polygon fill="#ffffff" stroke="#000000" points="321.213,-56.5 321.213,-75.5 501.213,-75.5 501.213,-56.5 321.213,-56.5"/>
<text text-anchor="middle" x="411.213" y="-63.5" font-family="Helvetica,sans-Serif" font-size="10.00" fill="#000000">AH/Settings/NamespaceSettings.hpp</text>
</a>
</g>
</g>
<!-- Node7&#45;&gt;Node8 -->
<g id="edge8" class="edge">
<title>Node7&#45;&gt;Node8</title>
<path fill="none" stroke="#191970" d="M749.6728,-280.4997C695.342,-272.1452 625.0232,-259.0001 600.213,-244 535.1046,-204.6358 549.3463,-161.0833 491.213,-112 476.311,-99.4179 457.4917,-88.4003 441.8502,-80.3044"/>
<polygon fill="#191970" stroke="#191970" points="443.0927,-77.0119 432.5853,-75.6532 439.9521,-83.2678 443.0927,-77.0119"/>
</g>
<!-- Node9 -->
<g id="node9" class="node">
<title>Node9</title>
<g id="a_node9"><a xlink:href="../../d6/ddf/Arduino-Wrapper_8h.html" target="_top" xlink:title=" ">
<polygon fill="#ffffff" stroke="#000000" points="807.713,-168.5 807.713,-187.5 922.713,-187.5 922.713,-168.5 807.713,-168.5"/>
<text text-anchor="middle" x="865.213" y="-175.5" font-family="Helvetica,sans-Serif" font-size="10.00" fill="#000000">AH/Arduino&#45;Wrapper.h</text>
</a>
</g>
</g>
<!-- Node7&#45;&gt;Node9 -->
<g id="edge10" class="edge">
<title>Node7&#45;&gt;Node9</title>
<path fill="none" stroke="#191970" d="M823.135,-280.4509C830.7054,-262.0186 847.4598,-221.2254 857.3918,-197.043"/>
<polygon fill="#191970" stroke="#191970" points="860.7394,-198.1048 861.301,-187.5249 854.2642,-195.4454 860.7394,-198.1048"/>
</g>
<!-- Node14 -->
<g id="node14" class="node">
<title>Node14</title>
<g id="a_node14"><a xlink:title=" ">
<polygon fill="#ffffff" stroke="#bfbfbf" points="1122.713,-224.5 1122.713,-243.5 1285.713,-243.5 1285.713,-224.5 1122.713,-224.5"/>
<text text-anchor="middle" x="1204.213" y="-231.5" font-family="Helvetica,sans-Serif" font-size="10.00" fill="#000000">Settings/NamespaceSettings.hpp</text>
</a>
</g>
</g>
<!-- Node7&#45;&gt;Node14 -->
<g id="edge19" class="edge">
<title>Node7&#45;&gt;Node14</title>
<path fill="none" stroke="#191970" d="M884.9594,-280.4369C952.5103,-270.6113 1057.548,-255.3331 1128.5219,-245.0096"/>
<polygon fill="#191970" stroke="#191970" points="1129.3458,-248.4267 1138.7378,-243.5237 1128.3381,-241.4996 1129.3458,-248.4267"/>
</g>
<!-- Node9&#45;&gt;Node10 -->
<g id="edge11" class="edge">
<title>Node9&#45;&gt;Node10</title>
<path fill="none" stroke="#191970" d="M820.9836,-168.4369C776.4715,-158.8127 707.764,-143.957 660.0962,-133.6504"/>
<polygon fill="#191970" stroke="#191970" points="660.7738,-130.2161 650.26,-131.5237 659.2945,-137.058 660.7738,-130.2161"/>
</g>
<!-- Node12 -->
<g id="node12" class="node">
<title>Node12</title>
<g id="a_node12"><a xlink:title=" ">
<polygon fill="#ffffff" stroke="#bfbfbf" points="701.213,-.5 701.213,-19.5 759.213,-19.5 759.213,-.5 701.213,-.5"/>
<text text-anchor="middle" x="730.213" y="-7.5" font-family="Helvetica,sans-Serif" font-size="10.00" fill="#000000">Arduino.h</text>
</a>
</g>
</g>
<!-- Node9&#45;&gt;Node12 -->
<g id="edge18" class="edge">
<title>Node9&#45;&gt;Node12</title>
<path fill="none" stroke="#191970" d="M861.1281,-168.2709C851.6153,-146.4033 826.2575,-92.4352 793.213,-56 782.3046,-43.9723 767.7949,-33.1207 755.4499,-24.9819"/>
<polygon fill="#191970" stroke="#191970" points="757.2416,-21.9734 746.926,-19.557 753.4831,-27.8789 757.2416,-21.9734"/>
</g>
<!-- Node13 -->
<g id="node13" class="node">
<title>Node13</title>
<g id="a_node13"><a xlink:title=" ">
<polygon fill="#ffffff" stroke="#bfbfbf" points="852.713,-112.5 852.713,-131.5 953.713,-131.5 953.713,-112.5 852.713,-112.5"/>
<text text-anchor="middle" x="903.213" y="-119.5" font-family="Helvetica,sans-Serif" font-size="10.00" fill="#000000">AH/STL/type_traits</text>
</a>
</g>
</g>
<!-- Node9&#45;&gt;Node13 -->
<g id="edge17" class="edge">
<title>Node9&#45;&gt;Node13</title>
<path fill="none" stroke="#191970" d="M871.8321,-168.2455C877.1176,-160.4564 884.6672,-149.3308 891.0368,-139.9439"/>
<polygon fill="#191970" stroke="#191970" points="893.9509,-141.8827 896.6698,-131.6427 888.1586,-137.9522 893.9509,-141.8827"/>
</g>
<!-- Node10&#45;&gt;Node5 -->
<g id="edge12" class="edge">
<title>Node10&#45;&gt;Node5</title>
<path fill="none" stroke="#191970" d="M589.0747,-112.454C576.0531,-104.3582 558.657,-91.5886 548.213,-76 538.8916,-62.0868 534.0792,-43.5736 531.6341,-29.6961"/>
<polygon fill="#191970" stroke="#191970" points="535.0849,-29.1067 530.1397,-19.7368 528.1624,-30.1455 535.0849,-29.1067"/>
</g>
<!-- Node10&#45;&gt;Node8 -->
<g id="edge16" class="edge">
<title>Node10&#45;&gt;Node8</title>
<path fill="none" stroke="#191970" d="M572.6913,-112.3733C539.8447,-102.9404 489.6535,-88.5265 453.9553,-78.2747"/>
<polygon fill="#191970" stroke="#191970" points="454.8749,-74.8974 444.2973,-75.5011 452.9427,-81.6255 454.8749,-74.8974"/>
</g>
<!-- Node11 -->
<g id="node11" class="node">
<title>Node11</title>
<g id="a_node11"><a xlink:href="../../d6/d3b/FixArduinoMacros_8hpp.html" target="_top" xlink:title=" ">
<polygon fill="#ffffff" stroke="#000000" points="557.213,-56.5 557.213,-75.5 713.213,-75.5 713.213,-56.5 557.213,-56.5"/>
<text text-anchor="middle" x="635.213" y="-63.5" font-family="Helvetica,sans-Serif" font-size="10.00" fill="#000000">AH/Math/FixArduinoMacros.hpp</text>
</a>
</g>
</g>
<!-- Node10&#45;&gt;Node11 -->
<g id="edge13" class="edge">
<title>Node10&#45;&gt;Node11</title>
<path fill="none" stroke="#191970" d="M611.2645,-112.2455C615.2149,-104.617 620.8228,-93.7881 625.6188,-84.5267"/>
<polygon fill="#191970" stroke="#191970" points="628.7289,-86.1321 630.2195,-75.6427 622.5129,-82.9131 628.7289,-86.1321"/>
</g>
<!-- Node11&#45;&gt;Node5 -->
<g id="edge14" class="edge">
<title>Node11&#45;&gt;Node5</title>
<path fill="none" stroke="#191970" d="M616.7492,-56.2455C600.1056,-47.4527 575.4137,-34.4079 556.4939,-24.4125"/>
<polygon fill="#191970" stroke="#191970" points="557.9421,-21.2193 547.4652,-19.6427 554.6722,-27.4086 557.9421,-21.2193"/>
</g>
<!-- Node11&#45;&gt;Node12 -->
<g id="edge15" class="edge">
<title>Node11&#45;&gt;Node12</title>
<path fill="none" stroke="#191970" d="M651.7608,-56.2455C666.4729,-47.5731 688.2018,-34.7645 705.0635,-24.825"/>
<polygon fill="#191970" stroke="#191970" points="707.0176,-27.736 713.8549,-19.6427 703.4629,-21.7057 707.0176,-27.736"/>
</g>
<!-- Node15&#45;&gt;Node5 -->
<g id="edge21" class="edge">
<title>Node15&#45;&gt;Node5</title>
<path fill="none" stroke="#191970" d="M522.7754,-336.4857C497.2831,-329.3985 465.4273,-317.8146 441.213,-300 431.7345,-293.0265 316.8722,-142.8057 312.213,-132 302.2321,-108.8518 305.2194,-101.1283 303.213,-76 302.5056,-67.1393 297.5893,-62.8837 303.213,-56 321.9429,-33.0738 394.4398,-21.2852 452.3403,-15.4168"/>
<polygon fill="#191970" stroke="#191970" points="452.9813,-18.8712 462.5969,-14.4226 452.3059,-11.9038 452.9813,-18.8712"/>
</g>
<!-- Node15&#45;&gt;Node6 -->
<g id="edge34" class="edge">
<title>Node15&#45;&gt;Node6</title>
<path fill="none" stroke="#191970" d="M571.4582,-355.6427C572.8795,-362.9199 573.294,-373.155 572.7017,-382.1575"/>
<polygon fill="#191970" stroke="#191970" points="569.2077,-381.8972 571.4799,-392.2455 576.1569,-382.739 569.2077,-381.8972"/>
</g>
<!-- Node15&#45;&gt;Node8 -->
<g id="edge22" class="edge">
<title>Node15&#45;&gt;Node8</title>
<path fill="none" stroke="#191970" d="M510.3595,-336.4367C489.4389,-329.8472 467.7278,-318.7332 455.213,-300 408.7921,-230.5133 490.607,-189.0321 458.213,-112 453.2152,-100.1153 443.4817,-89.765 434.1627,-81.908"/>
<polygon fill="#191970" stroke="#191970" points="436.2378,-79.0874 426.2095,-75.6692 431.9174,-84.5951 436.2378,-79.0874"/>
</g>
<!-- Node16 -->
<g id="node16" class="node">
<title>Node16</title>
<g id="a_node16"><a xlink:href="../../d5/d4f/AH_2Settings_2Settings_8hpp.html" target="_top" xlink:title="All user settings and debugging options can be changed here.">
<polygon fill="#ffffff" stroke="#000000" points="650.713,-280.5 650.713,-299.5 721.713,-299.5 721.713,-280.5 650.713,-280.5"/>
<text text-anchor="middle" x="686.213" y="-287.5" font-family="Helvetica,sans-Serif" font-size="10.00" fill="#000000">Settings.hpp</text>
</a>
</g>
</g>
<!-- Node15&#45;&gt;Node16 -->
<g id="edge23" class="edge">
<title>Node15&#45;&gt;Node16</title>
<path fill="none" stroke="#191970" d="M586.8418,-336.3733C606.1049,-327.3838 635.0617,-313.8706 656.755,-303.7471"/>
<polygon fill="#191970" stroke="#191970" points="658.2718,-306.9017 665.8535,-299.5011 655.3115,-300.5584 658.2718,-306.9017"/>
</g>
<!-- Node22 -->
<g id="node22" class="node">
<title>Node22</title>
<g id="a_node22"><a xlink:href="../../d9/d98/TeensyUSBTypes_8hpp.html" target="_top" xlink:title=" ">
<polygon fill="#ffffff" stroke="#000000" points="464.213,-280.5 464.213,-299.5 632.213,-299.5 632.213,-280.5 464.213,-280.5"/>
<text text-anchor="middle" x="548.213" y="-287.5" font-family="Helvetica,sans-Serif" font-size="10.00" fill="#000000">AH/Teensy/TeensyUSBTypes.hpp</text>
</a>
</g>
</g>
<!-- Node15&#45;&gt;Node22 -->
<g id="edge33" class="edge">
<title>Node15&#45;&gt;Node22</title>
<path fill="none" stroke="#191970" d="M563.0777,-336.2455C560.7031,-328.8579 557.3637,-318.4689 554.4515,-309.4087"/>
<polygon fill="#191970" stroke="#191970" points="557.7047,-308.0919 551.3125,-299.6427 551.0405,-310.234 557.7047,-308.0919"/>
</g>
<!-- Node17 -->
<g id="node17" class="node">
<title>Node17</title>
<g id="a_node17"><a xlink:href="../../dc/d50/Frequency_8hpp.html" target="_top" xlink:title=" ">
<polygon fill="#ffffff" stroke="#000000" points="321.213,-112.5 321.213,-131.5 449.213,-131.5 449.213,-112.5 321.213,-112.5"/>
<text text-anchor="middle" x="385.213" y="-119.5" font-family="Helvetica,sans-Serif" font-size="10.00" fill="#000000">AH/Types/Frequency.hpp</text>
</a>
</g>
</g>
<!-- Node16&#45;&gt;Node17 -->
<g id="edge24" class="edge">
<title>Node16&#45;&gt;Node17</title>
<path fill="none" stroke="#191970" d="M650.6131,-282.0975C596.7392,-270.0552 500.0079,-248.0738 493.213,-244 449.1573,-217.5866 413.2612,-167.26 396.1159,-140.2352"/>
<polygon fill="#191970" stroke="#191970" points="399.0886,-138.3878 390.8507,-131.7254 393.1359,-142.0709 399.0886,-138.3878"/>
</g>
<!-- Node18 -->
<g id="node18" class="node">
<title>Node18</title>
<g id="a_node18"><a xlink:href="../../d7/d7c/ADCConfig_8hpp.html" target="_top" xlink:title="This file contains the platform&#45;specific ADC resolutions. By default, the library automatically selec...">
<polygon fill="#ffffff" stroke="#000000" points="609.213,-224.5 609.213,-243.5 757.213,-243.5 757.213,-224.5 609.213,-224.5"/>
<text text-anchor="middle" x="683.213" y="-231.5" font-family="Helvetica,sans-Serif" font-size="10.00" fill="#000000">AH/Hardware/ADCConfig.hpp</text>
</a>
</g>
</g>
<!-- Node16&#45;&gt;Node18 -->
<g id="edge27" class="edge">
<title>Node16&#45;&gt;Node18</title>
<path fill="none" stroke="#191970" d="M685.6905,-280.2455C685.299,-272.9382 684.7502,-262.6944 684.2686,-253.7046"/>
<polygon fill="#191970" stroke="#191970" points="687.7596,-253.4411 683.7296,-243.6427 680.7697,-253.8156 687.7596,-253.4411"/>
</g>
<!-- Node19 -->
<g id="node19" class="node">
<title>Node19</title>
<g id="a_node19"><a xlink:title=" ">
<polygon fill="#ffffff" stroke="#bfbfbf" points="502.213,-224.5 502.213,-243.5 550.213,-243.5 550.213,-224.5 502.213,-224.5"/>
<text text-anchor="middle" x="526.213" y="-231.5" font-family="Helvetica,sans-Serif" font-size="10.00" fill="#000000">limits.h</text>
</a>
</g>
</g>
<!-- Node16&#45;&gt;Node19 -->
<g id="edge30" class="edge">
<title>Node16&#45;&gt;Node19</title>
<path fill="none" stroke="#191970" d="M658.7081,-280.3733C631.3737,-270.8062 589.4004,-256.1156 560.0414,-245.8399"/>
<polygon fill="#191970" stroke="#191970" points="560.8223,-242.4051 550.2275,-242.4051 558.5098,-249.0121 560.8223,-242.4051"/>
</g>
<!-- Node20 -->
<g id="node20" class="node">
<title>Node20</title>
<g id="a_node20"><a xlink:title=" ">
<polygon fill="#ffffff" stroke="#bfbfbf" points="318.213,-224.5 318.213,-243.5 370.213,-243.5 370.213,-224.5 318.213,-224.5"/>
<text text-anchor="middle" x="344.213" y="-231.5" font-family="Helvetica,sans-Serif" font-size="10.00" fill="#000000">stddef.h</text>
</a>
</g>
</g>
<!-- Node16&#45;&gt;Node20 -->
<g id="edge31" class="edge">
<title>Node16&#45;&gt;Node20</title>
<path fill="none" stroke="#191970" d="M650.3949,-281.8202C647.2945,-281.179 644.2017,-280.5629 641.213,-280 547.761,-262.3987 436.839,-246.5444 380.6873,-238.8707"/>
<polygon fill="#191970" stroke="#191970" points="380.9126,-235.3692 370.5324,-237.4906 379.97,-242.3054 380.9126,-235.3692"/>
</g>
<!-- Node21 -->
<g id="node21" class="node">
<title>Node21</title>
<g id="a_node21"><a xlink:title=" ">
<polygon fill="#ffffff" stroke="#bfbfbf" points="1055.713,-224.5 1055.713,-243.5 1104.713,-243.5 1104.713,-224.5 1055.713,-224.5"/>
<text text-anchor="middle" x="1080.213" y="-231.5" font-family="Helvetica,sans-Serif" font-size="10.00" fill="#000000">stdint.h</text>
</a>
</g>
</g>
<!-- Node16&#45;&gt;Node21 -->
<g id="edge32" class="edge">
<title>Node16&#45;&gt;Node21</title>
<path fill="none" stroke="#191970" d="M722.0177,-281.7466C725.121,-281.1214 728.2182,-280.5291 731.213,-280 845.5643,-259.7983 982.4282,-244.2439 1045.3915,-237.5671"/>
<polygon fill="#191970" stroke="#191970" points="1045.9791,-241.0247 1055.5583,-236.4982 1045.2472,-234.063 1045.9791,-241.0247"/>
</g>
<!-- Node17&#45;&gt;Node5 -->
<g id="edge25" class="edge">
<title>Node17&#45;&gt;Node5</title>
<path fill="none" stroke="#191970" d="M359.8425,-112.2998C332.1193,-100.2671 293.928,-78.5674 312.213,-56 329.8155,-34.275 397.2693,-22.3956 452.3559,-16.1824"/>
<polygon fill="#191970" stroke="#191970" points="452.9174,-19.6422 462.4831,-15.0871 452.1647,-12.6828 452.9174,-19.6422"/>
</g>
<!-- Node17&#45;&gt;Node8 -->
<g id="edge26" class="edge">
<title>Node17&#45;&gt;Node8</title>
<path fill="none" stroke="#191970" d="M389.7419,-112.2455C393.2464,-104.6973 398.2057,-94.0158 402.4753,-84.8197"/>
<polygon fill="#191970" stroke="#191970" points="405.6994,-86.1867 406.7361,-75.6427 399.3504,-83.2389 405.6994,-86.1867"/>
</g>
<!-- Node18&#45;&gt;Node5 -->
<g id="edge28" class="edge">
<title>Node18&#45;&gt;Node5</title>
<path fill="none" stroke="#191970" d="M690.2393,-224.2897C710.2625,-195.3393 763.5816,-108.3872 722.213,-56 707.5648,-37.4501 653.1558,-25.569 605.8264,-18.5377"/>
<polygon fill="#191970" stroke="#191970" points="606.2461,-15.0621 595.8511,-17.1102 605.2544,-21.9916 606.2461,-15.0621"/>
</g>
<!-- Node18&#45;&gt;Node9 -->
<g id="edge29" class="edge">
<title>Node18&#45;&gt;Node9</title>
<path fill="none" stroke="#191970" d="M714.5,-224.3733C744.8948,-215.021 791.2023,-200.7725 824.463,-190.5385"/>
<polygon fill="#191970" stroke="#191970" points="825.8059,-193.7873 834.3344,-187.5011 823.7473,-187.0968 825.8059,-193.7873"/>
</g>
<!-- Node26&#45;&gt;Node14 -->
<g id="edge56" class="edge">
<title>Node26&#45;&gt;Node14</title>
<path fill="none" stroke="#191970" d="M964.5781,-629.102C967.8345,-628.3865 971.0842,-627.677 974.213,-627 1096.1668,-600.6132 1231.213,-638.7757 1231.213,-514 1231.213,-514 1231.213,-514 1231.213,-346 1231.213,-312.6538 1219.7618,-275.2392 1211.7744,-253.1981"/>
<polygon fill="#191970" stroke="#191970" points="1214.9966,-251.823 1208.197,-243.6981 1208.4457,-254.29 1214.9966,-251.823"/>
</g>
<!-- Node26&#45;&gt;Node20 -->
<g id="edge57" class="edge">
<title>Node26&#45;&gt;Node20</title>
<path fill="none" stroke="#191970" d="M894.0536,-634.6697C750.9921,-624.7276 220.213,-583.1793 220.213,-514 220.213,-514 220.213,-514 220.213,-458 220.213,-371.1717 292.4107,-286.4297 326.6258,-251.1451"/>
<polygon fill="#191970" stroke="#191970" points="329.5131,-253.2038 334.0656,-243.6369 324.5407,-248.2767 329.5131,-253.2038"/>
</g>
<!-- Node26&#45;&gt;Node21 -->
<g id="edge58" class="edge">
<title>Node26&#45;&gt;Node21</title>
<path fill="none" stroke="#191970" d="M964.4245,-628.9865C1015.2678,-615.0926 1103.213,-581.3288 1103.213,-514 1103.213,-514 1103.213,-514 1103.213,-346 1103.213,-312.906 1093.4583,-275.4151 1086.6542,-253.2901"/>
<polygon fill="#191970" stroke="#191970" points="1089.9837,-252.2105 1083.6068,-243.7497 1083.3156,-254.3405 1089.9837,-252.2105"/>
</g>
<!-- Node27 -->
<g id="node27" class="node">
<title>Node27</title>
<g id="a_node27"><a xlink:href="../../d7/d42/Channel_8hpp.html" target="_top" xlink:title=" ">
<polygon fill="#ffffff" stroke="#000000" points="1131.713,-280.5 1131.713,-299.5 1202.713,-299.5 1202.713,-280.5 1131.713,-280.5"/>
<text text-anchor="middle" x="1167.213" y="-287.5" font-family="Helvetica,sans-Serif" font-size="10.00" fill="#000000">Channel.hpp</text>
</a>
</g>
</g>
<!-- Node26&#45;&gt;Node27 -->
<g id="edge40" class="edge">
<title>Node26&#45;&gt;Node27</title>
<path fill="none" stroke="#191970" d="M964.4673,-629.1897C1017.2284,-617.3845 1111.2268,-595.8548 1117.213,-591 1146.7023,-567.0843 1154.213,-551.9681 1154.213,-514 1154.213,-514 1154.213,-514 1154.213,-402 1154.213,-369.3457 1159.7331,-331.6911 1163.5791,-309.4184"/>
<polygon fill="#191970" stroke="#191970" points="1167.0295,-310.0059 1165.3505,-299.545 1160.1395,-308.7698 1167.0295,-310.0059"/>
</g>
<!-- Node28 -->
<g id="node28" class="node">
<title>Node28</title>
<g id="a_node28"><a xlink:href="../../de/d76/Array_8hpp.html" target="_top" xlink:title=" ">
<polygon fill="#ffffff" stroke="#000000" points="822.213,-504.5 822.213,-523.5 948.213,-523.5 948.213,-504.5 822.213,-504.5"/>
<text text-anchor="middle" x="885.213" y="-511.5" font-family="Helvetica,sans-Serif" font-size="10.00" fill="#000000">AH/Containers/Array.hpp</text>
</a>
</g>
</g>
<!-- Node26&#45;&gt;Node28 -->
<g id="edge43" class="edge">
<title>Node26&#45;&gt;Node28</title>
<path fill="none" stroke="#191970" d="M927.6389,-627.2748C925.0534,-612.4261 919.272,-583.3649 910.213,-560 906.5289,-550.4978 901.2761,-540.4949 896.5356,-532.2528"/>
<polygon fill="#191970" stroke="#191970" points="899.4575,-530.319 891.3305,-523.5217 893.4448,-533.9034 899.4575,-530.319"/>
</g>
<!-- Node31 -->
<g id="node31" class="node">
<title>Node31</title>
<g id="a_node31"><a xlink:href="../../d4/d35/Hardware-Types_8hpp.html" target="_top" xlink:title=" ">
<polygon fill="#ffffff" stroke="#000000" points="779.713,-560.5 779.713,-590.5 900.713,-590.5 900.713,-560.5 779.713,-560.5"/>
<text text-anchor="start" x="787.713" y="-578.5" font-family="Helvetica,sans-Serif" font-size="10.00" fill="#000000">AH/Hardware/Hardware</text>
<text text-anchor="middle" x="840.213" y="-567.5" font-family="Helvetica,sans-Serif" font-size="10.00" fill="#000000">&#45;Types.hpp</text>
</a>
</g>
</g>
<!-- Node26&#45;&gt;Node31 -->
<g id="edge51" class="edge">
<title>Node26&#45;&gt;Node31</title>
<path fill="none" stroke="#191970" d="M915.3068,-627.3906C903.3732,-619.1444 885.7504,-606.9669 870.5754,-596.4807"/>
<polygon fill="#191970" stroke="#191970" points="872.2015,-593.3501 861.9849,-590.5446 868.2221,-599.1089 872.2015,-593.3501"/>
</g>
<!-- Node27&#45;&gt;Node14 -->
<g id="edge42" class="edge">
<title>Node27&#45;&gt;Node14</title>
<path fill="none" stroke="#191970" d="M1173.6579,-280.2455C1178.7513,-272.5367 1186.0039,-261.5598 1192.165,-252.2348"/>
<polygon fill="#191970" stroke="#191970" points="1195.2495,-253.9155 1197.842,-243.6427 1189.4092,-250.0566 1195.2495,-253.9155"/>
</g>
<!-- Node27&#45;&gt;Node21 -->
<g id="edge41" class="edge">
<title>Node27&#45;&gt;Node21</title>
<path fill="none" stroke="#191970" d="M1152.0588,-280.2455C1138.7103,-271.6534 1119.0544,-259.0014 1103.6748,-249.1018"/>
<polygon fill="#191970" stroke="#191970" points="1105.4967,-246.1121 1095.1936,-243.6427 1101.7079,-251.9982 1105.4967,-246.1121"/>
</g>
<!-- Node28&#45;&gt;Node5 -->
<g id="edge44" class="edge">
<title>Node28&#45;&gt;Node5</title>
<path fill="none" stroke="#191970" d="M942.0371,-504.4116C965.3899,-497.79 990.9486,-486.6586 1008.213,-468 1028.9439,-445.595 1027.213,-432.5246 1027.213,-402 1027.213,-402 1027.213,-402 1027.213,-122 1027.213,-54.8139 955.6109,-75.1543 891.213,-56 839.4671,-40.6088 696.1746,-25.3228 606.1645,-16.8236"/>
<polygon fill="#191970" stroke="#191970" points="606.2863,-13.3197 596.0034,-15.8715 605.6332,-20.2892 606.2863,-13.3197"/>
</g>
<!-- Node28&#45;&gt;Node13 -->
<g id="edge49" class="edge">
<title>Node28&#45;&gt;Node13</title>
<path fill="none" stroke="#191970" d="M886.637,-504.4652C888.9475,-491.0952 894.3883,-466.3579 905.213,-448 916.5476,-428.7775 928.3586,-430.9063 940.213,-412 956.7938,-385.5557 964.213,-377.2125 964.213,-346 964.213,-346 964.213,-346 964.213,-290 964.213,-233.9436 954.5323,-219.4215 932.213,-168 928.0072,-158.3102 921.9379,-148.3032 916.4376,-140.1073"/>
<polygon fill="#191970" stroke="#191970" points="919.1907,-137.9364 910.5989,-131.7369 913.4494,-141.9411 919.1907,-137.9364"/>
</g>
<!-- Node28&#45;&gt;Node20 -->
<g id="edge50" class="edge">
<title>Node28&#45;&gt;Node20</title>
<path fill="none" stroke="#191970" d="M822.1467,-507.1072C682.6535,-491.0096 360.213,-448.744 360.213,-402 360.213,-402 360.213,-402 360.213,-346 360.213,-313.2342 353.4192,-275.6134 348.6855,-253.3778"/>
<polygon fill="#191970" stroke="#191970" points="352.0829,-252.5307 346.5054,-243.5228 345.2481,-254.0428 352.0829,-252.5307"/>
</g>
<!-- Node29 -->
<g id="node29" class="node">
<title>Node29</title>
<g id="a_node29"><a xlink:href="../../d1/d93/Error_8hpp.html" target="_top" xlink:title=" ">
<polygon fill="#ffffff" stroke="#000000" points="759.213,-448.5 759.213,-467.5 857.213,-467.5 857.213,-448.5 759.213,-448.5"/>
<text text-anchor="middle" x="808.213" y="-455.5" font-family="Helvetica,sans-Serif" font-size="10.00" fill="#000000">AH/Error/Error.hpp</text>
</a>
</g>
</g>
<!-- Node28&#45;&gt;Node29 -->
<g id="edge45" class="edge">
<title>Node28&#45;&gt;Node29</title>
<path fill="none" stroke="#191970" d="M871.8007,-504.2455C860.2073,-495.814 843.2383,-483.4729 829.7452,-473.6598"/>
<polygon fill="#191970" stroke="#191970" points="831.6177,-470.6938 821.4717,-467.6427 827.5005,-476.355 831.6177,-470.6938"/>
</g>
<!-- Node30 -->
<g id="node30" class="node">
<title>Node30</title>
<g id="a_node30"><a xlink:title=" ">
<polygon fill="#ffffff" stroke="#bfbfbf" points="913.713,-448.5 913.713,-467.5 998.713,-467.5 998.713,-448.5 913.713,-448.5"/>
<text text-anchor="middle" x="956.213" y="-455.5" font-family="Helvetica,sans-Serif" font-size="10.00" fill="#000000">AH/STL/iterator</text>
</a>
</g>
</g>
<!-- Node28&#45;&gt;Node30 -->
<g id="edge48" class="edge">
<title>Node28&#45;&gt;Node30</title>
<path fill="none" stroke="#191970" d="M897.5803,-504.2455C908.1684,-495.8943 923.6194,-483.7076 936.0024,-473.9408"/>
<polygon fill="#191970" stroke="#191970" points="938.3033,-476.5837 943.9875,-467.6427 933.9683,-471.0875 938.3033,-476.5837"/>
</g>
<!-- Node29&#45;&gt;Node5 -->
<g id="edge46" class="edge">
<title>Node29&#45;&gt;Node5</title>
<path fill="none" stroke="#191970" d="M831.526,-448.4813C865.9148,-432.7105 926.213,-397.6879 926.213,-346 926.213,-346 926.213,-346 926.213,-290 926.213,-209.1978 1012.0838,-176.3478 963.213,-112 920.5546,-55.832 718.6749,-27.9418 605.8971,-16.5338"/>
<polygon fill="#191970" stroke="#191970" points="606.2329,-13.0501 595.9362,-15.5456 605.5417,-20.0159 606.2329,-13.0501"/>
</g>
<!-- Node29&#45;&gt;Node6 -->
<g id="edge47" class="edge">
<title>Node29&#45;&gt;Node6</title>
<path fill="none" stroke="#191970" d="M766.8867,-448.4369C725.4703,-438.8529 661.6353,-424.0812 617.1195,-413.78"/>
<polygon fill="#191970" stroke="#191970" points="617.9005,-410.3683 607.3689,-411.5237 616.3224,-417.1881 617.9005,-410.3683"/>
</g>
<!-- Node31&#45;&gt;Node5 -->
<g id="edge52" class="edge">
<title>Node31&#45;&gt;Node5</title>
<path fill="none" stroke="#191970" d="M779.5733,-572.7068C614.6467,-561.545 170.213,-506.2127 170.213,-234 170.213,-234 170.213,-234 170.213,-122 170.213,-63.3367 347.1122,-31.844 452.5564,-18.2829"/>
<polygon fill="#191970" stroke="#191970" points="453.0453,-21.7491 462.5292,-17.0262 452.1701,-14.804 453.0453,-21.7491"/>
</g>
<!-- Node31&#45;&gt;Node8 -->
<g id="edge54" class="edge">
<title>Node31&#45;&gt;Node8</title>
<path fill="none" stroke="#191970" d="M779.5222,-563.5574C661.8691,-539.1034 409.6102,-479.8791 356.213,-412 314.5536,-359.0421 275.2138,-168.3125 312.213,-112 322.4867,-96.3636 339.5584,-85.9463 356.6576,-79.0481"/>
<polygon fill="#191970" stroke="#191970" points="357.9411,-82.3054 366.117,-75.567 355.5235,-75.7361 357.9411,-82.3054"/>
</g>
<!-- Node31&#45;&gt;Node21 -->
<g id="edge55" class="edge">
<title>Node31&#45;&gt;Node21</title>
<path fill="none" stroke="#191970" d="M900.8049,-569.772C967.4465,-559.7462 1065.213,-532.3652 1065.213,-458 1065.213,-458 1065.213,-458 1065.213,-346 1065.213,-313.2739 1071.5823,-275.641 1076.0201,-253.3923"/>
<polygon fill="#191970" stroke="#191970" points="1079.4616,-254.0329 1078.0639,-243.5307 1072.6072,-252.6123 1079.4616,-254.0329"/>
</g>
<!-- Node31&#45;&gt;Node28 -->
<g id="edge53" class="edge">
<title>Node31&#45;&gt;Node28</title>
<path fill="none" stroke="#191970" d="M851.3366,-560.2977C857.5831,-551.7609 865.417,-541.0545 871.9777,-532.0883"/>
<polygon fill="#191970" stroke="#191970" points="874.9274,-533.984 878.008,-523.8469 869.2782,-529.8505 874.9274,-533.984"/>
</g>
</g>
</svg>
