<?xml version="1.0" encoding="UTF-8" standalone="no"?>
<!DOCTYPE svg PUBLIC "-//W3C//DTD SVG 1.1//EN"
 "http://www.w3.org/Graphics/SVG/1.1/DTD/svg11.dtd">
<!-- Generated by graphviz version 2.43.0 (0)
 -->
<!-- Title: IncrementDecrementSelector&lt; N &gt; Pages: 1 -->
<svg width="465pt" height="1243pt"
 viewBox="0.00 0.00 464.50 1243.00" xmlns="http://www.w3.org/2000/svg" xmlns:xlink="http://www.w3.org/1999/xlink">
<g id="graph0" class="graph" transform="scale(1 1) rotate(0) translate(4 1239)">
<title>IncrementDecrementSelector&lt; N &gt;</title>
<polygon fill="white" stroke="transparent" points="-4,4 -4,-1239 460.5,-1239 460.5,4 -4,4"/>
<!-- Node1 -->
<g id="node1" class="node">
<title>Node1</title>
<g id="a_node1"><a xlink:title="Selector with two buttons (one to increment, one to decrement).">
<polygon fill="#bfbfbf" stroke="black" points="179.5,-0.5 179.5,-57.5 369.5,-57.5 369.5,-0.5 179.5,-0.5"/>
<text text-anchor="middle" x="274.5" y="-45.5" font-family="Helvetica,sans-Serif" font-size="10.00">IncrementDecrementSelector&lt; N &gt;</text>
<polyline fill="none" stroke="black" points="179.5,-38.5 369.5,-38.5 "/>
<text text-anchor="middle" x="274.5" y="-26.5" font-family="Helvetica,sans-Serif" font-size="10.00"> </text>
<polyline fill="none" stroke="black" points="179.5,-19.5 369.5,-19.5 "/>
<text text-anchor="start" x="187.5" y="-7.5" font-family="Helvetica,sans-Serif" font-size="10.00">+ IncrementDecrementSelector()</text>
</a>
</g>
</g>
<!-- Node2 -->
<g id="node2" class="node">
<title>Node2</title>
<g id="a_node2"><a xlink:href="../../d3/d78/classGenericIncrementDecrementSelector.html" target="_top" xlink:title=" ">
<polygon fill="white" stroke="black" points="190,-95.5 190,-218.5 359,-218.5 359,-95.5 190,-95.5"/>
<text text-anchor="start" x="198" y="-206.5" font-family="Helvetica,sans-Serif" font-size="10.00">GenericIncrementDecrement</text>
<text text-anchor="middle" x="274.5" y="-195.5" font-family="Helvetica,sans-Serif" font-size="10.00">Selector&lt; N, Callback &gt;</text>
<polyline fill="none" stroke="black" points="190,-188.5 359,-188.5 "/>
<text text-anchor="start" x="198" y="-176.5" font-family="Helvetica,sans-Serif" font-size="10.00">&#45; wrap</text>
<polyline fill="none" stroke="black" points="190,-169.5 359,-169.5 "/>
<text text-anchor="start" x="198" y="-157.5" font-family="Helvetica,sans-Serif" font-size="10.00">+ GenericIncrementDecrement</text>
<text text-anchor="start" x="198" y="-146.5" font-family="Helvetica,sans-Serif" font-size="10.00">Selector()</text>
<text text-anchor="start" x="198" y="-135.5" font-family="Helvetica,sans-Serif" font-size="10.00">+ begin()</text>
<text text-anchor="start" x="198" y="-124.5" font-family="Helvetica,sans-Serif" font-size="10.00">+ update()</text>
<text text-anchor="start" x="198" y="-113.5" font-family="Helvetica,sans-Serif" font-size="10.00">+ invert()</text>
<text text-anchor="start" x="198" y="-102.5" font-family="Helvetica,sans-Serif" font-size="10.00">+ getButtonsState()</text>
</a>
</g>
</g>
<!-- Node2&#45;&gt;Node1 -->
<g id="edge1" class="edge">
<title>Node2&#45;&gt;Node1</title>
<path fill="none" stroke="midnightblue" d="M274.5,-85.01C274.5,-75.26 274.5,-65.78 274.5,-57.51"/>
<polygon fill="none" stroke="midnightblue" points="271,-85.21 274.5,-95.21 278,-85.21 271,-85.21"/>
</g>
<!-- Node3 -->
<g id="node3" class="node">
<title>Node3</title>
<g id="a_node3"><a xlink:href="../../d0/d04/classGenericSelector.html" target="_top" xlink:title=" ">
<polygon fill="white" stroke="black" points="114.5,-266.5 114.5,-411.5 258.5,-411.5 258.5,-266.5 114.5,-266.5"/>
<text text-anchor="start" x="122.5" y="-399.5" font-family="Helvetica,sans-Serif" font-size="10.00">GenericSelector&lt; N,</text>
<text text-anchor="middle" x="186.5" y="-388.5" font-family="Helvetica,sans-Serif" font-size="10.00"> EmptySelectorCallback &gt;</text>
<polyline fill="none" stroke="black" points="114.5,-381.5 258.5,-381.5 "/>
<text text-anchor="start" x="122.5" y="-369.5" font-family="Helvetica,sans-Serif" font-size="10.00">+ callback</text>
<text text-anchor="start" x="122.5" y="-358.5" font-family="Helvetica,sans-Serif" font-size="10.00">&#45; selectable</text>
<polyline fill="none" stroke="black" points="114.5,-351.5 258.5,-351.5 "/>
<text text-anchor="start" x="122.5" y="-339.5" font-family="Helvetica,sans-Serif" font-size="10.00">+ GenericSelector()</text>
<text text-anchor="start" x="122.5" y="-328.5" font-family="Helvetica,sans-Serif" font-size="10.00">+ begin()</text>
<text text-anchor="start" x="122.5" y="-317.5" font-family="Helvetica,sans-Serif" font-size="10.00">+ update()</text>
<text text-anchor="start" x="122.5" y="-306.5" font-family="Helvetica,sans-Serif" font-size="10.00">+ reset()</text>
<text text-anchor="start" x="122.5" y="-295.5" font-family="Helvetica,sans-Serif" font-size="10.00">+ set()</text>
<text text-anchor="start" x="122.5" y="-284.5" font-family="Helvetica,sans-Serif" font-size="10.00">+ increment()</text>
<text text-anchor="start" x="122.5" y="-273.5" font-family="Helvetica,sans-Serif" font-size="10.00">+ decrement()</text>
</a>
</g>
</g>
<!-- Node3&#45;&gt;Node2 -->
<g id="edge2" class="edge">
<title>Node3&#45;&gt;Node2</title>
<path fill="none" stroke="midnightblue" d="M226.09,-257.02C232.39,-244.13 238.81,-231 244.83,-218.69"/>
<polygon fill="none" stroke="midnightblue" points="222.78,-255.82 221.53,-266.34 229.07,-258.9 222.78,-255.82"/>
</g>
<!-- Node4 -->
<g id="node4" class="node">
<title>Node4</title>
<g id="a_node4"><a xlink:href="../../dc/d77/classSelectorBase.html" target="_top" xlink:title="Base class for all Selectors exposing the get method, so it can be used by display elements etc,...">
<polygon fill="white" stroke="black" points="0,-553 0,-621 99,-621 99,-553 0,-553"/>
<text text-anchor="middle" x="49.5" y="-609" font-family="Helvetica,sans-Serif" font-size="10.00">SelectorBase</text>
<polyline fill="none" stroke="black" points="0,-602 99,-602 "/>
<text text-anchor="start" x="8" y="-590" font-family="Helvetica,sans-Serif" font-size="10.00"># setting</text>
<polyline fill="none" stroke="black" points="0,-583 99,-583 "/>
<text text-anchor="start" x="8" y="-571" font-family="Helvetica,sans-Serif" font-size="10.00">+ get()</text>
<text text-anchor="start" x="8" y="-560" font-family="Helvetica,sans-Serif" font-size="10.00"># SelectorBase()</text>
</a>
</g>
</g>
<!-- Node4&#45;&gt;Node3 -->
<g id="edge3" class="edge">
<title>Node4&#45;&gt;Node3</title>
<path fill="none" stroke="midnightblue" d="M69.6,-543.72C80.4,-521.54 94.21,-494.05 107.5,-470 118.1,-450.81 130.13,-430.4 141.55,-411.58"/>
<polygon fill="none" stroke="midnightblue" points="66.38,-542.35 65.16,-552.88 72.67,-545.4 66.38,-542.35"/>
</g>
<!-- Node5 -->
<g id="node5" class="node">
<title>Node5</title>
<g id="a_node5"><a xlink:href="../../d1/d55/classAH_1_1Updatable.html" target="_top" xlink:title="A super class for object that have to be updated regularly.">
<polygon fill="white" stroke="black" points="117,-542 117,-632 274,-632 274,-542 117,-542"/>
<text text-anchor="middle" x="195.5" y="-620" font-family="Helvetica,sans-Serif" font-size="10.00">Updatable&lt; T, ThreadSafe &gt;</text>
<polyline fill="none" stroke="black" points="117,-613 274,-613 "/>
<text text-anchor="middle" x="195.5" y="-601" font-family="Helvetica,sans-Serif" font-size="10.00"> </text>
<polyline fill="none" stroke="black" points="117,-594 274,-594 "/>
<text text-anchor="start" x="125" y="-582" font-family="Helvetica,sans-Serif" font-size="10.00">* begin()</text>
<text text-anchor="start" x="125" y="-571" font-family="Helvetica,sans-Serif" font-size="10.00">* update()</text>
<text text-anchor="start" x="125" y="-560" font-family="Helvetica,sans-Serif" font-size="10.00">* beginAll()</text>
<text text-anchor="start" x="125" y="-549" font-family="Helvetica,sans-Serif" font-size="10.00">* updateAll()</text>
</a>
</g>
</g>
<!-- Node5&#45;&gt;Node3 -->
<g id="edge4" class="edge">
<title>Node5&#45;&gt;Node3</title>
<path fill="none" stroke="midnightblue" d="M193.51,-531.65C192.22,-496.42 190.53,-450.14 189.13,-411.88"/>
<polygon fill="none" stroke="midnightblue" points="190.02,-531.87 193.88,-541.74 197.01,-531.61 190.02,-531.87"/>
</g>
<!-- Node6 -->
<g id="node6" class="node">
<title>Node6</title>
<g id="a_node6"><a xlink:href="../../d8/d1a/classAH_1_1UpdatableCRTP.html" target="_top" xlink:title=" ">
<polygon fill="white" stroke="black" points="119,-741.5 119,-1073.5 272,-1073.5 272,-741.5 119,-741.5"/>
<text text-anchor="start" x="127" y="-1061.5" font-family="Helvetica,sans-Serif" font-size="10.00">UpdatableCRTP&lt; Updatable</text>
<text text-anchor="start" x="127" y="-1050.5" font-family="Helvetica,sans-Serif" font-size="10.00">&lt; NormalUpdatable, false</text>
<text text-anchor="middle" x="195.5" y="-1039.5" font-family="Helvetica,sans-Serif" font-size="10.00"> &gt;, false &gt;</text>
<polyline fill="none" stroke="black" points="119,-1032.5 272,-1032.5 "/>
<text text-anchor="start" x="127" y="-1020.5" font-family="Helvetica,sans-Serif" font-size="10.00"># updatables</text>
<text text-anchor="start" x="127" y="-1009.5" font-family="Helvetica,sans-Serif" font-size="10.00"># mutex</text>
<polyline fill="none" stroke="black" points="119,-1002.5 272,-1002.5 "/>
<text text-anchor="start" x="127" y="-990.5" font-family="Helvetica,sans-Serif" font-size="10.00">+ ~UpdatableCRTP()</text>
<text text-anchor="start" x="127" y="-979.5" font-family="Helvetica,sans-Serif" font-size="10.00">+ getMutex()</text>
<text text-anchor="start" x="127" y="-968.5" font-family="Helvetica,sans-Serif" font-size="10.00"># UpdatableCRTP()</text>
<text text-anchor="start" x="127" y="-957.5" font-family="Helvetica,sans-Serif" font-size="10.00"># UpdatableCRTP()</text>
<text text-anchor="start" x="127" y="-946.5" font-family="Helvetica,sans-Serif" font-size="10.00"># UpdatableCRTP()</text>
<text text-anchor="start" x="127" y="-935.5" font-family="Helvetica,sans-Serif" font-size="10.00"># operator=()</text>
<text text-anchor="start" x="127" y="-924.5" font-family="Helvetica,sans-Serif" font-size="10.00"># operator=()</text>
<text text-anchor="start" x="127" y="-913.5" font-family="Helvetica,sans-Serif" font-size="10.00">* method</text>
<text text-anchor="start" x="127" y="-902.5" font-family="Helvetica,sans-Serif" font-size="10.00">* args</text>
<text text-anchor="start" x="127" y="-891.5" font-family="Helvetica,sans-Serif" font-size="10.00">* enable()</text>
<text text-anchor="start" x="127" y="-880.5" font-family="Helvetica,sans-Serif" font-size="10.00">* enable()</text>
<text text-anchor="start" x="127" y="-869.5" font-family="Helvetica,sans-Serif" font-size="10.00">* disable()</text>
<text text-anchor="start" x="127" y="-858.5" font-family="Helvetica,sans-Serif" font-size="10.00">* disable()</text>
<text text-anchor="start" x="127" y="-847.5" font-family="Helvetica,sans-Serif" font-size="10.00">* isEnabled()</text>
<text text-anchor="start" x="127" y="-836.5" font-family="Helvetica,sans-Serif" font-size="10.00">* isEnabled()</text>
<text text-anchor="start" x="127" y="-825.5" font-family="Helvetica,sans-Serif" font-size="10.00">* moveDown()</text>
<text text-anchor="start" x="127" y="-814.5" font-family="Helvetica,sans-Serif" font-size="10.00">* moveDown()</text>
<text text-anchor="start" x="127" y="-803.5" font-family="Helvetica,sans-Serif" font-size="10.00">* enable()</text>
<text text-anchor="start" x="127" y="-792.5" font-family="Helvetica,sans-Serif" font-size="10.00">* enable()</text>
<text text-anchor="start" x="127" y="-781.5" font-family="Helvetica,sans-Serif" font-size="10.00">* enable()</text>
<text text-anchor="start" x="127" y="-770.5" font-family="Helvetica,sans-Serif" font-size="10.00">* disable()</text>
<text text-anchor="start" x="127" y="-759.5" font-family="Helvetica,sans-Serif" font-size="10.00">* disable()</text>
<text text-anchor="start" x="127" y="-748.5" font-family="Helvetica,sans-Serif" font-size="10.00">* disable()</text>
</a>
</g>
</g>
<!-- Node6&#45;&gt;Node5 -->
<g id="edge5" class="edge">
<title>Node6&#45;&gt;Node5</title>
<path fill="none" stroke="midnightblue" d="M195.5,-730.82C195.5,-694.14 195.5,-658.64 195.5,-632.2"/>
<polygon fill="none" stroke="midnightblue" points="192,-731.19 195.5,-741.19 199,-731.19 192,-731.19"/>
</g>
<!-- Node7 -->
<g id="node7" class="node">
<title>Node7</title>
<g id="a_node7"><a xlink:href="../../d4/d23/classDoublyLinkable.html" target="_top" xlink:title="A class that can be inherited from to allow inserting into a DoublyLinkedList.">
<polygon fill="white" stroke="black" points="125.5,-1111.5 125.5,-1234.5 265.5,-1234.5 265.5,-1111.5 125.5,-1111.5"/>
<text text-anchor="middle" x="195.5" y="-1222.5" font-family="Helvetica,sans-Serif" font-size="10.00">DoublyLinkable&lt; Node &gt;</text>
<polyline fill="none" stroke="black" points="125.5,-1215.5 265.5,-1215.5 "/>
<text text-anchor="start" x="133.5" y="-1203.5" font-family="Helvetica,sans-Serif" font-size="10.00"># next</text>
<text text-anchor="start" x="133.5" y="-1192.5" font-family="Helvetica,sans-Serif" font-size="10.00"># previous</text>
<polyline fill="none" stroke="black" points="125.5,-1185.5 265.5,-1185.5 "/>
<text text-anchor="start" x="133.5" y="-1173.5" font-family="Helvetica,sans-Serif" font-size="10.00"># ~DoublyLinkable()</text>
<text text-anchor="start" x="133.5" y="-1162.5" font-family="Helvetica,sans-Serif" font-size="10.00"># DoublyLinkable()</text>
<text text-anchor="start" x="133.5" y="-1151.5" font-family="Helvetica,sans-Serif" font-size="10.00"># DoublyLinkable()</text>
<text text-anchor="start" x="133.5" y="-1140.5" font-family="Helvetica,sans-Serif" font-size="10.00"># operator=()</text>
<text text-anchor="start" x="133.5" y="-1129.5" font-family="Helvetica,sans-Serif" font-size="10.00"># DoublyLinkable()</text>
<text text-anchor="start" x="133.5" y="-1118.5" font-family="Helvetica,sans-Serif" font-size="10.00"># operator=()</text>
</a>
</g>
</g>
<!-- Node7&#45;&gt;Node6 -->
<g id="edge6" class="edge">
<title>Node7&#45;&gt;Node6</title>
<path fill="none" stroke="midnightblue" d="M195.5,-1101.17C195.5,-1092.42 195.5,-1083.21 195.5,-1073.76"/>
<polygon fill="none" stroke="midnightblue" points="192,-1101.22 195.5,-1111.22 199,-1101.22 192,-1101.22"/>
</g>
<!-- Node8 -->
<g id="node8" class="node">
<title>Node8</title>
<g id="a_node8"><a xlink:href="../../df/dc6/classAH_1_1IncrementDecrementButtons.html" target="_top" xlink:title="A class for buttons that increment and decrement some counter or setting.">
<polygon fill="white" stroke="black" points="276.5,-272 276.5,-406 452.5,-406 452.5,-272 276.5,-272"/>
<text text-anchor="middle" x="364.5" y="-394" font-family="Helvetica,sans-Serif" font-size="10.00">IncrementDecrementButtons</text>
<polyline fill="none" stroke="black" points="276.5,-387 452.5,-387 "/>
<text text-anchor="start" x="284.5" y="-375" font-family="Helvetica,sans-Serif" font-size="10.00">&#45; longPressState</text>
<text text-anchor="start" x="284.5" y="-364" font-family="Helvetica,sans-Serif" font-size="10.00">&#45; longPressRepeat</text>
<text text-anchor="start" x="284.5" y="-353" font-family="Helvetica,sans-Serif" font-size="10.00">&#45; state</text>
<polyline fill="none" stroke="black" points="276.5,-346 452.5,-346 "/>
<text text-anchor="start" x="284.5" y="-334" font-family="Helvetica,sans-Serif" font-size="10.00">+ IncrementDecrementButtons()</text>
<text text-anchor="start" x="284.5" y="-323" font-family="Helvetica,sans-Serif" font-size="10.00">+ begin()</text>
<text text-anchor="start" x="284.5" y="-312" font-family="Helvetica,sans-Serif" font-size="10.00">+ update()</text>
<text text-anchor="start" x="284.5" y="-301" font-family="Helvetica,sans-Serif" font-size="10.00">+ getState()</text>
<text text-anchor="start" x="284.5" y="-290" font-family="Helvetica,sans-Serif" font-size="10.00">+ invert()</text>
<text text-anchor="start" x="284.5" y="-279" font-family="Helvetica,sans-Serif" font-size="10.00"># updateImplementation()</text>
</a>
</g>
</g>
<!-- Node8&#45;&gt;Node2 -->
<g id="edge7" class="edge">
<title>Node8&#45;&gt;Node2</title>
<path fill="none" stroke="#404040" d="M331.5,-272C324.61,-258.22 317.32,-243.64 310.33,-229.67"/>
<polygon fill="none" stroke="#404040" points="310.18,-229.36 303.92,-225.78 304.81,-218.62 311.07,-222.2 310.18,-229.36"/>
<text text-anchor="middle" x="341.5" y="-240" font-family="Helvetica,sans-Serif" font-size="10.00"> &#45;buttons</text>
</g>
<!-- Node9 -->
<g id="node9" class="node">
<title>Node9</title>
<g id="a_node9"><a xlink:href="../../de/d0d/classAH_1_1Button.html" target="_top" xlink:title="A class for reading and debouncing buttons and switches.">
<polygon fill="white" stroke="black" points="295.5,-470.5 295.5,-703.5 433.5,-703.5 433.5,-470.5 295.5,-470.5"/>
<text text-anchor="middle" x="364.5" y="-691.5" font-family="Helvetica,sans-Serif" font-size="10.00">Button</text>
<polyline fill="none" stroke="black" points="295.5,-684.5 433.5,-684.5 "/>
<text text-anchor="start" x="303.5" y="-672.5" font-family="Helvetica,sans-Serif" font-size="10.00">&#45; pin</text>
<text text-anchor="start" x="303.5" y="-661.5" font-family="Helvetica,sans-Serif" font-size="10.00">&#45; prevInput</text>
<text text-anchor="start" x="303.5" y="-650.5" font-family="Helvetica,sans-Serif" font-size="10.00">&#45; debouncedState</text>
<text text-anchor="start" x="303.5" y="-639.5" font-family="Helvetica,sans-Serif" font-size="10.00">&#45; prevBounceTime</text>
<text text-anchor="start" x="303.5" y="-628.5" font-family="Helvetica,sans-Serif" font-size="10.00">&#45; invertState</text>
<text text-anchor="start" x="303.5" y="-617.5" font-family="Helvetica,sans-Serif" font-size="10.00">&#45; debounceTime</text>
<polyline fill="none" stroke="black" points="295.5,-610.5 433.5,-610.5 "/>
<text text-anchor="start" x="303.5" y="-598.5" font-family="Helvetica,sans-Serif" font-size="10.00">+ Button()</text>
<text text-anchor="start" x="303.5" y="-587.5" font-family="Helvetica,sans-Serif" font-size="10.00">+ Button()</text>
<text text-anchor="start" x="303.5" y="-576.5" font-family="Helvetica,sans-Serif" font-size="10.00">+ begin()</text>
<text text-anchor="start" x="303.5" y="-565.5" font-family="Helvetica,sans-Serif" font-size="10.00">+ invert()</text>
<text text-anchor="start" x="303.5" y="-554.5" font-family="Helvetica,sans-Serif" font-size="10.00">+ update()</text>
<text text-anchor="start" x="303.5" y="-543.5" font-family="Helvetica,sans-Serif" font-size="10.00">+ getState()</text>
<text text-anchor="start" x="303.5" y="-532.5" font-family="Helvetica,sans-Serif" font-size="10.00">+ previousBounceTime()</text>
<text text-anchor="start" x="303.5" y="-521.5" font-family="Helvetica,sans-Serif" font-size="10.00">+ stableTime()</text>
<text text-anchor="start" x="303.5" y="-510.5" font-family="Helvetica,sans-Serif" font-size="10.00">+ stableTime()</text>
<text text-anchor="start" x="303.5" y="-499.5" font-family="Helvetica,sans-Serif" font-size="10.00">+ getName()</text>
<text text-anchor="start" x="303.5" y="-488.5" font-family="Helvetica,sans-Serif" font-size="10.00">+ setDebounceTime()</text>
<text text-anchor="start" x="303.5" y="-477.5" font-family="Helvetica,sans-Serif" font-size="10.00">+ getDebounceTime()</text>
</a>
</g>
</g>
<!-- Node9&#45;&gt;Node8 -->
<g id="edge8" class="edge">
<title>Node9&#45;&gt;Node8</title>
<path fill="none" stroke="#404040" d="M364.5,-470.2C364.5,-452.73 364.5,-435.05 364.5,-418.6"/>
<polygon fill="none" stroke="#404040" points="364.5,-418.29 360.5,-412.29 364.5,-406.29 368.5,-412.29 364.5,-418.29"/>
<text text-anchor="middle" x="410.5" y="-444" font-family="Helvetica,sans-Serif" font-size="10.00"> &#45;decrementButton</text>
<text text-anchor="middle" x="410.5" y="-433" font-family="Helvetica,sans-Serif" font-size="10.00">&#45;incrementButton</text>
</g>
</g>
</svg>
