<?xml version="1.0" encoding="UTF-8" standalone="no"?>
<!DOCTYPE svg PUBLIC "-//W3C//DTD SVG 1.1//EN"
 "http://www.w3.org/Graphics/SVG/1.1/DTD/svg11.dtd">
<!-- Generated by graphviz version 2.40.1 (20161225.0304)
 -->
<!-- Title: TimeDisplay Pages: 1 -->
<svg width="456pt" height="1115pt"
 viewBox="0.00 0.00 455.50 1115.00" xmlns="http://www.w3.org/2000/svg" xmlns:xlink="http://www.w3.org/1999/xlink">
<g id="graph0" class="graph" transform="scale(1 1) rotate(0) translate(4 1111)">
<title>TimeDisplay</title>
<polygon fill="#ffffff" stroke="transparent" points="-4,4 -4,-1111 451.5,-1111 451.5,4 -4,4"/>
<!-- Node1 -->
<g id="node1" class="node">
<title>Node1</title>
<g id="a_node1"><a xlink:title=" ">
<polygon fill="#bfbfbf" stroke="#000000" points="339,-.5 339,-101.5 425,-101.5 425,-.5 339,-.5"/>
<text text-anchor="middle" x="382" y="-89.5" font-family="Helvetica,sans-Serif" font-size="10.00" fill="#000000">TimeDisplay</text>
<polyline fill="none" stroke="#000000" points="339,-82.5 425,-82.5 "/>
<text text-anchor="middle" x="382" y="-70.5" font-family="Helvetica,sans-Serif" font-size="10.00" fill="#000000"> </text>
<polyline fill="none" stroke="#000000" points="339,-63.5 425,-63.5 "/>
<text text-anchor="start" x="347" y="-51.5" font-family="Helvetica,sans-Serif" font-size="10.00" fill="#000000">+ TimeDisplay()</text>
<text text-anchor="start" x="347" y="-40.5" font-family="Helvetica,sans-Serif" font-size="10.00" fill="#000000">+ print()</text>
<text text-anchor="start" x="347" y="-29.5" font-family="Helvetica,sans-Serif" font-size="10.00" fill="#000000">+ getBars()</text>
<text text-anchor="start" x="347" y="-18.5" font-family="Helvetica,sans-Serif" font-size="10.00" fill="#000000">+ getBeats()</text>
<text text-anchor="start" x="347" y="-7.5" font-family="Helvetica,sans-Serif" font-size="10.00" fill="#000000">+ getFrames()</text>
</a>
</g>
</g>
<!-- Node2 -->
<g id="node2" class="node">
<title>Node2</title>
<g id="a_node2"><a xlink:href="../../d5/d54/classMCU_1_1SevenSegmentDisplay.html" target="_top" xlink:title=" ">
<polygon fill="#ffffff" stroke="#000000" points="316.5,-189 316.5,-367 447.5,-367 447.5,-189 316.5,-189"/>
<text text-anchor="start" x="324.5" y="-355" font-family="Helvetica,sans-Serif" font-size="10.00" fill="#000000">SevenSegmentDisplay</text>
<text text-anchor="middle" x="382" y="-344" font-family="Helvetica,sans-Serif" font-size="10.00" fill="#000000">&lt; TimeDisplayLength &gt;</text>
<polyline fill="none" stroke="#000000" points="316.5,-337 447.5,-337 "/>
<text text-anchor="start" x="324.5" y="-325" font-family="Helvetica,sans-Serif" font-size="10.00" fill="#000000">&#45; text</text>
<polyline fill="none" stroke="#000000" points="316.5,-318 447.5,-318 "/>
<text text-anchor="start" x="324.5" y="-306" font-family="Helvetica,sans-Serif" font-size="10.00" fill="#000000">+ SevenSegmentDisplay()</text>
<text text-anchor="start" x="324.5" y="-295" font-family="Helvetica,sans-Serif" font-size="10.00" fill="#000000">+ fillWithSpaces()</text>
<text text-anchor="start" x="324.5" y="-284" font-family="Helvetica,sans-Serif" font-size="10.00" fill="#000000">+ reset()</text>
<text text-anchor="start" x="324.5" y="-273" font-family="Helvetica,sans-Serif" font-size="10.00" fill="#000000">+ getText()</text>
<text text-anchor="start" x="324.5" y="-262" font-family="Helvetica,sans-Serif" font-size="10.00" fill="#000000">+ getCharacterAt()</text>
<text text-anchor="start" x="324.5" y="-251" font-family="Helvetica,sans-Serif" font-size="10.00" fill="#000000">+ getDecimalPoints()</text>
<text text-anchor="start" x="324.5" y="-240" font-family="Helvetica,sans-Serif" font-size="10.00" fill="#000000">+ getDecimalPointAt()</text>
<text text-anchor="start" x="324.5" y="-229" font-family="Helvetica,sans-Serif" font-size="10.00" fill="#000000">+ printTo()</text>
<text text-anchor="start" x="324.5" y="-218" font-family="Helvetica,sans-Serif" font-size="10.00" fill="#000000">&#45; updateImpl()</text>
<text text-anchor="start" x="324.5" y="-207" font-family="Helvetica,sans-Serif" font-size="10.00" fill="#000000">&#45; match()</text>
<text text-anchor="start" x="324.5" y="-196" font-family="Helvetica,sans-Serif" font-size="10.00" fill="#000000">&#45; getRangeIndex()</text>
</a>
</g>
</g>
<!-- Node2&#45;&gt;Node1 -->
<g id="edge1" class="edge">
<title>Node2&#45;&gt;Node1</title>
<path fill="none" stroke="#191970" d="M382,-178.7689C382,-152.0738 382,-124.3088 382,-101.5075"/>
<polygon fill="none" stroke="#191970" points="378.5001,-178.9351 382,-188.9351 385.5001,-178.9351 378.5001,-178.9351"/>
</g>
<!-- Node3 -->
<g id="node3" class="node">
<title>Node3</title>
<g id="a_node3"><a xlink:href="../../d3/d96/classMIDIInputElementCC.html" target="_top" xlink:title="Class for objects that listen for incoming MIDI Controller Change events.">
<polygon fill="#ffffff" stroke="#000000" points="115,-475.5 115,-598.5 247,-598.5 247,-475.5 115,-475.5"/>
<text text-anchor="middle" x="181" y="-586.5" font-family="Helvetica,sans-Serif" font-size="10.00" fill="#000000">MIDIInputElementCC</text>
<polyline fill="none" stroke="#000000" points="115,-579.5 247,-579.5 "/>
<text text-anchor="middle" x="181" y="-567.5" font-family="Helvetica,sans-Serif" font-size="10.00" fill="#000000"> </text>
<polyline fill="none" stroke="#000000" points="115,-560.5 247,-560.5 "/>
<text text-anchor="start" x="123" y="-548.5" font-family="Helvetica,sans-Serif" font-size="10.00" fill="#000000">+ MIDIInputElementCC()</text>
<text text-anchor="start" x="123" y="-537.5" font-family="Helvetica,sans-Serif" font-size="10.00" fill="#000000">+ ~MIDIInputElementCC()</text>
<text text-anchor="start" x="123" y="-526.5" font-family="Helvetica,sans-Serif" font-size="10.00" fill="#000000">+ beginAll()</text>
<text text-anchor="start" x="123" y="-515.5" font-family="Helvetica,sans-Serif" font-size="10.00" fill="#000000">+ updateAll()</text>
<text text-anchor="start" x="123" y="-504.5" font-family="Helvetica,sans-Serif" font-size="10.00" fill="#000000">+ resetAll()</text>
<text text-anchor="start" x="123" y="-493.5" font-family="Helvetica,sans-Serif" font-size="10.00" fill="#000000">+ updateAllWith()</text>
<text text-anchor="start" x="123" y="-482.5" font-family="Helvetica,sans-Serif" font-size="10.00" fill="#000000">&#45; moveDown()</text>
</a>
</g>
</g>
<!-- Node3&#45;&gt;Node2 -->
<g id="edge2" class="edge">
<title>Node3&#45;&gt;Node2</title>
<path fill="none" stroke="#191970" d="M254.4328,-474.5066C272.7961,-456.9544 291.6215,-437.1335 307,-417 318.6512,-401.7463 329.5383,-384.4416 339.2079,-367.3482"/>
<polygon fill="none" stroke="#191970" points="252.0271,-471.9645 247.1536,-481.372 256.8299,-477.0569 252.0271,-471.9645"/>
</g>
<!-- Node6 -->
<g id="node6" class="node">
<title>Node6</title>
<g id="a_node6"><a xlink:href="../../d4/d23/classDoublyLinkable.html" target="_top" xlink:title=" ">
<polygon fill="#ffffff" stroke="#000000" points="0,-244 0,-312 136,-312 136,-244 0,-244"/>
<text text-anchor="start" x="8" y="-300" font-family="Helvetica,sans-Serif" font-size="10.00" fill="#000000">DoublyLinkable&lt; MIDIInput</text>
<text text-anchor="middle" x="68" y="-289" font-family="Helvetica,sans-Serif" font-size="10.00" fill="#000000">ElementCC &gt;</text>
<polyline fill="none" stroke="#000000" points="0,-282 136,-282 "/>
<text text-anchor="middle" x="68" y="-270" font-family="Helvetica,sans-Serif" font-size="10.00" fill="#000000"> </text>
<polyline fill="none" stroke="#000000" points="0,-263 136,-263 "/>
<text text-anchor="start" x="8" y="-251" font-family="Helvetica,sans-Serif" font-size="10.00" fill="#000000"># ~DoublyLinkable()</text>
</a>
</g>
</g>
<!-- Node3&#45;&gt;Node6 -->
<g id="edge6" class="edge">
<title>Node3&#45;&gt;Node6</title>
<path fill="none" stroke="#404040" d="M114.7097,-488.5494C105.4543,-479.0626 97.0539,-468.4608 91,-457 69.2403,-415.8061 64.9985,-362.078 65.2658,-324.2731"/>
<polygon fill="none" stroke="#404040" points="65.2692,-324.1015 61.3906,-318.0222 65.5105,-312.1039 69.389,-318.1831 65.2692,-324.1015"/>
<text text-anchor="middle" x="112.5" y="-449" font-family="Helvetica,sans-Serif" font-size="10.00" fill="#000000"> #next</text>
<text text-anchor="middle" x="112.5" y="-438" font-family="Helvetica,sans-Serif" font-size="10.00" fill="#000000">#previous</text>
</g>
<!-- Node7 -->
<g id="node7" class="node">
<title>Node7</title>
<g id="a_node7"><a xlink:href="../../dd/d16/classDoublyLinkedList.html" target="_top" xlink:title=" ">
<polygon fill="#ffffff" stroke="#000000" points="154,-139.5 154,-416.5 298,-416.5 298,-139.5 154,-139.5"/>
<text text-anchor="start" x="162" y="-404.5" font-family="Helvetica,sans-Serif" font-size="10.00" fill="#000000">DoublyLinkedList&lt; MIDIInput</text>
<text text-anchor="middle" x="226" y="-393.5" font-family="Helvetica,sans-Serif" font-size="10.00" fill="#000000">ElementCC &gt;</text>
<polyline fill="none" stroke="#000000" points="154,-386.5 298,-386.5 "/>
<text text-anchor="middle" x="226" y="-374.5" font-family="Helvetica,sans-Serif" font-size="10.00" fill="#000000"> </text>
<polyline fill="none" stroke="#000000" points="154,-367.5 298,-367.5 "/>
<text text-anchor="start" x="162" y="-355.5" font-family="Helvetica,sans-Serif" font-size="10.00" fill="#000000">+ append()</text>
<text text-anchor="start" x="162" y="-344.5" font-family="Helvetica,sans-Serif" font-size="10.00" fill="#000000">+ append()</text>
<text text-anchor="start" x="162" y="-333.5" font-family="Helvetica,sans-Serif" font-size="10.00" fill="#000000">+ insertBefore()</text>
<text text-anchor="start" x="162" y="-322.5" font-family="Helvetica,sans-Serif" font-size="10.00" fill="#000000">+ insertBefore()</text>
<text text-anchor="start" x="162" y="-311.5" font-family="Helvetica,sans-Serif" font-size="10.00" fill="#000000">+ insertSorted()</text>
<text text-anchor="start" x="162" y="-300.5" font-family="Helvetica,sans-Serif" font-size="10.00" fill="#000000">+ insertSorted()</text>
<text text-anchor="start" x="162" y="-289.5" font-family="Helvetica,sans-Serif" font-size="10.00" fill="#000000">+ remove()</text>
<text text-anchor="start" x="162" y="-278.5" font-family="Helvetica,sans-Serif" font-size="10.00" fill="#000000">+ remove()</text>
<text text-anchor="start" x="162" y="-267.5" font-family="Helvetica,sans-Serif" font-size="10.00" fill="#000000">+ moveDown()</text>
<text text-anchor="start" x="162" y="-256.5" font-family="Helvetica,sans-Serif" font-size="10.00" fill="#000000">+ couldContain()</text>
<text text-anchor="start" x="162" y="-245.5" font-family="Helvetica,sans-Serif" font-size="10.00" fill="#000000">+ begin()</text>
<text text-anchor="start" x="162" y="-234.5" font-family="Helvetica,sans-Serif" font-size="10.00" fill="#000000">+ begin()</text>
<text text-anchor="start" x="162" y="-223.5" font-family="Helvetica,sans-Serif" font-size="10.00" fill="#000000">+ end()</text>
<text text-anchor="start" x="162" y="-212.5" font-family="Helvetica,sans-Serif" font-size="10.00" fill="#000000">+ end()</text>
<text text-anchor="start" x="162" y="-201.5" font-family="Helvetica,sans-Serif" font-size="10.00" fill="#000000">+ rbegin()</text>
<text text-anchor="start" x="162" y="-190.5" font-family="Helvetica,sans-Serif" font-size="10.00" fill="#000000">+ rbegin()</text>
<text text-anchor="start" x="162" y="-179.5" font-family="Helvetica,sans-Serif" font-size="10.00" fill="#000000">+ rend()</text>
<text text-anchor="start" x="162" y="-168.5" font-family="Helvetica,sans-Serif" font-size="10.00" fill="#000000">+ rend()</text>
<text text-anchor="start" x="162" y="-157.5" font-family="Helvetica,sans-Serif" font-size="10.00" fill="#000000">+ getFirst()</text>
<text text-anchor="start" x="162" y="-146.5" font-family="Helvetica,sans-Serif" font-size="10.00" fill="#000000">+ getLast()</text>
</a>
</g>
</g>
<!-- Node3&#45;&gt;Node7 -->
<g id="edge8" class="edge">
<title>Node3&#45;&gt;Node7</title>
<path fill="none" stroke="#404040" d="M178.4581,-475.4228C178.271,-469.2005 178.112,-462.9754 178,-457 177.8168,-447.2239 176.5547,-444.6704 178,-435 178.3255,-432.8219 178.6751,-430.6323 179.047,-428.4339"/>
<polygon fill="none" stroke="#404040" points="179.052,-428.4066 176.2124,-421.7781 181.2389,-416.6075 184.0785,-423.236 179.052,-428.4066"/>
<text text-anchor="middle" x="189" y="-449" font-family="Helvetica,sans-Serif" font-size="10.00" fill="#000000"> &#45;last</text>
<text text-anchor="middle" x="189" y="-438" font-family="Helvetica,sans-Serif" font-size="10.00" fill="#000000">&#45;first</text>
</g>
<!-- Node4 -->
<g id="node4" class="node">
<title>Node4</title>
<g id="a_node4"><a xlink:href="../../d9/db1/classMIDIInputElement.html" target="_top" xlink:title="A class for objects that listen for incoming MIDI events.">
<polygon fill="#ffffff" stroke="#000000" points="122.5,-636.5 122.5,-792.5 239.5,-792.5 239.5,-636.5 122.5,-636.5"/>
<text text-anchor="middle" x="181" y="-780.5" font-family="Helvetica,sans-Serif" font-size="10.00" fill="#000000">MIDIInputElement</text>
<polyline fill="none" stroke="#000000" points="122.5,-773.5 239.5,-773.5 "/>
<text text-anchor="middle" x="181" y="-761.5" font-family="Helvetica,sans-Serif" font-size="10.00" fill="#000000"> </text>
<polyline fill="none" stroke="#000000" points="122.5,-754.5 239.5,-754.5 "/>
<text text-anchor="start" x="130.5" y="-742.5" font-family="Helvetica,sans-Serif" font-size="10.00" fill="#000000">+ ~MIDIInputElement()</text>
<text text-anchor="start" x="130.5" y="-731.5" font-family="Helvetica,sans-Serif" font-size="10.00" fill="#000000">+ begin()</text>
<text text-anchor="start" x="130.5" y="-720.5" font-family="Helvetica,sans-Serif" font-size="10.00" fill="#000000">+ reset()</text>
<text text-anchor="start" x="130.5" y="-709.5" font-family="Helvetica,sans-Serif" font-size="10.00" fill="#000000">+ update()</text>
<text text-anchor="start" x="130.5" y="-698.5" font-family="Helvetica,sans-Serif" font-size="10.00" fill="#000000">+ updateWith()</text>
<text text-anchor="start" x="130.5" y="-687.5" font-family="Helvetica,sans-Serif" font-size="10.00" fill="#000000"># MIDIInputElement()</text>
<text text-anchor="start" x="130.5" y="-676.5" font-family="Helvetica,sans-Serif" font-size="10.00" fill="#000000"># MIDIInputElement()</text>
<text text-anchor="start" x="130.5" y="-665.5" font-family="Helvetica,sans-Serif" font-size="10.00" fill="#000000">&#45; updateImpl()</text>
<text text-anchor="start" x="130.5" y="-654.5" font-family="Helvetica,sans-Serif" font-size="10.00" fill="#000000">&#45; getTarget()</text>
<text text-anchor="start" x="130.5" y="-643.5" font-family="Helvetica,sans-Serif" font-size="10.00" fill="#000000">&#45; match()</text>
</a>
</g>
</g>
<!-- Node4&#45;&gt;Node3 -->
<g id="edge3" class="edge">
<title>Node4&#45;&gt;Node3</title>
<path fill="none" stroke="#191970" d="M181,-626.2654C181,-616.9162 181,-607.5594 181,-598.61"/>
<polygon fill="none" stroke="#191970" points="177.5001,-626.3876 181,-636.3876 184.5001,-626.3876 177.5001,-626.3876"/>
</g>
<!-- Node5 -->
<g id="node5" class="node">
<title>Node5</title>
<g id="a_node5"><a xlink:href="../../d7/d0f/classMIDIAddress.html" target="_top" xlink:title="A type&#45;safe utility class for saving a MIDI address consisting of a 7&#45;bit address,...">
<polygon fill="#ffffff" stroke="#000000" points="116.5,-840.5 116.5,-1106.5 245.5,-1106.5 245.5,-840.5 116.5,-840.5"/>
<text text-anchor="middle" x="181" y="-1094.5" font-family="Helvetica,sans-Serif" font-size="10.00" fill="#000000">MIDIAddress</text>
<polyline fill="none" stroke="#000000" points="116.5,-1087.5 245.5,-1087.5 "/>
<text text-anchor="start" x="124.5" y="-1075.5" font-family="Helvetica,sans-Serif" font-size="10.00" fill="#000000">&#45; addresses</text>
<polyline fill="none" stroke="#000000" points="116.5,-1068.5 245.5,-1068.5 "/>
<text text-anchor="start" x="124.5" y="-1056.5" font-family="Helvetica,sans-Serif" font-size="10.00" fill="#000000">* MIDIAddress()</text>
<text text-anchor="start" x="124.5" y="-1045.5" font-family="Helvetica,sans-Serif" font-size="10.00" fill="#000000">* MIDIAddress()</text>
<text text-anchor="start" x="124.5" y="-1034.5" font-family="Helvetica,sans-Serif" font-size="10.00" fill="#000000">* MIDIAddress()</text>
<text text-anchor="start" x="124.5" y="-1023.5" font-family="Helvetica,sans-Serif" font-size="10.00" fill="#000000">* MIDIAddress()</text>
<text text-anchor="start" x="124.5" y="-1012.5" font-family="Helvetica,sans-Serif" font-size="10.00" fill="#000000">* MIDIAddress()</text>
<text text-anchor="start" x="124.5" y="-1001.5" font-family="Helvetica,sans-Serif" font-size="10.00" fill="#000000">* invalid()</text>
<text text-anchor="start" x="124.5" y="-990.5" font-family="Helvetica,sans-Serif" font-size="10.00" fill="#000000">* operator+=()</text>
<text text-anchor="start" x="124.5" y="-979.5" font-family="Helvetica,sans-Serif" font-size="10.00" fill="#000000">* operator&#45;=()</text>
<text text-anchor="start" x="124.5" y="-968.5" font-family="Helvetica,sans-Serif" font-size="10.00" fill="#000000">* operator+()</text>
<text text-anchor="start" x="124.5" y="-957.5" font-family="Helvetica,sans-Serif" font-size="10.00" fill="#000000">* operator&#45;()</text>
<text text-anchor="start" x="124.5" y="-946.5" font-family="Helvetica,sans-Serif" font-size="10.00" fill="#000000">* getAddress()</text>
<text text-anchor="start" x="124.5" y="-935.5" font-family="Helvetica,sans-Serif" font-size="10.00" fill="#000000">* getChannel()</text>
<text text-anchor="start" x="124.5" y="-924.5" font-family="Helvetica,sans-Serif" font-size="10.00" fill="#000000">* getRawChannel()</text>
<text text-anchor="start" x="124.5" y="-913.5" font-family="Helvetica,sans-Serif" font-size="10.00" fill="#000000">* getCableNumber()</text>
<text text-anchor="start" x="124.5" y="-902.5" font-family="Helvetica,sans-Serif" font-size="10.00" fill="#000000">* operator==()</text>
<text text-anchor="start" x="124.5" y="-891.5" font-family="Helvetica,sans-Serif" font-size="10.00" fill="#000000">* operator!=()</text>
<text text-anchor="start" x="124.5" y="-880.5" font-family="Helvetica,sans-Serif" font-size="10.00" fill="#000000">* isValid()</text>
<text text-anchor="start" x="124.5" y="-869.5" font-family="Helvetica,sans-Serif" font-size="10.00" fill="#000000">* operator bool()</text>
<text text-anchor="start" x="124.5" y="-858.5" font-family="Helvetica,sans-Serif" font-size="10.00" fill="#000000">* matchSingle()</text>
<text text-anchor="start" x="124.5" y="-847.5" font-family="Helvetica,sans-Serif" font-size="10.00" fill="#000000">* matchAddressInRange()</text>
</a>
</g>
</g>
<!-- Node5&#45;&gt;Node4 -->
<g id="edge4" class="edge">
<title>Node5&#45;&gt;Node4</title>
<path fill="none" stroke="#404040" d="M181,-840.2065C181,-828.2824 181,-816.4012 181,-804.9677"/>
<polygon fill="none" stroke="#404040" points="181.0001,-804.7561 177,-798.7562 181,-792.7561 185,-798.7561 181.0001,-804.7561"/>
<text text-anchor="middle" x="202.5" y="-814" font-family="Helvetica,sans-Serif" font-size="10.00" fill="#000000"> #address</text>
</g>
<!-- Node6&#45;&gt;Node3 -->
<g id="edge5" class="edge">
<title>Node6&#45;&gt;Node3</title>
<path fill="none" stroke="#191970" d="M87.0536,-321.6716C105.4319,-363.7952 133.4256,-427.9578 154.0772,-475.2921"/>
<polygon fill="none" stroke="#191970" points="90.1489,-320.0135 82.942,-312.2475 83.733,-322.8128 90.1489,-320.0135"/>
</g>
<!-- Node7&#45;&gt;Node3 -->
<g id="edge7" class="edge">
<title>Node7&#45;&gt;Node3</title>
<path fill="none" stroke="#404040" d="M211.1644,-416.6314C209.0403,-430.3185 206.6583,-443.9614 204,-457 203.5643,-459.1373 203.0999,-461.3007 202.6119,-463.4796"/>
<polygon fill="none" stroke="#404040" points="202.5951,-463.5502 205.0899,-470.3161 199.804,-475.2211 197.3093,-468.4553 202.5951,-463.5502"/>
<text text-anchor="middle" x="231" y="-443.5" font-family="Helvetica,sans-Serif" font-size="10.00" fill="#000000"> &#45;elements</text>
</g>
<!-- Node8 -->
<g id="node8" class="node">
<title>Node8</title>
<g id="a_node8"><a xlink:title=" ">
<polygon fill="#ffffff" stroke="#bfbfbf" points="354.5,-508.5 354.5,-565.5 409.5,-565.5 409.5,-508.5 354.5,-508.5"/>
<text text-anchor="middle" x="382" y="-553.5" font-family="Helvetica,sans-Serif" font-size="10.00" fill="#000000">Printable</text>
<polyline fill="none" stroke="#bfbfbf" points="354.5,-546.5 409.5,-546.5 "/>
<text text-anchor="middle" x="382" y="-534.5" font-family="Helvetica,sans-Serif" font-size="10.00" fill="#000000"> </text>
<polyline fill="none" stroke="#bfbfbf" points="354.5,-527.5 409.5,-527.5 "/>
<text text-anchor="middle" x="382" y="-515.5" font-family="Helvetica,sans-Serif" font-size="10.00" fill="#000000"> </text>
</a>
</g>
</g>
<!-- Node8&#45;&gt;Node2 -->
<g id="edge9" class="edge">
<title>Node8&#45;&gt;Node2</title>
<path fill="none" stroke="#191970" d="M382,-498.1659C382,-463.6654 382,-411.9336 382,-367.2832"/>
<polygon fill="none" stroke="#191970" points="378.5001,-498.2928 382,-508.2929 385.5001,-498.2929 378.5001,-498.2928"/>
</g>
</g>
</svg>
