<?xml version="1.0" encoding="UTF-8" standalone="no"?>
<!DOCTYPE svg PUBLIC "-//W3C//DTD SVG 1.1//EN"
 "http://www.w3.org/Graphics/SVG/1.1/DTD/svg11.dtd">
<!-- Generated by graphviz version 2.43.0 (0)
 -->
<!-- Title: MIDI_PipeFactory&lt; N, Pipe &gt; Pages: 1 -->
<svg width="517pt" height="892pt"
 viewBox="0.00 0.00 516.50 892.00" xmlns="http://www.w3.org/2000/svg" xmlns:xlink="http://www.w3.org/1999/xlink">
<g id="graph0" class="graph" transform="scale(1 1) rotate(0) translate(4 888)">
<title>MIDI_PipeFactory&lt; N, Pipe &gt;</title>
<polygon fill="white" stroke="transparent" points="-4,4 -4,-888 512.5,-888 512.5,4 -4,4"/>
<!-- Node1 -->
<g id="node1" class="node">
<title>Node1</title>
<g id="a_node1"><a xlink:title="Class that produces multiple MIDI_Pipes.">
<polygon fill="#bfbfbf" stroke="black" points="0,-72 0,-162 122,-162 122,-72 0,-72"/>
<text text-anchor="start" x="8" y="-150" font-family="Helvetica,sans-Serif" font-size="10.00">MIDI_PipeFactory&lt; N,</text>
<text text-anchor="middle" x="61" y="-139" font-family="Helvetica,sans-Serif" font-size="10.00"> Pipe &gt;</text>
<polyline fill="none" stroke="black" points="0,-132 122,-132 "/>
<text text-anchor="start" x="8" y="-120" font-family="Helvetica,sans-Serif" font-size="10.00">+ index</text>
<polyline fill="none" stroke="black" points="0,-113 122,-113 "/>
<text text-anchor="start" x="8" y="-101" font-family="Helvetica,sans-Serif" font-size="10.00">+ getNext()</text>
<text text-anchor="start" x="8" y="-90" font-family="Helvetica,sans-Serif" font-size="10.00">+ operator[]()</text>
<text text-anchor="start" x="8" y="-79" font-family="Helvetica,sans-Serif" font-size="10.00">+ operator[]()</text>
</a>
</g>
</g>
<!-- Node2 -->
<g id="node2" class="node">
<title>Node2</title>
<g id="a_node2"><a xlink:href="../../df/d72/classMIDI__Pipe.html" target="_top" xlink:title="Class that routes MIDI messages from a MIDI_Source to a MIDI_Sink.">
<polygon fill="white" stroke="black" points="207,-281.5 207,-668.5 337,-668.5 337,-281.5 207,-281.5"/>
<text text-anchor="middle" x="272" y="-656.5" font-family="Helvetica,sans-Serif" font-size="10.00">MIDI_Pipe</text>
<polyline fill="none" stroke="black" points="207,-649.5 337,-649.5 "/>
<text text-anchor="middle" x="272" y="-637.5" font-family="Helvetica,sans-Serif" font-size="10.00"> </text>
<polyline fill="none" stroke="black" points="207,-630.5 337,-630.5 "/>
<text text-anchor="start" x="215" y="-618.5" font-family="Helvetica,sans-Serif" font-size="10.00">+ MIDI_Pipe()</text>
<text text-anchor="start" x="215" y="-607.5" font-family="Helvetica,sans-Serif" font-size="10.00">+ MIDI_Pipe()</text>
<text text-anchor="start" x="215" y="-596.5" font-family="Helvetica,sans-Serif" font-size="10.00">+ operator=()</text>
<text text-anchor="start" x="215" y="-585.5" font-family="Helvetica,sans-Serif" font-size="10.00">+ MIDI_Pipe()</text>
<text text-anchor="start" x="215" y="-574.5" font-family="Helvetica,sans-Serif" font-size="10.00">+ operator=()</text>
<text text-anchor="start" x="215" y="-563.5" font-family="Helvetica,sans-Serif" font-size="10.00">+ ~MIDI_Pipe()</text>
<text text-anchor="start" x="215" y="-552.5" font-family="Helvetica,sans-Serif" font-size="10.00">+ hasSink()</text>
<text text-anchor="start" x="215" y="-541.5" font-family="Helvetica,sans-Serif" font-size="10.00">+ hasSource()</text>
<text text-anchor="start" x="215" y="-530.5" font-family="Helvetica,sans-Serif" font-size="10.00">+ hasThroughOut()</text>
<text text-anchor="start" x="215" y="-519.5" font-family="Helvetica,sans-Serif" font-size="10.00">+ hasThroughIn()</text>
<text text-anchor="start" x="215" y="-508.5" font-family="Helvetica,sans-Serif" font-size="10.00">+ disconnect()</text>
<text text-anchor="start" x="215" y="-497.5" font-family="Helvetica,sans-Serif" font-size="10.00">+ getFinalSink()</text>
<text text-anchor="start" x="215" y="-486.5" font-family="Helvetica,sans-Serif" font-size="10.00">+ getInitialSource()</text>
<text text-anchor="start" x="215" y="-475.5" font-family="Helvetica,sans-Serif" font-size="10.00">+ disconnect()</text>
<text text-anchor="start" x="215" y="-464.5" font-family="Helvetica,sans-Serif" font-size="10.00">+ disconnect()</text>
<text text-anchor="start" x="215" y="-453.5" font-family="Helvetica,sans-Serif" font-size="10.00">+ exclusive()</text>
<text text-anchor="start" x="215" y="-442.5" font-family="Helvetica,sans-Serif" font-size="10.00">+ isLocked()</text>
<text text-anchor="start" x="215" y="-431.5" font-family="Helvetica,sans-Serif" font-size="10.00">+ isAvailableForWrite()</text>
<text text-anchor="start" x="215" y="-420.5" font-family="Helvetica,sans-Serif" font-size="10.00"># pipeMIDI()</text>
<text text-anchor="start" x="215" y="-409.5" font-family="Helvetica,sans-Serif" font-size="10.00"># pipeMIDI()</text>
<text text-anchor="start" x="215" y="-398.5" font-family="Helvetica,sans-Serif" font-size="10.00"># pipeMIDI()</text>
<text text-anchor="start" x="215" y="-387.5" font-family="Helvetica,sans-Serif" font-size="10.00">&#45; connectSink()</text>
<text text-anchor="start" x="215" y="-376.5" font-family="Helvetica,sans-Serif" font-size="10.00">&#45; disconnectSink()</text>
<text text-anchor="start" x="215" y="-365.5" font-family="Helvetica,sans-Serif" font-size="10.00">&#45; connectSource()</text>
<text text-anchor="start" x="215" y="-354.5" font-family="Helvetica,sans-Serif" font-size="10.00">&#45; disconnectSource()</text>
<text text-anchor="start" x="215" y="-343.5" font-family="Helvetica,sans-Serif" font-size="10.00">&#45; sinkMIDIfromPipe()</text>
<text text-anchor="start" x="215" y="-332.5" font-family="Helvetica,sans-Serif" font-size="10.00">&#45; sinkMIDIfromPipe()</text>
<text text-anchor="start" x="215" y="-321.5" font-family="Helvetica,sans-Serif" font-size="10.00">&#45; sinkMIDIfromPipe()</text>
<text text-anchor="start" x="215" y="-310.5" font-family="Helvetica,sans-Serif" font-size="10.00">&#45; lockDownstream()</text>
<text text-anchor="start" x="215" y="-299.5" font-family="Helvetica,sans-Serif" font-size="10.00">&#45; lockUpstream()</text>
<text text-anchor="start" x="215" y="-288.5" font-family="Helvetica,sans-Serif" font-size="10.00">&#45; lockSelf()</text>
</a>
</g>
</g>
<!-- Node2&#45;&gt;Node1 -->
<g id="edge1" class="edge">
<title>Node2&#45;&gt;Node1</title>
<path fill="none" stroke="#404040" d="M206.94,-378.41C183.43,-342.7 157.23,-301.48 135,-263 118.16,-233.86 100.98,-200.45 87.41,-173.05"/>
<polygon fill="none" stroke="#404040" points="87.32,-172.86 81.08,-169.24 82.02,-162.09 88.26,-165.71 87.32,-172.86"/>
<text text-anchor="middle" x="154" y="-255" font-family="Helvetica,sans-Serif" font-size="10.00"> +pipes</text>
</g>
<!-- Node2&#45;&gt;Node2 -->
<g id="edge8" class="edge">
<title>Node2&#45;&gt;Node2</title>
<path fill="none" stroke="#404040" d="M337.07,-512.47C347.7,-507.11 355,-494.62 355,-475 355,-462.13 351.86,-452.32 346.69,-445.59"/>
<polygon fill="none" stroke="#404040" points="346.27,-445.23 339.1,-444.45 337.07,-437.53 344.24,-438.32 346.27,-445.23"/>
<text text-anchor="middle" x="384.5" y="-478" font-family="Helvetica,sans-Serif" font-size="10.00"> &#45;throughIn</text>
<text text-anchor="middle" x="384.5" y="-467" font-family="Helvetica,sans-Serif" font-size="10.00">&#45;throughOut</text>
</g>
<!-- Node3 -->
<g id="node3" class="node">
<title>Node3</title>
<g id="a_node3"><a xlink:href="../../d9/db6/classMIDI__Sink.html" target="_top" xlink:title="Class that can receive MIDI messages from a MIDI pipe.">
<polygon fill="white" stroke="black" points="140.5,-6 140.5,-228 321.5,-228 321.5,-6 140.5,-6"/>
<text text-anchor="middle" x="231" y="-216" font-family="Helvetica,sans-Serif" font-size="10.00">MIDI_Sink</text>
<polyline fill="none" stroke="black" points="140.5,-209 321.5,-209 "/>
<text text-anchor="middle" x="231" y="-197" font-family="Helvetica,sans-Serif" font-size="10.00"> </text>
<polyline fill="none" stroke="black" points="140.5,-190 321.5,-190 "/>
<text text-anchor="start" x="148.5" y="-178" font-family="Helvetica,sans-Serif" font-size="10.00">+ MIDI_Sink()</text>
<text text-anchor="start" x="148.5" y="-167" font-family="Helvetica,sans-Serif" font-size="10.00">+ MIDI_Sink()</text>
<text text-anchor="start" x="148.5" y="-156" font-family="Helvetica,sans-Serif" font-size="10.00">+ operator=()</text>
<text text-anchor="start" x="148.5" y="-145" font-family="Helvetica,sans-Serif" font-size="10.00">+ MIDI_Sink()</text>
<text text-anchor="start" x="148.5" y="-134" font-family="Helvetica,sans-Serif" font-size="10.00">+ operator=()</text>
<text text-anchor="start" x="148.5" y="-123" font-family="Helvetica,sans-Serif" font-size="10.00">+ ~MIDI_Sink()</text>
<text text-anchor="start" x="148.5" y="-112" font-family="Helvetica,sans-Serif" font-size="10.00">&#45; lockDownstream()</text>
<text text-anchor="start" x="148.5" y="-101" font-family="Helvetica,sans-Serif" font-size="10.00">&#45; getFinalSink()</text>
<text text-anchor="start" x="148.5" y="-90" font-family="Helvetica,sans-Serif" font-size="10.00">&#45; disconnectSourcePipesShallow()</text>
<text text-anchor="start" x="148.5" y="-79" font-family="Helvetica,sans-Serif" font-size="10.00">* sinkMIDIfromPipe()</text>
<text text-anchor="start" x="148.5" y="-68" font-family="Helvetica,sans-Serif" font-size="10.00">* sinkMIDIfromPipe()</text>
<text text-anchor="start" x="148.5" y="-57" font-family="Helvetica,sans-Serif" font-size="10.00">* sinkMIDIfromPipe()</text>
<text text-anchor="start" x="148.5" y="-46" font-family="Helvetica,sans-Serif" font-size="10.00">* connectSourcePipe()</text>
<text text-anchor="start" x="148.5" y="-35" font-family="Helvetica,sans-Serif" font-size="10.00">* disconnectSourcePipes()</text>
<text text-anchor="start" x="148.5" y="-24" font-family="Helvetica,sans-Serif" font-size="10.00">* disconnect()</text>
<text text-anchor="start" x="148.5" y="-13" font-family="Helvetica,sans-Serif" font-size="10.00">* hasSourcePipe()</text>
</a>
</g>
</g>
<!-- Node2&#45;&gt;Node3 -->
<g id="edge3" class="edge">
<title>Node2&#45;&gt;Node3</title>
<path fill="none" stroke="#404040" d="M206.98,-351.12C194.99,-322.91 184.28,-292.52 178,-263 176.41,-255.52 175.83,-247.9 176.06,-240.27"/>
<polygon fill="none" stroke="#404040" points="176.06,-240.25 172.57,-233.94 177.06,-228.29 180.55,-234.6 176.06,-240.25"/>
<text text-anchor="middle" x="210.5" y="-255" font-family="Helvetica,sans-Serif" font-size="10.00"> #sourcePipe</text>
</g>
<!-- Node4 -->
<g id="node4" class="node">
<title>Node4</title>
<g id="a_node4"><a xlink:href="../../df/d5b/classMIDI__Source.html" target="_top" xlink:title="Class that can send MIDI messages to a MIDI pipe.">
<polygon fill="white" stroke="black" points="339.5,-0.5 339.5,-233.5 508.5,-233.5 508.5,-0.5 339.5,-0.5"/>
<text text-anchor="middle" x="424" y="-221.5" font-family="Helvetica,sans-Serif" font-size="10.00">MIDI_Source</text>
<polyline fill="none" stroke="black" points="339.5,-214.5 508.5,-214.5 "/>
<text text-anchor="middle" x="424" y="-202.5" font-family="Helvetica,sans-Serif" font-size="10.00"> </text>
<polyline fill="none" stroke="black" points="339.5,-195.5 508.5,-195.5 "/>
<text text-anchor="start" x="347.5" y="-183.5" font-family="Helvetica,sans-Serif" font-size="10.00">+ MIDI_Source()</text>
<text text-anchor="start" x="347.5" y="-172.5" font-family="Helvetica,sans-Serif" font-size="10.00">+ MIDI_Source()</text>
<text text-anchor="start" x="347.5" y="-161.5" font-family="Helvetica,sans-Serif" font-size="10.00">+ operator=()</text>
<text text-anchor="start" x="347.5" y="-150.5" font-family="Helvetica,sans-Serif" font-size="10.00">+ MIDI_Source()</text>
<text text-anchor="start" x="347.5" y="-139.5" font-family="Helvetica,sans-Serif" font-size="10.00">+ operator=()</text>
<text text-anchor="start" x="347.5" y="-128.5" font-family="Helvetica,sans-Serif" font-size="10.00">+ ~MIDI_Source()</text>
<text text-anchor="start" x="347.5" y="-117.5" font-family="Helvetica,sans-Serif" font-size="10.00">&#45; getInitialSource()</text>
<text text-anchor="start" x="347.5" y="-106.5" font-family="Helvetica,sans-Serif" font-size="10.00">&#45; disconnectSinkPipesShallow()</text>
<text text-anchor="start" x="347.5" y="-95.5" font-family="Helvetica,sans-Serif" font-size="10.00">* sourceMIDItoPipe()</text>
<text text-anchor="start" x="347.5" y="-84.5" font-family="Helvetica,sans-Serif" font-size="10.00">* sourceMIDItoPipe()</text>
<text text-anchor="start" x="347.5" y="-73.5" font-family="Helvetica,sans-Serif" font-size="10.00">* sourceMIDItoPipe()</text>
<text text-anchor="start" x="347.5" y="-62.5" font-family="Helvetica,sans-Serif" font-size="10.00">* exclusive()</text>
<text text-anchor="start" x="347.5" y="-51.5" font-family="Helvetica,sans-Serif" font-size="10.00">* canWrite()</text>
<text text-anchor="start" x="347.5" y="-40.5" font-family="Helvetica,sans-Serif" font-size="10.00">* connectSinkPipe()</text>
<text text-anchor="start" x="347.5" y="-29.5" font-family="Helvetica,sans-Serif" font-size="10.00">* disconnectSinkPipes()</text>
<text text-anchor="start" x="347.5" y="-18.5" font-family="Helvetica,sans-Serif" font-size="10.00">* disconnect()</text>
<text text-anchor="start" x="347.5" y="-7.5" font-family="Helvetica,sans-Serif" font-size="10.00">* hasSinkPipe()</text>
</a>
</g>
</g>
<!-- Node2&#45;&gt;Node4 -->
<g id="edge5" class="edge">
<title>Node2&#45;&gt;Node4</title>
<path fill="none" stroke="#404040" d="M307.91,-281.48C311.57,-271.36 315.58,-261.47 320,-252 322.53,-246.58 326.87,-239.51 332.39,-231.45"/>
<polygon fill="none" stroke="#404040" points="332.45,-231.37 332.64,-224.16 339.37,-221.56 339.17,-228.77 332.45,-231.37"/>
<text text-anchor="middle" x="346.5" y="-255" font-family="Helvetica,sans-Serif" font-size="10.00"> #sinkPipe</text>
</g>
<!-- Node3&#45;&gt;Node2 -->
<g id="edge2" class="edge">
<title>Node3&#45;&gt;Node2</title>
<path fill="none" stroke="#8b1a1a" d="M244.86,-238.31C246.46,-252.28 248.13,-266.78 249.82,-281.41"/>
<polygon fill="none" stroke="#8b1a1a" points="248.32,-237.77 243.7,-228.24 241.36,-238.57 248.32,-237.77"/>
</g>
<!-- Node3&#45;&gt;Node2 -->
<g id="edge6" class="edge">
<title>Node3&#45;&gt;Node2</title>
<path fill="none" stroke="#404040" d="M246.98,-228.01C248.04,-236.12 249.06,-244.19 250,-252 250.69,-257.71 251.37,-263.5 252.04,-269.35"/>
<polygon fill="none" stroke="#404040" points="252.06,-269.5 256.71,-275.01 253.42,-281.42 248.76,-275.91 252.06,-269.5"/>
<text text-anchor="middle" x="265" y="-255" font-family="Helvetica,sans-Serif" font-size="10.00"> &#45;sink</text>
</g>
<!-- Node4&#45;&gt;Node2 -->
<g id="edge4" class="edge">
<title>Node4&#45;&gt;Node2</title>
<path fill="none" stroke="#8b1a1a" d="M384.62,-243.49C382.13,-250.13 379.59,-256.66 377,-263 365.17,-291.98 351.03,-322.48 337.03,-351.01"/>
<polygon fill="none" stroke="#8b1a1a" points="388.04,-244.32 388.21,-233.72 381.47,-241.9 388.04,-244.32"/>
</g>
<!-- Node4&#45;&gt;Node2 -->
<g id="edge9" class="edge">
<title>Node4&#45;&gt;Node2</title>
<path fill="none" stroke="#404040" d="M402.68,-233.72C399.81,-243.74 396.59,-253.62 393,-263 379.84,-297.37 361.62,-332.79 343.31,-364.56"/>
<polygon fill="none" stroke="#404040" points="343.15,-364.83 343.58,-372.03 337.1,-375.19 336.67,-367.99 343.15,-364.83"/>
<text text-anchor="middle" x="416" y="-255" font-family="Helvetica,sans-Serif" font-size="10.00"> &#45;source</text>
</g>
<!-- Node5 -->
<g id="node5" class="node">
<title>Node5</title>
<g id="a_node5"><a xlink:href="../../d6/da4/classAH_1_1BitArray.html" target="_top" xlink:title=" ">
<polygon fill="white" stroke="black" points="215.5,-716.5 215.5,-883.5 328.5,-883.5 328.5,-716.5 215.5,-716.5"/>
<text text-anchor="middle" x="272" y="-871.5" font-family="Helvetica,sans-Serif" font-size="10.00">BitArray&lt; 16 &gt;</text>
<polyline fill="none" stroke="black" points="215.5,-864.5 328.5,-864.5 "/>
<text text-anchor="start" x="223.5" y="-852.5" font-family="Helvetica,sans-Serif" font-size="10.00">&#45; buffer</text>
<text text-anchor="start" x="223.5" y="-841.5" font-family="Helvetica,sans-Serif" font-size="10.00">&#45; bufferLength</text>
<polyline fill="none" stroke="black" points="215.5,-834.5 328.5,-834.5 "/>
<text text-anchor="start" x="223.5" y="-822.5" font-family="Helvetica,sans-Serif" font-size="10.00">+ get()</text>
<text text-anchor="start" x="223.5" y="-811.5" font-family="Helvetica,sans-Serif" font-size="10.00">+ set()</text>
<text text-anchor="start" x="223.5" y="-800.5" font-family="Helvetica,sans-Serif" font-size="10.00">+ set()</text>
<text text-anchor="start" x="223.5" y="-789.5" font-family="Helvetica,sans-Serif" font-size="10.00">+ clear()</text>
<text text-anchor="start" x="223.5" y="-778.5" font-family="Helvetica,sans-Serif" font-size="10.00">+ safeIndex()</text>
<text text-anchor="start" x="223.5" y="-767.5" font-family="Helvetica,sans-Serif" font-size="10.00">+ getByte()</text>
<text text-anchor="start" x="223.5" y="-756.5" font-family="Helvetica,sans-Serif" font-size="10.00">+ getBufferLength()</text>
<text text-anchor="start" x="223.5" y="-745.5" font-family="Helvetica,sans-Serif" font-size="10.00">&#45; getBufferIndex()</text>
<text text-anchor="start" x="223.5" y="-734.5" font-family="Helvetica,sans-Serif" font-size="10.00">&#45; getBufferBit()</text>
<text text-anchor="start" x="223.5" y="-723.5" font-family="Helvetica,sans-Serif" font-size="10.00">&#45; getBufferMask()</text>
</a>
</g>
</g>
<!-- Node5&#45;&gt;Node2 -->
<g id="edge7" class="edge">
<title>Node5&#45;&gt;Node2</title>
<path fill="none" stroke="#404040" d="M272,-716.24C272,-705.02 272,-693.14 272,-680.89"/>
<polygon fill="none" stroke="#404040" points="272,-680.54 268,-674.54 272,-668.54 276,-674.54 272,-680.54"/>
<text text-anchor="middle" x="288.5" y="-690" font-family="Helvetica,sans-Serif" font-size="10.00"> &#45;locks</text>
</g>
</g>
</svg>
