<?xml version="1.0" encoding="UTF-8" standalone="no"?>
<!DOCTYPE svg PUBLIC "-//W3C//DTD SVG 1.1//EN"
 "http://www.w3.org/Graphics/SVG/1.1/DTD/svg11.dtd">
<!-- Generated by graphviz version 2.38.0 (20140413.2041)
 -->
<!-- Title: TrueMIDI_Sink Pages: 1 -->
<svg width="137pt" height="320pt"
 viewBox="0.00 0.00 137.00 320.00" xmlns="http://www.w3.org/2000/svg" xmlns:xlink="http://www.w3.org/1999/xlink">
<g id="graph0" class="graph" transform="scale(1 1) rotate(0) translate(4 316)">
<title>TrueMIDI_Sink</title>
<polygon fill="white" stroke="none" points="-4,4 -4,-316 133,-316 133,4 -4,4"/>
<!-- Node1 -->
<g id="node1" class="node"><title>Node1</title>
<g id="a_node1"><a xlink:title=" ">
<polygon fill="#bfbfbf" stroke="black" points="23,-94.5 23,-151.5 106,-151.5 106,-94.5 23,-94.5"/>
<text text-anchor="middle" x="64.5" y="-139.5" font-family="Helvetica,sans-Serif" font-size="10.00">TrueMIDI_Sink</text>
<polyline fill="none" stroke="black" points="23,-132.5 106,-132.5 "/>
<text text-anchor="middle" x="64.5" y="-120.5" font-family="Helvetica,sans-Serif" font-size="10.00"> </text>
<polyline fill="none" stroke="black" points="23,-113.5 106,-113.5 "/>
<text text-anchor="middle" x="64.5" y="-101.5" font-family="Helvetica,sans-Serif" font-size="10.00"> </text>
</a>
</g>
</g>
<!-- Node3 -->
<g id="node3" class="node"><title>Node3</title>
<g id="a_node3"><a xlink:href="../../d0/dc3/structTrueMIDI__SinkSource.html" target="_top" xlink:title=" ">
<polygon fill="white" stroke="black" points="8,-0.5 8,-57.5 121,-57.5 121,-0.5 8,-0.5"/>
<text text-anchor="middle" x="64.5" y="-45.5" font-family="Helvetica,sans-Serif" font-size="10.00">TrueMIDI_SinkSource</text>
<polyline fill="none" stroke="black" points="8,-38.5 121,-38.5 "/>
<text text-anchor="middle" x="64.5" y="-26.5" font-family="Helvetica,sans-Serif" font-size="10.00"> </text>
<polyline fill="none" stroke="black" points="8,-19.5 121,-19.5 "/>
<text text-anchor="middle" x="64.5" y="-7.5" font-family="Helvetica,sans-Serif" font-size="10.00"> </text>
</a>
</g>
</g>
<!-- Node1&#45;&gt;Node3 -->
<g id="edge2" class="edge"><title>Node1&#45;&gt;Node3</title>
<path fill="none" stroke="midnightblue" d="M64.5,-84.2092C64.5,-75.2929 64.5,-65.9513 64.5,-57.5836"/>
<polygon fill="none" stroke="midnightblue" points="61.0001,-84.3969 64.5,-94.397 68.0001,-84.397 61.0001,-84.3969"/>
</g>
<!-- Node2 -->
<g id="node2" class="node"><title>Node2</title>
<g id="a_node2"><a xlink:href="../../d9/db6/classMIDI__Sink.html" target="_top" xlink:title=" ">
<polygon fill="white" stroke="black" points="0,-188.5 0,-311.5 129,-311.5 129,-188.5 0,-188.5"/>
<text text-anchor="middle" x="64.5" y="-299.5" font-family="Helvetica,sans-Serif" font-size="10.00">MIDI_Sink</text>
<polyline fill="none" stroke="black" points="0,-292.5 129,-292.5 "/>
<text text-anchor="start" x="8" y="-280.5" font-family="Helvetica,sans-Serif" font-size="10.00"># sourcePipe</text>
<polyline fill="none" stroke="black" points="0,-273.5 129,-273.5 "/>
<text text-anchor="start" x="8" y="-261.5" font-family="Helvetica,sans-Serif" font-size="10.00">+ sinkMIDIfromPipe()</text>
<text text-anchor="start" x="8" y="-250.5" font-family="Helvetica,sans-Serif" font-size="10.00">+ sinkMIDIfromPipe()</text>
<text text-anchor="start" x="8" y="-239.5" font-family="Helvetica,sans-Serif" font-size="10.00">+ sinkMIDIfromPipe()</text>
<text text-anchor="start" x="8" y="-228.5" font-family="Helvetica,sans-Serif" font-size="10.00">+ ~MIDI_Sink()</text>
<text text-anchor="start" x="8" y="-217.5" font-family="Helvetica,sans-Serif" font-size="10.00">+ connectSourcePipe()</text>
<text text-anchor="start" x="8" y="-206.5" font-family="Helvetica,sans-Serif" font-size="10.00">+ disconnectSourcePipe()</text>
<text text-anchor="start" x="8" y="-195.5" font-family="Helvetica,sans-Serif" font-size="10.00">+ hasSourcePipe()</text>
</a>
</g>
</g>
<!-- Node2&#45;&gt;Node1 -->
<g id="edge1" class="edge"><title>Node2&#45;&gt;Node1</title>
<path fill="none" stroke="midnightblue" d="M64.5,-178.138C64.5,-168.8 64.5,-159.715 64.5,-151.738"/>
<polygon fill="none" stroke="midnightblue" points="61.0001,-178.331 64.5,-188.331 68.0001,-178.331 61.0001,-178.331"/>
</g>
</g>
</svg>
