<?xml version="1.0" encoding="UTF-8" standalone="no"?>
<!DOCTYPE svg PUBLIC "-//W3C//DTD SVG 1.1//EN"
 "http://www.w3.org/Graphics/SVG/1.1/DTD/svg11.dtd">
<!-- Generated by graphviz version 2.40.1 (20161225.0304)
 -->
<!-- Title: IncrementSelector&lt; N &gt; Pages: 1 -->
<svg width="476pt" height="1391pt"
 viewBox="0.00 0.00 476.00 1391.00" xmlns="http://www.w3.org/2000/svg" xmlns:xlink="http://www.w3.org/1999/xlink">
<g id="graph0" class="graph" transform="scale(1 1) rotate(0) translate(4 1387)">
<title>IncrementSelector&lt; N &gt;</title>
<polygon fill="#ffffff" stroke="transparent" points="-4,4 -4,-1387 472,-1387 472,4 -4,4"/>
<!-- Node1 -->
<g id="node1" class="node">
<title>Node1</title>
<g id="a_node1"><a xlink:title="Selector with one button that increments the selection.">
<polygon fill="#bfbfbf" stroke="#000000" points="202.5,-.5 202.5,-68.5 324.5,-68.5 324.5,-.5 202.5,-.5"/>
<text text-anchor="middle" x="263.5" y="-56.5" font-family="Helvetica,sans-Serif" font-size="10.00" fill="#000000">IncrementSelector&lt; N &gt;</text>
<polyline fill="none" stroke="#000000" points="202.5,-49.5 324.5,-49.5 "/>
<text text-anchor="middle" x="263.5" y="-37.5" font-family="Helvetica,sans-Serif" font-size="10.00" fill="#000000"> </text>
<polyline fill="none" stroke="#000000" points="202.5,-30.5 324.5,-30.5 "/>
<text text-anchor="start" x="210.5" y="-18.5" font-family="Helvetica,sans-Serif" font-size="10.00" fill="#000000">+ IncrementSelector()</text>
<text text-anchor="start" x="210.5" y="-7.5" font-family="Helvetica,sans-Serif" font-size="10.00" fill="#000000">+ IncrementSelector()</text>
</a>
</g>
</g>
<!-- Node2 -->
<g id="node2" class="node">
<title>Node2</title>
<g id="a_node2"><a xlink:href="../../d1/d94/classGenericIncrementSelector.html" target="_top" xlink:title=" ">
<polygon fill="#ffffff" stroke="#000000" points="186,-106.5 186,-207.5 341,-207.5 341,-106.5 186,-106.5"/>
<text text-anchor="middle" x="263.5" y="-195.5" font-family="Helvetica,sans-Serif" font-size="10.00" fill="#000000">GenericIncrementSelector&lt; N &gt;</text>
<polyline fill="none" stroke="#000000" points="186,-188.5 341,-188.5 "/>
<text text-anchor="start" x="194" y="-176.5" font-family="Helvetica,sans-Serif" font-size="10.00" fill="#000000">&#45; wrap</text>
<polyline fill="none" stroke="#000000" points="186,-169.5 341,-169.5 "/>
<text text-anchor="start" x="194" y="-157.5" font-family="Helvetica,sans-Serif" font-size="10.00" fill="#000000">+ GenericIncrementSelector()</text>
<text text-anchor="start" x="194" y="-146.5" font-family="Helvetica,sans-Serif" font-size="10.00" fill="#000000">+ begin()</text>
<text text-anchor="start" x="194" y="-135.5" font-family="Helvetica,sans-Serif" font-size="10.00" fill="#000000">+ update()</text>
<text text-anchor="start" x="194" y="-124.5" font-family="Helvetica,sans-Serif" font-size="10.00" fill="#000000">+ getButtonState()</text>
<text text-anchor="start" x="194" y="-113.5" font-family="Helvetica,sans-Serif" font-size="10.00" fill="#000000">+ invert()</text>
</a>
</g>
</g>
<!-- Node2&#45;&gt;Node1 -->
<g id="edge1" class="edge">
<title>Node2&#45;&gt;Node1</title>
<path fill="none" stroke="#191970" d="M263.5,-96.186C263.5,-86.6659 263.5,-77.1318 263.5,-68.5036"/>
<polygon fill="none" stroke="#191970" points="260.0001,-96.4673 263.5,-106.4673 267.0001,-96.4674 260.0001,-96.4673"/>
</g>
<!-- Node3 -->
<g id="node3" class="node">
<title>Node3</title>
<g id="a_node3"><a xlink:href="../../d0/d04/classGenericSelector.html" target="_top" xlink:title=" ">
<polygon fill="#ffffff" stroke="#000000" points="125,-255.5 125,-389.5 256,-389.5 256,-255.5 125,-255.5"/>
<text text-anchor="start" x="133" y="-377.5" font-family="Helvetica,sans-Serif" font-size="10.00" fill="#000000">GenericSelector&lt; N,</text>
<text text-anchor="middle" x="190.5" y="-366.5" font-family="Helvetica,sans-Serif" font-size="10.00" fill="#000000"> EmptySelectorCallback &gt;</text>
<polyline fill="none" stroke="#000000" points="125,-359.5 256,-359.5 "/>
<text text-anchor="start" x="133" y="-347.5" font-family="Helvetica,sans-Serif" font-size="10.00" fill="#000000">&#45; selectable</text>
<polyline fill="none" stroke="#000000" points="125,-340.5 256,-340.5 "/>
<text text-anchor="start" x="133" y="-328.5" font-family="Helvetica,sans-Serif" font-size="10.00" fill="#000000">+ GenericSelector()</text>
<text text-anchor="start" x="133" y="-317.5" font-family="Helvetica,sans-Serif" font-size="10.00" fill="#000000">+ begin()</text>
<text text-anchor="start" x="133" y="-306.5" font-family="Helvetica,sans-Serif" font-size="10.00" fill="#000000">+ update()</text>
<text text-anchor="start" x="133" y="-295.5" font-family="Helvetica,sans-Serif" font-size="10.00" fill="#000000">+ reset()</text>
<text text-anchor="start" x="133" y="-284.5" font-family="Helvetica,sans-Serif" font-size="10.00" fill="#000000">+ set()</text>
<text text-anchor="start" x="133" y="-273.5" font-family="Helvetica,sans-Serif" font-size="10.00" fill="#000000">+ increment()</text>
<text text-anchor="start" x="133" y="-262.5" font-family="Helvetica,sans-Serif" font-size="10.00" fill="#000000">+ decrement()</text>
</a>
</g>
</g>
<!-- Node3&#45;&gt;Node2 -->
<g id="edge2" class="edge">
<title>Node3&#45;&gt;Node2</title>
<path fill="none" stroke="#191970" d="M224.3172,-245.8322C230.0149,-232.9148 235.8003,-219.7986 241.1139,-207.752"/>
<polygon fill="none" stroke="#191970" points="221.0254,-244.6228 220.1919,-255.1848 227.43,-247.4479 221.0254,-244.6228"/>
</g>
<!-- Node4 -->
<g id="node4" class="node">
<title>Node4</title>
<g id="a_node4"><a xlink:href="../../dc/d77/classSelectorBase.html" target="_top" xlink:title="Base class for all Selectors exposing the get method, so it can be used by display elements etc,...">
<polygon fill="#ffffff" stroke="#000000" points="0,-520 0,-588 89,-588 89,-520 0,-520"/>
<text text-anchor="middle" x="44.5" y="-576" font-family="Helvetica,sans-Serif" font-size="10.00" fill="#000000">SelectorBase</text>
<polyline fill="none" stroke="#000000" points="0,-569 89,-569 "/>
<text text-anchor="start" x="8" y="-557" font-family="Helvetica,sans-Serif" font-size="10.00" fill="#000000"># setting</text>
<polyline fill="none" stroke="#000000" points="0,-550 89,-550 "/>
<text text-anchor="start" x="8" y="-538" font-family="Helvetica,sans-Serif" font-size="10.00" fill="#000000">+ get()</text>
<text text-anchor="start" x="8" y="-527" font-family="Helvetica,sans-Serif" font-size="10.00" fill="#000000"># SelectorBase()</text>
</a>
</g>
</g>
<!-- Node4&#45;&gt;Node3 -->
<g id="edge3" class="edge">
<title>Node4&#45;&gt;Node3</title>
<path fill="none" stroke="#191970" d="M61.5677,-510.4955C71.1753,-487.8898 84.119,-460.2137 98.5,-437 108.4377,-420.9586 120.3175,-404.6238 132.1861,-389.5057"/>
<polygon fill="none" stroke="#191970" points="58.2869,-509.2691 57.66,-519.8453 64.7455,-511.9685 58.2869,-509.2691"/>
</g>
<!-- Node5 -->
<g id="node5" class="node">
<title>Node5</title>
<g id="a_node5"><a xlink:href="../../d1/d55/classAH_1_1Updatable.html" target="_top" xlink:title=" ">
<polygon fill="#ffffff" stroke="#000000" points="107.5,-448.5 107.5,-659.5 189.5,-659.5 189.5,-448.5 107.5,-448.5"/>
<text text-anchor="middle" x="148.5" y="-647.5" font-family="Helvetica,sans-Serif" font-size="10.00" fill="#000000">Updatable&lt;&gt;</text>
<polyline fill="none" stroke="#000000" points="107.5,-640.5 189.5,-640.5 "/>
<text text-anchor="middle" x="148.5" y="-628.5" font-family="Helvetica,sans-Serif" font-size="10.00" fill="#000000"> </text>
<polyline fill="none" stroke="#000000" points="107.5,-621.5 189.5,-621.5 "/>
<text text-anchor="start" x="115.5" y="-609.5" font-family="Helvetica,sans-Serif" font-size="10.00" fill="#000000">+ ~Updatable()</text>
<text text-anchor="start" x="115.5" y="-598.5" font-family="Helvetica,sans-Serif" font-size="10.00" fill="#000000"># Updatable()</text>
<text text-anchor="start" x="115.5" y="-587.5" font-family="Helvetica,sans-Serif" font-size="10.00" fill="#000000">* begin()</text>
<text text-anchor="start" x="115.5" y="-576.5" font-family="Helvetica,sans-Serif" font-size="10.00" fill="#000000">* update()</text>
<text text-anchor="start" x="115.5" y="-565.5" font-family="Helvetica,sans-Serif" font-size="10.00" fill="#000000">* beginAll()</text>
<text text-anchor="start" x="115.5" y="-554.5" font-family="Helvetica,sans-Serif" font-size="10.00" fill="#000000">* updateAll()</text>
<text text-anchor="start" x="115.5" y="-543.5" font-family="Helvetica,sans-Serif" font-size="10.00" fill="#000000">* enable()</text>
<text text-anchor="start" x="115.5" y="-532.5" font-family="Helvetica,sans-Serif" font-size="10.00" fill="#000000">* disable()</text>
<text text-anchor="start" x="115.5" y="-521.5" font-family="Helvetica,sans-Serif" font-size="10.00" fill="#000000">* isEnabled()</text>
<text text-anchor="start" x="115.5" y="-510.5" font-family="Helvetica,sans-Serif" font-size="10.00" fill="#000000">* enable()</text>
<text text-anchor="start" x="115.5" y="-499.5" font-family="Helvetica,sans-Serif" font-size="10.00" fill="#000000">* enable()</text>
<text text-anchor="start" x="115.5" y="-488.5" font-family="Helvetica,sans-Serif" font-size="10.00" fill="#000000">* enable()</text>
<text text-anchor="start" x="115.5" y="-477.5" font-family="Helvetica,sans-Serif" font-size="10.00" fill="#000000">* disable()</text>
<text text-anchor="start" x="115.5" y="-466.5" font-family="Helvetica,sans-Serif" font-size="10.00" fill="#000000">* disable()</text>
<text text-anchor="start" x="115.5" y="-455.5" font-family="Helvetica,sans-Serif" font-size="10.00" fill="#000000">* disable()</text>
</a>
</g>
</g>
<!-- Node5&#45;&gt;Node3 -->
<g id="edge4" class="edge">
<title>Node5&#45;&gt;Node3</title>
<path fill="none" stroke="#191970" d="M169.4494,-438.5289C172.4982,-421.7242 175.5484,-404.9116 178.343,-389.508"/>
<polygon fill="none" stroke="#191970" points="165.9978,-437.9475 167.6564,-448.4117 172.8854,-439.1971 165.9978,-437.9475"/>
</g>
<!-- Node6 -->
<g id="node6" class="node">
<title>Node6</title>
<g id="a_node6"><a xlink:href="../../d4/d23/classDoublyLinkable.html" target="_top" xlink:title=" ">
<polygon fill="#ffffff" stroke="#000000" points="55,-1303.5 55,-1382.5 192,-1382.5 192,-1303.5 55,-1303.5"/>
<text text-anchor="start" x="63" y="-1370.5" font-family="Helvetica,sans-Serif" font-size="10.00" fill="#000000">DoublyLinkable&lt; Updatable</text>
<text text-anchor="middle" x="123.5" y="-1359.5" font-family="Helvetica,sans-Serif" font-size="10.00" fill="#000000">&lt; NormalUpdatable &gt; &gt;</text>
<polyline fill="none" stroke="#000000" points="55,-1352.5 192,-1352.5 "/>
<text text-anchor="start" x="63" y="-1340.5" font-family="Helvetica,sans-Serif" font-size="10.00" fill="#000000"># next</text>
<text text-anchor="start" x="63" y="-1329.5" font-family="Helvetica,sans-Serif" font-size="10.00" fill="#000000"># previous</text>
<polyline fill="none" stroke="#000000" points="55,-1322.5 192,-1322.5 "/>
<text text-anchor="start" x="63" y="-1310.5" font-family="Helvetica,sans-Serif" font-size="10.00" fill="#000000"># ~DoublyLinkable()</text>
</a>
</g>
</g>
<!-- Node6&#45;&gt;Node5 -->
<g id="edge5" class="edge">
<title>Node6&#45;&gt;Node5</title>
<path fill="none" stroke="#191970" d="M122.4054,-1293.3987C120.4328,-1187.571 117.5983,-931.8453 130.5,-718 131.6385,-699.1298 133.3863,-679.0889 135.3537,-659.7352"/>
<polygon fill="none" stroke="#191970" points="118.9073,-1293.5343 122.599,-1303.4651 125.906,-1293.3996 118.9073,-1293.5343"/>
</g>
<!-- Node8 -->
<g id="node8" class="node">
<title>Node8</title>
<g id="a_node8"><a xlink:href="../../d1/d55/classAH_1_1Updatable.html" target="_top" xlink:title=" ">
<polygon fill="#ffffff" stroke="#000000" points="140,-1054.5 140,-1265.5 295,-1265.5 295,-1054.5 140,-1054.5"/>
<text text-anchor="middle" x="217.5" y="-1253.5" font-family="Helvetica,sans-Serif" font-size="10.00" fill="#000000">Updatable&lt; NormalUpdatable &gt;</text>
<polyline fill="none" stroke="#000000" points="140,-1246.5 295,-1246.5 "/>
<text text-anchor="middle" x="217.5" y="-1234.5" font-family="Helvetica,sans-Serif" font-size="10.00" fill="#000000"> </text>
<polyline fill="none" stroke="#000000" points="140,-1227.5 295,-1227.5 "/>
<text text-anchor="start" x="148" y="-1215.5" font-family="Helvetica,sans-Serif" font-size="10.00" fill="#000000">+ ~Updatable()</text>
<text text-anchor="start" x="148" y="-1204.5" font-family="Helvetica,sans-Serif" font-size="10.00" fill="#000000"># Updatable()</text>
<text text-anchor="start" x="148" y="-1193.5" font-family="Helvetica,sans-Serif" font-size="10.00" fill="#000000">* begin()</text>
<text text-anchor="start" x="148" y="-1182.5" font-family="Helvetica,sans-Serif" font-size="10.00" fill="#000000">* update()</text>
<text text-anchor="start" x="148" y="-1171.5" font-family="Helvetica,sans-Serif" font-size="10.00" fill="#000000">* beginAll()</text>
<text text-anchor="start" x="148" y="-1160.5" font-family="Helvetica,sans-Serif" font-size="10.00" fill="#000000">* updateAll()</text>
<text text-anchor="start" x="148" y="-1149.5" font-family="Helvetica,sans-Serif" font-size="10.00" fill="#000000">* enable()</text>
<text text-anchor="start" x="148" y="-1138.5" font-family="Helvetica,sans-Serif" font-size="10.00" fill="#000000">* disable()</text>
<text text-anchor="start" x="148" y="-1127.5" font-family="Helvetica,sans-Serif" font-size="10.00" fill="#000000">* isEnabled()</text>
<text text-anchor="start" x="148" y="-1116.5" font-family="Helvetica,sans-Serif" font-size="10.00" fill="#000000">* enable()</text>
<text text-anchor="start" x="148" y="-1105.5" font-family="Helvetica,sans-Serif" font-size="10.00" fill="#000000">* enable()</text>
<text text-anchor="start" x="148" y="-1094.5" font-family="Helvetica,sans-Serif" font-size="10.00" fill="#000000">* enable()</text>
<text text-anchor="start" x="148" y="-1083.5" font-family="Helvetica,sans-Serif" font-size="10.00" fill="#000000">* disable()</text>
<text text-anchor="start" x="148" y="-1072.5" font-family="Helvetica,sans-Serif" font-size="10.00" fill="#000000">* disable()</text>
<text text-anchor="start" x="148" y="-1061.5" font-family="Helvetica,sans-Serif" font-size="10.00" fill="#000000">* disable()</text>
</a>
</g>
</g>
<!-- Node6&#45;&gt;Node8 -->
<g id="edge8" class="edge">
<title>Node6&#45;&gt;Node8</title>
<path fill="none" stroke="#191970" d="M148.5591,-1294.2147C153.1693,-1285.2396 158.1426,-1275.5575 163.2325,-1265.6485"/>
<polygon fill="none" stroke="#191970" points="145.3524,-1292.7974 143.8966,-1303.2917 151.579,-1295.9958 145.3524,-1292.7974"/>
</g>
<!-- Node7 -->
<g id="node7" class="node">
<title>Node7</title>
<g id="a_node7"><a xlink:href="../../dd/d16/classDoublyLinkedList.html" target="_top" xlink:title=" ">
<polygon fill="#ffffff" stroke="#000000" points="139.5,-718.5 139.5,-995.5 309.5,-995.5 309.5,-718.5 139.5,-718.5"/>
<text text-anchor="start" x="147.5" y="-983.5" font-family="Helvetica,sans-Serif" font-size="10.00" fill="#000000">DoublyLinkedList&lt; AH</text>
<text text-anchor="middle" x="224.5" y="-972.5" font-family="Helvetica,sans-Serif" font-size="10.00" fill="#000000">::Updatable&lt; NormalUpdatable &gt; &gt;</text>
<polyline fill="none" stroke="#000000" points="139.5,-965.5 309.5,-965.5 "/>
<text text-anchor="middle" x="224.5" y="-953.5" font-family="Helvetica,sans-Serif" font-size="10.00" fill="#000000"> </text>
<polyline fill="none" stroke="#000000" points="139.5,-946.5 309.5,-946.5 "/>
<text text-anchor="start" x="147.5" y="-934.5" font-family="Helvetica,sans-Serif" font-size="10.00" fill="#000000">+ append()</text>
<text text-anchor="start" x="147.5" y="-923.5" font-family="Helvetica,sans-Serif" font-size="10.00" fill="#000000">+ append()</text>
<text text-anchor="start" x="147.5" y="-912.5" font-family="Helvetica,sans-Serif" font-size="10.00" fill="#000000">+ insertBefore()</text>
<text text-anchor="start" x="147.5" y="-901.5" font-family="Helvetica,sans-Serif" font-size="10.00" fill="#000000">+ insertBefore()</text>
<text text-anchor="start" x="147.5" y="-890.5" font-family="Helvetica,sans-Serif" font-size="10.00" fill="#000000">+ insertSorted()</text>
<text text-anchor="start" x="147.5" y="-879.5" font-family="Helvetica,sans-Serif" font-size="10.00" fill="#000000">+ insertSorted()</text>
<text text-anchor="start" x="147.5" y="-868.5" font-family="Helvetica,sans-Serif" font-size="10.00" fill="#000000">+ remove()</text>
<text text-anchor="start" x="147.5" y="-857.5" font-family="Helvetica,sans-Serif" font-size="10.00" fill="#000000">+ remove()</text>
<text text-anchor="start" x="147.5" y="-846.5" font-family="Helvetica,sans-Serif" font-size="10.00" fill="#000000">+ moveDown()</text>
<text text-anchor="start" x="147.5" y="-835.5" font-family="Helvetica,sans-Serif" font-size="10.00" fill="#000000">+ couldContain()</text>
<text text-anchor="start" x="147.5" y="-824.5" font-family="Helvetica,sans-Serif" font-size="10.00" fill="#000000">+ begin()</text>
<text text-anchor="start" x="147.5" y="-813.5" font-family="Helvetica,sans-Serif" font-size="10.00" fill="#000000">+ begin()</text>
<text text-anchor="start" x="147.5" y="-802.5" font-family="Helvetica,sans-Serif" font-size="10.00" fill="#000000">+ end()</text>
<text text-anchor="start" x="147.5" y="-791.5" font-family="Helvetica,sans-Serif" font-size="10.00" fill="#000000">+ end()</text>
<text text-anchor="start" x="147.5" y="-780.5" font-family="Helvetica,sans-Serif" font-size="10.00" fill="#000000">+ rbegin()</text>
<text text-anchor="start" x="147.5" y="-769.5" font-family="Helvetica,sans-Serif" font-size="10.00" fill="#000000">+ rbegin()</text>
<text text-anchor="start" x="147.5" y="-758.5" font-family="Helvetica,sans-Serif" font-size="10.00" fill="#000000">+ rend()</text>
<text text-anchor="start" x="147.5" y="-747.5" font-family="Helvetica,sans-Serif" font-size="10.00" fill="#000000">+ rend()</text>
<text text-anchor="start" x="147.5" y="-736.5" font-family="Helvetica,sans-Serif" font-size="10.00" fill="#000000">+ getFirst()</text>
<text text-anchor="start" x="147.5" y="-725.5" font-family="Helvetica,sans-Serif" font-size="10.00" fill="#000000">+ getLast()</text>
</a>
</g>
</g>
<!-- Node7&#45;&gt;Node5 -->
<g id="edge6" class="edge">
<title>Node7&#45;&gt;Node5</title>
<path fill="none" stroke="#404040" d="M189.7251,-718.3578C185.8391,-702.8651 181.9079,-687.1918 178.0954,-671.9922"/>
<polygon fill="none" stroke="#404040" points="177.9861,-671.556 172.6465,-666.7094 175.0665,-659.9165 180.4061,-664.7631 177.9861,-671.556"/>
<text text-anchor="middle" x="212.5" y="-692" font-family="Helvetica,sans-Serif" font-size="10.00" fill="#000000"> #updatables</text>
</g>
<!-- Node7&#45;&gt;Node8 -->
<g id="edge9" class="edge">
<title>Node7&#45;&gt;Node8</title>
<path fill="none" stroke="#404040" d="M222.3862,-995.7691C222.1155,-1009.364 221.8198,-1022.95 221.5,-1036 221.4492,-1038.0725 221.3966,-1040.1645 221.3423,-1042.2714"/>
<polygon fill="none" stroke="#404040" points="221.3369,-1042.4771 225.1747,-1048.5821 221.0153,-1054.4728 217.1775,-1048.3677 221.3369,-1042.4771"/>
<text text-anchor="middle" x="250.5" y="-1022.5" font-family="Helvetica,sans-Serif" font-size="10.00" fill="#000000"> #updatables</text>
</g>
<!-- Node8&#45;&gt;Node7 -->
<g id="edge7" class="edge">
<title>Node8&#45;&gt;Node7</title>
<path fill="none" stroke="#404040" d="M201.1082,-1054.2461C200.4768,-1048.0823 199.9308,-1041.9667 199.5,-1036 198.8327,-1026.7577 198.652,-1017.2658 198.8546,-1007.7048"/>
<polygon fill="none" stroke="#404040" points="198.8598,-1007.5625 195.0869,-1001.4172 199.3083,-995.5709 203.0813,-1001.7162 198.8598,-1007.5625"/>
<text text-anchor="middle" x="210.5" y="-1028" font-family="Helvetica,sans-Serif" font-size="10.00" fill="#000000"> &#45;last</text>
<text text-anchor="middle" x="210.5" y="-1017" font-family="Helvetica,sans-Serif" font-size="10.00" fill="#000000">&#45;first</text>
</g>
<!-- Node9 -->
<g id="node9" class="node">
<title>Node9</title>
<g id="a_node9"><a xlink:href="../../d3/d8b/structEmptySelectorCallback.html" target="_top" xlink:title="A callback for the GenericSelector class that does nothing.">
<polygon fill="#ffffff" stroke="#000000" points="208,-514.5 208,-593.5 327,-593.5 327,-514.5 208,-514.5"/>
<text text-anchor="middle" x="267.5" y="-581.5" font-family="Helvetica,sans-Serif" font-size="10.00" fill="#000000">EmptySelectorCallback</text>
<polyline fill="none" stroke="#000000" points="208,-574.5 327,-574.5 "/>
<text text-anchor="middle" x="267.5" y="-562.5" font-family="Helvetica,sans-Serif" font-size="10.00" fill="#000000"> </text>
<polyline fill="none" stroke="#000000" points="208,-555.5 327,-555.5 "/>
<text text-anchor="start" x="216" y="-543.5" font-family="Helvetica,sans-Serif" font-size="10.00" fill="#000000">+ begin()</text>
<text text-anchor="start" x="216" y="-532.5" font-family="Helvetica,sans-Serif" font-size="10.00" fill="#000000">+ update()</text>
<text text-anchor="start" x="216" y="-521.5" font-family="Helvetica,sans-Serif" font-size="10.00" fill="#000000">+ update()</text>
</a>
</g>
</g>
<!-- Node9&#45;&gt;Node3 -->
<g id="edge10" class="edge">
<title>Node9&#45;&gt;Node3</title>
<path fill="none" stroke="#404040" d="M254.3507,-514.4668C244.0352,-483.4532 229.3488,-439.2987 216.6614,-401.1542"/>
<polygon fill="none" stroke="#404040" points="216.5826,-400.9171 210.8934,-396.4862 212.7952,-389.5304 218.4845,-393.9613 216.5826,-400.9171"/>
<text text-anchor="middle" x="245.5" y="-411" font-family="Helvetica,sans-Serif" font-size="10.00" fill="#000000"> +callback</text>
</g>
<!-- Node10 -->
<g id="node10" class="node">
<title>Node10</title>
<g id="a_node10"><a xlink:href="../../d7/d83/classAH_1_1IncrementButton.html" target="_top" xlink:title="A class for buttons that increment some counter or setting.">
<polygon fill="#ffffff" stroke="#000000" points="329,-255.5 329,-389.5 456,-389.5 456,-255.5 329,-255.5"/>
<text text-anchor="middle" x="392.5" y="-377.5" font-family="Helvetica,sans-Serif" font-size="10.00" fill="#000000">IncrementButton</text>
<polyline fill="none" stroke="#000000" points="329,-370.5 456,-370.5 "/>
<text text-anchor="start" x="337" y="-358.5" font-family="Helvetica,sans-Serif" font-size="10.00" fill="#000000">&#45; longPressState</text>
<text text-anchor="start" x="337" y="-347.5" font-family="Helvetica,sans-Serif" font-size="10.00" fill="#000000">&#45; longPressRepeat</text>
<text text-anchor="start" x="337" y="-336.5" font-family="Helvetica,sans-Serif" font-size="10.00" fill="#000000">&#45; state</text>
<polyline fill="none" stroke="#000000" points="329,-329.5 456,-329.5 "/>
<text text-anchor="start" x="337" y="-317.5" font-family="Helvetica,sans-Serif" font-size="10.00" fill="#000000">+ IncrementButton()</text>
<text text-anchor="start" x="337" y="-306.5" font-family="Helvetica,sans-Serif" font-size="10.00" fill="#000000">+ begin()</text>
<text text-anchor="start" x="337" y="-295.5" font-family="Helvetica,sans-Serif" font-size="10.00" fill="#000000">+ update()</text>
<text text-anchor="start" x="337" y="-284.5" font-family="Helvetica,sans-Serif" font-size="10.00" fill="#000000">+ getState()</text>
<text text-anchor="start" x="337" y="-273.5" font-family="Helvetica,sans-Serif" font-size="10.00" fill="#000000">+ invert()</text>
<text text-anchor="start" x="337" y="-262.5" font-family="Helvetica,sans-Serif" font-size="10.00" fill="#000000"># updateImplementation()</text>
</a>
</g>
</g>
<!-- Node10&#45;&gt;Node2 -->
<g id="edge11" class="edge">
<title>Node10&#45;&gt;Node2</title>
<path fill="none" stroke="#404040" d="M340.0308,-255.1848C330.2886,-242.6861 320.1667,-229.7003 310.5972,-217.4232"/>
<polygon fill="none" stroke="#404040" points="310.4362,-217.2165 303.5927,-214.9433 303.059,-207.752 309.9024,-210.0252 310.4362,-217.2165"/>
<text text-anchor="middle" x="341.5" y="-229" font-family="Helvetica,sans-Serif" font-size="10.00" fill="#000000"> &#45;button</text>
</g>
<!-- Node11 -->
<g id="node11" class="node">
<title>Node11</title>
<g id="a_node11"><a xlink:href="../../de/d0d/classAH_1_1Button.html" target="_top" xlink:title="A class for reading and debouncing buttons and switches.">
<polygon fill="#ffffff" stroke="#000000" points="345,-437.5 345,-670.5 468,-670.5 468,-437.5 345,-437.5"/>
<text text-anchor="middle" x="406.5" y="-658.5" font-family="Helvetica,sans-Serif" font-size="10.00" fill="#000000">Button</text>
<polyline fill="none" stroke="#000000" points="345,-651.5 468,-651.5 "/>
<text text-anchor="start" x="353" y="-639.5" font-family="Helvetica,sans-Serif" font-size="10.00" fill="#000000">&#45; pin</text>
<text text-anchor="start" x="353" y="-628.5" font-family="Helvetica,sans-Serif" font-size="10.00" fill="#000000">&#45; prevInput</text>
<text text-anchor="start" x="353" y="-617.5" font-family="Helvetica,sans-Serif" font-size="10.00" fill="#000000">&#45; debouncedState</text>
<text text-anchor="start" x="353" y="-606.5" font-family="Helvetica,sans-Serif" font-size="10.00" fill="#000000">&#45; prevBounceTime</text>
<text text-anchor="start" x="353" y="-595.5" font-family="Helvetica,sans-Serif" font-size="10.00" fill="#000000">&#45; invertState</text>
<text text-anchor="start" x="353" y="-584.5" font-family="Helvetica,sans-Serif" font-size="10.00" fill="#000000">&#45; debounceTime</text>
<polyline fill="none" stroke="#000000" points="345,-577.5 468,-577.5 "/>
<text text-anchor="start" x="353" y="-565.5" font-family="Helvetica,sans-Serif" font-size="10.00" fill="#000000">+ Button()</text>
<text text-anchor="start" x="353" y="-554.5" font-family="Helvetica,sans-Serif" font-size="10.00" fill="#000000">+ Button()</text>
<text text-anchor="start" x="353" y="-543.5" font-family="Helvetica,sans-Serif" font-size="10.00" fill="#000000">+ begin()</text>
<text text-anchor="start" x="353" y="-532.5" font-family="Helvetica,sans-Serif" font-size="10.00" fill="#000000">+ invert()</text>
<text text-anchor="start" x="353" y="-521.5" font-family="Helvetica,sans-Serif" font-size="10.00" fill="#000000">+ update()</text>
<text text-anchor="start" x="353" y="-510.5" font-family="Helvetica,sans-Serif" font-size="10.00" fill="#000000">+ getState()</text>
<text text-anchor="start" x="353" y="-499.5" font-family="Helvetica,sans-Serif" font-size="10.00" fill="#000000">+ previousBounceTime()</text>
<text text-anchor="start" x="353" y="-488.5" font-family="Helvetica,sans-Serif" font-size="10.00" fill="#000000">+ stableTime()</text>
<text text-anchor="start" x="353" y="-477.5" font-family="Helvetica,sans-Serif" font-size="10.00" fill="#000000">+ stableTime()</text>
<text text-anchor="start" x="353" y="-466.5" font-family="Helvetica,sans-Serif" font-size="10.00" fill="#000000">+ getName()</text>
<text text-anchor="start" x="353" y="-455.5" font-family="Helvetica,sans-Serif" font-size="10.00" fill="#000000">+ setDebounceTime()</text>
<text text-anchor="start" x="353" y="-444.5" font-family="Helvetica,sans-Serif" font-size="10.00" fill="#000000">+ getDebounceTime()</text>
</a>
</g>
</g>
<!-- Node11&#45;&gt;Node10 -->
<g id="edge12" class="edge">
<title>Node11&#45;&gt;Node10</title>
<path fill="none" stroke="#404040" d="M399.4385,-437.2327C398.7148,-425.2669 397.9921,-413.3157 397.3012,-401.8905"/>
<polygon fill="none" stroke="#404040" points="397.2898,-401.7017 392.9349,-395.9541 396.5654,-389.7236 400.9203,-395.4711 397.2898,-401.7017"/>
<text text-anchor="middle" x="415.5" y="-411" font-family="Helvetica,sans-Serif" font-size="10.00" fill="#000000"> &#45;button</text>
</g>
</g>
</svg>
