<?xml version="1.0" encoding="UTF-8" standalone="no"?>
<!DOCTYPE svg PUBLIC "-//W3C//DTD SVG 1.1//EN"
 "http://www.w3.org/Graphics/SVG/1.1/DTD/svg11.dtd">
<!-- Generated by graphviz version 2.43.0 (0)
 -->
<!-- Title: SerialMIDI_Parser.hpp Pages: 1 -->
<svg width="618pt" height="140pt"
 viewBox="0.00 0.00 618.00 140.00" xmlns="http://www.w3.org/2000/svg" xmlns:xlink="http://www.w3.org/1999/xlink">
<g id="graph0" class="graph" transform="scale(1 1) rotate(0) translate(4 136)">
<title>SerialMIDI_Parser.hpp</title>
<polygon fill="white" stroke="transparent" points="-4,4 -4,-136 614,-136 614,4 -4,4"/>
<!-- Node1 -->
<g id="node1" class="node">
<title>Node1</title>
<g id="a_node1"><a xlink:title=" ">
<polygon fill="#bfbfbf" stroke="black" points="261,-112.5 261,-131.5 383,-131.5 383,-112.5 261,-112.5"/>
<text text-anchor="middle" x="322" y="-119.5" font-family="Helvetica,sans-Serif" font-size="10.00">SerialMIDI_Parser.hpp</text>
</a>
</g>
</g>
<!-- Node2 -->
<g id="node2" class="node">
<title>Node2</title>
<g id="a_node2"><a xlink:href="../../df/ded/BluetoothMIDI__Interface_8hpp.html" target="_top" xlink:title=" ">
<polygon fill="white" stroke="black" points="0,-56.5 0,-75.5 156,-75.5 156,-56.5 0,-56.5"/>
<text text-anchor="middle" x="78" y="-63.5" font-family="Helvetica,sans-Serif" font-size="10.00">BluetoothMIDI_Interface.hpp</text>
</a>
</g>
</g>
<!-- Node1&#45;&gt;Node2 -->
<g id="edge1" class="edge">
<title>Node1&#45;&gt;Node2</title>
<path fill="none" stroke="midnightblue" d="M273.57,-110.28C227.46,-100.08 158.97,-84.92 116.48,-75.52"/>
<polygon fill="midnightblue" stroke="midnightblue" points="272.82,-113.7 283.34,-112.44 274.33,-106.87 272.82,-113.7"/>
</g>
<!-- Node3 -->
<g id="node3" class="node">
<title>Node3</title>
<g id="a_node3"><a xlink:href="../../db/d55/DebugMIDI__Interface_8hpp.html" target="_top" xlink:title=" ">
<polygon fill="white" stroke="black" points="174,-56.5 174,-75.5 314,-75.5 314,-56.5 174,-56.5"/>
<text text-anchor="middle" x="244" y="-63.5" font-family="Helvetica,sans-Serif" font-size="10.00">DebugMIDI_Interface.hpp</text>
</a>
</g>
</g>
<!-- Node1&#45;&gt;Node3 -->
<g id="edge2" class="edge">
<title>Node1&#45;&gt;Node3</title>
<path fill="none" stroke="midnightblue" d="M301.23,-106.62C286.98,-96.76 268.54,-83.99 256.5,-75.65"/>
<polygon fill="midnightblue" stroke="midnightblue" points="299.25,-109.51 309.47,-112.32 303.24,-103.75 299.25,-109.51"/>
</g>
<!-- Node6 -->
<g id="node6" class="node">
<title>Node6</title>
<g id="a_node6"><a xlink:href="../../d1/d23/SerialMIDI__Interface_8hpp.html" target="_top" xlink:title=" ">
<polygon fill="white" stroke="black" points="332.5,-56.5 332.5,-75.5 469.5,-75.5 469.5,-56.5 332.5,-56.5"/>
<text text-anchor="middle" x="401" y="-63.5" font-family="Helvetica,sans-Serif" font-size="10.00">SerialMIDI_Interface.hpp</text>
</a>
</g>
</g>
<!-- Node1&#45;&gt;Node6 -->
<g id="edge5" class="edge">
<title>Node1&#45;&gt;Node6</title>
<path fill="none" stroke="midnightblue" d="M343.03,-106.62C357.47,-96.76 376.14,-83.99 388.34,-75.65"/>
<polygon fill="midnightblue" stroke="midnightblue" points="340.97,-103.79 334.69,-112.32 344.92,-109.57 340.97,-103.79"/>
</g>
<!-- Node8 -->
<g id="node8" class="node">
<title>Node8</title>
<g id="a_node8"><a xlink:href="../../d1/d49/SerialMIDI__Parser_8cpp.html" target="_top" xlink:title=" ">
<polygon fill="white" stroke="black" points="488,-56.5 488,-75.5 610,-75.5 610,-56.5 488,-56.5"/>
<text text-anchor="middle" x="549" y="-63.5" font-family="Helvetica,sans-Serif" font-size="10.00">SerialMIDI_Parser.cpp</text>
</a>
</g>
</g>
<!-- Node1&#45;&gt;Node8 -->
<g id="edge8" class="edge">
<title>Node1&#45;&gt;Node8</title>
<path fill="none" stroke="midnightblue" d="M367.87,-110.09C410.75,-99.89 473.92,-84.86 513.2,-75.52"/>
<polygon fill="midnightblue" stroke="midnightblue" points="366.89,-106.72 357.97,-112.44 368.51,-113.53 366.89,-106.72"/>
</g>
<!-- Node4 -->
<g id="node4" class="node">
<title>Node4</title>
<g id="a_node4"><a xlink:href="../../db/dbf/Control__Surface_8h.html" target="_top" xlink:title="The main header file that includes all Control&#45;Surface header files.">
<polygon fill="white" stroke="black" points="271.5,-0.5 271.5,-19.5 374.5,-19.5 374.5,-0.5 271.5,-0.5"/>
<text text-anchor="middle" x="323" y="-7.5" font-family="Helvetica,sans-Serif" font-size="10.00">Control_Surface.h</text>
</a>
</g>
</g>
<!-- Node3&#45;&gt;Node4 -->
<g id="edge3" class="edge">
<title>Node3&#45;&gt;Node4</title>
<path fill="none" stroke="midnightblue" d="M265.03,-50.62C279.47,-40.76 298.14,-27.99 310.34,-19.65"/>
<polygon fill="midnightblue" stroke="midnightblue" points="262.97,-47.79 256.69,-56.32 266.92,-53.57 262.97,-47.79"/>
</g>
<!-- Node5 -->
<g id="node5" class="node">
<title>Node5</title>
<g id="a_node5"><a xlink:href="../../d1/d40/DebugMIDI__Interface_8cpp.html" target="_top" xlink:title=" ">
<polygon fill="white" stroke="black" points="113,-0.5 113,-19.5 253,-19.5 253,-0.5 113,-0.5"/>
<text text-anchor="middle" x="183" y="-7.5" font-family="Helvetica,sans-Serif" font-size="10.00">DebugMIDI_Interface.cpp</text>
</a>
</g>
</g>
<!-- Node3&#45;&gt;Node5 -->
<g id="edge4" class="edge">
<title>Node3&#45;&gt;Node5</title>
<path fill="none" stroke="midnightblue" d="M226.53,-49.54C215.66,-39.91 202.06,-27.87 192.98,-19.83"/>
<polygon fill="midnightblue" stroke="midnightblue" points="224.39,-52.32 234.2,-56.32 229.03,-47.07 224.39,-52.32"/>
</g>
<!-- Node6&#45;&gt;Node4 -->
<g id="edge6" class="edge">
<title>Node6&#45;&gt;Node4</title>
<path fill="none" stroke="midnightblue" d="M380.23,-50.62C365.98,-40.76 347.54,-27.99 335.5,-19.65"/>
<polygon fill="midnightblue" stroke="midnightblue" points="378.25,-53.51 388.47,-56.32 382.24,-47.75 378.25,-53.51"/>
</g>
<!-- Node7 -->
<g id="node7" class="node">
<title>Node7</title>
<g id="a_node7"><a xlink:href="../../d5/db6/SerialMIDI__Interface_8cpp.html" target="_top" xlink:title=" ">
<polygon fill="white" stroke="black" points="393,-0.5 393,-19.5 529,-19.5 529,-0.5 393,-0.5"/>
<text text-anchor="middle" x="461" y="-7.5" font-family="Helvetica,sans-Serif" font-size="10.00">SerialMIDI_Interface.cpp</text>
</a>
</g>
</g>
<!-- Node6&#45;&gt;Node7 -->
<g id="edge7" class="edge">
<title>Node6&#45;&gt;Node7</title>
<path fill="none" stroke="midnightblue" d="M418.18,-49.54C428.88,-39.91 442.26,-27.87 451.18,-19.83"/>
<polygon fill="midnightblue" stroke="midnightblue" points="415.73,-47.03 410.64,-56.32 420.41,-52.24 415.73,-47.03"/>
</g>
</g>
</svg>
