<?xml version="1.0" encoding="UTF-8" standalone="no"?>
<!DOCTYPE svg PUBLIC "-//W3C//DTD SVG 1.1//EN"
 "http://www.w3.org/Graphics/SVG/1.1/DTD/svg11.dtd">
<!-- Generated by graphviz version 2.43.0 (0)
 -->
<!-- Title: ProgramChangeSelector&lt; N &gt; Pages: 1 -->
<svg width="467pt" height="1108pt"
 viewBox="0.00 0.00 467.00 1108.00" xmlns="http://www.w3.org/2000/svg" xmlns:xlink="http://www.w3.org/1999/xlink">
<g id="graph0" class="graph" transform="scale(1 1) rotate(0) translate(4 1104)">
<title>ProgramChangeSelector&lt; N &gt;</title>
<polygon fill="white" stroke="transparent" points="-4,4 -4,-1104 463,-1104 463,4 -4,4"/>
<!-- Node1 -->
<g id="node1" class="node">
<title>Node1</title>
<g id="a_node1"><a xlink:title="Selector that listens for MIDI Program Change events on a given MIDI Channel, and uses the program nu...">
<polygon fill="#bfbfbf" stroke="black" points="192.5,-0.5 192.5,-57.5 356.5,-57.5 356.5,-0.5 192.5,-0.5"/>
<text text-anchor="middle" x="274.5" y="-45.5" font-family="Helvetica,sans-Serif" font-size="10.00">ProgramChangeSelector&lt; N &gt;</text>
<polyline fill="none" stroke="black" points="192.5,-38.5 356.5,-38.5 "/>
<text text-anchor="middle" x="274.5" y="-26.5" font-family="Helvetica,sans-Serif" font-size="10.00"> </text>
<polyline fill="none" stroke="black" points="192.5,-19.5 356.5,-19.5 "/>
<text text-anchor="start" x="200.5" y="-7.5" font-family="Helvetica,sans-Serif" font-size="10.00">+ ProgramChangeSelector()</text>
</a>
</g>
</g>
<!-- Node2 -->
<g id="node2" class="node">
<title>Node2</title>
<g id="a_node2"><a xlink:href="../../d1/d0b/classGenericProgramChangeSelector.html" target="_top" xlink:title=" ">
<polygon fill="white" stroke="black" points="179,-94.5 179,-195.5 370,-195.5 370,-94.5 179,-94.5"/>
<text text-anchor="start" x="187" y="-183.5" font-family="Helvetica,sans-Serif" font-size="10.00">GenericProgramChangeSelector</text>
<text text-anchor="middle" x="274.5" y="-172.5" font-family="Helvetica,sans-Serif" font-size="10.00">&lt; N, Callback &gt;</text>
<polyline fill="none" stroke="black" points="179,-165.5 370,-165.5 "/>
<text text-anchor="middle" x="274.5" y="-153.5" font-family="Helvetica,sans-Serif" font-size="10.00"> </text>
<polyline fill="none" stroke="black" points="179,-146.5 370,-146.5 "/>
<text text-anchor="start" x="187" y="-134.5" font-family="Helvetica,sans-Serif" font-size="10.00">+ GenericProgramChangeSelector()</text>
<text text-anchor="start" x="187" y="-123.5" font-family="Helvetica,sans-Serif" font-size="10.00">+ begin()</text>
<text text-anchor="start" x="187" y="-112.5" font-family="Helvetica,sans-Serif" font-size="10.00">+ reset()</text>
<text text-anchor="start" x="187" y="-101.5" font-family="Helvetica,sans-Serif" font-size="10.00">+ handleUpdate()</text>
</a>
</g>
</g>
<!-- Node2&#45;&gt;Node1 -->
<g id="edge1" class="edge">
<title>Node2&#45;&gt;Node1</title>
<path fill="none" stroke="midnightblue" d="M274.5,-84.23C274.5,-74.92 274.5,-65.71 274.5,-57.59"/>
<polygon fill="none" stroke="midnightblue" points="271,-84.33 274.5,-94.33 278,-84.33 271,-84.33"/>
</g>
<!-- Node3 -->
<g id="node3" class="node">
<title>Node3</title>
<g id="a_node3"><a xlink:href="../../d0/d04/classGenericSelector.html" target="_top" xlink:title=" ">
<polygon fill="white" stroke="black" points="111.5,-232.5 111.5,-377.5 255.5,-377.5 255.5,-232.5 111.5,-232.5"/>
<text text-anchor="start" x="119.5" y="-365.5" font-family="Helvetica,sans-Serif" font-size="10.00">GenericSelector&lt; N,</text>
<text text-anchor="middle" x="183.5" y="-354.5" font-family="Helvetica,sans-Serif" font-size="10.00"> EmptySelectorCallback &gt;</text>
<polyline fill="none" stroke="black" points="111.5,-347.5 255.5,-347.5 "/>
<text text-anchor="start" x="119.5" y="-335.5" font-family="Helvetica,sans-Serif" font-size="10.00">+ callback</text>
<text text-anchor="start" x="119.5" y="-324.5" font-family="Helvetica,sans-Serif" font-size="10.00">&#45; selectable</text>
<polyline fill="none" stroke="black" points="111.5,-317.5 255.5,-317.5 "/>
<text text-anchor="start" x="119.5" y="-305.5" font-family="Helvetica,sans-Serif" font-size="10.00">+ GenericSelector()</text>
<text text-anchor="start" x="119.5" y="-294.5" font-family="Helvetica,sans-Serif" font-size="10.00">+ begin()</text>
<text text-anchor="start" x="119.5" y="-283.5" font-family="Helvetica,sans-Serif" font-size="10.00">+ update()</text>
<text text-anchor="start" x="119.5" y="-272.5" font-family="Helvetica,sans-Serif" font-size="10.00">+ reset()</text>
<text text-anchor="start" x="119.5" y="-261.5" font-family="Helvetica,sans-Serif" font-size="10.00">+ set()</text>
<text text-anchor="start" x="119.5" y="-250.5" font-family="Helvetica,sans-Serif" font-size="10.00">+ increment()</text>
<text text-anchor="start" x="119.5" y="-239.5" font-family="Helvetica,sans-Serif" font-size="10.00">+ decrement()</text>
</a>
</g>
</g>
<!-- Node3&#45;&gt;Node2 -->
<g id="edge2" class="edge">
<title>Node3&#45;&gt;Node2</title>
<path fill="none" stroke="midnightblue" d="M229.78,-223.65C235.27,-214.11 240.75,-204.6 245.89,-195.67"/>
<polygon fill="none" stroke="midnightblue" points="226.7,-221.98 224.74,-232.4 232.76,-225.48 226.7,-221.98"/>
</g>
<!-- Node4 -->
<g id="node4" class="node">
<title>Node4</title>
<g id="a_node4"><a xlink:href="../../dc/d77/classSelectorBase.html" target="_top" xlink:title="Base class for all Selectors exposing the get method, so it can be used by display elements etc,...">
<polygon fill="white" stroke="black" points="0,-458.5 0,-526.5 99,-526.5 99,-458.5 0,-458.5"/>
<text text-anchor="middle" x="49.5" y="-514.5" font-family="Helvetica,sans-Serif" font-size="10.00">SelectorBase</text>
<polyline fill="none" stroke="black" points="0,-507.5 99,-507.5 "/>
<text text-anchor="start" x="8" y="-495.5" font-family="Helvetica,sans-Serif" font-size="10.00"># setting</text>
<polyline fill="none" stroke="black" points="0,-488.5 99,-488.5 "/>
<text text-anchor="start" x="8" y="-476.5" font-family="Helvetica,sans-Serif" font-size="10.00">+ get()</text>
<text text-anchor="start" x="8" y="-465.5" font-family="Helvetica,sans-Serif" font-size="10.00"># SelectorBase()</text>
</a>
</g>
</g>
<!-- Node4&#45;&gt;Node3 -->
<g id="edge3" class="edge">
<title>Node4&#45;&gt;Node3</title>
<path fill="none" stroke="midnightblue" d="M79.37,-450.15C94.77,-428.83 113.99,-402.22 131.71,-377.69"/>
<polygon fill="none" stroke="midnightblue" points="76.48,-448.18 73.46,-458.34 82.15,-452.28 76.48,-448.18"/>
</g>
<!-- Node5 -->
<g id="node5" class="node">
<title>Node5</title>
<g id="a_node5"><a xlink:href="../../d1/d55/classAH_1_1Updatable.html" target="_top" xlink:title="A super class for object that have to be updated regularly.">
<polygon fill="white" stroke="black" points="117,-447.5 117,-537.5 274,-537.5 274,-447.5 117,-447.5"/>
<text text-anchor="middle" x="195.5" y="-525.5" font-family="Helvetica,sans-Serif" font-size="10.00">Updatable&lt; T, ThreadSafe &gt;</text>
<polyline fill="none" stroke="black" points="117,-518.5 274,-518.5 "/>
<text text-anchor="middle" x="195.5" y="-506.5" font-family="Helvetica,sans-Serif" font-size="10.00"> </text>
<polyline fill="none" stroke="black" points="117,-499.5 274,-499.5 "/>
<text text-anchor="start" x="125" y="-487.5" font-family="Helvetica,sans-Serif" font-size="10.00">* begin()</text>
<text text-anchor="start" x="125" y="-476.5" font-family="Helvetica,sans-Serif" font-size="10.00">* update()</text>
<text text-anchor="start" x="125" y="-465.5" font-family="Helvetica,sans-Serif" font-size="10.00">* beginAll()</text>
<text text-anchor="start" x="125" y="-454.5" font-family="Helvetica,sans-Serif" font-size="10.00">* updateAll()</text>
</a>
</g>
</g>
<!-- Node5&#45;&gt;Node3 -->
<g id="edge4" class="edge">
<title>Node5&#45;&gt;Node3</title>
<path fill="none" stroke="midnightblue" d="M191.98,-437.02C190.77,-418.42 189.41,-397.33 188.13,-377.59"/>
<polygon fill="none" stroke="midnightblue" points="188.49,-437.31 192.63,-447.07 195.47,-436.86 188.49,-437.31"/>
</g>
<!-- Node6 -->
<g id="node6" class="node">
<title>Node6</title>
<g id="a_node6"><a xlink:href="../../d8/d1a/classAH_1_1UpdatableCRTP.html" target="_top" xlink:title=" ">
<polygon fill="white" stroke="black" points="119,-607.5 119,-939.5 272,-939.5 272,-607.5 119,-607.5"/>
<text text-anchor="start" x="127" y="-927.5" font-family="Helvetica,sans-Serif" font-size="10.00">UpdatableCRTP&lt; Updatable</text>
<text text-anchor="start" x="127" y="-916.5" font-family="Helvetica,sans-Serif" font-size="10.00">&lt; NormalUpdatable, false</text>
<text text-anchor="middle" x="195.5" y="-905.5" font-family="Helvetica,sans-Serif" font-size="10.00"> &gt;, false &gt;</text>
<polyline fill="none" stroke="black" points="119,-898.5 272,-898.5 "/>
<text text-anchor="start" x="127" y="-886.5" font-family="Helvetica,sans-Serif" font-size="10.00"># updatables</text>
<text text-anchor="start" x="127" y="-875.5" font-family="Helvetica,sans-Serif" font-size="10.00"># mutex</text>
<polyline fill="none" stroke="black" points="119,-868.5 272,-868.5 "/>
<text text-anchor="start" x="127" y="-856.5" font-family="Helvetica,sans-Serif" font-size="10.00">+ ~UpdatableCRTP()</text>
<text text-anchor="start" x="127" y="-845.5" font-family="Helvetica,sans-Serif" font-size="10.00">+ getMutex()</text>
<text text-anchor="start" x="127" y="-834.5" font-family="Helvetica,sans-Serif" font-size="10.00"># UpdatableCRTP()</text>
<text text-anchor="start" x="127" y="-823.5" font-family="Helvetica,sans-Serif" font-size="10.00"># UpdatableCRTP()</text>
<text text-anchor="start" x="127" y="-812.5" font-family="Helvetica,sans-Serif" font-size="10.00"># UpdatableCRTP()</text>
<text text-anchor="start" x="127" y="-801.5" font-family="Helvetica,sans-Serif" font-size="10.00"># operator=()</text>
<text text-anchor="start" x="127" y="-790.5" font-family="Helvetica,sans-Serif" font-size="10.00"># operator=()</text>
<text text-anchor="start" x="127" y="-779.5" font-family="Helvetica,sans-Serif" font-size="10.00">* method</text>
<text text-anchor="start" x="127" y="-768.5" font-family="Helvetica,sans-Serif" font-size="10.00">* args</text>
<text text-anchor="start" x="127" y="-757.5" font-family="Helvetica,sans-Serif" font-size="10.00">* enable()</text>
<text text-anchor="start" x="127" y="-746.5" font-family="Helvetica,sans-Serif" font-size="10.00">* enable()</text>
<text text-anchor="start" x="127" y="-735.5" font-family="Helvetica,sans-Serif" font-size="10.00">* disable()</text>
<text text-anchor="start" x="127" y="-724.5" font-family="Helvetica,sans-Serif" font-size="10.00">* disable()</text>
<text text-anchor="start" x="127" y="-713.5" font-family="Helvetica,sans-Serif" font-size="10.00">* isEnabled()</text>
<text text-anchor="start" x="127" y="-702.5" font-family="Helvetica,sans-Serif" font-size="10.00">* isEnabled()</text>
<text text-anchor="start" x="127" y="-691.5" font-family="Helvetica,sans-Serif" font-size="10.00">* moveDown()</text>
<text text-anchor="start" x="127" y="-680.5" font-family="Helvetica,sans-Serif" font-size="10.00">* moveDown()</text>
<text text-anchor="start" x="127" y="-669.5" font-family="Helvetica,sans-Serif" font-size="10.00">* enable()</text>
<text text-anchor="start" x="127" y="-658.5" font-family="Helvetica,sans-Serif" font-size="10.00">* enable()</text>
<text text-anchor="start" x="127" y="-647.5" font-family="Helvetica,sans-Serif" font-size="10.00">* enable()</text>
<text text-anchor="start" x="127" y="-636.5" font-family="Helvetica,sans-Serif" font-size="10.00">* disable()</text>
<text text-anchor="start" x="127" y="-625.5" font-family="Helvetica,sans-Serif" font-size="10.00">* disable()</text>
<text text-anchor="start" x="127" y="-614.5" font-family="Helvetica,sans-Serif" font-size="10.00">* disable()</text>
</a>
</g>
</g>
<!-- Node6&#45;&gt;Node5 -->
<g id="edge5" class="edge">
<title>Node6&#45;&gt;Node5</title>
<path fill="none" stroke="midnightblue" d="M195.5,-597.23C195.5,-575.32 195.5,-554.67 195.5,-537.65"/>
<polygon fill="none" stroke="midnightblue" points="192,-597.38 195.5,-607.38 199,-597.38 192,-597.38"/>
</g>
<!-- Node7 -->
<g id="node7" class="node">
<title>Node7</title>
<g id="a_node7"><a xlink:href="../../d4/d23/classDoublyLinkable.html" target="_top" xlink:title="A class that can be inherited from to allow inserting into a DoublyLinkedList.">
<polygon fill="white" stroke="black" points="210.5,-976.5 210.5,-1099.5 350.5,-1099.5 350.5,-976.5 210.5,-976.5"/>
<text text-anchor="middle" x="280.5" y="-1087.5" font-family="Helvetica,sans-Serif" font-size="10.00">DoublyLinkable&lt; Node &gt;</text>
<polyline fill="none" stroke="black" points="210.5,-1080.5 350.5,-1080.5 "/>
<text text-anchor="start" x="218.5" y="-1068.5" font-family="Helvetica,sans-Serif" font-size="10.00"># next</text>
<text text-anchor="start" x="218.5" y="-1057.5" font-family="Helvetica,sans-Serif" font-size="10.00"># previous</text>
<polyline fill="none" stroke="black" points="210.5,-1050.5 350.5,-1050.5 "/>
<text text-anchor="start" x="218.5" y="-1038.5" font-family="Helvetica,sans-Serif" font-size="10.00"># ~DoublyLinkable()</text>
<text text-anchor="start" x="218.5" y="-1027.5" font-family="Helvetica,sans-Serif" font-size="10.00"># DoublyLinkable()</text>
<text text-anchor="start" x="218.5" y="-1016.5" font-family="Helvetica,sans-Serif" font-size="10.00"># DoublyLinkable()</text>
<text text-anchor="start" x="218.5" y="-1005.5" font-family="Helvetica,sans-Serif" font-size="10.00"># operator=()</text>
<text text-anchor="start" x="218.5" y="-994.5" font-family="Helvetica,sans-Serif" font-size="10.00"># DoublyLinkable()</text>
<text text-anchor="start" x="218.5" y="-983.5" font-family="Helvetica,sans-Serif" font-size="10.00"># operator=()</text>
</a>
</g>
</g>
<!-- Node7&#45;&gt;Node6 -->
<g id="edge6" class="edge">
<title>Node7&#45;&gt;Node6</title>
<path fill="none" stroke="midnightblue" d="M257.79,-966.85C254.97,-958.17 252.01,-949.03 248.97,-939.64"/>
<polygon fill="none" stroke="midnightblue" points="254.48,-968.01 260.89,-976.45 261.14,-965.86 254.48,-968.01"/>
</g>
<!-- Node10 -->
<g id="node10" class="node">
<title>Node10</title>
<g id="a_node10"><a xlink:href="../../d8/d1a/classAH_1_1UpdatableCRTP.html" target="_top" xlink:title=" ">
<polygon fill="white" stroke="black" points="290.5,-613 290.5,-934 440.5,-934 440.5,-613 290.5,-613"/>
<text text-anchor="start" x="298.5" y="-922" font-family="Helvetica,sans-Serif" font-size="10.00">UpdatableCRTP&lt; MIDIInput</text>
<text text-anchor="middle" x="365.5" y="-911" font-family="Helvetica,sans-Serif" font-size="10.00">Element&lt; Type &gt;, true &gt;</text>
<polyline fill="none" stroke="black" points="290.5,-904 440.5,-904 "/>
<text text-anchor="start" x="298.5" y="-892" font-family="Helvetica,sans-Serif" font-size="10.00"># updatables</text>
<text text-anchor="start" x="298.5" y="-881" font-family="Helvetica,sans-Serif" font-size="10.00"># mutex</text>
<polyline fill="none" stroke="black" points="290.5,-874 440.5,-874 "/>
<text text-anchor="start" x="298.5" y="-862" font-family="Helvetica,sans-Serif" font-size="10.00">+ ~UpdatableCRTP()</text>
<text text-anchor="start" x="298.5" y="-851" font-family="Helvetica,sans-Serif" font-size="10.00">+ getMutex()</text>
<text text-anchor="start" x="298.5" y="-840" font-family="Helvetica,sans-Serif" font-size="10.00"># UpdatableCRTP()</text>
<text text-anchor="start" x="298.5" y="-829" font-family="Helvetica,sans-Serif" font-size="10.00"># UpdatableCRTP()</text>
<text text-anchor="start" x="298.5" y="-818" font-family="Helvetica,sans-Serif" font-size="10.00"># UpdatableCRTP()</text>
<text text-anchor="start" x="298.5" y="-807" font-family="Helvetica,sans-Serif" font-size="10.00"># operator=()</text>
<text text-anchor="start" x="298.5" y="-796" font-family="Helvetica,sans-Serif" font-size="10.00"># operator=()</text>
<text text-anchor="start" x="298.5" y="-785" font-family="Helvetica,sans-Serif" font-size="10.00">* method</text>
<text text-anchor="start" x="298.5" y="-774" font-family="Helvetica,sans-Serif" font-size="10.00">* args</text>
<text text-anchor="start" x="298.5" y="-763" font-family="Helvetica,sans-Serif" font-size="10.00">* enable()</text>
<text text-anchor="start" x="298.5" y="-752" font-family="Helvetica,sans-Serif" font-size="10.00">* enable()</text>
<text text-anchor="start" x="298.5" y="-741" font-family="Helvetica,sans-Serif" font-size="10.00">* disable()</text>
<text text-anchor="start" x="298.5" y="-730" font-family="Helvetica,sans-Serif" font-size="10.00">* disable()</text>
<text text-anchor="start" x="298.5" y="-719" font-family="Helvetica,sans-Serif" font-size="10.00">* isEnabled()</text>
<text text-anchor="start" x="298.5" y="-708" font-family="Helvetica,sans-Serif" font-size="10.00">* isEnabled()</text>
<text text-anchor="start" x="298.5" y="-697" font-family="Helvetica,sans-Serif" font-size="10.00">* moveDown()</text>
<text text-anchor="start" x="298.5" y="-686" font-family="Helvetica,sans-Serif" font-size="10.00">* moveDown()</text>
<text text-anchor="start" x="298.5" y="-675" font-family="Helvetica,sans-Serif" font-size="10.00">* enable()</text>
<text text-anchor="start" x="298.5" y="-664" font-family="Helvetica,sans-Serif" font-size="10.00">* enable()</text>
<text text-anchor="start" x="298.5" y="-653" font-family="Helvetica,sans-Serif" font-size="10.00">* enable()</text>
<text text-anchor="start" x="298.5" y="-642" font-family="Helvetica,sans-Serif" font-size="10.00">* disable()</text>
<text text-anchor="start" x="298.5" y="-631" font-family="Helvetica,sans-Serif" font-size="10.00">* disable()</text>
<text text-anchor="start" x="298.5" y="-620" font-family="Helvetica,sans-Serif" font-size="10.00">* disable()</text>
</a>
</g>
</g>
<!-- Node7&#45;&gt;Node10 -->
<g id="edge10" class="edge">
<title>Node7&#45;&gt;Node10</title>
<path fill="none" stroke="midnightblue" d="M303.24,-966.77C306.58,-956.45 310.13,-945.48 313.78,-934.23"/>
<polygon fill="none" stroke="midnightblue" points="299.86,-965.86 300.11,-976.45 306.52,-968.01 299.86,-965.86"/>
</g>
<!-- Node8 -->
<g id="node8" class="node">
<title>Node8</title>
<g id="a_node8"><a xlink:href="../../d5/dae/classMatchingMIDIInputElement.html" target="_top" xlink:title=" ">
<polygon fill="white" stroke="black" points="274,-254.5 274,-355.5 459,-355.5 459,-254.5 274,-254.5"/>
<text text-anchor="start" x="282" y="-343.5" font-family="Helvetica,sans-Serif" font-size="10.00">MatchingMIDIInputElement</text>
<text text-anchor="start" x="282" y="-332.5" font-family="Helvetica,sans-Serif" font-size="10.00">&lt; MIDIMessageType::PROGRAM</text>
<text text-anchor="middle" x="366.5" y="-321.5" font-family="Helvetica,sans-Serif" font-size="10.00">_CHANGE, OneByteMIDIMatcher &gt;</text>
<polyline fill="none" stroke="black" points="274,-314.5 459,-314.5 "/>
<text text-anchor="start" x="282" y="-302.5" font-family="Helvetica,sans-Serif" font-size="10.00"># matcher</text>
<polyline fill="none" stroke="black" points="274,-295.5 459,-295.5 "/>
<text text-anchor="start" x="282" y="-283.5" font-family="Helvetica,sans-Serif" font-size="10.00">+ updateWith()</text>
<text text-anchor="start" x="282" y="-272.5" font-family="Helvetica,sans-Serif" font-size="10.00">+ handleUpdate()</text>
<text text-anchor="start" x="282" y="-261.5" font-family="Helvetica,sans-Serif" font-size="10.00"># MatchingMIDIInputElement()</text>
</a>
</g>
</g>
<!-- Node8&#45;&gt;Node2 -->
<g id="edge7" class="edge">
<title>Node8&#45;&gt;Node2</title>
<path fill="none" stroke="midnightblue" d="M332.43,-245.49C322.89,-229.11 312.62,-211.47 303.41,-195.65"/>
<polygon fill="none" stroke="midnightblue" points="329.59,-247.56 337.64,-254.44 335.64,-244.04 329.59,-247.56"/>
</g>
<!-- Node9 -->
<g id="node9" class="node">
<title>Node9</title>
<g id="a_node9"><a xlink:href="../../d9/db1/classMIDIInputElement.html" target="_top" xlink:title="A class for objects that listen for incoming MIDI events.">
<polygon fill="white" stroke="black" points="292,-414.5 292,-570.5 441,-570.5 441,-414.5 292,-414.5"/>
<text text-anchor="middle" x="366.5" y="-558.5" font-family="Helvetica,sans-Serif" font-size="10.00">MIDIInputElement&lt; Type &gt;</text>
<polyline fill="none" stroke="black" points="292,-551.5 441,-551.5 "/>
<text text-anchor="middle" x="366.5" y="-539.5" font-family="Helvetica,sans-Serif" font-size="10.00"> </text>
<polyline fill="none" stroke="black" points="292,-532.5 441,-532.5 "/>
<text text-anchor="start" x="300" y="-520.5" font-family="Helvetica,sans-Serif" font-size="10.00">+ ~MIDIInputElement()</text>
<text text-anchor="start" x="300" y="-509.5" font-family="Helvetica,sans-Serif" font-size="10.00">+ begin()</text>
<text text-anchor="start" x="300" y="-498.5" font-family="Helvetica,sans-Serif" font-size="10.00">+ reset()</text>
<text text-anchor="start" x="300" y="-487.5" font-family="Helvetica,sans-Serif" font-size="10.00">+ update()</text>
<text text-anchor="start" x="300" y="-476.5" font-family="Helvetica,sans-Serif" font-size="10.00">+ updateWith()</text>
<text text-anchor="start" x="300" y="-465.5" font-family="Helvetica,sans-Serif" font-size="10.00">+ updateAllWith()</text>
<text text-anchor="start" x="300" y="-454.5" font-family="Helvetica,sans-Serif" font-size="10.00">+ updateAll()</text>
<text text-anchor="start" x="300" y="-443.5" font-family="Helvetica,sans-Serif" font-size="10.00">+ beginAll()</text>
<text text-anchor="start" x="300" y="-432.5" font-family="Helvetica,sans-Serif" font-size="10.00">+ resetAll()</text>
<text text-anchor="start" x="300" y="-421.5" font-family="Helvetica,sans-Serif" font-size="10.00"># MIDIInputElement()</text>
</a>
</g>
</g>
<!-- Node9&#45;&gt;Node8 -->
<g id="edge8" class="edge">
<title>Node9&#45;&gt;Node8</title>
<path fill="none" stroke="midnightblue" d="M366.5,-404.11C366.5,-387.43 366.5,-370.52 366.5,-355.55"/>
<polygon fill="none" stroke="midnightblue" points="363,-404.44 366.5,-414.44 370,-404.44 363,-404.44"/>
</g>
<!-- Node10&#45;&gt;Node9 -->
<g id="edge9" class="edge">
<title>Node10&#45;&gt;Node9</title>
<path fill="none" stroke="midnightblue" d="M366.11,-602.5C366.15,-591.54 366.19,-580.85 366.22,-570.71"/>
<polygon fill="none" stroke="midnightblue" points="362.61,-602.62 366.07,-612.63 369.61,-602.64 362.61,-602.62"/>
</g>
</g>
</svg>
