<?xml version="1.0" encoding="UTF-8" standalone="no"?>
<!DOCTYPE svg PUBLIC "-//W3C//DTD SVG 1.1//EN"
 "http://www.w3.org/Graphics/SVG/1.1/DTD/svg11.dtd">
<!-- Generated by graphviz version 2.43.0 (0)
 -->
<!-- Title: CCButtonMatrix&lt; NumRows, NumCols &gt; Pages: 1 -->
<svg width="355pt" height="959pt"
 viewBox="0.00 0.00 355.00 959.00" xmlns="http://www.w3.org/2000/svg" xmlns:xlink="http://www.w3.org/1999/xlink">
<g id="graph0" class="graph" transform="scale(1 1) rotate(0) translate(4 955)">
<title>CCButtonMatrix&lt; NumRows, NumCols &gt;</title>
<polygon fill="white" stroke="transparent" points="-4,4 -4,-955 351,-955 351,4 -4,4"/>
<!-- Node1 -->
<g id="node1" class="node">
<title>Node1</title>
<g id="a_node1"><a xlink:title="A class of MIDIOutputElements that read the input from a matrix of momentary push buttons or switches...">
<polygon fill="#bfbfbf" stroke="black" points="88.5,-0.5 88.5,-68.5 246.5,-68.5 246.5,-0.5 88.5,-0.5"/>
<text text-anchor="start" x="96.5" y="-56.5" font-family="Helvetica,sans-Serif" font-size="10.00">CCButtonMatrix&lt; NumRows,</text>
<text text-anchor="middle" x="167.5" y="-45.5" font-family="Helvetica,sans-Serif" font-size="10.00"> NumCols &gt;</text>
<polyline fill="none" stroke="black" points="88.5,-38.5 246.5,-38.5 "/>
<text text-anchor="middle" x="167.5" y="-26.5" font-family="Helvetica,sans-Serif" font-size="10.00"> </text>
<polyline fill="none" stroke="black" points="88.5,-19.5 246.5,-19.5 "/>
<text text-anchor="start" x="96.5" y="-7.5" font-family="Helvetica,sans-Serif" font-size="10.00">+ CCButtonMatrix()</text>
</a>
</g>
</g>
<!-- Node2 -->
<g id="node2" class="node">
<title>Node2</title>
<g id="a_node2"><a xlink:href="../../d0/d54/classMIDIButtonMatrix.html" target="_top" xlink:title=" ">
<polygon fill="white" stroke="black" points="77,-105.5 77,-228.5 258,-228.5 258,-105.5 77,-105.5"/>
<text text-anchor="start" x="85" y="-216.5" font-family="Helvetica,sans-Serif" font-size="10.00">MIDIButtonMatrix&lt; Digital</text>
<text text-anchor="middle" x="167.5" y="-205.5" font-family="Helvetica,sans-Serif" font-size="10.00">CCSender, NumRows, NumCols &gt;</text>
<polyline fill="none" stroke="black" points="77,-198.5 258,-198.5 "/>
<text text-anchor="start" x="85" y="-186.5" font-family="Helvetica,sans-Serif" font-size="10.00">+ sender</text>
<text text-anchor="start" x="85" y="-175.5" font-family="Helvetica,sans-Serif" font-size="10.00">&#45; addresses</text>
<text text-anchor="start" x="85" y="-164.5" font-family="Helvetica,sans-Serif" font-size="10.00">&#45; baseChannelCN</text>
<polyline fill="none" stroke="black" points="77,-157.5 258,-157.5 "/>
<text text-anchor="start" x="85" y="-145.5" font-family="Helvetica,sans-Serif" font-size="10.00">+ begin()</text>
<text text-anchor="start" x="85" y="-134.5" font-family="Helvetica,sans-Serif" font-size="10.00">+ update()</text>
<text text-anchor="start" x="85" y="-123.5" font-family="Helvetica,sans-Serif" font-size="10.00"># MIDIButtonMatrix()</text>
<text text-anchor="start" x="85" y="-112.5" font-family="Helvetica,sans-Serif" font-size="10.00">&#45; onButtonChanged()</text>
</a>
</g>
</g>
<!-- Node2&#45;&gt;Node1 -->
<g id="edge1" class="edge">
<title>Node2&#45;&gt;Node1</title>
<path fill="none" stroke="midnightblue" d="M167.5,-95.24C167.5,-85.97 167.5,-76.84 167.5,-68.62"/>
<polygon fill="none" stroke="midnightblue" points="164,-95.33 167.5,-105.33 171,-95.33 164,-95.33"/>
</g>
<!-- Node3 -->
<g id="node3" class="node">
<title>Node3</title>
<g id="a_node3"><a xlink:href="../../d1/d55/classAH_1_1Updatable.html" target="_top" xlink:title=" ">
<polygon fill="white" stroke="black" points="27,-342.5 27,-432.5 140,-432.5 140,-342.5 27,-342.5"/>
<text text-anchor="middle" x="83.5" y="-420.5" font-family="Helvetica,sans-Serif" font-size="10.00">MIDIOutputElement</text>
<polyline fill="none" stroke="black" points="27,-413.5 140,-413.5 "/>
<text text-anchor="middle" x="83.5" y="-401.5" font-family="Helvetica,sans-Serif" font-size="10.00"> </text>
<polyline fill="none" stroke="black" points="27,-394.5 140,-394.5 "/>
<text text-anchor="start" x="35" y="-382.5" font-family="Helvetica,sans-Serif" font-size="10.00">* begin()</text>
<text text-anchor="start" x="35" y="-371.5" font-family="Helvetica,sans-Serif" font-size="10.00">* update()</text>
<text text-anchor="start" x="35" y="-360.5" font-family="Helvetica,sans-Serif" font-size="10.00">* beginAll()</text>
<text text-anchor="start" x="35" y="-349.5" font-family="Helvetica,sans-Serif" font-size="10.00">* updateAll()</text>
</a>
</g>
</g>
<!-- Node3&#45;&gt;Node2 -->
<g id="edge2" class="edge">
<title>Node3&#45;&gt;Node2</title>
<path fill="none" stroke="midnightblue" d="M104.15,-332.79C116.26,-301.28 131.61,-261.36 144.16,-228.71"/>
<polygon fill="none" stroke="midnightblue" points="100.82,-331.69 100.5,-342.28 107.35,-334.21 100.82,-331.69"/>
</g>
<!-- Node4 -->
<g id="node4" class="node">
<title>Node4</title>
<g id="a_node4"><a xlink:href="../../d8/d1a/classAH_1_1UpdatableCRTP.html" target="_top" xlink:title=" ">
<polygon fill="white" stroke="black" points="7,-546.5 7,-834.5 160,-834.5 160,-546.5 7,-546.5"/>
<text text-anchor="start" x="15" y="-822.5" font-family="Helvetica,sans-Serif" font-size="10.00">UpdatableCRTP&lt; Updatable</text>
<text text-anchor="start" x="15" y="-811.5" font-family="Helvetica,sans-Serif" font-size="10.00">&lt; NormalUpdatable, false</text>
<text text-anchor="middle" x="83.5" y="-800.5" font-family="Helvetica,sans-Serif" font-size="10.00"> &gt;, false &gt;</text>
<polyline fill="none" stroke="black" points="7,-793.5 160,-793.5 "/>
<text text-anchor="start" x="15" y="-781.5" font-family="Helvetica,sans-Serif" font-size="10.00"># updatables</text>
<text text-anchor="start" x="15" y="-770.5" font-family="Helvetica,sans-Serif" font-size="10.00"># mutex</text>
<polyline fill="none" stroke="black" points="7,-763.5 160,-763.5 "/>
<text text-anchor="start" x="15" y="-751.5" font-family="Helvetica,sans-Serif" font-size="10.00">+ ~UpdatableCRTP()</text>
<text text-anchor="start" x="15" y="-740.5" font-family="Helvetica,sans-Serif" font-size="10.00">+ getMutex()</text>
<text text-anchor="start" x="15" y="-729.5" font-family="Helvetica,sans-Serif" font-size="10.00"># UpdatableCRTP()</text>
<text text-anchor="start" x="15" y="-718.5" font-family="Helvetica,sans-Serif" font-size="10.00">* method</text>
<text text-anchor="start" x="15" y="-707.5" font-family="Helvetica,sans-Serif" font-size="10.00">* args</text>
<text text-anchor="start" x="15" y="-696.5" font-family="Helvetica,sans-Serif" font-size="10.00">* enable()</text>
<text text-anchor="start" x="15" y="-685.5" font-family="Helvetica,sans-Serif" font-size="10.00">* enable()</text>
<text text-anchor="start" x="15" y="-674.5" font-family="Helvetica,sans-Serif" font-size="10.00">* disable()</text>
<text text-anchor="start" x="15" y="-663.5" font-family="Helvetica,sans-Serif" font-size="10.00">* disable()</text>
<text text-anchor="start" x="15" y="-652.5" font-family="Helvetica,sans-Serif" font-size="10.00">* isEnabled()</text>
<text text-anchor="start" x="15" y="-641.5" font-family="Helvetica,sans-Serif" font-size="10.00">* isEnabled()</text>
<text text-anchor="start" x="15" y="-630.5" font-family="Helvetica,sans-Serif" font-size="10.00">* moveDown()</text>
<text text-anchor="start" x="15" y="-619.5" font-family="Helvetica,sans-Serif" font-size="10.00">* moveDown()</text>
<text text-anchor="start" x="15" y="-608.5" font-family="Helvetica,sans-Serif" font-size="10.00">* enable()</text>
<text text-anchor="start" x="15" y="-597.5" font-family="Helvetica,sans-Serif" font-size="10.00">* enable()</text>
<text text-anchor="start" x="15" y="-586.5" font-family="Helvetica,sans-Serif" font-size="10.00">* enable()</text>
<text text-anchor="start" x="15" y="-575.5" font-family="Helvetica,sans-Serif" font-size="10.00">* disable()</text>
<text text-anchor="start" x="15" y="-564.5" font-family="Helvetica,sans-Serif" font-size="10.00">* disable()</text>
<text text-anchor="start" x="15" y="-553.5" font-family="Helvetica,sans-Serif" font-size="10.00">* disable()</text>
</a>
</g>
</g>
<!-- Node4&#45;&gt;Node3 -->
<g id="edge3" class="edge">
<title>Node4&#45;&gt;Node3</title>
<path fill="none" stroke="midnightblue" d="M83.5,-536.29C83.5,-498.24 83.5,-460.43 83.5,-432.57"/>
<polygon fill="none" stroke="midnightblue" points="80,-536.49 83.5,-546.49 87,-536.49 80,-536.49"/>
</g>
<!-- Node5 -->
<g id="node5" class="node">
<title>Node5</title>
<g id="a_node5"><a xlink:href="../../d4/d23/classDoublyLinkable.html" target="_top" xlink:title=" ">
<polygon fill="white" stroke="black" points="0,-871.5 0,-950.5 167,-950.5 167,-871.5 0,-871.5"/>
<text text-anchor="start" x="8" y="-938.5" font-family="Helvetica,sans-Serif" font-size="10.00">DoublyLinkable&lt; Updatable</text>
<text text-anchor="middle" x="83.5" y="-927.5" font-family="Helvetica,sans-Serif" font-size="10.00">&lt; NormalUpdatable, false &gt; &gt;</text>
<polyline fill="none" stroke="black" points="0,-920.5 167,-920.5 "/>
<text text-anchor="start" x="8" y="-908.5" font-family="Helvetica,sans-Serif" font-size="10.00"># next</text>
<text text-anchor="start" x="8" y="-897.5" font-family="Helvetica,sans-Serif" font-size="10.00"># previous</text>
<polyline fill="none" stroke="black" points="0,-890.5 167,-890.5 "/>
<text text-anchor="start" x="8" y="-878.5" font-family="Helvetica,sans-Serif" font-size="10.00"># ~DoublyLinkable()</text>
</a>
</g>
</g>
<!-- Node5&#45;&gt;Node4 -->
<g id="edge4" class="edge">
<title>Node5&#45;&gt;Node4</title>
<path fill="none" stroke="midnightblue" d="M83.5,-861.32C83.5,-853.02 83.5,-844.04 83.5,-834.69"/>
<polygon fill="none" stroke="midnightblue" points="80,-861.44 83.5,-871.44 87,-861.44 80,-861.44"/>
</g>
<!-- Node6 -->
<g id="node6" class="node">
<title>Node6</title>
<g id="a_node6"><a xlink:href="../../dd/d29/classAH_1_1ButtonMatrix.html" target="_top" xlink:title=" ">
<polygon fill="white" stroke="black" points="158,-265.5 158,-509.5 347,-509.5 347,-265.5 158,-265.5"/>
<text text-anchor="start" x="166" y="-497.5" font-family="Helvetica,sans-Serif" font-size="10.00">ButtonMatrix&lt; MIDIButton</text>
<text text-anchor="start" x="166" y="-486.5" font-family="Helvetica,sans-Serif" font-size="10.00">Matrix&lt; DigitalCCSender,</text>
<text text-anchor="start" x="166" y="-475.5" font-family="Helvetica,sans-Serif" font-size="10.00"> NumRows, NumCols &gt;, NumRows,</text>
<text text-anchor="middle" x="252.5" y="-464.5" font-family="Helvetica,sans-Serif" font-size="10.00"> NumCols &gt;</text>
<polyline fill="none" stroke="black" points="158,-457.5 347,-457.5 "/>
<text text-anchor="start" x="166" y="-445.5" font-family="Helvetica,sans-Serif" font-size="10.00">&#45; debounceTime</text>
<text text-anchor="start" x="166" y="-434.5" font-family="Helvetica,sans-Serif" font-size="10.00">&#45; prevRefresh</text>
<text text-anchor="start" x="166" y="-423.5" font-family="Helvetica,sans-Serif" font-size="10.00">&#45; prevStates</text>
<text text-anchor="start" x="166" y="-412.5" font-family="Helvetica,sans-Serif" font-size="10.00">&#45; rowPins</text>
<text text-anchor="start" x="166" y="-401.5" font-family="Helvetica,sans-Serif" font-size="10.00">&#45; colPins</text>
<polyline fill="none" stroke="black" points="158,-394.5 347,-394.5 "/>
<text text-anchor="start" x="166" y="-382.5" font-family="Helvetica,sans-Serif" font-size="10.00">+ ButtonMatrix()</text>
<text text-anchor="start" x="166" y="-371.5" font-family="Helvetica,sans-Serif" font-size="10.00">+ begin()</text>
<text text-anchor="start" x="166" y="-360.5" font-family="Helvetica,sans-Serif" font-size="10.00">+ update()</text>
<text text-anchor="start" x="166" y="-349.5" font-family="Helvetica,sans-Serif" font-size="10.00">+ getPrevState()</text>
<text text-anchor="start" x="166" y="-338.5" font-family="Helvetica,sans-Serif" font-size="10.00">+ setDebounceTime()</text>
<text text-anchor="start" x="166" y="-327.5" font-family="Helvetica,sans-Serif" font-size="10.00">+ getDebounceTime()</text>
<text text-anchor="start" x="166" y="-316.5" font-family="Helvetica,sans-Serif" font-size="10.00"># onButtonChanged()</text>
<text text-anchor="start" x="166" y="-305.5" font-family="Helvetica,sans-Serif" font-size="10.00">&#45; setPrevState()</text>
<text text-anchor="start" x="166" y="-294.5" font-family="Helvetica,sans-Serif" font-size="10.00">&#45; positionToBits()</text>
<text text-anchor="start" x="166" y="-283.5" font-family="Helvetica,sans-Serif" font-size="10.00">&#45; bitsToIndex()</text>
<text text-anchor="start" x="166" y="-272.5" font-family="Helvetica,sans-Serif" font-size="10.00">&#45; bitsToBitmask()</text>
</a>
</g>
</g>
<!-- Node6&#45;&gt;Node2 -->
<g id="edge5" class="edge">
<title>Node6&#45;&gt;Node2</title>
<path fill="none" stroke="midnightblue" d="M201.72,-255.95C198.05,-246.54 194.48,-237.35 191.1,-228.67"/>
<polygon fill="none" stroke="midnightblue" points="198.51,-257.38 205.4,-265.43 205.04,-254.84 198.51,-257.38"/>
</g>
</g>
</svg>
