<?xml version="1.0" encoding="UTF-8" standalone="no"?>
<!DOCTYPE svg PUBLIC "-//W3C//DTD SVG 1.1//EN"
 "http://www.w3.org/Graphics/SVG/1.1/DTD/svg11.dtd">
<!-- Generated by graphviz version 2.43.0 (0)
 -->
<!-- Title: MIDIStaller Pages: 1 -->
<svg width="1354pt" height="1317pt"
 viewBox="0.00 0.00 1354.00 1317.00" xmlns="http://www.w3.org/2000/svg" xmlns:xlink="http://www.w3.org/1999/xlink">
<g id="graph0" class="graph" transform="scale(1 1) rotate(0) translate(4 1313)">
<title>MIDIStaller</title>
<polygon fill="white" stroke="transparent" points="-4,4 -4,-1313 1350,-1313 1350,4 -4,4"/>
<!-- Node1 -->
<g id="node1" class="node">
<title>Node1</title>
<g id="a_node1"><a xlink:title="Struct that can cause a MIDI_Pipe to be stalled.">
<polygon fill="#bfbfbf" stroke="black" points="496,-1218.5 496,-1308.5 596,-1308.5 596,-1218.5 496,-1218.5"/>
<text text-anchor="middle" x="546" y="-1296.5" font-family="Helvetica,sans-Serif" font-size="10.00">MIDIStaller</text>
<polyline fill="none" stroke="black" points="496,-1289.5 596,-1289.5 "/>
<text text-anchor="middle" x="546" y="-1277.5" font-family="Helvetica,sans-Serif" font-size="10.00"> </text>
<polyline fill="none" stroke="black" points="496,-1270.5 596,-1270.5 "/>
<text text-anchor="start" x="504" y="-1258.5" font-family="Helvetica,sans-Serif" font-size="10.00">+ ~MIDIStaller()</text>
<text text-anchor="start" x="504" y="-1247.5" font-family="Helvetica,sans-Serif" font-size="10.00">+ getName()</text>
<text text-anchor="start" x="504" y="-1236.5" font-family="Helvetica,sans-Serif" font-size="10.00">+ handleStall()</text>
<text text-anchor="start" x="504" y="-1225.5" font-family="Helvetica,sans-Serif" font-size="10.00">+ getNameNull()</text>
</a>
</g>
</g>
<!-- Node2 -->
<g id="node2" class="node">
<title>Node2</title>
<g id="a_node2"><a xlink:href="../../d9/d73/classMIDI__Interface.html" target="_top" xlink:title="An abstract class for MIDI interfaces.">
<polygon fill="white" stroke="black" points="464,-871.5 464,-1181.5 628,-1181.5 628,-871.5 464,-871.5"/>
<text text-anchor="middle" x="546" y="-1169.5" font-family="Helvetica,sans-Serif" font-size="10.00">MIDI_Interface</text>
<polyline fill="none" stroke="black" points="464,-1162.5 628,-1162.5 "/>
<text text-anchor="start" x="472" y="-1150.5" font-family="Helvetica,sans-Serif" font-size="10.00">&#45; callbacks</text>
<text text-anchor="start" x="472" y="-1139.5" font-family="Helvetica,sans-Serif" font-size="10.00">&#45; DefaultMIDI_Interface</text>
<polyline fill="none" stroke="black" points="464,-1132.5 628,-1132.5 "/>
<text text-anchor="start" x="472" y="-1120.5" font-family="Helvetica,sans-Serif" font-size="10.00">+ ~MIDI_Interface()</text>
<text text-anchor="start" x="472" y="-1109.5" font-family="Helvetica,sans-Serif" font-size="10.00">+ begin()</text>
<text text-anchor="start" x="472" y="-1098.5" font-family="Helvetica,sans-Serif" font-size="10.00">+ update()</text>
<text text-anchor="start" x="472" y="-1087.5" font-family="Helvetica,sans-Serif" font-size="10.00"># MIDI_Interface()</text>
<text text-anchor="start" x="472" y="-1076.5" font-family="Helvetica,sans-Serif" font-size="10.00"># MIDI_Interface()</text>
<text text-anchor="start" x="472" y="-1065.5" font-family="Helvetica,sans-Serif" font-size="10.00"># sendChannelMessageImpl()</text>
<text text-anchor="start" x="472" y="-1054.5" font-family="Helvetica,sans-Serif" font-size="10.00"># sendSysCommonImpl()</text>
<text text-anchor="start" x="472" y="-1043.5" font-family="Helvetica,sans-Serif" font-size="10.00"># sendSysExImpl()</text>
<text text-anchor="start" x="472" y="-1032.5" font-family="Helvetica,sans-Serif" font-size="10.00"># sendRealTimeImpl()</text>
<text text-anchor="start" x="472" y="-1021.5" font-family="Helvetica,sans-Serif" font-size="10.00"># sendNowImpl()</text>
<text text-anchor="start" x="472" y="-1010.5" font-family="Helvetica,sans-Serif" font-size="10.00"># sinkMIDIfromPipe()</text>
<text text-anchor="start" x="472" y="-999.5" font-family="Helvetica,sans-Serif" font-size="10.00"># sinkMIDIfromPipe()</text>
<text text-anchor="start" x="472" y="-988.5" font-family="Helvetica,sans-Serif" font-size="10.00"># sinkMIDIfromPipe()</text>
<text text-anchor="start" x="472" y="-977.5" font-family="Helvetica,sans-Serif" font-size="10.00"># onChannelMessage()</text>
<text text-anchor="start" x="472" y="-966.5" font-family="Helvetica,sans-Serif" font-size="10.00"># onSysExMessage()</text>
<text text-anchor="start" x="472" y="-955.5" font-family="Helvetica,sans-Serif" font-size="10.00"># onRealTimeMessage()</text>
<text text-anchor="start" x="472" y="-944.5" font-family="Helvetica,sans-Serif" font-size="10.00"># updateIncoming()</text>
<text text-anchor="start" x="472" y="-933.5" font-family="Helvetica,sans-Serif" font-size="10.00"># dispatchIncoming()</text>
<text text-anchor="start" x="472" y="-922.5" font-family="Helvetica,sans-Serif" font-size="10.00"># handleStall()</text>
<text text-anchor="start" x="472" y="-911.5" font-family="Helvetica,sans-Serif" font-size="10.00">* setAsDefault()</text>
<text text-anchor="start" x="472" y="-900.5" font-family="Helvetica,sans-Serif" font-size="10.00">* getDefault()</text>
<text text-anchor="start" x="472" y="-889.5" font-family="Helvetica,sans-Serif" font-size="10.00">* setCallbacks()</text>
<text text-anchor="start" x="472" y="-878.5" font-family="Helvetica,sans-Serif" font-size="10.00">* setCallbacks()</text>
</a>
</g>
</g>
<!-- Node1&#45;&gt;Node2 -->
<g id="edge1" class="edge">
<title>Node1&#45;&gt;Node2</title>
<path fill="none" stroke="darkgreen" d="M546,-1208.11C546,-1199.8 546,-1190.89 546,-1181.64"/>
<polygon fill="none" stroke="darkgreen" points="542.5,-1208.3 546,-1218.3 549.5,-1208.3 542.5,-1208.3"/>
</g>
<!-- Node3 -->
<g id="node3" class="node">
<title>Node3</title>
<g id="a_node3"><a xlink:href="../../d0/d89/classBluetoothMIDI__Interface.html" target="_top" xlink:title="Bluetooth Low Energy MIDI Interface for the ESP32.">
<polygon fill="white" stroke="black" points="61.5,-326.5 61.5,-834.5 258.5,-834.5 258.5,-326.5 61.5,-326.5"/>
<text text-anchor="middle" x="160" y="-822.5" font-family="Helvetica,sans-Serif" font-size="10.00">BluetoothMIDI_Interface</text>
<polyline fill="none" stroke="black" points="61.5,-815.5 258.5,-815.5 "/>
<text text-anchor="start" x="69.5" y="-803.5" font-family="Helvetica,sans-Serif" font-size="10.00">&#45; min_mtu</text>
<text text-anchor="start" x="69.5" y="-792.5" font-family="Helvetica,sans-Serif" font-size="10.00">&#45; force_min_mtu</text>
<text text-anchor="start" x="69.5" y="-781.5" font-family="Helvetica,sans-Serif" font-size="10.00">&#45; bleMidi</text>
<text text-anchor="start" x="69.5" y="-770.5" font-family="Helvetica,sans-Serif" font-size="10.00">&#45; parser</text>
<text text-anchor="start" x="69.5" y="-759.5" font-family="Helvetica,sans-Serif" font-size="10.00">&#45; packetbuilder</text>
<text text-anchor="start" x="69.5" y="-748.5" font-family="Helvetica,sans-Serif" font-size="10.00">&#45; mtx</text>
<text text-anchor="start" x="69.5" y="-737.5" font-family="Helvetica,sans-Serif" font-size="10.00">&#45; cv</text>
<text text-anchor="start" x="69.5" y="-726.5" font-family="Helvetica,sans-Serif" font-size="10.00">&#45; send_thread</text>
<text text-anchor="start" x="69.5" y="-715.5" font-family="Helvetica,sans-Serif" font-size="10.00">&#45; stop_sending</text>
<text text-anchor="start" x="69.5" y="-704.5" font-family="Helvetica,sans-Serif" font-size="10.00">&#45; flushnow</text>
<text text-anchor="start" x="69.5" y="-693.5" font-family="Helvetica,sans-Serif" font-size="10.00">&#45; timeout</text>
<polyline fill="none" stroke="black" points="61.5,-686.5 258.5,-686.5 "/>
<text text-anchor="start" x="69.5" y="-674.5" font-family="Helvetica,sans-Serif" font-size="10.00">+ BluetoothMIDI_Interface()</text>
<text text-anchor="start" x="69.5" y="-663.5" font-family="Helvetica,sans-Serif" font-size="10.00">+ ~BluetoothMIDI_Interface()</text>
<text text-anchor="start" x="69.5" y="-652.5" font-family="Helvetica,sans-Serif" font-size="10.00">+ flush()</text>
<text text-anchor="start" x="69.5" y="-641.5" font-family="Helvetica,sans-Serif" font-size="10.00">+ setTimeout()</text>
<text text-anchor="start" x="69.5" y="-630.5" font-family="Helvetica,sans-Serif" font-size="10.00">+ begin()</text>
<text text-anchor="start" x="69.5" y="-619.5" font-family="Helvetica,sans-Serif" font-size="10.00">+ update()</text>
<text text-anchor="start" x="69.5" y="-608.5" font-family="Helvetica,sans-Serif" font-size="10.00">+ getChannelMessage()</text>
<text text-anchor="start" x="69.5" y="-597.5" font-family="Helvetica,sans-Serif" font-size="10.00">+ getSysCommonMessage()</text>
<text text-anchor="start" x="69.5" y="-586.5" font-family="Helvetica,sans-Serif" font-size="10.00">+ getRealTimeMessage()</text>
<text text-anchor="start" x="69.5" y="-575.5" font-family="Helvetica,sans-Serif" font-size="10.00">+ getSysExMessage()</text>
<text text-anchor="start" x="69.5" y="-564.5" font-family="Helvetica,sans-Serif" font-size="10.00">+ parse()</text>
<text text-anchor="start" x="69.5" y="-553.5" font-family="Helvetica,sans-Serif" font-size="10.00">+ getMinMTU()</text>
<text text-anchor="start" x="69.5" y="-542.5" font-family="Helvetica,sans-Serif" font-size="10.00">+ forceMinMTU()</text>
<text text-anchor="start" x="69.5" y="-531.5" font-family="Helvetica,sans-Serif" font-size="10.00">+ getBLEMIDI()</text>
<text text-anchor="start" x="69.5" y="-520.5" font-family="Helvetica,sans-Serif" font-size="10.00"># sendChannelMessageImpl()</text>
<text text-anchor="start" x="69.5" y="-509.5" font-family="Helvetica,sans-Serif" font-size="10.00"># sendSysCommonImpl()</text>
<text text-anchor="start" x="69.5" y="-498.5" font-family="Helvetica,sans-Serif" font-size="10.00"># sendSysExImpl()</text>
<text text-anchor="start" x="69.5" y="-487.5" font-family="Helvetica,sans-Serif" font-size="10.00"># sendRealTimeImpl()</text>
<text text-anchor="start" x="69.5" y="-476.5" font-family="Helvetica,sans-Serif" font-size="10.00"># sendNowImpl()</text>
<text text-anchor="start" x="69.5" y="-465.5" font-family="Helvetica,sans-Serif" font-size="10.00"># sendChannelMessageImpl3Bytes()</text>
<text text-anchor="start" x="69.5" y="-454.5" font-family="Helvetica,sans-Serif" font-size="10.00"># sendChannelMessageImpl2Bytes()</text>
<text text-anchor="start" x="69.5" y="-443.5" font-family="Helvetica,sans-Serif" font-size="10.00">&#45; handleStall()</text>
<text text-anchor="start" x="69.5" y="-432.5" font-family="Helvetica,sans-Serif" font-size="10.00">&#45; dispatchMIDIEvent()</text>
<text text-anchor="start" x="69.5" y="-421.5" font-family="Helvetica,sans-Serif" font-size="10.00">&#45; updateMTU()</text>
<text text-anchor="start" x="69.5" y="-410.5" font-family="Helvetica,sans-Serif" font-size="10.00">&#45; onConnect()</text>
<text text-anchor="start" x="69.5" y="-399.5" font-family="Helvetica,sans-Serif" font-size="10.00">&#45; onDisconnect()</text>
<text text-anchor="start" x="69.5" y="-388.5" font-family="Helvetica,sans-Serif" font-size="10.00">&#45; onRead()</text>
<text text-anchor="start" x="69.5" y="-377.5" font-family="Helvetica,sans-Serif" font-size="10.00">&#45; onWrite()</text>
<text text-anchor="start" x="69.5" y="-366.5" font-family="Helvetica,sans-Serif" font-size="10.00">&#45; startSendingThread()</text>
<text text-anchor="start" x="69.5" y="-355.5" font-family="Helvetica,sans-Serif" font-size="10.00">&#45; handleSendEvents()</text>
<text text-anchor="start" x="69.5" y="-344.5" font-family="Helvetica,sans-Serif" font-size="10.00">&#45; flushImpl()</text>
<text text-anchor="start" x="69.5" y="-333.5" font-family="Helvetica,sans-Serif" font-size="10.00">&#45; stopSendingThread()</text>
</a>
</g>
</g>
<!-- Node2&#45;&gt;Node3 -->
<g id="edge2" class="edge">
<title>Node2&#45;&gt;Node3</title>
<path fill="none" stroke="midnightblue" d="M454.84,-980.62C395.07,-947.35 318.88,-897.1 268,-835 264.82,-831.11 261.71,-827.12 258.69,-823.04"/>
<polygon fill="none" stroke="midnightblue" points="453.46,-983.86 463.9,-985.61 456.83,-977.73 453.46,-983.86"/>
</g>
<!-- Node4 -->
<g id="node4" class="node">
<title>Node4</title>
<g id="a_node4"><a xlink:href="../../dd/dd7/classFortySevenEffectsMIDI__Interface.html" target="_top" xlink:title="Class that wraps the FortySevenEffects MIDI library.">
<polygon fill="white" stroke="black" points="277,-464 277,-697 441,-697 441,-464 277,-464"/>
<text text-anchor="start" x="285" y="-685" font-family="Helvetica,sans-Serif" font-size="10.00">FortySevenEffectsMIDI</text>
<text text-anchor="middle" x="359" y="-674" font-family="Helvetica,sans-Serif" font-size="10.00">_Interface&lt; MidiInterface &gt;</text>
<polyline fill="none" stroke="black" points="277,-667 441,-667 "/>
<text text-anchor="start" x="285" y="-655" font-family="Helvetica,sans-Serif" font-size="10.00">&#45; parser</text>
<text text-anchor="start" x="285" y="-644" font-family="Helvetica,sans-Serif" font-size="10.00">&#45; midi</text>
<polyline fill="none" stroke="black" points="277,-637 441,-637 "/>
<text text-anchor="start" x="285" y="-625" font-family="Helvetica,sans-Serif" font-size="10.00">+ FortySevenEffectsMIDI</text>
<text text-anchor="start" x="285" y="-614" font-family="Helvetica,sans-Serif" font-size="10.00">_Interface()</text>
<text text-anchor="start" x="285" y="-603" font-family="Helvetica,sans-Serif" font-size="10.00">+ begin()</text>
<text text-anchor="start" x="285" y="-592" font-family="Helvetica,sans-Serif" font-size="10.00">+ read()</text>
<text text-anchor="start" x="285" y="-581" font-family="Helvetica,sans-Serif" font-size="10.00">+ getChannelMessage()</text>
<text text-anchor="start" x="285" y="-570" font-family="Helvetica,sans-Serif" font-size="10.00">+ getRealTimeMessage()</text>
<text text-anchor="start" x="285" y="-559" font-family="Helvetica,sans-Serif" font-size="10.00">+ getSysExMessage()</text>
<text text-anchor="start" x="285" y="-548" font-family="Helvetica,sans-Serif" font-size="10.00">+ update()</text>
<text text-anchor="start" x="285" y="-537" font-family="Helvetica,sans-Serif" font-size="10.00"># dispatchMIDIEvent()</text>
<text text-anchor="start" x="285" y="-526" font-family="Helvetica,sans-Serif" font-size="10.00"># sendChannelMessageImpl()</text>
<text text-anchor="start" x="285" y="-515" font-family="Helvetica,sans-Serif" font-size="10.00"># sendSysCommonImpl()</text>
<text text-anchor="start" x="285" y="-504" font-family="Helvetica,sans-Serif" font-size="10.00"># sendSysExImpl()</text>
<text text-anchor="start" x="285" y="-493" font-family="Helvetica,sans-Serif" font-size="10.00"># sendRealTimeImpl()</text>
<text text-anchor="start" x="285" y="-482" font-family="Helvetica,sans-Serif" font-size="10.00"># sendNowImpl()</text>
<text text-anchor="start" x="285" y="-471" font-family="Helvetica,sans-Serif" font-size="10.00">&#45; handleStall()</text>
</a>
</g>
</g>
<!-- Node2&#45;&gt;Node4 -->
<g id="edge3" class="edge">
<title>Node2&#45;&gt;Node4</title>
<path fill="none" stroke="midnightblue" d="M462.09,-862.18C457.9,-853.04 453.84,-843.93 450,-835 430.94,-790.64 412.46,-740.83 397.18,-697.17"/>
<polygon fill="none" stroke="midnightblue" points="458.95,-863.73 466.33,-871.34 465.31,-860.79 458.95,-863.73"/>
</g>
<!-- Node5 -->
<g id="node5" class="node">
<title>Node5</title>
<g id="a_node5"><a xlink:href="../../d8/d0b/classStreamDebugMIDI__Interface.html" target="_top" xlink:title="A class for MIDI interfaces sending and receiving human&#45;readable MIDI messages over a Stream.">
<polygon fill="white" stroke="black" points="459.5,-475 459.5,-686 632.5,-686 632.5,-475 459.5,-475"/>
<text text-anchor="middle" x="546" y="-674" font-family="Helvetica,sans-Serif" font-size="10.00">StreamDebugMIDI_Interface</text>
<polyline fill="none" stroke="black" points="459.5,-667 632.5,-667 "/>
<text text-anchor="start" x="467.5" y="-655" font-family="Helvetica,sans-Serif" font-size="10.00">&#45; hexstream</text>
<text text-anchor="start" x="467.5" y="-644" font-family="Helvetica,sans-Serif" font-size="10.00">&#45; parser</text>
<polyline fill="none" stroke="black" points="459.5,-637 632.5,-637 "/>
<text text-anchor="start" x="467.5" y="-625" font-family="Helvetica,sans-Serif" font-size="10.00">+ StreamDebugMIDI_Interface()</text>
<text text-anchor="start" x="467.5" y="-614" font-family="Helvetica,sans-Serif" font-size="10.00">+ getStream()</text>
<text text-anchor="start" x="467.5" y="-603" font-family="Helvetica,sans-Serif" font-size="10.00">+ read()</text>
<text text-anchor="start" x="467.5" y="-592" font-family="Helvetica,sans-Serif" font-size="10.00">+ getChannelMessage()</text>
<text text-anchor="start" x="467.5" y="-581" font-family="Helvetica,sans-Serif" font-size="10.00">+ getSysCommonMessage()</text>
<text text-anchor="start" x="467.5" y="-570" font-family="Helvetica,sans-Serif" font-size="10.00">+ getRealTimeMessage()</text>
<text text-anchor="start" x="467.5" y="-559" font-family="Helvetica,sans-Serif" font-size="10.00">+ getSysExMessage()</text>
<text text-anchor="start" x="467.5" y="-548" font-family="Helvetica,sans-Serif" font-size="10.00">+ update()</text>
<text text-anchor="start" x="467.5" y="-537" font-family="Helvetica,sans-Serif" font-size="10.00"># sendChannelMessageImpl()</text>
<text text-anchor="start" x="467.5" y="-526" font-family="Helvetica,sans-Serif" font-size="10.00"># sendSysCommonImpl()</text>
<text text-anchor="start" x="467.5" y="-515" font-family="Helvetica,sans-Serif" font-size="10.00"># sendSysExImpl()</text>
<text text-anchor="start" x="467.5" y="-504" font-family="Helvetica,sans-Serif" font-size="10.00"># sendRealTimeImpl()</text>
<text text-anchor="start" x="467.5" y="-493" font-family="Helvetica,sans-Serif" font-size="10.00"># sendNowImpl()</text>
<text text-anchor="start" x="467.5" y="-482" font-family="Helvetica,sans-Serif" font-size="10.00">&#45; handleStall()</text>
</a>
</g>
</g>
<!-- Node2&#45;&gt;Node5 -->
<g id="edge4" class="edge">
<title>Node2&#45;&gt;Node5</title>
<path fill="none" stroke="midnightblue" d="M546,-861.34C546,-802.73 546,-738.32 546,-686.09"/>
<polygon fill="none" stroke="midnightblue" points="542.5,-861.46 546,-871.46 549.5,-861.46 542.5,-861.46"/>
</g>
<!-- Node13 -->
<g id="node13" class="node">
<title>Node13</title>
<g id="a_node13"><a xlink:href="../../d3/dc3/classStreamMIDI__Interface.html" target="_top" xlink:title="A class for MIDI interfaces sending and receiving MIDI messages over a Stream.">
<polygon fill="white" stroke="black" points="814,-475 814,-686 978,-686 978,-475 814,-475"/>
<text text-anchor="middle" x="896" y="-674" font-family="Helvetica,sans-Serif" font-size="10.00">StreamMIDI_Interface</text>
<polyline fill="none" stroke="black" points="814,-667 978,-667 "/>
<text text-anchor="start" x="822" y="-655" font-family="Helvetica,sans-Serif" font-size="10.00"># stream</text>
<text text-anchor="start" x="822" y="-644" font-family="Helvetica,sans-Serif" font-size="10.00"># parser</text>
<polyline fill="none" stroke="black" points="814,-637 978,-637 "/>
<text text-anchor="start" x="822" y="-625" font-family="Helvetica,sans-Serif" font-size="10.00">+ StreamMIDI_Interface()</text>
<text text-anchor="start" x="822" y="-614" font-family="Helvetica,sans-Serif" font-size="10.00">+ read()</text>
<text text-anchor="start" x="822" y="-603" font-family="Helvetica,sans-Serif" font-size="10.00">+ getChannelMessage()</text>
<text text-anchor="start" x="822" y="-592" font-family="Helvetica,sans-Serif" font-size="10.00">+ getSysCommonMessage()</text>
<text text-anchor="start" x="822" y="-581" font-family="Helvetica,sans-Serif" font-size="10.00">+ getRealTimeMessage()</text>
<text text-anchor="start" x="822" y="-570" font-family="Helvetica,sans-Serif" font-size="10.00">+ getSysExMessage()</text>
<text text-anchor="start" x="822" y="-559" font-family="Helvetica,sans-Serif" font-size="10.00">+ update()</text>
<text text-anchor="start" x="822" y="-548" font-family="Helvetica,sans-Serif" font-size="10.00"># dispatchMIDIEvent()</text>
<text text-anchor="start" x="822" y="-537" font-family="Helvetica,sans-Serif" font-size="10.00"># sendChannelMessageImpl()</text>
<text text-anchor="start" x="822" y="-526" font-family="Helvetica,sans-Serif" font-size="10.00"># sendSysCommonImpl()</text>
<text text-anchor="start" x="822" y="-515" font-family="Helvetica,sans-Serif" font-size="10.00"># sendSysExImpl()</text>
<text text-anchor="start" x="822" y="-504" font-family="Helvetica,sans-Serif" font-size="10.00"># sendRealTimeImpl()</text>
<text text-anchor="start" x="822" y="-493" font-family="Helvetica,sans-Serif" font-size="10.00"># sendNowImpl()</text>
<text text-anchor="start" x="822" y="-482" font-family="Helvetica,sans-Serif" font-size="10.00">&#45; handleStall()</text>
</a>
</g>
</g>
<!-- Node2&#45;&gt;Node13 -->
<g id="edge12" class="edge">
<title>Node2&#45;&gt;Node13</title>
<path fill="none" stroke="midnightblue" d="M634.36,-913.41C689.48,-843.48 759.94,-754.1 813.85,-685.71"/>
<polygon fill="none" stroke="midnightblue" points="631.5,-911.38 628.06,-921.4 637,-915.72 631.5,-911.38"/>
</g>
<!-- Node22 -->
<g id="node22" class="node">
<title>Node22</title>
<g id="a_node22"><a xlink:href="../../de/d05/classUSBMIDI__Interface.html" target="_top" xlink:title="A class for MIDI interfaces sending MIDI messages over a USB MIDI connection.">
<polygon fill="white" stroke="black" points="996.5,-414.5 996.5,-746.5 1155.5,-746.5 1155.5,-414.5 996.5,-414.5"/>
<text text-anchor="middle" x="1076" y="-734.5" font-family="Helvetica,sans-Serif" font-size="10.00">USBMIDI_Interface</text>
<polyline fill="none" stroke="black" points="996.5,-727.5 1155.5,-727.5 "/>
<text text-anchor="start" x="1004.5" y="-715.5" font-family="Helvetica,sans-Serif" font-size="10.00">&#45; parser</text>
<text text-anchor="start" x="1004.5" y="-704.5" font-family="Helvetica,sans-Serif" font-size="10.00">&#45; storedSysExData</text>
<text text-anchor="start" x="1004.5" y="-693.5" font-family="Helvetica,sans-Serif" font-size="10.00">&#45; storedSysExLength</text>
<text text-anchor="start" x="1004.5" y="-682.5" font-family="Helvetica,sans-Serif" font-size="10.00">&#45; alwaysSendImmediately_</text>
<polyline fill="none" stroke="black" points="996.5,-675.5 1155.5,-675.5 "/>
<text text-anchor="start" x="1004.5" y="-663.5" font-family="Helvetica,sans-Serif" font-size="10.00">+ USBMIDI_Interface()</text>
<text text-anchor="start" x="1004.5" y="-652.5" font-family="Helvetica,sans-Serif" font-size="10.00">+ update()</text>
<text text-anchor="start" x="1004.5" y="-641.5" font-family="Helvetica,sans-Serif" font-size="10.00">&#45; sendChannelMessageImpl()</text>
<text text-anchor="start" x="1004.5" y="-630.5" font-family="Helvetica,sans-Serif" font-size="10.00">&#45; sendSysCommonImpl()</text>
<text text-anchor="start" x="1004.5" y="-619.5" font-family="Helvetica,sans-Serif" font-size="10.00">&#45; sendSysExImpl()</text>
<text text-anchor="start" x="1004.5" y="-608.5" font-family="Helvetica,sans-Serif" font-size="10.00">&#45; sendRealTimeImpl()</text>
<text text-anchor="start" x="1004.5" y="-597.5" font-family="Helvetica,sans-Serif" font-size="10.00">&#45; sendNowImpl()</text>
<text text-anchor="start" x="1004.5" y="-586.5" font-family="Helvetica,sans-Serif" font-size="10.00">&#45; sendSysExStartCont1()</text>
<text text-anchor="start" x="1004.5" y="-575.5" font-family="Helvetica,sans-Serif" font-size="10.00">&#45; sendSysExStartCont()</text>
<text text-anchor="start" x="1004.5" y="-564.5" font-family="Helvetica,sans-Serif" font-size="10.00">&#45; sendSysExEnd()</text>
<text text-anchor="start" x="1004.5" y="-553.5" font-family="Helvetica,sans-Serif" font-size="10.00">&#45; handleStall()</text>
<text text-anchor="start" x="1004.5" y="-542.5" font-family="Helvetica,sans-Serif" font-size="10.00">* MIDIUSBPacket_t</text>
<text text-anchor="start" x="1004.5" y="-531.5" font-family="Helvetica,sans-Serif" font-size="10.00">* writeUSBPacket()</text>
<text text-anchor="start" x="1004.5" y="-520.5" font-family="Helvetica,sans-Serif" font-size="10.00">* readUSBPacket()</text>
<text text-anchor="start" x="1004.5" y="-509.5" font-family="Helvetica,sans-Serif" font-size="10.00">* sendUSBNow()</text>
<text text-anchor="start" x="1004.5" y="-498.5" font-family="Helvetica,sans-Serif" font-size="10.00">* read()</text>
<text text-anchor="start" x="1004.5" y="-487.5" font-family="Helvetica,sans-Serif" font-size="10.00">* getChannelMessage()</text>
<text text-anchor="start" x="1004.5" y="-476.5" font-family="Helvetica,sans-Serif" font-size="10.00">* getSysCommonMessage()</text>
<text text-anchor="start" x="1004.5" y="-465.5" font-family="Helvetica,sans-Serif" font-size="10.00">* getRealTimeMessage()</text>
<text text-anchor="start" x="1004.5" y="-454.5" font-family="Helvetica,sans-Serif" font-size="10.00">* getSysExMessage()</text>
<text text-anchor="start" x="1004.5" y="-443.5" font-family="Helvetica,sans-Serif" font-size="10.00">* alwaysSendsImmediately()</text>
<text text-anchor="start" x="1004.5" y="-432.5" font-family="Helvetica,sans-Serif" font-size="10.00">* neverSendImmediately()</text>
<text text-anchor="start" x="1004.5" y="-421.5" font-family="Helvetica,sans-Serif" font-size="10.00">* alwaysSendImmediately()</text>
</a>
</g>
</g>
<!-- Node2&#45;&gt;Node22 -->
<g id="edge21" class="edge">
<title>Node2&#45;&gt;Node22</title>
<path fill="none" stroke="midnightblue" d="M638.28,-1008.49C737.39,-985.6 893.26,-935.56 987,-835 1010.22,-810.09 1027.43,-778.78 1040.18,-746.74"/>
<polygon fill="none" stroke="midnightblue" points="637.25,-1005.13 628.27,-1010.75 638.79,-1011.96 637.25,-1005.13"/>
</g>
<!-- Node6 -->
<g id="node6" class="node">
<title>Node6</title>
<g id="a_node6"><a xlink:href="../../db/dc4/classSerialDebugMIDI__Interface.html" target="_top" xlink:title="A wrapper class for debug MIDI interfaces sending and receiving human&#45;readable MIDI messages over a S...">
<polygon fill="white" stroke="black" points="0,-216 0,-284 176,-284 176,-216 0,-216"/>
<text text-anchor="middle" x="88" y="-272" font-family="Helvetica,sans-Serif" font-size="10.00">SerialDebugMIDI_Interface&lt; T &gt;</text>
<polyline fill="none" stroke="black" points="0,-265 176,-265 "/>
<text text-anchor="start" x="8" y="-253" font-family="Helvetica,sans-Serif" font-size="10.00">&#45; baud</text>
<polyline fill="none" stroke="black" points="0,-246 176,-246 "/>
<text text-anchor="start" x="8" y="-234" font-family="Helvetica,sans-Serif" font-size="10.00">+ SerialDebugMIDI_Interface()</text>
<text text-anchor="start" x="8" y="-223" font-family="Helvetica,sans-Serif" font-size="10.00">+ begin()</text>
</a>
</g>
</g>
<!-- Node5&#45;&gt;Node6 -->
<g id="edge5" class="edge">
<title>Node5&#45;&gt;Node6</title>
<path fill="none" stroke="midnightblue" d="M529.45,-464.88C516.26,-414.78 492.56,-359.85 450,-326 356.98,-252.01 299.91,-320.4 185,-290 178.51,-288.28 171.87,-286.25 165.25,-284.02"/>
<polygon fill="none" stroke="midnightblue" points="526.12,-465.98 531.95,-474.82 532.9,-464.27 526.12,-465.98"/>
</g>
<!-- Node7 -->
<g id="node7" class="node">
<title>Node7</title>
<g id="a_node7"><a xlink:href="../../db/dc4/classSerialDebugMIDI__Interface.html" target="_top" xlink:title=" ">
<polygon fill="white" stroke="black" points="194,-210.5 194,-289.5 360,-289.5 360,-210.5 194,-210.5"/>
<text text-anchor="start" x="202" y="-277.5" font-family="Helvetica,sans-Serif" font-size="10.00">SerialDebugMIDI_Interface</text>
<text text-anchor="middle" x="277" y="-266.5" font-family="Helvetica,sans-Serif" font-size="10.00">&lt; decltype(Serial)&gt;</text>
<polyline fill="none" stroke="black" points="194,-259.5 360,-259.5 "/>
<text text-anchor="start" x="202" y="-247.5" font-family="Helvetica,sans-Serif" font-size="10.00">&#45; baud</text>
<polyline fill="none" stroke="black" points="194,-240.5 360,-240.5 "/>
<text text-anchor="start" x="202" y="-228.5" font-family="Helvetica,sans-Serif" font-size="10.00">+ SerialDebugMIDI_Interface()</text>
<text text-anchor="start" x="202" y="-217.5" font-family="Helvetica,sans-Serif" font-size="10.00">+ begin()</text>
</a>
</g>
</g>
<!-- Node5&#45;&gt;Node7 -->
<g id="edge6" class="edge">
<title>Node5&#45;&gt;Node7</title>
<path fill="none" stroke="midnightblue" d="M523.5,-465.05C509.22,-417.23 486.32,-364.07 450,-326 448.16,-324.08 403.58,-304.77 360.14,-286.22"/>
<polygon fill="none" stroke="midnightblue" points="520.2,-466.21 526.34,-474.85 526.92,-464.27 520.2,-466.21"/>
</g>
<!-- Node9 -->
<g id="node9" class="node">
<title>Node9</title>
<g id="a_node9"><a xlink:href="../../db/dc4/classSerialDebugMIDI__Interface.html" target="_top" xlink:title=" ">
<polygon fill="white" stroke="black" points="378,-210.5 378,-289.5 544,-289.5 544,-210.5 378,-210.5"/>
<text text-anchor="start" x="386" y="-277.5" font-family="Helvetica,sans-Serif" font-size="10.00">SerialDebugMIDI_Interface</text>
<text text-anchor="middle" x="461" y="-266.5" font-family="Helvetica,sans-Serif" font-size="10.00">&lt; HardwareSerial &gt;</text>
<polyline fill="none" stroke="black" points="378,-259.5 544,-259.5 "/>
<text text-anchor="start" x="386" y="-247.5" font-family="Helvetica,sans-Serif" font-size="10.00">&#45; baud</text>
<polyline fill="none" stroke="black" points="378,-240.5 544,-240.5 "/>
<text text-anchor="start" x="386" y="-228.5" font-family="Helvetica,sans-Serif" font-size="10.00">+ SerialDebugMIDI_Interface()</text>
<text text-anchor="start" x="386" y="-217.5" font-family="Helvetica,sans-Serif" font-size="10.00">+ begin()</text>
</a>
</g>
</g>
<!-- Node5&#45;&gt;Node9 -->
<g id="edge8" class="edge">
<title>Node5&#45;&gt;Node9</title>
<path fill="none" stroke="midnightblue" d="M516.36,-464.95C500.55,-403.87 482.13,-332.67 471.03,-289.75"/>
<polygon fill="none" stroke="midnightblue" points="512.98,-465.85 518.87,-474.66 519.76,-464.1 512.98,-465.85"/>
</g>
<!-- Node11 -->
<g id="node11" class="node">
<title>Node11</title>
<g id="a_node11"><a xlink:href="../../db/dc4/classSerialDebugMIDI__Interface.html" target="_top" xlink:title=" ">
<polygon fill="white" stroke="black" points="562,-210.5 562,-289.5 728,-289.5 728,-210.5 562,-210.5"/>
<text text-anchor="start" x="570" y="-277.5" font-family="Helvetica,sans-Serif" font-size="10.00">SerialDebugMIDI_Interface</text>
<text text-anchor="middle" x="645" y="-266.5" font-family="Helvetica,sans-Serif" font-size="10.00">&lt; SoftwareSerial &gt;</text>
<polyline fill="none" stroke="black" points="562,-259.5 728,-259.5 "/>
<text text-anchor="start" x="570" y="-247.5" font-family="Helvetica,sans-Serif" font-size="10.00">&#45; baud</text>
<polyline fill="none" stroke="black" points="562,-240.5 728,-240.5 "/>
<text text-anchor="start" x="570" y="-228.5" font-family="Helvetica,sans-Serif" font-size="10.00">+ SerialDebugMIDI_Interface()</text>
<text text-anchor="start" x="570" y="-217.5" font-family="Helvetica,sans-Serif" font-size="10.00">+ begin()</text>
</a>
</g>
</g>
<!-- Node5&#45;&gt;Node11 -->
<g id="edge10" class="edge">
<title>Node5&#45;&gt;Node11</title>
<path fill="none" stroke="midnightblue" d="M580.52,-464.95C598.93,-403.87 620.39,-332.67 633.32,-289.75"/>
<polygon fill="none" stroke="midnightblue" points="577.13,-464.07 577.6,-474.66 583.83,-466.09 577.13,-464.07"/>
</g>
<!-- Node8 -->
<g id="node8" class="node">
<title>Node8</title>
<g id="a_node8"><a xlink:href="../../de/d2d/classUSBDebugMIDI__Interface.html" target="_top" xlink:title="A class for debug MIDI interfaces sending and receiving human&#45;readable MIDI messages over the USB CDC...">
<polygon fill="white" stroke="black" points="198,-105.5 198,-162.5 356,-162.5 356,-105.5 198,-105.5"/>
<text text-anchor="middle" x="277" y="-150.5" font-family="Helvetica,sans-Serif" font-size="10.00">USBDebugMIDI_Interface</text>
<polyline fill="none" stroke="black" points="198,-143.5 356,-143.5 "/>
<text text-anchor="middle" x="277" y="-131.5" font-family="Helvetica,sans-Serif" font-size="10.00"> </text>
<polyline fill="none" stroke="black" points="198,-124.5 356,-124.5 "/>
<text text-anchor="start" x="206" y="-112.5" font-family="Helvetica,sans-Serif" font-size="10.00">+ USBDebugMIDI_Interface()</text>
</a>
</g>
</g>
<!-- Node7&#45;&gt;Node8 -->
<g id="edge7" class="edge">
<title>Node7&#45;&gt;Node8</title>
<path fill="none" stroke="midnightblue" d="M277,-200.29C277,-187.46 277,-174.05 277,-162.75"/>
<polygon fill="none" stroke="midnightblue" points="273.5,-200.4 277,-210.4 280.5,-200.4 273.5,-200.4"/>
</g>
<!-- Node10 -->
<g id="node10" class="node">
<title>Node10</title>
<g id="a_node10"><a xlink:href="../../d8/d29/classHardwareSerialDebugMIDI__Interface.html" target="_top" xlink:title="A class for debug MIDI interfaces sending and receiving human&#45;readable MIDI messages over a HardwareS...">
<polygon fill="white" stroke="black" points="382.5,-94.5 382.5,-173.5 539.5,-173.5 539.5,-94.5 382.5,-94.5"/>
<text text-anchor="start" x="390.5" y="-161.5" font-family="Helvetica,sans-Serif" font-size="10.00">HardwareSerialDebugMIDI</text>
<text text-anchor="middle" x="461" y="-150.5" font-family="Helvetica,sans-Serif" font-size="10.00">_Interface</text>
<polyline fill="none" stroke="black" points="382.5,-143.5 539.5,-143.5 "/>
<text text-anchor="middle" x="461" y="-131.5" font-family="Helvetica,sans-Serif" font-size="10.00"> </text>
<polyline fill="none" stroke="black" points="382.5,-124.5 539.5,-124.5 "/>
<text text-anchor="start" x="390.5" y="-112.5" font-family="Helvetica,sans-Serif" font-size="10.00">+ HardwareSerialDebugMIDI</text>
<text text-anchor="start" x="390.5" y="-101.5" font-family="Helvetica,sans-Serif" font-size="10.00">_Interface()</text>
</a>
</g>
</g>
<!-- Node9&#45;&gt;Node10 -->
<g id="edge9" class="edge">
<title>Node9&#45;&gt;Node10</title>
<path fill="none" stroke="midnightblue" d="M461,-200.15C461,-191.26 461,-182.1 461,-173.56"/>
<polygon fill="none" stroke="midnightblue" points="457.5,-200.4 461,-210.4 464.5,-200.4 457.5,-200.4"/>
</g>
<!-- Node12 -->
<g id="node12" class="node">
<title>Node12</title>
<g id="a_node12"><a xlink:href="../../d3/d54/classSoftwareSerialDebugMIDI__Interface.html" target="_top" xlink:title="A class for debug MIDI interfaces sending and receiving human&#45;readable MIDI messages over a SoftwareS...">
<polygon fill="white" stroke="black" points="569,-94.5 569,-173.5 721,-173.5 721,-94.5 569,-94.5"/>
<text text-anchor="start" x="577" y="-161.5" font-family="Helvetica,sans-Serif" font-size="10.00">SoftwareSerialDebugMIDI</text>
<text text-anchor="middle" x="645" y="-150.5" font-family="Helvetica,sans-Serif" font-size="10.00">_Interface</text>
<polyline fill="none" stroke="black" points="569,-143.5 721,-143.5 "/>
<text text-anchor="middle" x="645" y="-131.5" font-family="Helvetica,sans-Serif" font-size="10.00"> </text>
<polyline fill="none" stroke="black" points="569,-124.5 721,-124.5 "/>
<text text-anchor="start" x="577" y="-112.5" font-family="Helvetica,sans-Serif" font-size="10.00">+ SoftwareSerialDebugMIDI</text>
<text text-anchor="start" x="577" y="-101.5" font-family="Helvetica,sans-Serif" font-size="10.00">_Interface()</text>
</a>
</g>
</g>
<!-- Node11&#45;&gt;Node12 -->
<g id="edge11" class="edge">
<title>Node11&#45;&gt;Node12</title>
<path fill="none" stroke="midnightblue" d="M645,-200.15C645,-191.26 645,-182.1 645,-173.56"/>
<polygon fill="none" stroke="midnightblue" points="641.5,-200.4 645,-210.4 648.5,-200.4 641.5,-200.4"/>
</g>
<!-- Node14 -->
<g id="node14" class="node">
<title>Node14</title>
<g id="a_node14"><a xlink:href="../../d9/db8/classSerialMIDI__Interface.html" target="_top" xlink:title="A wrapper class for MIDI interfaces sending and receiving MIDI messages over a Serial port of generic...">
<polygon fill="white" stroke="black" points="746,-216 746,-284 890,-284 890,-216 746,-216"/>
<text text-anchor="middle" x="818" y="-272" font-family="Helvetica,sans-Serif" font-size="10.00">SerialMIDI_Interface&lt; S &gt;</text>
<polyline fill="none" stroke="black" points="746,-265 890,-265 "/>
<text text-anchor="start" x="754" y="-253" font-family="Helvetica,sans-Serif" font-size="10.00">&#45; baud</text>
<polyline fill="none" stroke="black" points="746,-246 890,-246 "/>
<text text-anchor="start" x="754" y="-234" font-family="Helvetica,sans-Serif" font-size="10.00">+ SerialMIDI_Interface()</text>
<text text-anchor="start" x="754" y="-223" font-family="Helvetica,sans-Serif" font-size="10.00">+ begin()</text>
</a>
</g>
</g>
<!-- Node13&#45;&gt;Node14 -->
<g id="edge13" class="edge">
<title>Node13&#45;&gt;Node14</title>
<path fill="none" stroke="midnightblue" d="M868.7,-464.54C853.58,-400.87 835.88,-326.31 825.9,-284.27"/>
<polygon fill="none" stroke="midnightblue" points="865.39,-465.74 871.11,-474.66 872.2,-464.12 865.39,-465.74"/>
</g>
<!-- Node15 -->
<g id="node15" class="node">
<title>Node15</title>
<g id="a_node15"><a xlink:href="../../d9/db8/classSerialMIDI__Interface.html" target="_top" xlink:title=" ">
<polygon fill="white" stroke="black" points="908,-210.5 908,-289.5 1042,-289.5 1042,-210.5 908,-210.5"/>
<text text-anchor="start" x="916" y="-277.5" font-family="Helvetica,sans-Serif" font-size="10.00">SerialMIDI_Interface</text>
<text text-anchor="middle" x="975" y="-266.5" font-family="Helvetica,sans-Serif" font-size="10.00">&lt; decltype(Serial)&gt;</text>
<polyline fill="none" stroke="black" points="908,-259.5 1042,-259.5 "/>
<text text-anchor="start" x="916" y="-247.5" font-family="Helvetica,sans-Serif" font-size="10.00">&#45; baud</text>
<polyline fill="none" stroke="black" points="908,-240.5 1042,-240.5 "/>
<text text-anchor="start" x="916" y="-228.5" font-family="Helvetica,sans-Serif" font-size="10.00">+ SerialMIDI_Interface()</text>
<text text-anchor="start" x="916" y="-217.5" font-family="Helvetica,sans-Serif" font-size="10.00">+ begin()</text>
</a>
</g>
</g>
<!-- Node13&#45;&gt;Node15 -->
<g id="edge14" class="edge">
<title>Node13&#45;&gt;Node15</title>
<path fill="none" stroke="midnightblue" d="M923.64,-464.57C938.31,-403.57 955.38,-332.58 965.68,-289.75"/>
<polygon fill="none" stroke="midnightblue" points="920.15,-464.12 921.21,-474.66 926.95,-465.75 920.15,-464.12"/>
</g>
<!-- Node18 -->
<g id="node18" class="node">
<title>Node18</title>
<g id="a_node18"><a xlink:href="../../d9/db8/classSerialMIDI__Interface.html" target="_top" xlink:title=" ">
<polygon fill="white" stroke="black" points="1060,-210.5 1060,-289.5 1194,-289.5 1194,-210.5 1060,-210.5"/>
<text text-anchor="start" x="1068" y="-277.5" font-family="Helvetica,sans-Serif" font-size="10.00">SerialMIDI_Interface</text>
<text text-anchor="middle" x="1127" y="-266.5" font-family="Helvetica,sans-Serif" font-size="10.00">&lt; HardwareSerial &gt;</text>
<polyline fill="none" stroke="black" points="1060,-259.5 1194,-259.5 "/>
<text text-anchor="start" x="1068" y="-247.5" font-family="Helvetica,sans-Serif" font-size="10.00">&#45; baud</text>
<polyline fill="none" stroke="black" points="1060,-240.5 1194,-240.5 "/>
<text text-anchor="start" x="1068" y="-228.5" font-family="Helvetica,sans-Serif" font-size="10.00">+ SerialMIDI_Interface()</text>
<text text-anchor="start" x="1068" y="-217.5" font-family="Helvetica,sans-Serif" font-size="10.00">+ begin()</text>
</a>
</g>
</g>
<!-- Node13&#45;&gt;Node18 -->
<g id="edge17" class="edge">
<title>Node13&#45;&gt;Node18</title>
<path fill="none" stroke="midnightblue" d="M917.93,-465.3C931.54,-418.05 953.14,-365.25 987,-326 989.9,-322.63 1025.43,-303.62 1059.96,-285.57"/>
<polygon fill="none" stroke="midnightblue" points="914.55,-464.4 915.23,-474.98 921.29,-466.28 914.55,-464.4"/>
</g>
<!-- Node20 -->
<g id="node20" class="node">
<title>Node20</title>
<g id="a_node20"><a xlink:href="../../d9/db8/classSerialMIDI__Interface.html" target="_top" xlink:title=" ">
<polygon fill="white" stroke="black" points="1212,-210.5 1212,-289.5 1346,-289.5 1346,-210.5 1212,-210.5"/>
<text text-anchor="start" x="1220" y="-277.5" font-family="Helvetica,sans-Serif" font-size="10.00">SerialMIDI_Interface</text>
<text text-anchor="middle" x="1279" y="-266.5" font-family="Helvetica,sans-Serif" font-size="10.00">&lt; SoftwareSerial &gt;</text>
<polyline fill="none" stroke="black" points="1212,-259.5 1346,-259.5 "/>
<text text-anchor="start" x="1220" y="-247.5" font-family="Helvetica,sans-Serif" font-size="10.00">&#45; baud</text>
<polyline fill="none" stroke="black" points="1212,-240.5 1346,-240.5 "/>
<text text-anchor="start" x="1220" y="-228.5" font-family="Helvetica,sans-Serif" font-size="10.00">+ SerialMIDI_Interface()</text>
<text text-anchor="start" x="1220" y="-217.5" font-family="Helvetica,sans-Serif" font-size="10.00">+ begin()</text>
</a>
</g>
</g>
<!-- Node13&#45;&gt;Node20 -->
<g id="edge19" class="edge">
<title>Node13&#45;&gt;Node20</title>
<path fill="none" stroke="midnightblue" d="M910.82,-464.97C923.13,-415.19 945.69,-360.49 987,-326 1061.71,-263.63 1110.61,-320.58 1203,-290 1205.96,-289.02 1208.94,-287.94 1211.92,-286.78"/>
<polygon fill="none" stroke="midnightblue" points="907.37,-464.32 908.49,-474.85 914.19,-465.92 907.37,-464.32"/>
</g>
<!-- Node16 -->
<g id="node16" class="node">
<title>Node16</title>
<g id="a_node16"><a xlink:href="../../d8/d57/classUSBSerialMIDI__Interface.html" target="_top" xlink:title="A class for MIDI interfaces sending and receiving MIDI messages over the Serial port of the USB conne...">
<polygon fill="white" stroke="black" points="894.5,-105.5 894.5,-162.5 1049.5,-162.5 1049.5,-105.5 894.5,-105.5"/>
<text text-anchor="middle" x="972" y="-150.5" font-family="Helvetica,sans-Serif" font-size="10.00">USBSerialMIDI_Interface</text>
<polyline fill="none" stroke="black" points="894.5,-143.5 1049.5,-143.5 "/>
<text text-anchor="middle" x="972" y="-131.5" font-family="Helvetica,sans-Serif" font-size="10.00"> </text>
<polyline fill="none" stroke="black" points="894.5,-124.5 1049.5,-124.5 "/>
<text text-anchor="start" x="902.5" y="-112.5" font-family="Helvetica,sans-Serif" font-size="10.00">+ USBSerialMIDI_Interface()</text>
</a>
</g>
</g>
<!-- Node15&#45;&gt;Node16 -->
<g id="edge15" class="edge">
<title>Node15&#45;&gt;Node16</title>
<path fill="none" stroke="midnightblue" d="M973.72,-200.29C973.38,-187.46 973.03,-174.05 972.73,-162.75"/>
<polygon fill="none" stroke="midnightblue" points="970.22,-200.5 973.98,-210.4 977.22,-200.32 970.22,-200.5"/>
</g>
<!-- Node17 -->
<g id="node17" class="node">
<title>Node17</title>
<g id="a_node17"><a xlink:href="../../dc/dff/classHairlessMIDI__Interface.html" target="_top" xlink:title="A class for MIDI Interfaces sending and receiving data over the USB Serial CDC connection for the use...">
<polygon fill="white" stroke="black" points="899,-0.5 899,-57.5 1045,-57.5 1045,-0.5 899,-0.5"/>
<text text-anchor="middle" x="972" y="-45.5" font-family="Helvetica,sans-Serif" font-size="10.00">HairlessMIDI_Interface</text>
<polyline fill="none" stroke="black" points="899,-38.5 1045,-38.5 "/>
<text text-anchor="middle" x="972" y="-26.5" font-family="Helvetica,sans-Serif" font-size="10.00"> </text>
<polyline fill="none" stroke="black" points="899,-19.5 1045,-19.5 "/>
<text text-anchor="start" x="907" y="-7.5" font-family="Helvetica,sans-Serif" font-size="10.00">+ HairlessMIDI_Interface()</text>
</a>
</g>
</g>
<!-- Node16&#45;&gt;Node17 -->
<g id="edge16" class="edge">
<title>Node16&#45;&gt;Node17</title>
<path fill="none" stroke="midnightblue" d="M972,-95.29C972,-82.84 972,-69.23 972,-57.68"/>
<polygon fill="none" stroke="midnightblue" points="968.5,-95.4 972,-105.4 975.5,-95.4 968.5,-95.4"/>
</g>
<!-- Node19 -->
<g id="node19" class="node">
<title>Node19</title>
<g id="a_node19"><a xlink:href="../../d9/d78/classHardwareSerialMIDI__Interface.html" target="_top" xlink:title="A class for MIDI interfaces sending and receiving MIDI messages over a Hardware Serial port.">
<polygon fill="white" stroke="black" points="1067.5,-94.5 1067.5,-173.5 1192.5,-173.5 1192.5,-94.5 1067.5,-94.5"/>
<text text-anchor="start" x="1075.5" y="-161.5" font-family="Helvetica,sans-Serif" font-size="10.00">HardwareSerialMIDI</text>
<text text-anchor="middle" x="1130" y="-150.5" font-family="Helvetica,sans-Serif" font-size="10.00">_Interface</text>
<polyline fill="none" stroke="black" points="1067.5,-143.5 1192.5,-143.5 "/>
<text text-anchor="middle" x="1130" y="-131.5" font-family="Helvetica,sans-Serif" font-size="10.00"> </text>
<polyline fill="none" stroke="black" points="1067.5,-124.5 1192.5,-124.5 "/>
<text text-anchor="start" x="1075.5" y="-112.5" font-family="Helvetica,sans-Serif" font-size="10.00">+ HardwareSerialMIDI</text>
<text text-anchor="start" x="1075.5" y="-101.5" font-family="Helvetica,sans-Serif" font-size="10.00">_Interface()</text>
</a>
</g>
</g>
<!-- Node18&#45;&gt;Node19 -->
<g id="edge18" class="edge">
<title>Node18&#45;&gt;Node19</title>
<path fill="none" stroke="midnightblue" d="M1128.29,-200.15C1128.52,-191.26 1128.76,-182.1 1128.99,-173.56"/>
<polygon fill="none" stroke="midnightblue" points="1124.78,-200.32 1128.02,-210.4 1131.78,-200.5 1124.78,-200.32"/>
</g>
<!-- Node21 -->
<g id="node21" class="node">
<title>Node21</title>
<g id="a_node21"><a xlink:href="../../d6/d6d/classSoftwareSerialMIDI__Interface.html" target="_top" xlink:title="A class for MIDI interfaces sending and receiving MIDI messages over a SoftwareSerial interface.">
<polygon fill="white" stroke="black" points="1218.5,-94.5 1218.5,-173.5 1339.5,-173.5 1339.5,-94.5 1218.5,-94.5"/>
<text text-anchor="start" x="1226.5" y="-161.5" font-family="Helvetica,sans-Serif" font-size="10.00">SoftwareSerialMIDI</text>
<text text-anchor="middle" x="1279" y="-150.5" font-family="Helvetica,sans-Serif" font-size="10.00">_Interface</text>
<polyline fill="none" stroke="black" points="1218.5,-143.5 1339.5,-143.5 "/>
<text text-anchor="middle" x="1279" y="-131.5" font-family="Helvetica,sans-Serif" font-size="10.00"> </text>
<polyline fill="none" stroke="black" points="1218.5,-124.5 1339.5,-124.5 "/>
<text text-anchor="start" x="1226.5" y="-112.5" font-family="Helvetica,sans-Serif" font-size="10.00">+ SoftwareSerialMIDI</text>
<text text-anchor="start" x="1226.5" y="-101.5" font-family="Helvetica,sans-Serif" font-size="10.00">_Interface()</text>
</a>
</g>
</g>
<!-- Node20&#45;&gt;Node21 -->
<g id="edge20" class="edge">
<title>Node20&#45;&gt;Node21</title>
<path fill="none" stroke="midnightblue" d="M1279,-200.15C1279,-191.26 1279,-182.1 1279,-173.56"/>
<polygon fill="none" stroke="midnightblue" points="1275.5,-200.4 1279,-210.4 1282.5,-200.4 1275.5,-200.4"/>
</g>
</g>
</svg>
