<?xml version="1.0" encoding="UTF-8" standalone="no"?>
<!DOCTYPE svg PUBLIC "-//W3C//DTD SVG 1.1//EN"
 "http://www.w3.org/Graphics/SVG/1.1/DTD/svg11.dtd">
<!-- Generated by graphviz version 2.43.0 (0)
 -->
<!-- Title: MIDIMessageQueue::MIDIMessageQueueElement Pages: 1 -->
<svg width="572pt" height="1600pt"
 viewBox="0.00 0.00 572.00 1600.00" xmlns="http://www.w3.org/2000/svg" xmlns:xlink="http://www.w3.org/1999/xlink">
<g id="graph0" class="graph" transform="scale(1 1) rotate(0) translate(4 1596)">
<title>MIDIMessageQueue::MIDIMessageQueueElement</title>
<!-- Node1 -->
<g id="Node000001" class="node">
<title>Node1</title>
<g id="a_Node000001"><a xlink:title=" ">
<polygon fill="#999999" stroke="transparent" points="343,-225 163,-225 163,0 343,0 343,-225"/>
<text text-anchor="start" x="168" y="-212.5" font-family="Helvetica,sans-Serif" font-size="10.00">MIDIMessageQueue::MIDIMessage</text>
<text text-anchor="start" x="216.5" y="-201.5" font-family="Helvetica,sans-Serif" font-size="10.00">QueueElement</text>
<text text-anchor="start" x="168" y="-186.5" font-family="Helvetica,sans-Serif" font-size="10.00">+</text>
<text text-anchor="start" x="182" y="-186.5" font-family="Helvetica,sans-Serif" font-size="10.00">eventType</text>
<text text-anchor="start" x="168" y="-171.5" font-family="Helvetica,sans-Serif" font-size="10.00">+</text>
<text text-anchor="start" x="182" y="-171.5" font-family="Helvetica,sans-Serif" font-size="10.00">timestamp</text>
<text text-anchor="start" x="168" y="-156.5" font-family="Helvetica,sans-Serif" font-size="10.00">+</text>
<text text-anchor="start" x="182" y="-156.5" font-family="Helvetica,sans-Serif" font-size="10.00">MIDIMessageQueueElement()</text>
<text text-anchor="start" x="168" y="-141.5" font-family="Helvetica,sans-Serif" font-size="10.00">+</text>
<text text-anchor="start" x="182" y="-141.5" font-family="Helvetica,sans-Serif" font-size="10.00">MIDIMessageQueueElement()</text>
<text text-anchor="start" x="168" y="-126.5" font-family="Helvetica,sans-Serif" font-size="10.00">+</text>
<text text-anchor="start" x="182" y="-126.5" font-family="Helvetica,sans-Serif" font-size="10.00">MIDIMessageQueueElement()</text>
<text text-anchor="start" x="168" y="-111.5" font-family="Helvetica,sans-Serif" font-size="10.00">+</text>
<text text-anchor="start" x="182" y="-111.5" font-family="Helvetica,sans-Serif" font-size="10.00">MIDIMessageQueueElement()</text>
<text text-anchor="start" x="168" y="-96.5" font-family="Helvetica,sans-Serif" font-size="10.00">+</text>
<text text-anchor="start" x="182" y="-96.5" font-family="Helvetica,sans-Serif" font-size="10.00">MIDIMessageQueueElement()</text>
<text text-anchor="start" x="168" y="-81.5" font-family="Helvetica,sans-Serif" font-size="10.00">+</text>
<text text-anchor="start" x="182" y="-81.5" font-family="Helvetica,sans-Serif" font-size="10.00">MIDIMessageQueueElement()</text>
<text text-anchor="start" x="168" y="-66.5" font-family="Helvetica,sans-Serif" font-size="10.00">+</text>
<text text-anchor="start" x="182" y="-66.5" font-family="Helvetica,sans-Serif" font-size="10.00">operator=()</text>
<text text-anchor="start" x="168" y="-51.5" font-family="Helvetica,sans-Serif" font-size="10.00">+</text>
<text text-anchor="start" x="182" y="-51.5" font-family="Helvetica,sans-Serif" font-size="10.00">MIDIMessageQueueElement()</text>
<text text-anchor="start" x="168" y="-36.5" font-family="Helvetica,sans-Serif" font-size="10.00">+</text>
<text text-anchor="start" x="182" y="-36.5" font-family="Helvetica,sans-Serif" font-size="10.00">operator=()</text>
<text text-anchor="start" x="168" y="-21.5" font-family="Helvetica,sans-Serif" font-size="10.00">+</text>
<text text-anchor="start" x="182" y="-21.5" font-family="Helvetica,sans-Serif" font-size="10.00">release()</text>
<text text-anchor="start" x="168" y="-6.5" font-family="Helvetica,sans-Serif" font-size="10.00">+</text>
<text text-anchor="start" x="182" y="-6.5" font-family="Helvetica,sans-Serif" font-size="10.00">~MIDIMessageQueueElement()</text>
<polygon fill="#666666" stroke="#666666" points="163,-196.5 163,-196.5 343,-196.5 343,-196.5 163,-196.5"/>
<polygon fill="#666666" stroke="#666666" points="163,-166.5 163,-166.5 180,-166.5 180,-166.5 163,-166.5"/>
<polygon fill="#666666" stroke="#666666" points="180,-166.5 180,-166.5 343,-166.5 343,-166.5 180,-166.5"/>
<polygon fill="none" stroke="#666666" points="163,0 163,-225 343,-225 343,0 163,0"/>
</a>
</g>
</g>
<!-- Node2 -->
<g id="Node000002" class="node">
<title>Node2</title>
<g id="a_Node000002"><a xlink:href="../../db/d98/unionMIDIMessageQueue_1_1MIDIMessageQueueElement_1_1Message.html" target="_top" xlink:title=" ">
<polygon fill="white" stroke="transparent" points="289.5,-381 216.5,-381 216.5,-272 289.5,-272 289.5,-381"/>
<text text-anchor="start" x="231.5" y="-368.5" font-family="Helvetica,sans-Serif" font-size="10.00">Message</text>
<text text-anchor="start" x="251.5" y="-353.5" font-family="Helvetica,sans-Serif" font-size="10.00"> </text>
<text text-anchor="start" x="221" y="-338.5" font-family="Helvetica,sans-Serif" font-size="10.00">+</text>
<text text-anchor="start" x="234" y="-338.5" font-family="Helvetica,sans-Serif" font-size="10.00">Message()</text>
<text text-anchor="start" x="221" y="-323.5" font-family="Helvetica,sans-Serif" font-size="10.00">+</text>
<text text-anchor="start" x="234" y="-323.5" font-family="Helvetica,sans-Serif" font-size="10.00">Message()</text>
<text text-anchor="start" x="221" y="-308.5" font-family="Helvetica,sans-Serif" font-size="10.00">+</text>
<text text-anchor="start" x="234" y="-308.5" font-family="Helvetica,sans-Serif" font-size="10.00">Message()</text>
<text text-anchor="start" x="221" y="-293.5" font-family="Helvetica,sans-Serif" font-size="10.00">+</text>
<text text-anchor="start" x="234" y="-293.5" font-family="Helvetica,sans-Serif" font-size="10.00">Message()</text>
<text text-anchor="start" x="221" y="-278.5" font-family="Helvetica,sans-Serif" font-size="10.00">+</text>
<text text-anchor="start" x="234" y="-278.5" font-family="Helvetica,sans-Serif" font-size="10.00">Message()</text>
<polygon fill="#666666" stroke="#666666" points="217,-363.5 217,-363.5 290,-363.5 290,-363.5 217,-363.5"/>
<polygon fill="#666666" stroke="#666666" points="217,-348.5 217,-348.5 290,-348.5 290,-348.5 217,-348.5"/>
<polygon fill="none" stroke="#666666" points="216.5,-272 216.5,-381 289.5,-381 289.5,-272 216.5,-272"/>
</a>
</g>
</g>
<!-- Node2&#45;&gt;Node1 -->
<g id="edge1_Node000001_Node000002" class="edge">
<title>Node2&#45;&gt;Node1</title>
<g id="a_edge1_Node000001_Node000002"><a xlink:title=" ">
<path fill="none" stroke="#63b8ff" d="M253,-271.73C253,-260.97 253,-249.24 253,-237.21"/>
<polygon fill="none" stroke="#63b8ff" points="253,-237.09 249,-231.09 253,-225.09 257,-231.09 253,-237.09"/>
</a>
</g>
<text text-anchor="middle" x="281" y="-246" font-family="Helvetica,sans-Serif" font-size="10.00" fill="grey"> +message</text>
</g>
<!-- Node3 -->
<g id="Node000003" class="node">
<title>Node3</title>
<g id="a_Node000003"><a xlink:href="../../d7/d3f/structChannelMessage.html" target="_top" xlink:title=" ">
<polygon fill="white" stroke="transparent" points="116,-717 0,-717 0,-428 116,-428 116,-717"/>
<text text-anchor="start" x="16" y="-704.5" font-family="Helvetica,sans-Serif" font-size="10.00">ChannelMessage</text>
<text text-anchor="start" x="4" y="-689.5" font-family="Helvetica,sans-Serif" font-size="10.00">+</text>
<text text-anchor="start" x="17" y="-689.5" font-family="Helvetica,sans-Serif" font-size="10.00">NoteOff</text>
<text text-anchor="start" x="4" y="-674.5" font-family="Helvetica,sans-Serif" font-size="10.00">+</text>
<text text-anchor="start" x="17" y="-674.5" font-family="Helvetica,sans-Serif" font-size="10.00">NoteOn</text>
<text text-anchor="start" x="4" y="-659.5" font-family="Helvetica,sans-Serif" font-size="10.00">+</text>
<text text-anchor="start" x="17" y="-659.5" font-family="Helvetica,sans-Serif" font-size="10.00">KeyPressure</text>
<text text-anchor="start" x="4" y="-644.5" font-family="Helvetica,sans-Serif" font-size="10.00">+</text>
<text text-anchor="start" x="17" y="-644.5" font-family="Helvetica,sans-Serif" font-size="10.00">ControlChange</text>
<text text-anchor="start" x="4" y="-629.5" font-family="Helvetica,sans-Serif" font-size="10.00">+</text>
<text text-anchor="start" x="17" y="-629.5" font-family="Helvetica,sans-Serif" font-size="10.00">ProgramChange</text>
<text text-anchor="start" x="4" y="-614.5" font-family="Helvetica,sans-Serif" font-size="10.00">+</text>
<text text-anchor="start" x="17" y="-614.5" font-family="Helvetica,sans-Serif" font-size="10.00">ChannelPressure</text>
<text text-anchor="start" x="4" y="-599.5" font-family="Helvetica,sans-Serif" font-size="10.00">+</text>
<text text-anchor="start" x="17" y="-599.5" font-family="Helvetica,sans-Serif" font-size="10.00">PitchBend</text>
<text text-anchor="start" x="4" y="-584.5" font-family="Helvetica,sans-Serif" font-size="10.00">+</text>
<text text-anchor="start" x="17" y="-584.5" font-family="Helvetica,sans-Serif" font-size="10.00">ChannelMessage()</text>
<text text-anchor="start" x="4" y="-569.5" font-family="Helvetica,sans-Serif" font-size="10.00">+</text>
<text text-anchor="start" x="17" y="-569.5" font-family="Helvetica,sans-Serif" font-size="10.00">ChannelMessage()</text>
<text text-anchor="start" x="4" y="-554.5" font-family="Helvetica,sans-Serif" font-size="10.00">+</text>
<text text-anchor="start" x="17" y="-554.5" font-family="Helvetica,sans-Serif" font-size="10.00">getMessageType()</text>
<text text-anchor="start" x="4" y="-539.5" font-family="Helvetica,sans-Serif" font-size="10.00">+</text>
<text text-anchor="start" x="17" y="-539.5" font-family="Helvetica,sans-Serif" font-size="10.00">setMessageType()</text>
<text text-anchor="start" x="4" y="-524.5" font-family="Helvetica,sans-Serif" font-size="10.00">+</text>
<text text-anchor="start" x="17" y="-524.5" font-family="Helvetica,sans-Serif" font-size="10.00">getChannel()</text>
<text text-anchor="start" x="4" y="-509.5" font-family="Helvetica,sans-Serif" font-size="10.00">+</text>
<text text-anchor="start" x="17" y="-509.5" font-family="Helvetica,sans-Serif" font-size="10.00">setChannel()</text>
<text text-anchor="start" x="4" y="-494.5" font-family="Helvetica,sans-Serif" font-size="10.00">+</text>
<text text-anchor="start" x="17" y="-494.5" font-family="Helvetica,sans-Serif" font-size="10.00">getChannelCable()</text>
<text text-anchor="start" x="4" y="-479.5" font-family="Helvetica,sans-Serif" font-size="10.00">+</text>
<text text-anchor="start" x="17" y="-479.5" font-family="Helvetica,sans-Serif" font-size="10.00">getAddress()</text>
<text text-anchor="start" x="4" y="-464.5" font-family="Helvetica,sans-Serif" font-size="10.00">+</text>
<text text-anchor="start" x="17" y="-464.5" font-family="Helvetica,sans-Serif" font-size="10.00">hasTwoDataBytes()</text>
<text text-anchor="start" x="4" y="-449.5" font-family="Helvetica,sans-Serif" font-size="10.00">+</text>
<text text-anchor="start" x="17" y="-449.5" font-family="Helvetica,sans-Serif" font-size="10.00">MIDIMessage()</text>
<text text-anchor="start" x="4" y="-434.5" font-family="Helvetica,sans-Serif" font-size="10.00">+</text>
<text text-anchor="start" x="17" y="-434.5" font-family="Helvetica,sans-Serif" font-size="10.00">MIDIMessage()</text>
<polygon fill="#666666" stroke="#666666" points="0,-699.5 0,-699.5 116,-699.5 116,-699.5 0,-699.5"/>
<polygon fill="#666666" stroke="#666666" points="0,-594.5 0,-594.5 15,-594.5 15,-594.5 0,-594.5"/>
<polygon fill="#666666" stroke="#666666" points="15,-594.5 15,-594.5 116,-594.5 116,-594.5 15,-594.5"/>
<polygon fill="none" stroke="#666666" points="0,-428 0,-717 116,-717 116,-428 0,-428"/>
</a>
</g>
</g>
<!-- Node3&#45;&gt;Node2 -->
<g id="edge2_Node000002_Node000003" class="edge">
<title>Node3&#45;&gt;Node2</title>
<g id="a_edge2_Node000002_Node000003"><a xlink:title=" ">
<path fill="none" stroke="#63b8ff" d="M72.1,-427.74C76.56,-417.45 82.11,-407.71 89,-399 117.2,-363.31 166.81,-345.06 204.1,-335.97"/>
<polygon fill="none" stroke="#63b8ff" points="204.52,-335.87 209.49,-330.65 216.22,-333.23 211.25,-338.45 204.52,-335.87"/>
</a>
</g>
<text text-anchor="middle" x="136" y="-402" font-family="Helvetica,sans-Serif" font-size="10.00" fill="grey"> +channelmessage</text>
</g>
<!-- Node4 -->
<g id="Node000004" class="node">
<title>Node4</title>
<g id="a_Node000004"><a xlink:href="../../d4/d61/structMIDIMessage.html" target="_top" xlink:title=" ">
<polygon fill="white" stroke="transparent" points="292.5,-1361 103.5,-1361 103.5,-1042 292.5,-1042 292.5,-1361"/>
<text text-anchor="start" x="165" y="-1348.5" font-family="Helvetica,sans-Serif" font-size="10.00">MIDIMessage</text>
<text text-anchor="start" x="108" y="-1333.5" font-family="Helvetica,sans-Serif" font-size="10.00">+</text>
<text text-anchor="start" x="121" y="-1333.5" font-family="Helvetica,sans-Serif" font-size="10.00">header</text>
<text text-anchor="start" x="108" y="-1318.5" font-family="Helvetica,sans-Serif" font-size="10.00">+</text>
<text text-anchor="start" x="121" y="-1318.5" font-family="Helvetica,sans-Serif" font-size="10.00">data1</text>
<text text-anchor="start" x="108" y="-1303.5" font-family="Helvetica,sans-Serif" font-size="10.00">+</text>
<text text-anchor="start" x="121" y="-1303.5" font-family="Helvetica,sans-Serif" font-size="10.00">data2</text>
<text text-anchor="start" x="108" y="-1288.5" font-family="Helvetica,sans-Serif" font-size="10.00">+</text>
<text text-anchor="start" x="121" y="-1288.5" font-family="Helvetica,sans-Serif" font-size="10.00">MIDIMessage()</text>
<text text-anchor="start" x="108" y="-1273.5" font-family="Helvetica,sans-Serif" font-size="10.00">+</text>
<text text-anchor="start" x="121" y="-1273.5" font-family="Helvetica,sans-Serif" font-size="10.00">MIDIMessage()</text>
<text text-anchor="start" x="108" y="-1258.5" font-family="Helvetica,sans-Serif" font-size="10.00">+</text>
<text text-anchor="start" x="121" y="-1258.5" font-family="Helvetica,sans-Serif" font-size="10.00">operator==()</text>
<text text-anchor="start" x="108" y="-1243.5" font-family="Helvetica,sans-Serif" font-size="10.00">+</text>
<text text-anchor="start" x="121" y="-1243.5" font-family="Helvetica,sans-Serif" font-size="10.00">operator!=()</text>
<text text-anchor="start" x="108" y="-1228.5" font-family="Helvetica,sans-Serif" font-size="10.00">+</text>
<text text-anchor="start" x="121" y="-1228.5" font-family="Helvetica,sans-Serif" font-size="10.00">getMessageType()</text>
<text text-anchor="start" x="108" y="-1213.5" font-family="Helvetica,sans-Serif" font-size="10.00">+</text>
<text text-anchor="start" x="121" y="-1213.5" font-family="Helvetica,sans-Serif" font-size="10.00">setMessageType()</text>
<text text-anchor="start" x="108" y="-1198.5" font-family="Helvetica,sans-Serif" font-size="10.00">+</text>
<text text-anchor="start" x="121" y="-1198.5" font-family="Helvetica,sans-Serif" font-size="10.00">getData1()</text>
<text text-anchor="start" x="108" y="-1183.5" font-family="Helvetica,sans-Serif" font-size="10.00">+</text>
<text text-anchor="start" x="121" y="-1183.5" font-family="Helvetica,sans-Serif" font-size="10.00">getData2()</text>
<text text-anchor="start" x="108" y="-1168.5" font-family="Helvetica,sans-Serif" font-size="10.00">+</text>
<text text-anchor="start" x="121" y="-1168.5" font-family="Helvetica,sans-Serif" font-size="10.00">setData1()</text>
<text text-anchor="start" x="108" y="-1153.5" font-family="Helvetica,sans-Serif" font-size="10.00">+</text>
<text text-anchor="start" x="121" y="-1153.5" font-family="Helvetica,sans-Serif" font-size="10.00">setData2()</text>
<text text-anchor="start" x="108" y="-1138.5" font-family="Helvetica,sans-Serif" font-size="10.00">+</text>
<text text-anchor="start" x="121" y="-1138.5" font-family="Helvetica,sans-Serif" font-size="10.00">getCable()</text>
<text text-anchor="start" x="108" y="-1123.5" font-family="Helvetica,sans-Serif" font-size="10.00">+</text>
<text text-anchor="start" x="121" y="-1123.5" font-family="Helvetica,sans-Serif" font-size="10.00">setCable()</text>
<text text-anchor="start" x="108" y="-1108.5" font-family="Helvetica,sans-Serif" font-size="10.00">+</text>
<text text-anchor="start" x="121" y="-1108.5" font-family="Helvetica,sans-Serif" font-size="10.00">hasValidChannelMessageHeader()</text>
<text text-anchor="start" x="108" y="-1093.5" font-family="Helvetica,sans-Serif" font-size="10.00">+</text>
<text text-anchor="start" x="121" y="-1093.5" font-family="Helvetica,sans-Serif" font-size="10.00">hasValidSystemCommonHeader()</text>
<text text-anchor="start" x="108" y="-1078.5" font-family="Helvetica,sans-Serif" font-size="10.00">+</text>
<text text-anchor="start" x="121" y="-1078.5" font-family="Helvetica,sans-Serif" font-size="10.00">getData14bit()</text>
<text text-anchor="start" x="108" y="-1063.5" font-family="Helvetica,sans-Serif" font-size="10.00">+</text>
<text text-anchor="start" x="121" y="-1063.5" font-family="Helvetica,sans-Serif" font-size="10.00">setData14bit()</text>
<text text-anchor="start" x="108" y="-1048.5" font-family="Helvetica,sans-Serif" font-size="10.00">+</text>
<text text-anchor="start" x="121" y="-1048.5" font-family="Helvetica,sans-Serif" font-size="10.00">sanitize()</text>
<polygon fill="#666666" stroke="#666666" points="104,-1343.5 104,-1343.5 293,-1343.5 293,-1343.5 104,-1343.5"/>
<polygon fill="#666666" stroke="#666666" points="104,-1298.5 104,-1298.5 119,-1298.5 119,-1298.5 104,-1298.5"/>
<polygon fill="#666666" stroke="#666666" points="119,-1298.5 119,-1298.5 293,-1298.5 293,-1298.5 119,-1298.5"/>
<polygon fill="none" stroke="#666666" points="103.5,-1042 103.5,-1361 292.5,-1361 292.5,-1042 103.5,-1042"/>
</a>
</g>
</g>
<!-- Node4&#45;&gt;Node3 -->
<g id="edge3_Node000003_Node000004" class="edge">
<title>Node4&#45;&gt;Node3</title>
<g id="a_edge3_Node000003_Node000004"><a xlink:title=" ">
<path fill="none" stroke="#63b8ff" d="M160.34,-1031.83C138.37,-933.46 110.97,-810.71 90.04,-717.01"/>
<polygon fill="none" stroke="#63b8ff" points="156.99,-1032.88 162.58,-1041.88 163.82,-1031.35 156.99,-1032.88"/>
</a>
</g>
</g>
<!-- Node6 -->
<g id="Node000006" class="node">
<title>Node6</title>
<g id="a_Node000006"><a xlink:href="../../d5/dad/structSysCommonMessage.html" target="_top" xlink:title=" ">
<polygon fill="white" stroke="transparent" points="280,-687 134,-687 134,-458 280,-458 280,-687"/>
<text text-anchor="start" x="154" y="-674.5" font-family="Helvetica,sans-Serif" font-size="10.00">SysCommonMessage</text>
<text text-anchor="start" x="138" y="-659.5" font-family="Helvetica,sans-Serif" font-size="10.00">+</text>
<text text-anchor="start" x="151" y="-659.5" font-family="Helvetica,sans-Serif" font-size="10.00">MTCQuarterFrame</text>
<text text-anchor="start" x="138" y="-644.5" font-family="Helvetica,sans-Serif" font-size="10.00">+</text>
<text text-anchor="start" x="151" y="-644.5" font-family="Helvetica,sans-Serif" font-size="10.00">SongPositionPointer</text>
<text text-anchor="start" x="138" y="-629.5" font-family="Helvetica,sans-Serif" font-size="10.00">+</text>
<text text-anchor="start" x="151" y="-629.5" font-family="Helvetica,sans-Serif" font-size="10.00">SongSelect</text>
<text text-anchor="start" x="138" y="-614.5" font-family="Helvetica,sans-Serif" font-size="10.00">+</text>
<text text-anchor="start" x="151" y="-614.5" font-family="Helvetica,sans-Serif" font-size="10.00">UndefinedSysCommon1</text>
<text text-anchor="start" x="138" y="-599.5" font-family="Helvetica,sans-Serif" font-size="10.00">+</text>
<text text-anchor="start" x="151" y="-599.5" font-family="Helvetica,sans-Serif" font-size="10.00">UndefinedSysCommon2</text>
<text text-anchor="start" x="138" y="-584.5" font-family="Helvetica,sans-Serif" font-size="10.00">+</text>
<text text-anchor="start" x="151" y="-584.5" font-family="Helvetica,sans-Serif" font-size="10.00">TuneRequest</text>
<text text-anchor="start" x="138" y="-569.5" font-family="Helvetica,sans-Serif" font-size="10.00">+</text>
<text text-anchor="start" x="151" y="-569.5" font-family="Helvetica,sans-Serif" font-size="10.00">SysCommonMessage()</text>
<text text-anchor="start" x="138" y="-554.5" font-family="Helvetica,sans-Serif" font-size="10.00">+</text>
<text text-anchor="start" x="151" y="-554.5" font-family="Helvetica,sans-Serif" font-size="10.00">SysCommonMessage()</text>
<text text-anchor="start" x="138" y="-539.5" font-family="Helvetica,sans-Serif" font-size="10.00">+</text>
<text text-anchor="start" x="151" y="-539.5" font-family="Helvetica,sans-Serif" font-size="10.00">SysCommonMessage()</text>
<text text-anchor="start" x="138" y="-524.5" font-family="Helvetica,sans-Serif" font-size="10.00">+</text>
<text text-anchor="start" x="151" y="-524.5" font-family="Helvetica,sans-Serif" font-size="10.00">SysCommonMessage()</text>
<text text-anchor="start" x="138" y="-509.5" font-family="Helvetica,sans-Serif" font-size="10.00">+</text>
<text text-anchor="start" x="151" y="-509.5" font-family="Helvetica,sans-Serif" font-size="10.00">getMessageType()</text>
<text text-anchor="start" x="138" y="-494.5" font-family="Helvetica,sans-Serif" font-size="10.00">+</text>
<text text-anchor="start" x="151" y="-494.5" font-family="Helvetica,sans-Serif" font-size="10.00">getNumberOfDataBytes()</text>
<text text-anchor="start" x="138" y="-479.5" font-family="Helvetica,sans-Serif" font-size="10.00">+</text>
<text text-anchor="start" x="151" y="-479.5" font-family="Helvetica,sans-Serif" font-size="10.00">MIDIMessage()</text>
<text text-anchor="start" x="138" y="-464.5" font-family="Helvetica,sans-Serif" font-size="10.00">+</text>
<text text-anchor="start" x="151" y="-464.5" font-family="Helvetica,sans-Serif" font-size="10.00">MIDIMessage()</text>
<polygon fill="#666666" stroke="#666666" points="134,-669.5 134,-669.5 280,-669.5 280,-669.5 134,-669.5"/>
<polygon fill="#666666" stroke="#666666" points="134,-579.5 134,-579.5 149,-579.5 149,-579.5 134,-579.5"/>
<polygon fill="#666666" stroke="#666666" points="149,-579.5 149,-579.5 280,-579.5 280,-579.5 149,-579.5"/>
<polygon fill="none" stroke="#666666" points="134,-458 134,-687 280,-687 280,-458 134,-458"/>
</a>
</g>
</g>
<!-- Node4&#45;&gt;Node6 -->
<g id="edge6_Node000006_Node000004" class="edge">
<title>Node4&#45;&gt;Node6</title>
<g id="a_edge6_Node000006_Node000004"><a xlink:title=" ">
<path fill="none" stroke="#63b8ff" d="M200.42,-1031.73C201.99,-922.49 203.99,-783.19 205.37,-687.01"/>
<polygon fill="none" stroke="#63b8ff" points="196.92,-1031.83 200.28,-1041.88 203.92,-1031.93 196.92,-1031.83"/>
</a>
</g>
</g>
<!-- Node5 -->
<g id="Node000005" class="node">
<title>Node5</title>
<g id="a_Node000005"><a xlink:href="../../d2/d75/classCable.html" target="_top" xlink:title="A type&#45;safe class for MIDI USB Cable numbers.">
<polygon fill="white" stroke="transparent" points="371,-1592 271,-1592 271,-1408 371,-1408 371,-1592"/>
<text text-anchor="start" x="307" y="-1580" font-family="Helvetica,sans-Serif" font-size="10.00">Cable</text>
<text text-anchor="start" x="277.5" y="-1565" font-family="Helvetica,sans-Serif" font-size="10.00">&#45;</text>
<text text-anchor="start" x="288" y="-1565" font-family="Helvetica,sans-Serif" font-size="10.00">zeroBasedCable</text>
<text text-anchor="start" x="275" y="-1550" font-family="Helvetica,sans-Serif" font-size="10.00">+</text>
<text text-anchor="start" x="288" y="-1550" font-family="Helvetica,sans-Serif" font-size="10.00">Cable()</text>
<text text-anchor="start" x="275" y="-1535" font-family="Helvetica,sans-Serif" font-size="10.00">+</text>
<text text-anchor="start" x="288" y="-1535" font-family="Helvetica,sans-Serif" font-size="10.00">getRaw()</text>
<text text-anchor="start" x="275" y="-1520" font-family="Helvetica,sans-Serif" font-size="10.00">+</text>
<text text-anchor="start" x="288" y="-1520" font-family="Helvetica,sans-Serif" font-size="10.00">getOneBased()</text>
<text text-anchor="start" x="275" y="-1505" font-family="Helvetica,sans-Serif" font-size="10.00">+</text>
<text text-anchor="start" x="288" y="-1505" font-family="Helvetica,sans-Serif" font-size="10.00">operator==()</text>
<text text-anchor="start" x="275" y="-1490" font-family="Helvetica,sans-Serif" font-size="10.00">+</text>
<text text-anchor="start" x="288" y="-1490" font-family="Helvetica,sans-Serif" font-size="10.00">operator!=()</text>
<text text-anchor="start" x="275" y="-1475" font-family="Helvetica,sans-Serif" font-size="10.00">+</text>
<text text-anchor="start" x="288" y="-1475" font-family="Helvetica,sans-Serif" font-size="10.00">operator+=()</text>
<text text-anchor="start" x="275" y="-1460" font-family="Helvetica,sans-Serif" font-size="10.00">+</text>
<text text-anchor="start" x="288" y="-1460" font-family="Helvetica,sans-Serif" font-size="10.00">operator+()</text>
<text text-anchor="start" x="275" y="-1445" font-family="Helvetica,sans-Serif" font-size="10.00">+</text>
<text text-anchor="start" x="288" y="-1445" font-family="Helvetica,sans-Serif" font-size="10.00">operator&#45;=()</text>
<text text-anchor="start" x="275" y="-1430" font-family="Helvetica,sans-Serif" font-size="10.00">+</text>
<text text-anchor="start" x="288" y="-1430" font-family="Helvetica,sans-Serif" font-size="10.00">operator&#45;()</text>
<text text-anchor="start" x="275" y="-1415" font-family="Helvetica,sans-Serif" font-size="10.00">+</text>
<text text-anchor="start" x="288" y="-1415" font-family="Helvetica,sans-Serif" font-size="10.00">createCable()</text>
<polygon fill="#666666" stroke="#666666" points="271,-1575 271,-1575 371,-1575 371,-1575 271,-1575"/>
<polygon fill="#666666" stroke="#666666" points="271,-1560 271,-1560 286,-1560 286,-1560 271,-1560"/>
<polygon fill="#666666" stroke="#666666" points="286,-1560 286,-1560 371,-1560 371,-1560 286,-1560"/>
<polygon fill="none" stroke="#666666" points="271,-1408 271,-1592 371,-1592 371,-1408 271,-1408"/>
</a>
</g>
</g>
<!-- Node5&#45;&gt;Node4 -->
<g id="edge4_Node000004_Node000005" class="edge">
<title>Node5&#45;&gt;Node4</title>
<g id="a_edge4_Node000004_Node000005"><a xlink:title=" ">
<path fill="none" stroke="#63b8ff" d="M270.85,-1411.03C267.37,-1403.99 264.04,-1396.92 261,-1390 258.52,-1384.35 256.07,-1378.56 253.68,-1372.7"/>
<polygon fill="none" stroke="#63b8ff" points="253.58,-1372.46 247.64,-1368.38 249.12,-1361.32 255.06,-1365.4 253.58,-1372.46"/>
</a>
</g>
<text text-anchor="middle" x="280" y="-1382" font-family="Helvetica,sans-Serif" font-size="10.00" fill="grey"> +cable</text>
</g>
<!-- Node7 -->
<g id="Node000007" class="node">
<title>Node7</title>
<g id="a_Node000007"><a xlink:href="../../d6/d99/structRealTimeMessage.html" target="_top" xlink:title=" ">
<polygon fill="white" stroke="transparent" points="380,-1024 256,-1024 256,-735 380,-735 380,-1024"/>
<text text-anchor="start" x="272.5" y="-1011.5" font-family="Helvetica,sans-Serif" font-size="10.00">RealTimeMessage</text>
<text text-anchor="start" x="260" y="-996.5" font-family="Helvetica,sans-Serif" font-size="10.00">+</text>
<text text-anchor="start" x="273" y="-996.5" font-family="Helvetica,sans-Serif" font-size="10.00">message</text>
<text text-anchor="start" x="260" y="-981.5" font-family="Helvetica,sans-Serif" font-size="10.00">+</text>
<text text-anchor="start" x="273" y="-981.5" font-family="Helvetica,sans-Serif" font-size="10.00">TimingClock</text>
<text text-anchor="start" x="260" y="-966.5" font-family="Helvetica,sans-Serif" font-size="10.00">+</text>
<text text-anchor="start" x="273" y="-966.5" font-family="Helvetica,sans-Serif" font-size="10.00">UndefinedRealTime1</text>
<text text-anchor="start" x="260" y="-951.5" font-family="Helvetica,sans-Serif" font-size="10.00">+</text>
<text text-anchor="start" x="273" y="-951.5" font-family="Helvetica,sans-Serif" font-size="10.00">Start</text>
<text text-anchor="start" x="260" y="-936.5" font-family="Helvetica,sans-Serif" font-size="10.00">+</text>
<text text-anchor="start" x="273" y="-936.5" font-family="Helvetica,sans-Serif" font-size="10.00">Continue</text>
<text text-anchor="start" x="260" y="-921.5" font-family="Helvetica,sans-Serif" font-size="10.00">+</text>
<text text-anchor="start" x="273" y="-921.5" font-family="Helvetica,sans-Serif" font-size="10.00">Stop</text>
<text text-anchor="start" x="260" y="-906.5" font-family="Helvetica,sans-Serif" font-size="10.00">+</text>
<text text-anchor="start" x="273" y="-906.5" font-family="Helvetica,sans-Serif" font-size="10.00">UndefinedRealTime2</text>
<text text-anchor="start" x="260" y="-891.5" font-family="Helvetica,sans-Serif" font-size="10.00">+</text>
<text text-anchor="start" x="273" y="-891.5" font-family="Helvetica,sans-Serif" font-size="10.00">ActiveSensing</text>
<text text-anchor="start" x="260" y="-876.5" font-family="Helvetica,sans-Serif" font-size="10.00">+</text>
<text text-anchor="start" x="273" y="-876.5" font-family="Helvetica,sans-Serif" font-size="10.00">RESET</text>
<text text-anchor="start" x="260" y="-861.5" font-family="Helvetica,sans-Serif" font-size="10.00">+</text>
<text text-anchor="start" x="273" y="-861.5" font-family="Helvetica,sans-Serif" font-size="10.00">RealTimeMessage()</text>
<text text-anchor="start" x="260" y="-846.5" font-family="Helvetica,sans-Serif" font-size="10.00">+</text>
<text text-anchor="start" x="273" y="-846.5" font-family="Helvetica,sans-Serif" font-size="10.00">RealTimeMessage()</text>
<text text-anchor="start" x="260" y="-831.5" font-family="Helvetica,sans-Serif" font-size="10.00">+</text>
<text text-anchor="start" x="273" y="-831.5" font-family="Helvetica,sans-Serif" font-size="10.00">operator==()</text>
<text text-anchor="start" x="260" y="-816.5" font-family="Helvetica,sans-Serif" font-size="10.00">+</text>
<text text-anchor="start" x="273" y="-816.5" font-family="Helvetica,sans-Serif" font-size="10.00">operator!=()</text>
<text text-anchor="start" x="260" y="-801.5" font-family="Helvetica,sans-Serif" font-size="10.00">+</text>
<text text-anchor="start" x="273" y="-801.5" font-family="Helvetica,sans-Serif" font-size="10.00">setMessageType()</text>
<text text-anchor="start" x="260" y="-786.5" font-family="Helvetica,sans-Serif" font-size="10.00">+</text>
<text text-anchor="start" x="273" y="-786.5" font-family="Helvetica,sans-Serif" font-size="10.00">getMessageType()</text>
<text text-anchor="start" x="260" y="-771.5" font-family="Helvetica,sans-Serif" font-size="10.00">+</text>
<text text-anchor="start" x="273" y="-771.5" font-family="Helvetica,sans-Serif" font-size="10.00">getCable()</text>
<text text-anchor="start" x="260" y="-756.5" font-family="Helvetica,sans-Serif" font-size="10.00">+</text>
<text text-anchor="start" x="273" y="-756.5" font-family="Helvetica,sans-Serif" font-size="10.00">setCable()</text>
<text text-anchor="start" x="260" y="-741.5" font-family="Helvetica,sans-Serif" font-size="10.00">+</text>
<text text-anchor="start" x="273" y="-741.5" font-family="Helvetica,sans-Serif" font-size="10.00">isValid()</text>
<polygon fill="#666666" stroke="#666666" points="256,-1006.5 256,-1006.5 380,-1006.5 380,-1006.5 256,-1006.5"/>
<polygon fill="#666666" stroke="#666666" points="256,-871.5 256,-871.5 271,-871.5 271,-871.5 256,-871.5"/>
<polygon fill="#666666" stroke="#666666" points="271,-871.5 271,-871.5 380,-871.5 380,-871.5 271,-871.5"/>
<polygon fill="none" stroke="#666666" points="256,-735 256,-1024 380,-1024 380,-735 256,-735"/>
</a>
</g>
</g>
<!-- Node5&#45;&gt;Node7 -->
<g id="edge8_Node000007_Node000005" class="edge">
<title>Node5&#45;&gt;Node7</title>
<g id="a_edge8_Node000007_Node000005"><a xlink:title=" ">
<path fill="none" stroke="#63b8ff" d="M320.56,-1407.74C320.08,-1310.13 319.32,-1153.58 318.76,-1036.38"/>
<polygon fill="none" stroke="#63b8ff" points="318.75,-1036.09 314.73,-1030.11 318.7,-1024.09 322.73,-1030.07 318.75,-1036.09"/>
</a>
</g>
<text text-anchor="middle" x="340" y="-1382" font-family="Helvetica,sans-Serif" font-size="10.00" fill="grey"> +cable</text>
</g>
<!-- Node8 -->
<g id="Node000008" class="node">
<title>Node8</title>
<g id="a_Node000008"><a xlink:href="../../db/d45/structSysExMessage.html" target="_top" xlink:title=" ">
<polygon fill="white" stroke="transparent" points="514,-1001.5 386,-1001.5 386,-757.5 514,-757.5 514,-1001.5"/>
<text text-anchor="start" x="413.5" y="-989.5" font-family="Helvetica,sans-Serif" font-size="10.00">SysExMessage</text>
<text text-anchor="start" x="390" y="-974.5" font-family="Helvetica,sans-Serif" font-size="10.00">+</text>
<text text-anchor="start" x="403" y="-974.5" font-family="Helvetica,sans-Serif" font-size="10.00">data</text>
<text text-anchor="start" x="390" y="-959.5" font-family="Helvetica,sans-Serif" font-size="10.00">+</text>
<text text-anchor="start" x="403" y="-959.5" font-family="Helvetica,sans-Serif" font-size="10.00">length</text>
<text text-anchor="start" x="390" y="-944.5" font-family="Helvetica,sans-Serif" font-size="10.00">+</text>
<text text-anchor="start" x="403" y="-944.5" font-family="Helvetica,sans-Serif" font-size="10.00">SysExStart</text>
<text text-anchor="start" x="390" y="-929.5" font-family="Helvetica,sans-Serif" font-size="10.00">+</text>
<text text-anchor="start" x="403" y="-929.5" font-family="Helvetica,sans-Serif" font-size="10.00">SysExEnd</text>
<text text-anchor="start" x="390" y="-914.5" font-family="Helvetica,sans-Serif" font-size="10.00">+</text>
<text text-anchor="start" x="403" y="-914.5" font-family="Helvetica,sans-Serif" font-size="10.00">SysExMessage()</text>
<text text-anchor="start" x="390" y="-899.5" font-family="Helvetica,sans-Serif" font-size="10.00">+</text>
<text text-anchor="start" x="403" y="-899.5" font-family="Helvetica,sans-Serif" font-size="10.00">SysExMessage()</text>
<text text-anchor="start" x="390" y="-884.5" font-family="Helvetica,sans-Serif" font-size="10.00">+</text>
<text text-anchor="start" x="403" y="-884.5" font-family="Helvetica,sans-Serif" font-size="10.00">SysExMessage()</text>
<text text-anchor="start" x="390" y="-869.5" font-family="Helvetica,sans-Serif" font-size="10.00">+</text>
<text text-anchor="start" x="403" y="-869.5" font-family="Helvetica,sans-Serif" font-size="10.00">SysExMessage()</text>
<text text-anchor="start" x="390" y="-854.5" font-family="Helvetica,sans-Serif" font-size="10.00">+</text>
<text text-anchor="start" x="403" y="-854.5" font-family="Helvetica,sans-Serif" font-size="10.00">operator==()</text>
<text text-anchor="start" x="390" y="-839.5" font-family="Helvetica,sans-Serif" font-size="10.00">+</text>
<text text-anchor="start" x="403" y="-839.5" font-family="Helvetica,sans-Serif" font-size="10.00">operator!=()</text>
<text text-anchor="start" x="390" y="-824.5" font-family="Helvetica,sans-Serif" font-size="10.00">+</text>
<text text-anchor="start" x="403" y="-824.5" font-family="Helvetica,sans-Serif" font-size="10.00">getCable()</text>
<text text-anchor="start" x="390" y="-809.5" font-family="Helvetica,sans-Serif" font-size="10.00">+</text>
<text text-anchor="start" x="403" y="-809.5" font-family="Helvetica,sans-Serif" font-size="10.00">setCable()</text>
<text text-anchor="start" x="390" y="-794.5" font-family="Helvetica,sans-Serif" font-size="10.00">+</text>
<text text-anchor="start" x="403" y="-794.5" font-family="Helvetica,sans-Serif" font-size="10.00">isFirstChunk()</text>
<text text-anchor="start" x="390" y="-779.5" font-family="Helvetica,sans-Serif" font-size="10.00">+</text>
<text text-anchor="start" x="403" y="-779.5" font-family="Helvetica,sans-Serif" font-size="10.00">isLastChunk()</text>
<text text-anchor="start" x="390" y="-764.5" font-family="Helvetica,sans-Serif" font-size="10.00">+</text>
<text text-anchor="start" x="403" y="-764.5" font-family="Helvetica,sans-Serif" font-size="10.00">isCompleteMessage()</text>
<polygon fill="#666666" stroke="#666666" points="386,-984.5 386,-984.5 514,-984.5 514,-984.5 386,-984.5"/>
<polygon fill="#666666" stroke="#666666" points="386,-924.5 386,-924.5 401,-924.5 401,-924.5 386,-924.5"/>
<polygon fill="#666666" stroke="#666666" points="401,-924.5 401,-924.5 514,-924.5 514,-924.5 401,-924.5"/>
<polygon fill="none" stroke="#666666" points="386,-757.5 386,-1001.5 514,-1001.5 514,-757.5 386,-757.5"/>
</a>
</g>
</g>
<!-- Node5&#45;&gt;Node8 -->
<g id="edge10_Node000008_Node000005" class="edge">
<title>Node5&#45;&gt;Node8</title>
<g id="a_edge10_Node000008_Node000005"><a xlink:title=" ">
<path fill="none" stroke="#63b8ff" d="M357.63,-1407.86C359.57,-1401.85 361.39,-1395.87 363,-1390 397.54,-1264.43 420.88,-1117.49 434.62,-1013.76"/>
<polygon fill="none" stroke="#63b8ff" points="434.65,-1013.55 431.46,-1007.08 436.2,-1001.65 439.39,-1008.12 434.65,-1013.55"/>
</a>
</g>
<text text-anchor="middle" x="385" y="-1382" font-family="Helvetica,sans-Serif" font-size="10.00" fill="grey"> +cable</text>
</g>
<!-- Node6&#45;&gt;Node2 -->
<g id="edge5_Node000002_Node000006" class="edge">
<title>Node6&#45;&gt;Node2</title>
<g id="a_edge5_Node000002_Node000006"><a xlink:title=" ">
<path fill="none" stroke="#63b8ff" d="M180.24,-457.7C179.7,-437.71 181.96,-417.42 189,-399 193.33,-387.68 200.36,-377.02 208.22,-367.56"/>
<polygon fill="none" stroke="#63b8ff" points="208.29,-367.47 209.3,-360.33 216.28,-358.51 215.27,-365.65 208.29,-367.47"/>
</a>
</g>
<text text-anchor="middle" x="246.5" y="-402" font-family="Helvetica,sans-Serif" font-size="10.00" fill="grey"> +syscommonmessage</text>
</g>
<!-- Node7&#45;&gt;Node2 -->
<g id="edge7_Node000002_Node000007" class="edge">
<title>Node7&#45;&gt;Node2</title>
<g id="a_edge7_Node000002_Node000007"><a xlink:title=" ">
<path fill="none" stroke="#63b8ff" d="M322.94,-734.8C325.32,-616.53 324.16,-458.94 304,-399 301.9,-392.77 299.07,-386.61 295.8,-380.67"/>
<polygon fill="none" stroke="#63b8ff" points="295.71,-380.53 289.19,-377.46 289.51,-370.25 296.04,-373.32 295.71,-380.53"/>
</a>
</g>
<text text-anchor="middle" x="372.5" y="-570" font-family="Helvetica,sans-Serif" font-size="10.00" fill="grey"> +realtimemessage</text>
</g>
<!-- Node8&#45;&gt;Node2 -->
<g id="edge9_Node000002_Node000008" class="edge">
<title>Node8&#45;&gt;Node2</title>
<g id="a_edge9_Node000002_Node000008"><a xlink:title=" ">
<path fill="none" stroke="#63b8ff" d="M472.81,-757.45C484.38,-661.11 485.26,-526.58 425,-428 397.5,-383.02 341.76,-355.97 301.16,-341.45"/>
<polygon fill="none" stroke="#63b8ff" points="300.98,-341.38 294.01,-343.23 289.62,-337.51 296.59,-335.66 300.98,-341.38"/>
</a>
</g>
<text text-anchor="middle" x="521.5" y="-570" font-family="Helvetica,sans-Serif" font-size="10.00" fill="grey"> +sysexmessage</text>
</g>
</g>
</svg>
