<?xml version="1.0" encoding="UTF-8" standalone="no"?>
<!DOCTYPE svg PUBLIC "-//W3C//DTD SVG 1.1//EN"
 "http://www.w3.org/Graphics/SVG/1.1/DTD/svg11.dtd">
<!-- Generated by graphviz version 2.40.1 (20161225.0304)
 -->
<!-- Title: GenericMIDIRotaryEncoder&lt; Enc, BankAddress, Sender &gt; Pages: 1 -->
<svg width="378pt" height="728pt"
 viewBox="0.00 0.00 378.00 728.00" xmlns="http://www.w3.org/2000/svg" xmlns:xlink="http://www.w3.org/1999/xlink">
<g id="graph0" class="graph" transform="scale(1 1) rotate(0) translate(4 724)">
<title>GenericMIDIRotaryEncoder&lt; Enc, BankAddress, Sender &gt;</title>
<polygon fill="#ffffff" stroke="transparent" points="-4,4 -4,-724 374,-724 374,4 -4,4"/>
<!-- Node1 -->
<g id="node1" class="node">
<title>Node1</title>
<g id="a_node1"><a xlink:title="An abstract class for rotary encoders that send MIDI events and that can be added to a Bank.">
<polygon fill="#bfbfbf" stroke="#000000" points="106.5,-105.5 106.5,-250.5 259.5,-250.5 259.5,-105.5 106.5,-105.5"/>
<text text-anchor="start" x="114.5" y="-238.5" font-family="Helvetica,sans-Serif" font-size="10.00" fill="#000000">GenericMIDIRotaryEncoder</text>
<text text-anchor="middle" x="183" y="-227.5" font-family="Helvetica,sans-Serif" font-size="10.00" fill="#000000">&lt; Enc, BankAddress, Sender &gt;</text>
<polyline fill="none" stroke="#000000" points="106.5,-220.5 259.5,-220.5 "/>
<text text-anchor="start" x="114.5" y="-208.5" font-family="Helvetica,sans-Serif" font-size="10.00" fill="#000000">+ sender</text>
<text text-anchor="start" x="114.5" y="-197.5" font-family="Helvetica,sans-Serif" font-size="10.00" fill="#000000">&#45; address</text>
<text text-anchor="start" x="114.5" y="-186.5" font-family="Helvetica,sans-Serif" font-size="10.00" fill="#000000">&#45; encoder</text>
<text text-anchor="start" x="114.5" y="-175.5" font-family="Helvetica,sans-Serif" font-size="10.00" fill="#000000">&#45; speedMultiply</text>
<text text-anchor="start" x="114.5" y="-164.5" font-family="Helvetica,sans-Serif" font-size="10.00" fill="#000000">&#45; pulsesPerStep</text>
<text text-anchor="start" x="114.5" y="-153.5" font-family="Helvetica,sans-Serif" font-size="10.00" fill="#000000">&#45; deltaOffset</text>
<polyline fill="none" stroke="#000000" points="106.5,-146.5 259.5,-146.5 "/>
<text text-anchor="start" x="114.5" y="-134.5" font-family="Helvetica,sans-Serif" font-size="10.00" fill="#000000">+ begin()</text>
<text text-anchor="start" x="114.5" y="-123.5" font-family="Helvetica,sans-Serif" font-size="10.00" fill="#000000">+ update()</text>
<text text-anchor="start" x="114.5" y="-112.5" font-family="Helvetica,sans-Serif" font-size="10.00" fill="#000000"># GenericMIDIRotaryEncoder()</text>
</a>
</g>
</g>
<!-- Node5 -->
<g id="node5" class="node">
<title>Node5</title>
<g id="a_node5"><a xlink:href="../../da/d40/classBankable_1_1CCRotaryEncoder.html" target="_top" xlink:title="A class of MIDIOutputElements that read the input of a quadrature (rotary) encoder and send out relat...">
<polygon fill="#ffffff" stroke="#000000" points="0,-.5 0,-68.5 172,-68.5 172,-.5 0,-.5"/>
<text text-anchor="start" x="8" y="-56.5" font-family="Helvetica,sans-Serif" font-size="10.00" fill="#000000">CCRotaryEncoder&lt; SingleAddress,</text>
<text text-anchor="middle" x="86" y="-45.5" font-family="Helvetica,sans-Serif" font-size="10.00" fill="#000000"> RelativeCCSender &gt;</text>
<polyline fill="none" stroke="#000000" points="0,-38.5 172,-38.5 "/>
<text text-anchor="middle" x="86" y="-26.5" font-family="Helvetica,sans-Serif" font-size="10.00" fill="#000000"> </text>
<polyline fill="none" stroke="#000000" points="0,-19.5 172,-19.5 "/>
<text text-anchor="start" x="8" y="-7.5" font-family="Helvetica,sans-Serif" font-size="10.00" fill="#000000">+ CCRotaryEncoder()</text>
</a>
</g>
</g>
<!-- Node1&#45;&gt;Node5 -->
<g id="edge4" class="edge">
<title>Node1&#45;&gt;Node5</title>
<path fill="none" stroke="#191970" d="M128.2725,-97.0372C121.567,-87.1171 115.0229,-77.436 109.1646,-68.7692"/>
<polygon fill="none" stroke="#191970" points="125.4317,-99.0845 133.9317,-105.4092 131.2311,-95.1643 125.4317,-99.0845"/>
</g>
<!-- Node6 -->
<g id="node6" class="node">
<title>Node6</title>
<g id="a_node6"><a xlink:href="../../d4/da8/classBankable_1_1ManyAddresses_1_1CCRotaryEncoder.html" target="_top" xlink:title="A class of MIDIOutputElements that read the input of a quadrature (rotary) encoder and send out relat...">
<polygon fill="#ffffff" stroke="#000000" points="190,-.5 190,-68.5 370,-68.5 370,-.5 190,-.5"/>
<text text-anchor="start" x="198" y="-56.5" font-family="Helvetica,sans-Serif" font-size="10.00" fill="#000000">CCRotaryEncoder&lt; ManyAddresses</text>
<text text-anchor="middle" x="280" y="-45.5" font-family="Helvetica,sans-Serif" font-size="10.00" fill="#000000">&lt; NumBanks &gt;, RelativeCCSender &gt;</text>
<polyline fill="none" stroke="#000000" points="190,-38.5 370,-38.5 "/>
<text text-anchor="middle" x="280" y="-26.5" font-family="Helvetica,sans-Serif" font-size="10.00" fill="#000000"> </text>
<polyline fill="none" stroke="#000000" points="190,-19.5 370,-19.5 "/>
<text text-anchor="start" x="198" y="-7.5" font-family="Helvetica,sans-Serif" font-size="10.00" fill="#000000">+ CCRotaryEncoder()</text>
</a>
</g>
</g>
<!-- Node1&#45;&gt;Node6 -->
<g id="edge5" class="edge">
<title>Node1&#45;&gt;Node6</title>
<path fill="none" stroke="#191970" d="M237.7275,-97.0372C244.433,-87.1171 250.9771,-77.436 256.8354,-68.7692"/>
<polygon fill="none" stroke="#191970" points="234.7689,-95.1643 232.0683,-105.4092 240.5683,-99.0845 234.7689,-95.1643"/>
</g>
<!-- Node2 -->
<g id="node2" class="node">
<title>Node2</title>
<g id="a_node2"><a xlink:href="../../d1/d55/classAH_1_1Updatable.html" target="_top" xlink:title=" ">
<polygon fill="#ffffff" stroke="#000000" points="131,-287.5 131,-377.5 235,-377.5 235,-287.5 131,-287.5"/>
<text text-anchor="middle" x="183" y="-365.5" font-family="Helvetica,sans-Serif" font-size="10.00" fill="#000000">MIDIOutputElement</text>
<polyline fill="none" stroke="#000000" points="131,-358.5 235,-358.5 "/>
<text text-anchor="middle" x="183" y="-346.5" font-family="Helvetica,sans-Serif" font-size="10.00" fill="#000000"> </text>
<polyline fill="none" stroke="#000000" points="131,-339.5 235,-339.5 "/>
<text text-anchor="start" x="139" y="-327.5" font-family="Helvetica,sans-Serif" font-size="10.00" fill="#000000">* begin()</text>
<text text-anchor="start" x="139" y="-316.5" font-family="Helvetica,sans-Serif" font-size="10.00" fill="#000000">* update()</text>
<text text-anchor="start" x="139" y="-305.5" font-family="Helvetica,sans-Serif" font-size="10.00" fill="#000000">* beginAll()</text>
<text text-anchor="start" x="139" y="-294.5" font-family="Helvetica,sans-Serif" font-size="10.00" fill="#000000">* updateAll()</text>
</a>
</g>
</g>
<!-- Node2&#45;&gt;Node1 -->
<g id="edge1" class="edge">
<title>Node2&#45;&gt;Node1</title>
<path fill="none" stroke="#191970" d="M183,-277.1753C183,-268.61 183,-259.6527 183,-250.7745"/>
<polygon fill="none" stroke="#191970" points="179.5001,-277.3968 183,-287.3969 186.5001,-277.3969 179.5001,-277.3968"/>
</g>
<!-- Node3 -->
<g id="node3" class="node">
<title>Node3</title>
<g id="a_node3"><a xlink:href="../../d8/d1a/classAH_1_1UpdatableCRTP.html" target="_top" xlink:title=" ">
<polygon fill="#ffffff" stroke="#000000" points="112,-414.5 112,-603.5 254,-603.5 254,-414.5 112,-414.5"/>
<text text-anchor="start" x="120" y="-591.5" font-family="Helvetica,sans-Serif" font-size="10.00" fill="#000000">UpdatableCRTP&lt; Updatable</text>
<text text-anchor="middle" x="183" y="-580.5" font-family="Helvetica,sans-Serif" font-size="10.00" fill="#000000">&lt; NormalUpdatable &gt; &gt;</text>
<polyline fill="none" stroke="#000000" points="112,-573.5 254,-573.5 "/>
<text text-anchor="start" x="120" y="-561.5" font-family="Helvetica,sans-Serif" font-size="10.00" fill="#000000"># updatables</text>
<polyline fill="none" stroke="#000000" points="112,-554.5 254,-554.5 "/>
<text text-anchor="start" x="120" y="-542.5" font-family="Helvetica,sans-Serif" font-size="10.00" fill="#000000">+ ~UpdatableCRTP()</text>
<text text-anchor="start" x="120" y="-531.5" font-family="Helvetica,sans-Serif" font-size="10.00" fill="#000000"># UpdatableCRTP()</text>
<text text-anchor="start" x="120" y="-520.5" font-family="Helvetica,sans-Serif" font-size="10.00" fill="#000000">* enable()</text>
<text text-anchor="start" x="120" y="-509.5" font-family="Helvetica,sans-Serif" font-size="10.00" fill="#000000">* disable()</text>
<text text-anchor="start" x="120" y="-498.5" font-family="Helvetica,sans-Serif" font-size="10.00" fill="#000000">* isEnabled()</text>
<text text-anchor="start" x="120" y="-487.5" font-family="Helvetica,sans-Serif" font-size="10.00" fill="#000000">* enable()</text>
<text text-anchor="start" x="120" y="-476.5" font-family="Helvetica,sans-Serif" font-size="10.00" fill="#000000">* enable()</text>
<text text-anchor="start" x="120" y="-465.5" font-family="Helvetica,sans-Serif" font-size="10.00" fill="#000000">* enable()</text>
<text text-anchor="start" x="120" y="-454.5" font-family="Helvetica,sans-Serif" font-size="10.00" fill="#000000">* disable()</text>
<text text-anchor="start" x="120" y="-443.5" font-family="Helvetica,sans-Serif" font-size="10.00" fill="#000000">* disable()</text>
<text text-anchor="start" x="120" y="-432.5" font-family="Helvetica,sans-Serif" font-size="10.00" fill="#000000">* disable()</text>
<text text-anchor="start" x="120" y="-421.5" font-family="Helvetica,sans-Serif" font-size="10.00" fill="#000000">* applyToAll()</text>
</a>
</g>
</g>
<!-- Node3&#45;&gt;Node2 -->
<g id="edge2" class="edge">
<title>Node3&#45;&gt;Node2</title>
<path fill="none" stroke="#191970" d="M183,-404.1839C183,-394.9415 183,-385.9505 183,-377.6363"/>
<polygon fill="none" stroke="#191970" points="179.5001,-404.2915 183,-414.2915 186.5001,-404.2915 179.5001,-404.2915"/>
</g>
<!-- Node4 -->
<g id="node4" class="node">
<title>Node4</title>
<g id="a_node4"><a xlink:href="../../d4/d23/classDoublyLinkable.html" target="_top" xlink:title=" ">
<polygon fill="#ffffff" stroke="#000000" points="114.5,-640.5 114.5,-719.5 251.5,-719.5 251.5,-640.5 114.5,-640.5"/>
<text text-anchor="start" x="122.5" y="-707.5" font-family="Helvetica,sans-Serif" font-size="10.00" fill="#000000">DoublyLinkable&lt; Updatable</text>
<text text-anchor="middle" x="183" y="-696.5" font-family="Helvetica,sans-Serif" font-size="10.00" fill="#000000">&lt; NormalUpdatable &gt; &gt;</text>
<polyline fill="none" stroke="#000000" points="114.5,-689.5 251.5,-689.5 "/>
<text text-anchor="start" x="122.5" y="-677.5" font-family="Helvetica,sans-Serif" font-size="10.00" fill="#000000"># next</text>
<text text-anchor="start" x="122.5" y="-666.5" font-family="Helvetica,sans-Serif" font-size="10.00" fill="#000000"># previous</text>
<polyline fill="none" stroke="#000000" points="114.5,-659.5 251.5,-659.5 "/>
<text text-anchor="start" x="122.5" y="-647.5" font-family="Helvetica,sans-Serif" font-size="10.00" fill="#000000"># ~DoublyLinkable()</text>
</a>
</g>
</g>
<!-- Node4&#45;&gt;Node3 -->
<g id="edge3" class="edge">
<title>Node4&#45;&gt;Node3</title>
<path fill="none" stroke="#191970" d="M183,-630.33C183,-621.868 183,-612.8344 183,-603.6585"/>
<polygon fill="none" stroke="#191970" points="179.5001,-630.3393 183,-640.3394 186.5001,-630.3394 179.5001,-630.3393"/>
</g>
</g>
</svg>
