<?xml version="1.0" encoding="UTF-8" standalone="no"?>
<!DOCTYPE svg PUBLIC "-//W3C//DTD SVG 1.1//EN"
 "http://www.w3.org/Graphics/SVG/1.1/DTD/svg11.dtd">
<!-- Generated by graphviz version 2.43.0 (0)
 -->
<!-- Title: BLEMIDIPacketBuilder.cpp Pages: 1 -->
<svg width="1394pt" height="890pt"
 viewBox="0.00 0.00 1393.50 890.00" xmlns="http://www.w3.org/2000/svg" xmlns:xlink="http://www.w3.org/1999/xlink">
<g id="graph0" class="graph" transform="scale(1 1) rotate(0) translate(4 886)">
<title>BLEMIDIPacketBuilder.cpp</title>
<polygon fill="white" stroke="transparent" points="-4,4 -4,-886 1389.5,-886 1389.5,4 -4,4"/>
<!-- Node1 -->
<g id="node1" class="node">
<title>Node1</title>
<g id="a_node1"><a xlink:title=" ">
<polygon fill="#bfbfbf" stroke="black" points="79,-862.5 79,-881.5 222,-881.5 222,-862.5 79,-862.5"/>
<text text-anchor="middle" x="150.5" y="-869.5" font-family="Helvetica,sans-Serif" font-size="10.00">BLEMIDIPacketBuilder.cpp</text>
</a>
</g>
</g>
<!-- Node2 -->
<g id="node2" class="node">
<title>Node2</title>
<g id="a_node2"><a xlink:href="../../dc/d21/BLEMIDIPacketBuilder_8hpp.html" target="_top" xlink:title=" ">
<polygon fill="white" stroke="black" points="79,-806.5 79,-825.5 222,-825.5 222,-806.5 79,-806.5"/>
<text text-anchor="middle" x="150.5" y="-813.5" font-family="Helvetica,sans-Serif" font-size="10.00">BLEMIDIPacketBuilder.hpp</text>
</a>
</g>
</g>
<!-- Node1&#45;&gt;Node2 -->
<g id="edge1" class="edge">
<title>Node1&#45;&gt;Node2</title>
<path fill="none" stroke="midnightblue" d="M150.5,-862.08C150.5,-855.01 150.5,-844.86 150.5,-835.99"/>
<polygon fill="midnightblue" stroke="midnightblue" points="154,-835.75 150.5,-825.75 147,-835.75 154,-835.75"/>
</g>
<!-- Node3 -->
<g id="node3" class="node">
<title>Node3</title>
<g id="a_node3"><a xlink:href="../../dc/d40/MIDI__MessageTypes_8hpp.html" target="_top" xlink:title=" ">
<polygon fill="white" stroke="black" points="182.5,-739.5 182.5,-769.5 336.5,-769.5 336.5,-739.5 182.5,-739.5"/>
<text text-anchor="start" x="190.5" y="-757.5" font-family="Helvetica,sans-Serif" font-size="10.00">MIDI_Parsers/MIDI_Message</text>
<text text-anchor="middle" x="259.5" y="-746.5" font-family="Helvetica,sans-Serif" font-size="10.00">Types.hpp</text>
</a>
</g>
</g>
<!-- Node2&#45;&gt;Node3 -->
<g id="edge2" class="edge">
<title>Node2&#45;&gt;Node3</title>
<path fill="none" stroke="midnightblue" d="M166.12,-806.48C181.36,-798.15 205.08,-785.21 224.79,-774.45"/>
<polygon fill="midnightblue" stroke="midnightblue" points="226.71,-777.39 233.81,-769.52 223.36,-771.24 226.71,-777.39"/>
</g>
<!-- Node12 -->
<g id="node12" class="node">
<title>Node12</title>
<g id="a_node12"><a xlink:title=" ">
<polygon fill="white" stroke="#bfbfbf" points="0,-683.5 0,-702.5 85,-702.5 85,-683.5 0,-683.5"/>
<text text-anchor="middle" x="42.5" y="-690.5" font-family="Helvetica,sans-Serif" font-size="10.00">AH/STL/vector</text>
</a>
</g>
</g>
<!-- Node2&#45;&gt;Node12 -->
<g id="edge64" class="edge">
<title>Node2&#45;&gt;Node12</title>
<path fill="none" stroke="midnightblue" d="M142.73,-806.3C124.75,-786.15 80.04,-736.06 56.89,-710.12"/>
<polygon fill="midnightblue" stroke="midnightblue" points="59.47,-707.75 50.2,-702.62 54.24,-712.41 59.47,-707.75"/>
</g>
<!-- Node4 -->
<g id="node4" class="node">
<title>Node4</title>
<g id="a_node4"><a xlink:href="../../d6/ddf/Arduino-Wrapper_8h.html" target="_top" xlink:title=" ">
<polygon fill="white" stroke="black" points="348.5,-168.5 348.5,-187.5 472.5,-187.5 472.5,-168.5 348.5,-168.5"/>
<text text-anchor="middle" x="410.5" y="-175.5" font-family="Helvetica,sans-Serif" font-size="10.00">AH/Arduino&#45;Wrapper.h</text>
</a>
</g>
</g>
<!-- Node3&#45;&gt;Node4 -->
<g id="edge3" class="edge">
<title>Node3&#45;&gt;Node4</title>
<path fill="none" stroke="midnightblue" d="M192.63,-739.42C170.89,-731.86 148.31,-720.37 132.5,-703 112.24,-680.74 113.5,-668.1 113.5,-638 113.5,-638 113.5,-638 113.5,-289 113.5,-239.61 259.74,-205.37 346.99,-189.34"/>
<polygon fill="midnightblue" stroke="midnightblue" points="347.84,-192.74 357.06,-187.52 346.6,-185.85 347.84,-192.74"/>
</g>
<!-- Node6 -->
<g id="node6" class="node">
<title>Node6</title>
<g id="a_node6"><a xlink:href="../../d1/d65/Warnings_8hpp.html" target="_top" xlink:title=" ">
<polygon fill="white" stroke="black" points="935,-0.5 935,-19.5 1078,-19.5 1078,-0.5 935,-0.5"/>
<text text-anchor="middle" x="1006.5" y="-7.5" font-family="Helvetica,sans-Serif" font-size="10.00">AH/Settings/Warnings.hpp</text>
</a>
</g>
</g>
<!-- Node3&#45;&gt;Node6 -->
<g id="edge14" class="edge">
<title>Node3&#45;&gt;Node6</title>
<path fill="none" stroke="midnightblue" d="M336.89,-753.69C591.29,-753.3 1385.5,-743.63 1385.5,-638 1385.5,-638 1385.5,-638 1385.5,-121 1385.5,-80.14 1357.04,-74.28 1320.5,-56 1281.02,-36.25 1167.87,-23.59 1088.78,-16.88"/>
<polygon fill="midnightblue" stroke="midnightblue" points="1088.6,-13.36 1078.34,-16.02 1088.02,-20.33 1088.6,-13.36"/>
</g>
<!-- Node11 -->
<g id="node11" class="node">
<title>Node11</title>
<g id="a_node11"><a xlink:title=" ">
<polygon fill="white" stroke="#bfbfbf" points="141.5,-683.5 141.5,-702.5 231.5,-702.5 231.5,-683.5 141.5,-683.5"/>
<text text-anchor="middle" x="186.5" y="-690.5" font-family="Helvetica,sans-Serif" font-size="10.00">AH/STL/cstddef</text>
</a>
</g>
</g>
<!-- Node3&#45;&gt;Node11 -->
<g id="edge12" class="edge">
<title>Node3&#45;&gt;Node11</title>
<path fill="none" stroke="midnightblue" d="M242.2,-739.4C231.05,-730.31 216.55,-718.49 205.14,-709.19"/>
<polygon fill="midnightblue" stroke="midnightblue" points="207.08,-706.26 197.12,-702.66 202.66,-711.69 207.08,-706.26"/>
</g>
<!-- Node3&#45;&gt;Node12 -->
<g id="edge13" class="edge">
<title>Node3&#45;&gt;Node12</title>
<path fill="none" stroke="midnightblue" d="M208.35,-739.47C170.26,-729.03 118.93,-714.96 83.52,-705.25"/>
<polygon fill="midnightblue" stroke="midnightblue" points="84.09,-701.78 73.52,-702.51 82.24,-708.53 84.09,-701.78"/>
</g>
<!-- Node13 -->
<g id="node13" class="node">
<title>Node13</title>
<g id="a_node13"><a xlink:title=" ">
<polygon fill="white" stroke="#bfbfbf" points="309.5,-280.5 309.5,-299.5 487.5,-299.5 487.5,-280.5 309.5,-280.5"/>
<text text-anchor="middle" x="398.5" y="-287.5" font-family="Helvetica,sans-Serif" font-size="10.00">Settings/NamespaceSettings.hpp</text>
</a>
</g>
</g>
<!-- Node3&#45;&gt;Node13 -->
<g id="edge15" class="edge">
<title>Node3&#45;&gt;Node13</title>
<path fill="none" stroke="midnightblue" d="M259.5,-739.28C259.5,-717.48 259.5,-674.49 259.5,-638 259.5,-638 259.5,-638 259.5,-513 259.5,-423.38 341.89,-340.17 379.81,-306.62"/>
<polygon fill="midnightblue" stroke="midnightblue" points="382.32,-309.07 387.59,-299.88 377.74,-303.78 382.32,-309.07"/>
</g>
<!-- Node14 -->
<g id="node14" class="node">
<title>Node14</title>
<g id="a_node14"><a xlink:href="../../d2/dbc/Cable_8hpp.html" target="_top" xlink:title=" ">
<polygon fill="white" stroke="black" points="325.5,-504.5 325.5,-523.5 411.5,-523.5 411.5,-504.5 325.5,-504.5"/>
<text text-anchor="middle" x="368.5" y="-511.5" font-family="Helvetica,sans-Serif" font-size="10.00">Def/Cable.hpp</text>
</a>
</g>
</g>
<!-- Node3&#45;&gt;Node14 -->
<g id="edge16" class="edge">
<title>Node3&#45;&gt;Node14</title>
<path fill="none" stroke="midnightblue" d="M278.2,-739.42C289.3,-730.17 302.86,-717.19 311.5,-703 345.61,-647.02 360.63,-569.13 366,-533.78"/>
<polygon fill="midnightblue" stroke="midnightblue" points="369.46,-534.27 367.41,-523.88 362.53,-533.28 369.46,-534.27"/>
</g>
<!-- Node15 -->
<g id="node15" class="node">
<title>Node15</title>
<g id="a_node15"><a xlink:href="../../d7/d42/Channel_8hpp.html" target="_top" xlink:title=" ">
<polygon fill="white" stroke="black" points="312.5,-392.5 312.5,-411.5 410.5,-411.5 410.5,-392.5 312.5,-392.5"/>
<text text-anchor="middle" x="361.5" y="-399.5" font-family="Helvetica,sans-Serif" font-size="10.00">Def/Channel.hpp</text>
</a>
</g>
</g>
<!-- Node3&#45;&gt;Node15 -->
<g id="edge19" class="edge">
<title>Node3&#45;&gt;Node15</title>
<path fill="none" stroke="midnightblue" d="M267.37,-739.41C278.5,-718.13 297.5,-676.21 297.5,-638 297.5,-638 297.5,-638 297.5,-574.5 297.5,-514.83 331.93,-450.42 350.29,-420.34"/>
<polygon fill="midnightblue" stroke="midnightblue" points="353.48,-421.84 355.82,-411.5 347.54,-418.12 353.48,-421.84"/>
</g>
<!-- Node16 -->
<g id="node16" class="node">
<title>Node16</title>
<g id="a_node16"><a xlink:href="../../db/dd6/MIDIAddress_8hpp.html" target="_top" xlink:title=" ">
<polygon fill="white" stroke="black" points="405,-683.5 405,-702.5 524,-702.5 524,-683.5 405,-683.5"/>
<text text-anchor="middle" x="464.5" y="-690.5" font-family="Helvetica,sans-Serif" font-size="10.00">Def/MIDIAddress.hpp</text>
</a>
</g>
</g>
<!-- Node3&#45;&gt;Node16 -->
<g id="edge22" class="edge">
<title>Node3&#45;&gt;Node16</title>
<path fill="none" stroke="midnightblue" d="M307.82,-739.47C343.65,-729.08 391.88,-715.08 425.32,-705.37"/>
<polygon fill="midnightblue" stroke="midnightblue" points="426.56,-708.66 435.19,-702.51 424.61,-701.93 426.56,-708.66"/>
</g>
<!-- Node5 -->
<g id="node5" class="node">
<title>Node5</title>
<g id="a_node5"><a xlink:href="../../d7/d79/MinMaxFix_8hpp.html" target="_top" xlink:title=" ">
<polygon fill="white" stroke="black" points="390.5,-112.5 390.5,-131.5 526.5,-131.5 526.5,-112.5 390.5,-112.5"/>
<text text-anchor="middle" x="458.5" y="-119.5" font-family="Helvetica,sans-Serif" font-size="10.00">AH/Math/MinMaxFix.hpp</text>
</a>
</g>
</g>
<!-- Node4&#45;&gt;Node5 -->
<g id="edge4" class="edge">
<title>Node4&#45;&gt;Node5</title>
<path fill="none" stroke="midnightblue" d="M418.43,-168.08C425.35,-160.3 435.57,-148.8 443.95,-139.37"/>
<polygon fill="midnightblue" stroke="midnightblue" points="446.69,-141.55 450.72,-131.75 441.46,-136.9 446.69,-141.55"/>
</g>
<!-- Node8 -->
<g id="node8" class="node">
<title>Node8</title>
<g id="a_node8"><a xlink:title=" ">
<polygon fill="white" stroke="#bfbfbf" points="388,-0.5 388,-19.5 451,-19.5 451,-0.5 388,-0.5"/>
<text text-anchor="middle" x="419.5" y="-7.5" font-family="Helvetica,sans-Serif" font-size="10.00">Arduino.h</text>
</a>
</g>
</g>
<!-- Node4&#45;&gt;Node8 -->
<g id="edge11" class="edge">
<title>Node4&#45;&gt;Node8</title>
<path fill="none" stroke="midnightblue" d="M402.83,-168.46C395.72,-159.93 385.65,-146.09 381.5,-132 371.96,-99.6 369.9,-87.72 381.5,-56 385.56,-44.91 393.69,-34.67 401.39,-26.76"/>
<polygon fill="midnightblue" stroke="midnightblue" points="403.97,-29.14 408.79,-19.7 399.14,-24.07 403.97,-29.14"/>
</g>
<!-- Node10 -->
<g id="node10" class="node">
<title>Node10</title>
<g id="a_node10"><a xlink:title=" ">
<polygon fill="white" stroke="#bfbfbf" points="545,-112.5 545,-131.5 652,-131.5 652,-112.5 545,-112.5"/>
<text text-anchor="middle" x="598.5" y="-119.5" font-family="Helvetica,sans-Serif" font-size="10.00">AH/STL/type_traits</text>
</a>
</g>
</g>
<!-- Node4&#45;&gt;Node10 -->
<g id="edge10" class="edge">
<title>Node4&#45;&gt;Node10</title>
<path fill="none" stroke="midnightblue" d="M440.29,-168.44C472.33,-159.24 523.43,-144.56 558.85,-134.39"/>
<polygon fill="midnightblue" stroke="midnightblue" points="560.21,-137.64 568.85,-131.52 558.27,-130.91 560.21,-137.64"/>
</g>
<!-- Node5&#45;&gt;Node6 -->
<g id="edge5" class="edge">
<title>Node5&#45;&gt;Node6</title>
<path fill="none" stroke="midnightblue" d="M481.24,-112.48C519.12,-98.61 597.78,-71.17 666.5,-56 753.78,-36.73 855.61,-24.59 924.92,-17.84"/>
<polygon fill="midnightblue" stroke="midnightblue" points="925.28,-21.32 934.9,-16.88 924.61,-14.35 925.28,-21.32"/>
</g>
<!-- Node7 -->
<g id="node7" class="node">
<title>Node7</title>
<g id="a_node7"><a xlink:href="../../d6/d3b/FixArduinoMacros_8hpp.html" target="_top" xlink:title=" ">
<polygon fill="white" stroke="black" points="390.5,-56.5 390.5,-75.5 560.5,-75.5 560.5,-56.5 390.5,-56.5"/>
<text text-anchor="middle" x="475.5" y="-63.5" font-family="Helvetica,sans-Serif" font-size="10.00">AH/Math/FixArduinoMacros.hpp</text>
</a>
</g>
</g>
<!-- Node5&#45;&gt;Node7 -->
<g id="edge6" class="edge">
<title>Node5&#45;&gt;Node7</title>
<path fill="none" stroke="midnightblue" d="M461.31,-112.08C463.58,-104.85 466.87,-94.41 469.71,-85.4"/>
<polygon fill="midnightblue" stroke="midnightblue" points="473.08,-86.34 472.75,-75.75 466.4,-84.24 473.08,-86.34"/>
</g>
<!-- Node9 -->
<g id="node9" class="node">
<title>Node9</title>
<g id="a_node9"><a xlink:href="../../d6/db0/AH_2Settings_2NamespaceSettings_8hpp.html" target="_top" xlink:title=" ">
<polygon fill="white" stroke="black" points="746,-56.5 746,-75.5 941,-75.5 941,-56.5 746,-56.5"/>
<text text-anchor="middle" x="843.5" y="-63.5" font-family="Helvetica,sans-Serif" font-size="10.00">AH/Settings/NamespaceSettings.hpp</text>
</a>
</g>
</g>
<!-- Node5&#45;&gt;Node9 -->
<g id="edge9" class="edge">
<title>Node5&#45;&gt;Node9</title>
<path fill="none" stroke="midnightblue" d="M519.5,-112.44C588.36,-102.79 700.2,-87.1 772.8,-76.92"/>
<polygon fill="midnightblue" stroke="midnightblue" points="773.36,-80.37 782.78,-75.52 772.39,-73.44 773.36,-80.37"/>
</g>
<!-- Node7&#45;&gt;Node6 -->
<g id="edge7" class="edge">
<title>Node7&#45;&gt;Node6</title>
<path fill="none" stroke="midnightblue" d="M559.35,-56.47C659.37,-46.3 825.47,-29.41 924.62,-19.33"/>
<polygon fill="midnightblue" stroke="midnightblue" points="925,-22.81 934.59,-18.31 924.29,-15.84 925,-22.81"/>
</g>
<!-- Node7&#45;&gt;Node8 -->
<g id="edge8" class="edge">
<title>Node7&#45;&gt;Node8</title>
<path fill="none" stroke="midnightblue" d="M466.5,-56.32C458.31,-48.42 445.99,-36.55 436.03,-26.94"/>
<polygon fill="midnightblue" stroke="midnightblue" points="438.29,-24.26 428.66,-19.83 433.43,-29.29 438.29,-24.26"/>
</g>
<!-- Node14&#45;&gt;Node4 -->
<g id="edge17" class="edge">
<title>Node14&#45;&gt;Node4</title>
<path fill="none" stroke="midnightblue" d="M360.81,-504.31C346.64,-487.72 316.66,-449.81 303.5,-412 284.15,-356.4 278.57,-337.2 292.5,-280 299.13,-252.77 301.59,-243.72 321.5,-224 336.24,-209.4 356.68,-198.61 374.25,-191.26"/>
<polygon fill="midnightblue" stroke="midnightblue" points="375.66,-194.47 383.66,-187.53 373.08,-187.96 375.66,-194.47"/>
</g>
<!-- Node14&#45;&gt;Node13 -->
<g id="edge18" class="edge">
<title>Node14&#45;&gt;Node13</title>
<path fill="none" stroke="midnightblue" d="M374.65,-504.36C386.19,-487.56 410.72,-448.88 419.5,-412 428.11,-375.85 415.26,-332.83 406.18,-309.06"/>
<polygon fill="midnightblue" stroke="midnightblue" points="409.35,-307.55 402.37,-299.58 402.85,-310.17 409.35,-307.55"/>
</g>
<!-- Node15&#45;&gt;Node4 -->
<g id="edge20" class="edge">
<title>Node15&#45;&gt;Node4</title>
<path fill="none" stroke="midnightblue" d="M351.3,-392.35C329.45,-372.7 281.57,-323.08 300.5,-280 317.85,-240.51 359.12,-209.69 385.88,-192.95"/>
<polygon fill="midnightblue" stroke="midnightblue" points="387.93,-195.79 394.68,-187.62 384.31,-189.81 387.93,-195.79"/>
</g>
<!-- Node15&#45;&gt;Node13 -->
<g id="edge21" class="edge">
<title>Node15&#45;&gt;Node13</title>
<path fill="none" stroke="midnightblue" d="M364.4,-392.37C370.4,-374.54 384.27,-333.3 392.35,-309.27"/>
<polygon fill="midnightblue" stroke="midnightblue" points="395.74,-310.19 395.61,-299.59 389.1,-307.95 395.74,-310.19"/>
</g>
<!-- Node17 -->
<g id="node17" class="node">
<title>Node17</title>
<g id="a_node17"><a xlink:href="../../d0/d4e/Def_8hpp.html" target="_top" xlink:title=" ">
<polygon fill="white" stroke="black" points="459.5,-627.5 459.5,-646.5 533.5,-646.5 533.5,-627.5 459.5,-627.5"/>
<text text-anchor="middle" x="496.5" y="-634.5" font-family="Helvetica,sans-Serif" font-size="10.00">Def/Def.hpp</text>
</a>
</g>
</g>
<!-- Node16&#45;&gt;Node17 -->
<g id="edge23" class="edge">
<title>Node16&#45;&gt;Node17</title>
<path fill="none" stroke="midnightblue" d="M469.78,-683.08C474.21,-675.61 480.66,-664.72 486.12,-655.52"/>
<polygon fill="midnightblue" stroke="midnightblue" points="489.23,-657.14 491.31,-646.75 483.21,-653.57 489.23,-657.14"/>
</g>
<!-- Node17&#45;&gt;Node13 -->
<g id="edge61" class="edge">
<title>Node17&#45;&gt;Node13</title>
<path fill="none" stroke="midnightblue" d="M494.17,-627.27C489.1,-607.46 477.5,-557.53 477.5,-515 477.5,-515 477.5,-515 477.5,-401 477.5,-360.79 442.25,-325.22 418.84,-306.03"/>
<polygon fill="midnightblue" stroke="midnightblue" points="420.86,-303.17 410.84,-299.72 416.53,-308.66 420.86,-303.17"/>
</g>
<!-- Node17&#45;&gt;Node14 -->
<g id="edge25" class="edge">
<title>Node17&#45;&gt;Node14</title>
<path fill="none" stroke="midnightblue" d="M479.23,-627.37C464.05,-619.27 441.9,-606.16 425.5,-591 406.47,-573.41 389.32,-548.77 378.92,-532.37"/>
<polygon fill="midnightblue" stroke="midnightblue" points="381.84,-530.45 373.61,-523.78 375.89,-534.13 381.84,-530.45"/>
</g>
<!-- Node17&#45;&gt;Node15 -->
<g id="edge24" class="edge">
<title>Node17&#45;&gt;Node15</title>
<path fill="none" stroke="midnightblue" d="M489.45,-627.35C482.43,-618.51 471.55,-604.25 463.5,-591 441.11,-554.14 440.95,-541.98 420.5,-504 404.37,-474.04 384.07,-440.02 371.98,-420.1"/>
<polygon fill="midnightblue" stroke="midnightblue" points="374.95,-418.25 366.76,-411.53 368.97,-421.89 374.95,-418.25"/>
</g>
<!-- Node18 -->
<g id="node18" class="node">
<title>Node18</title>
<g id="a_node18"><a xlink:href="../../de/d76/Array_8hpp.html" target="_top" xlink:title=" ">
<polygon fill="white" stroke="black" points="956,-504.5 956,-523.5 1091,-523.5 1091,-504.5 956,-504.5"/>
<text text-anchor="middle" x="1023.5" y="-511.5" font-family="Helvetica,sans-Serif" font-size="10.00">AH/Containers/Array.hpp</text>
</a>
</g>
</g>
<!-- Node17&#45;&gt;Node18 -->
<g id="edge26" class="edge">
<title>Node17&#45;&gt;Node18</title>
<path fill="none" stroke="midnightblue" d="M533.81,-635.25C627.24,-632.91 868.96,-623.75 941.5,-591 970.69,-577.82 996.32,-550.06 1010.85,-531.99"/>
<polygon fill="midnightblue" stroke="midnightblue" points="1013.68,-534.04 1017.06,-524 1008.16,-529.75 1013.68,-534.04"/>
</g>
<!-- Node27 -->
<g id="node27" class="node">
<title>Node27</title>
<g id="a_node27"><a xlink:title=" ">
<polygon fill="white" stroke="#bfbfbf" points="507.5,-224.5 507.5,-243.5 563.5,-243.5 563.5,-224.5 507.5,-224.5"/>
<text text-anchor="middle" x="535.5" y="-231.5" font-family="Helvetica,sans-Serif" font-size="10.00">stddef.h</text>
</a>
</g>
</g>
<!-- Node17&#45;&gt;Node27 -->
<g id="edge62" class="edge">
<title>Node17&#45;&gt;Node27</title>
<path fill="none" stroke="midnightblue" d="M498.83,-627.27C503.9,-607.46 515.5,-557.53 515.5,-515 515.5,-515 515.5,-515 515.5,-345 515.5,-312.44 524.09,-275.32 530.01,-253.59"/>
<polygon fill="midnightblue" stroke="midnightblue" points="533.44,-254.32 532.8,-243.74 526.71,-252.41 533.44,-254.32"/>
</g>
<!-- Node28 -->
<g id="node28" class="node">
<title>Node28</title>
<g id="a_node28"><a xlink:title=" ">
<polygon fill="white" stroke="#bfbfbf" points="1148,-224.5 1148,-243.5 1201,-243.5 1201,-224.5 1148,-224.5"/>
<text text-anchor="middle" x="1174.5" y="-231.5" font-family="Helvetica,sans-Serif" font-size="10.00">stdint.h</text>
</a>
</g>
</g>
<!-- Node17&#45;&gt;Node28 -->
<g id="edge63" class="edge">
<title>Node17&#45;&gt;Node28</title>
<path fill="none" stroke="midnightblue" d="M517.16,-627.42C608.61,-589.41 974.71,-436.96 1024.5,-412 1068.66,-389.87 1087.51,-392.77 1120.5,-356 1147.8,-325.57 1163.22,-279.08 1170.1,-253.49"/>
<polygon fill="midnightblue" stroke="midnightblue" points="1173.53,-254.18 1172.6,-243.63 1166.75,-252.46 1173.53,-254.18"/>
</g>
<!-- Node32 -->
<g id="node32" class="node">
<title>Node32</title>
<g id="a_node32"><a xlink:href="../../d4/d35/Hardware-Types_8hpp.html" target="_top" xlink:title=" ">
<polygon fill="white" stroke="black" points="1130,-560.5 1130,-590.5 1261,-590.5 1261,-560.5 1130,-560.5"/>
<text text-anchor="start" x="1138" y="-578.5" font-family="Helvetica,sans-Serif" font-size="10.00">AH/Hardware/Hardware</text>
<text text-anchor="middle" x="1195.5" y="-567.5" font-family="Helvetica,sans-Serif" font-size="10.00">&#45;Types.hpp</text>
</a>
</g>
</g>
<!-- Node17&#45;&gt;Node32 -->
<g id="edge56" class="edge">
<title>Node17&#45;&gt;Node32</title>
<path fill="none" stroke="midnightblue" d="M533.59,-632.84C643.74,-623.47 970.57,-595.65 1119.74,-582.95"/>
<polygon fill="midnightblue" stroke="midnightblue" points="1120.07,-586.43 1129.73,-582.1 1119.47,-579.46 1120.07,-586.43"/>
</g>
<!-- Node18&#45;&gt;Node6 -->
<g id="edge27" class="edge">
<title>Node18&#45;&gt;Node6</title>
<path fill="none" stroke="midnightblue" d="M1087.68,-504.49C1172.01,-489.3 1309.5,-448.9 1309.5,-347 1309.5,-347 1309.5,-347 1309.5,-121 1309.5,-85.09 1292.03,-74.91 1261.5,-56 1233.07,-38.39 1151.55,-26.05 1088.25,-18.8"/>
<polygon fill="midnightblue" stroke="midnightblue" points="1088.59,-15.31 1078.26,-17.68 1087.81,-22.27 1088.59,-15.31"/>
</g>
<!-- Node18&#45;&gt;Node10 -->
<g id="edge54" class="edge">
<title>Node18&#45;&gt;Node10</title>
<path fill="none" stroke="midnightblue" d="M955.65,-508.91C861.1,-499.21 692.24,-466.46 611.5,-356 563.43,-290.25 582.84,-184.08 593.39,-141.52"/>
<polygon fill="midnightblue" stroke="midnightblue" points="596.82,-142.27 595.95,-131.71 590.04,-140.5 596.82,-142.27"/>
</g>
<!-- Node19 -->
<g id="node19" class="node">
<title>Node19</title>
<g id="a_node19"><a xlink:href="../../d1/d93/Error_8hpp.html" target="_top" xlink:title=" ">
<polygon fill="white" stroke="black" points="955.5,-448.5 955.5,-467.5 1059.5,-467.5 1059.5,-448.5 955.5,-448.5"/>
<text text-anchor="middle" x="1007.5" y="-455.5" font-family="Helvetica,sans-Serif" font-size="10.00">AH/Error/Error.hpp</text>
</a>
</g>
</g>
<!-- Node18&#45;&gt;Node19 -->
<g id="edge28" class="edge">
<title>Node18&#45;&gt;Node19</title>
<path fill="none" stroke="midnightblue" d="M1020.86,-504.08C1018.71,-496.85 1015.62,-486.41 1012.95,-477.4"/>
<polygon fill="midnightblue" stroke="midnightblue" points="1016.29,-476.34 1010.09,-467.75 1009.58,-478.33 1016.29,-476.34"/>
</g>
<!-- Node18&#45;&gt;Node27 -->
<g id="edge55" class="edge">
<title>Node18&#45;&gt;Node27</title>
<path fill="none" stroke="midnightblue" d="M955.68,-510.08C838.25,-504.46 606.73,-490.63 577.5,-468 553.15,-449.15 553.5,-433.8 553.5,-403 553.5,-403 553.5,-403 553.5,-345 553.5,-312.54 545.77,-275.38 540.44,-253.63"/>
<polygon fill="midnightblue" stroke="midnightblue" points="543.79,-252.59 537.93,-243.76 537.01,-254.32 543.79,-252.59"/>
</g>
<!-- Node31 -->
<g id="node31" class="node">
<title>Node31</title>
<g id="a_node31"><a xlink:title=" ">
<polygon fill="white" stroke="#bfbfbf" points="1077.5,-448.5 1077.5,-467.5 1167.5,-467.5 1167.5,-448.5 1077.5,-448.5"/>
<text text-anchor="middle" x="1122.5" y="-455.5" font-family="Helvetica,sans-Serif" font-size="10.00">AH/STL/iterator</text>
</a>
</g>
</g>
<!-- Node18&#45;&gt;Node31 -->
<g id="edge53" class="edge">
<title>Node18&#45;&gt;Node31</title>
<path fill="none" stroke="midnightblue" d="M1039.41,-504.32C1055.14,-495.74 1079.44,-482.49 1097.71,-472.52"/>
<polygon fill="midnightblue" stroke="midnightblue" points="1099.53,-475.52 1106.63,-467.65 1096.18,-469.37 1099.53,-475.52"/>
</g>
<!-- Node19&#45;&gt;Node6 -->
<g id="edge29" class="edge">
<title>Node19&#45;&gt;Node6</title>
<path fill="none" stroke="midnightblue" d="M1035.75,-448.36C1103.86,-425.6 1271.5,-357.16 1271.5,-235 1271.5,-235 1271.5,-235 1271.5,-121 1271.5,-40.67 1166.35,-17.9 1088.52,-12.04"/>
<polygon fill="midnightblue" stroke="midnightblue" points="1088.42,-8.53 1078.21,-11.35 1087.96,-15.51 1088.42,-8.53"/>
</g>
<!-- Node20 -->
<g id="node20" class="node">
<title>Node20</title>
<g id="a_node20"><a xlink:href="../../df/dee/Debug_8hpp.html" target="_top" xlink:title=" ">
<polygon fill="white" stroke="black" points="894,-392.5 894,-411.5 1015,-411.5 1015,-392.5 894,-392.5"/>
<text text-anchor="middle" x="954.5" y="-399.5" font-family="Helvetica,sans-Serif" font-size="10.00">AH/Debug/Debug.hpp</text>
</a>
</g>
</g>
<!-- Node19&#45;&gt;Node20 -->
<g id="edge30" class="edge">
<title>Node19&#45;&gt;Node20</title>
<path fill="none" stroke="midnightblue" d="M998.75,-448.08C991.03,-440.22 979.6,-428.57 970.28,-419.08"/>
<polygon fill="midnightblue" stroke="midnightblue" points="972.59,-416.44 963.09,-411.75 967.6,-421.34 972.59,-416.44"/>
</g>
<!-- Node20&#45;&gt;Node6 -->
<g id="edge31" class="edge">
<title>Node20&#45;&gt;Node6</title>
<path fill="none" stroke="midnightblue" d="M1015.05,-395.66C1044.4,-390.07 1078.07,-378.76 1100.5,-356 1121.63,-334.56 1119.5,-321.1 1119.5,-291 1119.5,-291 1119.5,-291 1119.5,-121 1119.5,-74.4 1069.55,-41.14 1036.07,-24.08"/>
<polygon fill="midnightblue" stroke="midnightblue" points="1037.22,-20.75 1026.7,-19.51 1034.15,-27.04 1037.22,-20.75"/>
</g>
<!-- Node21 -->
<g id="node21" class="node">
<title>Node21</title>
<g id="a_node21"><a xlink:href="../../dd/d80/PrintStream_8hpp.html" target="_top" xlink:title=" ">
<polygon fill="white" stroke="black" points="620,-336.5 620,-355.5 793,-355.5 793,-336.5 620,-336.5"/>
<text text-anchor="middle" x="706.5" y="-343.5" font-family="Helvetica,sans-Serif" font-size="10.00">AH/PrintStream/PrintStream.hpp</text>
</a>
</g>
</g>
<!-- Node20&#45;&gt;Node21 -->
<g id="edge32" class="edge">
<title>Node20&#45;&gt;Node21</title>
<path fill="none" stroke="midnightblue" d="M915.2,-392.44C871.94,-383.02 802.33,-367.87 755.53,-357.68"/>
<polygon fill="midnightblue" stroke="midnightblue" points="756.13,-354.22 745.61,-355.52 754.64,-361.06 756.13,-354.22"/>
</g>
<!-- Node22 -->
<g id="node22" class="node">
<title>Node22</title>
<g id="a_node22"><a xlink:href="../../de/dd1/AH_2Settings_2SettingsWrapper_8hpp.html" target="_top" xlink:title=" ">
<polygon fill="white" stroke="black" points="811.5,-336.5 811.5,-355.5 989.5,-355.5 989.5,-336.5 811.5,-336.5"/>
<text text-anchor="middle" x="900.5" y="-343.5" font-family="Helvetica,sans-Serif" font-size="10.00">AH/Settings/SettingsWrapper.hpp</text>
</a>
</g>
</g>
<!-- Node20&#45;&gt;Node22 -->
<g id="edge37" class="edge">
<title>Node20&#45;&gt;Node22</title>
<path fill="none" stroke="midnightblue" d="M940.71,-392.32C931.28,-384.58 919.34,-373.02 910.74,-363.51"/>
<polygon fill="midnightblue" stroke="midnightblue" points="913.34,-361.17 904.19,-355.83 908.01,-365.71 913.34,-361.17"/>
</g>
<!-- Node30 -->
<g id="node30" class="node">
<title>Node30</title>
<g id="a_node30"><a xlink:href="../../d7/d52/DebugVal_8hpp.html" target="_top" xlink:title=" ">
<polygon fill="white" stroke="black" points="1007.5,-336.5 1007.5,-355.5 1091.5,-355.5 1091.5,-336.5 1007.5,-336.5"/>
<text text-anchor="middle" x="1049.5" y="-343.5" font-family="Helvetica,sans-Serif" font-size="10.00">DebugVal.hpp</text>
</a>
</g>
</g>
<!-- Node20&#45;&gt;Node30 -->
<g id="edge52" class="edge">
<title>Node20&#45;&gt;Node30</title>
<path fill="none" stroke="midnightblue" d="M969.76,-392.32C984.72,-383.82 1007.75,-370.73 1025.23,-360.8"/>
<polygon fill="midnightblue" stroke="midnightblue" points="1027.31,-363.64 1034.27,-355.65 1023.85,-357.55 1027.31,-363.64"/>
</g>
<!-- Node21&#45;&gt;Node4 -->
<g id="edge35" class="edge">
<title>Node21&#45;&gt;Node4</title>
<path fill="none" stroke="midnightblue" d="M697.87,-336.22C673.03,-311.12 601.34,-239.86 572.5,-224 542.26,-207.38 505.41,-196.51 474.5,-189.63"/>
<polygon fill="midnightblue" stroke="midnightblue" points="475.2,-186.2 464.69,-187.53 473.73,-193.04 475.2,-186.2"/>
</g>
<!-- Node21&#45;&gt;Node6 -->
<g id="edge34" class="edge">
<title>Node21&#45;&gt;Node6</title>
<path fill="none" stroke="midnightblue" d="M702.99,-336.32C695.9,-317.96 680.5,-273.66 680.5,-235 680.5,-235 680.5,-235 680.5,-121 680.5,-87.76 690.14,-74.88 717.5,-56 750.28,-33.38 851.41,-21.59 924.81,-15.84"/>
<polygon fill="midnightblue" stroke="midnightblue" points="925.26,-19.32 934.97,-15.07 924.73,-12.34 925.26,-19.32"/>
</g>
<!-- Node21&#45;&gt;Node9 -->
<g id="edge33" class="edge">
<title>Node21&#45;&gt;Node9</title>
<path fill="none" stroke="midnightblue" d="M713.45,-336.48C727.19,-318.75 756.5,-276.12 756.5,-235 756.5,-235 756.5,-235 756.5,-177 756.5,-135.4 795.25,-100.33 821.03,-81.6"/>
<polygon fill="midnightblue" stroke="midnightblue" points="823.32,-84.27 829.52,-75.68 819.32,-78.53 823.32,-84.27"/>
</g>
<!-- Node21&#45;&gt;Node13 -->
<g id="edge36" class="edge">
<title>Node21&#45;&gt;Node13</title>
<path fill="none" stroke="midnightblue" d="M657.7,-336.44C603.29,-326.9 515.33,-311.48 457.21,-301.29"/>
<polygon fill="midnightblue" stroke="midnightblue" points="457.53,-297.8 447.08,-299.52 456.32,-304.69 457.53,-297.8"/>
</g>
<!-- Node22&#45;&gt;Node6 -->
<g id="edge38" class="edge">
<title>Node22&#45;&gt;Node6</title>
<path fill="none" stroke="midnightblue" d="M848.83,-336.5C795.03,-324.34 718.5,-296.29 718.5,-235 718.5,-235 718.5,-235 718.5,-121 718.5,-90.9 714.99,-75.98 737.5,-56 764.65,-31.89 855.83,-20.52 924.56,-15.27"/>
<polygon fill="midnightblue" stroke="midnightblue" points="925.24,-18.73 934.96,-14.51 924.73,-11.75 925.24,-18.73"/>
</g>
<!-- Node22&#45;&gt;Node9 -->
<g id="edge39" class="edge">
<title>Node22&#45;&gt;Node9</title>
<path fill="none" stroke="midnightblue" d="M871.6,-336.38C852.85,-329.39 829.26,-317.75 814.5,-300 795.18,-276.76 794.5,-265.23 794.5,-235 794.5,-235 794.5,-235 794.5,-177 794.5,-141.47 816.1,-104.63 830.62,-83.88"/>
<polygon fill="midnightblue" stroke="midnightblue" points="833.63,-85.69 836.69,-75.54 827.97,-81.57 833.63,-85.69"/>
</g>
<!-- Node22&#45;&gt;Node20 -->
<g id="edge51" class="edge">
<title>Node22&#45;&gt;Node20</title>
<path fill="none" stroke="midnightblue" d="M914.38,-355.75C923.77,-363.48 935.64,-374.97 944.21,-384.43"/>
<polygon fill="midnightblue" stroke="midnightblue" points="941.59,-386.75 950.75,-392.08 946.91,-382.21 941.59,-386.75"/>
</g>
<!-- Node23 -->
<g id="node23" class="node">
<title>Node23</title>
<g id="a_node23"><a xlink:href="../../d5/d4f/AH_2Settings_2Settings_8hpp.html" target="_top" xlink:title="All user settings and debugging options can be changed here.">
<polygon fill="white" stroke="black" points="823,-280.5 823,-299.5 900,-299.5 900,-280.5 823,-280.5"/>
<text text-anchor="middle" x="861.5" y="-287.5" font-family="Helvetica,sans-Serif" font-size="10.00">Settings.hpp</text>
</a>
</g>
</g>
<!-- Node22&#45;&gt;Node23 -->
<g id="edge40" class="edge">
<title>Node22&#45;&gt;Node23</title>
<path fill="none" stroke="midnightblue" d="M894.06,-336.08C888.55,-328.46 880.47,-317.26 873.74,-307.94"/>
<polygon fill="midnightblue" stroke="midnightblue" points="876.51,-305.81 867.82,-299.75 870.84,-309.91 876.51,-305.81"/>
</g>
<!-- Node29 -->
<g id="node29" class="node">
<title>Node29</title>
<g id="a_node29"><a xlink:href="../../d9/d98/TeensyUSBTypes_8hpp.html" target="_top" xlink:title=" ">
<polygon fill="white" stroke="black" points="918,-280.5 918,-299.5 1091,-299.5 1091,-280.5 918,-280.5"/>
<text text-anchor="middle" x="1004.5" y="-287.5" font-family="Helvetica,sans-Serif" font-size="10.00">AH/Teensy/TeensyUSBTypes.hpp</text>
</a>
</g>
</g>
<!-- Node22&#45;&gt;Node29 -->
<g id="edge50" class="edge">
<title>Node22&#45;&gt;Node29</title>
<path fill="none" stroke="midnightblue" d="M917.21,-336.32C933.81,-327.7 959.5,-314.36 978.72,-304.39"/>
<polygon fill="midnightblue" stroke="midnightblue" points="980.57,-307.37 987.83,-299.65 977.34,-301.16 980.57,-307.37"/>
</g>
<!-- Node24 -->
<g id="node24" class="node">
<title>Node24</title>
<g id="a_node24"><a xlink:href="../../dc/d50/Frequency_8hpp.html" target="_top" xlink:title=" ">
<polygon fill="white" stroke="black" points="822.5,-112.5 822.5,-131.5 956.5,-131.5 956.5,-112.5 822.5,-112.5"/>
<text text-anchor="middle" x="889.5" y="-119.5" font-family="Helvetica,sans-Serif" font-size="10.00">AH/Types/Frequency.hpp</text>
</a>
</g>
</g>
<!-- Node23&#45;&gt;Node24 -->
<g id="edge41" class="edge">
<title>Node23&#45;&gt;Node24</title>
<path fill="none" stroke="midnightblue" d="M859.51,-280.43C857.53,-271.42 854.63,-256.8 853.5,-244 852.72,-235.15 851.99,-232.76 853.5,-224 858.72,-193.84 872.09,-160.75 880.98,-140.94"/>
<polygon fill="midnightblue" stroke="midnightblue" points="884.26,-142.19 885.27,-131.64 877.9,-139.26 884.26,-142.19"/>
</g>
<!-- Node25 -->
<g id="node25" class="node">
<title>Node25</title>
<g id="a_node25"><a xlink:href="../../d7/d7c/ADCConfig_8hpp.html" target="_top" xlink:title="This file contains the platform&#45;specific ADC resolutions.">
<polygon fill="white" stroke="black" points="862,-224.5 862,-243.5 1019,-243.5 1019,-224.5 862,-224.5"/>
<text text-anchor="middle" x="940.5" y="-231.5" font-family="Helvetica,sans-Serif" font-size="10.00">AH/Hardware/ADCConfig.hpp</text>
</a>
</g>
</g>
<!-- Node23&#45;&gt;Node25 -->
<g id="edge44" class="edge">
<title>Node23&#45;&gt;Node25</title>
<path fill="none" stroke="midnightblue" d="M874.19,-280.32C886.4,-271.98 905.08,-259.21 919.5,-249.35"/>
<polygon fill="midnightblue" stroke="midnightblue" points="921.56,-252.19 927.84,-243.65 917.61,-246.41 921.56,-252.19"/>
</g>
<!-- Node26 -->
<g id="node26" class="node">
<title>Node26</title>
<g id="a_node26"><a xlink:title=" ">
<polygon fill="white" stroke="#bfbfbf" points="1037,-224.5 1037,-243.5 1090,-243.5 1090,-224.5 1037,-224.5"/>
<text text-anchor="middle" x="1063.5" y="-231.5" font-family="Helvetica,sans-Serif" font-size="10.00">limits.h</text>
</a>
</g>
</g>
<!-- Node23&#45;&gt;Node26 -->
<g id="edge47" class="edge">
<title>Node23&#45;&gt;Node26</title>
<path fill="none" stroke="midnightblue" d="M893.51,-280.44C929.86,-270.72 989.06,-254.9 1027.13,-244.72"/>
<polygon fill="midnightblue" stroke="midnightblue" points="1028.05,-248.1 1036.8,-242.14 1026.24,-241.34 1028.05,-248.1"/>
</g>
<!-- Node23&#45;&gt;Node27 -->
<g id="edge48" class="edge">
<title>Node23&#45;&gt;Node27</title>
<path fill="none" stroke="midnightblue" d="M822.82,-282.59C760.01,-272.19 636.54,-251.74 573.9,-241.36"/>
<polygon fill="midnightblue" stroke="midnightblue" points="574.1,-237.85 563.66,-239.66 572.95,-244.75 574.1,-237.85"/>
</g>
<!-- Node23&#45;&gt;Node28 -->
<g id="edge49" class="edge">
<title>Node23&#45;&gt;Node28</title>
<path fill="none" stroke="midnightblue" d="M900,-281.72C903.21,-281.13 906.41,-280.55 909.5,-280 990.94,-265.45 1086.67,-249.47 1137.85,-241.02"/>
<polygon fill="midnightblue" stroke="midnightblue" points="1138.47,-244.46 1147.77,-239.38 1137.33,-237.56 1138.47,-244.46"/>
</g>
<!-- Node24&#45;&gt;Node6 -->
<g id="edge42" class="edge">
<title>Node24&#45;&gt;Node6</title>
<path fill="none" stroke="midnightblue" d="M902.77,-112.48C915.59,-103.97 935.25,-90.14 950.5,-76 966.81,-60.88 983.14,-41.29 993.92,-27.58"/>
<polygon fill="midnightblue" stroke="midnightblue" points="996.8,-29.58 1000.15,-19.53 991.26,-25.3 996.8,-29.58"/>
</g>
<!-- Node24&#45;&gt;Node9 -->
<g id="edge43" class="edge">
<title>Node24&#45;&gt;Node9</title>
<path fill="none" stroke="midnightblue" d="M881.9,-112.08C875.27,-104.3 865.48,-92.8 857.44,-83.37"/>
<polygon fill="midnightblue" stroke="midnightblue" points="860.1,-81.09 850.95,-75.75 854.77,-85.63 860.1,-81.09"/>
</g>
<!-- Node25&#45;&gt;Node4 -->
<g id="edge46" class="edge">
<title>Node25&#45;&gt;Node4</title>
<path fill="none" stroke="midnightblue" d="M861.73,-224.97C759.37,-214.55 582.08,-196.48 482.94,-186.38"/>
<polygon fill="midnightblue" stroke="midnightblue" points="483.02,-182.87 472.71,-185.34 482.31,-189.83 483.02,-182.87"/>
</g>
<!-- Node25&#45;&gt;Node6 -->
<g id="edge45" class="edge">
<title>Node25&#45;&gt;Node6</title>
<path fill="none" stroke="midnightblue" d="M943.09,-224.3C952.82,-191.56 987.36,-75.38 1000.95,-29.67"/>
<polygon fill="midnightblue" stroke="midnightblue" points="1004.36,-30.47 1003.86,-19.88 997.65,-28.47 1004.36,-30.47"/>
</g>
<!-- Node32&#45;&gt;Node6 -->
<g id="edge57" class="edge">
<title>Node32&#45;&gt;Node6</title>
<path fill="none" stroke="midnightblue" d="M1243.18,-560.48C1287.75,-544.09 1347.5,-512.19 1347.5,-459 1347.5,-459 1347.5,-459 1347.5,-121 1347.5,-82.28 1323.48,-74.56 1289.5,-56 1255.74,-37.56 1159.5,-24.98 1088.58,-17.9"/>
<polygon fill="midnightblue" stroke="midnightblue" points="1088.6,-14.39 1078.31,-16.9 1087.92,-21.36 1088.6,-14.39"/>
</g>
<!-- Node32&#45;&gt;Node9 -->
<g id="edge59" class="edge">
<title>Node32&#45;&gt;Node9</title>
<path fill="none" stroke="midnightblue" d="M1212.75,-560.43C1235.17,-540.44 1271.5,-501.49 1271.5,-459 1271.5,-459 1271.5,-459 1271.5,-401 1271.5,-317.79 1266.42,-285.62 1210.5,-224 1129.55,-134.8 989.34,-94.35 907.66,-77.57"/>
<polygon fill="midnightblue" stroke="midnightblue" points="908,-74.07 897.51,-75.55 906.63,-80.94 908,-74.07"/>
</g>
<!-- Node32&#45;&gt;Node18 -->
<g id="edge58" class="edge">
<title>Node32&#45;&gt;Node18</title>
<path fill="none" stroke="midnightblue" d="M1154.74,-560.4C1125.28,-550.21 1085.91,-536.59 1058,-526.93"/>
<polygon fill="midnightblue" stroke="midnightblue" points="1058.87,-523.53 1048.28,-523.57 1056.58,-530.15 1058.87,-523.53"/>
</g>
<!-- Node32&#45;&gt;Node28 -->
<g id="edge60" class="edge">
<title>Node32&#45;&gt;Node28</title>
<path fill="none" stroke="midnightblue" d="M1195.5,-560.28C1195.5,-538.48 1195.5,-495.49 1195.5,-459 1195.5,-459 1195.5,-459 1195.5,-345 1195.5,-312.38 1186.48,-275.28 1180.27,-253.57"/>
<polygon fill="midnightblue" stroke="midnightblue" points="1183.54,-252.32 1177.33,-243.73 1176.83,-254.32 1183.54,-252.32"/>
</g>
</g>
</svg>
