<?xml version="1.0" encoding="UTF-8" standalone="no"?>
<!DOCTYPE svg PUBLIC "-//W3C//DTD SVG 1.1//EN"
 "http://www.w3.org/Graphics/SVG/1.1/DTD/svg11.dtd">
<!-- Generated by graphviz version 2.43.0 (0)
 -->
<!-- Title: TimeDisplayDisplay Pages: 1 -->
<svg width="835pt" height="2148pt"
 viewBox="0.00 0.00 835.00 2148.00" xmlns="http://www.w3.org/2000/svg" xmlns:xlink="http://www.w3.org/1999/xlink">
<g id="graph0" class="graph" transform="scale(1 1) rotate(0) translate(4 2144)">
<title>TimeDisplayDisplay</title>
<polygon fill="white" stroke="transparent" points="-4,4 -4,-2144 831,-2144 831,4 -4,4"/>
<!-- Node1 -->
<g id="node1" class="node">
<title>Node1</title>
<g id="a_node1"><a xlink:title=" ">
<polygon fill="#bfbfbf" stroke="black" points="580,-50 580,-250 714,-250 714,-50 580,-50"/>
<text text-anchor="middle" x="647" y="-238" font-family="Helvetica,sans-Serif" font-size="10.00">TimeDisplayDisplay</text>
<polyline fill="none" stroke="black" points="580,-231 714,-231 "/>
<text text-anchor="start" x="588" y="-219" font-family="Helvetica,sans-Serif" font-size="10.00">&#45; x</text>
<text text-anchor="start" x="588" y="-208" font-family="Helvetica,sans-Serif" font-size="10.00">&#45; y</text>
<text text-anchor="start" x="588" y="-197" font-family="Helvetica,sans-Serif" font-size="10.00">&#45; size</text>
<text text-anchor="start" x="588" y="-186" font-family="Helvetica,sans-Serif" font-size="10.00">&#45; color</text>
<polyline fill="none" stroke="black" points="580,-179 714,-179 "/>
<text text-anchor="start" x="588" y="-167" font-family="Helvetica,sans-Serif" font-size="10.00">+ TimeDisplayDisplay()</text>
<text text-anchor="start" x="588" y="-156" font-family="Helvetica,sans-Serif" font-size="10.00">+ draw()</text>
<text text-anchor="start" x="588" y="-145" font-family="Helvetica,sans-Serif" font-size="10.00">+ getDirty()</text>
<text text-anchor="start" x="588" y="-134" font-family="Helvetica,sans-Serif" font-size="10.00">+ getX()</text>
<text text-anchor="start" x="588" y="-123" font-family="Helvetica,sans-Serif" font-size="10.00">+ getY()</text>
<text text-anchor="start" x="588" y="-112" font-family="Helvetica,sans-Serif" font-size="10.00">+ getSize()</text>
<text text-anchor="start" x="588" y="-101" font-family="Helvetica,sans-Serif" font-size="10.00">+ getColor()</text>
<text text-anchor="start" x="588" y="-90" font-family="Helvetica,sans-Serif" font-size="10.00">+ setX()</text>
<text text-anchor="start" x="588" y="-79" font-family="Helvetica,sans-Serif" font-size="10.00">+ setY()</text>
<text text-anchor="start" x="588" y="-68" font-family="Helvetica,sans-Serif" font-size="10.00">+ setSize()</text>
<text text-anchor="start" x="588" y="-57" font-family="Helvetica,sans-Serif" font-size="10.00">+ setColor()</text>
</a>
</g>
</g>
<!-- Node2 -->
<g id="node2" class="node">
<title>Node2</title>
<g id="a_node2"><a xlink:href="../../d8/d43/classDisplayElement.html" target="_top" xlink:title="An interface for elements that draw to a display.">
<polygon fill="white" stroke="black" points="378.5,-446.5 378.5,-569.5 499.5,-569.5 499.5,-446.5 378.5,-446.5"/>
<text text-anchor="middle" x="439" y="-557.5" font-family="Helvetica,sans-Serif" font-size="10.00">DisplayElement</text>
<polyline fill="none" stroke="black" points="378.5,-550.5 499.5,-550.5 "/>
<text text-anchor="middle" x="439" y="-538.5" font-family="Helvetica,sans-Serif" font-size="10.00"> </text>
<polyline fill="none" stroke="black" points="378.5,-531.5 499.5,-531.5 "/>
<text text-anchor="start" x="386.5" y="-519.5" font-family="Helvetica,sans-Serif" font-size="10.00">+ ~DisplayElement()</text>
<text text-anchor="start" x="386.5" y="-508.5" font-family="Helvetica,sans-Serif" font-size="10.00">+ draw()</text>
<text text-anchor="start" x="386.5" y="-497.5" font-family="Helvetica,sans-Serif" font-size="10.00">+ getDirty()</text>
<text text-anchor="start" x="386.5" y="-486.5" font-family="Helvetica,sans-Serif" font-size="10.00">+ getDisplay()</text>
<text text-anchor="start" x="386.5" y="-475.5" font-family="Helvetica,sans-Serif" font-size="10.00">+ getDisplay()</text>
<text text-anchor="start" x="386.5" y="-464.5" font-family="Helvetica,sans-Serif" font-size="10.00">+ getAll()</text>
<text text-anchor="start" x="386.5" y="-453.5" font-family="Helvetica,sans-Serif" font-size="10.00"># DisplayElement()</text>
</a>
</g>
</g>
<!-- Node2&#45;&gt;Node1 -->
<g id="edge1" class="edge">
<title>Node2&#45;&gt;Node1</title>
<path fill="none" stroke="midnightblue" d="M485.64,-437.55C511.71,-397.84 544.24,-346.78 571,-300 580.08,-284.12 589.3,-267.03 598.03,-250.29"/>
<polygon fill="none" stroke="midnightblue" points="482.42,-436.08 479.85,-446.36 488.27,-439.93 482.42,-436.08"/>
</g>
<!-- Node3 -->
<g id="node3" class="node">
<title>Node3</title>
<g id="a_node3"><a xlink:href="../../d4/d23/classDoublyLinkable.html" target="_top" xlink:title=" ">
<polygon fill="white" stroke="black" points="204.5,-121.5 204.5,-178.5 395.5,-178.5 395.5,-121.5 204.5,-121.5"/>
<text text-anchor="middle" x="300" y="-166.5" font-family="Helvetica,sans-Serif" font-size="10.00">DoublyLinkable&lt; DisplayElement &gt;</text>
<polyline fill="none" stroke="black" points="204.5,-159.5 395.5,-159.5 "/>
<text text-anchor="middle" x="300" y="-147.5" font-family="Helvetica,sans-Serif" font-size="10.00"> </text>
<polyline fill="none" stroke="black" points="204.5,-140.5 395.5,-140.5 "/>
<text text-anchor="start" x="212.5" y="-128.5" font-family="Helvetica,sans-Serif" font-size="10.00"># ~DoublyLinkable()</text>
</a>
</g>
</g>
<!-- Node2&#45;&gt;Node3 -->
<g id="edge3" class="edge">
<title>Node2&#45;&gt;Node3</title>
<path fill="none" stroke="#404040" d="M423.29,-446.46C412.57,-416.09 395.41,-380.99 369,-358 348.64,-340.28 327.63,-361.26 311,-340 277.89,-297.68 282.58,-232.34 290.3,-190.64"/>
<polygon fill="none" stroke="#404040" points="290.32,-190.53 287.58,-183.85 292.69,-178.76 295.43,-185.44 290.32,-190.53"/>
<text text-anchor="middle" x="336.5" y="-332" font-family="Helvetica,sans-Serif" font-size="10.00"> #next</text>
<text text-anchor="middle" x="336.5" y="-321" font-family="Helvetica,sans-Serif" font-size="10.00">#previous</text>
</g>
<!-- Node4 -->
<g id="node4" class="node">
<title>Node4</title>
<g id="a_node4"><a xlink:href="../../dd/d16/classDoublyLinkedList.html" target="_top" xlink:title=" ">
<polygon fill="white" stroke="black" points="414,-0.5 414,-299.5 562,-299.5 562,-0.5 414,-0.5"/>
<text text-anchor="start" x="422" y="-287.5" font-family="Helvetica,sans-Serif" font-size="10.00">DoublyLinkedList&lt; Display</text>
<text text-anchor="middle" x="488" y="-276.5" font-family="Helvetica,sans-Serif" font-size="10.00">Element &gt;</text>
<polyline fill="none" stroke="black" points="414,-269.5 562,-269.5 "/>
<text text-anchor="middle" x="488" y="-257.5" font-family="Helvetica,sans-Serif" font-size="10.00"> </text>
<polyline fill="none" stroke="black" points="414,-250.5 562,-250.5 "/>
<text text-anchor="start" x="422" y="-238.5" font-family="Helvetica,sans-Serif" font-size="10.00">+ append()</text>
<text text-anchor="start" x="422" y="-227.5" font-family="Helvetica,sans-Serif" font-size="10.00">+ append()</text>
<text text-anchor="start" x="422" y="-216.5" font-family="Helvetica,sans-Serif" font-size="10.00">+ insertBefore()</text>
<text text-anchor="start" x="422" y="-205.5" font-family="Helvetica,sans-Serif" font-size="10.00">+ insertBefore()</text>
<text text-anchor="start" x="422" y="-194.5" font-family="Helvetica,sans-Serif" font-size="10.00">+ insertSorted()</text>
<text text-anchor="start" x="422" y="-183.5" font-family="Helvetica,sans-Serif" font-size="10.00">+ insertSorted()</text>
<text text-anchor="start" x="422" y="-172.5" font-family="Helvetica,sans-Serif" font-size="10.00">+ remove()</text>
<text text-anchor="start" x="422" y="-161.5" font-family="Helvetica,sans-Serif" font-size="10.00">+ remove()</text>
<text text-anchor="start" x="422" y="-150.5" font-family="Helvetica,sans-Serif" font-size="10.00">+ moveDown()</text>
<text text-anchor="start" x="422" y="-139.5" font-family="Helvetica,sans-Serif" font-size="10.00">+ moveDown()</text>
<text text-anchor="start" x="422" y="-128.5" font-family="Helvetica,sans-Serif" font-size="10.00">+ couldContain()</text>
<text text-anchor="start" x="422" y="-117.5" font-family="Helvetica,sans-Serif" font-size="10.00">+ couldContain()</text>
<text text-anchor="start" x="422" y="-106.5" font-family="Helvetica,sans-Serif" font-size="10.00">+ begin()</text>
<text text-anchor="start" x="422" y="-95.5" font-family="Helvetica,sans-Serif" font-size="10.00">+ begin()</text>
<text text-anchor="start" x="422" y="-84.5" font-family="Helvetica,sans-Serif" font-size="10.00">+ end()</text>
<text text-anchor="start" x="422" y="-73.5" font-family="Helvetica,sans-Serif" font-size="10.00">+ end()</text>
<text text-anchor="start" x="422" y="-62.5" font-family="Helvetica,sans-Serif" font-size="10.00">+ rbegin()</text>
<text text-anchor="start" x="422" y="-51.5" font-family="Helvetica,sans-Serif" font-size="10.00">+ rbegin()</text>
<text text-anchor="start" x="422" y="-40.5" font-family="Helvetica,sans-Serif" font-size="10.00">+ rend()</text>
<text text-anchor="start" x="422" y="-29.5" font-family="Helvetica,sans-Serif" font-size="10.00">+ rend()</text>
<text text-anchor="start" x="422" y="-18.5" font-family="Helvetica,sans-Serif" font-size="10.00">+ getFirst()</text>
<text text-anchor="start" x="422" y="-7.5" font-family="Helvetica,sans-Serif" font-size="10.00">+ getLast()</text>
</a>
</g>
</g>
<!-- Node2&#45;&gt;Node4 -->
<g id="edge5" class="edge">
<title>Node2&#45;&gt;Node4</title>
<path fill="none" stroke="#404040" d="M432.93,-446.22C430.47,-409 429.54,-360.5 436,-318 436.31,-315.94 436.65,-313.86 437,-311.78"/>
<polygon fill="none" stroke="#404040" points="437.04,-311.59 434.2,-304.96 439.23,-299.79 442.07,-306.42 437.04,-311.59"/>
<text text-anchor="middle" x="449" y="-332" font-family="Helvetica,sans-Serif" font-size="10.00"> &#45;first</text>
<text text-anchor="middle" x="449" y="-321" font-family="Helvetica,sans-Serif" font-size="10.00">&#45;last</text>
</g>
<!-- Node3&#45;&gt;Node2 -->
<g id="edge2" class="edge">
<title>Node3&#45;&gt;Node2</title>
<path fill="none" stroke="midnightblue" d="M314.62,-188.44C338.57,-249.79 386.4,-372.28 415.26,-446.21"/>
<polygon fill="none" stroke="midnightblue" points="317.74,-186.82 310.85,-178.78 311.22,-189.37 317.74,-186.82"/>
</g>
<!-- Node4&#45;&gt;Node2 -->
<g id="edge4" class="edge">
<title>Node4&#45;&gt;Node2</title>
<path fill="none" stroke="#404040" d="M471.33,-299.65C469.61,-313.3 467.82,-326.91 466,-340 461.7,-370.93 456.32,-404.97 451.49,-434.2"/>
<polygon fill="none" stroke="#404040" points="451.43,-434.58 454.39,-441.15 449.46,-446.41 446.5,-439.84 451.43,-434.58"/>
<text text-anchor="middle" x="498" y="-326.5" font-family="Helvetica,sans-Serif" font-size="10.00"> #elements</text>
</g>
<!-- Node5 -->
<g id="node5" class="node">
<title>Node5</title>
<g id="a_node5"><a xlink:href="../../df/d42/classDisplayInterface.html" target="_top" xlink:title="An interface for displays.">
<polygon fill="white" stroke="black" points="156.5,-716.5 156.5,-1015.5 317.5,-1015.5 317.5,-716.5 156.5,-716.5"/>
<text text-anchor="middle" x="237" y="-1003.5" font-family="Helvetica,sans-Serif" font-size="10.00">DisplayInterface</text>
<polyline fill="none" stroke="black" points="156.5,-996.5 317.5,-996.5 "/>
<text text-anchor="middle" x="237" y="-984.5" font-family="Helvetica,sans-Serif" font-size="10.00"> </text>
<polyline fill="none" stroke="black" points="156.5,-977.5 317.5,-977.5 "/>
<text text-anchor="start" x="164.5" y="-965.5" font-family="Helvetica,sans-Serif" font-size="10.00">+ ~DisplayInterface()</text>
<text text-anchor="start" x="164.5" y="-954.5" font-family="Helvetica,sans-Serif" font-size="10.00">+ begin()</text>
<text text-anchor="start" x="164.5" y="-943.5" font-family="Helvetica,sans-Serif" font-size="10.00">+ clear()</text>
<text text-anchor="start" x="164.5" y="-932.5" font-family="Helvetica,sans-Serif" font-size="10.00">+ drawBackground()</text>
<text text-anchor="start" x="164.5" y="-921.5" font-family="Helvetica,sans-Serif" font-size="10.00">+ display()</text>
<text text-anchor="start" x="164.5" y="-910.5" font-family="Helvetica,sans-Serif" font-size="10.00">+ drawPixel()</text>
<text text-anchor="start" x="164.5" y="-899.5" font-family="Helvetica,sans-Serif" font-size="10.00">+ setTextColor()</text>
<text text-anchor="start" x="164.5" y="-888.5" font-family="Helvetica,sans-Serif" font-size="10.00">+ setTextSize()</text>
<text text-anchor="start" x="164.5" y="-877.5" font-family="Helvetica,sans-Serif" font-size="10.00">+ setCursor()</text>
<text text-anchor="start" x="164.5" y="-866.5" font-family="Helvetica,sans-Serif" font-size="10.00">+ write()</text>
<text text-anchor="start" x="164.5" y="-855.5" font-family="Helvetica,sans-Serif" font-size="10.00">+ drawLine()</text>
<text text-anchor="start" x="164.5" y="-844.5" font-family="Helvetica,sans-Serif" font-size="10.00">+ drawFastVLine()</text>
<text text-anchor="start" x="164.5" y="-833.5" font-family="Helvetica,sans-Serif" font-size="10.00">+ drawFastHLine()</text>
<text text-anchor="start" x="164.5" y="-822.5" font-family="Helvetica,sans-Serif" font-size="10.00">+ drawXBitmap()</text>
<text text-anchor="start" x="164.5" y="-811.5" font-family="Helvetica,sans-Serif" font-size="10.00">+ fillRect()</text>
<text text-anchor="start" x="164.5" y="-800.5" font-family="Helvetica,sans-Serif" font-size="10.00">+ drawCircle()</text>
<text text-anchor="start" x="164.5" y="-789.5" font-family="Helvetica,sans-Serif" font-size="10.00">+ fillCircle()</text>
<text text-anchor="start" x="164.5" y="-778.5" font-family="Helvetica,sans-Serif" font-size="10.00">+ enable()</text>
<text text-anchor="start" x="164.5" y="-767.5" font-family="Helvetica,sans-Serif" font-size="10.00">+ disable()</text>
<text text-anchor="start" x="164.5" y="-756.5" font-family="Helvetica,sans-Serif" font-size="10.00">+ isEnabled()</text>
<text text-anchor="start" x="164.5" y="-745.5" font-family="Helvetica,sans-Serif" font-size="10.00">+ clearAndDrawBackground()</text>
<text text-anchor="start" x="164.5" y="-734.5" font-family="Helvetica,sans-Serif" font-size="10.00">+ beginAll()</text>
<text text-anchor="start" x="164.5" y="-723.5" font-family="Helvetica,sans-Serif" font-size="10.00"># DisplayInterface()</text>
</a>
</g>
</g>
<!-- Node5&#45;&gt;Node2 -->
<g id="edge6" class="edge">
<title>Node5&#45;&gt;Node2</title>
<path fill="none" stroke="#404040" d="M317.65,-744.26C335.27,-716.34 353.32,-686.47 369,-658 382.57,-633.36 396.05,-605.64 407.51,-580.85"/>
<polygon fill="none" stroke="#404040" points="407.63,-580.6 406.49,-573.48 412.63,-569.69 413.76,-576.81 407.63,-580.6"/>
<text text-anchor="middle" x="379.5" y="-684.5" font-family="Helvetica,sans-Serif" font-size="10.00"> #display</text>
</g>
<!-- Node7 -->
<g id="node7" class="node">
<title>Node7</title>
<g id="a_node7"><a xlink:href="../../d4/d23/classDoublyLinkable.html" target="_top" xlink:title=" ">
<polygon fill="white" stroke="black" points="0,-479.5 0,-536.5 194,-536.5 194,-479.5 0,-479.5"/>
<text text-anchor="middle" x="97" y="-524.5" font-family="Helvetica,sans-Serif" font-size="10.00">DoublyLinkable&lt; DisplayInterface &gt;</text>
<polyline fill="none" stroke="black" points="0,-517.5 194,-517.5 "/>
<text text-anchor="middle" x="97" y="-505.5" font-family="Helvetica,sans-Serif" font-size="10.00"> </text>
<polyline fill="none" stroke="black" points="0,-498.5 194,-498.5 "/>
<text text-anchor="start" x="8" y="-486.5" font-family="Helvetica,sans-Serif" font-size="10.00"># ~DoublyLinkable()</text>
</a>
</g>
</g>
<!-- Node5&#45;&gt;Node7 -->
<g id="edge9" class="edge">
<title>Node5&#45;&gt;Node7</title>
<path fill="none" stroke="#404040" d="M156.5,-780.92C137.22,-756.04 119.04,-727.51 108,-698 89.7,-649.08 89.88,-588.06 92.65,-548.82"/>
<polygon fill="none" stroke="#404040" points="92.67,-548.6 89.17,-542.3 93.64,-536.64 97.14,-542.95 92.67,-548.6"/>
<text text-anchor="middle" x="133.5" y="-690" font-family="Helvetica,sans-Serif" font-size="10.00"> #next</text>
<text text-anchor="middle" x="133.5" y="-679" font-family="Helvetica,sans-Serif" font-size="10.00">#previous</text>
</g>
<!-- Node8 -->
<g id="node8" class="node">
<title>Node8</title>
<g id="a_node8"><a xlink:href="../../dd/d16/classDoublyLinkedList.html" target="_top" xlink:title=" ">
<polygon fill="white" stroke="black" points="212,-358.5 212,-657.5 360,-657.5 360,-358.5 212,-358.5"/>
<text text-anchor="start" x="220" y="-645.5" font-family="Helvetica,sans-Serif" font-size="10.00">DoublyLinkedList&lt; Display</text>
<text text-anchor="middle" x="286" y="-634.5" font-family="Helvetica,sans-Serif" font-size="10.00">Interface &gt;</text>
<polyline fill="none" stroke="black" points="212,-627.5 360,-627.5 "/>
<text text-anchor="middle" x="286" y="-615.5" font-family="Helvetica,sans-Serif" font-size="10.00"> </text>
<polyline fill="none" stroke="black" points="212,-608.5 360,-608.5 "/>
<text text-anchor="start" x="220" y="-596.5" font-family="Helvetica,sans-Serif" font-size="10.00">+ append()</text>
<text text-anchor="start" x="220" y="-585.5" font-family="Helvetica,sans-Serif" font-size="10.00">+ append()</text>
<text text-anchor="start" x="220" y="-574.5" font-family="Helvetica,sans-Serif" font-size="10.00">+ insertBefore()</text>
<text text-anchor="start" x="220" y="-563.5" font-family="Helvetica,sans-Serif" font-size="10.00">+ insertBefore()</text>
<text text-anchor="start" x="220" y="-552.5" font-family="Helvetica,sans-Serif" font-size="10.00">+ insertSorted()</text>
<text text-anchor="start" x="220" y="-541.5" font-family="Helvetica,sans-Serif" font-size="10.00">+ insertSorted()</text>
<text text-anchor="start" x="220" y="-530.5" font-family="Helvetica,sans-Serif" font-size="10.00">+ remove()</text>
<text text-anchor="start" x="220" y="-519.5" font-family="Helvetica,sans-Serif" font-size="10.00">+ remove()</text>
<text text-anchor="start" x="220" y="-508.5" font-family="Helvetica,sans-Serif" font-size="10.00">+ moveDown()</text>
<text text-anchor="start" x="220" y="-497.5" font-family="Helvetica,sans-Serif" font-size="10.00">+ moveDown()</text>
<text text-anchor="start" x="220" y="-486.5" font-family="Helvetica,sans-Serif" font-size="10.00">+ couldContain()</text>
<text text-anchor="start" x="220" y="-475.5" font-family="Helvetica,sans-Serif" font-size="10.00">+ couldContain()</text>
<text text-anchor="start" x="220" y="-464.5" font-family="Helvetica,sans-Serif" font-size="10.00">+ begin()</text>
<text text-anchor="start" x="220" y="-453.5" font-family="Helvetica,sans-Serif" font-size="10.00">+ begin()</text>
<text text-anchor="start" x="220" y="-442.5" font-family="Helvetica,sans-Serif" font-size="10.00">+ end()</text>
<text text-anchor="start" x="220" y="-431.5" font-family="Helvetica,sans-Serif" font-size="10.00">+ end()</text>
<text text-anchor="start" x="220" y="-420.5" font-family="Helvetica,sans-Serif" font-size="10.00">+ rbegin()</text>
<text text-anchor="start" x="220" y="-409.5" font-family="Helvetica,sans-Serif" font-size="10.00">+ rbegin()</text>
<text text-anchor="start" x="220" y="-398.5" font-family="Helvetica,sans-Serif" font-size="10.00">+ rend()</text>
<text text-anchor="start" x="220" y="-387.5" font-family="Helvetica,sans-Serif" font-size="10.00">+ rend()</text>
<text text-anchor="start" x="220" y="-376.5" font-family="Helvetica,sans-Serif" font-size="10.00">+ getFirst()</text>
<text text-anchor="start" x="220" y="-365.5" font-family="Helvetica,sans-Serif" font-size="10.00">+ getLast()</text>
</a>
</g>
</g>
<!-- Node5&#45;&gt;Node8 -->
<g id="edge11" class="edge">
<title>Node5&#45;&gt;Node8</title>
<path fill="none" stroke="#404040" d="M229.97,-716.37C230.73,-702.68 232.01,-689.06 234,-676 234.31,-673.94 234.65,-671.86 235,-669.78"/>
<polygon fill="none" stroke="#404040" points="235.04,-669.59 232.2,-662.96 237.23,-657.79 240.07,-664.42 235.04,-669.59"/>
<text text-anchor="middle" x="247" y="-690" font-family="Helvetica,sans-Serif" font-size="10.00"> &#45;first</text>
<text text-anchor="middle" x="247" y="-679" font-family="Helvetica,sans-Serif" font-size="10.00">&#45;last</text>
</g>
<!-- Node6 -->
<g id="node6" class="node">
<title>Node6</title>
<g id="a_node6"><a xlink:title=" ">
<polygon fill="white" stroke="#bfbfbf" points="217.5,-1124 217.5,-1181 256.5,-1181 256.5,-1124 217.5,-1124"/>
<text text-anchor="middle" x="237" y="-1169" font-family="Helvetica,sans-Serif" font-size="10.00">Print</text>
<polyline fill="none" stroke="#bfbfbf" points="217.5,-1162 256.5,-1162 "/>
<text text-anchor="middle" x="237" y="-1150" font-family="Helvetica,sans-Serif" font-size="10.00"> </text>
<polyline fill="none" stroke="#bfbfbf" points="217.5,-1143 256.5,-1143 "/>
<text text-anchor="middle" x="237" y="-1131" font-family="Helvetica,sans-Serif" font-size="10.00"> </text>
</a>
</g>
</g>
<!-- Node6&#45;&gt;Node5 -->
<g id="edge7" class="edge">
<title>Node6&#45;&gt;Node5</title>
<path fill="none" stroke="midnightblue" d="M237,-1113.93C237,-1088.19 237,-1052.2 237,-1015.66"/>
<polygon fill="none" stroke="midnightblue" points="233.5,-1113.96 237,-1123.96 240.5,-1113.96 233.5,-1113.96"/>
</g>
<!-- Node7&#45;&gt;Node5 -->
<g id="edge8" class="edge">
<title>Node7&#45;&gt;Node5</title>
<path fill="none" stroke="midnightblue" d="M111.76,-546.25C125.16,-580.09 145.45,-631.38 163,-676 168.16,-689.12 173.51,-702.75 178.88,-716.41"/>
<polygon fill="none" stroke="midnightblue" points="114.94,-544.77 108,-536.77 108.43,-547.35 114.94,-544.77"/>
</g>
<!-- Node8&#45;&gt;Node5 -->
<g id="edge10" class="edge">
<title>Node8&#45;&gt;Node5</title>
<path fill="none" stroke="#404040" d="M269.33,-657.65C267.61,-671.3 265.82,-684.91 264,-698 263.72,-700.05 263.43,-702.11 263.13,-704.19"/>
<polygon fill="none" stroke="#404040" points="263.12,-704.3 266.22,-710.81 261.4,-716.18 258.3,-709.67 263.12,-704.3"/>
<text text-anchor="middle" x="293.5" y="-684.5" font-family="Helvetica,sans-Serif" font-size="10.00"> &#45;elements</text>
</g>
<!-- Node9 -->
<g id="node9" class="node">
<title>Node9</title>
<g id="a_node9"><a xlink:href="../../df/d69/classMCU_1_1TimeDisplay.html" target="_top" xlink:title=" ">
<polygon fill="white" stroke="black" points="598.5,-457.5 598.5,-558.5 695.5,-558.5 695.5,-457.5 598.5,-457.5"/>
<text text-anchor="middle" x="647" y="-546.5" font-family="Helvetica,sans-Serif" font-size="10.00">TimeDisplay</text>
<polyline fill="none" stroke="black" points="598.5,-539.5 695.5,-539.5 "/>
<text text-anchor="middle" x="647" y="-527.5" font-family="Helvetica,sans-Serif" font-size="10.00"> </text>
<polyline fill="none" stroke="black" points="598.5,-520.5 695.5,-520.5 "/>
<text text-anchor="start" x="606.5" y="-508.5" font-family="Helvetica,sans-Serif" font-size="10.00">+ TimeDisplay()</text>
<text text-anchor="start" x="606.5" y="-497.5" font-family="Helvetica,sans-Serif" font-size="10.00">+ print()</text>
<text text-anchor="start" x="606.5" y="-486.5" font-family="Helvetica,sans-Serif" font-size="10.00">+ getBars()</text>
<text text-anchor="start" x="606.5" y="-475.5" font-family="Helvetica,sans-Serif" font-size="10.00">+ getBeats()</text>
<text text-anchor="start" x="606.5" y="-464.5" font-family="Helvetica,sans-Serif" font-size="10.00">+ getFrames()</text>
</a>
</g>
</g>
<!-- Node9&#45;&gt;Node1 -->
<g id="edge12" class="edge">
<title>Node9&#45;&gt;Node1</title>
<path fill="none" stroke="#404040" d="M647,-457.5C647,-407.23 647,-327.68 647,-262.22"/>
<polygon fill="none" stroke="#404040" points="647,-262.17 643,-256.17 647,-250.17 651,-256.17 647,-262.17"/>
<text text-anchor="middle" x="679.5" y="-326.5" font-family="Helvetica,sans-Serif" font-size="10.00"> &#45;timedisplay</text>
</g>
<!-- Node10 -->
<g id="node10" class="node">
<title>Node10</title>
<g id="a_node10"><a xlink:href="../../d5/d54/classMCU_1_1SevenSegmentDisplay.html" target="_top" xlink:title=" ">
<polygon fill="white" stroke="black" points="574,-771.5 574,-960.5 720,-960.5 720,-771.5 574,-771.5"/>
<text text-anchor="start" x="582" y="-948.5" font-family="Helvetica,sans-Serif" font-size="10.00">SevenSegmentDisplay</text>
<text text-anchor="middle" x="647" y="-937.5" font-family="Helvetica,sans-Serif" font-size="10.00">&lt; TimeDisplayLength &gt;</text>
<polyline fill="none" stroke="black" points="574,-930.5 720,-930.5 "/>
<text text-anchor="start" x="582" y="-918.5" font-family="Helvetica,sans-Serif" font-size="10.00">+ ignoreReset</text>
<text text-anchor="start" x="582" y="-907.5" font-family="Helvetica,sans-Serif" font-size="10.00">&#45; dirty</text>
<polyline fill="none" stroke="black" points="574,-900.5 720,-900.5 "/>
<text text-anchor="start" x="582" y="-888.5" font-family="Helvetica,sans-Serif" font-size="10.00">+ SevenSegmentDisplay()</text>
<text text-anchor="start" x="582" y="-877.5" font-family="Helvetica,sans-Serif" font-size="10.00">+ fillWithSpaces()</text>
<text text-anchor="start" x="582" y="-866.5" font-family="Helvetica,sans-Serif" font-size="10.00">+ reset()</text>
<text text-anchor="start" x="582" y="-855.5" font-family="Helvetica,sans-Serif" font-size="10.00"># handleUpdate()</text>
<text text-anchor="start" x="582" y="-844.5" font-family="Helvetica,sans-Serif" font-size="10.00">* getText()</text>
<text text-anchor="start" x="582" y="-833.5" font-family="Helvetica,sans-Serif" font-size="10.00">* getCharacterAt()</text>
<text text-anchor="start" x="582" y="-822.5" font-family="Helvetica,sans-Serif" font-size="10.00">* getDecimalPoints()</text>
<text text-anchor="start" x="582" y="-811.5" font-family="Helvetica,sans-Serif" font-size="10.00">* getDecimalPointAt()</text>
<text text-anchor="start" x="582" y="-800.5" font-family="Helvetica,sans-Serif" font-size="10.00">* printTo()</text>
<text text-anchor="start" x="582" y="-789.5" font-family="Helvetica,sans-Serif" font-size="10.00">* getDirty()</text>
<text text-anchor="start" x="582" y="-778.5" font-family="Helvetica,sans-Serif" font-size="10.00">* clearDirty()</text>
</a>
</g>
</g>
<!-- Node10&#45;&gt;Node9 -->
<g id="edge13" class="edge">
<title>Node10&#45;&gt;Node9</title>
<path fill="none" stroke="midnightblue" d="M647,-761.33C647,-694.6 647,-610.88 647,-558.65"/>
<polygon fill="none" stroke="midnightblue" points="643.5,-761.47 647,-771.47 650.5,-761.47 643.5,-761.47"/>
</g>
<!-- Node11 -->
<g id="node11" class="node">
<title>Node11</title>
<g id="a_node11"><a xlink:href="../../d5/dae/classMatchingMIDIInputElement.html" target="_top" xlink:title=" ">
<polygon fill="white" stroke="black" points="383.5,-1102 383.5,-1203 598.5,-1203 598.5,-1102 383.5,-1102"/>
<text text-anchor="start" x="391.5" y="-1191" font-family="Helvetica,sans-Serif" font-size="10.00">MatchingMIDIInputElement</text>
<text text-anchor="start" x="391.5" y="-1180" font-family="Helvetica,sans-Serif" font-size="10.00">&lt; MIDIMessageType::CONTROL</text>
<text text-anchor="middle" x="491" y="-1169" font-family="Helvetica,sans-Serif" font-size="10.00">_CHANGE, TwoByteRangeMIDIMatcher &gt;</text>
<polyline fill="none" stroke="black" points="383.5,-1162 598.5,-1162 "/>
<text text-anchor="middle" x="491" y="-1150" font-family="Helvetica,sans-Serif" font-size="10.00"> </text>
<polyline fill="none" stroke="black" points="383.5,-1143 598.5,-1143 "/>
<text text-anchor="start" x="391.5" y="-1131" font-family="Helvetica,sans-Serif" font-size="10.00">+ updateWith()</text>
<text text-anchor="start" x="391.5" y="-1120" font-family="Helvetica,sans-Serif" font-size="10.00">+ handleUpdate()</text>
<text text-anchor="start" x="391.5" y="-1109" font-family="Helvetica,sans-Serif" font-size="10.00"># MatchingMIDIInputElement()</text>
</a>
</g>
</g>
<!-- Node11&#45;&gt;Node10 -->
<g id="edge14" class="edge">
<title>Node11&#45;&gt;Node10</title>
<path fill="none" stroke="midnightblue" d="M523.07,-1093.02C544,-1054.85 571.77,-1004.19 595.73,-960.51"/>
<polygon fill="none" stroke="midnightblue" points="519.91,-1091.49 518.17,-1101.94 526.05,-1094.86 519.91,-1091.49"/>
</g>
<!-- Node12 -->
<g id="node12" class="node">
<title>Node12</title>
<g id="a_node12"><a xlink:href="../../d9/db1/classMIDIInputElement.html" target="_top" xlink:title="A class for objects that listen for incoming MIDI events.">
<polygon fill="white" stroke="black" points="309.5,-1289.5 309.5,-1445.5 458.5,-1445.5 458.5,-1289.5 309.5,-1289.5"/>
<text text-anchor="middle" x="384" y="-1433.5" font-family="Helvetica,sans-Serif" font-size="10.00">MIDIInputElement&lt; Type &gt;</text>
<polyline fill="none" stroke="black" points="309.5,-1426.5 458.5,-1426.5 "/>
<text text-anchor="middle" x="384" y="-1414.5" font-family="Helvetica,sans-Serif" font-size="10.00"> </text>
<polyline fill="none" stroke="black" points="309.5,-1407.5 458.5,-1407.5 "/>
<text text-anchor="start" x="317.5" y="-1395.5" font-family="Helvetica,sans-Serif" font-size="10.00">+ ~MIDIInputElement()</text>
<text text-anchor="start" x="317.5" y="-1384.5" font-family="Helvetica,sans-Serif" font-size="10.00">+ begin()</text>
<text text-anchor="start" x="317.5" y="-1373.5" font-family="Helvetica,sans-Serif" font-size="10.00">+ reset()</text>
<text text-anchor="start" x="317.5" y="-1362.5" font-family="Helvetica,sans-Serif" font-size="10.00">+ update()</text>
<text text-anchor="start" x="317.5" y="-1351.5" font-family="Helvetica,sans-Serif" font-size="10.00">+ updateWith()</text>
<text text-anchor="start" x="317.5" y="-1340.5" font-family="Helvetica,sans-Serif" font-size="10.00">+ updateAllWith()</text>
<text text-anchor="start" x="317.5" y="-1329.5" font-family="Helvetica,sans-Serif" font-size="10.00">+ updateAll()</text>
<text text-anchor="start" x="317.5" y="-1318.5" font-family="Helvetica,sans-Serif" font-size="10.00">+ beginAll()</text>
<text text-anchor="start" x="317.5" y="-1307.5" font-family="Helvetica,sans-Serif" font-size="10.00">+ resetAll()</text>
<text text-anchor="start" x="317.5" y="-1296.5" font-family="Helvetica,sans-Serif" font-size="10.00"># MIDIInputElement()</text>
</a>
</g>
</g>
<!-- Node12&#45;&gt;Node11 -->
<g id="edge15" class="edge">
<title>Node12&#45;&gt;Node11</title>
<path fill="none" stroke="midnightblue" d="M427.39,-1280.13C440.53,-1253.98 454.51,-1226.14 466.01,-1203.25"/>
<polygon fill="none" stroke="midnightblue" points="424.14,-1278.79 422.78,-1289.3 430.4,-1281.94 424.14,-1278.79"/>
</g>
<!-- Node13 -->
<g id="node13" class="node">
<title>Node13</title>
<g id="a_node13"><a xlink:href="../../d8/d1a/classAH_1_1UpdatableCRTP.html" target="_top" xlink:title=" ">
<polygon fill="white" stroke="black" points="309,-1504.5 309,-1770.5 459,-1770.5 459,-1504.5 309,-1504.5"/>
<text text-anchor="start" x="317" y="-1758.5" font-family="Helvetica,sans-Serif" font-size="10.00">UpdatableCRTP&lt; MIDIInput</text>
<text text-anchor="middle" x="384" y="-1747.5" font-family="Helvetica,sans-Serif" font-size="10.00">Element&lt; Type &gt;, true &gt;</text>
<polyline fill="none" stroke="black" points="309,-1740.5 459,-1740.5 "/>
<text text-anchor="start" x="317" y="-1728.5" font-family="Helvetica,sans-Serif" font-size="10.00"># mutex</text>
<polyline fill="none" stroke="black" points="309,-1721.5 459,-1721.5 "/>
<text text-anchor="start" x="317" y="-1709.5" font-family="Helvetica,sans-Serif" font-size="10.00">+ ~UpdatableCRTP()</text>
<text text-anchor="start" x="317" y="-1698.5" font-family="Helvetica,sans-Serif" font-size="10.00">+ getMutex()</text>
<text text-anchor="start" x="317" y="-1687.5" font-family="Helvetica,sans-Serif" font-size="10.00"># UpdatableCRTP()</text>
<text text-anchor="start" x="317" y="-1676.5" font-family="Helvetica,sans-Serif" font-size="10.00">* enable()</text>
<text text-anchor="start" x="317" y="-1665.5" font-family="Helvetica,sans-Serif" font-size="10.00">* enable()</text>
<text text-anchor="start" x="317" y="-1654.5" font-family="Helvetica,sans-Serif" font-size="10.00">* disable()</text>
<text text-anchor="start" x="317" y="-1643.5" font-family="Helvetica,sans-Serif" font-size="10.00">* disable()</text>
<text text-anchor="start" x="317" y="-1632.5" font-family="Helvetica,sans-Serif" font-size="10.00">* isEnabled()</text>
<text text-anchor="start" x="317" y="-1621.5" font-family="Helvetica,sans-Serif" font-size="10.00">* isEnabled()</text>
<text text-anchor="start" x="317" y="-1610.5" font-family="Helvetica,sans-Serif" font-size="10.00">* moveDown()</text>
<text text-anchor="start" x="317" y="-1599.5" font-family="Helvetica,sans-Serif" font-size="10.00">* moveDown()</text>
<text text-anchor="start" x="317" y="-1588.5" font-family="Helvetica,sans-Serif" font-size="10.00">* enable()</text>
<text text-anchor="start" x="317" y="-1577.5" font-family="Helvetica,sans-Serif" font-size="10.00">* enable()</text>
<text text-anchor="start" x="317" y="-1566.5" font-family="Helvetica,sans-Serif" font-size="10.00">* enable()</text>
<text text-anchor="start" x="317" y="-1555.5" font-family="Helvetica,sans-Serif" font-size="10.00">* disable()</text>
<text text-anchor="start" x="317" y="-1544.5" font-family="Helvetica,sans-Serif" font-size="10.00">* disable()</text>
<text text-anchor="start" x="317" y="-1533.5" font-family="Helvetica,sans-Serif" font-size="10.00">* disable()</text>
<text text-anchor="start" x="317" y="-1522.5" font-family="Helvetica,sans-Serif" font-size="10.00">* applyToAll()</text>
<text text-anchor="start" x="317" y="-1511.5" font-family="Helvetica,sans-Serif" font-size="10.00">* applyToAll()</text>
</a>
</g>
</g>
<!-- Node13&#45;&gt;Node12 -->
<g id="edge16" class="edge">
<title>Node13&#45;&gt;Node12</title>
<path fill="none" stroke="midnightblue" d="M384,-1494.11C384,-1477.51 384,-1461.08 384,-1445.84"/>
<polygon fill="none" stroke="midnightblue" points="380.5,-1494.46 384,-1504.46 387.5,-1494.46 380.5,-1494.46"/>
</g>
<!-- Node14 -->
<g id="node14" class="node">
<title>Node14</title>
<g id="a_node14"><a xlink:href="../../d4/d23/classDoublyLinkable.html" target="_top" xlink:title=" ">
<polygon fill="white" stroke="black" points="223,-1945 223,-2024 373,-2024 373,-1945 223,-1945"/>
<text text-anchor="start" x="231" y="-2012" font-family="Helvetica,sans-Serif" font-size="10.00">DoublyLinkable&lt; MIDIInput</text>
<text text-anchor="middle" x="298" y="-2001" font-family="Helvetica,sans-Serif" font-size="10.00">Element&lt; Type &gt; &gt;</text>
<polyline fill="none" stroke="black" points="223,-1994 373,-1994 "/>
<text text-anchor="start" x="231" y="-1982" font-family="Helvetica,sans-Serif" font-size="10.00"># next</text>
<text text-anchor="start" x="231" y="-1971" font-family="Helvetica,sans-Serif" font-size="10.00"># previous</text>
<polyline fill="none" stroke="black" points="223,-1964 373,-1964 "/>
<text text-anchor="start" x="231" y="-1952" font-family="Helvetica,sans-Serif" font-size="10.00"># ~DoublyLinkable()</text>
</a>
</g>
</g>
<!-- Node14&#45;&gt;Node13 -->
<g id="edge17" class="edge">
<title>Node14&#45;&gt;Node13</title>
<path fill="none" stroke="midnightblue" d="M310.06,-1935.11C320.68,-1892.5 336.66,-1828.43 351.04,-1770.72"/>
<polygon fill="none" stroke="midnightblue" points="306.64,-1934.38 307.61,-1944.93 313.43,-1936.07 306.64,-1934.38"/>
</g>
<!-- Node15 -->
<g id="node15" class="node">
<title>Node15</title>
<g id="a_node15"><a xlink:href="../../dd/d16/classDoublyLinkedList.html" target="_top" xlink:title=" ">
<polygon fill="white" stroke="black" points="391,-1829.5 391,-2139.5 549,-2139.5 549,-1829.5 391,-1829.5"/>
<text text-anchor="start" x="399" y="-2127.5" font-family="Helvetica,sans-Serif" font-size="10.00">DoublyLinkedList&lt; MIDIInput</text>
<text text-anchor="middle" x="470" y="-2116.5" font-family="Helvetica,sans-Serif" font-size="10.00">Element&lt; Type &gt; &gt;</text>
<polyline fill="none" stroke="black" points="391,-2109.5 549,-2109.5 "/>
<text text-anchor="start" x="399" y="-2097.5" font-family="Helvetica,sans-Serif" font-size="10.00">&#45; first</text>
<text text-anchor="start" x="399" y="-2086.5" font-family="Helvetica,sans-Serif" font-size="10.00">&#45; last</text>
<polyline fill="none" stroke="black" points="391,-2079.5 549,-2079.5 "/>
<text text-anchor="start" x="399" y="-2067.5" font-family="Helvetica,sans-Serif" font-size="10.00">+ append()</text>
<text text-anchor="start" x="399" y="-2056.5" font-family="Helvetica,sans-Serif" font-size="10.00">+ append()</text>
<text text-anchor="start" x="399" y="-2045.5" font-family="Helvetica,sans-Serif" font-size="10.00">+ insertBefore()</text>
<text text-anchor="start" x="399" y="-2034.5" font-family="Helvetica,sans-Serif" font-size="10.00">+ insertBefore()</text>
<text text-anchor="start" x="399" y="-2023.5" font-family="Helvetica,sans-Serif" font-size="10.00">+ insertSorted()</text>
<text text-anchor="start" x="399" y="-2012.5" font-family="Helvetica,sans-Serif" font-size="10.00">+ insertSorted()</text>
<text text-anchor="start" x="399" y="-2001.5" font-family="Helvetica,sans-Serif" font-size="10.00">+ remove()</text>
<text text-anchor="start" x="399" y="-1990.5" font-family="Helvetica,sans-Serif" font-size="10.00">+ remove()</text>
<text text-anchor="start" x="399" y="-1979.5" font-family="Helvetica,sans-Serif" font-size="10.00">+ moveDown()</text>
<text text-anchor="start" x="399" y="-1968.5" font-family="Helvetica,sans-Serif" font-size="10.00">+ moveDown()</text>
<text text-anchor="start" x="399" y="-1957.5" font-family="Helvetica,sans-Serif" font-size="10.00">+ couldContain()</text>
<text text-anchor="start" x="399" y="-1946.5" font-family="Helvetica,sans-Serif" font-size="10.00">+ couldContain()</text>
<text text-anchor="start" x="399" y="-1935.5" font-family="Helvetica,sans-Serif" font-size="10.00">+ begin()</text>
<text text-anchor="start" x="399" y="-1924.5" font-family="Helvetica,sans-Serif" font-size="10.00">+ begin()</text>
<text text-anchor="start" x="399" y="-1913.5" font-family="Helvetica,sans-Serif" font-size="10.00">+ end()</text>
<text text-anchor="start" x="399" y="-1902.5" font-family="Helvetica,sans-Serif" font-size="10.00">+ end()</text>
<text text-anchor="start" x="399" y="-1891.5" font-family="Helvetica,sans-Serif" font-size="10.00">+ rbegin()</text>
<text text-anchor="start" x="399" y="-1880.5" font-family="Helvetica,sans-Serif" font-size="10.00">+ rbegin()</text>
<text text-anchor="start" x="399" y="-1869.5" font-family="Helvetica,sans-Serif" font-size="10.00">+ rend()</text>
<text text-anchor="start" x="399" y="-1858.5" font-family="Helvetica,sans-Serif" font-size="10.00">+ rend()</text>
<text text-anchor="start" x="399" y="-1847.5" font-family="Helvetica,sans-Serif" font-size="10.00">+ getFirst()</text>
<text text-anchor="start" x="399" y="-1836.5" font-family="Helvetica,sans-Serif" font-size="10.00">+ getLast()</text>
</a>
</g>
</g>
<!-- Node15&#45;&gt;Node13 -->
<g id="edge18" class="edge">
<title>Node15&#45;&gt;Node13</title>
<path fill="none" stroke="#404040" d="M431.59,-1829.41C427.68,-1813.75 423.73,-1797.88 419.85,-1782.32"/>
<polygon fill="none" stroke="#404040" points="419.81,-1782.15 414.47,-1777.29 416.9,-1770.5 422.24,-1775.36 419.81,-1782.15"/>
<text text-anchor="middle" x="460" y="-1803" font-family="Helvetica,sans-Serif" font-size="10.00"> #updatables</text>
</g>
<!-- Node16 -->
<g id="node16" class="node">
<title>Node16</title>
<g id="a_node16"><a xlink:href="../../d1/d7a/structTwoByteRangeMIDIMatcher.html" target="_top" xlink:title="Matcher for MIDI messages with 2 data bytes, such as Note On/Off, Control Change, Key Pressure.">
<polygon fill="white" stroke="black" points="477,-1333.5 477,-1401.5 647,-1401.5 647,-1333.5 477,-1333.5"/>
<text text-anchor="middle" x="562" y="-1389.5" font-family="Helvetica,sans-Serif" font-size="10.00">TwoByteRangeMIDIMatcher</text>
<polyline fill="none" stroke="black" points="477,-1382.5 647,-1382.5 "/>
<text text-anchor="start" x="485" y="-1370.5" font-family="Helvetica,sans-Serif" font-size="10.00">+ length</text>
<polyline fill="none" stroke="black" points="477,-1363.5 647,-1363.5 "/>
<text text-anchor="start" x="485" y="-1351.5" font-family="Helvetica,sans-Serif" font-size="10.00">+ TwoByteRangeMIDIMatcher()</text>
<text text-anchor="start" x="485" y="-1340.5" font-family="Helvetica,sans-Serif" font-size="10.00">+ operator()()</text>
</a>
</g>
</g>
<!-- Node16&#45;&gt;Node11 -->
<g id="edge19" class="edge">
<title>Node16&#45;&gt;Node11</title>
<path fill="none" stroke="#404040" d="M550.91,-1333.22C540.37,-1301.62 524.28,-1253.35 511.43,-1214.8"/>
<polygon fill="none" stroke="#404040" points="511.35,-1214.55 505.66,-1210.13 507.56,-1203.17 513.25,-1207.6 511.35,-1214.55"/>
<text text-anchor="middle" x="555" y="-1263" font-family="Helvetica,sans-Serif" font-size="10.00"> #matcher</text>
</g>
<!-- Node17 -->
<g id="node17" class="node">
<title>Node17</title>
<g id="a_node17"><a xlink:href="../../d7/d0f/classMIDIAddress.html" target="_top" xlink:title="A type&#45;safe utility class for saving a MIDI address consisting of a 7&#45;bit address,...">
<polygon fill="white" stroke="black" points="491,-1493.5 491,-1781.5 633,-1781.5 633,-1493.5 491,-1493.5"/>
<text text-anchor="middle" x="562" y="-1769.5" font-family="Helvetica,sans-Serif" font-size="10.00">MIDIAddress</text>
<polyline fill="none" stroke="black" points="491,-1762.5 633,-1762.5 "/>
<text text-anchor="start" x="499" y="-1750.5" font-family="Helvetica,sans-Serif" font-size="10.00">&#45; addresses</text>
<polyline fill="none" stroke="black" points="491,-1743.5 633,-1743.5 "/>
<text text-anchor="start" x="499" y="-1731.5" font-family="Helvetica,sans-Serif" font-size="10.00">* MIDIAddress()</text>
<text text-anchor="start" x="499" y="-1720.5" font-family="Helvetica,sans-Serif" font-size="10.00">* MIDIAddress()</text>
<text text-anchor="start" x="499" y="-1709.5" font-family="Helvetica,sans-Serif" font-size="10.00">* MIDIAddress()</text>
<text text-anchor="start" x="499" y="-1698.5" font-family="Helvetica,sans-Serif" font-size="10.00">* MIDIAddress()</text>
<text text-anchor="start" x="499" y="-1687.5" font-family="Helvetica,sans-Serif" font-size="10.00">* MIDIAddress()</text>
<text text-anchor="start" x="499" y="-1676.5" font-family="Helvetica,sans-Serif" font-size="10.00">* MIDIAddress()</text>
<text text-anchor="start" x="499" y="-1665.5" font-family="Helvetica,sans-Serif" font-size="10.00">* invalid()</text>
<text text-anchor="start" x="499" y="-1654.5" font-family="Helvetica,sans-Serif" font-size="10.00">* operator+=()</text>
<text text-anchor="start" x="499" y="-1643.5" font-family="Helvetica,sans-Serif" font-size="10.00">* operator&#45;=()</text>
<text text-anchor="start" x="499" y="-1632.5" font-family="Helvetica,sans-Serif" font-size="10.00">* operator+()</text>
<text text-anchor="start" x="499" y="-1621.5" font-family="Helvetica,sans-Serif" font-size="10.00">* operator&#45;()</text>
<text text-anchor="start" x="499" y="-1610.5" font-family="Helvetica,sans-Serif" font-size="10.00">* getAddress()</text>
<text text-anchor="start" x="499" y="-1599.5" font-family="Helvetica,sans-Serif" font-size="10.00">* getChannel()</text>
<text text-anchor="start" x="499" y="-1588.5" font-family="Helvetica,sans-Serif" font-size="10.00">* getRawChannel()</text>
<text text-anchor="start" x="499" y="-1577.5" font-family="Helvetica,sans-Serif" font-size="10.00">* getCableNumber()</text>
<text text-anchor="start" x="499" y="-1566.5" font-family="Helvetica,sans-Serif" font-size="10.00">* getRawCableNumber()</text>
<text text-anchor="start" x="499" y="-1555.5" font-family="Helvetica,sans-Serif" font-size="10.00">* operator==()</text>
<text text-anchor="start" x="499" y="-1544.5" font-family="Helvetica,sans-Serif" font-size="10.00">* operator!=()</text>
<text text-anchor="start" x="499" y="-1533.5" font-family="Helvetica,sans-Serif" font-size="10.00">* isValid()</text>
<text text-anchor="start" x="499" y="-1522.5" font-family="Helvetica,sans-Serif" font-size="10.00">* operator bool()</text>
<text text-anchor="start" x="499" y="-1511.5" font-family="Helvetica,sans-Serif" font-size="10.00">* matchSingle()</text>
<text text-anchor="start" x="499" y="-1500.5" font-family="Helvetica,sans-Serif" font-size="10.00">* matchAddressInRange()</text>
</a>
</g>
</g>
<!-- Node17&#45;&gt;Node16 -->
<g id="edge20" class="edge">
<title>Node17&#45;&gt;Node16</title>
<path fill="none" stroke="#404040" d="M562,-1493.48C562,-1464.57 562,-1436.22 562,-1413.85"/>
<polygon fill="none" stroke="#404040" points="562,-1413.74 558,-1407.74 562,-1401.74 566,-1407.74 562,-1413.74"/>
<text text-anchor="middle" x="587" y="-1467" font-family="Helvetica,sans-Serif" font-size="10.00"> +address</text>
</g>
<!-- Node18 -->
<g id="node18" class="node">
<title>Node18</title>
<g id="a_node18"><a xlink:title=" ">
<polygon fill="white" stroke="#bfbfbf" points="617,-1124 617,-1181 677,-1181 677,-1124 617,-1124"/>
<text text-anchor="middle" x="647" y="-1169" font-family="Helvetica,sans-Serif" font-size="10.00">Printable</text>
<polyline fill="none" stroke="#bfbfbf" points="617,-1162 677,-1162 "/>
<text text-anchor="middle" x="647" y="-1150" font-family="Helvetica,sans-Serif" font-size="10.00"> </text>
<polyline fill="none" stroke="#bfbfbf" points="617,-1143 677,-1143 "/>
<text text-anchor="middle" x="647" y="-1131" font-family="Helvetica,sans-Serif" font-size="10.00"> </text>
</a>
</g>
</g>
<!-- Node18&#45;&gt;Node10 -->
<g id="edge21" class="edge">
<title>Node18&#45;&gt;Node10</title>
<path fill="none" stroke="midnightblue" d="M647,-1113.64C647,-1074.78 647,-1012.78 647,-960.67"/>
<polygon fill="none" stroke="midnightblue" points="643.5,-1113.96 647,-1123.96 650.5,-1113.96 643.5,-1113.96"/>
</g>
<!-- Node19 -->
<g id="node19" class="node">
<title>Node19</title>
<g id="a_node19"><a xlink:href="../../d0/d32/structAH_1_1Array.html" target="_top" xlink:title=" ">
<polygon fill="white" stroke="black" points="695,-1063.5 695,-1241.5 827,-1241.5 827,-1063.5 695,-1063.5"/>
<text text-anchor="middle" x="761" y="-1229.5" font-family="Helvetica,sans-Serif" font-size="10.00">Array&lt; char, LENGTH &gt;</text>
<polyline fill="none" stroke="black" points="695,-1222.5 827,-1222.5 "/>
<text text-anchor="start" x="703" y="-1210.5" font-family="Helvetica,sans-Serif" font-size="10.00">+ data</text>
<text text-anchor="start" x="703" y="-1199.5" font-family="Helvetica,sans-Serif" font-size="10.00">+ length</text>
<polyline fill="none" stroke="black" points="695,-1192.5 827,-1192.5 "/>
<text text-anchor="start" x="703" y="-1180.5" font-family="Helvetica,sans-Serif" font-size="10.00">+ operator[]()</text>
<text text-anchor="start" x="703" y="-1169.5" font-family="Helvetica,sans-Serif" font-size="10.00">+ operator[]()</text>
<text text-anchor="start" x="703" y="-1158.5" font-family="Helvetica,sans-Serif" font-size="10.00">+ begin()</text>
<text text-anchor="start" x="703" y="-1147.5" font-family="Helvetica,sans-Serif" font-size="10.00">+ begin()</text>
<text text-anchor="start" x="703" y="-1136.5" font-family="Helvetica,sans-Serif" font-size="10.00">+ end()</text>
<text text-anchor="start" x="703" y="-1125.5" font-family="Helvetica,sans-Serif" font-size="10.00">+ end()</text>
<text text-anchor="start" x="703" y="-1114.5" font-family="Helvetica,sans-Serif" font-size="10.00">+ operator==()</text>
<text text-anchor="start" x="703" y="-1103.5" font-family="Helvetica,sans-Serif" font-size="10.00">+ operator!=()</text>
<text text-anchor="start" x="703" y="-1092.5" font-family="Helvetica,sans-Serif" font-size="10.00">+ slice()</text>
<text text-anchor="start" x="703" y="-1081.5" font-family="Helvetica,sans-Serif" font-size="10.00">+ slice()</text>
<text text-anchor="start" x="703" y="-1070.5" font-family="Helvetica,sans-Serif" font-size="10.00">+ cslice()</text>
</a>
</g>
</g>
<!-- Node19&#45;&gt;Node10 -->
<g id="edge22" class="edge">
<title>Node19&#45;&gt;Node10</title>
<path fill="none" stroke="#404040" d="M725.71,-1063.43C714.11,-1034.49 701.11,-1002.03 689.06,-971.96"/>
<polygon fill="none" stroke="#404040" points="688.96,-971.71 683.01,-967.63 684.49,-960.57 690.44,-964.65 688.96,-971.71"/>
<text text-anchor="middle" x="731.5" y="-1037" font-family="Helvetica,sans-Serif" font-size="10.00"> &#45;text</text>
</g>
</g>
</svg>
