<?xml version="1.0" encoding="UTF-8" standalone="no"?>
<!DOCTYPE svg PUBLIC "-//W3C//DTD SVG 1.1//EN"
 "http://www.w3.org/Graphics/SVG/1.1/DTD/svg11.dtd">
<!-- Generated by graphviz version 2.43.0 (0)
 -->
<!-- Title: USBDeviceMIDIBackend Pages: 1 -->
<svg width="379pt" height="1074pt"
 viewBox="0.00 0.00 378.50 1074.00" xmlns="http://www.w3.org/2000/svg" xmlns:xlink="http://www.w3.org/1999/xlink">
<g id="graph0" class="graph" transform="scale(1 1) rotate(0) translate(4 1070)">
<title>USBDeviceMIDIBackend</title>
<polygon fill="white" stroke="transparent" points="-4,4 -4,-1070 374.5,-1070 374.5,4 -4,4"/>
<!-- Node1 -->
<g id="node1" class="node">
<title>Node1</title>
<g id="a_node1"><a xlink:title=" ">
<polygon fill="#bfbfbf" stroke="black" points="104.5,-0.5 104.5,-266.5 246.5,-266.5 246.5,-0.5 104.5,-0.5"/>
<text text-anchor="middle" x="175.5" y="-254.5" font-family="Helvetica,sans-Serif" font-size="10.00">USBDeviceMIDIBackend</text>
<polyline fill="none" stroke="black" points="104.5,-247.5 246.5,-247.5 "/>
<text text-anchor="middle" x="175.5" y="-235.5" font-family="Helvetica,sans-Serif" font-size="10.00"> </text>
<polyline fill="none" stroke="black" points="104.5,-228.5 246.5,-228.5 "/>
<text text-anchor="start" x="112.5" y="-216.5" font-family="Helvetica,sans-Serif" font-size="10.00">+ read()</text>
<text text-anchor="start" x="112.5" y="-205.5" font-family="Helvetica,sans-Serif" font-size="10.00">+ write()</text>
<text text-anchor="start" x="112.5" y="-194.5" font-family="Helvetica,sans-Serif" font-size="10.00">+ sendNow()</text>
<text text-anchor="start" x="112.5" y="-183.5" font-family="Helvetica,sans-Serif" font-size="10.00">+ preferImmediateSend()</text>
<text text-anchor="start" x="112.5" y="-172.5" font-family="Helvetica,sans-Serif" font-size="10.00">+ read()</text>
<text text-anchor="start" x="112.5" y="-161.5" font-family="Helvetica,sans-Serif" font-size="10.00">+ write()</text>
<text text-anchor="start" x="112.5" y="-150.5" font-family="Helvetica,sans-Serif" font-size="10.00">+ sendNow()</text>
<text text-anchor="start" x="112.5" y="-139.5" font-family="Helvetica,sans-Serif" font-size="10.00">+ preferImmediateSend()</text>
<text text-anchor="start" x="112.5" y="-128.5" font-family="Helvetica,sans-Serif" font-size="10.00">+ MOCK_METHOD()</text>
<text text-anchor="start" x="112.5" y="-117.5" font-family="Helvetica,sans-Serif" font-size="10.00">+ MOCK_METHOD()</text>
<text text-anchor="start" x="112.5" y="-106.5" font-family="Helvetica,sans-Serif" font-size="10.00">+ MOCK_METHOD()</text>
<text text-anchor="start" x="112.5" y="-95.5" font-family="Helvetica,sans-Serif" font-size="10.00">+ read()</text>
<text text-anchor="start" x="112.5" y="-84.5" font-family="Helvetica,sans-Serif" font-size="10.00">+ write()</text>
<text text-anchor="start" x="112.5" y="-73.5" font-family="Helvetica,sans-Serif" font-size="10.00">+ sendNow()</text>
<text text-anchor="start" x="112.5" y="-62.5" font-family="Helvetica,sans-Serif" font-size="10.00">+ preferImmediateSend()</text>
<text text-anchor="start" x="112.5" y="-51.5" font-family="Helvetica,sans-Serif" font-size="10.00">+ read()</text>
<text text-anchor="start" x="112.5" y="-40.5" font-family="Helvetica,sans-Serif" font-size="10.00">+ write()</text>
<text text-anchor="start" x="112.5" y="-29.5" font-family="Helvetica,sans-Serif" font-size="10.00">+ sendNow()</text>
<text text-anchor="start" x="112.5" y="-18.5" font-family="Helvetica,sans-Serif" font-size="10.00">+ preferImmediateSend()</text>
<text text-anchor="start" x="112.5" y="-7.5" font-family="Helvetica,sans-Serif" font-size="10.00">+ preferImmediateSend()</text>
</a>
</g>
</g>
<!-- Node2 -->
<g id="node2" class="node">
<title>Node2</title>
<g id="a_node2"><a xlink:href="../../d1/dd4/classPluggableUSBMIDI.html" target="_top" xlink:title=" ">
<polygon fill="white" stroke="black" points="93,-314.5 93,-767.5 258,-767.5 258,-314.5 93,-314.5"/>
<text text-anchor="middle" x="175.5" y="-755.5" font-family="Helvetica,sans-Serif" font-size="10.00">PluggableUSBMIDI</text>
<polyline fill="none" stroke="black" points="93,-748.5 258,-748.5 "/>
<text text-anchor="start" x="101" y="-736.5" font-family="Helvetica,sans-Serif" font-size="10.00">+ PacketSize</text>
<text text-anchor="start" x="101" y="-725.5" font-family="Helvetica,sans-Serif" font-size="10.00"># usb_connected</text>
<text text-anchor="start" x="101" y="-714.5" font-family="Helvetica,sans-Serif" font-size="10.00"># bulk_in_ep</text>
<text text-anchor="start" x="101" y="-703.5" font-family="Helvetica,sans-Serif" font-size="10.00"># bulk_out_ep</text>
<text text-anchor="start" x="101" y="-692.5" font-family="Helvetica,sans-Serif" font-size="10.00"># config_descriptor</text>
<text text-anchor="start" x="101" y="-681.5" font-family="Helvetica,sans-Serif" font-size="10.00"># SizeReserved</text>
<text text-anchor="start" x="101" y="-670.5" font-family="Helvetica,sans-Serif" font-size="10.00"># NumRxPackets</text>
<polyline fill="none" stroke="black" points="93,-663.5 258,-663.5 "/>
<text text-anchor="start" x="101" y="-651.5" font-family="Helvetica,sans-Serif" font-size="10.00">+ PluggableUSBMIDI()</text>
<text text-anchor="start" x="101" y="-640.5" font-family="Helvetica,sans-Serif" font-size="10.00">+ ~PluggableUSBMIDI()</text>
<text text-anchor="start" x="101" y="-629.5" font-family="Helvetica,sans-Serif" font-size="10.00">+ connected()</text>
<text text-anchor="start" x="101" y="-618.5" font-family="Helvetica,sans-Serif" font-size="10.00">+ write()</text>
<text text-anchor="start" x="101" y="-607.5" font-family="Helvetica,sans-Serif" font-size="10.00">+ write()</text>
<text text-anchor="start" x="101" y="-596.5" font-family="Helvetica,sans-Serif" font-size="10.00">+ write()</text>
<text text-anchor="start" x="101" y="-585.5" font-family="Helvetica,sans-Serif" font-size="10.00">+ write_nonblock()</text>
<text text-anchor="start" x="101" y="-574.5" font-family="Helvetica,sans-Serif" font-size="10.00">+ read()</text>
<text text-anchor="start" x="101" y="-563.5" font-family="Helvetica,sans-Serif" font-size="10.00">+ send_now()</text>
<text text-anchor="start" x="101" y="-552.5" font-family="Helvetica,sans-Serif" font-size="10.00">+ setTimeout()</text>
<text text-anchor="start" x="101" y="-541.5" font-family="Helvetica,sans-Serif" font-size="10.00">+ setErrorTimeout()</text>
<text text-anchor="start" x="101" y="-530.5" font-family="Helvetica,sans-Serif" font-size="10.00">+ getWriteError()</text>
<text text-anchor="start" x="101" y="-519.5" font-family="Helvetica,sans-Serif" font-size="10.00">+ clearWriteError()</text>
<text text-anchor="start" x="101" y="-508.5" font-family="Helvetica,sans-Serif" font-size="10.00"># init()</text>
<text text-anchor="start" x="101" y="-497.5" font-family="Helvetica,sans-Serif" font-size="10.00"># callback_state_change()</text>
<text text-anchor="start" x="101" y="-486.5" font-family="Helvetica,sans-Serif" font-size="10.00"># callback_request()</text>
<text text-anchor="start" x="101" y="-475.5" font-family="Helvetica,sans-Serif" font-size="10.00"># callback_request_xfer</text>
<text text-anchor="start" x="101" y="-464.5" font-family="Helvetica,sans-Serif" font-size="10.00">_done()</text>
<text text-anchor="start" x="101" y="-453.5" font-family="Helvetica,sans-Serif" font-size="10.00"># callback_set_configuration()</text>
<text text-anchor="start" x="101" y="-442.5" font-family="Helvetica,sans-Serif" font-size="10.00"># callback_set_interface()</text>
<text text-anchor="start" x="101" y="-431.5" font-family="Helvetica,sans-Serif" font-size="10.00"># string_iinterface_desc()</text>
<text text-anchor="start" x="101" y="-420.5" font-family="Helvetica,sans-Serif" font-size="10.00"># configuration_desc()</text>
<text text-anchor="start" x="101" y="-409.5" font-family="Helvetica,sans-Serif" font-size="10.00"># getProductVersion()</text>
<text text-anchor="start" x="101" y="-398.5" font-family="Helvetica,sans-Serif" font-size="10.00"># write_impl()</text>
<text text-anchor="start" x="101" y="-387.5" font-family="Helvetica,sans-Serif" font-size="10.00"># read_writebuf_size()</text>
<text text-anchor="start" x="101" y="-376.5" font-family="Helvetica,sans-Serif" font-size="10.00"># write_start_sync()</text>
<text text-anchor="start" x="101" y="-365.5" font-family="Helvetica,sans-Serif" font-size="10.00"># send_in_callback()</text>
<text text-anchor="start" x="101" y="-354.5" font-family="Helvetica,sans-Serif" font-size="10.00"># send_now_impl_nonblock()</text>
<text text-anchor="start" x="101" y="-343.5" font-family="Helvetica,sans-Serif" font-size="10.00"># timeout_callback()</text>
<text text-anchor="start" x="101" y="-332.5" font-family="Helvetica,sans-Serif" font-size="10.00"># in_callback()</text>
<text text-anchor="start" x="101" y="-321.5" font-family="Helvetica,sans-Serif" font-size="10.00"># out_callback()</text>
</a>
</g>
</g>
<!-- Node2&#45;&gt;Node1 -->
<g id="edge1" class="edge">
<title>Node2&#45;&gt;Node1</title>
<path fill="none" stroke="#404040" d="M175.5,-314.42C175.5,-302.33 175.5,-290.35 175.5,-278.65"/>
<polygon fill="none" stroke="#404040" points="175.5,-278.56 171.5,-272.56 175.5,-266.56 179.5,-272.56 175.5,-278.56"/>
<text text-anchor="middle" x="201.5" y="-288" font-family="Helvetica,sans-Serif" font-size="10.00"> +backend</text>
</g>
<!-- Node3 -->
<g id="node3" class="node">
<title>Node3</title>
<g id="a_node3"><a xlink:title=" ">
<polygon fill="white" stroke="black" points="0,-848.5 0,-905.5 121,-905.5 121,-848.5 0,-848.5"/>
<text text-anchor="middle" x="60.5" y="-893.5" font-family="Helvetica,sans-Serif" font-size="10.00">PluggableUSBModule</text>
<polyline fill="none" stroke="black" points="0,-886.5 121,-886.5 "/>
<text text-anchor="middle" x="60.5" y="-874.5" font-family="Helvetica,sans-Serif" font-size="10.00"> </text>
<polyline fill="none" stroke="black" points="0,-867.5 121,-867.5 "/>
<text text-anchor="middle" x="60.5" y="-855.5" font-family="Helvetica,sans-Serif" font-size="10.00"> </text>
</a>
</g>
</g>
<!-- Node3&#45;&gt;Node2 -->
<g id="edge2" class="edge">
<title>Node3&#45;&gt;Node2</title>
<path fill="none" stroke="darkgreen" d="M73.34,-838.7C79.9,-819.67 88.46,-794.78 97.85,-767.51"/>
<polygon fill="none" stroke="darkgreen" points="69.96,-837.79 70.01,-848.38 76.57,-840.07 69.96,-837.79"/>
</g>
<!-- Node4 -->
<g id="node4" class="node">
<title>Node4</title>
<g id="a_node4"><a xlink:href="../../d1/dd4/classPluggableUSBMIDI.html#d3/d97/structPluggableUSBMIDI_1_1Reading" target="_top" xlink:title="State for reading incoming USB&#45;MIDI data.">
<polygon fill="white" stroke="black" points="139,-832 139,-922 212,-922 212,-832 139,-832"/>
<text text-anchor="middle" x="175.5" y="-910" font-family="Helvetica,sans-Serif" font-size="10.00">Reading</text>
<polyline fill="none" stroke="black" points="139,-903 212,-903 "/>
<text text-anchor="start" x="147" y="-891" font-family="Helvetica,sans-Serif" font-size="10.00">+ available</text>
<text text-anchor="start" x="147" y="-880" font-family="Helvetica,sans-Serif" font-size="10.00">+ read_idx</text>
<text text-anchor="start" x="147" y="-869" font-family="Helvetica,sans-Serif" font-size="10.00">+ write_idx</text>
<text text-anchor="start" x="147" y="-858" font-family="Helvetica,sans-Serif" font-size="10.00">+ reading</text>
<polyline fill="none" stroke="black" points="139,-851 212,-851 "/>
<text text-anchor="middle" x="175.5" y="-839" font-family="Helvetica,sans-Serif" font-size="10.00"> </text>
</a>
</g>
</g>
<!-- Node4&#45;&gt;Node2 -->
<g id="edge3" class="edge">
<title>Node4&#45;&gt;Node2</title>
<path fill="none" stroke="#404040" d="M175.5,-831.99C175.5,-817.1 175.5,-799.29 175.5,-779.91"/>
<polygon fill="none" stroke="#404040" points="175.5,-779.65 171.5,-773.65 175.5,-767.65 179.5,-773.65 175.5,-779.65"/>
<text text-anchor="middle" x="200" y="-789" font-family="Helvetica,sans-Serif" font-size="10.00"> #reading</text>
</g>
<!-- Node5 -->
<g id="node5" class="node">
<title>Node5</title>
<g id="a_node5"><a xlink:href="../../d1/dd4/classPluggableUSBMIDI.html#d8/d24/structPluggableUSBMIDI_1_1Reading_1_1Buffer" target="_top" xlink:title=" ">
<polygon fill="white" stroke="black" points="147.5,-986.5 147.5,-1065.5 203.5,-1065.5 203.5,-986.5 147.5,-986.5"/>
<text text-anchor="middle" x="175.5" y="-1053.5" font-family="Helvetica,sans-Serif" font-size="10.00">Buffer</text>
<polyline fill="none" stroke="black" points="147.5,-1046.5 203.5,-1046.5 "/>
<text text-anchor="start" x="155.5" y="-1034.5" font-family="Helvetica,sans-Serif" font-size="10.00">+ size</text>
<text text-anchor="start" x="155.5" y="-1023.5" font-family="Helvetica,sans-Serif" font-size="10.00">+ index</text>
<text text-anchor="start" x="155.5" y="-1012.5" font-family="Helvetica,sans-Serif" font-size="10.00">+ buffer</text>
<polyline fill="none" stroke="black" points="147.5,-1005.5 203.5,-1005.5 "/>
<text text-anchor="middle" x="175.5" y="-993.5" font-family="Helvetica,sans-Serif" font-size="10.00"> </text>
</a>
</g>
</g>
<!-- Node5&#45;&gt;Node4 -->
<g id="edge4" class="edge">
<title>Node5&#45;&gt;Node4</title>
<path fill="none" stroke="#404040" d="M175.5,-986.38C175.5,-970.42 175.5,-951.61 175.5,-934.17"/>
<polygon fill="none" stroke="#404040" points="175.5,-934.08 171.5,-928.08 175.5,-922.08 179.5,-928.08 175.5,-934.08"/>
<text text-anchor="middle" x="198.5" y="-960" font-family="Helvetica,sans-Serif" font-size="10.00"> +buffers</text>
</g>
<!-- Node6 -->
<g id="node6" class="node">
<title>Node6</title>
<g id="a_node6"><a xlink:href="../../d1/dd4/classPluggableUSBMIDI.html#da/d5e/structPluggableUSBMIDI_1_1Writing" target="_top" xlink:title="State for writing outgoing USB&#45;MIDI data.">
<polygon fill="white" stroke="black" points="230.5,-815.5 230.5,-938.5 370.5,-938.5 370.5,-815.5 230.5,-815.5"/>
<text text-anchor="middle" x="300.5" y="-926.5" font-family="Helvetica,sans-Serif" font-size="10.00">Writing</text>
<polyline fill="none" stroke="black" points="230.5,-919.5 370.5,-919.5 "/>
<text text-anchor="start" x="238.5" y="-907.5" font-family="Helvetica,sans-Serif" font-size="10.00">+ active_writebuffer</text>
<text text-anchor="start" x="238.5" y="-896.5" font-family="Helvetica,sans-Serif" font-size="10.00">+ sending</text>
<text text-anchor="start" x="238.5" y="-885.5" font-family="Helvetica,sans-Serif" font-size="10.00">+ send_timeout</text>
<text text-anchor="start" x="238.5" y="-874.5" font-family="Helvetica,sans-Serif" font-size="10.00">+ timeout_duration</text>
<text text-anchor="start" x="238.5" y="-863.5" font-family="Helvetica,sans-Serif" font-size="10.00">+ error_timeout_duration</text>
<text text-anchor="start" x="238.5" y="-852.5" font-family="Helvetica,sans-Serif" font-size="10.00">+ timeout</text>
<text text-anchor="start" x="238.5" y="-841.5" font-family="Helvetica,sans-Serif" font-size="10.00">+ errors</text>
<polyline fill="none" stroke="black" points="230.5,-834.5 370.5,-834.5 "/>
<text text-anchor="middle" x="300.5" y="-822.5" font-family="Helvetica,sans-Serif" font-size="10.00"> </text>
</a>
</g>
</g>
<!-- Node6&#45;&gt;Node2 -->
<g id="edge5" class="edge">
<title>Node6&#45;&gt;Node2</title>
<path fill="none" stroke="#404040" d="M277.72,-815.13C273.03,-802.61 267.84,-788.73 262.35,-774.06"/>
<polygon fill="none" stroke="#404040" points="262.3,-773.93 256.45,-769.71 258.09,-762.69 263.94,-766.91 262.3,-773.93"/>
<text text-anchor="middle" x="293.5" y="-789" font-family="Helvetica,sans-Serif" font-size="10.00"> #writing</text>
</g>
<!-- Node7 -->
<g id="node7" class="node">
<title>Node7</title>
<g id="a_node7"><a xlink:href="../../d1/dd4/classPluggableUSBMIDI.html#d1/d78/structPluggableUSBMIDI_1_1Writing_1_1Buffer" target="_top" xlink:title=" ">
<polygon fill="white" stroke="black" points="251,-986.5 251,-1065.5 350,-1065.5 350,-986.5 251,-986.5"/>
<text text-anchor="middle" x="300.5" y="-1053.5" font-family="Helvetica,sans-Serif" font-size="10.00">Buffer</text>
<polyline fill="none" stroke="black" points="251,-1046.5 350,-1046.5 "/>
<text text-anchor="start" x="259" y="-1034.5" font-family="Helvetica,sans-Serif" font-size="10.00">+ size</text>
<text text-anchor="start" x="259" y="-1023.5" font-family="Helvetica,sans-Serif" font-size="10.00">+ ready_to_send</text>
<text text-anchor="start" x="259" y="-1012.5" font-family="Helvetica,sans-Serif" font-size="10.00">+ buffer</text>
<polyline fill="none" stroke="black" points="251,-1005.5 350,-1005.5 "/>
<text text-anchor="middle" x="300.5" y="-993.5" font-family="Helvetica,sans-Serif" font-size="10.00"> </text>
</a>
</g>
</g>
<!-- Node7&#45;&gt;Node6 -->
<g id="edge6" class="edge">
<title>Node7&#45;&gt;Node6</title>
<path fill="none" stroke="#404040" d="M300.5,-986.38C300.5,-975.4 300.5,-963.08 300.5,-950.78"/>
<polygon fill="none" stroke="#404040" points="300.5,-950.55 296.5,-944.55 300.5,-938.55 304.5,-944.55 300.5,-950.55"/>
<text text-anchor="middle" x="323.5" y="-960" font-family="Helvetica,sans-Serif" font-size="10.00"> +buffers</text>
</g>
</g>
</svg>
