<?xml version="1.0" encoding="UTF-8" standalone="no"?>
<!DOCTYPE svg PUBLIC "-//W3C//DTD SVG 1.1//EN"
 "http://www.w3.org/Graphics/SVG/1.1/DTD/svg11.dtd">
<!-- Generated by graphviz version 2.43.0 (0)
 -->
<!-- Title: VULEDs&lt; NumLEDs &gt; Pages: 1 -->
<svg width="467pt" height="1108pt"
 viewBox="0.00 0.00 466.50 1108.00" xmlns="http://www.w3.org/2000/svg" xmlns:xlink="http://www.w3.org/1999/xlink">
<g id="graph0" class="graph" transform="scale(1 1) rotate(0) translate(4 1104)">
<title>VULEDs&lt; NumLEDs &gt;</title>
<polygon fill="white" stroke="transparent" points="-4,4 -4,-1104 462.5,-1104 462.5,4 -4,4"/>
<!-- Node1 -->
<g id="node1" class="node">
<title>Node1</title>
<g id="a_node1"><a xlink:title="A MIDI input element that represents a Mackie Control Universal VU meter and displays its value using...">
<polygon fill="#bfbfbf" stroke="black" points="244.5,-0.5 244.5,-123.5 369.5,-123.5 369.5,-0.5 244.5,-0.5"/>
<text text-anchor="middle" x="307" y="-111.5" font-family="Helvetica,sans-Serif" font-size="10.00">VULEDs&lt; NumLEDs &gt;</text>
<polyline fill="none" stroke="black" points="244.5,-104.5 369.5,-104.5 "/>
<text text-anchor="middle" x="307" y="-92.5" font-family="Helvetica,sans-Serif" font-size="10.00"> </text>
<polyline fill="none" stroke="black" points="244.5,-85.5 369.5,-85.5 "/>
<text text-anchor="start" x="252.5" y="-73.5" font-family="Helvetica,sans-Serif" font-size="10.00">+ VULEDs()</text>
<text text-anchor="start" x="252.5" y="-62.5" font-family="Helvetica,sans-Serif" font-size="10.00">+ VULEDs()</text>
<text text-anchor="start" x="252.5" y="-51.5" font-family="Helvetica,sans-Serif" font-size="10.00">+ begin()</text>
<text text-anchor="start" x="252.5" y="-40.5" font-family="Helvetica,sans-Serif" font-size="10.00">+ reset()</text>
<text text-anchor="start" x="252.5" y="-29.5" font-family="Helvetica,sans-Serif" font-size="10.00">+ update()</text>
<text text-anchor="start" x="252.5" y="-18.5" font-family="Helvetica,sans-Serif" font-size="10.00"># handleUpdate()</text>
<text text-anchor="start" x="252.5" y="-7.5" font-family="Helvetica,sans-Serif" font-size="10.00"># updateDisplay()</text>
</a>
</g>
</g>
<!-- Node2 -->
<g id="node2" class="node">
<title>Node2</title>
<g id="a_node2"><a xlink:href="../../d8/d4c/classMCU_1_1VU.html" target="_top" xlink:title="A MIDI input element that represents a Mackie Control Universal VU meter.">
<polygon fill="white" stroke="black" points="181,-160.5 181,-294.5 285,-294.5 285,-160.5 181,-160.5"/>
<text text-anchor="middle" x="233" y="-282.5" font-family="Helvetica,sans-Serif" font-size="10.00">VU</text>
<polyline fill="none" stroke="black" points="181,-275.5 285,-275.5 "/>
<text text-anchor="start" x="189" y="-263.5" font-family="Helvetica,sans-Serif" font-size="10.00">&#45; state</text>
<text text-anchor="start" x="189" y="-252.5" font-family="Helvetica,sans-Serif" font-size="10.00">&#45; decayTimer</text>
<polyline fill="none" stroke="black" points="181,-245.5 285,-245.5 "/>
<text text-anchor="start" x="189" y="-233.5" font-family="Helvetica,sans-Serif" font-size="10.00">+ VU()</text>
<text text-anchor="start" x="189" y="-222.5" font-family="Helvetica,sans-Serif" font-size="10.00">+ VU()</text>
<text text-anchor="start" x="189" y="-211.5" font-family="Helvetica,sans-Serif" font-size="10.00">+ reset()</text>
<text text-anchor="start" x="189" y="-200.5" font-family="Helvetica,sans-Serif" font-size="10.00">+ update()</text>
<text text-anchor="start" x="189" y="-189.5" font-family="Helvetica,sans-Serif" font-size="10.00"># handleUpdate()</text>
<text text-anchor="start" x="189" y="-178.5" font-family="Helvetica,sans-Serif" font-size="10.00">* getValue()</text>
<text text-anchor="start" x="189" y="-167.5" font-family="Helvetica,sans-Serif" font-size="10.00">* getOverload()</text>
</a>
</g>
</g>
<!-- Node2&#45;&gt;Node1 -->
<g id="edge1" class="edge">
<title>Node2&#45;&gt;Node1</title>
<path fill="none" stroke="midnightblue" d="M267.04,-151.29C271.22,-142.06 275.45,-132.71 279.51,-123.73"/>
<polygon fill="none" stroke="midnightblue" points="263.82,-149.92 262.89,-160.47 270.2,-152.8 263.82,-149.92"/>
</g>
<!-- Node3 -->
<g id="node3" class="node">
<title>Node3</title>
<g id="a_node3"><a xlink:href="../../d5/dae/classMatchingMIDIInputElement.html" target="_top" xlink:title=" ">
<polygon fill="white" stroke="black" points="0,-353.5 0,-454.5 170,-454.5 170,-353.5 0,-353.5"/>
<text text-anchor="start" x="8" y="-442.5" font-family="Helvetica,sans-Serif" font-size="10.00">MatchingMIDIInputElement</text>
<text text-anchor="start" x="8" y="-431.5" font-family="Helvetica,sans-Serif" font-size="10.00">&lt; MIDIMessageType::CHANNEL</text>
<text text-anchor="middle" x="85" y="-420.5" font-family="Helvetica,sans-Serif" font-size="10.00">_PRESSURE, VUMatcher &gt;</text>
<polyline fill="none" stroke="black" points="0,-413.5 170,-413.5 "/>
<text text-anchor="start" x="8" y="-401.5" font-family="Helvetica,sans-Serif" font-size="10.00"># matcher</text>
<polyline fill="none" stroke="black" points="0,-394.5 170,-394.5 "/>
<text text-anchor="start" x="8" y="-382.5" font-family="Helvetica,sans-Serif" font-size="10.00">+ updateWith()</text>
<text text-anchor="start" x="8" y="-371.5" font-family="Helvetica,sans-Serif" font-size="10.00">+ handleUpdate()</text>
<text text-anchor="start" x="8" y="-360.5" font-family="Helvetica,sans-Serif" font-size="10.00"># MatchingMIDIInputElement()</text>
</a>
</g>
</g>
<!-- Node3&#45;&gt;Node2 -->
<g id="edge2" class="edge">
<title>Node3&#45;&gt;Node2</title>
<path fill="none" stroke="midnightblue" d="M133.82,-345.44C148.9,-327.66 165.56,-308.01 180.86,-289.98"/>
<polygon fill="none" stroke="midnightblue" points="130.81,-343.57 127.01,-353.46 136.15,-348.1 130.81,-343.57"/>
</g>
<!-- Node4 -->
<g id="node4" class="node">
<title>Node4</title>
<g id="a_node4"><a xlink:href="../../d9/db1/classMIDIInputElement.html" target="_top" xlink:title="A class for objects that listen for incoming MIDI events.">
<polygon fill="white" stroke="black" points="10.5,-513.5 10.5,-669.5 159.5,-669.5 159.5,-513.5 10.5,-513.5"/>
<text text-anchor="middle" x="85" y="-657.5" font-family="Helvetica,sans-Serif" font-size="10.00">MIDIInputElement&lt; Type &gt;</text>
<polyline fill="none" stroke="black" points="10.5,-650.5 159.5,-650.5 "/>
<text text-anchor="middle" x="85" y="-638.5" font-family="Helvetica,sans-Serif" font-size="10.00"> </text>
<polyline fill="none" stroke="black" points="10.5,-631.5 159.5,-631.5 "/>
<text text-anchor="start" x="18.5" y="-619.5" font-family="Helvetica,sans-Serif" font-size="10.00">+ ~MIDIInputElement()</text>
<text text-anchor="start" x="18.5" y="-608.5" font-family="Helvetica,sans-Serif" font-size="10.00">+ begin()</text>
<text text-anchor="start" x="18.5" y="-597.5" font-family="Helvetica,sans-Serif" font-size="10.00">+ reset()</text>
<text text-anchor="start" x="18.5" y="-586.5" font-family="Helvetica,sans-Serif" font-size="10.00">+ update()</text>
<text text-anchor="start" x="18.5" y="-575.5" font-family="Helvetica,sans-Serif" font-size="10.00">+ updateWith()</text>
<text text-anchor="start" x="18.5" y="-564.5" font-family="Helvetica,sans-Serif" font-size="10.00">+ updateAllWith()</text>
<text text-anchor="start" x="18.5" y="-553.5" font-family="Helvetica,sans-Serif" font-size="10.00">+ updateAll()</text>
<text text-anchor="start" x="18.5" y="-542.5" font-family="Helvetica,sans-Serif" font-size="10.00">+ beginAll()</text>
<text text-anchor="start" x="18.5" y="-531.5" font-family="Helvetica,sans-Serif" font-size="10.00">+ resetAll()</text>
<text text-anchor="start" x="18.5" y="-520.5" font-family="Helvetica,sans-Serif" font-size="10.00"># MIDIInputElement()</text>
</a>
</g>
</g>
<!-- Node4&#45;&gt;Node3 -->
<g id="edge3" class="edge">
<title>Node4&#45;&gt;Node3</title>
<path fill="none" stroke="midnightblue" d="M85,-503.11C85,-486.43 85,-469.52 85,-454.55"/>
<polygon fill="none" stroke="midnightblue" points="81.5,-503.44 85,-513.44 88.5,-503.44 81.5,-503.44"/>
</g>
<!-- Node5 -->
<g id="node5" class="node">
<title>Node5</title>
<g id="a_node5"><a xlink:href="../../d8/d1a/classAH_1_1UpdatableCRTP.html" target="_top" xlink:title=" ">
<polygon fill="white" stroke="black" points="10,-706.5 10,-983.5 160,-983.5 160,-706.5 10,-706.5"/>
<text text-anchor="start" x="18" y="-971.5" font-family="Helvetica,sans-Serif" font-size="10.00">UpdatableCRTP&lt; MIDIInput</text>
<text text-anchor="middle" x="85" y="-960.5" font-family="Helvetica,sans-Serif" font-size="10.00">Element&lt; Type &gt;, true &gt;</text>
<polyline fill="none" stroke="black" points="10,-953.5 160,-953.5 "/>
<text text-anchor="start" x="18" y="-941.5" font-family="Helvetica,sans-Serif" font-size="10.00"># updatables</text>
<text text-anchor="start" x="18" y="-930.5" font-family="Helvetica,sans-Serif" font-size="10.00"># mutex</text>
<polyline fill="none" stroke="black" points="10,-923.5 160,-923.5 "/>
<text text-anchor="start" x="18" y="-911.5" font-family="Helvetica,sans-Serif" font-size="10.00">+ ~UpdatableCRTP()</text>
<text text-anchor="start" x="18" y="-900.5" font-family="Helvetica,sans-Serif" font-size="10.00">+ getMutex()</text>
<text text-anchor="start" x="18" y="-889.5" font-family="Helvetica,sans-Serif" font-size="10.00"># UpdatableCRTP()</text>
<text text-anchor="start" x="18" y="-878.5" font-family="Helvetica,sans-Serif" font-size="10.00">* enable()</text>
<text text-anchor="start" x="18" y="-867.5" font-family="Helvetica,sans-Serif" font-size="10.00">* enable()</text>
<text text-anchor="start" x="18" y="-856.5" font-family="Helvetica,sans-Serif" font-size="10.00">* disable()</text>
<text text-anchor="start" x="18" y="-845.5" font-family="Helvetica,sans-Serif" font-size="10.00">* disable()</text>
<text text-anchor="start" x="18" y="-834.5" font-family="Helvetica,sans-Serif" font-size="10.00">* isEnabled()</text>
<text text-anchor="start" x="18" y="-823.5" font-family="Helvetica,sans-Serif" font-size="10.00">* isEnabled()</text>
<text text-anchor="start" x="18" y="-812.5" font-family="Helvetica,sans-Serif" font-size="10.00">* moveDown()</text>
<text text-anchor="start" x="18" y="-801.5" font-family="Helvetica,sans-Serif" font-size="10.00">* moveDown()</text>
<text text-anchor="start" x="18" y="-790.5" font-family="Helvetica,sans-Serif" font-size="10.00">* enable()</text>
<text text-anchor="start" x="18" y="-779.5" font-family="Helvetica,sans-Serif" font-size="10.00">* enable()</text>
<text text-anchor="start" x="18" y="-768.5" font-family="Helvetica,sans-Serif" font-size="10.00">* enable()</text>
<text text-anchor="start" x="18" y="-757.5" font-family="Helvetica,sans-Serif" font-size="10.00">* disable()</text>
<text text-anchor="start" x="18" y="-746.5" font-family="Helvetica,sans-Serif" font-size="10.00">* disable()</text>
<text text-anchor="start" x="18" y="-735.5" font-family="Helvetica,sans-Serif" font-size="10.00">* disable()</text>
<text text-anchor="start" x="18" y="-724.5" font-family="Helvetica,sans-Serif" font-size="10.00">* applyToAll()</text>
<text text-anchor="start" x="18" y="-713.5" font-family="Helvetica,sans-Serif" font-size="10.00">* applyToAll()</text>
</a>
</g>
</g>
<!-- Node5&#45;&gt;Node4 -->
<g id="edge4" class="edge">
<title>Node5&#45;&gt;Node4</title>
<path fill="none" stroke="midnightblue" d="M85,-696.47C85,-687.29 85,-678.28 85,-669.62"/>
<polygon fill="none" stroke="midnightblue" points="81.5,-696.48 85,-706.48 88.5,-696.48 81.5,-696.48"/>
</g>
<!-- Node6 -->
<g id="node6" class="node">
<title>Node6</title>
<g id="a_node6"><a xlink:href="../../d4/d23/classDoublyLinkable.html" target="_top" xlink:title=" ">
<polygon fill="white" stroke="black" points="10,-1020.5 10,-1099.5 160,-1099.5 160,-1020.5 10,-1020.5"/>
<text text-anchor="start" x="18" y="-1087.5" font-family="Helvetica,sans-Serif" font-size="10.00">DoublyLinkable&lt; MIDIInput</text>
<text text-anchor="middle" x="85" y="-1076.5" font-family="Helvetica,sans-Serif" font-size="10.00">Element&lt; Type &gt; &gt;</text>
<polyline fill="none" stroke="black" points="10,-1069.5 160,-1069.5 "/>
<text text-anchor="start" x="18" y="-1057.5" font-family="Helvetica,sans-Serif" font-size="10.00"># next</text>
<text text-anchor="start" x="18" y="-1046.5" font-family="Helvetica,sans-Serif" font-size="10.00"># previous</text>
<polyline fill="none" stroke="black" points="10,-1039.5 160,-1039.5 "/>
<text text-anchor="start" x="18" y="-1027.5" font-family="Helvetica,sans-Serif" font-size="10.00"># ~DoublyLinkable()</text>
</a>
</g>
</g>
<!-- Node6&#45;&gt;Node5 -->
<g id="edge5" class="edge">
<title>Node6&#45;&gt;Node5</title>
<path fill="none" stroke="midnightblue" d="M85,-1010.3C85,-1002.01 85,-993.04 85,-983.73"/>
<polygon fill="none" stroke="midnightblue" points="81.5,-1010.43 85,-1020.43 88.5,-1010.43 81.5,-1010.43"/>
</g>
<!-- Node7 -->
<g id="node7" class="node">
<title>Node7</title>
<g id="a_node7"><a xlink:href="../../dc/d25/classInterfaces_1_1MCU_1_1IVU.html" target="_top" xlink:title="An abstract interface for VU meters.">
<polygon fill="white" stroke="black" points="188.5,-331.5 188.5,-476.5 291.5,-476.5 291.5,-331.5 188.5,-331.5"/>
<text text-anchor="middle" x="240" y="-464.5" font-family="Helvetica,sans-Serif" font-size="10.00">IVU</text>
<polyline fill="none" stroke="black" points="188.5,-457.5 291.5,-457.5 "/>
<text text-anchor="start" x="196.5" y="-445.5" font-family="Helvetica,sans-Serif" font-size="10.00"># max</text>
<text text-anchor="start" x="196.5" y="-434.5" font-family="Helvetica,sans-Serif" font-size="10.00"># alwaysDirty</text>
<text text-anchor="start" x="196.5" y="-423.5" font-family="Helvetica,sans-Serif" font-size="10.00"># dirty</text>
<polyline fill="none" stroke="black" points="188.5,-416.5 291.5,-416.5 "/>
<text text-anchor="start" x="196.5" y="-404.5" font-family="Helvetica,sans-Serif" font-size="10.00">+ IVU()</text>
<text text-anchor="start" x="196.5" y="-393.5" font-family="Helvetica,sans-Serif" font-size="10.00">+ getValue()</text>
<text text-anchor="start" x="196.5" y="-382.5" font-family="Helvetica,sans-Serif" font-size="10.00">+ getOverload()</text>
<text text-anchor="start" x="196.5" y="-371.5" font-family="Helvetica,sans-Serif" font-size="10.00">+ getFloatValue()</text>
<text text-anchor="start" x="196.5" y="-360.5" font-family="Helvetica,sans-Serif" font-size="10.00">+ getMax()</text>
<text text-anchor="start" x="196.5" y="-349.5" font-family="Helvetica,sans-Serif" font-size="10.00">* getDirty()</text>
<text text-anchor="start" x="196.5" y="-338.5" font-family="Helvetica,sans-Serif" font-size="10.00">* clearDirty()</text>
</a>
</g>
</g>
<!-- Node7&#45;&gt;Node2 -->
<g id="edge6" class="edge">
<title>Node7&#45;&gt;Node2</title>
<path fill="none" stroke="midnightblue" d="M236.72,-321.25C236.36,-312.33 236,-303.33 235.65,-294.63"/>
<polygon fill="none" stroke="midnightblue" points="233.22,-321.42 237.12,-331.27 240.22,-321.14 233.22,-321.42"/>
</g>
<!-- Node8 -->
<g id="node8" class="node">
<title>Node8</title>
<g id="a_node8"><a xlink:href="../../d1/d29/classMCU_1_1VULEDsDriver.html" target="_top" xlink:title="Small helper to display the VU meters on an LED bar display.">
<polygon fill="white" stroke="black" points="303.5,-193.5 303.5,-261.5 458.5,-261.5 458.5,-193.5 303.5,-193.5"/>
<text text-anchor="middle" x="381" y="-249.5" font-family="Helvetica,sans-Serif" font-size="10.00">VULEDsDriver&lt; NumLEDs &gt;</text>
<polyline fill="none" stroke="black" points="303.5,-242.5 458.5,-242.5 "/>
<text text-anchor="start" x="311.5" y="-230.5" font-family="Helvetica,sans-Serif" font-size="10.00">&#45; FLOOR_CORRECTION</text>
<polyline fill="none" stroke="black" points="303.5,-223.5 458.5,-223.5 "/>
<text text-anchor="start" x="311.5" y="-211.5" font-family="Helvetica,sans-Serif" font-size="10.00">+ VULEDsDriver()</text>
<text text-anchor="start" x="311.5" y="-200.5" font-family="Helvetica,sans-Serif" font-size="10.00">+ displayVU()</text>
</a>
</g>
</g>
<!-- Node8&#45;&gt;Node1 -->
<g id="edge7" class="edge">
<title>Node8&#45;&gt;Node1</title>
<path fill="none" stroke="midnightblue" d="M361.83,-184.15C353.51,-165.76 343.61,-143.89 334.53,-123.82"/>
<polygon fill="none" stroke="midnightblue" points="358.71,-185.75 366.02,-193.41 365.09,-182.86 358.71,-185.75"/>
</g>
<!-- Node9 -->
<g id="node9" class="node">
<title>Node9</title>
<g id="a_node9"><a xlink:href="../../d9/d89/classAH_1_1DotBarDisplayLEDs.html" target="_top" xlink:title=" ">
<polygon fill="white" stroke="black" points="316,-331.5 316,-476.5 446,-476.5 446,-331.5 316,-331.5"/>
<text text-anchor="start" x="324" y="-464.5" font-family="Helvetica,sans-Serif" font-size="10.00">DotBarDisplayLEDs&lt;</text>
<text text-anchor="middle" x="381" y="-453.5" font-family="Helvetica,sans-Serif" font-size="10.00"> NumLEDs &gt;</text>
<polyline fill="none" stroke="black" points="316,-446.5 446,-446.5 "/>
<text text-anchor="start" x="324" y="-434.5" font-family="Helvetica,sans-Serif" font-size="10.00">&#45; mode</text>
<polyline fill="none" stroke="black" points="316,-427.5 446,-427.5 "/>
<text text-anchor="start" x="324" y="-415.5" font-family="Helvetica,sans-Serif" font-size="10.00">+ DotBarDisplayLEDs()</text>
<text text-anchor="start" x="324" y="-404.5" font-family="Helvetica,sans-Serif" font-size="10.00">+ display()</text>
<text text-anchor="start" x="324" y="-393.5" font-family="Helvetica,sans-Serif" font-size="10.00">+ display()</text>
<text text-anchor="start" x="324" y="-382.5" font-family="Helvetica,sans-Serif" font-size="10.00">+ getMode()</text>
<text text-anchor="start" x="324" y="-371.5" font-family="Helvetica,sans-Serif" font-size="10.00">+ setMode()</text>
<text text-anchor="start" x="324" y="-360.5" font-family="Helvetica,sans-Serif" font-size="10.00">+ dotMode()</text>
<text text-anchor="start" x="324" y="-349.5" font-family="Helvetica,sans-Serif" font-size="10.00">+ barMode()</text>
<text text-anchor="start" x="324" y="-338.5" font-family="Helvetica,sans-Serif" font-size="10.00">+ toggleMode()</text>
</a>
</g>
</g>
<!-- Node9&#45;&gt;Node8 -->
<g id="edge8" class="edge">
<title>Node9&#45;&gt;Node8</title>
<path fill="none" stroke="midnightblue" d="M381,-321.04C381,-300.1 381,-278.74 381,-261.84"/>
<polygon fill="none" stroke="midnightblue" points="377.5,-321.27 381,-331.27 384.5,-321.27 377.5,-321.27"/>
</g>
<!-- Node10 -->
<g id="node10" class="node">
<title>Node10</title>
<g id="a_node10"><a xlink:href="../../df/d06/classAH_1_1LEDs.html" target="_top" xlink:title="A class for collections of LEDs that can display ranges.">
<polygon fill="white" stroke="black" points="330.5,-530 330.5,-653 431.5,-653 431.5,-530 330.5,-530"/>
<text text-anchor="middle" x="381" y="-641" font-family="Helvetica,sans-Serif" font-size="10.00">LEDs&lt; N &gt;</text>
<polyline fill="none" stroke="black" points="330.5,-634 431.5,-634 "/>
<text text-anchor="start" x="338.5" y="-622" font-family="Helvetica,sans-Serif" font-size="10.00">&#45; ledPins</text>
<polyline fill="none" stroke="black" points="330.5,-615 431.5,-615 "/>
<text text-anchor="start" x="338.5" y="-603" font-family="Helvetica,sans-Serif" font-size="10.00">+ LEDs()</text>
<text text-anchor="start" x="338.5" y="-592" font-family="Helvetica,sans-Serif" font-size="10.00">+ begin()</text>
<text text-anchor="start" x="338.5" y="-581" font-family="Helvetica,sans-Serif" font-size="10.00">+ displayRange()</text>
<text text-anchor="start" x="338.5" y="-570" font-family="Helvetica,sans-Serif" font-size="10.00">+ set()</text>
<text text-anchor="start" x="338.5" y="-559" font-family="Helvetica,sans-Serif" font-size="10.00">+ clear()</text>
<text text-anchor="start" x="338.5" y="-548" font-family="Helvetica,sans-Serif" font-size="10.00">+ displayDot()</text>
<text text-anchor="start" x="338.5" y="-537" font-family="Helvetica,sans-Serif" font-size="10.00">+ clear()</text>
</a>
</g>
</g>
<!-- Node10&#45;&gt;Node9 -->
<g id="edge9" class="edge">
<title>Node10&#45;&gt;Node9</title>
<path fill="none" stroke="midnightblue" d="M381,-519.63C381,-505.5 381,-490.67 381,-476.52"/>
<polygon fill="none" stroke="midnightblue" points="377.5,-519.76 381,-529.76 384.5,-519.76 377.5,-519.76"/>
</g>
</g>
</svg>
