<?xml version="1.0" encoding="UTF-8" standalone="no"?>
<!DOCTYPE svg PUBLIC "-//W3C//DTD SVG 1.1//EN"
 "http://www.w3.org/Graphics/SVG/1.1/DTD/svg11.dtd">
<!-- Generated by graphviz version 2.43.0 (0)
 -->
<!-- Title: ProgramChangeSelectorLEDs&lt; N &gt; Pages: 1 -->
<svg width="885pt" height="1396pt"
 viewBox="0.00 0.00 884.50 1396.00" xmlns="http://www.w3.org/2000/svg" xmlns:xlink="http://www.w3.org/1999/xlink">
<g id="graph0" class="graph" transform="scale(1 1) rotate(0) translate(4 1392)">
<title>ProgramChangeSelectorLEDs&lt; N &gt;</title>
<polygon fill="white" stroke="transparent" points="-4,4 -4,-1392 880.5,-1392 880.5,4 -4,4"/>
<!-- Node1 -->
<g id="node1" class="node">
<title>Node1</title>
<g id="a_node1"><a xlink:title="Selector that listens for MIDI Program Change events on a given MIDI Channel, and uses the program nu...">
<polygon fill="#bfbfbf" stroke="black" points="301.5,-0.5 301.5,-57.5 489.5,-57.5 489.5,-0.5 301.5,-0.5"/>
<text text-anchor="middle" x="395.5" y="-45.5" font-family="Helvetica,sans-Serif" font-size="10.00">ProgramChangeSelectorLEDs&lt; N &gt;</text>
<polyline fill="none" stroke="black" points="301.5,-38.5 489.5,-38.5 "/>
<text text-anchor="middle" x="395.5" y="-26.5" font-family="Helvetica,sans-Serif" font-size="10.00"> </text>
<polyline fill="none" stroke="black" points="301.5,-19.5 489.5,-19.5 "/>
<text text-anchor="start" x="309.5" y="-7.5" font-family="Helvetica,sans-Serif" font-size="10.00">+ ProgramChangeSelectorLEDs()</text>
</a>
</g>
</g>
<!-- Node2 -->
<g id="node2" class="node">
<title>Node2</title>
<g id="a_node2"><a xlink:href="../../d1/d0b/classGenericProgramChangeSelector.html" target="_top" xlink:title=" ">
<polygon fill="white" stroke="black" points="300,-95.5 300,-196.5 491,-196.5 491,-95.5 300,-95.5"/>
<text text-anchor="start" x="308" y="-184.5" font-family="Helvetica,sans-Serif" font-size="10.00">GenericProgramChangeSelector</text>
<text text-anchor="middle" x="395.5" y="-173.5" font-family="Helvetica,sans-Serif" font-size="10.00">&lt; N, SelectorLEDsCallback&lt; N &gt; &gt;</text>
<polyline fill="none" stroke="black" points="300,-166.5 491,-166.5 "/>
<text text-anchor="middle" x="395.5" y="-154.5" font-family="Helvetica,sans-Serif" font-size="10.00"> </text>
<polyline fill="none" stroke="black" points="300,-147.5 491,-147.5 "/>
<text text-anchor="start" x="308" y="-135.5" font-family="Helvetica,sans-Serif" font-size="10.00">+ GenericProgramChangeSelector()</text>
<text text-anchor="start" x="308" y="-124.5" font-family="Helvetica,sans-Serif" font-size="10.00">+ begin()</text>
<text text-anchor="start" x="308" y="-113.5" font-family="Helvetica,sans-Serif" font-size="10.00">+ reset()</text>
<text text-anchor="start" x="308" y="-102.5" font-family="Helvetica,sans-Serif" font-size="10.00">+ handleUpdate()</text>
</a>
</g>
</g>
<!-- Node2&#45;&gt;Node1 -->
<g id="edge1" class="edge">
<title>Node2&#45;&gt;Node1</title>
<path fill="none" stroke="midnightblue" d="M395.5,-85.22C395.5,-75.59 395.5,-66.06 395.5,-57.68"/>
<polygon fill="none" stroke="midnightblue" points="392,-85.23 395.5,-95.23 399,-85.23 392,-85.23"/>
</g>
<!-- Node3 -->
<g id="node3" class="node">
<title>Node3</title>
<g id="a_node3"><a xlink:href="../../d0/d04/classGenericSelector.html" target="_top" xlink:title=" ">
<polygon fill="white" stroke="black" points="68,-306 68,-462 193,-462 193,-306 68,-306"/>
<text text-anchor="start" x="76" y="-450" font-family="Helvetica,sans-Serif" font-size="10.00">GenericSelector&lt; N,</text>
<text text-anchor="start" x="76" y="-439" font-family="Helvetica,sans-Serif" font-size="10.00"> SelectorLEDsCallback</text>
<text text-anchor="middle" x="130.5" y="-428" font-family="Helvetica,sans-Serif" font-size="10.00">&lt; N &gt; &gt;</text>
<polyline fill="none" stroke="black" points="68,-421 193,-421 "/>
<text text-anchor="start" x="76" y="-409" font-family="Helvetica,sans-Serif" font-size="10.00">+ callback</text>
<text text-anchor="start" x="76" y="-398" font-family="Helvetica,sans-Serif" font-size="10.00">&#45; selectable</text>
<polyline fill="none" stroke="black" points="68,-391 193,-391 "/>
<text text-anchor="start" x="76" y="-379" font-family="Helvetica,sans-Serif" font-size="10.00">+ GenericSelector()</text>
<text text-anchor="start" x="76" y="-368" font-family="Helvetica,sans-Serif" font-size="10.00">+ begin()</text>
<text text-anchor="start" x="76" y="-357" font-family="Helvetica,sans-Serif" font-size="10.00">+ update()</text>
<text text-anchor="start" x="76" y="-346" font-family="Helvetica,sans-Serif" font-size="10.00">+ reset()</text>
<text text-anchor="start" x="76" y="-335" font-family="Helvetica,sans-Serif" font-size="10.00">+ set()</text>
<text text-anchor="start" x="76" y="-324" font-family="Helvetica,sans-Serif" font-size="10.00">+ increment()</text>
<text text-anchor="start" x="76" y="-313" font-family="Helvetica,sans-Serif" font-size="10.00">+ decrement()</text>
</a>
</g>
</g>
<!-- Node3&#45;&gt;Node2 -->
<g id="edge2" class="edge">
<title>Node3&#45;&gt;Node2</title>
<path fill="none" stroke="midnightblue" d="M159.16,-296.72C169.75,-274.22 183.67,-251.43 201.5,-234 228.69,-207.43 265.41,-188.16 299.58,-174.61"/>
<polygon fill="none" stroke="midnightblue" points="155.9,-295.43 154.96,-305.99 162.27,-298.32 155.9,-295.43"/>
</g>
<!-- Node4 -->
<g id="node4" class="node">
<title>Node4</title>
<g id="a_node4"><a xlink:href="../../dc/d77/classSelectorBase.html" target="_top" xlink:title="Base class for all Selectors exposing the get method, so it can be used by display elements etc,...">
<polygon fill="white" stroke="black" points="0,-636.5 0,-704.5 99,-704.5 99,-636.5 0,-636.5"/>
<text text-anchor="middle" x="49.5" y="-692.5" font-family="Helvetica,sans-Serif" font-size="10.00">SelectorBase</text>
<polyline fill="none" stroke="black" points="0,-685.5 99,-685.5 "/>
<text text-anchor="start" x="8" y="-673.5" font-family="Helvetica,sans-Serif" font-size="10.00"># setting</text>
<polyline fill="none" stroke="black" points="0,-666.5 99,-666.5 "/>
<text text-anchor="start" x="8" y="-654.5" font-family="Helvetica,sans-Serif" font-size="10.00">+ get()</text>
<text text-anchor="start" x="8" y="-643.5" font-family="Helvetica,sans-Serif" font-size="10.00"># SelectorBase()</text>
</a>
</g>
</g>
<!-- Node4&#45;&gt;Node3 -->
<g id="edge3" class="edge">
<title>Node4&#45;&gt;Node3</title>
<path fill="none" stroke="midnightblue" d="M61.71,-626.62C74.08,-583.16 93.5,-514.96 108.55,-462.09"/>
<polygon fill="none" stroke="midnightblue" points="58.32,-625.73 58.95,-636.31 65.05,-627.65 58.32,-625.73"/>
</g>
<!-- Node5 -->
<g id="node5" class="node">
<title>Node5</title>
<g id="a_node5"><a xlink:href="../../d1/d55/classAH_1_1Updatable.html" target="_top" xlink:title="A super class for object that have to be updated regularly.">
<polygon fill="white" stroke="black" points="117,-625.5 117,-715.5 212,-715.5 212,-625.5 117,-625.5"/>
<text text-anchor="middle" x="164.5" y="-703.5" font-family="Helvetica,sans-Serif" font-size="10.00">Updatable&lt; T &gt;</text>
<polyline fill="none" stroke="black" points="117,-696.5 212,-696.5 "/>
<text text-anchor="middle" x="164.5" y="-684.5" font-family="Helvetica,sans-Serif" font-size="10.00"> </text>
<polyline fill="none" stroke="black" points="117,-677.5 212,-677.5 "/>
<text text-anchor="start" x="125" y="-665.5" font-family="Helvetica,sans-Serif" font-size="10.00">* begin()</text>
<text text-anchor="start" x="125" y="-654.5" font-family="Helvetica,sans-Serif" font-size="10.00">* update()</text>
<text text-anchor="start" x="125" y="-643.5" font-family="Helvetica,sans-Serif" font-size="10.00">* beginAll()</text>
<text text-anchor="start" x="125" y="-632.5" font-family="Helvetica,sans-Serif" font-size="10.00">* updateAll()</text>
</a>
</g>
</g>
<!-- Node5&#45;&gt;Node3 -->
<g id="edge4" class="edge">
<title>Node5&#45;&gt;Node3</title>
<path fill="none" stroke="midnightblue" d="M158.02,-615.3C152.85,-571.99 145.52,-510.71 139.73,-462.25"/>
<polygon fill="none" stroke="midnightblue" points="154.56,-615.85 159.22,-625.36 161.51,-615.01 154.56,-615.85"/>
</g>
<!-- Node6 -->
<g id="node6" class="node">
<title>Node6</title>
<g id="a_node6"><a xlink:href="../../d8/d1a/classAH_1_1UpdatableCRTP.html" target="_top" xlink:title=" ">
<polygon fill="white" stroke="black" points="200,-796.5 200,-1029.5 353,-1029.5 353,-796.5 200,-796.5"/>
<text text-anchor="start" x="208" y="-1017.5" font-family="Helvetica,sans-Serif" font-size="10.00">UpdatableCRTP&lt; Updatable</text>
<text text-anchor="middle" x="276.5" y="-1006.5" font-family="Helvetica,sans-Serif" font-size="10.00">&lt; NormalUpdatable &gt; &gt;</text>
<polyline fill="none" stroke="black" points="200,-999.5 353,-999.5 "/>
<text text-anchor="middle" x="276.5" y="-987.5" font-family="Helvetica,sans-Serif" font-size="10.00"> </text>
<polyline fill="none" stroke="black" points="200,-980.5 353,-980.5 "/>
<text text-anchor="start" x="208" y="-968.5" font-family="Helvetica,sans-Serif" font-size="10.00">+ ~UpdatableCRTP()</text>
<text text-anchor="start" x="208" y="-957.5" font-family="Helvetica,sans-Serif" font-size="10.00"># UpdatableCRTP()</text>
<text text-anchor="start" x="208" y="-946.5" font-family="Helvetica,sans-Serif" font-size="10.00"># UpdatableCRTP()</text>
<text text-anchor="start" x="208" y="-935.5" font-family="Helvetica,sans-Serif" font-size="10.00"># UpdatableCRTP()</text>
<text text-anchor="start" x="208" y="-924.5" font-family="Helvetica,sans-Serif" font-size="10.00"># operator=()</text>
<text text-anchor="start" x="208" y="-913.5" font-family="Helvetica,sans-Serif" font-size="10.00"># operator=()</text>
<text text-anchor="start" x="208" y="-902.5" font-family="Helvetica,sans-Serif" font-size="10.00">* enable()</text>
<text text-anchor="start" x="208" y="-891.5" font-family="Helvetica,sans-Serif" font-size="10.00">* disable()</text>
<text text-anchor="start" x="208" y="-880.5" font-family="Helvetica,sans-Serif" font-size="10.00">* isEnabled()</text>
<text text-anchor="start" x="208" y="-869.5" font-family="Helvetica,sans-Serif" font-size="10.00">* moveDown()</text>
<text text-anchor="start" x="208" y="-858.5" font-family="Helvetica,sans-Serif" font-size="10.00">* enable()</text>
<text text-anchor="start" x="208" y="-847.5" font-family="Helvetica,sans-Serif" font-size="10.00">* enable()</text>
<text text-anchor="start" x="208" y="-836.5" font-family="Helvetica,sans-Serif" font-size="10.00">* enable()</text>
<text text-anchor="start" x="208" y="-825.5" font-family="Helvetica,sans-Serif" font-size="10.00">* disable()</text>
<text text-anchor="start" x="208" y="-814.5" font-family="Helvetica,sans-Serif" font-size="10.00">* disable()</text>
<text text-anchor="start" x="208" y="-803.5" font-family="Helvetica,sans-Serif" font-size="10.00">* disable()</text>
</a>
</g>
</g>
<!-- Node6&#45;&gt;Node5 -->
<g id="edge5" class="edge">
<title>Node6&#45;&gt;Node5</title>
<path fill="none" stroke="midnightblue" d="M218.39,-787.22C206.41,-761.5 194.56,-736.05 185.03,-715.59"/>
<polygon fill="none" stroke="midnightblue" points="215.24,-788.74 222.63,-796.33 221.58,-785.79 215.24,-788.74"/>
</g>
<!-- Node8 -->
<g id="node8" class="node">
<title>Node8</title>
<g id="a_node8"><a xlink:href="../../d1/d55/classAH_1_1Updatable.html" target="_top" xlink:title=" ">
<polygon fill="white" stroke="black" points="268.5,-625.5 268.5,-715.5 444.5,-715.5 444.5,-625.5 268.5,-625.5"/>
<text text-anchor="middle" x="356.5" y="-703.5" font-family="Helvetica,sans-Serif" font-size="10.00">Updatable&lt; NormalUpdatable &gt;</text>
<polyline fill="none" stroke="black" points="268.5,-696.5 444.5,-696.5 "/>
<text text-anchor="middle" x="356.5" y="-684.5" font-family="Helvetica,sans-Serif" font-size="10.00"> </text>
<polyline fill="none" stroke="black" points="268.5,-677.5 444.5,-677.5 "/>
<text text-anchor="start" x="276.5" y="-665.5" font-family="Helvetica,sans-Serif" font-size="10.00">* begin()</text>
<text text-anchor="start" x="276.5" y="-654.5" font-family="Helvetica,sans-Serif" font-size="10.00">* update()</text>
<text text-anchor="start" x="276.5" y="-643.5" font-family="Helvetica,sans-Serif" font-size="10.00">* beginAll()</text>
<text text-anchor="start" x="276.5" y="-632.5" font-family="Helvetica,sans-Serif" font-size="10.00">* updateAll()</text>
</a>
</g>
</g>
<!-- Node6&#45;&gt;Node8 -->
<g id="edge8" class="edge">
<title>Node6&#45;&gt;Node8</title>
<path fill="none" stroke="midnightblue" d="M318.23,-786.55C326.71,-761.05 335.09,-735.87 341.83,-715.59"/>
<polygon fill="none" stroke="midnightblue" points="314.81,-785.74 314.98,-796.33 321.45,-787.94 314.81,-785.74"/>
</g>
<!-- Node7 -->
<g id="node7" class="node">
<title>Node7</title>
<g id="a_node7"><a xlink:href="../../d4/d23/classDoublyLinkable.html" target="_top" xlink:title=" ">
<polygon fill="white" stroke="black" points="211,-322.5 211,-445.5 364,-445.5 364,-322.5 211,-322.5"/>
<text text-anchor="start" x="219" y="-433.5" font-family="Helvetica,sans-Serif" font-size="10.00">DoublyLinkable&lt; Updatable</text>
<text text-anchor="middle" x="287.5" y="-422.5" font-family="Helvetica,sans-Serif" font-size="10.00">&lt; NormalUpdatable &gt; &gt;</text>
<polyline fill="none" stroke="black" points="211,-415.5 364,-415.5 "/>
<text text-anchor="middle" x="287.5" y="-403.5" font-family="Helvetica,sans-Serif" font-size="10.00"> </text>
<polyline fill="none" stroke="black" points="211,-396.5 364,-396.5 "/>
<text text-anchor="start" x="219" y="-384.5" font-family="Helvetica,sans-Serif" font-size="10.00"># ~DoublyLinkable()</text>
<text text-anchor="start" x="219" y="-373.5" font-family="Helvetica,sans-Serif" font-size="10.00"># DoublyLinkable()</text>
<text text-anchor="start" x="219" y="-362.5" font-family="Helvetica,sans-Serif" font-size="10.00"># DoublyLinkable()</text>
<text text-anchor="start" x="219" y="-351.5" font-family="Helvetica,sans-Serif" font-size="10.00"># DoublyLinkable()</text>
<text text-anchor="start" x="219" y="-340.5" font-family="Helvetica,sans-Serif" font-size="10.00"># operator=()</text>
<text text-anchor="start" x="219" y="-329.5" font-family="Helvetica,sans-Serif" font-size="10.00"># operator=()</text>
</a>
</g>
</g>
<!-- Node7&#45;&gt;Node6 -->
<g id="edge6" class="edge">
<title>Node7&#45;&gt;Node6</title>
<path fill="none" stroke="midnightblue" d="M275.52,-455.81C269.38,-495.68 262.57,-546.47 259.5,-592 254.81,-661.62 255.88,-679.32 259.5,-749 260.3,-764.34 261.52,-780.47 262.94,-796.36"/>
<polygon fill="none" stroke="midnightblue" points="278.98,-456.34 277.07,-445.92 272.07,-455.26 278.98,-456.34"/>
</g>
<!-- Node8&#45;&gt;Node7 -->
<g id="edge7" class="edge">
<title>Node8&#45;&gt;Node7</title>
<path fill="none" stroke="#404040" d="M345.79,-625.36C334.92,-580.52 317.9,-510.33 305.05,-457.35"/>
<polygon fill="none" stroke="#404040" points="305.04,-457.31 299.74,-452.42 302.21,-445.65 307.51,-450.54 305.04,-457.31"/>
<text text-anchor="middle" x="358" y="-566" font-family="Helvetica,sans-Serif" font-size="10.00"> #next</text>
<text text-anchor="middle" x="358" y="-555" font-family="Helvetica,sans-Serif" font-size="10.00">#previous</text>
</g>
<!-- Node9 -->
<g id="node9" class="node">
<title>Node9</title>
<g id="a_node9"><a xlink:href="../../dd/d16/classDoublyLinkedList.html" target="_top" xlink:title=" ">
<polygon fill="white" stroke="black" points="382,-234.5 382,-533.5 543,-533.5 543,-234.5 382,-234.5"/>
<text text-anchor="start" x="390" y="-521.5" font-family="Helvetica,sans-Serif" font-size="10.00">DoublyLinkedList&lt; Updatable</text>
<text text-anchor="middle" x="462.5" y="-510.5" font-family="Helvetica,sans-Serif" font-size="10.00">&lt; NormalUpdatable &gt; &gt;</text>
<polyline fill="none" stroke="black" points="382,-503.5 543,-503.5 "/>
<text text-anchor="middle" x="462.5" y="-491.5" font-family="Helvetica,sans-Serif" font-size="10.00"> </text>
<polyline fill="none" stroke="black" points="382,-484.5 543,-484.5 "/>
<text text-anchor="start" x="390" y="-472.5" font-family="Helvetica,sans-Serif" font-size="10.00">+ append()</text>
<text text-anchor="start" x="390" y="-461.5" font-family="Helvetica,sans-Serif" font-size="10.00">+ append()</text>
<text text-anchor="start" x="390" y="-450.5" font-family="Helvetica,sans-Serif" font-size="10.00">+ insertBefore()</text>
<text text-anchor="start" x="390" y="-439.5" font-family="Helvetica,sans-Serif" font-size="10.00">+ insertBefore()</text>
<text text-anchor="start" x="390" y="-428.5" font-family="Helvetica,sans-Serif" font-size="10.00">+ insertSorted()</text>
<text text-anchor="start" x="390" y="-417.5" font-family="Helvetica,sans-Serif" font-size="10.00">+ insertSorted()</text>
<text text-anchor="start" x="390" y="-406.5" font-family="Helvetica,sans-Serif" font-size="10.00">+ remove()</text>
<text text-anchor="start" x="390" y="-395.5" font-family="Helvetica,sans-Serif" font-size="10.00">+ remove()</text>
<text text-anchor="start" x="390" y="-384.5" font-family="Helvetica,sans-Serif" font-size="10.00">+ moveDown()</text>
<text text-anchor="start" x="390" y="-373.5" font-family="Helvetica,sans-Serif" font-size="10.00">+ moveDown()</text>
<text text-anchor="start" x="390" y="-362.5" font-family="Helvetica,sans-Serif" font-size="10.00">+ couldContain()</text>
<text text-anchor="start" x="390" y="-351.5" font-family="Helvetica,sans-Serif" font-size="10.00">+ couldContain()</text>
<text text-anchor="start" x="390" y="-340.5" font-family="Helvetica,sans-Serif" font-size="10.00">+ begin()</text>
<text text-anchor="start" x="390" y="-329.5" font-family="Helvetica,sans-Serif" font-size="10.00">+ begin()</text>
<text text-anchor="start" x="390" y="-318.5" font-family="Helvetica,sans-Serif" font-size="10.00">+ end()</text>
<text text-anchor="start" x="390" y="-307.5" font-family="Helvetica,sans-Serif" font-size="10.00">+ end()</text>
<text text-anchor="start" x="390" y="-296.5" font-family="Helvetica,sans-Serif" font-size="10.00">+ rbegin()</text>
<text text-anchor="start" x="390" y="-285.5" font-family="Helvetica,sans-Serif" font-size="10.00">+ rbegin()</text>
<text text-anchor="start" x="390" y="-274.5" font-family="Helvetica,sans-Serif" font-size="10.00">+ rend()</text>
<text text-anchor="start" x="390" y="-263.5" font-family="Helvetica,sans-Serif" font-size="10.00">+ rend()</text>
<text text-anchor="start" x="390" y="-252.5" font-family="Helvetica,sans-Serif" font-size="10.00">+ getFirst()</text>
<text text-anchor="start" x="390" y="-241.5" font-family="Helvetica,sans-Serif" font-size="10.00">+ getLast()</text>
</a>
</g>
</g>
<!-- Node8&#45;&gt;Node9 -->
<g id="edge10" class="edge">
<title>Node8&#45;&gt;Node9</title>
<path fill="none" stroke="#404040" d="M372.95,-625.36C381.25,-603.08 391.88,-574.53 402.9,-544.95"/>
<polygon fill="none" stroke="#404040" points="402.95,-544.82 401.3,-537.8 407.14,-533.58 408.8,-540.6 402.95,-544.82"/>
<text text-anchor="middle" x="413.5" y="-566" font-family="Helvetica,sans-Serif" font-size="10.00"> &#45;first</text>
<text text-anchor="middle" x="413.5" y="-555" font-family="Helvetica,sans-Serif" font-size="10.00">&#45;last</text>
</g>
<!-- Node9&#45;&gt;Node6 -->
<g id="edge9" class="edge">
<title>Node9&#45;&gt;Node6</title>
<path fill="none" stroke="#404040" d="M484.61,-533.93C488.4,-602.26 483.58,-682.65 453.5,-749 434.11,-791.78 397.61,-828.42 362.77,-856.06"/>
<polygon fill="none" stroke="#404040" points="362.49,-856.28 360.2,-863.11 353,-863.62 355.3,-856.79 362.49,-856.28"/>
<text text-anchor="middle" x="518.5" y="-668" font-family="Helvetica,sans-Serif" font-size="10.00"> #updatables</text>
</g>
<!-- Node10 -->
<g id="node10" class="node">
<title>Node10</title>
<g id="a_node10"><a xlink:href="../../d5/dae/classMatchingMIDIInputElement.html" target="_top" xlink:title=" ">
<polygon fill="white" stroke="black" points="561,-333.5 561,-434.5 764,-434.5 764,-333.5 561,-333.5"/>
<text text-anchor="start" x="569" y="-422.5" font-family="Helvetica,sans-Serif" font-size="10.00">MatchingMIDIInputElement</text>
<text text-anchor="start" x="569" y="-411.5" font-family="Helvetica,sans-Serif" font-size="10.00">&lt; MIDIMessageType::ProgramChange,</text>
<text text-anchor="middle" x="662.5" y="-400.5" font-family="Helvetica,sans-Serif" font-size="10.00"> OneByteMIDIMatcher &gt;</text>
<polyline fill="none" stroke="black" points="561,-393.5 764,-393.5 "/>
<text text-anchor="middle" x="662.5" y="-381.5" font-family="Helvetica,sans-Serif" font-size="10.00"> </text>
<polyline fill="none" stroke="black" points="561,-374.5 764,-374.5 "/>
<text text-anchor="start" x="569" y="-362.5" font-family="Helvetica,sans-Serif" font-size="10.00">+ updateWith()</text>
<text text-anchor="start" x="569" y="-351.5" font-family="Helvetica,sans-Serif" font-size="10.00">+ handleUpdate()</text>
<text text-anchor="start" x="569" y="-340.5" font-family="Helvetica,sans-Serif" font-size="10.00"># MatchingMIDIInputElement()</text>
</a>
</g>
</g>
<!-- Node10&#45;&gt;Node2 -->
<g id="edge11" class="edge">
<title>Node10&#45;&gt;Node2</title>
<path fill="none" stroke="midnightblue" d="M627.63,-324.89C607.87,-295.23 581.2,-260.03 551.5,-234 533.54,-218.26 512.27,-204.12 491.31,-192.04"/>
<polygon fill="none" stroke="midnightblue" points="624.86,-327.05 633.27,-333.49 630.72,-323.21 624.86,-327.05"/>
</g>
<!-- Node11 -->
<g id="node11" class="node">
<title>Node11</title>
<g id="a_node11"><a xlink:href="../../d9/db1/classMIDIInputElement.html" target="_top" xlink:title="A class for objects that listen for incoming MIDI events.">
<polygon fill="white" stroke="black" points="569,-592.5 569,-748.5 718,-748.5 718,-592.5 569,-592.5"/>
<text text-anchor="middle" x="643.5" y="-736.5" font-family="Helvetica,sans-Serif" font-size="10.00">MIDIInputElement&lt; Type &gt;</text>
<polyline fill="none" stroke="black" points="569,-729.5 718,-729.5 "/>
<text text-anchor="middle" x="643.5" y="-717.5" font-family="Helvetica,sans-Serif" font-size="10.00"> </text>
<polyline fill="none" stroke="black" points="569,-710.5 718,-710.5 "/>
<text text-anchor="start" x="577" y="-698.5" font-family="Helvetica,sans-Serif" font-size="10.00">+ ~MIDIInputElement()</text>
<text text-anchor="start" x="577" y="-687.5" font-family="Helvetica,sans-Serif" font-size="10.00">+ begin()</text>
<text text-anchor="start" x="577" y="-676.5" font-family="Helvetica,sans-Serif" font-size="10.00">+ reset()</text>
<text text-anchor="start" x="577" y="-665.5" font-family="Helvetica,sans-Serif" font-size="10.00">+ update()</text>
<text text-anchor="start" x="577" y="-654.5" font-family="Helvetica,sans-Serif" font-size="10.00">+ updateWith()</text>
<text text-anchor="start" x="577" y="-643.5" font-family="Helvetica,sans-Serif" font-size="10.00">+ updateAllWith()</text>
<text text-anchor="start" x="577" y="-632.5" font-family="Helvetica,sans-Serif" font-size="10.00">+ updateAll()</text>
<text text-anchor="start" x="577" y="-621.5" font-family="Helvetica,sans-Serif" font-size="10.00">+ beginAll()</text>
<text text-anchor="start" x="577" y="-610.5" font-family="Helvetica,sans-Serif" font-size="10.00">+ resetAll()</text>
<text text-anchor="start" x="577" y="-599.5" font-family="Helvetica,sans-Serif" font-size="10.00"># MIDIInputElement()</text>
</a>
</g>
</g>
<!-- Node11&#45;&gt;Node10 -->
<g id="edge12" class="edge">
<title>Node11&#45;&gt;Node10</title>
<path fill="none" stroke="midnightblue" d="M649.35,-581.97C652.58,-533.55 656.48,-475.16 659.19,-434.59"/>
<polygon fill="none" stroke="midnightblue" points="645.84,-581.92 648.67,-592.13 652.83,-582.39 645.84,-581.92"/>
</g>
<!-- Node12 -->
<g id="node12" class="node">
<title>Node12</title>
<g id="a_node12"><a xlink:href="../../d8/d1a/classAH_1_1UpdatableCRTP.html" target="_top" xlink:title=" ">
<polygon fill="white" stroke="black" points="568.5,-796.5 568.5,-1029.5 718.5,-1029.5 718.5,-796.5 568.5,-796.5"/>
<text text-anchor="start" x="576.5" y="-1017.5" font-family="Helvetica,sans-Serif" font-size="10.00">UpdatableCRTP&lt; MIDIInput</text>
<text text-anchor="middle" x="643.5" y="-1006.5" font-family="Helvetica,sans-Serif" font-size="10.00">Element&lt; Type &gt; &gt;</text>
<polyline fill="none" stroke="black" points="568.5,-999.5 718.5,-999.5 "/>
<text text-anchor="middle" x="643.5" y="-987.5" font-family="Helvetica,sans-Serif" font-size="10.00"> </text>
<polyline fill="none" stroke="black" points="568.5,-980.5 718.5,-980.5 "/>
<text text-anchor="start" x="576.5" y="-968.5" font-family="Helvetica,sans-Serif" font-size="10.00">+ ~UpdatableCRTP()</text>
<text text-anchor="start" x="576.5" y="-957.5" font-family="Helvetica,sans-Serif" font-size="10.00"># UpdatableCRTP()</text>
<text text-anchor="start" x="576.5" y="-946.5" font-family="Helvetica,sans-Serif" font-size="10.00"># UpdatableCRTP()</text>
<text text-anchor="start" x="576.5" y="-935.5" font-family="Helvetica,sans-Serif" font-size="10.00"># UpdatableCRTP()</text>
<text text-anchor="start" x="576.5" y="-924.5" font-family="Helvetica,sans-Serif" font-size="10.00"># operator=()</text>
<text text-anchor="start" x="576.5" y="-913.5" font-family="Helvetica,sans-Serif" font-size="10.00"># operator=()</text>
<text text-anchor="start" x="576.5" y="-902.5" font-family="Helvetica,sans-Serif" font-size="10.00">* enable()</text>
<text text-anchor="start" x="576.5" y="-891.5" font-family="Helvetica,sans-Serif" font-size="10.00">* disable()</text>
<text text-anchor="start" x="576.5" y="-880.5" font-family="Helvetica,sans-Serif" font-size="10.00">* isEnabled()</text>
<text text-anchor="start" x="576.5" y="-869.5" font-family="Helvetica,sans-Serif" font-size="10.00">* moveDown()</text>
<text text-anchor="start" x="576.5" y="-858.5" font-family="Helvetica,sans-Serif" font-size="10.00">* enable()</text>
<text text-anchor="start" x="576.5" y="-847.5" font-family="Helvetica,sans-Serif" font-size="10.00">* enable()</text>
<text text-anchor="start" x="576.5" y="-836.5" font-family="Helvetica,sans-Serif" font-size="10.00">* enable()</text>
<text text-anchor="start" x="576.5" y="-825.5" font-family="Helvetica,sans-Serif" font-size="10.00">* disable()</text>
<text text-anchor="start" x="576.5" y="-814.5" font-family="Helvetica,sans-Serif" font-size="10.00">* disable()</text>
<text text-anchor="start" x="576.5" y="-803.5" font-family="Helvetica,sans-Serif" font-size="10.00">* disable()</text>
</a>
</g>
</g>
<!-- Node12&#45;&gt;Node11 -->
<g id="edge13" class="edge">
<title>Node12&#45;&gt;Node11</title>
<path fill="none" stroke="midnightblue" d="M643.5,-786.12C643.5,-773.4 643.5,-760.77 643.5,-748.79"/>
<polygon fill="none" stroke="midnightblue" points="640,-786.33 643.5,-796.33 647,-786.33 640,-786.33"/>
</g>
<!-- Node13 -->
<g id="node13" class="node">
<title>Node13</title>
<g id="a_node13"><a xlink:href="../../d4/d23/classDoublyLinkable.html" target="_top" xlink:title=" ">
<polygon fill="white" stroke="black" points="482.5,-1165.5 482.5,-1299.5 632.5,-1299.5 632.5,-1165.5 482.5,-1165.5"/>
<text text-anchor="start" x="490.5" y="-1287.5" font-family="Helvetica,sans-Serif" font-size="10.00">DoublyLinkable&lt; MIDIInput</text>
<text text-anchor="middle" x="557.5" y="-1276.5" font-family="Helvetica,sans-Serif" font-size="10.00">Element&lt; Type &gt; &gt;</text>
<polyline fill="none" stroke="black" points="482.5,-1269.5 632.5,-1269.5 "/>
<text text-anchor="start" x="490.5" y="-1257.5" font-family="Helvetica,sans-Serif" font-size="10.00"># next</text>
<text text-anchor="start" x="490.5" y="-1246.5" font-family="Helvetica,sans-Serif" font-size="10.00"># previous</text>
<polyline fill="none" stroke="black" points="482.5,-1239.5 632.5,-1239.5 "/>
<text text-anchor="start" x="490.5" y="-1227.5" font-family="Helvetica,sans-Serif" font-size="10.00"># ~DoublyLinkable()</text>
<text text-anchor="start" x="490.5" y="-1216.5" font-family="Helvetica,sans-Serif" font-size="10.00"># DoublyLinkable()</text>
<text text-anchor="start" x="490.5" y="-1205.5" font-family="Helvetica,sans-Serif" font-size="10.00"># DoublyLinkable()</text>
<text text-anchor="start" x="490.5" y="-1194.5" font-family="Helvetica,sans-Serif" font-size="10.00"># DoublyLinkable()</text>
<text text-anchor="start" x="490.5" y="-1183.5" font-family="Helvetica,sans-Serif" font-size="10.00"># operator=()</text>
<text text-anchor="start" x="490.5" y="-1172.5" font-family="Helvetica,sans-Serif" font-size="10.00"># operator=()</text>
</a>
</g>
</g>
<!-- Node13&#45;&gt;Node12 -->
<g id="edge14" class="edge">
<title>Node13&#45;&gt;Node12</title>
<path fill="none" stroke="midnightblue" d="M578.1,-1155.44C588.31,-1117.76 600.85,-1071.46 612.21,-1029.52"/>
<polygon fill="none" stroke="midnightblue" points="574.66,-1154.76 575.42,-1165.33 581.42,-1156.59 574.66,-1154.76"/>
</g>
<!-- Node14 -->
<g id="node14" class="node">
<title>Node14</title>
<g id="a_node14"><a xlink:href="../../dd/d16/classDoublyLinkedList.html" target="_top" xlink:title=" ">
<polygon fill="white" stroke="black" points="650.5,-1077.5 650.5,-1387.5 808.5,-1387.5 808.5,-1077.5 650.5,-1077.5"/>
<text text-anchor="start" x="658.5" y="-1375.5" font-family="Helvetica,sans-Serif" font-size="10.00">DoublyLinkedList&lt; MIDIInput</text>
<text text-anchor="middle" x="729.5" y="-1364.5" font-family="Helvetica,sans-Serif" font-size="10.00">Element&lt; Type &gt; &gt;</text>
<polyline fill="none" stroke="black" points="650.5,-1357.5 808.5,-1357.5 "/>
<text text-anchor="start" x="658.5" y="-1345.5" font-family="Helvetica,sans-Serif" font-size="10.00">&#45; first</text>
<text text-anchor="start" x="658.5" y="-1334.5" font-family="Helvetica,sans-Serif" font-size="10.00">&#45; last</text>
<polyline fill="none" stroke="black" points="650.5,-1327.5 808.5,-1327.5 "/>
<text text-anchor="start" x="658.5" y="-1315.5" font-family="Helvetica,sans-Serif" font-size="10.00">+ append()</text>
<text text-anchor="start" x="658.5" y="-1304.5" font-family="Helvetica,sans-Serif" font-size="10.00">+ append()</text>
<text text-anchor="start" x="658.5" y="-1293.5" font-family="Helvetica,sans-Serif" font-size="10.00">+ insertBefore()</text>
<text text-anchor="start" x="658.5" y="-1282.5" font-family="Helvetica,sans-Serif" font-size="10.00">+ insertBefore()</text>
<text text-anchor="start" x="658.5" y="-1271.5" font-family="Helvetica,sans-Serif" font-size="10.00">+ insertSorted()</text>
<text text-anchor="start" x="658.5" y="-1260.5" font-family="Helvetica,sans-Serif" font-size="10.00">+ insertSorted()</text>
<text text-anchor="start" x="658.5" y="-1249.5" font-family="Helvetica,sans-Serif" font-size="10.00">+ remove()</text>
<text text-anchor="start" x="658.5" y="-1238.5" font-family="Helvetica,sans-Serif" font-size="10.00">+ remove()</text>
<text text-anchor="start" x="658.5" y="-1227.5" font-family="Helvetica,sans-Serif" font-size="10.00">+ moveDown()</text>
<text text-anchor="start" x="658.5" y="-1216.5" font-family="Helvetica,sans-Serif" font-size="10.00">+ moveDown()</text>
<text text-anchor="start" x="658.5" y="-1205.5" font-family="Helvetica,sans-Serif" font-size="10.00">+ couldContain()</text>
<text text-anchor="start" x="658.5" y="-1194.5" font-family="Helvetica,sans-Serif" font-size="10.00">+ couldContain()</text>
<text text-anchor="start" x="658.5" y="-1183.5" font-family="Helvetica,sans-Serif" font-size="10.00">+ begin()</text>
<text text-anchor="start" x="658.5" y="-1172.5" font-family="Helvetica,sans-Serif" font-size="10.00">+ begin()</text>
<text text-anchor="start" x="658.5" y="-1161.5" font-family="Helvetica,sans-Serif" font-size="10.00">+ end()</text>
<text text-anchor="start" x="658.5" y="-1150.5" font-family="Helvetica,sans-Serif" font-size="10.00">+ end()</text>
<text text-anchor="start" x="658.5" y="-1139.5" font-family="Helvetica,sans-Serif" font-size="10.00">+ rbegin()</text>
<text text-anchor="start" x="658.5" y="-1128.5" font-family="Helvetica,sans-Serif" font-size="10.00">+ rbegin()</text>
<text text-anchor="start" x="658.5" y="-1117.5" font-family="Helvetica,sans-Serif" font-size="10.00">+ rend()</text>
<text text-anchor="start" x="658.5" y="-1106.5" font-family="Helvetica,sans-Serif" font-size="10.00">+ rend()</text>
<text text-anchor="start" x="658.5" y="-1095.5" font-family="Helvetica,sans-Serif" font-size="10.00">+ getFirst()</text>
<text text-anchor="start" x="658.5" y="-1084.5" font-family="Helvetica,sans-Serif" font-size="10.00">+ getLast()</text>
</a>
</g>
</g>
<!-- Node14&#45;&gt;Node12 -->
<g id="edge15" class="edge">
<title>Node14&#45;&gt;Node12</title>
<path fill="none" stroke="#404040" d="M687.76,-1077.4C684.49,-1065.31 681.2,-1053.19 677.98,-1041.31"/>
<polygon fill="none" stroke="#404040" points="677.93,-1041.11 672.5,-1036.36 674.79,-1029.53 680.22,-1034.27 677.93,-1041.11"/>
<text text-anchor="middle" x="714.5" y="-1051" font-family="Helvetica,sans-Serif" font-size="10.00"> #updatables</text>
</g>
<!-- Node15 -->
<g id="node15" class="node">
<title>Node15</title>
<g id="a_node15"><a xlink:href="../../dc/dd7/structOneByteMIDIMatcher.html" target="_top" xlink:title="Matcher for MIDI messages with 1 data byte, such as Channel Pressure and Program Change.">
<polygon fill="white" stroke="black" points="736.5,-636.5 736.5,-704.5 876.5,-704.5 876.5,-636.5 736.5,-636.5"/>
<text text-anchor="middle" x="806.5" y="-692.5" font-family="Helvetica,sans-Serif" font-size="10.00">OneByteMIDIMatcher</text>
<polyline fill="none" stroke="black" points="736.5,-685.5 876.5,-685.5 "/>
<text text-anchor="middle" x="806.5" y="-673.5" font-family="Helvetica,sans-Serif" font-size="10.00"> </text>
<polyline fill="none" stroke="black" points="736.5,-666.5 876.5,-666.5 "/>
<text text-anchor="start" x="744.5" y="-654.5" font-family="Helvetica,sans-Serif" font-size="10.00">+ OneByteMIDIMatcher()</text>
<text text-anchor="start" x="744.5" y="-643.5" font-family="Helvetica,sans-Serif" font-size="10.00">+ operator()()</text>
</a>
</g>
</g>
<!-- Node15&#45;&gt;Node10 -->
<g id="edge16" class="edge">
<title>Node15&#45;&gt;Node10</title>
<path fill="none" stroke="#404040" d="M789.7,-636.31C766.07,-589.63 722.62,-503.78 693.15,-445.56"/>
<polygon fill="none" stroke="#404040" points="693.06,-445.37 686.78,-441.83 687.64,-434.67 693.92,-438.21 693.06,-445.37"/>
<text text-anchor="middle" x="782.5" y="-560.5" font-family="Helvetica,sans-Serif" font-size="10.00"> #matcher</text>
</g>
<!-- Node16 -->
<g id="node16" class="node">
<title>Node16</title>
<g id="a_node16"><a xlink:href="../../d7/d46/classMIDIChannelCable.html" target="_top" xlink:title="A class for saving a MIDI channel and cable number.">
<polygon fill="white" stroke="black" points="738.5,-818.5 738.5,-1007.5 874.5,-1007.5 874.5,-818.5 738.5,-818.5"/>
<text text-anchor="middle" x="806.5" y="-995.5" font-family="Helvetica,sans-Serif" font-size="10.00">MIDIChannelCable</text>
<polyline fill="none" stroke="black" points="738.5,-988.5 874.5,-988.5 "/>
<text text-anchor="start" x="746.5" y="-976.5" font-family="Helvetica,sans-Serif" font-size="10.00">&#45; addresses</text>
<polyline fill="none" stroke="black" points="738.5,-969.5 874.5,-969.5 "/>
<text text-anchor="start" x="746.5" y="-957.5" font-family="Helvetica,sans-Serif" font-size="10.00"># MIDIChannelCable()</text>
<text text-anchor="start" x="746.5" y="-946.5" font-family="Helvetica,sans-Serif" font-size="10.00">* MIDIChannelCable()</text>
<text text-anchor="start" x="746.5" y="-935.5" font-family="Helvetica,sans-Serif" font-size="10.00">* MIDIChannelCable()</text>
<text text-anchor="start" x="746.5" y="-924.5" font-family="Helvetica,sans-Serif" font-size="10.00">* invalid()</text>
<text text-anchor="start" x="746.5" y="-913.5" font-family="Helvetica,sans-Serif" font-size="10.00">* getChannel()</text>
<text text-anchor="start" x="746.5" y="-902.5" font-family="Helvetica,sans-Serif" font-size="10.00">* getRawChannel()</text>
<text text-anchor="start" x="746.5" y="-891.5" font-family="Helvetica,sans-Serif" font-size="10.00">* getCableNumber()</text>
<text text-anchor="start" x="746.5" y="-880.5" font-family="Helvetica,sans-Serif" font-size="10.00">* getRawCableNumber()</text>
<text text-anchor="start" x="746.5" y="-869.5" font-family="Helvetica,sans-Serif" font-size="10.00">* operator==()</text>
<text text-anchor="start" x="746.5" y="-858.5" font-family="Helvetica,sans-Serif" font-size="10.00">* operator!=()</text>
<text text-anchor="start" x="746.5" y="-847.5" font-family="Helvetica,sans-Serif" font-size="10.00">* isValid()</text>
<text text-anchor="start" x="746.5" y="-836.5" font-family="Helvetica,sans-Serif" font-size="10.00">* operator bool()</text>
<text text-anchor="start" x="746.5" y="-825.5" font-family="Helvetica,sans-Serif" font-size="10.00">* matchSingle()</text>
</a>
</g>
</g>
<!-- Node16&#45;&gt;Node15 -->
<g id="edge17" class="edge">
<title>Node16&#45;&gt;Node15</title>
<path fill="none" stroke="#404040" d="M806.5,-818.33C806.5,-783.4 806.5,-745.33 806.5,-716.7"/>
<polygon fill="none" stroke="#404040" points="806.5,-716.66 802.5,-710.66 806.5,-704.66 810.5,-710.66 806.5,-716.66"/>
<text text-anchor="middle" x="831.5" y="-770" font-family="Helvetica,sans-Serif" font-size="10.00"> +address</text>
</g>
</g>
</svg>
