<?xml version="1.0" encoding="UTF-8" standalone="no"?>
<!DOCTYPE svg PUBLIC "-//W3C//DTD SVG 1.1//EN"
 "http://www.w3.org/Graphics/SVG/1.1/DTD/svg11.dtd">
<!-- Generated by graphviz version 2.43.0 (0)
 -->
<!-- Title: PBAbsoluteEncoder&lt; NumBanks &gt; Pages: 1 -->
<svg width="318pt" height="995pt"
 viewBox="0.00 0.00 317.50 995.00" xmlns="http://www.w3.org/2000/svg" xmlns:xlink="http://www.w3.org/1999/xlink">
<g id="graph0" class="graph" transform="scale(1 1) rotate(0) translate(4 991)">
<title>PBAbsoluteEncoder&lt; NumBanks &gt;</title>
<polygon fill="white" stroke="transparent" points="-4,4 -4,-991 313.5,-991 313.5,4 -4,4"/>
<!-- Node1 -->
<g id="node1" class="node">
<title>Node1</title>
<g id="a_node1"><a xlink:title="A class of MIDIOutputElements that read the input of a quadrature (rotary) encoder and send out absol...">
<polygon fill="#bfbfbf" stroke="black" points="88.5,-0.5 88.5,-68.5 218.5,-68.5 218.5,-0.5 88.5,-0.5"/>
<text text-anchor="start" x="96.5" y="-56.5" font-family="Helvetica,sans-Serif" font-size="10.00">PBAbsoluteEncoder&lt;</text>
<text text-anchor="middle" x="153.5" y="-45.5" font-family="Helvetica,sans-Serif" font-size="10.00"> NumBanks &gt;</text>
<polyline fill="none" stroke="black" points="88.5,-38.5 218.5,-38.5 "/>
<text text-anchor="middle" x="153.5" y="-26.5" font-family="Helvetica,sans-Serif" font-size="10.00"> </text>
<polyline fill="none" stroke="black" points="88.5,-19.5 218.5,-19.5 "/>
<text text-anchor="start" x="96.5" y="-7.5" font-family="Helvetica,sans-Serif" font-size="10.00">+ PBAbsoluteEncoder()</text>
</a>
</g>
</g>
<!-- Node2 -->
<g id="node2" class="node">
<title>Node2</title>
<g id="a_node2"><a xlink:href="../../df/db5/classBankable_1_1GenericMIDIAbsoluteEncoder.html" target="_top" xlink:title="An abstract class for rotary encoders that send absolute MIDI events.">
<polygon fill="white" stroke="black" points="65,-106.5 65,-328.5 242,-328.5 242,-106.5 65,-106.5"/>
<text text-anchor="start" x="73" y="-316.5" font-family="Helvetica,sans-Serif" font-size="10.00">MIDIAbsoluteEncoder</text>
<text text-anchor="start" x="73" y="-305.5" font-family="Helvetica,sans-Serif" font-size="10.00">&lt; NumBanks, SingleAddress,</text>
<text text-anchor="middle" x="153.5" y="-294.5" font-family="Helvetica,sans-Serif" font-size="10.00"> PitchBendSender&lt; 14 &gt; &gt;</text>
<polyline fill="none" stroke="black" points="65,-287.5 242,-287.5 "/>
<text text-anchor="start" x="73" y="-275.5" font-family="Helvetica,sans-Serif" font-size="10.00">+ sender</text>
<text text-anchor="start" x="73" y="-264.5" font-family="Helvetica,sans-Serif" font-size="10.00">&#45; encoder</text>
<text text-anchor="start" x="73" y="-253.5" font-family="Helvetica,sans-Serif" font-size="10.00">&#45; address</text>
<text text-anchor="start" x="73" y="-242.5" font-family="Helvetica,sans-Serif" font-size="10.00">&#45; speedMultiply</text>
<text text-anchor="start" x="73" y="-231.5" font-family="Helvetica,sans-Serif" font-size="10.00">&#45; pulsesPerStep</text>
<text text-anchor="start" x="73" y="-220.5" font-family="Helvetica,sans-Serif" font-size="10.00">&#45; remainder</text>
<text text-anchor="start" x="73" y="-209.5" font-family="Helvetica,sans-Serif" font-size="10.00">&#45; deltaOffset</text>
<text text-anchor="start" x="73" y="-198.5" font-family="Helvetica,sans-Serif" font-size="10.00">&#45; maxValue</text>
<polyline fill="none" stroke="black" points="65,-191.5 242,-191.5 "/>
<text text-anchor="start" x="73" y="-179.5" font-family="Helvetica,sans-Serif" font-size="10.00">+ GenericMIDIAbsoluteEncoder()</text>
<text text-anchor="start" x="73" y="-168.5" font-family="Helvetica,sans-Serif" font-size="10.00">+ begin()</text>
<text text-anchor="start" x="73" y="-157.5" font-family="Helvetica,sans-Serif" font-size="10.00">+ update()</text>
<text text-anchor="start" x="73" y="-146.5" font-family="Helvetica,sans-Serif" font-size="10.00">+ getValue()</text>
<text text-anchor="start" x="73" y="-135.5" font-family="Helvetica,sans-Serif" font-size="10.00">+ getValue()</text>
<text text-anchor="start" x="73" y="-124.5" font-family="Helvetica,sans-Serif" font-size="10.00">+ setValue()</text>
<text text-anchor="start" x="73" y="-113.5" font-family="Helvetica,sans-Serif" font-size="10.00">+ setValue()</text>
</a>
</g>
</g>
<!-- Node2&#45;&gt;Node1 -->
<g id="edge1" class="edge">
<title>Node2&#45;&gt;Node1</title>
<path fill="none" stroke="midnightblue" d="M153.5,-96.21C153.5,-86.32 153.5,-76.96 153.5,-68.69"/>
<polygon fill="none" stroke="midnightblue" points="150,-96.26 153.5,-106.26 157,-96.26 150,-96.26"/>
</g>
<!-- Node3 -->
<g id="node3" class="node">
<title>Node3</title>
<g id="a_node3"><a xlink:href="../../d1/d55/classAH_1_1Updatable.html" target="_top" xlink:title="A super class for object that have to be updated regularly.">
<polygon fill="white" stroke="black" points="20,-420.5 20,-510.5 133,-510.5 133,-420.5 20,-420.5"/>
<text text-anchor="middle" x="76.5" y="-498.5" font-family="Helvetica,sans-Serif" font-size="10.00">MIDIOutputElement</text>
<polyline fill="none" stroke="black" points="20,-491.5 133,-491.5 "/>
<text text-anchor="middle" x="76.5" y="-479.5" font-family="Helvetica,sans-Serif" font-size="10.00"> </text>
<polyline fill="none" stroke="black" points="20,-472.5 133,-472.5 "/>
<text text-anchor="start" x="28" y="-460.5" font-family="Helvetica,sans-Serif" font-size="10.00">* begin()</text>
<text text-anchor="start" x="28" y="-449.5" font-family="Helvetica,sans-Serif" font-size="10.00">* update()</text>
<text text-anchor="start" x="28" y="-438.5" font-family="Helvetica,sans-Serif" font-size="10.00">* beginAll()</text>
<text text-anchor="start" x="28" y="-427.5" font-family="Helvetica,sans-Serif" font-size="10.00">* updateAll()</text>
</a>
</g>
</g>
<!-- Node3&#45;&gt;Node2 -->
<g id="edge2" class="edge">
<title>Node3&#45;&gt;Node2</title>
<path fill="none" stroke="midnightblue" d="M93.38,-410.58C100.92,-386.47 110.11,-357.11 119.01,-328.68"/>
<polygon fill="none" stroke="midnightblue" points="90,-409.65 90.35,-420.24 96.68,-411.74 90,-409.65"/>
</g>
<!-- Node4 -->
<g id="node4" class="node">
<title>Node4</title>
<g id="a_node4"><a xlink:href="../../d8/d1a/classAH_1_1UpdatableCRTP.html" target="_top" xlink:title=" ">
<polygon fill="white" stroke="black" points="0,-592.5 0,-825.5 153,-825.5 153,-592.5 0,-592.5"/>
<text text-anchor="start" x="8" y="-813.5" font-family="Helvetica,sans-Serif" font-size="10.00">UpdatableCRTP&lt; Updatable</text>
<text text-anchor="middle" x="76.5" y="-802.5" font-family="Helvetica,sans-Serif" font-size="10.00">&lt; NormalUpdatable &gt; &gt;</text>
<polyline fill="none" stroke="black" points="0,-795.5 153,-795.5 "/>
<text text-anchor="start" x="8" y="-783.5" font-family="Helvetica,sans-Serif" font-size="10.00"># updatables</text>
<polyline fill="none" stroke="black" points="0,-776.5 153,-776.5 "/>
<text text-anchor="start" x="8" y="-764.5" font-family="Helvetica,sans-Serif" font-size="10.00">+ ~UpdatableCRTP()</text>
<text text-anchor="start" x="8" y="-753.5" font-family="Helvetica,sans-Serif" font-size="10.00"># UpdatableCRTP()</text>
<text text-anchor="start" x="8" y="-742.5" font-family="Helvetica,sans-Serif" font-size="10.00"># UpdatableCRTP()</text>
<text text-anchor="start" x="8" y="-731.5" font-family="Helvetica,sans-Serif" font-size="10.00"># UpdatableCRTP()</text>
<text text-anchor="start" x="8" y="-720.5" font-family="Helvetica,sans-Serif" font-size="10.00"># operator=()</text>
<text text-anchor="start" x="8" y="-709.5" font-family="Helvetica,sans-Serif" font-size="10.00"># operator=()</text>
<text text-anchor="start" x="8" y="-698.5" font-family="Helvetica,sans-Serif" font-size="10.00">* enable()</text>
<text text-anchor="start" x="8" y="-687.5" font-family="Helvetica,sans-Serif" font-size="10.00">* disable()</text>
<text text-anchor="start" x="8" y="-676.5" font-family="Helvetica,sans-Serif" font-size="10.00">* isEnabled()</text>
<text text-anchor="start" x="8" y="-665.5" font-family="Helvetica,sans-Serif" font-size="10.00">* moveDown()</text>
<text text-anchor="start" x="8" y="-654.5" font-family="Helvetica,sans-Serif" font-size="10.00">* enable()</text>
<text text-anchor="start" x="8" y="-643.5" font-family="Helvetica,sans-Serif" font-size="10.00">* enable()</text>
<text text-anchor="start" x="8" y="-632.5" font-family="Helvetica,sans-Serif" font-size="10.00">* enable()</text>
<text text-anchor="start" x="8" y="-621.5" font-family="Helvetica,sans-Serif" font-size="10.00">* disable()</text>
<text text-anchor="start" x="8" y="-610.5" font-family="Helvetica,sans-Serif" font-size="10.00">* disable()</text>
<text text-anchor="start" x="8" y="-599.5" font-family="Helvetica,sans-Serif" font-size="10.00">* disable()</text>
</a>
</g>
</g>
<!-- Node4&#45;&gt;Node3 -->
<g id="edge3" class="edge">
<title>Node4&#45;&gt;Node3</title>
<path fill="none" stroke="midnightblue" d="M76.5,-581.98C76.5,-556.34 76.5,-531.01 76.5,-510.64"/>
<polygon fill="none" stroke="midnightblue" points="73,-582.2 76.5,-592.2 80,-582.2 73,-582.2"/>
</g>
<!-- Node5 -->
<g id="node5" class="node">
<title>Node5</title>
<g id="a_node5"><a xlink:href="../../d4/d23/classDoublyLinkable.html" target="_top" xlink:title="A class that can be inherited from to allow inserting into a DoublyLinkedList.">
<polygon fill="white" stroke="black" points="6.5,-863.5 6.5,-986.5 146.5,-986.5 146.5,-863.5 6.5,-863.5"/>
<text text-anchor="middle" x="76.5" y="-974.5" font-family="Helvetica,sans-Serif" font-size="10.00">DoublyLinkable&lt; Node &gt;</text>
<polyline fill="none" stroke="black" points="6.5,-967.5 146.5,-967.5 "/>
<text text-anchor="start" x="14.5" y="-955.5" font-family="Helvetica,sans-Serif" font-size="10.00"># next</text>
<text text-anchor="start" x="14.5" y="-944.5" font-family="Helvetica,sans-Serif" font-size="10.00"># previous</text>
<polyline fill="none" stroke="black" points="6.5,-937.5 146.5,-937.5 "/>
<text text-anchor="start" x="14.5" y="-925.5" font-family="Helvetica,sans-Serif" font-size="10.00"># ~DoublyLinkable()</text>
<text text-anchor="start" x="14.5" y="-914.5" font-family="Helvetica,sans-Serif" font-size="10.00"># DoublyLinkable()</text>
<text text-anchor="start" x="14.5" y="-903.5" font-family="Helvetica,sans-Serif" font-size="10.00"># DoublyLinkable()</text>
<text text-anchor="start" x="14.5" y="-892.5" font-family="Helvetica,sans-Serif" font-size="10.00"># operator=()</text>
<text text-anchor="start" x="14.5" y="-881.5" font-family="Helvetica,sans-Serif" font-size="10.00"># DoublyLinkable()</text>
<text text-anchor="start" x="14.5" y="-870.5" font-family="Helvetica,sans-Serif" font-size="10.00"># operator=()</text>
</a>
</g>
</g>
<!-- Node5&#45;&gt;Node4 -->
<g id="edge4" class="edge">
<title>Node5&#45;&gt;Node4</title>
<path fill="none" stroke="midnightblue" d="M76.5,-853.03C76.5,-844.17 76.5,-834.94 76.5,-825.61"/>
<polygon fill="none" stroke="midnightblue" points="73,-853.25 76.5,-863.25 80,-853.25 73,-853.25"/>
</g>
<!-- Node6 -->
<g id="node6" class="node">
<title>Node6</title>
<g id="a_node6"><a xlink:href="../../d0/d32/structAH_1_1Array.html" target="_top" xlink:title=" ">
<polygon fill="white" stroke="black" points="151.5,-376.5 151.5,-554.5 309.5,-554.5 309.5,-376.5 151.5,-376.5"/>
<text text-anchor="middle" x="230.5" y="-542.5" font-family="Helvetica,sans-Serif" font-size="10.00">Array&lt; int16_t, NumBanks &gt;</text>
<polyline fill="none" stroke="black" points="151.5,-535.5 309.5,-535.5 "/>
<text text-anchor="start" x="159.5" y="-523.5" font-family="Helvetica,sans-Serif" font-size="10.00">+ data</text>
<text text-anchor="start" x="159.5" y="-512.5" font-family="Helvetica,sans-Serif" font-size="10.00">+ length</text>
<polyline fill="none" stroke="black" points="151.5,-505.5 309.5,-505.5 "/>
<text text-anchor="start" x="159.5" y="-493.5" font-family="Helvetica,sans-Serif" font-size="10.00">+ operator[]()</text>
<text text-anchor="start" x="159.5" y="-482.5" font-family="Helvetica,sans-Serif" font-size="10.00">+ operator[]()</text>
<text text-anchor="start" x="159.5" y="-471.5" font-family="Helvetica,sans-Serif" font-size="10.00">+ begin()</text>
<text text-anchor="start" x="159.5" y="-460.5" font-family="Helvetica,sans-Serif" font-size="10.00">+ begin()</text>
<text text-anchor="start" x="159.5" y="-449.5" font-family="Helvetica,sans-Serif" font-size="10.00">+ end()</text>
<text text-anchor="start" x="159.5" y="-438.5" font-family="Helvetica,sans-Serif" font-size="10.00">+ end()</text>
<text text-anchor="start" x="159.5" y="-427.5" font-family="Helvetica,sans-Serif" font-size="10.00">+ operator==()</text>
<text text-anchor="start" x="159.5" y="-416.5" font-family="Helvetica,sans-Serif" font-size="10.00">+ operator!=()</text>
<text text-anchor="start" x="159.5" y="-405.5" font-family="Helvetica,sans-Serif" font-size="10.00">+ slice()</text>
<text text-anchor="start" x="159.5" y="-394.5" font-family="Helvetica,sans-Serif" font-size="10.00">+ slice()</text>
<text text-anchor="start" x="159.5" y="-383.5" font-family="Helvetica,sans-Serif" font-size="10.00">+ cslice()</text>
</a>
</g>
</g>
<!-- Node6&#45;&gt;Node2 -->
<g id="edge5" class="edge">
<title>Node6&#45;&gt;Node2</title>
<path fill="none" stroke="#404040" d="M202.92,-376.38C199.26,-364.68 195.45,-352.52 191.65,-340.38"/>
<polygon fill="none" stroke="#404040" points="191.59,-340.2 185.98,-335.67 188.01,-328.75 193.62,-333.28 191.59,-340.2"/>
<text text-anchor="middle" x="216" y="-350" font-family="Helvetica,sans-Serif" font-size="10.00"> &#45;values</text>
</g>
</g>
</svg>
