<?xml version="1.0" encoding="UTF-8" standalone="no"?>
<!DOCTYPE svg PUBLIC "-//W3C//DTD SVG 1.1//EN"
 "http://www.w3.org/Graphics/SVG/1.1/DTD/svg11.dtd">
<!-- Generated by graphviz version 2.40.1 (20161225.0304)
 -->
<!-- Title: MIDIRotaryEncoder&lt; Sender &gt; Pages: 1 -->
<svg width="654pt" height="727pt"
 viewBox="0.00 0.00 653.50 727.00" xmlns="http://www.w3.org/2000/svg" xmlns:xlink="http://www.w3.org/1999/xlink">
<g id="graph0" class="graph" transform="scale(1 1) rotate(0) translate(4 723)">
<title>MIDIRotaryEncoder&lt; Sender &gt;</title>
<polygon fill="#ffffff" stroke="transparent" points="-4,4 -4,-723 649.5,-723 649.5,4 -4,4"/>
<!-- Node1 -->
<g id="node1" class="node">
<title>Node1</title>
<g id="a_node1"><a xlink:title="An abstract class for rotary encoders that send MIDI events.">
<polygon fill="#bfbfbf" stroke="#000000" points="257,-.5 257,-134.5 375,-134.5 375,-.5 257,-.5"/>
<text text-anchor="start" x="265" y="-122.5" font-family="Helvetica,sans-Serif" font-size="10.00" fill="#000000">MIDIRotaryEncoder&lt;</text>
<text text-anchor="middle" x="316" y="-111.5" font-family="Helvetica,sans-Serif" font-size="10.00" fill="#000000"> Sender &gt;</text>
<polyline fill="none" stroke="#000000" points="257,-104.5 375,-104.5 "/>
<text text-anchor="start" x="265" y="-92.5" font-family="Helvetica,sans-Serif" font-size="10.00" fill="#000000">+ sender</text>
<text text-anchor="start" x="265" y="-81.5" font-family="Helvetica,sans-Serif" font-size="10.00" fill="#000000">&#45; encoder</text>
<text text-anchor="start" x="265" y="-70.5" font-family="Helvetica,sans-Serif" font-size="10.00" fill="#000000">&#45; speedMultiply</text>
<text text-anchor="start" x="265" y="-59.5" font-family="Helvetica,sans-Serif" font-size="10.00" fill="#000000">&#45; pulsesPerStep</text>
<text text-anchor="start" x="265" y="-48.5" font-family="Helvetica,sans-Serif" font-size="10.00" fill="#000000">&#45; previousPosition</text>
<polyline fill="none" stroke="#000000" points="257,-41.5 375,-41.5 "/>
<text text-anchor="start" x="265" y="-29.5" font-family="Helvetica,sans-Serif" font-size="10.00" fill="#000000">+ begin()</text>
<text text-anchor="start" x="265" y="-18.5" font-family="Helvetica,sans-Serif" font-size="10.00" fill="#000000">+ update()</text>
<text text-anchor="start" x="265" y="-7.5" font-family="Helvetica,sans-Serif" font-size="10.00" fill="#000000"># MIDIRotaryEncoder()</text>
</a>
</g>
</g>
<!-- Node2 -->
<g id="node2" class="node">
<title>Node2</title>
<g id="a_node2"><a xlink:href="../../d1/d55/classAH_1_1Updatable.html" target="_top" xlink:title=" ">
<polygon fill="#ffffff" stroke="#000000" points="0,-281.5 0,-371.5 104,-371.5 104,-281.5 0,-281.5"/>
<text text-anchor="middle" x="52" y="-359.5" font-family="Helvetica,sans-Serif" font-size="10.00" fill="#000000">MIDIOutputElement</text>
<polyline fill="none" stroke="#000000" points="0,-352.5 104,-352.5 "/>
<text text-anchor="middle" x="52" y="-340.5" font-family="Helvetica,sans-Serif" font-size="10.00" fill="#000000"> </text>
<polyline fill="none" stroke="#000000" points="0,-333.5 104,-333.5 "/>
<text text-anchor="start" x="8" y="-321.5" font-family="Helvetica,sans-Serif" font-size="10.00" fill="#000000">* begin()</text>
<text text-anchor="start" x="8" y="-310.5" font-family="Helvetica,sans-Serif" font-size="10.00" fill="#000000">* update()</text>
<text text-anchor="start" x="8" y="-299.5" font-family="Helvetica,sans-Serif" font-size="10.00" fill="#000000">* beginAll()</text>
<text text-anchor="start" x="8" y="-288.5" font-family="Helvetica,sans-Serif" font-size="10.00" fill="#000000">* updateAll()</text>
</a>
</g>
</g>
<!-- Node2&#45;&gt;Node1 -->
<g id="edge1" class="edge">
<title>Node2&#45;&gt;Node1</title>
<path fill="none" stroke="#191970" d="M65.8002,-271.5832C75.2967,-242.3831 90.3643,-207.3781 113,-182 152.0534,-138.2153 211.9922,-107.297 256.6283,-88.7167"/>
<polygon fill="none" stroke="#191970" points="62.4243,-270.6525 62.7903,-281.241 69.1072,-272.7353 62.4243,-270.6525"/>
</g>
<!-- Node3 -->
<g id="node3" class="node">
<title>Node3</title>
<g id="a_node3"><a xlink:href="../../d8/d1a/classAH_1_1UpdatableCRTP.html" target="_top" xlink:title=" ">
<polygon fill="#ffffff" stroke="#000000" points="214,-529.5 214,-718.5 356,-718.5 356,-529.5 214,-529.5"/>
<text text-anchor="start" x="222" y="-706.5" font-family="Helvetica,sans-Serif" font-size="10.00" fill="#000000">UpdatableCRTP&lt; Updatable</text>
<text text-anchor="middle" x="285" y="-695.5" font-family="Helvetica,sans-Serif" font-size="10.00" fill="#000000">&lt; NormalUpdatable &gt; &gt;</text>
<polyline fill="none" stroke="#000000" points="214,-688.5 356,-688.5 "/>
<text text-anchor="middle" x="285" y="-676.5" font-family="Helvetica,sans-Serif" font-size="10.00" fill="#000000"> </text>
<polyline fill="none" stroke="#000000" points="214,-669.5 356,-669.5 "/>
<text text-anchor="start" x="222" y="-657.5" font-family="Helvetica,sans-Serif" font-size="10.00" fill="#000000">+ ~UpdatableCRTP()</text>
<text text-anchor="start" x="222" y="-646.5" font-family="Helvetica,sans-Serif" font-size="10.00" fill="#000000"># UpdatableCRTP()</text>
<text text-anchor="start" x="222" y="-635.5" font-family="Helvetica,sans-Serif" font-size="10.00" fill="#000000">* enable()</text>
<text text-anchor="start" x="222" y="-624.5" font-family="Helvetica,sans-Serif" font-size="10.00" fill="#000000">* disable()</text>
<text text-anchor="start" x="222" y="-613.5" font-family="Helvetica,sans-Serif" font-size="10.00" fill="#000000">* isEnabled()</text>
<text text-anchor="start" x="222" y="-602.5" font-family="Helvetica,sans-Serif" font-size="10.00" fill="#000000">* enable()</text>
<text text-anchor="start" x="222" y="-591.5" font-family="Helvetica,sans-Serif" font-size="10.00" fill="#000000">* enable()</text>
<text text-anchor="start" x="222" y="-580.5" font-family="Helvetica,sans-Serif" font-size="10.00" fill="#000000">* enable()</text>
<text text-anchor="start" x="222" y="-569.5" font-family="Helvetica,sans-Serif" font-size="10.00" fill="#000000">* disable()</text>
<text text-anchor="start" x="222" y="-558.5" font-family="Helvetica,sans-Serif" font-size="10.00" fill="#000000">* disable()</text>
<text text-anchor="start" x="222" y="-547.5" font-family="Helvetica,sans-Serif" font-size="10.00" fill="#000000">* disable()</text>
<text text-anchor="start" x="222" y="-536.5" font-family="Helvetica,sans-Serif" font-size="10.00" fill="#000000">* applyToAll()</text>
</a>
</g>
</g>
<!-- Node3&#45;&gt;Node2 -->
<g id="edge2" class="edge">
<title>Node3&#45;&gt;Node2</title>
<path fill="none" stroke="#191970" d="M205.701,-566.1288C173.7676,-539.8331 138.5325,-506.642 113,-471 91.3541,-440.7835 75.4489,-401.7079 65.3165,-371.8113"/>
<polygon fill="none" stroke="#191970" points="203.7729,-569.0719 213.7406,-572.6628 208.1878,-563.6397 203.7729,-569.0719"/>
</g>
<!-- Node4 -->
<g id="node4" class="node">
<title>Node4</title>
<g id="a_node4"><a xlink:href="../../d4/d23/classDoublyLinkable.html" target="_top" xlink:title=" ">
<polygon fill="#ffffff" stroke="#000000" points="122.5,-292.5 122.5,-360.5 331.5,-360.5 331.5,-292.5 122.5,-292.5"/>
<text text-anchor="start" x="130.5" y="-348.5" font-family="Helvetica,sans-Serif" font-size="10.00" fill="#000000">DoublyLinkable&lt; Updatable</text>
<text text-anchor="middle" x="227" y="-337.5" font-family="Helvetica,sans-Serif" font-size="10.00" fill="#000000">CRTP&lt; Updatable&lt; NormalUpdatable &gt; &gt; &gt;</text>
<polyline fill="none" stroke="#000000" points="122.5,-330.5 331.5,-330.5 "/>
<text text-anchor="middle" x="227" y="-318.5" font-family="Helvetica,sans-Serif" font-size="10.00" fill="#000000"> </text>
<polyline fill="none" stroke="#000000" points="122.5,-311.5 331.5,-311.5 "/>
<text text-anchor="start" x="130.5" y="-299.5" font-family="Helvetica,sans-Serif" font-size="10.00" fill="#000000"># ~DoublyLinkable()</text>
</a>
</g>
</g>
<!-- Node3&#45;&gt;Node4 -->
<g id="edge4" class="edge">
<title>Node3&#45;&gt;Node4</title>
<path fill="none" stroke="#404040" d="M229.7875,-529.4845C227.5225,-523.3493 225.5565,-517.1602 224,-511 212.4012,-465.0965 215.1946,-410.7019 219.6284,-372.9197"/>
<polygon fill="none" stroke="#404040" points="219.6584,-372.6833 216.4496,-366.2255 221.1764,-360.7797 224.3853,-367.2375 219.6584,-372.6833"/>
<text text-anchor="middle" x="245.5" y="-503" font-family="Helvetica,sans-Serif" font-size="10.00" fill="#000000"> #next</text>
<text text-anchor="middle" x="245.5" y="-492" font-family="Helvetica,sans-Serif" font-size="10.00" fill="#000000">#previous</text>
</g>
<!-- Node5 -->
<g id="node5" class="node">
<title>Node5</title>
<g id="a_node5"><a xlink:href="../../dd/d16/classDoublyLinkedList.html" target="_top" xlink:title=" ">
<polygon fill="#ffffff" stroke="#000000" points="350,-182.5 350,-470.5 498,-470.5 498,-182.5 350,-182.5"/>
<text text-anchor="start" x="358" y="-458.5" font-family="Helvetica,sans-Serif" font-size="10.00" fill="#000000">DoublyLinkedList&lt; AH</text>
<text text-anchor="start" x="358" y="-447.5" font-family="Helvetica,sans-Serif" font-size="10.00" fill="#000000">::UpdatableCRTP&lt; Updatable</text>
<text text-anchor="middle" x="424" y="-436.5" font-family="Helvetica,sans-Serif" font-size="10.00" fill="#000000">&lt; NormalUpdatable &gt; &gt; &gt;</text>
<polyline fill="none" stroke="#000000" points="350,-429.5 498,-429.5 "/>
<text text-anchor="middle" x="424" y="-417.5" font-family="Helvetica,sans-Serif" font-size="10.00" fill="#000000"> </text>
<polyline fill="none" stroke="#000000" points="350,-410.5 498,-410.5 "/>
<text text-anchor="start" x="358" y="-398.5" font-family="Helvetica,sans-Serif" font-size="10.00" fill="#000000">+ append()</text>
<text text-anchor="start" x="358" y="-387.5" font-family="Helvetica,sans-Serif" font-size="10.00" fill="#000000">+ append()</text>
<text text-anchor="start" x="358" y="-376.5" font-family="Helvetica,sans-Serif" font-size="10.00" fill="#000000">+ insertBefore()</text>
<text text-anchor="start" x="358" y="-365.5" font-family="Helvetica,sans-Serif" font-size="10.00" fill="#000000">+ insertBefore()</text>
<text text-anchor="start" x="358" y="-354.5" font-family="Helvetica,sans-Serif" font-size="10.00" fill="#000000">+ insertSorted()</text>
<text text-anchor="start" x="358" y="-343.5" font-family="Helvetica,sans-Serif" font-size="10.00" fill="#000000">+ insertSorted()</text>
<text text-anchor="start" x="358" y="-332.5" font-family="Helvetica,sans-Serif" font-size="10.00" fill="#000000">+ remove()</text>
<text text-anchor="start" x="358" y="-321.5" font-family="Helvetica,sans-Serif" font-size="10.00" fill="#000000">+ remove()</text>
<text text-anchor="start" x="358" y="-310.5" font-family="Helvetica,sans-Serif" font-size="10.00" fill="#000000">+ moveDown()</text>
<text text-anchor="start" x="358" y="-299.5" font-family="Helvetica,sans-Serif" font-size="10.00" fill="#000000">+ couldContain()</text>
<text text-anchor="start" x="358" y="-288.5" font-family="Helvetica,sans-Serif" font-size="10.00" fill="#000000">+ begin()</text>
<text text-anchor="start" x="358" y="-277.5" font-family="Helvetica,sans-Serif" font-size="10.00" fill="#000000">+ begin()</text>
<text text-anchor="start" x="358" y="-266.5" font-family="Helvetica,sans-Serif" font-size="10.00" fill="#000000">+ end()</text>
<text text-anchor="start" x="358" y="-255.5" font-family="Helvetica,sans-Serif" font-size="10.00" fill="#000000">+ end()</text>
<text text-anchor="start" x="358" y="-244.5" font-family="Helvetica,sans-Serif" font-size="10.00" fill="#000000">+ rbegin()</text>
<text text-anchor="start" x="358" y="-233.5" font-family="Helvetica,sans-Serif" font-size="10.00" fill="#000000">+ rbegin()</text>
<text text-anchor="start" x="358" y="-222.5" font-family="Helvetica,sans-Serif" font-size="10.00" fill="#000000">+ rend()</text>
<text text-anchor="start" x="358" y="-211.5" font-family="Helvetica,sans-Serif" font-size="10.00" fill="#000000">+ rend()</text>
<text text-anchor="start" x="358" y="-200.5" font-family="Helvetica,sans-Serif" font-size="10.00" fill="#000000">+ getFirst()</text>
<text text-anchor="start" x="358" y="-189.5" font-family="Helvetica,sans-Serif" font-size="10.00" fill="#000000">+ getLast()</text>
</a>
</g>
</g>
<!-- Node3&#45;&gt;Node5 -->
<g id="edge6" class="edge">
<title>Node3&#45;&gt;Node5</title>
<path fill="none" stroke="#404040" d="M329.2199,-529.2167C335.5218,-515.7166 341.9242,-502.0053 348,-489 349.0814,-486.6853 350.1715,-484.3521 351.2687,-482.0039"/>
<polygon fill="none" stroke="#404040" points="351.3684,-481.7905 350.2847,-474.6613 356.4487,-470.9189 357.5324,-478.0481 351.3684,-481.7905"/>
<text text-anchor="middle" x="359" y="-503" font-family="Helvetica,sans-Serif" font-size="10.00" fill="#000000"> &#45;last</text>
<text text-anchor="middle" x="359" y="-492" font-family="Helvetica,sans-Serif" font-size="10.00" fill="#000000">&#45;first</text>
</g>
<!-- Node4&#45;&gt;Node3 -->
<g id="edge3" class="edge">
<title>Node4&#45;&gt;Node3</title>
<path fill="none" stroke="#191970" d="M240.926,-370.3165C250.7342,-402.7718 263.4204,-448.2457 271,-489 273.4127,-501.9729 275.4398,-515.7302 277.1345,-529.3078"/>
<polygon fill="none" stroke="#191970" points="244.2518,-369.2233 237.9834,-360.6818 237.5571,-371.2681 244.2518,-369.2233"/>
</g>
<!-- Node5&#45;&gt;Node3 -->
<g id="edge5" class="edge">
<title>Node5&#45;&gt;Node3</title>
<path fill="none" stroke="#404040" d="M391.0716,-470.6543C386.0781,-484.5789 380.4105,-498.2507 374,-511 370.6504,-517.6618 366.8713,-524.3069 362.8086,-530.8486"/>
<polygon fill="none" stroke="#404040" points="362.7367,-530.9596 362.8313,-538.1701 356.2118,-541.0306 356.1172,-533.8201 362.7367,-530.9596"/>
<text text-anchor="middle" x="411" y="-497.5" font-family="Helvetica,sans-Serif" font-size="10.00" fill="#000000"> #updatables</text>
</g>
<!-- Node6 -->
<g id="node6" class="node">
<title>Node6</title>
<g id="a_node6"><a xlink:href="../../d7/d0f/classMIDIAddress.html" target="_top" xlink:title="A type&#45;safe utility class for saving a MIDI address consisting of a 7&#45;bit address,...">
<polygon fill="#ffffff" stroke="#000000" points="516.5,-193.5 516.5,-459.5 645.5,-459.5 645.5,-193.5 516.5,-193.5"/>
<text text-anchor="middle" x="581" y="-447.5" font-family="Helvetica,sans-Serif" font-size="10.00" fill="#000000">MIDIAddress</text>
<polyline fill="none" stroke="#000000" points="516.5,-440.5 645.5,-440.5 "/>
<text text-anchor="start" x="524.5" y="-428.5" font-family="Helvetica,sans-Serif" font-size="10.00" fill="#000000">&#45; addresses</text>
<polyline fill="none" stroke="#000000" points="516.5,-421.5 645.5,-421.5 "/>
<text text-anchor="start" x="524.5" y="-409.5" font-family="Helvetica,sans-Serif" font-size="10.00" fill="#000000">* MIDIAddress()</text>
<text text-anchor="start" x="524.5" y="-398.5" font-family="Helvetica,sans-Serif" font-size="10.00" fill="#000000">* MIDIAddress()</text>
<text text-anchor="start" x="524.5" y="-387.5" font-family="Helvetica,sans-Serif" font-size="10.00" fill="#000000">* MIDIAddress()</text>
<text text-anchor="start" x="524.5" y="-376.5" font-family="Helvetica,sans-Serif" font-size="10.00" fill="#000000">* MIDIAddress()</text>
<text text-anchor="start" x="524.5" y="-365.5" font-family="Helvetica,sans-Serif" font-size="10.00" fill="#000000">* MIDIAddress()</text>
<text text-anchor="start" x="524.5" y="-354.5" font-family="Helvetica,sans-Serif" font-size="10.00" fill="#000000">* invalid()</text>
<text text-anchor="start" x="524.5" y="-343.5" font-family="Helvetica,sans-Serif" font-size="10.00" fill="#000000">* operator+=()</text>
<text text-anchor="start" x="524.5" y="-332.5" font-family="Helvetica,sans-Serif" font-size="10.00" fill="#000000">* operator&#45;=()</text>
<text text-anchor="start" x="524.5" y="-321.5" font-family="Helvetica,sans-Serif" font-size="10.00" fill="#000000">* operator+()</text>
<text text-anchor="start" x="524.5" y="-310.5" font-family="Helvetica,sans-Serif" font-size="10.00" fill="#000000">* operator&#45;()</text>
<text text-anchor="start" x="524.5" y="-299.5" font-family="Helvetica,sans-Serif" font-size="10.00" fill="#000000">* getAddress()</text>
<text text-anchor="start" x="524.5" y="-288.5" font-family="Helvetica,sans-Serif" font-size="10.00" fill="#000000">* getChannel()</text>
<text text-anchor="start" x="524.5" y="-277.5" font-family="Helvetica,sans-Serif" font-size="10.00" fill="#000000">* getRawChannel()</text>
<text text-anchor="start" x="524.5" y="-266.5" font-family="Helvetica,sans-Serif" font-size="10.00" fill="#000000">* getCableNumber()</text>
<text text-anchor="start" x="524.5" y="-255.5" font-family="Helvetica,sans-Serif" font-size="10.00" fill="#000000">* operator==()</text>
<text text-anchor="start" x="524.5" y="-244.5" font-family="Helvetica,sans-Serif" font-size="10.00" fill="#000000">* operator!=()</text>
<text text-anchor="start" x="524.5" y="-233.5" font-family="Helvetica,sans-Serif" font-size="10.00" fill="#000000">* isValid()</text>
<text text-anchor="start" x="524.5" y="-222.5" font-family="Helvetica,sans-Serif" font-size="10.00" fill="#000000">* operator bool()</text>
<text text-anchor="start" x="524.5" y="-211.5" font-family="Helvetica,sans-Serif" font-size="10.00" fill="#000000">* matchSingle()</text>
<text text-anchor="start" x="524.5" y="-200.5" font-family="Helvetica,sans-Serif" font-size="10.00" fill="#000000">* matchAddressInRange()</text>
</a>
</g>
</g>
<!-- Node6&#45;&gt;Node1 -->
<g id="edge7" class="edge">
<title>Node6&#45;&gt;Node1</title>
<path fill="none" stroke="#404040" d="M516.7636,-193.313C513.624,-189.3871 510.3694,-185.6022 507,-182 473.2028,-145.8682 425.4679,-117.2484 386.1747,-97.6589"/>
<polygon fill="none" stroke="#404040" points="386.121,-97.6328 378.975,-98.5991 375.3345,-92.3744 382.4806,-91.4081 386.121,-97.6328"/>
<text text-anchor="middle" x="506.5" y="-156" font-family="Helvetica,sans-Serif" font-size="10.00" fill="#000000"> &#45;address</text>
</g>
</g>
</svg>
