<?xml version="1.0" encoding="UTF-8" standalone="no"?>
<!DOCTYPE svg PUBLIC "-//W3C//DTD SVG 1.1//EN"
 "http://www.w3.org/Graphics/SVG/1.1/DTD/svg11.dtd">
<!-- Generated by graphviz version 2.43.0 (0)
 -->
<!-- Title: NoteCCKPValue&lt; Type, BankSize &gt; Pages: 1 -->
<svg width="539pt" height="1211pt"
 viewBox="0.00 0.00 539.00 1211.00" xmlns="http://www.w3.org/2000/svg" xmlns:xlink="http://www.w3.org/1999/xlink">
<g id="graph0" class="graph" transform="scale(1 1) rotate(0) translate(4 1207)">
<title>NoteCCKPValue&lt; Type, BankSize &gt;</title>
<polygon fill="white" stroke="transparent" points="-4,4 -4,-1207 535,-1207 535,4 -4,4"/>
<!-- Node1 -->
<g id="node1" class="node">
<title>Node1</title>
<g id="a_node1"><a xlink:title="Generic base class for classes that listen for MIDI Note, Control Change and Key Pressure events on a...">
<polygon fill="#bfbfbf" stroke="black" points="251.5,-0.5 251.5,-134.5 394.5,-134.5 394.5,-0.5 251.5,-0.5"/>
<text text-anchor="start" x="259.5" y="-122.5" font-family="Helvetica,sans-Serif" font-size="10.00">NoteCCKPValue&lt; Type,</text>
<text text-anchor="middle" x="323" y="-111.5" font-family="Helvetica,sans-Serif" font-size="10.00"> BankSize &gt;</text>
<polyline fill="none" stroke="black" points="251.5,-104.5 394.5,-104.5 "/>
<text text-anchor="middle" x="323" y="-92.5" font-family="Helvetica,sans-Serif" font-size="10.00"> </text>
<polyline fill="none" stroke="black" points="251.5,-85.5 394.5,-85.5 "/>
<text text-anchor="start" x="259.5" y="-73.5" font-family="Helvetica,sans-Serif" font-size="10.00">+ NoteCCKPValue()</text>
<text text-anchor="start" x="259.5" y="-62.5" font-family="Helvetica,sans-Serif" font-size="10.00">+ reset()</text>
<text text-anchor="start" x="259.5" y="-51.5" font-family="Helvetica,sans-Serif" font-size="10.00"># handleUpdateImpl()</text>
<text text-anchor="start" x="259.5" y="-40.5" font-family="Helvetica,sans-Serif" font-size="10.00"># handleUpdate()</text>
<text text-anchor="start" x="259.5" y="-29.5" font-family="Helvetica,sans-Serif" font-size="10.00"># onBankSettingChange()</text>
<text text-anchor="start" x="259.5" y="-18.5" font-family="Helvetica,sans-Serif" font-size="10.00">* getValue()</text>
<text text-anchor="start" x="259.5" y="-7.5" font-family="Helvetica,sans-Serif" font-size="10.00">* getValue()</text>
</a>
</g>
</g>
<!-- Node2 -->
<g id="node2" class="node">
<title>Node2</title>
<g id="a_node2"><a xlink:href="../../d9/dc0/classBankableMatchingMIDIInputElement.html" target="_top" xlink:title=" ">
<polygon fill="white" stroke="black" points="81.5,-210 81.5,-333 264.5,-333 264.5,-210 81.5,-210"/>
<text text-anchor="start" x="89.5" y="-321" font-family="Helvetica,sans-Serif" font-size="10.00">BankableMatchingMIDIInput</text>
<text text-anchor="start" x="89.5" y="-310" font-family="Helvetica,sans-Serif" font-size="10.00">Element&lt; Type, BankableTwoByte</text>
<text text-anchor="middle" x="173" y="-299" font-family="Helvetica,sans-Serif" font-size="10.00">MIDIMatcher&lt; BankSize &gt; &gt;</text>
<polyline fill="none" stroke="black" points="81.5,-292 264.5,-292 "/>
<text text-anchor="middle" x="173" y="-280" font-family="Helvetica,sans-Serif" font-size="10.00"> </text>
<polyline fill="none" stroke="black" points="81.5,-273 264.5,-273 "/>
<text text-anchor="start" x="89.5" y="-261" font-family="Helvetica,sans-Serif" font-size="10.00">+ ~BankableMatchingMIDIInput</text>
<text text-anchor="start" x="89.5" y="-250" font-family="Helvetica,sans-Serif" font-size="10.00">Element()</text>
<text text-anchor="start" x="89.5" y="-239" font-family="Helvetica,sans-Serif" font-size="10.00"># BankableMatchingMIDIInput</text>
<text text-anchor="start" x="89.5" y="-228" font-family="Helvetica,sans-Serif" font-size="10.00">Element()</text>
<text text-anchor="start" x="89.5" y="-217" font-family="Helvetica,sans-Serif" font-size="10.00"># getActiveBank()</text>
</a>
</g>
</g>
<!-- Node2&#45;&gt;Node1 -->
<g id="edge1" class="edge">
<title>Node2&#45;&gt;Node1</title>
<path fill="none" stroke="midnightblue" d="M224.08,-201.71C240.17,-180.05 257.89,-156.18 273.84,-134.7"/>
<polygon fill="none" stroke="midnightblue" points="221.16,-199.78 218,-209.89 226.78,-203.95 221.16,-199.78"/>
</g>
<!-- Node3 -->
<g id="node3" class="node">
<title>Node3</title>
<g id="a_node3"><a xlink:href="../../d5/dae/classMatchingMIDIInputElement.html" target="_top" xlink:title="The MIDIInputElement base class is very general: you give it a MIDI message, and it calls the updateW...">
<polygon fill="white" stroke="black" points="0,-398.5 0,-488.5 168,-488.5 168,-398.5 0,-398.5"/>
<text text-anchor="start" x="8" y="-476.5" font-family="Helvetica,sans-Serif" font-size="10.00">MatchingMIDIInputElement</text>
<text text-anchor="middle" x="84" y="-465.5" font-family="Helvetica,sans-Serif" font-size="10.00">&lt; Type, Matcher &gt;</text>
<polyline fill="none" stroke="black" points="0,-458.5 168,-458.5 "/>
<text text-anchor="start" x="8" y="-446.5" font-family="Helvetica,sans-Serif" font-size="10.00"># matcher</text>
<polyline fill="none" stroke="black" points="0,-439.5 168,-439.5 "/>
<text text-anchor="start" x="8" y="-427.5" font-family="Helvetica,sans-Serif" font-size="10.00">+ updateWith()</text>
<text text-anchor="start" x="8" y="-416.5" font-family="Helvetica,sans-Serif" font-size="10.00">+ handleUpdate()</text>
<text text-anchor="start" x="8" y="-405.5" font-family="Helvetica,sans-Serif" font-size="10.00"># MatchingMIDIInputElement()</text>
</a>
</g>
</g>
<!-- Node3&#45;&gt;Node2 -->
<g id="edge2" class="edge">
<title>Node3&#45;&gt;Node2</title>
<path fill="none" stroke="midnightblue" d="M111.91,-389.19C121.22,-371.4 131.67,-351.44 141.25,-333.14"/>
<polygon fill="none" stroke="midnightblue" points="108.69,-387.8 107.15,-398.28 114.89,-391.04 108.69,-387.8"/>
</g>
<!-- Node4 -->
<g id="node4" class="node">
<title>Node4</title>
<g id="a_node4"><a xlink:href="../../d9/db1/classMIDIInputElement.html" target="_top" xlink:title="A class for objects that listen for incoming MIDI events.">
<polygon fill="white" stroke="black" points="9.5,-526.5 9.5,-682.5 158.5,-682.5 158.5,-526.5 9.5,-526.5"/>
<text text-anchor="middle" x="84" y="-670.5" font-family="Helvetica,sans-Serif" font-size="10.00">MIDIInputElement&lt; Type &gt;</text>
<polyline fill="none" stroke="black" points="9.5,-663.5 158.5,-663.5 "/>
<text text-anchor="middle" x="84" y="-651.5" font-family="Helvetica,sans-Serif" font-size="10.00"> </text>
<polyline fill="none" stroke="black" points="9.5,-644.5 158.5,-644.5 "/>
<text text-anchor="start" x="17.5" y="-632.5" font-family="Helvetica,sans-Serif" font-size="10.00">+ ~MIDIInputElement()</text>
<text text-anchor="start" x="17.5" y="-621.5" font-family="Helvetica,sans-Serif" font-size="10.00">+ begin()</text>
<text text-anchor="start" x="17.5" y="-610.5" font-family="Helvetica,sans-Serif" font-size="10.00">+ reset()</text>
<text text-anchor="start" x="17.5" y="-599.5" font-family="Helvetica,sans-Serif" font-size="10.00">+ update()</text>
<text text-anchor="start" x="17.5" y="-588.5" font-family="Helvetica,sans-Serif" font-size="10.00">+ updateWith()</text>
<text text-anchor="start" x="17.5" y="-577.5" font-family="Helvetica,sans-Serif" font-size="10.00">+ updateAllWith()</text>
<text text-anchor="start" x="17.5" y="-566.5" font-family="Helvetica,sans-Serif" font-size="10.00">+ updateAll()</text>
<text text-anchor="start" x="17.5" y="-555.5" font-family="Helvetica,sans-Serif" font-size="10.00">+ beginAll()</text>
<text text-anchor="start" x="17.5" y="-544.5" font-family="Helvetica,sans-Serif" font-size="10.00">+ resetAll()</text>
<text text-anchor="start" x="17.5" y="-533.5" font-family="Helvetica,sans-Serif" font-size="10.00"># MIDIInputElement()</text>
</a>
</g>
</g>
<!-- Node4&#45;&gt;Node3 -->
<g id="edge3" class="edge">
<title>Node4&#45;&gt;Node3</title>
<path fill="none" stroke="midnightblue" d="M84,-516.3C84,-506.71 84,-497.26 84,-488.54"/>
<polygon fill="none" stroke="midnightblue" points="80.5,-516.33 84,-526.33 87.5,-516.33 80.5,-516.33"/>
</g>
<!-- Node5 -->
<g id="node5" class="node">
<title>Node5</title>
<g id="a_node5"><a xlink:href="../../d8/d1a/classAH_1_1UpdatableCRTP.html" target="_top" xlink:title=" ">
<polygon fill="white" stroke="black" points="9,-720.5 9,-1041.5 159,-1041.5 159,-720.5 9,-720.5"/>
<text text-anchor="start" x="17" y="-1029.5" font-family="Helvetica,sans-Serif" font-size="10.00">UpdatableCRTP&lt; MIDIInput</text>
<text text-anchor="middle" x="84" y="-1018.5" font-family="Helvetica,sans-Serif" font-size="10.00">Element&lt; Type &gt;, true &gt;</text>
<polyline fill="none" stroke="black" points="9,-1011.5 159,-1011.5 "/>
<text text-anchor="start" x="17" y="-999.5" font-family="Helvetica,sans-Serif" font-size="10.00"># updatables</text>
<text text-anchor="start" x="17" y="-988.5" font-family="Helvetica,sans-Serif" font-size="10.00"># mutex</text>
<polyline fill="none" stroke="black" points="9,-981.5 159,-981.5 "/>
<text text-anchor="start" x="17" y="-969.5" font-family="Helvetica,sans-Serif" font-size="10.00">+ ~UpdatableCRTP()</text>
<text text-anchor="start" x="17" y="-958.5" font-family="Helvetica,sans-Serif" font-size="10.00">+ getMutex()</text>
<text text-anchor="start" x="17" y="-947.5" font-family="Helvetica,sans-Serif" font-size="10.00"># UpdatableCRTP()</text>
<text text-anchor="start" x="17" y="-936.5" font-family="Helvetica,sans-Serif" font-size="10.00"># UpdatableCRTP()</text>
<text text-anchor="start" x="17" y="-925.5" font-family="Helvetica,sans-Serif" font-size="10.00"># UpdatableCRTP()</text>
<text text-anchor="start" x="17" y="-914.5" font-family="Helvetica,sans-Serif" font-size="10.00"># operator=()</text>
<text text-anchor="start" x="17" y="-903.5" font-family="Helvetica,sans-Serif" font-size="10.00"># operator=()</text>
<text text-anchor="start" x="17" y="-892.5" font-family="Helvetica,sans-Serif" font-size="10.00">* method</text>
<text text-anchor="start" x="17" y="-881.5" font-family="Helvetica,sans-Serif" font-size="10.00">* args</text>
<text text-anchor="start" x="17" y="-870.5" font-family="Helvetica,sans-Serif" font-size="10.00">* enable()</text>
<text text-anchor="start" x="17" y="-859.5" font-family="Helvetica,sans-Serif" font-size="10.00">* enable()</text>
<text text-anchor="start" x="17" y="-848.5" font-family="Helvetica,sans-Serif" font-size="10.00">* disable()</text>
<text text-anchor="start" x="17" y="-837.5" font-family="Helvetica,sans-Serif" font-size="10.00">* disable()</text>
<text text-anchor="start" x="17" y="-826.5" font-family="Helvetica,sans-Serif" font-size="10.00">* isEnabled()</text>
<text text-anchor="start" x="17" y="-815.5" font-family="Helvetica,sans-Serif" font-size="10.00">* isEnabled()</text>
<text text-anchor="start" x="17" y="-804.5" font-family="Helvetica,sans-Serif" font-size="10.00">* moveDown()</text>
<text text-anchor="start" x="17" y="-793.5" font-family="Helvetica,sans-Serif" font-size="10.00">* moveDown()</text>
<text text-anchor="start" x="17" y="-782.5" font-family="Helvetica,sans-Serif" font-size="10.00">* enable()</text>
<text text-anchor="start" x="17" y="-771.5" font-family="Helvetica,sans-Serif" font-size="10.00">* enable()</text>
<text text-anchor="start" x="17" y="-760.5" font-family="Helvetica,sans-Serif" font-size="10.00">* enable()</text>
<text text-anchor="start" x="17" y="-749.5" font-family="Helvetica,sans-Serif" font-size="10.00">* disable()</text>
<text text-anchor="start" x="17" y="-738.5" font-family="Helvetica,sans-Serif" font-size="10.00">* disable()</text>
<text text-anchor="start" x="17" y="-727.5" font-family="Helvetica,sans-Serif" font-size="10.00">* disable()</text>
</a>
</g>
</g>
<!-- Node5&#45;&gt;Node4 -->
<g id="edge4" class="edge">
<title>Node5&#45;&gt;Node4</title>
<path fill="none" stroke="midnightblue" d="M84,-710.05C84,-700.66 84,-691.48 84,-682.71"/>
<polygon fill="none" stroke="midnightblue" points="80.5,-710.32 84,-720.32 87.5,-710.32 80.5,-710.32"/>
</g>
<!-- Node6 -->
<g id="node6" class="node">
<title>Node6</title>
<g id="a_node6"><a xlink:href="../../d4/d23/classDoublyLinkable.html" target="_top" xlink:title="A class that can be inherited from to allow inserting into a DoublyLinkedList.">
<polygon fill="white" stroke="black" points="14,-1079.5 14,-1202.5 154,-1202.5 154,-1079.5 14,-1079.5"/>
<text text-anchor="middle" x="84" y="-1190.5" font-family="Helvetica,sans-Serif" font-size="10.00">DoublyLinkable&lt; Node &gt;</text>
<polyline fill="none" stroke="black" points="14,-1183.5 154,-1183.5 "/>
<text text-anchor="start" x="22" y="-1171.5" font-family="Helvetica,sans-Serif" font-size="10.00"># next</text>
<text text-anchor="start" x="22" y="-1160.5" font-family="Helvetica,sans-Serif" font-size="10.00"># previous</text>
<polyline fill="none" stroke="black" points="14,-1153.5 154,-1153.5 "/>
<text text-anchor="start" x="22" y="-1141.5" font-family="Helvetica,sans-Serif" font-size="10.00"># ~DoublyLinkable()</text>
<text text-anchor="start" x="22" y="-1130.5" font-family="Helvetica,sans-Serif" font-size="10.00"># DoublyLinkable()</text>
<text text-anchor="start" x="22" y="-1119.5" font-family="Helvetica,sans-Serif" font-size="10.00"># DoublyLinkable()</text>
<text text-anchor="start" x="22" y="-1108.5" font-family="Helvetica,sans-Serif" font-size="10.00"># operator=()</text>
<text text-anchor="start" x="22" y="-1097.5" font-family="Helvetica,sans-Serif" font-size="10.00"># DoublyLinkable()</text>
<text text-anchor="start" x="22" y="-1086.5" font-family="Helvetica,sans-Serif" font-size="10.00"># operator=()</text>
</a>
</g>
</g>
<!-- Node6&#45;&gt;Node5 -->
<g id="edge5" class="edge">
<title>Node6&#45;&gt;Node5</title>
<path fill="none" stroke="midnightblue" d="M84,-1069.08C84,-1060.29 84,-1051.03 84,-1041.55"/>
<polygon fill="none" stroke="midnightblue" points="80.5,-1069.18 84,-1079.18 87.5,-1069.18 80.5,-1069.18"/>
</g>
<!-- Node7 -->
<g id="node7" class="node">
<title>Node7</title>
<g id="a_node7"><a xlink:href="../../d2/dbf/classBankSettingChangeCallback.html" target="_top" xlink:title="Callback class for Bankable objects that need to be notified when the active setting of their Bank ch...">
<polygon fill="white" stroke="black" points="186.5,-415 186.5,-472 341.5,-472 341.5,-415 186.5,-415"/>
<text text-anchor="middle" x="264" y="-460" font-family="Helvetica,sans-Serif" font-size="10.00">BankSettingChangeCallback</text>
<polyline fill="none" stroke="black" points="186.5,-453 341.5,-453 "/>
<text text-anchor="middle" x="264" y="-441" font-family="Helvetica,sans-Serif" font-size="10.00"> </text>
<polyline fill="none" stroke="black" points="186.5,-434 341.5,-434 "/>
<text text-anchor="start" x="194.5" y="-422" font-family="Helvetica,sans-Serif" font-size="10.00">&#45; onBankSettingChange()</text>
</a>
</g>
</g>
<!-- Node7&#45;&gt;Node2 -->
<g id="edge6" class="edge">
<title>Node7&#45;&gt;Node2</title>
<path fill="none" stroke="midnightblue" d="M244.38,-405.84C233.06,-384.7 218.55,-357.59 205.56,-333.33"/>
<polygon fill="none" stroke="midnightblue" points="241.37,-407.64 249.18,-414.81 247.54,-404.34 241.37,-407.64"/>
</g>
<!-- Node8 -->
<g id="node8" class="node">
<title>Node8</title>
<g id="a_node8"><a xlink:href="../../d4/d23/classDoublyLinkable.html" target="_top" xlink:title=" ">
<polygon fill="white" stroke="black" points="183,-537.5 183,-671.5 345,-671.5 345,-537.5 183,-537.5"/>
<text text-anchor="start" x="191" y="-659.5" font-family="Helvetica,sans-Serif" font-size="10.00">DoublyLinkable&lt; BankSetting</text>
<text text-anchor="middle" x="264" y="-648.5" font-family="Helvetica,sans-Serif" font-size="10.00">ChangeCallback &gt;</text>
<polyline fill="none" stroke="black" points="183,-641.5 345,-641.5 "/>
<text text-anchor="start" x="191" y="-629.5" font-family="Helvetica,sans-Serif" font-size="10.00"># next</text>
<text text-anchor="start" x="191" y="-618.5" font-family="Helvetica,sans-Serif" font-size="10.00"># previous</text>
<polyline fill="none" stroke="black" points="183,-611.5 345,-611.5 "/>
<text text-anchor="start" x="191" y="-599.5" font-family="Helvetica,sans-Serif" font-size="10.00"># ~DoublyLinkable()</text>
<text text-anchor="start" x="191" y="-588.5" font-family="Helvetica,sans-Serif" font-size="10.00"># DoublyLinkable()</text>
<text text-anchor="start" x="191" y="-577.5" font-family="Helvetica,sans-Serif" font-size="10.00"># DoublyLinkable()</text>
<text text-anchor="start" x="191" y="-566.5" font-family="Helvetica,sans-Serif" font-size="10.00"># DoublyLinkable()</text>
<text text-anchor="start" x="191" y="-555.5" font-family="Helvetica,sans-Serif" font-size="10.00"># operator=()</text>
<text text-anchor="start" x="191" y="-544.5" font-family="Helvetica,sans-Serif" font-size="10.00"># operator=()</text>
</a>
</g>
</g>
<!-- Node8&#45;&gt;Node7 -->
<g id="edge7" class="edge">
<title>Node8&#45;&gt;Node7</title>
<path fill="none" stroke="midnightblue" d="M264,-527.19C264,-507.48 264,-487.51 264,-472.13"/>
<polygon fill="none" stroke="midnightblue" points="260.5,-527.45 264,-537.45 267.5,-527.45 260.5,-527.45"/>
</g>
<!-- Node9 -->
<g id="node9" class="node">
<title>Node9</title>
<g id="a_node9"><a xlink:href="../../d8/d87/classInterfaces_1_1IValue.html" target="_top" xlink:title="Abstract interface for MIDI input elements that receive and store a 7&#45;bit value.">
<polygon fill="white" stroke="black" points="283,-232 283,-311 363,-311 363,-232 283,-232"/>
<text text-anchor="middle" x="323" y="-299" font-family="Helvetica,sans-Serif" font-size="10.00">IValue</text>
<polyline fill="none" stroke="black" points="283,-292 363,-292 "/>
<text text-anchor="start" x="291" y="-280" font-family="Helvetica,sans-Serif" font-size="10.00"># dirty</text>
<polyline fill="none" stroke="black" points="283,-273 363,-273 "/>
<text text-anchor="start" x="291" y="-261" font-family="Helvetica,sans-Serif" font-size="10.00">+ getValue()</text>
<text text-anchor="start" x="291" y="-250" font-family="Helvetica,sans-Serif" font-size="10.00">* getDirty()</text>
<text text-anchor="start" x="291" y="-239" font-family="Helvetica,sans-Serif" font-size="10.00">* clearDirty()</text>
</a>
</g>
</g>
<!-- Node9&#45;&gt;Node1 -->
<g id="edge8" class="edge">
<title>Node9&#45;&gt;Node1</title>
<path fill="none" stroke="midnightblue" d="M323,-221.53C323,-195.47 323,-163.05 323,-134.76"/>
<polygon fill="none" stroke="midnightblue" points="319.5,-221.55 323,-231.55 326.5,-221.55 319.5,-221.55"/>
</g>
<!-- Node10 -->
<g id="node10" class="node">
<title>Node10</title>
<g id="a_node10"><a xlink:href="../../d0/d32/structAH_1_1Array.html" target="_top" xlink:title=" ">
<polygon fill="white" stroke="black" points="381,-182.5 381,-360.5 531,-360.5 531,-182.5 381,-182.5"/>
<text text-anchor="middle" x="456" y="-348.5" font-family="Helvetica,sans-Serif" font-size="10.00">Array&lt; uint8_t, BankSize &gt;</text>
<polyline fill="none" stroke="black" points="381,-341.5 531,-341.5 "/>
<text text-anchor="start" x="389" y="-329.5" font-family="Helvetica,sans-Serif" font-size="10.00">+ data</text>
<text text-anchor="start" x="389" y="-318.5" font-family="Helvetica,sans-Serif" font-size="10.00">+ length</text>
<polyline fill="none" stroke="black" points="381,-311.5 531,-311.5 "/>
<text text-anchor="start" x="389" y="-299.5" font-family="Helvetica,sans-Serif" font-size="10.00">+ operator[]()</text>
<text text-anchor="start" x="389" y="-288.5" font-family="Helvetica,sans-Serif" font-size="10.00">+ operator[]()</text>
<text text-anchor="start" x="389" y="-277.5" font-family="Helvetica,sans-Serif" font-size="10.00">+ begin()</text>
<text text-anchor="start" x="389" y="-266.5" font-family="Helvetica,sans-Serif" font-size="10.00">+ begin()</text>
<text text-anchor="start" x="389" y="-255.5" font-family="Helvetica,sans-Serif" font-size="10.00">+ end()</text>
<text text-anchor="start" x="389" y="-244.5" font-family="Helvetica,sans-Serif" font-size="10.00">+ end()</text>
<text text-anchor="start" x="389" y="-233.5" font-family="Helvetica,sans-Serif" font-size="10.00">+ operator==()</text>
<text text-anchor="start" x="389" y="-222.5" font-family="Helvetica,sans-Serif" font-size="10.00">+ operator!=()</text>
<text text-anchor="start" x="389" y="-211.5" font-family="Helvetica,sans-Serif" font-size="10.00">+ slice()</text>
<text text-anchor="start" x="389" y="-200.5" font-family="Helvetica,sans-Serif" font-size="10.00">+ slice()</text>
<text text-anchor="start" x="389" y="-189.5" font-family="Helvetica,sans-Serif" font-size="10.00">+ cslice()</text>
</a>
</g>
</g>
<!-- Node10&#45;&gt;Node1 -->
<g id="edge9" class="edge">
<title>Node10&#45;&gt;Node1</title>
<path fill="none" stroke="#404040" d="M398.05,-182.49C389.79,-169.95 381.36,-157.13 373.26,-144.84"/>
<polygon fill="none" stroke="#404040" points="373.15,-144.67 366.51,-141.86 366.55,-134.65 373.19,-137.46 373.15,-144.67"/>
<text text-anchor="middle" x="405.5" y="-156" font-family="Helvetica,sans-Serif" font-size="10.00"> &#45;values</text>
</g>
</g>
</svg>
