<?xml version="1.0" encoding="UTF-8" standalone="no"?>
<!DOCTYPE svg PUBLIC "-//W3C//DTD SVG 1.1//EN"
 "http://www.w3.org/Graphics/SVG/1.1/DTD/svg11.dtd">
<!-- Generated by graphviz version 2.40.1 (20161225.0304)
 -->
<!-- Title: Selector.hpp Pages: 1 -->
<svg width="1089pt" height="196pt"
 viewBox="0.00 0.00 1089.00 196.00" xmlns="http://www.w3.org/2000/svg" xmlns:xlink="http://www.w3.org/1999/xlink">
<g id="graph0" class="graph" transform="scale(1 1) rotate(0) translate(4 192)">
<title>Selector.hpp</title>
<polygon fill="#ffffff" stroke="transparent" points="-4,4 -4,-192 1085,-192 1085,4 -4,4"/>
<!-- Node1 -->
<g id="node1" class="node">
<title>Node1</title>
<g id="a_node1"><a xlink:title=" ">
<polygon fill="#bfbfbf" stroke="#000000" points="522,-168.5 522,-187.5 593,-187.5 593,-168.5 522,-168.5"/>
<text text-anchor="middle" x="557.5" y="-175.5" font-family="Helvetica,sans-Serif" font-size="10.00" fill="#000000">Selector.hpp</text>
</a>
</g>
</g>
<!-- Node2 -->
<g id="node2" class="node">
<title>Node2</title>
<g id="a_node2"><a xlink:href="../../d9/d38/Control__Surface__Class_8cpp.html" target="_top" xlink:title=" ">
<polygon fill="#ffffff" stroke="#000000" points="0,-112.5 0,-131.5 137,-131.5 137,-112.5 0,-112.5"/>
<text text-anchor="middle" x="68.5" y="-119.5" font-family="Helvetica,sans-Serif" font-size="10.00" fill="#000000">Control_Surface_Class.cpp</text>
</a>
</g>
</g>
<!-- Node1&#45;&gt;Node2 -->
<g id="edge1" class="edge">
<title>Node1&#45;&gt;Node2</title>
<path fill="none" stroke="#191970" d="M511.8516,-172.9347C436.6999,-164.5716 282.2153,-147.2793 151.5,-132 146.8869,-131.4608 142.1303,-130.9001 137.338,-130.3318"/>
<polygon fill="#191970" stroke="#191970" points="511.5929,-176.4274 521.9186,-174.0544 512.3668,-169.4703 511.5929,-176.4274"/>
</g>
<!-- Node3 -->
<g id="node3" class="node">
<title>Node3</title>
<g id="a_node3"><a xlink:href="../../df/d3d/SelectorDisplay_8hpp.html" target="_top" xlink:title=" ">
<polygon fill="#ffffff" stroke="#000000" points="145.5,-56.5 145.5,-75.5 249.5,-75.5 249.5,-56.5 145.5,-56.5"/>
<text text-anchor="middle" x="197.5" y="-63.5" font-family="Helvetica,sans-Serif" font-size="10.00" fill="#000000">SelectorDisplay.hpp</text>
</a>
</g>
</g>
<!-- Node1&#45;&gt;Node3 -->
<g id="edge2" class="edge">
<title>Node1&#45;&gt;Node3</title>
<path fill="none" stroke="#191970" d="M511.7925,-175.699C416.9701,-170.4569 205.8766,-156.1748 184.5,-132 170.5751,-116.2523 182.6591,-90.0204 191.0612,-75.8331"/>
<polygon fill="#191970" stroke="#191970" points="511.7751,-179.2031 521.9501,-176.2504 512.1546,-172.2134 511.7751,-179.2031"/>
</g>
<!-- Node5 -->
<g id="node5" class="node">
<title>Node5</title>
<g id="a_node5"><a xlink:href="../../d7/de4/EncoderSelector_8hpp.html" target="_top" xlink:title=" ">
<polygon fill="#ffffff" stroke="#000000" points="194,-112.5 194,-131.5 301,-131.5 301,-112.5 194,-112.5"/>
<text text-anchor="middle" x="247.5" y="-119.5" font-family="Helvetica,sans-Serif" font-size="10.00" fill="#000000">EncoderSelector.hpp</text>
</a>
</g>
</g>
<!-- Node1&#45;&gt;Node5 -->
<g id="edge4" class="edge">
<title>Node1&#45;&gt;Node5</title>
<path fill="none" stroke="#191970" d="M511.8837,-169.7596C455.4808,-159.5707 359.6682,-142.2626 300.186,-131.5175"/>
<polygon fill="#191970" stroke="#191970" points="511.4761,-173.2426 521.9391,-171.5761 512.7205,-166.3541 511.4761,-173.2426"/>
</g>
<!-- Node6 -->
<g id="node6" class="node">
<title>Node6</title>
<g id="a_node6"><a xlink:href="../../d3/dce/SelectorLEDs_8hpp.html" target="_top" xlink:title=" ">
<polygon fill="#ffffff" stroke="#000000" points="592.5,-56.5 592.5,-75.5 688.5,-75.5 688.5,-56.5 592.5,-56.5"/>
<text text-anchor="middle" x="640.5" y="-63.5" font-family="Helvetica,sans-Serif" font-size="10.00" fill="#000000">SelectorLEDs.hpp</text>
</a>
</g>
</g>
<!-- Node1&#45;&gt;Node6 -->
<g id="edge14" class="edge">
<title>Node1&#45;&gt;Node6</title>
<path fill="none" stroke="#191970" d="M587.4185,-163.3657C600.2694,-155.6783 614.3954,-145.1074 623.5,-132 635.5154,-114.702 639.0407,-89.5507 640.0735,-75.83"/>
<polygon fill="#191970" stroke="#191970" points="585.3784,-160.4974 578.3765,-168.4488 588.8086,-166.5994 585.3784,-160.4974"/>
</g>
<!-- Node7 -->
<g id="node7" class="node">
<title>Node7</title>
<g id="a_node7"><a xlink:href="../../df/d3c/IncrementDecrementSelector_8hpp.html" target="_top" xlink:title=" ">
<polygon fill="#ffffff" stroke="#000000" points="319,-112.5 319,-131.5 482,-131.5 482,-112.5 319,-112.5"/>
<text text-anchor="middle" x="400.5" y="-119.5" font-family="Helvetica,sans-Serif" font-size="10.00" fill="#000000">IncrementDecrementSelector.hpp</text>
</a>
</g>
</g>
<!-- Node1&#45;&gt;Node7 -->
<g id="edge8" class="edge">
<title>Node1&#45;&gt;Node7</title>
<path fill="none" stroke="#191970" d="M520.8381,-164.9231C492.1376,-154.686 452.8956,-140.6889 427.1371,-131.5011"/>
<polygon fill="#191970" stroke="#191970" points="519.9161,-168.3102 530.5107,-168.3733 522.2678,-161.7171 519.9161,-168.3102"/>
</g>
<!-- Node8 -->
<g id="node8" class="node">
<title>Node8</title>
<g id="a_node8"><a xlink:href="../../d5/da2/IncrementSelector_8hpp.html" target="_top" xlink:title=" ">
<polygon fill="#ffffff" stroke="#000000" points="500,-112.5 500,-131.5 615,-131.5 615,-112.5 500,-112.5"/>
<text text-anchor="middle" x="557.5" y="-119.5" font-family="Helvetica,sans-Serif" font-size="10.00" fill="#000000">IncrementSelector.hpp</text>
</a>
</g>
</g>
<!-- Node1&#45;&gt;Node8 -->
<g id="edge11" class="edge">
<title>Node1&#45;&gt;Node8</title>
<path fill="none" stroke="#191970" d="M557.5,-158.1575C557.5,-149.155 557.5,-138.9199 557.5,-131.6427"/>
<polygon fill="#191970" stroke="#191970" points="554.0001,-158.2455 557.5,-168.2455 561.0001,-158.2456 554.0001,-158.2455"/>
</g>
<!-- Node9 -->
<g id="node9" class="node">
<title>Node9</title>
<g id="a_node9"><a xlink:href="../../d1/d02/ManyButtonsSelector_8hpp.html" target="_top" xlink:title=" ">
<polygon fill="#ffffff" stroke="#000000" points="672,-112.5 672,-131.5 801,-131.5 801,-112.5 672,-112.5"/>
<text text-anchor="middle" x="736.5" y="-119.5" font-family="Helvetica,sans-Serif" font-size="10.00" fill="#000000">ManyButtonsSelector.hpp</text>
</a>
</g>
</g>
<!-- Node1&#45;&gt;Node9 -->
<g id="edge15" class="edge">
<title>Node1&#45;&gt;Node9</title>
<path fill="none" stroke="#191970" d="M598.0195,-165.3235C630.8466,-155.0536 676.3776,-140.8093 706.1303,-131.5011"/>
<polygon fill="#191970" stroke="#191970" points="596.77,-162.0471 588.2712,-168.3733 598.8601,-168.7278 596.77,-162.0471"/>
</g>
<!-- Node10 -->
<g id="node10" class="node">
<title>Node10</title>
<g id="a_node10"><a xlink:href="../../d0/da3/ProgramChangeSelector_8hpp.html" target="_top" xlink:title=" ">
<polygon fill="#ffffff" stroke="#000000" points="819.5,-112.5 819.5,-131.5 961.5,-131.5 961.5,-112.5 819.5,-112.5"/>
<text text-anchor="middle" x="890.5" y="-119.5" font-family="Helvetica,sans-Serif" font-size="10.00" fill="#000000">ProgramChangeSelector.hpp</text>
</a>
</g>
</g>
<!-- Node1&#45;&gt;Node10 -->
<g id="edge18" class="edge">
<title>Node1&#45;&gt;Node10</title>
<path fill="none" stroke="#191970" d="M603.0827,-170.3344C663.1196,-160.2381 768.6833,-142.4857 833.8048,-131.5343"/>
<polygon fill="#191970" stroke="#191970" points="602.4179,-166.897 593.1368,-172.007 603.5788,-173.8001 602.4179,-166.897"/>
</g>
<!-- Node11 -->
<g id="node11" class="node">
<title>Node11</title>
<g id="a_node11"><a xlink:href="../../d3/ddf/SwitchSelector_8hpp.html" target="_top" xlink:title=" ">
<polygon fill="#ffffff" stroke="#000000" points="980,-112.5 980,-131.5 1081,-131.5 1081,-112.5 980,-112.5"/>
<text text-anchor="middle" x="1030.5" y="-119.5" font-family="Helvetica,sans-Serif" font-size="10.00" fill="#000000">SwitchSelector.hpp</text>
</a>
</g>
</g>
<!-- Node1&#45;&gt;Node11 -->
<g id="edge21" class="edge">
<title>Node1&#45;&gt;Node11</title>
<path fill="none" stroke="#191970" d="M603.4358,-173.7047C679.7909,-166.3809 837.5861,-150.4643 970.5,-132 973.5334,-131.5786 976.6495,-131.1244 979.7906,-130.6501"/>
<polygon fill="#191970" stroke="#191970" points="602.8355,-170.246 593.2134,-174.6804 603.5007,-177.2143 602.8355,-170.246"/>
</g>
<!-- Node4 -->
<g id="node4" class="node">
<title>Node4</title>
<g id="a_node4"><a xlink:href="../../db/dbf/Control__Surface_8h.html" target="_top" xlink:title="The main header file that includes all Control&#45;Surface header files.">
<polygon fill="#ffffff" stroke="#000000" points="552,-.5 552,-19.5 647,-19.5 647,-.5 552,-.5"/>
<text text-anchor="middle" x="599.5" y="-7.5" font-family="Helvetica,sans-Serif" font-size="10.00" fill="#000000">Control_Surface.h</text>
</a>
</g>
</g>
<!-- Node3&#45;&gt;Node4 -->
<g id="edge3" class="edge">
<title>Node3&#45;&gt;Node4</title>
<path fill="none" stroke="#191970" d="M259.6534,-57.3418C340.2421,-46.1155 479.0624,-26.7774 551.8331,-16.6402"/>
<polygon fill="#191970" stroke="#191970" points="259.0638,-53.8901 249.6424,-58.7364 260.0296,-60.8231 259.0638,-53.8901"/>
</g>
<!-- Node5&#45;&gt;Node4 -->
<g id="edge5" class="edge">
<title>Node5&#45;&gt;Node4</title>
<path fill="none" stroke="#191970" d="M287.4547,-109.2871C358.7277,-86.6094 506.2465,-39.6716 569.5646,-19.5249"/>
<polygon fill="#191970" stroke="#191970" points="285.9793,-106.0836 277.5113,-112.4509 288.1018,-112.7541 285.9793,-106.0836"/>
</g>
<!-- Node5&#45;&gt;Node6 -->
<g id="edge6" class="edge">
<title>Node5&#45;&gt;Node6</title>
<path fill="none" stroke="#191970" d="M311.1614,-111.7722C417.1447,-95.9451 530.0018,-80.6608 592.4895,-72.3378"/>
<polygon fill="#191970" stroke="#191970" points="310.6284,-108.3129 301.2573,-113.2559 311.6655,-115.2356 310.6284,-108.3129"/>
</g>
<!-- Node6&#45;&gt;Node4 -->
<g id="edge7" class="edge">
<title>Node6&#45;&gt;Node4</title>
<path fill="none" stroke="#191970" d="M627.2636,-47.9209C620.3789,-38.5176 612.2391,-27.3997 606.5598,-19.6427"/>
<polygon fill="#191970" stroke="#191970" points="624.6269,-50.2445 633.3583,-56.2455 630.2749,-46.1093 624.6269,-50.2445"/>
</g>
<!-- Node7&#45;&gt;Node4 -->
<g id="edge9" class="edge">
<title>Node7&#45;&gt;Node4</title>
<path fill="none" stroke="#191970" d="M426.3983,-107.4241C467.7912,-84.1276 547.7336,-39.1349 582.5763,-19.5249"/>
<polygon fill="#191970" stroke="#191970" points="424.4646,-104.4961 417.4666,-112.4509 427.8979,-110.5963 424.4646,-104.4961"/>
</g>
<!-- Node7&#45;&gt;Node6 -->
<g id="edge10" class="edge">
<title>Node7&#45;&gt;Node6</title>
<path fill="none" stroke="#191970" d="M451.4466,-110.1125C495.634,-99.8021 558.7574,-85.0733 599.6843,-75.5237"/>
<polygon fill="#191970" stroke="#191970" points="450.4279,-106.7561 441.4848,-112.4369 452.0185,-113.573 450.4279,-106.7561"/>
</g>
<!-- Node8&#45;&gt;Node4 -->
<g id="edge12" class="edge">
<title>Node8&#45;&gt;Node4</title>
<path fill="none" stroke="#191970" d="M564.653,-102.9253C573.7269,-78.7284 589.0234,-37.9376 595.9282,-19.5249"/>
<polygon fill="#191970" stroke="#191970" points="561.315,-101.8587 561.0809,-112.4509 567.8693,-104.3166 561.315,-101.8587"/>
</g>
<!-- Node8&#45;&gt;Node6 -->
<g id="edge13" class="edge">
<title>Node8&#45;&gt;Node6</title>
<path fill="none" stroke="#191970" d="M580.488,-106.49C595.1322,-96.6096 613.6444,-84.1194 626.2082,-75.6427"/>
<polygon fill="#191970" stroke="#191970" points="578.2896,-103.7511 571.9575,-112.2455 582.2047,-109.5539 578.2896,-103.7511"/>
</g>
<!-- Node9&#45;&gt;Node4 -->
<g id="edge16" class="edge">
<title>Node9&#45;&gt;Node4</title>
<path fill="none" stroke="#191970" d="M728.8936,-102.8119C722.3704,-88.3914 711.7623,-68.9698 697.5,-56 678.589,-38.8027 652.1127,-26.8951 631.4465,-19.5105"/>
<polygon fill="#191970" stroke="#191970" points="725.7797,-104.4332 732.9154,-112.2647 732.2209,-101.6927 725.7797,-104.4332"/>
</g>
<!-- Node9&#45;&gt;Node6 -->
<g id="edge17" class="edge">
<title>Node9&#45;&gt;Node6</title>
<path fill="none" stroke="#191970" d="M710.8654,-107.0465C693.7841,-97.0824 671.836,-84.2794 657.0303,-75.6427"/>
<polygon fill="#191970" stroke="#191970" points="709.3767,-110.23 719.7781,-112.2455 712.9038,-104.1836 709.3767,-110.23"/>
</g>
<!-- Node10&#45;&gt;Node4 -->
<g id="edge19" class="edge">
<title>Node10&#45;&gt;Node4</title>
<path fill="none" stroke="#191970" d="M856.4877,-108.7143C822.1885,-95.3356 767.7073,-74.1368 720.5,-56 687.5634,-43.3459 649.5158,-28.9116 625.0141,-19.64"/>
<polygon fill="#191970" stroke="#191970" points="855.4404,-112.0626 866.0286,-112.4372 857.985,-105.5415 855.4404,-112.0626"/>
</g>
<!-- Node10&#45;&gt;Node6 -->
<g id="edge20" class="edge">
<title>Node10&#45;&gt;Node6</title>
<path fill="none" stroke="#191970" d="M838.011,-110.2425C791.9562,-99.9262 725.828,-85.1135 683.0164,-75.5237"/>
<polygon fill="#191970" stroke="#191970" points="837.2843,-113.6663 847.8075,-112.4369 838.8144,-106.8356 837.2843,-113.6663"/>
</g>
<!-- Node11&#45;&gt;Node4 -->
<g id="edge22" class="edge">
<title>Node11&#45;&gt;Node4</title>
<path fill="none" stroke="#191970" d="M983.9684,-109.9083C897.6492,-87.4773 714.3974,-39.8573 636.1538,-19.5249"/>
<polygon fill="#191970" stroke="#191970" points="983.1943,-113.3233 993.7532,-112.4509 984.9549,-106.5483 983.1943,-113.3233"/>
</g>
<!-- Node11&#45;&gt;Node6 -->
<g id="edge23" class="edge">
<title>Node11&#45;&gt;Node6</title>
<path fill="none" stroke="#191970" d="M969.8251,-111.929C863.3712,-95.7354 751.0212,-80.558 688.6519,-72.3031"/>
<polygon fill="#191970" stroke="#191970" points="969.3624,-115.3989 979.7762,-113.4485 970.4191,-108.4791 969.3624,-115.3989"/>
</g>
</g>
</svg>
