<?xml version="1.0" encoding="UTF-8" standalone="no"?>
<!DOCTYPE svg PUBLIC "-//W3C//DTD SVG 1.1//EN"
 "http://www.w3.org/Graphics/SVG/1.1/DTD/svg11.dtd">
<!-- Generated by graphviz version 2.43.0 (0)
 -->
<!-- Title: NoteButtonMatrix&lt; NumBanks, NumRows, NumCols &gt; Pages: 1 -->
<svg width="594pt" height="1279pt"
 viewBox="0.00 0.00 594.00 1279.00" xmlns="http://www.w3.org/2000/svg" xmlns:xlink="http://www.w3.org/1999/xlink">
<g id="graph0" class="graph" transform="scale(1 1) rotate(0) translate(4 1275)">
<title>NoteButtonMatrix&lt; NumBanks, NumRows, NumCols &gt;</title>
<polygon fill="white" stroke="transparent" points="-4,4 -4,-1275 590,-1275 590,4 -4,4"/>
<!-- Node1 -->
<g id="node1" class="node">
<title>Node1</title>
<g id="a_node1"><a xlink:title="A class of MIDIOutputElements that read the input from a matrix of momentary push buttons or switches...">
<polygon fill="#bfbfbf" stroke="black" points="261,-0.5 261,-90.5 432,-90.5 432,-0.5 261,-0.5"/>
<text text-anchor="start" x="269" y="-78.5" font-family="Helvetica,sans-Serif" font-size="10.00">NoteButtonMatrix&lt; NumBanks,</text>
<text text-anchor="middle" x="346.5" y="-67.5" font-family="Helvetica,sans-Serif" font-size="10.00"> NumRows, NumCols &gt;</text>
<polyline fill="none" stroke="black" points="261,-60.5 432,-60.5 "/>
<text text-anchor="middle" x="346.5" y="-48.5" font-family="Helvetica,sans-Serif" font-size="10.00"> </text>
<polyline fill="none" stroke="black" points="261,-41.5 432,-41.5 "/>
<text text-anchor="start" x="269" y="-29.5" font-family="Helvetica,sans-Serif" font-size="10.00">+ NoteButtonMatrix()</text>
<text text-anchor="start" x="269" y="-18.5" font-family="Helvetica,sans-Serif" font-size="10.00">+ setVelocity()</text>
<text text-anchor="start" x="269" y="-7.5" font-family="Helvetica,sans-Serif" font-size="10.00">+ getVelocity()</text>
</a>
</g>
</g>
<!-- Node2 -->
<g id="node2" class="node">
<title>Node2</title>
<g id="a_node2"><a xlink:href="../../d3/d65/classBankable_1_1MIDIButtonMatrix.html" target="_top" xlink:title=" ">
<polygon fill="white" stroke="black" points="251.5,-128.5 251.5,-262.5 441.5,-262.5 441.5,-128.5 251.5,-128.5"/>
<text text-anchor="start" x="259.5" y="-250.5" font-family="Helvetica,sans-Serif" font-size="10.00">MIDIButtonMatrix&lt; ManyMatrix</text>
<text text-anchor="start" x="259.5" y="-239.5" font-family="Helvetica,sans-Serif" font-size="10.00">Addresses&lt; NumBanks, NumRows,</text>
<text text-anchor="start" x="259.5" y="-228.5" font-family="Helvetica,sans-Serif" font-size="10.00"> NumCols &gt;, DigitalNoteSender,</text>
<text text-anchor="middle" x="346.5" y="-217.5" font-family="Helvetica,sans-Serif" font-size="10.00"> NumRows, NumCols &gt;</text>
<polyline fill="none" stroke="black" points="251.5,-210.5 441.5,-210.5 "/>
<text text-anchor="start" x="259.5" y="-198.5" font-family="Helvetica,sans-Serif" font-size="10.00">&#45; address</text>
<text text-anchor="start" x="259.5" y="-187.5" font-family="Helvetica,sans-Serif" font-size="10.00">&#45; activeButtons</text>
<polyline fill="none" stroke="black" points="251.5,-180.5 441.5,-180.5 "/>
<text text-anchor="start" x="259.5" y="-168.5" font-family="Helvetica,sans-Serif" font-size="10.00">+ begin()</text>
<text text-anchor="start" x="259.5" y="-157.5" font-family="Helvetica,sans-Serif" font-size="10.00">+ update()</text>
<text text-anchor="start" x="259.5" y="-146.5" font-family="Helvetica,sans-Serif" font-size="10.00"># MIDIButtonMatrix()</text>
<text text-anchor="start" x="259.5" y="-135.5" font-family="Helvetica,sans-Serif" font-size="10.00">&#45; onButtonChanged()</text>
</a>
</g>
</g>
<!-- Node2&#45;&gt;Node1 -->
<g id="edge1" class="edge">
<title>Node2&#45;&gt;Node1</title>
<path fill="none" stroke="midnightblue" d="M346.5,-118.07C346.5,-108.65 346.5,-99.28 346.5,-90.57"/>
<polygon fill="none" stroke="midnightblue" points="343,-118.29 346.5,-128.29 350,-118.29 343,-118.29"/>
</g>
<!-- Node3 -->
<g id="node3" class="node">
<title>Node3</title>
<g id="a_node3"><a xlink:href="../../d1/d55/classAH_1_1Updatable.html" target="_top" xlink:title=" ">
<polygon fill="white" stroke="black" points="119,-382 119,-472 232,-472 232,-382 119,-382"/>
<text text-anchor="middle" x="175.5" y="-460" font-family="Helvetica,sans-Serif" font-size="10.00">MIDIOutputElement</text>
<polyline fill="none" stroke="black" points="119,-453 232,-453 "/>
<text text-anchor="middle" x="175.5" y="-441" font-family="Helvetica,sans-Serif" font-size="10.00"> </text>
<polyline fill="none" stroke="black" points="119,-434 232,-434 "/>
<text text-anchor="start" x="127" y="-422" font-family="Helvetica,sans-Serif" font-size="10.00">* begin()</text>
<text text-anchor="start" x="127" y="-411" font-family="Helvetica,sans-Serif" font-size="10.00">* update()</text>
<text text-anchor="start" x="127" y="-400" font-family="Helvetica,sans-Serif" font-size="10.00">* beginAll()</text>
<text text-anchor="start" x="127" y="-389" font-family="Helvetica,sans-Serif" font-size="10.00">* updateAll()</text>
</a>
</g>
</g>
<!-- Node3&#45;&gt;Node2 -->
<g id="edge2" class="edge">
<title>Node3&#45;&gt;Node2</title>
<path fill="none" stroke="midnightblue" d="M202.31,-373.01C213.45,-352.66 227.13,-329.62 241.5,-310 253.23,-293.97 266.96,-277.73 280.54,-262.73"/>
<polygon fill="none" stroke="midnightblue" points="199.21,-371.38 197.54,-381.84 205.37,-374.71 199.21,-371.38"/>
</g>
<!-- Node4 -->
<g id="node4" class="node">
<title>Node4</title>
<g id="a_node4"><a xlink:href="../../d8/d1a/classAH_1_1UpdatableCRTP.html" target="_top" xlink:title=" ">
<polygon fill="white" stroke="black" points="99,-591.5 99,-912.5 252,-912.5 252,-591.5 99,-591.5"/>
<text text-anchor="start" x="107" y="-900.5" font-family="Helvetica,sans-Serif" font-size="10.00">UpdatableCRTP&lt; Updatable</text>
<text text-anchor="start" x="107" y="-889.5" font-family="Helvetica,sans-Serif" font-size="10.00">&lt; NormalUpdatable, false</text>
<text text-anchor="middle" x="175.5" y="-878.5" font-family="Helvetica,sans-Serif" font-size="10.00"> &gt;, false &gt;</text>
<polyline fill="none" stroke="black" points="99,-871.5 252,-871.5 "/>
<text text-anchor="start" x="107" y="-859.5" font-family="Helvetica,sans-Serif" font-size="10.00"># mutex</text>
<polyline fill="none" stroke="black" points="99,-852.5 252,-852.5 "/>
<text text-anchor="start" x="107" y="-840.5" font-family="Helvetica,sans-Serif" font-size="10.00">+ ~UpdatableCRTP()</text>
<text text-anchor="start" x="107" y="-829.5" font-family="Helvetica,sans-Serif" font-size="10.00">+ getMutex()</text>
<text text-anchor="start" x="107" y="-818.5" font-family="Helvetica,sans-Serif" font-size="10.00"># UpdatableCRTP()</text>
<text text-anchor="start" x="107" y="-807.5" font-family="Helvetica,sans-Serif" font-size="10.00"># UpdatableCRTP()</text>
<text text-anchor="start" x="107" y="-796.5" font-family="Helvetica,sans-Serif" font-size="10.00"># UpdatableCRTP()</text>
<text text-anchor="start" x="107" y="-785.5" font-family="Helvetica,sans-Serif" font-size="10.00"># operator=()</text>
<text text-anchor="start" x="107" y="-774.5" font-family="Helvetica,sans-Serif" font-size="10.00"># operator=()</text>
<text text-anchor="start" x="107" y="-763.5" font-family="Helvetica,sans-Serif" font-size="10.00">* method</text>
<text text-anchor="start" x="107" y="-752.5" font-family="Helvetica,sans-Serif" font-size="10.00">* args</text>
<text text-anchor="start" x="107" y="-741.5" font-family="Helvetica,sans-Serif" font-size="10.00">* enable()</text>
<text text-anchor="start" x="107" y="-730.5" font-family="Helvetica,sans-Serif" font-size="10.00">* enable()</text>
<text text-anchor="start" x="107" y="-719.5" font-family="Helvetica,sans-Serif" font-size="10.00">* disable()</text>
<text text-anchor="start" x="107" y="-708.5" font-family="Helvetica,sans-Serif" font-size="10.00">* disable()</text>
<text text-anchor="start" x="107" y="-697.5" font-family="Helvetica,sans-Serif" font-size="10.00">* isEnabled()</text>
<text text-anchor="start" x="107" y="-686.5" font-family="Helvetica,sans-Serif" font-size="10.00">* isEnabled()</text>
<text text-anchor="start" x="107" y="-675.5" font-family="Helvetica,sans-Serif" font-size="10.00">* moveDown()</text>
<text text-anchor="start" x="107" y="-664.5" font-family="Helvetica,sans-Serif" font-size="10.00">* moveDown()</text>
<text text-anchor="start" x="107" y="-653.5" font-family="Helvetica,sans-Serif" font-size="10.00">* enable()</text>
<text text-anchor="start" x="107" y="-642.5" font-family="Helvetica,sans-Serif" font-size="10.00">* enable()</text>
<text text-anchor="start" x="107" y="-631.5" font-family="Helvetica,sans-Serif" font-size="10.00">* enable()</text>
<text text-anchor="start" x="107" y="-620.5" font-family="Helvetica,sans-Serif" font-size="10.00">* disable()</text>
<text text-anchor="start" x="107" y="-609.5" font-family="Helvetica,sans-Serif" font-size="10.00">* disable()</text>
<text text-anchor="start" x="107" y="-598.5" font-family="Helvetica,sans-Serif" font-size="10.00">* disable()</text>
</a>
</g>
</g>
<!-- Node4&#45;&gt;Node3 -->
<g id="edge3" class="edge">
<title>Node4&#45;&gt;Node3</title>
<path fill="none" stroke="midnightblue" d="M175.5,-581.37C175.5,-540.89 175.5,-501.09 175.5,-472.18"/>
<polygon fill="none" stroke="midnightblue" points="172,-581.39 175.5,-591.39 179,-581.39 172,-581.39"/>
</g>
<!-- Node5 -->
<g id="node5" class="node">
<title>Node5</title>
<g id="a_node5"><a xlink:href="../../d4/d23/classDoublyLinkable.html" target="_top" xlink:title=" ">
<polygon fill="white" stroke="black" points="0,-1048.5 0,-1182.5 167,-1182.5 167,-1048.5 0,-1048.5"/>
<text text-anchor="start" x="8" y="-1170.5" font-family="Helvetica,sans-Serif" font-size="10.00">DoublyLinkable&lt; Updatable</text>
<text text-anchor="middle" x="83.5" y="-1159.5" font-family="Helvetica,sans-Serif" font-size="10.00">&lt; NormalUpdatable, false &gt; &gt;</text>
<polyline fill="none" stroke="black" points="0,-1152.5 167,-1152.5 "/>
<text text-anchor="start" x="8" y="-1140.5" font-family="Helvetica,sans-Serif" font-size="10.00"># next</text>
<text text-anchor="start" x="8" y="-1129.5" font-family="Helvetica,sans-Serif" font-size="10.00"># previous</text>
<polyline fill="none" stroke="black" points="0,-1122.5 167,-1122.5 "/>
<text text-anchor="start" x="8" y="-1110.5" font-family="Helvetica,sans-Serif" font-size="10.00"># ~DoublyLinkable()</text>
<text text-anchor="start" x="8" y="-1099.5" font-family="Helvetica,sans-Serif" font-size="10.00"># DoublyLinkable()</text>
<text text-anchor="start" x="8" y="-1088.5" font-family="Helvetica,sans-Serif" font-size="10.00"># DoublyLinkable()</text>
<text text-anchor="start" x="8" y="-1077.5" font-family="Helvetica,sans-Serif" font-size="10.00"># DoublyLinkable()</text>
<text text-anchor="start" x="8" y="-1066.5" font-family="Helvetica,sans-Serif" font-size="10.00"># operator=()</text>
<text text-anchor="start" x="8" y="-1055.5" font-family="Helvetica,sans-Serif" font-size="10.00"># operator=()</text>
</a>
</g>
</g>
<!-- Node5&#45;&gt;Node4 -->
<g id="edge4" class="edge">
<title>Node5&#45;&gt;Node4</title>
<path fill="none" stroke="midnightblue" d="M102.94,-1038.12C112.24,-1001.56 123.75,-956.33 134.84,-912.75"/>
<polygon fill="none" stroke="midnightblue" points="99.45,-1037.64 100.37,-1048.2 106.23,-1039.37 99.45,-1037.64"/>
</g>
<!-- Node6 -->
<g id="node6" class="node">
<title>Node6</title>
<g id="a_node6"><a xlink:href="../../dd/d16/classDoublyLinkedList.html" target="_top" xlink:title=" ">
<polygon fill="white" stroke="black" points="185,-960.5 185,-1270.5 352,-1270.5 352,-960.5 185,-960.5"/>
<text text-anchor="start" x="193" y="-1258.5" font-family="Helvetica,sans-Serif" font-size="10.00">DoublyLinkedList&lt; Updatable</text>
<text text-anchor="middle" x="268.5" y="-1247.5" font-family="Helvetica,sans-Serif" font-size="10.00">&lt; NormalUpdatable, false &gt; &gt;</text>
<polyline fill="none" stroke="black" points="185,-1240.5 352,-1240.5 "/>
<text text-anchor="start" x="193" y="-1228.5" font-family="Helvetica,sans-Serif" font-size="10.00">&#45; first</text>
<text text-anchor="start" x="193" y="-1217.5" font-family="Helvetica,sans-Serif" font-size="10.00">&#45; last</text>
<polyline fill="none" stroke="black" points="185,-1210.5 352,-1210.5 "/>
<text text-anchor="start" x="193" y="-1198.5" font-family="Helvetica,sans-Serif" font-size="10.00">+ append()</text>
<text text-anchor="start" x="193" y="-1187.5" font-family="Helvetica,sans-Serif" font-size="10.00">+ append()</text>
<text text-anchor="start" x="193" y="-1176.5" font-family="Helvetica,sans-Serif" font-size="10.00">+ insertBefore()</text>
<text text-anchor="start" x="193" y="-1165.5" font-family="Helvetica,sans-Serif" font-size="10.00">+ insertBefore()</text>
<text text-anchor="start" x="193" y="-1154.5" font-family="Helvetica,sans-Serif" font-size="10.00">+ insertSorted()</text>
<text text-anchor="start" x="193" y="-1143.5" font-family="Helvetica,sans-Serif" font-size="10.00">+ insertSorted()</text>
<text text-anchor="start" x="193" y="-1132.5" font-family="Helvetica,sans-Serif" font-size="10.00">+ remove()</text>
<text text-anchor="start" x="193" y="-1121.5" font-family="Helvetica,sans-Serif" font-size="10.00">+ remove()</text>
<text text-anchor="start" x="193" y="-1110.5" font-family="Helvetica,sans-Serif" font-size="10.00">+ moveDown()</text>
<text text-anchor="start" x="193" y="-1099.5" font-family="Helvetica,sans-Serif" font-size="10.00">+ moveDown()</text>
<text text-anchor="start" x="193" y="-1088.5" font-family="Helvetica,sans-Serif" font-size="10.00">+ couldContain()</text>
<text text-anchor="start" x="193" y="-1077.5" font-family="Helvetica,sans-Serif" font-size="10.00">+ couldContain()</text>
<text text-anchor="start" x="193" y="-1066.5" font-family="Helvetica,sans-Serif" font-size="10.00">+ begin()</text>
<text text-anchor="start" x="193" y="-1055.5" font-family="Helvetica,sans-Serif" font-size="10.00">+ begin()</text>
<text text-anchor="start" x="193" y="-1044.5" font-family="Helvetica,sans-Serif" font-size="10.00">+ end()</text>
<text text-anchor="start" x="193" y="-1033.5" font-family="Helvetica,sans-Serif" font-size="10.00">+ end()</text>
<text text-anchor="start" x="193" y="-1022.5" font-family="Helvetica,sans-Serif" font-size="10.00">+ rbegin()</text>
<text text-anchor="start" x="193" y="-1011.5" font-family="Helvetica,sans-Serif" font-size="10.00">+ rbegin()</text>
<text text-anchor="start" x="193" y="-1000.5" font-family="Helvetica,sans-Serif" font-size="10.00">+ rend()</text>
<text text-anchor="start" x="193" y="-989.5" font-family="Helvetica,sans-Serif" font-size="10.00">+ rend()</text>
<text text-anchor="start" x="193" y="-978.5" font-family="Helvetica,sans-Serif" font-size="10.00">+ getFirst()</text>
<text text-anchor="start" x="193" y="-967.5" font-family="Helvetica,sans-Serif" font-size="10.00">+ getLast()</text>
</a>
</g>
</g>
<!-- Node6&#45;&gt;Node4 -->
<g id="edge5" class="edge">
<title>Node6&#45;&gt;Node4</title>
<path fill="none" stroke="#404040" d="M228.86,-960.41C225.8,-948.52 222.7,-936.48 219.62,-924.5"/>
<polygon fill="none" stroke="#404040" points="219.53,-924.16 214.16,-919.35 216.54,-912.54 221.91,-917.35 219.53,-924.16"/>
<text text-anchor="middle" x="255.5" y="-934" font-family="Helvetica,sans-Serif" font-size="10.00"> #updatables</text>
</g>
<!-- Node7 -->
<g id="node7" class="node">
<title>Node7</title>
<g id="a_node7"><a xlink:href="../../dd/d29/classAH_1_1ButtonMatrix.html" target="_top" xlink:title=" ">
<polygon fill="white" stroke="black" points="250.5,-310.5 250.5,-543.5 442.5,-543.5 442.5,-310.5 250.5,-310.5"/>
<text text-anchor="start" x="258.5" y="-531.5" font-family="Helvetica,sans-Serif" font-size="10.00">ButtonMatrix&lt; MIDIButton</text>
<text text-anchor="start" x="258.5" y="-520.5" font-family="Helvetica,sans-Serif" font-size="10.00">Matrix&lt; ManyMatrixAddresses</text>
<text text-anchor="start" x="258.5" y="-509.5" font-family="Helvetica,sans-Serif" font-size="10.00">&lt; NumBanks, NumRows, NumCols</text>
<text text-anchor="start" x="258.5" y="-498.5" font-family="Helvetica,sans-Serif" font-size="10.00"> &gt;, DigitalNoteSender, NumRows,</text>
<text text-anchor="middle" x="346.5" y="-487.5" font-family="Helvetica,sans-Serif" font-size="10.00"> NumCols &gt;, NumRows, NumCols &gt;</text>
<polyline fill="none" stroke="black" points="250.5,-480.5 442.5,-480.5 "/>
<text text-anchor="start" x="258.5" y="-468.5" font-family="Helvetica,sans-Serif" font-size="10.00">&#45; debounceTime</text>
<text text-anchor="start" x="258.5" y="-457.5" font-family="Helvetica,sans-Serif" font-size="10.00">&#45; prevRefresh</text>
<text text-anchor="start" x="258.5" y="-446.5" font-family="Helvetica,sans-Serif" font-size="10.00">&#45; prevStates</text>
<polyline fill="none" stroke="black" points="250.5,-439.5 442.5,-439.5 "/>
<text text-anchor="start" x="258.5" y="-427.5" font-family="Helvetica,sans-Serif" font-size="10.00">+ ButtonMatrix()</text>
<text text-anchor="start" x="258.5" y="-416.5" font-family="Helvetica,sans-Serif" font-size="10.00">+ begin()</text>
<text text-anchor="start" x="258.5" y="-405.5" font-family="Helvetica,sans-Serif" font-size="10.00">+ update()</text>
<text text-anchor="start" x="258.5" y="-394.5" font-family="Helvetica,sans-Serif" font-size="10.00">+ getPrevState()</text>
<text text-anchor="start" x="258.5" y="-383.5" font-family="Helvetica,sans-Serif" font-size="10.00">+ setDebounceTime()</text>
<text text-anchor="start" x="258.5" y="-372.5" font-family="Helvetica,sans-Serif" font-size="10.00">+ getDebounceTime()</text>
<text text-anchor="start" x="258.5" y="-361.5" font-family="Helvetica,sans-Serif" font-size="10.00"># onButtonChanged()</text>
<text text-anchor="start" x="258.5" y="-350.5" font-family="Helvetica,sans-Serif" font-size="10.00">&#45; setPrevState()</text>
<text text-anchor="start" x="258.5" y="-339.5" font-family="Helvetica,sans-Serif" font-size="10.00">&#45; positionToBits()</text>
<text text-anchor="start" x="258.5" y="-328.5" font-family="Helvetica,sans-Serif" font-size="10.00">&#45; bitsToIndex()</text>
<text text-anchor="start" x="258.5" y="-317.5" font-family="Helvetica,sans-Serif" font-size="10.00">&#45; bitsToBitmask()</text>
</a>
</g>
</g>
<!-- Node7&#45;&gt;Node2 -->
<g id="edge6" class="edge">
<title>Node7&#45;&gt;Node2</title>
<path fill="none" stroke="midnightblue" d="M346.5,-299.89C346.5,-287.03 346.5,-274.36 346.5,-262.53"/>
<polygon fill="none" stroke="midnightblue" points="343,-300.24 346.5,-310.24 350,-300.24 343,-300.24"/>
</g>
<!-- Node8 -->
<g id="node8" class="node">
<title>Node8</title>
<g id="a_node8"><a xlink:href="../../d0/d32/structAH_1_1Array.html" target="_top" xlink:title=" ">
<polygon fill="white" stroke="black" points="280.5,-663 280.5,-841 390.5,-841 390.5,-663 280.5,-663"/>
<text text-anchor="middle" x="335.5" y="-829" font-family="Helvetica,sans-Serif" font-size="10.00">Array&lt; NumCols &gt;</text>
<polyline fill="none" stroke="black" points="280.5,-822 390.5,-822 "/>
<text text-anchor="start" x="288.5" y="-810" font-family="Helvetica,sans-Serif" font-size="10.00">+ data</text>
<text text-anchor="start" x="288.5" y="-799" font-family="Helvetica,sans-Serif" font-size="10.00">+ length</text>
<polyline fill="none" stroke="black" points="280.5,-792 390.5,-792 "/>
<text text-anchor="start" x="288.5" y="-780" font-family="Helvetica,sans-Serif" font-size="10.00">+ operator[]()</text>
<text text-anchor="start" x="288.5" y="-769" font-family="Helvetica,sans-Serif" font-size="10.00">+ operator[]()</text>
<text text-anchor="start" x="288.5" y="-758" font-family="Helvetica,sans-Serif" font-size="10.00">+ begin()</text>
<text text-anchor="start" x="288.5" y="-747" font-family="Helvetica,sans-Serif" font-size="10.00">+ begin()</text>
<text text-anchor="start" x="288.5" y="-736" font-family="Helvetica,sans-Serif" font-size="10.00">+ end()</text>
<text text-anchor="start" x="288.5" y="-725" font-family="Helvetica,sans-Serif" font-size="10.00">+ end()</text>
<text text-anchor="start" x="288.5" y="-714" font-family="Helvetica,sans-Serif" font-size="10.00">+ operator==()</text>
<text text-anchor="start" x="288.5" y="-703" font-family="Helvetica,sans-Serif" font-size="10.00">+ operator!=()</text>
<text text-anchor="start" x="288.5" y="-692" font-family="Helvetica,sans-Serif" font-size="10.00">+ slice()</text>
<text text-anchor="start" x="288.5" y="-681" font-family="Helvetica,sans-Serif" font-size="10.00">+ slice()</text>
<text text-anchor="start" x="288.5" y="-670" font-family="Helvetica,sans-Serif" font-size="10.00">+ cslice()</text>
</a>
</g>
</g>
<!-- Node8&#45;&gt;Node7 -->
<g id="edge7" class="edge">
<title>Node8&#45;&gt;Node7</title>
<path fill="none" stroke="#404040" d="M338.51,-662.74C339.63,-629.76 340.93,-591.62 342.15,-555.79"/>
<polygon fill="none" stroke="#404040" points="342.15,-555.73 338.36,-549.6 342.56,-543.74 346.35,-549.87 342.15,-555.73"/>
<text text-anchor="middle" x="363.5" y="-565" font-family="Helvetica,sans-Serif" font-size="10.00"> &#45;colPins</text>
</g>
<!-- Node9 -->
<g id="node9" class="node">
<title>Node9</title>
<g id="a_node9"><a xlink:href="../../d0/d32/structAH_1_1Array.html" target="_top" xlink:title=" ">
<polygon fill="white" stroke="black" points="409,-663 409,-841 524,-841 524,-663 409,-663"/>
<text text-anchor="middle" x="466.5" y="-829" font-family="Helvetica,sans-Serif" font-size="10.00">Array&lt; NumRows &gt;</text>
<polyline fill="none" stroke="black" points="409,-822 524,-822 "/>
<text text-anchor="start" x="417" y="-810" font-family="Helvetica,sans-Serif" font-size="10.00">+ data</text>
<text text-anchor="start" x="417" y="-799" font-family="Helvetica,sans-Serif" font-size="10.00">+ length</text>
<polyline fill="none" stroke="black" points="409,-792 524,-792 "/>
<text text-anchor="start" x="417" y="-780" font-family="Helvetica,sans-Serif" font-size="10.00">+ operator[]()</text>
<text text-anchor="start" x="417" y="-769" font-family="Helvetica,sans-Serif" font-size="10.00">+ operator[]()</text>
<text text-anchor="start" x="417" y="-758" font-family="Helvetica,sans-Serif" font-size="10.00">+ begin()</text>
<text text-anchor="start" x="417" y="-747" font-family="Helvetica,sans-Serif" font-size="10.00">+ begin()</text>
<text text-anchor="start" x="417" y="-736" font-family="Helvetica,sans-Serif" font-size="10.00">+ end()</text>
<text text-anchor="start" x="417" y="-725" font-family="Helvetica,sans-Serif" font-size="10.00">+ end()</text>
<text text-anchor="start" x="417" y="-714" font-family="Helvetica,sans-Serif" font-size="10.00">+ operator==()</text>
<text text-anchor="start" x="417" y="-703" font-family="Helvetica,sans-Serif" font-size="10.00">+ operator!=()</text>
<text text-anchor="start" x="417" y="-692" font-family="Helvetica,sans-Serif" font-size="10.00">+ slice()</text>
<text text-anchor="start" x="417" y="-681" font-family="Helvetica,sans-Serif" font-size="10.00">+ slice()</text>
<text text-anchor="start" x="417" y="-670" font-family="Helvetica,sans-Serif" font-size="10.00">+ cslice()</text>
</a>
</g>
</g>
<!-- Node9&#45;&gt;Node7 -->
<g id="edge8" class="edge">
<title>Node9&#45;&gt;Node7</title>
<path fill="none" stroke="#404040" d="M433.71,-662.74C421.41,-629.62 407.16,-591.29 393.8,-555.32"/>
<polygon fill="none" stroke="#404040" points="393.68,-554.99 387.84,-550.76 389.5,-543.74 395.34,-547.97 393.68,-554.99"/>
<text text-anchor="middle" x="422.5" y="-565" font-family="Helvetica,sans-Serif" font-size="10.00"> &#45;rowPins</text>
</g>
<!-- Node10 -->
<g id="node10" class="node">
<title>Node10</title>
<g id="a_node10"><a xlink:href="../../dc/dd4/classDigitalNoteSender.html" target="_top" xlink:title="Class that sends MIDI note on and off messages.">
<polygon fill="white" stroke="black" points="461,-376.5 461,-477.5 586,-477.5 586,-376.5 461,-376.5"/>
<text text-anchor="middle" x="523.5" y="-465.5" font-family="Helvetica,sans-Serif" font-size="10.00">DigitalNoteSender</text>
<polyline fill="none" stroke="black" points="461,-458.5 586,-458.5 "/>
<text text-anchor="start" x="469" y="-446.5" font-family="Helvetica,sans-Serif" font-size="10.00">&#45; velocity</text>
<polyline fill="none" stroke="black" points="461,-439.5 586,-439.5 "/>
<text text-anchor="start" x="469" y="-427.5" font-family="Helvetica,sans-Serif" font-size="10.00">+ DigitalNoteSender()</text>
<text text-anchor="start" x="469" y="-416.5" font-family="Helvetica,sans-Serif" font-size="10.00">+ sendOn()</text>
<text text-anchor="start" x="469" y="-405.5" font-family="Helvetica,sans-Serif" font-size="10.00">+ sendOff()</text>
<text text-anchor="start" x="469" y="-394.5" font-family="Helvetica,sans-Serif" font-size="10.00">+ setVelocity()</text>
<text text-anchor="start" x="469" y="-383.5" font-family="Helvetica,sans-Serif" font-size="10.00">+ getVelocity()</text>
</a>
</g>
</g>
<!-- Node10&#45;&gt;Node2 -->
<g id="edge9" class="edge">
<title>Node10&#45;&gt;Node2</title>
<path fill="none" stroke="#404040" d="M495.54,-376.37C482.96,-355.3 467.37,-330.83 451.5,-310 441.75,-297.2 430.81,-284.17 419.76,-271.72"/>
<polygon fill="none" stroke="#404040" points="419.74,-271.7 412.76,-269.9 411.72,-262.77 418.71,-264.56 419.74,-271.7"/>
<text text-anchor="middle" x="459" y="-284" font-family="Helvetica,sans-Serif" font-size="10.00"> +sender</text>
</g>
</g>
</svg>
