<?xml version="1.0" encoding="UTF-8" standalone="no"?>
<!DOCTYPE svg PUBLIC "-//W3C//DTD SVG 1.1//EN"
 "http://www.w3.org/Graphics/SVG/1.1/DTD/svg11.dtd">
<!-- Generated by graphviz version 2.40.1 (20161225.0304)
 -->
<!-- Title: NoteValueLEDPWM Pages: 1 -->
<svg width="671pt" height="1265pt"
 viewBox="0.00 0.00 671.00 1265.00" xmlns="http://www.w3.org/2000/svg" xmlns:xlink="http://www.w3.org/1999/xlink">
<g id="graph0" class="graph" transform="scale(1 1) rotate(0) translate(4 1261)">
<title>NoteValueLEDPWM</title>
<polygon fill="#ffffff" stroke="transparent" points="-4,4 -4,-1261 667,-1261 667,4 -4,4"/>
<!-- Node1 -->
<g id="node1" class="node">
<title>Node1</title>
<g id="a_node1"><a xlink:title="MIDI Input Element that listens for MIDI Note messages for the given note, and displays its velocity ...">
<polygon fill="#bfbfbf" stroke="#000000" points="370,-.5 370,-57.5 492,-57.5 492,-.5 370,-.5"/>
<text text-anchor="middle" x="431" y="-45.5" font-family="Helvetica,sans-Serif" font-size="10.00" fill="#000000">NoteValueLEDPWM</text>
<polyline fill="none" stroke="#000000" points="370,-38.5 492,-38.5 "/>
<text text-anchor="middle" x="431" y="-26.5" font-family="Helvetica,sans-Serif" font-size="10.00" fill="#000000"> </text>
<polyline fill="none" stroke="#000000" points="370,-19.5 492,-19.5 "/>
<text text-anchor="start" x="378" y="-7.5" font-family="Helvetica,sans-Serif" font-size="10.00" fill="#000000">+ NoteValueLEDPWM()</text>
</a>
</g>
</g>
<!-- Node2 -->
<g id="node2" class="node">
<title>Node2</title>
<g id="a_node2"><a xlink:href="../../d5/d80/classGenericNoteCCRange.html" target="_top" xlink:title=" ">
<polygon fill="#ffffff" stroke="#000000" points="359.5,-95.5 359.5,-185.5 502.5,-185.5 502.5,-95.5 359.5,-95.5"/>
<text text-anchor="start" x="367.5" y="-173.5" font-family="Helvetica,sans-Serif" font-size="10.00" fill="#000000">GenericNoteCCRange</text>
<text text-anchor="start" x="367.5" y="-162.5" font-family="Helvetica,sans-Serif" font-size="10.00" fill="#000000">&lt; MIDIInputElementNote,</text>
<text text-anchor="middle" x="431" y="-151.5" font-family="Helvetica,sans-Serif" font-size="10.00" fill="#000000"> 1, NoteCCLEDPWM&lt; 1 &gt; &gt;</text>
<polyline fill="none" stroke="#000000" points="359.5,-144.5 502.5,-144.5 "/>
<text text-anchor="middle" x="431" y="-132.5" font-family="Helvetica,sans-Serif" font-size="10.00" fill="#000000"> </text>
<polyline fill="none" stroke="#000000" points="359.5,-125.5 502.5,-125.5 "/>
<text text-anchor="start" x="367.5" y="-113.5" font-family="Helvetica,sans-Serif" font-size="10.00" fill="#000000">+ GenericNoteCCRange()</text>
<text text-anchor="start" x="367.5" y="-102.5" font-family="Helvetica,sans-Serif" font-size="10.00" fill="#000000">&#45; match()</text>
</a>
</g>
</g>
<!-- Node2&#45;&gt;Node1 -->
<g id="edge1" class="edge">
<title>Node2&#45;&gt;Node1</title>
<path fill="none" stroke="#191970" d="M431,-85.452C431,-75.7821 431,-66.0841 431,-57.5218"/>
<polygon fill="none" stroke="#191970" points="427.5001,-85.47 431,-95.4701 434.5001,-85.4701 427.5001,-85.47"/>
</g>
<!-- Node3 -->
<g id="node3" class="node">
<title>Node3</title>
<g id="a_node3"><a xlink:href="../../d2/df4/classNoteCCRange.html" target="_top" xlink:title=" ">
<polygon fill="#ffffff" stroke="#000000" points="322,-267.5 322,-456.5 540,-456.5 540,-267.5 322,-267.5"/>
<text text-anchor="start" x="330" y="-444.5" font-family="Helvetica,sans-Serif" font-size="10.00" fill="#000000">NoteCCRange&lt; MIDIInputElement</text>
<text text-anchor="middle" x="431" y="-433.5" font-family="Helvetica,sans-Serif" font-size="10.00" fill="#000000">Note, RangeLen, 1, NoteCCLEDPWM&lt; 1 &gt; &gt;</text>
<polyline fill="none" stroke="#000000" points="322,-426.5 540,-426.5 "/>
<text text-anchor="middle" x="431" y="-414.5" font-family="Helvetica,sans-Serif" font-size="10.00" fill="#000000"> </text>
<polyline fill="none" stroke="#000000" points="322,-407.5 540,-407.5 "/>
<text text-anchor="start" x="330" y="-395.5" font-family="Helvetica,sans-Serif" font-size="10.00" fill="#000000">+ NoteCCRange()</text>
<text text-anchor="start" x="330" y="-384.5" font-family="Helvetica,sans-Serif" font-size="10.00" fill="#000000">+ getValue()</text>
<text text-anchor="start" x="330" y="-373.5" font-family="Helvetica,sans-Serif" font-size="10.00" fill="#000000">+ getValue()</text>
<text text-anchor="start" x="330" y="-362.5" font-family="Helvetica,sans-Serif" font-size="10.00" fill="#000000">+ getValue()</text>
<text text-anchor="start" x="330" y="-351.5" font-family="Helvetica,sans-Serif" font-size="10.00" fill="#000000">+ begin()</text>
<text text-anchor="start" x="330" y="-340.5" font-family="Helvetica,sans-Serif" font-size="10.00" fill="#000000">+ reset()</text>
<text text-anchor="start" x="330" y="-329.5" font-family="Helvetica,sans-Serif" font-size="10.00" fill="#000000">+ length()</text>
<text text-anchor="start" x="330" y="-318.5" font-family="Helvetica,sans-Serif" font-size="10.00" fill="#000000">&#45; updateImpl()</text>
<text text-anchor="start" x="330" y="-307.5" font-family="Helvetica,sans-Serif" font-size="10.00" fill="#000000">&#45; getSelection()</text>
<text text-anchor="start" x="330" y="-296.5" font-family="Helvetica,sans-Serif" font-size="10.00" fill="#000000">&#45; getBankIndex()</text>
<text text-anchor="start" x="330" y="-285.5" font-family="Helvetica,sans-Serif" font-size="10.00" fill="#000000">&#45; getRangeIndex()</text>
<text text-anchor="start" x="330" y="-274.5" font-family="Helvetica,sans-Serif" font-size="10.00" fill="#000000">&#45; getValueFromMIDIMessage()</text>
</a>
</g>
</g>
<!-- Node3&#45;&gt;Node2 -->
<g id="edge2" class="edge">
<title>Node3&#45;&gt;Node2</title>
<path fill="none" stroke="#191970" d="M431,-257.4119C431,-232.1889 431,-206.5383 431,-185.7151"/>
<polygon fill="none" stroke="#191970" points="427.5001,-257.4215 431,-267.4216 434.5001,-257.4216 427.5001,-257.4215"/>
</g>
<!-- Node4 -->
<g id="node4" class="node">
<title>Node4</title>
<g id="a_node4"><a xlink:href="../../db/d4b/classMIDIInputElementNote.html" target="_top" xlink:title="Class for objects that listen for incoming MIDI Note events.">
<polygon fill="#ffffff" stroke="#000000" points="107,-592.5 107,-715.5 245,-715.5 245,-592.5 107,-592.5"/>
<text text-anchor="middle" x="176" y="-703.5" font-family="Helvetica,sans-Serif" font-size="10.00" fill="#000000">MIDIInputElementNote</text>
<polyline fill="none" stroke="#000000" points="107,-696.5 245,-696.5 "/>
<text text-anchor="middle" x="176" y="-684.5" font-family="Helvetica,sans-Serif" font-size="10.00" fill="#000000"> </text>
<polyline fill="none" stroke="#000000" points="107,-677.5 245,-677.5 "/>
<text text-anchor="start" x="115" y="-665.5" font-family="Helvetica,sans-Serif" font-size="10.00" fill="#000000">+ ~MIDIInputElementNote()</text>
<text text-anchor="start" x="115" y="-654.5" font-family="Helvetica,sans-Serif" font-size="10.00" fill="#000000">+ beginAll()</text>
<text text-anchor="start" x="115" y="-643.5" font-family="Helvetica,sans-Serif" font-size="10.00" fill="#000000">+ updateAll()</text>
<text text-anchor="start" x="115" y="-632.5" font-family="Helvetica,sans-Serif" font-size="10.00" fill="#000000">+ resetAll()</text>
<text text-anchor="start" x="115" y="-621.5" font-family="Helvetica,sans-Serif" font-size="10.00" fill="#000000">+ updateAllWith()</text>
<text text-anchor="start" x="115" y="-610.5" font-family="Helvetica,sans-Serif" font-size="10.00" fill="#000000"># MIDIInputElementNote()</text>
<text text-anchor="start" x="115" y="-599.5" font-family="Helvetica,sans-Serif" font-size="10.00" fill="#000000">&#45; moveDown()</text>
</a>
</g>
</g>
<!-- Node4&#45;&gt;Node3 -->
<g id="edge3" class="edge">
<title>Node4&#45;&gt;Node3</title>
<path fill="none" stroke="#191970" d="M232.437,-584.3935C239.6266,-575.7842 246.9391,-567.1501 254,-559 276.8651,-532.6078 283.599,-526.9182 307,-501 319.8946,-486.7183 333.4938,-471.5666 346.7733,-456.7208"/>
<polygon fill="none" stroke="#191970" points="229.5826,-582.352 225.8795,-592.2786 234.9647,-586.8279 229.5826,-582.352"/>
</g>
<!-- Node7 -->
<g id="node7" class="node">
<title>Node7</title>
<g id="a_node7"><a xlink:href="../../d4/d23/classDoublyLinkable.html" target="_top" xlink:title=" ">
<polygon fill="#ffffff" stroke="#000000" points="0,-328 0,-396 136,-396 136,-328 0,-328"/>
<text text-anchor="start" x="8" y="-384" font-family="Helvetica,sans-Serif" font-size="10.00" fill="#000000">DoublyLinkable&lt; MIDIInput</text>
<text text-anchor="middle" x="68" y="-373" font-family="Helvetica,sans-Serif" font-size="10.00" fill="#000000">ElementNote &gt;</text>
<polyline fill="none" stroke="#000000" points="0,-366 136,-366 "/>
<text text-anchor="middle" x="68" y="-354" font-family="Helvetica,sans-Serif" font-size="10.00" fill="#000000"> </text>
<polyline fill="none" stroke="#000000" points="0,-347 136,-347 "/>
<text text-anchor="start" x="8" y="-335" font-family="Helvetica,sans-Serif" font-size="10.00" fill="#000000"># ~DoublyLinkable()</text>
</a>
</g>
</g>
<!-- Node4&#45;&gt;Node7 -->
<g id="edge7" class="edge">
<title>Node4&#45;&gt;Node7</title>
<path fill="none" stroke="#404040" d="M113.2458,-592.2192C100.8483,-576.6799 89.3969,-559.2038 82,-541 64.7328,-498.5055 62.6905,-445.7212 64.0756,-408.5167"/>
<polygon fill="none" stroke="#404040" points="64.0992,-408.0347 60.399,-401.8453 64.6891,-396.0492 68.3893,-402.2385 64.0992,-408.0347"/>
<text text-anchor="middle" x="103.5" y="-533" font-family="Helvetica,sans-Serif" font-size="10.00" fill="#000000"> #next</text>
<text text-anchor="middle" x="103.5" y="-522" font-family="Helvetica,sans-Serif" font-size="10.00" fill="#000000">#previous</text>
</g>
<!-- Node8 -->
<g id="node8" class="node">
<title>Node8</title>
<g id="a_node8"><a xlink:href="../../dd/d16/classDoublyLinkedList.html" target="_top" xlink:title=" ">
<polygon fill="#ffffff" stroke="#000000" points="154,-223.5 154,-500.5 298,-500.5 298,-223.5 154,-223.5"/>
<text text-anchor="start" x="162" y="-488.5" font-family="Helvetica,sans-Serif" font-size="10.00" fill="#000000">DoublyLinkedList&lt; MIDIInput</text>
<text text-anchor="middle" x="226" y="-477.5" font-family="Helvetica,sans-Serif" font-size="10.00" fill="#000000">ElementNote &gt;</text>
<polyline fill="none" stroke="#000000" points="154,-470.5 298,-470.5 "/>
<text text-anchor="middle" x="226" y="-458.5" font-family="Helvetica,sans-Serif" font-size="10.00" fill="#000000"> </text>
<polyline fill="none" stroke="#000000" points="154,-451.5 298,-451.5 "/>
<text text-anchor="start" x="162" y="-439.5" font-family="Helvetica,sans-Serif" font-size="10.00" fill="#000000">+ append()</text>
<text text-anchor="start" x="162" y="-428.5" font-family="Helvetica,sans-Serif" font-size="10.00" fill="#000000">+ append()</text>
<text text-anchor="start" x="162" y="-417.5" font-family="Helvetica,sans-Serif" font-size="10.00" fill="#000000">+ insertBefore()</text>
<text text-anchor="start" x="162" y="-406.5" font-family="Helvetica,sans-Serif" font-size="10.00" fill="#000000">+ insertBefore()</text>
<text text-anchor="start" x="162" y="-395.5" font-family="Helvetica,sans-Serif" font-size="10.00" fill="#000000">+ insertSorted()</text>
<text text-anchor="start" x="162" y="-384.5" font-family="Helvetica,sans-Serif" font-size="10.00" fill="#000000">+ insertSorted()</text>
<text text-anchor="start" x="162" y="-373.5" font-family="Helvetica,sans-Serif" font-size="10.00" fill="#000000">+ remove()</text>
<text text-anchor="start" x="162" y="-362.5" font-family="Helvetica,sans-Serif" font-size="10.00" fill="#000000">+ remove()</text>
<text text-anchor="start" x="162" y="-351.5" font-family="Helvetica,sans-Serif" font-size="10.00" fill="#000000">+ moveDown()</text>
<text text-anchor="start" x="162" y="-340.5" font-family="Helvetica,sans-Serif" font-size="10.00" fill="#000000">+ couldContain()</text>
<text text-anchor="start" x="162" y="-329.5" font-family="Helvetica,sans-Serif" font-size="10.00" fill="#000000">+ begin()</text>
<text text-anchor="start" x="162" y="-318.5" font-family="Helvetica,sans-Serif" font-size="10.00" fill="#000000">+ begin()</text>
<text text-anchor="start" x="162" y="-307.5" font-family="Helvetica,sans-Serif" font-size="10.00" fill="#000000">+ end()</text>
<text text-anchor="start" x="162" y="-296.5" font-family="Helvetica,sans-Serif" font-size="10.00" fill="#000000">+ end()</text>
<text text-anchor="start" x="162" y="-285.5" font-family="Helvetica,sans-Serif" font-size="10.00" fill="#000000">+ rbegin()</text>
<text text-anchor="start" x="162" y="-274.5" font-family="Helvetica,sans-Serif" font-size="10.00" fill="#000000">+ rbegin()</text>
<text text-anchor="start" x="162" y="-263.5" font-family="Helvetica,sans-Serif" font-size="10.00" fill="#000000">+ rend()</text>
<text text-anchor="start" x="162" y="-252.5" font-family="Helvetica,sans-Serif" font-size="10.00" fill="#000000">+ rend()</text>
<text text-anchor="start" x="162" y="-241.5" font-family="Helvetica,sans-Serif" font-size="10.00" fill="#000000">+ getFirst()</text>
<text text-anchor="start" x="162" y="-230.5" font-family="Helvetica,sans-Serif" font-size="10.00" fill="#000000">+ getLast()</text>
</a>
</g>
</g>
<!-- Node4&#45;&gt;Node8 -->
<g id="edge9" class="edge">
<title>Node4&#45;&gt;Node8</title>
<path fill="none" stroke="#404040" d="M172.0213,-592.2002C171.5764,-569.1099 172.3112,-542.7385 176,-519 176.3394,-516.816 176.7038,-514.6207 177.0915,-512.417"/>
<polygon fill="none" stroke="#404040" points="177.1046,-512.3488 174.3126,-505.7001 179.376,-500.5657 182.168,-507.2144 177.1046,-512.3488"/>
<text text-anchor="middle" x="187" y="-533" font-family="Helvetica,sans-Serif" font-size="10.00" fill="#000000"> &#45;last</text>
<text text-anchor="middle" x="187" y="-522" font-family="Helvetica,sans-Serif" font-size="10.00" fill="#000000">&#45;first</text>
</g>
<!-- Node5 -->
<g id="node5" class="node">
<title>Node5</title>
<g id="a_node5"><a xlink:href="../../d9/db1/classMIDIInputElement.html" target="_top" xlink:title="A class for objects that listen for incoming MIDI events.">
<polygon fill="#ffffff" stroke="#000000" points="117.5,-786.5 117.5,-942.5 234.5,-942.5 234.5,-786.5 117.5,-786.5"/>
<text text-anchor="middle" x="176" y="-930.5" font-family="Helvetica,sans-Serif" font-size="10.00" fill="#000000">MIDIInputElement</text>
<polyline fill="none" stroke="#000000" points="117.5,-923.5 234.5,-923.5 "/>
<text text-anchor="middle" x="176" y="-911.5" font-family="Helvetica,sans-Serif" font-size="10.00" fill="#000000"> </text>
<polyline fill="none" stroke="#000000" points="117.5,-904.5 234.5,-904.5 "/>
<text text-anchor="start" x="125.5" y="-892.5" font-family="Helvetica,sans-Serif" font-size="10.00" fill="#000000">+ ~MIDIInputElement()</text>
<text text-anchor="start" x="125.5" y="-881.5" font-family="Helvetica,sans-Serif" font-size="10.00" fill="#000000">+ begin()</text>
<text text-anchor="start" x="125.5" y="-870.5" font-family="Helvetica,sans-Serif" font-size="10.00" fill="#000000">+ reset()</text>
<text text-anchor="start" x="125.5" y="-859.5" font-family="Helvetica,sans-Serif" font-size="10.00" fill="#000000">+ update()</text>
<text text-anchor="start" x="125.5" y="-848.5" font-family="Helvetica,sans-Serif" font-size="10.00" fill="#000000">+ updateWith()</text>
<text text-anchor="start" x="125.5" y="-837.5" font-family="Helvetica,sans-Serif" font-size="10.00" fill="#000000"># MIDIInputElement()</text>
<text text-anchor="start" x="125.5" y="-826.5" font-family="Helvetica,sans-Serif" font-size="10.00" fill="#000000"># MIDIInputElement()</text>
<text text-anchor="start" x="125.5" y="-815.5" font-family="Helvetica,sans-Serif" font-size="10.00" fill="#000000">&#45; updateImpl()</text>
<text text-anchor="start" x="125.5" y="-804.5" font-family="Helvetica,sans-Serif" font-size="10.00" fill="#000000">&#45; getTarget()</text>
<text text-anchor="start" x="125.5" y="-793.5" font-family="Helvetica,sans-Serif" font-size="10.00" fill="#000000">&#45; match()</text>
</a>
</g>
</g>
<!-- Node5&#45;&gt;Node4 -->
<g id="edge4" class="edge">
<title>Node5&#45;&gt;Node4</title>
<path fill="none" stroke="#191970" d="M176,-776.165C176,-755.7614 176,-734.4869 176,-715.5176"/>
<polygon fill="none" stroke="#191970" points="172.5001,-776.4167 176,-786.4167 179.5001,-776.4167 172.5001,-776.4167"/>
</g>
<!-- Node6 -->
<g id="node6" class="node">
<title>Node6</title>
<g id="a_node6"><a xlink:href="../../d7/d0f/classMIDIAddress.html" target="_top" xlink:title="A type&#45;safe utility class for saving a MIDI address consisting of a 7&#45;bit address,...">
<polygon fill="#ffffff" stroke="#000000" points="111.5,-990.5 111.5,-1256.5 240.5,-1256.5 240.5,-990.5 111.5,-990.5"/>
<text text-anchor="middle" x="176" y="-1244.5" font-family="Helvetica,sans-Serif" font-size="10.00" fill="#000000">MIDIAddress</text>
<polyline fill="none" stroke="#000000" points="111.5,-1237.5 240.5,-1237.5 "/>
<text text-anchor="start" x="119.5" y="-1225.5" font-family="Helvetica,sans-Serif" font-size="10.00" fill="#000000">&#45; addresses</text>
<polyline fill="none" stroke="#000000" points="111.5,-1218.5 240.5,-1218.5 "/>
<text text-anchor="start" x="119.5" y="-1206.5" font-family="Helvetica,sans-Serif" font-size="10.00" fill="#000000">* MIDIAddress()</text>
<text text-anchor="start" x="119.5" y="-1195.5" font-family="Helvetica,sans-Serif" font-size="10.00" fill="#000000">* MIDIAddress()</text>
<text text-anchor="start" x="119.5" y="-1184.5" font-family="Helvetica,sans-Serif" font-size="10.00" fill="#000000">* MIDIAddress()</text>
<text text-anchor="start" x="119.5" y="-1173.5" font-family="Helvetica,sans-Serif" font-size="10.00" fill="#000000">* MIDIAddress()</text>
<text text-anchor="start" x="119.5" y="-1162.5" font-family="Helvetica,sans-Serif" font-size="10.00" fill="#000000">* MIDIAddress()</text>
<text text-anchor="start" x="119.5" y="-1151.5" font-family="Helvetica,sans-Serif" font-size="10.00" fill="#000000">* invalid()</text>
<text text-anchor="start" x="119.5" y="-1140.5" font-family="Helvetica,sans-Serif" font-size="10.00" fill="#000000">* operator+=()</text>
<text text-anchor="start" x="119.5" y="-1129.5" font-family="Helvetica,sans-Serif" font-size="10.00" fill="#000000">* operator&#45;=()</text>
<text text-anchor="start" x="119.5" y="-1118.5" font-family="Helvetica,sans-Serif" font-size="10.00" fill="#000000">* operator+()</text>
<text text-anchor="start" x="119.5" y="-1107.5" font-family="Helvetica,sans-Serif" font-size="10.00" fill="#000000">* operator&#45;()</text>
<text text-anchor="start" x="119.5" y="-1096.5" font-family="Helvetica,sans-Serif" font-size="10.00" fill="#000000">* getAddress()</text>
<text text-anchor="start" x="119.5" y="-1085.5" font-family="Helvetica,sans-Serif" font-size="10.00" fill="#000000">* getChannel()</text>
<text text-anchor="start" x="119.5" y="-1074.5" font-family="Helvetica,sans-Serif" font-size="10.00" fill="#000000">* getRawChannel()</text>
<text text-anchor="start" x="119.5" y="-1063.5" font-family="Helvetica,sans-Serif" font-size="10.00" fill="#000000">* getCableNumber()</text>
<text text-anchor="start" x="119.5" y="-1052.5" font-family="Helvetica,sans-Serif" font-size="10.00" fill="#000000">* operator==()</text>
<text text-anchor="start" x="119.5" y="-1041.5" font-family="Helvetica,sans-Serif" font-size="10.00" fill="#000000">* operator!=()</text>
<text text-anchor="start" x="119.5" y="-1030.5" font-family="Helvetica,sans-Serif" font-size="10.00" fill="#000000">* isValid()</text>
<text text-anchor="start" x="119.5" y="-1019.5" font-family="Helvetica,sans-Serif" font-size="10.00" fill="#000000">* operator bool()</text>
<text text-anchor="start" x="119.5" y="-1008.5" font-family="Helvetica,sans-Serif" font-size="10.00" fill="#000000">* matchSingle()</text>
<text text-anchor="start" x="119.5" y="-997.5" font-family="Helvetica,sans-Serif" font-size="10.00" fill="#000000">* matchAddressInRange()</text>
</a>
</g>
</g>
<!-- Node6&#45;&gt;Node5 -->
<g id="edge5" class="edge">
<title>Node6&#45;&gt;Node5</title>
<path fill="none" stroke="#404040" d="M176,-990.2065C176,-978.2824 176,-966.4012 176,-954.9677"/>
<polygon fill="none" stroke="#404040" points="176.0001,-954.7561 172,-948.7562 176,-942.7561 180,-948.7561 176.0001,-954.7561"/>
<text text-anchor="middle" x="197.5" y="-964" font-family="Helvetica,sans-Serif" font-size="10.00" fill="#000000"> #address</text>
</g>
<!-- Node7&#45;&gt;Node4 -->
<g id="edge6" class="edge">
<title>Node7&#45;&gt;Node4</title>
<path fill="none" stroke="#191970" d="M84.1327,-405.6182C102.4634,-455.1787 132.5153,-536.4301 153.2279,-592.4311"/>
<polygon fill="none" stroke="#191970" points="87.3808,-404.3103 80.6291,-396.1455 80.8155,-406.7387 87.3808,-404.3103"/>
</g>
<!-- Node8&#45;&gt;Node4 -->
<g id="edge8" class="edge">
<title>Node8&#45;&gt;Node4</title>
<path fill="none" stroke="#404040" d="M208.6608,-500.9645C206.5815,-514.5198 204.354,-528.0432 202,-541 199.672,-553.8138 196.8602,-567.3679 193.9577,-580.4698"/>
<polygon fill="none" stroke="#404040" points="193.9204,-580.6353 196.501,-587.3688 191.2779,-592.3408 188.6974,-585.6072 193.9204,-580.6353"/>
<text text-anchor="middle" x="229" y="-527.5" font-family="Helvetica,sans-Serif" font-size="10.00" fill="#000000"> &#45;elements</text>
</g>
<!-- Node9 -->
<g id="node9" class="node">
<title>Node9</title>
<g id="a_node9"><a xlink:href="../../d7/dab/classINoteCCValue.html" target="_top" xlink:title="Interface for NoteCCValue objects: provides getters for the velocity or controller values.">
<polygon fill="#ffffff" stroke="#000000" points="263.5,-609 263.5,-699 358.5,-699 358.5,-609 263.5,-609"/>
<text text-anchor="middle" x="311" y="-687" font-family="Helvetica,sans-Serif" font-size="10.00" fill="#000000">INoteCCValue</text>
<polyline fill="none" stroke="#000000" points="263.5,-680 358.5,-680 "/>
<text text-anchor="start" x="271.5" y="-668" font-family="Helvetica,sans-Serif" font-size="10.00" fill="#000000">&#45; rangeLength</text>
<polyline fill="none" stroke="#000000" points="263.5,-661 358.5,-661 "/>
<text text-anchor="start" x="271.5" y="-649" font-family="Helvetica,sans-Serif" font-size="10.00" fill="#000000">+ length()</text>
<text text-anchor="start" x="271.5" y="-638" font-family="Helvetica,sans-Serif" font-size="10.00" fill="#000000">+ getValue()</text>
<text text-anchor="start" x="271.5" y="-627" font-family="Helvetica,sans-Serif" font-size="10.00" fill="#000000">+ getValue()</text>
<text text-anchor="start" x="271.5" y="-616" font-family="Helvetica,sans-Serif" font-size="10.00" fill="#000000"># INoteCCValue()</text>
</a>
</g>
</g>
<!-- Node9&#45;&gt;Node3 -->
<g id="edge10" class="edge">
<title>Node9&#45;&gt;Node3</title>
<path fill="none" stroke="#191970" d="M333.451,-599.3693C349.9129,-559.3119 372.6804,-503.911 392.0798,-456.7059"/>
<polygon fill="none" stroke="#191970" points="330.1822,-598.1156 329.6183,-608.6954 336.6568,-600.7764 330.1822,-598.1156"/>
</g>
<!-- Node10 -->
<g id="node10" class="node">
<title>Node10</title>
<g id="a_node10"><a xlink:href="../../db/d17/classNoteCCLEDPWM.html" target="_top" xlink:title=" ">
<polygon fill="#ffffff" stroke="#000000" points="377,-614.5 377,-693.5 497,-693.5 497,-614.5 377,-614.5"/>
<text text-anchor="middle" x="437" y="-681.5" font-family="Helvetica,sans-Serif" font-size="10.00" fill="#000000">NoteCCLEDPWM&lt; 1 &gt;</text>
<polyline fill="none" stroke="#000000" points="377,-674.5 497,-674.5 "/>
<text text-anchor="start" x="385" y="-662.5" font-family="Helvetica,sans-Serif" font-size="10.00" fill="#000000">&#45; ledPins</text>
<polyline fill="none" stroke="#000000" points="377,-655.5 497,-655.5 "/>
<text text-anchor="start" x="385" y="-643.5" font-family="Helvetica,sans-Serif" font-size="10.00" fill="#000000">+ NoteCCLEDPWM()</text>
<text text-anchor="start" x="385" y="-632.5" font-family="Helvetica,sans-Serif" font-size="10.00" fill="#000000">+ begin()</text>
<text text-anchor="start" x="385" y="-621.5" font-family="Helvetica,sans-Serif" font-size="10.00" fill="#000000">+ update()</text>
</a>
</g>
</g>
<!-- Node10&#45;&gt;Node3 -->
<g id="edge11" class="edge">
<title>Node10&#45;&gt;Node3</title>
<path fill="none" stroke="#404040" d="M436.1846,-614.3157C435.4178,-576.9984 434.2351,-519.442 433.1929,-468.7192"/>
<polygon fill="none" stroke="#404040" points="433.1918,-468.6632 429.0693,-462.7467 432.9452,-456.6658 437.0677,-462.5823 433.1918,-468.6632"/>
<text text-anchor="middle" x="458" y="-527.5" font-family="Helvetica,sans-Serif" font-size="10.00" fill="#000000"> +callback</text>
</g>
<!-- Node11 -->
<g id="node11" class="node">
<title>Node11</title>
<g id="a_node11"><a xlink:href="../../de/d07/structSimpleNoteCCValueCallback.html" target="_top" xlink:title="A callback for NoteCCRange with an action that can be implemented by the user.">
<polygon fill="#ffffff" stroke="#000000" points="357,-819.5 357,-909.5 517,-909.5 517,-819.5 357,-819.5"/>
<text text-anchor="middle" x="437" y="-897.5" font-family="Helvetica,sans-Serif" font-size="10.00" fill="#000000">SimpleNoteCCValueCallback</text>
<polyline fill="none" stroke="#000000" points="357,-890.5 517,-890.5 "/>
<text text-anchor="middle" x="437" y="-878.5" font-family="Helvetica,sans-Serif" font-size="10.00" fill="#000000"> </text>
<polyline fill="none" stroke="#000000" points="357,-871.5 517,-871.5 "/>
<text text-anchor="start" x="365" y="-859.5" font-family="Helvetica,sans-Serif" font-size="10.00" fill="#000000">+ begin()</text>
<text text-anchor="start" x="365" y="-848.5" font-family="Helvetica,sans-Serif" font-size="10.00" fill="#000000">+ update()</text>
<text text-anchor="start" x="365" y="-837.5" font-family="Helvetica,sans-Serif" font-size="10.00" fill="#000000">+ updateAll()</text>
<text text-anchor="start" x="365" y="-826.5" font-family="Helvetica,sans-Serif" font-size="10.00" fill="#000000"># SimpleNoteCCValueCallback()</text>
</a>
</g>
</g>
<!-- Node11&#45;&gt;Node10 -->
<g id="edge12" class="edge">
<title>Node11&#45;&gt;Node10</title>
<path fill="none" stroke="#191970" d="M437,-808.9371C437,-772.7164 437,-726.3065 437,-693.7606"/>
<polygon fill="none" stroke="#191970" points="433.5001,-809.3424 437,-819.3425 440.5001,-809.3425 433.5001,-809.3424"/>
</g>
<!-- Node12 -->
<g id="node12" class="node">
<title>Node12</title>
<g id="a_node12"><a xlink:href="../../d0/d32/structAH_1_1Array.html" target="_top" xlink:title=" ">
<polygon fill="#ffffff" stroke="#000000" points="515,-559.5 515,-748.5 663,-748.5 663,-559.5 515,-559.5"/>
<text text-anchor="start" x="523" y="-736.5" font-family="Helvetica,sans-Serif" font-size="10.00" fill="#000000">Array&lt; Array&lt; uint8</text>
<text text-anchor="middle" x="589" y="-725.5" font-family="Helvetica,sans-Serif" font-size="10.00" fill="#000000">_t, RangeLen &gt;, NumBanks &gt;</text>
<polyline fill="none" stroke="#000000" points="515,-718.5 663,-718.5 "/>
<text text-anchor="start" x="523" y="-706.5" font-family="Helvetica,sans-Serif" font-size="10.00" fill="#000000">+ data</text>
<text text-anchor="start" x="523" y="-695.5" font-family="Helvetica,sans-Serif" font-size="10.00" fill="#000000">+ length</text>
<polyline fill="none" stroke="#000000" points="515,-688.5 663,-688.5 "/>
<text text-anchor="start" x="523" y="-676.5" font-family="Helvetica,sans-Serif" font-size="10.00" fill="#000000">+ operator[]()</text>
<text text-anchor="start" x="523" y="-665.5" font-family="Helvetica,sans-Serif" font-size="10.00" fill="#000000">+ operator[]()</text>
<text text-anchor="start" x="523" y="-654.5" font-family="Helvetica,sans-Serif" font-size="10.00" fill="#000000">+ begin()</text>
<text text-anchor="start" x="523" y="-643.5" font-family="Helvetica,sans-Serif" font-size="10.00" fill="#000000">+ begin()</text>
<text text-anchor="start" x="523" y="-632.5" font-family="Helvetica,sans-Serif" font-size="10.00" fill="#000000">+ end()</text>
<text text-anchor="start" x="523" y="-621.5" font-family="Helvetica,sans-Serif" font-size="10.00" fill="#000000">+ end()</text>
<text text-anchor="start" x="523" y="-610.5" font-family="Helvetica,sans-Serif" font-size="10.00" fill="#000000">+ operator==()</text>
<text text-anchor="start" x="523" y="-599.5" font-family="Helvetica,sans-Serif" font-size="10.00" fill="#000000">+ operator!=()</text>
<text text-anchor="start" x="523" y="-588.5" font-family="Helvetica,sans-Serif" font-size="10.00" fill="#000000">+ slice()</text>
<text text-anchor="start" x="523" y="-577.5" font-family="Helvetica,sans-Serif" font-size="10.00" fill="#000000">+ slice()</text>
<text text-anchor="start" x="523" y="-566.5" font-family="Helvetica,sans-Serif" font-size="10.00" fill="#000000">+ cslice()</text>
</a>
</g>
</g>
<!-- Node12&#45;&gt;Node3 -->
<g id="edge13" class="edge">
<title>Node12&#45;&gt;Node3</title>
<path fill="none" stroke="#404040" d="M537.7019,-559.196C521.8923,-529.9782 504.3879,-497.6283 488.2069,-467.7241"/>
<polygon fill="none" stroke="#404040" points="488.0217,-467.3817 481.6482,-464.0083 482.3109,-456.8277 488.6843,-460.2011 488.0217,-467.3817"/>
<text text-anchor="middle" x="542.5" y="-527.5" font-family="Helvetica,sans-Serif" font-size="10.00" fill="#000000"> &#45;values</text>
</g>
</g>
</svg>
