<?xml version="1.0" encoding="UTF-8" standalone="no"?>
<!DOCTYPE svg PUBLIC "-//W3C//DTD SVG 1.1//EN"
 "http://www.w3.org/Graphics/SVG/1.1/DTD/svg11.dtd">
<!-- Generated by graphviz version 2.43.0 (0)
 -->
<!-- Title: MCP23017.ipp Pages: 1 -->
<svg width="1689pt" height="879pt"
 viewBox="0.00 0.00 1689.00 879.00" xmlns="http://www.w3.org/2000/svg" xmlns:xlink="http://www.w3.org/1999/xlink">
<g id="graph0" class="graph" transform="scale(1 1) rotate(0) translate(4 875)">
<title>MCP23017.ipp</title>
<polygon fill="white" stroke="transparent" points="-4,4 -4,-875 1685,-875 1685,4 -4,4"/>
<!-- Node1 -->
<g id="node1" class="node">
<title>Node1</title>
<g id="a_node1"><a xlink:title=" ">
<polygon fill="#bfbfbf" stroke="black" points="784,-851.5 784,-870.5 870,-870.5 870,-851.5 784,-851.5"/>
<text text-anchor="middle" x="827" y="-858.5" font-family="Helvetica,sans-Serif" font-size="10.00">MCP23017.ipp</text>
</a>
</g>
</g>
<!-- Node2 -->
<g id="node2" class="node">
<title>Node2</title>
<g id="a_node2"><a xlink:href="../../d7/dca/MCP23017_8hpp.html" target="_top" xlink:title=" ">
<polygon fill="white" stroke="black" points="782.5,-795.5 782.5,-814.5 871.5,-814.5 871.5,-795.5 782.5,-795.5"/>
<text text-anchor="middle" x="827" y="-802.5" font-family="Helvetica,sans-Serif" font-size="10.00">MCP23017.hpp</text>
</a>
</g>
</g>
<!-- Node1&#45;&gt;Node2 -->
<g id="edge1" class="edge">
<title>Node1&#45;&gt;Node2</title>
<path fill="none" stroke="midnightblue" d="M821.83,-851.08C820.32,-843.93 819.89,-833.64 820.54,-824.69"/>
<polygon fill="midnightblue" stroke="midnightblue" points="824.02,-825.13 821.87,-814.75 817.08,-824.2 824.02,-825.13"/>
</g>
<!-- Node2&#45;&gt;Node1 -->
<g id="edge80" class="edge">
<title>Node2&#45;&gt;Node1</title>
<path fill="none" stroke="midnightblue" d="M832.13,-814.75C833.66,-821.86 834.1,-832.14 833.47,-841.1"/>
<polygon fill="midnightblue" stroke="midnightblue" points="829.99,-840.71 832.17,-851.08 836.93,-841.62 829.99,-840.71"/>
</g>
<!-- Node3 -->
<g id="node3" class="node">
<title>Node3</title>
<g id="a_node3"><a xlink:href="../../d1/d65/Warnings_8hpp.html" target="_top" xlink:title=" ">
<polygon fill="white" stroke="black" points="653.5,-0.5 653.5,-19.5 796.5,-19.5 796.5,-0.5 653.5,-0.5"/>
<text text-anchor="middle" x="725" y="-7.5" font-family="Helvetica,sans-Serif" font-size="10.00">AH/Settings/Warnings.hpp</text>
</a>
</g>
</g>
<!-- Node2&#45;&gt;Node3 -->
<g id="edge2" class="edge">
<title>Node2&#45;&gt;Node3</title>
<path fill="none" stroke="midnightblue" d="M871.71,-802.99C1047.43,-798.46 1681,-776.41 1681,-694 1681,-694 1681,-694 1681,-121 1681,-69.84 1634.46,-72.39 1586,-56 1513.53,-31.49 1007.68,-17.43 806.87,-12.76"/>
<polygon fill="midnightblue" stroke="midnightblue" points="806.76,-9.25 796.68,-12.52 806.6,-16.25 806.76,-9.25"/>
</g>
<!-- Node4 -->
<g id="node4" class="node">
<title>Node4</title>
<g id="a_node4"><a xlink:href="../../dd/ddf/ExtendedInputOutput_8hpp.html" target="_top" xlink:title=" ">
<polygon fill="white" stroke="black" points="310.5,-627.5 310.5,-646.5 451.5,-646.5 451.5,-627.5 310.5,-627.5"/>
<text text-anchor="middle" x="381" y="-634.5" font-family="Helvetica,sans-Serif" font-size="10.00">ExtendedInputOutput.hpp</text>
</a>
</g>
</g>
<!-- Node2&#45;&gt;Node4 -->
<g id="edge3" class="edge">
<title>Node2&#45;&gt;Node4</title>
<path fill="none" stroke="midnightblue" d="M782.46,-798.77C685.61,-786.57 459.99,-753.37 404,-703 390.81,-691.13 385.18,-671.22 382.78,-656.55"/>
<polygon fill="midnightblue" stroke="midnightblue" points="386.25,-656.06 381.51,-646.58 379.3,-656.95 386.25,-656.06"/>
</g>
<!-- Node27 -->
<g id="node27" class="node">
<title>Node27</title>
<g id="a_node27"><a xlink:href="../../d2/d05/StaticSizeExtendedIOElement_8hpp.html" target="_top" xlink:title=" ">
<polygon fill="white" stroke="black" points="813,-739.5 813,-758.5 995,-758.5 995,-739.5 813,-739.5"/>
<text text-anchor="middle" x="904" y="-746.5" font-family="Helvetica,sans-Serif" font-size="10.00">StaticSizeExtendedIOElement.hpp</text>
</a>
</g>
</g>
<!-- Node2&#45;&gt;Node27 -->
<g id="edge49" class="edge">
<title>Node2&#45;&gt;Node27</title>
<path fill="none" stroke="midnightblue" d="M839.37,-795.32C851.16,-787.06 869.13,-774.45 883.14,-764.63"/>
<polygon fill="midnightblue" stroke="midnightblue" points="885.48,-767.26 891.66,-758.65 881.46,-761.53 885.48,-767.26"/>
</g>
<!-- Node37 -->
<g id="node37" class="node">
<title>Node37</title>
<g id="a_node37"><a xlink:href="../../d1/d40/BitArray_8hpp.html" target="_top" xlink:title=" ">
<polygon fill="white" stroke="black" points="204.5,-504.5 204.5,-523.5 353.5,-523.5 353.5,-504.5 204.5,-504.5"/>
<text text-anchor="middle" x="279" y="-511.5" font-family="Helvetica,sans-Serif" font-size="10.00">AH/Containers/BitArray.hpp</text>
</a>
</g>
</g>
<!-- Node2&#45;&gt;Node37 -->
<g id="edge75" class="edge">
<title>Node2&#45;&gt;Node37</title>
<path fill="none" stroke="midnightblue" d="M818.55,-795.44C802.23,-777.96 768,-736.26 768,-694 768,-694 768,-694 768,-636 768,-553.72 503.81,-527.02 363.81,-518.65"/>
<polygon fill="midnightblue" stroke="midnightblue" points="363.72,-515.14 353.53,-518.06 363.32,-522.13 363.72,-515.14"/>
</g>
<!-- Node4&#45;&gt;Node3 -->
<g id="edge5" class="edge">
<title>Node4&#45;&gt;Node3</title>
<path fill="none" stroke="midnightblue" d="M310.26,-633.77C257.04,-629.73 183.52,-618.98 125,-591 78.68,-568.85 38,-566.34 38,-515 38,-515 38,-515 38,-121 38,-80.46 65.19,-73 102,-56 149.93,-33.87 485.4,-19.37 643.25,-13.7"/>
<polygon fill="midnightblue" stroke="midnightblue" points="643.51,-17.19 653.38,-13.34 643.26,-10.19 643.51,-17.19"/>
</g>
<!-- Node5 -->
<g id="node5" class="node">
<title>Node5</title>
<g id="a_node5"><a xlink:href="../../d6/db0/AH_2Settings_2NamespaceSettings_8hpp.html" target="_top" xlink:title=" ">
<polygon fill="white" stroke="black" points="369.5,-56.5 369.5,-75.5 564.5,-75.5 564.5,-56.5 369.5,-56.5"/>
<text text-anchor="middle" x="467" y="-63.5" font-family="Helvetica,sans-Serif" font-size="10.00">AH/Settings/NamespaceSettings.hpp</text>
</a>
</g>
</g>
<!-- Node4&#45;&gt;Node5 -->
<g id="edge4" class="edge">
<title>Node4&#45;&gt;Node5</title>
<path fill="none" stroke="midnightblue" d="M310.5,-633.47C231.4,-626.41 114,-601.39 114,-515 114,-515 114,-515 114,-289 114,-154.3 300.46,-98.13 402.34,-77.5"/>
<polygon fill="midnightblue" stroke="midnightblue" points="403.09,-80.92 412.23,-75.55 401.74,-74.05 403.09,-80.92"/>
</g>
<!-- Node6 -->
<g id="node6" class="node">
<title>Node6</title>
<g id="a_node6"><a xlink:href="../../d6/ddf/Arduino-Wrapper_8h.html" target="_top" xlink:title=" ">
<polygon fill="white" stroke="black" points="985,-168.5 985,-187.5 1109,-187.5 1109,-168.5 985,-168.5"/>
<text text-anchor="middle" x="1047" y="-175.5" font-family="Helvetica,sans-Serif" font-size="10.00">AH/Arduino&#45;Wrapper.h</text>
</a>
</g>
</g>
<!-- Node4&#45;&gt;Node6 -->
<g id="edge6" class="edge">
<title>Node4&#45;&gt;Node6</title>
<path fill="none" stroke="midnightblue" d="M412.16,-627.41C471.53,-610.61 604.4,-570.92 711,-524 805.67,-482.33 828.7,-469.01 915,-412 1015.89,-345.35 1076.12,-352.74 1129,-244 1140.67,-219.99 1111.93,-202.13 1085.32,-191.27"/>
<polygon fill="midnightblue" stroke="midnightblue" points="1086.28,-187.89 1075.69,-187.58 1083.78,-194.42 1086.28,-187.89"/>
</g>
<!-- Node11 -->
<g id="node11" class="node">
<title>Node11</title>
<g id="a_node11"><a xlink:href="../../d4/d35/Hardware-Types_8hpp.html" target="_top" xlink:title=" ">
<polygon fill="white" stroke="black" points="315.5,-560.5 315.5,-590.5 446.5,-590.5 446.5,-560.5 315.5,-560.5"/>
<text text-anchor="start" x="323.5" y="-578.5" font-family="Helvetica,sans-Serif" font-size="10.00">AH/Hardware/Hardware</text>
<text text-anchor="middle" x="381" y="-567.5" font-family="Helvetica,sans-Serif" font-size="10.00">&#45;Types.hpp</text>
</a>
</g>
</g>
<!-- Node4&#45;&gt;Node11 -->
<g id="edge15" class="edge">
<title>Node4&#45;&gt;Node11</title>
<path fill="none" stroke="midnightblue" d="M381,-627.48C381,-620.47 381,-610.19 381,-600.7"/>
<polygon fill="midnightblue" stroke="midnightblue" points="384.5,-600.52 381,-590.52 377.5,-600.52 384.5,-600.52"/>
</g>
<!-- Node7 -->
<g id="node7" class="node">
<title>Node7</title>
<g id="a_node7"><a xlink:href="../../d7/d79/MinMaxFix_8hpp.html" target="_top" xlink:title=" ">
<polygon fill="white" stroke="black" points="984,-112.5 984,-131.5 1120,-131.5 1120,-112.5 984,-112.5"/>
<text text-anchor="middle" x="1052" y="-119.5" font-family="Helvetica,sans-Serif" font-size="10.00">AH/Math/MinMaxFix.hpp</text>
</a>
</g>
</g>
<!-- Node6&#45;&gt;Node7 -->
<g id="edge7" class="edge">
<title>Node6&#45;&gt;Node7</title>
<path fill="none" stroke="midnightblue" d="M1047.83,-168.08C1048.48,-161.01 1049.42,-150.86 1050.24,-141.99"/>
<polygon fill="midnightblue" stroke="midnightblue" points="1053.75,-142.03 1051.19,-131.75 1046.78,-141.39 1053.75,-142.03"/>
</g>
<!-- Node9 -->
<g id="node9" class="node">
<title>Node9</title>
<g id="a_node9"><a xlink:title=" ">
<polygon fill="white" stroke="#bfbfbf" points="1353.5,-0.5 1353.5,-19.5 1416.5,-19.5 1416.5,-0.5 1353.5,-0.5"/>
<text text-anchor="middle" x="1385" y="-7.5" font-family="Helvetica,sans-Serif" font-size="10.00">Arduino.h</text>
</a>
</g>
</g>
<!-- Node6&#45;&gt;Node9 -->
<g id="edge14" class="edge">
<title>Node6&#45;&gt;Node9</title>
<path fill="none" stroke="midnightblue" d="M1064.7,-168.31C1120.37,-140.97 1292.15,-56.6 1358.48,-24.02"/>
<polygon fill="midnightblue" stroke="midnightblue" points="1360.05,-27.16 1367.48,-19.61 1356.96,-20.87 1360.05,-27.16"/>
</g>
<!-- Node10 -->
<g id="node10" class="node">
<title>Node10</title>
<g id="a_node10"><a xlink:title=" ">
<polygon fill="white" stroke="#bfbfbf" points="858.5,-112.5 858.5,-131.5 965.5,-131.5 965.5,-112.5 858.5,-112.5"/>
<text text-anchor="middle" x="912" y="-119.5" font-family="Helvetica,sans-Serif" font-size="10.00">AH/STL/type_traits</text>
</a>
</g>
</g>
<!-- Node6&#45;&gt;Node10 -->
<g id="edge13" class="edge">
<title>Node6&#45;&gt;Node10</title>
<path fill="none" stroke="midnightblue" d="M1025.61,-168.44C1003.29,-159.52 968.1,-145.44 942.79,-135.32"/>
<polygon fill="midnightblue" stroke="midnightblue" points="943.88,-131.98 933.29,-131.52 941.28,-138.48 943.88,-131.98"/>
</g>
<!-- Node7&#45;&gt;Node3 -->
<g id="edge8" class="edge">
<title>Node7&#45;&gt;Node3</title>
<path fill="none" stroke="midnightblue" d="M1026.61,-112.46C968.66,-92.97 826.55,-45.16 760.19,-22.84"/>
<polygon fill="midnightblue" stroke="midnightblue" points="761.19,-19.48 750.6,-19.61 758.96,-26.12 761.19,-19.48"/>
</g>
<!-- Node7&#45;&gt;Node5 -->
<g id="edge12" class="edge">
<title>Node7&#45;&gt;Node5</title>
<path fill="none" stroke="midnightblue" d="M983.99,-112.95C980.95,-112.62 977.95,-112.3 975,-112 837.13,-97.84 677.92,-84.17 575.03,-75.69"/>
<polygon fill="midnightblue" stroke="midnightblue" points="575.19,-72.19 564.94,-74.86 574.62,-79.17 575.19,-72.19"/>
</g>
<!-- Node8 -->
<g id="node8" class="node">
<title>Node8</title>
<g id="a_node8"><a xlink:href="../../d6/d3b/FixArduinoMacros_8hpp.html" target="_top" xlink:title=" ">
<polygon fill="white" stroke="black" points="967,-56.5 967,-75.5 1137,-75.5 1137,-56.5 967,-56.5"/>
<text text-anchor="middle" x="1052" y="-63.5" font-family="Helvetica,sans-Serif" font-size="10.00">AH/Math/FixArduinoMacros.hpp</text>
</a>
</g>
</g>
<!-- Node7&#45;&gt;Node8 -->
<g id="edge9" class="edge">
<title>Node7&#45;&gt;Node8</title>
<path fill="none" stroke="midnightblue" d="M1052,-112.08C1052,-105.01 1052,-94.86 1052,-85.99"/>
<polygon fill="midnightblue" stroke="midnightblue" points="1055.5,-85.75 1052,-75.75 1048.5,-85.75 1055.5,-85.75"/>
</g>
<!-- Node8&#45;&gt;Node3 -->
<g id="edge10" class="edge">
<title>Node8&#45;&gt;Node3</title>
<path fill="none" stroke="midnightblue" d="M1000.19,-56.44C942.18,-46.87 848.26,-31.36 786.56,-21.17"/>
<polygon fill="midnightblue" stroke="midnightblue" points="787.01,-17.69 776.57,-19.52 785.87,-24.6 787.01,-17.69"/>
</g>
<!-- Node8&#45;&gt;Node9 -->
<g id="edge11" class="edge">
<title>Node8&#45;&gt;Node9</title>
<path fill="none" stroke="midnightblue" d="M1104.76,-56.44C1170.82,-45.73 1282.61,-27.6 1343.11,-17.79"/>
<polygon fill="midnightblue" stroke="midnightblue" points="1343.76,-21.23 1353.07,-16.18 1342.64,-14.32 1343.76,-21.23"/>
</g>
<!-- Node11&#45;&gt;Node3 -->
<g id="edge16" class="edge">
<title>Node11&#45;&gt;Node3</title>
<path fill="none" stroke="midnightblue" d="M315.2,-563.26C225.53,-546.05 76,-509.75 76,-459 76,-459 76,-459 76,-121 76,-69.47 123.39,-73.1 172,-56 256.69,-26.22 511.22,-15.95 643.37,-12.57"/>
<polygon fill="midnightblue" stroke="midnightblue" points="643.53,-16.06 653.44,-12.32 643.36,-9.06 643.53,-16.06"/>
</g>
<!-- Node11&#45;&gt;Node5 -->
<g id="edge47" class="edge">
<title>Node11&#45;&gt;Node5</title>
<path fill="none" stroke="midnightblue" d="M379.29,-560.49C377.03,-545.68 372.09,-522.03 362,-504 351.26,-484.79 336.13,-488.45 328,-468 324.72,-459.74 326.24,-456.71 328,-448 348.41,-347.28 418,-337.77 418,-235 418,-235 418,-235 418,-177 418,-141.47 439.6,-104.63 454.12,-83.88"/>
<polygon fill="midnightblue" stroke="midnightblue" points="457.13,-85.69 460.19,-75.54 451.47,-81.57 457.13,-85.69"/>
</g>
<!-- Node12 -->
<g id="node12" class="node">
<title>Node12</title>
<g id="a_node12"><a xlink:href="../../de/d76/Array_8hpp.html" target="_top" xlink:title=" ">
<polygon fill="white" stroke="black" points="566.5,-504.5 566.5,-523.5 701.5,-523.5 701.5,-504.5 566.5,-504.5"/>
<text text-anchor="middle" x="634" y="-511.5" font-family="Helvetica,sans-Serif" font-size="10.00">AH/Containers/Array.hpp</text>
</a>
</g>
</g>
<!-- Node11&#45;&gt;Node12 -->
<g id="edge17" class="edge">
<title>Node11&#45;&gt;Node12</title>
<path fill="none" stroke="midnightblue" d="M440.64,-560.47C485.71,-549.87 546.69,-535.53 588.03,-525.81"/>
<polygon fill="midnightblue" stroke="midnightblue" points="588.9,-529.2 597.83,-523.51 587.29,-522.39 588.9,-529.2"/>
</g>
<!-- Node23 -->
<g id="node23" class="node">
<title>Node23</title>
<g id="a_node23"><a xlink:title=" ">
<polygon fill="white" stroke="#bfbfbf" points="184.5,-224.5 184.5,-243.5 237.5,-243.5 237.5,-224.5 184.5,-224.5"/>
<text text-anchor="middle" x="211" y="-231.5" font-family="Helvetica,sans-Serif" font-size="10.00">stdint.h</text>
</a>
</g>
</g>
<!-- Node11&#45;&gt;Node23 -->
<g id="edge48" class="edge">
<title>Node11&#45;&gt;Node23</title>
<path fill="none" stroke="midnightblue" d="M315.44,-565.03C268.19,-556.74 210.18,-543.03 195,-524 161.43,-481.93 190,-456.82 190,-403 190,-403 190,-403 190,-345 190,-312.38 199.02,-275.28 205.23,-253.57"/>
<polygon fill="midnightblue" stroke="midnightblue" points="208.67,-254.32 208.17,-243.73 201.96,-252.32 208.67,-254.32"/>
</g>
<!-- Node12&#45;&gt;Node3 -->
<g id="edge18" class="edge">
<title>Node12&#45;&gt;Node3</title>
<path fill="none" stroke="midnightblue" d="M589.74,-504.45C562.04,-497.65 526.51,-486.19 499,-468 347.08,-367.52 259.38,-290.42 296,-112 301.44,-85.47 298.25,-72.13 320,-56 369.62,-19.18 540.1,-11.66 643.39,-10.59"/>
<polygon fill="midnightblue" stroke="midnightblue" points="643.51,-14.09 653.48,-10.51 643.45,-7.09 643.51,-14.09"/>
</g>
<!-- Node12&#45;&gt;Node10 -->
<g id="edge45" class="edge">
<title>Node12&#45;&gt;Node10</title>
<path fill="none" stroke="midnightblue" d="M649.64,-504.37C693.53,-479.26 818.42,-401.57 877,-300 906.68,-248.54 911.59,-176.19 912.15,-142.14"/>
<polygon fill="midnightblue" stroke="midnightblue" points="915.65,-141.81 912.19,-131.79 908.65,-141.77 915.65,-141.81"/>
</g>
<!-- Node13 -->
<g id="node13" class="node">
<title>Node13</title>
<g id="a_node13"><a xlink:href="../../d1/d93/Error_8hpp.html" target="_top" xlink:title=" ">
<polygon fill="white" stroke="black" points="508,-448.5 508,-467.5 612,-467.5 612,-448.5 508,-448.5"/>
<text text-anchor="middle" x="560" y="-455.5" font-family="Helvetica,sans-Serif" font-size="10.00">AH/Error/Error.hpp</text>
</a>
</g>
</g>
<!-- Node12&#45;&gt;Node13 -->
<g id="edge19" class="edge">
<title>Node12&#45;&gt;Node13</title>
<path fill="none" stroke="midnightblue" d="M622.11,-504.32C610.85,-496.11 593.71,-483.6 580.29,-473.81"/>
<polygon fill="midnightblue" stroke="midnightblue" points="582.25,-470.9 572.11,-467.83 578.12,-476.56 582.25,-470.9"/>
</g>
<!-- Node22 -->
<g id="node22" class="node">
<title>Node22</title>
<g id="a_node22"><a xlink:title=" ">
<polygon fill="white" stroke="#bfbfbf" points="1252,-224.5 1252,-243.5 1308,-243.5 1308,-224.5 1252,-224.5"/>
<text text-anchor="middle" x="1280" y="-231.5" font-family="Helvetica,sans-Serif" font-size="10.00">stddef.h</text>
</a>
</g>
</g>
<!-- Node12&#45;&gt;Node22 -->
<g id="edge46" class="edge">
<title>Node12&#45;&gt;Node22</title>
<path fill="none" stroke="midnightblue" d="M701.59,-513.66C786.94,-512.73 937.43,-505.23 1060,-468 1078.26,-462.45 1080.19,-454.87 1098,-448 1157.94,-424.88 1193,-457.85 1238,-412 1280.72,-368.47 1282.89,-289.9 1281.38,-253.92"/>
<polygon fill="midnightblue" stroke="midnightblue" points="1284.86,-253.62 1280.8,-243.83 1277.88,-254.02 1284.86,-253.62"/>
</g>
<!-- Node26 -->
<g id="node26" class="node">
<title>Node26</title>
<g id="a_node26"><a xlink:title=" ">
<polygon fill="white" stroke="#bfbfbf" points="816,-392.5 816,-411.5 906,-411.5 906,-392.5 816,-392.5"/>
<text text-anchor="middle" x="861" y="-399.5" font-family="Helvetica,sans-Serif" font-size="10.00">AH/STL/iterator</text>
</a>
</g>
</g>
<!-- Node12&#45;&gt;Node26 -->
<g id="edge44" class="edge">
<title>Node12&#45;&gt;Node26</title>
<path fill="none" stroke="midnightblue" d="M651.81,-504.37C691.43,-485.17 787.04,-438.84 834.02,-416.07"/>
<polygon fill="midnightblue" stroke="midnightblue" points="835.8,-419.1 843.27,-411.59 832.75,-412.8 835.8,-419.1"/>
</g>
<!-- Node13&#45;&gt;Node3 -->
<g id="edge20" class="edge">
<title>Node13&#45;&gt;Node3</title>
<path fill="none" stroke="midnightblue" d="M544.95,-448.49C530.37,-439.99 507.9,-426.17 490,-412 433.81,-367.52 417.22,-357.16 374,-300 308.04,-212.76 259.87,-128.23 342,-56 385.33,-17.89 544,-10.7 643.01,-10.07"/>
<polygon fill="midnightblue" stroke="midnightblue" points="643.3,-13.57 653.29,-10.03 643.27,-6.57 643.3,-13.57"/>
</g>
<!-- Node14 -->
<g id="node14" class="node">
<title>Node14</title>
<g id="a_node14"><a xlink:href="../../df/dee/Debug_8hpp.html" target="_top" xlink:title=" ">
<polygon fill="white" stroke="black" points="499.5,-392.5 499.5,-411.5 620.5,-411.5 620.5,-392.5 499.5,-392.5"/>
<text text-anchor="middle" x="560" y="-399.5" font-family="Helvetica,sans-Serif" font-size="10.00">AH/Debug/Debug.hpp</text>
</a>
</g>
</g>
<!-- Node13&#45;&gt;Node14 -->
<g id="edge21" class="edge">
<title>Node13&#45;&gt;Node14</title>
<path fill="none" stroke="midnightblue" d="M560,-448.08C560,-441.01 560,-430.86 560,-421.99"/>
<polygon fill="midnightblue" stroke="midnightblue" points="563.5,-421.75 560,-411.75 556.5,-421.75 563.5,-421.75"/>
</g>
<!-- Node14&#45;&gt;Node3 -->
<g id="edge22" class="edge">
<title>Node14&#45;&gt;Node3</title>
<path fill="none" stroke="midnightblue" d="M534.9,-392.44C515.46,-384.95 488.62,-372.65 469,-356 395.19,-293.34 342,-275.82 342,-179 342,-179 342,-179 342,-121 342,-91.02 337.3,-75.58 360,-56 401.11,-20.55 548.66,-12.34 643.1,-10.82"/>
<polygon fill="midnightblue" stroke="midnightblue" points="643.26,-14.32 653.21,-10.68 643.16,-7.32 643.26,-14.32"/>
</g>
<!-- Node15 -->
<g id="node15" class="node">
<title>Node15</title>
<g id="a_node15"><a xlink:href="../../dd/d80/PrintStream_8hpp.html" target="_top" xlink:title=" ">
<polygon fill="white" stroke="black" points="573.5,-224.5 573.5,-243.5 746.5,-243.5 746.5,-224.5 573.5,-224.5"/>
<text text-anchor="middle" x="660" y="-231.5" font-family="Helvetica,sans-Serif" font-size="10.00">AH/PrintStream/PrintStream.hpp</text>
</a>
</g>
</g>
<!-- Node14&#45;&gt;Node15 -->
<g id="edge23" class="edge">
<title>Node14&#45;&gt;Node15</title>
<path fill="none" stroke="midnightblue" d="M529.9,-392.48C500.24,-382.34 461.22,-363.28 475,-336 500.52,-285.49 562.72,-259.15 607.97,-246.21"/>
<polygon fill="midnightblue" stroke="midnightblue" points="608.91,-249.58 617.64,-243.57 607.07,-242.82 608.91,-249.58"/>
</g>
<!-- Node17 -->
<g id="node17" class="node">
<title>Node17</title>
<g id="a_node17"><a xlink:href="../../de/dd1/AH_2Settings_2SettingsWrapper_8hpp.html" target="_top" xlink:title=" ">
<polygon fill="white" stroke="black" points="586,-336.5 586,-355.5 764,-355.5 764,-336.5 586,-336.5"/>
<text text-anchor="middle" x="675" y="-343.5" font-family="Helvetica,sans-Serif" font-size="10.00">AH/Settings/SettingsWrapper.hpp</text>
</a>
</g>
</g>
<!-- Node14&#45;&gt;Node17 -->
<g id="edge28" class="edge">
<title>Node14&#45;&gt;Node17</title>
<path fill="none" stroke="midnightblue" d="M573.36,-392.32C590.23,-383.51 619.28,-369.75 642.11,-359.71"/>
<polygon fill="midnightblue" stroke="midnightblue" points="643.68,-362.84 651.46,-355.65 640.89,-356.42 643.68,-362.84"/>
</g>
<!-- Node25 -->
<g id="node25" class="node">
<title>Node25</title>
<g id="a_node25"><a xlink:href="../../d7/d52/DebugVal_8hpp.html" target="_top" xlink:title=" ">
<polygon fill="white" stroke="black" points="484,-336.5 484,-355.5 568,-355.5 568,-336.5 484,-336.5"/>
<text text-anchor="middle" x="526" y="-343.5" font-family="Helvetica,sans-Serif" font-size="10.00">DebugVal.hpp</text>
</a>
</g>
</g>
<!-- Node14&#45;&gt;Node25 -->
<g id="edge43" class="edge">
<title>Node14&#45;&gt;Node25</title>
<path fill="none" stroke="midnightblue" d="M554.39,-392.08C549.63,-384.53 542.68,-373.49 536.85,-364.23"/>
<polygon fill="midnightblue" stroke="midnightblue" points="539.8,-362.35 531.51,-355.75 533.88,-366.08 539.8,-362.35"/>
</g>
<!-- Node15&#45;&gt;Node3 -->
<g id="edge25" class="edge">
<title>Node15&#45;&gt;Node3</title>
<path fill="none" stroke="midnightblue" d="M695.01,-224.45C713.93,-217.84 735.68,-206.59 747,-188 751.62,-180.41 751.05,-175.91 747,-168 734.52,-143.63 709.48,-156.37 697,-132 679.55,-97.93 699.77,-52.92 713.8,-28.53"/>
<polygon fill="midnightblue" stroke="midnightblue" points="716.96,-30.07 719.14,-19.71 710.97,-26.45 716.96,-30.07"/>
</g>
<!-- Node15&#45;&gt;Node5 -->
<g id="edge24" class="edge">
<title>Node15&#45;&gt;Node5</title>
<path fill="none" stroke="midnightblue" d="M625.9,-224.42C602.96,-217.41 573.01,-205.72 551,-188 514.95,-158.98 487.89,-110.52 475.13,-84.61"/>
<polygon fill="midnightblue" stroke="midnightblue" points="478.28,-83.09 470.81,-75.58 471.96,-86.11 478.28,-83.09"/>
</g>
<!-- Node15&#45;&gt;Node6 -->
<g id="edge26" class="edge">
<title>Node15&#45;&gt;Node6</title>
<path fill="none" stroke="midnightblue" d="M721.32,-224.44C790.53,-214.79 902.95,-199.1 975.94,-188.92"/>
<polygon fill="midnightblue" stroke="midnightblue" points="976.55,-192.36 985.97,-187.52 975.58,-185.43 976.55,-192.36"/>
</g>
<!-- Node16 -->
<g id="node16" class="node">
<title>Node16</title>
<g id="a_node16"><a xlink:title=" ">
<polygon fill="white" stroke="#bfbfbf" points="560,-168.5 560,-187.5 738,-187.5 738,-168.5 560,-168.5"/>
<text text-anchor="middle" x="649" y="-175.5" font-family="Helvetica,sans-Serif" font-size="10.00">Settings/NamespaceSettings.hpp</text>
</a>
</g>
</g>
<!-- Node15&#45;&gt;Node16 -->
<g id="edge27" class="edge">
<title>Node15&#45;&gt;Node16</title>
<path fill="none" stroke="midnightblue" d="M658.18,-224.08C656.73,-216.93 654.63,-206.64 652.81,-197.69"/>
<polygon fill="midnightblue" stroke="midnightblue" points="656.21,-196.85 650.78,-187.75 649.35,-198.25 656.21,-196.85"/>
</g>
<!-- Node17&#45;&gt;Node3 -->
<g id="edge29" class="edge">
<title>Node17&#45;&gt;Node3</title>
<path fill="none" stroke="midnightblue" d="M608.6,-336.41C586.6,-330.05 564.34,-319.03 551,-300 517.33,-251.96 527.17,-221.61 551,-168 581.61,-99.16 658.96,-47.77 699.43,-24.6"/>
<polygon fill="midnightblue" stroke="midnightblue" points="701.39,-27.51 708.41,-19.58 697.97,-21.4 701.39,-27.51"/>
</g>
<!-- Node17&#45;&gt;Node5 -->
<g id="edge30" class="edge">
<title>Node17&#45;&gt;Node5</title>
<path fill="none" stroke="midnightblue" d="M591.27,-336.47C529.44,-324.99 456,-298.08 456,-235 456,-235 456,-235 456,-177 456,-144.79 460.73,-107.53 463.98,-85.69"/>
<polygon fill="midnightblue" stroke="midnightblue" points="467.49,-85.95 465.56,-75.53 460.57,-84.87 467.49,-85.95"/>
</g>
<!-- Node17&#45;&gt;Node14 -->
<g id="edge42" class="edge">
<title>Node17&#45;&gt;Node14</title>
<path fill="none" stroke="midnightblue" d="M661.94,-355.52C645.08,-364.35 615.71,-378.26 592.72,-388.37"/>
<polygon fill="midnightblue" stroke="midnightblue" points="591.1,-385.26 583.31,-392.44 593.88,-391.68 591.1,-385.26"/>
</g>
<!-- Node18 -->
<g id="node18" class="node">
<title>Node18</title>
<g id="a_node18"><a xlink:href="../../d5/d4f/AH_2Settings_2Settings_8hpp.html" target="_top" xlink:title="All user settings and debugging options can be changed here.">
<polygon fill="white" stroke="black" points="790.5,-280.5 790.5,-299.5 867.5,-299.5 867.5,-280.5 790.5,-280.5"/>
<text text-anchor="middle" x="829" y="-287.5" font-family="Helvetica,sans-Serif" font-size="10.00">Settings.hpp</text>
</a>
</g>
</g>
<!-- Node17&#45;&gt;Node18 -->
<g id="edge31" class="edge">
<title>Node17&#45;&gt;Node18</title>
<path fill="none" stroke="midnightblue" d="M699.4,-336.44C725.2,-327.4 766.08,-313.06 795.02,-302.92"/>
<polygon fill="midnightblue" stroke="midnightblue" points="796.43,-306.13 804.71,-299.52 794.12,-299.52 796.43,-306.13"/>
</g>
<!-- Node24 -->
<g id="node24" class="node">
<title>Node24</title>
<g id="a_node24"><a xlink:href="../../d9/d98/TeensyUSBTypes_8hpp.html" target="_top" xlink:title=" ">
<polygon fill="white" stroke="black" points="560.5,-280.5 560.5,-299.5 733.5,-299.5 733.5,-280.5 560.5,-280.5"/>
<text text-anchor="middle" x="647" y="-287.5" font-family="Helvetica,sans-Serif" font-size="10.00">AH/Teensy/TeensyUSBTypes.hpp</text>
</a>
</g>
</g>
<!-- Node17&#45;&gt;Node24 -->
<g id="edge41" class="edge">
<title>Node17&#45;&gt;Node24</title>
<path fill="none" stroke="midnightblue" d="M670.38,-336.08C666.54,-328.69 660.98,-317.95 656.24,-308.81"/>
<polygon fill="midnightblue" stroke="midnightblue" points="659.25,-307.02 651.54,-299.75 653.03,-310.24 659.25,-307.02"/>
</g>
<!-- Node19 -->
<g id="node19" class="node">
<title>Node19</title>
<g id="a_node19"><a xlink:href="../../dc/d50/Frequency_8hpp.html" target="_top" xlink:title=" ">
<polygon fill="white" stroke="black" points="706,-112.5 706,-131.5 840,-131.5 840,-112.5 706,-112.5"/>
<text text-anchor="middle" x="773" y="-119.5" font-family="Helvetica,sans-Serif" font-size="10.00">AH/Types/Frequency.hpp</text>
</a>
</g>
</g>
<!-- Node18&#45;&gt;Node19 -->
<g id="edge32" class="edge">
<title>Node18&#45;&gt;Node19</title>
<path fill="none" stroke="midnightblue" d="M823.86,-280.28C818.79,-271.4 811.07,-257.09 806,-244 792.36,-208.77 782.05,-165.71 776.82,-141.62"/>
<polygon fill="midnightblue" stroke="midnightblue" points="780.22,-140.76 774.73,-131.7 773.37,-142.21 780.22,-140.76"/>
</g>
<!-- Node20 -->
<g id="node20" class="node">
<title>Node20</title>
<g id="a_node20"><a xlink:href="../../d7/d7c/ADCConfig_8hpp.html" target="_top" xlink:title="This file contains the platform&#45;specific ADC resolutions.">
<polygon fill="white" stroke="black" points="962.5,-224.5 962.5,-243.5 1119.5,-243.5 1119.5,-224.5 962.5,-224.5"/>
<text text-anchor="middle" x="1041" y="-231.5" font-family="Helvetica,sans-Serif" font-size="10.00">AH/Hardware/ADCConfig.hpp</text>
</a>
</g>
</g>
<!-- Node18&#45;&gt;Node20 -->
<g id="edge35" class="edge">
<title>Node18&#45;&gt;Node20</title>
<path fill="none" stroke="midnightblue" d="M862.59,-280.44C899.19,-271.12 957.84,-256.18 997.83,-246"/>
<polygon fill="midnightblue" stroke="midnightblue" points="998.74,-249.38 1007.57,-243.52 997.01,-242.59 998.74,-249.38"/>
</g>
<!-- Node21 -->
<g id="node21" class="node">
<title>Node21</title>
<g id="a_node21"><a xlink:title=" ">
<polygon fill="white" stroke="#bfbfbf" points="814.5,-224.5 814.5,-243.5 867.5,-243.5 867.5,-224.5 814.5,-224.5"/>
<text text-anchor="middle" x="841" y="-231.5" font-family="Helvetica,sans-Serif" font-size="10.00">limits.h</text>
</a>
</g>
</g>
<!-- Node18&#45;&gt;Node21 -->
<g id="edge38" class="edge">
<title>Node18&#45;&gt;Node21</title>
<path fill="none" stroke="midnightblue" d="M830.98,-280.08C832.57,-272.93 834.86,-262.64 836.85,-253.69"/>
<polygon fill="midnightblue" stroke="midnightblue" points="840.3,-254.27 839.06,-243.75 833.47,-252.75 840.3,-254.27"/>
</g>
<!-- Node18&#45;&gt;Node22 -->
<g id="edge39" class="edge">
<title>Node18&#45;&gt;Node22</title>
<path fill="none" stroke="midnightblue" d="M867.84,-284.35C953.37,-274.11 1157.1,-249.71 1241.92,-239.56"/>
<polygon fill="midnightblue" stroke="midnightblue" points="1242.39,-243.03 1251.9,-238.36 1241.55,-236.08 1242.39,-243.03"/>
</g>
<!-- Node18&#45;&gt;Node23 -->
<g id="edge40" class="edge">
<title>Node18&#45;&gt;Node23</title>
<path fill="none" stroke="midnightblue" d="M790.49,-284.8C775.65,-283.23 758.54,-281.47 743,-280 556.97,-262.4 334.03,-244.61 247.67,-237.85"/>
<polygon fill="midnightblue" stroke="midnightblue" points="247.83,-234.35 237.59,-237.06 247.28,-241.33 247.83,-234.35"/>
</g>
<!-- Node19&#45;&gt;Node3 -->
<g id="edge33" class="edge">
<title>Node19&#45;&gt;Node3</title>
<path fill="none" stroke="midnightblue" d="M769.23,-112.37C761.42,-94.46 743.29,-52.92 732.83,-28.95"/>
<polygon fill="midnightblue" stroke="midnightblue" points="735.96,-27.36 728.75,-19.59 729.54,-30.16 735.96,-27.36"/>
</g>
<!-- Node19&#45;&gt;Node5 -->
<g id="edge34" class="edge">
<title>Node19&#45;&gt;Node5</title>
<path fill="none" stroke="midnightblue" d="M724.51,-112.44C670.46,-102.9 583.07,-87.48 525.33,-77.29"/>
<polygon fill="midnightblue" stroke="midnightblue" points="525.72,-73.81 515.26,-75.52 524.5,-80.7 525.72,-73.81"/>
</g>
<!-- Node20&#45;&gt;Node3 -->
<g id="edge36" class="edge">
<title>Node20&#45;&gt;Node3</title>
<path fill="none" stroke="midnightblue" d="M1065.73,-224.49C1082.87,-217.34 1104.9,-205.47 1118,-188 1153.98,-140.02 1186.09,-100.6 1146,-56 1123.79,-31.29 922.98,-19.04 806.9,-13.97"/>
<polygon fill="midnightblue" stroke="midnightblue" points="806.77,-10.46 796.63,-13.53 806.47,-17.46 806.77,-10.46"/>
</g>
<!-- Node20&#45;&gt;Node6 -->
<g id="edge37" class="edge">
<title>Node20&#45;&gt;Node6</title>
<path fill="none" stroke="midnightblue" d="M1041.99,-224.08C1042.79,-216.93 1043.93,-206.64 1044.92,-197.69"/>
<polygon fill="midnightblue" stroke="midnightblue" points="1048.4,-198.08 1046.03,-187.75 1041.44,-197.3 1048.4,-198.08"/>
</g>
<!-- Node27&#45;&gt;Node3 -->
<g id="edge50" class="edge">
<title>Node27&#45;&gt;Node3</title>
<path fill="none" stroke="midnightblue" d="M995.36,-743.78C1193.08,-733.44 1643,-702.77 1643,-638 1643,-638 1643,-638 1643,-121 1643,-63.83 1586.74,-72.5 1532,-56 1398.15,-15.66 983.76,-10.85 806.64,-10.71"/>
<polygon fill="midnightblue" stroke="midnightblue" points="806.6,-7.21 796.6,-10.7 806.59,-14.21 806.6,-7.21"/>
</g>
<!-- Node28 -->
<g id="node28" class="node">
<title>Node28</title>
<g id="a_node28"><a xlink:href="../../d4/d57/ExtendedIOElement_8hpp.html" target="_top" xlink:title=" ">
<polygon fill="white" stroke="black" points="413,-683.5 413,-702.5 547,-702.5 547,-683.5 413,-683.5"/>
<text text-anchor="middle" x="480" y="-690.5" font-family="Helvetica,sans-Serif" font-size="10.00">ExtendedIOElement.hpp</text>
</a>
</g>
</g>
<!-- Node27&#45;&gt;Node28 -->
<g id="edge51" class="edge">
<title>Node27&#45;&gt;Node28</title>
<path fill="none" stroke="midnightblue" d="M836.82,-739.44C760.68,-729.75 636.81,-713.97 556.88,-703.79"/>
<polygon fill="midnightblue" stroke="midnightblue" points="557.23,-700.31 546.87,-702.52 556.35,-707.25 557.23,-700.31"/>
</g>
<!-- Node35 -->
<g id="node35" class="node">
<title>Node35</title>
<g id="a_node35"><a xlink:href="../../d5/db6/ArrayHelpers_8hpp.html" target="_top" xlink:title=" ">
<polygon fill="white" stroke="black" points="834,-566 834,-585 1008,-585 1008,-566 834,-566"/>
<text text-anchor="middle" x="921" y="-573" font-family="Helvetica,sans-Serif" font-size="10.00">AH/Containers/ArrayHelpers.hpp</text>
</a>
</g>
</g>
<!-- Node27&#45;&gt;Node35 -->
<g id="edge70" class="edge">
<title>Node27&#45;&gt;Node35</title>
<path fill="none" stroke="midnightblue" d="M904.87,-739.26C907.5,-712.65 915.48,-632.21 919.13,-595.34"/>
<polygon fill="midnightblue" stroke="midnightblue" points="922.65,-595.32 920.16,-585.02 915.69,-594.63 922.65,-595.32"/>
</g>
<!-- Node28&#45;&gt;Node3 -->
<g id="edge52" class="edge">
<title>Node28&#45;&gt;Node3</title>
<path fill="none" stroke="midnightblue" d="M412.75,-689.76C280.65,-683.52 0,-660.39 0,-576.5 0,-576.5 0,-576.5 0,-121 0,-81.98 23.88,-72.99 59,-56 110.35,-31.16 476.62,-17.91 643.06,-13.12"/>
<polygon fill="midnightblue" stroke="midnightblue" points="643.35,-16.61 653.24,-12.83 643.15,-9.61 643.35,-16.61"/>
</g>
<!-- Node28&#45;&gt;Node4 -->
<g id="edge53" class="edge">
<title>Node28&#45;&gt;Node4</title>
<path fill="none" stroke="midnightblue" d="M464.09,-683.32C448.36,-674.74 424.06,-661.49 405.79,-651.52"/>
<polygon fill="midnightblue" stroke="midnightblue" points="407.32,-648.37 396.87,-646.65 403.97,-654.52 407.32,-648.37"/>
</g>
<!-- Node28&#45;&gt;Node11 -->
<g id="edge69" class="edge">
<title>Node28&#45;&gt;Node11</title>
<path fill="none" stroke="midnightblue" d="M479.21,-683.13C477.63,-669.74 473.01,-644.1 460,-627 450.14,-614.03 435.91,-603.49 422.24,-595.45"/>
<polygon fill="midnightblue" stroke="midnightblue" points="423.83,-592.33 413.39,-590.53 420.43,-598.45 423.83,-592.33"/>
</g>
<!-- Node29 -->
<g id="node29" class="node">
<title>Node29</title>
<g id="a_node29"><a xlink:href="../../d4/d93/Updatable_8hpp.html" target="_top" xlink:title=" ">
<polygon fill="white" stroke="black" points="993.5,-504.5 993.5,-523.5 1154.5,-523.5 1154.5,-504.5 993.5,-504.5"/>
<text text-anchor="middle" x="1074" y="-511.5" font-family="Helvetica,sans-Serif" font-size="10.00">AH/Containers/Updatable.hpp</text>
</a>
</g>
</g>
<!-- Node28&#45;&gt;Node29 -->
<g id="edge54" class="edge">
<title>Node28&#45;&gt;Node29</title>
<path fill="none" stroke="midnightblue" d="M502.37,-683.44C578.82,-654.19 825,-560 825,-560 882.1,-544.06 948.2,-532.42 997.93,-524.98"/>
<polygon fill="midnightblue" stroke="midnightblue" points="998.59,-528.42 1007.97,-523.5 997.57,-521.5 998.59,-528.42"/>
</g>
<!-- Node29&#45;&gt;Node3 -->
<g id="edge55" class="edge">
<title>Node29&#45;&gt;Node3</title>
<path fill="none" stroke="midnightblue" d="M1154.59,-513.88C1268.91,-513.67 1470.96,-507.47 1531,-468 1558.59,-449.86 1567,-436.02 1567,-403 1567,-403 1567,-403 1567,-121 1567,-44.85 1018.52,-19.97 806.91,-13.2"/>
<polygon fill="midnightblue" stroke="midnightblue" points="806.89,-9.7 796.79,-12.88 806.67,-16.69 806.89,-9.7"/>
</g>
<!-- Node29&#45;&gt;Node10 -->
<g id="edge65" class="edge">
<title>Node29&#45;&gt;Node10</title>
<path fill="none" stroke="midnightblue" d="M996.15,-504.47C949.8,-497.6 897.3,-486.06 883,-468 853.02,-430.13 931.05,-440.77 948,-412 975.25,-365.75 932.53,-197.39 917.16,-141.31"/>
<polygon fill="midnightblue" stroke="midnightblue" points="920.53,-140.36 914.48,-131.66 913.79,-142.24 920.53,-140.36"/>
</g>
<!-- Node29&#45;&gt;Node13 -->
<g id="edge64" class="edge">
<title>Node29&#45;&gt;Node13</title>
<path fill="none" stroke="midnightblue" d="M993.4,-504.53C890.74,-493.75 715.49,-475.34 622.4,-465.56"/>
<polygon fill="midnightblue" stroke="midnightblue" points="622.6,-462.06 612.29,-464.49 621.87,-469.02 622.6,-462.06"/>
</g>
<!-- Node29&#45;&gt;Node17 -->
<g id="edge67" class="edge">
<title>Node29&#45;&gt;Node17</title>
<path fill="none" stroke="midnightblue" d="M993.39,-504.86C949.68,-498.47 895.45,-487.3 850,-468 786.26,-440.93 722.01,-388.61 692.19,-362.54"/>
<polygon fill="midnightblue" stroke="midnightblue" points="694.21,-359.65 684.4,-355.64 689.57,-364.89 694.21,-359.65"/>
</g>
<!-- Node29&#45;&gt;Node22 -->
<g id="edge68" class="edge">
<title>Node29&#45;&gt;Node22</title>
<path fill="none" stroke="midnightblue" d="M1154.59,-509.5C1273.1,-503.63 1483.33,-490.22 1510,-468 1533.12,-448.73 1529,-433.1 1529,-403 1529,-403 1529,-403 1529,-345 1529,-253.97 1388.04,-237.65 1318.24,-235.15"/>
<polygon fill="midnightblue" stroke="midnightblue" points="1318.17,-231.65 1308.08,-234.87 1317.98,-238.64 1318.17,-231.65"/>
</g>
<!-- Node30 -->
<g id="node30" class="node">
<title>Node30</title>
<g id="a_node30"><a xlink:href="../../d4/dba/CRTP_8hpp.html" target="_top" xlink:title=" ">
<polygon fill="white" stroke="black" points="1367,-448.5 1367,-467.5 1501,-467.5 1501,-448.5 1367,-448.5"/>
<text text-anchor="middle" x="1434" y="-455.5" font-family="Helvetica,sans-Serif" font-size="10.00">AH/Containers/CRTP.hpp</text>
</a>
</g>
</g>
<!-- Node29&#45;&gt;Node30 -->
<g id="edge56" class="edge">
<title>Node29&#45;&gt;Node30</title>
<path fill="none" stroke="midnightblue" d="M1131.04,-504.44C1195.16,-494.83 1299.15,-479.23 1367.06,-469.04"/>
<polygon fill="midnightblue" stroke="midnightblue" points="1367.85,-472.46 1377.22,-467.52 1366.82,-465.54 1367.85,-472.46"/>
</g>
<!-- Node31 -->
<g id="node31" class="node">
<title>Node31</title>
<g id="a_node31"><a xlink:href="../../de/dd1/LinkedList_8hpp.html" target="_top" xlink:title=" ">
<polygon fill="white" stroke="black" points="891.5,-448.5 891.5,-467.5 1050.5,-467.5 1050.5,-448.5 891.5,-448.5"/>
<text text-anchor="middle" x="971" y="-455.5" font-family="Helvetica,sans-Serif" font-size="10.00">AH/Containers/LinkedList.hpp</text>
</a>
</g>
</g>
<!-- Node29&#45;&gt;Node31 -->
<g id="edge57" class="edge">
<title>Node29&#45;&gt;Node31</title>
<path fill="none" stroke="midnightblue" d="M1057.45,-504.32C1041.01,-495.7 1015.57,-482.36 996.53,-472.39"/>
<polygon fill="midnightblue" stroke="midnightblue" points="997.99,-469.2 987.51,-467.65 994.74,-475.4 997.99,-469.2"/>
</g>
<!-- Node33 -->
<g id="node33" class="node">
<title>Node33</title>
<g id="a_node33"><a xlink:href="../../d4/d84/Mutex_8hpp.html" target="_top" xlink:title=" ">
<polygon fill="white" stroke="black" points="1106.5,-448.5 1106.5,-467.5 1247.5,-467.5 1247.5,-448.5 1106.5,-448.5"/>
<text text-anchor="middle" x="1177" y="-455.5" font-family="Helvetica,sans-Serif" font-size="10.00">AH/Containers/Mutex.hpp</text>
</a>
</g>
</g>
<!-- Node29&#45;&gt;Node33 -->
<g id="edge63" class="edge">
<title>Node29&#45;&gt;Node33</title>
<path fill="none" stroke="midnightblue" d="M1090.55,-504.32C1106.99,-495.7 1132.43,-482.36 1151.47,-472.39"/>
<polygon fill="midnightblue" stroke="midnightblue" points="1153.26,-475.4 1160.49,-467.65 1150.01,-469.2 1153.26,-475.4"/>
</g>
<!-- Node34 -->
<g id="node34" class="node">
<title>Node34</title>
<g id="a_node34"><a xlink:title=" ">
<polygon fill="white" stroke="#bfbfbf" points="1265.5,-448.5 1265.5,-467.5 1348.5,-467.5 1348.5,-448.5 1265.5,-448.5"/>
<text text-anchor="middle" x="1307" y="-455.5" font-family="Helvetica,sans-Serif" font-size="10.00">AH/STL/utility</text>
</a>
</g>
</g>
<!-- Node29&#45;&gt;Node34 -->
<g id="edge66" class="edge">
<title>Node29&#45;&gt;Node34</title>
<path fill="none" stroke="midnightblue" d="M1110.92,-504.44C1151.4,-495.06 1216.42,-479.99 1260.38,-469.8"/>
<polygon fill="midnightblue" stroke="midnightblue" points="1261.3,-473.18 1270.25,-467.52 1259.72,-466.36 1261.3,-473.18"/>
</g>
<!-- Node31&#45;&gt;Node3 -->
<g id="edge58" class="edge">
<title>Node31&#45;&gt;Node3</title>
<path fill="none" stroke="midnightblue" d="M1028.71,-448.45C1079.32,-440.16 1148.42,-426.73 1172,-412 1203.38,-392.41 1224,-384 1224,-347 1224,-347 1224,-347 1224,-121 1224,-82.28 1200.48,-73.6 1166,-56 1105.18,-24.95 916.77,-15.33 806.88,-12.34"/>
<polygon fill="midnightblue" stroke="midnightblue" points="806.91,-8.84 796.83,-12.08 806.73,-15.84 806.91,-8.84"/>
</g>
<!-- Node31&#45;&gt;Node7 -->
<g id="edge60" class="edge">
<title>Node31&#45;&gt;Node7</title>
<path fill="none" stroke="midnightblue" d="M1050.75,-448.45C1111.94,-436.94 1186,-410 1186,-347 1186,-347 1186,-347 1186,-233 1186,-182.39 1128.2,-150.81 1088.52,-135.09"/>
<polygon fill="midnightblue" stroke="midnightblue" points="1089.71,-131.8 1079.12,-131.53 1087.23,-138.35 1089.71,-131.8"/>
</g>
<!-- Node31&#45;&gt;Node14 -->
<g id="edge59" class="edge">
<title>Node31&#45;&gt;Node14</title>
<path fill="none" stroke="midnightblue" d="M905.88,-448.44C830.92,-438.6 708.25,-422.48 630.93,-412.32"/>
<polygon fill="midnightblue" stroke="midnightblue" points="631.17,-408.82 620.8,-410.99 630.26,-415.76 631.17,-408.82"/>
</g>
<!-- Node31&#45;&gt;Node26 -->
<g id="edge62" class="edge">
<title>Node31&#45;&gt;Node26</title>
<path fill="none" stroke="midnightblue" d="M953.33,-448.32C935.61,-439.62 908.1,-426.12 887.71,-416.11"/>
<polygon fill="midnightblue" stroke="midnightblue" points="889.15,-412.92 878.63,-411.65 886.06,-419.2 889.15,-412.92"/>
</g>
<!-- Node32 -->
<g id="node32" class="node">
<title>Node32</title>
<g id="a_node32"><a xlink:title=" ">
<polygon fill="white" stroke="#bfbfbf" points="1000.5,-392.5 1000.5,-411.5 1053.5,-411.5 1053.5,-392.5 1000.5,-392.5"/>
<text text-anchor="middle" x="1027" y="-399.5" font-family="Helvetica,sans-Serif" font-size="10.00">stdlib.h</text>
</a>
</g>
</g>
<!-- Node31&#45;&gt;Node32 -->
<g id="edge61" class="edge">
<title>Node31&#45;&gt;Node32</title>
<path fill="none" stroke="midnightblue" d="M980,-448.32C988.19,-440.42 1000.51,-428.55 1010.47,-418.94"/>
<polygon fill="midnightblue" stroke="midnightblue" points="1013.07,-421.29 1017.84,-411.83 1008.21,-416.26 1013.07,-421.29"/>
</g>
<!-- Node35&#45;&gt;Node3 -->
<g id="edge71" class="edge">
<title>Node35&#45;&gt;Node3</title>
<path fill="none" stroke="midnightblue" d="M1008.32,-570.86C1192.72,-560.79 1605,-524.66 1605,-403 1605,-403 1605,-403 1605,-121 1605,-48.75 1526.24,-72.92 1456,-56 1334.85,-26.81 970.64,-15.94 806.63,-12.45"/>
<polygon fill="midnightblue" stroke="midnightblue" points="806.66,-8.95 796.59,-12.24 806.52,-15.94 806.66,-8.95"/>
</g>
<!-- Node35&#45;&gt;Node12 -->
<g id="edge72" class="edge">
<title>Node35&#45;&gt;Node12</title>
<path fill="none" stroke="midnightblue" d="M879.88,-565.98C828.52,-555.33 740.64,-537.11 685.04,-525.58"/>
<polygon fill="midnightblue" stroke="midnightblue" points="685.55,-522.11 675.04,-523.51 684.13,-528.97 685.55,-522.11"/>
</g>
<!-- Node35&#45;&gt;Node15 -->
<g id="edge74" class="edge">
<title>Node35&#45;&gt;Node15</title>
<path fill="none" stroke="midnightblue" d="M913.94,-565.74C895.01,-542 842.21,-474.04 807,-412 788.74,-379.82 789.3,-369.22 773,-336 760.56,-310.65 762.92,-300.02 743,-280 728.99,-265.92 709.64,-255.08 693.14,-247.58"/>
<polygon fill="midnightblue" stroke="midnightblue" points="694.39,-244.3 683.83,-243.54 691.61,-250.73 694.39,-244.3"/>
</g>
<!-- Node36 -->
<g id="node36" class="node">
<title>Node36</title>
<g id="a_node36"><a xlink:title=" ">
<polygon fill="white" stroke="#bfbfbf" points="1513.5,-504.5 1513.5,-523.5 1614.5,-523.5 1614.5,-504.5 1513.5,-504.5"/>
<text text-anchor="middle" x="1564" y="-511.5" font-family="Helvetica,sans-Serif" font-size="10.00">AH/STL/algorithm</text>
</a>
</g>
</g>
<!-- Node35&#45;&gt;Node36 -->
<g id="edge73" class="edge">
<title>Node35&#45;&gt;Node36</title>
<path fill="none" stroke="midnightblue" d="M1008.29,-568.25C1121.58,-559.83 1325.34,-543.6 1499,-524 1500.31,-523.85 1501.63,-523.7 1502.96,-523.54"/>
<polygon fill="midnightblue" stroke="midnightblue" points="1503.79,-526.97 1513.29,-522.27 1502.94,-520.02 1503.79,-526.97"/>
</g>
<!-- Node37&#45;&gt;Node3 -->
<g id="edge76" class="edge">
<title>Node37&#45;&gt;Node3</title>
<path fill="none" stroke="midnightblue" d="M254.21,-504.41C217.25,-489.83 152,-456.53 152,-403 152,-403 152,-403 152,-121 152,-49.16 230.57,-74.45 300,-56 416.75,-24.99 556.89,-15.22 643.45,-12.22"/>
<polygon fill="midnightblue" stroke="midnightblue" points="643.6,-15.72 653.48,-11.89 643.37,-8.72 643.6,-15.72"/>
</g>
<!-- Node37&#45;&gt;Node5 -->
<g id="edge78" class="edge">
<title>Node37&#45;&gt;Node5</title>
<path fill="none" stroke="midnightblue" d="M277.3,-504.48C273.78,-486.06 266,-441.08 266,-403 266,-403 266,-403 266,-345 266,-224.64 322.61,-200.67 404,-112 415.19,-99.81 430.19,-88.94 442.74,-80.93"/>
<polygon fill="midnightblue" stroke="midnightblue" points="444.68,-83.85 451.36,-75.63 441.01,-77.89 444.68,-83.85"/>
</g>
<!-- Node37&#45;&gt;Node13 -->
<g id="edge77" class="edge">
<title>Node37&#45;&gt;Node13</title>
<path fill="none" stroke="midnightblue" d="M323.53,-504.44C372.96,-494.94 452.75,-479.61 505.78,-469.42"/>
<polygon fill="midnightblue" stroke="midnightblue" points="506.52,-472.84 515.68,-467.52 505.2,-465.97 506.52,-472.84"/>
</g>
<!-- Node37&#45;&gt;Node23 -->
<g id="edge79" class="edge">
<title>Node37&#45;&gt;Node23</title>
<path fill="none" stroke="midnightblue" d="M271.69,-504.23C257.59,-486.39 228,-444.05 228,-403 228,-403 228,-403 228,-345 228,-312.58 220.7,-275.42 215.67,-253.64"/>
<polygon fill="midnightblue" stroke="midnightblue" points="219.03,-252.67 213.29,-243.77 212.23,-254.31 219.03,-252.67"/>
</g>
</g>
</svg>
