<?xml version="1.0" encoding="UTF-8" standalone="no"?>
<!DOCTYPE svg PUBLIC "-//W3C//DTD SVG 1.1//EN"
 "http://www.w3.org/Graphics/SVG/1.1/DTD/svg11.dtd">
<!-- Generated by graphviz version 2.40.1 (20161225.0304)
 -->
<!-- Title: CCPotentiometer&lt; NumBanks &gt; Pages: 1 -->
<svg width="733pt" height="1070pt"
 viewBox="0.00 0.00 733.00 1070.00" xmlns="http://www.w3.org/2000/svg" xmlns:xlink="http://www.w3.org/1999/xlink">
<g id="graph0" class="graph" transform="scale(1 1) rotate(0) translate(4 1066)">
<title>CCPotentiometer&lt; NumBanks &gt;</title>
<polygon fill="#ffffff" stroke="transparent" points="-4,4 -4,-1066 729,-1066 729,4 -4,4"/>
<!-- Node1 -->
<g id="node1" class="node">
<title>Node1</title>
<g id="a_node1"><a xlink:title="A class of MIDIOutputElements that read the analog input from a potentiometer or fader,...">
<polygon fill="#bfbfbf" stroke="#000000" points="335,-.5 335,-57.5 494,-57.5 494,-.5 335,-.5"/>
<text text-anchor="middle" x="414.5" y="-45.5" font-family="Helvetica,sans-Serif" font-size="10.00" fill="#000000">CCPotentiometer&lt; NumBanks &gt;</text>
<polyline fill="none" stroke="#000000" points="335,-38.5 494,-38.5 "/>
<text text-anchor="middle" x="414.5" y="-26.5" font-family="Helvetica,sans-Serif" font-size="10.00" fill="#000000"> </text>
<polyline fill="none" stroke="#000000" points="335,-19.5 494,-19.5 "/>
<text text-anchor="start" x="343" y="-7.5" font-family="Helvetica,sans-Serif" font-size="10.00" fill="#000000">+ CCPotentiometer()</text>
</a>
</g>
</g>
<!-- Node2 -->
<g id="node2" class="node">
<title>Node2</title>
<g id="a_node2"><a xlink:href="../../d1/d5a/classBankable_1_1MIDIFilteredAnalogAddressable.html" target="_top" xlink:title=" ">
<polygon fill="#ffffff" stroke="#000000" points="330,-95.5 330,-240.5 499,-240.5 499,-95.5 330,-95.5"/>
<text text-anchor="start" x="338" y="-228.5" font-family="Helvetica,sans-Serif" font-size="10.00" fill="#000000">MIDIFilteredAnalogAddressable</text>
<text text-anchor="start" x="338" y="-217.5" font-family="Helvetica,sans-Serif" font-size="10.00" fill="#000000">&lt; ManyAddresses&lt; NumBanks</text>
<text text-anchor="middle" x="414.5" y="-206.5" font-family="Helvetica,sans-Serif" font-size="10.00" fill="#000000"> &gt;, ContinuousCCSender &gt;</text>
<polyline fill="none" stroke="#000000" points="330,-199.5 499,-199.5 "/>
<text text-anchor="start" x="338" y="-187.5" font-family="Helvetica,sans-Serif" font-size="10.00" fill="#000000">&#45; address</text>
<polyline fill="none" stroke="#000000" points="330,-180.5 499,-180.5 "/>
<text text-anchor="start" x="338" y="-168.5" font-family="Helvetica,sans-Serif" font-size="10.00" fill="#000000">+ begin()</text>
<text text-anchor="start" x="338" y="-157.5" font-family="Helvetica,sans-Serif" font-size="10.00" fill="#000000">+ update()</text>
<text text-anchor="start" x="338" y="-146.5" font-family="Helvetica,sans-Serif" font-size="10.00" fill="#000000">+ map()</text>
<text text-anchor="start" x="338" y="-135.5" font-family="Helvetica,sans-Serif" font-size="10.00" fill="#000000">+ invert()</text>
<text text-anchor="start" x="338" y="-124.5" font-family="Helvetica,sans-Serif" font-size="10.00" fill="#000000">+ getRawValue()</text>
<text text-anchor="start" x="338" y="-113.5" font-family="Helvetica,sans-Serif" font-size="10.00" fill="#000000">+ getValue()</text>
<text text-anchor="start" x="338" y="-102.5" font-family="Helvetica,sans-Serif" font-size="10.00" fill="#000000"># MIDIFilteredAnalogAddressable()</text>
</a>
</g>
</g>
<!-- Node2&#45;&gt;Node1 -->
<g id="edge1" class="edge">
<title>Node2&#45;&gt;Node1</title>
<path fill="none" stroke="#191970" d="M414.5,-84.9457C414.5,-75.161 414.5,-65.7491 414.5,-57.5272"/>
<polygon fill="none" stroke="#191970" points="411.0001,-85.2432 414.5,-95.2432 418.0001,-85.2433 411.0001,-85.2432"/>
</g>
<!-- Node3 -->
<g id="node3" class="node">
<title>Node3</title>
<g id="a_node3"><a xlink:href="../../d1/d55/classAH_1_1Updatable.html" target="_top" xlink:title=" ">
<polygon fill="#ffffff" stroke="#000000" points="196.5,-316 196.5,-406 300.5,-406 300.5,-316 196.5,-316"/>
<text text-anchor="middle" x="248.5" y="-394" font-family="Helvetica,sans-Serif" font-size="10.00" fill="#000000">MIDIOutputElement</text>
<polyline fill="none" stroke="#000000" points="196.5,-387 300.5,-387 "/>
<text text-anchor="middle" x="248.5" y="-375" font-family="Helvetica,sans-Serif" font-size="10.00" fill="#000000"> </text>
<polyline fill="none" stroke="#000000" points="196.5,-368 300.5,-368 "/>
<text text-anchor="start" x="204.5" y="-356" font-family="Helvetica,sans-Serif" font-size="10.00" fill="#000000">* begin()</text>
<text text-anchor="start" x="204.5" y="-345" font-family="Helvetica,sans-Serif" font-size="10.00" fill="#000000">* update()</text>
<text text-anchor="start" x="204.5" y="-334" font-family="Helvetica,sans-Serif" font-size="10.00" fill="#000000">* beginAll()</text>
<text text-anchor="start" x="204.5" y="-323" font-family="Helvetica,sans-Serif" font-size="10.00" fill="#000000">* updateAll()</text>
</a>
</g>
</g>
<!-- Node3&#45;&gt;Node2 -->
<g id="edge2" class="edge">
<title>Node3&#45;&gt;Node2</title>
<path fill="none" stroke="#191970" d="M294.128,-307.9506C312.0304,-287.1363 332.8646,-262.9134 352.1185,-240.5279"/>
<polygon fill="none" stroke="#191970" points="291.287,-305.8863 287.4196,-315.7501 296.594,-310.4509 291.287,-305.8863"/>
</g>
<!-- Node4 -->
<g id="node4" class="node">
<title>Node4</title>
<g id="a_node4"><a xlink:href="../../d8/d1a/classAH_1_1UpdatableCRTP.html" target="_top" xlink:title=" ">
<polygon fill="#ffffff" stroke="#000000" points="76.5,-481.5 76.5,-670.5 218.5,-670.5 218.5,-481.5 76.5,-481.5"/>
<text text-anchor="start" x="84.5" y="-658.5" font-family="Helvetica,sans-Serif" font-size="10.00" fill="#000000">UpdatableCRTP&lt; Updatable</text>
<text text-anchor="middle" x="147.5" y="-647.5" font-family="Helvetica,sans-Serif" font-size="10.00" fill="#000000">&lt; NormalUpdatable &gt; &gt;</text>
<polyline fill="none" stroke="#000000" points="76.5,-640.5 218.5,-640.5 "/>
<text text-anchor="middle" x="147.5" y="-628.5" font-family="Helvetica,sans-Serif" font-size="10.00" fill="#000000"> </text>
<polyline fill="none" stroke="#000000" points="76.5,-621.5 218.5,-621.5 "/>
<text text-anchor="start" x="84.5" y="-609.5" font-family="Helvetica,sans-Serif" font-size="10.00" fill="#000000">+ ~UpdatableCRTP()</text>
<text text-anchor="start" x="84.5" y="-598.5" font-family="Helvetica,sans-Serif" font-size="10.00" fill="#000000"># UpdatableCRTP()</text>
<text text-anchor="start" x="84.5" y="-587.5" font-family="Helvetica,sans-Serif" font-size="10.00" fill="#000000">* enable()</text>
<text text-anchor="start" x="84.5" y="-576.5" font-family="Helvetica,sans-Serif" font-size="10.00" fill="#000000">* disable()</text>
<text text-anchor="start" x="84.5" y="-565.5" font-family="Helvetica,sans-Serif" font-size="10.00" fill="#000000">* isEnabled()</text>
<text text-anchor="start" x="84.5" y="-554.5" font-family="Helvetica,sans-Serif" font-size="10.00" fill="#000000">* enable()</text>
<text text-anchor="start" x="84.5" y="-543.5" font-family="Helvetica,sans-Serif" font-size="10.00" fill="#000000">* enable()</text>
<text text-anchor="start" x="84.5" y="-532.5" font-family="Helvetica,sans-Serif" font-size="10.00" fill="#000000">* enable()</text>
<text text-anchor="start" x="84.5" y="-521.5" font-family="Helvetica,sans-Serif" font-size="10.00" fill="#000000">* disable()</text>
<text text-anchor="start" x="84.5" y="-510.5" font-family="Helvetica,sans-Serif" font-size="10.00" fill="#000000">* disable()</text>
<text text-anchor="start" x="84.5" y="-499.5" font-family="Helvetica,sans-Serif" font-size="10.00" fill="#000000">* disable()</text>
<text text-anchor="start" x="84.5" y="-488.5" font-family="Helvetica,sans-Serif" font-size="10.00" fill="#000000">* applyToAll()</text>
</a>
</g>
</g>
<!-- Node4&#45;&gt;Node3 -->
<g id="edge3" class="edge">
<title>Node4&#45;&gt;Node3</title>
<path fill="none" stroke="#191970" d="M196.2789,-472.1638C207.1827,-448.9527 218.1936,-425.5136 227.2752,-406.1816"/>
<polygon fill="none" stroke="#191970" points="193.0311,-470.8458 191.947,-481.385 199.3669,-473.8221 193.0311,-470.8458"/>
</g>
<!-- Node5 -->
<g id="node5" class="node">
<title>Node5</title>
<g id="a_node5"><a xlink:href="../../d4/d23/classDoublyLinkable.html" target="_top" xlink:title=" ">
<polygon fill="#ffffff" stroke="#000000" points="0,-872.5 0,-951.5 137,-951.5 137,-872.5 0,-872.5"/>
<text text-anchor="start" x="8" y="-939.5" font-family="Helvetica,sans-Serif" font-size="10.00" fill="#000000">DoublyLinkable&lt; Updatable</text>
<text text-anchor="middle" x="68.5" y="-928.5" font-family="Helvetica,sans-Serif" font-size="10.00" fill="#000000">&lt; NormalUpdatable &gt; &gt;</text>
<polyline fill="none" stroke="#000000" points="0,-921.5 137,-921.5 "/>
<text text-anchor="start" x="8" y="-909.5" font-family="Helvetica,sans-Serif" font-size="10.00" fill="#000000"># next</text>
<text text-anchor="start" x="8" y="-898.5" font-family="Helvetica,sans-Serif" font-size="10.00" fill="#000000"># previous</text>
<polyline fill="none" stroke="#000000" points="0,-891.5 137,-891.5 "/>
<text text-anchor="start" x="8" y="-879.5" font-family="Helvetica,sans-Serif" font-size="10.00" fill="#000000"># ~DoublyLinkable()</text>
</a>
</g>
</g>
<!-- Node5&#45;&gt;Node4 -->
<g id="edge4" class="edge">
<title>Node5&#45;&gt;Node4</title>
<path fill="none" stroke="#191970" d="M80.138,-862.5016C91.9608,-812.2175 110.5684,-733.0763 125.2337,-670.7023"/>
<polygon fill="none" stroke="#191970" points="76.6764,-861.9328 77.7946,-872.4685 83.4906,-863.535 76.6764,-861.9328"/>
</g>
<!-- Node6 -->
<g id="node6" class="node">
<title>Node6</title>
<g id="a_node6"><a xlink:href="../../dd/d16/classDoublyLinkedList.html" target="_top" xlink:title=" ">
<polygon fill="#ffffff" stroke="#000000" points="155,-762.5 155,-1061.5 300,-1061.5 300,-762.5 155,-762.5"/>
<text text-anchor="start" x="163" y="-1049.5" font-family="Helvetica,sans-Serif" font-size="10.00" fill="#000000">DoublyLinkedList&lt; Updatable</text>
<text text-anchor="middle" x="227.5" y="-1038.5" font-family="Helvetica,sans-Serif" font-size="10.00" fill="#000000">&lt; NormalUpdatable &gt; &gt;</text>
<polyline fill="none" stroke="#000000" points="155,-1031.5 300,-1031.5 "/>
<text text-anchor="start" x="163" y="-1019.5" font-family="Helvetica,sans-Serif" font-size="10.00" fill="#000000">&#45; first</text>
<text text-anchor="start" x="163" y="-1008.5" font-family="Helvetica,sans-Serif" font-size="10.00" fill="#000000">&#45; last</text>
<polyline fill="none" stroke="#000000" points="155,-1001.5 300,-1001.5 "/>
<text text-anchor="start" x="163" y="-989.5" font-family="Helvetica,sans-Serif" font-size="10.00" fill="#000000">+ append()</text>
<text text-anchor="start" x="163" y="-978.5" font-family="Helvetica,sans-Serif" font-size="10.00" fill="#000000">+ append()</text>
<text text-anchor="start" x="163" y="-967.5" font-family="Helvetica,sans-Serif" font-size="10.00" fill="#000000">+ insertBefore()</text>
<text text-anchor="start" x="163" y="-956.5" font-family="Helvetica,sans-Serif" font-size="10.00" fill="#000000">+ insertBefore()</text>
<text text-anchor="start" x="163" y="-945.5" font-family="Helvetica,sans-Serif" font-size="10.00" fill="#000000">+ insertSorted()</text>
<text text-anchor="start" x="163" y="-934.5" font-family="Helvetica,sans-Serif" font-size="10.00" fill="#000000">+ insertSorted()</text>
<text text-anchor="start" x="163" y="-923.5" font-family="Helvetica,sans-Serif" font-size="10.00" fill="#000000">+ remove()</text>
<text text-anchor="start" x="163" y="-912.5" font-family="Helvetica,sans-Serif" font-size="10.00" fill="#000000">+ remove()</text>
<text text-anchor="start" x="163" y="-901.5" font-family="Helvetica,sans-Serif" font-size="10.00" fill="#000000">+ moveDown()</text>
<text text-anchor="start" x="163" y="-890.5" font-family="Helvetica,sans-Serif" font-size="10.00" fill="#000000">+ couldContain()</text>
<text text-anchor="start" x="163" y="-879.5" font-family="Helvetica,sans-Serif" font-size="10.00" fill="#000000">+ couldContain()</text>
<text text-anchor="start" x="163" y="-868.5" font-family="Helvetica,sans-Serif" font-size="10.00" fill="#000000">+ begin()</text>
<text text-anchor="start" x="163" y="-857.5" font-family="Helvetica,sans-Serif" font-size="10.00" fill="#000000">+ begin()</text>
<text text-anchor="start" x="163" y="-846.5" font-family="Helvetica,sans-Serif" font-size="10.00" fill="#000000">+ end()</text>
<text text-anchor="start" x="163" y="-835.5" font-family="Helvetica,sans-Serif" font-size="10.00" fill="#000000">+ end()</text>
<text text-anchor="start" x="163" y="-824.5" font-family="Helvetica,sans-Serif" font-size="10.00" fill="#000000">+ rbegin()</text>
<text text-anchor="start" x="163" y="-813.5" font-family="Helvetica,sans-Serif" font-size="10.00" fill="#000000">+ rbegin()</text>
<text text-anchor="start" x="163" y="-802.5" font-family="Helvetica,sans-Serif" font-size="10.00" fill="#000000">+ rend()</text>
<text text-anchor="start" x="163" y="-791.5" font-family="Helvetica,sans-Serif" font-size="10.00" fill="#000000">+ rend()</text>
<text text-anchor="start" x="163" y="-780.5" font-family="Helvetica,sans-Serif" font-size="10.00" fill="#000000">+ getFirst()</text>
<text text-anchor="start" x="163" y="-769.5" font-family="Helvetica,sans-Serif" font-size="10.00" fill="#000000">+ getLast()</text>
</a>
</g>
</g>
<!-- Node6&#45;&gt;Node4 -->
<g id="edge5" class="edge">
<title>Node6&#45;&gt;Node4</title>
<path fill="none" stroke="#404040" d="M191.8284,-762.1792C185.4257,-735.288 178.8734,-707.7682 172.8379,-682.4192"/>
<polygon fill="none" stroke="#404040" points="172.7915,-682.2238 167.5105,-677.3134 170.0119,-670.5501 175.2929,-675.4604 172.7915,-682.2238"/>
<text text-anchor="middle" x="215.5" y="-714" font-family="Helvetica,sans-Serif" font-size="10.00" fill="#000000"> #updatables</text>
</g>
<!-- Node7 -->
<g id="node7" class="node">
<title>Node7</title>
<g id="a_node7"><a xlink:href="../../d3/d6e/classAH_1_1FilteredAnalog.html" target="_top" xlink:title=" ">
<polygon fill="#ffffff" stroke="#000000" points="355,-288.5 355,-433.5 474,-433.5 474,-288.5 355,-288.5"/>
<text text-anchor="start" x="363" y="-421.5" font-family="Helvetica,sans-Serif" font-size="10.00" fill="#000000">FilteredAnalog&lt; Sender</text>
<text text-anchor="middle" x="414.5" y="-410.5" font-family="Helvetica,sans-Serif" font-size="10.00" fill="#000000">::precision()&gt;</text>
<polyline fill="none" stroke="#000000" points="355,-403.5 474,-403.5 "/>
<text text-anchor="middle" x="414.5" y="-391.5" font-family="Helvetica,sans-Serif" font-size="10.00" fill="#000000"> </text>
<polyline fill="none" stroke="#000000" points="355,-384.5 474,-384.5 "/>
<text text-anchor="start" x="363" y="-372.5" font-family="Helvetica,sans-Serif" font-size="10.00" fill="#000000">+ FilteredAnalog()</text>
<text text-anchor="start" x="363" y="-361.5" font-family="Helvetica,sans-Serif" font-size="10.00" fill="#000000">+ map()</text>
<text text-anchor="start" x="363" y="-350.5" font-family="Helvetica,sans-Serif" font-size="10.00" fill="#000000">+ invert()</text>
<text text-anchor="start" x="363" y="-339.5" font-family="Helvetica,sans-Serif" font-size="10.00" fill="#000000">+ update()</text>
<text text-anchor="start" x="363" y="-328.5" font-family="Helvetica,sans-Serif" font-size="10.00" fill="#000000">+ getValue()</text>
<text text-anchor="start" x="363" y="-317.5" font-family="Helvetica,sans-Serif" font-size="10.00" fill="#000000">+ getFloatValue()</text>
<text text-anchor="start" x="363" y="-306.5" font-family="Helvetica,sans-Serif" font-size="10.00" fill="#000000">+ getRawValue()</text>
<text text-anchor="start" x="363" y="-295.5" font-family="Helvetica,sans-Serif" font-size="10.00" fill="#000000">+ setupADC()</text>
</a>
</g>
</g>
<!-- Node7&#45;&gt;Node2 -->
<g id="edge6" class="edge">
<title>Node7&#45;&gt;Node2</title>
<path fill="none" stroke="#404040" d="M414.5,-288.31C414.5,-276.7313 414.5,-264.6647 414.5,-252.8355"/>
<polygon fill="none" stroke="#404040" points="414.5001,-252.6245 410.5,-246.6245 414.5,-240.6245 418.5,-246.6245 414.5001,-252.6245"/>
<text text-anchor="middle" x="447.5" y="-262" font-family="Helvetica,sans-Serif" font-size="10.00" fill="#000000"> &#45;filteredAnalog</text>
</g>
<!-- Node8 -->
<g id="node8" class="node">
<title>Node8</title>
<g id="a_node8"><a xlink:href="../../d7/d40/classEMA.html" target="_top" xlink:title=" ">
<polygon fill="#ffffff" stroke="#000000" points="237,-525.5 237,-626.5 382,-626.5 382,-525.5 237,-525.5"/>
<text text-anchor="start" x="245" y="-614.5" font-family="Helvetica,sans-Serif" font-size="10.00" fill="#000000">EMA&lt; ANALOG_FILTER</text>
<text text-anchor="start" x="245" y="-603.5" font-family="Helvetica,sans-Serif" font-size="10.00" fill="#000000">_SHIFT_FACTOR, ANALOG</text>
<text text-anchor="middle" x="309.5" y="-592.5" font-family="Helvetica,sans-Serif" font-size="10.00" fill="#000000">_FILTER_TYPE &gt;</text>
<polyline fill="none" stroke="#000000" points="237,-585.5 382,-585.5 "/>
<text text-anchor="start" x="245" y="-573.5" font-family="Helvetica,sans-Serif" font-size="10.00" fill="#000000">&#45; filtered</text>
<text text-anchor="start" x="245" y="-562.5" font-family="Helvetica,sans-Serif" font-size="10.00" fill="#000000">&#45; fixedPointAHalf</text>
<polyline fill="none" stroke="#000000" points="237,-555.5 382,-555.5 "/>
<text text-anchor="start" x="245" y="-543.5" font-family="Helvetica,sans-Serif" font-size="10.00" fill="#000000">+ filter()</text>
<text text-anchor="start" x="245" y="-532.5" font-family="Helvetica,sans-Serif" font-size="10.00" fill="#000000">+ operator()()</text>
</a>
</g>
</g>
<!-- Node8&#45;&gt;Node7 -->
<g id="edge7" class="edge">
<title>Node8&#45;&gt;Node7</title>
<path fill="none" stroke="#404040" d="M334.2506,-525.3203C345.974,-501.3152 360.288,-472.0055 373.5639,-444.8215"/>
<polygon fill="none" stroke="#404040" points="373.7166,-444.5088 372.7554,-437.362 378.9827,-433.7259 379.9439,-440.8727 373.7166,-444.5088"/>
<text text-anchor="middle" x="381" y="-455" font-family="Helvetica,sans-Serif" font-size="10.00" fill="#000000"> &#45;filter</text>
</g>
<!-- Node9 -->
<g id="node9" class="node">
<title>Node9</title>
<g id="a_node9"><a xlink:title=" ">
<polygon fill="#ffffff" stroke="#bfbfbf" points="400.5,-547.5 400.5,-604.5 438.5,-604.5 438.5,-547.5 400.5,-547.5"/>
<text text-anchor="middle" x="419.5" y="-592.5" font-family="Helvetica,sans-Serif" font-size="10.00" fill="#000000">pin_t</text>
<polyline fill="none" stroke="#bfbfbf" points="400.5,-585.5 438.5,-585.5 "/>
<text text-anchor="middle" x="419.5" y="-573.5" font-family="Helvetica,sans-Serif" font-size="10.00" fill="#000000"> </text>
<polyline fill="none" stroke="#bfbfbf" points="400.5,-566.5 438.5,-566.5 "/>
<text text-anchor="middle" x="419.5" y="-554.5" font-family="Helvetica,sans-Serif" font-size="10.00" fill="#000000"> </text>
</a>
</g>
</g>
<!-- Node9&#45;&gt;Node7 -->
<g id="edge8" class="edge">
<title>Node9&#45;&gt;Node7</title>
<path fill="none" stroke="#404040" d="M418.2777,-547.2101C417.3575,-524.3776 416.1475,-491.653 415.5,-463 415.3729,-457.376 415.262,-451.5772 415.1651,-445.7336"/>
<polygon fill="none" stroke="#404040" points="415.165,-445.7162 411.0756,-439.7767 414.9854,-433.7175 419.0748,-439.657 415.165,-445.7162"/>
<text text-anchor="middle" x="440" y="-455" font-family="Helvetica,sans-Serif" font-size="10.00" fill="#000000"> &#45;analogPin</text>
</g>
<!-- Node10 -->
<g id="node10" class="node">
<title>Node10</title>
<g id="a_node10"><a xlink:href="../../d2/dcb/classHysteresis.html" target="_top" xlink:title=" ">
<polygon fill="#ffffff" stroke="#000000" points="534,-509 534,-643 725,-643 725,-509 534,-509"/>
<text text-anchor="start" x="542" y="-631" font-family="Helvetica,sans-Serif" font-size="10.00" fill="#000000">Hysteresis&lt; ADC_BITS</text>
<text text-anchor="start" x="542" y="-620" font-family="Helvetica,sans-Serif" font-size="10.00" fill="#000000">+min(sizeof(ANALOG_FILTER</text>
<text text-anchor="start" x="542" y="-609" font-family="Helvetica,sans-Serif" font-size="10.00" fill="#000000">_TYPE) *CHAR_BIT &#45; ADC_BITS</text>
<text text-anchor="start" x="542" y="-598" font-family="Helvetica,sans-Serif" font-size="10.00" fill="#000000"> &#45; ANALOG_FILTER_SHIFT_FACTOR,</text>
<text text-anchor="start" x="542" y="-587" font-family="Helvetica,sans-Serif" font-size="10.00" fill="#000000"> sizeof(analog_t) *CHAR_BIT </text>
<text text-anchor="start" x="542" y="-576" font-family="Helvetica,sans-Serif" font-size="10.00" fill="#000000">&#45; ADC_BITS) &#45; Precision, analog</text>
<text text-anchor="middle" x="629.5" y="-565" font-family="Helvetica,sans-Serif" font-size="10.00" fill="#000000">_t, analog_t &gt;</text>
<polyline fill="none" stroke="#000000" points="534,-558 725,-558 "/>
<text text-anchor="middle" x="629.5" y="-546" font-family="Helvetica,sans-Serif" font-size="10.00" fill="#000000"> </text>
<polyline fill="none" stroke="#000000" points="534,-539 725,-539 "/>
<text text-anchor="start" x="542" y="-527" font-family="Helvetica,sans-Serif" font-size="10.00" fill="#000000">+ update()</text>
<text text-anchor="start" x="542" y="-516" font-family="Helvetica,sans-Serif" font-size="10.00" fill="#000000">+ getValue()</text>
</a>
</g>
</g>
<!-- Node10&#45;&gt;Node7 -->
<g id="edge9" class="edge">
<title>Node10&#45;&gt;Node7</title>
<path fill="none" stroke="#404040" d="M559.1057,-508.6956C534.9241,-485.2696 507.8269,-458.6766 483.5,-434 483.2131,-433.7089 482.9256,-433.4171 482.6376,-433.1245"/>
<polygon fill="none" stroke="#404040" points="482.563,-433.0481 475.509,-431.5508 474.178,-424.4636 481.232,-425.9608 482.563,-433.0481"/>
<text text-anchor="middle" x="536.5" y="-455" font-family="Helvetica,sans-Serif" font-size="10.00" fill="#000000"> &#45;hysteresis</text>
</g>
<!-- Node11 -->
<g id="node11" class="node">
<title>Node11</title>
<g id="a_node11"><a xlink:title=" ">
<polygon fill="#ffffff" stroke="#bfbfbf" points="498,-883.5 498,-940.5 551,-940.5 551,-883.5 498,-883.5"/>
<text text-anchor="middle" x="524.5" y="-928.5" font-family="Helvetica,sans-Serif" font-size="10.00" fill="#000000">analog_t</text>
<polyline fill="none" stroke="#bfbfbf" points="498,-921.5 551,-921.5 "/>
<text text-anchor="middle" x="524.5" y="-909.5" font-family="Helvetica,sans-Serif" font-size="10.00" fill="#000000"> </text>
<polyline fill="none" stroke="#bfbfbf" points="498,-902.5 551,-902.5 "/>
<text text-anchor="middle" x="524.5" y="-890.5" font-family="Helvetica,sans-Serif" font-size="10.00" fill="#000000"> </text>
</a>
</g>
</g>
<!-- Node11&#45;&gt;Node7 -->
<g id="edge11" class="edge">
<title>Node11&#45;&gt;Node7</title>
<path fill="none" stroke="#404040" d="M519.871,-883.4846C512.6407,-838.4309 498.4646,-747.9866 488.5,-671 475.9313,-573.894 493.9771,-545.3738 464.5,-452 463.7475,-449.6162 462.9297,-447.2237 462.0561,-444.8303"/>
<polygon fill="none" stroke="#404040" points="462.0434,-444.7984 456.104,-440.7089 457.5945,-433.6535 463.5339,-437.743 462.0434,-444.7984"/>
<text text-anchor="middle" x="507" y="-573.5" font-family="Helvetica,sans-Serif" font-size="10.00" fill="#000000"> &#45;mapFn</text>
</g>
<!-- Node11&#45;&gt;Node10 -->
<g id="edge10" class="edge">
<title>Node11&#45;&gt;Node10</title>
<path fill="none" stroke="#404040" d="M533.4522,-883.3528C549.1283,-833.1895 582.0561,-727.8206 604.9597,-654.529"/>
<polygon fill="none" stroke="#404040" points="604.966,-654.5087 602.9377,-647.5886 608.5453,-643.0549 610.5736,-649.9749 604.966,-654.5087"/>
<text text-anchor="middle" x="615.5" y="-736" font-family="Helvetica,sans-Serif" font-size="10.00" fill="#000000"> &#45;max_in</text>
<text text-anchor="middle" x="615.5" y="-725" font-family="Helvetica,sans-Serif" font-size="10.00" fill="#000000">&#45;max_out</text>
<text text-anchor="middle" x="615.5" y="-714" font-family="Helvetica,sans-Serif" font-size="10.00" fill="#000000">&#45;offset</text>
<text text-anchor="middle" x="615.5" y="-703" font-family="Helvetica,sans-Serif" font-size="10.00" fill="#000000">&#45;prevLevel</text>
<text text-anchor="middle" x="615.5" y="-692" font-family="Helvetica,sans-Serif" font-size="10.00" fill="#000000">&#45;margin</text>
</g>
<!-- Node12 -->
<g id="node12" class="node">
<title>Node12</title>
<g id="a_node12"><a xlink:href="../../da/d07/classContinuousCCSender.html" target="_top" xlink:title=" ">
<polygon fill="#ffffff" stroke="#000000" points="492.5,-327 492.5,-395 604.5,-395 604.5,-327 492.5,-327"/>
<text text-anchor="middle" x="548.5" y="-383" font-family="Helvetica,sans-Serif" font-size="10.00" fill="#000000">ContinuousCCSender</text>
<polyline fill="none" stroke="#000000" points="492.5,-376 604.5,-376 "/>
<text text-anchor="middle" x="548.5" y="-364" font-family="Helvetica,sans-Serif" font-size="10.00" fill="#000000"> </text>
<polyline fill="none" stroke="#000000" points="492.5,-357 604.5,-357 "/>
<text text-anchor="start" x="500.5" y="-345" font-family="Helvetica,sans-Serif" font-size="10.00" fill="#000000">+ send()</text>
<text text-anchor="start" x="500.5" y="-334" font-family="Helvetica,sans-Serif" font-size="10.00" fill="#000000">+ precision()</text>
</a>
</g>
</g>
<!-- Node12&#45;&gt;Node2 -->
<g id="edge12" class="edge">
<title>Node12&#45;&gt;Node2</title>
<path fill="none" stroke="#404040" d="M528.2493,-326.9404C516.0362,-306.8619 499.9056,-281.1348 484.5,-259 482.5252,-256.1626 480.4967,-253.292 478.4308,-250.4057"/>
<polygon fill="none" stroke="#404040" points="478.3329,-250.2707 471.572,-247.7627 471.2866,-240.5572 478.0476,-243.0652 478.3329,-250.2707"/>
<text text-anchor="middle" x="511" y="-262" font-family="Helvetica,sans-Serif" font-size="10.00" fill="#000000"> +sender</text>
</g>
</g>
</svg>
