<?xml version="1.0" encoding="UTF-8" standalone="no"?>
<!DOCTYPE svg PUBLIC "-//W3C//DTD SVG 1.1//EN"
 "http://www.w3.org/Graphics/SVG/1.1/DTD/svg11.dtd">
<!-- Generated by graphviz version 2.43.0 (0)
 -->
<!-- Title: VPotRingLEDs&lt; BankSize &gt; Pages: 1 -->
<svg width="571pt" height="1323pt"
 viewBox="0.00 0.00 571.00 1323.00" xmlns="http://www.w3.org/2000/svg" xmlns:xlink="http://www.w3.org/1999/xlink">
<g id="graph0" class="graph" transform="scale(1 1) rotate(0) translate(4 1319)">
<title>VPotRingLEDs&lt; BankSize &gt;</title>
<polygon fill="white" stroke="transparent" points="-4,4 -4,-1319 567,-1319 567,4 -4,4"/>
<!-- Node1 -->
<g id="node1" class="node">
<title>Node1</title>
<g id="a_node1"><a xlink:title="A MIDI input element that represents a Mackie Control Universal VPot ring and displays its value usin...">
<polygon fill="#bfbfbf" stroke="black" points="341,-0.5 341,-112.5 493,-112.5 493,-0.5 341,-0.5"/>
<text text-anchor="middle" x="417" y="-100.5" font-family="Helvetica,sans-Serif" font-size="10.00">VPotRingLEDs&lt; BankSize &gt;</text>
<polyline fill="none" stroke="black" points="341,-93.5 493,-93.5 "/>
<text text-anchor="middle" x="417" y="-81.5" font-family="Helvetica,sans-Serif" font-size="10.00"> </text>
<polyline fill="none" stroke="black" points="341,-74.5 493,-74.5 "/>
<text text-anchor="start" x="349" y="-62.5" font-family="Helvetica,sans-Serif" font-size="10.00">+ VPotRingLEDs()</text>
<text text-anchor="start" x="349" y="-51.5" font-family="Helvetica,sans-Serif" font-size="10.00">+ begin()</text>
<text text-anchor="start" x="349" y="-40.5" font-family="Helvetica,sans-Serif" font-size="10.00">+ reset()</text>
<text text-anchor="start" x="349" y="-29.5" font-family="Helvetica,sans-Serif" font-size="10.00"># handleUpdate()</text>
<text text-anchor="start" x="349" y="-18.5" font-family="Helvetica,sans-Serif" font-size="10.00"># updateDisplay()</text>
<text text-anchor="start" x="349" y="-7.5" font-family="Helvetica,sans-Serif" font-size="10.00"># onBankSettingChange()</text>
</a>
</g>
</g>
<!-- Node2 -->
<g id="node2" class="node">
<title>Node2</title>
<g id="a_node2"><a xlink:href="../../da/d93/classMCU_1_1Bankable_1_1VPotRing.html" target="_top" xlink:title="A MIDI input element that represents a Mackie Control Universal VPot ring.">
<polygon fill="white" stroke="black" points="267.5,-149.5 267.5,-382.5 410.5,-382.5 410.5,-149.5 267.5,-149.5"/>
<text text-anchor="middle" x="339" y="-370.5" font-family="Helvetica,sans-Serif" font-size="10.00">VPotRing&lt; BankSize &gt;</text>
<polyline fill="none" stroke="black" points="267.5,-363.5 410.5,-363.5 "/>
<text text-anchor="start" x="275.5" y="-351.5" font-family="Helvetica,sans-Serif" font-size="10.00">+ ignoreReset</text>
<text text-anchor="start" x="275.5" y="-340.5" font-family="Helvetica,sans-Serif" font-size="10.00">&#45; states</text>
<polyline fill="none" stroke="black" points="267.5,-333.5 410.5,-333.5 "/>
<text text-anchor="start" x="275.5" y="-321.5" font-family="Helvetica,sans-Serif" font-size="10.00">+ VPotRing()</text>
<text text-anchor="start" x="275.5" y="-310.5" font-family="Helvetica,sans-Serif" font-size="10.00">+ reset()</text>
<text text-anchor="start" x="275.5" y="-299.5" font-family="Helvetica,sans-Serif" font-size="10.00"># handleUpdate()</text>
<text text-anchor="start" x="275.5" y="-288.5" font-family="Helvetica,sans-Serif" font-size="10.00"># onBankSettingChange()</text>
<text text-anchor="start" x="275.5" y="-277.5" font-family="Helvetica,sans-Serif" font-size="10.00">* getState()</text>
<text text-anchor="start" x="275.5" y="-266.5" font-family="Helvetica,sans-Serif" font-size="10.00">* getPosition()</text>
<text text-anchor="start" x="275.5" y="-255.5" font-family="Helvetica,sans-Serif" font-size="10.00">* getCenterLed()</text>
<text text-anchor="start" x="275.5" y="-244.5" font-family="Helvetica,sans-Serif" font-size="10.00">* getMode()</text>
<text text-anchor="start" x="275.5" y="-233.5" font-family="Helvetica,sans-Serif" font-size="10.00">* getStartOn()</text>
<text text-anchor="start" x="275.5" y="-222.5" font-family="Helvetica,sans-Serif" font-size="10.00">* getStartOff()</text>
<text text-anchor="start" x="275.5" y="-211.5" font-family="Helvetica,sans-Serif" font-size="10.00">* getState()</text>
<text text-anchor="start" x="275.5" y="-200.5" font-family="Helvetica,sans-Serif" font-size="10.00">* getPosition()</text>
<text text-anchor="start" x="275.5" y="-189.5" font-family="Helvetica,sans-Serif" font-size="10.00">* getCenterLed()</text>
<text text-anchor="start" x="275.5" y="-178.5" font-family="Helvetica,sans-Serif" font-size="10.00">* getMode()</text>
<text text-anchor="start" x="275.5" y="-167.5" font-family="Helvetica,sans-Serif" font-size="10.00">* getStartOn()</text>
<text text-anchor="start" x="275.5" y="-156.5" font-family="Helvetica,sans-Serif" font-size="10.00">* getStartOff()</text>
</a>
</g>
</g>
<!-- Node2&#45;&gt;Node1 -->
<g id="edge1" class="edge">
<title>Node2&#45;&gt;Node1</title>
<path fill="none" stroke="midnightblue" d="M386.02,-139.91C389.57,-130.48 393.02,-121.29 396.26,-112.68"/>
<polygon fill="none" stroke="midnightblue" points="382.69,-138.83 382.45,-149.42 389.24,-141.29 382.69,-138.83"/>
</g>
<!-- Node3 -->
<g id="node3" class="node">
<title>Node3</title>
<g id="a_node3"><a xlink:href="../../d9/dc0/classBankableMatchingMIDIInputElement.html" target="_top" xlink:title=" ">
<polygon fill="white" stroke="black" points="59,-419.5 59,-553.5 289,-553.5 289,-419.5 59,-419.5"/>
<text text-anchor="start" x="67" y="-541.5" font-family="Helvetica,sans-Serif" font-size="10.00">BankableMatchingMIDIInput</text>
<text text-anchor="start" x="67" y="-530.5" font-family="Helvetica,sans-Serif" font-size="10.00">Element&lt; MIDIMessageType</text>
<text text-anchor="start" x="67" y="-519.5" font-family="Helvetica,sans-Serif" font-size="10.00">::CONTROL_CHANGE, BankableVPotMatcher</text>
<text text-anchor="middle" x="174" y="-508.5" font-family="Helvetica,sans-Serif" font-size="10.00">&lt; BankSize &gt; &gt;</text>
<polyline fill="none" stroke="black" points="59,-501.5 289,-501.5 "/>
<text text-anchor="middle" x="174" y="-489.5" font-family="Helvetica,sans-Serif" font-size="10.00"> </text>
<polyline fill="none" stroke="black" points="59,-482.5 289,-482.5 "/>
<text text-anchor="start" x="67" y="-470.5" font-family="Helvetica,sans-Serif" font-size="10.00">+ ~BankableMatchingMIDIInput</text>
<text text-anchor="start" x="67" y="-459.5" font-family="Helvetica,sans-Serif" font-size="10.00">Element()</text>
<text text-anchor="start" x="67" y="-448.5" font-family="Helvetica,sans-Serif" font-size="10.00"># BankableMatchingMIDIInput</text>
<text text-anchor="start" x="67" y="-437.5" font-family="Helvetica,sans-Serif" font-size="10.00">Element()</text>
<text text-anchor="start" x="67" y="-426.5" font-family="Helvetica,sans-Serif" font-size="10.00"># getActiveBank()</text>
</a>
</g>
</g>
<!-- Node3&#45;&gt;Node2 -->
<g id="edge2" class="edge">
<title>Node3&#45;&gt;Node2</title>
<path fill="none" stroke="midnightblue" d="M230.12,-411.18C242.08,-395.35 254.86,-378.43 267.3,-361.94"/>
<polygon fill="none" stroke="midnightblue" points="227.19,-409.26 223.95,-419.35 232.77,-413.48 227.19,-409.26"/>
</g>
<!-- Node4 -->
<g id="node4" class="node">
<title>Node4</title>
<g id="a_node4"><a xlink:href="../../d5/dae/classMatchingMIDIInputElement.html" target="_top" xlink:title=" ">
<polygon fill="white" stroke="black" points="0,-590.5 0,-691.5 168,-691.5 168,-590.5 0,-590.5"/>
<text text-anchor="start" x="8" y="-679.5" font-family="Helvetica,sans-Serif" font-size="10.00">MatchingMIDIInputElement</text>
<text text-anchor="start" x="8" y="-668.5" font-family="Helvetica,sans-Serif" font-size="10.00">&lt; Type, BankableVPotMatcher</text>
<text text-anchor="middle" x="84" y="-657.5" font-family="Helvetica,sans-Serif" font-size="10.00">&lt; BankSize &gt; &gt;</text>
<polyline fill="none" stroke="black" points="0,-650.5 168,-650.5 "/>
<text text-anchor="start" x="8" y="-638.5" font-family="Helvetica,sans-Serif" font-size="10.00"># matcher</text>
<polyline fill="none" stroke="black" points="0,-631.5 168,-631.5 "/>
<text text-anchor="start" x="8" y="-619.5" font-family="Helvetica,sans-Serif" font-size="10.00">+ updateWith()</text>
<text text-anchor="start" x="8" y="-608.5" font-family="Helvetica,sans-Serif" font-size="10.00">+ handleUpdate()</text>
<text text-anchor="start" x="8" y="-597.5" font-family="Helvetica,sans-Serif" font-size="10.00"># MatchingMIDIInputElement()</text>
</a>
</g>
</g>
<!-- Node4&#45;&gt;Node3 -->
<g id="edge3" class="edge">
<title>Node4&#45;&gt;Node3</title>
<path fill="none" stroke="midnightblue" d="M118.34,-581.81C123.77,-572.61 129.42,-563.05 134.94,-553.69"/>
<polygon fill="none" stroke="midnightblue" points="115.29,-580.1 113.22,-590.49 121.32,-583.65 115.29,-580.1"/>
</g>
<!-- Node5 -->
<g id="node5" class="node">
<title>Node5</title>
<g id="a_node5"><a xlink:href="../../d9/db1/classMIDIInputElement.html" target="_top" xlink:title="A class for objects that listen for incoming MIDI events.">
<polygon fill="white" stroke="black" points="9.5,-728.5 9.5,-884.5 158.5,-884.5 158.5,-728.5 9.5,-728.5"/>
<text text-anchor="middle" x="84" y="-872.5" font-family="Helvetica,sans-Serif" font-size="10.00">MIDIInputElement&lt; Type &gt;</text>
<polyline fill="none" stroke="black" points="9.5,-865.5 158.5,-865.5 "/>
<text text-anchor="middle" x="84" y="-853.5" font-family="Helvetica,sans-Serif" font-size="10.00"> </text>
<polyline fill="none" stroke="black" points="9.5,-846.5 158.5,-846.5 "/>
<text text-anchor="start" x="17.5" y="-834.5" font-family="Helvetica,sans-Serif" font-size="10.00">+ ~MIDIInputElement()</text>
<text text-anchor="start" x="17.5" y="-823.5" font-family="Helvetica,sans-Serif" font-size="10.00">+ begin()</text>
<text text-anchor="start" x="17.5" y="-812.5" font-family="Helvetica,sans-Serif" font-size="10.00">+ reset()</text>
<text text-anchor="start" x="17.5" y="-801.5" font-family="Helvetica,sans-Serif" font-size="10.00">+ update()</text>
<text text-anchor="start" x="17.5" y="-790.5" font-family="Helvetica,sans-Serif" font-size="10.00">+ updateWith()</text>
<text text-anchor="start" x="17.5" y="-779.5" font-family="Helvetica,sans-Serif" font-size="10.00">+ updateAllWith()</text>
<text text-anchor="start" x="17.5" y="-768.5" font-family="Helvetica,sans-Serif" font-size="10.00">+ updateAll()</text>
<text text-anchor="start" x="17.5" y="-757.5" font-family="Helvetica,sans-Serif" font-size="10.00">+ beginAll()</text>
<text text-anchor="start" x="17.5" y="-746.5" font-family="Helvetica,sans-Serif" font-size="10.00">+ resetAll()</text>
<text text-anchor="start" x="17.5" y="-735.5" font-family="Helvetica,sans-Serif" font-size="10.00"># MIDIInputElement()</text>
</a>
</g>
</g>
<!-- Node5&#45;&gt;Node4 -->
<g id="edge4" class="edge">
<title>Node5&#45;&gt;Node4</title>
<path fill="none" stroke="midnightblue" d="M84,-717.9C84,-708.91 84,-700.02 84,-691.66"/>
<polygon fill="none" stroke="midnightblue" points="80.5,-718.06 84,-728.06 87.5,-718.06 80.5,-718.06"/>
</g>
<!-- Node6 -->
<g id="node6" class="node">
<title>Node6</title>
<g id="a_node6"><a xlink:href="../../d8/d1a/classAH_1_1UpdatableCRTP.html" target="_top" xlink:title=" ">
<polygon fill="white" stroke="black" points="9,-921.5 9,-1198.5 159,-1198.5 159,-921.5 9,-921.5"/>
<text text-anchor="start" x="17" y="-1186.5" font-family="Helvetica,sans-Serif" font-size="10.00">UpdatableCRTP&lt; MIDIInput</text>
<text text-anchor="middle" x="84" y="-1175.5" font-family="Helvetica,sans-Serif" font-size="10.00">Element&lt; Type &gt;, true &gt;</text>
<polyline fill="none" stroke="black" points="9,-1168.5 159,-1168.5 "/>
<text text-anchor="start" x="17" y="-1156.5" font-family="Helvetica,sans-Serif" font-size="10.00"># updatables</text>
<text text-anchor="start" x="17" y="-1145.5" font-family="Helvetica,sans-Serif" font-size="10.00"># mutex</text>
<polyline fill="none" stroke="black" points="9,-1138.5 159,-1138.5 "/>
<text text-anchor="start" x="17" y="-1126.5" font-family="Helvetica,sans-Serif" font-size="10.00">+ ~UpdatableCRTP()</text>
<text text-anchor="start" x="17" y="-1115.5" font-family="Helvetica,sans-Serif" font-size="10.00">+ getMutex()</text>
<text text-anchor="start" x="17" y="-1104.5" font-family="Helvetica,sans-Serif" font-size="10.00"># UpdatableCRTP()</text>
<text text-anchor="start" x="17" y="-1093.5" font-family="Helvetica,sans-Serif" font-size="10.00">* enable()</text>
<text text-anchor="start" x="17" y="-1082.5" font-family="Helvetica,sans-Serif" font-size="10.00">* enable()</text>
<text text-anchor="start" x="17" y="-1071.5" font-family="Helvetica,sans-Serif" font-size="10.00">* disable()</text>
<text text-anchor="start" x="17" y="-1060.5" font-family="Helvetica,sans-Serif" font-size="10.00">* disable()</text>
<text text-anchor="start" x="17" y="-1049.5" font-family="Helvetica,sans-Serif" font-size="10.00">* isEnabled()</text>
<text text-anchor="start" x="17" y="-1038.5" font-family="Helvetica,sans-Serif" font-size="10.00">* isEnabled()</text>
<text text-anchor="start" x="17" y="-1027.5" font-family="Helvetica,sans-Serif" font-size="10.00">* moveDown()</text>
<text text-anchor="start" x="17" y="-1016.5" font-family="Helvetica,sans-Serif" font-size="10.00">* moveDown()</text>
<text text-anchor="start" x="17" y="-1005.5" font-family="Helvetica,sans-Serif" font-size="10.00">* enable()</text>
<text text-anchor="start" x="17" y="-994.5" font-family="Helvetica,sans-Serif" font-size="10.00">* enable()</text>
<text text-anchor="start" x="17" y="-983.5" font-family="Helvetica,sans-Serif" font-size="10.00">* enable()</text>
<text text-anchor="start" x="17" y="-972.5" font-family="Helvetica,sans-Serif" font-size="10.00">* disable()</text>
<text text-anchor="start" x="17" y="-961.5" font-family="Helvetica,sans-Serif" font-size="10.00">* disable()</text>
<text text-anchor="start" x="17" y="-950.5" font-family="Helvetica,sans-Serif" font-size="10.00">* disable()</text>
<text text-anchor="start" x="17" y="-939.5" font-family="Helvetica,sans-Serif" font-size="10.00">* applyToAll()</text>
<text text-anchor="start" x="17" y="-928.5" font-family="Helvetica,sans-Serif" font-size="10.00">* applyToAll()</text>
</a>
</g>
</g>
<!-- Node6&#45;&gt;Node5 -->
<g id="edge5" class="edge">
<title>Node6&#45;&gt;Node5</title>
<path fill="none" stroke="midnightblue" d="M84,-911.47C84,-902.29 84,-893.28 84,-884.62"/>
<polygon fill="none" stroke="midnightblue" points="80.5,-911.48 84,-921.48 87.5,-911.48 80.5,-911.48"/>
</g>
<!-- Node7 -->
<g id="node7" class="node">
<title>Node7</title>
<g id="a_node7"><a xlink:href="../../d4/d23/classDoublyLinkable.html" target="_top" xlink:title=" ">
<polygon fill="white" stroke="black" points="9,-1235.5 9,-1314.5 159,-1314.5 159,-1235.5 9,-1235.5"/>
<text text-anchor="start" x="17" y="-1302.5" font-family="Helvetica,sans-Serif" font-size="10.00">DoublyLinkable&lt; MIDIInput</text>
<text text-anchor="middle" x="84" y="-1291.5" font-family="Helvetica,sans-Serif" font-size="10.00">Element&lt; Type &gt; &gt;</text>
<polyline fill="none" stroke="black" points="9,-1284.5 159,-1284.5 "/>
<text text-anchor="start" x="17" y="-1272.5" font-family="Helvetica,sans-Serif" font-size="10.00"># next</text>
<text text-anchor="start" x="17" y="-1261.5" font-family="Helvetica,sans-Serif" font-size="10.00"># previous</text>
<polyline fill="none" stroke="black" points="9,-1254.5 159,-1254.5 "/>
<text text-anchor="start" x="17" y="-1242.5" font-family="Helvetica,sans-Serif" font-size="10.00"># ~DoublyLinkable()</text>
</a>
</g>
</g>
<!-- Node7&#45;&gt;Node6 -->
<g id="edge6" class="edge">
<title>Node7&#45;&gt;Node6</title>
<path fill="none" stroke="midnightblue" d="M84,-1225.3C84,-1217.01 84,-1208.04 84,-1198.73"/>
<polygon fill="none" stroke="midnightblue" points="80.5,-1225.43 84,-1235.43 87.5,-1225.43 80.5,-1225.43"/>
</g>
<!-- Node8 -->
<g id="node8" class="node">
<title>Node8</title>
<g id="a_node8"><a xlink:href="../../d2/dbf/classBankSettingChangeCallback.html" target="_top" xlink:title="Callback class for Bankable objects that need to be notified when the active setting of their Bank ch...">
<polygon fill="white" stroke="black" points="186.5,-612.5 186.5,-669.5 341.5,-669.5 341.5,-612.5 186.5,-612.5"/>
<text text-anchor="middle" x="264" y="-657.5" font-family="Helvetica,sans-Serif" font-size="10.00">BankSettingChangeCallback</text>
<polyline fill="none" stroke="black" points="186.5,-650.5 341.5,-650.5 "/>
<text text-anchor="middle" x="264" y="-638.5" font-family="Helvetica,sans-Serif" font-size="10.00"> </text>
<polyline fill="none" stroke="black" points="186.5,-631.5 341.5,-631.5 "/>
<text text-anchor="start" x="194.5" y="-619.5" font-family="Helvetica,sans-Serif" font-size="10.00">&#45; onBankSettingChange()</text>
</a>
</g>
</g>
<!-- Node8&#45;&gt;Node3 -->
<g id="edge7" class="edge">
<title>Node8&#45;&gt;Node3</title>
<path fill="none" stroke="midnightblue" d="M242.43,-603.46C233.6,-588.48 223.08,-570.67 212.98,-553.56"/>
<polygon fill="none" stroke="midnightblue" points="239.6,-605.55 247.7,-612.38 245.63,-601.99 239.6,-605.55"/>
</g>
<!-- Node9 -->
<g id="node9" class="node">
<title>Node9</title>
<g id="a_node9"><a xlink:href="../../d4/d23/classDoublyLinkable.html" target="_top" xlink:title=" ">
<polygon fill="white" stroke="black" points="183,-767 183,-846 345,-846 345,-767 183,-767"/>
<text text-anchor="start" x="191" y="-834" font-family="Helvetica,sans-Serif" font-size="10.00">DoublyLinkable&lt; BankSetting</text>
<text text-anchor="middle" x="264" y="-823" font-family="Helvetica,sans-Serif" font-size="10.00">ChangeCallback &gt;</text>
<polyline fill="none" stroke="black" points="183,-816 345,-816 "/>
<text text-anchor="start" x="191" y="-804" font-family="Helvetica,sans-Serif" font-size="10.00"># next</text>
<text text-anchor="start" x="191" y="-793" font-family="Helvetica,sans-Serif" font-size="10.00"># previous</text>
<polyline fill="none" stroke="black" points="183,-786 345,-786 "/>
<text text-anchor="start" x="191" y="-774" font-family="Helvetica,sans-Serif" font-size="10.00"># ~DoublyLinkable()</text>
</a>
</g>
</g>
<!-- Node9&#45;&gt;Node8 -->
<g id="edge8" class="edge">
<title>Node9&#45;&gt;Node8</title>
<path fill="none" stroke="midnightblue" d="M264,-756.61C264,-728.21 264,-693.47 264,-669.73"/>
<polygon fill="none" stroke="midnightblue" points="260.5,-756.75 264,-766.75 267.5,-756.75 260.5,-756.75"/>
</g>
<!-- Node10 -->
<g id="node10" class="node">
<title>Node10</title>
<g id="a_node10"><a xlink:href="../../d2/dde/classInterfaces_1_1MCU_1_1IVPot.html" target="_top" xlink:title=" ">
<polygon fill="white" stroke="black" points="307.5,-436 307.5,-537 408.5,-537 408.5,-436 307.5,-436"/>
<text text-anchor="middle" x="358" y="-525" font-family="Helvetica,sans-Serif" font-size="10.00">IVPot</text>
<polyline fill="none" stroke="black" points="307.5,-518 408.5,-518 "/>
<text text-anchor="start" x="315.5" y="-506" font-family="Helvetica,sans-Serif" font-size="10.00"># dirty</text>
<polyline fill="none" stroke="black" points="307.5,-499 408.5,-499 "/>
<text text-anchor="start" x="315.5" y="-487" font-family="Helvetica,sans-Serif" font-size="10.00">+ getCenterLed()</text>
<text text-anchor="start" x="315.5" y="-476" font-family="Helvetica,sans-Serif" font-size="10.00">+ getStartOn()</text>
<text text-anchor="start" x="315.5" y="-465" font-family="Helvetica,sans-Serif" font-size="10.00">+ getStartOff()</text>
<text text-anchor="start" x="315.5" y="-454" font-family="Helvetica,sans-Serif" font-size="10.00">* getDirty()</text>
<text text-anchor="start" x="315.5" y="-443" font-family="Helvetica,sans-Serif" font-size="10.00">* clearDirty()</text>
</a>
</g>
</g>
<!-- Node10&#45;&gt;Node2 -->
<g id="edge9" class="edge">
<title>Node10&#45;&gt;Node2</title>
<path fill="none" stroke="midnightblue" d="M352.82,-425.89C351.65,-412.42 350.36,-397.68 349.07,-382.77"/>
<polygon fill="none" stroke="midnightblue" points="349.34,-426.26 353.69,-435.92 356.31,-425.65 349.34,-426.26"/>
</g>
<!-- Node11 -->
<g id="node11" class="node">
<title>Node11</title>
<g id="a_node11"><a xlink:href="../../db/d36/classMCU_1_1VPotRingLEDsDriver.html" target="_top" xlink:title=" ">
<polygon fill="white" stroke="black" points="429,-232 429,-300 563,-300 563,-232 429,-232"/>
<text text-anchor="middle" x="496" y="-288" font-family="Helvetica,sans-Serif" font-size="10.00">VPotRingLEDsDriver</text>
<polyline fill="none" stroke="black" points="429,-281 563,-281 "/>
<text text-anchor="middle" x="496" y="-269" font-family="Helvetica,sans-Serif" font-size="10.00"> </text>
<polyline fill="none" stroke="black" points="429,-262 563,-262 "/>
<text text-anchor="start" x="437" y="-250" font-family="Helvetica,sans-Serif" font-size="10.00">+ VPotRingLEDsDriver()</text>
<text text-anchor="start" x="437" y="-239" font-family="Helvetica,sans-Serif" font-size="10.00">+ displayVPot()</text>
</a>
</g>
</g>
<!-- Node11&#45;&gt;Node1 -->
<g id="edge10" class="edge">
<title>Node11&#45;&gt;Node1</title>
<path fill="none" stroke="midnightblue" d="M479.71,-222.21C467.63,-190.48 451.06,-146.95 437.98,-112.61"/>
<polygon fill="none" stroke="midnightblue" points="476.48,-223.56 483.31,-231.66 483.02,-221.07 476.48,-223.56"/>
</g>
<!-- Node12 -->
<g id="node12" class="node">
<title>Node12</title>
<g id="a_node12"><a xlink:href="../../df/d06/classAH_1_1LEDs.html" target="_top" xlink:title=" ">
<polygon fill="white" stroke="black" points="445.5,-425 445.5,-548 546.5,-548 546.5,-425 445.5,-425"/>
<text text-anchor="middle" x="496" y="-536" font-family="Helvetica,sans-Serif" font-size="10.00">LEDs&lt; 11 &gt;</text>
<polyline fill="none" stroke="black" points="445.5,-529 546.5,-529 "/>
<text text-anchor="start" x="453.5" y="-517" font-family="Helvetica,sans-Serif" font-size="10.00">&#45; ledPins</text>
<polyline fill="none" stroke="black" points="445.5,-510 546.5,-510 "/>
<text text-anchor="start" x="453.5" y="-498" font-family="Helvetica,sans-Serif" font-size="10.00">+ LEDs()</text>
<text text-anchor="start" x="453.5" y="-487" font-family="Helvetica,sans-Serif" font-size="10.00">+ begin()</text>
<text text-anchor="start" x="453.5" y="-476" font-family="Helvetica,sans-Serif" font-size="10.00">+ displayRange()</text>
<text text-anchor="start" x="453.5" y="-465" font-family="Helvetica,sans-Serif" font-size="10.00">+ set()</text>
<text text-anchor="start" x="453.5" y="-454" font-family="Helvetica,sans-Serif" font-size="10.00">+ clear()</text>
<text text-anchor="start" x="453.5" y="-443" font-family="Helvetica,sans-Serif" font-size="10.00">+ clear()</text>
<text text-anchor="start" x="453.5" y="-432" font-family="Helvetica,sans-Serif" font-size="10.00">+ displayDot()</text>
</a>
</g>
</g>
<!-- Node12&#45;&gt;Node11 -->
<g id="edge11" class="edge">
<title>Node12&#45;&gt;Node11</title>
<path fill="none" stroke="midnightblue" d="M496,-414.8C496,-376.33 496,-330.54 496,-300.23"/>
<polygon fill="none" stroke="midnightblue" points="492.5,-414.93 496,-424.93 499.5,-414.93 492.5,-414.93"/>
</g>
</g>
</svg>
