<?xml version="1.0" encoding="UTF-8" standalone="no"?>
<!DOCTYPE svg PUBLIC "-//W3C//DTD SVG 1.1//EN"
 "http://www.w3.org/Graphics/SVG/1.1/DTD/svg11.dtd">
<!-- Generated by graphviz version 2.43.0 (0)
 -->
<!-- Title: IncrementDecrementSelector&lt; N &gt; Pages: 1 -->
<svg width="535pt" height="1275pt"
 viewBox="0.00 0.00 534.50 1275.00" xmlns="http://www.w3.org/2000/svg" xmlns:xlink="http://www.w3.org/1999/xlink">
<g id="graph0" class="graph" transform="scale(1 1) rotate(0) translate(4 1271)">
<title>IncrementDecrementSelector&lt; N &gt;</title>
<polygon fill="white" stroke="transparent" points="-4,4 -4,-1271 530.5,-1271 530.5,4 -4,4"/>
<!-- Node1 -->
<g id="node1" class="node">
<title>Node1</title>
<g id="a_node1"><a xlink:title="Selector with two buttons (one to increment, one to decrement).">
<polygon fill="#bfbfbf" stroke="black" points="194.5,-0.5 194.5,-57.5 384.5,-57.5 384.5,-0.5 194.5,-0.5"/>
<text text-anchor="middle" x="289.5" y="-45.5" font-family="Helvetica,sans-Serif" font-size="10.00">IncrementDecrementSelector&lt; N &gt;</text>
<polyline fill="none" stroke="black" points="194.5,-38.5 384.5,-38.5 "/>
<text text-anchor="middle" x="289.5" y="-26.5" font-family="Helvetica,sans-Serif" font-size="10.00"> </text>
<polyline fill="none" stroke="black" points="194.5,-19.5 384.5,-19.5 "/>
<text text-anchor="start" x="202.5" y="-7.5" font-family="Helvetica,sans-Serif" font-size="10.00">+ IncrementDecrementSelector()</text>
</a>
</g>
</g>
<!-- Node2 -->
<g id="node2" class="node">
<title>Node2</title>
<g id="a_node2"><a xlink:href="../../d3/d78/classGenericIncrementDecrementSelector.html" target="_top" xlink:title=" ">
<polygon fill="white" stroke="black" points="205,-95.5 205,-218.5 374,-218.5 374,-95.5 205,-95.5"/>
<text text-anchor="start" x="213" y="-206.5" font-family="Helvetica,sans-Serif" font-size="10.00">GenericIncrementDecrement</text>
<text text-anchor="middle" x="289.5" y="-195.5" font-family="Helvetica,sans-Serif" font-size="10.00">Selector&lt; N &gt;</text>
<polyline fill="none" stroke="black" points="205,-188.5 374,-188.5 "/>
<text text-anchor="start" x="213" y="-176.5" font-family="Helvetica,sans-Serif" font-size="10.00">&#45; wrap</text>
<polyline fill="none" stroke="black" points="205,-169.5 374,-169.5 "/>
<text text-anchor="start" x="213" y="-157.5" font-family="Helvetica,sans-Serif" font-size="10.00">+ GenericIncrementDecrement</text>
<text text-anchor="start" x="213" y="-146.5" font-family="Helvetica,sans-Serif" font-size="10.00">Selector()</text>
<text text-anchor="start" x="213" y="-135.5" font-family="Helvetica,sans-Serif" font-size="10.00">+ begin()</text>
<text text-anchor="start" x="213" y="-124.5" font-family="Helvetica,sans-Serif" font-size="10.00">+ update()</text>
<text text-anchor="start" x="213" y="-113.5" font-family="Helvetica,sans-Serif" font-size="10.00">+ invert()</text>
<text text-anchor="start" x="213" y="-102.5" font-family="Helvetica,sans-Serif" font-size="10.00">+ getButtonsState()</text>
</a>
</g>
</g>
<!-- Node2&#45;&gt;Node1 -->
<g id="edge1" class="edge">
<title>Node2&#45;&gt;Node1</title>
<path fill="none" stroke="midnightblue" d="M289.5,-85.01C289.5,-75.26 289.5,-65.78 289.5,-57.51"/>
<polygon fill="none" stroke="midnightblue" points="286,-85.21 289.5,-95.21 293,-85.21 286,-85.21"/>
</g>
<!-- Node3 -->
<g id="node3" class="node">
<title>Node3</title>
<g id="a_node3"><a xlink:href="../../d0/d04/classGenericSelector.html" target="_top" xlink:title=" ">
<polygon fill="white" stroke="black" points="129.5,-266.5 129.5,-400.5 273.5,-400.5 273.5,-266.5 129.5,-266.5"/>
<text text-anchor="start" x="137.5" y="-388.5" font-family="Helvetica,sans-Serif" font-size="10.00">GenericSelector&lt; N,</text>
<text text-anchor="middle" x="201.5" y="-377.5" font-family="Helvetica,sans-Serif" font-size="10.00"> EmptySelectorCallback &gt;</text>
<polyline fill="none" stroke="black" points="129.5,-370.5 273.5,-370.5 "/>
<text text-anchor="start" x="137.5" y="-358.5" font-family="Helvetica,sans-Serif" font-size="10.00">&#45; selectable</text>
<polyline fill="none" stroke="black" points="129.5,-351.5 273.5,-351.5 "/>
<text text-anchor="start" x="137.5" y="-339.5" font-family="Helvetica,sans-Serif" font-size="10.00">+ GenericSelector()</text>
<text text-anchor="start" x="137.5" y="-328.5" font-family="Helvetica,sans-Serif" font-size="10.00">+ begin()</text>
<text text-anchor="start" x="137.5" y="-317.5" font-family="Helvetica,sans-Serif" font-size="10.00">+ update()</text>
<text text-anchor="start" x="137.5" y="-306.5" font-family="Helvetica,sans-Serif" font-size="10.00">+ reset()</text>
<text text-anchor="start" x="137.5" y="-295.5" font-family="Helvetica,sans-Serif" font-size="10.00">+ set()</text>
<text text-anchor="start" x="137.5" y="-284.5" font-family="Helvetica,sans-Serif" font-size="10.00">+ increment()</text>
<text text-anchor="start" x="137.5" y="-273.5" font-family="Helvetica,sans-Serif" font-size="10.00">+ decrement()</text>
</a>
</g>
</g>
<!-- Node3&#45;&gt;Node2 -->
<g id="edge2" class="edge">
<title>Node3&#45;&gt;Node2</title>
<path fill="none" stroke="midnightblue" d="M239.68,-256.8C246.12,-244.01 252.74,-230.89 258.96,-218.56"/>
<polygon fill="none" stroke="midnightblue" points="236.4,-255.53 235.02,-266.03 242.65,-258.68 236.4,-255.53"/>
</g>
<!-- Node4 -->
<g id="node4" class="node">
<title>Node4</title>
<g id="a_node4"><a xlink:href="../../dc/d77/classSelectorBase.html" target="_top" xlink:title="Base class for all Selectors exposing the get method, so it can be used by display elements etc,...">
<polygon fill="white" stroke="black" points="5,-542 5,-610 104,-610 104,-542 5,-542"/>
<text text-anchor="middle" x="54.5" y="-598" font-family="Helvetica,sans-Serif" font-size="10.00">SelectorBase</text>
<polyline fill="none" stroke="black" points="5,-591 104,-591 "/>
<text text-anchor="start" x="13" y="-579" font-family="Helvetica,sans-Serif" font-size="10.00"># setting</text>
<polyline fill="none" stroke="black" points="5,-572 104,-572 "/>
<text text-anchor="start" x="13" y="-560" font-family="Helvetica,sans-Serif" font-size="10.00">+ get()</text>
<text text-anchor="start" x="13" y="-549" font-family="Helvetica,sans-Serif" font-size="10.00"># SelectorBase()</text>
</a>
</g>
</g>
<!-- Node4&#45;&gt;Node3 -->
<g id="edge3" class="edge">
<title>Node4&#45;&gt;Node3</title>
<path fill="none" stroke="midnightblue" d="M73.76,-532.54C84.38,-510.2 98.27,-482.63 112.5,-459 124.22,-439.54 138.04,-419.19 151.25,-400.72"/>
<polygon fill="none" stroke="midnightblue" points="70.51,-531.23 69.42,-541.76 76.84,-534.21 70.51,-531.23"/>
</g>
<!-- Node5 -->
<g id="node5" class="node">
<title>Node5</title>
<g id="a_node5"><a xlink:href="../../d1/d55/classAH_1_1Updatable.html" target="_top" xlink:title=" ">
<polygon fill="white" stroke="black" points="122,-531 122,-621 205,-621 205,-531 122,-531"/>
<text text-anchor="middle" x="163.5" y="-609" font-family="Helvetica,sans-Serif" font-size="10.00">Updatable&lt;&gt;</text>
<polyline fill="none" stroke="black" points="122,-602 205,-602 "/>
<text text-anchor="middle" x="163.5" y="-590" font-family="Helvetica,sans-Serif" font-size="10.00"> </text>
<polyline fill="none" stroke="black" points="122,-583 205,-583 "/>
<text text-anchor="start" x="130" y="-571" font-family="Helvetica,sans-Serif" font-size="10.00">* begin()</text>
<text text-anchor="start" x="130" y="-560" font-family="Helvetica,sans-Serif" font-size="10.00">* update()</text>
<text text-anchor="start" x="130" y="-549" font-family="Helvetica,sans-Serif" font-size="10.00">* beginAll()</text>
<text text-anchor="start" x="130" y="-538" font-family="Helvetica,sans-Serif" font-size="10.00">* updateAll()</text>
</a>
</g>
</g>
<!-- Node5&#45;&gt;Node3 -->
<g id="edge4" class="edge">
<title>Node5&#45;&gt;Node3</title>
<path fill="none" stroke="midnightblue" d="M172.08,-520.69C177.71,-485.09 185.1,-438.33 191.06,-400.57"/>
<polygon fill="none" stroke="midnightblue" points="168.57,-520.46 170.47,-530.89 175.49,-521.56 168.57,-520.46"/>
</g>
<!-- Node6 -->
<g id="node6" class="node">
<title>Node6</title>
<g id="a_node6"><a xlink:href="../../d8/d1a/classAH_1_1UpdatableCRTP.html" target="_top" xlink:title=" ">
<polygon fill="white" stroke="black" points="87,-730.5 87,-919.5 240,-919.5 240,-730.5 87,-730.5"/>
<text text-anchor="start" x="95" y="-907.5" font-family="Helvetica,sans-Serif" font-size="10.00">UpdatableCRTP&lt; Updatable</text>
<text text-anchor="middle" x="163.5" y="-896.5" font-family="Helvetica,sans-Serif" font-size="10.00">&lt; NormalUpdatable &gt; &gt;</text>
<polyline fill="none" stroke="black" points="87,-889.5 240,-889.5 "/>
<text text-anchor="middle" x="163.5" y="-877.5" font-family="Helvetica,sans-Serif" font-size="10.00"> </text>
<polyline fill="none" stroke="black" points="87,-870.5 240,-870.5 "/>
<text text-anchor="start" x="95" y="-858.5" font-family="Helvetica,sans-Serif" font-size="10.00">+ ~UpdatableCRTP()</text>
<text text-anchor="start" x="95" y="-847.5" font-family="Helvetica,sans-Serif" font-size="10.00"># UpdatableCRTP()</text>
<text text-anchor="start" x="95" y="-836.5" font-family="Helvetica,sans-Serif" font-size="10.00">* enable()</text>
<text text-anchor="start" x="95" y="-825.5" font-family="Helvetica,sans-Serif" font-size="10.00">* disable()</text>
<text text-anchor="start" x="95" y="-814.5" font-family="Helvetica,sans-Serif" font-size="10.00">* isEnabled()</text>
<text text-anchor="start" x="95" y="-803.5" font-family="Helvetica,sans-Serif" font-size="10.00">* enable()</text>
<text text-anchor="start" x="95" y="-792.5" font-family="Helvetica,sans-Serif" font-size="10.00">* enable()</text>
<text text-anchor="start" x="95" y="-781.5" font-family="Helvetica,sans-Serif" font-size="10.00">* enable()</text>
<text text-anchor="start" x="95" y="-770.5" font-family="Helvetica,sans-Serif" font-size="10.00">* disable()</text>
<text text-anchor="start" x="95" y="-759.5" font-family="Helvetica,sans-Serif" font-size="10.00">* disable()</text>
<text text-anchor="start" x="95" y="-748.5" font-family="Helvetica,sans-Serif" font-size="10.00">* disable()</text>
<text text-anchor="start" x="95" y="-737.5" font-family="Helvetica,sans-Serif" font-size="10.00">* applyToAll()</text>
</a>
</g>
</g>
<!-- Node6&#45;&gt;Node5 -->
<g id="edge5" class="edge">
<title>Node6&#45;&gt;Node5</title>
<path fill="none" stroke="midnightblue" d="M163.5,-720.11C163.5,-685.55 163.5,-648.89 163.5,-621.32"/>
<polygon fill="none" stroke="midnightblue" points="160,-720.27 163.5,-730.27 167,-720.27 160,-720.27"/>
</g>
<!-- Node7 -->
<g id="node7" class="node">
<title>Node7</title>
<g id="a_node7"><a xlink:href="../../d4/d23/classDoublyLinkable.html" target="_top" xlink:title=" ">
<polygon fill="white" stroke="black" points="0,-1077.5 0,-1156.5 153,-1156.5 153,-1077.5 0,-1077.5"/>
<text text-anchor="start" x="8" y="-1144.5" font-family="Helvetica,sans-Serif" font-size="10.00">DoublyLinkable&lt; Updatable</text>
<text text-anchor="middle" x="76.5" y="-1133.5" font-family="Helvetica,sans-Serif" font-size="10.00">&lt; NormalUpdatable &gt; &gt;</text>
<polyline fill="none" stroke="black" points="0,-1126.5 153,-1126.5 "/>
<text text-anchor="start" x="8" y="-1114.5" font-family="Helvetica,sans-Serif" font-size="10.00"># next</text>
<text text-anchor="start" x="8" y="-1103.5" font-family="Helvetica,sans-Serif" font-size="10.00"># previous</text>
<polyline fill="none" stroke="black" points="0,-1096.5 153,-1096.5 "/>
<text text-anchor="start" x="8" y="-1084.5" font-family="Helvetica,sans-Serif" font-size="10.00"># ~DoublyLinkable()</text>
</a>
</g>
</g>
<!-- Node7&#45;&gt;Node6 -->
<g id="edge6" class="edge">
<title>Node7&#45;&gt;Node6</title>
<path fill="none" stroke="midnightblue" d="M91,-1067.68C103.06,-1027.46 120.59,-969.02 135.39,-919.69"/>
<polygon fill="none" stroke="midnightblue" points="87.57,-1066.91 88.05,-1077.49 94.28,-1068.92 87.57,-1066.91"/>
</g>
<!-- Node8 -->
<g id="node8" class="node">
<title>Node8</title>
<g id="a_node8"><a xlink:href="../../dd/d16/classDoublyLinkedList.html" target="_top" xlink:title=" ">
<polygon fill="white" stroke="black" points="171,-967.5 171,-1266.5 332,-1266.5 332,-967.5 171,-967.5"/>
<text text-anchor="start" x="179" y="-1254.5" font-family="Helvetica,sans-Serif" font-size="10.00">DoublyLinkedList&lt; Updatable</text>
<text text-anchor="middle" x="251.5" y="-1243.5" font-family="Helvetica,sans-Serif" font-size="10.00">&lt; NormalUpdatable &gt; &gt;</text>
<polyline fill="none" stroke="black" points="171,-1236.5 332,-1236.5 "/>
<text text-anchor="start" x="179" y="-1224.5" font-family="Helvetica,sans-Serif" font-size="10.00">&#45; first</text>
<text text-anchor="start" x="179" y="-1213.5" font-family="Helvetica,sans-Serif" font-size="10.00">&#45; last</text>
<polyline fill="none" stroke="black" points="171,-1206.5 332,-1206.5 "/>
<text text-anchor="start" x="179" y="-1194.5" font-family="Helvetica,sans-Serif" font-size="10.00">+ append()</text>
<text text-anchor="start" x="179" y="-1183.5" font-family="Helvetica,sans-Serif" font-size="10.00">+ append()</text>
<text text-anchor="start" x="179" y="-1172.5" font-family="Helvetica,sans-Serif" font-size="10.00">+ insertBefore()</text>
<text text-anchor="start" x="179" y="-1161.5" font-family="Helvetica,sans-Serif" font-size="10.00">+ insertBefore()</text>
<text text-anchor="start" x="179" y="-1150.5" font-family="Helvetica,sans-Serif" font-size="10.00">+ insertSorted()</text>
<text text-anchor="start" x="179" y="-1139.5" font-family="Helvetica,sans-Serif" font-size="10.00">+ insertSorted()</text>
<text text-anchor="start" x="179" y="-1128.5" font-family="Helvetica,sans-Serif" font-size="10.00">+ remove()</text>
<text text-anchor="start" x="179" y="-1117.5" font-family="Helvetica,sans-Serif" font-size="10.00">+ remove()</text>
<text text-anchor="start" x="179" y="-1106.5" font-family="Helvetica,sans-Serif" font-size="10.00">+ moveDown()</text>
<text text-anchor="start" x="179" y="-1095.5" font-family="Helvetica,sans-Serif" font-size="10.00">+ couldContain()</text>
<text text-anchor="start" x="179" y="-1084.5" font-family="Helvetica,sans-Serif" font-size="10.00">+ couldContain()</text>
<text text-anchor="start" x="179" y="-1073.5" font-family="Helvetica,sans-Serif" font-size="10.00">+ begin()</text>
<text text-anchor="start" x="179" y="-1062.5" font-family="Helvetica,sans-Serif" font-size="10.00">+ begin()</text>
<text text-anchor="start" x="179" y="-1051.5" font-family="Helvetica,sans-Serif" font-size="10.00">+ end()</text>
<text text-anchor="start" x="179" y="-1040.5" font-family="Helvetica,sans-Serif" font-size="10.00">+ end()</text>
<text text-anchor="start" x="179" y="-1029.5" font-family="Helvetica,sans-Serif" font-size="10.00">+ rbegin()</text>
<text text-anchor="start" x="179" y="-1018.5" font-family="Helvetica,sans-Serif" font-size="10.00">+ rbegin()</text>
<text text-anchor="start" x="179" y="-1007.5" font-family="Helvetica,sans-Serif" font-size="10.00">+ rend()</text>
<text text-anchor="start" x="179" y="-996.5" font-family="Helvetica,sans-Serif" font-size="10.00">+ rend()</text>
<text text-anchor="start" x="179" y="-985.5" font-family="Helvetica,sans-Serif" font-size="10.00">+ getFirst()</text>
<text text-anchor="start" x="179" y="-974.5" font-family="Helvetica,sans-Serif" font-size="10.00">+ getLast()</text>
</a>
</g>
</g>
<!-- Node8&#45;&gt;Node6 -->
<g id="edge7" class="edge">
<title>Node8&#45;&gt;Node6</title>
<path fill="none" stroke="#404040" d="M206.34,-967.18C202.67,-955.08 199.01,-943.01 195.46,-931.32"/>
<polygon fill="none" stroke="#404040" points="195.44,-931.25 189.87,-926.67 191.95,-919.77 197.52,-924.35 195.44,-931.25"/>
<text text-anchor="middle" x="233.5" y="-941" font-family="Helvetica,sans-Serif" font-size="10.00"> #updatables</text>
</g>
<!-- Node9 -->
<g id="node9" class="node">
<title>Node9</title>
<g id="a_node9"><a xlink:href="../../d3/d8b/structEmptySelectorCallback.html" target="_top" xlink:title="A callback for the GenericSelector class that does nothing.">
<polygon fill="white" stroke="black" points="223.5,-536.5 223.5,-615.5 353.5,-615.5 353.5,-536.5 223.5,-536.5"/>
<text text-anchor="middle" x="288.5" y="-603.5" font-family="Helvetica,sans-Serif" font-size="10.00">EmptySelectorCallback</text>
<polyline fill="none" stroke="black" points="223.5,-596.5 353.5,-596.5 "/>
<text text-anchor="middle" x="288.5" y="-584.5" font-family="Helvetica,sans-Serif" font-size="10.00"> </text>
<polyline fill="none" stroke="black" points="223.5,-577.5 353.5,-577.5 "/>
<text text-anchor="start" x="231.5" y="-565.5" font-family="Helvetica,sans-Serif" font-size="10.00">+ begin()</text>
<text text-anchor="start" x="231.5" y="-554.5" font-family="Helvetica,sans-Serif" font-size="10.00">+ update()</text>
<text text-anchor="start" x="231.5" y="-543.5" font-family="Helvetica,sans-Serif" font-size="10.00">+ update()</text>
</a>
</g>
</g>
<!-- Node9&#45;&gt;Node3 -->
<g id="edge8" class="edge">
<title>Node9&#45;&gt;Node3</title>
<path fill="none" stroke="#404040" d="M274.52,-536.36C262.45,-502.98 244.63,-453.72 229.62,-412.22"/>
<polygon fill="none" stroke="#404040" points="229.55,-412.03 223.74,-407.75 225.46,-400.74 231.27,-405.02 229.55,-412.03"/>
<text text-anchor="middle" x="266.5" y="-427.5" font-family="Helvetica,sans-Serif" font-size="10.00"> +callback</text>
</g>
<!-- Node10 -->
<g id="node10" class="node">
<title>Node10</title>
<g id="a_node10"><a xlink:href="../../df/dc6/classAH_1_1IncrementDecrementButtons.html" target="_top" xlink:title="A class for buttons that increment and decrement some counter or setting.">
<polygon fill="white" stroke="black" points="340.5,-266.5 340.5,-400.5 516.5,-400.5 516.5,-266.5 340.5,-266.5"/>
<text text-anchor="middle" x="428.5" y="-388.5" font-family="Helvetica,sans-Serif" font-size="10.00">IncrementDecrementButtons</text>
<polyline fill="none" stroke="black" points="340.5,-381.5 516.5,-381.5 "/>
<text text-anchor="start" x="348.5" y="-369.5" font-family="Helvetica,sans-Serif" font-size="10.00">&#45; longPressState</text>
<text text-anchor="start" x="348.5" y="-358.5" font-family="Helvetica,sans-Serif" font-size="10.00">&#45; longPressRepeat</text>
<text text-anchor="start" x="348.5" y="-347.5" font-family="Helvetica,sans-Serif" font-size="10.00">&#45; state</text>
<polyline fill="none" stroke="black" points="340.5,-340.5 516.5,-340.5 "/>
<text text-anchor="start" x="348.5" y="-328.5" font-family="Helvetica,sans-Serif" font-size="10.00">+ IncrementDecrementButtons()</text>
<text text-anchor="start" x="348.5" y="-317.5" font-family="Helvetica,sans-Serif" font-size="10.00">+ begin()</text>
<text text-anchor="start" x="348.5" y="-306.5" font-family="Helvetica,sans-Serif" font-size="10.00">+ update()</text>
<text text-anchor="start" x="348.5" y="-295.5" font-family="Helvetica,sans-Serif" font-size="10.00">+ getState()</text>
<text text-anchor="start" x="348.5" y="-284.5" font-family="Helvetica,sans-Serif" font-size="10.00">+ invert()</text>
<text text-anchor="start" x="348.5" y="-273.5" font-family="Helvetica,sans-Serif" font-size="10.00"># updateImplementation()</text>
</a>
</g>
</g>
<!-- Node10&#45;&gt;Node2 -->
<g id="edge9" class="edge">
<title>Node10&#45;&gt;Node2</title>
<path fill="none" stroke="#404040" d="M375.55,-266.03C365.65,-253.6 355.27,-240.57 345.28,-228.03"/>
<polygon fill="none" stroke="#404040" points="345.21,-227.94 338.35,-225.74 337.74,-218.56 344.6,-220.76 345.21,-227.94"/>
<text text-anchor="middle" x="381.5" y="-240" font-family="Helvetica,sans-Serif" font-size="10.00"> &#45;buttons</text>
</g>
<!-- Node11 -->
<g id="node11" class="node">
<title>Node11</title>
<g id="a_node11"><a xlink:href="../../de/d0d/classAH_1_1Button.html" target="_top" xlink:title="A class for reading and debouncing buttons and switches.">
<polygon fill="white" stroke="black" points="371.5,-459.5 371.5,-692.5 509.5,-692.5 509.5,-459.5 371.5,-459.5"/>
<text text-anchor="middle" x="440.5" y="-680.5" font-family="Helvetica,sans-Serif" font-size="10.00">Button</text>
<polyline fill="none" stroke="black" points="371.5,-673.5 509.5,-673.5 "/>
<text text-anchor="start" x="379.5" y="-661.5" font-family="Helvetica,sans-Serif" font-size="10.00">&#45; pin</text>
<text text-anchor="start" x="379.5" y="-650.5" font-family="Helvetica,sans-Serif" font-size="10.00">&#45; prevInput</text>
<text text-anchor="start" x="379.5" y="-639.5" font-family="Helvetica,sans-Serif" font-size="10.00">&#45; debouncedState</text>
<text text-anchor="start" x="379.5" y="-628.5" font-family="Helvetica,sans-Serif" font-size="10.00">&#45; prevBounceTime</text>
<text text-anchor="start" x="379.5" y="-617.5" font-family="Helvetica,sans-Serif" font-size="10.00">&#45; invertState</text>
<text text-anchor="start" x="379.5" y="-606.5" font-family="Helvetica,sans-Serif" font-size="10.00">&#45; debounceTime</text>
<polyline fill="none" stroke="black" points="371.5,-599.5 509.5,-599.5 "/>
<text text-anchor="start" x="379.5" y="-587.5" font-family="Helvetica,sans-Serif" font-size="10.00">+ Button()</text>
<text text-anchor="start" x="379.5" y="-576.5" font-family="Helvetica,sans-Serif" font-size="10.00">+ Button()</text>
<text text-anchor="start" x="379.5" y="-565.5" font-family="Helvetica,sans-Serif" font-size="10.00">+ begin()</text>
<text text-anchor="start" x="379.5" y="-554.5" font-family="Helvetica,sans-Serif" font-size="10.00">+ invert()</text>
<text text-anchor="start" x="379.5" y="-543.5" font-family="Helvetica,sans-Serif" font-size="10.00">+ update()</text>
<text text-anchor="start" x="379.5" y="-532.5" font-family="Helvetica,sans-Serif" font-size="10.00">+ getState()</text>
<text text-anchor="start" x="379.5" y="-521.5" font-family="Helvetica,sans-Serif" font-size="10.00">+ previousBounceTime()</text>
<text text-anchor="start" x="379.5" y="-510.5" font-family="Helvetica,sans-Serif" font-size="10.00">+ stableTime()</text>
<text text-anchor="start" x="379.5" y="-499.5" font-family="Helvetica,sans-Serif" font-size="10.00">+ stableTime()</text>
<text text-anchor="start" x="379.5" y="-488.5" font-family="Helvetica,sans-Serif" font-size="10.00">+ getName()</text>
<text text-anchor="start" x="379.5" y="-477.5" font-family="Helvetica,sans-Serif" font-size="10.00">+ setDebounceTime()</text>
<text text-anchor="start" x="379.5" y="-466.5" font-family="Helvetica,sans-Serif" font-size="10.00">+ getDebounceTime()</text>
</a>
</g>
</g>
<!-- Node11&#45;&gt;Node10 -->
<g id="edge10" class="edge">
<title>Node11&#45;&gt;Node10</title>
<path fill="none" stroke="#404040" d="M434.73,-459.33C433.95,-443.63 433.16,-427.82 432.42,-412.99"/>
<polygon fill="none" stroke="#404040" points="432.41,-412.76 428.11,-406.97 431.81,-400.78 436.1,-406.57 432.41,-412.76"/>
<text text-anchor="middle" x="480.5" y="-433" font-family="Helvetica,sans-Serif" font-size="10.00"> &#45;decrementButton</text>
<text text-anchor="middle" x="480.5" y="-422" font-family="Helvetica,sans-Serif" font-size="10.00">&#45;incrementButton</text>
</g>
</g>
</svg>
