<?xml version="1.0" encoding="UTF-8" standalone="no"?>
<!DOCTYPE svg PUBLIC "-//W3C//DTD SVG 1.1//EN"
 "http://www.w3.org/Graphics/SVG/1.1/DTD/svg11.dtd">
<!-- Generated by graphviz version 2.38.0 (20140413.2041)
 -->
<!-- Title: IncrementDecrementSelector&lt; N &gt; Pages: 1 -->
<svg width="503pt" height="1391pt"
 viewBox="0.00 0.00 502.50 1391.00" xmlns="http://www.w3.org/2000/svg" xmlns:xlink="http://www.w3.org/1999/xlink">
<g id="graph0" class="graph" transform="scale(1 1) rotate(0) translate(4 1387)">
<title>IncrementDecrementSelector&lt; N &gt;</title>
<polygon fill="white" stroke="none" points="-4,4 -4,-1387 498.5,-1387 498.5,4 -4,4"/>
<!-- Node1 -->
<g id="node1" class="node"><title>Node1</title>
<g id="a_node1"><a xlink:title="Selector with two buttons (one to increment, one to decrement).">
<polygon fill="#bfbfbf" stroke="black" points="271.5,-0.5 271.5,-57.5 441.5,-57.5 441.5,-0.5 271.5,-0.5"/>
<text text-anchor="middle" x="356.5" y="-45.5" font-family="Helvetica,sans-Serif" font-size="10.00">IncrementDecrementSelector&lt; N &gt;</text>
<polyline fill="none" stroke="black" points="271.5,-38.5 441.5,-38.5 "/>
<text text-anchor="middle" x="356.5" y="-26.5" font-family="Helvetica,sans-Serif" font-size="10.00"> </text>
<polyline fill="none" stroke="black" points="271.5,-19.5 441.5,-19.5 "/>
<text text-anchor="start" x="279.5" y="-7.5" font-family="Helvetica,sans-Serif" font-size="10.00">+ IncrementDecrementSelector()</text>
</a>
</g>
</g>
<!-- Node2 -->
<g id="node2" class="node"><title>Node2</title>
<g id="a_node2"><a xlink:href="../../d3/d78/classGenericIncrementDecrementSelector.html" target="_top" xlink:title=" ">
<polygon fill="white" stroke="black" points="281,-95.5 281,-218.5 432,-218.5 432,-95.5 281,-95.5"/>
<text text-anchor="start" x="289" y="-206.5" font-family="Helvetica,sans-Serif" font-size="10.00">GenericIncrementDecrement</text>
<text text-anchor="middle" x="356.5" y="-195.5" font-family="Helvetica,sans-Serif" font-size="10.00">Selector&lt; N &gt;</text>
<polyline fill="none" stroke="black" points="281,-188.5 432,-188.5 "/>
<text text-anchor="start" x="289" y="-176.5" font-family="Helvetica,sans-Serif" font-size="10.00">&#45; wrap</text>
<polyline fill="none" stroke="black" points="281,-169.5 432,-169.5 "/>
<text text-anchor="start" x="289" y="-157.5" font-family="Helvetica,sans-Serif" font-size="10.00">+ GenericIncrementDecrement</text>
<text text-anchor="start" x="289" y="-146.5" font-family="Helvetica,sans-Serif" font-size="10.00">Selector()</text>
<text text-anchor="start" x="289" y="-135.5" font-family="Helvetica,sans-Serif" font-size="10.00">+ begin()</text>
<text text-anchor="start" x="289" y="-124.5" font-family="Helvetica,sans-Serif" font-size="10.00">+ update()</text>
<text text-anchor="start" x="289" y="-113.5" font-family="Helvetica,sans-Serif" font-size="10.00">+ invert()</text>
<text text-anchor="start" x="289" y="-102.5" font-family="Helvetica,sans-Serif" font-size="10.00">+ getButtonsState()</text>
</a>
</g>
</g>
<!-- Node2&#45;&gt;Node1 -->
<g id="edge1" class="edge"><title>Node2&#45;&gt;Node1</title>
<path fill="none" stroke="midnightblue" d="M356.5,-85.0071C356.5,-75.2639 356.5,-65.7799 356.5,-57.5077"/>
<polygon fill="none" stroke="midnightblue" points="353,-85.2144 356.5,-95.2144 360,-85.2145 353,-85.2144"/>
</g>
<!-- Node3 -->
<g id="node3" class="node"><title>Node3</title>
<g id="a_node3"><a xlink:href="../../d0/d04/classGenericSelector.html" target="_top" xlink:title=" ">
<polygon fill="white" stroke="black" points="131,-266.5 131,-400.5 262,-400.5 262,-266.5 131,-266.5"/>
<text text-anchor="start" x="139" y="-388.5" font-family="Helvetica,sans-Serif" font-size="10.00">GenericSelector&lt; N,</text>
<text text-anchor="middle" x="196.5" y="-377.5" font-family="Helvetica,sans-Serif" font-size="10.00"> EmptySelectorCallback &gt;</text>
<polyline fill="none" stroke="black" points="131,-370.5 262,-370.5 "/>
<text text-anchor="start" x="139" y="-358.5" font-family="Helvetica,sans-Serif" font-size="10.00">&#45; selectable</text>
<polyline fill="none" stroke="black" points="131,-351.5 262,-351.5 "/>
<text text-anchor="start" x="139" y="-339.5" font-family="Helvetica,sans-Serif" font-size="10.00">+ GenericSelector()</text>
<text text-anchor="start" x="139" y="-328.5" font-family="Helvetica,sans-Serif" font-size="10.00">+ begin()</text>
<text text-anchor="start" x="139" y="-317.5" font-family="Helvetica,sans-Serif" font-size="10.00">+ update()</text>
<text text-anchor="start" x="139" y="-306.5" font-family="Helvetica,sans-Serif" font-size="10.00">+ reset()</text>
<text text-anchor="start" x="139" y="-295.5" font-family="Helvetica,sans-Serif" font-size="10.00">+ set()</text>
<text text-anchor="start" x="139" y="-284.5" font-family="Helvetica,sans-Serif" font-size="10.00">+ increment()</text>
<text text-anchor="start" x="139" y="-273.5" font-family="Helvetica,sans-Serif" font-size="10.00">+ decrement()</text>
</a>
</g>
</g>
<!-- Node3&#45;&gt;Node2 -->
<g id="edge2" class="edge"><title>Node3&#45;&gt;Node2</title>
<path fill="none" stroke="midnightblue" d="M264.207,-258.657C276.466,-245.288 289.118,-231.488 300.977,-218.555"/>
<polygon fill="none" stroke="midnightblue" points="261.624,-256.295 257.446,-266.031 266.784,-261.026 261.624,-256.295"/>
</g>
<!-- Node4 -->
<g id="node4" class="node"><title>Node4</title>
<g id="a_node4"><a xlink:href="../../dc/d77/classSelectorBase.html" target="_top" xlink:title="Base class for all Selectors exposing the get method, so it can be used by display elements etc,...">
<polygon fill="white" stroke="black" points="0,-531 0,-599 89,-599 89,-531 0,-531"/>
<text text-anchor="middle" x="44.5" y="-587" font-family="Helvetica,sans-Serif" font-size="10.00">SelectorBase</text>
<polyline fill="none" stroke="black" points="0,-580 89,-580 "/>
<text text-anchor="start" x="8" y="-568" font-family="Helvetica,sans-Serif" font-size="10.00"># setting</text>
<polyline fill="none" stroke="black" points="0,-561 89,-561 "/>
<text text-anchor="start" x="8" y="-549" font-family="Helvetica,sans-Serif" font-size="10.00">+ get()</text>
<text text-anchor="start" x="8" y="-538" font-family="Helvetica,sans-Serif" font-size="10.00"># SelectorBase()</text>
</a>
</g>
</g>
<!-- Node4&#45;&gt;Node3 -->
<g id="edge3" class="edge"><title>Node4&#45;&gt;Node3</title>
<path fill="none" stroke="midnightblue" d="M63.4593,-521.606C72.8213,-502.035 84.8182,-478.802 97.5,-459 110.085,-439.35 125.148,-419.107 139.682,-400.804"/>
<polygon fill="none" stroke="midnightblue" points="60.1818,-520.35 59.0836,-530.888 66.5136,-523.335 60.1818,-520.35"/>
</g>
<!-- Node5 -->
<g id="node5" class="node"><title>Node5</title>
<g id="a_node5"><a xlink:href="../../d1/d55/classAH_1_1Updatable.html" target="_top" xlink:title=" ">
<polygon fill="white" stroke="black" points="107,-459.5 107,-670.5 200,-670.5 200,-459.5 107,-459.5"/>
<text text-anchor="middle" x="153.5" y="-658.5" font-family="Helvetica,sans-Serif" font-size="10.00">AH::Updatable&lt;&gt;</text>
<polyline fill="none" stroke="black" points="107,-651.5 200,-651.5 "/>
<text text-anchor="middle" x="153.5" y="-639.5" font-family="Helvetica,sans-Serif" font-size="10.00"> </text>
<polyline fill="none" stroke="black" points="107,-632.5 200,-632.5 "/>
<text text-anchor="start" x="115" y="-620.5" font-family="Helvetica,sans-Serif" font-size="10.00">+ ~Updatable()</text>
<text text-anchor="start" x="115" y="-609.5" font-family="Helvetica,sans-Serif" font-size="10.00">+ update()</text>
<text text-anchor="start" x="115" y="-598.5" font-family="Helvetica,sans-Serif" font-size="10.00">+ begin()</text>
<text text-anchor="start" x="115" y="-587.5" font-family="Helvetica,sans-Serif" font-size="10.00">+ enable()</text>
<text text-anchor="start" x="115" y="-576.5" font-family="Helvetica,sans-Serif" font-size="10.00">+ disable()</text>
<text text-anchor="start" x="115" y="-565.5" font-family="Helvetica,sans-Serif" font-size="10.00">+ isEnabled()</text>
<text text-anchor="start" x="115" y="-554.5" font-family="Helvetica,sans-Serif" font-size="10.00">+ enable()</text>
<text text-anchor="start" x="115" y="-543.5" font-family="Helvetica,sans-Serif" font-size="10.00">+ enable()</text>
<text text-anchor="start" x="115" y="-532.5" font-family="Helvetica,sans-Serif" font-size="10.00">+ enable()</text>
<text text-anchor="start" x="115" y="-521.5" font-family="Helvetica,sans-Serif" font-size="10.00">+ disable()</text>
<text text-anchor="start" x="115" y="-510.5" font-family="Helvetica,sans-Serif" font-size="10.00">+ disable()</text>
<text text-anchor="start" x="115" y="-499.5" font-family="Helvetica,sans-Serif" font-size="10.00">+ disable()</text>
<text text-anchor="start" x="115" y="-488.5" font-family="Helvetica,sans-Serif" font-size="10.00">+ beginAll()</text>
<text text-anchor="start" x="115" y="-477.5" font-family="Helvetica,sans-Serif" font-size="10.00">+ updateAll()</text>
<text text-anchor="start" x="115" y="-466.5" font-family="Helvetica,sans-Serif" font-size="10.00"># Updatable()</text>
</a>
</g>
</g>
<!-- Node5&#45;&gt;Node3 -->
<g id="edge4" class="edge"><title>Node5&#45;&gt;Node3</title>
<path fill="none" stroke="midnightblue" d="M174.959,-449.468C178.099,-432.709 181.24,-415.944 184.115,-400.603"/>
<polygon fill="none" stroke="midnightblue" points="171.514,-448.85 173.113,-459.324 178.394,-450.14 171.514,-448.85"/>
</g>
<!-- Node6 -->
<g id="node6" class="node"><title>Node6</title>
<g id="a_node6"><a xlink:href="../../d4/d23/classDoublyLinkable.html" target="_top" xlink:title=" ">
<polygon fill="white" stroke="black" points="104,-1303.5 104,-1382.5 241,-1382.5 241,-1303.5 104,-1303.5"/>
<text text-anchor="start" x="112" y="-1370.5" font-family="Helvetica,sans-Serif" font-size="10.00">DoublyLinkable&lt; Updatable</text>
<text text-anchor="middle" x="172.5" y="-1359.5" font-family="Helvetica,sans-Serif" font-size="10.00">&lt; NormalUpdatable &gt; &gt;</text>
<polyline fill="none" stroke="black" points="104,-1352.5 241,-1352.5 "/>
<text text-anchor="start" x="112" y="-1340.5" font-family="Helvetica,sans-Serif" font-size="10.00"># next</text>
<text text-anchor="start" x="112" y="-1329.5" font-family="Helvetica,sans-Serif" font-size="10.00"># previous</text>
<polyline fill="none" stroke="black" points="104,-1322.5 241,-1322.5 "/>
<text text-anchor="start" x="112" y="-1310.5" font-family="Helvetica,sans-Serif" font-size="10.00"># ~DoublyLinkable()</text>
</a>
</g>
</g>
<!-- Node6&#45;&gt;Node5 -->
<g id="edge5" class="edge"><title>Node6&#45;&gt;Node5</title>
<path fill="none" stroke="midnightblue" d="M160.706,-1293.22C158.965,-1284.22 157.442,-1274.87 156.5,-1266 134.15,-1055.72 140.796,-807.909 147.347,-670.728"/>
<polygon fill="none" stroke="midnightblue" points="157.311,-1294.09 162.744,-1303.19 164.169,-1292.69 157.311,-1294.09"/>
</g>
<!-- Node8 -->
<g id="node8" class="node"><title>Node8</title>
<g id="a_node8"><a xlink:href="../../d1/d55/classAH_1_1Updatable.html" target="_top" xlink:title=" ">
<polygon fill="white" stroke="black" points="166,-1054.5 166,-1265.5 341,-1265.5 341,-1054.5 166,-1054.5"/>
<text text-anchor="middle" x="253.5" y="-1253.5" font-family="Helvetica,sans-Serif" font-size="10.00">AH::Updatable&lt; NormalUpdatable &gt;</text>
<polyline fill="none" stroke="black" points="166,-1246.5 341,-1246.5 "/>
<text text-anchor="middle" x="253.5" y="-1234.5" font-family="Helvetica,sans-Serif" font-size="10.00"> </text>
<polyline fill="none" stroke="black" points="166,-1227.5 341,-1227.5 "/>
<text text-anchor="start" x="174" y="-1215.5" font-family="Helvetica,sans-Serif" font-size="10.00">+ ~Updatable()</text>
<text text-anchor="start" x="174" y="-1204.5" font-family="Helvetica,sans-Serif" font-size="10.00">+ update()</text>
<text text-anchor="start" x="174" y="-1193.5" font-family="Helvetica,sans-Serif" font-size="10.00">+ begin()</text>
<text text-anchor="start" x="174" y="-1182.5" font-family="Helvetica,sans-Serif" font-size="10.00">+ enable()</text>
<text text-anchor="start" x="174" y="-1171.5" font-family="Helvetica,sans-Serif" font-size="10.00">+ disable()</text>
<text text-anchor="start" x="174" y="-1160.5" font-family="Helvetica,sans-Serif" font-size="10.00">+ isEnabled()</text>
<text text-anchor="start" x="174" y="-1149.5" font-family="Helvetica,sans-Serif" font-size="10.00">+ enable()</text>
<text text-anchor="start" x="174" y="-1138.5" font-family="Helvetica,sans-Serif" font-size="10.00">+ enable()</text>
<text text-anchor="start" x="174" y="-1127.5" font-family="Helvetica,sans-Serif" font-size="10.00">+ enable()</text>
<text text-anchor="start" x="174" y="-1116.5" font-family="Helvetica,sans-Serif" font-size="10.00">+ disable()</text>
<text text-anchor="start" x="174" y="-1105.5" font-family="Helvetica,sans-Serif" font-size="10.00">+ disable()</text>
<text text-anchor="start" x="174" y="-1094.5" font-family="Helvetica,sans-Serif" font-size="10.00">+ disable()</text>
<text text-anchor="start" x="174" y="-1083.5" font-family="Helvetica,sans-Serif" font-size="10.00">+ beginAll()</text>
<text text-anchor="start" x="174" y="-1072.5" font-family="Helvetica,sans-Serif" font-size="10.00">+ updateAll()</text>
<text text-anchor="start" x="174" y="-1061.5" font-family="Helvetica,sans-Serif" font-size="10.00"># Updatable()</text>
</a>
</g>
</g>
<!-- Node6&#45;&gt;Node8 -->
<g id="edge8" class="edge"><title>Node6&#45;&gt;Node8</title>
<path fill="none" stroke="midnightblue" d="M194.058,-1293.83C198.034,-1284.94 202.325,-1275.35 206.717,-1265.54"/>
<polygon fill="none" stroke="midnightblue" points="190.767,-1292.61 189.877,-1303.17 197.156,-1295.47 190.767,-1292.61"/>
</g>
<!-- Node7 -->
<g id="node7" class="node"><title>Node7</title>
<g id="a_node7"><a xlink:href="../../dd/d16/classDoublyLinkedList.html" target="_top" xlink:title=" ">
<polygon fill="white" stroke="black" points="165.5,-718.5 165.5,-995.5 335.5,-995.5 335.5,-718.5 165.5,-718.5"/>
<text text-anchor="start" x="173.5" y="-983.5" font-family="Helvetica,sans-Serif" font-size="10.00">DoublyLinkedList&lt; AH</text>
<text text-anchor="middle" x="250.5" y="-972.5" font-family="Helvetica,sans-Serif" font-size="10.00">::Updatable&lt; NormalUpdatable &gt; &gt;</text>
<polyline fill="none" stroke="black" points="165.5,-965.5 335.5,-965.5 "/>
<text text-anchor="middle" x="250.5" y="-953.5" font-family="Helvetica,sans-Serif" font-size="10.00"> </text>
<polyline fill="none" stroke="black" points="165.5,-946.5 335.5,-946.5 "/>
<text text-anchor="start" x="173.5" y="-934.5" font-family="Helvetica,sans-Serif" font-size="10.00">+ append()</text>
<text text-anchor="start" x="173.5" y="-923.5" font-family="Helvetica,sans-Serif" font-size="10.00">+ append()</text>
<text text-anchor="start" x="173.5" y="-912.5" font-family="Helvetica,sans-Serif" font-size="10.00">+ insertBefore()</text>
<text text-anchor="start" x="173.5" y="-901.5" font-family="Helvetica,sans-Serif" font-size="10.00">+ insertBefore()</text>
<text text-anchor="start" x="173.5" y="-890.5" font-family="Helvetica,sans-Serif" font-size="10.00">+ insertSorted()</text>
<text text-anchor="start" x="173.5" y="-879.5" font-family="Helvetica,sans-Serif" font-size="10.00">+ insertSorted()</text>
<text text-anchor="start" x="173.5" y="-868.5" font-family="Helvetica,sans-Serif" font-size="10.00">+ remove()</text>
<text text-anchor="start" x="173.5" y="-857.5" font-family="Helvetica,sans-Serif" font-size="10.00">+ remove()</text>
<text text-anchor="start" x="173.5" y="-846.5" font-family="Helvetica,sans-Serif" font-size="10.00">+ moveDown()</text>
<text text-anchor="start" x="173.5" y="-835.5" font-family="Helvetica,sans-Serif" font-size="10.00">+ couldContain()</text>
<text text-anchor="start" x="173.5" y="-824.5" font-family="Helvetica,sans-Serif" font-size="10.00">+ begin()</text>
<text text-anchor="start" x="173.5" y="-813.5" font-family="Helvetica,sans-Serif" font-size="10.00">+ begin()</text>
<text text-anchor="start" x="173.5" y="-802.5" font-family="Helvetica,sans-Serif" font-size="10.00">+ end()</text>
<text text-anchor="start" x="173.5" y="-791.5" font-family="Helvetica,sans-Serif" font-size="10.00">+ end()</text>
<text text-anchor="start" x="173.5" y="-780.5" font-family="Helvetica,sans-Serif" font-size="10.00">+ rbegin()</text>
<text text-anchor="start" x="173.5" y="-769.5" font-family="Helvetica,sans-Serif" font-size="10.00">+ rbegin()</text>
<text text-anchor="start" x="173.5" y="-758.5" font-family="Helvetica,sans-Serif" font-size="10.00">+ rend()</text>
<text text-anchor="start" x="173.5" y="-747.5" font-family="Helvetica,sans-Serif" font-size="10.00">+ rend()</text>
<text text-anchor="start" x="173.5" y="-736.5" font-family="Helvetica,sans-Serif" font-size="10.00">+ getFirst()</text>
<text text-anchor="start" x="173.5" y="-725.5" font-family="Helvetica,sans-Serif" font-size="10.00">+ getLast()</text>
</a>
</g>
</g>
<!-- Node7&#45;&gt;Node5 -->
<g id="edge6" class="edge"><title>Node7&#45;&gt;Node5</title>
<path fill="none" stroke="#404040" d="M204.415,-718.219C200.419,-706.272 196.401,-694.259 192.469,-682.507"/>
<polygon fill="none" stroke="#404040" points="192.378,-682.233 186.681,-677.812 188.571,-670.853 194.268,-675.274 192.378,-682.233"/>
<text text-anchor="middle" x="223.5" y="-692" font-family="Helvetica,sans-Serif" font-size="10.00"> &#45;updatables</text>
</g>
<!-- Node7&#45;&gt;Node8 -->
<g id="edge9" class="edge"><title>Node7&#45;&gt;Node8</title>
<path fill="none" stroke="#404040" d="M252.311,-995.806C252.378,-1001.95 252.441,-1008.04 252.5,-1014 252.591,-1023.2 252.676,-1032.74 252.755,-1042.32"/>
<polygon fill="none" stroke="#404040" points="252.756,-1042.45 256.804,-1048.42 252.853,-1054.45 248.805,-1048.49 252.756,-1042.45"/>
<text text-anchor="middle" x="280.5" y="-1022.5" font-family="Helvetica,sans-Serif" font-size="10.00"> &#45;updatables</text>
</g>
<!-- Node8&#45;&gt;Node7 -->
<g id="edge7" class="edge"><title>Node8&#45;&gt;Node7</title>
<path fill="none" stroke="#404040" d="M232.557,-1054.17C231.75,-1048.04 231.051,-1041.95 230.5,-1036 229.652,-1026.86 229.266,-1017.45 229.247,-1007.97"/>
<polygon fill="none" stroke="#404040" points="229.247,-1007.93 225.33,-1001.88 229.411,-995.935 233.329,-1001.99 229.247,-1007.93"/>
<text text-anchor="middle" x="241.5" y="-1028" font-family="Helvetica,sans-Serif" font-size="10.00"> &#45;last</text>
<text text-anchor="middle" x="241.5" y="-1017" font-family="Helvetica,sans-Serif" font-size="10.00">&#45;first</text>
</g>
<!-- Node9 -->
<g id="node9" class="node"><title>Node9</title>
<g id="a_node9"><a xlink:href="../../d3/d8b/structEmptySelectorCallback.html" target="_top" xlink:title="A callback for the GenericSelector class that does nothing.">
<polygon fill="white" stroke="black" points="218,-525.5 218,-604.5 337,-604.5 337,-525.5 218,-525.5"/>
<text text-anchor="middle" x="277.5" y="-592.5" font-family="Helvetica,sans-Serif" font-size="10.00">EmptySelectorCallback</text>
<polyline fill="none" stroke="black" points="218,-585.5 337,-585.5 "/>
<text text-anchor="middle" x="277.5" y="-573.5" font-family="Helvetica,sans-Serif" font-size="10.00"> </text>
<polyline fill="none" stroke="black" points="218,-566.5 337,-566.5 "/>
<text text-anchor="start" x="226" y="-554.5" font-family="Helvetica,sans-Serif" font-size="10.00">+ begin()</text>
<text text-anchor="start" x="226" y="-543.5" font-family="Helvetica,sans-Serif" font-size="10.00">+ update()</text>
<text text-anchor="start" x="226" y="-532.5" font-family="Helvetica,sans-Serif" font-size="10.00">+ update()</text>
</a>
</g>
</g>
<!-- Node9&#45;&gt;Node3 -->
<g id="edge10" class="edge"><title>Node9&#45;&gt;Node3</title>
<path fill="none" stroke="#404040" d="M263.851,-525.328C252.982,-494.533 237.418,-450.434 223.989,-412.386"/>
<polygon fill="none" stroke="#404040" points="223.891,-412.109 218.123,-407.782 219.898,-400.793 225.666,-405.12 223.891,-412.109"/>
<text text-anchor="middle" x="255.5" y="-427.5" font-family="Helvetica,sans-Serif" font-size="10.00"> +callback</text>
</g>
<!-- Node10 -->
<g id="node10" class="node"><title>Node10</title>
<g id="a_node10"><a xlink:href="../../df/dc6/classAH_1_1IncrementDecrementButtons.html" target="_top" xlink:title="A class for buttons that increment and decrement some counter or setting.">
<polygon fill="white" stroke="black" points="328.5,-266.5 328.5,-400.5 490.5,-400.5 490.5,-266.5 328.5,-266.5"/>
<text text-anchor="middle" x="409.5" y="-388.5" font-family="Helvetica,sans-Serif" font-size="10.00">AH::IncrementDecrementButtons</text>
<polyline fill="none" stroke="black" points="328.5,-381.5 490.5,-381.5 "/>
<text text-anchor="start" x="336.5" y="-369.5" font-family="Helvetica,sans-Serif" font-size="10.00">&#45; longPressState</text>
<text text-anchor="start" x="336.5" y="-358.5" font-family="Helvetica,sans-Serif" font-size="10.00">&#45; longPressRepeat</text>
<text text-anchor="start" x="336.5" y="-347.5" font-family="Helvetica,sans-Serif" font-size="10.00">&#45; state</text>
<polyline fill="none" stroke="black" points="328.5,-340.5 490.5,-340.5 "/>
<text text-anchor="start" x="336.5" y="-328.5" font-family="Helvetica,sans-Serif" font-size="10.00">+ IncrementDecrementButtons()</text>
<text text-anchor="start" x="336.5" y="-317.5" font-family="Helvetica,sans-Serif" font-size="10.00">+ begin()</text>
<text text-anchor="start" x="336.5" y="-306.5" font-family="Helvetica,sans-Serif" font-size="10.00">+ update()</text>
<text text-anchor="start" x="336.5" y="-295.5" font-family="Helvetica,sans-Serif" font-size="10.00">+ getState()</text>
<text text-anchor="start" x="336.5" y="-284.5" font-family="Helvetica,sans-Serif" font-size="10.00">+ invert()</text>
<text text-anchor="start" x="336.5" y="-273.5" font-family="Helvetica,sans-Serif" font-size="10.00"># updateImplementation()</text>
</a>
</g>
</g>
<!-- Node10&#45;&gt;Node2 -->
<g id="edge11" class="edge"><title>Node10&#45;&gt;Node2</title>
<path fill="none" stroke="#404040" d="M389.312,-266.031C385.757,-254.329 382.042,-242.097 378.443,-230.246"/>
<polygon fill="none" stroke="#404040" points="378.38,-230.037 372.809,-225.459 374.892,-218.555 380.463,-223.134 378.38,-230.037"/>
<text text-anchor="middle" x="403" y="-240" font-family="Helvetica,sans-Serif" font-size="10.00"> &#45;buttons</text>
</g>
<!-- Node11 -->
<g id="node11" class="node"><title>Node11</title>
<g id="a_node11"><a xlink:href="../../de/d0d/classAH_1_1Button.html" target="_top" xlink:title="A class for reading and debouncing buttons and switches.">
<polygon fill="white" stroke="black" points="355,-459.5 355,-670.5 478,-670.5 478,-459.5 355,-459.5"/>
<text text-anchor="middle" x="416.5" y="-658.5" font-family="Helvetica,sans-Serif" font-size="10.00">AH::Button</text>
<polyline fill="none" stroke="black" points="355,-651.5 478,-651.5 "/>
<text text-anchor="start" x="363" y="-639.5" font-family="Helvetica,sans-Serif" font-size="10.00">&#45; pin</text>
<text text-anchor="start" x="363" y="-628.5" font-family="Helvetica,sans-Serif" font-size="10.00">&#45; prevInput</text>
<text text-anchor="start" x="363" y="-617.5" font-family="Helvetica,sans-Serif" font-size="10.00">&#45; debouncedState</text>
<text text-anchor="start" x="363" y="-606.5" font-family="Helvetica,sans-Serif" font-size="10.00">&#45; prevBounceTime</text>
<text text-anchor="start" x="363" y="-595.5" font-family="Helvetica,sans-Serif" font-size="10.00">&#45; invertState</text>
<text text-anchor="start" x="363" y="-584.5" font-family="Helvetica,sans-Serif" font-size="10.00">&#45; debounceTime</text>
<polyline fill="none" stroke="black" points="355,-577.5 478,-577.5 "/>
<text text-anchor="start" x="363" y="-565.5" font-family="Helvetica,sans-Serif" font-size="10.00">+ Button()</text>
<text text-anchor="start" x="363" y="-554.5" font-family="Helvetica,sans-Serif" font-size="10.00">+ Button()</text>
<text text-anchor="start" x="363" y="-543.5" font-family="Helvetica,sans-Serif" font-size="10.00">+ begin()</text>
<text text-anchor="start" x="363" y="-532.5" font-family="Helvetica,sans-Serif" font-size="10.00">+ invert()</text>
<text text-anchor="start" x="363" y="-521.5" font-family="Helvetica,sans-Serif" font-size="10.00">+ update()</text>
<text text-anchor="start" x="363" y="-510.5" font-family="Helvetica,sans-Serif" font-size="10.00">+ getState()</text>
<text text-anchor="start" x="363" y="-499.5" font-family="Helvetica,sans-Serif" font-size="10.00">+ previousBounceTime()</text>
<text text-anchor="start" x="363" y="-488.5" font-family="Helvetica,sans-Serif" font-size="10.00">+ stableTime()</text>
<text text-anchor="start" x="363" y="-477.5" font-family="Helvetica,sans-Serif" font-size="10.00">+ stableTime()</text>
<text text-anchor="start" x="363" y="-466.5" font-family="Helvetica,sans-Serif" font-size="10.00">+ getName()</text>
</a>
</g>
</g>
<!-- Node11&#45;&gt;Node10 -->
<g id="edge12" class="edge"><title>Node11&#45;&gt;Node10</title>
<path fill="none" stroke="#404040" d="M413.307,-459.324C412.831,-443.715 412.347,-427.856 411.892,-412.914"/>
<polygon fill="none" stroke="#404040" points="411.882,-412.597 407.701,-406.722 411.516,-400.603 415.697,-406.478 411.882,-412.597"/>
<text text-anchor="middle" x="454" y="-433" font-family="Helvetica,sans-Serif" font-size="10.00"> &#45;decrementButton</text>
<text text-anchor="middle" x="454" y="-422" font-family="Helvetica,sans-Serif" font-size="10.00">&#45;incrementButton</text>
</g>
</g>
</svg>
