<?xml version="1.0" encoding="UTF-8" standalone="no"?>
<!DOCTYPE svg PUBLIC "-//W3C//DTD SVG 1.1//EN"
 "http://www.w3.org/Graphics/SVG/1.1/DTD/svg11.dtd">
<!-- Generated by graphviz version 2.43.0 (0)
 -->
<!-- Title: LEDs.hpp Pages: 1 -->
<svg width="659pt" height="207pt"
 viewBox="0.00 0.00 659.00 207.00" xmlns="http://www.w3.org/2000/svg" xmlns:xlink="http://www.w3.org/1999/xlink">
<g id="graph0" class="graph" transform="scale(1 1) rotate(0) translate(4 203)">
<title>LEDs.hpp</title>
<polygon fill="white" stroke="transparent" points="-4,4 -4,-203 655,-203 655,4 -4,4"/>
<!-- Node1 -->
<g id="node1" class="node">
<title>Node1</title>
<g id="a_node1"><a xlink:title=" ">
<polygon fill="#bfbfbf" stroke="black" points="419,-179.5 419,-198.5 481,-198.5 481,-179.5 419,-179.5"/>
<text text-anchor="middle" x="450" y="-186.5" font-family="Helvetica,sans-Serif" font-size="10.00">LEDs.hpp</text>
</a>
</g>
</g>
<!-- Node2 -->
<g id="node2" class="node">
<title>Node2</title>
<g id="a_node2"><a xlink:href="../../d6/d3a/DotBarDisplayLEDs_8hpp.html" target="_top" xlink:title=" ">
<polygon fill="white" stroke="black" points="249,-123.5 249,-142.5 405,-142.5 405,-123.5 249,-123.5"/>
<text text-anchor="middle" x="327" y="-130.5" font-family="Helvetica,sans-Serif" font-size="10.00">AH/Hardware/LEDs/LEDs.hpp</text>
</a>
</g>
</g>
<!-- Node1&#45;&gt;Node2 -->
<g id="edge1" class="edge">
<title>Node1&#45;&gt;Node2</title>
<path fill="none" stroke="midnightblue" d="M421.23,-175.37C398.19,-165.26 366.52,-151.35 346.4,-142.52"/>
<polygon fill="midnightblue" stroke="midnightblue" points="419.95,-178.63 430.51,-179.44 422.76,-172.22 419.95,-178.63"/>
</g>
<!-- Node7 -->
<g id="node7" class="node">
<title>Node7</title>
<g id="a_node7"><a xlink:href="../../dc/d48/VPotRingLEDs_8hpp.html" target="_top" xlink:title=" ">
<polygon fill="white" stroke="black" points="495,-123.5 495,-142.5 651,-142.5 651,-123.5 495,-123.5"/>
<text text-anchor="middle" x="573" y="-130.5" font-family="Helvetica,sans-Serif" font-size="10.00">AH/Hardware/LEDs/LEDs.hpp</text>
</a>
</g>
</g>
<!-- Node1&#45;&gt;Node7 -->
<g id="edge8" class="edge">
<title>Node1&#45;&gt;Node7</title>
<path fill="none" stroke="midnightblue" d="M478.77,-175.37C501.81,-165.26 533.48,-151.35 553.6,-142.52"/>
<polygon fill="midnightblue" stroke="midnightblue" points="477.24,-172.22 469.49,-179.44 480.05,-178.63 477.24,-172.22"/>
</g>
<!-- Node3 -->
<g id="node3" class="node">
<title>Node3</title>
<g id="a_node3"><a xlink:href="../../d4/dde/AudioVULEDs_8hpp.html" target="_top" xlink:title=" ">
<polygon fill="white" stroke="black" points="0,-56.5 0,-86.5 182,-86.5 182,-56.5 0,-56.5"/>
<text text-anchor="start" x="8" y="-74.5" font-family="Helvetica,sans-Serif" font-size="10.00">AH/Hardware/LEDs/DotBarDisplay</text>
<text text-anchor="middle" x="91" y="-63.5" font-family="Helvetica,sans-Serif" font-size="10.00">LEDs.hpp</text>
</a>
</g>
</g>
<!-- Node2&#45;&gt;Node3 -->
<g id="edge2" class="edge">
<title>Node2&#45;&gt;Node3</title>
<path fill="none" stroke="midnightblue" d="M283.3,-120.98C244.76,-111.27 188.38,-97.05 146.62,-86.52"/>
<polygon fill="midnightblue" stroke="midnightblue" points="282.63,-124.42 293.19,-123.48 284.35,-117.64 282.63,-124.42"/>
</g>
<!-- Node5 -->
<g id="node5" class="node">
<title>Node5</title>
<g id="a_node5"><a xlink:href="../../de/d3d/VULEDs_8hpp.html" target="_top" xlink:title=" ">
<polygon fill="white" stroke="black" points="200,-56.5 200,-86.5 382,-86.5 382,-56.5 200,-56.5"/>
<text text-anchor="start" x="208" y="-74.5" font-family="Helvetica,sans-Serif" font-size="10.00">AH/Hardware/LEDs/DotBarDisplay</text>
<text text-anchor="middle" x="291" y="-63.5" font-family="Helvetica,sans-Serif" font-size="10.00">LEDs.hpp</text>
</a>
</g>
</g>
<!-- Node2&#45;&gt;Node5 -->
<g id="edge4" class="edge">
<title>Node2&#45;&gt;Node5</title>
<path fill="none" stroke="midnightblue" d="M316.52,-114.68C311.1,-105.73 304.58,-94.94 299.48,-86.52"/>
<polygon fill="midnightblue" stroke="midnightblue" points="313.67,-116.73 321.84,-123.48 319.66,-113.11 313.67,-116.73"/>
</g>
<!-- Node6 -->
<g id="node6" class="node">
<title>Node6</title>
<g id="a_node6"><a xlink:href="../../d8/ddf/NoteCCRangeLEDBar_8hpp.html" target="_top" xlink:title=" ">
<polygon fill="white" stroke="black" points="400,-56.5 400,-86.5 582,-86.5 582,-56.5 400,-56.5"/>
<text text-anchor="start" x="408" y="-74.5" font-family="Helvetica,sans-Serif" font-size="10.00">AH/Hardware/LEDs/DotBarDisplay</text>
<text text-anchor="middle" x="491" y="-63.5" font-family="Helvetica,sans-Serif" font-size="10.00">LEDs.hpp</text>
</a>
</g>
</g>
<!-- Node2&#45;&gt;Node6 -->
<g id="edge6" class="edge">
<title>Node2&#45;&gt;Node6</title>
<path fill="none" stroke="midnightblue" d="M360.14,-119.98C386.81,-110.3 424.32,-96.69 452.35,-86.52"/>
<polygon fill="midnightblue" stroke="midnightblue" points="358.7,-116.77 350.5,-123.48 361.09,-123.35 358.7,-116.77"/>
</g>
<!-- Node4 -->
<g id="node4" class="node">
<title>Node4</title>
<g id="a_node4"><a xlink:href="../../db/dbf/Control__Surface_8h.html" target="_top" xlink:title="The main header file that includes all Control&#45;Surface header files.">
<polygon fill="white" stroke="black" points="324,-0.5 324,-19.5 458,-19.5 458,-0.5 324,-0.5"/>
<text text-anchor="middle" x="391" y="-7.5" font-family="Helvetica,sans-Serif" font-size="10.00">Audio/AudioVULEDs.hpp</text>
</a>
</g>
</g>
<!-- Node3&#45;&gt;Node4 -->
<g id="edge3" class="edge">
<title>Node3&#45;&gt;Node4</title>
<path fill="none" stroke="midnightblue" d="M171.75,-54.48C228.53,-43.22 302.27,-28.6 348.11,-19.51"/>
<polygon fill="midnightblue" stroke="midnightblue" points="170.84,-51.1 161.72,-56.47 172.21,-57.96 170.84,-51.1"/>
</g>
<!-- Node5&#45;&gt;Node4 -->
<g id="edge5" class="edge">
<title>Node5&#45;&gt;Node4</title>
<path fill="none" stroke="midnightblue" d="M323.66,-51.07C341.48,-40.46 362.67,-27.86 376.45,-19.66"/>
<polygon fill="midnightblue" stroke="midnightblue" points="321.5,-48.28 314.7,-56.4 325.08,-54.29 321.5,-48.28"/>
</g>
<!-- Node6&#45;&gt;Node4 -->
<g id="edge7" class="edge">
<title>Node6&#45;&gt;Node4</title>
<path fill="none" stroke="midnightblue" d="M458.34,-51.07C440.52,-40.46 419.33,-27.86 405.55,-19.66"/>
<polygon fill="midnightblue" stroke="midnightblue" points="456.92,-54.29 467.3,-56.4 460.5,-48.28 456.92,-54.29"/>
</g>
<!-- Node7&#45;&gt;Node4 -->
<g id="edge9" class="edge">
<title>Node7&#45;&gt;Node4</title>
<path fill="none" stroke="midnightblue" d="M584.63,-114.73C594.28,-98.02 604.45,-72.82 591,-56 574.46,-35.33 509.62,-23.49 458.19,-17.19"/>
<polygon fill="midnightblue" stroke="midnightblue" points="581.5,-113.12 579.18,-123.46 587.44,-116.83 581.5,-113.12"/>
</g>
</g>
</svg>
