<?xml version="1.0" encoding="UTF-8" standalone="no"?>
<!DOCTYPE svg PUBLIC "-//W3C//DTD SVG 1.1//EN"
 "http://www.w3.org/Graphics/SVG/1.1/DTD/svg11.dtd">
<!-- Generated by graphviz version 2.43.0 (0)
 -->
<!-- Title: CCRangeLEDsPWM&lt; RangeLen &gt; Pages: 1 -->
<svg width="760pt" height="1298pt"
 viewBox="0.00 0.00 759.50 1298.00" xmlns="http://www.w3.org/2000/svg" xmlns:xlink="http://www.w3.org/1999/xlink">
<g id="graph0" class="graph" transform="scale(1 1) rotate(0) translate(4 1294)">
<title>CCRangeLEDsPWM&lt; RangeLen &gt;</title>
<polygon fill="white" stroke="transparent" points="-4,4 -4,-1294 755.5,-1294 755.5,4 -4,4"/>
<!-- Node1 -->
<g id="node1" class="node">
<title>Node1</title>
<g id="a_node1"><a xlink:title="MIDI Input Element that listens for MIDI Control Change messages in a given range,...">
<polygon fill="#bfbfbf" stroke="black" points="360,-0.5 360,-57.5 540,-57.5 540,-0.5 360,-0.5"/>
<text text-anchor="middle" x="450" y="-45.5" font-family="Helvetica,sans-Serif" font-size="10.00">CCRangeLEDsPWM&lt; RangeLen &gt;</text>
<polyline fill="none" stroke="black" points="360,-38.5 540,-38.5 "/>
<text text-anchor="middle" x="450" y="-26.5" font-family="Helvetica,sans-Serif" font-size="10.00"> </text>
<polyline fill="none" stroke="black" points="360,-19.5 540,-19.5 "/>
<text text-anchor="start" x="368" y="-7.5" font-family="Helvetica,sans-Serif" font-size="10.00">+ CCRangeLEDsPWM()</text>
</a>
</g>
</g>
<!-- Node2 -->
<g id="node2" class="node">
<title>Node2</title>
<g id="a_node2"><a xlink:href="../../d5/d80/classGenericNoteCCRange.html" target="_top" xlink:title=" ">
<polygon fill="white" stroke="black" points="373,-95.5 373,-196.5 527,-196.5 527,-95.5 373,-95.5"/>
<text text-anchor="start" x="381" y="-184.5" font-family="Helvetica,sans-Serif" font-size="10.00">GenericNoteCCRange</text>
<text text-anchor="start" x="381" y="-173.5" font-family="Helvetica,sans-Serif" font-size="10.00">&lt; MIDIInputElementCC,</text>
<text text-anchor="start" x="381" y="-162.5" font-family="Helvetica,sans-Serif" font-size="10.00"> RangeLen, NoteCCLEDPWM</text>
<text text-anchor="middle" x="450" y="-151.5" font-family="Helvetica,sans-Serif" font-size="10.00">&lt; RangeLen &gt; &gt;</text>
<polyline fill="none" stroke="black" points="373,-144.5 527,-144.5 "/>
<text text-anchor="middle" x="450" y="-132.5" font-family="Helvetica,sans-Serif" font-size="10.00"> </text>
<polyline fill="none" stroke="black" points="373,-125.5 527,-125.5 "/>
<text text-anchor="start" x="381" y="-113.5" font-family="Helvetica,sans-Serif" font-size="10.00">+ GenericNoteCCRange()</text>
<text text-anchor="start" x="381" y="-102.5" font-family="Helvetica,sans-Serif" font-size="10.00">&#45; match()</text>
</a>
</g>
</g>
<!-- Node2&#45;&gt;Node1 -->
<g id="edge1" class="edge">
<title>Node2&#45;&gt;Node1</title>
<path fill="none" stroke="midnightblue" d="M450,-85.22C450,-75.59 450,-66.06 450,-57.68"/>
<polygon fill="none" stroke="midnightblue" points="446.5,-85.23 450,-95.23 453.5,-85.23 446.5,-85.23"/>
</g>
<!-- Node3 -->
<g id="node3" class="node">
<title>Node3</title>
<g id="a_node3"><a xlink:href="../../d2/df4/classNoteCCRange.html" target="_top" xlink:title=" ">
<polygon fill="white" stroke="black" points="358.5,-284 358.5,-484 541.5,-484 541.5,-284 358.5,-284"/>
<text text-anchor="start" x="366.5" y="-472" font-family="Helvetica,sans-Serif" font-size="10.00">NoteCCRange&lt; MIDIInputElement</text>
<text text-anchor="start" x="366.5" y="-461" font-family="Helvetica,sans-Serif" font-size="10.00">CC, RangeLen, 1, NoteCCLEDPWM</text>
<text text-anchor="middle" x="450" y="-450" font-family="Helvetica,sans-Serif" font-size="10.00">&lt; RangeLen &gt; &gt;</text>
<polyline fill="none" stroke="black" points="358.5,-443 541.5,-443 "/>
<text text-anchor="middle" x="450" y="-431" font-family="Helvetica,sans-Serif" font-size="10.00"> </text>
<polyline fill="none" stroke="black" points="358.5,-424 541.5,-424 "/>
<text text-anchor="start" x="366.5" y="-412" font-family="Helvetica,sans-Serif" font-size="10.00">+ NoteCCRange()</text>
<text text-anchor="start" x="366.5" y="-401" font-family="Helvetica,sans-Serif" font-size="10.00">+ getValue()</text>
<text text-anchor="start" x="366.5" y="-390" font-family="Helvetica,sans-Serif" font-size="10.00">+ getValue()</text>
<text text-anchor="start" x="366.5" y="-379" font-family="Helvetica,sans-Serif" font-size="10.00">+ getValue()</text>
<text text-anchor="start" x="366.5" y="-368" font-family="Helvetica,sans-Serif" font-size="10.00">+ begin()</text>
<text text-anchor="start" x="366.5" y="-357" font-family="Helvetica,sans-Serif" font-size="10.00">+ reset()</text>
<text text-anchor="start" x="366.5" y="-346" font-family="Helvetica,sans-Serif" font-size="10.00">+ length()</text>
<text text-anchor="start" x="366.5" y="-335" font-family="Helvetica,sans-Serif" font-size="10.00">&#45; updateImpl()</text>
<text text-anchor="start" x="366.5" y="-324" font-family="Helvetica,sans-Serif" font-size="10.00">&#45; getSelection()</text>
<text text-anchor="start" x="366.5" y="-313" font-family="Helvetica,sans-Serif" font-size="10.00">&#45; getBankIndex()</text>
<text text-anchor="start" x="366.5" y="-302" font-family="Helvetica,sans-Serif" font-size="10.00">&#45; getRangeIndex()</text>
<text text-anchor="start" x="366.5" y="-291" font-family="Helvetica,sans-Serif" font-size="10.00">&#45; getValueFromMIDIMessage()</text>
</a>
</g>
</g>
<!-- Node3&#45;&gt;Node2 -->
<g id="edge2" class="edge">
<title>Node3&#45;&gt;Node2</title>
<path fill="none" stroke="midnightblue" d="M450,-273.64C450,-246.66 450,-219.08 450,-196.57"/>
<polygon fill="none" stroke="midnightblue" points="446.5,-273.94 450,-283.94 453.5,-273.94 446.5,-273.94"/>
</g>
<!-- Node4 -->
<g id="node4" class="node">
<title>Node4</title>
<g id="a_node4"><a xlink:href="../../d3/d96/classMIDIInputElementCC.html" target="_top" xlink:title="Class for objects that listen for incoming MIDI Controller Change events.">
<polygon fill="white" stroke="black" points="121.5,-625.5 121.5,-748.5 266.5,-748.5 266.5,-625.5 121.5,-625.5"/>
<text text-anchor="middle" x="194" y="-736.5" font-family="Helvetica,sans-Serif" font-size="10.00">MIDIInputElementCC</text>
<polyline fill="none" stroke="black" points="121.5,-729.5 266.5,-729.5 "/>
<text text-anchor="middle" x="194" y="-717.5" font-family="Helvetica,sans-Serif" font-size="10.00"> </text>
<polyline fill="none" stroke="black" points="121.5,-710.5 266.5,-710.5 "/>
<text text-anchor="start" x="129.5" y="-698.5" font-family="Helvetica,sans-Serif" font-size="10.00">+ MIDIInputElementCC()</text>
<text text-anchor="start" x="129.5" y="-687.5" font-family="Helvetica,sans-Serif" font-size="10.00">+ ~MIDIInputElementCC()</text>
<text text-anchor="start" x="129.5" y="-676.5" font-family="Helvetica,sans-Serif" font-size="10.00">+ beginAll()</text>
<text text-anchor="start" x="129.5" y="-665.5" font-family="Helvetica,sans-Serif" font-size="10.00">+ updateAll()</text>
<text text-anchor="start" x="129.5" y="-654.5" font-family="Helvetica,sans-Serif" font-size="10.00">+ resetAll()</text>
<text text-anchor="start" x="129.5" y="-643.5" font-family="Helvetica,sans-Serif" font-size="10.00">+ updateAllWith()</text>
<text text-anchor="start" x="129.5" y="-632.5" font-family="Helvetica,sans-Serif" font-size="10.00">&#45; moveDown()</text>
</a>
</g>
</g>
<!-- Node4&#45;&gt;Node3 -->
<g id="edge3" class="edge">
<title>Node4&#45;&gt;Node3</title>
<path fill="none" stroke="midnightblue" d="M252.42,-617.78C260.25,-609.01 268.25,-600.23 276,-592 301.22,-565.24 310.6,-561.51 335,-534 348.88,-518.36 363,-501.22 376.39,-484.32"/>
<polygon fill="none" stroke="midnightblue" points="249.62,-615.66 245.6,-625.46 254.85,-620.31 249.62,-615.66"/>
</g>
<!-- Node7 -->
<g id="node7" class="node">
<title>Node7</title>
<g id="a_node7"><a xlink:href="../../d4/d23/classDoublyLinkable.html" target="_top" xlink:title=" ">
<polygon fill="white" stroke="black" points="0,-350 0,-418 150,-418 150,-350 0,-350"/>
<text text-anchor="start" x="8" y="-406" font-family="Helvetica,sans-Serif" font-size="10.00">DoublyLinkable&lt; MIDIInput</text>
<text text-anchor="middle" x="75" y="-395" font-family="Helvetica,sans-Serif" font-size="10.00">ElementCC &gt;</text>
<polyline fill="none" stroke="black" points="0,-388 150,-388 "/>
<text text-anchor="middle" x="75" y="-376" font-family="Helvetica,sans-Serif" font-size="10.00"> </text>
<polyline fill="none" stroke="black" points="0,-369 150,-369 "/>
<text text-anchor="start" x="8" y="-357" font-family="Helvetica,sans-Serif" font-size="10.00"># ~DoublyLinkable()</text>
</a>
</g>
</g>
<!-- Node4&#45;&gt;Node7 -->
<g id="edge7" class="edge">
<title>Node4&#45;&gt;Node7</title>
<path fill="none" stroke="#404040" d="M121.58,-625.21C107.8,-609.97 95.15,-592.6 87,-574 66.88,-528.08 66.47,-469.8 69.43,-430.18"/>
<polygon fill="none" stroke="#404040" points="69.45,-429.97 65.98,-423.65 70.49,-418.01 73.95,-424.34 69.45,-429.97"/>
<text text-anchor="middle" x="112.5" y="-566" font-family="Helvetica,sans-Serif" font-size="10.00"> #next</text>
<text text-anchor="middle" x="112.5" y="-555" font-family="Helvetica,sans-Serif" font-size="10.00">#previous</text>
</g>
<!-- Node8 -->
<g id="node8" class="node">
<title>Node8</title>
<g id="a_node8"><a xlink:href="../../dd/d16/classDoublyLinkedList.html" target="_top" xlink:title=" ">
<polygon fill="white" stroke="black" points="168,-234.5 168,-533.5 326,-533.5 326,-234.5 168,-234.5"/>
<text text-anchor="start" x="176" y="-521.5" font-family="Helvetica,sans-Serif" font-size="10.00">DoublyLinkedList&lt; MIDIInput</text>
<text text-anchor="middle" x="247" y="-510.5" font-family="Helvetica,sans-Serif" font-size="10.00">ElementCC &gt;</text>
<polyline fill="none" stroke="black" points="168,-503.5 326,-503.5 "/>
<text text-anchor="middle" x="247" y="-491.5" font-family="Helvetica,sans-Serif" font-size="10.00"> </text>
<polyline fill="none" stroke="black" points="168,-484.5 326,-484.5 "/>
<text text-anchor="start" x="176" y="-472.5" font-family="Helvetica,sans-Serif" font-size="10.00">+ append()</text>
<text text-anchor="start" x="176" y="-461.5" font-family="Helvetica,sans-Serif" font-size="10.00">+ append()</text>
<text text-anchor="start" x="176" y="-450.5" font-family="Helvetica,sans-Serif" font-size="10.00">+ insertBefore()</text>
<text text-anchor="start" x="176" y="-439.5" font-family="Helvetica,sans-Serif" font-size="10.00">+ insertBefore()</text>
<text text-anchor="start" x="176" y="-428.5" font-family="Helvetica,sans-Serif" font-size="10.00">+ insertSorted()</text>
<text text-anchor="start" x="176" y="-417.5" font-family="Helvetica,sans-Serif" font-size="10.00">+ insertSorted()</text>
<text text-anchor="start" x="176" y="-406.5" font-family="Helvetica,sans-Serif" font-size="10.00">+ remove()</text>
<text text-anchor="start" x="176" y="-395.5" font-family="Helvetica,sans-Serif" font-size="10.00">+ remove()</text>
<text text-anchor="start" x="176" y="-384.5" font-family="Helvetica,sans-Serif" font-size="10.00">+ moveDown()</text>
<text text-anchor="start" x="176" y="-373.5" font-family="Helvetica,sans-Serif" font-size="10.00">+ moveDown()</text>
<text text-anchor="start" x="176" y="-362.5" font-family="Helvetica,sans-Serif" font-size="10.00">+ couldContain()</text>
<text text-anchor="start" x="176" y="-351.5" font-family="Helvetica,sans-Serif" font-size="10.00">+ couldContain()</text>
<text text-anchor="start" x="176" y="-340.5" font-family="Helvetica,sans-Serif" font-size="10.00">+ begin()</text>
<text text-anchor="start" x="176" y="-329.5" font-family="Helvetica,sans-Serif" font-size="10.00">+ begin()</text>
<text text-anchor="start" x="176" y="-318.5" font-family="Helvetica,sans-Serif" font-size="10.00">+ end()</text>
<text text-anchor="start" x="176" y="-307.5" font-family="Helvetica,sans-Serif" font-size="10.00">+ end()</text>
<text text-anchor="start" x="176" y="-296.5" font-family="Helvetica,sans-Serif" font-size="10.00">+ rbegin()</text>
<text text-anchor="start" x="176" y="-285.5" font-family="Helvetica,sans-Serif" font-size="10.00">+ rbegin()</text>
<text text-anchor="start" x="176" y="-274.5" font-family="Helvetica,sans-Serif" font-size="10.00">+ rend()</text>
<text text-anchor="start" x="176" y="-263.5" font-family="Helvetica,sans-Serif" font-size="10.00">+ rend()</text>
<text text-anchor="start" x="176" y="-252.5" font-family="Helvetica,sans-Serif" font-size="10.00">+ getFirst()</text>
<text text-anchor="start" x="176" y="-241.5" font-family="Helvetica,sans-Serif" font-size="10.00">+ getLast()</text>
</a>
</g>
</g>
<!-- Node4&#45;&gt;Node8 -->
<g id="edge9" class="edge">
<title>Node4&#45;&gt;Node8</title>
<path fill="none" stroke="#404040" d="M192.72,-625.26C192.42,-608.64 192.15,-590.63 192,-574 191.91,-564.22 190.45,-561.65 192,-552 192.33,-549.93 192.69,-547.85 193.06,-545.76"/>
<polygon fill="none" stroke="#404040" points="193.11,-545.51 190.34,-538.85 195.42,-533.73 198.19,-540.39 193.11,-545.51"/>
<text text-anchor="middle" x="204.5" y="-566" font-family="Helvetica,sans-Serif" font-size="10.00"> &#45;last</text>
<text text-anchor="middle" x="204.5" y="-555" font-family="Helvetica,sans-Serif" font-size="10.00">&#45;first</text>
</g>
<!-- Node5 -->
<g id="node5" class="node">
<title>Node5</title>
<g id="a_node5"><a xlink:href="../../d9/db1/classMIDIInputElement.html" target="_top" xlink:title="A class for objects that listen for incoming MIDI events.">
<polygon fill="white" stroke="black" points="128.5,-819.5 128.5,-975.5 259.5,-975.5 259.5,-819.5 128.5,-819.5"/>
<text text-anchor="middle" x="194" y="-963.5" font-family="Helvetica,sans-Serif" font-size="10.00">MIDIInputElement</text>
<polyline fill="none" stroke="black" points="128.5,-956.5 259.5,-956.5 "/>
<text text-anchor="middle" x="194" y="-944.5" font-family="Helvetica,sans-Serif" font-size="10.00"> </text>
<polyline fill="none" stroke="black" points="128.5,-937.5 259.5,-937.5 "/>
<text text-anchor="start" x="136.5" y="-925.5" font-family="Helvetica,sans-Serif" font-size="10.00">+ ~MIDIInputElement()</text>
<text text-anchor="start" x="136.5" y="-914.5" font-family="Helvetica,sans-Serif" font-size="10.00">+ begin()</text>
<text text-anchor="start" x="136.5" y="-903.5" font-family="Helvetica,sans-Serif" font-size="10.00">+ reset()</text>
<text text-anchor="start" x="136.5" y="-892.5" font-family="Helvetica,sans-Serif" font-size="10.00">+ update()</text>
<text text-anchor="start" x="136.5" y="-881.5" font-family="Helvetica,sans-Serif" font-size="10.00">+ updateWith()</text>
<text text-anchor="start" x="136.5" y="-870.5" font-family="Helvetica,sans-Serif" font-size="10.00"># MIDIInputElement()</text>
<text text-anchor="start" x="136.5" y="-859.5" font-family="Helvetica,sans-Serif" font-size="10.00"># MIDIInputElement()</text>
<text text-anchor="start" x="136.5" y="-848.5" font-family="Helvetica,sans-Serif" font-size="10.00">&#45; updateImpl()</text>
<text text-anchor="start" x="136.5" y="-837.5" font-family="Helvetica,sans-Serif" font-size="10.00">&#45; getTarget()</text>
<text text-anchor="start" x="136.5" y="-826.5" font-family="Helvetica,sans-Serif" font-size="10.00">&#45; match()</text>
</a>
</g>
</g>
<!-- Node5&#45;&gt;Node4 -->
<g id="edge4" class="edge">
<title>Node5&#45;&gt;Node4</title>
<path fill="none" stroke="midnightblue" d="M194,-809.24C194,-788.9 194,-767.68 194,-748.77"/>
<polygon fill="none" stroke="midnightblue" points="190.5,-809.45 194,-819.45 197.5,-809.45 190.5,-809.45"/>
</g>
<!-- Node6 -->
<g id="node6" class="node">
<title>Node6</title>
<g id="a_node6"><a xlink:href="../../d7/d0f/classMIDIAddress.html" target="_top" xlink:title="A type&#45;safe utility class for saving a MIDI address consisting of a 7&#45;bit address,...">
<polygon fill="white" stroke="black" points="123,-1023.5 123,-1289.5 265,-1289.5 265,-1023.5 123,-1023.5"/>
<text text-anchor="middle" x="194" y="-1277.5" font-family="Helvetica,sans-Serif" font-size="10.00">MIDIAddress</text>
<polyline fill="none" stroke="black" points="123,-1270.5 265,-1270.5 "/>
<text text-anchor="start" x="131" y="-1258.5" font-family="Helvetica,sans-Serif" font-size="10.00">&#45; addresses</text>
<polyline fill="none" stroke="black" points="123,-1251.5 265,-1251.5 "/>
<text text-anchor="start" x="131" y="-1239.5" font-family="Helvetica,sans-Serif" font-size="10.00">* MIDIAddress()</text>
<text text-anchor="start" x="131" y="-1228.5" font-family="Helvetica,sans-Serif" font-size="10.00">* MIDIAddress()</text>
<text text-anchor="start" x="131" y="-1217.5" font-family="Helvetica,sans-Serif" font-size="10.00">* MIDIAddress()</text>
<text text-anchor="start" x="131" y="-1206.5" font-family="Helvetica,sans-Serif" font-size="10.00">* MIDIAddress()</text>
<text text-anchor="start" x="131" y="-1195.5" font-family="Helvetica,sans-Serif" font-size="10.00">* MIDIAddress()</text>
<text text-anchor="start" x="131" y="-1184.5" font-family="Helvetica,sans-Serif" font-size="10.00">* invalid()</text>
<text text-anchor="start" x="131" y="-1173.5" font-family="Helvetica,sans-Serif" font-size="10.00">* operator+=()</text>
<text text-anchor="start" x="131" y="-1162.5" font-family="Helvetica,sans-Serif" font-size="10.00">* operator&#45;=()</text>
<text text-anchor="start" x="131" y="-1151.5" font-family="Helvetica,sans-Serif" font-size="10.00">* operator+()</text>
<text text-anchor="start" x="131" y="-1140.5" font-family="Helvetica,sans-Serif" font-size="10.00">* operator&#45;()</text>
<text text-anchor="start" x="131" y="-1129.5" font-family="Helvetica,sans-Serif" font-size="10.00">* getAddress()</text>
<text text-anchor="start" x="131" y="-1118.5" font-family="Helvetica,sans-Serif" font-size="10.00">* getChannel()</text>
<text text-anchor="start" x="131" y="-1107.5" font-family="Helvetica,sans-Serif" font-size="10.00">* getRawChannel()</text>
<text text-anchor="start" x="131" y="-1096.5" font-family="Helvetica,sans-Serif" font-size="10.00">* getCableNumber()</text>
<text text-anchor="start" x="131" y="-1085.5" font-family="Helvetica,sans-Serif" font-size="10.00">* operator==()</text>
<text text-anchor="start" x="131" y="-1074.5" font-family="Helvetica,sans-Serif" font-size="10.00">* operator!=()</text>
<text text-anchor="start" x="131" y="-1063.5" font-family="Helvetica,sans-Serif" font-size="10.00">* isValid()</text>
<text text-anchor="start" x="131" y="-1052.5" font-family="Helvetica,sans-Serif" font-size="10.00">* operator bool()</text>
<text text-anchor="start" x="131" y="-1041.5" font-family="Helvetica,sans-Serif" font-size="10.00">* matchSingle()</text>
<text text-anchor="start" x="131" y="-1030.5" font-family="Helvetica,sans-Serif" font-size="10.00">* matchAddressInRange()</text>
</a>
</g>
</g>
<!-- Node6&#45;&gt;Node5 -->
<g id="edge5" class="edge">
<title>Node6&#45;&gt;Node5</title>
<path fill="none" stroke="#404040" d="M194,-1023.24C194,-1011.31 194,-999.43 194,-988.01"/>
<polygon fill="none" stroke="#404040" points="194,-987.81 190,-981.81 194,-975.81 198,-981.81 194,-987.81"/>
<text text-anchor="middle" x="219" y="-997" font-family="Helvetica,sans-Serif" font-size="10.00"> #address</text>
</g>
<!-- Node7&#45;&gt;Node4 -->
<g id="edge6" class="edge">
<title>Node7&#45;&gt;Node4</title>
<path fill="none" stroke="midnightblue" d="M92.31,-427.76C105.92,-461.47 125.3,-509.68 142,-552 151.43,-575.91 161.7,-602.27 170.59,-625.24"/>
<polygon fill="none" stroke="midnightblue" points="95.45,-426.19 88.46,-418.23 88.96,-428.81 95.45,-426.19"/>
</g>
<!-- Node8&#45;&gt;Node4 -->
<g id="edge8" class="edge">
<title>Node8&#45;&gt;Node4</title>
<path fill="none" stroke="#404040" d="M228,-533.54C225.81,-547.25 223.47,-560.9 221,-574 218.57,-586.87 215.62,-600.48 212.57,-613.61"/>
<polygon fill="none" stroke="#404040" points="212.52,-613.82 215.03,-620.58 209.75,-625.5 207.24,-618.74 212.52,-613.82"/>
<text text-anchor="middle" x="251.5" y="-560.5" font-family="Helvetica,sans-Serif" font-size="10.00"> &#45;elements</text>
</g>
<!-- Node9 -->
<g id="node9" class="node">
<title>Node9</title>
<g id="a_node9"><a xlink:href="../../d7/dab/classINoteCCValue.html" target="_top" xlink:title="Interface for NoteCCValue objects: provides getters for the velocity or controller values.">
<polygon fill="white" stroke="black" points="285,-642 285,-732 387,-732 387,-642 285,-642"/>
<text text-anchor="middle" x="336" y="-720" font-family="Helvetica,sans-Serif" font-size="10.00">INoteCCValue</text>
<polyline fill="none" stroke="black" points="285,-713 387,-713 "/>
<text text-anchor="start" x="293" y="-701" font-family="Helvetica,sans-Serif" font-size="10.00">&#45; rangeLength</text>
<polyline fill="none" stroke="black" points="285,-694 387,-694 "/>
<text text-anchor="start" x="293" y="-682" font-family="Helvetica,sans-Serif" font-size="10.00">+ length()</text>
<text text-anchor="start" x="293" y="-671" font-family="Helvetica,sans-Serif" font-size="10.00">+ getValue()</text>
<text text-anchor="start" x="293" y="-660" font-family="Helvetica,sans-Serif" font-size="10.00">+ getValue()</text>
<text text-anchor="start" x="293" y="-649" font-family="Helvetica,sans-Serif" font-size="10.00"># INoteCCValue()</text>
</a>
</g>
</g>
<!-- Node9&#45;&gt;Node3 -->
<g id="edge10" class="edge">
<title>Node9&#45;&gt;Node3</title>
<path fill="none" stroke="midnightblue" d="M356.31,-632.38C371.84,-591.37 393.69,-533.67 412.39,-484.31"/>
<polygon fill="none" stroke="midnightblue" points="352.97,-631.32 352.7,-641.91 359.51,-633.8 352.97,-631.32"/>
</g>
<!-- Node10 -->
<g id="node10" class="node">
<title>Node10</title>
<g id="a_node10"><a xlink:href="../../db/d17/classNoteCCLEDPWM.html" target="_top" xlink:title=" ">
<polygon fill="white" stroke="black" points="405.5,-647.5 405.5,-726.5 572.5,-726.5 572.5,-647.5 405.5,-647.5"/>
<text text-anchor="middle" x="489" y="-714.5" font-family="Helvetica,sans-Serif" font-size="10.00">NoteCCLEDPWM&lt; RangeLen &gt;</text>
<polyline fill="none" stroke="black" points="405.5,-707.5 572.5,-707.5 "/>
<text text-anchor="start" x="413.5" y="-695.5" font-family="Helvetica,sans-Serif" font-size="10.00">&#45; ledPins</text>
<polyline fill="none" stroke="black" points="405.5,-688.5 572.5,-688.5 "/>
<text text-anchor="start" x="413.5" y="-676.5" font-family="Helvetica,sans-Serif" font-size="10.00">+ NoteCCLEDPWM()</text>
<text text-anchor="start" x="413.5" y="-665.5" font-family="Helvetica,sans-Serif" font-size="10.00">+ begin()</text>
<text text-anchor="start" x="413.5" y="-654.5" font-family="Helvetica,sans-Serif" font-size="10.00">+ update()</text>
</a>
</g>
</g>
<!-- Node10&#45;&gt;Node3 -->
<g id="edge11" class="edge">
<title>Node10&#45;&gt;Node3</title>
<path fill="none" stroke="#404040" d="M483.98,-647.27C479.04,-609.11 471.25,-548.99 464.37,-495.93"/>
<polygon fill="none" stroke="#404040" points="464.37,-495.93 459.63,-490.49 462.83,-484.03 467.57,-489.46 464.37,-495.93"/>
<text text-anchor="middle" x="501" y="-560.5" font-family="Helvetica,sans-Serif" font-size="10.00"> +callback</text>
</g>
<!-- Node11 -->
<g id="node11" class="node">
<title>Node11</title>
<g id="a_node11"><a xlink:href="../../de/d07/structSimpleNoteCCValueCallback.html" target="_top" xlink:title="A callback for NoteCCRange with an action that can be implemented by the user.">
<polygon fill="white" stroke="black" points="401.5,-852.5 401.5,-942.5 576.5,-942.5 576.5,-852.5 401.5,-852.5"/>
<text text-anchor="middle" x="489" y="-930.5" font-family="Helvetica,sans-Serif" font-size="10.00">SimpleNoteCCValueCallback</text>
<polyline fill="none" stroke="black" points="401.5,-923.5 576.5,-923.5 "/>
<text text-anchor="middle" x="489" y="-911.5" font-family="Helvetica,sans-Serif" font-size="10.00"> </text>
<polyline fill="none" stroke="black" points="401.5,-904.5 576.5,-904.5 "/>
<text text-anchor="start" x="409.5" y="-892.5" font-family="Helvetica,sans-Serif" font-size="10.00">+ begin()</text>
<text text-anchor="start" x="409.5" y="-881.5" font-family="Helvetica,sans-Serif" font-size="10.00">+ update()</text>
<text text-anchor="start" x="409.5" y="-870.5" font-family="Helvetica,sans-Serif" font-size="10.00">+ updateAll()</text>
<text text-anchor="start" x="409.5" y="-859.5" font-family="Helvetica,sans-Serif" font-size="10.00"># SimpleNoteCCValueCallback()</text>
</a>
</g>
</g>
<!-- Node11&#45;&gt;Node10 -->
<g id="edge12" class="edge">
<title>Node11&#45;&gt;Node10</title>
<path fill="none" stroke="midnightblue" d="M489,-841.88C489,-805.63 489,-758.94 489,-726.55"/>
<polygon fill="none" stroke="midnightblue" points="485.5,-842.28 489,-852.28 492.5,-842.28 485.5,-842.28"/>
</g>
<!-- Node12 -->
<g id="node12" class="node">
<title>Node12</title>
<g id="a_node12"><a xlink:href="../../d0/d32/structAH_1_1Array.html" target="_top" xlink:title=" ">
<polygon fill="white" stroke="black" points="590.5,-592.5 590.5,-781.5 751.5,-781.5 751.5,-592.5 590.5,-592.5"/>
<text text-anchor="start" x="598.5" y="-769.5" font-family="Helvetica,sans-Serif" font-size="10.00">Array&lt; Array&lt; uint8</text>
<text text-anchor="middle" x="671" y="-758.5" font-family="Helvetica,sans-Serif" font-size="10.00">_t, RangeLen &gt;, NumBanks &gt;</text>
<polyline fill="none" stroke="black" points="590.5,-751.5 751.5,-751.5 "/>
<text text-anchor="start" x="598.5" y="-739.5" font-family="Helvetica,sans-Serif" font-size="10.00">+ data</text>
<text text-anchor="start" x="598.5" y="-728.5" font-family="Helvetica,sans-Serif" font-size="10.00">+ length</text>
<polyline fill="none" stroke="black" points="590.5,-721.5 751.5,-721.5 "/>
<text text-anchor="start" x="598.5" y="-709.5" font-family="Helvetica,sans-Serif" font-size="10.00">+ operator[]()</text>
<text text-anchor="start" x="598.5" y="-698.5" font-family="Helvetica,sans-Serif" font-size="10.00">+ operator[]()</text>
<text text-anchor="start" x="598.5" y="-687.5" font-family="Helvetica,sans-Serif" font-size="10.00">+ begin()</text>
<text text-anchor="start" x="598.5" y="-676.5" font-family="Helvetica,sans-Serif" font-size="10.00">+ begin()</text>
<text text-anchor="start" x="598.5" y="-665.5" font-family="Helvetica,sans-Serif" font-size="10.00">+ end()</text>
<text text-anchor="start" x="598.5" y="-654.5" font-family="Helvetica,sans-Serif" font-size="10.00">+ end()</text>
<text text-anchor="start" x="598.5" y="-643.5" font-family="Helvetica,sans-Serif" font-size="10.00">+ operator==()</text>
<text text-anchor="start" x="598.5" y="-632.5" font-family="Helvetica,sans-Serif" font-size="10.00">+ operator!=()</text>
<text text-anchor="start" x="598.5" y="-621.5" font-family="Helvetica,sans-Serif" font-size="10.00">+ slice()</text>
<text text-anchor="start" x="598.5" y="-610.5" font-family="Helvetica,sans-Serif" font-size="10.00">+ slice()</text>
<text text-anchor="start" x="598.5" y="-599.5" font-family="Helvetica,sans-Serif" font-size="10.00">+ cslice()</text>
</a>
</g>
</g>
<!-- Node12&#45;&gt;Node3 -->
<g id="edge13" class="edge">
<title>Node12&#45;&gt;Node3</title>
<path fill="none" stroke="#404040" d="M602.29,-592.41C579.38,-561.21 553.66,-526.18 529.97,-493.92"/>
<polygon fill="none" stroke="#404040" points="529.79,-493.68 523.02,-491.21 522.69,-484 529.47,-486.47 529.79,-493.68"/>
<text text-anchor="middle" x="606.5" y="-560.5" font-family="Helvetica,sans-Serif" font-size="10.00"> &#45;values</text>
</g>
</g>
</svg>
