<?xml version="1.0" encoding="UTF-8" standalone="no"?>
<!DOCTYPE svg PUBLIC "-//W3C//DTD SVG 1.1//EN"
 "http://www.w3.org/Graphics/SVG/1.1/DTD/svg11.dtd">
<!-- Generated by graphviz version 2.43.0 (0)
 -->
<!-- Title: VULEDsDriver&lt; NumLEDs &gt; Pages: 1 -->
<svg width="294pt" height="590pt"
 viewBox="0.00 0.00 294.00 590.00" xmlns="http://www.w3.org/2000/svg" xmlns:xlink="http://www.w3.org/1999/xlink">
<g id="graph0" class="graph" transform="scale(1 1) rotate(0) translate(4 586)">
<title>VULEDsDriver&lt; NumLEDs &gt;</title>
<polygon fill="white" stroke="transparent" points="-4,4 -4,-586 290,-586 290,4 -4,4"/>
<!-- Node1 -->
<g id="node1" class="node">
<title>Node1</title>
<g id="a_node1"><a xlink:title="Small helper to display the VU meters on an LED bar display.">
<polygon fill="#bfbfbf" stroke="black" points="70,-171.5 70,-239.5 225,-239.5 225,-171.5 70,-171.5"/>
<text text-anchor="middle" x="147.5" y="-227.5" font-family="Helvetica,sans-Serif" font-size="10.00">VULEDsDriver&lt; NumLEDs &gt;</text>
<polyline fill="none" stroke="black" points="70,-220.5 225,-220.5 "/>
<text text-anchor="start" x="78" y="-208.5" font-family="Helvetica,sans-Serif" font-size="10.00">&#45; FLOOR_CORRECTION</text>
<polyline fill="none" stroke="black" points="70,-201.5 225,-201.5 "/>
<text text-anchor="start" x="78" y="-189.5" font-family="Helvetica,sans-Serif" font-size="10.00">+ VULEDsDriver()</text>
<text text-anchor="start" x="78" y="-178.5" font-family="Helvetica,sans-Serif" font-size="10.00">+ displayVU()</text>
</a>
</g>
</g>
<!-- Node4 -->
<g id="node4" class="node">
<title>Node4</title>
<g id="a_node4"><a xlink:href="../../db/d17/classMCU_1_1Bankable_1_1VULEDs.html" target="_top" xlink:title="A MIDI input element that represents a Mackie Control Universal VU meter and displays its value using...">
<polygon fill="white" stroke="black" points="0,-0.5 0,-134.5 143,-134.5 143,-0.5 0,-0.5"/>
<text text-anchor="middle" x="71.5" y="-122.5" font-family="Helvetica,sans-Serif" font-size="10.00">VULEDs&lt; NumLEDs &gt;</text>
<polyline fill="none" stroke="black" points="0,-115.5 143,-115.5 "/>
<text text-anchor="middle" x="71.5" y="-103.5" font-family="Helvetica,sans-Serif" font-size="10.00"> </text>
<polyline fill="none" stroke="black" points="0,-96.5 143,-96.5 "/>
<text text-anchor="start" x="8" y="-84.5" font-family="Helvetica,sans-Serif" font-size="10.00">+ VULEDs()</text>
<text text-anchor="start" x="8" y="-73.5" font-family="Helvetica,sans-Serif" font-size="10.00">+ VULEDs()</text>
<text text-anchor="start" x="8" y="-62.5" font-family="Helvetica,sans-Serif" font-size="10.00">+ begin()</text>
<text text-anchor="start" x="8" y="-51.5" font-family="Helvetica,sans-Serif" font-size="10.00">+ reset()</text>
<text text-anchor="start" x="8" y="-40.5" font-family="Helvetica,sans-Serif" font-size="10.00">+ update()</text>
<text text-anchor="start" x="8" y="-29.5" font-family="Helvetica,sans-Serif" font-size="10.00"># handleUpdate()</text>
<text text-anchor="start" x="8" y="-18.5" font-family="Helvetica,sans-Serif" font-size="10.00"># updateDisplay()</text>
<text text-anchor="start" x="8" y="-7.5" font-family="Helvetica,sans-Serif" font-size="10.00"># onBankSettingChange()</text>
</a>
</g>
</g>
<!-- Node1&#45;&gt;Node4 -->
<g id="edge3" class="edge">
<title>Node1&#45;&gt;Node4</title>
<path fill="none" stroke="midnightblue" d="M123.95,-162.35C119.04,-153.56 113.75,-144.1 108.48,-134.68"/>
<polygon fill="none" stroke="midnightblue" points="120.97,-164.21 128.91,-171.23 127.09,-160.79 120.97,-164.21"/>
</g>
<!-- Node5 -->
<g id="node5" class="node">
<title>Node5</title>
<g id="a_node5"><a xlink:href="../../df/d36/classMCU_1_1VULEDs.html" target="_top" xlink:title="A MIDI input element that represents a Mackie Control Universal VU meter and displays its value using...">
<polygon fill="white" stroke="black" points="161,-6 161,-129 286,-129 286,-6 161,-6"/>
<text text-anchor="middle" x="223.5" y="-117" font-family="Helvetica,sans-Serif" font-size="10.00">VULEDs&lt; NumLEDs &gt;</text>
<polyline fill="none" stroke="black" points="161,-110 286,-110 "/>
<text text-anchor="middle" x="223.5" y="-98" font-family="Helvetica,sans-Serif" font-size="10.00"> </text>
<polyline fill="none" stroke="black" points="161,-91 286,-91 "/>
<text text-anchor="start" x="169" y="-79" font-family="Helvetica,sans-Serif" font-size="10.00">+ VULEDs()</text>
<text text-anchor="start" x="169" y="-68" font-family="Helvetica,sans-Serif" font-size="10.00">+ VULEDs()</text>
<text text-anchor="start" x="169" y="-57" font-family="Helvetica,sans-Serif" font-size="10.00">+ begin()</text>
<text text-anchor="start" x="169" y="-46" font-family="Helvetica,sans-Serif" font-size="10.00">+ reset()</text>
<text text-anchor="start" x="169" y="-35" font-family="Helvetica,sans-Serif" font-size="10.00">+ update()</text>
<text text-anchor="start" x="169" y="-24" font-family="Helvetica,sans-Serif" font-size="10.00"># handleUpdate()</text>
<text text-anchor="start" x="169" y="-13" font-family="Helvetica,sans-Serif" font-size="10.00"># updateDisplay()</text>
</a>
</g>
</g>
<!-- Node1&#45;&gt;Node5 -->
<g id="edge4" class="edge">
<title>Node1&#45;&gt;Node5</title>
<path fill="none" stroke="midnightblue" d="M171.1,-162.26C176.99,-151.74 183.41,-140.24 189.68,-129.03"/>
<polygon fill="none" stroke="midnightblue" points="167.91,-160.79 166.09,-171.23 174.03,-164.21 167.91,-160.79"/>
</g>
<!-- Node2 -->
<g id="node2" class="node">
<title>Node2</title>
<g id="a_node2"><a xlink:href="../../d9/d89/classAH_1_1DotBarDisplayLEDs.html" target="_top" xlink:title=" ">
<polygon fill="white" stroke="black" points="82.5,-276.5 82.5,-421.5 212.5,-421.5 212.5,-276.5 82.5,-276.5"/>
<text text-anchor="start" x="90.5" y="-409.5" font-family="Helvetica,sans-Serif" font-size="10.00">DotBarDisplayLEDs&lt;</text>
<text text-anchor="middle" x="147.5" y="-398.5" font-family="Helvetica,sans-Serif" font-size="10.00"> NumLEDs &gt;</text>
<polyline fill="none" stroke="black" points="82.5,-391.5 212.5,-391.5 "/>
<text text-anchor="start" x="90.5" y="-379.5" font-family="Helvetica,sans-Serif" font-size="10.00">&#45; mode</text>
<polyline fill="none" stroke="black" points="82.5,-372.5 212.5,-372.5 "/>
<text text-anchor="start" x="90.5" y="-360.5" font-family="Helvetica,sans-Serif" font-size="10.00">+ DotBarDisplayLEDs()</text>
<text text-anchor="start" x="90.5" y="-349.5" font-family="Helvetica,sans-Serif" font-size="10.00">+ display()</text>
<text text-anchor="start" x="90.5" y="-338.5" font-family="Helvetica,sans-Serif" font-size="10.00">+ display()</text>
<text text-anchor="start" x="90.5" y="-327.5" font-family="Helvetica,sans-Serif" font-size="10.00">+ getMode()</text>
<text text-anchor="start" x="90.5" y="-316.5" font-family="Helvetica,sans-Serif" font-size="10.00">+ setMode()</text>
<text text-anchor="start" x="90.5" y="-305.5" font-family="Helvetica,sans-Serif" font-size="10.00">+ dotMode()</text>
<text text-anchor="start" x="90.5" y="-294.5" font-family="Helvetica,sans-Serif" font-size="10.00">+ barMode()</text>
<text text-anchor="start" x="90.5" y="-283.5" font-family="Helvetica,sans-Serif" font-size="10.00">+ toggleMode()</text>
</a>
</g>
</g>
<!-- Node2&#45;&gt;Node1 -->
<g id="edge1" class="edge">
<title>Node2&#45;&gt;Node1</title>
<path fill="none" stroke="midnightblue" d="M147.5,-266.19C147.5,-256.83 147.5,-247.73 147.5,-239.58"/>
<polygon fill="none" stroke="midnightblue" points="144,-266.42 147.5,-276.42 151,-266.42 144,-266.42"/>
</g>
<!-- Node3 -->
<g id="node3" class="node">
<title>Node3</title>
<g id="a_node3"><a xlink:href="../../df/d06/classAH_1_1LEDs.html" target="_top" xlink:title="A class for collections of LEDs that can display ranges.">
<polygon fill="white" stroke="black" points="97,-458.5 97,-581.5 198,-581.5 198,-458.5 97,-458.5"/>
<text text-anchor="middle" x="147.5" y="-569.5" font-family="Helvetica,sans-Serif" font-size="10.00">LEDs&lt; N &gt;</text>
<polyline fill="none" stroke="black" points="97,-562.5 198,-562.5 "/>
<text text-anchor="start" x="105" y="-550.5" font-family="Helvetica,sans-Serif" font-size="10.00">&#45; ledPins</text>
<polyline fill="none" stroke="black" points="97,-543.5 198,-543.5 "/>
<text text-anchor="start" x="105" y="-531.5" font-family="Helvetica,sans-Serif" font-size="10.00">+ LEDs()</text>
<text text-anchor="start" x="105" y="-520.5" font-family="Helvetica,sans-Serif" font-size="10.00">+ begin()</text>
<text text-anchor="start" x="105" y="-509.5" font-family="Helvetica,sans-Serif" font-size="10.00">+ displayRange()</text>
<text text-anchor="start" x="105" y="-498.5" font-family="Helvetica,sans-Serif" font-size="10.00">+ set()</text>
<text text-anchor="start" x="105" y="-487.5" font-family="Helvetica,sans-Serif" font-size="10.00">+ clear()</text>
<text text-anchor="start" x="105" y="-476.5" font-family="Helvetica,sans-Serif" font-size="10.00">+ displayDot()</text>
<text text-anchor="start" x="105" y="-465.5" font-family="Helvetica,sans-Serif" font-size="10.00">+ clear()</text>
</a>
</g>
</g>
<!-- Node3&#45;&gt;Node2 -->
<g id="edge2" class="edge">
<title>Node3&#45;&gt;Node2</title>
<path fill="none" stroke="midnightblue" d="M147.5,-448.25C147.5,-439.46 147.5,-430.45 147.5,-421.64"/>
<polygon fill="none" stroke="midnightblue" points="144,-448.46 147.5,-458.46 151,-448.46 144,-448.46"/>
</g>
</g>
</svg>
