<?xml version="1.0" encoding="UTF-8" standalone="no"?>
<!DOCTYPE svg PUBLIC "-//W3C//DTD SVG 1.1//EN"
 "http://www.w3.org/Graphics/SVG/1.1/DTD/svg11.dtd">
<!-- Generated by graphviz version 2.40.1 (20161225.0304)
 -->
<!-- Title: TimeDisplayDisplay Pages: 1 -->
<svg width="721pt" height="1670pt"
 viewBox="0.00 0.00 721.00 1670.00" xmlns="http://www.w3.org/2000/svg" xmlns:xlink="http://www.w3.org/1999/xlink">
<g id="graph0" class="graph" transform="scale(1 1) rotate(0) translate(4 1666)">
<title>TimeDisplayDisplay</title>
<polygon fill="#ffffff" stroke="transparent" points="-4,4 -4,-1666 717,-1666 717,4 -4,4"/>
<!-- Node1 -->
<g id="node1" class="node">
<title>Node1</title>
<g id="a_node1"><a xlink:title=" ">
<polygon fill="#bfbfbf" stroke="#000000" points="577,-44.5 577,-233.5 696,-233.5 696,-44.5 577,-44.5"/>
<text text-anchor="middle" x="636.5" y="-221.5" font-family="Helvetica,sans-Serif" font-size="10.00" fill="#000000">TimeDisplayDisplay</text>
<polyline fill="none" stroke="#000000" points="577,-214.5 696,-214.5 "/>
<text text-anchor="start" x="585" y="-202.5" font-family="Helvetica,sans-Serif" font-size="10.00" fill="#000000">&#45; x</text>
<text text-anchor="start" x="585" y="-191.5" font-family="Helvetica,sans-Serif" font-size="10.00" fill="#000000">&#45; y</text>
<text text-anchor="start" x="585" y="-180.5" font-family="Helvetica,sans-Serif" font-size="10.00" fill="#000000">&#45; size</text>
<text text-anchor="start" x="585" y="-169.5" font-family="Helvetica,sans-Serif" font-size="10.00" fill="#000000">&#45; color</text>
<polyline fill="none" stroke="#000000" points="577,-162.5 696,-162.5 "/>
<text text-anchor="start" x="585" y="-150.5" font-family="Helvetica,sans-Serif" font-size="10.00" fill="#000000">+ TimeDisplayDisplay()</text>
<text text-anchor="start" x="585" y="-139.5" font-family="Helvetica,sans-Serif" font-size="10.00" fill="#000000">+ draw()</text>
<text text-anchor="start" x="585" y="-128.5" font-family="Helvetica,sans-Serif" font-size="10.00" fill="#000000">+ getX()</text>
<text text-anchor="start" x="585" y="-117.5" font-family="Helvetica,sans-Serif" font-size="10.00" fill="#000000">+ getY()</text>
<text text-anchor="start" x="585" y="-106.5" font-family="Helvetica,sans-Serif" font-size="10.00" fill="#000000">+ getSize()</text>
<text text-anchor="start" x="585" y="-95.5" font-family="Helvetica,sans-Serif" font-size="10.00" fill="#000000">+ getColor()</text>
<text text-anchor="start" x="585" y="-84.5" font-family="Helvetica,sans-Serif" font-size="10.00" fill="#000000">+ setX()</text>
<text text-anchor="start" x="585" y="-73.5" font-family="Helvetica,sans-Serif" font-size="10.00" fill="#000000">+ setY()</text>
<text text-anchor="start" x="585" y="-62.5" font-family="Helvetica,sans-Serif" font-size="10.00" fill="#000000">+ setSize()</text>
<text text-anchor="start" x="585" y="-51.5" font-family="Helvetica,sans-Serif" font-size="10.00" fill="#000000">+ setColor()</text>
</a>
</g>
</g>
<!-- Node2 -->
<g id="node2" class="node">
<title>Node2</title>
<g id="a_node2"><a xlink:href="../../d8/d43/classDisplayElement.html" target="_top" xlink:title="An interface for elements that draw to a display.">
<polygon fill="#ffffff" stroke="#000000" points="368,-419 368,-531 475,-531 475,-419 368,-419"/>
<text text-anchor="middle" x="421.5" y="-519" font-family="Helvetica,sans-Serif" font-size="10.00" fill="#000000">DisplayElement</text>
<polyline fill="none" stroke="#000000" points="368,-512 475,-512 "/>
<text text-anchor="middle" x="421.5" y="-500" font-family="Helvetica,sans-Serif" font-size="10.00" fill="#000000"> </text>
<polyline fill="none" stroke="#000000" points="368,-493 475,-493 "/>
<text text-anchor="start" x="376" y="-481" font-family="Helvetica,sans-Serif" font-size="10.00" fill="#000000">+ ~DisplayElement()</text>
<text text-anchor="start" x="376" y="-470" font-family="Helvetica,sans-Serif" font-size="10.00" fill="#000000">+ draw()</text>
<text text-anchor="start" x="376" y="-459" font-family="Helvetica,sans-Serif" font-size="10.00" fill="#000000">+ getDisplay()</text>
<text text-anchor="start" x="376" y="-448" font-family="Helvetica,sans-Serif" font-size="10.00" fill="#000000">+ getDisplay()</text>
<text text-anchor="start" x="376" y="-437" font-family="Helvetica,sans-Serif" font-size="10.00" fill="#000000">+ getAll()</text>
<text text-anchor="start" x="376" y="-426" font-family="Helvetica,sans-Serif" font-size="10.00" fill="#000000"># DisplayElement()</text>
</a>
</g>
</g>
<!-- Node2&#45;&gt;Node1 -->
<g id="edge1" class="edge">
<title>Node2&#45;&gt;Node1</title>
<path fill="none" stroke="#191970" d="M471.6262,-410.3574C499.9568,-372.6545 535.2463,-323.6645 563.5,-278 572.1767,-263.9764 580.8294,-248.8179 588.9849,-233.8441"/>
<polygon fill="none" stroke="#191970" points="468.552,-408.6208 465.3237,-418.7119 474.1403,-412.8365 468.552,-408.6208"/>
</g>
<!-- Node3 -->
<g id="node3" class="node">
<title>Node3</title>
<g id="a_node3"><a xlink:href="../../d4/d23/classDoublyLinkable.html" target="_top" xlink:title=" ">
<polygon fill="#ffffff" stroke="#000000" points="232.5,-110.5 232.5,-167.5 402.5,-167.5 402.5,-110.5 232.5,-110.5"/>
<text text-anchor="middle" x="317.5" y="-155.5" font-family="Helvetica,sans-Serif" font-size="10.00" fill="#000000">DoublyLinkable&lt; DisplayElement &gt;</text>
<polyline fill="none" stroke="#000000" points="232.5,-148.5 402.5,-148.5 "/>
<text text-anchor="middle" x="317.5" y="-136.5" font-family="Helvetica,sans-Serif" font-size="10.00" fill="#000000"> </text>
<polyline fill="none" stroke="#000000" points="232.5,-129.5 402.5,-129.5 "/>
<text text-anchor="start" x="240.5" y="-117.5" font-family="Helvetica,sans-Serif" font-size="10.00" fill="#000000"># ~DoublyLinkable()</text>
</a>
</g>
</g>
<!-- Node2&#45;&gt;Node3 -->
<g id="edge3" class="edge">
<title>Node2&#45;&gt;Node3</title>
<path fill="none" stroke="#404040" d="M388.0566,-418.6947C372.3824,-393.0721 353.0961,-362.5988 334.5,-336 328.6928,-327.6938 323.8694,-327.5584 320.5,-318 304.5558,-272.7682 306.7427,-217.03 310.9961,-179.8847"/>
<polygon fill="none" stroke="#404040" points="311.0483,-179.4734 307.8363,-173.0172 312.5605,-167.5691 315.7725,-174.0253 311.0483,-179.4734"/>
<text text-anchor="middle" x="342" y="-310" font-family="Helvetica,sans-Serif" font-size="10.00" fill="#000000"> #next</text>
<text text-anchor="middle" x="342" y="-299" font-family="Helvetica,sans-Serif" font-size="10.00" fill="#000000">#previous</text>
</g>
<!-- Node4 -->
<g id="node4" class="node">
<title>Node4</title>
<g id="a_node4"><a xlink:href="../../dd/d16/classDoublyLinkedList.html" target="_top" xlink:title=" ">
<polygon fill="#ffffff" stroke="#000000" points="420.5,-.5 420.5,-277.5 554.5,-277.5 554.5,-.5 420.5,-.5"/>
<text text-anchor="start" x="428.5" y="-265.5" font-family="Helvetica,sans-Serif" font-size="10.00" fill="#000000">DoublyLinkedList&lt; Display</text>
<text text-anchor="middle" x="487.5" y="-254.5" font-family="Helvetica,sans-Serif" font-size="10.00" fill="#000000">Element &gt;</text>
<polyline fill="none" stroke="#000000" points="420.5,-247.5 554.5,-247.5 "/>
<text text-anchor="middle" x="487.5" y="-235.5" font-family="Helvetica,sans-Serif" font-size="10.00" fill="#000000"> </text>
<polyline fill="none" stroke="#000000" points="420.5,-228.5 554.5,-228.5 "/>
<text text-anchor="start" x="428.5" y="-216.5" font-family="Helvetica,sans-Serif" font-size="10.00" fill="#000000">+ append()</text>
<text text-anchor="start" x="428.5" y="-205.5" font-family="Helvetica,sans-Serif" font-size="10.00" fill="#000000">+ append()</text>
<text text-anchor="start" x="428.5" y="-194.5" font-family="Helvetica,sans-Serif" font-size="10.00" fill="#000000">+ insertBefore()</text>
<text text-anchor="start" x="428.5" y="-183.5" font-family="Helvetica,sans-Serif" font-size="10.00" fill="#000000">+ insertBefore()</text>
<text text-anchor="start" x="428.5" y="-172.5" font-family="Helvetica,sans-Serif" font-size="10.00" fill="#000000">+ insertSorted()</text>
<text text-anchor="start" x="428.5" y="-161.5" font-family="Helvetica,sans-Serif" font-size="10.00" fill="#000000">+ insertSorted()</text>
<text text-anchor="start" x="428.5" y="-150.5" font-family="Helvetica,sans-Serif" font-size="10.00" fill="#000000">+ remove()</text>
<text text-anchor="start" x="428.5" y="-139.5" font-family="Helvetica,sans-Serif" font-size="10.00" fill="#000000">+ remove()</text>
<text text-anchor="start" x="428.5" y="-128.5" font-family="Helvetica,sans-Serif" font-size="10.00" fill="#000000">+ moveDown()</text>
<text text-anchor="start" x="428.5" y="-117.5" font-family="Helvetica,sans-Serif" font-size="10.00" fill="#000000">+ couldContain()</text>
<text text-anchor="start" x="428.5" y="-106.5" font-family="Helvetica,sans-Serif" font-size="10.00" fill="#000000">+ begin()</text>
<text text-anchor="start" x="428.5" y="-95.5" font-family="Helvetica,sans-Serif" font-size="10.00" fill="#000000">+ begin()</text>
<text text-anchor="start" x="428.5" y="-84.5" font-family="Helvetica,sans-Serif" font-size="10.00" fill="#000000">+ end()</text>
<text text-anchor="start" x="428.5" y="-73.5" font-family="Helvetica,sans-Serif" font-size="10.00" fill="#000000">+ end()</text>
<text text-anchor="start" x="428.5" y="-62.5" font-family="Helvetica,sans-Serif" font-size="10.00" fill="#000000">+ rbegin()</text>
<text text-anchor="start" x="428.5" y="-51.5" font-family="Helvetica,sans-Serif" font-size="10.00" fill="#000000">+ rbegin()</text>
<text text-anchor="start" x="428.5" y="-40.5" font-family="Helvetica,sans-Serif" font-size="10.00" fill="#000000">+ rend()</text>
<text text-anchor="start" x="428.5" y="-29.5" font-family="Helvetica,sans-Serif" font-size="10.00" fill="#000000">+ rend()</text>
<text text-anchor="start" x="428.5" y="-18.5" font-family="Helvetica,sans-Serif" font-size="10.00" fill="#000000">+ getFirst()</text>
<text text-anchor="start" x="428.5" y="-7.5" font-family="Helvetica,sans-Serif" font-size="10.00" fill="#000000">+ getLast()</text>
</a>
</g>
</g>
<!-- Node2&#45;&gt;Node4 -->
<g id="edge5" class="edge">
<title>Node2&#45;&gt;Node4</title>
<path fill="none" stroke="#404040" d="M418.6548,-418.815C418.0139,-383.2674 419.3136,-336.5364 427.5,-296 427.9359,-293.8414 428.3983,-291.6737 428.8852,-289.4992"/>
<polygon fill="none" stroke="#404040" points="428.889,-289.483 426.4125,-282.7105 431.7115,-277.8196 434.1881,-284.5921 428.889,-289.483"/>
<text text-anchor="middle" x="438.5" y="-310" font-family="Helvetica,sans-Serif" font-size="10.00" fill="#000000"> &#45;last</text>
<text text-anchor="middle" x="438.5" y="-299" font-family="Helvetica,sans-Serif" font-size="10.00" fill="#000000">&#45;first</text>
</g>
<!-- Node3&#45;&gt;Node2 -->
<g id="edge2" class="edge">
<title>Node3&#45;&gt;Node2</title>
<path fill="none" stroke="#191970" d="M329.9039,-177.3804C340.123,-209.1353 354.9253,-255.4435 367.5,-296 380.237,-337.0798 394.2551,-383.5874 404.8161,-418.8994"/>
<polygon fill="none" stroke="#191970" points="333.1533,-176.0526 326.7556,-167.6074 326.4905,-178.199 333.1533,-176.0526"/>
</g>
<!-- Node4&#45;&gt;Node2 -->
<g id="edge4" class="edge">
<title>Node4&#45;&gt;Node2</title>
<path fill="none" stroke="#404040" d="M460.2472,-277.7414C451.516,-322.191 442.231,-369.4602 434.9396,-406.5804"/>
<polygon fill="none" stroke="#404040" points="434.8599,-406.9862 437.6284,-413.6447 432.5469,-418.7612 429.7784,-412.1027 434.8599,-406.9862"/>
<text text-anchor="middle" x="481" y="-304.5" font-family="Helvetica,sans-Serif" font-size="10.00" fill="#000000"> #elements</text>
</g>
<!-- Node5 -->
<g id="node5" class="node">
<title>Node5</title>
<g id="a_node5"><a xlink:href="../../df/d42/classDisplayInterface.html" target="_top" xlink:title="An interface for displays.">
<polygon fill="#ffffff" stroke="#000000" points="102,-672.5 102,-971.5 247,-971.5 247,-672.5 102,-672.5"/>
<text text-anchor="middle" x="174.5" y="-959.5" font-family="Helvetica,sans-Serif" font-size="10.00" fill="#000000">DisplayInterface</text>
<polyline fill="none" stroke="#000000" points="102,-952.5 247,-952.5 "/>
<text text-anchor="middle" x="174.5" y="-940.5" font-family="Helvetica,sans-Serif" font-size="10.00" fill="#000000"> </text>
<polyline fill="none" stroke="#000000" points="102,-933.5 247,-933.5 "/>
<text text-anchor="start" x="110" y="-921.5" font-family="Helvetica,sans-Serif" font-size="10.00" fill="#000000">+ ~DisplayInterface()</text>
<text text-anchor="start" x="110" y="-910.5" font-family="Helvetica,sans-Serif" font-size="10.00" fill="#000000">+ begin()</text>
<text text-anchor="start" x="110" y="-899.5" font-family="Helvetica,sans-Serif" font-size="10.00" fill="#000000">+ clear()</text>
<text text-anchor="start" x="110" y="-888.5" font-family="Helvetica,sans-Serif" font-size="10.00" fill="#000000">+ drawBackground()</text>
<text text-anchor="start" x="110" y="-877.5" font-family="Helvetica,sans-Serif" font-size="10.00" fill="#000000">+ display()</text>
<text text-anchor="start" x="110" y="-866.5" font-family="Helvetica,sans-Serif" font-size="10.00" fill="#000000">+ drawPixel()</text>
<text text-anchor="start" x="110" y="-855.5" font-family="Helvetica,sans-Serif" font-size="10.00" fill="#000000">+ setTextColor()</text>
<text text-anchor="start" x="110" y="-844.5" font-family="Helvetica,sans-Serif" font-size="10.00" fill="#000000">+ setTextSize()</text>
<text text-anchor="start" x="110" y="-833.5" font-family="Helvetica,sans-Serif" font-size="10.00" fill="#000000">+ setCursor()</text>
<text text-anchor="start" x="110" y="-822.5" font-family="Helvetica,sans-Serif" font-size="10.00" fill="#000000">+ write()</text>
<text text-anchor="start" x="110" y="-811.5" font-family="Helvetica,sans-Serif" font-size="10.00" fill="#000000">+ drawLine()</text>
<text text-anchor="start" x="110" y="-800.5" font-family="Helvetica,sans-Serif" font-size="10.00" fill="#000000">+ drawFastVLine()</text>
<text text-anchor="start" x="110" y="-789.5" font-family="Helvetica,sans-Serif" font-size="10.00" fill="#000000">+ drawFastHLine()</text>
<text text-anchor="start" x="110" y="-778.5" font-family="Helvetica,sans-Serif" font-size="10.00" fill="#000000">+ drawXBitmap()</text>
<text text-anchor="start" x="110" y="-767.5" font-family="Helvetica,sans-Serif" font-size="10.00" fill="#000000">+ fillRect()</text>
<text text-anchor="start" x="110" y="-756.5" font-family="Helvetica,sans-Serif" font-size="10.00" fill="#000000">+ drawCircle()</text>
<text text-anchor="start" x="110" y="-745.5" font-family="Helvetica,sans-Serif" font-size="10.00" fill="#000000">+ fillCircle()</text>
<text text-anchor="start" x="110" y="-734.5" font-family="Helvetica,sans-Serif" font-size="10.00" fill="#000000">+ enable()</text>
<text text-anchor="start" x="110" y="-723.5" font-family="Helvetica,sans-Serif" font-size="10.00" fill="#000000">+ disable()</text>
<text text-anchor="start" x="110" y="-712.5" font-family="Helvetica,sans-Serif" font-size="10.00" fill="#000000">+ isEnabled()</text>
<text text-anchor="start" x="110" y="-701.5" font-family="Helvetica,sans-Serif" font-size="10.00" fill="#000000">+ clearAndDrawBackground()</text>
<text text-anchor="start" x="110" y="-690.5" font-family="Helvetica,sans-Serif" font-size="10.00" fill="#000000">+ beginAll()</text>
<text text-anchor="start" x="110" y="-679.5" font-family="Helvetica,sans-Serif" font-size="10.00" fill="#000000"># DisplayInterface()</text>
</a>
</g>
</g>
<!-- Node5&#45;&gt;Node2 -->
<g id="edge6" class="edge">
<title>Node5&#45;&gt;Node2</title>
<path fill="none" stroke="#404040" d="M247.0836,-683.4912C250.1462,-679.5368 253.2863,-675.695 256.5,-672 284.8505,-639.4037 305.201,-645.7465 334.5,-614 354.3466,-592.4956 372.2816,-565.8507 386.6404,-541.6603"/>
<polygon fill="none" stroke="#404040" points="386.7442,-541.4817 386.3012,-534.2842 392.7746,-531.107 393.2176,-538.3045 386.7442,-541.4817"/>
<text text-anchor="middle" x="333.5" y="-640.5" font-family="Helvetica,sans-Serif" font-size="10.00" fill="#000000"> #display</text>
</g>
<!-- Node7 -->
<g id="node7" class="node">
<title>Node7</title>
<g id="a_node7"><a xlink:href="../../d4/d23/classDoublyLinkable.html" target="_top" xlink:title=" ">
<polygon fill="#ffffff" stroke="#000000" points="0,-446.5 0,-503.5 173,-503.5 173,-446.5 0,-446.5"/>
<text text-anchor="middle" x="86.5" y="-491.5" font-family="Helvetica,sans-Serif" font-size="10.00" fill="#000000">DoublyLinkable&lt; DisplayInterface &gt;</text>
<polyline fill="none" stroke="#000000" points="0,-484.5 173,-484.5 "/>
<text text-anchor="middle" x="86.5" y="-472.5" font-family="Helvetica,sans-Serif" font-size="10.00" fill="#000000"> </text>
<polyline fill="none" stroke="#000000" points="0,-465.5 173,-465.5 "/>
<text text-anchor="start" x="8" y="-453.5" font-family="Helvetica,sans-Serif" font-size="10.00" fill="#000000"># ~DoublyLinkable()</text>
</a>
</g>
</g>
<!-- Node5&#45;&gt;Node7 -->
<g id="edge9" class="edge">
<title>Node5&#45;&gt;Node7</title>
<path fill="none" stroke="#404040" d="M101.9692,-692.6028C96.9811,-679.8402 92.6799,-666.8508 89.5,-654 78.0466,-607.7144 79.2431,-552.6211 82.0413,-515.8985"/>
<polygon fill="none" stroke="#404040" points="82.0602,-515.6766 78.5844,-509.3584 83.0798,-503.72 86.5555,-510.0382 82.0602,-515.6766"/>
<text text-anchor="middle" x="111" y="-646" font-family="Helvetica,sans-Serif" font-size="10.00" fill="#000000"> #next</text>
<text text-anchor="middle" x="111" y="-635" font-family="Helvetica,sans-Serif" font-size="10.00" fill="#000000">#previous</text>
</g>
<!-- Node8 -->
<g id="node8" class="node">
<title>Node8</title>
<g id="a_node8"><a xlink:href="../../dd/d16/classDoublyLinkedList.html" target="_top" xlink:title=" ">
<polygon fill="#ffffff" stroke="#000000" points="191.5,-336.5 191.5,-613.5 325.5,-613.5 325.5,-336.5 191.5,-336.5"/>
<text text-anchor="start" x="199.5" y="-601.5" font-family="Helvetica,sans-Serif" font-size="10.00" fill="#000000">DoublyLinkedList&lt; Display</text>
<text text-anchor="middle" x="258.5" y="-590.5" font-family="Helvetica,sans-Serif" font-size="10.00" fill="#000000">Interface &gt;</text>
<polyline fill="none" stroke="#000000" points="191.5,-583.5 325.5,-583.5 "/>
<text text-anchor="middle" x="258.5" y="-571.5" font-family="Helvetica,sans-Serif" font-size="10.00" fill="#000000"> </text>
<polyline fill="none" stroke="#000000" points="191.5,-564.5 325.5,-564.5 "/>
<text text-anchor="start" x="199.5" y="-552.5" font-family="Helvetica,sans-Serif" font-size="10.00" fill="#000000">+ append()</text>
<text text-anchor="start" x="199.5" y="-541.5" font-family="Helvetica,sans-Serif" font-size="10.00" fill="#000000">+ append()</text>
<text text-anchor="start" x="199.5" y="-530.5" font-family="Helvetica,sans-Serif" font-size="10.00" fill="#000000">+ insertBefore()</text>
<text text-anchor="start" x="199.5" y="-519.5" font-family="Helvetica,sans-Serif" font-size="10.00" fill="#000000">+ insertBefore()</text>
<text text-anchor="start" x="199.5" y="-508.5" font-family="Helvetica,sans-Serif" font-size="10.00" fill="#000000">+ insertSorted()</text>
<text text-anchor="start" x="199.5" y="-497.5" font-family="Helvetica,sans-Serif" font-size="10.00" fill="#000000">+ insertSorted()</text>
<text text-anchor="start" x="199.5" y="-486.5" font-family="Helvetica,sans-Serif" font-size="10.00" fill="#000000">+ remove()</text>
<text text-anchor="start" x="199.5" y="-475.5" font-family="Helvetica,sans-Serif" font-size="10.00" fill="#000000">+ remove()</text>
<text text-anchor="start" x="199.5" y="-464.5" font-family="Helvetica,sans-Serif" font-size="10.00" fill="#000000">+ moveDown()</text>
<text text-anchor="start" x="199.5" y="-453.5" font-family="Helvetica,sans-Serif" font-size="10.00" fill="#000000">+ couldContain()</text>
<text text-anchor="start" x="199.5" y="-442.5" font-family="Helvetica,sans-Serif" font-size="10.00" fill="#000000">+ begin()</text>
<text text-anchor="start" x="199.5" y="-431.5" font-family="Helvetica,sans-Serif" font-size="10.00" fill="#000000">+ begin()</text>
<text text-anchor="start" x="199.5" y="-420.5" font-family="Helvetica,sans-Serif" font-size="10.00" fill="#000000">+ end()</text>
<text text-anchor="start" x="199.5" y="-409.5" font-family="Helvetica,sans-Serif" font-size="10.00" fill="#000000">+ end()</text>
<text text-anchor="start" x="199.5" y="-398.5" font-family="Helvetica,sans-Serif" font-size="10.00" fill="#000000">+ rbegin()</text>
<text text-anchor="start" x="199.5" y="-387.5" font-family="Helvetica,sans-Serif" font-size="10.00" fill="#000000">+ rbegin()</text>
<text text-anchor="start" x="199.5" y="-376.5" font-family="Helvetica,sans-Serif" font-size="10.00" fill="#000000">+ rend()</text>
<text text-anchor="start" x="199.5" y="-365.5" font-family="Helvetica,sans-Serif" font-size="10.00" fill="#000000">+ rend()</text>
<text text-anchor="start" x="199.5" y="-354.5" font-family="Helvetica,sans-Serif" font-size="10.00" fill="#000000">+ getFirst()</text>
<text text-anchor="start" x="199.5" y="-343.5" font-family="Helvetica,sans-Serif" font-size="10.00" fill="#000000">+ getLast()</text>
</a>
</g>
</g>
<!-- Node5&#45;&gt;Node8 -->
<g id="edge11" class="edge">
<title>Node5&#45;&gt;Node8</title>
<path fill="none" stroke="#404040" d="M184.3382,-672.4286C186.5432,-658.6665 189.2294,-645.0145 192.5,-632 193.0439,-629.8359 193.613,-627.6629 194.2055,-625.4835"/>
<polygon fill="none" stroke="#404040" points="194.2557,-625.3094 192.0775,-618.4351 197.5852,-613.7805 199.7634,-620.6548 194.2557,-625.3094"/>
<text text-anchor="middle" x="203.5" y="-646" font-family="Helvetica,sans-Serif" font-size="10.00" fill="#000000"> &#45;last</text>
<text text-anchor="middle" x="203.5" y="-635" font-family="Helvetica,sans-Serif" font-size="10.00" fill="#000000">&#45;first</text>
</g>
<!-- Node6 -->
<g id="node6" class="node">
<title>Node6</title>
<g id="a_node6"><a xlink:title=" ">
<polygon fill="#ffffff" stroke="#bfbfbf" points="156,-1063.5 156,-1120.5 193,-1120.5 193,-1063.5 156,-1063.5"/>
<text text-anchor="middle" x="174.5" y="-1108.5" font-family="Helvetica,sans-Serif" font-size="10.00" fill="#000000">Print</text>
<polyline fill="none" stroke="#bfbfbf" points="156,-1101.5 193,-1101.5 "/>
<text text-anchor="middle" x="174.5" y="-1089.5" font-family="Helvetica,sans-Serif" font-size="10.00" fill="#000000"> </text>
<polyline fill="none" stroke="#bfbfbf" points="156,-1082.5 193,-1082.5 "/>
<text text-anchor="middle" x="174.5" y="-1070.5" font-family="Helvetica,sans-Serif" font-size="10.00" fill="#000000"> </text>
</a>
</g>
</g>
<!-- Node6&#45;&gt;Node5 -->
<g id="edge7" class="edge">
<title>Node6&#45;&gt;Node5</title>
<path fill="none" stroke="#191970" d="M174.5,-1053.1148C174.5,-1031.0208 174.5,-1001.7919 174.5,-971.5776"/>
<polygon fill="none" stroke="#191970" points="171.0001,-1053.3609 174.5,-1063.3609 178.0001,-1053.3609 171.0001,-1053.3609"/>
</g>
<!-- Node7&#45;&gt;Node5 -->
<g id="edge8" class="edge">
<title>Node7&#45;&gt;Node5</title>
<path fill="none" stroke="#191970" d="M100.0366,-513.3751C110.8553,-544.9502 125.9098,-591.0139 136.5,-632 139.8662,-645.0279 143.1082,-658.6232 146.1827,-672.2906"/>
<polygon fill="none" stroke="#191970" points="103.2541,-511.969 96.684,-503.6573 96.6368,-514.252 103.2541,-511.969"/>
</g>
<!-- Node8&#45;&gt;Node5 -->
<g id="edge10" class="edge">
<title>Node8&#45;&gt;Node5</title>
<path fill="none" stroke="#404040" d="M227.9867,-613.8802C224.8482,-627.4526 221.6531,-641.003 218.5,-654 217.9763,-656.1586 217.4463,-658.3321 216.9109,-660.5179"/>
<polygon fill="none" stroke="#404040" points="216.8762,-660.6587 219.3211,-667.4427 213.9992,-672.3087 211.5544,-665.5247 216.8762,-660.6587"/>
<text text-anchor="middle" x="246.5" y="-640.5" font-family="Helvetica,sans-Serif" font-size="10.00" fill="#000000"> &#45;elements</text>
</g>
<!-- Node9 -->
<g id="node9" class="node">
<title>Node9</title>
<g id="a_node9"><a xlink:href="../../df/d69/classMCU_1_1TimeDisplay.html" target="_top" xlink:title=" ">
<polygon fill="#ffffff" stroke="#000000" points="602.5,-424.5 602.5,-525.5 688.5,-525.5 688.5,-424.5 602.5,-424.5"/>
<text text-anchor="middle" x="645.5" y="-513.5" font-family="Helvetica,sans-Serif" font-size="10.00" fill="#000000">TimeDisplay</text>
<polyline fill="none" stroke="#000000" points="602.5,-506.5 688.5,-506.5 "/>
<text text-anchor="middle" x="645.5" y="-494.5" font-family="Helvetica,sans-Serif" font-size="10.00" fill="#000000"> </text>
<polyline fill="none" stroke="#000000" points="602.5,-487.5 688.5,-487.5 "/>
<text text-anchor="start" x="610.5" y="-475.5" font-family="Helvetica,sans-Serif" font-size="10.00" fill="#000000">+ TimeDisplay()</text>
<text text-anchor="start" x="610.5" y="-464.5" font-family="Helvetica,sans-Serif" font-size="10.00" fill="#000000">+ print()</text>
<text text-anchor="start" x="610.5" y="-453.5" font-family="Helvetica,sans-Serif" font-size="10.00" fill="#000000">+ getBars()</text>
<text text-anchor="start" x="610.5" y="-442.5" font-family="Helvetica,sans-Serif" font-size="10.00" fill="#000000">+ getBeats()</text>
<text text-anchor="start" x="610.5" y="-431.5" font-family="Helvetica,sans-Serif" font-size="10.00" fill="#000000">+ getFrames()</text>
</a>
</g>
</g>
<!-- Node9&#45;&gt;Node1 -->
<g id="edge12" class="edge">
<title>Node9&#45;&gt;Node1</title>
<path fill="none" stroke="#404040" d="M644.1429,-424.3336C642.8818,-377.2532 640.963,-305.6176 639.3635,-245.9038"/>
<polygon fill="none" stroke="#404040" points="639.3592,-245.7395 635.1999,-239.8488 639.0378,-233.7439 643.1971,-239.6346 639.3592,-245.7395"/>
<text text-anchor="middle" x="669.5" y="-304.5" font-family="Helvetica,sans-Serif" font-size="10.00" fill="#000000"> &#45;timedisplay</text>
</g>
<!-- Node10 -->
<g id="node10" class="node">
<title>Node10</title>
<g id="a_node10"><a xlink:href="../../d5/d54/classMCU_1_1SevenSegmentDisplay.html" target="_top" xlink:title=" ">
<polygon fill="#ffffff" stroke="#000000" points="582,-733 582,-911 713,-911 713,-733 582,-733"/>
<text text-anchor="start" x="590" y="-899" font-family="Helvetica,sans-Serif" font-size="10.00" fill="#000000">SevenSegmentDisplay</text>
<text text-anchor="middle" x="647.5" y="-888" font-family="Helvetica,sans-Serif" font-size="10.00" fill="#000000">&lt; TimeDisplayLength &gt;</text>
<polyline fill="none" stroke="#000000" points="582,-881 713,-881 "/>
<text text-anchor="start" x="590" y="-869" font-family="Helvetica,sans-Serif" font-size="10.00" fill="#000000">&#45; text</text>
<polyline fill="none" stroke="#000000" points="582,-862 713,-862 "/>
<text text-anchor="start" x="590" y="-850" font-family="Helvetica,sans-Serif" font-size="10.00" fill="#000000">+ SevenSegmentDisplay()</text>
<text text-anchor="start" x="590" y="-839" font-family="Helvetica,sans-Serif" font-size="10.00" fill="#000000">+ fillWithSpaces()</text>
<text text-anchor="start" x="590" y="-828" font-family="Helvetica,sans-Serif" font-size="10.00" fill="#000000">+ reset()</text>
<text text-anchor="start" x="590" y="-817" font-family="Helvetica,sans-Serif" font-size="10.00" fill="#000000">+ getText()</text>
<text text-anchor="start" x="590" y="-806" font-family="Helvetica,sans-Serif" font-size="10.00" fill="#000000">+ getCharacterAt()</text>
<text text-anchor="start" x="590" y="-795" font-family="Helvetica,sans-Serif" font-size="10.00" fill="#000000">+ getDecimalPoints()</text>
<text text-anchor="start" x="590" y="-784" font-family="Helvetica,sans-Serif" font-size="10.00" fill="#000000">+ getDecimalPointAt()</text>
<text text-anchor="start" x="590" y="-773" font-family="Helvetica,sans-Serif" font-size="10.00" fill="#000000">+ printTo()</text>
<text text-anchor="start" x="590" y="-762" font-family="Helvetica,sans-Serif" font-size="10.00" fill="#000000">&#45; updateImpl()</text>
<text text-anchor="start" x="590" y="-751" font-family="Helvetica,sans-Serif" font-size="10.00" fill="#000000">&#45; match()</text>
<text text-anchor="start" x="590" y="-740" font-family="Helvetica,sans-Serif" font-size="10.00" fill="#000000">&#45; getRangeIndex()</text>
</a>
</g>
</g>
<!-- Node10&#45;&gt;Node9 -->
<g id="edge13" class="edge">
<title>Node10&#45;&gt;Node9</title>
<path fill="none" stroke="#191970" d="M646.9264,-722.4783C646.5561,-658.2352 646.0899,-577.342 645.7933,-525.8836"/>
<polygon fill="none" stroke="#191970" points="643.4273,-722.6593 646.985,-732.6389 650.4272,-722.6188 643.4273,-722.6593"/>
</g>
<!-- Node11 -->
<g id="node11" class="node">
<title>Node11</title>
<g id="a_node11"><a xlink:href="../../d3/d96/classMIDIInputElementCC.html" target="_top" xlink:title="Class for objects that listen for incoming MIDI Controller Change events.">
<polygon fill="#ffffff" stroke="#000000" points="396.5,-1030.5 396.5,-1153.5 528.5,-1153.5 528.5,-1030.5 396.5,-1030.5"/>
<text text-anchor="middle" x="462.5" y="-1141.5" font-family="Helvetica,sans-Serif" font-size="10.00" fill="#000000">MIDIInputElementCC</text>
<polyline fill="none" stroke="#000000" points="396.5,-1134.5 528.5,-1134.5 "/>
<text text-anchor="middle" x="462.5" y="-1122.5" font-family="Helvetica,sans-Serif" font-size="10.00" fill="#000000"> </text>
<polyline fill="none" stroke="#000000" points="396.5,-1115.5 528.5,-1115.5 "/>
<text text-anchor="start" x="404.5" y="-1103.5" font-family="Helvetica,sans-Serif" font-size="10.00" fill="#000000">+ MIDIInputElementCC()</text>
<text text-anchor="start" x="404.5" y="-1092.5" font-family="Helvetica,sans-Serif" font-size="10.00" fill="#000000">+ ~MIDIInputElementCC()</text>
<text text-anchor="start" x="404.5" y="-1081.5" font-family="Helvetica,sans-Serif" font-size="10.00" fill="#000000">+ beginAll()</text>
<text text-anchor="start" x="404.5" y="-1070.5" font-family="Helvetica,sans-Serif" font-size="10.00" fill="#000000">+ updateAll()</text>
<text text-anchor="start" x="404.5" y="-1059.5" font-family="Helvetica,sans-Serif" font-size="10.00" fill="#000000">+ resetAll()</text>
<text text-anchor="start" x="404.5" y="-1048.5" font-family="Helvetica,sans-Serif" font-size="10.00" fill="#000000">+ updateAllWith()</text>
<text text-anchor="start" x="404.5" y="-1037.5" font-family="Helvetica,sans-Serif" font-size="10.00" fill="#000000">&#45; moveDown()</text>
</a>
</g>
</g>
<!-- Node11&#45;&gt;Node10 -->
<g id="edge14" class="edge">
<title>Node11&#45;&gt;Node10</title>
<path fill="none" stroke="#191970" d="M532.0678,-1022.6224C546.3206,-1006.6796 560.5891,-989.306 572.5,-972 585.458,-953.1726 597.5212,-931.7874 608.02,-911.1834"/>
<polygon fill="none" stroke="#191970" points="529.2062,-1020.5679 525.0827,-1030.3274 534.3923,-1025.2695 529.2062,-1020.5679"/>
</g>
<!-- Node14 -->
<g id="node14" class="node">
<title>Node14</title>
<g id="a_node14"><a xlink:href="../../d4/d23/classDoublyLinkable.html" target="_top" xlink:title=" ">
<polygon fill="#ffffff" stroke="#000000" points="427.5,-788 427.5,-856 563.5,-856 563.5,-788 427.5,-788"/>
<text text-anchor="start" x="435.5" y="-844" font-family="Helvetica,sans-Serif" font-size="10.00" fill="#000000">DoublyLinkable&lt; MIDIInput</text>
<text text-anchor="middle" x="495.5" y="-833" font-family="Helvetica,sans-Serif" font-size="10.00" fill="#000000">ElementCC &gt;</text>
<polyline fill="none" stroke="#000000" points="427.5,-826 563.5,-826 "/>
<text text-anchor="middle" x="495.5" y="-814" font-family="Helvetica,sans-Serif" font-size="10.00" fill="#000000"> </text>
<polyline fill="none" stroke="#000000" points="427.5,-807 563.5,-807 "/>
<text text-anchor="start" x="435.5" y="-795" font-family="Helvetica,sans-Serif" font-size="10.00" fill="#000000"># ~DoublyLinkable()</text>
</a>
</g>
</g>
<!-- Node11&#45;&gt;Node14 -->
<g id="edge18" class="edge">
<title>Node11&#45;&gt;Node14</title>
<path fill="none" stroke="#404040" d="M471.1004,-1030.4338C471.9294,-1024.2093 472.7427,-1017.9807 473.5,-1012 479.7163,-962.9095 486.15,-906.5919 490.4416,-868.094"/>
<polygon fill="none" stroke="#404040" points="490.4595,-867.9319 487.1463,-861.527 491.7841,-856.0052 495.0974,-862.4101 490.4595,-867.9319"/>
<text text-anchor="middle" x="498" y="-1004" font-family="Helvetica,sans-Serif" font-size="10.00" fill="#000000"> #next</text>
<text text-anchor="middle" x="498" y="-993" font-family="Helvetica,sans-Serif" font-size="10.00" fill="#000000">#previous</text>
</g>
<!-- Node15 -->
<g id="node15" class="node">
<title>Node15</title>
<g id="a_node15"><a xlink:href="../../dd/d16/classDoublyLinkedList.html" target="_top" xlink:title=" ">
<polygon fill="#ffffff" stroke="#000000" points="265.5,-683.5 265.5,-960.5 409.5,-960.5 409.5,-683.5 265.5,-683.5"/>
<text text-anchor="start" x="273.5" y="-948.5" font-family="Helvetica,sans-Serif" font-size="10.00" fill="#000000">DoublyLinkedList&lt; MIDIInput</text>
<text text-anchor="middle" x="337.5" y="-937.5" font-family="Helvetica,sans-Serif" font-size="10.00" fill="#000000">ElementCC &gt;</text>
<polyline fill="none" stroke="#000000" points="265.5,-930.5 409.5,-930.5 "/>
<text text-anchor="middle" x="337.5" y="-918.5" font-family="Helvetica,sans-Serif" font-size="10.00" fill="#000000"> </text>
<polyline fill="none" stroke="#000000" points="265.5,-911.5 409.5,-911.5 "/>
<text text-anchor="start" x="273.5" y="-899.5" font-family="Helvetica,sans-Serif" font-size="10.00" fill="#000000">+ append()</text>
<text text-anchor="start" x="273.5" y="-888.5" font-family="Helvetica,sans-Serif" font-size="10.00" fill="#000000">+ append()</text>
<text text-anchor="start" x="273.5" y="-877.5" font-family="Helvetica,sans-Serif" font-size="10.00" fill="#000000">+ insertBefore()</text>
<text text-anchor="start" x="273.5" y="-866.5" font-family="Helvetica,sans-Serif" font-size="10.00" fill="#000000">+ insertBefore()</text>
<text text-anchor="start" x="273.5" y="-855.5" font-family="Helvetica,sans-Serif" font-size="10.00" fill="#000000">+ insertSorted()</text>
<text text-anchor="start" x="273.5" y="-844.5" font-family="Helvetica,sans-Serif" font-size="10.00" fill="#000000">+ insertSorted()</text>
<text text-anchor="start" x="273.5" y="-833.5" font-family="Helvetica,sans-Serif" font-size="10.00" fill="#000000">+ remove()</text>
<text text-anchor="start" x="273.5" y="-822.5" font-family="Helvetica,sans-Serif" font-size="10.00" fill="#000000">+ remove()</text>
<text text-anchor="start" x="273.5" y="-811.5" font-family="Helvetica,sans-Serif" font-size="10.00" fill="#000000">+ moveDown()</text>
<text text-anchor="start" x="273.5" y="-800.5" font-family="Helvetica,sans-Serif" font-size="10.00" fill="#000000">+ couldContain()</text>
<text text-anchor="start" x="273.5" y="-789.5" font-family="Helvetica,sans-Serif" font-size="10.00" fill="#000000">+ begin()</text>
<text text-anchor="start" x="273.5" y="-778.5" font-family="Helvetica,sans-Serif" font-size="10.00" fill="#000000">+ begin()</text>
<text text-anchor="start" x="273.5" y="-767.5" font-family="Helvetica,sans-Serif" font-size="10.00" fill="#000000">+ end()</text>
<text text-anchor="start" x="273.5" y="-756.5" font-family="Helvetica,sans-Serif" font-size="10.00" fill="#000000">+ end()</text>
<text text-anchor="start" x="273.5" y="-745.5" font-family="Helvetica,sans-Serif" font-size="10.00" fill="#000000">+ rbegin()</text>
<text text-anchor="start" x="273.5" y="-734.5" font-family="Helvetica,sans-Serif" font-size="10.00" fill="#000000">+ rbegin()</text>
<text text-anchor="start" x="273.5" y="-723.5" font-family="Helvetica,sans-Serif" font-size="10.00" fill="#000000">+ rend()</text>
<text text-anchor="start" x="273.5" y="-712.5" font-family="Helvetica,sans-Serif" font-size="10.00" fill="#000000">+ rend()</text>
<text text-anchor="start" x="273.5" y="-701.5" font-family="Helvetica,sans-Serif" font-size="10.00" fill="#000000">+ getFirst()</text>
<text text-anchor="start" x="273.5" y="-690.5" font-family="Helvetica,sans-Serif" font-size="10.00" fill="#000000">+ getLast()</text>
</a>
</g>
</g>
<!-- Node11&#45;&gt;Node15 -->
<g id="edge20" class="edge">
<title>Node11&#45;&gt;Node15</title>
<path fill="none" stroke="#404040" d="M400.4655,-1030.4579C396.0475,-1024.4827 391.9742,-1018.2943 388.5,-1012 381.6017,-999.5022 375.5965,-986.0206 370.3765,-972.2097"/>
<polygon fill="none" stroke="#404040" points="370.2416,-971.835 364.4447,-967.546 366.1742,-960.5453 371.9711,-964.8343 370.2416,-971.835"/>
<text text-anchor="middle" x="399.5" y="-1004" font-family="Helvetica,sans-Serif" font-size="10.00" fill="#000000"> &#45;last</text>
<text text-anchor="middle" x="399.5" y="-993" font-family="Helvetica,sans-Serif" font-size="10.00" fill="#000000">&#45;first</text>
</g>
<!-- Node12 -->
<g id="node12" class="node">
<title>Node12</title>
<g id="a_node12"><a xlink:href="../../d9/db1/classMIDIInputElement.html" target="_top" xlink:title="A class for objects that listen for incoming MIDI events.">
<polygon fill="#ffffff" stroke="#000000" points="404,-1191.5 404,-1347.5 521,-1347.5 521,-1191.5 404,-1191.5"/>
<text text-anchor="middle" x="462.5" y="-1335.5" font-family="Helvetica,sans-Serif" font-size="10.00" fill="#000000">MIDIInputElement</text>
<polyline fill="none" stroke="#000000" points="404,-1328.5 521,-1328.5 "/>
<text text-anchor="middle" x="462.5" y="-1316.5" font-family="Helvetica,sans-Serif" font-size="10.00" fill="#000000"> </text>
<polyline fill="none" stroke="#000000" points="404,-1309.5 521,-1309.5 "/>
<text text-anchor="start" x="412" y="-1297.5" font-family="Helvetica,sans-Serif" font-size="10.00" fill="#000000">+ ~MIDIInputElement()</text>
<text text-anchor="start" x="412" y="-1286.5" font-family="Helvetica,sans-Serif" font-size="10.00" fill="#000000">+ begin()</text>
<text text-anchor="start" x="412" y="-1275.5" font-family="Helvetica,sans-Serif" font-size="10.00" fill="#000000">+ reset()</text>
<text text-anchor="start" x="412" y="-1264.5" font-family="Helvetica,sans-Serif" font-size="10.00" fill="#000000">+ update()</text>
<text text-anchor="start" x="412" y="-1253.5" font-family="Helvetica,sans-Serif" font-size="10.00" fill="#000000">+ updateWith()</text>
<text text-anchor="start" x="412" y="-1242.5" font-family="Helvetica,sans-Serif" font-size="10.00" fill="#000000"># MIDIInputElement()</text>
<text text-anchor="start" x="412" y="-1231.5" font-family="Helvetica,sans-Serif" font-size="10.00" fill="#000000"># MIDIInputElement()</text>
<text text-anchor="start" x="412" y="-1220.5" font-family="Helvetica,sans-Serif" font-size="10.00" fill="#000000">&#45; updateImpl()</text>
<text text-anchor="start" x="412" y="-1209.5" font-family="Helvetica,sans-Serif" font-size="10.00" fill="#000000">&#45; getTarget()</text>
<text text-anchor="start" x="412" y="-1198.5" font-family="Helvetica,sans-Serif" font-size="10.00" fill="#000000">&#45; match()</text>
</a>
</g>
</g>
<!-- Node12&#45;&gt;Node11 -->
<g id="edge15" class="edge">
<title>Node12&#45;&gt;Node11</title>
<path fill="none" stroke="#191970" d="M462.5,-1181.2654C462.5,-1171.9162 462.5,-1162.5594 462.5,-1153.61"/>
<polygon fill="none" stroke="#191970" points="459.0001,-1181.3876 462.5,-1191.3876 466.0001,-1181.3876 459.0001,-1181.3876"/>
</g>
<!-- Node13 -->
<g id="node13" class="node">
<title>Node13</title>
<g id="a_node13"><a xlink:href="../../d7/d0f/classMIDIAddress.html" target="_top" xlink:title="A type&#45;safe utility class for saving a MIDI address consisting of a 7&#45;bit address,...">
<polygon fill="#ffffff" stroke="#000000" points="398,-1395.5 398,-1661.5 527,-1661.5 527,-1395.5 398,-1395.5"/>
<text text-anchor="middle" x="462.5" y="-1649.5" font-family="Helvetica,sans-Serif" font-size="10.00" fill="#000000">MIDIAddress</text>
<polyline fill="none" stroke="#000000" points="398,-1642.5 527,-1642.5 "/>
<text text-anchor="start" x="406" y="-1630.5" font-family="Helvetica,sans-Serif" font-size="10.00" fill="#000000">&#45; addresses</text>
<polyline fill="none" stroke="#000000" points="398,-1623.5 527,-1623.5 "/>
<text text-anchor="start" x="406" y="-1611.5" font-family="Helvetica,sans-Serif" font-size="10.00" fill="#000000">* MIDIAddress()</text>
<text text-anchor="start" x="406" y="-1600.5" font-family="Helvetica,sans-Serif" font-size="10.00" fill="#000000">* MIDIAddress()</text>
<text text-anchor="start" x="406" y="-1589.5" font-family="Helvetica,sans-Serif" font-size="10.00" fill="#000000">* MIDIAddress()</text>
<text text-anchor="start" x="406" y="-1578.5" font-family="Helvetica,sans-Serif" font-size="10.00" fill="#000000">* MIDIAddress()</text>
<text text-anchor="start" x="406" y="-1567.5" font-family="Helvetica,sans-Serif" font-size="10.00" fill="#000000">* MIDIAddress()</text>
<text text-anchor="start" x="406" y="-1556.5" font-family="Helvetica,sans-Serif" font-size="10.00" fill="#000000">* invalid()</text>
<text text-anchor="start" x="406" y="-1545.5" font-family="Helvetica,sans-Serif" font-size="10.00" fill="#000000">* operator+=()</text>
<text text-anchor="start" x="406" y="-1534.5" font-family="Helvetica,sans-Serif" font-size="10.00" fill="#000000">* operator&#45;=()</text>
<text text-anchor="start" x="406" y="-1523.5" font-family="Helvetica,sans-Serif" font-size="10.00" fill="#000000">* operator+()</text>
<text text-anchor="start" x="406" y="-1512.5" font-family="Helvetica,sans-Serif" font-size="10.00" fill="#000000">* operator&#45;()</text>
<text text-anchor="start" x="406" y="-1501.5" font-family="Helvetica,sans-Serif" font-size="10.00" fill="#000000">* getAddress()</text>
<text text-anchor="start" x="406" y="-1490.5" font-family="Helvetica,sans-Serif" font-size="10.00" fill="#000000">* getChannel()</text>
<text text-anchor="start" x="406" y="-1479.5" font-family="Helvetica,sans-Serif" font-size="10.00" fill="#000000">* getRawChannel()</text>
<text text-anchor="start" x="406" y="-1468.5" font-family="Helvetica,sans-Serif" font-size="10.00" fill="#000000">* getCableNumber()</text>
<text text-anchor="start" x="406" y="-1457.5" font-family="Helvetica,sans-Serif" font-size="10.00" fill="#000000">* operator==()</text>
<text text-anchor="start" x="406" y="-1446.5" font-family="Helvetica,sans-Serif" font-size="10.00" fill="#000000">* operator!=()</text>
<text text-anchor="start" x="406" y="-1435.5" font-family="Helvetica,sans-Serif" font-size="10.00" fill="#000000">* isValid()</text>
<text text-anchor="start" x="406" y="-1424.5" font-family="Helvetica,sans-Serif" font-size="10.00" fill="#000000">* operator bool()</text>
<text text-anchor="start" x="406" y="-1413.5" font-family="Helvetica,sans-Serif" font-size="10.00" fill="#000000">* matchSingle()</text>
<text text-anchor="start" x="406" y="-1402.5" font-family="Helvetica,sans-Serif" font-size="10.00" fill="#000000">* matchAddressInRange()</text>
</a>
</g>
</g>
<!-- Node13&#45;&gt;Node12 -->
<g id="edge16" class="edge">
<title>Node13&#45;&gt;Node12</title>
<path fill="none" stroke="#404040" d="M462.5,-1395.2065C462.5,-1383.2824 462.5,-1371.4012 462.5,-1359.9677"/>
<polygon fill="none" stroke="#404040" points="462.5001,-1359.7561 458.5,-1353.7562 462.5,-1347.7561 466.5,-1353.7561 462.5001,-1359.7561"/>
<text text-anchor="middle" x="484" y="-1369" font-family="Helvetica,sans-Serif" font-size="10.00" fill="#000000"> #address</text>
</g>
<!-- Node14&#45;&gt;Node11 -->
<g id="edge17" class="edge">
<title>Node14&#45;&gt;Node11</title>
<path fill="none" stroke="#191970" d="M490.1073,-866.1223C484.6458,-910.8072 476.1534,-980.2907 470.0295,-1030.395"/>
<polygon fill="none" stroke="#191970" points="493.5867,-866.5032 491.3258,-856.1524 486.6384,-865.6539 493.5867,-866.5032"/>
</g>
<!-- Node15&#45;&gt;Node11 -->
<g id="edge19" class="edge">
<title>Node15&#45;&gt;Node11</title>
<path fill="none" stroke="#404040" d="M399.7465,-960.7452C407.6677,-978.0381 415.723,-995.4514 423.5,-1012 424.5782,-1014.2943 425.6784,-1016.6231 426.7933,-1018.9725"/>
<polygon fill="none" stroke="#404040" points="426.9198,-1019.2375 433.115,-1022.9281 432.0911,-1030.0661 425.8959,-1026.3756 426.9198,-1019.2375"/>
<text text-anchor="middle" x="446.5" y="-998.5" font-family="Helvetica,sans-Serif" font-size="10.00" fill="#000000"> &#45;elements</text>
</g>
<!-- Node16 -->
<g id="node16" class="node">
<title>Node16</title>
<g id="a_node16"><a xlink:title=" ">
<polygon fill="#ffffff" stroke="#bfbfbf" points="620,-1063.5 620,-1120.5 675,-1120.5 675,-1063.5 620,-1063.5"/>
<text text-anchor="middle" x="647.5" y="-1108.5" font-family="Helvetica,sans-Serif" font-size="10.00" fill="#000000">Printable</text>
<polyline fill="none" stroke="#bfbfbf" points="620,-1101.5 675,-1101.5 "/>
<text text-anchor="middle" x="647.5" y="-1089.5" font-family="Helvetica,sans-Serif" font-size="10.00" fill="#000000"> </text>
<polyline fill="none" stroke="#bfbfbf" points="620,-1082.5 675,-1082.5 "/>
<text text-anchor="middle" x="647.5" y="-1070.5" font-family="Helvetica,sans-Serif" font-size="10.00" fill="#000000"> </text>
</a>
</g>
</g>
<!-- Node16&#45;&gt;Node10 -->
<g id="edge21" class="edge">
<title>Node16&#45;&gt;Node10</title>
<path fill="none" stroke="#191970" d="M647.5,-1053.0305C647.5,-1016.0902 647.5,-959.2592 647.5,-911.2083"/>
<polygon fill="none" stroke="#191970" points="644.0001,-1053.3609 647.5,-1063.3609 651.0001,-1053.3609 644.0001,-1053.3609"/>
</g>
</g>
</svg>
