<?xml version="1.0" encoding="UTF-8" standalone="no"?>
<!DOCTYPE svg PUBLIC "-//W3C//DTD SVG 1.1//EN"
 "http://www.w3.org/Graphics/SVG/1.1/DTD/svg11.dtd">
<!-- Generated by graphviz version 2.40.1 (20161225.0304)
 -->
<!-- Title: TimeDisplayDisplay Pages: 1 -->
<svg width="721pt" height="1692pt"
 viewBox="0.00 0.00 721.00 1692.00" xmlns="http://www.w3.org/2000/svg" xmlns:xlink="http://www.w3.org/1999/xlink">
<g id="graph0" class="graph" transform="scale(1 1) rotate(0) translate(4 1688)">
<title>TimeDisplayDisplay</title>
<polygon fill="#ffffff" stroke="transparent" points="-4,4 -4,-1688 717,-1688 717,4 -4,4"/>
<!-- Node1 -->
<g id="node1" class="node">
<title>Node1</title>
<g id="a_node1"><a xlink:title=" ">
<polygon fill="#bfbfbf" stroke="#000000" points="577,-50 577,-239 696,-239 696,-50 577,-50"/>
<text text-anchor="middle" x="636.5" y="-227" font-family="Helvetica,sans-Serif" font-size="10.00" fill="#000000">TimeDisplayDisplay</text>
<polyline fill="none" stroke="#000000" points="577,-220 696,-220 "/>
<text text-anchor="start" x="585" y="-208" font-family="Helvetica,sans-Serif" font-size="10.00" fill="#000000">&#45; x</text>
<text text-anchor="start" x="585" y="-197" font-family="Helvetica,sans-Serif" font-size="10.00" fill="#000000">&#45; y</text>
<text text-anchor="start" x="585" y="-186" font-family="Helvetica,sans-Serif" font-size="10.00" fill="#000000">&#45; size</text>
<text text-anchor="start" x="585" y="-175" font-family="Helvetica,sans-Serif" font-size="10.00" fill="#000000">&#45; color</text>
<polyline fill="none" stroke="#000000" points="577,-168 696,-168 "/>
<text text-anchor="start" x="585" y="-156" font-family="Helvetica,sans-Serif" font-size="10.00" fill="#000000">+ TimeDisplayDisplay()</text>
<text text-anchor="start" x="585" y="-145" font-family="Helvetica,sans-Serif" font-size="10.00" fill="#000000">+ draw()</text>
<text text-anchor="start" x="585" y="-134" font-family="Helvetica,sans-Serif" font-size="10.00" fill="#000000">+ getX()</text>
<text text-anchor="start" x="585" y="-123" font-family="Helvetica,sans-Serif" font-size="10.00" fill="#000000">+ getY()</text>
<text text-anchor="start" x="585" y="-112" font-family="Helvetica,sans-Serif" font-size="10.00" fill="#000000">+ getSize()</text>
<text text-anchor="start" x="585" y="-101" font-family="Helvetica,sans-Serif" font-size="10.00" fill="#000000">+ getColor()</text>
<text text-anchor="start" x="585" y="-90" font-family="Helvetica,sans-Serif" font-size="10.00" fill="#000000">+ setX()</text>
<text text-anchor="start" x="585" y="-79" font-family="Helvetica,sans-Serif" font-size="10.00" fill="#000000">+ setY()</text>
<text text-anchor="start" x="585" y="-68" font-family="Helvetica,sans-Serif" font-size="10.00" fill="#000000">+ setSize()</text>
<text text-anchor="start" x="585" y="-57" font-family="Helvetica,sans-Serif" font-size="10.00" fill="#000000">+ setColor()</text>
</a>
</g>
</g>
<!-- Node2 -->
<g id="node2" class="node">
<title>Node2</title>
<g id="a_node2"><a xlink:href="../../d8/d43/classDisplayElement.html" target="_top" xlink:title="An interface for elements that draw to a display.">
<polygon fill="#ffffff" stroke="#000000" points="368,-435.5 368,-547.5 475,-547.5 475,-435.5 368,-435.5"/>
<text text-anchor="middle" x="421.5" y="-535.5" font-family="Helvetica,sans-Serif" font-size="10.00" fill="#000000">DisplayElement</text>
<polyline fill="none" stroke="#000000" points="368,-528.5 475,-528.5 "/>
<text text-anchor="middle" x="421.5" y="-516.5" font-family="Helvetica,sans-Serif" font-size="10.00" fill="#000000"> </text>
<polyline fill="none" stroke="#000000" points="368,-509.5 475,-509.5 "/>
<text text-anchor="start" x="376" y="-497.5" font-family="Helvetica,sans-Serif" font-size="10.00" fill="#000000">+ ~DisplayElement()</text>
<text text-anchor="start" x="376" y="-486.5" font-family="Helvetica,sans-Serif" font-size="10.00" fill="#000000">+ draw()</text>
<text text-anchor="start" x="376" y="-475.5" font-family="Helvetica,sans-Serif" font-size="10.00" fill="#000000">+ getDisplay()</text>
<text text-anchor="start" x="376" y="-464.5" font-family="Helvetica,sans-Serif" font-size="10.00" fill="#000000">+ getDisplay()</text>
<text text-anchor="start" x="376" y="-453.5" font-family="Helvetica,sans-Serif" font-size="10.00" fill="#000000">+ getAll()</text>
<text text-anchor="start" x="376" y="-442.5" font-family="Helvetica,sans-Serif" font-size="10.00" fill="#000000"># DisplayElement()</text>
</a>
</g>
</g>
<!-- Node2&#45;&gt;Node1 -->
<g id="edge1" class="edge">
<title>Node2&#45;&gt;Node1</title>
<path fill="none" stroke="#191970" d="M470.143,-427.2165C498.7749,-388.1755 534.8674,-336.8019 563.5,-289 572.9599,-273.2068 582.3579,-256.0357 591.1063,-239.2257"/>
<polygon fill="none" stroke="#191970" points="467.2619,-425.2264 464.1518,-435.3545 472.899,-429.3765 467.2619,-425.2264"/>
</g>
<!-- Node3 -->
<g id="node3" class="node">
<title>Node3</title>
<g id="a_node3"><a xlink:href="../../d4/d23/classDoublyLinkable.html" target="_top" xlink:title=" ">
<polygon fill="#ffffff" stroke="#000000" points="232.5,-116 232.5,-173 402.5,-173 402.5,-116 232.5,-116"/>
<text text-anchor="middle" x="317.5" y="-161" font-family="Helvetica,sans-Serif" font-size="10.00" fill="#000000">DoublyLinkable&lt; DisplayElement &gt;</text>
<polyline fill="none" stroke="#000000" points="232.5,-154 402.5,-154 "/>
<text text-anchor="middle" x="317.5" y="-142" font-family="Helvetica,sans-Serif" font-size="10.00" fill="#000000"> </text>
<polyline fill="none" stroke="#000000" points="232.5,-135 402.5,-135 "/>
<text text-anchor="start" x="240.5" y="-123" font-family="Helvetica,sans-Serif" font-size="10.00" fill="#000000"># ~DoublyLinkable()</text>
</a>
</g>
</g>
<!-- Node2&#45;&gt;Node3 -->
<g id="edge3" class="edge">
<title>Node2&#45;&gt;Node3</title>
<path fill="none" stroke="#404040" d="M389.7562,-435.29C373.8954,-408.137 353.9702,-375.3685 334.5,-347 328.7649,-338.6439 323.867,-338.5593 320.5,-329 303.9103,-281.8996 306.4113,-223.7528 310.9051,-185.4749"/>
<polygon fill="none" stroke="#404040" points="310.9405,-185.2008 307.7438,-178.737 312.4808,-173.3 315.6776,-179.7638 310.9405,-185.2008"/>
<text text-anchor="middle" x="342" y="-321" font-family="Helvetica,sans-Serif" font-size="10.00" fill="#000000"> #next</text>
<text text-anchor="middle" x="342" y="-310" font-family="Helvetica,sans-Serif" font-size="10.00" fill="#000000">#previous</text>
</g>
<!-- Node4 -->
<g id="node4" class="node">
<title>Node4</title>
<g id="a_node4"><a xlink:href="../../dd/d16/classDoublyLinkedList.html" target="_top" xlink:title=" ">
<polygon fill="#ffffff" stroke="#000000" points="420.5,-.5 420.5,-288.5 554.5,-288.5 554.5,-.5 420.5,-.5"/>
<text text-anchor="start" x="428.5" y="-276.5" font-family="Helvetica,sans-Serif" font-size="10.00" fill="#000000">DoublyLinkedList&lt; Display</text>
<text text-anchor="middle" x="487.5" y="-265.5" font-family="Helvetica,sans-Serif" font-size="10.00" fill="#000000">Element &gt;</text>
<polyline fill="none" stroke="#000000" points="420.5,-258.5 554.5,-258.5 "/>
<text text-anchor="middle" x="487.5" y="-246.5" font-family="Helvetica,sans-Serif" font-size="10.00" fill="#000000"> </text>
<polyline fill="none" stroke="#000000" points="420.5,-239.5 554.5,-239.5 "/>
<text text-anchor="start" x="428.5" y="-227.5" font-family="Helvetica,sans-Serif" font-size="10.00" fill="#000000">+ append()</text>
<text text-anchor="start" x="428.5" y="-216.5" font-family="Helvetica,sans-Serif" font-size="10.00" fill="#000000">+ append()</text>
<text text-anchor="start" x="428.5" y="-205.5" font-family="Helvetica,sans-Serif" font-size="10.00" fill="#000000">+ insertBefore()</text>
<text text-anchor="start" x="428.5" y="-194.5" font-family="Helvetica,sans-Serif" font-size="10.00" fill="#000000">+ insertBefore()</text>
<text text-anchor="start" x="428.5" y="-183.5" font-family="Helvetica,sans-Serif" font-size="10.00" fill="#000000">+ insertSorted()</text>
<text text-anchor="start" x="428.5" y="-172.5" font-family="Helvetica,sans-Serif" font-size="10.00" fill="#000000">+ insertSorted()</text>
<text text-anchor="start" x="428.5" y="-161.5" font-family="Helvetica,sans-Serif" font-size="10.00" fill="#000000">+ remove()</text>
<text text-anchor="start" x="428.5" y="-150.5" font-family="Helvetica,sans-Serif" font-size="10.00" fill="#000000">+ remove()</text>
<text text-anchor="start" x="428.5" y="-139.5" font-family="Helvetica,sans-Serif" font-size="10.00" fill="#000000">+ moveDown()</text>
<text text-anchor="start" x="428.5" y="-128.5" font-family="Helvetica,sans-Serif" font-size="10.00" fill="#000000">+ couldContain()</text>
<text text-anchor="start" x="428.5" y="-117.5" font-family="Helvetica,sans-Serif" font-size="10.00" fill="#000000">+ couldContain()</text>
<text text-anchor="start" x="428.5" y="-106.5" font-family="Helvetica,sans-Serif" font-size="10.00" fill="#000000">+ begin()</text>
<text text-anchor="start" x="428.5" y="-95.5" font-family="Helvetica,sans-Serif" font-size="10.00" fill="#000000">+ begin()</text>
<text text-anchor="start" x="428.5" y="-84.5" font-family="Helvetica,sans-Serif" font-size="10.00" fill="#000000">+ end()</text>
<text text-anchor="start" x="428.5" y="-73.5" font-family="Helvetica,sans-Serif" font-size="10.00" fill="#000000">+ end()</text>
<text text-anchor="start" x="428.5" y="-62.5" font-family="Helvetica,sans-Serif" font-size="10.00" fill="#000000">+ rbegin()</text>
<text text-anchor="start" x="428.5" y="-51.5" font-family="Helvetica,sans-Serif" font-size="10.00" fill="#000000">+ rbegin()</text>
<text text-anchor="start" x="428.5" y="-40.5" font-family="Helvetica,sans-Serif" font-size="10.00" fill="#000000">+ rend()</text>
<text text-anchor="start" x="428.5" y="-29.5" font-family="Helvetica,sans-Serif" font-size="10.00" fill="#000000">+ rend()</text>
<text text-anchor="start" x="428.5" y="-18.5" font-family="Helvetica,sans-Serif" font-size="10.00" fill="#000000">+ getFirst()</text>
<text text-anchor="start" x="428.5" y="-7.5" font-family="Helvetica,sans-Serif" font-size="10.00" fill="#000000">+ getLast()</text>
</a>
</g>
</g>
<!-- Node2&#45;&gt;Node4 -->
<g id="edge5" class="edge">
<title>Node2&#45;&gt;Node4</title>
<path fill="none" stroke="#404040" d="M418.6894,-435.2676C417.9826,-398.4467 419.1971,-349.4609 427.5,-307 427.9252,-304.8256 428.3756,-302.6418 428.8494,-300.4509"/>
<polygon fill="none" stroke="#404040" points="428.8691,-300.3661 426.3374,-293.614 431.5963,-288.6801 434.1281,-295.4321 428.8691,-300.3661"/>
<text text-anchor="middle" x="438.5" y="-321" font-family="Helvetica,sans-Serif" font-size="10.00" fill="#000000"> &#45;last</text>
<text text-anchor="middle" x="438.5" y="-310" font-family="Helvetica,sans-Serif" font-size="10.00" fill="#000000">&#45;first</text>
</g>
<!-- Node3&#45;&gt;Node2 -->
<g id="edge2" class="edge">
<title>Node3&#45;&gt;Node2</title>
<path fill="none" stroke="#191970" d="M329.4817,-182.9102C339.7051,-215.8093 354.7337,-264.47 367.5,-307 380.4057,-349.9942 394.6562,-398.7394 405.276,-435.3247"/>
<polygon fill="none" stroke="#191970" points="332.783,-181.7396 326.471,-173.2303 326.0989,-183.8186 332.783,-181.7396"/>
</g>
<!-- Node4&#45;&gt;Node2 -->
<g id="edge4" class="edge">
<title>Node4&#45;&gt;Node2</title>
<path fill="none" stroke="#404040" d="M460.1048,-288.5325C451.2098,-335.2985 441.7551,-385.0071 434.4288,-423.526"/>
<polygon fill="none" stroke="#404040" points="434.4197,-423.5741 437.2281,-430.2159 432.1774,-435.3628 429.369,-428.721 434.4197,-423.5741"/>
<text text-anchor="middle" x="481" y="-315.5" font-family="Helvetica,sans-Serif" font-size="10.00" fill="#000000"> #elements</text>
</g>
<!-- Node5 -->
<g id="node5" class="node">
<title>Node5</title>
<g id="a_node5"><a xlink:href="../../df/d42/classDisplayInterface.html" target="_top" xlink:title="An interface for displays.">
<polygon fill="#ffffff" stroke="#000000" points="102,-694.5 102,-993.5 247,-993.5 247,-694.5 102,-694.5"/>
<text text-anchor="middle" x="174.5" y="-981.5" font-family="Helvetica,sans-Serif" font-size="10.00" fill="#000000">DisplayInterface</text>
<polyline fill="none" stroke="#000000" points="102,-974.5 247,-974.5 "/>
<text text-anchor="middle" x="174.5" y="-962.5" font-family="Helvetica,sans-Serif" font-size="10.00" fill="#000000"> </text>
<polyline fill="none" stroke="#000000" points="102,-955.5 247,-955.5 "/>
<text text-anchor="start" x="110" y="-943.5" font-family="Helvetica,sans-Serif" font-size="10.00" fill="#000000">+ ~DisplayInterface()</text>
<text text-anchor="start" x="110" y="-932.5" font-family="Helvetica,sans-Serif" font-size="10.00" fill="#000000">+ begin()</text>
<text text-anchor="start" x="110" y="-921.5" font-family="Helvetica,sans-Serif" font-size="10.00" fill="#000000">+ clear()</text>
<text text-anchor="start" x="110" y="-910.5" font-family="Helvetica,sans-Serif" font-size="10.00" fill="#000000">+ drawBackground()</text>
<text text-anchor="start" x="110" y="-899.5" font-family="Helvetica,sans-Serif" font-size="10.00" fill="#000000">+ display()</text>
<text text-anchor="start" x="110" y="-888.5" font-family="Helvetica,sans-Serif" font-size="10.00" fill="#000000">+ drawPixel()</text>
<text text-anchor="start" x="110" y="-877.5" font-family="Helvetica,sans-Serif" font-size="10.00" fill="#000000">+ setTextColor()</text>
<text text-anchor="start" x="110" y="-866.5" font-family="Helvetica,sans-Serif" font-size="10.00" fill="#000000">+ setTextSize()</text>
<text text-anchor="start" x="110" y="-855.5" font-family="Helvetica,sans-Serif" font-size="10.00" fill="#000000">+ setCursor()</text>
<text text-anchor="start" x="110" y="-844.5" font-family="Helvetica,sans-Serif" font-size="10.00" fill="#000000">+ write()</text>
<text text-anchor="start" x="110" y="-833.5" font-family="Helvetica,sans-Serif" font-size="10.00" fill="#000000">+ drawLine()</text>
<text text-anchor="start" x="110" y="-822.5" font-family="Helvetica,sans-Serif" font-size="10.00" fill="#000000">+ drawFastVLine()</text>
<text text-anchor="start" x="110" y="-811.5" font-family="Helvetica,sans-Serif" font-size="10.00" fill="#000000">+ drawFastHLine()</text>
<text text-anchor="start" x="110" y="-800.5" font-family="Helvetica,sans-Serif" font-size="10.00" fill="#000000">+ drawXBitmap()</text>
<text text-anchor="start" x="110" y="-789.5" font-family="Helvetica,sans-Serif" font-size="10.00" fill="#000000">+ fillRect()</text>
<text text-anchor="start" x="110" y="-778.5" font-family="Helvetica,sans-Serif" font-size="10.00" fill="#000000">+ drawCircle()</text>
<text text-anchor="start" x="110" y="-767.5" font-family="Helvetica,sans-Serif" font-size="10.00" fill="#000000">+ fillCircle()</text>
<text text-anchor="start" x="110" y="-756.5" font-family="Helvetica,sans-Serif" font-size="10.00" fill="#000000">+ enable()</text>
<text text-anchor="start" x="110" y="-745.5" font-family="Helvetica,sans-Serif" font-size="10.00" fill="#000000">+ disable()</text>
<text text-anchor="start" x="110" y="-734.5" font-family="Helvetica,sans-Serif" font-size="10.00" fill="#000000">+ isEnabled()</text>
<text text-anchor="start" x="110" y="-723.5" font-family="Helvetica,sans-Serif" font-size="10.00" fill="#000000">+ clearAndDrawBackground()</text>
<text text-anchor="start" x="110" y="-712.5" font-family="Helvetica,sans-Serif" font-size="10.00" fill="#000000">+ beginAll()</text>
<text text-anchor="start" x="110" y="-701.5" font-family="Helvetica,sans-Serif" font-size="10.00" fill="#000000"># DisplayInterface()</text>
</a>
</g>
</g>
<!-- Node5&#45;&gt;Node2 -->
<g id="edge6" class="edge">
<title>Node5&#45;&gt;Node2</title>
<path fill="none" stroke="#404040" d="M247.0836,-705.4912C250.1462,-701.5368 253.2863,-697.695 256.5,-694 284.8505,-661.4037 305.4767,-667.9987 334.5,-636 355.3289,-613.0358 373.81,-584.3506 388.3226,-558.6044"/>
<polygon fill="none" stroke="#404040" points="388.4996,-558.2835 387.8944,-551.0978 394.2946,-547.7755 394.8998,-554.9612 388.4996,-558.2835"/>
<text text-anchor="middle" x="333.5" y="-662.5" font-family="Helvetica,sans-Serif" font-size="10.00" fill="#000000"> #display</text>
</g>
<!-- Node7 -->
<g id="node7" class="node">
<title>Node7</title>
<g id="a_node7"><a xlink:href="../../d4/d23/classDoublyLinkable.html" target="_top" xlink:title=" ">
<polygon fill="#ffffff" stroke="#000000" points="0,-463 0,-520 173,-520 173,-463 0,-463"/>
<text text-anchor="middle" x="86.5" y="-508" font-family="Helvetica,sans-Serif" font-size="10.00" fill="#000000">DoublyLinkable&lt; DisplayInterface &gt;</text>
<polyline fill="none" stroke="#000000" points="0,-501 173,-501 "/>
<text text-anchor="middle" x="86.5" y="-489" font-family="Helvetica,sans-Serif" font-size="10.00" fill="#000000"> </text>
<polyline fill="none" stroke="#000000" points="0,-482 173,-482 "/>
<text text-anchor="start" x="8" y="-470" font-family="Helvetica,sans-Serif" font-size="10.00" fill="#000000"># ~DoublyLinkable()</text>
</a>
</g>
</g>
<!-- Node5&#45;&gt;Node7 -->
<g id="edge9" class="edge">
<title>Node5&#45;&gt;Node7</title>
<path fill="none" stroke="#404040" d="M101.9624,-714.6045C96.9757,-701.8416 92.6767,-688.8516 89.5,-676 77.5516,-627.6622 79.0062,-570.0089 81.9931,-532.1705"/>
<polygon fill="none" stroke="#404040" points="81.9997,-532.0942 78.539,-525.7678 83.0477,-520.1401 86.5084,-526.4665 81.9997,-532.0942"/>
<text text-anchor="middle" x="111" y="-668" font-family="Helvetica,sans-Serif" font-size="10.00" fill="#000000"> #next</text>
<text text-anchor="middle" x="111" y="-657" font-family="Helvetica,sans-Serif" font-size="10.00" fill="#000000">#previous</text>
</g>
<!-- Node8 -->
<g id="node8" class="node">
<title>Node8</title>
<g id="a_node8"><a xlink:href="../../dd/d16/classDoublyLinkedList.html" target="_top" xlink:title=" ">
<polygon fill="#ffffff" stroke="#000000" points="191.5,-347.5 191.5,-635.5 325.5,-635.5 325.5,-347.5 191.5,-347.5"/>
<text text-anchor="start" x="199.5" y="-623.5" font-family="Helvetica,sans-Serif" font-size="10.00" fill="#000000">DoublyLinkedList&lt; Display</text>
<text text-anchor="middle" x="258.5" y="-612.5" font-family="Helvetica,sans-Serif" font-size="10.00" fill="#000000">Interface &gt;</text>
<polyline fill="none" stroke="#000000" points="191.5,-605.5 325.5,-605.5 "/>
<text text-anchor="middle" x="258.5" y="-593.5" font-family="Helvetica,sans-Serif" font-size="10.00" fill="#000000"> </text>
<polyline fill="none" stroke="#000000" points="191.5,-586.5 325.5,-586.5 "/>
<text text-anchor="start" x="199.5" y="-574.5" font-family="Helvetica,sans-Serif" font-size="10.00" fill="#000000">+ append()</text>
<text text-anchor="start" x="199.5" y="-563.5" font-family="Helvetica,sans-Serif" font-size="10.00" fill="#000000">+ append()</text>
<text text-anchor="start" x="199.5" y="-552.5" font-family="Helvetica,sans-Serif" font-size="10.00" fill="#000000">+ insertBefore()</text>
<text text-anchor="start" x="199.5" y="-541.5" font-family="Helvetica,sans-Serif" font-size="10.00" fill="#000000">+ insertBefore()</text>
<text text-anchor="start" x="199.5" y="-530.5" font-family="Helvetica,sans-Serif" font-size="10.00" fill="#000000">+ insertSorted()</text>
<text text-anchor="start" x="199.5" y="-519.5" font-family="Helvetica,sans-Serif" font-size="10.00" fill="#000000">+ insertSorted()</text>
<text text-anchor="start" x="199.5" y="-508.5" font-family="Helvetica,sans-Serif" font-size="10.00" fill="#000000">+ remove()</text>
<text text-anchor="start" x="199.5" y="-497.5" font-family="Helvetica,sans-Serif" font-size="10.00" fill="#000000">+ remove()</text>
<text text-anchor="start" x="199.5" y="-486.5" font-family="Helvetica,sans-Serif" font-size="10.00" fill="#000000">+ moveDown()</text>
<text text-anchor="start" x="199.5" y="-475.5" font-family="Helvetica,sans-Serif" font-size="10.00" fill="#000000">+ couldContain()</text>
<text text-anchor="start" x="199.5" y="-464.5" font-family="Helvetica,sans-Serif" font-size="10.00" fill="#000000">+ couldContain()</text>
<text text-anchor="start" x="199.5" y="-453.5" font-family="Helvetica,sans-Serif" font-size="10.00" fill="#000000">+ begin()</text>
<text text-anchor="start" x="199.5" y="-442.5" font-family="Helvetica,sans-Serif" font-size="10.00" fill="#000000">+ begin()</text>
<text text-anchor="start" x="199.5" y="-431.5" font-family="Helvetica,sans-Serif" font-size="10.00" fill="#000000">+ end()</text>
<text text-anchor="start" x="199.5" y="-420.5" font-family="Helvetica,sans-Serif" font-size="10.00" fill="#000000">+ end()</text>
<text text-anchor="start" x="199.5" y="-409.5" font-family="Helvetica,sans-Serif" font-size="10.00" fill="#000000">+ rbegin()</text>
<text text-anchor="start" x="199.5" y="-398.5" font-family="Helvetica,sans-Serif" font-size="10.00" fill="#000000">+ rbegin()</text>
<text text-anchor="start" x="199.5" y="-387.5" font-family="Helvetica,sans-Serif" font-size="10.00" fill="#000000">+ rend()</text>
<text text-anchor="start" x="199.5" y="-376.5" font-family="Helvetica,sans-Serif" font-size="10.00" fill="#000000">+ rend()</text>
<text text-anchor="start" x="199.5" y="-365.5" font-family="Helvetica,sans-Serif" font-size="10.00" fill="#000000">+ getFirst()</text>
<text text-anchor="start" x="199.5" y="-354.5" font-family="Helvetica,sans-Serif" font-size="10.00" fill="#000000">+ getLast()</text>
</a>
</g>
</g>
<!-- Node5&#45;&gt;Node8 -->
<g id="edge11" class="edge">
<title>Node5&#45;&gt;Node8</title>
<path fill="none" stroke="#404040" d="M184.5064,-694.4703C186.6764,-680.6996 189.3086,-667.0342 192.5,-654 193.0335,-651.8211 193.591,-649.633 194.1706,-647.438"/>
<polygon fill="none" stroke="#404040" points="194.2361,-647.2037 192.0016,-640.3475 197.4709,-635.6479 199.7054,-642.5041 194.2361,-647.2037"/>
<text text-anchor="middle" x="203.5" y="-668" font-family="Helvetica,sans-Serif" font-size="10.00" fill="#000000"> &#45;last</text>
<text text-anchor="middle" x="203.5" y="-657" font-family="Helvetica,sans-Serif" font-size="10.00" fill="#000000">&#45;first</text>
</g>
<!-- Node6 -->
<g id="node6" class="node">
<title>Node6</title>
<g id="a_node6"><a xlink:title=" ">
<polygon fill="#ffffff" stroke="#bfbfbf" points="156,-1085.5 156,-1142.5 193,-1142.5 193,-1085.5 156,-1085.5"/>
<text text-anchor="middle" x="174.5" y="-1130.5" font-family="Helvetica,sans-Serif" font-size="10.00" fill="#000000">Print</text>
<polyline fill="none" stroke="#bfbfbf" points="156,-1123.5 193,-1123.5 "/>
<text text-anchor="middle" x="174.5" y="-1111.5" font-family="Helvetica,sans-Serif" font-size="10.00" fill="#000000"> </text>
<polyline fill="none" stroke="#bfbfbf" points="156,-1104.5 193,-1104.5 "/>
<text text-anchor="middle" x="174.5" y="-1092.5" font-family="Helvetica,sans-Serif" font-size="10.00" fill="#000000"> </text>
</a>
</g>
</g>
<!-- Node6&#45;&gt;Node5 -->
<g id="edge7" class="edge">
<title>Node6&#45;&gt;Node5</title>
<path fill="none" stroke="#191970" d="M174.5,-1075.1148C174.5,-1053.0208 174.5,-1023.7919 174.5,-993.5776"/>
<polygon fill="none" stroke="#191970" points="171.0001,-1075.3609 174.5,-1085.3609 178.0001,-1075.3609 171.0001,-1075.3609"/>
</g>
<!-- Node7&#45;&gt;Node5 -->
<g id="edge8" class="edge">
<title>Node7&#45;&gt;Node5</title>
<path fill="none" stroke="#191970" d="M99.4349,-529.6466C110.2463,-562.3832 125.6024,-610.9532 136.5,-654 139.8022,-667.0442 143.0003,-680.6508 146.046,-694.3256"/>
<polygon fill="none" stroke="#191970" points="102.7106,-528.4049 96.2356,-520.0189 96.0677,-530.6124 102.7106,-528.4049"/>
</g>
<!-- Node8&#45;&gt;Node5 -->
<g id="edge10" class="edge">
<title>Node8&#45;&gt;Node5</title>
<path fill="none" stroke="#404040" d="M227.8654,-635.6642C224.7778,-649.3156 221.6266,-662.9309 218.5,-676 217.9832,-678.1603 217.4597,-680.3353 216.9303,-682.5226"/>
<polygon fill="none" stroke="#404040" points="216.896,-682.6633 219.3575,-689.4413 214.0477,-694.3204 211.5861,-687.5425 216.896,-682.6633"/>
<text text-anchor="middle" x="246.5" y="-662.5" font-family="Helvetica,sans-Serif" font-size="10.00" fill="#000000"> &#45;elements</text>
</g>
<!-- Node9 -->
<g id="node9" class="node">
<title>Node9</title>
<g id="a_node9"><a xlink:href="../../df/d69/classMCU_1_1TimeDisplay.html" target="_top" xlink:title=" ">
<polygon fill="#ffffff" stroke="#000000" points="602.5,-441 602.5,-542 688.5,-542 688.5,-441 602.5,-441"/>
<text text-anchor="middle" x="645.5" y="-530" font-family="Helvetica,sans-Serif" font-size="10.00" fill="#000000">TimeDisplay</text>
<polyline fill="none" stroke="#000000" points="602.5,-523 688.5,-523 "/>
<text text-anchor="middle" x="645.5" y="-511" font-family="Helvetica,sans-Serif" font-size="10.00" fill="#000000"> </text>
<polyline fill="none" stroke="#000000" points="602.5,-504 688.5,-504 "/>
<text text-anchor="start" x="610.5" y="-492" font-family="Helvetica,sans-Serif" font-size="10.00" fill="#000000">+ TimeDisplay()</text>
<text text-anchor="start" x="610.5" y="-481" font-family="Helvetica,sans-Serif" font-size="10.00" fill="#000000">+ print()</text>
<text text-anchor="start" x="610.5" y="-470" font-family="Helvetica,sans-Serif" font-size="10.00" fill="#000000">+ getBars()</text>
<text text-anchor="start" x="610.5" y="-459" font-family="Helvetica,sans-Serif" font-size="10.00" fill="#000000">+ getBeats()</text>
<text text-anchor="start" x="610.5" y="-448" font-family="Helvetica,sans-Serif" font-size="10.00" fill="#000000">+ getFrames()</text>
</a>
</g>
</g>
<!-- Node9&#45;&gt;Node1 -->
<g id="edge12" class="edge">
<title>Node9&#45;&gt;Node1</title>
<path fill="none" stroke="#404040" d="M644.1817,-440.6716C642.8951,-391.0653 640.898,-314.0671 639.2626,-251.0136"/>
<polygon fill="none" stroke="#404040" points="639.2624,-251.0032 635.1082,-245.109 638.9512,-239.0072 643.1055,-244.9015 639.2624,-251.0032"/>
<text text-anchor="middle" x="669.5" y="-315.5" font-family="Helvetica,sans-Serif" font-size="10.00" fill="#000000"> &#45;timedisplay</text>
</g>
<!-- Node10 -->
<g id="node10" class="node">
<title>Node10</title>
<g id="a_node10"><a xlink:href="../../d5/d54/classMCU_1_1SevenSegmentDisplay.html" target="_top" xlink:title=" ">
<polygon fill="#ffffff" stroke="#000000" points="582,-755 582,-933 713,-933 713,-755 582,-755"/>
<text text-anchor="start" x="590" y="-921" font-family="Helvetica,sans-Serif" font-size="10.00" fill="#000000">SevenSegmentDisplay</text>
<text text-anchor="middle" x="647.5" y="-910" font-family="Helvetica,sans-Serif" font-size="10.00" fill="#000000">&lt; TimeDisplayLength &gt;</text>
<polyline fill="none" stroke="#000000" points="582,-903 713,-903 "/>
<text text-anchor="start" x="590" y="-891" font-family="Helvetica,sans-Serif" font-size="10.00" fill="#000000">&#45; text</text>
<polyline fill="none" stroke="#000000" points="582,-884 713,-884 "/>
<text text-anchor="start" x="590" y="-872" font-family="Helvetica,sans-Serif" font-size="10.00" fill="#000000">+ SevenSegmentDisplay()</text>
<text text-anchor="start" x="590" y="-861" font-family="Helvetica,sans-Serif" font-size="10.00" fill="#000000">+ fillWithSpaces()</text>
<text text-anchor="start" x="590" y="-850" font-family="Helvetica,sans-Serif" font-size="10.00" fill="#000000">+ reset()</text>
<text text-anchor="start" x="590" y="-839" font-family="Helvetica,sans-Serif" font-size="10.00" fill="#000000">+ getText()</text>
<text text-anchor="start" x="590" y="-828" font-family="Helvetica,sans-Serif" font-size="10.00" fill="#000000">+ getCharacterAt()</text>
<text text-anchor="start" x="590" y="-817" font-family="Helvetica,sans-Serif" font-size="10.00" fill="#000000">+ getDecimalPoints()</text>
<text text-anchor="start" x="590" y="-806" font-family="Helvetica,sans-Serif" font-size="10.00" fill="#000000">+ getDecimalPointAt()</text>
<text text-anchor="start" x="590" y="-795" font-family="Helvetica,sans-Serif" font-size="10.00" fill="#000000">+ printTo()</text>
<text text-anchor="start" x="590" y="-784" font-family="Helvetica,sans-Serif" font-size="10.00" fill="#000000">&#45; updateImpl()</text>
<text text-anchor="start" x="590" y="-773" font-family="Helvetica,sans-Serif" font-size="10.00" fill="#000000">&#45; match()</text>
<text text-anchor="start" x="590" y="-762" font-family="Helvetica,sans-Serif" font-size="10.00" fill="#000000">&#45; getRangeIndex()</text>
</a>
</g>
</g>
<!-- Node10&#45;&gt;Node9 -->
<g id="edge13" class="edge">
<title>Node10&#45;&gt;Node9</title>
<path fill="none" stroke="#191970" d="M646.9359,-744.5794C646.5615,-678.5931 646.0858,-594.743 645.787,-542.0823"/>
<polygon fill="none" stroke="#191970" points="643.436,-744.6137 646.9927,-754.5937 650.4358,-744.5739 643.436,-744.6137"/>
</g>
<!-- Node11 -->
<g id="node11" class="node">
<title>Node11</title>
<g id="a_node11"><a xlink:href="../../d3/d96/classMIDIInputElementCC.html" target="_top" xlink:title="Class for objects that listen for incoming MIDI Controller Change events.">
<polygon fill="#ffffff" stroke="#000000" points="396.5,-1052.5 396.5,-1175.5 528.5,-1175.5 528.5,-1052.5 396.5,-1052.5"/>
<text text-anchor="middle" x="462.5" y="-1163.5" font-family="Helvetica,sans-Serif" font-size="10.00" fill="#000000">MIDIInputElementCC</text>
<polyline fill="none" stroke="#000000" points="396.5,-1156.5 528.5,-1156.5 "/>
<text text-anchor="middle" x="462.5" y="-1144.5" font-family="Helvetica,sans-Serif" font-size="10.00" fill="#000000"> </text>
<polyline fill="none" stroke="#000000" points="396.5,-1137.5 528.5,-1137.5 "/>
<text text-anchor="start" x="404.5" y="-1125.5" font-family="Helvetica,sans-Serif" font-size="10.00" fill="#000000">+ MIDIInputElementCC()</text>
<text text-anchor="start" x="404.5" y="-1114.5" font-family="Helvetica,sans-Serif" font-size="10.00" fill="#000000">+ ~MIDIInputElementCC()</text>
<text text-anchor="start" x="404.5" y="-1103.5" font-family="Helvetica,sans-Serif" font-size="10.00" fill="#000000">+ beginAll()</text>
<text text-anchor="start" x="404.5" y="-1092.5" font-family="Helvetica,sans-Serif" font-size="10.00" fill="#000000">+ updateAll()</text>
<text text-anchor="start" x="404.5" y="-1081.5" font-family="Helvetica,sans-Serif" font-size="10.00" fill="#000000">+ resetAll()</text>
<text text-anchor="start" x="404.5" y="-1070.5" font-family="Helvetica,sans-Serif" font-size="10.00" fill="#000000">+ updateAllWith()</text>
<text text-anchor="start" x="404.5" y="-1059.5" font-family="Helvetica,sans-Serif" font-size="10.00" fill="#000000">&#45; moveDown()</text>
</a>
</g>
</g>
<!-- Node11&#45;&gt;Node10 -->
<g id="edge14" class="edge">
<title>Node11&#45;&gt;Node10</title>
<path fill="none" stroke="#191970" d="M532.0678,-1044.6224C546.3206,-1028.6796 560.5891,-1011.306 572.5,-994 585.458,-975.1726 597.5212,-953.7874 608.02,-933.1834"/>
<polygon fill="none" stroke="#191970" points="529.2062,-1042.5679 525.0827,-1052.3274 534.3923,-1047.2695 529.2062,-1042.5679"/>
</g>
<!-- Node14 -->
<g id="node14" class="node">
<title>Node14</title>
<g id="a_node14"><a xlink:href="../../d4/d23/classDoublyLinkable.html" target="_top" xlink:title=" ">
<polygon fill="#ffffff" stroke="#000000" points="427.5,-810 427.5,-878 563.5,-878 563.5,-810 427.5,-810"/>
<text text-anchor="start" x="435.5" y="-866" font-family="Helvetica,sans-Serif" font-size="10.00" fill="#000000">DoublyLinkable&lt; MIDIInput</text>
<text text-anchor="middle" x="495.5" y="-855" font-family="Helvetica,sans-Serif" font-size="10.00" fill="#000000">ElementCC &gt;</text>
<polyline fill="none" stroke="#000000" points="427.5,-848 563.5,-848 "/>
<text text-anchor="middle" x="495.5" y="-836" font-family="Helvetica,sans-Serif" font-size="10.00" fill="#000000"> </text>
<polyline fill="none" stroke="#000000" points="427.5,-829 563.5,-829 "/>
<text text-anchor="start" x="435.5" y="-817" font-family="Helvetica,sans-Serif" font-size="10.00" fill="#000000"># ~DoublyLinkable()</text>
</a>
</g>
</g>
<!-- Node11&#45;&gt;Node14 -->
<g id="edge18" class="edge">
<title>Node11&#45;&gt;Node14</title>
<path fill="none" stroke="#404040" d="M471.1004,-1052.4338C471.9294,-1046.2093 472.7427,-1039.9807 473.5,-1034 479.7163,-984.9095 486.15,-928.5919 490.4416,-890.094"/>
<polygon fill="none" stroke="#404040" points="490.4595,-889.9319 487.1463,-883.527 491.7841,-878.0052 495.0974,-884.4101 490.4595,-889.9319"/>
<text text-anchor="middle" x="498" y="-1026" font-family="Helvetica,sans-Serif" font-size="10.00" fill="#000000"> #next</text>
<text text-anchor="middle" x="498" y="-1015" font-family="Helvetica,sans-Serif" font-size="10.00" fill="#000000">#previous</text>
</g>
<!-- Node15 -->
<g id="node15" class="node">
<title>Node15</title>
<g id="a_node15"><a xlink:href="../../dd/d16/classDoublyLinkedList.html" target="_top" xlink:title=" ">
<polygon fill="#ffffff" stroke="#000000" points="265.5,-700 265.5,-988 409.5,-988 409.5,-700 265.5,-700"/>
<text text-anchor="start" x="273.5" y="-976" font-family="Helvetica,sans-Serif" font-size="10.00" fill="#000000">DoublyLinkedList&lt; MIDIInput</text>
<text text-anchor="middle" x="337.5" y="-965" font-family="Helvetica,sans-Serif" font-size="10.00" fill="#000000">ElementCC &gt;</text>
<polyline fill="none" stroke="#000000" points="265.5,-958 409.5,-958 "/>
<text text-anchor="middle" x="337.5" y="-946" font-family="Helvetica,sans-Serif" font-size="10.00" fill="#000000"> </text>
<polyline fill="none" stroke="#000000" points="265.5,-939 409.5,-939 "/>
<text text-anchor="start" x="273.5" y="-927" font-family="Helvetica,sans-Serif" font-size="10.00" fill="#000000">+ append()</text>
<text text-anchor="start" x="273.5" y="-916" font-family="Helvetica,sans-Serif" font-size="10.00" fill="#000000">+ append()</text>
<text text-anchor="start" x="273.5" y="-905" font-family="Helvetica,sans-Serif" font-size="10.00" fill="#000000">+ insertBefore()</text>
<text text-anchor="start" x="273.5" y="-894" font-family="Helvetica,sans-Serif" font-size="10.00" fill="#000000">+ insertBefore()</text>
<text text-anchor="start" x="273.5" y="-883" font-family="Helvetica,sans-Serif" font-size="10.00" fill="#000000">+ insertSorted()</text>
<text text-anchor="start" x="273.5" y="-872" font-family="Helvetica,sans-Serif" font-size="10.00" fill="#000000">+ insertSorted()</text>
<text text-anchor="start" x="273.5" y="-861" font-family="Helvetica,sans-Serif" font-size="10.00" fill="#000000">+ remove()</text>
<text text-anchor="start" x="273.5" y="-850" font-family="Helvetica,sans-Serif" font-size="10.00" fill="#000000">+ remove()</text>
<text text-anchor="start" x="273.5" y="-839" font-family="Helvetica,sans-Serif" font-size="10.00" fill="#000000">+ moveDown()</text>
<text text-anchor="start" x="273.5" y="-828" font-family="Helvetica,sans-Serif" font-size="10.00" fill="#000000">+ couldContain()</text>
<text text-anchor="start" x="273.5" y="-817" font-family="Helvetica,sans-Serif" font-size="10.00" fill="#000000">+ couldContain()</text>
<text text-anchor="start" x="273.5" y="-806" font-family="Helvetica,sans-Serif" font-size="10.00" fill="#000000">+ begin()</text>
<text text-anchor="start" x="273.5" y="-795" font-family="Helvetica,sans-Serif" font-size="10.00" fill="#000000">+ begin()</text>
<text text-anchor="start" x="273.5" y="-784" font-family="Helvetica,sans-Serif" font-size="10.00" fill="#000000">+ end()</text>
<text text-anchor="start" x="273.5" y="-773" font-family="Helvetica,sans-Serif" font-size="10.00" fill="#000000">+ end()</text>
<text text-anchor="start" x="273.5" y="-762" font-family="Helvetica,sans-Serif" font-size="10.00" fill="#000000">+ rbegin()</text>
<text text-anchor="start" x="273.5" y="-751" font-family="Helvetica,sans-Serif" font-size="10.00" fill="#000000">+ rbegin()</text>
<text text-anchor="start" x="273.5" y="-740" font-family="Helvetica,sans-Serif" font-size="10.00" fill="#000000">+ rend()</text>
<text text-anchor="start" x="273.5" y="-729" font-family="Helvetica,sans-Serif" font-size="10.00" fill="#000000">+ rend()</text>
<text text-anchor="start" x="273.5" y="-718" font-family="Helvetica,sans-Serif" font-size="10.00" fill="#000000">+ getFirst()</text>
<text text-anchor="start" x="273.5" y="-707" font-family="Helvetica,sans-Serif" font-size="10.00" fill="#000000">+ getLast()</text>
</a>
</g>
</g>
<!-- Node11&#45;&gt;Node15 -->
<g id="edge20" class="edge">
<title>Node11&#45;&gt;Node15</title>
<path fill="none" stroke="#404040" d="M400.4655,-1052.4579C396.0475,-1046.4827 391.9742,-1040.2943 388.5,-1034 382.4965,-1023.1234 377.1695,-1011.5017 372.4478,-999.5663"/>
<polygon fill="none" stroke="#404040" points="372.3362,-999.2699 366.4771,-995.0661 368.104,-988.0409 373.9631,-992.2447 372.3362,-999.2699"/>
<text text-anchor="middle" x="399.5" y="-1026" font-family="Helvetica,sans-Serif" font-size="10.00" fill="#000000"> &#45;last</text>
<text text-anchor="middle" x="399.5" y="-1015" font-family="Helvetica,sans-Serif" font-size="10.00" fill="#000000">&#45;first</text>
</g>
<!-- Node12 -->
<g id="node12" class="node">
<title>Node12</title>
<g id="a_node12"><a xlink:href="../../d9/db1/classMIDIInputElement.html" target="_top" xlink:title="A class for objects that listen for incoming MIDI events.">
<polygon fill="#ffffff" stroke="#000000" points="404,-1213.5 404,-1369.5 521,-1369.5 521,-1213.5 404,-1213.5"/>
<text text-anchor="middle" x="462.5" y="-1357.5" font-family="Helvetica,sans-Serif" font-size="10.00" fill="#000000">MIDIInputElement</text>
<polyline fill="none" stroke="#000000" points="404,-1350.5 521,-1350.5 "/>
<text text-anchor="middle" x="462.5" y="-1338.5" font-family="Helvetica,sans-Serif" font-size="10.00" fill="#000000"> </text>
<polyline fill="none" stroke="#000000" points="404,-1331.5 521,-1331.5 "/>
<text text-anchor="start" x="412" y="-1319.5" font-family="Helvetica,sans-Serif" font-size="10.00" fill="#000000">+ ~MIDIInputElement()</text>
<text text-anchor="start" x="412" y="-1308.5" font-family="Helvetica,sans-Serif" font-size="10.00" fill="#000000">+ begin()</text>
<text text-anchor="start" x="412" y="-1297.5" font-family="Helvetica,sans-Serif" font-size="10.00" fill="#000000">+ reset()</text>
<text text-anchor="start" x="412" y="-1286.5" font-family="Helvetica,sans-Serif" font-size="10.00" fill="#000000">+ update()</text>
<text text-anchor="start" x="412" y="-1275.5" font-family="Helvetica,sans-Serif" font-size="10.00" fill="#000000">+ updateWith()</text>
<text text-anchor="start" x="412" y="-1264.5" font-family="Helvetica,sans-Serif" font-size="10.00" fill="#000000"># MIDIInputElement()</text>
<text text-anchor="start" x="412" y="-1253.5" font-family="Helvetica,sans-Serif" font-size="10.00" fill="#000000"># MIDIInputElement()</text>
<text text-anchor="start" x="412" y="-1242.5" font-family="Helvetica,sans-Serif" font-size="10.00" fill="#000000">&#45; updateImpl()</text>
<text text-anchor="start" x="412" y="-1231.5" font-family="Helvetica,sans-Serif" font-size="10.00" fill="#000000">&#45; getTarget()</text>
<text text-anchor="start" x="412" y="-1220.5" font-family="Helvetica,sans-Serif" font-size="10.00" fill="#000000">&#45; match()</text>
</a>
</g>
</g>
<!-- Node12&#45;&gt;Node11 -->
<g id="edge15" class="edge">
<title>Node12&#45;&gt;Node11</title>
<path fill="none" stroke="#191970" d="M462.5,-1203.2654C462.5,-1193.9162 462.5,-1184.5594 462.5,-1175.61"/>
<polygon fill="none" stroke="#191970" points="459.0001,-1203.3876 462.5,-1213.3876 466.0001,-1203.3876 459.0001,-1203.3876"/>
</g>
<!-- Node13 -->
<g id="node13" class="node">
<title>Node13</title>
<g id="a_node13"><a xlink:href="../../d7/d0f/classMIDIAddress.html" target="_top" xlink:title="A type&#45;safe utility class for saving a MIDI address consisting of a 7&#45;bit address,...">
<polygon fill="#ffffff" stroke="#000000" points="398,-1417.5 398,-1683.5 527,-1683.5 527,-1417.5 398,-1417.5"/>
<text text-anchor="middle" x="462.5" y="-1671.5" font-family="Helvetica,sans-Serif" font-size="10.00" fill="#000000">MIDIAddress</text>
<polyline fill="none" stroke="#000000" points="398,-1664.5 527,-1664.5 "/>
<text text-anchor="start" x="406" y="-1652.5" font-family="Helvetica,sans-Serif" font-size="10.00" fill="#000000">&#45; addresses</text>
<polyline fill="none" stroke="#000000" points="398,-1645.5 527,-1645.5 "/>
<text text-anchor="start" x="406" y="-1633.5" font-family="Helvetica,sans-Serif" font-size="10.00" fill="#000000">* MIDIAddress()</text>
<text text-anchor="start" x="406" y="-1622.5" font-family="Helvetica,sans-Serif" font-size="10.00" fill="#000000">* MIDIAddress()</text>
<text text-anchor="start" x="406" y="-1611.5" font-family="Helvetica,sans-Serif" font-size="10.00" fill="#000000">* MIDIAddress()</text>
<text text-anchor="start" x="406" y="-1600.5" font-family="Helvetica,sans-Serif" font-size="10.00" fill="#000000">* MIDIAddress()</text>
<text text-anchor="start" x="406" y="-1589.5" font-family="Helvetica,sans-Serif" font-size="10.00" fill="#000000">* MIDIAddress()</text>
<text text-anchor="start" x="406" y="-1578.5" font-family="Helvetica,sans-Serif" font-size="10.00" fill="#000000">* invalid()</text>
<text text-anchor="start" x="406" y="-1567.5" font-family="Helvetica,sans-Serif" font-size="10.00" fill="#000000">* operator+=()</text>
<text text-anchor="start" x="406" y="-1556.5" font-family="Helvetica,sans-Serif" font-size="10.00" fill="#000000">* operator&#45;=()</text>
<text text-anchor="start" x="406" y="-1545.5" font-family="Helvetica,sans-Serif" font-size="10.00" fill="#000000">* operator+()</text>
<text text-anchor="start" x="406" y="-1534.5" font-family="Helvetica,sans-Serif" font-size="10.00" fill="#000000">* operator&#45;()</text>
<text text-anchor="start" x="406" y="-1523.5" font-family="Helvetica,sans-Serif" font-size="10.00" fill="#000000">* getAddress()</text>
<text text-anchor="start" x="406" y="-1512.5" font-family="Helvetica,sans-Serif" font-size="10.00" fill="#000000">* getChannel()</text>
<text text-anchor="start" x="406" y="-1501.5" font-family="Helvetica,sans-Serif" font-size="10.00" fill="#000000">* getRawChannel()</text>
<text text-anchor="start" x="406" y="-1490.5" font-family="Helvetica,sans-Serif" font-size="10.00" fill="#000000">* getCableNumber()</text>
<text text-anchor="start" x="406" y="-1479.5" font-family="Helvetica,sans-Serif" font-size="10.00" fill="#000000">* operator==()</text>
<text text-anchor="start" x="406" y="-1468.5" font-family="Helvetica,sans-Serif" font-size="10.00" fill="#000000">* operator!=()</text>
<text text-anchor="start" x="406" y="-1457.5" font-family="Helvetica,sans-Serif" font-size="10.00" fill="#000000">* isValid()</text>
<text text-anchor="start" x="406" y="-1446.5" font-family="Helvetica,sans-Serif" font-size="10.00" fill="#000000">* operator bool()</text>
<text text-anchor="start" x="406" y="-1435.5" font-family="Helvetica,sans-Serif" font-size="10.00" fill="#000000">* matchSingle()</text>
<text text-anchor="start" x="406" y="-1424.5" font-family="Helvetica,sans-Serif" font-size="10.00" fill="#000000">* matchAddressInRange()</text>
</a>
</g>
</g>
<!-- Node13&#45;&gt;Node12 -->
<g id="edge16" class="edge">
<title>Node13&#45;&gt;Node12</title>
<path fill="none" stroke="#404040" d="M462.5,-1417.2065C462.5,-1405.2824 462.5,-1393.4012 462.5,-1381.9677"/>
<polygon fill="none" stroke="#404040" points="462.5001,-1381.7561 458.5,-1375.7562 462.5,-1369.7561 466.5,-1375.7561 462.5001,-1381.7561"/>
<text text-anchor="middle" x="484" y="-1391" font-family="Helvetica,sans-Serif" font-size="10.00" fill="#000000"> #address</text>
</g>
<!-- Node14&#45;&gt;Node11 -->
<g id="edge17" class="edge">
<title>Node14&#45;&gt;Node11</title>
<path fill="none" stroke="#191970" d="M490.1073,-888.1223C484.6458,-932.8072 476.1534,-1002.2907 470.0295,-1052.395"/>
<polygon fill="none" stroke="#191970" points="493.5867,-888.5032 491.3258,-878.1524 486.6384,-887.6539 493.5867,-888.5032"/>
</g>
<!-- Node15&#45;&gt;Node11 -->
<g id="edge19" class="edge">
<title>Node15&#45;&gt;Node11</title>
<path fill="none" stroke="#404040" d="M402.2208,-988.1414C409.3395,-1003.6493 416.5315,-1019.1718 423.5,-1034 424.5782,-1036.2943 425.6784,-1038.6231 426.7933,-1040.9725"/>
<polygon fill="none" stroke="#404040" points="426.9198,-1041.2375 433.115,-1044.9281 432.0911,-1052.0661 425.8959,-1048.3756 426.9198,-1041.2375"/>
<text text-anchor="middle" x="446.5" y="-1020.5" font-family="Helvetica,sans-Serif" font-size="10.00" fill="#000000"> &#45;elements</text>
</g>
<!-- Node16 -->
<g id="node16" class="node">
<title>Node16</title>
<g id="a_node16"><a xlink:title=" ">
<polygon fill="#ffffff" stroke="#bfbfbf" points="620,-1085.5 620,-1142.5 675,-1142.5 675,-1085.5 620,-1085.5"/>
<text text-anchor="middle" x="647.5" y="-1130.5" font-family="Helvetica,sans-Serif" font-size="10.00" fill="#000000">Printable</text>
<polyline fill="none" stroke="#bfbfbf" points="620,-1123.5 675,-1123.5 "/>
<text text-anchor="middle" x="647.5" y="-1111.5" font-family="Helvetica,sans-Serif" font-size="10.00" fill="#000000"> </text>
<polyline fill="none" stroke="#bfbfbf" points="620,-1104.5 675,-1104.5 "/>
<text text-anchor="middle" x="647.5" y="-1092.5" font-family="Helvetica,sans-Serif" font-size="10.00" fill="#000000"> </text>
</a>
</g>
</g>
<!-- Node16&#45;&gt;Node10 -->
<g id="edge21" class="edge">
<title>Node16&#45;&gt;Node10</title>
<path fill="none" stroke="#191970" d="M647.5,-1075.0305C647.5,-1038.0902 647.5,-981.2592 647.5,-933.2083"/>
<polygon fill="none" stroke="#191970" points="644.0001,-1075.3609 647.5,-1085.3609 651.0001,-1075.3609 644.0001,-1075.3609"/>
</g>
</g>
</svg>
