<?xml version="1.0" encoding="UTF-8" standalone="no"?>
<!DOCTYPE svg PUBLIC "-//W3C//DTD SVG 1.1//EN"
 "http://www.w3.org/Graphics/SVG/1.1/DTD/svg11.dtd">
<!-- Generated by graphviz version 2.40.1 (20161225.0304)
 -->
<!-- Title: AnalogMultiplex.hpp Pages: 1 -->
<svg width="1474pt" height="823pt"
 viewBox="0.00 0.00 1474.09 823.00" xmlns="http://www.w3.org/2000/svg" xmlns:xlink="http://www.w3.org/1999/xlink">
<g id="graph0" class="graph" transform="scale(1 1) rotate(0) translate(4 819)">
<title>AnalogMultiplex.hpp</title>
<polygon fill="#ffffff" stroke="transparent" points="-4,4 -4,-819 1470.086,-819 1470.086,4 -4,4"/>
<!-- Node1 -->
<g id="node1" class="node">
<title>Node1</title>
<g id="a_node1"><a xlink:title=" ">
<polygon fill="#bfbfbf" stroke="#000000" points="710,-795.5 710,-814.5 814,-814.5 814,-795.5 710,-795.5"/>
<text text-anchor="middle" x="762" y="-802.5" font-family="Helvetica,sans-Serif" font-size="10.00" fill="#000000">AnalogMultiplex.hpp</text>
</a>
</g>
</g>
<!-- Node2 -->
<g id="node2" class="node">
<title>Node2</title>
<g id="a_node2"><a xlink:href="../../d1/d65/Warnings_8hpp.html" target="_top" xlink:title=" ">
<polygon fill="#ffffff" stroke="#000000" points="346.5,-.5 346.5,-19.5 479.5,-19.5 479.5,-.5 346.5,-.5"/>
<text text-anchor="middle" x="413" y="-7.5" font-family="Helvetica,sans-Serif" font-size="10.00" fill="#000000">AH/Settings/Warnings.hpp</text>
</a>
</g>
</g>
<!-- Node1&#45;&gt;Node2 -->
<g id="edge1" class="edge">
<title>Node1&#45;&gt;Node2</title>
<path fill="none" stroke="#191970" d="M709.9246,-802.8459C538.0923,-795.0539 0,-764.9125 0,-693 0,-693 0,-693 0,-122 0,-87.4675 11.908,-74.6051 41,-56 88.4736,-25.6393 241.9708,-15.3046 336.3093,-11.7954"/>
<polygon fill="#191970" stroke="#191970" points="336.5084,-15.2906 346.378,-11.4383 336.2602,-8.295 336.5084,-15.2906"/>
</g>
<!-- Node3 -->
<g id="node3" class="node">
<title>Node3</title>
<g id="a_node3"><a xlink:href="../../dd/ddf/ExtendedInputOutput_8hpp.html" target="_top" xlink:title=" ">
<polygon fill="#ffffff" stroke="#000000" points="828,-627.5 828,-646.5 956,-646.5 956,-627.5 828,-627.5"/>
<text text-anchor="middle" x="892" y="-634.5" font-family="Helvetica,sans-Serif" font-size="10.00" fill="#000000">ExtendedInputOutput.hpp</text>
</a>
</g>
</g>
<!-- Node1&#45;&gt;Node3 -->
<g id="edge2" class="edge">
<title>Node1&#45;&gt;Node3</title>
<path fill="none" stroke="#191970" d="M769.3618,-795.4862C790.3566,-768.3545 850.7716,-690.2798 878.1816,-654.8576"/>
<polygon fill="#191970" stroke="#191970" points="881.0433,-656.8786 884.3951,-646.8279 875.5072,-652.5947 881.0433,-656.8786"/>
</g>
<!-- Node11 -->
<g id="node11" class="node">
<title>Node11</title>
<g id="a_node11"><a xlink:href="../../de/d76/Array_8hpp.html" target="_top" xlink:title=" ">
<polygon fill="#ffffff" stroke="#000000" points="180,-504.5 180,-523.5 306,-523.5 306,-504.5 180,-504.5"/>
<text text-anchor="middle" x="243" y="-511.5" font-family="Helvetica,sans-Serif" font-size="10.00" fill="#000000">AH/Containers/Array.hpp</text>
</a>
</g>
</g>
<!-- Node1&#45;&gt;Node11 -->
<g id="edge63" class="edge">
<title>Node1&#45;&gt;Node11</title>
<path fill="none" stroke="#191970" d="M709.5484,-798.9468C579.7553,-783.2618 254,-739.2852 254,-693 254,-693 254,-693 254,-637 254,-600.3537 249.096,-557.8092 245.8368,-533.5803"/>
<polygon fill="#191970" stroke="#191970" points="249.2849,-532.9643 244.4381,-523.5432 242.3519,-533.9306 249.2849,-532.9643"/>
</g>
<!-- Node25 -->
<g id="node25" class="node">
<title>Node25</title>
<g id="a_node25"><a xlink:href="../../d2/d05/StaticSizeExtendedIOElement_8hpp.html" target="_top" xlink:title=" ">
<polygon fill="#ffffff" stroke="#000000" points="845,-739.5 845,-758.5 1013,-758.5 1013,-739.5 845,-739.5"/>
<text text-anchor="middle" x="929" y="-746.5" font-family="Helvetica,sans-Serif" font-size="10.00" fill="#000000">StaticSizeExtendedIOElement.hpp</text>
</a>
</g>
</g>
<!-- Node1&#45;&gt;Node25 -->
<g id="edge46" class="edge">
<title>Node1&#45;&gt;Node25</title>
<path fill="none" stroke="#191970" d="M790.7083,-795.3733C818.3577,-786.1016 860.3576,-772.0178 890.8166,-761.804"/>
<polygon fill="#191970" stroke="#191970" points="892.2979,-764.9989 900.6663,-758.5011 890.0724,-758.3621 892.2979,-764.9989"/>
</g>
<!-- Node28 -->
<g id="node28" class="node">
<title>Node28</title>
<g id="a_node28"><a xlink:title=" ">
<polygon fill="#ffffff" stroke="#bfbfbf" points="1154,-392.5 1154,-411.5 1202,-411.5 1202,-392.5 1154,-392.5"/>
<text text-anchor="middle" x="1178" y="-399.5" font-family="Helvetica,sans-Serif" font-size="10.00" fill="#000000">stdlib.h</text>
</a>
</g>
</g>
<!-- Node1&#45;&gt;Node28 -->
<g id="edge64" class="edge">
<title>Node1&#45;&gt;Node28</title>
<path fill="none" stroke="#191970" d="M814.0025,-800.9414C879.9621,-794.9302 989.0954,-781.8364 1022,-759 1066.4089,-728.1793 1104.9069,-713.5789 1173,-468 1177.1796,-452.9264 1178.328,-435.222 1178.4871,-421.9466"/>
<polygon fill="#191970" stroke="#191970" points="1181.9849,-421.5762 1178.4235,-411.5979 1174.9851,-421.6192 1181.9849,-421.5762"/>
</g>
<!-- Node3&#45;&gt;Node2 -->
<g id="edge3" class="edge">
<title>Node3&#45;&gt;Node2</title>
<path fill="none" stroke="#191970" d="M827.7914,-635.875C692.6443,-632.9027 383.0542,-622.7468 283,-591 147.1247,-547.8874 76,-488.551 76,-346 76,-346 76,-346 76,-122 76,-80.5164 105.1426,-75.0373 142,-56 175.0198,-38.9449 268.176,-25.6152 336.0699,-17.791"/>
<polygon fill="#191970" stroke="#191970" points="336.7724,-21.2339 346.3145,-16.6298 335.9839,-14.2784 336.7724,-21.2339"/>
</g>
<!-- Node4 -->
<g id="node4" class="node">
<title>Node4</title>
<g id="a_node4"><a xlink:href="../../d6/db0/AH_2Settings_2NamespaceSettings_8hpp.html" target="_top" xlink:title=" ">
<polygon fill="#ffffff" stroke="#000000" points="684,-56.5 684,-75.5 864,-75.5 864,-56.5 684,-56.5"/>
<text text-anchor="middle" x="774" y="-63.5" font-family="Helvetica,sans-Serif" font-size="10.00" fill="#000000">AH/Settings/NamespaceSettings.hpp</text>
</a>
</g>
</g>
<!-- Node3&#45;&gt;Node4 -->
<g id="edge4" class="edge">
<title>Node3&#45;&gt;Node4</title>
<path fill="none" stroke="#191970" d="M885.525,-627.2332C879.896,-618.2239 872.0295,-604.2738 868,-591 820.3394,-433.9976 896.8012,-372.9553 828,-224 818.7716,-204.0204 803.7637,-207.7235 794,-188 777.5677,-154.8053 774.2012,-110.9253 773.7522,-85.8502"/>
<polygon fill="#191970" stroke="#191970" points="777.252,-85.7452 773.7148,-75.7583 770.252,-85.7713 777.252,-85.7452"/>
</g>
<!-- Node5 -->
<g id="node5" class="node">
<title>Node5</title>
<g id="a_node5"><a xlink:href="../../d6/ddf/Arduino-Wrapper_8h.html" target="_top" xlink:title=" ">
<polygon fill="#ffffff" stroke="#000000" points="802.5,-168.5 802.5,-187.5 917.5,-187.5 917.5,-168.5 802.5,-168.5"/>
<text text-anchor="middle" x="860" y="-175.5" font-family="Helvetica,sans-Serif" font-size="10.00" fill="#000000">AH/Arduino&#45;Wrapper.h</text>
</a>
</g>
</g>
<!-- Node3&#45;&gt;Node5 -->
<g id="edge5" class="edge">
<title>Node3&#45;&gt;Node5</title>
<path fill="none" stroke="#191970" d="M951.318,-627.4757C972.515,-620.9 994.2816,-609.7855 1007,-591 1014.7242,-579.5911 1009.9616,-573.4557 1007,-560 984.4734,-457.6541 908,-450.7956 908,-346 908,-346 908,-346 908,-290 908,-254.4341 887.2983,-217.2782 873.0855,-195.9597"/>
<polygon fill="#191970" stroke="#191970" points="875.8613,-193.8202 867.2902,-187.5923 870.1067,-197.8059 875.8613,-193.8202"/>
</g>
<!-- Node10 -->
<g id="node10" class="node">
<title>Node10</title>
<g id="a_node10"><a xlink:href="../../d4/d35/Hardware-Types_8hpp.html" target="_top" xlink:title=" ">
<polygon fill="#ffffff" stroke="#000000" points="876.5,-560.5 876.5,-590.5 997.5,-590.5 997.5,-560.5 876.5,-560.5"/>
<text text-anchor="start" x="884.5" y="-578.5" font-family="Helvetica,sans-Serif" font-size="10.00" fill="#000000">AH/Hardware/Hardware</text>
<text text-anchor="middle" x="937" y="-567.5" font-family="Helvetica,sans-Serif" font-size="10.00" fill="#000000">&#45;Types.hpp</text>
</a>
</g>
</g>
<!-- Node3&#45;&gt;Node10 -->
<g id="edge14" class="edge">
<title>Node3&#45;&gt;Node10</title>
<path fill="none" stroke="#191970" d="M899.0313,-627.3906C904.6139,-619.761 912.6591,-608.7658 919.9082,-598.8588"/>
<polygon fill="#191970" stroke="#191970" points="922.9112,-600.6817 925.9918,-590.5446 917.262,-596.5481 922.9112,-600.6817"/>
</g>
<!-- Node6 -->
<g id="node6" class="node">
<title>Node6</title>
<g id="a_node6"><a xlink:href="../../d7/d79/MinMaxFix_8hpp.html" target="_top" xlink:title=" ">
<polygon fill="#ffffff" stroke="#000000" points="868.5,-112.5 868.5,-131.5 993.5,-131.5 993.5,-112.5 868.5,-112.5"/>
<text text-anchor="middle" x="931" y="-119.5" font-family="Helvetica,sans-Serif" font-size="10.00" fill="#000000">AH/Math/MinMaxFix.hpp</text>
</a>
</g>
</g>
<!-- Node5&#45;&gt;Node6 -->
<g id="edge6" class="edge">
<title>Node5&#45;&gt;Node6</title>
<path fill="none" stroke="#191970" d="M872.3673,-168.2455C882.9554,-159.8943 898.4064,-147.7076 910.7893,-137.9408"/>
<polygon fill="#191970" stroke="#191970" points="913.0903,-140.5837 918.7745,-131.6427 908.7553,-135.0875 913.0903,-140.5837"/>
</g>
<!-- Node8 -->
<g id="node8" class="node">
<title>Node8</title>
<g id="a_node8"><a xlink:title=" ">
<polygon fill="#ffffff" stroke="#bfbfbf" points="1398,-.5 1398,-19.5 1456,-19.5 1456,-.5 1398,-.5"/>
<text text-anchor="middle" x="1427" y="-7.5" font-family="Helvetica,sans-Serif" font-size="10.00" fill="#000000">Arduino.h</text>
</a>
</g>
</g>
<!-- Node5&#45;&gt;Node8 -->
<g id="edge13" class="edge">
<title>Node5&#45;&gt;Node8</title>
<path fill="none" stroke="#191970" d="M917.6242,-172.4286C1061.2197,-157.9672 1425.9813,-117.4627 1461,-76 1473.4908,-61.2107 1459.6234,-41.0583 1446.0259,-26.9257"/>
<polygon fill="#191970" stroke="#191970" points="1448.2762,-24.2319 1438.6686,-19.7659 1443.3943,-29.2485 1448.2762,-24.2319"/>
</g>
<!-- Node9 -->
<g id="node9" class="node">
<title>Node9</title>
<g id="a_node9"><a xlink:title=" ">
<polygon fill="#ffffff" stroke="#bfbfbf" points="606.5,-112.5 606.5,-131.5 707.5,-131.5 707.5,-112.5 606.5,-112.5"/>
<text text-anchor="middle" x="657" y="-119.5" font-family="Helvetica,sans-Serif" font-size="10.00" fill="#000000">AH/STL/type_traits</text>
</a>
</g>
</g>
<!-- Node5&#45;&gt;Node9 -->
<g id="edge12" class="edge">
<title>Node5&#45;&gt;Node9</title>
<path fill="none" stroke="#191970" d="M825.1031,-168.3733C790.9089,-158.9404 738.6585,-144.5265 701.4958,-134.2747"/>
<polygon fill="#191970" stroke="#191970" points="702.0123,-130.7865 691.4416,-131.5011 700.1507,-137.5345 702.0123,-130.7865"/>
</g>
<!-- Node6&#45;&gt;Node2 -->
<g id="edge7" class="edge">
<title>Node6&#45;&gt;Node2</title>
<path fill="none" stroke="#191970" d="M925.741,-112.3192C917.0049,-97.3126 897.9635,-68.83 873,-56 839.8031,-38.9384 611.9664,-22.3837 489.8853,-14.608"/>
<polygon fill="#191970" stroke="#191970" points="490.0477,-11.1113 479.8467,-13.9732 489.6059,-18.0974 490.0477,-11.1113"/>
</g>
<!-- Node6&#45;&gt;Node4 -->
<g id="edge11" class="edge">
<title>Node6&#45;&gt;Node4</title>
<path fill="none" stroke="#191970" d="M904.0107,-112.3733C878.1301,-103.1419 838.8752,-89.1402 810.2711,-78.9375"/>
<polygon fill="#191970" stroke="#191970" points="811.2317,-75.5642 800.6371,-75.5011 808.88,-82.1573 811.2317,-75.5642"/>
</g>
<!-- Node7 -->
<g id="node7" class="node">
<title>Node7</title>
<g id="a_node7"><a xlink:href="../../d6/d3b/FixArduinoMacros_8hpp.html" target="_top" xlink:title=" ">
<polygon fill="#ffffff" stroke="#000000" points="1296,-56.5 1296,-75.5 1452,-75.5 1452,-56.5 1296,-56.5"/>
<text text-anchor="middle" x="1374" y="-63.5" font-family="Helvetica,sans-Serif" font-size="10.00" fill="#000000">AH/Math/FixArduinoMacros.hpp</text>
</a>
</g>
</g>
<!-- Node6&#45;&gt;Node7 -->
<g id="edge8" class="edge">
<title>Node6&#45;&gt;Node7</title>
<path fill="none" stroke="#191970" d="M993.5315,-114.0953C1070.7309,-104.3365 1202.3824,-87.6943 1288.7828,-76.7724"/>
<polygon fill="#191970" stroke="#191970" points="1289.3445,-80.2293 1298.8266,-75.5027 1288.4666,-73.2846 1289.3445,-80.2293"/>
</g>
<!-- Node7&#45;&gt;Node2 -->
<g id="edge9" class="edge">
<title>Node7&#45;&gt;Node2</title>
<path fill="none" stroke="#191970" d="M1295.7312,-57.1944C1291.0877,-56.7646 1286.484,-56.3621 1282,-56 989.7947,-32.4036 641.2951,-18.15 489.7199,-12.6327"/>
<polygon fill="#191970" stroke="#191970" points="489.7067,-9.13 479.5867,-12.2662 489.4536,-16.1254 489.7067,-9.13"/>
</g>
<!-- Node7&#45;&gt;Node8 -->
<g id="edge10" class="edge">
<title>Node7&#45;&gt;Node8</title>
<path fill="none" stroke="#191970" d="M1383.2319,-56.2455C1390.8317,-48.2155 1401.7877,-36.6394 1410.8368,-27.0781"/>
<polygon fill="#191970" stroke="#191970" points="1413.5421,-29.3115 1417.8739,-19.6427 1408.458,-24.4998 1413.5421,-29.3115"/>
</g>
<!-- Node10&#45;&gt;Node2 -->
<g id="edge15" class="edge">
<title>Node10&#45;&gt;Node2</title>
<path fill="none" stroke="#191970" d="M946.9169,-560.3651C969.339,-524.6379 1022,-431.6148 1022,-346 1022,-346 1022,-346 1022,-122 1022,-59.9606 958.3877,-73.944 899,-56 824.5786,-33.5136 607.221,-19.6319 490.0202,-13.5706"/>
<polygon fill="#191970" stroke="#191970" points="489.8543,-10.0576 479.6889,-13.0431 489.4974,-17.0485 489.8543,-10.0576"/>
</g>
<!-- Node10&#45;&gt;Node4 -->
<g id="edge44" class="edge">
<title>Node10&#45;&gt;Node4</title>
<path fill="none" stroke="#191970" d="M937.9975,-560.471C940.3408,-523.8258 946,-426.945 946,-346 946,-346 946,-346 946,-234 946,-203.4754 946.1705,-191.7539 927,-168 905.7699,-141.6941 888.39,-150.3501 860,-132 836.0412,-116.514 810.3042,-96.228 793.2944,-82.2553"/>
<polygon fill="#191970" stroke="#191970" points="795.1817,-79.2735 785.2505,-75.5828 790.7126,-84.6612 795.1817,-79.2735"/>
</g>
<!-- Node10&#45;&gt;Node11 -->
<g id="edge16" class="edge">
<title>Node10&#45;&gt;Node11</title>
<path fill="none" stroke="#191970" d="M876.4115,-571.6029C766.7963,-564.3073 528.0441,-547.2956 316.2555,-524.0881"/>
<polygon fill="#191970" stroke="#191970" points="316.5147,-520.5955 306.1913,-522.9783 315.7474,-527.5533 316.5147,-520.5955"/>
</g>
<!-- Node21 -->
<g id="node21" class="node">
<title>Node21</title>
<g id="a_node21"><a xlink:title=" ">
<polygon fill="#ffffff" stroke="#bfbfbf" points="754.5,-224.5 754.5,-243.5 803.5,-243.5 803.5,-224.5 754.5,-224.5"/>
<text text-anchor="middle" x="779" y="-231.5" font-family="Helvetica,sans-Serif" font-size="10.00" fill="#000000">stdint.h</text>
</a>
</g>
</g>
<!-- Node10&#45;&gt;Node21 -->
<g id="edge45" class="edge">
<title>Node10&#45;&gt;Node21</title>
<path fill="none" stroke="#191970" d="M892.5378,-560.3389C850.5598,-542.8695 794,-509.7329 794,-458 794,-458 794,-458 794,-346 794,-313.2739 787.6307,-275.641 783.193,-253.3923"/>
<polygon fill="#191970" stroke="#191970" points="786.6058,-252.6123 781.1491,-243.5307 779.7515,-254.0329 786.6058,-252.6123"/>
</g>
<!-- Node11&#45;&gt;Node2 -->
<g id="edge17" class="edge">
<title>Node11&#45;&gt;Node2</title>
<path fill="none" stroke="#191970" d="M215.9574,-504.4903C178.1304,-489.2562 114,-455.5346 114,-402 114,-402 114,-402 114,-122 114,-74.5213 155.0108,-76.1531 198,-56 241.3555,-35.6752 293.8458,-24.224 336.1082,-17.8304"/>
<polygon fill="#191970" stroke="#191970" points="336.6704,-21.2856 346.0654,-16.3882 335.667,-14.3578 336.6704,-21.2856"/>
</g>
<!-- Node11&#45;&gt;Node9 -->
<g id="edge42" class="edge">
<title>Node11&#45;&gt;Node9</title>
<path fill="none" stroke="#191970" d="M219.6999,-504.4751C203.7917,-496.8381 183.4232,-484.6409 171,-468 152.7394,-443.5398 152,-432.5246 152,-402 152,-402 152,-402 152,-346 152,-248.0837 473.2482,-163.8655 603.3018,-133.7827"/>
<polygon fill="#191970" stroke="#191970" points="604.1037,-137.1897 613.068,-131.5424 602.5386,-130.3669 604.1037,-137.1897"/>
</g>
<!-- Node12 -->
<g id="node12" class="node">
<title>Node12</title>
<g id="a_node12"><a xlink:href="../../d1/d93/Error_8hpp.html" target="_top" xlink:title=" ">
<polygon fill="#ffffff" stroke="#000000" points="180,-448.5 180,-467.5 278,-467.5 278,-448.5 180,-448.5"/>
<text text-anchor="middle" x="229" y="-455.5" font-family="Helvetica,sans-Serif" font-size="10.00" fill="#000000">AH/Error/Error.hpp</text>
</a>
</g>
</g>
<!-- Node11&#45;&gt;Node12 -->
<g id="edge18" class="edge">
<title>Node11&#45;&gt;Node12</title>
<path fill="none" stroke="#191970" d="M240.5614,-504.2455C238.7145,-496.8579 236.1172,-486.4689 233.8522,-477.4087"/>
<polygon fill="#191970" stroke="#191970" points="237.2316,-476.4952 231.4107,-467.6427 230.4406,-478.193 237.2316,-476.4952"/>
</g>
<!-- Node20 -->
<g id="node20" class="node">
<title>Node20</title>
<g id="a_node20"><a xlink:title=" ">
<polygon fill="#ffffff" stroke="#bfbfbf" points="338,-224.5 338,-243.5 390,-243.5 390,-224.5 338,-224.5"/>
<text text-anchor="middle" x="364" y="-231.5" font-family="Helvetica,sans-Serif" font-size="10.00" fill="#000000">stddef.h</text>
</a>
</g>
</g>
<!-- Node11&#45;&gt;Node20 -->
<g id="edge43" class="edge">
<title>Node11&#45;&gt;Node20</title>
<path fill="none" stroke="#191970" d="M295.0814,-504.4495C332.5689,-496.3926 378.4796,-483.6763 390,-468 395.2638,-460.8373 392.7181,-456.4631 390,-448 365.2594,-370.9671 308.7406,-377.0329 284,-300 281.2819,-291.5369 279.5488,-287.6941 284,-280 293.5904,-263.4227 311.6677,-252.297 328.2149,-245.1462"/>
<polygon fill="#191970" stroke="#191970" points="329.6987,-248.323 337.705,-241.3841 327.119,-241.8157 329.6987,-248.323"/>
</g>
<!-- Node24 -->
<g id="node24" class="node">
<title>Node24</title>
<g id="a_node24"><a xlink:title=" ">
<polygon fill="#ffffff" stroke="#bfbfbf" points="296.5,-448.5 296.5,-467.5 381.5,-467.5 381.5,-448.5 296.5,-448.5"/>
<text text-anchor="middle" x="339" y="-455.5" font-family="Helvetica,sans-Serif" font-size="10.00" fill="#000000">AH/STL/iterator</text>
</a>
</g>
</g>
<!-- Node11&#45;&gt;Node24 -->
<g id="edge41" class="edge">
<title>Node11&#45;&gt;Node24</title>
<path fill="none" stroke="#191970" d="M259.7219,-504.2455C274.5889,-495.5731 296.5466,-482.7645 313.5858,-472.825"/>
<polygon fill="#191970" stroke="#191970" points="315.5955,-475.7047 322.4697,-467.6427 312.0683,-469.6582 315.5955,-475.7047"/>
</g>
<!-- Node12&#45;&gt;Node2 -->
<g id="edge19" class="edge">
<title>Node12&#45;&gt;Node2</title>
<path fill="none" stroke="#191970" d="M224.1833,-448.102C207.3261,-412.5194 152,-287.4021 152,-178 152,-178 152,-178 152,-122 152,-77.5238 281.6091,-40.1137 358.1591,-21.8971"/>
<polygon fill="#191970" stroke="#191970" points="359.1945,-25.2494 368.1325,-19.5607 357.5977,-18.434 359.1945,-25.2494"/>
</g>
<!-- Node13 -->
<g id="node13" class="node">
<title>Node13</title>
<g id="a_node13"><a xlink:href="../../df/dee/Debug_8hpp.html" target="_top" xlink:title=" ">
<polygon fill="#ffffff" stroke="#000000" points="486.5,-392.5 486.5,-411.5 599.5,-411.5 599.5,-392.5 486.5,-392.5"/>
<text text-anchor="middle" x="543" y="-399.5" font-family="Helvetica,sans-Serif" font-size="10.00" fill="#000000">AH/Debug/Debug.hpp</text>
</a>
</g>
</g>
<!-- Node12&#45;&gt;Node13 -->
<g id="edge20" class="edge">
<title>Node12&#45;&gt;Node13</title>
<path fill="none" stroke="#191970" d="M278.0625,-449.25C332.359,-439.5665 420.0382,-423.9295 479.5268,-413.3201"/>
<polygon fill="#191970" stroke="#191970" points="480.3262,-416.7328 489.5563,-411.5314 479.0971,-409.8415 480.3262,-416.7328"/>
</g>
<!-- Node13&#45;&gt;Node2 -->
<g id="edge21" class="edge">
<title>Node13&#45;&gt;Node2</title>
<path fill="none" stroke="#191970" d="M486.3205,-397.1799C395.63,-386.0231 228,-349.7461 228,-234 228,-234 228,-234 228,-122 228,-64.652 293.859,-35.8663 346.9871,-21.9749"/>
<polygon fill="#191970" stroke="#191970" points="347.8799,-25.3596 356.7404,-19.5509 346.1914,-18.5663 347.8799,-25.3596"/>
</g>
<!-- Node14 -->
<g id="node14" class="node">
<title>Node14</title>
<g id="a_node14"><a xlink:href="../../dd/d80/PrintStream_8hpp.html" target="_top" xlink:title=" ">
<polygon fill="#ffffff" stroke="#000000" points="293.5,-280.5 293.5,-299.5 452.5,-299.5 452.5,-280.5 293.5,-280.5"/>
<text text-anchor="middle" x="373" y="-287.5" font-family="Helvetica,sans-Serif" font-size="10.00" fill="#000000">AH/PrintStream/PrintStream.hpp</text>
</a>
</g>
</g>
<!-- Node13&#45;&gt;Node14 -->
<g id="edge22" class="edge">
<title>Node13&#45;&gt;Node14</title>
<path fill="none" stroke="#191970" d="M530.6197,-392.4104C513.3658,-379.1881 480.9441,-354.8554 452,-336 434.9306,-324.8803 415.1175,-313.3468 399.6034,-304.6101"/>
<polygon fill="#191970" stroke="#191970" points="400.9995,-301.381 390.5622,-299.5604 397.5861,-307.4924 400.9995,-301.381"/>
</g>
<!-- Node15 -->
<g id="node15" class="node">
<title>Node15</title>
<g id="a_node15"><a xlink:href="../../de/dd1/AH_2Settings_2SettingsWrapper_8hpp.html" target="_top" xlink:title=" ">
<polygon fill="#ffffff" stroke="#000000" points="600,-336.5 600,-355.5 764,-355.5 764,-336.5 600,-336.5"/>
<text text-anchor="middle" x="682" y="-343.5" font-family="Helvetica,sans-Serif" font-size="10.00" fill="#000000">AH/Settings/SettingsWrapper.hpp</text>
</a>
</g>
</g>
<!-- Node13&#45;&gt;Node15 -->
<g id="edge25" class="edge">
<title>Node13&#45;&gt;Node15</title>
<path fill="none" stroke="#191970" d="M561.6529,-392.3733C582.6683,-383.1822 617.0292,-369.2624 643.7427,-359.0713"/>
<polygon fill="#191970" stroke="#191970" points="645.0803,-362.3076 653.1996,-355.5011 642.6079,-355.7587 645.0803,-362.3076"/>
</g>
<!-- Node23 -->
<g id="node23" class="node">
<title>Node23</title>
<g id="a_node23"><a xlink:href="../../d7/d52/DebugVal_8hpp.html" target="_top" xlink:title=" ">
<polygon fill="#ffffff" stroke="#000000" points="504,-336.5 504,-355.5 582,-355.5 582,-336.5 504,-336.5"/>
<text text-anchor="middle" x="543" y="-343.5" font-family="Helvetica,sans-Serif" font-size="10.00" fill="#000000">DebugVal.hpp</text>
</a>
</g>
</g>
<!-- Node13&#45;&gt;Node23 -->
<g id="edge40" class="edge">
<title>Node13&#45;&gt;Node23</title>
<path fill="none" stroke="#191970" d="M543,-392.2455C543,-384.9382 543,-374.6944 543,-365.7046"/>
<polygon fill="#191970" stroke="#191970" points="546.5001,-365.6426 543,-355.6427 539.5001,-365.6427 546.5001,-365.6426"/>
</g>
<!-- Node14&#45;&gt;Node2 -->
<g id="edge23" class="edge">
<title>Node14&#45;&gt;Node2</title>
<path fill="none" stroke="#191970" d="M360.8654,-280.2631C350.948,-271.6942 337.2617,-258.3714 329,-244 313.7869,-217.5366 310,-208.5246 310,-178 310,-178 310,-178 310,-122 310,-77.4711 354.6559,-43.0241 385.1607,-24.6879"/>
<polygon fill="#191970" stroke="#191970" points="387.1985,-27.5529 394.1082,-19.5213 383.6981,-21.4909 387.1985,-27.5529"/>
</g>
<!-- Node14&#45;&gt;Node5 -->
<g id="edge24" class="edge">
<title>Node14&#45;&gt;Node5</title>
<path fill="none" stroke="#191970" d="M389.1517,-280.3466C414.5557,-265.6423 465.8257,-237.8805 513,-224 607.4623,-196.2055 721.358,-185.1673 792.2448,-180.8088"/>
<polygon fill="#191970" stroke="#191970" points="792.6066,-184.2937 802.384,-180.213 792.1959,-177.3057 792.6066,-184.2937"/>
</g>
<!-- Node15&#45;&gt;Node2 -->
<g id="edge26" class="edge">
<title>Node15&#45;&gt;Node2</title>
<path fill="none" stroke="#191970" d="M618.6109,-336.4796C573.0687,-328.4793 516.7117,-315.8233 499,-300 417.8204,-227.4759 411.7208,-82.2606 412.3387,-29.625"/>
<polygon fill="#191970" stroke="#191970" points="415.8384,-29.6728 412.5562,-19.5992 408.84,-29.5209 415.8384,-29.6728"/>
</g>
<!-- Node15&#45;&gt;Node4 -->
<g id="edge27" class="edge">
<title>Node15&#45;&gt;Node4</title>
<path fill="none" stroke="#191970" d="M710.2709,-336.432C729.959,-328.7747 755.9905,-316.5709 775,-300 797.6729,-280.2356 804.1659,-272.7515 813,-244 815.6107,-235.5031 817.1603,-231.8552 813,-224 799.6723,-198.8358 773.3277,-213.1642 760,-188 742.5379,-155.0295 755.492,-110.1252 765.4377,-85.01"/>
<polygon fill="#191970" stroke="#191970" points="768.7656,-86.1251 769.4185,-75.5504 762.3136,-83.4099 768.7656,-86.1251"/>
</g>
<!-- Node15&#45;&gt;Node13 -->
<g id="edge39" class="edge">
<title>Node15&#45;&gt;Node13</title>
<path fill="none" stroke="#191970" d="M663.6341,-355.5011C642.7411,-364.6488 608.4066,-378.5639 581.6238,-388.7888"/>
<polygon fill="#191970" stroke="#191970" points="580.2544,-385.5646 572.137,-392.3733 582.7286,-392.1128 580.2544,-385.5646"/>
</g>
<!-- Node16 -->
<g id="node16" class="node">
<title>Node16</title>
<g id="a_node16"><a xlink:href="../../d5/d4f/AH_2Settings_2Settings_8hpp.html" target="_top" xlink:title="All user settings and debugging options can be changed here.">
<polygon fill="#ffffff" stroke="#000000" points="508.5,-280.5 508.5,-299.5 579.5,-299.5 579.5,-280.5 508.5,-280.5"/>
<text text-anchor="middle" x="544" y="-287.5" font-family="Helvetica,sans-Serif" font-size="10.00" fill="#000000">Settings.hpp</text>
</a>
</g>
</g>
<!-- Node15&#45;&gt;Node16 -->
<g id="edge28" class="edge">
<title>Node15&#45;&gt;Node16</title>
<path fill="none" stroke="#191970" d="M658.277,-336.3733C635.8263,-327.2629 601.9261,-313.5062 576.8745,-303.3404"/>
<polygon fill="#191970" stroke="#191970" points="577.9957,-300.0182 567.4135,-299.5011 575.3635,-306.5045 577.9957,-300.0182"/>
</g>
<!-- Node22 -->
<g id="node22" class="node">
<title>Node22</title>
<g id="a_node22"><a xlink:href="../../d9/d98/TeensyUSBTypes_8hpp.html" target="_top" xlink:title=" ">
<polygon fill="#ffffff" stroke="#000000" points="598,-280.5 598,-299.5 766,-299.5 766,-280.5 598,-280.5"/>
<text text-anchor="middle" x="682" y="-287.5" font-family="Helvetica,sans-Serif" font-size="10.00" fill="#000000">AH/Teensy/TeensyUSBTypes.hpp</text>
</a>
</g>
</g>
<!-- Node15&#45;&gt;Node22 -->
<g id="edge38" class="edge">
<title>Node15&#45;&gt;Node22</title>
<path fill="none" stroke="#191970" d="M682,-336.2455C682,-328.9382 682,-318.6944 682,-309.7046"/>
<polygon fill="#191970" stroke="#191970" points="685.5001,-309.6426 682,-299.6427 678.5001,-309.6427 685.5001,-309.6426"/>
</g>
<!-- Node17 -->
<g id="node17" class="node">
<title>Node17</title>
<g id="a_node17"><a xlink:href="../../dc/d50/Frequency_8hpp.html" target="_top" xlink:title=" ">
<polygon fill="#ffffff" stroke="#000000" points="460,-112.5 460,-131.5 588,-131.5 588,-112.5 460,-112.5"/>
<text text-anchor="middle" x="524" y="-119.5" font-family="Helvetica,sans-Serif" font-size="10.00" fill="#000000">AH/Types/Frequency.hpp</text>
</a>
</g>
</g>
<!-- Node16&#45;&gt;Node17 -->
<g id="edge29" class="edge">
<title>Node16&#45;&gt;Node17</title>
<path fill="none" stroke="#191970" d="M534.9259,-280.3243C527.4037,-271.5913 517.2769,-257.9994 513,-244 502.3311,-209.0782 510.9223,-166.1187 517.7369,-141.6135"/>
<polygon fill="#191970" stroke="#191970" points="521.175,-142.3308 520.6674,-131.7481 514.4647,-140.3375 521.175,-142.3308"/>
</g>
<!-- Node18 -->
<g id="node18" class="node">
<title>Node18</title>
<g id="a_node18"><a xlink:href="../../d7/d7c/ADCConfig_8hpp.html" target="_top" xlink:title="This file contains the platform&#45;specific ADC resolutions. By default, the library automatically selec...">
<polygon fill="#ffffff" stroke="#000000" points="522,-224.5 522,-243.5 670,-243.5 670,-224.5 522,-224.5"/>
<text text-anchor="middle" x="596" y="-231.5" font-family="Helvetica,sans-Serif" font-size="10.00" fill="#000000">AH/Hardware/ADCConfig.hpp</text>
</a>
</g>
</g>
<!-- Node16&#45;&gt;Node18 -->
<g id="edge32" class="edge">
<title>Node16&#45;&gt;Node18</title>
<path fill="none" stroke="#191970" d="M553.0577,-280.2455C560.5142,-272.2155 571.2634,-260.6394 580.1417,-251.0781"/>
<polygon fill="#191970" stroke="#191970" points="582.8063,-253.3522 587.0461,-243.6427 577.6768,-248.589 582.8063,-253.3522"/>
</g>
<!-- Node19 -->
<g id="node19" class="node">
<title>Node19</title>
<g id="a_node19"><a xlink:title=" ">
<polygon fill="#ffffff" stroke="#bfbfbf" points="688,-224.5 688,-243.5 736,-243.5 736,-224.5 688,-224.5"/>
<text text-anchor="middle" x="712" y="-231.5" font-family="Helvetica,sans-Serif" font-size="10.00" fill="#000000">limits.h</text>
</a>
</g>
</g>
<!-- Node16&#45;&gt;Node19 -->
<g id="edge35" class="edge">
<title>Node16&#45;&gt;Node19</title>
<path fill="none" stroke="#191970" d="M572.8802,-280.3733C602.0437,-270.6521 647.0776,-255.6408 677.96,-245.3467"/>
<polygon fill="#191970" stroke="#191970" points="679.4673,-248.5336 687.8473,-242.0509 677.2536,-241.8929 679.4673,-248.5336"/>
</g>
<!-- Node16&#45;&gt;Node20 -->
<g id="edge36" class="edge">
<title>Node16&#45;&gt;Node20</title>
<path fill="none" stroke="#191970" d="M513.0569,-280.3733C481.6297,-270.5959 433.0014,-255.4671 399.8992,-245.1686"/>
<polygon fill="#191970" stroke="#191970" points="400.7491,-241.7676 390.1608,-242.1389 398.6696,-248.4516 400.7491,-241.7676"/>
</g>
<!-- Node16&#45;&gt;Node21 -->
<g id="edge37" class="edge">
<title>Node16&#45;&gt;Node21</title>
<path fill="none" stroke="#191970" d="M579.8457,-281.9216C627.8276,-271.0911 710.1123,-252.453 744.4706,-243.9597"/>
<polygon fill="#191970" stroke="#191970" points="745.3374,-247.3507 754.1664,-241.4942 743.6123,-240.5666 745.3374,-247.3507"/>
</g>
<!-- Node17&#45;&gt;Node2 -->
<g id="edge30" class="edge">
<title>Node17&#45;&gt;Node2</title>
<path fill="none" stroke="#191970" d="M514.5362,-112.4509C495.6951,-93.4401 453.2795,-50.6423 429.6659,-26.816"/>
<polygon fill="#191970" stroke="#191970" points="431.9651,-24.1639 422.4398,-19.5249 426.9932,-29.0914 431.9651,-24.1639"/>
</g>
<!-- Node17&#45;&gt;Node4 -->
<g id="edge31" class="edge">
<title>Node17&#45;&gt;Node4</title>
<path fill="none" stroke="#191970" d="M566.6925,-112.4369C609.5679,-102.8328 675.7005,-88.0191 721.7002,-77.7152"/>
<polygon fill="#191970" stroke="#191970" points="722.4905,-81.1249 731.4836,-75.5237 720.9604,-74.2942 722.4905,-81.1249"/>
</g>
<!-- Node18&#45;&gt;Node2 -->
<g id="edge33" class="edge">
<title>Node18&#45;&gt;Node2</title>
<path fill="none" stroke="#191970" d="M574.4052,-224.4575C542.7114,-209.3673 483.8139,-177.0187 451,-132 428.2346,-100.7672 418.8556,-55.5421 415.1865,-29.8345"/>
<polygon fill="#191970" stroke="#191970" points="418.6454,-29.2891 413.9079,-19.8125 411.7017,-30.1751 418.6454,-29.2891"/>
</g>
<!-- Node18&#45;&gt;Node5 -->
<g id="edge34" class="edge">
<title>Node18&#45;&gt;Node5</title>
<path fill="none" stroke="#191970" d="M641.0833,-224.4369C686.4546,-214.8127 756.4886,-199.957 805.0766,-189.6504"/>
<polygon fill="#191970" stroke="#191970" points="806.0466,-193.0226 815.1027,-187.5237 804.5941,-186.175 806.0466,-193.0226"/>
</g>
<!-- Node25&#45;&gt;Node2 -->
<g id="edge47" class="edge">
<title>Node25&#45;&gt;Node2</title>
<path fill="none" stroke="#191970" d="M1013.2333,-742.1241C1113.6325,-728.7881 1268,-689.7127 1268,-575.5 1268,-575.5 1268,-575.5 1268,-122 1268,-60.3519 1205.2595,-72.9944 1146,-56 1024.6423,-21.1971 652.4308,-12.7123 490.0748,-10.6542"/>
<polygon fill="#191970" stroke="#191970" points="489.7309,-7.1499 479.689,-10.5278 489.6456,-14.1494 489.7309,-7.1499"/>
</g>
<!-- Node26 -->
<g id="node26" class="node">
<title>Node26</title>
<g id="a_node26"><a xlink:href="../../d4/d57/ExtendedIOElement_8hpp.html" target="_top" xlink:title=" ">
<polygon fill="#ffffff" stroke="#000000" points="922.5,-683.5 922.5,-702.5 1045.5,-702.5 1045.5,-683.5 922.5,-683.5"/>
<text text-anchor="middle" x="984" y="-690.5" font-family="Helvetica,sans-Serif" font-size="10.00" fill="#000000">ExtendedIOElement.hpp</text>
</a>
</g>
</g>
<!-- Node25&#45;&gt;Node26 -->
<g id="edge48" class="edge">
<title>Node25&#45;&gt;Node26</title>
<path fill="none" stroke="#191970" d="M938.5803,-739.2455C946.5458,-731.1352 958.0641,-719.4075 967.5079,-709.7919"/>
<polygon fill="#191970" stroke="#191970" points="970.0195,-712.2297 974.5295,-702.6427 965.0253,-707.3247 970.0195,-712.2297"/>
</g>
<!-- Node30 -->
<g id="node30" class="node">
<title>Node30</title>
<g id="a_node30"><a xlink:href="../../d5/db6/ArrayHelpers_8hpp.html" target="_top" xlink:title=" ">
<polygon fill="#ffffff" stroke="#000000" points="292,-566 292,-585 452,-585 452,-566 292,-566"/>
<text text-anchor="middle" x="372" y="-573" font-family="Helvetica,sans-Serif" font-size="10.00" fill="#000000">AH/Containers/ArrayHelpers.hpp</text>
</a>
</g>
</g>
<!-- Node25&#45;&gt;Node30 -->
<g id="edge58" class="edge">
<title>Node25&#45;&gt;Node30</title>
<path fill="none" stroke="#191970" d="M898.2599,-739.4248C803.9197,-710.0387 518.5085,-621.1359 412.3468,-588.0676"/>
<polygon fill="#191970" stroke="#191970" points="413.2336,-584.678 402.6451,-585.0457 411.1518,-591.3613 413.2336,-584.678"/>
</g>
<!-- Node26&#45;&gt;Node2 -->
<g id="edge49" class="edge">
<title>Node26&#45;&gt;Node2</title>
<path fill="none" stroke="#191970" d="M1024.6219,-683.4526C1094.4928,-664.3459 1230,-614.3542 1230,-514 1230,-514 1230,-514 1230,-122 1230,-40.1208 1137.9271,-73.7722 1058,-56 951.7839,-32.3823 636.5962,-18.1567 489.8128,-12.6413"/>
<polygon fill="#191970" stroke="#191970" points="489.6638,-9.1334 479.5406,-12.2592 489.4036,-16.1286 489.6638,-9.1334"/>
</g>
<!-- Node26&#45;&gt;Node3 -->
<g id="edge50" class="edge">
<title>Node26&#45;&gt;Node3</title>
<path fill="none" stroke="#191970" d="M967.9748,-683.2455C953.8592,-674.6534 933.0737,-662.0014 916.8101,-652.1018"/>
<polygon fill="#191970" stroke="#191970" points="918.2034,-648.8525 907.8415,-646.6427 914.5637,-654.8319 918.2034,-648.8525"/>
</g>
<!-- Node26&#45;&gt;Node10 -->
<g id="edge57" class="edge">
<title>Node26&#45;&gt;Node10</title>
<path fill="none" stroke="#191970" d="M981.9258,-683.3809C978.9566,-670.3307 972.9619,-646.4167 965,-627 961.2409,-617.8325 956.2912,-608.1893 951.6002,-599.7581"/>
<polygon fill="#191970" stroke="#191970" points="954.5004,-597.7796 946.4912,-590.844 948.4272,-601.2604 954.5004,-597.7796"/>
</g>
<!-- Node27 -->
<g id="node27" class="node">
<title>Node27</title>
<g id="a_node27"><a xlink:href="../../de/dd1/LinkedList_8hpp.html" target="_top" xlink:title=" ">
<polygon fill="#ffffff" stroke="#000000" points="1016.5,-448.5 1016.5,-467.5 1163.5,-467.5 1163.5,-448.5 1016.5,-448.5"/>
<text text-anchor="middle" x="1090" y="-455.5" font-family="Helvetica,sans-Serif" font-size="10.00" fill="#000000">AH/Containers/LinkedList.hpp</text>
</a>
</g>
</g>
<!-- Node26&#45;&gt;Node27 -->
<g id="edge51" class="edge">
<title>Node26&#45;&gt;Node27</title>
<path fill="none" stroke="#191970" d="M989.8807,-683.3925C1000.6441,-665.5823 1023.8854,-626.059 1040,-591 1058.1191,-551.5798 1074.9414,-503.5499 1083.6968,-477.3459"/>
<polygon fill="#191970" stroke="#191970" points="1087.1224,-478.1339 1086.9354,-467.5407 1080.4756,-475.9384 1087.1224,-478.1339"/>
</g>
<!-- Node27&#45;&gt;Node2 -->
<g id="edge52" class="edge">
<title>Node27&#45;&gt;Node2</title>
<path fill="none" stroke="#191970" d="M1085.5734,-448.3458C1077.2284,-429.2352 1060,-385.052 1060,-346 1060,-346 1060,-346 1060,-122 1060,-90.7875 1060.8881,-74.8363 1036,-56 993.3723,-23.7377 646.8407,-13.8847 489.8251,-11.0599"/>
<polygon fill="#191970" stroke="#191970" points="489.8218,-7.5594 479.7621,-10.8839 489.6993,-14.5584 489.8218,-7.5594"/>
</g>
<!-- Node27&#45;&gt;Node6 -->
<g id="edge54" class="edge">
<title>Node27&#45;&gt;Node6</title>
<path fill="none" stroke="#191970" d="M1070.0622,-448.3628C1039.3566,-431.9628 984,-395.5285 984,-346 984,-346 984,-346 984,-234 984,-197.8604 961.1748,-160.9196 945.4825,-139.7933"/>
<polygon fill="#191970" stroke="#191970" points="948.161,-137.5352 939.2813,-131.7558 942.6188,-141.8112 948.161,-137.5352"/>
</g>
<!-- Node27&#45;&gt;Node13 -->
<g id="edge53" class="edge">
<title>Node27&#45;&gt;Node13</title>
<path fill="none" stroke="#191970" d="M1016.2291,-450.4476C909.2683,-439.4973 712.6957,-419.3729 609.7956,-408.8383"/>
<polygon fill="#191970" stroke="#191970" points="610.1388,-405.3552 599.8343,-407.8185 609.4258,-412.3188 610.1388,-405.3552"/>
</g>
<!-- Node27&#45;&gt;Node28 -->
<g id="edge55" class="edge">
<title>Node27&#45;&gt;Node28</title>
<path fill="none" stroke="#191970" d="M1105.3284,-448.2455C1118.8303,-439.6534 1138.7122,-427.0014 1154.2686,-417.1018"/>
<polygon fill="#191970" stroke="#191970" points="1156.2897,-419.9643 1162.8472,-411.6427 1152.5315,-414.0587 1156.2897,-419.9643"/>
</g>
<!-- Node29 -->
<g id="node29" class="node">
<title>Node29</title>
<g id="a_node29"><a xlink:title=" ">
<polygon fill="#ffffff" stroke="#bfbfbf" points="1088.5,-392.5 1088.5,-411.5 1135.5,-411.5 1135.5,-392.5 1088.5,-392.5"/>
<text text-anchor="middle" x="1112" y="-399.5" font-family="Helvetica,sans-Serif" font-size="10.00" fill="#000000">iterator</text>
</a>
</g>
</g>
<!-- Node27&#45;&gt;Node29 -->
<g id="edge56" class="edge">
<title>Node27&#45;&gt;Node29</title>
<path fill="none" stroke="#191970" d="M1093.8321,-448.2455C1096.7659,-440.7776 1100.9047,-430.2427 1104.491,-421.1137"/>
<polygon fill="#191970" stroke="#191970" points="1107.8129,-422.23 1108.2118,-411.6427 1101.2976,-419.6704 1107.8129,-422.23"/>
</g>
<!-- Node30&#45;&gt;Node2 -->
<g id="edge59" class="edge">
<title>Node30&#45;&gt;Node2</title>
<path fill="none" stroke="#191970" d="M291.5412,-567.501C252.5809,-560.6189 206.6427,-547.8162 171,-524 138.7718,-502.4653 38,-391.5835 38,-346 38,-346 38,-346 38,-122 38,-90.7875 37.655,-75.5331 62,-56 82.9787,-39.1679 239.392,-23.8463 336.2078,-15.8401"/>
<polygon fill="#191970" stroke="#191970" points="336.5728,-19.322 346.254,-15.0178 336.0017,-12.3453 336.5728,-19.322"/>
</g>
<!-- Node30&#45;&gt;Node11 -->
<g id="edge60" class="edge">
<title>Node30&#45;&gt;Node11</title>
<path fill="none" stroke="#191970" d="M351.8438,-565.8906C330.449,-555.6908 296.438,-539.4763 272.1298,-527.8875"/>
<polygon fill="#191970" stroke="#191970" points="273.5476,-524.686 263.0147,-523.5419 270.5352,-531.0047 273.5476,-524.686"/>
</g>
<!-- Node30&#45;&gt;Node14 -->
<g id="edge62" class="edge">
<title>Node30&#45;&gt;Node14</title>
<path fill="none" stroke="#191970" d="M388.4887,-565.8327C401.9409,-556.8989 419.9837,-542.2628 428,-524 461.3857,-447.9398 409.607,-348.6963 384.9141,-308.3003"/>
<polygon fill="#191970" stroke="#191970" points="387.8357,-306.3713 379.5554,-299.7617 381.9066,-310.0924 387.8357,-306.3713"/>
</g>
<!-- Node31 -->
<g id="node31" class="node">
<title>Node31</title>
<g id="a_node31"><a xlink:title=" ">
<polygon fill="#ffffff" stroke="#bfbfbf" points="324.5,-504.5 324.5,-523.5 419.5,-523.5 419.5,-504.5 324.5,-504.5"/>
<text text-anchor="middle" x="372" y="-511.5" font-family="Helvetica,sans-Serif" font-size="10.00" fill="#000000">AH/STL/algorithm</text>
</a>
</g>
</g>
<!-- Node30&#45;&gt;Node31 -->
<g id="edge61" class="edge">
<title>Node30&#45;&gt;Node31</title>
<path fill="none" stroke="#191970" d="M372,-565.8906C372,-557.3657 372,-544.6392 372,-533.9235"/>
<polygon fill="#191970" stroke="#191970" points="375.5001,-533.7448 372,-523.7449 368.5001,-533.7449 375.5001,-533.7448"/>
</g>
</g>
</svg>
